<svg xmlns="http://www.w3.org/2000/svg" width="337.4004" height="216.8296" viewBox="-18.7002 -99.9856 337.4004 216.8296">
  
  
  <path fill="black" stroke="none" fill-rule="evenodd" d="M -8.7002 -1.5140 L -8.5988 -0.6862 L -8.3502 0.1533 L -7.9588 0.9902 L -7.4312 1.8102 L -6.7765 2.5992 L -6.0058 3.3437 L -5.1324 4.0310 L -4.1711 4.6493 L -4.0301 4.7229 L -4.5860 5.2773 L -5.0433 5.9377 L -5.3597 6.6583 L -5.5297 7.4266 L -5.5504 8.2297 L -5.4214 9.0536 L -5.1450 9.8844 L -4.7260 10.7078 L -4.1713 11.5097 L -3.4907 12.2765 L -2.6956 12.9949 L -1.7997 13.6527 L -0.8184 14.2387 L -0.7658 14.2639 L -0.8449 14.3238 L -1.4178 14.9299 L -1.8555 15.6035 L -2.1505 16.3330 L -2.2978 17.1061 L -2.2948 17.9093 L -2.1417 18.7291 L -1.8410 19.5514 L -1.3978 20.3621 L -0.8198 21.1474 L -0.1168 21.8937 L 0.6991 22.5884 L 1.6139 23.2196 L 2.5910 23.7646 L 2.4380 23.8867 L 1.8811 24.5075 L 1.4612 25.1923 L 1.1852 25.9293 L 1.0581 26.7059 L 1.0820 27.5088 L 1.2565 28.3243 L 1.5785 29.1385 L 2.0426 29.9374 L 2.6409 30.7073 L 3.3630 31.4351 L 4.1968 32.1083 L 5.1277 32.7154 L 6.0843 33.2168 L 5.8870 33.3819 L 5.3446 34.0153 L 4.9404 34.7096 L 4.6815 35.4527 L 4.5723 36.2320 L 4.6147 37.0342 L 4.8079 37.8455 L 5.1486 38.6520 L 5.6309 39.4400 L 6.2468 40.1960 L 6.9855 40.9070 L 7.8344 41.5608 L 8.7791 42.1464 L 9.7228 42.6136 L 9.5374 42.7752 L 9.0079 43.4195 L 8.6179 44.1218 L 8.3742 44.8700 L 8.2808 45.6514 L 8.3395 46.4526 L 8.5490 47.2598 L 8.9060 48.0592 L 9.4043 48.8373 L 10.0353 49.5806 L 10.7883 50.2764 L 11.6504 50.9129 L 12.6068 51.4792 L 13.5843 51.9387 L 13.4594 52.0515 L 12.9415 52.7052 L 12.5641 53.4143 L 12.3338 54.1668 L 12.2544 54.9497 L 12.3273 55.7497 L 12.5512 56.5530 L 12.9224 57.3460 L 13.4345 58.1150 L 14.0787 58.8470 L 14.8439 59.5293 L 15.7172 60.1503 L 16.6836 60.6994 L 17.7264 61.1671 L 17.7349 61.1700 L 17.2457 61.8076 L 16.8795 62.5225 L 16.6609 63.2785 L 16.5937 64.0626 L 16.6791 64.8613 L 16.9155 65.6611 L 17.2990 66.4482 L 17.8230 67.2091 L 18.4786 67.9309 L 19.2544 68.6012 L 20.1373 69.2085 L 21.1121 69.7424 L 22.1621 70.1939 L 22.3579 70.2578 L 22.0994 70.6043 L 21.7428 71.3241 L 21.5345 72.0830 L 21.4779 72.8679 L 21.5741 73.6654 L 21.8214 74.4619 L 22.2155 75.2437 L 22.7498 75.9975 L 23.4150 76.7103 L 24.1999 77.3700 L 25.0909 77.9653 L 26.0728 78.4860 L 27.1289 78.9232 L 27.7164 79.1061 L 27.5133 79.5283 L 27.3138 80.2895 L 27.2664 81.0750 L 27.3719 81.8713 L 27.6284 82.6649 L 28.0316 83.4421 L 28.5746 84.1896 L 29.2481 84.8946 L 30.0406 85.5452 L 30.9385 86.1300 L 31.9264 86.6393 L 32.9875 87.0641 L 34.1035 87.3973 L 34.7350 87.5267 L 34.7273 87.6807 L 34.8406 88.4760 L 35.1049 89.2669 L 35.5158 90.0401 L 36.0661 90.7822 L 36.7465 91.4806 L 37.5454 92.1233 L 38.4490 92.6993 L 39.4419 93.1988 L 40.5071 93.6131 L 41.6264 93.9353 L 42.7806 94.1598 L 43.9500 94.2828 L 45.1146 94.3021 L 46.2544 94.2175 L 47.3500 94.0303 L 47.8547 93.8903 L 48.0935 94.0397 L 49.0904 94.5311 L 50.1590 94.9367 L 51.2809 95.2497 L 52.4369 95.4648 L 53.6073 95.5782 L 54.7720 95.5880 L 55.9111 95.4940 L 57.0051 95.2979 L 58.0353 95.0030 L 58.9840 94.6143 L 59.8351 94.1385 L 60.5740 93.5838 L 61.1880 92.9596 L 61.6665 92.2766 L 62.0016 91.5465 L 62.1873 90.7818 L 62.2116 90.2073 L 63.0873 90.2089 L 64.2257 90.1075 L 65.3184 89.9041 L 66.3466 89.6024 L 67.2928 89.2075 L 68.1407 88.7262 L 68.8759 88.1666 L 69.4858 87.5383 L 69.9599 86.8522 L 70.2901 86.1199 L 70.4707 85.3540 L 70.4988 84.5676 L 70.3737 83.7741 L 70.0977 82.9871 L 69.7736 82.3983 L 70.4975 82.3301 L 71.5892 82.1212 L 72.6159 81.8143 L 73.5600 81.4146 L 74.4055 80.9290 L 75.1379 80.3657 L 75.7445 79.7343 L 76.2151 79.0458 L 76.5416 78.3119 L 76.7184 77.5451 L 76.7425 76.7585 L 76.6134 75.9656 L 76.3335 75.1801 L 75.9073 74.4152 L 75.4330 73.8014 L 75.6610 73.7791 L 76.7519 73.5664 L 77.7775 73.2558 L 78.7202 72.8527 L 79.5640 72.3640 L 80.2943 71.7981 L 80.8987 71.1646 L 81.3668 70.4744 L 81.6907 69.7393 L 81.8647 68.9719 L 81.8860 68.1852 L 81.7541 67.3928 L 81.4713 66.6083 L 81.0425 65.8449 L 80.4749 65.1159 L 80.2294 64.8755 L 81.2682 64.6706 L 82.2931 64.3578 L 83.2349 63.9528 L 84.0776 63.4623 L 84.8067 62.8948 L 85.4098 62.2600 L 85.8764 61.5688 L 86.1987 60.8330 L 86.3711 60.0652 L 86.3907 59.2785 L 86.2571 58.4864 L 85.9727 57.7025 L 85.5422 56.9400 L 84.9730 56.2122 L 84.4950 55.7460 L 85.3721 55.5724 L 86.3968 55.2589 L 87.3384 54.8531 L 88.1807 54.3621 L 88.9094 53.7941 L 89.5120 53.1589 L 89.9782 52.4673 L 90.3000 51.7313 L 90.4718 50.9634 L 90.4908 50.1767 L 90.3567 49.3847 L 90.0717 48.6009 L 89.6406 47.8388 L 89.0710 47.1114 L 88.4522 46.5088 L 89.1789 46.3655 L 90.2038 46.0527 L 91.1457 45.6476 L 91.9883 45.1571 L 92.7175 44.5897 L 93.3205 43.9549 L 93.7872 43.2637 L 94.1094 42.5279 L 94.2819 41.7601 L 94.3014 40.9734 L 94.1678 40.1813 L 93.8834 39.3973 L 93.4529 38.6349 L 92.8838 37.9071 L 92.1857 37.2263 L 92.1503 37.1993 L 92.7695 37.0786 L 93.7950 36.7680 L 94.7378 36.3649 L 95.5815 35.8762 L 96.3118 35.3103 L 96.9162 34.6768 L 97.3843 33.9866 L 97.7082 33.2515 L 97.8823 32.4841 L 97.9035 31.6974 L 97.7716 30.9051 L 97.4888 30.1205 L 97.0600 29.3571 L 96.4924 28.6281 L 95.7958 27.9459 L 94.9821 27.3221 L 94.0653 26.7674 L 93.0610 26.2913 L 91.9863 25.9020 L 90.8598 25.6061 L 89.7006 25.4087 L 88.5287 25.3131 L 87.3640 25.3211 L 86.2264 25.4324 L 85.1355 25.6451 L 84.1100 25.9557 L 83.1672 26.3588 L 82.3235 26.8475 L 81.5932 27.4134 L 80.9888 28.0469 L 80.5206 28.7371 L 80.1968 29.4722 L 80.0227 30.2396 L 80.0015 31.0263 L 80.1334 31.8187 L 80.4162 32.6032 L 80.8450 33.3666 L 81.4126 34.0956 L 82.1092 34.7778 L 82.1656 34.8211 L 81.5206 34.9484 L 80.4956 35.2611 L 79.5538 35.6662 L 78.7111 36.1567 L 77.9820 36.7242 L 77.3789 37.3589 L 76.9123 38.0501 L 76.5900 38.7859 L 76.4176 39.5538 L 76.3980 40.3404 L 76.5316 41.1326 L 76.8161 41.9165 L 77.2465 42.6789 L 77.8157 43.4067 L 78.4398 44.0154 L 77.7057 44.1607 L 76.6810 44.4742 L 75.7394 44.8800 L 74.8971 45.3710 L 74.1684 45.9390 L 73.5658 46.5742 L 73.0996 47.2658 L 72.7779 48.0018 L 72.6060 48.7697 L 72.5870 49.5564 L 72.7211 50.3484 L 73.0061 51.1322 L 73.4372 51.8943 L 74.0068 52.6217 L 74.4794 53.0820 L 73.6098 53.2535 L 72.5849 53.5663 L 71.6431 53.9714 L 70.8004 54.4618 L 70.0713 55.0293 L 69.4682 55.6641 L 69.0016 56.3553 L 68.6793 57.0911 L 68.5069 57.8589 L 68.4873 58.6456 L 68.6209 59.4377 L 68.9053 60.2217 L 69.3358 60.9841 L 69.9050 61.7119 L 70.1336 61.9349 L 69.1180 62.1329 L 68.0924 62.4435 L 67.1497 62.8466 L 66.3060 63.3353 L 65.5757 63.9012 L 64.9713 64.5347 L 64.5031 65.2249 L 64.1793 65.9600 L 64.0052 66.7274 L 63.9840 67.5141 L 64.1159 68.3064 L 64.3987 69.0910 L 64.8275 69.8543 L 65.2785 70.4337 L 65.0879 70.4517 L 63.9963 70.6605 L 62.9696 70.9674 L 62.0254 71.3671 L 61.1799 71.8528 L 60.4476 72.4161 L 59.8409 73.0474 L 59.3703 73.7359 L 59.0439 74.4698 L 58.8671 75.2366 L 58.8430 76.0232 L 58.9720 76.8161 L 59.2520 77.6016 L 59.5528 78.1415 L 58.8763 78.2018 L 57.7836 78.4051 L 56.7554 78.7068 L 55.8092 79.1018 L 54.9613 79.5831 L 54.2261 80.1427 L 53.6162 80.7709 L 53.1422 81.4571 L 52.8120 82.1894 L 52.6313 82.9553 L 52.6130 83.4664 L 51.7793 83.4594 L 50.6402 83.5534 L 49.5462 83.7495 L 49.0882 83.8806 L 48.8870 83.7523 L 47.8941 83.2528 L 46.8289 82.8385 L 45.7096 82.5163 L 45.1324 82.4040 L 45.1362 82.3415 L 45.0307 81.5451 L 44.7742 80.7516 L 44.3710 79.9744 L 43.8280 79.2269 L 43.1545 78.5218 L 42.3620 77.8713 L 41.4642 77.2864 L 40.4762 76.7772 L 39.4152 76.3523 L 38.9105 76.2017 L 39.0669 75.8860 L 39.2752 75.1272 L 39.3318 74.3423 L 39.2356 73.5448 L 38.9883 72.7483 L 38.5942 71.9665 L 38.0599 71.2127 L 37.3947 70.4998 L 36.6098 69.8401 L 35.7188 69.2448 L 34.7369 68.7241 L 33.6808 68.2870 L 33.5990 68.2615 L 33.7739 68.0336 L 34.1401 67.3187 L 34.3587 66.5627 L 34.4259 65.7787 L 34.3405 64.9799 L 34.1041 64.1802 L 33.7206 63.3931 L 33.1966 62.6321 L 32.5410 61.9104 L 31.7652 61.2401 L 30.8823 60.6328 L 29.9075 60.0988 L 28.9688 59.6952 L 29.3705 59.1883 L 29.7479 58.4792 L 29.9782 57.7267 L 30.0576 56.9438 L 29.9848 56.1438 L 29.7608 55.3405 L 29.3896 54.5475 L 28.8775 53.7785 L 28.2333 53.0465 L 27.4681 52.3642 L 26.5948 51.7432 L 25.6284 51.1941 L 24.8019 50.8234 L 25.3186 50.1946 L 25.7086 49.4923 L 25.9524 48.7441 L 26.0457 47.9627 L 25.9871 47.1616 L 25.7775 46.3544 L 25.4205 45.5549 L 24.9223 44.7769 L 24.2912 44.0336 L 23.5382 43.3377 L 22.6762 42.7012 L 21.7198 42.1350 L 20.9491 41.7726 L 20.9720 41.7535 L 21.5145 41.1200 L 21.9186 40.4258 L 22.1775 39.6827 L 22.2867 38.9033 L 22.2443 38.1012 L 22.0512 37.2899 L 21.7105 36.4833 L 21.2281 35.6953 L 20.6123 34.9394 L 19.8736 34.2284 L 19.0246 33.5745 L 18.0799 32.9890 L 17.3166 32.6110 L 17.3264 32.6032 L 17.8833 31.9824 L 18.3033 31.2977 L 18.5792 30.5607 L 18.7063 29.7841 L 18.6824 28.9811 L 18.5080 28.1656 L 18.1859 27.3514 L 17.7218 26.5526 L 17.1236 25.7826 L 16.4014 25.0548 L 15.5677 24.3816 L 14.6367 23.7745 L 13.8639 23.3695 L 14.3842 22.8190 L 14.8219 22.1454 L 15.1169 21.4158 L 15.2642 20.6428 L 15.2613 19.8395 L 15.1081 19.0197 L 14.8074 18.1975 L 14.3642 17.3868 L 13.7862 16.6015 L 13.0832 15.8552 L 12.2674 15.1605 L 11.3525 14.5293 L 10.5323 14.0718 L 10.9769 13.6284 L 11.4342 12.9680 L 11.7506 12.2475 L 11.9206 11.4791 L 11.9413 10.6761 L 11.8123 9.8522 L 11.5359 9.0214 L 11.1168 8.1980 L 10.5622 7.3960 L 9.8815 6.6293 L 9.0865 5.9109 L 8.1906 5.2531 L 7.3174 4.7317 L 7.6379 4.4326 L 8.1170 3.7878 L 8.4572 3.0782 L 8.6527 2.3159 L 8.7002 1.5140 L 8.5988 0.6862 L 8.3502 -0.1533 L 7.9588 -0.9902 L 7.4312 -1.8102 L 6.7765 -2.5992 L 6.0058 -3.3437 L 5.1324 -4.0310 L 4.1711 -4.6493 L 3.1385 -5.1881 L 2.0521 -5.6382 L 0.9307 -5.9917 L -0.2067 -6.2427 L -1.3405 -6.3869 L -2.4514 -6.4219 L -3.5204 -6.3469 L -4.5291 -6.1634 L -5.4603 -5.8744 L -6.2981 -5.4849 L -7.0282 -5.0015 L -7.6379 -4.4326 L -8.1170 -3.7878 L -8.4572 -3.0782 L -8.6527 -2.3159 L -8.7002 -1.5140 Z"/>
  <g id="debug">
  
  <path fill="none" stroke="#ff3366" stroke-opacity="0.6" stroke-width="0.5" d="M 0 0 L 1.5095 4.4993 L 3.0002 8.8832 L 4.4726 13.1517 L 5.9273 17.3049 L 7.3647 21.3427 L 8.7853 25.2652 L 10.1897 29.0723 L 11.5782 32.7640 L 12.9513 36.3403 L 14.3096 39.8013 L 15.6536 43.1469 L 16.9836 46.3772 L 18.3003 49.4921 L 19.6041 52.4916 L 20.8955 55.3757 L 22.1750 58.1445 L 23.4430 60.7979 L 24.7000 63.3360 L 25.9466 65.7587 L 27.1832 68.0660 L 28.4104 70.2580 L 29.6285 72.3346 L 30.8381 74.2958 L 32.0397 76.1416 L 33.2337 77.8721 L 34.4206 79.4873 L 35.6010 80.9870 L 36.7753 82.3714 L 37.9441 83.6404 L 39.1077 84.7941 L 40.2666 85.8324 L 41.4215 86.7553 L 42.5727 87.5629 L 43.7207 88.2551 L 44.8660 88.8319 L 46.0092 89.2934 L 47.1506 89.6395 L 48.2909 89.8702 L 49.4304 89.9856 L 50.5696 89.9856 L 51.7091 89.8702 L 52.8494 89.6395 L 53.9908 89.2934 L 55.1340 88.8319 L 56.2793 88.2551 L 57.4273 87.5629 L 58.5785 86.7553 L 59.7334 85.8324 L 60.8923 84.7941 L 62.0559 83.6404 L 63.2247 82.3714 L 64.3990 80.9870 L 65.5794 79.4873 L 66.7663 77.8721 L 67.9603 76.1416 L 69.1619 74.2958 L 70.3715 72.3346 L 71.5896 70.2580 L 72.8168 68.0660 L 74.0534 65.7587 L 75.3000 63.3360 L 76.5570 60.7979 L 77.8250 58.1445 L 79.1045 55.3757 L 80.3959 52.4916 L 81.6997 49.4921 L 83.0164 46.3772 L 84.3464 43.1469 L 85.6904 39.8013 L 87.0487 36.3403 L 88.4218 32.7640 L 89.8103 29.0723 L 91.2147 25.2652 L 92.6353 21.3427 L 94.0727 17.3049 L 95.5274 13.1517 L 96.9998 8.8832 L 98.4905 4.4993 L 100.0000 0 L 100.0000 0 L 101.5095 -4.4993 L 103.0002 -8.8832 L 104.4726 -13.1517 L 105.9273 -17.3049 L 107.3647 -21.3427 L 108.7853 -25.2652 L 110.1897 -29.0723 L 111.5782 -32.7640 L 112.9513 -36.3403 L 114.3096 -39.8013 L 115.6536 -43.1469 L 116.9836 -46.3772 L 118.3003 -49.4921 L 119.6041 -52.4916 L 120.8955 -55.3757 L 122.1750 -58.1445 L 123.4430 -60.7979 L 124.7000 -63.3360 L 125.9466 -65.7587 L 127.1832 -68.0660 L 128.4104 -70.2580 L 129.6285 -72.3346 L 130.8381 -74.2958 L 132.0397 -76.1416 L 133.2337 -77.8721 L 134.4206 -79.4873 L 135.6010 -80.9870 L 136.7753 -82.3714 L 137.9441 -83.6404 L 139.1077 -84.7941 L 140.2666 -85.8324 L 141.4215 -86.7553 L 142.5727 -87.5629 L 143.7207 -88.2551 L 144.8660 -88.8319 L 146.0092 -89.2934 L 147.1506 -89.6395 L 148.2909 -89.8702 L 149.4304 -89.9856 L 150.5696 -89.9856 L 151.7091 -89.8702 L 152.8494 -89.6395 L 153.9908 -89.2934 L 155.1340 -88.8319 L 156.2793 -88.2551 L 157.4273 -87.5629 L 158.5785 -86.7553 L 159.7334 -85.8324 L 160.8923 -84.7941 L 162.0559 -83.6404 L 163.2247 -82.3714 L 164.3990 -80.9870 L 165.5794 -79.4873 L 166.7663 -77.8721 L 167.9603 -76.1416 L 169.1619 -74.2958 L 170.3715 -72.3346 L 171.5896 -70.2580 L 172.8168 -68.0660 L 174.0534 -65.7587 L 175.3000 -63.3360 L 176.5570 -60.7979 L 177.8250 -58.1445 L 179.1045 -55.3757 L 180.3959 -52.4916 L 181.6997 -49.4921 L 183.0164 -46.3772 L 184.3464 -43.1469 L 185.6904 -39.8013 L 187.0487 -36.3403 L 188.4218 -32.7640 L 189.8103 -29.0723 L 191.2147 -25.2652 L 192.6353 -21.3427 L 194.0727 -17.3049 L 195.5274 -13.1517 L 196.9998 -8.8832 L 198.4905 -4.4993 L 200.0000 0 L 200.0000 0 L 201.5095 4.4993 L 203.0002 8.8832 L 204.4726 13.1517 L 205.9273 17.3049 L 207.3647 21.3427 L 208.7853 25.2652 L 210.1897 29.0723 L 211.5782 32.7640 L 212.9513 36.3403 L 214.3096 39.8013 L 215.6536 43.1469 L 216.9836 46.3772 L 218.3003 49.4921 L 219.6041 52.4916 L 220.8955 55.3757 L 222.1750 58.1445 L 223.4430 60.7979 L 224.7000 63.3360 L 225.9466 65.7587 L 227.1832 68.0660 L 228.4104 70.2580 L 229.6285 72.3346 L 230.8381 74.2958 L 232.0397 76.1416 L 233.2337 77.8721 L 234.4206 79.4873 L 235.6010 80.9870 L 236.7753 82.3714 L 237.9441 83.6404 L 239.1077 84.7941 L 240.2666 85.8324 L 241.4215 86.7553 L 242.5727 87.5629 L 243.7207 88.2551 L 244.8660 88.8319 L 246.0092 89.2934 L 247.1506 89.6395 L 248.2909 89.8702 L 249.4304 89.9856 L 250.5696 89.9856 L 251.7091 89.8702 L 252.8494 89.6395 L 253.9908 89.2934 L 255.1340 88.8319 L 256.2793 88.2551 L 257.4273 87.5629 L 258.5785 86.7553 L 259.7334 85.8324 L 260.8923 84.7941 L 262.0559 83.6404 L 263.2247 82.3714 L 264.3990 80.9870 L 265.5794 79.4873 L 266.7663 77.8721 L 267.9603 76.1416 L 269.1619 74.2958 L 270.3715 72.3346 L 271.5896 70.2580 L 272.8168 68.0660 L 274.0534 65.7587 L 275.3000 63.3360 L 276.5570 60.7979 L 277.8250 58.1445 L 279.1045 55.3757 L 280.3959 52.4916 L 281.6997 49.4921 L 283.0164 46.3772 L 284.3464 43.1469 L 285.6904 39.8013 L 287.0487 36.3403 L 288.4218 32.7640 L 289.8103 29.0723 L 291.2147 25.2652 L 292.6353 21.3427 L 294.0727 17.3049 L 295.5274 13.1517 L 296.9998 8.8832 L 298.4905 4.4993 L 300.0000 0"/>
  <path fill="none" stroke="#ff9900" stroke-opacity="0.6" stroke-width="0.6" d="M 0 0 L 5.5315 16.5945 M 3.1954 9.4529 L 8.8721 25.9982 M 6.4832 18.8744 L 12.3395 35.3571 M 9.8822 28.2450 L 15.9642 44.6457 M 13.4295 37.5677 L 19.8014 53.8580 M 17.1633 46.8071 L 23.9176 62.9425 M 21.1560 55.9467 L 28.4357 71.8521 M 25.5098 64.9206 L 33.5502 80.4553 M 30.4049 73.6051 L 39.6362 88.4630 M 36.2013 81.7082 L 47.5218 95.0432 M 43.6680 88.2258 L 58.9433 96.7487 M 53.2757 89.5237 L 70.0734 84.6442 M 61.5510 84.1546 L 73.9334 71.7995 M 67.7927 76.3909 L 77.5822 61.8946 M 72.9350 67.8496 L 81.3090 52.4922 M 77.4390 58.9621 L 84.9396 43.1597 M 81.5389 49.8666 L 88.4491 33.7972 M 85.3497 40.6569 L 91.8369 24.4122 M 88.9525 31.3619 L 95.1229 14.9942 M 300.0000 0 L 305.5315 -16.5945"/>
  <path fill="none" stroke="#222222" stroke-opacity="0.7" stroke-width="0.6" d="M 0 0 L -5.9827 16.4372 M 3.1954 9.4529 L -2.2361 26.0804 M 6.4832 18.8744 L 1.5438 35.6547 M 9.8822 28.2450 L 5.3815 45.1481 M 13.4295 37.5677 L 9.3189 54.5699 M 17.1633 46.8071 L 13.3985 63.8892 M 21.1560 55.9467 L 17.6965 73.0934 M 25.5098 64.9206 L 22.3182 82.1191 M 30.4049 73.6051 L 27.4465 90.8452 M 36.2013 81.7082 L 33.4439 98.9816 M 43.6680 88.2258 L 41.0810 105.5256 M 53.2757 89.5237 L 50.8304 106.8440 M 61.5510 84.1546 L 59.2199 101.4907 M 67.7927 76.3909 L 65.5495 93.7385 M 72.9350 67.8496 L 70.7538 85.2052 M 77.4390 58.9621 L 75.2949 76.3223 M 81.5389 49.8666 L 79.4071 67.2283 M 85.3497 40.6569 L 83.2056 58.0171 M 88.9525 31.3619 L 86.7714 48.7174 M 300.0000 0 L 294.0173 16.4372"/>
  <path fill="none" stroke="#00aaff" stroke-opacity="0.6" stroke-width="0.6" d=""/>
  <circle cx="0" cy="0" r="0.6000" fill="#222222" fill-opacity="0.5"/>
    <circle cx="3.1954" cy="9.4529" r="0.6000" fill="#222222" fill-opacity="0.5"/>
    <circle cx="6.4832" cy="18.8744" r="0.6000" fill="#222222" fill-opacity="0.5"/>
    <circle cx="9.8822" cy="28.2450" r="0.6000" fill="#222222" fill-opacity="0.5"/>
    <circle cx="13.4295" cy="37.5677" r="0.6000" fill="#222222" fill-opacity="0.5"/>
    <circle cx="17.1633" cy="46.8071" r="0.6000" fill="#222222" fill-opacity="0.5"/>
    <circle cx="21.1560" cy="55.9467" r="0.6000" fill="#222222" fill-opacity="0.5"/>
    <circle cx="25.5098" cy="64.9206" r="0.6000" fill="#222222" fill-opacity="0.5"/>
    <circle cx="30.4049" cy="73.6051" r="0.6000" fill="#222222" fill-opacity="0.5"/>
    <circle cx="36.2013" cy="81.7082" r="0.6000" fill="#222222" fill-opacity="0.5"/>
    <circle cx="43.6680" cy="88.2258" r="0.6000" fill="#222222" fill-opacity="0.5"/>
    <circle cx="53.2757" cy="89.5237" r="0.6000" fill="#222222" fill-opacity="0.5"/>
    <circle cx="61.5510" cy="84.1546" r="0.6000" fill="#222222" fill-opacity="0.5"/>
    <circle cx="67.7927" cy="76.3909" r="0.6000" fill="#222222" fill-opacity="0.5"/>
    <circle cx="72.9350" cy="67.8496" r="0.6000" fill="#222222" fill-opacity="0.5"/>
    <circle cx="77.4390" cy="58.9621" r="0.6000" fill="#222222" fill-opacity="0.5"/>
    <circle cx="81.5389" cy="49.8666" r="0.6000" fill="#222222" fill-opacity="0.5"/>
    <circle cx="85.3497" cy="40.6569" r="0.6000" fill="#222222" fill-opacity="0.5"/>
    <circle cx="88.9525" cy="31.3619" r="0.6000" fill="#222222" fill-opacity="0.5"/>
    <circle cx="300.0000" cy="0" r="0.6000" fill="#222222" fill-opacity="0.5"/>
  
  
  
  
  <path fill="none" stroke="#8844ff" stroke-opacity="0.35" stroke-width="0.6" d="M -8.4572 -3.0782 L -5.3597 6.6583 L -2.1505 16.3330 L 1.1852 25.9293 L 4.6815 35.4527 L 8.3742 44.8700 L 12.3338 54.1668 L 16.6609 63.2785 L 21.5345 72.0830 L 27.3138 80.2895 L 34.7669 86.8948 L 52.0708 98.4427 L 52.7064 98.5057 L 53.3448 98.5234 L 53.9829 98.4958 L 54.6175 98.4231 L 55.2452 98.3055 L 55.8631 98.1437 L 56.4679 97.9385 L 57.0567 97.6909 L 57.6264 97.4022 L 58.1742 97.0738 L 52.6313 82.9553 L 58.8671 75.2366 L 64.0052 66.7274 L 68.5069 57.8589 L 72.6060 48.7697 L 76.4176 39.5538 L 97.3442 34.6145 L 96.9556 35.4789 L 96.4783 36.2976 L 95.9176 37.0616 L 95.2796 37.7625 L 94.5715 38.3923 L 93.8010 38.9442 L 92.9768 39.4120 L 92.1080 39.7905 L 91.2042 40.0756 L 90.2754 40.2641 L 291.5428 -3.0782 L 308.4572 3.0782 L 87.6296 22.4596 L 86.7008 22.6481 L 85.7970 22.9332 L 84.9282 23.3117 L 84.1040 23.7795 L 83.3335 24.3314 L 82.6254 24.9612 L 81.9874 25.6621 L 81.4267 26.4261 L 80.9494 27.2448 L 80.5608 28.1092 L 94.2819 41.7601 L 90.4718 50.9634 L 86.3711 60.0652 L 81.8647 68.9719 L 76.7184 77.5451 L 70.4707 85.3540 L 48.3771 81.9735 L 48.9249 81.6451 L 49.4946 81.3564 L 50.0834 81.1088 L 50.6882 80.9036 L 51.3061 80.7418 L 51.9339 80.6243 L 52.5684 80.5515 L 53.2065 80.5239 L 53.8449 80.5417 L 54.4805 80.6047 L 52.5690 89.5568 L 45.0888 83.1270 L 39.2752 75.1272 L 34.3587 66.5627 L 29.9782 57.7267 L 25.9524 48.7441 L 22.1775 39.6827 L 18.5792 30.5607 L 15.1169 21.4158 L 11.7506 12.2475 L 8.4572 3.0782 L -8.4572 -3.0782 Z"/>
  <path fill="none" stroke="#0066ff" stroke-opacity="0.3" stroke-width="0.5" d="M -2.0521 5.6382 L -3.1385 5.1881 L -4.1711 4.6493 L -5.1324 4.0310 L -6.0058 3.3437 L -6.7765 2.5992 L -7.4312 1.8102 L -7.9588 0.9902 L -8.3502 0.1533 L -8.5988 -0.6862 L -8.7002 -1.5140 L -8.6527 -2.3159 L -8.4572 -3.0782 L -8.1170 -3.7878 L -7.6379 -4.4326 L -7.0282 -5.0015 L -6.2981 -5.4849 L -5.4603 -5.8744 L -4.5291 -6.1634 L -3.5204 -6.3469 L -2.4514 -6.4219 L -1.3405 -6.3869 L -0.2067 -6.2427 L 0.9307 -5.9917 L 2.0521 -5.6382 L 3.1385 -5.1881 L 4.1711 -4.6493 L 5.1324 -4.0310 L 6.0058 -3.3437 L 6.7765 -2.5992 L 7.4312 -1.8102 L 7.9588 -0.9902 L 8.3502 -0.1533 L 8.5988 0.6862 L 8.7002 1.5140 L 8.6527 2.3159 L 8.4572 3.0782 L 8.1170 3.7878 L 7.6379 4.4326 L 7.0282 5.0015 L 6.2981 5.4849 L 5.4603 5.8744 L 4.5291 6.1634 L 3.5204 6.3469 L 2.4514 6.4219 L 1.3405 6.3869 L 0.2067 6.2427 L -0.9307 5.9917 L -2.0521 5.6382 Z"/>
    <path fill="none" stroke="#0066ff" stroke-opacity="0.3" stroke-width="0.5" d="M 1.3324 15.1563 L 0.2316 14.7427 L -0.8184 14.2387 L -1.7997 13.6527 L -2.6956 12.9949 L -3.4907 12.2765 L -4.1713 11.5097 L -4.7260 10.7078 L -5.1450 9.8844 L -5.4214 9.0536 L -5.5504 8.2297 L -5.5297 7.4266 L -5.3597 6.6583 L -5.0433 5.9377 L -4.5860 5.2773 L -3.9955 4.6884 L -3.2820 4.1810 L -2.4576 3.7638 L -1.5366 3.4439 L -0.5345 3.2268 L 0.5313 3.1163 L 1.6428 3.1142 L 2.7808 3.2205 L 3.9259 3.4335 L 5.0585 3.7495 L 6.1592 4.1630 L 7.2093 4.6671 L 8.1906 5.2531 L 9.0865 5.9109 L 9.8815 6.6293 L 10.5622 7.3960 L 11.1168 8.1980 L 11.5359 9.0214 L 11.8123 9.8522 L 11.9413 10.6761 L 11.9206 11.4791 L 11.7506 12.2475 L 11.4342 12.9680 L 10.9769 13.6284 L 10.3864 14.2174 L 9.6729 14.7248 L 8.8485 15.1420 L 7.9274 15.4619 L 6.9254 15.6790 L 5.8595 15.7895 L 4.7481 15.7916 L 3.6101 15.6853 L 2.4650 15.4723 L 1.3324 15.1563 Z"/>
    <path fill="none" stroke="#0066ff" stroke-opacity="0.3" stroke-width="0.5" d="M 4.7889 24.6303 L 3.6765 24.2493 L 2.6121 23.7764 L 1.6139 23.2196 L 0.6991 22.5884 L -0.1168 21.8937 L -0.8198 21.1474 L -1.3978 20.3621 L -1.8410 19.5514 L -2.1417 18.7291 L -2.2948 17.9093 L -2.2978 17.1061 L -2.1505 16.3330 L -1.8555 15.6035 L -1.4178 14.9299 L -0.8449 14.3238 L -0.1467 13.7956 L 0.6650 13.3543 L 1.5763 13.0074 L 2.5715 12.7609 L 3.6336 12.6191 L 4.7445 12.5842 L 5.8852 12.6570 L 7.0361 12.8361 L 8.1775 13.1186 L 9.2899 13.4996 L 10.3543 13.9725 L 11.3525 14.5293 L 12.2674 15.1605 L 13.0832 15.8552 L 13.7862 16.6015 L 14.3642 17.3868 L 14.8074 18.1975 L 15.1081 19.0197 L 15.2613 19.8395 L 15.2642 20.6428 L 15.1169 21.4158 L 14.8219 22.1454 L 14.3842 22.8190 L 13.8114 23.4250 L 13.1131 23.9533 L 12.3014 24.3946 L 11.3901 24.7415 L 10.3949 24.9879 L 9.3328 25.1298 L 8.2219 25.1647 L 7.0812 25.0919 L 5.9304 24.9127 L 4.7889 24.6303 Z"/>
    <path fill="none" stroke="#0066ff" stroke-opacity="0.3" stroke-width="0.5" d="M 8.3384 34.0430 L 7.2164 33.6911 L 6.1401 33.2460 L 5.1277 32.7154 L 4.1968 32.1083 L 3.3630 31.4351 L 2.6409 30.7073 L 2.0426 29.9374 L 1.5785 29.1385 L 1.2565 28.3243 L 1.0820 27.5088 L 1.0581 26.7059 L 1.1852 25.9293 L 1.4612 25.1923 L 1.8811 24.5075 L 2.4380 23.8867 L 3.1223 23.3405 L 3.9223 22.8782 L 4.8242 22.5077 L 5.8126 22.2354 L 6.8707 22.0659 L 7.9803 22.0021 L 9.1225 22.0452 L 10.2776 22.1943 L 11.4260 22.4470 L 12.5480 22.7988 L 13.6244 23.2439 L 14.6367 23.7745 L 15.5677 24.3816 L 16.4014 25.0548 L 17.1236 25.7826 L 17.7218 26.5526 L 18.1859 27.3514 L 18.5080 28.1656 L 18.6824 28.9811 L 18.7063 29.7841 L 18.5792 30.5607 L 18.3033 31.2977 L 17.8833 31.9824 L 17.3264 32.6032 L 16.6421 33.1494 L 15.8422 33.6117 L 14.9403 33.9822 L 13.9518 34.2545 L 12.8937 34.4240 L 11.7841 34.4878 L 10.6420 34.4447 L 9.4868 34.2956 L 8.3384 34.0430 Z"/>
    <path fill="none" stroke="#0066ff" stroke-opacity="0.3" stroke-width="0.5" d="M 12.0195 43.3997 L 10.8897 43.0737 L 9.8034 42.6535 L 8.7791 42.1464 L 7.8344 41.5608 L 6.9855 40.9070 L 6.2468 40.1960 L 5.6309 39.4400 L 5.1486 38.6520 L 4.8079 37.8455 L 4.6147 37.0342 L 4.5723 36.2320 L 4.6815 35.4527 L 4.9404 34.7096 L 5.3446 34.0153 L 5.8870 33.3819 L 6.5585 32.8201 L 7.3476 32.3395 L 8.2408 31.9483 L 9.2227 31.6533 L 10.2766 31.4595 L 11.3845 31.3703 L 12.5273 31.3870 L 13.6856 31.5095 L 14.8395 31.7357 L 15.9693 32.0617 L 17.0556 32.4818 L 18.0799 32.9890 L 19.0246 33.5745 L 19.8736 34.2284 L 20.6123 34.9394 L 21.2281 35.6953 L 21.7105 36.4833 L 22.0512 37.2899 L 22.2443 38.1012 L 22.2867 38.9033 L 22.1775 39.6827 L 21.9186 40.4258 L 21.5145 41.1200 L 20.9720 41.7535 L 20.3005 42.3153 L 19.5114 42.7959 L 18.6182 43.1870 L 17.6363 43.4820 L 16.5824 43.6758 L 15.4745 43.7651 L 14.3317 43.7483 L 13.1734 43.6258 L 12.0195 43.3997 Z"/>
    <path fill="none" stroke="#0066ff" stroke-opacity="0.3" stroke-width="0.5" d="M 15.8719 52.6665 L 14.7358 52.3635 L 13.6411 51.9655 L 12.6068 51.4792 L 11.6504 50.9129 L 10.7883 50.2764 L 10.0353 49.5806 L 9.4043 48.8373 L 8.9060 48.0592 L 8.5490 47.2598 L 8.3395 46.4526 L 8.2808 45.6514 L 8.3742 44.8700 L 8.6179 44.1218 L 9.0079 43.4195 L 9.5374 42.7752 L 10.1974 42.1999 L 10.9766 41.7033 L 11.8616 41.2942 L 12.8373 40.9793 L 13.8871 40.7642 L 14.9929 40.6524 L 16.1359 40.6460 L 17.2964 40.7450 L 18.4546 40.9477 L 19.5908 41.2506 L 20.6854 41.6487 L 21.7198 42.1350 L 22.6762 42.7012 L 23.5382 43.3377 L 24.2912 44.0336 L 24.9223 44.7769 L 25.4205 45.5549 L 25.7775 46.3544 L 25.9871 47.1616 L 26.0457 47.9627 L 25.9524 48.7441 L 25.7086 49.4923 L 25.3186 50.1946 L 24.7891 50.8390 L 24.1292 51.4143 L 23.3500 51.9108 L 22.4650 52.3200 L 21.4892 52.6348 L 20.4395 52.8500 L 19.3337 52.9617 L 18.1907 52.9681 L 17.0302 52.8692 L 15.8719 52.6665 Z"/>
    <path fill="none" stroke="#0066ff" stroke-opacity="0.3" stroke-width="0.5" d="M 19.9694 61.8282 L 18.8280 61.5456 L 17.7264 61.1671 L 16.6836 60.6994 L 15.7172 60.1503 L 14.8439 59.5293 L 14.0787 58.8470 L 13.4345 58.1150 L 12.9224 57.3460 L 12.5512 56.5530 L 12.3273 55.7497 L 12.2544 54.9497 L 12.3338 54.1668 L 12.5641 53.4143 L 12.9415 52.7052 L 13.4594 52.0515 L 14.1090 51.4645 L 14.8792 50.9542 L 15.7568 50.5293 L 16.7268 50.1971 L 17.7726 49.9632 L 18.8762 49.8318 L 20.0189 49.8050 L 21.1810 49.8832 L 22.3426 50.0653 L 23.4840 50.3479 L 24.5856 50.7264 L 25.6284 51.1941 L 26.5948 51.7432 L 27.4681 52.3642 L 28.2333 53.0465 L 28.8775 53.7785 L 29.3896 54.5475 L 29.7608 55.3405 L 29.9848 56.1438 L 30.0576 56.9438 L 29.9782 57.7267 L 29.7479 58.4792 L 29.3705 59.1883 L 28.8526 59.8420 L 28.2030 60.4290 L 27.4328 60.9393 L 26.5552 61.3642 L 25.5852 61.6964 L 24.5395 61.9302 L 23.4358 62.0617 L 22.2932 62.0885 L 21.1310 62.0102 L 19.9694 61.8282 Z"/>
    <path fill="none" stroke="#0066ff" stroke-opacity="0.3" stroke-width="0.5" d="M 24.4151 70.8199 L 23.2694 70.5551 L 22.1621 70.1939 L 21.1121 69.7424 L 20.1373 69.2085 L 19.2544 68.6012 L 18.4786 67.9309 L 17.8230 67.2091 L 17.2990 66.4482 L 16.9155 65.6611 L 16.6791 64.8613 L 16.5937 64.0626 L 16.6609 63.2785 L 16.8795 62.5225 L 17.2457 61.8076 L 17.7534 61.1460 L 18.3938 60.5489 L 19.1559 60.0266 L 20.0268 59.5881 L 20.9914 59.2408 L 22.0334 58.9906 L 23.1349 58.8420 L 24.2770 58.7973 L 25.4402 58.8575 L 26.6045 59.0213 L 27.7502 59.2862 L 28.8575 59.6474 L 29.9075 60.0988 L 30.8823 60.6328 L 31.7652 61.2401 L 32.5410 61.9104 L 33.1966 62.6321 L 33.7206 63.3931 L 34.1041 64.1802 L 34.3405 64.9799 L 34.4259 65.7787 L 34.3587 66.5627 L 34.1401 67.3187 L 33.7739 68.0336 L 33.2662 68.6953 L 32.6258 69.2924 L 31.8637 69.8147 L 30.9928 70.2532 L 30.0282 70.6005 L 28.9862 70.8506 L 27.8847 70.9993 L 26.7426 71.0439 L 25.5794 70.9838 L 24.4151 70.8199 Z"/>
    <path fill="none" stroke="#0066ff" stroke-opacity="0.3" stroke-width="0.5" d="M 29.3901 79.5187 L 28.2410 79.2694 L 27.1289 78.9232 L 26.0728 78.4860 L 25.0909 77.9653 L 24.1999 77.3700 L 23.4150 76.7103 L 22.7498 75.9975 L 22.2155 75.2437 L 21.8214 74.4619 L 21.5741 73.6654 L 21.4779 72.8679 L 21.5345 72.0830 L 21.7428 71.3241 L 22.0994 70.6043 L 22.5980 69.9358 L 23.2303 69.3301 L 23.9853 68.7976 L 24.8501 68.3473 L 25.8100 67.9869 L 26.8485 67.7227 L 27.9478 67.5592 L 29.0892 67.4991 L 30.2531 67.5434 L 31.4196 67.6915 L 32.5687 67.9408 L 33.6808 68.2870 L 34.7369 68.7241 L 35.7188 69.2448 L 36.6098 69.8401 L 37.3947 70.4998 L 38.0599 71.2127 L 38.5942 71.9665 L 38.9883 72.7483 L 39.2356 73.5448 L 39.3318 74.3423 L 39.2752 75.1272 L 39.0669 75.8860 L 38.7103 76.6059 L 38.2117 77.2744 L 37.5794 77.8801 L 36.8244 78.4126 L 35.9596 78.8629 L 34.9997 79.2232 L 33.9612 79.4874 L 32.8619 79.6510 L 31.7205 79.7111 L 30.5566 79.6667 L 29.3901 79.5187 Z"/>
    <path fill="none" stroke="#0066ff" stroke-opacity="0.3" stroke-width="0.5" d="M 35.2555 87.6332 L 34.1035 87.3973 L 32.9875 87.0641 L 31.9264 86.6393 L 30.9385 86.1300 L 30.0406 85.5452 L 29.2481 84.8946 L 28.5746 84.1896 L 28.0316 83.4421 L 27.6284 82.6649 L 27.3719 81.8713 L 27.2664 81.0750 L 27.3138 80.2895 L 27.5133 79.5283 L 27.8615 78.8043 L 28.3523 78.1301 L 28.9774 77.5171 L 29.7262 76.9758 L 30.5857 76.5154 L 31.5413 76.1440 L 32.5767 75.8677 L 33.6741 75.6913 L 34.8147 75.6179 L 35.9790 75.6488 L 37.1471 75.7833 L 38.2991 76.0191 L 39.4152 76.3523 L 40.4762 76.7772 L 41.4642 77.2864 L 42.3620 77.8713 L 43.1545 78.5218 L 43.8280 79.2269 L 44.3710 79.9744 L 44.7742 80.7516 L 45.0307 81.5451 L 45.1362 82.3415 L 45.0888 83.1270 L 44.8893 83.8882 L 44.5411 84.6121 L 44.0503 85.2864 L 43.4252 85.8994 L 42.6764 86.4407 L 41.8169 86.9010 L 40.8613 87.2725 L 39.8259 87.5488 L 38.7286 87.7251 L 37.5880 87.7985 L 36.4236 87.7677 L 35.2555 87.6332 Z"/>
    <path fill="none" stroke="#0066ff" stroke-opacity="0.3" stroke-width="0.5" d="M 42.7806 94.1598 L 41.6264 93.9353 L 40.5071 93.6131 L 39.4419 93.1988 L 38.4490 92.6993 L 37.5454 92.1233 L 36.7465 91.4806 L 36.0661 90.7822 L 35.5158 90.0401 L 35.1049 89.2669 L 34.8406 88.4760 L 34.7273 87.6807 L 34.7669 86.8948 L 34.9589 86.1316 L 35.2999 85.4043 L 35.7841 84.7252 L 36.4031 84.1061 L 37.1465 83.5574 L 38.0015 83.0886 L 38.9534 82.7077 L 39.9859 82.4213 L 41.0815 82.2341 L 42.2213 82.1495 L 43.3859 82.1688 L 44.5553 82.2918 L 45.7096 82.5163 L 46.8289 82.8385 L 47.8941 83.2528 L 48.8870 83.7523 L 49.7906 84.3283 L 50.5894 84.9710 L 51.2698 85.6694 L 51.8202 86.4115 L 52.2310 87.1847 L 52.4954 87.9756 L 52.6087 88.7709 L 52.5690 89.5568 L 52.3770 90.3200 L 52.0360 91.0473 L 51.5519 91.7264 L 50.9328 92.3455 L 50.1894 92.8942 L 49.3345 93.3630 L 48.3826 93.7439 L 47.3500 94.0303 L 46.2544 94.2175 L 45.1146 94.3021 L 43.9500 94.2828 L 42.7806 94.1598 Z"/>
    <path fill="none" stroke="#0066ff" stroke-opacity="0.3" stroke-width="0.5" d="M 52.4369 95.4648 L 51.2809 95.2497 L 50.1590 94.9367 L 49.0904 94.5311 L 48.0935 94.0397 L 47.1852 93.4711 L 46.3811 92.8350 L 45.6950 92.1422 L 45.1386 91.4046 L 44.7214 90.6349 L 44.4506 89.8461 L 44.3308 89.0518 L 44.3640 88.2655 L 44.5498 87.5008 L 44.8848 86.7707 L 45.3634 86.0878 L 45.9773 85.4636 L 46.7162 84.9088 L 47.5673 84.4331 L 48.5160 84.0444 L 49.5462 83.7495 L 50.6402 83.5534 L 51.7793 83.4594 L 52.9440 83.4692 L 54.1144 83.5826 L 55.2704 83.7976 L 56.3923 84.1107 L 57.4609 84.5163 L 58.4579 85.0076 L 59.3661 85.5762 L 60.1702 86.2123 L 60.8563 86.9051 L 61.4127 87.6427 L 61.8299 88.4125 L 62.1007 89.2013 L 62.2205 89.9956 L 62.1873 90.7818 L 62.0016 91.5465 L 61.6665 92.2766 L 61.1880 92.9596 L 60.5740 93.5838 L 59.8351 94.1385 L 58.9840 94.6143 L 58.0353 95.0030 L 57.0051 95.2979 L 55.9111 95.4940 L 54.7720 95.5880 L 53.6073 95.5782 L 52.4369 95.4648 Z"/>
    <path fill="none" stroke="#0066ff" stroke-opacity="0.3" stroke-width="0.5" d="M 60.7514 90.1011 L 59.5940 89.8937 L 58.4701 89.5881 L 57.3989 89.1895 L 56.3987 88.7048 L 55.4867 88.1422 L 54.6784 87.5114 L 53.9878 86.8231 L 53.4265 86.0892 L 53.0043 85.3222 L 52.7283 84.5352 L 52.6032 83.7417 L 52.6313 82.9553 L 52.8120 82.1894 L 53.1422 81.4571 L 53.6162 80.7709 L 54.2261 80.1427 L 54.9613 79.5831 L 55.8092 79.1018 L 56.7554 78.7068 L 57.7836 78.4051 L 58.8763 78.2018 L 60.0147 78.1004 L 61.1795 78.1025 L 62.3506 78.2082 L 63.5080 78.4156 L 64.6319 78.7212 L 65.7032 79.1198 L 66.7033 79.6045 L 67.6153 80.1671 L 68.4236 80.7979 L 69.1143 81.4862 L 69.6755 82.2201 L 70.0977 82.9871 L 70.3737 83.7741 L 70.4988 84.5676 L 70.4707 85.3540 L 70.2901 86.1199 L 69.9599 86.8522 L 69.4858 87.5383 L 68.8759 88.1666 L 68.1407 88.7262 L 67.2928 89.2075 L 66.3466 89.6024 L 65.3184 89.9041 L 64.2257 90.1075 L 63.0873 90.2089 L 61.9225 90.2068 L 60.7514 90.1011 Z"/>
    <path fill="none" stroke="#0066ff" stroke-opacity="0.3" stroke-width="0.5" d="M 67.0233 82.3413 L 65.8648 82.1398 L 64.7393 81.8398 L 63.6661 81.4467 L 62.6635 80.9670 L 61.7487 80.4090 L 60.9372 79.7823 L 60.2431 79.0976 L 59.6781 78.3665 L 59.2520 77.6016 L 58.9720 76.8161 L 58.8430 76.0232 L 58.8671 75.2366 L 59.0439 74.4698 L 59.3703 73.7359 L 59.8409 73.0474 L 60.4476 72.4161 L 61.1799 71.8528 L 62.0254 71.3671 L 62.9696 70.9674 L 63.9963 70.6605 L 65.0879 70.4517 L 66.2259 70.3444 L 67.3906 70.3407 L 68.5622 70.4404 L 69.7207 70.6420 L 70.8461 70.9419 L 71.9193 71.3351 L 72.9220 71.8147 L 73.8368 72.3727 L 74.6482 72.9994 L 75.3424 73.6841 L 75.9073 74.4152 L 76.3335 75.1801 L 76.6134 75.9656 L 76.7425 76.7585 L 76.7184 77.5451 L 76.5416 78.3119 L 76.2151 79.0458 L 75.7445 79.7343 L 75.1379 80.3657 L 74.4055 80.9290 L 73.5600 81.4146 L 72.6159 81.8143 L 71.5892 82.1212 L 70.4975 82.3301 L 69.3596 82.4373 L 68.1949 82.4411 L 67.0233 82.3413 Z"/>
    <path fill="none" stroke="#0066ff" stroke-opacity="0.3" stroke-width="0.5" d="M 72.1868 73.8028 L 71.0277 73.6054 L 69.9011 73.3095 L 68.8265 72.9202 L 67.8222 72.4441 L 66.9053 71.8894 L 66.0917 71.2656 L 65.3951 70.5834 L 64.8275 69.8543 L 64.3987 69.0910 L 64.1159 68.3064 L 63.9840 67.5141 L 64.0052 66.7274 L 64.1793 65.9600 L 64.5031 65.2249 L 64.9713 64.5347 L 65.5757 63.9012 L 66.3060 63.3353 L 67.1497 62.8466 L 68.0924 62.4435 L 69.1180 62.1329 L 70.2089 61.9202 L 71.3465 61.8089 L 72.5112 61.8009 L 73.6831 61.8965 L 74.8423 62.0939 L 75.9688 62.3898 L 77.0435 62.7791 L 78.0478 63.2552 L 78.9646 63.8098 L 79.7783 64.4337 L 80.4749 65.1159 L 81.0425 65.8449 L 81.4713 66.6083 L 81.7541 67.3928 L 81.8860 68.1852 L 81.8647 68.9719 L 81.6907 69.7393 L 81.3668 70.4744 L 80.8987 71.1646 L 80.2943 71.7981 L 79.5640 72.3640 L 78.7202 72.8527 L 77.7775 73.2558 L 76.7519 73.5664 L 75.6610 73.7791 L 74.5235 73.8904 L 73.3588 73.8984 L 72.1868 73.8028 Z"/>
    <path fill="none" stroke="#0066ff" stroke-opacity="0.3" stroke-width="0.5" d="M 76.7036 64.9168 L 75.5440 64.7219 L 74.4168 64.4284 L 73.3414 64.0414 L 72.3360 63.5674 L 71.4180 63.0147 L 70.6030 62.3927 L 69.9050 61.7119 L 69.3358 60.9841 L 68.9053 60.2217 L 68.6209 59.4377 L 68.4873 58.6456 L 68.5069 57.8589 L 68.6793 57.0911 L 69.0016 56.3553 L 69.4682 55.6641 L 70.0713 55.0293 L 70.8004 54.4618 L 71.6431 53.9714 L 72.5849 53.5663 L 73.6098 53.2535 L 74.7003 53.0384 L 75.8376 52.9247 L 77.0023 52.9143 L 78.1744 53.0073 L 79.3340 53.2022 L 80.4612 53.4957 L 81.5366 53.8827 L 82.5420 54.3567 L 83.4600 54.9094 L 84.2750 55.5315 L 84.9730 56.2122 L 85.5422 56.9400 L 85.9727 57.7025 L 86.2571 58.4864 L 86.3907 59.2785 L 86.3711 60.0652 L 86.1987 60.8330 L 85.8764 61.5688 L 85.4098 62.2600 L 84.8067 62.8948 L 84.0776 63.4623 L 83.2349 63.9528 L 82.2931 64.3578 L 81.2682 64.6706 L 80.1777 64.8857 L 79.0404 64.9994 L 77.8757 65.0099 L 76.7036 64.9168 Z"/>
    <path fill="none" stroke="#0066ff" stroke-opacity="0.3" stroke-width="0.5" d="M 80.8077 55.8218 L 79.6480 55.6277 L 78.5206 55.3350 L 77.4449 54.9488 L 76.4392 54.4756 L 75.5208 53.9235 L 74.7053 53.3020 L 74.0068 52.6217 L 73.4372 51.8943 L 73.0061 51.1322 L 72.7211 50.3484 L 72.5870 49.5564 L 72.6060 48.7697 L 72.7779 48.0018 L 73.0996 47.2658 L 73.5658 46.5742 L 74.1684 45.9390 L 74.8971 45.3710 L 75.7394 44.8800 L 76.6810 44.4742 L 77.7057 44.1607 L 78.7960 43.9449 L 79.9332 43.8303 L 81.0979 43.8191 L 82.2701 43.9113 L 83.4298 44.1054 L 84.5572 44.3981 L 85.6329 44.7843 L 86.6386 45.2575 L 87.5570 45.8096 L 88.3725 46.4311 L 89.0710 47.1114 L 89.6406 47.8388 L 90.0717 48.6009 L 90.3567 49.3847 L 90.4908 50.1767 L 90.4718 50.9634 L 90.3000 51.7313 L 89.9782 52.4673 L 89.5120 53.1589 L 88.9094 53.7941 L 88.1807 54.3621 L 87.3384 54.8531 L 86.3968 55.2589 L 85.3721 55.5724 L 84.2818 55.7883 L 83.1446 55.9028 L 81.9799 55.9140 L 80.8077 55.8218 Z"/>
    <path fill="none" stroke="#0066ff" stroke-opacity="0.3" stroke-width="0.5" d="M 84.6143 46.6117 L 83.4547 46.4167 L 82.3275 46.1233 L 81.2521 45.7362 L 80.2467 45.2623 L 79.3287 44.7096 L 78.5137 44.0875 L 77.8157 43.4067 L 77.2465 42.6789 L 76.8161 41.9165 L 76.5316 41.1326 L 76.3980 40.3404 L 76.4176 39.5538 L 76.5900 38.7859 L 76.9123 38.0501 L 77.3789 37.3589 L 77.9820 36.7242 L 78.7111 36.1567 L 79.5538 35.6662 L 80.4956 35.2611 L 81.5206 34.9484 L 82.6110 34.7333 L 83.7483 34.6195 L 84.9130 34.6091 L 86.0852 34.7022 L 87.2447 34.8971 L 88.3719 35.1906 L 89.4474 35.5776 L 90.4527 36.0515 L 91.3707 36.6043 L 92.1857 37.2263 L 92.8838 37.9071 L 93.4529 38.6349 L 93.8834 39.3973 L 94.1678 40.1813 L 94.3014 40.9734 L 94.2819 41.7601 L 94.1094 42.5279 L 93.7872 43.2637 L 93.3205 43.9549 L 92.7175 44.5897 L 91.9883 45.1571 L 91.1457 45.6476 L 90.2038 46.0527 L 89.1789 46.3655 L 88.0884 46.5806 L 86.9511 46.6943 L 85.7864 46.7047 L 84.6143 46.6117 Z"/>
    <path fill="none" stroke="#0066ff" stroke-opacity="0.3" stroke-width="0.5" d="M 88.2043 37.3150 L 87.0452 37.1176 L 85.9186 36.8217 L 84.8440 36.4324 L 83.8397 35.9563 L 82.9228 35.4016 L 82.1092 34.7778 L 81.4126 34.0956 L 80.8450 33.3666 L 80.4162 32.6032 L 80.1334 31.8187 L 80.0015 31.0263 L 80.0227 30.2396 L 80.1968 29.4722 L 80.5206 28.7371 L 80.9888 28.0469 L 81.5932 27.4134 L 82.3235 26.8475 L 83.1672 26.3588 L 84.1100 25.9557 L 85.1355 25.6451 L 86.2264 25.4324 L 87.3640 25.3211 L 88.5287 25.3131 L 89.7006 25.4087 L 90.8598 25.6061 L 91.9863 25.9020 L 93.0610 26.2913 L 94.0653 26.7674 L 94.9821 27.3221 L 95.7958 27.9459 L 96.4924 28.6281 L 97.0600 29.3571 L 97.4888 30.1205 L 97.7716 30.9051 L 97.9035 31.6974 L 97.8823 32.4841 L 97.7082 33.2515 L 97.3843 33.9866 L 96.9162 34.6768 L 96.3118 35.3103 L 95.5815 35.8762 L 94.7378 36.3649 L 93.7950 36.7680 L 92.7695 37.0786 L 91.6786 37.2913 L 90.5410 37.4026 L 89.3763 37.4106 L 88.2043 37.3150 Z"/>
    <path fill="none" stroke="#0066ff" stroke-opacity="0.3" stroke-width="0.5" d="M 297.9479 5.6382 L 296.8615 5.1881 L 295.8289 4.6493 L 294.8676 4.0310 L 293.9942 3.3437 L 293.2235 2.5992 L 292.5688 1.8102 L 292.0412 0.9902 L 291.6498 0.1533 L 291.4012 -0.6862 L 291.2998 -1.5140 L 291.3473 -2.3159 L 291.5428 -3.0782 L 291.8830 -3.7878 L 292.3621 -4.4326 L 292.9718 -5.0015 L 293.7019 -5.4849 L 294.5397 -5.8744 L 295.4709 -6.1634 L 296.4796 -6.3469 L 297.5486 -6.4219 L 298.6595 -6.3869 L 299.7933 -6.2427 L 300.9307 -5.9917 L 302.0521 -5.6382 L 303.1385 -5.1881 L 304.1711 -4.6493 L 305.1324 -4.0310 L 306.0058 -3.3437 L 306.7765 -2.5992 L 307.4312 -1.8102 L 307.9588 -0.9902 L 308.3502 -0.1533 L 308.5988 0.6862 L 308.7002 1.5140 L 308.6527 2.3159 L 308.4572 3.0782 L 308.1170 3.7878 L 307.6379 4.4326 L 307.0282 5.0015 L 306.2981 5.4849 L 305.4603 5.8744 L 304.5291 6.1634 L 303.5204 6.3469 L 302.4514 6.4219 L 301.3405 6.3869 L 300.2067 6.2427 L 299.0693 5.9917 L 297.9479 5.6382 Z"/>
  
  
  
</g>
</svg>