<svg xmlns="http://www.w3.org/2000/svg" width="337.4004" height="217.2239" viewBox="-18.7002 -108.7005 337.4004 217.2239">
  
  
  <path fill="black" stroke="none" fill-rule="evenodd" d="M -8.4572 -3.0782 L 4.6815 35.4527 L 21.5345 72.0830 L 37.0021 94.2728 L 37.4412 94.7240 L 37.9108 95.1435 L 38.4086 95.5291 L 38.9321 95.8790 L 39.4788 96.1914 L 40.0460 96.4648 L 40.6309 96.6979 L 41.2307 96.8895 L 41.8425 97.0387 L 42.4631 97.1448 L 52.0708 98.4427 L 52.7064 98.5057 L 53.3448 98.5234 L 53.9829 98.4958 L 54.6175 98.4231 L 55.2452 98.3055 L 55.8631 98.1437 L 56.4679 97.9385 L 57.0567 97.6909 L 57.6264 97.4022 L 58.1742 97.0738 L 52.6313 82.9553 L 64.0052 66.7274 L 72.6060 48.7697 L 104.1323 15.7957 L 104.1423 15.7693 L 104.1522 15.7429 L 104.1620 15.7164 L 104.1718 15.6899 L 104.1815 15.6634 L 104.1910 15.6369 L 104.2005 15.6103 L 104.2100 15.5837 L 104.2193 15.5570 L 104.2285 15.5303 L 117.2396 -22.1831 L 117.2216 -22.1313 L 117.2032 -22.0796 L 117.1845 -22.0280 L 117.1655 -21.9765 L 117.1462 -21.9252 L 117.1266 -21.8740 L 117.1066 -21.8228 L 117.0864 -21.7719 L 117.0659 -21.7210 L 117.0450 -21.6702 L 115.2625 -64.0704 L 125.4982 -81.6456 L 132.3678 -89.1653 L 136.6522 -91.8944 L 139.0447 -92.7330 L 140.2863 -92.9723 L 140.9130 -93.0423 L 141.2278 -93.0645 L 141.3853 -93.0724 L 141.4640 -93.0756 L 141.5031 -93.0762 L 143.6360 -83.6360 L 153.1152 -81.5420 L 153.1537 -81.5416 L 153.2293 -81.5400 L 153.3804 -81.5350 L 153.6823 -81.5187 L 154.2834 -81.4604 L 155.4735 -81.2441 L 157.7620 -80.4499 L 161.8343 -77.8034 L 168.2603 -70.4280 L 177.5116 -53.0850 L 182.9550 -21.6702 L 182.9341 -21.7210 L 182.9136 -21.7719 L 182.8934 -21.8228 L 182.8734 -21.8740 L 182.8538 -21.9252 L 182.8345 -21.9765 L 182.8155 -22.0280 L 182.7968 -22.0796 L 182.7784 -22.1313 L 182.7604 -22.1831 L 195.7715 15.5303 L 195.7807 15.5570 L 195.7900 15.5837 L 195.7995 15.6103 L 195.8090 15.6369 L 195.8185 15.6634 L 195.8282 15.6899 L 195.8380 15.7164 L 195.8478 15.7429 L 195.8577 15.7693 L 195.8677 15.7957 L 212.0971 56.2305 L 219.6233 72.9114 L 230.2128 87.7830 L 241.8258 97.0738 L 242.3736 97.4022 L 242.9433 97.6909 L 243.5321 97.9385 L 244.1369 98.1437 L 244.7548 98.3055 L 245.3825 98.4231 L 246.0171 98.4958 L 246.6552 98.5234 L 247.2936 98.5057 L 247.9292 98.4427 L 257.5369 97.1448 L 258.1575 97.0387 L 258.7693 96.8895 L 259.3691 96.6979 L 259.9540 96.4648 L 260.5212 96.1914 L 261.0679 95.8790 L 261.5914 95.5291 L 262.0892 95.1435 L 262.5588 94.7240 L 262.9979 94.2728 L 260.6294 74.3895 L 277.7001 36.0456 L 291.5428 -3.0782 L 308.4572 3.0782 L 295.4408 39.0898 L 278.5609 72.8207 L 249.6661 82.1788 L 250.1052 81.7276 L 250.5748 81.3081 L 251.0726 80.9225 L 251.5961 80.5726 L 252.1428 80.2602 L 252.7100 79.9868 L 253.2950 79.7537 L 253.8948 79.5621 L 254.5065 79.4129 L 255.1272 79.3068 L 245.5195 80.6047 L 246.1551 80.5417 L 246.7935 80.5239 L 247.4316 80.5515 L 248.0661 80.6243 L 248.6939 80.7418 L 249.3118 80.9036 L 249.9166 81.1088 L 250.5054 81.3564 L 251.0751 81.6451 L 251.6229 81.9735 L 246.6852 80.5263 L 234.5067 62.7879 L 224.8251 43.5026 L 212.6910 9.3945 L 212.7010 9.4209 L 212.7109 9.4473 L 212.7208 9.4738 L 212.7305 9.5003 L 212.7402 9.5268 L 212.7498 9.5534 L 212.7593 9.5800 L 212.7687 9.6066 L 212.7780 9.6332 L 212.7873 9.6599 L 199.7762 -28.0535 L 199.7582 -28.1053 L 199.7398 -28.1570 L 199.7211 -28.2086 L 199.7021 -28.2601 L 199.6828 -28.3114 L 199.6632 -28.3627 L 199.6433 -28.4138 L 199.6230 -28.4648 L 199.6025 -28.5157 L 199.5816 -28.5664 L 174.4674 -70.8257 L 163.4758 -87.7805 L 156.3198 -94.9379 L 151.9159 -97.4741 L 149.4696 -98.2133 L 148.2026 -98.4022 L 147.5636 -98.4468 L 147.2428 -98.4563 L 147.0823 -98.4579 L 147.0021 -98.4578 L 146.9627 -98.4579 L 156.3640 -96.3640 L 158.4190 -86.9237 L 158.3802 -86.9239 L 158.3031 -86.9254 L 158.1490 -86.9269 L 157.8411 -86.9232 L 157.2277 -86.8904 L 156.0122 -86.7244 L 153.6699 -86.0296 L 149.4781 -83.5761 L 142.7657 -76.5628 L 132.7584 -59.8404 L 100.4184 -28.5664 L 100.3975 -28.5157 L 100.3770 -28.4648 L 100.3567 -28.4138 L 100.3368 -28.3627 L 100.3172 -28.3114 L 100.2979 -28.2601 L 100.2789 -28.2086 L 100.2602 -28.1570 L 100.2418 -28.1053 L 100.2238 -28.0535 L 87.2127 9.6599 L 87.2220 9.6332 L 87.2313 9.6066 L 87.2407 9.5800 L 87.2502 9.5534 L 87.2598 9.5268 L 87.2695 9.5003 L 87.2792 9.4738 L 87.2891 9.4473 L 87.2990 9.4209 L 87.3090 9.3945 L 90.4718 50.9634 L 81.8647 68.9719 L 70.4707 85.3540 L 48.3771 81.9735 L 48.9249 81.6451 L 49.4946 81.3564 L 50.0834 81.1088 L 50.6882 80.9036 L 51.3061 80.7418 L 51.9339 80.6243 L 52.5684 80.5515 L 53.2065 80.5239 L 53.8449 80.5417 L 54.4805 80.6047 L 44.8728 79.3068 L 45.4935 79.4129 L 46.1052 79.5621 L 46.7050 79.7537 L 47.2900 79.9868 L 47.8572 80.2602 L 48.4039 80.5726 L 48.9274 80.9225 L 49.4252 81.3081 L 49.8948 81.7276 L 50.3339 82.1788 L 39.2752 75.1272 L 22.1775 39.6827 L 8.4572 3.0782 L -8.4572 -3.0782 Z"/>
  <g id="debug">
  
  <path fill="none" stroke="#ff3366" stroke-opacity="0.6" stroke-width="0.5" d="M 0 0 L 1.5095 4.4993 L 3.0002 8.8832 L 4.4726 13.1517 L 5.9273 17.3049 L 7.3647 21.3427 L 8.7853 25.2652 L 10.1897 29.0723 L 11.5782 32.7640 L 12.9513 36.3403 L 14.3096 39.8013 L 15.6536 43.1469 L 16.9836 46.3772 L 18.3003 49.4921 L 19.6041 52.4916 L 20.8955 55.3757 L 22.1750 58.1445 L 23.4430 60.7979 L 24.7000 63.3360 L 25.9466 65.7587 L 27.1832 68.0660 L 28.4104 70.2580 L 29.6285 72.3346 L 30.8381 74.2958 L 32.0397 76.1416 L 33.2337 77.8721 L 34.4206 79.4873 L 35.6010 80.9870 L 36.7753 82.3714 L 37.9441 83.6404 L 39.1077 84.7941 L 40.2666 85.8324 L 41.4215 86.7553 L 42.5727 87.5629 L 43.7207 88.2551 L 44.8660 88.8319 L 46.0092 89.2934 L 47.1506 89.6395 L 48.2909 89.8702 L 49.4304 89.9856 L 50.5696 89.9856 L 51.7091 89.8702 L 52.8494 89.6395 L 53.9908 89.2934 L 55.1340 88.8319 L 56.2793 88.2551 L 57.4273 87.5629 L 58.5785 86.7553 L 59.7334 85.8324 L 60.8923 84.7941 L 62.0559 83.6404 L 63.2247 82.3714 L 64.3990 80.9870 L 65.5794 79.4873 L 66.7663 77.8721 L 67.9603 76.1416 L 69.1619 74.2958 L 70.3715 72.3346 L 71.5896 70.2580 L 72.8168 68.0660 L 74.0534 65.7587 L 75.3000 63.3360 L 76.5570 60.7979 L 77.8250 58.1445 L 79.1045 55.3757 L 80.3959 52.4916 L 81.6997 49.4921 L 83.0164 46.3772 L 84.3464 43.1469 L 85.6904 39.8013 L 87.0487 36.3403 L 88.4218 32.7640 L 89.8103 29.0723 L 91.2147 25.2652 L 92.6353 21.3427 L 94.0727 17.3049 L 95.5274 13.1517 L 96.9998 8.8832 L 98.4905 4.4993 L 100.0000 0 L 100.0000 0 L 101.5095 -4.4993 L 103.0002 -8.8832 L 104.4726 -13.1517 L 105.9273 -17.3049 L 107.3647 -21.3427 L 108.7853 -25.2652 L 110.1897 -29.0723 L 111.5782 -32.7640 L 112.9513 -36.3403 L 114.3096 -39.8013 L 115.6536 -43.1469 L 116.9836 -46.3772 L 118.3003 -49.4921 L 119.6041 -52.4916 L 120.8955 -55.3757 L 122.1750 -58.1445 L 123.4430 -60.7979 L 124.7000 -63.3360 L 125.9466 -65.7587 L 127.1832 -68.0660 L 128.4104 -70.2580 L 129.6285 -72.3346 L 130.8381 -74.2958 L 132.0397 -76.1416 L 133.2337 -77.8721 L 134.4206 -79.4873 L 135.6010 -80.9870 L 136.7753 -82.3714 L 137.9441 -83.6404 L 139.1077 -84.7941 L 140.2666 -85.8324 L 141.4215 -86.7553 L 142.5727 -87.5629 L 143.7207 -88.2551 L 144.8660 -88.8319 L 146.0092 -89.2934 L 147.1506 -89.6395 L 148.2909 -89.8702 L 149.4304 -89.9856 L 150.5696 -89.9856 L 151.7091 -89.8702 L 152.8494 -89.6395 L 153.9908 -89.2934 L 155.1340 -88.8319 L 156.2793 -88.2551 L 157.4273 -87.5629 L 158.5785 -86.7553 L 159.7334 -85.8324 L 160.8923 -84.7941 L 162.0559 -83.6404 L 163.2247 -82.3714 L 164.3990 -80.9870 L 165.5794 -79.4873 L 166.7663 -77.8721 L 167.9603 -76.1416 L 169.1619 -74.2958 L 170.3715 -72.3346 L 171.5896 -70.2580 L 172.8168 -68.0660 L 174.0534 -65.7587 L 175.3000 -63.3360 L 176.5570 -60.7979 L 177.8250 -58.1445 L 179.1045 -55.3757 L 180.3959 -52.4916 L 181.6997 -49.4921 L 183.0164 -46.3772 L 184.3464 -43.1469 L 185.6904 -39.8013 L 187.0487 -36.3403 L 188.4218 -32.7640 L 189.8103 -29.0723 L 191.2147 -25.2652 L 192.6353 -21.3427 L 194.0727 -17.3049 L 195.5274 -13.1517 L 196.9998 -8.8832 L 198.4905 -4.4993 L 200.0000 0 L 200.0000 0 L 201.5095 4.4993 L 203.0002 8.8832 L 204.4726 13.1517 L 205.9273 17.3049 L 207.3647 21.3427 L 208.7853 25.2652 L 210.1897 29.0723 L 211.5782 32.7640 L 212.9513 36.3403 L 214.3096 39.8013 L 215.6536 43.1469 L 216.9836 46.3772 L 218.3003 49.4921 L 219.6041 52.4916 L 220.8955 55.3757 L 222.1750 58.1445 L 223.4430 60.7979 L 224.7000 63.3360 L 225.9466 65.7587 L 227.1832 68.0660 L 228.4104 70.2580 L 229.6285 72.3346 L 230.8381 74.2958 L 232.0397 76.1416 L 233.2337 77.8721 L 234.4206 79.4873 L 235.6010 80.9870 L 236.7753 82.3714 L 237.9441 83.6404 L 239.1077 84.7941 L 240.2666 85.8324 L 241.4215 86.7553 L 242.5727 87.5629 L 243.7207 88.2551 L 244.8660 88.8319 L 246.0092 89.2934 L 247.1506 89.6395 L 248.2909 89.8702 L 249.4304 89.9856 L 250.5696 89.9856 L 251.7091 89.8702 L 252.8494 89.6395 L 253.9908 89.2934 L 255.1340 88.8319 L 256.2793 88.2551 L 257.4273 87.5629 L 258.5785 86.7553 L 259.7334 85.8324 L 260.8923 84.7941 L 262.0559 83.6404 L 263.2247 82.3714 L 264.3990 80.9870 L 265.5794 79.4873 L 266.7663 77.8721 L 267.9603 76.1416 L 269.1619 74.2958 L 270.3715 72.3346 L 271.5896 70.2580 L 272.8168 68.0660 L 274.0534 65.7587 L 275.3000 63.3360 L 276.5570 60.7979 L 277.8250 58.1445 L 279.1045 55.3757 L 280.3959 52.4916 L 281.6997 49.4921 L 283.0164 46.3772 L 284.3464 43.1469 L 285.6904 39.8013 L 287.0487 36.3403 L 288.4218 32.7640 L 289.8103 29.0723 L 291.2147 25.2652 L 292.6353 21.3427 L 294.0727 17.3049 L 295.5274 13.1517 L 296.9998 8.8832 L 298.4905 4.4993 L 300.0000 0"/>
  <path fill="none" stroke="#ff9900" stroke-opacity="0.6" stroke-width="0.6" d=""/>
  <path fill="none" stroke="#222222" stroke-opacity="0.7" stroke-width="0.6" d=""/>
  <path fill="none" stroke="#00aaff" stroke-opacity="0.6" stroke-width="0.6" d=""/>
  <circle cx="0" cy="0" r="0.6000" fill="#222222" fill-opacity="0.5"/>
    <circle cx="13.4295" cy="37.5677" r="0.6000" fill="#222222" fill-opacity="0.5"/>
    <circle cx="30.4049" cy="73.6051" r="0.6000" fill="#222222" fill-opacity="0.5"/>
    <circle cx="43.6680" cy="88.2258" r="0.6000" fill="#222222" fill-opacity="0.5"/>
    <circle cx="53.2757" cy="89.5237" r="0.6000" fill="#222222" fill-opacity="0.5"/>
    <circle cx="61.5510" cy="84.1546" r="0.6000" fill="#222222" fill-opacity="0.5"/>
    <circle cx="72.9350" cy="67.8496" r="0.6000" fill="#222222" fill-opacity="0.5"/>
    <circle cx="81.5389" cy="49.8666" r="0.6000" fill="#222222" fill-opacity="0.5"/>
    <circle cx="95.7206" cy="12.5951" r="0.6000" fill="#222222" fill-opacity="0.5"/>
    <circle cx="108.7317" cy="-25.1183" r="0.6000" fill="#222222" fill-opacity="0.5"/>
    <circle cx="124.0105" cy="-61.9554" r="0.6000" fill="#222222" fill-opacity="0.5"/>
    <circle cx="134.1320" cy="-79.1042" r="0.6000" fill="#222222" fill-opacity="0.5"/>
    <circle cx="140.9229" cy="-86.3707" r="0.6000" fill="#222222" fill-opacity="0.5"/>
    <circle cx="145.1610" cy="-88.9620" r="0.6000" fill="#222222" fill-opacity="0.5"/>
    <circle cx="147.5284" cy="-89.7287" r="0.6000" fill="#222222" fill-opacity="0.5"/>
    <circle cx="148.7570" cy="-89.9313" r="0.6000" fill="#222222" fill-opacity="0.5"/>
    <circle cx="149.3770" cy="-89.9828" r="0.6000" fill="#222222" fill-opacity="0.5"/>
    <circle cx="149.6884" cy="-89.9957" r="0.6000" fill="#222222" fill-opacity="0.5"/>
    <circle cx="149.8442" cy="-89.9989" r="0.6000" fill="#222222" fill-opacity="0.5"/>
    <circle cx="149.9221" cy="-89.9997" r="0.6000" fill="#222222" fill-opacity="0.5"/>
    <circle cx="149.9610" cy="-89.9999" r="0.6000" fill="#222222" fill-opacity="0.5"/>
    <circle cx="150.0000" cy="-90.0000" r="0.6000" fill="#222222" fill-opacity="0.5"/>
    <circle cx="150.0390" cy="-89.9999" r="0.6000" fill="#222222" fill-opacity="0.5"/>
    <circle cx="150.0779" cy="-89.9997" r="0.6000" fill="#222222" fill-opacity="0.5"/>
    <circle cx="150.1558" cy="-89.9989" r="0.6000" fill="#222222" fill-opacity="0.5"/>
    <circle cx="150.3116" cy="-89.9957" r="0.6000" fill="#222222" fill-opacity="0.5"/>
    <circle cx="150.6230" cy="-89.9828" r="0.6000" fill="#222222" fill-opacity="0.5"/>
    <circle cx="151.2430" cy="-89.9313" r="0.6000" fill="#222222" fill-opacity="0.5"/>
    <circle cx="152.4716" cy="-89.7287" r="0.6000" fill="#222222" fill-opacity="0.5"/>
    <circle cx="154.8390" cy="-88.9620" r="0.6000" fill="#222222" fill-opacity="0.5"/>
    <circle cx="159.0771" cy="-86.3707" r="0.6000" fill="#222222" fill-opacity="0.5"/>
    <circle cx="165.8680" cy="-79.1042" r="0.6000" fill="#222222" fill-opacity="0.5"/>
    <circle cx="175.9895" cy="-61.9554" r="0.6000" fill="#222222" fill-opacity="0.5"/>
    <circle cx="191.2683" cy="-25.1183" r="0.6000" fill="#222222" fill-opacity="0.5"/>
    <circle cx="204.2794" cy="12.5951" r="0.6000" fill="#222222" fill-opacity="0.5"/>
    <circle cx="218.4611" cy="49.8666" r="0.6000" fill="#222222" fill-opacity="0.5"/>
    <circle cx="227.0650" cy="67.8496" r="0.6000" fill="#222222" fill-opacity="0.5"/>
    <circle cx="238.4490" cy="84.1546" r="0.6000" fill="#222222" fill-opacity="0.5"/>
    <circle cx="246.7243" cy="89.5237" r="0.6000" fill="#222222" fill-opacity="0.5"/>
    <circle cx="256.3320" cy="88.2258" r="0.6000" fill="#222222" fill-opacity="0.5"/>
    <circle cx="269.5951" cy="73.6051" r="0.6000" fill="#222222" fill-opacity="0.5"/>
    <circle cx="286.5705" cy="37.5677" r="0.6000" fill="#222222" fill-opacity="0.5"/>
    <circle cx="300.0000" cy="0" r="0.6000" fill="#222222" fill-opacity="0.5"/>
  
  
  
  
  <path fill="none" stroke="#8844ff" stroke-opacity="0.6" stroke-width="0.6" d="M -8.4572 -3.0782 L 4.6815 35.4527 L 21.5345 72.0830 L 37.0021 94.2728 L 37.4412 94.7240 L 37.9108 95.1435 L 38.4086 95.5291 L 38.9321 95.8790 L 39.4788 96.1914 L 40.0460 96.4648 L 40.6309 96.6979 L 41.2307 96.8895 L 41.8425 97.0387 L 42.4631 97.1448 L 52.0708 98.4427 L 52.7064 98.5057 L 53.3448 98.5234 L 53.9829 98.4958 L 54.6175 98.4231 L 55.2452 98.3055 L 55.8631 98.1437 L 56.4679 97.9385 L 57.0567 97.6909 L 57.6264 97.4022 L 58.1742 97.0738 L 52.6313 82.9553 L 64.0052 66.7274 L 72.6060 48.7697 L 104.1323 15.7957 L 104.1423 15.7693 L 104.1522 15.7429 L 104.1620 15.7164 L 104.1718 15.6899 L 104.1815 15.6634 L 104.1910 15.6369 L 104.2005 15.6103 L 104.2100 15.5837 L 104.2193 15.5570 L 104.2285 15.5303 L 117.2396 -22.1831 L 117.2216 -22.1313 L 117.2032 -22.0796 L 117.1845 -22.0280 L 117.1655 -21.9765 L 117.1462 -21.9252 L 117.1266 -21.8740 L 117.1066 -21.8228 L 117.0864 -21.7719 L 117.0659 -21.7210 L 117.0450 -21.6702 L 115.2625 -64.0704 L 125.4982 -81.6456 L 132.3678 -89.1653 L 136.6522 -91.8944 L 139.0447 -92.7330 L 140.2863 -92.9723 L 140.9130 -93.0423 L 141.2278 -93.0645 L 141.3853 -93.0724 L 141.4640 -93.0756 L 141.5031 -93.0762 L 143.6360 -83.6360 L 153.1152 -81.5420 L 153.1537 -81.5416 L 153.2293 -81.5400 L 153.3804 -81.5350 L 153.6823 -81.5187 L 154.2834 -81.4604 L 155.4735 -81.2441 L 157.7620 -80.4499 L 161.8343 -77.8034 L 168.2603 -70.4280 L 177.5116 -53.0850 L 182.9550 -21.6702 L 182.9341 -21.7210 L 182.9136 -21.7719 L 182.8934 -21.8228 L 182.8734 -21.8740 L 182.8538 -21.9252 L 182.8345 -21.9765 L 182.8155 -22.0280 L 182.7968 -22.0796 L 182.7784 -22.1313 L 182.7604 -22.1831 L 195.7715 15.5303 L 195.7807 15.5570 L 195.7900 15.5837 L 195.7995 15.6103 L 195.8090 15.6369 L 195.8185 15.6634 L 195.8282 15.6899 L 195.8380 15.7164 L 195.8478 15.7429 L 195.8577 15.7693 L 195.8677 15.7957 L 212.0971 56.2305 L 219.6233 72.9114 L 230.2128 87.7830 L 241.8258 97.0738 L 242.3736 97.4022 L 242.9433 97.6909 L 243.5321 97.9385 L 244.1369 98.1437 L 244.7548 98.3055 L 245.3825 98.4231 L 246.0171 98.4958 L 246.6552 98.5234 L 247.2936 98.5057 L 247.9292 98.4427 L 257.5369 97.1448 L 258.1575 97.0387 L 258.7693 96.8895 L 259.3691 96.6979 L 259.9540 96.4648 L 260.5212 96.1914 L 261.0679 95.8790 L 261.5914 95.5291 L 262.0892 95.1435 L 262.5588 94.7240 L 262.9979 94.2728 L 260.6294 74.3895 L 277.7001 36.0456 L 291.5428 -3.0782"/>
    <path fill="none" stroke="#8844ff" stroke-opacity="0.6" stroke-width="0.6" d="M 8.4572 3.0782 L 22.1775 39.6827 L 39.2752 75.1272 L 50.3339 82.1788 L 49.8948 81.7276 L 49.4252 81.3081 L 48.9274 80.9225 L 48.4039 80.5726 L 47.8572 80.2602 L 47.2900 79.9868 L 46.7050 79.7537 L 46.1052 79.5621 L 45.4935 79.4129 L 44.8728 79.3068 L 54.4805 80.6047 L 53.8449 80.5417 L 53.2065 80.5239 L 52.5684 80.5515 L 51.9339 80.6243 L 51.3061 80.7418 L 50.6882 80.9036 L 50.0834 81.1088 L 49.4946 81.3564 L 48.9249 81.6451 L 48.3771 81.9735 L 70.4707 85.3540 L 81.8647 68.9719 L 90.4718 50.9634 L 87.3090 9.3945 L 87.2990 9.4209 L 87.2891 9.4473 L 87.2792 9.4738 L 87.2695 9.5003 L 87.2598 9.5268 L 87.2502 9.5534 L 87.2407 9.5800 L 87.2313 9.6066 L 87.2220 9.6332 L 87.2127 9.6599 L 100.2238 -28.0535 L 100.2418 -28.1053 L 100.2602 -28.1570 L 100.2789 -28.2086 L 100.2979 -28.2601 L 100.3172 -28.3114 L 100.3368 -28.3627 L 100.3567 -28.4138 L 100.3770 -28.4648 L 100.3975 -28.5157 L 100.4184 -28.5664 L 132.7584 -59.8404 L 142.7657 -76.5628 L 149.4781 -83.5761 L 153.6699 -86.0296 L 156.0122 -86.7244 L 157.2277 -86.8904 L 157.8411 -86.9232 L 158.1490 -86.9269 L 158.3031 -86.9254 L 158.3802 -86.9239 L 158.4190 -86.9237 L 156.3640 -96.3640 L 146.9627 -98.4579 L 147.0021 -98.4578 L 147.0823 -98.4579 L 147.2428 -98.4563 L 147.5636 -98.4468 L 148.2026 -98.4022 L 149.4696 -98.2133 L 151.9159 -97.4741 L 156.3198 -94.9379 L 163.4758 -87.7805 L 174.4674 -70.8257 L 199.5816 -28.5664 L 199.6025 -28.5157 L 199.6230 -28.4648 L 199.6433 -28.4138 L 199.6632 -28.3627 L 199.6828 -28.3114 L 199.7021 -28.2601 L 199.7211 -28.2086 L 199.7398 -28.1570 L 199.7582 -28.1053 L 199.7762 -28.0535 L 212.7873 9.6599 L 212.7780 9.6332 L 212.7687 9.6066 L 212.7593 9.5800 L 212.7498 9.5534 L 212.7402 9.5268 L 212.7305 9.5003 L 212.7208 9.4738 L 212.7109 9.4473 L 212.7010 9.4209 L 212.6910 9.3945 L 224.8251 43.5026 L 234.5067 62.7879 L 246.6852 80.5263 L 251.6229 81.9735 L 251.0751 81.6451 L 250.5054 81.3564 L 249.9166 81.1088 L 249.3118 80.9036 L 248.6939 80.7418 L 248.0661 80.6243 L 247.4316 80.5515 L 246.7935 80.5239 L 246.1551 80.5417 L 245.5195 80.6047 L 255.1272 79.3068 L 254.5065 79.4129 L 253.8948 79.5621 L 253.2950 79.7537 L 252.7100 79.9868 L 252.1428 80.2602 L 251.5961 80.5726 L 251.0726 80.9225 L 250.5748 81.3081 L 250.1052 81.7276 L 249.6661 82.1788 L 278.5609 72.8207 L 295.4408 39.0898 L 308.4572 3.0782"/>
    <path fill="none" stroke="#8844ff" stroke-opacity="0.35" stroke-width="0.6" d="M -8.4572 -3.0782 L 4.6815 35.4527 L 21.5345 72.0830 L 37.0021 94.2728 L 37.4412 94.7240 L 37.9108 95.1435 L 38.4086 95.5291 L 38.9321 95.8790 L 39.4788 96.1914 L 40.0460 96.4648 L 40.6309 96.6979 L 41.2307 96.8895 L 41.8425 97.0387 L 42.4631 97.1448 L 52.0708 98.4427 L 52.7064 98.5057 L 53.3448 98.5234 L 53.9829 98.4958 L 54.6175 98.4231 L 55.2452 98.3055 L 55.8631 98.1437 L 56.4679 97.9385 L 57.0567 97.6909 L 57.6264 97.4022 L 58.1742 97.0738 L 52.6313 82.9553 L 64.0052 66.7274 L 72.6060 48.7697 L 104.1323 15.7957 L 104.1423 15.7693 L 104.1522 15.7429 L 104.1620 15.7164 L 104.1718 15.6899 L 104.1815 15.6634 L 104.1910 15.6369 L 104.2005 15.6103 L 104.2100 15.5837 L 104.2193 15.5570 L 104.2285 15.5303 L 117.2396 -22.1831 L 117.2216 -22.1313 L 117.2032 -22.0796 L 117.1845 -22.0280 L 117.1655 -21.9765 L 117.1462 -21.9252 L 117.1266 -21.8740 L 117.1066 -21.8228 L 117.0864 -21.7719 L 117.0659 -21.7210 L 117.0450 -21.6702 L 115.2625 -64.0704 L 125.4982 -81.6456 L 132.3678 -89.1653 L 136.6522 -91.8944 L 139.0447 -92.7330 L 140.2863 -92.9723 L 140.9130 -93.0423 L 141.2278 -93.0645 L 141.3853 -93.0724 L 141.4640 -93.0756 L 141.5031 -93.0762 L 143.6360 -83.6360 L 153.1152 -81.5420 L 153.1537 -81.5416 L 153.2293 -81.5400 L 153.3804 -81.5350 L 153.6823 -81.5187 L 154.2834 -81.4604 L 155.4735 -81.2441 L 157.7620 -80.4499 L 161.8343 -77.8034 L 168.2603 -70.4280 L 177.5116 -53.0850 L 182.9550 -21.6702 L 182.9341 -21.7210 L 182.9136 -21.7719 L 182.8934 -21.8228 L 182.8734 -21.8740 L 182.8538 -21.9252 L 182.8345 -21.9765 L 182.8155 -22.0280 L 182.7968 -22.0796 L 182.7784 -22.1313 L 182.7604 -22.1831 L 195.7715 15.5303 L 195.7807 15.5570 L 195.7900 15.5837 L 195.7995 15.6103 L 195.8090 15.6369 L 195.8185 15.6634 L 195.8282 15.6899 L 195.8380 15.7164 L 195.8478 15.7429 L 195.8577 15.7693 L 195.8677 15.7957 L 212.0971 56.2305 L 219.6233 72.9114 L 230.2128 87.7830 L 241.8258 97.0738 L 242.3736 97.4022 L 242.9433 97.6909 L 243.5321 97.9385 L 244.1369 98.1437 L 244.7548 98.3055 L 245.3825 98.4231 L 246.0171 98.4958 L 246.6552 98.5234 L 247.2936 98.5057 L 247.9292 98.4427 L 257.5369 97.1448 L 258.1575 97.0387 L 258.7693 96.8895 L 259.3691 96.6979 L 259.9540 96.4648 L 260.5212 96.1914 L 261.0679 95.8790 L 261.5914 95.5291 L 262.0892 95.1435 L 262.5588 94.7240 L 262.9979 94.2728 L 260.6294 74.3895 L 277.7001 36.0456 L 291.5428 -3.0782 L 308.4572 3.0782 L 295.4408 39.0898 L 278.5609 72.8207 L 249.6661 82.1788 L 250.1052 81.7276 L 250.5748 81.3081 L 251.0726 80.9225 L 251.5961 80.5726 L 252.1428 80.2602 L 252.7100 79.9868 L 253.2950 79.7537 L 253.8948 79.5621 L 254.5065 79.4129 L 255.1272 79.3068 L 245.5195 80.6047 L 246.1551 80.5417 L 246.7935 80.5239 L 247.4316 80.5515 L 248.0661 80.6243 L 248.6939 80.7418 L 249.3118 80.9036 L 249.9166 81.1088 L 250.5054 81.3564 L 251.0751 81.6451 L 251.6229 81.9735 L 246.6852 80.5263 L 234.5067 62.7879 L 224.8251 43.5026 L 212.6910 9.3945 L 212.7010 9.4209 L 212.7109 9.4473 L 212.7208 9.4738 L 212.7305 9.5003 L 212.7402 9.5268 L 212.7498 9.5534 L 212.7593 9.5800 L 212.7687 9.6066 L 212.7780 9.6332 L 212.7873 9.6599 L 199.7762 -28.0535 L 199.7582 -28.1053 L 199.7398 -28.1570 L 199.7211 -28.2086 L 199.7021 -28.2601 L 199.6828 -28.3114 L 199.6632 -28.3627 L 199.6433 -28.4138 L 199.6230 -28.4648 L 199.6025 -28.5157 L 199.5816 -28.5664 L 174.4674 -70.8257 L 163.4758 -87.7805 L 156.3198 -94.9379 L 151.9159 -97.4741 L 149.4696 -98.2133 L 148.2026 -98.4022 L 147.5636 -98.4468 L 147.2428 -98.4563 L 147.0823 -98.4579 L 147.0021 -98.4578 L 146.9627 -98.4579 L 156.3640 -96.3640 L 158.4190 -86.9237 L 158.3802 -86.9239 L 158.3031 -86.9254 L 158.1490 -86.9269 L 157.8411 -86.9232 L 157.2277 -86.8904 L 156.0122 -86.7244 L 153.6699 -86.0296 L 149.4781 -83.5761 L 142.7657 -76.5628 L 132.7584 -59.8404 L 100.4184 -28.5664 L 100.3975 -28.5157 L 100.3770 -28.4648 L 100.3567 -28.4138 L 100.3368 -28.3627 L 100.3172 -28.3114 L 100.2979 -28.2601 L 100.2789 -28.2086 L 100.2602 -28.1570 L 100.2418 -28.1053 L 100.2238 -28.0535 L 87.2127 9.6599 L 87.2220 9.6332 L 87.2313 9.6066 L 87.2407 9.5800 L 87.2502 9.5534 L 87.2598 9.5268 L 87.2695 9.5003 L 87.2792 9.4738 L 87.2891 9.4473 L 87.2990 9.4209 L 87.3090 9.3945 L 90.4718 50.9634 L 81.8647 68.9719 L 70.4707 85.3540 L 48.3771 81.9735 L 48.9249 81.6451 L 49.4946 81.3564 L 50.0834 81.1088 L 50.6882 80.9036 L 51.3061 80.7418 L 51.9339 80.6243 L 52.5684 80.5515 L 53.2065 80.5239 L 53.8449 80.5417 L 54.4805 80.6047 L 44.8728 79.3068 L 45.4935 79.4129 L 46.1052 79.5621 L 46.7050 79.7537 L 47.2900 79.9868 L 47.8572 80.2602 L 48.4039 80.5726 L 48.9274 80.9225 L 49.4252 81.3081 L 49.8948 81.7276 L 50.3339 82.1788 L 39.2752 75.1272 L 22.1775 39.6827 L 8.4572 3.0782 L -8.4572 -3.0782 Z"/>
  <path fill="none" stroke="#0066ff" stroke-opacity="0.3" stroke-width="0.5" d="M -2.0521 5.6382 L -4.1711 4.6493 L -6.0058 3.3437 L -7.4312 1.8102 L -8.3502 0.1533 L -8.7002 -1.5140 L -8.4572 -3.0782 L -7.6379 -4.4326 L -6.2981 -5.4849 L -4.5291 -6.1634 L -2.4514 -6.4219 L -0.2067 -6.2427 L 2.0521 -5.6382 L 4.1711 -4.6493 L 6.0058 -3.3437 L 7.4312 -1.8102 L 8.3502 -0.1533 L 8.7002 1.5140 L 8.4572 3.0782 L 7.6379 4.4326 L 6.2981 5.4849 L 4.5291 6.1634 L 2.4514 6.4219 L 0.2067 6.2427 L -2.0521 5.6382 Z"/>
    <path fill="none" stroke="#0066ff" stroke-opacity="0.3" stroke-width="0.5" d="M 12.0195 43.3997 L 9.8034 42.6535 L 7.8344 41.5608 L 6.2468 40.1960 L 5.1486 38.6520 L 4.6147 37.0342 L 4.6815 35.4527 L 5.3446 34.0153 L 6.5585 32.8201 L 8.2408 31.9483 L 10.2766 31.4595 L 12.5273 31.3870 L 14.8395 31.7357 L 17.0556 32.4818 L 19.0246 33.5745 L 20.6123 34.9394 L 21.7105 36.4833 L 22.2443 38.1012 L 22.1775 39.6827 L 21.5145 41.1200 L 20.3005 42.3153 L 18.6182 43.1870 L 16.5824 43.6758 L 14.3317 43.7483 L 12.0195 43.3997 Z"/>
    <path fill="none" stroke="#0066ff" stroke-opacity="0.3" stroke-width="0.5" d="M 29.3901 79.5187 L 27.1289 78.9232 L 25.0909 77.9653 L 23.4150 76.7103 L 22.2155 75.2437 L 21.5741 73.6654 L 21.5345 72.0830 L 22.0994 70.6043 L 23.2303 69.3301 L 24.8501 68.3473 L 26.8485 67.7227 L 29.0892 67.4991 L 31.4196 67.6915 L 33.6808 68.2870 L 35.7188 69.2448 L 37.3947 70.4998 L 38.5942 71.9665 L 39.2356 73.5448 L 39.2752 75.1272 L 38.7103 76.6059 L 37.5794 77.8801 L 35.9596 78.8629 L 33.9612 79.4874 L 31.7205 79.7111 L 29.3901 79.5187 Z"/>
    <path fill="none" stroke="#0066ff" stroke-opacity="0.3" stroke-width="0.5" d="M 42.7806 94.1598 L 40.5071 93.6131 L 38.4490 92.6993 L 36.7465 91.4806 L 35.5158 90.0401 L 34.8406 88.4760 L 34.7669 86.8948 L 35.2999 85.4043 L 36.4031 84.1061 L 38.0015 83.0886 L 39.9859 82.4213 L 42.2213 82.1495 L 44.5553 82.2918 L 46.8289 82.8385 L 48.8870 83.7523 L 50.5894 84.9710 L 51.8202 86.4115 L 52.4954 87.9756 L 52.5690 89.5568 L 52.0360 91.0473 L 50.9328 92.3455 L 49.3345 93.3630 L 47.3500 94.0303 L 45.1146 94.3021 L 42.7806 94.1598 Z"/>
    <path fill="none" stroke="#0066ff" stroke-opacity="0.3" stroke-width="0.5" d="M 52.4369 95.4648 L 50.1590 94.9367 L 48.0935 94.0397 L 46.3811 92.8350 L 45.1386 91.4046 L 44.4506 89.8461 L 44.3640 88.2655 L 44.8848 86.7707 L 45.9773 85.4636 L 47.5673 84.4331 L 49.5462 83.7495 L 51.7793 83.4594 L 54.1144 83.5826 L 56.3923 84.1107 L 58.4579 85.0076 L 60.1702 86.2123 L 61.4127 87.6427 L 62.1007 89.2013 L 62.1873 90.7818 L 61.6665 92.2766 L 60.5740 93.5838 L 58.9840 94.6143 L 57.0051 95.2979 L 54.7720 95.5880 L 52.4369 95.4648 Z"/>
    <path fill="none" stroke="#0066ff" stroke-opacity="0.3" stroke-width="0.5" d="M 60.7514 90.1011 L 58.4701 89.5881 L 56.3987 88.7048 L 54.6784 87.5114 L 53.4265 86.0892 L 52.7283 84.5352 L 52.6313 82.9553 L 53.1422 81.4571 L 54.2261 80.1427 L 55.8092 79.1018 L 57.7836 78.4051 L 60.0147 78.1004 L 62.3506 78.2082 L 64.6319 78.7212 L 66.7033 79.6045 L 68.4236 80.7979 L 69.6755 82.2201 L 70.3737 83.7741 L 70.4707 85.3540 L 69.9599 86.8522 L 68.8759 88.1666 L 67.2928 89.2075 L 65.3184 89.9041 L 63.0873 90.2089 L 60.7514 90.1011 Z"/>
    <path fill="none" stroke="#0066ff" stroke-opacity="0.3" stroke-width="0.5" d="M 72.1868 73.8028 L 69.9011 73.3095 L 67.8222 72.4441 L 66.0917 71.2656 L 64.8275 69.8543 L 64.1159 68.3064 L 64.0052 66.7274 L 64.5031 65.2249 L 65.5757 63.9012 L 67.1497 62.8466 L 69.1180 62.1329 L 71.3465 61.8089 L 73.6831 61.8965 L 75.9688 62.3898 L 78.0478 63.2552 L 79.7783 64.4337 L 81.0425 65.8449 L 81.7541 67.3928 L 81.8647 68.9719 L 81.3668 70.4744 L 80.2943 71.7981 L 78.7202 72.8527 L 76.7519 73.5664 L 74.5235 73.8904 L 72.1868 73.8028 Z"/>
    <path fill="none" stroke="#0066ff" stroke-opacity="0.3" stroke-width="0.5" d="M 80.8077 55.8218 L 78.5206 55.3350 L 76.4392 54.4756 L 74.7053 53.3020 L 73.4372 51.8943 L 72.7211 50.3484 L 72.6060 48.7697 L 73.0996 47.2658 L 74.1684 45.9390 L 75.7394 44.8800 L 77.7057 44.1607 L 79.9332 43.8303 L 82.2701 43.9113 L 84.5572 44.3981 L 86.6386 45.2575 L 88.3725 46.4311 L 89.6406 47.8388 L 90.3567 49.3847 L 90.4718 50.9634 L 89.9782 52.4673 L 88.9094 53.7941 L 87.3384 54.8531 L 85.3721 55.5724 L 83.1446 55.9028 L 80.8077 55.8218 Z"/>
    <path fill="none" stroke="#0066ff" stroke-opacity="0.3" stroke-width="0.5" d="M 94.9211 18.5416 L 92.6397 18.0286 L 90.5683 17.1452 L 88.8480 15.9518 L 87.5961 14.5297 L 86.8979 12.9757 L 86.8009 11.3957 L 87.3118 9.8975 L 88.3957 8.5832 L 89.9788 7.5422 L 91.9532 6.8456 L 94.1844 6.5408 L 96.5202 6.6486 L 98.8016 7.1617 L 100.8730 8.0450 L 102.5932 9.2384 L 103.8451 10.6606 L 104.5434 12.2146 L 104.6404 13.7945 L 104.1295 15.2927 L 103.0456 16.6070 L 101.4624 17.6480 L 99.4880 18.3446 L 97.2569 18.6494 L 94.9211 18.5416 Z"/>
    <path fill="none" stroke="#0066ff" stroke-opacity="0.3" stroke-width="0.5" d="M 107.7170 -19.2047 L 105.4557 -19.8002 L 103.4177 -20.7581 L 101.7419 -22.0131 L 100.5424 -23.4797 L 99.9010 -25.0580 L 99.8613 -26.6404 L 100.4262 -28.1191 L 101.5571 -29.3933 L 103.1769 -30.3761 L 105.1753 -31.0007 L 107.4160 -31.2243 L 109.7464 -31.0319 L 112.0077 -30.4364 L 114.0457 -29.4786 L 115.7215 -28.2236 L 116.9210 -26.7569 L 117.5624 -25.1786 L 117.6021 -23.5962 L 117.0372 -22.1175 L 115.9063 -20.8433 L 114.2865 -19.8605 L 112.2881 -19.2360 L 110.0474 -19.0123 L 107.7170 -19.2047 Z"/>
    <path fill="none" stroke="#0066ff" stroke-opacity="0.3" stroke-width="0.5" d="M 122.6005 -56.1234 L 120.3844 -56.8695 L 118.4154 -57.9622 L 116.8277 -59.3271 L 115.7295 -60.8710 L 115.1957 -62.4889 L 115.2625 -64.0704 L 115.9255 -65.5077 L 117.1395 -66.7030 L 118.8218 -67.5747 L 120.8576 -68.0635 L 123.1083 -68.1360 L 125.4205 -67.7873 L 127.6366 -67.0412 L 129.6056 -65.9485 L 131.1932 -64.5837 L 132.2914 -63.0397 L 132.8253 -61.4219 L 132.7584 -59.8404 L 132.0954 -58.4030 L 130.8814 -57.2078 L 129.1992 -56.3360 L 127.1634 -55.8472 L 124.9127 -55.7747 L 122.6005 -56.1234 Z"/>
    <path fill="none" stroke="#0066ff" stroke-opacity="0.3" stroke-width="0.5" d="M 132.4377 -73.3484 L 130.2608 -74.2023 L 128.3478 -75.3902 L 126.8290 -76.8313 L 125.8078 -78.4272 L 125.3539 -80.0693 L 125.4982 -81.6456 L 126.2309 -83.0488 L 127.5021 -84.1831 L 129.2250 -84.9712 L 131.2824 -85.3596 L 133.5339 -85.3217 L 135.8262 -84.8600 L 138.0031 -84.0062 L 139.9161 -82.8182 L 141.4350 -81.3772 L 142.4561 -79.7812 L 142.9100 -78.1391 L 142.7657 -76.5628 L 142.0330 -75.1597 L 140.7619 -74.0254 L 139.0389 -73.2372 L 136.9815 -72.8488 L 134.7300 -72.8868 L 132.4377 -73.3484 Z"/>
    <path fill="none" stroke="#0066ff" stroke-opacity="0.3" stroke-width="0.5" d="M 139.0599 -80.6673 L 136.9091 -81.5849 L 135.0319 -82.8287 L 133.5562 -84.3138 L 132.5824 -85.9392 L 132.1771 -87.5939 L 132.3678 -89.1653 L 133.1415 -90.5462 L 134.4455 -91.6426 L 136.1909 -92.3797 L 138.2588 -92.7073 L 140.5083 -92.6031 L 142.7860 -92.0741 L 144.9367 -91.1565 L 146.8140 -89.9127 L 148.2897 -88.4275 L 149.2634 -86.8022 L 149.6687 -85.1475 L 149.4781 -83.5761 L 148.7043 -82.1951 L 147.4004 -81.0988 L 145.6549 -80.3617 L 143.5870 -80.0341 L 141.3376 -80.1383 L 139.0599 -80.6673 Z"/>
    <path fill="none" stroke="#0066ff" stroke-opacity="0.3" stroke-width="0.5" d="M 143.2061 -83.2894 L 141.0705 -84.2416 L 139.2136 -85.5156 L 137.7620 -87.0244 L 136.8147 -88.6652 L 136.4361 -90.3263 L 136.6522 -91.8944 L 137.4481 -93.2626 L 138.7696 -94.3378 L 140.5267 -95.0466 L 142.5996 -95.3408 L 144.8471 -95.2002 L 147.1160 -94.6346 L 149.2516 -93.6823 L 151.1085 -92.4084 L 152.5601 -90.8996 L 153.5074 -89.2587 L 153.8860 -87.5977 L 153.6699 -86.0296 L 152.8740 -84.6613 L 151.5525 -83.5862 L 149.7954 -82.8773 L 147.7225 -82.5832 L 145.4750 -82.7237 L 143.2061 -83.2894 Z"/>
    <path fill="none" stroke="#0066ff" stroke-opacity="0.3" stroke-width="0.5" d="M 145.5256 -84.0728 L 143.3981 -85.0431 L 141.5520 -86.3327 L 140.1133 -87.8537 L 139.1799 -89.5025 L 138.8154 -91.1667 L 139.0447 -92.7330 L 139.8521 -94.0944 L 141.1827 -95.1584 L 142.9457 -95.8523 L 145.0211 -96.1289 L 147.2673 -95.9694 L 149.5313 -95.3845 L 151.6588 -94.4143 L 153.5048 -93.1247 L 154.9436 -91.6036 L 155.8770 -89.9548 L 156.2415 -88.2906 L 156.0122 -86.7244 L 155.2048 -85.3629 L 153.8742 -84.2990 L 152.1111 -83.6051 L 150.0358 -83.3284 L 147.7896 -83.4880 L 145.5256 -84.0728 Z"/>
    <path fill="none" stroke="#0066ff" stroke-opacity="0.3" stroke-width="0.5" d="M 146.7297 -84.2842 L 144.6064 -85.2637 L 142.7660 -86.5613 L 141.3338 -88.0885 L 140.4075 -89.7413 L 140.0503 -91.4071 L 140.2863 -92.9723 L 141.0997 -94.3303 L 142.4349 -95.3885 L 144.2009 -96.0748 L 146.2774 -96.3424 L 148.5229 -96.1731 L 150.7843 -95.5785 L 152.9076 -94.5990 L 154.7481 -93.3014 L 156.1802 -91.7742 L 157.1065 -90.1214 L 157.4638 -88.4556 L 157.2277 -86.8904 L 156.4144 -85.5324 L 155.0792 -84.4742 L 153.3132 -83.7879 L 151.2367 -83.5203 L 148.9912 -83.6896 L 146.7297 -84.2842 Z"/>
    <path fill="none" stroke="#0066ff" stroke-opacity="0.3" stroke-width="0.5" d="M 147.3374 -84.3401 L 145.2162 -85.3242 L 143.3786 -86.6258 L 141.9498 -88.1562 L 141.0272 -89.8110 L 140.6735 -91.4776 L 140.9130 -93.0423 L 141.7293 -94.3984 L 143.0668 -95.4537 L 144.8344 -96.1361 L 146.9114 -96.3992 L 149.1566 -96.2250 L 151.4167 -95.6254 L 153.5379 -94.6413 L 155.3755 -93.3397 L 156.8043 -91.8093 L 157.7269 -90.1545 L 158.0806 -88.4879 L 157.8411 -86.9232 L 157.0247 -85.5671 L 155.6873 -84.5118 L 153.9197 -83.8294 L 151.8426 -83.5663 L 149.5975 -83.7405 L 147.3374 -84.3401 Z"/>
    <path fill="none" stroke="#0066ff" stroke-opacity="0.3" stroke-width="0.5" d="M 147.6425 -84.3553 L 145.5224 -85.3417 L 143.6863 -86.6454 L 142.2592 -88.1773 L 141.3383 -89.8332 L 140.9865 -91.5001 L 141.2278 -93.0645 L 142.0456 -94.4198 L 143.3842 -95.4736 L 145.1525 -96.1541 L 147.2299 -96.4148 L 149.4748 -96.2382 L 151.7343 -95.6361 L 153.8543 -94.6496 L 155.6905 -93.3460 L 157.1176 -91.8141 L 158.0384 -90.1582 L 158.3902 -88.4913 L 158.1490 -86.9269 L 157.3312 -85.5716 L 155.9926 -84.5178 L 154.2243 -83.8373 L 152.1469 -83.5765 L 149.9020 -83.7532 L 147.6425 -84.3553 Z"/>
    <path fill="none" stroke="#0066ff" stroke-opacity="0.3" stroke-width="0.5" d="M 147.7952 -84.3596 L 145.6757 -85.3473 L 143.8402 -86.6519 L 142.4140 -88.1846 L 141.4940 -89.8410 L 141.1432 -91.5081 L 141.3853 -93.0724 L 142.2038 -94.4273 L 143.5430 -95.4803 L 145.3117 -96.1598 L 147.3892 -96.4194 L 149.6340 -96.2415 L 151.8932 -95.6382 L 154.0127 -94.6506 L 155.8481 -93.3459 L 157.2744 -91.8132 L 158.1943 -90.1568 L 158.5452 -88.4897 L 158.3031 -86.9254 L 157.4846 -85.5706 L 156.1453 -84.5175 L 154.3767 -83.8380 L 152.2992 -83.5784 L 150.0543 -83.7563 L 147.7952 -84.3596 Z"/>
    <path fill="none" stroke="#0066ff" stroke-opacity="0.3" stroke-width="0.5" d="M 147.8715 -84.3610 L 145.7523 -85.3492 L 143.9172 -86.6544 L 142.4914 -88.1875 L 141.5719 -89.8441 L 141.2215 -91.5114 L 141.4640 -93.0756 L 142.2829 -94.4302 L 143.6225 -95.4828 L 145.3913 -96.1619 L 147.4689 -96.4209 L 149.7137 -96.2424 L 151.9727 -95.6385 L 154.0919 -94.6502 L 155.9270 -93.3451 L 157.3528 -91.8120 L 158.2723 -90.1553 L 158.6227 -88.4881 L 158.3802 -86.9239 L 157.5613 -85.5693 L 156.2217 -84.5166 L 154.4529 -83.8376 L 152.3753 -83.5785 L 150.1305 -83.7571 L 147.8715 -84.3610 Z"/>
    <path fill="none" stroke="#0066ff" stroke-opacity="0.3" stroke-width="0.5" d="M 147.9102 -84.3613 L 145.7910 -85.3496 L 143.9560 -86.6549 L 142.5302 -88.1881 L 141.6108 -89.8447 L 141.2605 -91.5120 L 141.5031 -93.0762 L 142.3221 -94.4308 L 143.6617 -95.4834 L 145.4306 -96.1623 L 147.5082 -96.4213 L 149.7529 -96.2426 L 152.0119 -95.6386 L 154.1311 -94.6502 L 155.9661 -93.3450 L 157.3919 -91.8118 L 158.3113 -90.1551 L 158.6616 -88.4879 L 158.4190 -86.9237 L 157.6000 -85.5691 L 156.2604 -84.5165 L 154.4915 -83.8376 L 152.4139 -83.5786 L 150.1692 -83.7572 L 147.9102 -84.3613 Z"/>
    <path fill="none" stroke="#0066ff" stroke-opacity="0.3" stroke-width="0.5" d="M 154.2426 -85.7574 L 152.4510 -84.2548 L 150.4923 -83.1438 L 148.5000 -82.5000 L 146.6100 -82.3673 L 144.9510 -82.7548 L 143.6360 -83.6360 L 142.7548 -84.9510 L 142.3673 -86.6100 L 142.5000 -88.5000 L 143.1438 -90.4923 L 144.2548 -92.4510 L 145.7574 -94.2426 L 147.5490 -95.7452 L 149.5077 -96.8562 L 151.5000 -97.5000 L 153.3900 -97.6327 L 155.0490 -97.2452 L 156.3640 -96.3640 L 157.2452 -95.0490 L 157.6327 -93.3900 L 157.5000 -91.5000 L 156.8562 -89.5077 L 155.7452 -87.5490 L 154.2426 -85.7574 Z"/>
    <path fill="none" stroke="#0066ff" stroke-opacity="0.3" stroke-width="0.5" d="M 155.6776 -92.0508 L 156.2816 -89.7918 L 156.4603 -87.5470 L 156.2013 -85.4694 L 155.5224 -83.7006 L 154.4698 -82.3610 L 153.1152 -81.5420 L 151.5510 -81.2994 L 149.8838 -81.6497 L 148.2271 -82.5691 L 146.6939 -83.9949 L 145.3887 -85.8299 L 144.4003 -87.9491 L 143.7963 -90.2080 L 143.6176 -92.4528 L 143.8766 -94.5304 L 144.5555 -96.2993 L 145.6081 -97.6389 L 146.9627 -98.4579 L 148.5269 -98.7005 L 150.1941 -98.3501 L 151.8508 -97.4308 L 153.3840 -96.0050 L 154.6892 -94.1700 L 155.6776 -92.0508 Z"/>
    <path fill="none" stroke="#0066ff" stroke-opacity="0.3" stroke-width="0.5" d="M 155.7166 -92.0503 L 156.3206 -89.7913 L 156.4991 -87.5465 L 156.2400 -85.4689 L 155.5610 -83.7001 L 154.5083 -82.3606 L 153.1537 -81.5416 L 151.5895 -81.2991 L 149.9223 -81.6495 L 148.2657 -82.5690 L 146.7325 -83.9949 L 145.4274 -85.8299 L 144.4392 -87.9492 L 143.8352 -90.2082 L 143.6567 -92.4529 L 143.9158 -94.5305 L 144.5948 -96.2994 L 145.6475 -97.6389 L 147.0021 -98.4578 L 148.5663 -98.7003 L 150.2335 -98.3499 L 151.8901 -97.4305 L 153.4233 -96.0046 L 154.7284 -94.1695 L 155.7166 -92.0503 Z"/>
    <path fill="none" stroke="#0066ff" stroke-opacity="0.3" stroke-width="0.5" d="M 155.7951 -92.0479 L 156.3984 -89.7888 L 156.5763 -87.5439 L 156.3167 -85.4664 L 155.6372 -83.6978 L 154.5841 -82.3585 L 153.2293 -81.5400 L 151.6650 -81.2979 L 149.9979 -81.6488 L 148.3415 -82.5687 L 146.8088 -83.9950 L 145.5041 -85.8304 L 144.5165 -87.9499 L 143.9132 -90.2091 L 143.7353 -92.4539 L 143.9949 -94.5314 L 144.6744 -96.3001 L 145.7275 -97.6393 L 147.0823 -98.4579 L 148.6466 -98.6999 L 150.3137 -98.3491 L 151.9701 -97.4292 L 153.5028 -96.0029 L 154.8075 -94.1674 L 155.7951 -92.0479 Z"/>
    <path fill="none" stroke="#0066ff" stroke-opacity="0.3" stroke-width="0.5" d="M 155.9520 -92.0415 L 156.5541 -89.7821 L 156.7308 -87.5371 L 156.4700 -85.4597 L 155.7895 -83.6915 L 154.7357 -82.3528 L 153.3804 -81.5350 L 151.8160 -81.2938 L 150.1491 -81.6456 L 148.4932 -82.5665 L 146.9613 -83.9936 L 145.6576 -85.8298 L 144.6712 -87.9498 L 144.0691 -90.2093 L 143.8925 -92.4542 L 144.1533 -94.5316 L 144.8337 -96.2999 L 145.8875 -97.6385 L 147.2428 -98.4563 L 148.8072 -98.6975 L 150.4742 -98.3457 L 152.1300 -97.4249 L 153.6620 -95.9978 L 154.9656 -94.1616 L 155.9520 -92.0415 Z"/>
    <path fill="none" stroke="#0066ff" stroke-opacity="0.3" stroke-width="0.5" d="M 156.2657 -92.0223 L 156.8652 -89.7622 L 157.0394 -87.5170 L 156.7762 -85.4400 L 156.0938 -83.6724 L 155.0385 -82.3350 L 153.6823 -81.5187 L 152.1176 -81.2792 L 150.4511 -81.6329 L 148.7963 -82.5556 L 147.2659 -83.9844 L 145.9643 -85.8220 L 144.9802 -87.9432 L 144.3807 -90.2033 L 144.2065 -92.4485 L 144.4697 -94.5256 L 145.1521 -96.2931 L 146.2074 -97.6305 L 147.5636 -98.4468 L 149.1283 -98.6863 L 150.7948 -98.3326 L 152.4497 -97.4099 L 153.9800 -95.9811 L 155.2816 -94.1435 L 156.2657 -92.0223 Z"/>
    <path fill="none" stroke="#0066ff" stroke-opacity="0.3" stroke-width="0.5" d="M 156.8902 -91.9583 L 157.4847 -89.6968 L 157.6538 -87.4513 L 157.3861 -85.3748 L 156.6997 -83.6088 L 155.6414 -82.2737 L 154.2834 -81.4604 L 152.7181 -81.2245 L 151.0524 -81.5819 L 149.3996 -82.5083 L 147.8725 -83.9405 L 146.5750 -85.7811 L 145.5957 -87.9044 L 145.0012 -90.1659 L 144.8321 -92.4114 L 145.0999 -94.4879 L 145.7863 -96.2539 L 146.8446 -97.5890 L 148.2026 -98.4022 L 149.7678 -98.6382 L 151.4336 -98.2808 L 153.0863 -97.3544 L 154.6135 -95.9222 L 155.9109 -94.0816 L 156.8902 -91.9583 Z"/>
    <path fill="none" stroke="#0066ff" stroke-opacity="0.3" stroke-width="0.5" d="M 158.1280 -91.7300 L 158.7122 -89.4658 L 158.8711 -87.2196 L 158.5939 -85.1443 L 157.8995 -83.3815 L 156.8352 -82.0512 L 155.4735 -81.2441 L 153.9072 -81.0152 L 152.2431 -81.3802 L 150.5946 -82.3140 L 149.0739 -83.7532 L 147.7849 -85.5996 L 146.8152 -87.7274 L 146.2309 -89.9916 L 146.0720 -92.2378 L 146.3492 -94.3131 L 147.0436 -96.0759 L 148.1079 -97.4062 L 149.4696 -98.2133 L 151.0359 -98.4422 L 152.7000 -98.0772 L 154.3486 -97.1433 L 155.8692 -95.7042 L 157.1583 -93.8578 L 158.1280 -91.7300 Z"/>
    <path fill="none" stroke="#0066ff" stroke-opacity="0.3" stroke-width="0.5" d="M 160.5137 -90.9107 L 161.0769 -88.6412 L 161.2149 -86.3935 L 160.9185 -84.3209 L 160.2077 -82.5646 L 159.1311 -81.2443 L 157.7620 -80.4499 L 156.1937 -80.2356 L 154.5330 -80.6159 L 152.8932 -81.5651 L 151.3860 -83.0183 L 150.1141 -84.8766 L 149.1642 -87.0133 L 148.6010 -89.2828 L 148.4630 -91.5304 L 148.7594 -93.6030 L 149.4702 -95.3593 L 150.5468 -96.6797 L 151.9159 -97.4741 L 153.4842 -97.6884 L 155.1449 -97.3080 L 156.7847 -96.3589 L 158.2919 -94.9056 L 159.5638 -93.0474 L 160.5137 -90.9107 Z"/>
    <path fill="none" stroke="#0066ff" stroke-opacity="0.3" stroke-width="0.5" d="M 164.7886 -88.2088 L 165.3076 -85.9288 L 165.4020 -83.6789 L 165.0654 -81.6125 L 164.3206 -79.8703 L 163.2186 -78.5711 L 161.8343 -77.8034 L 160.2621 -77.6196 L 158.6091 -78.0321 L 156.9881 -79.0129 L 155.5094 -80.4952 L 154.2738 -82.3778 L 153.3656 -84.5325 L 152.8466 -86.8125 L 152.7522 -89.0624 L 153.0888 -91.1289 L 153.8335 -92.8711 L 154.9356 -94.1703 L 156.3198 -94.9379 L 157.8920 -95.1217 L 159.5450 -94.7092 L 161.1661 -93.7284 L 162.6448 -92.2462 L 163.8803 -90.3636 L 164.7886 -88.2088 Z"/>
    <path fill="none" stroke="#0066ff" stroke-opacity="0.3" stroke-width="0.5" d="M 171.6522 -80.6991 L 172.0743 -78.3992 L 172.0734 -76.1473 L 171.6496 -74.0969 L 170.8319 -72.3878 L 169.6758 -71.1364 L 168.2603 -70.4280 L 166.6817 -70.3108 L 165.0477 -70.7930 L 163.4696 -71.8415 L 162.0549 -73.3849 L 160.9001 -75.3181 L 160.0839 -77.5094 L 159.6618 -79.8093 L 159.6627 -82.0612 L 160.0864 -84.1115 L 160.9042 -85.8206 L 162.0602 -87.0720 L 163.4758 -87.7805 L 165.0543 -87.8976 L 166.6884 -87.4155 L 168.2665 -86.3670 L 169.6811 -84.8235 L 170.8359 -82.8903 L 171.6522 -80.6991 Z"/>
    <path fill="none" stroke="#0066ff" stroke-opacity="0.3" stroke-width="0.5" d="M 181.9031 -62.9701 L 182.0955 -60.6397 L 181.8719 -58.3990 L 181.2473 -56.4006 L 180.2645 -54.7808 L 178.9903 -53.6499 L 177.5116 -53.0850 L 175.9292 -53.1246 L 174.3509 -53.7661 L 172.8843 -54.9656 L 171.6293 -56.6414 L 170.6714 -58.6794 L 170.0759 -60.9406 L 169.8835 -63.2710 L 170.1072 -65.5118 L 170.7317 -67.5101 L 171.7145 -69.1300 L 172.9887 -70.2608 L 174.4674 -70.8257 L 176.0498 -70.7861 L 177.6281 -70.1447 L 179.0948 -68.9452 L 180.3498 -67.2693 L 181.3076 -65.2314 L 181.9031 -62.9701 Z"/>
    <path fill="none" stroke="#0066ff" stroke-opacity="0.3" stroke-width="0.5" d="M 197.2455 -24.5954 L 196.8388 -22.2927 L 196.0525 -20.1826 L 194.9401 -18.4088 L 193.5776 -17.0923 L 192.0576 -16.3227 L 190.4839 -16.1526 L 188.9636 -16.5934 L 187.6004 -17.6152 L 186.4872 -19.1483 L 185.6997 -21.0883 L 185.2918 -23.3029 L 185.2911 -25.6413 L 185.6978 -27.9439 L 186.4841 -30.0541 L 187.5965 -31.8278 L 188.9590 -33.1444 L 190.4790 -33.9139 L 192.0527 -34.0841 L 193.5730 -33.6432 L 194.9362 -32.6214 L 196.0495 -31.0883 L 196.8369 -29.1483 L 197.2448 -26.9337 L 197.2455 -24.5954 Z"/>
    <path fill="none" stroke="#0066ff" stroke-opacity="0.3" stroke-width="0.5" d="M 209.7702 15.0140 L 208.6440 17.0633 L 207.2203 18.8081 L 205.5963 20.1294 L 203.8825 20.9373 L 202.1957 21.1767 L 200.6510 20.8313 L 199.3535 19.9246 L 198.3917 18.5184 L 197.8311 16.7085 L 197.7100 14.6184 L 198.0366 12.3903 L 198.7886 10.1762 L 199.9148 8.1269 L 201.3384 6.3822 L 202.9624 5.0608 L 204.6762 4.2529 L 206.3630 4.0135 L 207.9078 4.3589 L 209.2052 5.2656 L 210.1670 6.6718 L 210.7276 8.4817 L 210.8487 10.5719 L 210.5222 12.7999 L 209.7702 15.0140 Z"/>
    <path fill="none" stroke="#0066ff" stroke-opacity="0.3" stroke-width="0.5" d="M 222.7037 54.1092 L 220.9121 55.6117 L 218.9534 56.7228 L 216.9611 57.3666 L 215.0711 57.4992 L 213.4121 57.1117 L 212.0971 56.2305 L 211.2159 54.9156 L 210.8284 53.2566 L 210.9611 51.3666 L 211.6049 49.3743 L 212.7159 47.4156 L 214.2185 45.6239 L 216.0101 44.1214 L 217.9688 43.0103 L 219.9611 42.3666 L 221.8511 42.2339 L 223.5101 42.6214 L 224.8251 43.5026 L 225.7063 44.8175 L 226.0938 46.4765 L 225.9611 48.3666 L 225.3173 50.3588 L 224.2063 52.3175 L 222.7037 54.1092 Z"/>
    <path fill="none" stroke="#0066ff" stroke-opacity="0.3" stroke-width="0.5" d="M 230.4395 72.8108 L 228.3985 73.9518 L 226.2665 74.6770 L 224.1890 74.9369 L 222.3075 74.7138 L 220.7503 74.0229 L 219.6233 72.9114 L 219.0035 71.4548 L 218.9331 69.7526 L 219.4168 67.9208 L 220.4218 66.0840 L 221.8795 64.3676 L 223.6905 62.8885 L 225.7316 61.7475 L 227.8635 61.0223 L 229.9410 60.7624 L 231.8225 60.9855 L 233.3798 61.6764 L 234.5067 62.7879 L 235.1265 64.2444 L 235.1970 65.9466 L 234.7132 67.7785 L 233.7083 69.6153 L 232.2506 71.3317 L 230.4395 72.8108 Z"/>
    <path fill="none" stroke="#0066ff" stroke-opacity="0.3" stroke-width="0.5" d="M 240.8679 89.6454 L 238.6538 90.3974 L 236.4258 90.7240 L 234.3356 90.6029 L 232.5257 90.0423 L 231.1195 89.0805 L 230.2128 87.7830 L 229.8674 86.2383 L 230.1068 84.5515 L 230.9147 82.8377 L 232.2360 81.2137 L 233.9808 79.7900 L 236.0301 78.6638 L 238.2442 77.9118 L 240.4722 77.5853 L 242.5624 77.7064 L 244.3723 78.2670 L 245.7785 79.2288 L 246.6852 80.5263 L 247.0306 82.0710 L 246.7912 83.7578 L 245.9833 85.4716 L 244.6619 87.0956 L 242.9172 88.5192 L 240.8679 89.6454 Z"/>
    <path fill="none" stroke="#0066ff" stroke-opacity="0.3" stroke-width="0.5" d="M 248.6550 95.2046 L 246.3837 95.7605 L 244.1357 95.8915 L 242.0640 95.5885 L 240.3100 94.8721 L 238.9931 93.7913 L 238.2030 92.4197 L 237.9937 90.8507 L 238.3793 89.1912 L 239.3337 87.5545 L 240.7917 86.0519 L 242.6540 84.7859 L 244.7937 83.8428 L 247.0649 83.2868 L 249.3130 83.1559 L 251.3846 83.4589 L 253.1387 84.1752 L 254.4556 85.2560 L 255.2457 86.6277 L 255.4550 88.1967 L 255.0694 89.8561 L 254.1150 91.4929 L 252.6570 92.9955 L 250.7947 94.2615 L 248.6550 95.2046 Z"/>
    <path fill="none" stroke="#0066ff" stroke-opacity="0.3" stroke-width="0.5" d="M 257.7790 94.0487 L 255.4691 94.4121 L 253.2180 94.3538 L 251.1791 93.8780 L 249.4913 93.0169 L 248.2698 91.8294 L 247.5977 90.3963 L 247.5208 88.8152 L 248.0444 87.1940 L 249.1327 85.6431 L 250.7117 84.2683 L 252.6737 83.1631 L 254.8850 82.4029 L 257.1950 82.0395 L 259.4461 82.0978 L 261.4850 82.5736 L 263.1727 83.4347 L 264.3943 84.6222 L 265.0664 86.0553 L 265.1433 87.6364 L 264.6197 89.2576 L 263.5313 90.8085 L 261.9523 92.1834 L 259.9903 93.2885 L 257.7790 94.0487 Z"/>
    <path fill="none" stroke="#0066ff" stroke-opacity="0.3" stroke-width="0.5" d="M 270.1181 79.5822 L 267.7798 79.5816 L 265.5651 79.1737 L 263.6252 78.3862 L 262.0920 77.2730 L 261.0702 75.9098 L 260.6294 74.3895 L 260.7995 72.8157 L 261.5691 71.2958 L 262.8856 69.9332 L 264.6594 68.8209 L 266.7695 68.0346 L 269.0722 67.6279 L 271.4105 67.6286 L 273.6251 68.0365 L 275.5651 68.8239 L 277.0982 69.9372 L 278.1201 71.3004 L 278.5609 72.8207 L 278.3907 74.3944 L 277.6212 75.9144 L 276.3047 77.2769 L 274.5309 78.3893 L 272.4208 79.1756 L 270.1181 79.5822 Z"/>
    <path fill="none" stroke="#0066ff" stroke-opacity="0.3" stroke-width="0.5" d="M 285.5558 43.4812 L 283.2945 42.8858 L 281.2565 41.9279 L 279.5807 40.6729 L 278.3812 39.2063 L 277.7398 37.6280 L 277.7001 36.0456 L 278.2650 34.5669 L 279.3959 33.2927 L 281.0157 32.3099 L 283.0141 31.6853 L 285.2548 31.4617 L 287.5852 31.6541 L 289.8465 32.2496 L 291.8845 33.2074 L 293.5603 34.4624 L 294.7598 35.9291 L 295.4012 37.5074 L 295.4408 39.0898 L 294.8760 40.5685 L 293.7451 41.8426 L 292.1253 42.8255 L 290.1269 43.4500 L 287.8861 43.6737 L 285.5558 43.4812 Z"/>
    <path fill="none" stroke="#0066ff" stroke-opacity="0.3" stroke-width="0.5" d="M 297.9479 5.6382 L 295.8289 4.6493 L 293.9942 3.3437 L 292.5688 1.8102 L 291.6498 0.1533 L 291.2998 -1.5140 L 291.5428 -3.0782 L 292.3621 -4.4326 L 293.7019 -5.4849 L 295.4709 -6.1634 L 297.5486 -6.4219 L 299.7933 -6.2427 L 302.0521 -5.6382 L 304.1711 -4.6493 L 306.0058 -3.3437 L 307.4312 -1.8102 L 308.3502 -0.1533 L 308.7002 1.5140 L 308.4572 3.0782 L 307.6379 4.4326 L 306.2981 5.4849 L 304.5291 6.1634 L 302.4514 6.4219 L 300.2067 6.2427 L 297.9479 5.6382 Z"/>
  
  
  
</g>
</svg>