<svg xmlns="http://www.w3.org/2000/svg" width="334.9337" height="208.5090" viewBox="-16.1120 -99.9856 334.9337 208.5090">
  
  
  <path fill="black" stroke="none" fill-rule="evenodd" d="M -6.1120 1.2876 L -6.0571 2.4292 L -5.8986 3.5293 L -5.6392 4.5690 L -5.2833 5.5306 L -4.8370 6.3974 L -4.3079 7.1549 L -3.7051 7.7899 L -3.0389 8.2916 L -2.7160 8.4534 L -2.8681 9.4693 L -2.9384 10.6319 L -2.9038 11.7744 L -2.7648 12.8771 L -2.5239 13.9212 L -2.1850 14.8889 L -1.7542 15.7636 L -1.2386 16.5303 L -0.6471 17.1759 L 0.0100 17.6893 L 0.5560 17.9751 L 0.4203 18.7834 L 0.3294 19.9446 L 0.3438 21.0875 L 0.4632 22.1925 L 0.6856 23.2407 L 1.0072 24.2143 L 1.4225 25.0964 L 1.9244 25.8721 L 2.5043 26.5281 L 3.1523 27.0531 L 3.8573 27.4382 L 3.9308 27.4616 L 3.8219 28.0465 L 3.7104 29.2059 L 3.7045 30.3488 L 3.8043 31.4558 L 4.0081 32.5078 L 4.3124 33.4869 L 4.7121 34.3763 L 5.2001 35.1607 L 5.7683 35.8269 L 6.4069 36.3633 L 7.1049 36.7608 L 7.4522 36.8781 L 7.3737 37.2618 L 7.2416 38.4190 L 7.2155 39.5617 L 7.2957 40.6703 L 7.4808 41.7257 L 7.7677 42.7100 L 8.1515 43.6064 L 8.6256 44.3994 L 9.1819 45.0755 L 9.8108 45.6232 L 10.5017 46.0330 L 11.1432 46.2624 L 11.1138 46.3939 L 10.9613 47.5486 L 10.9149 48.6906 L 10.9754 49.8004 L 11.1418 50.8590 L 11.4112 51.8483 L 11.7790 52.7513 L 12.2390 53.5526 L 12.7832 54.2384 L 13.4024 54.7971 L 14.0859 55.2191 L 14.8221 55.4972 L 15.0973 55.5431 L 14.9419 56.5782 L 14.8752 57.7193 L 14.9160 58.8300 L 15.0636 59.8913 L 15.3155 60.8852 L 15.6673 61.7946 L 16.1129 62.6039 L 16.6449 63.2993 L 17.2541 63.8689 L 17.9300 64.3030 L 18.6611 64.5940 L 19.4050 64.7316 L 19.2854 65.4419 L 19.1986 66.5815 L 19.2197 67.6928 L 19.3485 68.7566 L 19.5827 69.7548 L 19.9183 70.6702 L 20.3495 71.4873 L 20.8691 72.1921 L 21.4681 72.7724 L 22.1362 73.2183 L 22.8620 73.5223 L 23.6332 73.6791 L 24.2341 73.6843 L 24.1722 74.0159 L 24.0652 75.1539 L 24.0666 76.2653 L 24.1765 77.3312 L 24.3930 78.3334 L 24.7123 79.2547 L 25.1290 80.0793 L 25.6360 80.7931 L 26.2246 81.3840 L 26.8847 81.8417 L 27.6050 82.1585 L 28.3733 82.3290 L 29.1763 82.3501 L 29.9374 82.2315 L 29.8352 83.1444 L 29.8169 84.2557 L 29.9079 85.3234 L 30.1065 86.3293 L 30.4095 87.2560 L 30.8115 88.0879 L 31.3058 88.8106 L 31.8838 89.4118 L 32.5357 89.8812 L 33.2503 90.2107 L 34.0154 90.3947 L 34.8179 90.4302 L 35.6441 90.3163 L 36.4798 90.0552 L 37.2733 89.6695 L 37.2394 90.6597 L 37.3115 91.7289 L 37.4923 92.7381 L 37.7787 93.6701 L 38.1660 94.5089 L 38.6473 95.2403 L 39.2146 95.8516 L 39.8581 96.3325 L 40.5667 96.6746 L 41.3285 96.8722 L 42.1302 96.9218 L 42.9583 96.8227 L 43.7985 96.5764 L 44.6365 96.1873 L 45.4579 95.6619 L 46.2487 95.0094 L 46.9953 94.2407 L 47.0806 94.1329 L 47.2908 94.8627 L 47.6631 95.7083 L 48.1315 96.4481 L 48.6878 97.0694 L 49.3227 97.5615 L 50.0252 97.9162 L 50.7833 98.1272 L 51.5840 98.1911 L 52.4137 98.1066 L 53.2581 97.8753 L 54.1029 97.5011 L 54.9335 96.9904 L 55.7357 96.3519 L 56.4958 95.5966 L 57.2009 94.7374 L 57.8387 93.7890 L 58.3985 92.7676 L 58.4784 92.5853 L 58.9065 92.7127 L 59.7060 92.7907 L 60.5371 92.7210 L 61.3855 92.5046 L 62.2367 92.1455 L 63.0762 91.6496 L 63.8896 91.0254 L 64.6630 90.2837 L 65.3832 89.4371 L 66.0378 88.5002 L 66.6156 87.4888 L 67.1067 86.4205 L 67.5028 85.3133 L 67.6738 84.6585 L 68.3367 84.3926 L 69.1849 83.9116 L 70.0092 83.3020 L 70.7956 82.5741 L 71.5307 81.7404 L 72.2018 80.8152 L 72.7974 79.8143 L 73.3074 78.7548 L 73.7231 77.6549 L 74.0373 76.5333 L 74.2446 75.4093 L 74.2494 75.3541 L 75.0286 74.7990 L 75.8278 74.0852 L 76.5775 73.2646 L 77.2649 72.3515 L 77.8782 71.3613 L 78.4069 70.3110 L 78.8420 69.2186 L 79.1760 68.1028 L 79.4032 66.9826 L 79.5198 65.8773 L 79.5199 65.8519 L 80.2208 65.2479 L 80.9850 64.4408 L 81.6884 63.5399 L 82.3192 62.5607 L 82.8664 61.5200 L 83.3208 60.4355 L 83.6746 59.3257 L 83.9216 58.2098 L 84.0577 57.1067 L 84.0747 56.3122 L 84.2089 56.2007 L 84.9872 55.4072 L 85.7065 54.5190 L 86.3545 53.5512 L 86.9201 52.5203 L 87.3937 51.4440 L 87.7670 50.3407 L 88.0338 49.2293 L 88.1895 48.1288 L 88.2314 47.0581 L 88.2088 46.7404 L 88.6993 46.2579 L 89.4342 45.3825 L 90.0993 44.4263 L 90.6831 43.4056 L 91.1756 42.3379 L 91.5685 41.2414 L 91.8549 40.1349 L 92.0301 39.0373 L 92.0909 37.9675 L 92.0483 37.1675 L 92.2022 37.0213 L 92.9526 36.1591 L 93.6345 35.2148 L 94.2363 34.2047 L 94.7477 33.1458 L 95.1599 32.0565 L 95.4659 30.9552 L 95.6605 29.8609 L 95.7403 28.7923 L 95.7039 27.7677 L 95.6737 27.5760 L 96.3138 26.8663 L 97.0123 25.9343 L 97.6319 24.9349 L 98.1620 23.8853 L 98.5935 22.8034 L 98.9190 21.7078 L 99.1329 20.6171 L 99.2316 19.5501 L 99.2135 18.5250 L 99.1363 17.9719 L 99.5482 17.5311 L 100.2631 16.6116 L 100.9003 15.6234 L 101.4489 14.5834 L 101.8995 13.5093 L 102.2444 12.4196 L 102.4776 11.3329 L 102.5952 10.2678 L 102.5952 9.2425 L 102.4885 8.3645 L 102.6802 8.1665 L 103.4114 7.2598 L 104.0660 6.2831 L 104.6329 5.2529 L 105.1025 4.1870 L 105.4666 3.1036 L 105.7191 2.0212 L 105.8556 0.9583 L 105.8737 -0.0668 L 105.7733 -1.0366 L 105.7327 -1.2041 L 105.7743 -1.2455 L 106.5213 -2.1391 L 107.1932 -3.1041 L 107.7783 -4.1241 L 108.2667 -5.1815 L 108.6499 -6.2583 L 108.9215 -7.3360 L 109.0768 -8.3963 L 109.1132 -9.4209 L 109.0299 -10.3924 L 108.8285 -11.2941 L 108.5124 -12.1106 L 108.0870 -12.8279 L 107.5595 -13.4338 L 106.9390 -13.9178 L 106.2362 -14.2717 L 105.4630 -14.4895 L 104.6327 -14.5674 L 103.7594 -14.5041 L 102.8582 -14.3006 L 101.9444 -13.9605 L 101.0336 -13.4896 L 100.1416 -12.8959 L 99.2834 -12.1896 L 98.4739 -11.3827 L 97.7268 -10.4891 L 97.0549 -9.5241 L 96.4698 -8.5042 L 95.9815 -7.4467 L 95.5982 -6.3700 L 95.3266 -5.2922 L 95.1713 -4.2319 L 95.1350 -3.2073 L 95.2182 -2.2358 L 95.2869 -1.9281 L 95.2013 -1.8397 L 94.4702 -0.9330 L 93.8156 0.0438 L 93.2486 1.0739 L 92.7791 2.1398 L 92.4149 3.2233 L 92.1625 4.3057 L 92.0260 5.3685 L 92.0078 6.3936 L 92.1083 7.3635 L 92.1209 7.4154 L 91.8931 7.6591 L 91.1781 8.5786 L 90.5409 9.5668 L 89.9923 10.6069 L 89.5417 11.6809 L 89.1969 12.7706 L 88.9636 13.8573 L 88.8460 14.9224 L 88.8460 15.9477 L 88.9299 16.6381 L 88.4849 17.1315 L 87.7864 18.0635 L 87.1668 19.0629 L 86.6367 20.1125 L 86.2052 21.1944 L 85.8797 22.2900 L 85.6658 23.3807 L 85.5671 24.4477 L 85.5853 25.4728 L 85.6291 25.7870 L 84.9524 26.5646 L 84.2705 27.5089 L 83.6687 28.5191 L 83.1573 29.5779 L 82.7451 30.6672 L 82.4391 31.7685 L 82.2445 32.8628 L 82.1647 33.9314 L 82.1977 34.8616 L 82.0002 35.0560 L 81.2652 35.9313 L 80.6002 36.8875 L 80.0164 37.9082 L 79.5238 38.9760 L 79.1310 40.0724 L 78.8445 41.1789 L 78.6694 42.2765 L 78.6085 43.3463 L 78.6313 43.7746 L 78.0906 44.3259 L 77.3713 45.2141 L 76.7233 46.1819 L 76.1577 47.2128 L 75.6841 48.2891 L 75.3108 49.3924 L 75.0440 50.5038 L 74.8883 51.6043 L 74.8530 52.5075 L 74.6572 52.6763 L 73.8930 53.4834 L 73.1896 54.3842 L 72.5588 55.3634 L 72.0116 56.4041 L 71.5572 57.4886 L 71.2034 58.5984 L 70.9564 59.7143 L 70.8203 60.8174 L 70.8180 60.9211 L 70.0422 61.6141 L 69.2925 62.4347 L 68.6051 63.3478 L 67.9918 64.3380 L 67.4631 65.3883 L 67.0280 66.4807 L 66.6940 67.5965 L 66.4667 68.7167 L 66.4537 68.8400 L 66.4006 68.8701 L 65.5763 69.4797 L 64.7898 70.2076 L 64.0548 71.0413 L 63.3837 71.9665 L 62.7881 72.9674 L 62.2781 74.0269 L 61.8624 75.1268 L 61.6666 75.8257 L 60.8653 76.1638 L 60.0258 76.6597 L 59.2124 77.2839 L 58.4390 78.0256 L 57.7188 78.8722 L 57.0643 79.8091 L 56.4864 80.8204 L 56.3643 81.0861 L 55.7681 80.9201 L 54.9673 80.8563 L 54.1376 80.9407 L 53.2932 81.1720 L 52.4484 81.5463 L 51.6178 82.0570 L 50.8156 82.6954 L 50.0555 83.4507 L 49.8426 83.7101 L 49.5572 82.7815 L 49.1700 81.9427 L 48.6886 81.2113 L 48.1213 80.6000 L 47.4779 80.1191 L 46.7692 79.7770 L 46.0075 79.5794 L 45.2057 79.5298 L 44.3777 79.6289 L 43.5375 79.8752 L 42.6995 80.2643 L 42.5582 80.3547 L 42.5674 80.2721 L 42.5857 79.1608 L 42.4947 78.0931 L 42.2961 77.0872 L 41.9931 76.1604 L 41.5911 75.3286 L 41.0968 74.6059 L 40.5188 74.0047 L 39.8669 73.5353 L 39.1523 73.2058 L 38.3872 73.0217 L 37.5847 72.9863 L 36.7585 73.1001 L 36.6429 73.1362 L 36.7445 72.0563 L 36.7431 70.9448 L 36.6332 69.8789 L 36.4167 68.8767 L 36.0974 67.9555 L 35.6807 67.1309 L 35.1737 66.4170 L 34.5851 65.8262 L 33.9250 65.3685 L 33.2047 65.0517 L 32.4364 64.8812 L 31.6565 64.8606 L 31.7342 64.3994 L 31.8210 63.2597 L 31.7999 62.1485 L 31.6711 61.0847 L 31.4369 60.0865 L 31.1013 59.1710 L 30.6701 58.3539 L 30.1505 57.6492 L 29.5515 57.0689 L 28.8834 56.6229 L 28.1576 56.3189 L 27.3864 56.1621 L 27.2432 56.1609 L 27.3702 55.3152 L 27.4368 54.1742 L 27.3960 53.0635 L 27.2484 52.0022 L 26.9965 51.0083 L 26.6448 50.0989 L 26.1991 49.2896 L 25.6671 48.5942 L 25.0579 48.0246 L 24.3820 47.5905 L 23.6509 47.2995 L 23.2130 47.2185 L 23.3653 46.0655 L 23.4117 44.9235 L 23.3511 43.8137 L 23.1848 42.7551 L 22.9153 41.7659 L 22.5475 40.8629 L 22.0876 40.0616 L 21.5433 39.3757 L 20.9242 38.8170 L 20.2407 38.3950 L 19.5045 38.1169 L 19.4378 38.1058 L 19.4853 37.8736 L 19.6174 36.7163 L 19.6435 35.5737 L 19.5633 34.4651 L 19.3782 33.4096 L 19.0913 32.4253 L 18.7075 31.5290 L 18.2334 30.7360 L 17.6772 30.0599 L 17.0482 29.5122 L 16.3573 29.1024 L 15.8534 28.9222 L 15.9425 28.4435 L 16.0540 27.2841 L 16.0599 26.1411 L 15.9601 25.0342 L 15.7563 23.9821 L 15.4520 23.0031 L 15.0524 22.1137 L 14.5643 21.3292 L 13.9961 20.6630 L 13.3576 20.1266 L 12.6595 19.7291 L 12.4309 19.6519 L 12.5461 18.9655 L 12.6370 17.8043 L 12.6226 16.6614 L 12.5032 15.5564 L 12.2808 14.5082 L 11.9592 13.5346 L 11.5439 12.6525 L 11.0420 11.8768 L 10.4621 11.2208 L 9.8141 10.6958 L 9.1267 10.3203 L 9.2590 9.4364 L 9.3293 8.2738 L 9.2947 7.1314 L 9.1557 6.0287 L 8.9147 4.9845 L 8.5759 4.0168 L 8.1450 3.1422 L 7.6295 2.3755 L 7.0380 1.7299 L 6.3808 1.2164 L 5.9178 0.9741 L 6.0623 -0.1239 L 6.1120 -1.2876 L 6.0571 -2.4292 L 5.8986 -3.5293 L 5.6392 -4.5690 L 5.2833 -5.5306 L 4.8370 -6.3974 L 4.3079 -7.1549 L 3.7051 -7.7899 L 3.0389 -8.2916 L 2.3207 -8.6514 L 1.5628 -8.8633 L 0.7782 -8.9234 L -0.0197 -8.8309 L -0.8173 -8.5873 L -1.6010 -8.1968 L -2.3572 -7.6660 L -3.0731 -7.0040 L -3.7364 -6.2222 L -4.3358 -5.3339 L -4.8610 -4.3544 L -5.3030 -3.3004 L -5.6543 -2.1899 L -5.9088 -1.0419 L -6.0623 0.1239 L -6.1120 1.2876 Z"/>
  <g id="debug">
  
  <path fill="none" stroke="#ff3366" stroke-opacity="0.6" stroke-width="0.5" d="M 0 0 L 1.5095 4.4993 L 3.0002 8.8832 L 4.4726 13.1517 L 5.9273 17.3049 L 7.3647 21.3427 L 8.7853 25.2652 L 10.1897 29.0723 L 11.5782 32.7640 L 12.9513 36.3403 L 14.3096 39.8013 L 15.6536 43.1469 L 16.9836 46.3772 L 18.3003 49.4921 L 19.6041 52.4916 L 20.8955 55.3757 L 22.1750 58.1445 L 23.4430 60.7979 L 24.7000 63.3360 L 25.9466 65.7587 L 27.1832 68.0660 L 28.4104 70.2580 L 29.6285 72.3346 L 30.8381 74.2958 L 32.0397 76.1416 L 33.2337 77.8721 L 34.4206 79.4873 L 35.6010 80.9870 L 36.7753 82.3714 L 37.9441 83.6404 L 39.1077 84.7941 L 40.2666 85.8324 L 41.4215 86.7553 L 42.5727 87.5629 L 43.7207 88.2551 L 44.8660 88.8319 L 46.0092 89.2934 L 47.1506 89.6395 L 48.2909 89.8702 L 49.4304 89.9856 L 50.5696 89.9856 L 51.7091 89.8702 L 52.8494 89.6395 L 53.9908 89.2934 L 55.1340 88.8319 L 56.2793 88.2551 L 57.4273 87.5629 L 58.5785 86.7553 L 59.7334 85.8324 L 60.8923 84.7941 L 62.0559 83.6404 L 63.2247 82.3714 L 64.3990 80.9870 L 65.5794 79.4873 L 66.7663 77.8721 L 67.9603 76.1416 L 69.1619 74.2958 L 70.3715 72.3346 L 71.5896 70.2580 L 72.8168 68.0660 L 74.0534 65.7587 L 75.3000 63.3360 L 76.5570 60.7979 L 77.8250 58.1445 L 79.1045 55.3757 L 80.3959 52.4916 L 81.6997 49.4921 L 83.0164 46.3772 L 84.3464 43.1469 L 85.6904 39.8013 L 87.0487 36.3403 L 88.4218 32.7640 L 89.8103 29.0723 L 91.2147 25.2652 L 92.6353 21.3427 L 94.0727 17.3049 L 95.5274 13.1517 L 96.9998 8.8832 L 98.4905 4.4993 L 100.0000 0 L 100.0000 0 L 101.5095 -4.4993 L 103.0002 -8.8832 L 104.4726 -13.1517 L 105.9273 -17.3049 L 107.3647 -21.3427 L 108.7853 -25.2652 L 110.1897 -29.0723 L 111.5782 -32.7640 L 112.9513 -36.3403 L 114.3096 -39.8013 L 115.6536 -43.1469 L 116.9836 -46.3772 L 118.3003 -49.4921 L 119.6041 -52.4916 L 120.8955 -55.3757 L 122.1750 -58.1445 L 123.4430 -60.7979 L 124.7000 -63.3360 L 125.9466 -65.7587 L 127.1832 -68.0660 L 128.4104 -70.2580 L 129.6285 -72.3346 L 130.8381 -74.2958 L 132.0397 -76.1416 L 133.2337 -77.8721 L 134.4206 -79.4873 L 135.6010 -80.9870 L 136.7753 -82.3714 L 137.9441 -83.6404 L 139.1077 -84.7941 L 140.2666 -85.8324 L 141.4215 -86.7553 L 142.5727 -87.5629 L 143.7207 -88.2551 L 144.8660 -88.8319 L 146.0092 -89.2934 L 147.1506 -89.6395 L 148.2909 -89.8702 L 149.4304 -89.9856 L 150.5696 -89.9856 L 151.7091 -89.8702 L 152.8494 -89.6395 L 153.9908 -89.2934 L 155.1340 -88.8319 L 156.2793 -88.2551 L 157.4273 -87.5629 L 158.5785 -86.7553 L 159.7334 -85.8324 L 160.8923 -84.7941 L 162.0559 -83.6404 L 163.2247 -82.3714 L 164.3990 -80.9870 L 165.5794 -79.4873 L 166.7663 -77.8721 L 167.9603 -76.1416 L 169.1619 -74.2958 L 170.3715 -72.3346 L 171.5896 -70.2580 L 172.8168 -68.0660 L 174.0534 -65.7587 L 175.3000 -63.3360 L 176.5570 -60.7979 L 177.8250 -58.1445 L 179.1045 -55.3757 L 180.3959 -52.4916 L 181.6997 -49.4921 L 183.0164 -46.3772 L 184.3464 -43.1469 L 185.6904 -39.8013 L 187.0487 -36.3403 L 188.4218 -32.7640 L 189.8103 -29.0723 L 191.2147 -25.2652 L 192.6353 -21.3427 L 194.0727 -17.3049 L 195.5274 -13.1517 L 196.9998 -8.8832 L 198.4905 -4.4993 L 200.0000 0 L 200.0000 0 L 201.5095 4.4993 L 203.0002 8.8832 L 204.4726 13.1517 L 205.9273 17.3049 L 207.3647 21.3427 L 208.7853 25.2652 L 210.1897 29.0723 L 211.5782 32.7640 L 212.9513 36.3403 L 214.3096 39.8013 L 215.6536 43.1469 L 216.9836 46.3772 L 218.3003 49.4921 L 219.6041 52.4916 L 220.8955 55.3757 L 222.1750 58.1445 L 223.4430 60.7979 L 224.7000 63.3360 L 225.9466 65.7587 L 227.1832 68.0660 L 228.4104 70.2580 L 229.6285 72.3346 L 230.8381 74.2958 L 232.0397 76.1416 L 233.2337 77.8721 L 234.4206 79.4873 L 235.6010 80.9870 L 236.7753 82.3714 L 237.9441 83.6404 L 239.1077 84.7941 L 240.2666 85.8324 L 241.4215 86.7553 L 242.5727 87.5629 L 243.7207 88.2551 L 244.8660 88.8319 L 246.0092 89.2934 L 247.1506 89.6395 L 248.2909 89.8702 L 249.4304 89.9856 L 250.5696 89.9856 L 251.7091 89.8702 L 252.8494 89.6395 L 253.9908 89.2934 L 255.1340 88.8319 L 256.2793 88.2551 L 257.4273 87.5629 L 258.5785 86.7553 L 259.7334 85.8324 L 260.8923 84.7941 L 262.0559 83.6404 L 263.2247 82.3714 L 264.3990 80.9870 L 265.5794 79.4873 L 266.7663 77.8721 L 267.9603 76.1416 L 269.1619 74.2958 L 270.3715 72.3346 L 271.5896 70.2580 L 272.8168 68.0660 L 274.0534 65.7587 L 275.3000 63.3360 L 276.5570 60.7979 L 277.8250 58.1445 L 279.1045 55.3757 L 280.3959 52.4916 L 281.6997 49.4921 L 283.0164 46.3772 L 284.3464 43.1469 L 285.6904 39.8013 L 287.0487 36.3403 L 288.4218 32.7640 L 289.8103 29.0723 L 291.2147 25.2652 L 292.6353 21.3427 L 294.0727 17.3049 L 295.5274 13.1517 L 296.9998 8.8832 L 298.4905 4.4993 L 300.0000 0"/>
  <path fill="none" stroke="#ff9900" stroke-opacity="0.6" stroke-width="0.6" d=""/>
  <path fill="none" stroke="#222222" stroke-opacity="0.7" stroke-width="0.6" d=""/>
  <path fill="none" stroke="#00aaff" stroke-opacity="0.6" stroke-width="0.6" d=""/>
  <circle cx="0" cy="0" r="0.6000" fill="#222222" fill-opacity="0.5"/>
    <circle cx="3.1954" cy="9.4529" r="0.6000" fill="#222222" fill-opacity="0.5"/>
    <circle cx="6.4832" cy="18.8744" r="0.6000" fill="#222222" fill-opacity="0.5"/>
    <circle cx="9.8822" cy="28.2450" r="0.6000" fill="#222222" fill-opacity="0.5"/>
    <circle cx="13.4295" cy="37.5677" r="0.6000" fill="#222222" fill-opacity="0.5"/>
    <circle cx="17.1633" cy="46.8071" r="0.6000" fill="#222222" fill-opacity="0.5"/>
    <circle cx="21.1560" cy="55.9467" r="0.6000" fill="#222222" fill-opacity="0.5"/>
    <circle cx="25.5098" cy="64.9206" r="0.6000" fill="#222222" fill-opacity="0.5"/>
    <circle cx="30.4049" cy="73.6051" r="0.6000" fill="#222222" fill-opacity="0.5"/>
    <circle cx="36.2013" cy="81.7082" r="0.6000" fill="#222222" fill-opacity="0.5"/>
    <circle cx="43.6680" cy="88.2258" r="0.6000" fill="#222222" fill-opacity="0.5"/>
    <circle cx="53.2757" cy="89.5237" r="0.6000" fill="#222222" fill-opacity="0.5"/>
    <circle cx="61.5510" cy="84.1546" r="0.6000" fill="#222222" fill-opacity="0.5"/>
    <circle cx="67.7927" cy="76.3909" r="0.6000" fill="#222222" fill-opacity="0.5"/>
    <circle cx="72.9350" cy="67.8496" r="0.6000" fill="#222222" fill-opacity="0.5"/>
    <circle cx="77.4390" cy="58.9621" r="0.6000" fill="#222222" fill-opacity="0.5"/>
    <circle cx="81.5389" cy="49.8666" r="0.6000" fill="#222222" fill-opacity="0.5"/>
    <circle cx="85.3497" cy="40.6569" r="0.6000" fill="#222222" fill-opacity="0.5"/>
    <circle cx="88.9525" cy="31.3619" r="0.6000" fill="#222222" fill-opacity="0.5"/>
    <circle cx="92.3994" cy="21.9989" r="0.6000" fill="#222222" fill-opacity="0.5"/>
    <circle cx="95.7206" cy="12.5951" r="0.6000" fill="#222222" fill-opacity="0.5"/>
    <circle cx="98.9408" cy="3.1634" r="0.6000" fill="#222222" fill-opacity="0.5"/>
    <circle cx="102.1241" cy="-6.3141" r="0.6000" fill="#222222" fill-opacity="0.5"/>
    <circle cx="300.0000" cy="0" r="0.6000" fill="#222222" fill-opacity="0.5"/>
  
  
  
  
  <path fill="none" stroke="#8844ff" stroke-opacity="0.35" stroke-width="0.6" d="M -1.5628 8.8633 L 1.4758 18.2871 L 4.6072 27.6767 L 7.8505 37.0126 L 11.2427 46.2980 L 14.8221 55.4972 L 18.6611 64.5940 L 22.8620 73.5223 L 27.6050 82.1585 L 33.2503 90.2107 L 40.5667 96.6746 L 52.0708 98.4427 L 52.7064 98.5057 L 53.3448 98.5234 L 53.9829 98.4958 L 54.6175 98.4231 L 55.2452 98.3055 L 55.8631 98.1437 L 56.4679 97.9385 L 57.0567 97.6909 L 57.6264 97.4022 L 58.1742 97.0738 L 58.1523 92.4882 L 64.2468 84.6629 L 69.2430 76.0575 L 73.6021 67.1032 L 77.5583 57.9384 L 81.2267 48.6570 L 84.6883 39.2875 L 87.9953 29.8478 L 91.1782 20.3647 L 107.4580 6.0714 L 107.4595 6.0671 L 107.4609 6.0629 L 107.4624 6.0587 L 107.4638 6.0544 L 107.4652 6.0502 L 107.4667 6.0460 L 107.4681 6.0417 L 107.4695 6.0375 L 107.4710 6.0332 L 107.4724 6.0290 L 110.6557 -3.4485 L 110.2206 -2.3840 L 109.6534 -1.3836 L 108.9632 -0.4638 L 108.1613 0.3606 L 107.2609 1.0759 L 106.2766 1.6707 L 105.2245 2.1350 L 104.1218 2.4614 L 102.9864 2.6445 L 101.8370 2.6813 L 291.3067 2.3294 L 308.6933 -2.3294 L 102.4111 -15.3095 L 101.2617 -15.2727 L 100.1264 -15.0896 L 99.0236 -14.7632 L 97.9715 -14.2989 L 96.9872 -13.7042 L 96.0868 -12.9888 L 95.2850 -12.1645 L 94.5948 -11.2446 L 94.0275 -10.2442 L 93.5924 -9.1797 L 90.4092 0.2979 L 90.4106 0.2936 L 90.4120 0.2894 L 90.4134 0.2851 L 90.4149 0.2809 L 90.4163 0.2767 L 90.4177 0.2724 L 90.4192 0.2682 L 90.4206 0.2639 L 90.4221 0.2597 L 90.4235 0.2555 L 100.2631 4.8255 L 96.8034 14.1500 L 93.2167 23.4362 L 89.4728 32.6569 L 85.5195 41.7947 L 81.2759 50.8209 L 76.6270 59.6418 L 71.3387 68.1188 L 64.9498 75.8211 L 48.3771 81.9735 L 48.9249 81.6451 L 49.4946 81.3564 L 50.0834 81.1088 L 50.6882 80.9036 L 51.3061 80.7418 L 51.9339 80.6243 L 52.5684 80.5515 L 53.2065 80.5239 L 53.8449 80.5417 L 54.4805 80.6047 L 46.7692 79.7770 L 39.1523 73.2058 L 33.2047 65.0517 L 28.1576 56.3189 L 23.6509 47.2995 L 19.5045 38.1169 L 15.6163 28.8374 L 11.9140 19.4773 L 8.3592 10.0721 L 4.9151 0.6187 L 1.5628 -8.8633 L -1.5628 8.8633 Z"/>
  <path fill="none" stroke="#0066ff" stroke-opacity="0.3" stroke-width="0.5" d="M 5.9088 1.0419 L 5.6543 2.1899 L 5.3030 3.3004 L 4.8610 4.3544 L 4.3358 5.3339 L 3.7364 6.2222 L 3.0731 7.0040 L 2.3572 7.6660 L 1.6010 8.1968 L 0.8173 8.5873 L 0.0197 8.8309 L -0.7782 8.9234 L -1.5628 8.8633 L -2.3207 8.6514 L -3.0389 8.2916 L -3.7051 7.7899 L -4.3079 7.1549 L -4.8370 6.3974 L -5.2833 5.5306 L -5.6392 4.5690 L -5.8986 3.5293 L -6.0571 2.4292 L -6.1120 1.2876 L -6.0623 0.1239 L -5.9088 -1.0419 L -5.6543 -2.1899 L -5.3030 -3.3004 L -4.8610 -4.3544 L -4.3358 -5.3339 L -3.7364 -6.2222 L -3.0731 -7.0040 L -2.3572 -7.6660 L -1.6010 -8.1968 L -0.8173 -8.5873 L -0.0197 -8.8309 L 0.7782 -8.9234 L 1.5628 -8.8633 L 2.3207 -8.6514 L 3.0389 -8.2916 L 3.7051 -7.7899 L 4.3079 -7.1549 L 4.8370 -6.3974 L 5.2833 -5.5306 L 5.6392 -4.5690 L 5.8986 -3.5293 L 6.0571 -2.4292 L 6.1120 -1.2876 L 6.0623 -0.1239 L 5.9088 1.0419 Z"/>
    <path fill="none" stroke="#0066ff" stroke-opacity="0.3" stroke-width="0.5" d="M 9.0849 10.5993 L 8.8100 11.7426 L 8.4391 12.8467 L 7.9785 13.8928 L 7.4360 14.8628 L 6.8210 15.7403 L 6.1439 16.5103 L 5.4164 17.1594 L 4.6509 17.6767 L 3.8605 18.0533 L 3.0587 18.2828 L 2.2592 18.3611 L 1.4758 18.2871 L 0.7217 18.0618 L 0.0100 17.6893 L -0.6471 17.1759 L -1.2386 16.5303 L -1.7542 15.7636 L -2.1850 14.8889 L -2.5239 13.9212 L -2.7648 12.8771 L -2.9038 11.7744 L -2.9384 10.6319 L -2.8681 9.4693 L -2.6940 8.3064 L -2.4192 7.1631 L -2.0482 6.0590 L -1.5876 5.0130 L -1.0451 4.0429 L -0.4301 3.1654 L 0.2470 2.3955 L 0.9745 1.7463 L 1.7400 1.2290 L 2.5304 0.8524 L 3.3322 0.6230 L 4.1317 0.5446 L 4.9151 0.6187 L 5.6691 0.8439 L 6.3808 1.2164 L 7.0380 1.7299 L 7.6295 2.3755 L 8.1450 3.1422 L 8.5759 4.0168 L 8.9147 4.9845 L 9.1557 6.0287 L 9.2947 7.1314 L 9.3293 8.2738 L 9.2590 9.4364 L 9.0849 10.5993 Z"/>
    <path fill="none" stroke="#0066ff" stroke-opacity="0.3" stroke-width="0.5" d="M 12.3514 20.1251 L 12.0563 21.2633 L 11.6659 22.3607 L 11.1868 23.3984 L 10.6272 24.3587 L 9.9967 25.2252 L 9.3061 25.9830 L 8.5672 26.6191 L 7.7926 27.1228 L 6.9957 27.4853 L 6.1899 27.7005 L 5.3892 27.7647 L 4.6072 27.6767 L 3.8573 27.4382 L 3.1523 27.0531 L 2.5043 26.5281 L 1.9244 25.8721 L 1.4225 25.0964 L 1.0072 24.2143 L 0.6856 23.2407 L 0.4632 22.1925 L 0.3438 21.0875 L 0.3294 19.9446 L 0.4203 18.7834 L 0.6150 17.6238 L 0.9101 16.4855 L 1.3005 15.3882 L 1.7796 14.3505 L 2.3392 13.3902 L 2.9697 12.5237 L 3.6603 11.7659 L 4.3992 11.1297 L 5.1738 10.6261 L 5.9707 10.2636 L 6.7765 10.0484 L 7.5772 9.9842 L 8.3592 10.0721 L 9.1091 10.3107 L 9.8141 10.6958 L 10.4621 11.2208 L 11.0420 11.8768 L 11.5439 12.6525 L 11.9592 13.5346 L 12.2808 14.5082 L 12.5032 15.5564 L 12.6226 16.6614 L 12.6370 17.8043 L 12.5461 18.9655 L 12.3514 20.1251 Z"/>
    <path fill="none" stroke="#0066ff" stroke-opacity="0.3" stroke-width="0.5" d="M 15.7273 29.5995 L 15.4121 30.7323 L 15.0023 31.8225 L 14.5049 32.8516 L 13.9284 33.8018 L 13.2826 34.6570 L 12.5787 35.4024 L 11.8286 36.0254 L 11.0452 36.5152 L 10.2420 36.8636 L 9.4325 37.0645 L 8.6308 37.1144 L 7.8505 37.0126 L 7.1049 36.7608 L 6.4069 36.3633 L 5.7683 35.8269 L 5.2001 35.1607 L 4.7121 34.3763 L 4.3124 33.4869 L 4.0081 32.5078 L 3.8043 31.4558 L 3.7045 30.3488 L 3.7104 29.2059 L 3.8219 28.0465 L 4.0371 26.8905 L 4.3523 25.7577 L 4.7621 24.6674 L 5.2596 23.6383 L 5.8361 22.6881 L 6.4818 21.8330 L 7.1858 21.0875 L 7.9358 20.4645 L 8.7192 19.9747 L 9.5225 19.6264 L 10.3319 19.4255 L 11.1336 19.3755 L 11.9140 19.4773 L 12.6595 19.7291 L 13.3576 20.1266 L 13.9961 20.6630 L 14.5643 21.3292 L 15.0524 22.1137 L 15.4520 23.0031 L 15.7563 23.9821 L 15.9601 25.0342 L 16.0599 26.1411 L 16.0540 27.2841 L 15.9425 28.4435 L 15.7273 29.5995 Z"/>
    <path fill="none" stroke="#0066ff" stroke-opacity="0.3" stroke-width="0.5" d="M 19.2497 39.0256 L 18.9145 40.1526 L 18.4854 41.2354 L 17.9698 42.2555 L 17.3765 43.1954 L 16.7157 44.0390 L 15.9987 44.7718 L 15.2377 45.3814 L 14.4458 45.8573 L 13.6364 46.1913 L 12.8236 46.3778 L 12.0211 46.4136 L 11.2427 46.2980 L 10.5017 46.0330 L 9.8108 45.6232 L 9.1819 45.0755 L 8.6256 44.3994 L 8.1515 43.6064 L 7.7677 42.7100 L 7.4808 41.7257 L 7.2957 40.6703 L 7.2155 39.5617 L 7.2416 38.4190 L 7.3737 37.2618 L 7.6093 36.1098 L 7.9446 34.9827 L 8.3736 33.8999 L 8.8892 32.8798 L 9.4825 31.9400 L 10.1433 31.0964 L 10.8603 30.3636 L 11.6213 29.7540 L 12.4133 29.2781 L 13.2226 28.9440 L 14.0354 28.7575 L 14.8379 28.7218 L 15.6163 28.8374 L 16.3573 29.1024 L 17.0482 29.5122 L 17.6772 30.0599 L 18.2334 30.7360 L 18.7075 31.5290 L 19.0913 32.4253 L 19.3782 33.4096 L 19.5633 34.4651 L 19.6435 35.5737 L 19.6174 36.7163 L 19.4853 37.8736 L 19.2497 39.0256 Z"/>
    <path fill="none" stroke="#0066ff" stroke-opacity="0.3" stroke-width="0.5" d="M 22.9567 48.3679 L 22.6016 49.4888 L 22.1533 50.5639 L 21.6198 51.5747 L 21.0099 52.5039 L 20.3343 53.3356 L 19.6044 54.0556 L 18.8327 54.6516 L 18.0324 55.1134 L 17.2173 55.4330 L 16.4013 55.6051 L 15.5983 55.6266 L 14.8221 55.4972 L 14.0859 55.2191 L 13.4024 54.7971 L 12.7832 54.2384 L 12.2390 53.5526 L 11.7790 52.7513 L 11.4112 51.8483 L 11.1418 50.8590 L 10.9754 49.8004 L 10.9149 48.6906 L 10.9613 47.5486 L 11.1138 46.3939 L 11.3698 45.2463 L 11.7250 44.1253 L 12.1732 43.0503 L 12.7068 42.0395 L 13.3166 41.1103 L 13.9923 40.2786 L 14.7222 39.5585 L 15.4939 38.9626 L 16.2941 38.5008 L 17.1092 38.1811 L 17.9253 38.0091 L 18.7283 37.9875 L 19.5045 38.1169 L 20.2407 38.3950 L 20.9242 38.8170 L 21.5433 39.3757 L 22.0876 40.0616 L 22.5475 40.8629 L 22.9153 41.7659 L 23.1848 42.7551 L 23.3511 43.8137 L 23.4117 44.9235 L 23.3653 46.0655 L 23.2127 47.2202 L 22.9567 48.3679 Z"/>
    <path fill="none" stroke="#0066ff" stroke-opacity="0.3" stroke-width="0.5" d="M 26.9209 57.6100 L 26.5459 58.7245 L 26.0787 59.7914 L 25.5273 60.7926 L 24.9011 61.7108 L 24.2108 62.5304 L 23.4682 63.2374 L 22.6861 63.8196 L 21.8778 64.2671 L 21.0571 64.5723 L 20.2382 64.7299 L 19.4349 64.7371 L 18.6611 64.5940 L 17.9300 64.3030 L 17.2541 63.8689 L 16.6449 63.2993 L 16.1129 62.6039 L 15.6673 61.7946 L 15.3155 60.8852 L 15.0636 59.8913 L 14.9160 58.8300 L 14.8752 57.7193 L 14.9419 56.5782 L 15.1148 55.4264 L 15.3911 54.2835 L 15.7661 53.1690 L 16.2333 52.1021 L 16.7847 51.1009 L 17.4109 50.1827 L 18.1012 49.3631 L 18.8438 48.6561 L 19.6259 48.0739 L 20.4342 47.6263 L 21.2549 47.3212 L 22.0738 47.1636 L 22.8771 47.1563 L 23.6509 47.2995 L 24.3820 47.5905 L 25.0579 48.0246 L 25.6671 48.5942 L 26.1991 49.2896 L 26.6448 50.0989 L 26.9965 51.0083 L 27.2484 52.0022 L 27.3960 53.0635 L 27.4368 54.1742 L 27.3702 55.3152 L 27.1972 56.4671 L 26.9209 57.6100 Z"/>
    <path fill="none" stroke="#0066ff" stroke-opacity="0.3" stroke-width="0.5" d="M 31.2443 66.6858 L 30.8496 67.7935 L 30.3636 68.8519 L 29.7945 69.8432 L 29.1521 70.7502 L 28.4474 71.5574 L 27.6924 72.2511 L 26.9001 72.8194 L 26.0840 73.2525 L 25.2581 73.5431 L 24.4364 73.6861 L 23.6332 73.6791 L 22.8620 73.5223 L 22.1362 73.2183 L 21.4681 72.7724 L 20.8691 72.1921 L 20.3495 71.4873 L 19.9183 70.6702 L 19.5827 69.7548 L 19.3485 68.7566 L 19.2197 67.6928 L 19.1986 66.5815 L 19.2854 65.4419 L 19.4788 64.2933 L 19.7753 63.1554 L 20.1700 62.0478 L 20.6560 60.9893 L 21.2251 59.9981 L 21.8675 59.0911 L 22.5722 58.2838 L 23.3272 57.5901 L 24.1195 57.0219 L 24.9356 56.5887 L 25.7615 56.2982 L 26.5832 56.1552 L 27.3864 56.1621 L 28.1576 56.3189 L 28.8834 56.6229 L 29.5515 57.0689 L 30.1505 57.6492 L 30.6701 58.3539 L 31.1013 59.1710 L 31.4369 60.0865 L 31.6711 61.0847 L 31.7999 62.1485 L 31.8210 63.2597 L 31.7342 64.3994 L 31.5408 65.5480 L 31.2443 66.6858 Z"/>
    <path fill="none" stroke="#0066ff" stroke-opacity="0.3" stroke-width="0.5" d="M 36.1071 75.4716 L 35.6929 76.5721 L 35.1882 77.6218 L 34.6016 78.6028 L 33.9433 79.4983 L 33.2244 80.2929 L 32.4572 80.9731 L 31.6549 81.5272 L 30.8313 81.9458 L 30.0003 82.2217 L 29.1763 82.3501 L 28.3733 82.3290 L 27.6050 82.1585 L 26.8847 81.8417 L 26.2246 81.3840 L 25.6360 80.7931 L 25.1290 80.0793 L 24.7123 79.2547 L 24.3930 78.3334 L 24.1765 77.3312 L 24.0666 76.2653 L 24.0652 75.1539 L 24.1722 74.0159 L 24.3859 72.8709 L 24.7026 71.7385 L 25.1168 70.6381 L 25.6215 69.5883 L 26.2081 68.6074 L 26.8664 67.7119 L 27.5854 66.9173 L 28.3525 66.2371 L 29.1548 65.6829 L 29.9784 65.2643 L 30.8094 64.9885 L 31.6334 64.8600 L 32.4364 64.8812 L 33.2047 65.0517 L 33.9250 65.3685 L 34.5851 65.8262 L 35.1737 66.4170 L 35.6807 67.1309 L 36.0974 67.9555 L 36.4167 68.8767 L 36.6332 69.8789 L 36.7431 70.9448 L 36.7445 72.0563 L 36.6375 73.1942 L 36.4238 74.3392 L 36.1071 75.4716 Z"/>
    <path fill="none" stroke="#0066ff" stroke-opacity="0.3" stroke-width="0.5" d="M 41.8696 83.6756 L 41.4359 84.7685 L 40.9127 85.8091 L 40.3088 86.7796 L 39.6347 87.6632 L 38.9018 88.4450 L 38.1227 89.1115 L 37.3108 89.6513 L 36.4798 90.0552 L 35.6441 90.3163 L 34.8179 90.4302 L 34.0154 90.3947 L 33.2503 90.2107 L 32.5357 89.8812 L 31.8838 89.4118 L 31.3058 88.8106 L 30.8115 88.0879 L 30.4095 87.2560 L 30.1065 86.3293 L 29.9079 85.3234 L 29.8169 84.2557 L 29.8352 83.1444 L 29.9624 82.0085 L 30.1963 80.8675 L 30.5330 79.7409 L 30.9667 78.6479 L 31.4899 77.6073 L 32.0938 76.6369 L 32.7679 75.7533 L 33.5008 74.9715 L 34.2799 74.3050 L 35.0918 73.7652 L 35.9228 73.3612 L 36.7585 73.1001 L 37.5847 72.9863 L 38.3872 73.0217 L 39.1523 73.2058 L 39.8669 73.5353 L 40.5188 74.0047 L 41.0968 74.6059 L 41.5911 75.3286 L 41.9931 76.1604 L 42.2961 77.0872 L 42.4947 78.0931 L 42.5857 79.1608 L 42.5674 80.2721 L 42.4402 81.4079 L 42.2063 82.5489 L 41.8696 83.6756 Z"/>
    <path fill="none" stroke="#0066ff" stroke-opacity="0.3" stroke-width="0.5" d="M 49.3005 90.2933 L 48.8475 91.3784 L 48.3059 92.4096 L 47.6850 93.3691 L 46.9953 94.2407 L 46.2487 95.0094 L 45.4579 95.6619 L 44.6365 96.1873 L 43.7985 96.5764 L 42.9583 96.8227 L 42.1302 96.9218 L 41.3285 96.8722 L 40.5667 96.6746 L 39.8581 96.3325 L 39.2146 95.8516 L 38.6473 95.2403 L 38.1660 94.5089 L 37.7787 93.6701 L 37.4923 92.7381 L 37.3115 91.7289 L 37.2394 90.6597 L 37.2774 89.5489 L 37.4247 88.4155 L 37.6788 87.2788 L 38.0354 86.1583 L 38.4884 85.0732 L 39.0300 84.0420 L 39.6510 83.0825 L 40.3407 82.2109 L 41.0873 81.4422 L 41.8781 80.7897 L 42.6995 80.2643 L 43.5375 79.8752 L 44.3777 79.6289 L 45.2057 79.5298 L 46.0075 79.5794 L 46.7692 79.7770 L 47.4779 80.1191 L 48.1213 80.6000 L 48.6886 81.2113 L 49.1700 81.9427 L 49.5572 82.7815 L 49.8437 83.7135 L 50.0245 84.7227 L 50.0965 85.7919 L 50.0586 86.9027 L 49.9112 88.0361 L 49.6571 89.1728 L 49.3005 90.2933 Z"/>
    <path fill="none" stroke="#0066ff" stroke-opacity="0.3" stroke-width="0.5" d="M 58.8707 91.6907 L 58.3985 92.7676 L 57.8387 93.7890 L 57.2009 94.7374 L 56.4958 95.5966 L 55.7357 96.3519 L 54.9335 96.9904 L 54.1029 97.5011 L 53.2581 97.8753 L 52.4137 98.1066 L 51.5840 98.1911 L 50.7833 98.1272 L 50.0252 97.9162 L 49.3227 97.5615 L 48.6878 97.0694 L 48.1315 96.4481 L 47.6631 95.7083 L 47.2908 94.8627 L 47.0209 93.9258 L 46.8581 92.9135 L 46.8050 91.8433 L 46.8626 90.7333 L 47.0300 89.6027 L 47.3042 88.4707 L 47.6807 87.3567 L 48.1528 86.2798 L 48.7126 85.2584 L 49.3505 84.3100 L 50.0555 83.4507 L 50.8156 82.6954 L 51.6178 82.0570 L 52.4484 81.5463 L 53.2932 81.1720 L 54.1376 80.9407 L 54.9673 80.8563 L 55.7681 80.9201 L 56.5262 81.1312 L 57.2286 81.4858 L 57.8635 81.9780 L 58.4198 82.5993 L 58.8882 83.3390 L 59.2605 84.1846 L 59.5304 85.1216 L 59.6933 86.1338 L 59.7463 87.2041 L 59.6887 88.3140 L 59.5213 89.4447 L 59.2471 90.5767 L 58.8707 91.6907 Z"/>
    <path fill="none" stroke="#0066ff" stroke-opacity="0.3" stroke-width="0.5" d="M 67.1067 86.4205 L 66.6156 87.4888 L 66.0378 88.5002 L 65.3832 89.4371 L 64.6630 90.2837 L 63.8896 91.0254 L 63.0762 91.6496 L 62.2367 92.1455 L 61.3855 92.5046 L 60.5371 92.7210 L 59.7060 92.7907 L 58.9065 92.7127 L 58.1523 92.4882 L 57.4562 92.1212 L 56.8301 91.6178 L 56.2849 90.9868 L 55.8297 90.2388 L 55.4725 89.3868 L 55.2192 88.4452 L 55.0743 87.4302 L 55.0402 86.3592 L 55.1175 85.2504 L 55.3049 84.1229 L 55.5992 82.9959 L 55.9953 81.8888 L 56.4864 80.8204 L 57.0643 79.8091 L 57.7188 78.8722 L 58.4390 78.0256 L 59.2124 77.2839 L 60.0258 76.6597 L 60.8653 76.1638 L 61.7165 75.8046 L 62.5650 75.5883 L 63.3960 75.5186 L 64.1955 75.5966 L 64.9498 75.8211 L 65.6458 76.1881 L 66.2719 76.6915 L 66.8171 77.3225 L 67.2723 78.0705 L 67.6295 78.9225 L 67.8828 79.8641 L 68.0277 80.8791 L 68.0618 81.9501 L 67.9845 83.0589 L 67.7971 84.1864 L 67.5028 85.3133 L 67.1067 86.4205 Z"/>
    <path fill="none" stroke="#0066ff" stroke-opacity="0.3" stroke-width="0.5" d="M 73.3074 78.7548 L 72.7974 79.8143 L 72.2018 80.8152 L 71.5307 81.7404 L 70.7956 82.5741 L 70.0092 83.3020 L 69.1849 83.9116 L 68.3367 84.3926 L 67.4792 84.7366 L 66.6271 84.9379 L 65.7949 84.9929 L 64.9970 84.9007 L 64.2468 84.6629 L 63.5573 84.2836 L 62.9403 83.7692 L 62.4063 83.1286 L 61.9645 82.3727 L 61.6224 81.5144 L 61.3859 80.5685 L 61.2590 79.5511 L 61.2439 78.4796 L 61.3409 77.3724 L 61.5482 76.2484 L 61.8624 75.1268 L 62.2781 74.0269 L 62.7881 72.9674 L 63.3837 71.9665 L 64.0548 71.0413 L 64.7898 70.2076 L 65.5763 69.4797 L 66.4006 68.8701 L 67.2488 68.3891 L 68.1063 68.0451 L 68.9584 67.8439 L 69.7905 67.7889 L 70.5885 67.8810 L 71.3387 68.1188 L 72.0281 68.4982 L 72.6451 69.0125 L 73.1791 69.6531 L 73.6209 70.4091 L 73.9630 71.2673 L 74.1996 72.2132 L 74.3265 73.2306 L 74.3416 74.3021 L 74.2446 75.4093 L 74.0373 76.5333 L 73.7231 77.6549 L 73.3074 78.7548 Z"/>
    <path fill="none" stroke="#0066ff" stroke-opacity="0.3" stroke-width="0.5" d="M 78.4069 70.3110 L 77.8782 71.3613 L 77.2649 72.3515 L 76.5775 73.2646 L 75.8278 74.0852 L 75.0286 74.7990 L 74.1936 75.3939 L 73.3370 75.8597 L 72.4736 76.1885 L 71.6180 76.3746 L 70.7850 76.4149 L 69.9888 76.3086 L 69.2430 76.0575 L 68.5603 75.6660 L 67.9526 75.1408 L 67.4300 74.4908 L 67.0017 73.7272 L 66.6748 72.8630 L 66.4551 71.9131 L 66.3463 70.8936 L 66.3502 69.8220 L 66.4667 68.7167 L 66.6940 67.5965 L 67.0280 66.4807 L 67.4631 65.3883 L 67.9918 64.3380 L 68.6051 63.3478 L 69.2925 62.4347 L 70.0422 61.6141 L 70.8414 60.9003 L 71.6764 60.3054 L 72.5329 59.8395 L 73.3964 59.5108 L 74.2519 59.3246 L 75.0849 59.2844 L 75.8812 59.3907 L 76.6270 59.6418 L 77.3096 60.0333 L 77.9174 60.5585 L 78.4400 61.2085 L 78.8683 61.9721 L 79.1951 62.8363 L 79.4148 63.7862 L 79.5237 64.8057 L 79.5198 65.8773 L 79.4032 66.9826 L 79.1760 68.1028 L 78.8420 69.2186 L 78.4069 70.3110 Z"/>
    <path fill="none" stroke="#0066ff" stroke-opacity="0.3" stroke-width="0.5" d="M 82.8664 61.5200 L 82.3192 62.5607 L 81.6884 63.5399 L 80.9850 64.4408 L 80.2208 65.2479 L 79.4091 65.9474 L 78.5637 66.5274 L 77.6990 66.9780 L 76.8299 67.2915 L 75.9712 67.4624 L 75.1376 67.4878 L 74.3433 67.3674 L 73.6021 67.1032 L 72.9265 66.6997 L 72.3281 66.1638 L 71.8172 65.5046 L 71.4024 64.7335 L 71.0910 63.8637 L 70.8881 62.9100 L 70.7974 61.8887 L 70.8203 60.8174 L 70.9564 59.7143 L 71.2034 58.5984 L 71.5572 57.4886 L 72.0116 56.4041 L 72.5588 55.3634 L 73.1896 54.3842 L 73.8930 53.4834 L 74.6572 52.6763 L 75.4689 51.9767 L 76.3143 51.3967 L 77.1790 50.9461 L 78.0481 50.6327 L 78.9068 50.4617 L 79.7404 50.4363 L 80.5347 50.5567 L 81.2759 50.8209 L 81.9515 51.2244 L 82.5499 51.7604 L 83.0608 52.4195 L 83.4756 53.1906 L 83.7870 54.0604 L 83.9899 55.0141 L 84.0806 56.0354 L 84.0577 57.1067 L 83.9216 58.2098 L 83.6746 59.3257 L 83.3208 60.4355 L 82.8664 61.5200 Z"/>
    <path fill="none" stroke="#0066ff" stroke-opacity="0.3" stroke-width="0.5" d="M 86.9201 52.5203 L 86.3545 53.5512 L 85.7065 54.5190 L 84.9872 55.4072 L 84.2089 56.2007 L 83.3849 56.8857 L 82.5293 57.4507 L 81.6568 57.8859 L 80.7822 58.1839 L 79.9206 58.3395 L 79.0867 58.3502 L 78.2947 58.2157 L 77.5583 57.9384 L 76.8900 57.5230 L 76.3012 56.9765 L 75.8020 56.3084 L 75.4010 55.5301 L 75.1050 54.6549 L 74.9191 53.6977 L 74.8464 52.6750 L 74.8883 51.6043 L 75.0440 50.5038 L 75.3108 49.3924 L 75.6841 48.2891 L 76.1577 47.2128 L 76.7233 46.1819 L 77.3713 45.2141 L 78.0906 44.3259 L 78.8689 43.5324 L 79.6929 42.8474 L 80.5485 42.2824 L 81.4210 41.8472 L 82.2956 41.5493 L 83.1572 41.3936 L 83.9911 41.3829 L 84.7831 41.5174 L 85.5195 41.7947 L 86.1878 42.2101 L 86.7766 42.7566 L 87.2758 43.4247 L 87.6768 44.2030 L 87.9728 45.0782 L 88.1587 46.0354 L 88.2314 47.0581 L 88.1895 48.1288 L 88.0338 49.2293 L 87.7670 50.3407 L 87.3937 51.4440 L 86.9201 52.5203 Z"/>
    <path fill="none" stroke="#0066ff" stroke-opacity="0.3" stroke-width="0.5" d="M 90.6831 43.4056 L 90.0993 44.4263 L 89.4342 45.3825 L 88.6993 46.2579 L 87.9070 47.0374 L 87.0710 47.7077 L 86.2055 48.2574 L 85.3254 48.6771 L 84.4457 48.9595 L 83.5815 49.0999 L 82.7475 49.0958 L 81.9581 48.9473 L 81.2267 48.6570 L 80.5658 48.2297 L 79.9868 47.6729 L 79.4995 46.9961 L 79.1124 46.2108 L 78.8319 45.3305 L 78.6630 44.3702 L 78.6085 43.3463 L 78.6694 42.2765 L 78.8445 41.1789 L 79.1310 40.0724 L 79.5238 38.9760 L 80.0164 37.9082 L 80.6002 36.8875 L 81.2652 35.9313 L 82.0002 35.0560 L 82.7924 34.2765 L 83.6284 33.6061 L 84.4939 33.0564 L 85.3740 32.6368 L 86.2537 32.3543 L 87.1179 32.2140 L 87.9519 32.2181 L 88.7413 32.3666 L 89.4728 32.6569 L 90.1336 33.0841 L 90.7126 33.6409 L 91.1999 34.3177 L 91.5871 35.1030 L 91.8675 35.9834 L 92.0364 36.9437 L 92.0909 37.9675 L 92.0301 39.0373 L 91.8549 40.1349 L 91.5685 41.2414 L 91.1756 42.3379 L 90.6831 43.4056 Z"/>
    <path fill="none" stroke="#0066ff" stroke-opacity="0.3" stroke-width="0.5" d="M 94.2363 34.2047 L 93.6345 35.2148 L 92.9526 36.1591 L 92.2022 37.0213 L 91.3963 37.7866 L 90.5485 38.4421 L 89.6735 38.9763 L 88.7860 39.3803 L 87.9015 39.6471 L 87.0349 39.7721 L 86.2011 39.7533 L 85.4144 39.5908 L 84.6883 39.2875 L 84.0351 38.8487 L 83.4660 38.2817 L 82.9909 37.5963 L 82.6177 36.8043 L 82.3529 35.9191 L 82.2010 34.9560 L 82.1647 33.9314 L 82.2445 32.8628 L 82.4391 31.7685 L 82.7451 30.6672 L 83.1573 29.5779 L 83.6687 28.5191 L 84.2705 27.5089 L 84.9524 26.5646 L 85.7027 25.7024 L 86.5087 24.9371 L 87.3565 24.2817 L 88.2315 23.7474 L 89.1189 23.3434 L 90.0035 23.0766 L 90.8701 22.9516 L 91.7038 22.9705 L 92.4905 23.1329 L 93.2167 23.4362 L 93.8699 23.8750 L 94.4389 24.4420 L 94.9141 25.1274 L 95.2873 25.9194 L 95.5521 26.8046 L 95.7039 27.7677 L 95.7403 28.7923 L 95.6605 29.8609 L 95.4659 30.9552 L 95.1599 32.0565 L 94.7477 33.1458 L 94.2363 34.2047 Z"/>
    <path fill="none" stroke="#0066ff" stroke-opacity="0.3" stroke-width="0.5" d="M 97.6319 24.9349 L 97.0123 25.9343 L 96.3138 26.8663 L 95.5483 27.7150 L 94.7289 28.4660 L 93.8696 29.1063 L 92.9852 29.6249 L 92.0908 30.0131 L 91.2017 30.2642 L 90.3330 30.3739 L 89.4997 30.3402 L 88.7160 30.1638 L 87.9953 29.8478 L 87.3500 29.3974 L 86.7911 28.8204 L 86.3282 28.1267 L 85.9691 27.3282 L 85.7200 26.4385 L 85.5853 25.4728 L 85.5671 24.4477 L 85.6658 23.3807 L 85.8797 22.2900 L 86.2052 21.1944 L 86.6367 20.1125 L 87.1668 19.0629 L 87.7864 18.0635 L 88.4849 17.1315 L 89.2504 16.2827 L 90.0698 15.5318 L 90.9291 14.8915 L 91.8135 14.3728 L 92.7079 13.9846 L 93.5971 13.7336 L 94.4657 13.6239 L 95.2990 13.6576 L 96.0827 13.8339 L 96.8034 14.1500 L 97.4487 14.6004 L 98.0076 15.1774 L 98.4706 15.8710 L 98.8296 16.6696 L 99.0787 17.5593 L 99.2135 18.5250 L 99.2316 19.5501 L 99.1329 20.6171 L 98.9190 21.7078 L 98.5935 22.8034 L 98.1620 23.8853 L 97.6319 24.9349 Z"/>
    <path fill="none" stroke="#0066ff" stroke-opacity="0.3" stroke-width="0.5" d="M 100.9003 15.6234 L 100.2631 16.6116 L 99.5482 17.5311 L 98.7677 18.3662 L 97.9352 19.1025 L 97.0647 19.7274 L 96.1713 20.2304 L 95.2701 20.6026 L 94.3766 20.8379 L 93.5062 20.9321 L 92.6736 20.8837 L 91.8931 20.6935 L 91.1782 20.3647 L 90.5410 19.9029 L 89.9924 19.3162 L 89.5418 18.6144 L 89.1969 17.8096 L 88.9637 16.9156 L 88.8460 15.9477 L 88.8460 14.9224 L 88.9636 13.8573 L 89.1969 12.7706 L 89.5417 11.6809 L 89.9923 10.6069 L 90.5409 9.5668 L 91.1781 8.5786 L 91.8931 7.6591 L 92.6735 6.8241 L 93.5061 6.0878 L 94.3766 5.4628 L 95.2700 4.9599 L 96.1712 4.5876 L 97.0646 4.3523 L 97.9351 4.2581 L 98.7677 4.3065 L 99.5481 4.4967 L 100.2631 4.8255 L 100.9003 5.2873 L 101.4489 5.8741 L 101.8995 6.5758 L 102.2444 7.3806 L 102.4776 8.2746 L 102.5952 9.2425 L 102.5952 10.2678 L 102.4776 11.3329 L 102.2444 12.4196 L 101.8995 13.5093 L 101.4489 14.5834 L 100.9003 15.6234 Z"/>
    <path fill="none" stroke="#0066ff" stroke-opacity="0.3" stroke-width="0.5" d="M 104.0660 6.2831 L 103.4114 7.2598 L 102.6802 8.1665 L 101.8851 8.9876 L 101.0396 9.7090 L 100.1582 10.3184 L 99.2560 10.8055 L 98.3484 11.1617 L 97.4509 11.3811 L 96.5789 11.4599 L 95.7473 11.3967 L 94.9703 11.1927 L 94.2613 10.8513 L 93.6324 10.3783 L 93.0943 9.7819 L 92.6562 9.0722 L 92.3257 8.2615 L 92.1083 7.3635 L 92.0078 6.3936 L 92.0260 5.3685 L 92.1625 4.3057 L 92.4149 3.2233 L 92.7791 2.1398 L 93.2486 1.0739 L 93.8156 0.0438 L 94.4702 -0.9330 L 95.2013 -1.8397 L 95.9964 -2.6607 L 96.8419 -3.3822 L 97.7233 -3.9916 L 98.6256 -4.4786 L 99.5332 -4.8349 L 100.4307 -5.0543 L 101.3027 -5.1330 L 102.1343 -5.0699 L 102.9112 -4.8658 L 103.6202 -4.5244 L 104.2492 -4.0514 L 104.7873 -3.4550 L 105.2254 -2.7454 L 105.5559 -1.9346 L 105.7733 -1.0366 L 105.8737 -0.0668 L 105.8556 0.9583 L 105.7191 2.0212 L 105.4666 3.1036 L 105.1025 4.1870 L 104.6329 5.2529 L 104.0660 6.2831 Z"/>
    <path fill="none" stroke="#0066ff" stroke-opacity="0.3" stroke-width="0.5" d="M 107.1932 -3.1041 L 106.5213 -2.1391 L 105.7743 -1.2455 L 104.9647 -0.4387 L 104.1066 0.2677 L 103.2145 0.8614 L 102.3038 1.3323 L 101.3900 1.6724 L 100.4887 1.8759 L 99.6155 1.9392 L 98.7851 1.8613 L 98.0119 1.6435 L 97.3091 1.2896 L 96.6886 0.8055 L 96.1612 0.1997 L 95.7357 -0.5176 L 95.4196 -1.3341 L 95.2182 -2.2358 L 95.1350 -3.2073 L 95.1713 -4.2319 L 95.3266 -5.2922 L 95.5982 -6.3700 L 95.9815 -7.4467 L 96.4698 -8.5042 L 97.0549 -9.5241 L 97.7268 -10.4891 L 98.4739 -11.3827 L 99.2834 -12.1896 L 100.1416 -12.8959 L 101.0336 -13.4896 L 101.9444 -13.9605 L 102.8582 -14.3006 L 103.7594 -14.5041 L 104.6327 -14.5674 L 105.4630 -14.4895 L 106.2362 -14.2717 L 106.9390 -13.9178 L 107.5595 -13.4338 L 108.0870 -12.8279 L 108.5124 -12.1106 L 108.8285 -11.2941 L 109.0299 -10.3924 L 109.1132 -9.4209 L 109.0768 -8.3963 L 108.9215 -7.3360 L 108.6499 -6.2583 L 108.2667 -5.1815 L 107.7783 -4.1241 L 107.1932 -3.1041 Z"/>
    <path fill="none" stroke="#0066ff" stroke-opacity="0.3" stroke-width="0.5" d="M 301.5529 5.7956 L 300.4049 6.0500 L 299.2500 6.2010 L 298.1079 6.2458 L 296.9982 6.1838 L 295.9398 6.0160 L 294.9510 5.7452 L 294.0485 5.3761 L 293.2478 4.9151 L 292.5627 4.3699 L 292.0048 3.7500 L 291.5837 3.0659 L 291.3067 2.3294 L 291.1783 1.5530 L 291.2010 0.7500 L 291.3741 -0.0658 L 291.6949 -0.8805 L 292.1578 -1.6801 L 292.7548 -2.4510 L 293.4758 -3.1799 L 294.3085 -3.8544 L 295.2385 -4.4630 L 296.2500 -4.9952 L 297.3257 -5.4419 L 298.4471 -5.7956 L 299.5951 -6.0500 L 300.7500 -6.2010 L 301.8921 -6.2458 L 303.0018 -6.1838 L 304.0602 -6.0160 L 305.0490 -5.7452 L 305.9515 -5.3761 L 306.7522 -4.9151 L 307.4373 -4.3699 L 307.9952 -3.7500 L 308.4163 -3.0659 L 308.6933 -2.3294 L 308.8217 -1.5530 L 308.7990 -0.7500 L 308.6259 0.0658 L 308.3051 0.8805 L 307.8422 1.6801 L 307.2452 2.4510 L 306.5242 3.1799 L 305.6915 3.8544 L 304.7615 4.4630 L 303.7500 4.9952 L 302.6743 5.4419 L 301.5529 5.7956 Z"/>
  
  
  
</g>
</svg>