<svg xmlns="http://www.w3.org/2000/svg" width="149.0000" height="158.0000" viewBox="-10.0000 -19.0000 149.0000 158.0000">
  <path fill="black" stroke="none" fill-rule="evenodd" d="M 0 9.0000 L 15.0000 9.0000 L 30.0000 9.0000 L 45.0000 9.0000 L 60.0000 9.0000 L 75.0000 9.0000 L 90.0000 9.0000 L 105.0000 9.0000 L 120.0000 9.0000 L 111.0000 0 L 111.0000 15.0000 L 111.0000 15.0000 L 120.0000 39.0000 L 120.0000 54.0000 L 120.0000 69.0000 L 120.0000 84.0000 L 120.0000 99.0000 L 120.0000 114.0000 L 120.0000 129.0000 L 120.0000 111.0000 L 120.0000 96.0000 L 120.0000 81.0000 L 120.0000 66.0000 L 120.0000 51.0000 L 120.0000 36.0000 L 120.0000 21.0000 L 129.0000 15.0000 L 129.0000 15.0000 L 129.0000 0 L 120.0000 -9.0000 L 105.0000 -9.0000 L 90.0000 -9.0000 L 75.0000 -9.0000 L 60.0000 -9.0000 L 45.0000 -9.0000 L 30.0000 -9.0000 L 15.0000 -9.0000 L 0 -9.0000 L 0 9.0000 Z"/>
  <g id="debug">
  <path fill="none" stroke="#ff3366" stroke-opacity="0.6" stroke-width="0.5" d=""/>
  <path fill="none" stroke="#ff9900" stroke-opacity="0.6" stroke-width="0.6" d=""/>
  <path fill="none" stroke="#222222" stroke-opacity="0.7" stroke-width="0.6" d=""/>
  <path fill="none" stroke="#00aaff" stroke-opacity="0.6" stroke-width="0.6" d=""/>
  
  <path fill="none" stroke="#8844ff" stroke-opacity="0.6" stroke-width="0.6" d="M 0 9.0000 L 15.0000 9.0000 L 30.0000 9.0000 L 45.0000 9.0000 L 60.0000 9.0000 L 75.0000 9.0000 L 90.0000 9.0000 L 105.0000 9.0000 L 120.0000 9.0000 L 111.0000 0 L 111.0000 15.0000 L 111.0000 15.0000 L 120.0000 39.0000 L 120.0000 54.0000 L 120.0000 69.0000 L 120.0000 84.0000 L 120.0000 99.0000 L 120.0000 114.0000 L 120.0000 129.0000"/>
    <path fill="none" stroke="#8844ff" stroke-opacity="0.6" stroke-width="0.6" d="M 0 -9.0000 L 15.0000 -9.0000 L 30.0000 -9.0000 L 45.0000 -9.0000 L 60.0000 -9.0000 L 75.0000 -9.0000 L 90.0000 -9.0000 L 105.0000 -9.0000 L 120.0000 -9.0000 L 129.0000 0 L 129.0000 15.0000 L 129.0000 15.0000 L 120.0000 21.0000 L 120.0000 36.0000 L 120.0000 51.0000 L 120.0000 66.0000 L 120.0000 81.0000 L 120.0000 96.0000 L 120.0000 111.0000"/>
    <path fill="none" stroke="#8844ff" stroke-opacity="0.35" stroke-width="0.6" d="M 0 9.0000 L 15.0000 9.0000 L 30.0000 9.0000 L 45.0000 9.0000 L 60.0000 9.0000 L 75.0000 9.0000 L 90.0000 9.0000 L 105.0000 9.0000 L 120.0000 9.0000 L 111.0000 0 L 111.0000 15.0000 L 111.0000 15.0000 L 120.0000 39.0000 L 120.0000 54.0000 L 120.0000 69.0000 L 120.0000 84.0000 L 120.0000 99.0000 L 120.0000 114.0000 L 120.0000 129.0000 L 120.0000 111.0000 L 120.0000 96.0000 L 120.0000 81.0000 L 120.0000 66.0000 L 120.0000 51.0000 L 120.0000 36.0000 L 120.0000 21.0000 L 129.0000 15.0000 L 129.0000 15.0000 L 129.0000 0 L 120.0000 -9.0000 L 105.0000 -9.0000 L 90.0000 -9.0000 L 75.0000 -9.0000 L 60.0000 -9.0000 L 45.0000 -9.0000 L 30.0000 -9.0000 L 15.0000 -9.0000 L 0 -9.0000 L 0 9.0000 Z"/>
  
  
  
</g>
</svg>