<svg xmlns="http://www.w3.org/2000/svg" width="149.0000" height="158.0000" viewBox="-10.0000 -19.0000 149.0000 158.0000">
  <path fill="black" stroke="none" fill-rule="evenodd" d="M 0 9.0000 L 15.0000 9.0000 L 30.0000 9.0000 L 45.0000 9.0000 L 60.0000 9.0000 L 75.0000 9.0000 L 90.0000 9.0000 L 105.0000 9.0000 L 120.0000 9.0000 L 118.5921 8.8892 L 117.2188 8.5595 L 115.9141 8.0191 L 114.7099 7.2812 L 113.6360 6.3640 L 112.7188 5.2901 L 111.9809 4.0859 L 111.4405 2.7812 L 111.1108 1.4079 L 111.0000 0 L 111.0000 15.0000 L 111.0000 15.0000 L 111.0000 15.0000 L 111.0000 15.0000 L 111.0000 15.0000 L 111.0000 15.0000 L 111.0000 15.0000 L 111.0000 15.0000 L 111.0000 15.0000 L 111.0000 15.0000 L 111.0000 15.0000 L 120.0000 39.0000 L 120.0000 54.0000 L 120.0000 69.0000 L 120.0000 84.0000 L 120.0000 99.0000 L 120.0000 114.0000 L 120.0000 129.0000 L 120.0000 111.0000 L 120.0000 96.0000 L 120.0000 81.0000 L 120.0000 66.0000 L 120.0000 51.0000 L 120.0000 36.0000 L 120.0000 21.0000 L 129.0000 15.0000 L 129.0000 15.0000 L 129.0000 15.0000 L 129.0000 15.0000 L 129.0000 15.0000 L 129.0000 15.0000 L 129.0000 15.0000 L 129.0000 15.0000 L 129.0000 15.0000 L 129.0000 15.0000 L 129.0000 15.0000 L 129.0000 0 L 128.8892 -1.4079 L 128.5595 -2.7812 L 128.0191 -4.0859 L 127.2812 -5.2901 L 126.3640 -6.3640 L 125.2901 -7.2812 L 124.0859 -8.0191 L 122.7812 -8.5595 L 121.4079 -8.8892 L 120.0000 -9.0000 L 105.0000 -9.0000 L 90.0000 -9.0000 L 75.0000 -9.0000 L 60.0000 -9.0000 L 45.0000 -9.0000 L 30.0000 -9.0000 L 15.0000 -9.0000 L 0 -9.0000 L 0 9.0000 Z"/>
  <g id="debug">
  <path fill="none" stroke="#ff3366" stroke-opacity="0.6" stroke-width="0.5" d=""/>
  <path fill="none" stroke="#ff9900" stroke-opacity="0.6" stroke-width="0.6" d=""/>
  <path fill="none" stroke="#222222" stroke-opacity="0.7" stroke-width="0.6" d=""/>
  <path fill="none" stroke="#00aaff" stroke-opacity="0.6" stroke-width="0.6" d=""/>
  
  <path fill="none" stroke="#8844ff" stroke-opacity="0.6" stroke-width="0.6" d="M 0 9.0000 L 15.0000 9.0000 L 30.0000 9.0000 L 45.0000 9.0000 L 60.0000 9.0000 L 75.0000 9.0000 L 90.0000 9.0000 L 105.0000 9.0000 L 120.0000 9.0000 L 118.5921 8.8892 L 117.2188 8.5595 L 115.9141 8.0191 L 114.7099 7.2812 L 113.6360 6.3640 L 112.7188 5.2901 L 111.9809 4.0859 L 111.4405 2.7812 L 111.1108 1.4079 L 111.0000 0 L 111.0000 15.0000 L 111.0000 15.0000 L 111.0000 15.0000 L 111.0000 15.0000 L 111.0000 15.0000 L 111.0000 15.0000 L 111.0000 15.0000 L 111.0000 15.0000 L 111.0000 15.0000 L 111.0000 15.0000 L 111.0000 15.0000 L 120.0000 39.0000 L 120.0000 54.0000 L 120.0000 69.0000 L 120.0000 84.0000 L 120.0000 99.0000 L 120.0000 114.0000 L 120.0000 129.0000"/>
    <path fill="none" stroke="#8844ff" stroke-opacity="0.6" stroke-width="0.6" d="M 0 -9.0000 L 15.0000 -9.0000 L 30.0000 -9.0000 L 45.0000 -9.0000 L 60.0000 -9.0000 L 75.0000 -9.0000 L 90.0000 -9.0000 L 105.0000 -9.0000 L 120.0000 -9.0000 L 121.4079 -8.8892 L 122.7812 -8.5595 L 124.0859 -8.0191 L 125.2901 -7.2812 L 126.3640 -6.3640 L 127.2812 -5.2901 L 128.0191 -4.0859 L 128.5595 -2.7812 L 128.8892 -1.4079 L 129.0000 0 L 129.0000 15.0000 L 129.0000 15.0000 L 129.0000 15.0000 L 129.0000 15.0000 L 129.0000 15.0000 L 129.0000 15.0000 L 129.0000 15.0000 L 129.0000 15.0000 L 129.0000 15.0000 L 129.0000 15.0000 L 129.0000 15.0000 L 120.0000 21.0000 L 120.0000 36.0000 L 120.0000 51.0000 L 120.0000 66.0000 L 120.0000 81.0000 L 120.0000 96.0000 L 120.0000 111.0000"/>
    <path fill="none" stroke="#8844ff" stroke-opacity="0.35" stroke-width="0.6" d="M 0 9.0000 L 15.0000 9.0000 L 30.0000 9.0000 L 45.0000 9.0000 L 60.0000 9.0000 L 75.0000 9.0000 L 90.0000 9.0000 L 105.0000 9.0000 L 120.0000 9.0000 L 118.5921 8.8892 L 117.2188 8.5595 L 115.9141 8.0191 L 114.7099 7.2812 L 113.6360 6.3640 L 112.7188 5.2901 L 111.9809 4.0859 L 111.4405 2.7812 L 111.1108 1.4079 L 111.0000 0 L 111.0000 15.0000 L 111.0000 15.0000 L 111.0000 15.0000 L 111.0000 15.0000 L 111.0000 15.0000 L 111.0000 15.0000 L 111.0000 15.0000 L 111.0000 15.0000 L 111.0000 15.0000 L 111.0000 15.0000 L 111.0000 15.0000 L 120.0000 39.0000 L 120.0000 54.0000 L 120.0000 69.0000 L 120.0000 84.0000 L 120.0000 99.0000 L 120.0000 114.0000 L 120.0000 129.0000 L 120.0000 111.0000 L 120.0000 96.0000 L 120.0000 81.0000 L 120.0000 66.0000 L 120.0000 51.0000 L 120.0000 36.0000 L 120.0000 21.0000 L 129.0000 15.0000 L 129.0000 15.0000 L 129.0000 15.0000 L 129.0000 15.0000 L 129.0000 15.0000 L 129.0000 15.0000 L 129.0000 15.0000 L 129.0000 15.0000 L 129.0000 15.0000 L 129.0000 15.0000 L 129.0000 15.0000 L 129.0000 0 L 128.8892 -1.4079 L 128.5595 -2.7812 L 128.0191 -4.0859 L 127.2812 -5.2901 L 126.3640 -6.3640 L 125.2901 -7.2812 L 124.0859 -8.0191 L 122.7812 -8.5595 L 121.4079 -8.8892 L 120.0000 -9.0000 L 105.0000 -9.0000 L 90.0000 -9.0000 L 75.0000 -9.0000 L 60.0000 -9.0000 L 45.0000 -9.0000 L 30.0000 -9.0000 L 15.0000 -9.0000 L 0 -9.0000 L 0 9.0000 Z"/>
  
  
  
</g>
</svg>