<svg xmlns="http://www.w3.org/2000/svg" width="330.9381" height="49.5179" viewBox="-13.5272 -12.3383 330.9381 49.5179">
  <path fill="black" stroke="none" fill-rule="evenodd" d="M -3.5272 -1.6181 L -3.4683 -1.3838 L -3.3500 -1.1258 L -3.1744 -0.8486 L -2.9445 -0.5569 L -2.6642 -0.2556 L -2.3383 0.0500 L -1.9724 0.3548 L -1.5727 0.6535 L -1.1462 0.9410 L -0.7000 1.2124 L -0.2419 1.4631 L 0.2204 1.6888 L 0.6789 1.8855 L 1.1258 2.0500 L 1.5535 2.1794 L 1.9545 2.2715 L 2.3221 2.3248 L 2.6500 2.3383 L 2.9082 2.3140 L 3.1546 2.3706 L 3.5281 2.4247 L 3.8612 2.4384 L 4.1148 2.4146 L 4.3547 2.4697 L 4.7341 2.5247 L 5.0725 2.5386 L 5.3214 2.5152 L 5.5547 2.5688 L 5.9401 2.6246 L 6.2837 2.6388 L 6.5280 2.6158 L 6.7548 2.6679 L 7.1460 2.7246 L 7.4950 2.7389 L 7.7347 2.7164 L 7.9549 2.7670 L 8.3520 2.8245 L 8.7062 2.8391 L 8.9413 2.8170 L 9.1550 2.8661 L 9.5580 2.9245 L 9.9175 2.9393 L 10.1479 2.9176 L 10.3550 2.9652 L 10.7640 3.0244 L 11.1287 3.0394 L 11.3546 3.0182 L 11.5551 3.0643 L 11.9699 3.1244 L 12.3400 3.1396 L 12.5612 3.1188 L 12.7552 3.1634 L 13.1759 3.2243 L 13.5512 3.2398 L 13.7678 3.2194 L 13.9552 3.2625 L 14.3819 3.3243 L 14.7624 3.3399 L 14.9744 3.3200 L 15.1553 3.3616 L 15.5879 3.4242 L 15.9737 3.4401 L 16.1811 3.4206 L 16.3554 3.4607 L 16.7939 3.5242 L 17.1849 3.5403 L 17.3877 3.5212 L 17.5555 3.5598 L 17.9998 3.6241 L 18.3962 3.6404 L 18.5943 3.6218 L 18.7555 3.6589 L 19.2058 3.7241 L 19.6074 3.7406 L 19.8009 3.7224 L 19.9556 3.7580 L 20.4118 3.8240 L 20.8187 3.8408 L 21.0076 3.8230 L 21.1557 3.8571 L 21.6178 3.9240 L 22.0299 3.9409 L 22.2142 3.9236 L 22.3557 3.9561 L 22.8237 4.0239 L 23.2412 4.0411 L 23.4208 4.0242 L 23.5558 4.0552 L 24.0297 4.1239 L 24.4524 4.1413 L 24.6275 4.1248 L 24.7559 4.1543 L 25.2357 4.2238 L 25.6637 4.2414 L 25.8341 4.2254 L 25.9560 4.2534 L 26.4417 4.3238 L 26.8749 4.3416 L 27.0407 4.3260 L 27.1560 4.3525 L 27.6477 4.4237 L 28.0861 4.4418 L 28.2473 4.4266 L 28.3561 4.4516 L 28.8536 4.5237 L 29.2974 4.5419 L 29.4540 4.5272 L 29.5562 4.5507 L 30.0596 4.6236 L 30.5086 4.6421 L 30.6606 4.6278 L 30.7563 4.6498 L 31.2656 4.7236 L 31.7199 4.7423 L 31.8672 4.7284 L 31.9563 4.7489 L 32.4716 4.8235 L 32.9311 4.8424 L 33.0738 4.8290 L 33.1564 4.8480 L 33.6775 4.9235 L 34.1424 4.9426 L 34.2805 4.9296 L 34.3565 4.9471 L 34.8835 5.0234 L 35.3536 5.0428 L 35.4871 5.0302 L 35.5565 5.0462 L 36.0895 5.1234 L 36.5649 5.1429 L 36.6937 5.1308 L 36.7566 5.1453 L 37.2955 5.2233 L 37.7761 5.2431 L 37.9004 5.2314 L 37.9567 5.2444 L 38.5015 5.3233 L 38.9873 5.3433 L 39.1070 5.3320 L 39.1568 5.3435 L 39.7074 5.4232 L 40.1986 5.4434 L 40.3136 5.4326 L 40.3568 5.4426 L 40.9134 5.5232 L 41.4098 5.5436 L 41.5202 5.5332 L 41.5569 5.5417 L 42.1194 5.6232 L 42.6211 5.6438 L 42.7269 5.6338 L 42.7570 5.6408 L 43.3254 5.7231 L 43.8323 5.7439 L 43.9335 5.7344 L 43.9571 5.7399 L 44.5313 5.8231 L 45.0436 5.8441 L 45.1401 5.8350 L 45.1571 5.8389 L 45.7373 5.9230 L 46.2548 5.9443 L 46.3467 5.9356 L 46.3572 5.9380 L 46.9433 6.0230 L 47.4661 6.0444 L 47.5534 6.0362 L 47.5573 6.0371 L 48.1493 6.1229 L 48.6773 6.1446 L 48.7609 6.1368 L 49.3553 6.2229 L 49.8886 6.2448 L 49.9699 6.2371 L 50.5612 6.3228 L 51.0998 6.3449 L 51.1789 6.3375 L 51.7672 6.4228 L 52.3110 6.4451 L 52.3878 6.4379 L 52.9732 6.5227 L 53.5223 6.5453 L 53.5968 6.5383 L 54.1792 6.6227 L 54.7335 6.6454 L 54.8057 6.6387 L 55.3852 6.7226 L 55.9448 6.7456 L 56.0147 6.7390 L 56.5911 6.8226 L 57.1560 6.8458 L 57.2236 6.8394 L 57.7971 6.9225 L 58.3673 6.9459 L 58.4326 6.9398 L 59.0031 7.0225 L 59.5785 7.0461 L 59.6416 7.0402 L 60.2091 7.1224 L 60.7898 7.1463 L 60.8505 7.1406 L 61.4150 7.2224 L 62.0010 7.2464 L 62.0595 7.2410 L 62.6210 7.3223 L 63.2122 7.3466 L 63.2684 7.3413 L 63.8270 7.4223 L 64.4235 7.4468 L 64.4774 7.4417 L 65.0330 7.5222 L 65.6347 7.5469 L 65.6863 7.5421 L 66.2390 7.6222 L 66.8460 7.6471 L 66.8953 7.6425 L 67.4449 7.7221 L 68.0572 7.7473 L 68.1042 7.7429 L 68.6509 7.8221 L 69.2685 7.8474 L 69.3132 7.8432 L 69.8569 7.9220 L 70.4797 7.9476 L 70.5222 7.9436 L 71.0629 8.0220 L 71.6910 8.0478 L 71.7311 8.0440 L 72.2688 8.1219 L 72.9022 8.1479 L 72.9401 8.1444 L 73.4748 8.2219 L 74.1135 8.2481 L 74.1490 8.2448 L 74.6808 8.3218 L 75.3247 8.3483 L 75.3580 8.3452 L 75.8868 8.4218 L 76.5359 8.4484 L 76.5669 8.4455 L 77.0928 8.5217 L 77.7472 8.5486 L 77.7759 8.5459 L 78.2987 8.6217 L 78.9584 8.6488 L 78.9848 8.6463 L 79.5047 8.7216 L 80.1697 8.7489 L 80.1938 8.7467 L 80.7107 8.8216 L 81.3809 8.8491 L 81.4028 8.8471 L 81.9167 8.9215 L 82.5922 8.9493 L 82.6117 8.9474 L 83.1226 9.0215 L 83.8034 9.0494 L 83.8207 9.0478 L 84.3286 9.1214 L 85.0147 9.1496 L 85.0296 9.1482 L 85.5346 9.2214 L 86.2259 9.2498 L 86.2386 9.2486 L 86.7406 9.3213 L 87.4371 9.3499 L 87.4475 9.3490 L 87.9466 9.4213 L 88.6484 9.4501 L 88.6565 9.4494 L 89.1525 9.5212 L 89.8596 9.5503 L 89.8655 9.5497 L 90.3585 9.6212 L 91.0709 9.6504 L 91.0744 9.6501 L 91.5645 9.7211 L 92.2821 9.7506 L 92.2834 9.7505 L 92.7705 9.8211 L 93.4910 9.8507 L 93.9764 9.9210 L 94.6969 9.9506 L 95.1824 10.0210 L 95.9029 10.0506 L 96.3884 10.1209 L 97.1089 10.1505 L 97.5944 10.2209 L 98.3149 10.2505 L 98.8004 10.3208 L 99.5208 10.3504 L 100.0063 10.4208 L 100.7268 10.4504 L 101.2123 10.5207 L 101.9328 10.5503 L 102.4183 10.6207 L 103.1388 10.6503 L 103.6243 10.7206 L 104.3448 10.7502 L 104.8302 10.8206 L 105.5507 10.8502 L 106.0362 10.9205 L 106.7567 10.9501 L 107.2422 11.0205 L 107.9627 11.0501 L 108.4482 11.1204 L 109.1687 11.1500 L 109.6542 11.2204 L 110.3746 11.2500 L 110.8601 11.3203 L 111.5806 11.3499 L 112.0661 11.4203 L 112.7866 11.4499 L 113.2721 11.5202 L 113.9926 11.5498 L 114.4781 11.6202 L 115.1986 11.6498 L 115.6840 11.7201 L 116.4045 11.7497 L 116.8900 11.8201 L 117.6105 11.8497 L 118.0960 11.9200 L 118.8165 11.9496 L 119.3020 12.0200 L 120.0225 12.0496 L 120.5080 12.1199 L 121.2284 12.1495 L 121.7139 12.2199 L 122.4344 12.2495 L 122.9199 12.3198 L 123.6404 12.3494 L 124.1259 12.4198 L 124.8464 12.4494 L 125.3319 12.5197 L 126.0524 12.5493 L 126.5378 12.6197 L 127.2583 12.6493 L 127.7438 12.7196 L 128.4643 12.7492 L 128.9498 12.8196 L 129.6703 12.8492 L 130.1558 12.9195 L 130.8763 12.9491 L 131.3618 13.0195 L 132.0822 13.0491 L 132.5677 13.1194 L 133.2882 13.1490 L 133.7737 13.2194 L 134.4942 13.2490 L 134.9797 13.3193 L 135.7002 13.3489 L 136.1857 13.4193 L 136.9062 13.4489 L 137.3916 13.5192 L 138.1121 13.5488 L 138.5976 13.6192 L 139.3181 13.6488 L 139.8036 13.7191 L 140.5241 13.7487 L 141.0096 13.8191 L 141.7301 13.8487 L 142.2156 13.9190 L 142.9360 13.9486 L 143.4215 14.0190 L 144.1420 14.0486 L 144.6275 14.1189 L 145.3480 14.1485 L 145.8335 14.2189 L 146.5540 14.2485 L 147.0395 14.3188 L 147.7600 14.3484 L 148.2454 14.4188 L 148.9659 14.4484 L 149.4514 14.5187 L 150.1719 14.5483 L 150.6574 14.6187 L 151.3779 14.6483 L 151.8634 14.7186 L 152.5839 14.7482 L 153.0694 14.8186 L 153.7898 14.8482 L 154.2753 14.9185 L 154.9958 14.9481 L 155.4813 15.0185 L 156.2018 15.0481 L 156.6873 15.1184 L 157.4078 15.1480 L 157.8933 15.2184 L 158.6138 15.2480 L 159.0992 15.3183 L 159.8197 15.3479 L 160.3052 15.4183 L 161.0257 15.4479 L 161.5112 15.5182 L 162.2317 15.5478 L 162.7172 15.6182 L 163.4377 15.6478 L 163.9232 15.7181 L 164.6436 15.7477 L 165.1291 15.8181 L 165.8496 15.8477 L 166.3351 15.9180 L 167.0556 15.9476 L 167.5411 16.0180 L 168.2616 16.0476 L 168.7471 16.1179 L 169.4676 16.1475 L 169.9531 16.2179 L 170.6735 16.2475 L 171.1590 16.3178 L 171.8795 16.3474 L 172.3650 16.4178 L 173.0855 16.4474 L 173.5710 16.5177 L 174.2915 16.5473 L 174.7770 16.6177 L 175.4974 16.6473 L 175.9829 16.7176 L 176.7034 16.7472 L 177.1889 16.8176 L 177.9094 16.8472 L 178.3949 16.9175 L 179.1154 16.9471 L 179.6009 17.0175 L 180.3214 17.0471 L 180.8069 17.1174 L 181.5273 17.1470 L 182.0128 17.2174 L 182.7333 17.2470 L 183.2188 17.3173 L 183.9393 17.3469 L 184.4248 17.4173 L 185.1453 17.4469 L 185.6308 17.5172 L 186.3512 17.5468 L 186.8367 17.6172 L 187.5572 17.6468 L 188.0427 17.7171 L 188.7632 17.7468 L 189.2487 17.8171 L 189.9692 17.8467 L 190.4547 17.9170 L 191.1752 17.9467 L 191.6607 18.0170 L 192.3811 18.0466 L 192.8666 18.1169 L 193.5871 18.1466 L 194.0726 18.2169 L 194.7931 18.2465 L 195.2786 18.3168 L 195.9991 18.3465 L 196.4846 18.4168 L 197.2051 18.4464 L 197.6905 18.5167 L 198.4110 18.5464 L 198.8965 18.6167 L 199.6170 18.6463 L 200.1025 18.7166 L 200.8230 18.7463 L 201.3085 18.8166 L 202.0290 18.8462 L 202.5145 18.9165 L 203.2349 18.9462 L 203.7204 19.0165 L 204.4409 19.0461 L 204.9264 19.1164 L 205.6469 19.1461 L 206.1324 19.2164 L 206.8529 19.2460 L 207.3384 19.3163 L 208.0589 19.3460 L 208.5443 19.4163 L 209.2648 19.4459 L 209.7503 19.5162 L 210.4708 19.5459 L 210.9563 19.6162 L 211.6768 19.6458 L 212.1623 19.7161 L 212.8828 19.7458 L 213.3683 19.8161 L 214.0887 19.8457 L 214.5742 19.9160 L 215.2947 19.9457 L 215.7802 20.0160 L 216.5007 20.0456 L 216.9862 20.1159 L 217.7067 20.1456 L 218.1922 20.2159 L 218.9127 20.2455 L 219.3981 20.3158 L 220.1186 20.3455 L 220.6041 20.4158 L 221.3246 20.4454 L 221.8101 20.5157 L 222.5306 20.5454 L 223.0161 20.6157 L 223.7366 20.6453 L 224.2221 20.7156 L 224.9425 20.7453 L 225.4280 20.8156 L 226.1485 20.8452 L 226.6340 20.9155 L 227.3545 20.9452 L 227.8400 21.0155 L 228.5605 21.0451 L 229.0460 21.1154 L 229.7665 21.1451 L 230.2519 21.2154 L 230.9724 21.2450 L 231.4579 21.3153 L 232.1784 21.3450 L 232.6639 21.4153 L 233.3844 21.4449 L 233.8699 21.5152 L 234.5904 21.5449 L 235.0759 21.6152 L 235.7963 21.6448 L 236.2818 21.7151 L 237.0023 21.7448 L 237.4878 21.8151 L 238.2083 21.8447 L 238.6938 21.9150 L 239.4143 21.9447 L 239.8998 22.0150 L 240.6203 22.0446 L 241.1057 22.1149 L 241.8262 22.1446 L 242.3117 22.2149 L 243.0322 22.2445 L 243.5177 22.3148 L 244.2382 22.3445 L 244.7237 22.4148 L 245.4442 22.4444 L 245.9297 22.5147 L 246.6501 22.5444 L 247.1356 22.6147 L 247.8561 22.6443 L 248.3416 22.7146 L 249.0621 22.7443 L 249.5476 22.8146 L 250.2681 22.8442 L 250.7536 22.9145 L 251.4741 22.9442 L 251.9595 23.0145 L 252.6800 23.0441 L 253.1655 23.1144 L 253.8860 23.1441 L 254.3715 23.2144 L 255.0920 23.2440 L 255.5775 23.3143 L 256.2980 23.3440 L 256.7835 23.4143 L 257.5039 23.4439 L 257.9894 23.5143 L 258.7099 23.5439 L 259.1954 23.6142 L 259.9159 23.6438 L 260.4014 23.7142 L 261.1219 23.7438 L 261.6074 23.8141 L 262.3279 23.8437 L 262.8133 23.9141 L 263.5338 23.9437 L 264.0193 24.0140 L 264.7398 24.0436 L 265.2253 24.1140 L 265.9458 24.1436 L 266.4313 24.2139 L 267.1518 24.2435 L 267.6373 24.3139 L 268.3577 24.3435 L 268.8432 24.4138 L 269.5637 24.4434 L 270.0492 24.5138 L 270.7697 24.5434 L 271.2552 24.6137 L 271.9757 24.6433 L 272.4612 24.7137 L 273.1817 24.7433 L 273.6671 24.8136 L 274.3876 24.8432 L 274.8731 24.9136 L 275.5936 24.9432 L 276.0791 25.0135 L 276.7996 25.0431 L 277.2851 25.1135 L 278.0056 25.1431 L 278.4911 25.2134 L 279.2115 25.2430 L 279.6970 25.3134 L 280.4175 25.3430 L 280.9030 25.4133 L 281.6235 25.4429 L 282.1090 25.5133 L 282.8295 25.5429 L 283.3150 25.6132 L 284.0355 25.6428 L 284.5209 25.7132 L 285.2414 25.7428 L 285.7269 25.8131 L 286.4474 25.8427 L 286.9329 25.9131 L 287.6534 25.9427 L 288.1389 26.0130 L 288.8594 26.0426 L 289.3449 26.1130 L 290.0653 26.1426 L 290.5508 26.2129 L 291.2713 26.2425 L 291.7568 26.3129 L 292.4773 26.3425 L 292.9628 26.4128 L 293.6833 26.4424 L 294.1688 26.5128 L 294.8893 26.5424 L 295.3748 26.6127 L 296.0952 26.6423 L 296.5807 26.7127 L 297.3012 26.7423 L 297.7867 26.8126 L 298.5072 26.8422 L 298.9927 26.9126 L 299.7132 26.9422 L 300.1987 27.0125 L 300.9191 27.0421 L 301.4046 27.1125 L 303.0388 27.1796 L 304.4469 27.0474 L 305.6049 26.7180 L 306.4931 26.1972 L 307.0962 25.4937 L 307.4039 24.6197 L 307.4109 23.5901 L 307.1171 22.4225 L 306.5275 21.1369 L 305.6523 19.7553 L 304.5063 18.3014 L 303.1093 16.7999 L 301.4851 15.2767 L 299.6615 13.7577 L 297.6697 12.2689 L 295.5437 10.8359 L 293.3201 9.4832 L 291.0367 8.2338 L 288.7327 7.1092 L 286.4475 6.1286 L 284.2202 5.3088 L 282.0890 4.6638 L 280.0901 4.2047 L 278.2580 3.9392 L 276.6239 3.8721 L 276.4665 3.8869 L 275.4978 3.8470 L 275.3404 3.8618 L 274.3717 3.8220 L 274.2143 3.8368 L 273.2456 3.7969 L 273.0882 3.8117 L 272.1195 3.7719 L 271.9621 3.7867 L 270.9934 3.7469 L 270.8360 3.7616 L 269.8673 3.7218 L 269.7099 3.7366 L 268.7412 3.6968 L 268.5838 3.7116 L 267.6151 3.6717 L 267.4577 3.6865 L 266.4890 3.6467 L 266.3316 3.6615 L 265.3629 3.6217 L 265.2055 3.6364 L 264.2367 3.5966 L 264.0794 3.6114 L 263.1106 3.5716 L 262.9533 3.5864 L 261.9845 3.5465 L 261.8272 3.5613 L 260.8584 3.5215 L 260.7010 3.5363 L 259.7323 3.4964 L 259.5749 3.5112 L 258.6062 3.4714 L 258.4488 3.4862 L 257.4801 3.4464 L 257.3227 3.4611 L 256.3540 3.4213 L 256.1966 3.4361 L 255.2279 3.3963 L 255.0705 3.4111 L 254.1018 3.3712 L 253.9444 3.3860 L 252.9757 3.3462 L 252.8183 3.3610 L 251.8496 3.3212 L 251.6922 3.3359 L 250.7235 3.2961 L 250.5661 3.3109 L 249.5974 3.2711 L 249.4400 3.2859 L 248.4713 3.2460 L 248.3139 3.2608 L 247.3452 3.2210 L 247.1878 3.2358 L 246.2191 3.1959 L 246.0617 3.2107 L 245.0930 3.1709 L 244.9356 3.1857 L 243.9669 3.1459 L 243.8095 3.1606 L 242.8408 3.1208 L 242.6834 3.1356 L 241.7147 3.0958 L 241.5573 3.1106 L 240.5886 3.0707 L 240.4312 3.0855 L 239.4624 3.0457 L 239.3051 3.0605 L 238.3363 3.0207 L 238.1790 3.0354 L 237.2102 2.9956 L 237.0529 3.0104 L 236.0841 2.9706 L 235.9267 2.9854 L 234.9580 2.9455 L 234.8006 2.9603 L 233.8319 2.9205 L 233.6745 2.9353 L 232.7058 2.8954 L 232.5484 2.9102 L 231.5797 2.8704 L 231.4223 2.8852 L 230.4536 2.8454 L 230.2962 2.8601 L 229.3275 2.8203 L 229.1701 2.8351 L 228.2014 2.7953 L 228.0440 2.8101 L 227.0753 2.7702 L 226.9179 2.7850 L 225.9492 2.7452 L 225.7918 2.7600 L 224.8231 2.7202 L 224.6657 2.7349 L 223.6970 2.6951 L 223.5396 2.7099 L 222.5709 2.6701 L 222.4135 2.6849 L 221.4448 2.6450 L 221.2874 2.6598 L 220.3187 2.6200 L 220.1613 2.6348 L 219.1926 2.5949 L 219.0352 2.6097 L 218.0665 2.5699 L 217.9091 2.5847 L 216.9404 2.5449 L 216.7830 2.5596 L 215.8143 2.5198 L 215.6569 2.5346 L 214.6882 2.4948 L 214.5308 2.5096 L 213.5620 2.4697 L 213.4047 2.4845 L 212.4359 2.4447 L 212.2786 2.4595 L 211.3098 2.4197 L 211.1525 2.4344 L 210.1837 2.3946 L 210.0263 2.4094 L 209.0576 2.3696 L 208.9002 2.3843 L 207.9315 2.3445 L 207.7741 2.3593 L 206.8054 2.3195 L 206.6480 2.3343 L 205.6793 2.2944 L 205.5219 2.3092 L 204.5532 2.2694 L 204.3958 2.2842 L 203.4271 2.2444 L 203.2697 2.2591 L 202.3010 2.2193 L 202.1436 2.2341 L 201.1749 2.1943 L 201.0175 2.2091 L 200.0488 2.1692 L 199.8914 2.1840 L 198.9227 2.1442 L 198.7653 2.1590 L 197.7966 2.1192 L 197.6392 2.1339 L 196.6705 2.0941 L 196.5131 2.1089 L 195.5444 2.0691 L 195.3870 2.0838 L 194.4183 2.0440 L 194.2609 2.0588 L 193.2922 2.0190 L 193.1348 2.0338 L 192.1661 1.9939 L 192.0087 2.0087 L 191.0400 1.9689 L 190.8826 1.9837 L 189.9139 1.9439 L 189.7565 1.9586 L 188.7878 1.9188 L 188.6304 1.9336 L 187.6616 1.8938 L 187.5043 1.9086 L 186.5355 1.8687 L 186.3782 1.8835 L 185.4094 1.8437 L 185.2520 1.8585 L 184.2833 1.8187 L 184.1259 1.8334 L 183.1572 1.7936 L 182.9998 1.8084 L 182.0311 1.7686 L 181.8737 1.7833 L 180.9050 1.7435 L 180.7476 1.7583 L 179.7789 1.7185 L 179.6215 1.7333 L 178.6528 1.6934 L 178.4954 1.7082 L 177.5267 1.6684 L 177.3693 1.6832 L 176.4006 1.6434 L 176.2432 1.6581 L 175.2745 1.6183 L 175.1171 1.6331 L 174.1484 1.5933 L 173.9910 1.6081 L 173.0223 1.5682 L 172.8649 1.5830 L 171.8962 1.5432 L 171.7388 1.5580 L 170.7701 1.5182 L 170.6127 1.5329 L 169.6440 1.4931 L 169.4866 1.5079 L 168.5179 1.4681 L 168.3605 1.4828 L 167.3918 1.4430 L 167.2344 1.4578 L 166.2657 1.4180 L 166.1083 1.4328 L 165.1396 1.3929 L 164.9822 1.4077 L 164.0135 1.3679 L 163.8561 1.3827 L 162.8873 1.3429 L 162.7300 1.3576 L 161.7612 1.3178 L 161.6039 1.3326 L 160.6351 1.2928 L 160.4778 1.3076 L 159.5090 1.2677 L 159.3516 1.2825 L 158.3829 1.2427 L 158.2255 1.2575 L 157.2568 1.2177 L 157.0994 1.2324 L 156.1307 1.1926 L 155.9733 1.2074 L 155.0046 1.1676 L 154.8472 1.1823 L 153.8785 1.1425 L 153.7211 1.1573 L 152.7524 1.1175 L 152.5950 1.1323 L 151.6263 1.0924 L 151.4689 1.1072 L 150.5002 1.0674 L 150.3428 1.0822 L 149.3741 1.0424 L 149.2167 1.0571 L 148.2480 1.0173 L 148.0906 1.0321 L 147.1219 0.9923 L 146.9645 1.0071 L 145.9958 0.9672 L 145.8384 0.9820 L 144.8697 0.9422 L 144.7123 0.9570 L 143.7436 0.9172 L 143.5862 0.9319 L 142.6175 0.8921 L 142.4601 0.9069 L 141.4914 0.8671 L 141.3340 0.8818 L 140.3653 0.8420 L 140.2079 0.8568 L 139.2392 0.8170 L 139.0818 0.8318 L 138.1131 0.7919 L 137.9557 0.8067 L 136.9869 0.7669 L 136.8296 0.7817 L 135.8608 0.7419 L 135.7035 0.7566 L 134.7347 0.7168 L 134.5758 0.7317 L 134.5738 0.7315 L 133.6086 0.6918 L 133.4474 0.7069 L 133.4425 0.7062 L 132.4825 0.6667 L 132.3190 0.6821 L 132.3111 0.6809 L 131.3564 0.6417 L 131.1906 0.6573 L 131.1797 0.6557 L 130.2303 0.6167 L 130.0622 0.6324 L 130.0483 0.6304 L 129.1042 0.5916 L 128.9339 0.6076 L 128.9170 0.6052 L 127.9781 0.5666 L 127.8055 0.5828 L 127.7856 0.5799 L 126.8520 0.5415 L 126.6771 0.5580 L 126.6542 0.5546 L 125.7259 0.5165 L 125.5487 0.5331 L 125.5229 0.5294 L 124.5998 0.4914 L 124.4203 0.5083 L 124.3915 0.5041 L 123.4737 0.4664 L 123.2919 0.4835 L 123.2601 0.4789 L 122.3476 0.4414 L 122.1635 0.4586 L 122.1287 0.4536 L 121.2215 0.4163 L 121.0351 0.4338 L 120.9974 0.4284 L 120.0954 0.3913 L 119.9067 0.4090 L 119.8660 0.4031 L 118.9693 0.3662 L 118.7783 0.3842 L 118.7346 0.3778 L 117.8432 0.3412 L 117.6499 0.3593 L 117.6033 0.3526 L 116.7171 0.3162 L 116.5215 0.3345 L 116.4719 0.3273 L 115.5910 0.2911 L 115.3931 0.3097 L 115.3405 0.3021 L 114.4649 0.2661 L 114.2647 0.2849 L 114.2091 0.2768 L 113.3388 0.2410 L 113.1363 0.2600 L 113.0778 0.2515 L 112.2127 0.2160 L 112.0080 0.2352 L 111.9464 0.2263 L 111.0865 0.1909 L 110.8796 0.2104 L 110.8150 0.2010 L 109.9604 0.1659 L 109.7512 0.1856 L 109.6837 0.1758 L 108.8343 0.1409 L 108.6228 0.1607 L 108.5523 0.1505 L 107.7082 0.1158 L 107.4944 0.1359 L 107.4209 0.1253 L 106.5821 0.0908 L 106.3660 0.1111 L 106.2895 0.1000 L 105.4560 0.0657 L 105.2376 0.0862 L 105.1582 0.0747 L 104.3299 0.0407 L 104.1092 0.0614 L 104.0268 0.0495 L 103.2038 0.0157 L 102.9808 0.0366 L 102.8954 0.0242 L 102.0777 -0.0094 L 101.8524 0.0118 L 101.7641 -0.0010 L 100.9516 -0.0344 L 100.7240 -0.0131 L 100.6327 -0.0263 L 99.8255 -0.0595 L 99.5956 -0.0379 L 99.5013 -0.0516 L 98.6994 -0.0845 L 98.4672 -0.0627 L 98.3699 -0.0768 L 97.5733 -0.1096 L 97.3388 -0.0875 L 97.2386 -0.1021 L 96.4472 -0.1346 L 96.2104 -0.1124 L 96.1072 -0.1273 L 95.3211 -0.1596 L 95.0821 -0.1372 L 94.9758 -0.1526 L 94.1950 -0.1847 L 93.9537 -0.1620 L 93.8445 -0.1778 L 93.0689 -0.2097 L 92.8253 -0.1868 L 92.7131 -0.2031 L 91.9428 -0.2348 L 91.6969 -0.2117 L 91.5817 -0.2284 L 90.8167 -0.2598 L 90.5685 -0.2365 L 90.4503 -0.2536 L 89.6906 -0.2848 L 89.4401 -0.2613 L 89.3190 -0.2789 L 88.5645 -0.3099 L 88.3117 -0.2862 L 88.1876 -0.3041 L 87.4384 -0.3349 L 87.1833 -0.3110 L 87.0562 -0.3294 L 86.3122 -0.3600 L 86.0549 -0.3358 L 85.9249 -0.3547 L 85.1861 -0.3850 L 84.9265 -0.3606 L 84.7935 -0.3799 L 84.0600 -0.4101 L 83.7981 -0.3855 L 83.6621 -0.4052 L 82.9339 -0.4351 L 82.6697 -0.4103 L 82.5307 -0.4304 L 81.8078 -0.4601 L 81.5413 -0.4351 L 81.3994 -0.4557 L 80.6817 -0.4852 L 80.4129 -0.4599 L 80.2680 -0.4809 L 79.5556 -0.5102 L 79.2845 -0.4848 L 79.1366 -0.5062 L 78.4295 -0.5353 L 78.1562 -0.5096 L 78.0053 -0.5315 L 77.3034 -0.5603 L 77.0278 -0.5344 L 76.8739 -0.5567 L 76.1773 -0.5853 L 75.8994 -0.5593 L 75.7425 -0.5820 L 75.0512 -0.6104 L 74.7710 -0.5841 L 74.6111 -0.6072 L 73.9251 -0.6354 L 73.6426 -0.6089 L 73.4798 -0.6325 L 72.7990 -0.6605 L 72.5142 -0.6337 L 72.3484 -0.6577 L 71.6729 -0.6855 L 71.3858 -0.6586 L 71.2170 -0.6830 L 70.5468 -0.7106 L 70.2574 -0.6834 L 70.0857 -0.7083 L 69.4207 -0.7356 L 69.1290 -0.7082 L 68.9543 -0.7335 L 68.2946 -0.7606 L 68.0006 -0.7330 L 67.8229 -0.7588 L 67.1685 -0.7857 L 66.8722 -0.7579 L 66.6915 -0.7840 L 66.0424 -0.8107 L 65.7438 -0.7827 L 65.5602 -0.8093 L 64.9163 -0.8358 L 64.6154 -0.8075 L 64.4288 -0.8346 L 63.7902 -0.8608 L 63.4870 -0.8323 L 63.2974 -0.8598 L 62.6641 -0.8858 L 62.3586 -0.8572 L 62.1661 -0.8851 L 61.5380 -0.9109 L 61.2303 -0.8820 L 61.0347 -0.9103 L 60.4118 -0.9359 L 60.1019 -0.9068 L 59.9033 -0.9356 L 59.2857 -0.9610 L 58.9735 -0.9317 L 58.7719 -0.9608 L 58.1596 -0.9860 L 57.8451 -0.9565 L 57.6406 -0.9861 L 57.0335 -1.0111 L 56.7167 -0.9813 L 56.5092 -1.0114 L 55.9074 -1.0361 L 55.5883 -1.0061 L 55.3778 -1.0366 L 54.7813 -1.0611 L 54.4599 -1.0310 L 54.2465 -1.0619 L 53.6552 -1.0862 L 53.3315 -1.0558 L 53.1151 -1.0871 L 52.5291 -1.1112 L 52.2031 -1.0806 L 51.9837 -1.1124 L 51.4030 -1.1363 L 51.0747 -1.1054 L 50.8523 -1.1377 L 50.2769 -1.1613 L 49.9463 -1.1303 L 49.7210 -1.1629 L 49.1508 -1.1864 L 48.8179 -1.1551 L 48.5896 -1.1882 L 48.0247 -1.2114 L 47.6895 -1.1799 L 47.4582 -1.2134 L 46.8986 -1.2364 L 46.5611 -1.2047 L 46.3269 -1.2387 L 45.7725 -1.2615 L 45.4327 -1.2296 L 45.1955 -1.2639 L 44.6464 -1.2865 L 44.3044 -1.2544 L 44.0641 -1.2892 L 43.5203 -1.3116 L 43.1760 -1.2792 L 42.9327 -1.3145 L 42.3942 -1.3366 L 42.0476 -1.3041 L 41.8014 -1.3397 L 41.2681 -1.3616 L 40.9192 -1.3289 L 40.6700 -1.3650 L 40.1420 -1.3867 L 39.7908 -1.3537 L 39.5386 -1.3902 L 39.0159 -1.4117 L 38.6624 -1.3785 L 38.4073 -1.4155 L 37.8898 -1.4368 L 37.5340 -1.4034 L 37.2759 -1.4408 L 36.7637 -1.4618 L 36.4056 -1.4282 L 36.1445 -1.4660 L 35.6376 -1.4869 L 35.2772 -1.4530 L 35.0131 -1.4913 L 34.5114 -1.5119 L 34.1488 -1.4778 L 33.8818 -1.5165 L 33.3853 -1.5369 L 33.0204 -1.5027 L 32.7504 -1.5418 L 32.2592 -1.5620 L 31.8920 -1.5275 L 31.6190 -1.5670 L 31.1331 -1.5870 L 30.7636 -1.5523 L 30.4877 -1.5923 L 30.0070 -1.6121 L 29.6352 -1.5771 L 29.3563 -1.6176 L 28.8809 -1.6371 L 28.5068 -1.6020 L 28.2249 -1.6428 L 27.7548 -1.6621 L 27.3785 -1.6268 L 27.0935 -1.6681 L 26.6287 -1.6872 L 26.2501 -1.6516 L 25.9622 -1.6933 L 25.5026 -1.7122 L 25.1217 -1.6765 L 24.8308 -1.7186 L 24.3765 -1.7373 L 23.9933 -1.7013 L 23.6994 -1.7439 L 23.2504 -1.7623 L 22.8649 -1.7261 L 22.5680 -1.7691 L 22.1243 -1.7874 L 21.7419 -1.7514 L 21.7389 -1.7506 L 21.4367 -1.7944 L 20.9982 -1.8124 L 20.6203 -1.7769 L 20.6135 -1.7750 L 20.3053 -1.8196 L 19.8721 -1.8374 L 19.4988 -1.8024 L 19.4882 -1.7994 L 19.1739 -1.8449 L 18.7460 -1.8625 L 18.3772 -1.8278 L 18.3628 -1.8237 L 18.0426 -1.8701 L 17.6199 -1.8875 L 17.2556 -1.8533 L 17.2374 -1.8481 L 16.9112 -1.8954 L 16.4938 -1.9126 L 16.1341 -1.8788 L 16.1121 -1.8725 L 15.7798 -1.9207 L 15.3677 -1.9376 L 15.0125 -1.9043 L 14.9867 -1.8969 L 14.6484 -1.9459 L 14.2416 -1.9626 L 13.8910 -1.9297 L 13.8614 -1.9213 L 13.5171 -1.9712 L 13.1155 -1.9877 L 12.7694 -1.9552 L 12.7360 -1.9457 L 12.3857 -1.9964 L 11.9894 -2.0127 L 11.6478 -1.9807 L 11.6106 -1.9701 L 11.2543 -2.0217 L 10.8633 -2.0378 L 10.5263 -2.0061 L 10.4853 -1.9945 L 10.1230 -2.0470 L 9.7371 -2.0628 L 9.4047 -2.0316 L 9.3599 -2.0189 L 8.9916 -2.0722 L 8.6110 -2.0879 L 8.2831 -2.0571 L 8.2345 -2.0432 L 7.8602 -2.0975 L 7.4849 -2.1129 L 7.1616 -2.0825 L 7.1092 -2.0676 L 6.7288 -2.1227 L 6.3588 -2.1379 L 6.0400 -2.1080 L 5.9838 -2.0920 L 5.5975 -2.1480 L 5.2327 -2.1630 L 4.9184 -2.1335 L 4.8584 -2.1164 L 4.4661 -2.1732 L 4.1066 -2.1880 L 3.7969 -2.1589 L 3.7329 -2.1407 L 3.7319 -2.1410 L 3.3347 -2.1985 L 2.9805 -2.2131 L 2.6753 -2.1844 L 2.6056 -2.1646 L 2.5946 -2.1671 L 2.2034 -2.2238 L 1.8544 -2.2381 L 1.5537 -2.2099 L 1.4782 -2.1884 L 1.4573 -2.1932 L 1.0720 -2.2490 L 0.7283 -2.2631 L 0.4322 -2.2353 L 0.3509 -2.2122 L 0.3200 -2.2193 L -0.0594 -2.2743 L -0.3978 -2.2882 L -0.6894 -2.2608 L -0.7764 -2.2360 L -0.8172 -2.2454 L -1.1908 -2.2995 L -1.5239 -2.3132 L -1.8110 -2.2863 L -1.9038 -2.2599 L -1.9545 -2.2715 L -2.3221 -2.3248 L -2.6500 -2.3383 L -2.9325 -2.3117 L -3.1649 -2.2457 L -3.3431 -2.1411 L -3.4641 -2.0000 L -3.5258 -1.8246 L -3.5272 -1.6181 Z"/>
  <g id="debug">
  <path fill="none" stroke="#ff3366" stroke-opacity="0.6" stroke-width="0.5" d="M 0 0 L 1.5075 0 L 3.0151 0 L 4.5226 0 L 6.0302 0 L 7.5377 0 L 9.0452 0 L 10.5528 0 L 12.0603 0 L 13.5678 0 L 15.0754 0 L 16.5829 0 L 18.0905 0 L 19.5980 0 L 21.1055 0 L 22.6131 0 L 24.1206 0 L 25.6281 0 L 27.1357 0 L 28.6432 0 L 30.1508 0 L 31.6583 0 L 33.1658 0 L 34.6734 0 L 36.1809 0 L 37.6884 0 L 39.1960 0 L 40.7035 0 L 42.2111 0 L 43.7186 0 L 45.2261 0 L 46.7337 0 L 48.2412 0 L 49.7487 0 L 51.2563 0 L 52.7638 0 L 54.2714 0 L 55.7789 0 L 57.2864 0 L 58.7940 0 L 60.3015 0 L 61.8090 0 L 63.3166 0 L 64.8241 0 L 66.3317 0 L 67.8392 0 L 69.3467 0 L 70.8543 0 L 72.3618 0 L 73.8693 0 L 75.3769 0 L 76.8844 0 L 78.3920 0 L 79.8995 0 L 81.4070 0 L 82.9146 0 L 84.4221 0 L 85.9296 0 L 87.4372 0 L 88.9447 0 L 90.4523 0 L 91.9598 0 L 93.4673 0 L 94.9749 0 L 96.4824 0 L 97.9899 0 L 99.4975 0 L 101.0050 0 L 102.5126 0 L 104.0201 0 L 105.5276 0 L 107.0352 0 L 108.5427 0 L 110.0503 0 L 111.5578 0 L 113.0653 0 L 114.5729 0 L 116.0804 0 L 117.5879 0 L 119.0955 0 L 120.6030 0 L 122.1106 0 L 123.6181 0 L 125.1256 0 L 126.6332 0 L 128.1407 0 L 129.6482 0 L 131.1558 0 L 132.6633 0 L 134.1709 0 L 135.6784 0 L 137.1859 0 L 138.6935 0 L 140.2010 0 L 141.7085 0 L 143.2161 0 L 144.7236 0 L 146.2312 0 L 147.7387 0 L 149.2462 0 L 150.7538 0 L 152.2613 0 L 153.7688 0 L 155.2764 0 L 156.7839 0 L 158.2915 0 L 159.7990 0 L 161.3065 0 L 162.8141 0 L 164.3216 0 L 165.8291 0 L 167.3367 0 L 168.8442 0 L 170.3518 0 L 171.8593 0 L 173.3668 0 L 174.8744 0 L 176.3819 0 L 177.8894 0 L 179.3970 0 L 180.9045 0 L 182.4121 0 L 183.9196 0 L 185.4271 0 L 186.9347 0 L 188.4422 0 L 189.9497 0 L 191.4573 0 L 192.9648 0 L 194.4724 0 L 195.9799 0 L 197.4874 0 L 198.9950 0 L 200.5025 0 L 202.0101 0 L 203.5176 0 L 205.0251 0 L 206.5327 0 L 208.0402 0 L 209.5477 0 L 211.0553 0 L 212.5628 0 L 214.0704 0 L 215.5779 0 L 217.0854 0 L 218.5930 0 L 220.1005 0 L 221.6080 0 L 223.1156 0 L 224.6231 0 L 226.1307 0 L 227.6382 0 L 229.1457 0 L 230.6533 0 L 232.1608 0 L 233.6683 0 L 235.1759 0 L 236.6834 0 L 238.1910 0 L 239.6985 0 L 241.2060 0 L 242.7136 0 L 244.2211 0 L 245.7286 0 L 247.2362 0 L 248.7437 0 L 250.2513 0 L 251.7588 0 L 253.2663 0 L 254.7739 0 L 256.2814 0 L 257.7889 0 L 259.2965 0 L 260.8040 0 L 262.3116 0 L 263.8191 0 L 265.3266 0 L 266.8342 0 L 268.3417 0 L 269.8492 0 L 271.3568 0 L 272.8643 0 L 274.3719 0 L 275.8794 0 L 277.3869 0 L 278.8945 0 L 280.4020 0 L 281.9095 0 L 283.4171 0 L 284.9246 0 L 286.4322 0 L 287.9397 0 L 289.4472 0 L 290.9548 0 L 292.4623 0 L 293.9698 0 L 295.4774 0 L 296.9849 0 L 298.4925 0 L 300.0000 0"/>
  <path fill="none" stroke="#ff9900" stroke-opacity="0.6" stroke-width="0.6" d=""/>
  <path fill="none" stroke="#222222" stroke-opacity="0.7" stroke-width="0.6" d=""/>
  <path fill="none" stroke="#00aaff" stroke-opacity="0.6" stroke-width="0.6" d=""/>
  <circle cx="0" cy="0" r="0.6000" fill="#222222" fill-opacity="0.5"/>
    <circle cx="1.1687" cy="0.0626" r="0.6000" fill="#222222" fill-opacity="0.5"/>
    <circle cx="2.3373" cy="0.1252" r="0.6000" fill="#222222" fill-opacity="0.5"/>
    <circle cx="3.5060" cy="0.1878" r="0.6000" fill="#222222" fill-opacity="0.5"/>
    <circle cx="4.6747" cy="0.2504" r="0.6000" fill="#222222" fill-opacity="0.5"/>
    <circle cx="5.8434" cy="0.3130" r="0.6000" fill="#222222" fill-opacity="0.5"/>
    <circle cx="7.0120" cy="0.3756" r="0.6000" fill="#222222" fill-opacity="0.5"/>
    <circle cx="8.1807" cy="0.4382" r="0.6000" fill="#222222" fill-opacity="0.5"/>
    <circle cx="9.3494" cy="0.5008" r="0.6000" fill="#222222" fill-opacity="0.5"/>
    <circle cx="10.5181" cy="0.5634" r="0.6000" fill="#222222" fill-opacity="0.5"/>
    <circle cx="11.6867" cy="0.6260" r="0.6000" fill="#222222" fill-opacity="0.5"/>
    <circle cx="12.8554" cy="0.6886" r="0.6000" fill="#222222" fill-opacity="0.5"/>
    <circle cx="14.0241" cy="0.7513" r="0.6000" fill="#222222" fill-opacity="0.5"/>
    <circle cx="15.1928" cy="0.8139" r="0.6000" fill="#222222" fill-opacity="0.5"/>
    <circle cx="16.3614" cy="0.8765" r="0.6000" fill="#222222" fill-opacity="0.5"/>
    <circle cx="17.5301" cy="0.9391" r="0.6000" fill="#222222" fill-opacity="0.5"/>
    <circle cx="18.6988" cy="1.0017" r="0.6000" fill="#222222" fill-opacity="0.5"/>
    <circle cx="19.8675" cy="1.0643" r="0.6000" fill="#222222" fill-opacity="0.5"/>
    <circle cx="21.0361" cy="1.1269" r="0.6000" fill="#222222" fill-opacity="0.5"/>
    <circle cx="22.2048" cy="1.1895" r="0.6000" fill="#222222" fill-opacity="0.5"/>
    <circle cx="23.3735" cy="1.2521" r="0.6000" fill="#222222" fill-opacity="0.5"/>
    <circle cx="24.5422" cy="1.3147" r="0.6000" fill="#222222" fill-opacity="0.5"/>
    <circle cx="25.7108" cy="1.3773" r="0.6000" fill="#222222" fill-opacity="0.5"/>
    <circle cx="26.8795" cy="1.4399" r="0.6000" fill="#222222" fill-opacity="0.5"/>
    <circle cx="28.0482" cy="1.5025" r="0.6000" fill="#222222" fill-opacity="0.5"/>
    <circle cx="29.2169" cy="1.5651" r="0.6000" fill="#222222" fill-opacity="0.5"/>
    <circle cx="30.3855" cy="1.6277" r="0.6000" fill="#222222" fill-opacity="0.5"/>
    <circle cx="31.5542" cy="1.6903" r="0.6000" fill="#222222" fill-opacity="0.5"/>
    <circle cx="32.7229" cy="1.7529" r="0.6000" fill="#222222" fill-opacity="0.5"/>
    <circle cx="33.8916" cy="1.8155" r="0.6000" fill="#222222" fill-opacity="0.5"/>
    <circle cx="35.0602" cy="1.8781" r="0.6000" fill="#222222" fill-opacity="0.5"/>
    <circle cx="36.2289" cy="1.9407" r="0.6000" fill="#222222" fill-opacity="0.5"/>
    <circle cx="37.3976" cy="2.0033" r="0.6000" fill="#222222" fill-opacity="0.5"/>
    <circle cx="38.5663" cy="2.0659" r="0.6000" fill="#222222" fill-opacity="0.5"/>
    <circle cx="39.7349" cy="2.1285" r="0.6000" fill="#222222" fill-opacity="0.5"/>
    <circle cx="40.9036" cy="2.1911" r="0.6000" fill="#222222" fill-opacity="0.5"/>
    <circle cx="42.0723" cy="2.2538" r="0.6000" fill="#222222" fill-opacity="0.5"/>
    <circle cx="43.2410" cy="2.3164" r="0.6000" fill="#222222" fill-opacity="0.5"/>
    <circle cx="44.4096" cy="2.3790" r="0.6000" fill="#222222" fill-opacity="0.5"/>
    <circle cx="45.5783" cy="2.4416" r="0.6000" fill="#222222" fill-opacity="0.5"/>
    <circle cx="46.7470" cy="2.5042" r="0.6000" fill="#222222" fill-opacity="0.5"/>
    <circle cx="47.9157" cy="2.5668" r="0.6000" fill="#222222" fill-opacity="0.5"/>
    <circle cx="49.0843" cy="2.6294" r="0.6000" fill="#222222" fill-opacity="0.5"/>
    <circle cx="50.2530" cy="2.6920" r="0.6000" fill="#222222" fill-opacity="0.5"/>
    <circle cx="51.4217" cy="2.7546" r="0.6000" fill="#222222" fill-opacity="0.5"/>
    <circle cx="52.5904" cy="2.8172" r="0.6000" fill="#222222" fill-opacity="0.5"/>
    <circle cx="53.7590" cy="2.8798" r="0.6000" fill="#222222" fill-opacity="0.5"/>
    <circle cx="54.9277" cy="2.9424" r="0.6000" fill="#222222" fill-opacity="0.5"/>
    <circle cx="56.0964" cy="3.0050" r="0.6000" fill="#222222" fill-opacity="0.5"/>
    <circle cx="57.2651" cy="3.0676" r="0.6000" fill="#222222" fill-opacity="0.5"/>
    <circle cx="58.4337" cy="3.1302" r="0.6000" fill="#222222" fill-opacity="0.5"/>
    <circle cx="59.6024" cy="3.1928" r="0.6000" fill="#222222" fill-opacity="0.5"/>
    <circle cx="60.7711" cy="3.2554" r="0.6000" fill="#222222" fill-opacity="0.5"/>
    <circle cx="61.9398" cy="3.3180" r="0.6000" fill="#222222" fill-opacity="0.5"/>
    <circle cx="63.1084" cy="3.3806" r="0.6000" fill="#222222" fill-opacity="0.5"/>
    <circle cx="64.2771" cy="3.4432" r="0.6000" fill="#222222" fill-opacity="0.5"/>
    <circle cx="65.4458" cy="3.5058" r="0.6000" fill="#222222" fill-opacity="0.5"/>
    <circle cx="66.6145" cy="3.5684" r="0.6000" fill="#222222" fill-opacity="0.5"/>
    <circle cx="67.7831" cy="3.6310" r="0.6000" fill="#222222" fill-opacity="0.5"/>
    <circle cx="68.9518" cy="3.6937" r="0.6000" fill="#222222" fill-opacity="0.5"/>
    <circle cx="70.1205" cy="3.7563" r="0.6000" fill="#222222" fill-opacity="0.5"/>
    <circle cx="71.2892" cy="3.8189" r="0.6000" fill="#222222" fill-opacity="0.5"/>
    <circle cx="72.4578" cy="3.8815" r="0.6000" fill="#222222" fill-opacity="0.5"/>
    <circle cx="73.6265" cy="3.9441" r="0.6000" fill="#222222" fill-opacity="0.5"/>
    <circle cx="74.7952" cy="4.0067" r="0.6000" fill="#222222" fill-opacity="0.5"/>
    <circle cx="75.9639" cy="4.0693" r="0.6000" fill="#222222" fill-opacity="0.5"/>
    <circle cx="77.1325" cy="4.1319" r="0.6000" fill="#222222" fill-opacity="0.5"/>
    <circle cx="78.3012" cy="4.1945" r="0.6000" fill="#222222" fill-opacity="0.5"/>
    <circle cx="79.4699" cy="4.2571" r="0.6000" fill="#222222" fill-opacity="0.5"/>
    <circle cx="80.6386" cy="4.3197" r="0.6000" fill="#222222" fill-opacity="0.5"/>
    <circle cx="81.8072" cy="4.3823" r="0.6000" fill="#222222" fill-opacity="0.5"/>
    <circle cx="82.9759" cy="4.4449" r="0.6000" fill="#222222" fill-opacity="0.5"/>
    <circle cx="84.1446" cy="4.5075" r="0.6000" fill="#222222" fill-opacity="0.5"/>
    <circle cx="85.3133" cy="4.5701" r="0.6000" fill="#222222" fill-opacity="0.5"/>
    <circle cx="86.4819" cy="4.6327" r="0.6000" fill="#222222" fill-opacity="0.5"/>
    <circle cx="87.6506" cy="4.6953" r="0.6000" fill="#222222" fill-opacity="0.5"/>
    <circle cx="88.8193" cy="4.7579" r="0.6000" fill="#222222" fill-opacity="0.5"/>
    <circle cx="89.9880" cy="4.8205" r="0.6000" fill="#222222" fill-opacity="0.5"/>
    <circle cx="91.1566" cy="4.8831" r="0.6000" fill="#222222" fill-opacity="0.5"/>
    <circle cx="92.3253" cy="4.9457" r="0.6000" fill="#222222" fill-opacity="0.5"/>
    <circle cx="93.4940" cy="5.0083" r="0.6000" fill="#222222" fill-opacity="0.5"/>
    <circle cx="94.6627" cy="5.0709" r="0.6000" fill="#222222" fill-opacity="0.5"/>
    <circle cx="95.8313" cy="5.1335" r="0.6000" fill="#222222" fill-opacity="0.5"/>
    <circle cx="97.0000" cy="5.1962" r="0.6000" fill="#222222" fill-opacity="0.5"/>
    <circle cx="98.1687" cy="5.2588" r="0.6000" fill="#222222" fill-opacity="0.5"/>
    <circle cx="99.3373" cy="5.3214" r="0.6000" fill="#222222" fill-opacity="0.5"/>
    <circle cx="100.5060" cy="5.3840" r="0.6000" fill="#222222" fill-opacity="0.5"/>
    <circle cx="101.6747" cy="5.4466" r="0.6000" fill="#222222" fill-opacity="0.5"/>
    <circle cx="102.8434" cy="5.5092" r="0.6000" fill="#222222" fill-opacity="0.5"/>
    <circle cx="104.0120" cy="5.5718" r="0.6000" fill="#222222" fill-opacity="0.5"/>
    <circle cx="105.1807" cy="5.6344" r="0.6000" fill="#222222" fill-opacity="0.5"/>
    <circle cx="106.3494" cy="5.6970" r="0.6000" fill="#222222" fill-opacity="0.5"/>
    <circle cx="107.5181" cy="5.7596" r="0.6000" fill="#222222" fill-opacity="0.5"/>
    <circle cx="108.6867" cy="5.8222" r="0.6000" fill="#222222" fill-opacity="0.5"/>
    <circle cx="109.8554" cy="5.8848" r="0.6000" fill="#222222" fill-opacity="0.5"/>
    <circle cx="111.0241" cy="5.9474" r="0.6000" fill="#222222" fill-opacity="0.5"/>
    <circle cx="112.1928" cy="6.0100" r="0.6000" fill="#222222" fill-opacity="0.5"/>
    <circle cx="113.3614" cy="6.0726" r="0.6000" fill="#222222" fill-opacity="0.5"/>
    <circle cx="114.5301" cy="6.1352" r="0.6000" fill="#222222" fill-opacity="0.5"/>
    <circle cx="115.6988" cy="6.1978" r="0.6000" fill="#222222" fill-opacity="0.5"/>
    <circle cx="116.8675" cy="6.2604" r="0.6000" fill="#222222" fill-opacity="0.5"/>
    <circle cx="118.0361" cy="6.3230" r="0.6000" fill="#222222" fill-opacity="0.5"/>
    <circle cx="119.2048" cy="6.3856" r="0.6000" fill="#222222" fill-opacity="0.5"/>
    <circle cx="120.3735" cy="6.4482" r="0.6000" fill="#222222" fill-opacity="0.5"/>
    <circle cx="121.5422" cy="6.5108" r="0.6000" fill="#222222" fill-opacity="0.5"/>
    <circle cx="122.7108" cy="6.5734" r="0.6000" fill="#222222" fill-opacity="0.5"/>
    <circle cx="123.8795" cy="6.6361" r="0.6000" fill="#222222" fill-opacity="0.5"/>
    <circle cx="125.0482" cy="6.6987" r="0.6000" fill="#222222" fill-opacity="0.5"/>
    <circle cx="126.2169" cy="6.7613" r="0.6000" fill="#222222" fill-opacity="0.5"/>
    <circle cx="127.3855" cy="6.8239" r="0.6000" fill="#222222" fill-opacity="0.5"/>
    <circle cx="128.5542" cy="6.8865" r="0.6000" fill="#222222" fill-opacity="0.5"/>
    <circle cx="129.7229" cy="6.9491" r="0.6000" fill="#222222" fill-opacity="0.5"/>
    <circle cx="130.8916" cy="7.0117" r="0.6000" fill="#222222" fill-opacity="0.5"/>
    <circle cx="132.0602" cy="7.0743" r="0.6000" fill="#222222" fill-opacity="0.5"/>
    <circle cx="133.2289" cy="7.1369" r="0.6000" fill="#222222" fill-opacity="0.5"/>
    <circle cx="134.3976" cy="7.1995" r="0.6000" fill="#222222" fill-opacity="0.5"/>
    <circle cx="135.5663" cy="7.2621" r="0.6000" fill="#222222" fill-opacity="0.5"/>
    <circle cx="136.7349" cy="7.3247" r="0.6000" fill="#222222" fill-opacity="0.5"/>
    <circle cx="137.9036" cy="7.3873" r="0.6000" fill="#222222" fill-opacity="0.5"/>
    <circle cx="139.0723" cy="7.4499" r="0.6000" fill="#222222" fill-opacity="0.5"/>
    <circle cx="140.2410" cy="7.5125" r="0.6000" fill="#222222" fill-opacity="0.5"/>
    <circle cx="141.4096" cy="7.5751" r="0.6000" fill="#222222" fill-opacity="0.5"/>
    <circle cx="142.5783" cy="7.6377" r="0.6000" fill="#222222" fill-opacity="0.5"/>
    <circle cx="143.7470" cy="7.7003" r="0.6000" fill="#222222" fill-opacity="0.5"/>
    <circle cx="144.9157" cy="7.7629" r="0.6000" fill="#222222" fill-opacity="0.5"/>
    <circle cx="146.0843" cy="7.8255" r="0.6000" fill="#222222" fill-opacity="0.5"/>
    <circle cx="147.2530" cy="7.8881" r="0.6000" fill="#222222" fill-opacity="0.5"/>
    <circle cx="148.4217" cy="7.9507" r="0.6000" fill="#222222" fill-opacity="0.5"/>
    <circle cx="149.5904" cy="8.0133" r="0.6000" fill="#222222" fill-opacity="0.5"/>
    <circle cx="150.7590" cy="8.0759" r="0.6000" fill="#222222" fill-opacity="0.5"/>
    <circle cx="151.9277" cy="8.1386" r="0.6000" fill="#222222" fill-opacity="0.5"/>
    <circle cx="153.0964" cy="8.2012" r="0.6000" fill="#222222" fill-opacity="0.5"/>
    <circle cx="154.2651" cy="8.2638" r="0.6000" fill="#222222" fill-opacity="0.5"/>
    <circle cx="155.4337" cy="8.3264" r="0.6000" fill="#222222" fill-opacity="0.5"/>
    <circle cx="156.6024" cy="8.3890" r="0.6000" fill="#222222" fill-opacity="0.5"/>
    <circle cx="157.7711" cy="8.4516" r="0.6000" fill="#222222" fill-opacity="0.5"/>
    <circle cx="158.9398" cy="8.5142" r="0.6000" fill="#222222" fill-opacity="0.5"/>
    <circle cx="160.1084" cy="8.5768" r="0.6000" fill="#222222" fill-opacity="0.5"/>
    <circle cx="161.2771" cy="8.6394" r="0.6000" fill="#222222" fill-opacity="0.5"/>
    <circle cx="162.4458" cy="8.7020" r="0.6000" fill="#222222" fill-opacity="0.5"/>
    <circle cx="163.6145" cy="8.7646" r="0.6000" fill="#222222" fill-opacity="0.5"/>
    <circle cx="164.7831" cy="8.8272" r="0.6000" fill="#222222" fill-opacity="0.5"/>
    <circle cx="165.9518" cy="8.8898" r="0.6000" fill="#222222" fill-opacity="0.5"/>
    <circle cx="167.1205" cy="8.9524" r="0.6000" fill="#222222" fill-opacity="0.5"/>
    <circle cx="168.2892" cy="9.0150" r="0.6000" fill="#222222" fill-opacity="0.5"/>
    <circle cx="169.4578" cy="9.0776" r="0.6000" fill="#222222" fill-opacity="0.5"/>
    <circle cx="170.6265" cy="9.1402" r="0.6000" fill="#222222" fill-opacity="0.5"/>
    <circle cx="171.7952" cy="9.2028" r="0.6000" fill="#222222" fill-opacity="0.5"/>
    <circle cx="172.9639" cy="9.2654" r="0.6000" fill="#222222" fill-opacity="0.5"/>
    <circle cx="174.1325" cy="9.3280" r="0.6000" fill="#222222" fill-opacity="0.5"/>
    <circle cx="175.3012" cy="9.3906" r="0.6000" fill="#222222" fill-opacity="0.5"/>
    <circle cx="176.4699" cy="9.4532" r="0.6000" fill="#222222" fill-opacity="0.5"/>
    <circle cx="177.6386" cy="9.5158" r="0.6000" fill="#222222" fill-opacity="0.5"/>
    <circle cx="178.8072" cy="9.5784" r="0.6000" fill="#222222" fill-opacity="0.5"/>
    <circle cx="179.9759" cy="9.6411" r="0.6000" fill="#222222" fill-opacity="0.5"/>
    <circle cx="181.1446" cy="9.7037" r="0.6000" fill="#222222" fill-opacity="0.5"/>
    <circle cx="182.3133" cy="9.7663" r="0.6000" fill="#222222" fill-opacity="0.5"/>
    <circle cx="183.4819" cy="9.8289" r="0.6000" fill="#222222" fill-opacity="0.5"/>
    <circle cx="184.6506" cy="9.8915" r="0.6000" fill="#222222" fill-opacity="0.5"/>
    <circle cx="185.8193" cy="9.9541" r="0.6000" fill="#222222" fill-opacity="0.5"/>
    <circle cx="186.9880" cy="10.0167" r="0.6000" fill="#222222" fill-opacity="0.5"/>
    <circle cx="188.1566" cy="10.0793" r="0.6000" fill="#222222" fill-opacity="0.5"/>
    <circle cx="189.3253" cy="10.1419" r="0.6000" fill="#222222" fill-opacity="0.5"/>
    <circle cx="190.4940" cy="10.2045" r="0.6000" fill="#222222" fill-opacity="0.5"/>
    <circle cx="191.6627" cy="10.2671" r="0.6000" fill="#222222" fill-opacity="0.5"/>
    <circle cx="192.8313" cy="10.3297" r="0.6000" fill="#222222" fill-opacity="0.5"/>
    <circle cx="194.0000" cy="10.3923" r="0.6000" fill="#222222" fill-opacity="0.5"/>
    <circle cx="195.1687" cy="10.4549" r="0.6000" fill="#222222" fill-opacity="0.5"/>
    <circle cx="196.3373" cy="10.5175" r="0.6000" fill="#222222" fill-opacity="0.5"/>
    <circle cx="197.5060" cy="10.5801" r="0.6000" fill="#222222" fill-opacity="0.5"/>
    <circle cx="198.6747" cy="10.6427" r="0.6000" fill="#222222" fill-opacity="0.5"/>
    <circle cx="199.8434" cy="10.7053" r="0.6000" fill="#222222" fill-opacity="0.5"/>
    <circle cx="201.0120" cy="10.7679" r="0.6000" fill="#222222" fill-opacity="0.5"/>
    <circle cx="202.1807" cy="10.8305" r="0.6000" fill="#222222" fill-opacity="0.5"/>
    <circle cx="203.3494" cy="10.8931" r="0.6000" fill="#222222" fill-opacity="0.5"/>
    <circle cx="204.5181" cy="10.9557" r="0.6000" fill="#222222" fill-opacity="0.5"/>
    <circle cx="205.6867" cy="11.0183" r="0.6000" fill="#222222" fill-opacity="0.5"/>
    <circle cx="206.8554" cy="11.0810" r="0.6000" fill="#222222" fill-opacity="0.5"/>
    <circle cx="208.0241" cy="11.1436" r="0.6000" fill="#222222" fill-opacity="0.5"/>
    <circle cx="209.1928" cy="11.2062" r="0.6000" fill="#222222" fill-opacity="0.5"/>
    <circle cx="210.3614" cy="11.2688" r="0.6000" fill="#222222" fill-opacity="0.5"/>
    <circle cx="211.5301" cy="11.3314" r="0.6000" fill="#222222" fill-opacity="0.5"/>
    <circle cx="212.6988" cy="11.3940" r="0.6000" fill="#222222" fill-opacity="0.5"/>
    <circle cx="213.8675" cy="11.4566" r="0.6000" fill="#222222" fill-opacity="0.5"/>
    <circle cx="215.0361" cy="11.5192" r="0.6000" fill="#222222" fill-opacity="0.5"/>
    <circle cx="216.2048" cy="11.5818" r="0.6000" fill="#222222" fill-opacity="0.5"/>
    <circle cx="217.3735" cy="11.6444" r="0.6000" fill="#222222" fill-opacity="0.5"/>
    <circle cx="218.5422" cy="11.7070" r="0.6000" fill="#222222" fill-opacity="0.5"/>
    <circle cx="219.7108" cy="11.7696" r="0.6000" fill="#222222" fill-opacity="0.5"/>
    <circle cx="220.8795" cy="11.8322" r="0.6000" fill="#222222" fill-opacity="0.5"/>
    <circle cx="222.0482" cy="11.8948" r="0.6000" fill="#222222" fill-opacity="0.5"/>
    <circle cx="223.2169" cy="11.9574" r="0.6000" fill="#222222" fill-opacity="0.5"/>
    <circle cx="224.3855" cy="12.0200" r="0.6000" fill="#222222" fill-opacity="0.5"/>
    <circle cx="225.5542" cy="12.0826" r="0.6000" fill="#222222" fill-opacity="0.5"/>
    <circle cx="226.7229" cy="12.1452" r="0.6000" fill="#222222" fill-opacity="0.5"/>
    <circle cx="227.8916" cy="12.2078" r="0.6000" fill="#222222" fill-opacity="0.5"/>
    <circle cx="229.0602" cy="12.2704" r="0.6000" fill="#222222" fill-opacity="0.5"/>
    <circle cx="230.2289" cy="12.3330" r="0.6000" fill="#222222" fill-opacity="0.5"/>
    <circle cx="231.3976" cy="12.3956" r="0.6000" fill="#222222" fill-opacity="0.5"/>
    <circle cx="232.5663" cy="12.4582" r="0.6000" fill="#222222" fill-opacity="0.5"/>
    <circle cx="233.7349" cy="12.5208" r="0.6000" fill="#222222" fill-opacity="0.5"/>
    <circle cx="234.9036" cy="12.5835" r="0.6000" fill="#222222" fill-opacity="0.5"/>
    <circle cx="236.0723" cy="12.6461" r="0.6000" fill="#222222" fill-opacity="0.5"/>
    <circle cx="237.2410" cy="12.7087" r="0.6000" fill="#222222" fill-opacity="0.5"/>
    <circle cx="238.4096" cy="12.7713" r="0.6000" fill="#222222" fill-opacity="0.5"/>
    <circle cx="239.5783" cy="12.8339" r="0.6000" fill="#222222" fill-opacity="0.5"/>
    <circle cx="240.7470" cy="12.8965" r="0.6000" fill="#222222" fill-opacity="0.5"/>
    <circle cx="241.9157" cy="12.9591" r="0.6000" fill="#222222" fill-opacity="0.5"/>
    <circle cx="243.0843" cy="13.0217" r="0.6000" fill="#222222" fill-opacity="0.5"/>
    <circle cx="244.2530" cy="13.0843" r="0.6000" fill="#222222" fill-opacity="0.5"/>
    <circle cx="245.4217" cy="13.1469" r="0.6000" fill="#222222" fill-opacity="0.5"/>
    <circle cx="246.5904" cy="13.2095" r="0.6000" fill="#222222" fill-opacity="0.5"/>
    <circle cx="247.7590" cy="13.2721" r="0.6000" fill="#222222" fill-opacity="0.5"/>
    <circle cx="248.9277" cy="13.3347" r="0.6000" fill="#222222" fill-opacity="0.5"/>
    <circle cx="250.0964" cy="13.3973" r="0.6000" fill="#222222" fill-opacity="0.5"/>
    <circle cx="251.2651" cy="13.4599" r="0.6000" fill="#222222" fill-opacity="0.5"/>
    <circle cx="252.4337" cy="13.5225" r="0.6000" fill="#222222" fill-opacity="0.5"/>
    <circle cx="253.6024" cy="13.5851" r="0.6000" fill="#222222" fill-opacity="0.5"/>
    <circle cx="254.7711" cy="13.6477" r="0.6000" fill="#222222" fill-opacity="0.5"/>
    <circle cx="255.9398" cy="13.7103" r="0.6000" fill="#222222" fill-opacity="0.5"/>
    <circle cx="257.1084" cy="13.7729" r="0.6000" fill="#222222" fill-opacity="0.5"/>
    <circle cx="258.2771" cy="13.8355" r="0.6000" fill="#222222" fill-opacity="0.5"/>
    <circle cx="259.4458" cy="13.8981" r="0.6000" fill="#222222" fill-opacity="0.5"/>
    <circle cx="260.6145" cy="13.9607" r="0.6000" fill="#222222" fill-opacity="0.5"/>
    <circle cx="261.7831" cy="14.0234" r="0.6000" fill="#222222" fill-opacity="0.5"/>
    <circle cx="262.9518" cy="14.0860" r="0.6000" fill="#222222" fill-opacity="0.5"/>
    <circle cx="264.1205" cy="14.1486" r="0.6000" fill="#222222" fill-opacity="0.5"/>
    <circle cx="265.2892" cy="14.2112" r="0.6000" fill="#222222" fill-opacity="0.5"/>
    <circle cx="266.4578" cy="14.2738" r="0.6000" fill="#222222" fill-opacity="0.5"/>
    <circle cx="267.6265" cy="14.3364" r="0.6000" fill="#222222" fill-opacity="0.5"/>
    <circle cx="268.7952" cy="14.3990" r="0.6000" fill="#222222" fill-opacity="0.5"/>
    <circle cx="269.9639" cy="14.4616" r="0.6000" fill="#222222" fill-opacity="0.5"/>
    <circle cx="271.1325" cy="14.5242" r="0.6000" fill="#222222" fill-opacity="0.5"/>
    <circle cx="272.3012" cy="14.5868" r="0.6000" fill="#222222" fill-opacity="0.5"/>
    <circle cx="273.4699" cy="14.6494" r="0.6000" fill="#222222" fill-opacity="0.5"/>
    <circle cx="274.6386" cy="14.7120" r="0.6000" fill="#222222" fill-opacity="0.5"/>
    <circle cx="275.8072" cy="14.7746" r="0.6000" fill="#222222" fill-opacity="0.5"/>
    <circle cx="276.9759" cy="14.8372" r="0.6000" fill="#222222" fill-opacity="0.5"/>
    <circle cx="278.1446" cy="14.8998" r="0.6000" fill="#222222" fill-opacity="0.5"/>
    <circle cx="279.3133" cy="14.9624" r="0.6000" fill="#222222" fill-opacity="0.5"/>
    <circle cx="280.4819" cy="15.0250" r="0.6000" fill="#222222" fill-opacity="0.5"/>
    <circle cx="281.6506" cy="15.0876" r="0.6000" fill="#222222" fill-opacity="0.5"/>
    <circle cx="282.8193" cy="15.1502" r="0.6000" fill="#222222" fill-opacity="0.5"/>
    <circle cx="283.9880" cy="15.2128" r="0.6000" fill="#222222" fill-opacity="0.5"/>
    <circle cx="285.1566" cy="15.2754" r="0.6000" fill="#222222" fill-opacity="0.5"/>
    <circle cx="286.3253" cy="15.3380" r="0.6000" fill="#222222" fill-opacity="0.5"/>
    <circle cx="287.4940" cy="15.4006" r="0.6000" fill="#222222" fill-opacity="0.5"/>
    <circle cx="288.6627" cy="15.4632" r="0.6000" fill="#222222" fill-opacity="0.5"/>
    <circle cx="289.8313" cy="15.5259" r="0.6000" fill="#222222" fill-opacity="0.5"/>
    <circle cx="291.0000" cy="15.5885" r="0.6000" fill="#222222" fill-opacity="0.5"/>
  <path fill="none" stroke="#8844ff" stroke-opacity="0.35" stroke-width="0.6" d="M -0.7000 1.2124 L 0.4574 1.2945 L 1.6149 1.3766 L 2.7723 1.4587 L 3.9297 1.5408 L 5.0871 1.6228 L 6.2446 1.7049 L 7.4020 1.7870 L 8.5594 1.8691 L 9.7169 1.9512 L 10.8743 2.0332 L 12.0317 2.1153 L 13.1892 2.1974 L 14.3466 2.2795 L 15.5040 2.3616 L 16.6614 2.4437 L 17.8189 2.5257 L 18.9763 2.6078 L 20.1337 2.6899 L 21.2912 2.7720 L 22.4486 2.8541 L 23.6060 2.9361 L 24.7635 3.0182 L 25.9209 3.1003 L 27.0783 3.1824 L 28.2357 3.2645 L 29.3932 3.3465 L 30.5506 3.4286 L 31.7080 3.5107 L 32.8655 3.5928 L 34.0229 3.6749 L 35.1803 3.7570 L 36.3378 3.8390 L 37.4952 3.9211 L 38.6526 4.0032 L 39.8100 4.0853 L 40.9675 4.1674 L 42.1249 4.2494 L 43.2823 4.3315 L 44.4398 4.4136 L 45.5972 4.4957 L 46.7546 4.5778 L 47.9120 4.6598 L 49.0695 4.7419 L 50.2269 4.8240 L 51.3843 4.9061 L 52.5418 4.9882 L 53.6992 5.0702 L 54.8566 5.1523 L 56.0141 5.2344 L 57.1715 5.3165 L 58.3289 5.3986 L 59.4863 5.4807 L 60.6438 5.5627 L 61.8012 5.6448 L 62.9586 5.7269 L 64.1161 5.8090 L 65.2735 5.8911 L 66.4309 5.9731 L 67.5884 6.0552 L 68.7458 6.1373 L 69.9032 6.2194 L 71.0606 6.3015 L 72.2181 6.3835 L 73.3755 6.4656 L 74.5329 6.5477 L 75.6904 6.6298 L 76.8478 6.7119 L 78.0052 6.7940 L 79.1627 6.8760 L 80.3201 6.9581 L 81.4775 7.0402 L 82.6349 7.1223 L 83.7924 7.2044 L 84.9498 7.2864 L 86.1072 7.3685 L 87.2647 7.4506 L 88.4221 7.5327 L 89.5795 7.6148 L 90.7369 7.6968 L 91.8944 7.7789 L 93.0518 7.8610 L 94.2092 7.9431 L 95.3667 8.0252 L 96.5241 8.1072 L 97.6815 8.1893 L 98.8390 8.2714 L 99.9964 8.3535 L 101.1538 8.4356 L 102.3112 8.5177 L 103.4687 8.5997 L 104.6261 8.6818 L 105.7835 8.7639 L 106.9410 8.8460 L 108.0984 8.9281 L 109.2558 9.0101 L 110.4133 9.0922 L 111.5707 9.1743 L 112.7281 9.2564 L 113.8855 9.3385 L 115.0430 9.4205 L 116.2004 9.5026 L 117.3578 9.5847 L 118.5153 9.6668 L 119.6727 9.7489 L 120.8301 9.8310 L 121.9876 9.9130 L 123.1450 9.9951 L 124.3024 10.0772 L 125.4598 10.1593 L 126.6173 10.2414 L 127.7747 10.3234 L 128.9321 10.4055 L 130.0896 10.4876 L 131.2470 10.5697 L 132.4044 10.6518 L 133.5618 10.7338 L 134.7193 10.8159 L 135.8767 10.8980 L 137.0341 10.9801 L 138.1916 11.0622 L 139.3490 11.1443 L 140.5064 11.2263 L 141.6639 11.3084 L 142.8213 11.3905 L 143.9787 11.4726 L 145.1361 11.5547 L 146.2936 11.6367 L 147.4510 11.7188 L 148.6084 11.8009 L 149.7659 11.8830 L 150.9233 11.9651 L 152.0807 12.0471 L 153.2382 12.1292 L 154.3956 12.2113 L 155.5530 12.2934 L 156.7104 12.3755 L 157.8679 12.4575 L 159.0253 12.5396 L 160.1827 12.6217 L 161.3402 12.7038 L 162.4976 12.7859 L 163.6550 12.8680 L 164.8124 12.9500 L 165.9699 13.0321 L 167.1273 13.1142 L 168.2847 13.1963 L 169.4422 13.2784 L 170.5996 13.3604 L 171.7570 13.4425 L 172.9145 13.5246 L 174.0719 13.6067 L 175.2293 13.6888 L 176.3867 13.7708 L 177.5442 13.8529 L 178.7016 13.9350 L 179.8590 14.0171 L 181.0165 14.0992 L 182.1739 14.1813 L 183.3313 14.2633 L 184.4888 14.3454 L 185.6462 14.4275 L 186.8036 14.5096 L 187.9610 14.5917 L 189.1185 14.6737 L 190.2759 14.7558 L 191.4333 14.8379 L 192.5908 14.9200 L 193.7482 15.0021 L 194.9056 15.0841 L 196.0631 15.1662 L 197.2205 15.2483 L 198.3779 15.3304 L 199.5353 15.4125 L 200.6928 15.4946 L 201.8502 15.5766 L 203.0076 15.6587 L 204.1651 15.7408 L 205.3225 15.8229 L 206.4799 15.9050 L 207.6373 15.9870 L 208.7948 16.0691 L 209.9522 16.1512 L 211.1096 16.2333 L 212.2671 16.3154 L 213.4245 16.3974 L 214.5819 16.4795 L 215.7394 16.5616 L 216.8968 16.6437 L 218.0542 16.7258 L 219.2116 16.8078 L 220.3691 16.8899 L 221.5265 16.9720 L 222.6839 17.0541 L 223.8414 17.1362 L 224.9988 17.2183 L 226.1562 17.3003 L 227.3137 17.3824 L 228.4711 17.4645 L 229.6285 17.5466 L 230.7859 17.6287 L 231.9434 17.7107 L 233.1008 17.7928 L 234.2582 17.8749 L 235.4157 17.9570 L 236.5731 18.0391 L 237.7305 18.1211 L 238.8880 18.2032 L 240.0454 18.2853 L 241.2028 18.3674 L 242.3602 18.4495 L 243.5177 18.5316 L 244.6751 18.6136 L 245.8325 18.6957 L 246.9900 18.7778 L 248.1474 18.8599 L 249.3048 18.9420 L 250.4622 19.0240 L 251.6197 19.1061 L 252.7771 19.1882 L 253.9345 19.2703 L 255.0920 19.3524 L 256.2494 19.4344 L 257.4068 19.5165 L 258.5643 19.5986 L 259.7217 19.6807 L 260.8791 19.7628 L 262.0365 19.8449 L 263.1940 19.9269 L 264.3514 20.0090 L 265.5088 20.0911 L 266.6663 20.1732 L 267.8237 20.2553 L 268.9811 20.3373 L 270.1386 20.4194 L 271.2960 20.5015 L 272.4534 20.5836 L 273.6108 20.6657 L 274.7683 20.7477 L 275.9257 20.8298 L 277.0831 20.9119 L 278.2406 20.9940 L 279.3980 21.0761 L 280.5554 21.1581 L 281.7129 21.2402 L 282.8703 21.3223 L 284.0277 21.4044 L 285.1851 21.4865 L 286.3426 21.5686 L 287.5000 21.6506 L 294.5000 9.5263 L 293.3201 9.4832 L 292.1402 9.4400 L 290.9602 9.3969 L 289.7803 9.3538 L 288.6004 9.3106 L 287.4205 9.2675 L 286.2406 9.2244 L 285.0606 9.1813 L 283.8807 9.1381 L 282.7008 9.0950 L 281.5209 9.0519 L 280.3410 9.0088 L 279.1610 8.9656 L 277.9811 8.9225 L 276.8012 8.8794 L 275.6213 8.8362 L 274.4414 8.7931 L 273.2614 8.7500 L 272.0815 8.7069 L 270.9016 8.6637 L 269.7217 8.6206 L 268.5418 8.5775 L 267.3618 8.5343 L 266.1819 8.4912 L 265.0020 8.4481 L 263.8221 8.4050 L 262.6422 8.3618 L 261.4622 8.3187 L 260.2823 8.2756 L 259.1024 8.2325 L 257.9225 8.1893 L 256.7426 8.1462 L 255.5627 8.1031 L 254.3827 8.0599 L 253.2028 8.0168 L 252.0229 7.9737 L 250.8430 7.9306 L 249.6631 7.8874 L 248.4831 7.8443 L 247.3032 7.8012 L 246.1233 7.7581 L 244.9434 7.7149 L 243.7635 7.6718 L 242.5835 7.6287 L 241.4036 7.5855 L 240.2237 7.5424 L 239.0438 7.4993 L 237.8639 7.4562 L 236.6839 7.4130 L 235.5040 7.3699 L 234.3241 7.3268 L 233.1442 7.2837 L 231.9643 7.2405 L 230.7843 7.1974 L 229.6044 7.1543 L 228.4245 7.1111 L 227.2446 7.0680 L 226.0647 7.0249 L 224.8847 6.9818 L 223.7048 6.9386 L 222.5249 6.8955 L 221.3450 6.8524 L 220.1651 6.8093 L 218.9851 6.7661 L 217.8052 6.7230 L 216.6253 6.6799 L 215.4454 6.6367 L 214.2655 6.5936 L 213.0855 6.5505 L 211.9056 6.5074 L 210.7257 6.4642 L 209.5458 6.4211 L 208.3659 6.3780 L 207.1859 6.3349 L 206.0060 6.2917 L 204.8261 6.2486 L 203.6462 6.2055 L 202.4663 6.1623 L 201.2863 6.1192 L 200.1064 6.0761 L 198.9265 6.0330 L 197.7466 5.9898 L 196.5667 5.9467 L 195.3867 5.9036 L 194.2068 5.8605 L 193.0269 5.8173 L 191.8470 5.7742 L 190.6671 5.7311 L 189.4871 5.6879 L 188.3072 5.6448 L 187.1273 5.6017 L 185.9474 5.5586 L 184.7675 5.5154 L 183.5876 5.4723 L 182.4076 5.4292 L 181.2277 5.3861 L 180.0478 5.3429 L 178.8679 5.2998 L 177.6880 5.2567 L 176.5080 5.2135 L 175.3281 5.1704 L 174.1482 5.1273 L 172.9683 5.0842 L 171.7884 5.0410 L 170.6084 4.9979 L 169.4285 4.9548 L 168.2486 4.9117 L 167.0687 4.8685 L 165.8888 4.8254 L 164.7088 4.7823 L 163.5289 4.7391 L 162.3490 4.6960 L 161.1691 4.6529 L 159.9892 4.6098 L 158.8092 4.5666 L 157.6293 4.5235 L 156.4494 4.4804 L 155.2695 4.4372 L 154.0896 4.3941 L 152.9096 4.3510 L 151.7297 4.3079 L 150.5498 4.2647 L 149.3699 4.2216 L 148.1900 4.1785 L 147.0100 4.1354 L 145.8301 4.0922 L 144.6502 4.0491 L 143.4703 4.0060 L 142.2904 3.9628 L 141.1104 3.9197 L 139.9305 3.8766 L 138.7506 3.8335 L 137.5707 3.7903 L 136.3908 3.7472 L 135.2108 3.7041 L 134.0309 3.6610 L 132.8510 3.6178 L 131.6711 3.5747 L 130.4912 3.5316 L 129.3112 3.4884 L 128.1313 3.4453 L 126.9514 3.4022 L 125.7715 3.3591 L 124.5916 3.3159 L 123.4116 3.2728 L 122.2317 3.2297 L 121.0518 3.1866 L 119.8719 3.1434 L 118.6920 3.1003 L 117.5120 3.0572 L 116.3321 3.0140 L 115.1522 2.9709 L 113.9723 2.9278 L 112.7924 2.8847 L 111.6124 2.8415 L 110.4325 2.7984 L 109.2526 2.7553 L 108.0727 2.7122 L 106.8928 2.6690 L 105.7129 2.6259 L 104.5329 2.5828 L 103.3530 2.5396 L 102.1731 2.4965 L 100.9932 2.4534 L 99.8133 2.4103 L 98.6333 2.3671 L 97.4534 2.3240 L 96.2735 2.2809 L 95.0936 2.2378 L 93.9137 2.1946 L 92.7337 2.1515 L 91.5538 2.1084 L 90.3739 2.0652 L 89.1940 2.0221 L 88.0141 1.9790 L 86.8341 1.9359 L 85.6542 1.8927 L 84.4743 1.8496 L 83.2944 1.8065 L 82.1145 1.7634 L 80.9345 1.7202 L 79.7546 1.6771 L 78.5747 1.6340 L 77.3948 1.5908 L 76.2149 1.5477 L 75.0349 1.5046 L 73.8550 1.4615 L 72.6751 1.4183 L 71.4952 1.3752 L 70.3153 1.3321 L 69.1353 1.2890 L 67.9554 1.2458 L 66.7755 1.2027 L 65.5956 1.1596 L 64.4157 1.1164 L 63.2357 1.0733 L 62.0558 1.0302 L 60.8759 0.9871 L 59.6960 0.9439 L 58.5161 0.9008 L 57.3361 0.8577 L 56.1562 0.8146 L 54.9763 0.7714 L 53.7964 0.7283 L 52.6165 0.6852 L 51.4365 0.6420 L 50.2566 0.5989 L 49.0767 0.5558 L 47.8968 0.5127 L 46.7169 0.4695 L 45.5369 0.4264 L 44.3570 0.3833 L 43.1771 0.3401 L 41.9972 0.2970 L 40.8173 0.2539 L 39.6373 0.2108 L 38.4574 0.1676 L 37.2775 0.1245 L 36.0976 0.0814 L 34.9177 0.0383 L 33.7378 -0.0049 L 32.5578 -0.0480 L 31.3779 -0.0911 L 30.1980 -0.1343 L 29.0181 -0.1774 L 27.8382 -0.2205 L 26.6582 -0.2636 L 25.4783 -0.3068 L 24.2984 -0.3499 L 23.1185 -0.3930 L 21.9386 -0.4361 L 20.7586 -0.4793 L 19.5787 -0.5224 L 18.3988 -0.5655 L 17.2189 -0.6087 L 16.0390 -0.6518 L 14.8590 -0.6949 L 13.6791 -0.7380 L 12.4992 -0.7812 L 11.3193 -0.8243 L 10.1394 -0.8674 L 8.9594 -0.9105 L 7.7795 -0.9537 L 6.5996 -0.9968 L 5.4197 -1.0399 L 4.2398 -1.0831 L 3.0598 -1.1262 L 1.8799 -1.1693 L 0.7000 -1.2124 L -0.7000 1.2124 Z"/>
  
  
  
</g>
</svg>