<svg xmlns="http://www.w3.org/2000/svg" width="353.4894" height="49.2284" viewBox="-32.0452 -24.6142 353.4894 49.2284">
  <path fill="black" stroke="none" fill-rule="evenodd" d="M -22.0452 -10.1128 L -21.6768 -8.6486 L -20.9375 -7.0365 L -19.8399 -5.3039 L -18.4029 -3.4806 L -16.6510 -1.5977 L -14.6142 0.3125 L -12.3273 2.2174 L -9.8295 4.0843 L -7.1635 5.8813 L -4.3750 7.5777 L -1.5116 9.1445 L 1.3777 10.5548 L 4.2434 11.7844 L 7.0365 12.8125 L 9.7092 13.6213 L 12.2157 14.1971 L 14.5133 14.5299 L 16.5625 14.6142 L 18.3283 14.4484 L 19.7806 14.0353 L 20.8944 13.3822 L 21.0030 13.2554 L 21.0658 13.2375 L 21.4517 13.0113 L 21.8087 12.9097 L 22.0240 12.7834 L 22.6033 12.6187 L 22.6753 12.5765 L 22.9834 12.4888 L 23.0621 12.4814 L 23.7470 12.2867 L 23.9908 12.2638 L 24.5585 12.1023 L 24.9448 12.0660 L 25.4108 11.9335 L 25.9208 11.8856 L 26.2978 11.7784 L 26.9159 11.7204 L 27.2148 11.6354 L 27.9280 11.5684 L 28.1577 11.5031 L 28.9550 11.4282 L 29.1233 11.3803 L 29.9952 11.2984 L 30.1088 11.2661 L 31.0472 11.1780 L 31.1117 11.1597 L 32.1099 11.0659 L 32.1303 11.0602 L 32.9076 10.9872 L 32.9351 10.9883 L 33.9565 10.8924 L 34.0349 10.8956 L 35.0164 10.8034 L 35.1411 10.8086 L 36.0863 10.7198 L 36.2531 10.7267 L 37.1651 10.6410 L 37.3704 10.6495 L 38.2520 10.5667 L 38.4927 10.5766 L 39.3462 10.4964 L 39.6194 10.5077 L 40.4472 10.4299 L 40.7502 10.4424 L 41.5543 10.3669 L 41.8848 10.3805 L 42.6670 10.3070 L 43.0230 10.3216 L 43.7848 10.2501 L 44.1644 10.2657 L 44.9074 10.1960 L 45.3089 10.2125 L 46.0343 10.1443 L 46.4562 10.1617 L 47.1652 10.0951 L 47.6061 10.1132 L 48.2998 10.0481 L 48.7584 10.0669 L 49.4379 10.0031 L 49.9131 10.0227 L 50.5792 9.9601 L 51.0699 9.9803 L 51.7235 9.9189 L 52.2287 9.9397 L 52.8705 9.8794 L 53.3893 9.9007 L 54.0202 9.8415 L 54.5518 9.8633 L 55.1722 9.8051 L 55.7159 9.8274 L 56.3266 9.7701 L 56.8816 9.7929 L 57.4830 9.7364 L 58.0488 9.7597 L 58.6415 9.7040 L 59.2173 9.7277 L 59.8018 9.6728 L 60.3872 9.6969 L 60.9639 9.6427 L 61.5584 9.6672 L 62.1277 9.6137 L 62.7307 9.6385 L 63.2930 9.5857 L 63.9042 9.6108 L 64.4598 9.5586 L 65.0787 9.5841 L 65.6280 9.5325 L 66.2542 9.5582 L 66.7975 9.5072 L 67.4307 9.5332 L 67.9683 9.4828 L 68.6081 9.5091 L 69.1403 9.4591 L 69.7864 9.4856 L 70.3134 9.4362 L 70.9655 9.4630 L 71.4876 9.4139 L 72.1454 9.4410 L 72.6628 9.3924 L 73.3261 9.4197 L 73.8389 9.3715 L 74.5075 9.3990 L 75.0160 9.3512 L 75.6895 9.3789 L 76.1940 9.3316 L 76.8723 9.3594 L 77.3728 9.3124 L 78.0556 9.3405 L 78.5524 9.2939 L 79.2396 9.3221 L 79.7327 9.2758 L 80.4242 9.3042 L 80.9138 9.2583 L 81.6093 9.2869 L 82.0956 9.2412 L 82.7949 9.2699 L 83.2781 9.2246 L 83.9811 9.2535 L 84.4611 9.2084 L 85.1678 9.2374 L 85.6448 9.1926 L 86.3549 9.2218 L 86.8291 9.1773 L 87.5425 9.2066 L 88.0140 9.1623 L 88.7305 9.1918 L 89.1994 9.1478 L 89.9189 9.1773 L 90.3853 9.1335 L 91.1077 9.1632 L 91.5717 9.1197 L 92.2970 9.1495 L 92.7586 9.1061 L 93.4866 9.1361 L 93.9459 9.0929 L 94.6766 9.1230 L 95.1337 9.0800 L 95.8669 9.1102 L 96.3220 9.0674 L 97.0575 9.0977 L 97.5106 9.0551 L 98.2485 9.0855 L 98.6996 9.0431 L 99.4398 9.0735 L 99.8890 9.0314 L 100.6314 9.0619 L 101.0788 9.0199 L 101.8233 9.0505 L 102.2689 9.0086 L 103.0155 9.0393 L 103.4594 8.9977 L 104.2080 9.0284 L 104.6502 8.9869 L 105.4007 9.0178 L 105.8413 8.9764 L 106.5937 9.0073 L 107.0327 8.9661 L 107.7869 8.9971 L 108.2244 8.9560 L 108.9804 8.9871 L 109.4165 8.9461 L 110.1741 8.9773 L 110.6088 8.9365 L 111.3680 8.9677 L 111.8013 8.9270 L 112.5622 8.9583 L 112.9941 8.9177 L 113.7566 8.9490 L 114.1872 8.9086 L 114.9511 8.9400 L 115.3805 8.8997 L 116.1459 8.9312 L 116.5741 8.8909 L 117.3409 8.9225 L 117.7679 8.8824 L 118.5361 8.9139 L 118.9619 8.8740 L 119.7314 8.9056 L 120.1562 8.8657 L 120.9269 8.8974 L 121.3506 8.8576 L 122.1226 8.8893 L 122.5452 8.8497 L 123.3185 8.8814 L 123.7401 8.8419 L 124.5145 8.8737 L 124.9351 8.8342 L 125.7107 8.8661 L 126.1303 8.8267 L 126.9071 8.8586 L 127.3258 8.8193 L 128.1036 8.8513 L 128.5213 8.8120 L 129.3002 8.8441 L 129.7171 8.8049 L 130.4970 8.8370 L 130.9130 8.7979 L 131.6940 8.8300 L 132.1091 8.7910 L 132.8910 8.8232 L 133.3053 8.7843 L 134.0882 8.8165 L 134.5017 8.7776 L 135.2856 8.8098 L 135.6983 8.7711 L 136.4830 8.8034 L 136.8950 8.7647 L 137.6806 8.7970 L 138.0918 8.7584 L 138.8783 8.7907 L 139.2888 8.7521 L 140.0761 8.7845 L 140.4859 8.7460 L 141.2740 8.7784 L 141.6831 8.7400 L 142.4721 8.7724 L 142.8805 8.7341 L 143.6702 8.7666 L 144.0780 8.7283 L 144.8685 8.7608 L 145.2756 8.7225 L 146.0668 8.7551 L 146.4733 8.7169 L 147.2653 8.7495 L 147.6711 8.7113 L 148.4639 8.7439 L 148.8691 8.7059 L 149.6625 8.7385 L 150.0672 8.7005 L 150.8613 8.7331 L 151.2654 8.6952 L 152.0601 8.7279 L 152.4636 8.6900 L 153.2590 8.7227 L 153.6620 8.6848 L 154.4581 8.7175 L 154.8605 8.6798 L 155.6572 8.7125 L 156.0591 8.6748 L 156.8564 8.7075 L 157.2578 8.6698 L 158.0556 8.7026 L 158.4565 8.6650 L 159.2550 8.6978 L 159.6554 8.6602 L 160.4544 8.6931 L 160.8543 8.6555 L 161.6539 8.6884 L 162.0534 8.6509 L 162.8535 8.6838 L 163.2525 8.6463 L 164.0532 8.6792 L 164.4517 8.6418 L 165.2529 8.6747 L 165.6510 8.6373 L 166.4527 8.6703 L 166.8504 8.6329 L 167.6526 8.6659 L 168.0498 8.6286 L 168.8525 8.6616 L 169.2493 8.6244 L 170.0525 8.6574 L 170.4489 8.6201 L 171.2526 8.6532 L 171.6486 8.6160 L 172.4527 8.6490 L 172.8484 8.6119 L 173.6529 8.6450 L 174.0482 8.6078 L 174.8532 8.6409 L 175.2481 8.6039 L 176.0535 8.6370 L 176.4480 8.5999 L 177.2539 8.6330 L 177.6480 8.5960 L 178.4543 8.6292 L 178.8481 8.5922 L 179.6548 8.6254 L 180.0482 8.5884 L 180.8553 8.6216 L 181.2484 8.5847 L 182.0559 8.6179 L 182.4487 8.5810 L 183.2566 8.6142 L 183.6490 8.5773 L 184.4573 8.6106 L 184.8494 8.5737 L 185.6580 8.6070 L 186.0499 8.5702 L 186.8589 8.6034 L 187.2504 8.5667 L 188.0597 8.5999 L 188.4509 8.5632 L 189.2606 8.5965 L 189.6515 8.5598 L 190.4616 8.5931 L 190.8522 8.5564 L 191.6626 8.5897 L 192.0529 8.5531 L 192.8636 8.5864 L 193.2537 8.5498 L 194.0647 8.5831 L 194.4545 8.5465 L 195.2659 8.5798 L 195.6554 8.5433 L 196.4670 8.5766 L 196.8563 8.5401 L 197.6683 8.5735 L 198.0572 8.5369 L 198.8695 8.5703 L 199.2582 8.5338 L 200.0708 8.5672 L 200.4593 8.5307 L 201.2722 8.5642 L 201.6604 8.5277 L 202.4736 8.5611 L 202.8615 8.5247 L 203.6750 8.5581 L 204.0627 8.5217 L 204.8765 8.5552 L 205.2640 8.5188 L 206.0780 8.5523 L 206.4652 8.5159 L 207.2795 8.5494 L 207.6665 8.5130 L 208.4811 8.5465 L 208.8679 8.5102 L 209.6827 8.5437 L 210.0693 8.5074 L 210.8843 8.5409 L 211.2707 8.5046 L 212.0860 8.5381 L 212.4722 8.5018 L 213.2877 8.5354 L 213.6737 8.4991 L 214.4895 8.5327 L 214.8752 8.4964 L 215.6913 8.5300 L 216.0768 8.4938 L 216.8931 8.5273 L 217.2784 8.4912 L 218.0949 8.5247 L 218.4801 8.4886 L 219.2968 8.5221 L 219.6818 8.4860 L 220.4987 8.5196 L 220.8835 8.4834 L 221.7007 8.5170 L 222.0853 8.4809 L 222.9027 8.5145 L 223.2870 8.4784 L 224.1047 8.5120 L 224.4889 8.4760 L 225.3067 8.5096 L 225.6907 8.4735 L 226.5088 8.5071 L 226.8926 8.4711 L 227.7108 8.5047 L 228.0945 8.4687 L 228.9130 8.5023 L 229.2965 8.4663 L 230.1151 8.5000 L 230.4984 8.4640 L 231.3173 8.4976 L 231.7004 8.4617 L 232.5195 8.4953 L 232.9025 8.4594 L 233.7217 8.4930 L 234.1045 8.4571 L 234.9239 8.4908 L 235.3066 8.4548 L 236.1262 8.4885 L 236.5088 8.4526 L 237.3285 8.4863 L 237.7109 8.4504 L 238.5309 8.4841 L 238.9131 8.4482 L 239.7332 8.4819 L 240.1153 8.4461 L 240.9356 8.4798 L 241.3175 8.4439 L 242.1380 8.4776 L 242.5198 8.4418 L 243.3404 8.4755 L 243.7220 8.4397 L 244.5428 8.4734 L 244.9243 8.4376 L 245.7453 8.4713 L 246.1267 8.4355 L 246.9478 8.4693 L 247.3290 8.4335 L 248.1503 8.4673 L 248.5314 8.4315 L 249.3528 8.4652 L 249.7338 8.4295 L 250.5554 8.4632 L 250.9362 8.4275 L 251.7580 8.4613 L 252.1387 8.4255 L 252.9606 8.4593 L 253.3411 8.4236 L 254.1632 8.4574 L 254.5436 8.4216 L 255.3658 8.4554 L 255.7461 8.4197 L 256.5685 8.4535 L 256.9487 8.4178 L 257.7711 8.4516 L 258.1512 8.4159 L 258.9738 8.4498 L 259.3538 8.4141 L 260.1766 8.4479 L 260.5564 8.4122 L 261.3793 8.4461 L 261.7590 8.4104 L 262.5820 8.4442 L 262.9616 8.4086 L 263.7848 8.4424 L 264.1643 8.4068 L 264.9876 8.4406 L 265.3670 8.4050 L 266.1904 8.4389 L 266.5697 8.4032 L 267.3932 8.4371 L 267.7724 8.4015 L 268.5961 8.4354 L 268.9751 8.3998 L 269.7989 8.4336 L 270.1779 8.3980 L 271.0018 8.4319 L 271.3806 8.3963 L 272.2047 8.4302 L 272.5834 8.3946 L 273.4076 8.4285 L 273.7862 8.3930 L 274.6105 8.4268 L 274.9891 8.3913 L 275.8135 8.4252 L 276.1919 8.3897 L 277.0164 8.4236 L 277.3948 8.3880 L 278.2194 8.4219 L 278.5976 8.3864 L 279.4224 8.4203 L 279.8005 8.3848 L 280.6254 8.4187 L 281.0035 8.3832 L 281.8284 8.4171 L 282.2064 8.3816 L 283.0315 8.4155 L 283.4093 8.3801 L 284.2345 8.4140 L 284.6123 8.3785 L 285.4376 8.4124 L 285.8153 8.3770 L 286.6406 8.4109 L 287.0182 8.3754 L 287.8437 8.4094 L 288.2212 8.3739 L 289.0468 8.4079 L 289.4243 8.3724 L 290.2500 8.4064 L 290.6273 8.3709 L 291.4531 8.4049 L 291.8304 8.3694 L 292.6562 8.4034 L 293.0334 8.3680 L 293.8594 8.4019 L 294.2365 8.3665 L 295.0626 8.4005 L 295.4396 8.3651 L 296.2658 8.3990 L 296.6427 8.3636 L 297.4690 8.3976 L 297.8458 8.3622 L 298.6722 8.3962 L 299.0489 8.3608 L 299.8754 8.3948 L 300.2521 8.3594 L 301.0786 8.3934 L 301.4553 8.3580 L 302.2819 8.3920 L 302.6584 8.3567 L 303.4852 8.3906 L 303.8616 8.3553 L 304.6884 8.3893 L 305.0648 8.3539 L 305.8917 8.3879 L 306.2680 8.3526 L 307.0950 8.3866 L 307.4713 8.3512 L 308.2983 8.3852 L 309.3115 8.2901 L 310.1448 8.0531 L 310.7838 7.6783 L 311.2178 7.1722 L 311.4391 6.5433 L 311.4442 5.8025 L 311.2328 4.9624 L 310.8086 4.0373 L 310.1788 3.0432 L 309.3543 1.9971 L 308.3491 0.9167 L 307.1804 -0.1793 L 305.8683 -1.2723 L 304.4351 -2.3435 L 302.9054 -3.3746 L 301.3054 -4.3479 L 299.6625 -5.2469 L 298.0047 -6.0561 L 296.3604 -6.7616 L 294.7578 -7.3515 L 293.2243 -7.8156 L 291.7861 -8.1459 L 290.4678 -8.3369 L 289.2920 -8.3852 L 288.9346 -8.3517 L 288.0857 -8.3866 L 287.7284 -8.3530 L 286.8794 -8.3879 L 286.5221 -8.3544 L 285.6730 -8.3893 L 285.3158 -8.3557 L 284.4667 -8.3906 L 284.1095 -8.3571 L 283.2603 -8.3920 L 282.9032 -8.3585 L 282.0539 -8.3934 L 281.6969 -8.3599 L 280.8475 -8.3948 L 280.4906 -8.3613 L 279.6411 -8.3962 L 279.2842 -8.3627 L 278.4346 -8.3976 L 278.0779 -8.3641 L 277.2282 -8.3990 L 276.8715 -8.3656 L 276.0218 -8.4005 L 275.6652 -8.3670 L 274.8153 -8.4019 L 274.4588 -8.3685 L 273.6088 -8.4034 L 273.2524 -8.3699 L 272.4023 -8.4049 L 272.0460 -8.3714 L 271.1958 -8.4064 L 270.8396 -8.3729 L 269.9893 -8.4079 L 269.6331 -8.3744 L 268.7828 -8.4094 L 268.4267 -8.3759 L 267.5762 -8.4109 L 267.2202 -8.3775 L 266.3697 -8.4124 L 266.0138 -8.3790 L 265.1631 -8.4140 L 264.8073 -8.3806 L 263.9565 -8.4155 L 263.6008 -8.3821 L 262.7499 -8.4171 L 262.3943 -8.3837 L 261.5433 -8.4187 L 261.1877 -8.3853 L 260.3366 -8.4203 L 259.9812 -8.3869 L 259.1300 -8.4219 L 258.7747 -8.3886 L 257.9233 -8.4236 L 257.5681 -8.3902 L 256.7166 -8.4252 L 256.3615 -8.3918 L 255.5099 -8.4268 L 255.1549 -8.3935 L 254.3032 -8.4285 L 253.9483 -8.3952 L 253.0965 -8.4302 L 252.7417 -8.3969 L 251.8898 -8.4319 L 251.5350 -8.3986 L 250.6830 -8.4336 L 250.3284 -8.4003 L 249.4762 -8.4354 L 249.1217 -8.4021 L 248.2694 -8.4371 L 247.9150 -8.4038 L 247.0626 -8.4389 L 246.7083 -8.4056 L 245.8558 -8.4406 L 245.5016 -8.4074 L 244.6489 -8.4424 L 244.2949 -8.4092 L 243.4421 -8.4442 L 243.0881 -8.4110 L 242.2352 -8.4461 L 241.8813 -8.4128 L 241.0283 -8.4479 L 240.6745 -8.4147 L 239.8213 -8.4498 L 239.4677 -8.4165 L 238.6144 -8.4516 L 238.2609 -8.4184 L 237.4074 -8.4535 L 237.0541 -8.4203 L 236.2005 -8.4554 L 235.8472 -8.4223 L 234.9935 -8.4574 L 234.6403 -8.4242 L 233.7864 -8.4593 L 233.4334 -8.4262 L 232.5794 -8.4613 L 232.2265 -8.4281 L 231.3723 -8.4632 L 231.0196 -8.4301 L 230.1652 -8.4652 L 229.8126 -8.4321 L 228.9581 -8.4673 L 228.6057 -8.4342 L 227.7510 -8.4693 L 227.3987 -8.4362 L 226.5439 -8.4713 L 226.1917 -8.4383 L 225.3367 -8.4734 L 224.9846 -8.4404 L 224.1295 -8.4755 L 223.7776 -8.4425 L 222.9223 -8.4776 L 222.5705 -8.4446 L 221.7150 -8.4798 L 221.3634 -8.4468 L 220.5078 -8.4819 L 220.1563 -8.4489 L 219.3005 -8.4841 L 218.9492 -8.4511 L 218.0932 -8.4863 L 217.7420 -8.4533 L 216.8858 -8.4885 L 216.5348 -8.4556 L 215.6785 -8.4908 L 215.3276 -8.4578 L 214.4711 -8.4930 L 214.1204 -8.4601 L 213.2637 -8.4953 L 212.9132 -8.4624 L 212.0562 -8.4976 L 211.7059 -8.4647 L 210.8488 -8.5000 L 210.4986 -8.4671 L 209.6413 -8.5023 L 209.2913 -8.4695 L 208.4337 -8.5047 L 208.0839 -8.4719 L 207.2262 -8.5071 L 206.8765 -8.4743 L 206.0186 -8.5096 L 205.6691 -8.4768 L 204.8110 -8.5120 L 204.4617 -8.4792 L 203.6034 -8.5145 L 203.2543 -8.4817 L 202.3957 -8.5170 L 202.0468 -8.4843 L 201.1880 -8.5196 L 200.8393 -8.4868 L 199.9803 -8.5221 L 199.6318 -8.4894 L 198.7725 -8.5247 L 198.4242 -8.4920 L 197.5647 -8.5273 L 197.2166 -8.4947 L 196.3569 -8.5300 L 196.0090 -8.4973 L 195.1491 -8.5327 L 194.8013 -8.5000 L 193.9412 -8.5354 L 193.5937 -8.5027 L 192.7333 -8.5381 L 192.3860 -8.5055 L 191.5253 -8.5409 L 191.1782 -8.5083 L 190.3173 -8.5437 L 189.9704 -8.5111 L 189.1093 -8.5465 L 188.7626 -8.5140 L 187.9012 -8.5494 L 187.5548 -8.5168 L 186.6931 -8.5523 L 186.3469 -8.5197 L 185.4850 -8.5552 L 185.1391 -8.5227 L 184.2768 -8.5581 L 183.9311 -8.5257 L 183.0686 -8.5611 L 182.7231 -8.5287 L 181.8604 -8.5642 L 181.5151 -8.5317 L 180.6521 -8.5672 L 180.3071 -8.5348 L 179.4437 -8.5703 L 179.0990 -8.5380 L 178.2354 -8.5735 L 177.8909 -8.5411 L 177.0269 -8.5766 L 176.6828 -8.5443 L 175.8185 -8.5798 L 175.4746 -8.5476 L 174.6100 -8.5831 L 174.2664 -8.5508 L 173.4014 -8.5864 L 173.0581 -8.5541 L 172.1928 -8.5897 L 171.8498 -8.5575 L 170.9842 -8.5931 L 170.6415 -8.5609 L 169.7755 -8.5965 L 169.4331 -8.5643 L 168.5668 -8.5999 L 168.2246 -8.5678 L 167.3580 -8.6034 L 167.0162 -8.5713 L 166.1492 -8.6070 L 165.8077 -8.5749 L 164.9403 -8.6106 L 164.5991 -8.5785 L 163.7314 -8.6142 L 163.3905 -8.5822 L 162.5224 -8.6179 L 162.1818 -8.5859 L 161.3133 -8.6216 L 160.9731 -8.5896 L 160.1043 -8.6254 L 159.7644 -8.5934 L 158.8951 -8.6292 L 158.5556 -8.5973 L 157.6859 -8.6330 L 157.3468 -8.6012 L 156.4766 -8.6370 L 156.1379 -8.6052 L 155.2673 -8.6409 L 154.9289 -8.6092 L 154.0579 -8.6450 L 153.7199 -8.6132 L 152.8485 -8.6490 L 152.5109 -8.6173 L 151.6390 -8.6532 L 151.3017 -8.6215 L 150.4294 -8.6574 L 150.0926 -8.6257 L 149.2198 -8.6616 L 148.8834 -8.6300 L 148.0101 -8.6659 L 147.6741 -8.6344 L 146.8003 -8.6703 L 146.4648 -8.6388 L 145.5905 -8.6747 L 145.2554 -8.6432 L 144.3806 -8.6792 L 144.0459 -8.6478 L 143.1706 -8.6838 L 142.8364 -8.6524 L 141.9605 -8.6884 L 141.6268 -8.6570 L 140.7504 -8.6931 L 140.4171 -8.6618 L 139.5402 -8.6978 L 139.2074 -8.6666 L 138.3299 -8.7026 L 137.9976 -8.6714 L 137.1195 -8.7075 L 136.7878 -8.6764 L 135.9091 -8.7125 L 135.5779 -8.6814 L 134.6986 -8.7175 L 134.3679 -8.6865 L 133.4879 -8.7227 L 133.1578 -8.6917 L 132.2772 -8.7279 L 131.9476 -8.6969 L 131.0664 -8.7331 L 130.7374 -8.7022 L 129.8556 -8.7385 L 129.5271 -8.7077 L 128.6446 -8.7439 L 128.3167 -8.7131 L 127.4335 -8.7495 L 127.1063 -8.7187 L 126.2223 -8.7551 L 125.8957 -8.7244 L 125.0110 -8.7608 L 124.6851 -8.7302 L 123.7997 -8.7666 L 123.4744 -8.7360 L 122.5882 -8.7724 L 122.2636 -8.7420 L 121.3766 -8.7784 L 121.0527 -8.7480 L 120.1649 -8.7845 L 119.8417 -8.7542 L 118.9530 -8.7907 L 118.6306 -8.7604 L 117.7411 -8.7970 L 117.4194 -8.7668 L 116.5290 -8.8034 L 116.2081 -8.7732 L 115.3169 -8.8098 L 114.9967 -8.7798 L 114.1045 -8.8165 L 113.7852 -8.7865 L 112.8921 -8.8232 L 112.5736 -8.7933 L 111.6795 -8.8300 L 111.3618 -8.8002 L 110.4668 -8.8370 L 110.1500 -8.8072 L 109.2540 -8.8441 L 108.9381 -8.8144 L 108.0410 -8.8513 L 107.7260 -8.8217 L 106.8279 -8.8586 L 106.5138 -8.8291 L 105.6146 -8.8661 L 105.3015 -8.8367 L 104.4011 -8.8737 L 104.0890 -8.8444 L 103.1875 -8.8814 L 102.8764 -8.8522 L 101.9737 -8.8893 L 101.6637 -8.8602 L 100.7598 -8.8974 L 100.4509 -8.8684 L 99.5457 -8.9056 L 99.2379 -8.8767 L 98.3314 -8.9139 L 98.0247 -8.8851 L 97.1169 -8.9225 L 96.8114 -8.8938 L 95.9023 -8.9312 L 95.5980 -8.9026 L 94.6874 -8.9400 L 94.3844 -8.9116 L 93.4723 -8.9490 L 93.1706 -8.9207 L 92.2571 -8.9583 L 91.9567 -8.9301 L 91.0416 -8.9677 L 90.7426 -8.9396 L 89.8259 -8.9773 L 89.5283 -8.9493 L 88.6100 -8.9871 L 88.3138 -8.9593 L 87.3938 -8.9971 L 87.0992 -8.9694 L 86.1774 -9.0073 L 85.8843 -8.9798 L 84.9607 -9.0178 L 84.6693 -8.9904 L 83.7438 -9.0284 L 83.4540 -9.0012 L 82.5266 -9.0393 L 82.2385 -9.0123 L 81.3092 -9.0505 L 81.0229 -9.0236 L 80.0915 -9.0619 L 79.8070 -9.0352 L 78.8734 -9.0735 L 78.5908 -9.0470 L 77.6551 -9.0855 L 77.3744 -9.0591 L 76.4364 -9.0977 L 76.1578 -9.0715 L 75.2175 -9.1102 L 74.9409 -9.0842 L 73.9981 -9.1230 L 73.7238 -9.0972 L 72.7785 -9.1361 L 72.5064 -9.1105 L 71.5584 -9.1495 L 71.2887 -9.1242 L 70.3380 -9.1632 L 70.0707 -9.1381 L 69.1172 -9.1773 L 68.8525 -9.1525 L 67.8960 -9.1918 L 67.6339 -9.1672 L 66.6744 -9.2066 L 66.4150 -9.1823 L 65.4524 -9.2218 L 65.1958 -9.1977 L 64.2298 -9.2374 L 63.9762 -9.2136 L 63.0069 -9.2535 L 62.7563 -9.2299 L 61.7834 -9.2699 L 61.5360 -9.2467 L 60.5594 -9.2869 L 60.3153 -9.2639 L 59.3349 -9.3042 L 59.0943 -9.2817 L 58.1098 -9.3221 L 57.8728 -9.2999 L 56.8841 -9.3405 L 56.6509 -9.3186 L 55.6578 -9.3594 L 55.4286 -9.3379 L 54.4309 -9.3789 L 54.2058 -9.3578 L 53.2034 -9.3990 L 52.9826 -9.3783 L 51.9751 -9.4197 L 51.7588 -9.3994 L 50.7462 -9.4410 L 50.5346 -9.4211 L 49.5164 -9.4630 L 49.3098 -9.4436 L 48.2859 -9.4856 L 48.0844 -9.4667 L 47.0545 -9.5091 L 46.8585 -9.4907 L 45.8223 -9.5332 L 45.6320 -9.5154 L 44.5892 -9.5582 L 44.4048 -9.5409 L 43.3551 -9.5841 L 43.1770 -9.5674 L 42.1199 -9.6108 L 41.9486 -9.5947 L 40.8838 -9.6385 L 40.7194 -9.6231 L 39.6464 -9.6672 L 39.4894 -9.6524 L 38.4079 -9.6969 L 38.2587 -9.6829 L 37.1682 -9.7277 L 37.0272 -9.7145 L 35.9271 -9.7597 L 35.7949 -9.7473 L 34.6847 -9.7929 L 34.5616 -9.7814 L 33.4407 -9.8274 L 33.3275 -9.8168 L 32.1952 -9.8633 L 32.0924 -9.8537 L 30.9480 -9.9007 L 30.8562 -9.8921 L 29.6990 -9.9397 L 29.6190 -9.9322 L 28.4482 -9.9803 L 28.3807 -9.9739 L 27.1954 -10.0227 L 27.1412 -10.0176 L 25.9404 -10.0669 L 25.9004 -10.0632 L 24.6831 -10.1132 L 24.6584 -10.1109 L 23.4233 -10.1617 L 23.4150 -10.1609 L 22.3473 -10.2048 L 22.3353 -10.2065 L 21.1115 -10.2568 L 21.0749 -10.2622 L 19.8748 -10.3115 L 19.8117 -10.3206 L 18.6370 -10.3689 L 18.5454 -10.3822 L 17.3983 -10.4293 L 17.2757 -10.4471 L 16.1585 -10.4930 L 16.0025 -10.5156 L 14.9176 -10.5602 L 14.7253 -10.5881 L 13.6758 -10.6312 L 13.4438 -10.6648 L 12.4328 -10.7064 L 12.1576 -10.7463 L 11.1888 -10.7861 L 10.8664 -10.8328 L 9.9438 -10.8707 L 9.5695 -10.9249 L 8.6979 -10.9608 L 8.2665 -11.0233 L 7.4511 -11.0568 L 6.9566 -11.1284 L 6.2035 -11.1594 L 5.6392 -11.2411 L 4.9554 -11.2692 L 4.3135 -11.3622 L 3.7069 -11.3872 L 2.9783 -11.4927 L 2.4583 -11.5141 L 1.6327 -11.6337 L 1.2102 -11.6511 L 0.2752 -11.7865 L -0.0369 -11.7994 L -1.0956 -11.9527 L -1.2823 -11.9604 L -2.4817 -12.1342 L -2.5247 -12.1359 L -3.1743 -12.2300 L -3.3238 -12.2644 L -4.3483 -12.4128 L -4.7322 -12.5010 L -5.5058 -12.6130 L -6.1635 -12.7641 L -6.6413 -12.8333 L -7.6216 -13.0585 L -7.7477 -13.0768 L -7.8646 -13.1036 L -8.2098 -13.2081 L -8.7654 -13.3357 L -9.7092 -13.6213 L -12.2157 -14.1971 L -14.5133 -14.5299 L -16.5625 -14.6142 L -18.3283 -14.4484 L -19.7806 -14.0353 L -20.8944 -13.3822 L -21.6506 -12.5000 L -22.0365 -11.4040 L -22.0452 -10.1128 Z"/>
  <g id="debug">
  <path fill="none" stroke="#ff3366" stroke-opacity="0.6" stroke-width="0.5" d="M 0 0 L 1.5075 0 L 3.0151 0 L 4.5226 0 L 6.0302 0 L 7.5377 0 L 9.0452 0 L 10.5528 0 L 12.0603 0 L 13.5678 0 L 15.0754 0 L 16.5829 0 L 18.0905 0 L 19.5980 0 L 21.1055 0 L 22.6131 0 L 24.1206 0 L 25.6281 0 L 27.1357 0 L 28.6432 0 L 30.1508 0 L 31.6583 0 L 33.1658 0 L 34.6734 0 L 36.1809 0 L 37.6884 0 L 39.1960 0 L 40.7035 0 L 42.2111 0 L 43.7186 0 L 45.2261 0 L 46.7337 0 L 48.2412 0 L 49.7487 0 L 51.2563 0 L 52.7638 0 L 54.2714 0 L 55.7789 0 L 57.2864 0 L 58.7940 0 L 60.3015 0 L 61.8090 0 L 63.3166 0 L 64.8241 0 L 66.3317 0 L 67.8392 0 L 69.3467 0 L 70.8543 0 L 72.3618 0 L 73.8693 0 L 75.3769 0 L 76.8844 0 L 78.3920 0 L 79.8995 0 L 81.4070 0 L 82.9146 0 L 84.4221 0 L 85.9296 0 L 87.4372 0 L 88.9447 0 L 90.4523 0 L 91.9598 0 L 93.4673 0 L 94.9749 0 L 96.4824 0 L 97.9899 0 L 99.4975 0 L 101.0050 0 L 102.5126 0 L 104.0201 0 L 105.5276 0 L 107.0352 0 L 108.5427 0 L 110.0503 0 L 111.5578 0 L 113.0653 0 L 114.5729 0 L 116.0804 0 L 117.5879 0 L 119.0955 0 L 120.6030 0 L 122.1106 0 L 123.6181 0 L 125.1256 0 L 126.6332 0 L 128.1407 0 L 129.6482 0 L 131.1558 0 L 132.6633 0 L 134.1709 0 L 135.6784 0 L 137.1859 0 L 138.6935 0 L 140.2010 0 L 141.7085 0 L 143.2161 0 L 144.7236 0 L 146.2312 0 L 147.7387 0 L 149.2462 0 L 150.7538 0 L 152.2613 0 L 153.7688 0 L 155.2764 0 L 156.7839 0 L 158.2915 0 L 159.7990 0 L 161.3065 0 L 162.8141 0 L 164.3216 0 L 165.8291 0 L 167.3367 0 L 168.8442 0 L 170.3518 0 L 171.8593 0 L 173.3668 0 L 174.8744 0 L 176.3819 0 L 177.8894 0 L 179.3970 0 L 180.9045 0 L 182.4121 0 L 183.9196 0 L 185.4271 0 L 186.9347 0 L 188.4422 0 L 189.9497 0 L 191.4573 0 L 192.9648 0 L 194.4724 0 L 195.9799 0 L 197.4874 0 L 198.9950 0 L 200.5025 0 L 202.0101 0 L 203.5176 0 L 205.0251 0 L 206.5327 0 L 208.0402 0 L 209.5477 0 L 211.0553 0 L 212.5628 0 L 214.0704 0 L 215.5779 0 L 217.0854 0 L 218.5930 0 L 220.1005 0 L 221.6080 0 L 223.1156 0 L 224.6231 0 L 226.1307 0 L 227.6382 0 L 229.1457 0 L 230.6533 0 L 232.1608 0 L 233.6683 0 L 235.1759 0 L 236.6834 0 L 238.1910 0 L 239.6985 0 L 241.2060 0 L 242.7136 0 L 244.2211 0 L 245.7286 0 L 247.2362 0 L 248.7437 0 L 250.2513 0 L 251.7588 0 L 253.2663 0 L 254.7739 0 L 256.2814 0 L 257.7889 0 L 259.2965 0 L 260.8040 0 L 262.3116 0 L 263.8191 0 L 265.3266 0 L 266.8342 0 L 268.3417 0 L 269.8492 0 L 271.3568 0 L 272.8643 0 L 274.3719 0 L 275.8794 0 L 277.3869 0 L 278.8945 0 L 280.4020 0 L 281.9095 0 L 283.4171 0 L 284.9246 0 L 286.4322 0 L 287.9397 0 L 289.4472 0 L 290.9548 0 L 292.4623 0 L 293.9698 0 L 295.4774 0 L 296.9849 0 L 298.4925 0 L 300.0000 0"/>
  <path fill="none" stroke="#ff9900" stroke-opacity="0.6" stroke-width="0.6" d=""/>
  <path fill="none" stroke="#222222" stroke-opacity="0.7" stroke-width="0.6" d=""/>
  <circle cx="0" cy="0" r="0.6000" fill="#222222" fill-opacity="0.5"/>
    <circle cx="1.2048" cy="0" r="0.6000" fill="#222222" fill-opacity="0.5"/>
    <circle cx="2.4096" cy="0" r="0.6000" fill="#222222" fill-opacity="0.5"/>
    <circle cx="3.6145" cy="0" r="0.6000" fill="#222222" fill-opacity="0.5"/>
    <circle cx="4.8193" cy="0" r="0.6000" fill="#222222" fill-opacity="0.5"/>
    <circle cx="6.0241" cy="0" r="0.6000" fill="#222222" fill-opacity="0.5"/>
    <circle cx="7.2289" cy="0" r="0.6000" fill="#222222" fill-opacity="0.5"/>
    <circle cx="8.4337" cy="0" r="0.6000" fill="#222222" fill-opacity="0.5"/>
    <circle cx="9.6386" cy="0" r="0.6000" fill="#222222" fill-opacity="0.5"/>
    <circle cx="10.8434" cy="0" r="0.6000" fill="#222222" fill-opacity="0.5"/>
    <circle cx="12.0482" cy="0" r="0.6000" fill="#222222" fill-opacity="0.5"/>
    <circle cx="13.2530" cy="0" r="0.6000" fill="#222222" fill-opacity="0.5"/>
    <circle cx="14.4578" cy="0" r="0.6000" fill="#222222" fill-opacity="0.5"/>
    <circle cx="15.6627" cy="0" r="0.6000" fill="#222222" fill-opacity="0.5"/>
    <circle cx="16.8675" cy="0" r="0.6000" fill="#222222" fill-opacity="0.5"/>
    <circle cx="18.0723" cy="0" r="0.6000" fill="#222222" fill-opacity="0.5"/>
    <circle cx="19.2771" cy="0" r="0.6000" fill="#222222" fill-opacity="0.5"/>
    <circle cx="20.4819" cy="0" r="0.6000" fill="#222222" fill-opacity="0.5"/>
    <circle cx="21.6867" cy="0" r="0.6000" fill="#222222" fill-opacity="0.5"/>
    <circle cx="22.8916" cy="0" r="0.6000" fill="#222222" fill-opacity="0.5"/>
    <circle cx="24.0964" cy="0" r="0.6000" fill="#222222" fill-opacity="0.5"/>
    <circle cx="25.3012" cy="0" r="0.6000" fill="#222222" fill-opacity="0.5"/>
    <circle cx="26.5060" cy="0" r="0.6000" fill="#222222" fill-opacity="0.5"/>
    <circle cx="27.7108" cy="0" r="0.6000" fill="#222222" fill-opacity="0.5"/>
    <circle cx="28.9157" cy="0" r="0.6000" fill="#222222" fill-opacity="0.5"/>
    <circle cx="30.1205" cy="0" r="0.6000" fill="#222222" fill-opacity="0.5"/>
    <circle cx="31.3253" cy="0" r="0.6000" fill="#222222" fill-opacity="0.5"/>
    <circle cx="32.5301" cy="0" r="0.6000" fill="#222222" fill-opacity="0.5"/>
    <circle cx="33.7349" cy="0" r="0.6000" fill="#222222" fill-opacity="0.5"/>
    <circle cx="34.9398" cy="0" r="0.6000" fill="#222222" fill-opacity="0.5"/>
    <circle cx="36.1446" cy="0" r="0.6000" fill="#222222" fill-opacity="0.5"/>
    <circle cx="37.3494" cy="0" r="0.6000" fill="#222222" fill-opacity="0.5"/>
    <circle cx="38.5542" cy="0" r="0.6000" fill="#222222" fill-opacity="0.5"/>
    <circle cx="39.7590" cy="0" r="0.6000" fill="#222222" fill-opacity="0.5"/>
    <circle cx="40.9639" cy="0" r="0.6000" fill="#222222" fill-opacity="0.5"/>
    <circle cx="42.1687" cy="0" r="0.6000" fill="#222222" fill-opacity="0.5"/>
    <circle cx="43.3735" cy="0" r="0.6000" fill="#222222" fill-opacity="0.5"/>
    <circle cx="44.5783" cy="0" r="0.6000" fill="#222222" fill-opacity="0.5"/>
    <circle cx="45.7831" cy="0" r="0.6000" fill="#222222" fill-opacity="0.5"/>
    <circle cx="46.9880" cy="0" r="0.6000" fill="#222222" fill-opacity="0.5"/>
    <circle cx="48.1928" cy="0" r="0.6000" fill="#222222" fill-opacity="0.5"/>
    <circle cx="49.3976" cy="0" r="0.6000" fill="#222222" fill-opacity="0.5"/>
    <circle cx="50.6024" cy="0" r="0.6000" fill="#222222" fill-opacity="0.5"/>
    <circle cx="51.8072" cy="0" r="0.6000" fill="#222222" fill-opacity="0.5"/>
    <circle cx="53.0120" cy="0" r="0.6000" fill="#222222" fill-opacity="0.5"/>
    <circle cx="54.2169" cy="0" r="0.6000" fill="#222222" fill-opacity="0.5"/>
    <circle cx="55.4217" cy="0" r="0.6000" fill="#222222" fill-opacity="0.5"/>
    <circle cx="56.6265" cy="0" r="0.6000" fill="#222222" fill-opacity="0.5"/>
    <circle cx="57.8313" cy="0" r="0.6000" fill="#222222" fill-opacity="0.5"/>
    <circle cx="59.0361" cy="0" r="0.6000" fill="#222222" fill-opacity="0.5"/>
    <circle cx="60.2410" cy="0" r="0.6000" fill="#222222" fill-opacity="0.5"/>
    <circle cx="61.4458" cy="0" r="0.6000" fill="#222222" fill-opacity="0.5"/>
    <circle cx="62.6506" cy="0" r="0.6000" fill="#222222" fill-opacity="0.5"/>
    <circle cx="63.8554" cy="0" r="0.6000" fill="#222222" fill-opacity="0.5"/>
    <circle cx="65.0602" cy="0" r="0.6000" fill="#222222" fill-opacity="0.5"/>
    <circle cx="66.2651" cy="0" r="0.6000" fill="#222222" fill-opacity="0.5"/>
    <circle cx="67.4699" cy="0" r="0.6000" fill="#222222" fill-opacity="0.5"/>
    <circle cx="68.6747" cy="0" r="0.6000" fill="#222222" fill-opacity="0.5"/>
    <circle cx="69.8795" cy="0" r="0.6000" fill="#222222" fill-opacity="0.5"/>
    <circle cx="71.0843" cy="0" r="0.6000" fill="#222222" fill-opacity="0.5"/>
    <circle cx="72.2892" cy="0" r="0.6000" fill="#222222" fill-opacity="0.5"/>
    <circle cx="73.4940" cy="0" r="0.6000" fill="#222222" fill-opacity="0.5"/>
    <circle cx="74.6988" cy="0" r="0.6000" fill="#222222" fill-opacity="0.5"/>
    <circle cx="75.9036" cy="0" r="0.6000" fill="#222222" fill-opacity="0.5"/>
    <circle cx="77.1084" cy="0" r="0.6000" fill="#222222" fill-opacity="0.5"/>
    <circle cx="78.3133" cy="0" r="0.6000" fill="#222222" fill-opacity="0.5"/>
    <circle cx="79.5181" cy="0" r="0.6000" fill="#222222" fill-opacity="0.5"/>
    <circle cx="80.7229" cy="0" r="0.6000" fill="#222222" fill-opacity="0.5"/>
    <circle cx="81.9277" cy="0" r="0.6000" fill="#222222" fill-opacity="0.5"/>
    <circle cx="83.1325" cy="0" r="0.6000" fill="#222222" fill-opacity="0.5"/>
    <circle cx="84.3373" cy="0" r="0.6000" fill="#222222" fill-opacity="0.5"/>
    <circle cx="85.5422" cy="0" r="0.6000" fill="#222222" fill-opacity="0.5"/>
    <circle cx="86.7470" cy="0" r="0.6000" fill="#222222" fill-opacity="0.5"/>
    <circle cx="87.9518" cy="0" r="0.6000" fill="#222222" fill-opacity="0.5"/>
    <circle cx="89.1566" cy="0" r="0.6000" fill="#222222" fill-opacity="0.5"/>
    <circle cx="90.3614" cy="0" r="0.6000" fill="#222222" fill-opacity="0.5"/>
    <circle cx="91.5663" cy="0" r="0.6000" fill="#222222" fill-opacity="0.5"/>
    <circle cx="92.7711" cy="0" r="0.6000" fill="#222222" fill-opacity="0.5"/>
    <circle cx="93.9759" cy="0" r="0.6000" fill="#222222" fill-opacity="0.5"/>
    <circle cx="95.1807" cy="0" r="0.6000" fill="#222222" fill-opacity="0.5"/>
    <circle cx="96.3855" cy="0" r="0.6000" fill="#222222" fill-opacity="0.5"/>
    <circle cx="97.5904" cy="0" r="0.6000" fill="#222222" fill-opacity="0.5"/>
    <circle cx="98.7952" cy="0" r="0.6000" fill="#222222" fill-opacity="0.5"/>
    <circle cx="100.0000" cy="0" r="0.6000" fill="#222222" fill-opacity="0.5"/>
    <circle cx="101.2048" cy="0" r="0.6000" fill="#222222" fill-opacity="0.5"/>
    <circle cx="102.4096" cy="0" r="0.6000" fill="#222222" fill-opacity="0.5"/>
    <circle cx="103.6145" cy="0" r="0.6000" fill="#222222" fill-opacity="0.5"/>
    <circle cx="104.8193" cy="0" r="0.6000" fill="#222222" fill-opacity="0.5"/>
    <circle cx="106.0241" cy="0" r="0.6000" fill="#222222" fill-opacity="0.5"/>
    <circle cx="107.2289" cy="0" r="0.6000" fill="#222222" fill-opacity="0.5"/>
    <circle cx="108.4337" cy="0" r="0.6000" fill="#222222" fill-opacity="0.5"/>
    <circle cx="109.6386" cy="0" r="0.6000" fill="#222222" fill-opacity="0.5"/>
    <circle cx="110.8434" cy="0" r="0.6000" fill="#222222" fill-opacity="0.5"/>
    <circle cx="112.0482" cy="0" r="0.6000" fill="#222222" fill-opacity="0.5"/>
    <circle cx="113.2530" cy="0" r="0.6000" fill="#222222" fill-opacity="0.5"/>
    <circle cx="114.4578" cy="0" r="0.6000" fill="#222222" fill-opacity="0.5"/>
    <circle cx="115.6627" cy="0" r="0.6000" fill="#222222" fill-opacity="0.5"/>
    <circle cx="116.8675" cy="0" r="0.6000" fill="#222222" fill-opacity="0.5"/>
    <circle cx="118.0723" cy="0" r="0.6000" fill="#222222" fill-opacity="0.5"/>
    <circle cx="119.2771" cy="0" r="0.6000" fill="#222222" fill-opacity="0.5"/>
    <circle cx="120.4819" cy="0" r="0.6000" fill="#222222" fill-opacity="0.5"/>
    <circle cx="121.6867" cy="0" r="0.6000" fill="#222222" fill-opacity="0.5"/>
    <circle cx="122.8916" cy="0" r="0.6000" fill="#222222" fill-opacity="0.5"/>
    <circle cx="124.0964" cy="0" r="0.6000" fill="#222222" fill-opacity="0.5"/>
    <circle cx="125.3012" cy="0" r="0.6000" fill="#222222" fill-opacity="0.5"/>
    <circle cx="126.5060" cy="0" r="0.6000" fill="#222222" fill-opacity="0.5"/>
    <circle cx="127.7108" cy="0" r="0.6000" fill="#222222" fill-opacity="0.5"/>
    <circle cx="128.9157" cy="0" r="0.6000" fill="#222222" fill-opacity="0.5"/>
    <circle cx="130.1205" cy="0" r="0.6000" fill="#222222" fill-opacity="0.5"/>
    <circle cx="131.3253" cy="0" r="0.6000" fill="#222222" fill-opacity="0.5"/>
    <circle cx="132.5301" cy="0" r="0.6000" fill="#222222" fill-opacity="0.5"/>
    <circle cx="133.7349" cy="0" r="0.6000" fill="#222222" fill-opacity="0.5"/>
    <circle cx="134.9398" cy="0" r="0.6000" fill="#222222" fill-opacity="0.5"/>
    <circle cx="136.1446" cy="0" r="0.6000" fill="#222222" fill-opacity="0.5"/>
    <circle cx="137.3494" cy="0" r="0.6000" fill="#222222" fill-opacity="0.5"/>
    <circle cx="138.5542" cy="0" r="0.6000" fill="#222222" fill-opacity="0.5"/>
    <circle cx="139.7590" cy="0" r="0.6000" fill="#222222" fill-opacity="0.5"/>
    <circle cx="140.9639" cy="0" r="0.6000" fill="#222222" fill-opacity="0.5"/>
    <circle cx="142.1687" cy="0" r="0.6000" fill="#222222" fill-opacity="0.5"/>
    <circle cx="143.3735" cy="0" r="0.6000" fill="#222222" fill-opacity="0.5"/>
    <circle cx="144.5783" cy="0" r="0.6000" fill="#222222" fill-opacity="0.5"/>
    <circle cx="145.7831" cy="0" r="0.6000" fill="#222222" fill-opacity="0.5"/>
    <circle cx="146.9880" cy="0" r="0.6000" fill="#222222" fill-opacity="0.5"/>
    <circle cx="148.1928" cy="0" r="0.6000" fill="#222222" fill-opacity="0.5"/>
    <circle cx="149.3976" cy="0" r="0.6000" fill="#222222" fill-opacity="0.5"/>
    <circle cx="150.6024" cy="0" r="0.6000" fill="#222222" fill-opacity="0.5"/>
    <circle cx="151.8072" cy="0" r="0.6000" fill="#222222" fill-opacity="0.5"/>
    <circle cx="153.0120" cy="0" r="0.6000" fill="#222222" fill-opacity="0.5"/>
    <circle cx="154.2169" cy="0" r="0.6000" fill="#222222" fill-opacity="0.5"/>
    <circle cx="155.4217" cy="0" r="0.6000" fill="#222222" fill-opacity="0.5"/>
    <circle cx="156.6265" cy="0" r="0.6000" fill="#222222" fill-opacity="0.5"/>
    <circle cx="157.8313" cy="0" r="0.6000" fill="#222222" fill-opacity="0.5"/>
    <circle cx="159.0361" cy="0" r="0.6000" fill="#222222" fill-opacity="0.5"/>
    <circle cx="160.2410" cy="0" r="0.6000" fill="#222222" fill-opacity="0.5"/>
    <circle cx="161.4458" cy="0" r="0.6000" fill="#222222" fill-opacity="0.5"/>
    <circle cx="162.6506" cy="0" r="0.6000" fill="#222222" fill-opacity="0.5"/>
    <circle cx="163.8554" cy="0" r="0.6000" fill="#222222" fill-opacity="0.5"/>
    <circle cx="165.0602" cy="0" r="0.6000" fill="#222222" fill-opacity="0.5"/>
    <circle cx="166.2651" cy="0" r="0.6000" fill="#222222" fill-opacity="0.5"/>
    <circle cx="167.4699" cy="0" r="0.6000" fill="#222222" fill-opacity="0.5"/>
    <circle cx="168.6747" cy="0" r="0.6000" fill="#222222" fill-opacity="0.5"/>
    <circle cx="169.8795" cy="0" r="0.6000" fill="#222222" fill-opacity="0.5"/>
    <circle cx="171.0843" cy="0" r="0.6000" fill="#222222" fill-opacity="0.5"/>
    <circle cx="172.2892" cy="0" r="0.6000" fill="#222222" fill-opacity="0.5"/>
    <circle cx="173.4940" cy="0" r="0.6000" fill="#222222" fill-opacity="0.5"/>
    <circle cx="174.6988" cy="0" r="0.6000" fill="#222222" fill-opacity="0.5"/>
    <circle cx="175.9036" cy="0" r="0.6000" fill="#222222" fill-opacity="0.5"/>
    <circle cx="177.1084" cy="0" r="0.6000" fill="#222222" fill-opacity="0.5"/>
    <circle cx="178.3133" cy="0" r="0.6000" fill="#222222" fill-opacity="0.5"/>
    <circle cx="179.5181" cy="0" r="0.6000" fill="#222222" fill-opacity="0.5"/>
    <circle cx="180.7229" cy="0" r="0.6000" fill="#222222" fill-opacity="0.5"/>
    <circle cx="181.9277" cy="0" r="0.6000" fill="#222222" fill-opacity="0.5"/>
    <circle cx="183.1325" cy="0" r="0.6000" fill="#222222" fill-opacity="0.5"/>
    <circle cx="184.3373" cy="0" r="0.6000" fill="#222222" fill-opacity="0.5"/>
    <circle cx="185.5422" cy="0" r="0.6000" fill="#222222" fill-opacity="0.5"/>
    <circle cx="186.7470" cy="0" r="0.6000" fill="#222222" fill-opacity="0.5"/>
    <circle cx="187.9518" cy="0" r="0.6000" fill="#222222" fill-opacity="0.5"/>
    <circle cx="189.1566" cy="0" r="0.6000" fill="#222222" fill-opacity="0.5"/>
    <circle cx="190.3614" cy="0" r="0.6000" fill="#222222" fill-opacity="0.5"/>
    <circle cx="191.5663" cy="0" r="0.6000" fill="#222222" fill-opacity="0.5"/>
    <circle cx="192.7711" cy="0" r="0.6000" fill="#222222" fill-opacity="0.5"/>
    <circle cx="193.9759" cy="0" r="0.6000" fill="#222222" fill-opacity="0.5"/>
    <circle cx="195.1807" cy="0" r="0.6000" fill="#222222" fill-opacity="0.5"/>
    <circle cx="196.3855" cy="0" r="0.6000" fill="#222222" fill-opacity="0.5"/>
    <circle cx="197.5904" cy="0" r="0.6000" fill="#222222" fill-opacity="0.5"/>
    <circle cx="198.7952" cy="0" r="0.6000" fill="#222222" fill-opacity="0.5"/>
    <circle cx="200.0000" cy="0" r="0.6000" fill="#222222" fill-opacity="0.5"/>
    <circle cx="201.2048" cy="0" r="0.6000" fill="#222222" fill-opacity="0.5"/>
    <circle cx="202.4096" cy="0" r="0.6000" fill="#222222" fill-opacity="0.5"/>
    <circle cx="203.6145" cy="0" r="0.6000" fill="#222222" fill-opacity="0.5"/>
    <circle cx="204.8193" cy="0" r="0.6000" fill="#222222" fill-opacity="0.5"/>
    <circle cx="206.0241" cy="0" r="0.6000" fill="#222222" fill-opacity="0.5"/>
    <circle cx="207.2289" cy="0" r="0.6000" fill="#222222" fill-opacity="0.5"/>
    <circle cx="208.4337" cy="0" r="0.6000" fill="#222222" fill-opacity="0.5"/>
    <circle cx="209.6386" cy="0" r="0.6000" fill="#222222" fill-opacity="0.5"/>
    <circle cx="210.8434" cy="0" r="0.6000" fill="#222222" fill-opacity="0.5"/>
    <circle cx="212.0482" cy="0" r="0.6000" fill="#222222" fill-opacity="0.5"/>
    <circle cx="213.2530" cy="0" r="0.6000" fill="#222222" fill-opacity="0.5"/>
    <circle cx="214.4578" cy="0" r="0.6000" fill="#222222" fill-opacity="0.5"/>
    <circle cx="215.6627" cy="0" r="0.6000" fill="#222222" fill-opacity="0.5"/>
    <circle cx="216.8675" cy="0" r="0.6000" fill="#222222" fill-opacity="0.5"/>
    <circle cx="218.0723" cy="0" r="0.6000" fill="#222222" fill-opacity="0.5"/>
    <circle cx="219.2771" cy="0" r="0.6000" fill="#222222" fill-opacity="0.5"/>
    <circle cx="220.4819" cy="0" r="0.6000" fill="#222222" fill-opacity="0.5"/>
    <circle cx="221.6867" cy="0" r="0.6000" fill="#222222" fill-opacity="0.5"/>
    <circle cx="222.8916" cy="0" r="0.6000" fill="#222222" fill-opacity="0.5"/>
    <circle cx="224.0964" cy="0" r="0.6000" fill="#222222" fill-opacity="0.5"/>
    <circle cx="225.3012" cy="0" r="0.6000" fill="#222222" fill-opacity="0.5"/>
    <circle cx="226.5060" cy="0" r="0.6000" fill="#222222" fill-opacity="0.5"/>
    <circle cx="227.7108" cy="0" r="0.6000" fill="#222222" fill-opacity="0.5"/>
    <circle cx="228.9157" cy="0" r="0.6000" fill="#222222" fill-opacity="0.5"/>
    <circle cx="230.1205" cy="0" r="0.6000" fill="#222222" fill-opacity="0.5"/>
    <circle cx="231.3253" cy="0" r="0.6000" fill="#222222" fill-opacity="0.5"/>
    <circle cx="232.5301" cy="0" r="0.6000" fill="#222222" fill-opacity="0.5"/>
    <circle cx="233.7349" cy="0" r="0.6000" fill="#222222" fill-opacity="0.5"/>
    <circle cx="234.9398" cy="0" r="0.6000" fill="#222222" fill-opacity="0.5"/>
    <circle cx="236.1446" cy="0" r="0.6000" fill="#222222" fill-opacity="0.5"/>
    <circle cx="237.3494" cy="0" r="0.6000" fill="#222222" fill-opacity="0.5"/>
    <circle cx="238.5542" cy="0" r="0.6000" fill="#222222" fill-opacity="0.5"/>
    <circle cx="239.7590" cy="0" r="0.6000" fill="#222222" fill-opacity="0.5"/>
    <circle cx="240.9639" cy="0" r="0.6000" fill="#222222" fill-opacity="0.5"/>
    <circle cx="242.1687" cy="0" r="0.6000" fill="#222222" fill-opacity="0.5"/>
    <circle cx="243.3735" cy="0" r="0.6000" fill="#222222" fill-opacity="0.5"/>
    <circle cx="244.5783" cy="0" r="0.6000" fill="#222222" fill-opacity="0.5"/>
    <circle cx="245.7831" cy="0" r="0.6000" fill="#222222" fill-opacity="0.5"/>
    <circle cx="246.9880" cy="0" r="0.6000" fill="#222222" fill-opacity="0.5"/>
    <circle cx="248.1928" cy="0" r="0.6000" fill="#222222" fill-opacity="0.5"/>
    <circle cx="249.3976" cy="0" r="0.6000" fill="#222222" fill-opacity="0.5"/>
    <circle cx="250.6024" cy="0" r="0.6000" fill="#222222" fill-opacity="0.5"/>
    <circle cx="251.8072" cy="0" r="0.6000" fill="#222222" fill-opacity="0.5"/>
    <circle cx="253.0120" cy="0" r="0.6000" fill="#222222" fill-opacity="0.5"/>
    <circle cx="254.2169" cy="0" r="0.6000" fill="#222222" fill-opacity="0.5"/>
    <circle cx="255.4217" cy="0" r="0.6000" fill="#222222" fill-opacity="0.5"/>
    <circle cx="256.6265" cy="0" r="0.6000" fill="#222222" fill-opacity="0.5"/>
    <circle cx="257.8313" cy="0" r="0.6000" fill="#222222" fill-opacity="0.5"/>
    <circle cx="259.0361" cy="0" r="0.6000" fill="#222222" fill-opacity="0.5"/>
    <circle cx="260.2410" cy="0" r="0.6000" fill="#222222" fill-opacity="0.5"/>
    <circle cx="261.4458" cy="0" r="0.6000" fill="#222222" fill-opacity="0.5"/>
    <circle cx="262.6506" cy="0" r="0.6000" fill="#222222" fill-opacity="0.5"/>
    <circle cx="263.8554" cy="0" r="0.6000" fill="#222222" fill-opacity="0.5"/>
    <circle cx="265.0602" cy="0" r="0.6000" fill="#222222" fill-opacity="0.5"/>
    <circle cx="266.2651" cy="0" r="0.6000" fill="#222222" fill-opacity="0.5"/>
    <circle cx="267.4699" cy="0" r="0.6000" fill="#222222" fill-opacity="0.5"/>
    <circle cx="268.6747" cy="0" r="0.6000" fill="#222222" fill-opacity="0.5"/>
    <circle cx="269.8795" cy="0" r="0.6000" fill="#222222" fill-opacity="0.5"/>
    <circle cx="271.0843" cy="0" r="0.6000" fill="#222222" fill-opacity="0.5"/>
    <circle cx="272.2892" cy="0" r="0.6000" fill="#222222" fill-opacity="0.5"/>
    <circle cx="273.4940" cy="0" r="0.6000" fill="#222222" fill-opacity="0.5"/>
    <circle cx="274.6988" cy="0" r="0.6000" fill="#222222" fill-opacity="0.5"/>
    <circle cx="275.9036" cy="0" r="0.6000" fill="#222222" fill-opacity="0.5"/>
    <circle cx="277.1084" cy="0" r="0.6000" fill="#222222" fill-opacity="0.5"/>
    <circle cx="278.3133" cy="0" r="0.6000" fill="#222222" fill-opacity="0.5"/>
    <circle cx="279.5181" cy="0" r="0.6000" fill="#222222" fill-opacity="0.5"/>
    <circle cx="280.7229" cy="0" r="0.6000" fill="#222222" fill-opacity="0.5"/>
    <circle cx="281.9277" cy="0" r="0.6000" fill="#222222" fill-opacity="0.5"/>
    <circle cx="283.1325" cy="0" r="0.6000" fill="#222222" fill-opacity="0.5"/>
    <circle cx="284.3373" cy="0" r="0.6000" fill="#222222" fill-opacity="0.5"/>
    <circle cx="285.5422" cy="0" r="0.6000" fill="#222222" fill-opacity="0.5"/>
    <circle cx="286.7470" cy="0" r="0.6000" fill="#222222" fill-opacity="0.5"/>
    <circle cx="287.9518" cy="0" r="0.6000" fill="#222222" fill-opacity="0.5"/>
    <circle cx="289.1566" cy="0" r="0.6000" fill="#222222" fill-opacity="0.5"/>
    <circle cx="290.3614" cy="0" r="0.6000" fill="#222222" fill-opacity="0.5"/>
    <circle cx="291.5663" cy="0" r="0.6000" fill="#222222" fill-opacity="0.5"/>
    <circle cx="292.7711" cy="0" r="0.6000" fill="#222222" fill-opacity="0.5"/>
    <circle cx="293.9759" cy="0" r="0.6000" fill="#222222" fill-opacity="0.5"/>
    <circle cx="295.1807" cy="0" r="0.6000" fill="#222222" fill-opacity="0.5"/>
    <circle cx="296.3855" cy="0" r="0.6000" fill="#222222" fill-opacity="0.5"/>
    <circle cx="297.5904" cy="0" r="0.6000" fill="#222222" fill-opacity="0.5"/>
    <circle cx="298.7952" cy="0" r="0.6000" fill="#222222" fill-opacity="0.5"/>
    <circle cx="300.0000" cy="0" r="0.6000" fill="#222222" fill-opacity="0.5"/>
  <path fill="none" stroke="#8844ff" stroke-opacity="0.35" stroke-width="0.6" d="M -4.3750 7.5777 L -3.0375 7.3478 L -1.7167 7.1470 L -0.4097 6.9700 L 0.8859 6.8129 L 2.1718 6.6724 L 3.4495 6.5461 L 4.7202 6.4320 L 5.9849 6.3283 L 7.2444 6.2336 L 8.4992 6.1470 L 9.7501 6.0673 L 10.9973 5.9937 L 12.2415 5.9257 L 13.4827 5.8625 L 14.7215 5.8037 L 15.9580 5.7489 L 17.1924 5.6976 L 18.4250 5.6496 L 19.6558 5.6044 L 20.8852 5.5620 L 22.1131 5.5219 L 23.3397 5.4842 L 24.5652 5.4484 L 25.7896 5.4146 L 27.0129 5.3825 L 28.2353 5.3520 L 29.4569 5.3230 L 30.6777 5.2953 L 31.8977 5.2690 L 33.1170 5.2439 L 34.3357 5.2199 L 35.5538 5.1969 L 36.7713 5.1750 L 37.9882 5.1539 L 39.2047 5.1337 L 40.4207 5.1143 L 41.6363 5.0957 L 42.8515 5.0778 L 44.0662 5.0606 L 45.2806 5.0440 L 46.4947 5.0280 L 47.7084 5.0126 L 48.9218 4.9977 L 50.1349 4.9834 L 51.3477 4.9695 L 52.5603 4.9561 L 53.7726 4.9432 L 54.9846 4.9306 L 56.1965 4.9185 L 57.4081 4.9067 L 58.6195 4.8953 L 59.8307 4.8843 L 61.0417 4.8736 L 62.2525 4.8631 L 63.4632 4.8530 L 64.6736 4.8432 L 65.8840 4.8337 L 67.0941 4.8244 L 68.3042 4.8154 L 69.5140 4.8066 L 70.7238 4.7981 L 71.9334 4.7898 L 73.1429 4.7817 L 74.3523 4.7738 L 75.5615 4.7661 L 76.7707 4.7586 L 77.9797 4.7513 L 79.1887 4.7442 L 80.3975 4.7372 L 81.6062 4.7304 L 82.8149 4.7238 L 84.0234 4.7173 L 85.2319 4.7110 L 86.4403 4.7048 L 87.6486 4.6988 L 88.8568 4.6928 L 90.0650 4.6871 L 91.2731 4.6814 L 92.4811 4.6759 L 93.6891 4.6705 L 94.8969 4.6652 L 96.1047 4.6600 L 97.3125 4.6549 L 98.5202 4.6499 L 99.7278 4.6450 L 100.9354 4.6402 L 102.1429 4.6356 L 103.3504 4.6310 L 104.5578 4.6265 L 105.7652 4.6220 L 106.9725 4.6177 L 108.1798 4.6135 L 109.3870 4.6093 L 110.5942 4.6052 L 111.8013 4.6012 L 113.0084 4.5972 L 114.2155 4.5934 L 115.4225 4.5895 L 116.6295 4.5858 L 117.8364 4.5821 L 119.0433 4.5785 L 120.2502 4.5750 L 121.4570 4.5715 L 122.6638 4.5681 L 123.8706 4.5647 L 125.0773 4.5614 L 126.2840 4.5581 L 127.4907 4.5549 L 128.6973 4.5518 L 129.9039 4.5487 L 131.1105 4.5456 L 132.3171 4.5426 L 133.5236 4.5397 L 134.7301 4.5368 L 135.9366 4.5339 L 137.1430 4.5311 L 138.3494 4.5283 L 139.5558 4.5256 L 140.7622 4.5229 L 141.9686 4.5202 L 143.1749 4.5176 L 144.3812 4.5150 L 145.5875 4.5125 L 146.7938 4.5100 L 148.0000 4.5075 L 149.2062 4.5051 L 150.4124 4.5027 L 151.6186 4.5003 L 152.8248 4.4980 L 154.0309 4.4957 L 155.2370 4.4934 L 156.4431 4.4912 L 157.6492 4.4890 L 158.8553 4.4868 L 160.0614 4.4847 L 161.2674 4.4826 L 162.4734 4.4805 L 163.6794 4.4784 L 164.8854 4.4764 L 166.0914 4.4744 L 167.2974 4.4724 L 168.5033 4.4705 L 169.7093 4.4685 L 170.9152 4.4666 L 172.1211 4.4647 L 173.3270 4.4629 L 174.5329 4.4610 L 175.7387 4.4592 L 176.9446 4.4574 L 178.1504 4.4557 L 179.3562 4.4539 L 180.5621 4.4522 L 181.7679 4.4505 L 182.9736 4.4488 L 184.1794 4.4471 L 185.3852 4.4455 L 186.5910 4.4439 L 187.7967 4.4423 L 189.0024 4.4407 L 190.2082 4.4391 L 191.4139 4.4376 L 192.6196 4.4360 L 193.8253 4.4345 L 195.0310 4.4330 L 196.2366 4.4315 L 197.4423 4.4301 L 198.6480 4.4286 L 199.8536 4.4272 L 201.0593 4.4257 L 202.2649 4.4243 L 203.4705 4.4230 L 204.6761 4.4216 L 205.8817 4.4202 L 207.0873 4.4189 L 208.2929 4.4176 L 209.4985 4.4162 L 210.7040 4.4149 L 211.9096 4.4136 L 213.1152 4.4124 L 214.3207 4.4111 L 215.5263 4.4099 L 216.7318 4.4086 L 217.9373 4.4074 L 219.1428 4.4062 L 220.3483 4.4050 L 221.5539 4.4038 L 222.7593 4.4026 L 223.9648 4.4015 L 225.1703 4.4003 L 226.3758 4.3992 L 227.5813 4.3980 L 228.7867 4.3969 L 229.9922 4.3958 L 231.1977 4.3947 L 232.4031 4.3936 L 233.6085 4.3926 L 234.8140 4.3915 L 236.0194 4.3904 L 237.2248 4.3894 L 238.4302 4.3883 L 239.6357 4.3873 L 240.8411 4.3863 L 242.0465 4.3853 L 243.2519 4.3843 L 244.4572 4.3833 L 245.6626 4.3823 L 246.8680 4.3814 L 248.0734 4.3804 L 249.2788 4.3794 L 250.4841 4.3785 L 251.6895 4.3776 L 252.8948 4.3766 L 254.1002 4.3757 L 255.3055 4.3748 L 256.5109 4.3739 L 257.7162 4.3730 L 258.9216 4.3721 L 260.1269 4.3712 L 261.3322 4.3703 L 262.5375 4.3695 L 263.7428 4.3686 L 264.9481 4.3678 L 266.1535 4.3669 L 267.3588 4.3661 L 268.5641 4.3653 L 269.7694 4.3644 L 270.9746 4.3636 L 272.1799 4.3628 L 273.3852 4.3620 L 274.5905 4.3612 L 275.7958 4.3604 L 277.0010 4.3596 L 278.2063 4.3589 L 279.4116 4.3581 L 280.6168 4.3573 L 281.8221 4.3566 L 283.0273 4.3558 L 284.2326 4.3551 L 285.4378 4.3543 L 286.6431 4.3536 L 287.8483 4.3529 L 289.0536 4.3521 L 290.2588 4.3514 L 291.4640 4.3507 L 292.6693 4.3500 L 293.8745 4.3493 L 295.0797 4.3486 L 296.2849 4.3479 L 295.6250 7.5777 L 304.3750 -7.5777 L 301.3054 -4.3479 L 300.1010 -4.3486 L 298.8966 -4.3493 L 297.6922 -4.3500 L 296.4878 -4.3507 L 295.2834 -4.3514 L 294.0790 -4.3521 L 292.8746 -4.3529 L 291.6702 -4.3536 L 290.4658 -4.3543 L 289.2614 -4.3551 L 288.0570 -4.3558 L 286.8526 -4.3566 L 285.6482 -4.3573 L 284.4439 -4.3581 L 283.2395 -4.3589 L 282.0351 -4.3596 L 280.8307 -4.3604 L 279.6264 -4.3612 L 278.4220 -4.3620 L 277.2177 -4.3628 L 276.0133 -4.3636 L 274.8090 -4.3644 L 273.6046 -4.3653 L 272.4003 -4.3661 L 271.1959 -4.3669 L 269.9916 -4.3678 L 268.7873 -4.3686 L 267.5830 -4.3695 L 266.3786 -4.3703 L 265.1743 -4.3712 L 263.9700 -4.3721 L 262.7657 -4.3730 L 261.5614 -4.3739 L 260.3571 -4.3748 L 259.1528 -4.3757 L 257.9485 -4.3766 L 256.7442 -4.3776 L 255.5400 -4.3785 L 254.3357 -4.3794 L 253.1314 -4.3804 L 251.9272 -4.3814 L 250.7229 -4.3823 L 249.5187 -4.3833 L 248.3144 -4.3843 L 247.1102 -4.3853 L 245.9059 -4.3863 L 244.7017 -4.3873 L 243.4975 -4.3883 L 242.2932 -4.3894 L 241.0890 -4.3904 L 239.8848 -4.3915 L 238.6806 -4.3926 L 237.4764 -4.3936 L 236.2722 -4.3947 L 235.0680 -4.3958 L 233.8639 -4.3969 L 232.6597 -4.3980 L 231.4555 -4.3992 L 230.2514 -4.4003 L 229.0472 -4.4015 L 227.8431 -4.4026 L 226.6389 -4.4038 L 225.4348 -4.4050 L 224.2307 -4.4062 L 223.0265 -4.4074 L 221.8224 -4.4086 L 220.6183 -4.4099 L 219.4142 -4.4111 L 218.2101 -4.4124 L 217.0061 -4.4136 L 215.8020 -4.4149 L 214.5979 -4.4162 L 213.3938 -4.4176 L 212.1898 -4.4189 L 210.9858 -4.4202 L 209.7817 -4.4216 L 208.5777 -4.4230 L 207.3737 -4.4243 L 206.1697 -4.4257 L 204.9657 -4.4272 L 203.7617 -4.4286 L 202.5577 -4.4301 L 201.3537 -4.4315 L 200.1498 -4.4330 L 198.9458 -4.4345 L 197.7419 -4.4360 L 196.5379 -4.4376 L 195.3340 -4.4391 L 194.1301 -4.4407 L 192.9262 -4.4423 L 191.7223 -4.4439 L 190.5184 -4.4455 L 189.3145 -4.4471 L 188.1107 -4.4488 L 186.9068 -4.4505 L 185.7030 -4.4522 L 184.4992 -4.4539 L 183.2954 -4.4557 L 182.0916 -4.4574 L 180.8878 -4.4592 L 179.6840 -4.4610 L 178.4803 -4.4629 L 177.2765 -4.4647 L 176.0728 -4.4666 L 174.8691 -4.4685 L 173.6654 -4.4705 L 172.4617 -4.4724 L 171.2580 -4.4744 L 170.0543 -4.4764 L 168.8507 -4.4784 L 167.6471 -4.4805 L 166.4434 -4.4826 L 165.2398 -4.4847 L 164.0363 -4.4868 L 162.8327 -4.4890 L 161.6291 -4.4912 L 160.4256 -4.4934 L 159.2221 -4.4957 L 158.0186 -4.4980 L 156.8151 -4.5003 L 155.6117 -4.5027 L 154.4082 -4.5051 L 153.2048 -4.5075 L 152.0014 -4.5100 L 150.7981 -4.5125 L 149.5947 -4.5150 L 148.3914 -4.5176 L 147.1881 -4.5202 L 145.9848 -4.5229 L 144.7815 -4.5256 L 143.5783 -4.5283 L 142.3751 -4.5311 L 141.1719 -4.5339 L 139.9687 -4.5368 L 138.7656 -4.5397 L 137.5624 -4.5426 L 136.3594 -4.5456 L 135.1563 -4.5487 L 133.9533 -4.5518 L 132.7503 -4.5549 L 131.5473 -4.5581 L 130.3444 -4.5614 L 129.1415 -4.5647 L 127.9386 -4.5681 L 126.7357 -4.5715 L 125.5329 -4.5750 L 124.3302 -4.5785 L 123.1274 -4.5821 L 121.9247 -4.5858 L 120.7221 -4.5895 L 119.5194 -4.5934 L 118.3169 -4.5972 L 117.1143 -4.6012 L 115.9118 -4.6052 L 114.7094 -4.6093 L 113.5070 -4.6135 L 112.3046 -4.6177 L 111.1023 -4.6220 L 109.9000 -4.6265 L 108.6978 -4.6310 L 107.4956 -4.6356 L 106.2935 -4.6402 L 105.0914 -4.6450 L 103.8894 -4.6499 L 102.6875 -4.6549 L 101.4856 -4.6600 L 100.2838 -4.6652 L 99.0820 -4.6705 L 97.8803 -4.6759 L 96.6787 -4.6814 L 95.4772 -4.6871 L 94.2757 -4.6928 L 93.0743 -4.6988 L 91.8729 -4.7048 L 90.6717 -4.7110 L 89.4705 -4.7173 L 88.2695 -4.7238 L 87.0685 -4.7304 L 85.8676 -4.7372 L 84.6668 -4.7442 L 83.4661 -4.7513 L 82.2655 -4.7586 L 81.0650 -4.7661 L 79.8646 -4.7738 L 78.6643 -4.7817 L 77.4642 -4.7898 L 76.2642 -4.7981 L 75.0643 -4.8066 L 73.8645 -4.8154 L 72.6649 -4.8244 L 71.4654 -4.8337 L 70.2661 -4.8432 L 69.0670 -4.8530 L 67.8680 -4.8631 L 66.6692 -4.8736 L 65.4705 -4.8843 L 64.2721 -4.8953 L 63.0739 -4.9067 L 61.8758 -4.9185 L 60.6780 -4.9306 L 59.4804 -4.9432 L 58.2831 -4.9561 L 57.0860 -4.9695 L 55.8892 -4.9834 L 54.6927 -4.9977 L 53.4964 -5.0126 L 52.3005 -5.0280 L 51.1049 -5.0440 L 49.9097 -5.0606 L 48.7148 -5.0778 L 47.5203 -5.0957 L 46.3263 -5.1143 L 45.1326 -5.1337 L 43.9395 -5.1539 L 42.7468 -5.1750 L 41.5547 -5.1969 L 40.3631 -5.2199 L 39.1721 -5.2439 L 37.9818 -5.2690 L 36.7922 -5.2953 L 35.6033 -5.3230 L 34.4153 -5.3520 L 33.2280 -5.3825 L 32.0418 -5.4146 L 30.8565 -5.4484 L 29.6723 -5.4842 L 28.4893 -5.5219 L 27.3076 -5.5620 L 26.1273 -5.6044 L 24.9485 -5.6496 L 23.7715 -5.6976 L 22.5962 -5.7489 L 21.4231 -5.8037 L 20.2522 -5.8625 L 19.0838 -5.9257 L 17.9183 -5.9937 L 16.7559 -6.0673 L 15.5971 -6.1470 L 14.4424 -6.2336 L 13.2922 -6.3283 L 12.1472 -6.4320 L 11.0083 -6.5461 L 9.8764 -6.6724 L 8.7527 -6.8129 L 7.6386 -6.9700 L 6.5360 -7.1470 L 5.4471 -7.3478 L 4.3750 -7.5777 L -4.3750 7.5777 Z"/>
  
  
  
</g>
</svg>