<svg xmlns="http://www.w3.org/2000/svg" width="343.0357" height="49.2161" viewBox="-12.2045 -24.6081 343.0357 49.2161">
  <path fill="black" stroke="none" fill-rule="evenodd" d="M -2.2045 -1.0113 L -2.1677 -0.8649 L -2.0937 -0.7036 L -1.9840 -0.5304 L -1.8403 -0.3481 L -1.6651 -0.1598 L -1.4614 0.0313 L -1.2327 0.2217 L -0.9830 0.4084 L -0.7164 0.5881 L -0.4375 0.7578 L -0.1512 0.9144 L 0.1378 1.0555 L 0.4243 1.1784 L 0.7036 1.2813 L 0.9709 1.3621 L 1.2216 1.4197 L 1.4513 1.4530 L 1.6563 1.4614 L 1.8328 1.4448 L 1.9781 1.4035 L 2.0894 1.3382 L 2.0908 1.3366 L 2.1759 1.3623 L 2.4266 1.4199 L 2.6563 1.4532 L 2.8613 1.4616 L 3.0379 1.4450 L 3.1831 1.4037 L 3.2945 1.3384 L 3.2957 1.3370 L 3.3811 1.3629 L 3.6319 1.4205 L 3.8617 1.4538 L 4.0668 1.4622 L 4.2434 1.4456 L 4.3887 1.4043 L 4.5002 1.3389 L 4.5011 1.3379 L 4.5865 1.3638 L 4.8375 1.4214 L 5.0675 1.4547 L 5.2727 1.4632 L 5.4495 1.4466 L 5.5949 1.4052 L 5.7064 1.3398 L 5.7069 1.3392 L 5.7923 1.3651 L 6.0435 1.4228 L 6.2737 1.4561 L 6.4791 1.4646 L 6.6561 1.4479 L 6.8016 1.4066 L 6.9132 1.3411 L 6.9133 1.3410 L 6.9983 1.3668 L 7.2498 1.4245 L 7.4803 1.4579 L 7.6860 1.4664 L 7.8631 1.4497 L 8.0089 1.4083 L 8.1199 1.3432 L 8.2046 1.3688 L 8.4565 1.4267 L 8.6874 1.4601 L 8.8933 1.4686 L 9.0708 1.4519 L 9.2167 1.4104 L 9.3269 1.3458 L 9.4112 1.3713 L 9.6636 1.4293 L 9.8949 1.4628 L 10.1012 1.4713 L 10.2789 1.4546 L 10.4251 1.4130 L 10.5344 1.3489 L 10.6181 1.3742 L 10.8710 1.4323 L 11.1028 1.4659 L 11.3095 1.4744 L 11.4877 1.4577 L 11.6342 1.4160 L 11.7425 1.3525 L 11.8253 1.3776 L 12.0788 1.4358 L 12.3111 1.4695 L 12.5184 1.4780 L 12.6970 1.4612 L 12.8438 1.4194 L 12.9510 1.3566 L 13.0328 1.3813 L 13.2870 1.4397 L 13.5200 1.4735 L 13.7278 1.4820 L 13.9069 1.4652 L 14.0541 1.4233 L 14.1601 1.3612 L 14.2406 1.3855 L 14.4956 1.4441 L 14.7293 1.4780 L 14.9377 1.4865 L 15.1174 1.4697 L 15.2651 1.4277 L 15.3697 1.3663 L 15.4488 1.3902 L 15.7046 1.4490 L 15.9391 1.4829 L 16.1482 1.4915 L 16.3284 1.4746 L 16.4767 1.4325 L 16.5799 1.3719 L 16.6572 1.3953 L 16.9140 1.4543 L 17.1494 1.4884 L 17.3593 1.4970 L 17.5402 1.4801 L 17.6889 1.4377 L 17.7906 1.3781 L 17.8660 1.4009 L 18.1238 1.4602 L 18.3601 1.4944 L 18.5709 1.5030 L 18.7525 1.4860 L 18.9019 1.4435 L 19.0019 1.3848 L 19.0752 1.4070 L 19.3341 1.4665 L 19.5714 1.5009 L 19.7831 1.5096 L 19.9655 1.4924 L 20.1155 1.4498 L 20.2138 1.3921 L 20.2847 1.4136 L 20.5448 1.4733 L 20.7833 1.5079 L 20.9959 1.5166 L 21.1792 1.4994 L 21.3299 1.4566 L 21.4263 1.4000 L 21.4946 1.4207 L 21.7560 1.4807 L 21.9956 1.5154 L 22.2093 1.5242 L 22.3935 1.5069 L 22.5450 1.4638 L 22.6394 1.4085 L 22.7048 1.4282 L 22.9676 1.4886 L 23.2085 1.5235 L 23.4234 1.5324 L 23.6085 1.5150 L 23.7608 1.4717 L 23.8531 1.4175 L 23.9154 1.4364 L 24.1797 1.4971 L 24.4220 1.5322 L 24.6381 1.5411 L 24.8243 1.5236 L 24.9774 1.4800 L 25.0675 1.4272 L 25.1264 1.4450 L 25.3923 1.5061 L 25.6360 1.5414 L 25.8534 1.5503 L 26.0407 1.5327 L 26.1948 1.4889 L 26.2825 1.4375 L 26.3377 1.4542 L 26.6053 1.5156 L 26.8506 1.5512 L 27.0694 1.5602 L 27.2579 1.5425 L 27.4129 1.4984 L 27.4982 1.4484 L 27.5495 1.4639 L 27.8189 1.5258 L 28.0658 1.5616 L 28.2860 1.5706 L 28.4758 1.5528 L 28.6319 1.5084 L 28.7145 1.4600 L 28.7617 1.4742 L 29.0329 1.5365 L 29.2816 1.5726 L 29.5034 1.5817 L 29.6945 1.5637 L 29.8517 1.5190 L 29.9316 1.4722 L 29.9742 1.4851 L 30.2475 1.5479 L 30.4980 1.5842 L 30.7214 1.5933 L 30.9140 1.5753 L 31.0723 1.5302 L 31.1493 1.4851 L 31.1872 1.4966 L 31.4626 1.5598 L 31.7150 1.5964 L 31.9402 1.6056 L 32.1342 1.5874 L 32.2937 1.5420 L 32.3677 1.4987 L 32.4006 1.5086 L 32.6782 1.5724 L 32.9327 1.6092 L 33.1597 1.6186 L 33.3552 1.6002 L 33.5161 1.5545 L 33.5869 1.5129 L 33.6145 1.5213 L 33.8944 1.5856 L 34.1510 1.6228 L 34.3799 1.6322 L 34.5771 1.6136 L 34.7393 1.5675 L 34.8068 1.5279 L 34.8288 1.5346 L 35.1111 1.5994 L 35.3700 1.6369 L 35.6009 1.6464 L 35.7998 1.6277 L 35.9634 1.5812 L 36.0275 1.5436 L 36.0435 1.5485 L 36.3284 1.6139 L 36.5896 1.6518 L 36.8226 1.6613 L 37.0233 1.6425 L 37.1884 1.5955 L 37.2489 1.5601 L 37.2587 1.5630 L 37.5463 1.6291 L 37.8100 1.6673 L 38.0451 1.6770 L 38.2477 1.6579 L 38.4144 1.6105 L 38.4711 1.5773 L 38.4743 1.5782 L 38.7648 1.6449 L 39.0310 1.6835 L 39.2684 1.6933 L 39.4730 1.6741 L 39.6413 1.6262 L 39.6945 1.5950 L 39.9838 1.6615 L 40.2527 1.7004 L 40.4925 1.7103 L 40.6992 1.6909 L 40.8691 1.6426 L 40.9189 1.6134 L 41.2035 1.6787 L 41.4751 1.7181 L 41.7175 1.7280 L 41.9263 1.7084 L 42.0980 1.6596 L 42.1442 1.6325 L 42.4237 1.6967 L 42.6983 1.7365 L 42.9432 1.7465 L 43.1543 1.7267 L 43.3278 1.6773 L 43.3704 1.6524 L 43.6446 1.7154 L 43.9222 1.7556 L 44.1698 1.7658 L 44.3832 1.7457 L 44.5587 1.6958 L 44.5975 1.6731 L 44.8662 1.7348 L 45.1469 1.7755 L 45.3973 1.7857 L 45.6131 1.7655 L 45.7905 1.7150 L 45.8254 1.6946 L 46.0883 1.7549 L 46.3723 1.7961 L 46.6257 1.8065 L 46.8439 1.7860 L 47.0235 1.7350 L 47.0543 1.7169 L 47.3112 1.7759 L 47.5986 1.8175 L 47.8549 1.8281 L 48.0758 1.8073 L 48.2574 1.7556 L 48.2841 1.7400 L 48.5347 1.7976 L 48.8256 1.8397 L 49.0850 1.8504 L 49.3086 1.8294 L 49.4925 1.7771 L 49.5148 1.7640 L 49.7588 1.8201 L 50.0534 1.8627 L 50.3161 1.8735 L 50.5425 1.8523 L 50.7286 1.7993 L 50.7465 1.7889 L 50.9837 1.8434 L 51.2820 1.8866 L 51.5481 1.8975 L 51.7773 1.8760 L 51.9659 1.8224 L 51.9791 1.8146 L 52.2092 1.8675 L 52.5115 1.9112 L 52.7810 1.9223 L 53.0133 1.9005 L 53.2043 1.8462 L 53.2128 1.8412 L 53.4355 1.8924 L 53.7417 1.9367 L 54.0149 1.9480 L 54.2503 1.9259 L 54.4438 1.8708 L 54.4474 1.8687 L 54.6625 1.9181 L 54.9729 1.9631 L 55.2497 1.9745 L 55.4883 1.9521 L 55.6822 1.8969 L 55.8902 1.9447 L 56.2049 1.9903 L 56.4856 2.0018 L 56.7275 1.9791 L 56.9158 1.9256 L 57.1186 1.9721 L 57.4378 2.0184 L 57.7224 2.0301 L 57.9677 2.0070 L 58.1503 1.9551 L 58.3478 2.0005 L 58.6715 2.0474 L 58.9603 2.0592 L 59.2091 2.0359 L 59.3859 1.9856 L 59.5777 2.0296 L 59.9062 2.0772 L 60.1991 2.0893 L 60.4516 2.0656 L 60.6224 2.0170 L 60.8084 2.0597 L 61.1417 2.1080 L 61.4390 2.1202 L 61.6952 2.0962 L 61.8599 2.0493 L 62.0399 2.0907 L 62.3782 2.1397 L 62.6800 2.1521 L 62.9400 2.1277 L 63.0984 2.0827 L 63.2721 2.1226 L 63.6156 2.1723 L 63.9220 2.1849 L 64.1860 2.1601 L 64.3379 2.1170 L 64.5052 2.1554 L 64.8540 2.2059 L 65.1651 2.2187 L 65.4332 2.1935 L 65.5784 2.1522 L 65.7390 2.1891 L 66.0933 2.2405 L 66.4093 2.2534 L 66.6816 2.2279 L 66.8200 2.1885 L 66.9737 2.2238 L 67.3336 2.2759 L 67.6546 2.2891 L 67.9312 2.2632 L 68.0626 2.2258 L 68.2092 2.2594 L 68.5748 2.3124 L 68.9010 2.3258 L 69.1820 2.2994 L 69.3063 2.2641 L 69.4455 2.2960 L 69.8171 2.3499 L 70.1485 2.3635 L 70.4340 2.3367 L 70.5511 2.3034 L 70.6826 2.3336 L 71.0603 2.3883 L 71.3971 2.4022 L 71.6874 2.3749 L 71.7969 2.3437 L 71.9206 2.3722 L 72.3045 2.4278 L 72.6469 2.4418 L 72.9419 2.4141 L 73.0439 2.3851 L 73.1594 2.4117 L 73.5497 2.4682 L 73.8978 2.4825 L 74.1978 2.4544 L 74.2919 2.4276 L 74.3991 2.4522 L 74.7960 2.5097 L 75.1500 2.5243 L 75.4550 2.4956 L 75.5411 2.4711 L 75.6397 2.4938 L 76.0433 2.5522 L 76.4032 2.5670 L 76.7134 2.5379 L 76.7914 2.5157 L 76.8811 2.5363 L 77.2916 2.5958 L 77.6577 2.6108 L 77.9732 2.5812 L 78.0429 2.5614 L 78.1235 2.5799 L 78.5410 2.6404 L 78.9134 2.6557 L 79.2343 2.6256 L 79.2955 2.6082 L 79.3667 2.6245 L 79.7914 2.6861 L 80.1702 2.7016 L 80.4967 2.6710 L 80.5492 2.6560 L 80.6108 2.6702 L 81.0429 2.7328 L 81.4283 2.7486 L 81.7604 2.7174 L 81.8041 2.7050 L 81.8558 2.7169 L 82.2954 2.7806 L 82.6876 2.7967 L 83.0255 2.7649 L 83.0602 2.7551 L 83.1017 2.7646 L 83.5491 2.8294 L 83.9481 2.8458 L 84.2920 2.8135 L 84.3175 2.8063 L 84.3485 2.8134 L 84.8038 2.8794 L 85.2099 2.8961 L 85.5598 2.8632 L 85.5759 2.8586 L 85.5962 2.8633 L 86.0596 2.9304 L 86.4729 2.9474 L 86.8290 2.9139 L 86.8356 2.9121 L 86.8448 2.9142 L 87.3165 2.9825 L 87.7371 2.9998 L 88.0947 2.9662 L 88.5744 3.0357 L 89.0026 3.0533 L 89.3529 3.0204 L 89.8335 3.0901 L 90.2693 3.1080 L 90.6124 3.0758 L 91.0937 3.1455 L 91.5373 3.1637 L 91.8730 3.1322 L 92.3550 3.2020 L 92.8066 3.2206 L 93.1349 3.1897 L 93.6174 3.2596 L 94.0771 3.2785 L 94.3979 3.2484 L 94.8809 3.3184 L 95.3489 3.3376 L 95.6621 3.3082 L 96.1455 3.3782 L 96.6219 3.3978 L 96.9275 3.3691 L 97.4112 3.4392 L 97.8962 3.4592 L 98.1941 3.4312 L 98.6780 3.5013 L 99.1718 3.5216 L 99.4619 3.4944 L 99.9459 3.5645 L 100.4487 3.5852 L 100.7309 3.5586 L 101.2150 3.6288 L 101.7268 3.6498 L 102.0011 3.6241 L 102.4851 3.6942 L 103.0061 3.7156 L 103.2725 3.6906 L 103.7564 3.7607 L 104.2868 3.7825 L 104.5451 3.7582 L 105.0287 3.8283 L 105.5686 3.8505 L 105.8189 3.8270 L 106.3022 3.8970 L 106.8518 3.9196 L 107.0939 3.8968 L 107.5767 3.9668 L 108.1361 3.9898 L 108.3702 3.9678 L 108.8523 4.0377 L 109.4217 4.0611 L 109.6476 4.0399 L 110.1290 4.1096 L 110.7086 4.1334 L 110.9262 4.1130 L 111.4067 4.1826 L 111.9966 4.2069 L 112.2059 4.1872 L 112.6855 4.2567 L 113.2859 4.2814 L 113.4869 4.2625 L 113.9654 4.3318 L 114.5763 4.3569 L 114.7690 4.3388 L 115.2463 4.4080 L 115.8680 4.4335 L 116.0523 4.4162 L 116.5282 4.4852 L 117.1608 4.5112 L 117.3367 4.4946 L 117.8111 4.5634 L 118.4547 4.5898 L 118.6223 4.5741 L 119.0951 4.6426 L 119.7498 4.6695 L 119.9090 4.6545 L 120.3800 4.7228 L 121.0461 4.7501 L 121.1968 4.7360 L 121.6659 4.8039 L 122.3434 4.8318 L 122.4858 4.8184 L 122.9528 4.8861 L 123.6419 4.9144 L 123.7758 4.9018 L 124.2406 4.9691 L 124.9414 4.9980 L 125.0669 4.9862 L 125.5293 5.0531 L 126.2419 5.0824 L 126.3591 5.0714 L 126.8189 5.1381 L 127.5436 5.1678 L 127.6523 5.1576 L 128.1094 5.2239 L 128.8462 5.2541 L 128.9466 5.2447 L 129.4008 5.3105 L 130.1498 5.3413 L 130.2418 5.3327 L 130.6930 5.3980 L 131.4544 5.4293 L 131.5381 5.4215 L 131.9861 5.4864 L 132.7599 5.5182 L 132.8353 5.5111 L 133.2800 5.5755 L 134.0663 5.6079 L 134.1335 5.6015 L 134.5746 5.6655 L 135.3736 5.6983 L 135.4326 5.6928 L 135.8700 5.7561 L 136.6818 5.7895 L 136.7326 5.7848 L 137.1662 5.8476 L 137.9909 5.8815 L 138.0335 5.8775 L 138.4630 5.9397 L 139.3007 5.9741 L 139.3352 5.9709 L 139.7605 6.0325 L 140.6113 6.0675 L 140.6378 6.0650 L 141.0587 6.1260 L 141.9227 6.1615 L 141.9412 6.1598 L 142.3575 6.2201 L 143.2348 6.2561 L 143.2453 6.2551 L 143.6569 6.3148 L 144.5475 6.3514 L 144.5502 6.3511 L 144.9569 6.4100 L 145.8493 6.4467 L 146.2574 6.5058 L 147.1456 6.5423 L 147.5584 6.6021 L 148.4427 6.6385 L 148.8599 6.6989 L 149.7405 6.7351 L 150.1619 6.7962 L 151.0390 6.8322 L 151.4643 6.8939 L 152.3382 6.9298 L 152.7670 6.9919 L 153.6380 7.0277 L 154.0701 7.0903 L 154.9385 7.1260 L 155.3735 7.1890 L 156.2396 7.2246 L 156.6773 7.2880 L 157.5412 7.3235 L 157.9812 7.3873 L 158.8434 7.4227 L 159.2854 7.4868 L 160.1460 7.5221 L 160.5898 7.5864 L 161.4492 7.6217 L 161.8943 7.6862 L 162.7527 7.7215 L 163.1989 7.7861 L 164.0567 7.8214 L 164.5036 7.8862 L 165.3610 7.9214 L 165.8084 7.9862 L 166.6657 8.0214 L 167.1131 8.0863 L 167.9707 8.1215 L 168.4179 8.1863 L 169.2759 8.2216 L 169.7225 8.2863 L 170.5814 8.3216 L 171.0271 8.3862 L 171.8870 8.4215 L 172.3316 8.4859 L 173.1928 8.5213 L 173.6359 8.5855 L 174.4988 8.6210 L 174.9400 8.6849 L 175.8048 8.7204 L 176.2438 8.7840 L 177.1108 8.8197 L 177.5474 8.8829 L 178.4169 8.9187 L 178.8507 8.9815 L 179.7229 9.0174 L 180.1537 9.0798 L 181.0289 9.1158 L 181.4563 9.1777 L 182.3348 9.2138 L 182.7585 9.2752 L 183.6406 9.3114 L 184.0603 9.3722 L 184.9461 9.4086 L 185.3616 9.4688 L 186.2515 9.5054 L 186.6624 9.5649 L 187.5566 9.6017 L 187.9627 9.6605 L 188.8615 9.6975 L 189.2624 9.7556 L 190.1660 9.7927 L 190.5616 9.8500 L 191.4702 9.8874 L 191.8601 9.9438 L 192.7741 9.9814 L 193.1581 10.0370 L 194.0775 10.0748 L 194.4553 10.1296 L 195.3804 10.1676 L 195.7518 10.2214 L 196.6829 10.2597 L 197.0477 10.3125 L 197.9849 10.3510 L 198.3428 10.4029 L 199.2863 10.4417 L 199.6371 10.4925 L 200.5872 10.5316 L 200.9306 10.5813 L 201.8874 10.6206 L 202.2233 10.6693 L 203.1870 10.7089 L 203.5152 10.7565 L 204.4860 10.7964 L 204.8062 10.8428 L 205.7842 10.8830 L 206.0964 10.9282 L 207.0818 10.9687 L 207.3856 11.0127 L 208.3786 11.0535 L 208.6739 11.0963 L 209.6746 11.1374 L 209.9613 11.1790 L 210.9699 11.2204 L 211.2478 11.2607 L 212.2643 11.3025 L 212.5333 11.3415 L 213.5579 11.3836 L 213.8178 11.4212 L 214.8506 11.4637 L 215.1013 11.5000 L 216.1424 11.5428 L 216.3838 11.5778 L 217.4333 11.6209 L 217.6652 11.6545 L 218.7233 11.6980 L 218.9457 11.7302 L 220.0124 11.7741 L 220.2251 11.8049 L 221.3005 11.8491 L 221.5034 11.8785 L 222.5876 11.9230 L 222.7807 11.9510 L 223.8737 11.9959 L 224.0569 12.0225 L 225.1588 12.0678 L 225.3320 12.0929 L 226.4429 12.1385 L 226.6060 12.1621 L 227.7260 12.2082 L 227.8790 12.2304 L 229.0080 12.2768 L 229.1508 12.2975 L 230.2889 12.3442 L 230.4216 12.3635 L 231.5688 12.4106 L 231.6912 12.4284 L 232.8476 12.4759 L 232.9597 12.4921 L 234.1252 12.5400 L 234.2272 12.5548 L 235.4018 12.6031 L 235.4935 12.6164 L 236.6773 12.6650 L 236.7587 12.6768 L 237.9517 12.7259 L 238.0228 12.7362 L 239.2250 12.7856 L 239.2857 12.7944 L 240.4971 12.8442 L 240.5476 12.8515 L 241.7681 12.9017 L 241.8083 12.9075 L 243.0380 12.9580 L 243.0680 12.9624 L 244.3068 13.0133 L 244.3265 13.0162 L 245.5744 13.0675 L 245.5840 13.0689 L 247.4271 13.1446 L 247.4275 13.1446 L 248.6908 13.1965 L 248.6989 13.1957 L 249.9531 13.2473 L 249.9690 13.2458 L 251.2143 13.2970 L 251.2379 13.2948 L 252.4742 13.3456 L 252.5054 13.3427 L 253.7329 13.3931 L 253.7717 13.3895 L 254.9903 13.4396 L 255.0367 13.4352 L 256.2466 13.4850 L 256.3004 13.4799 L 257.5017 13.5293 L 257.5629 13.5235 L 258.7555 13.5726 L 258.8241 13.5661 L 260.0082 13.6148 L 260.0841 13.6077 L 261.2597 13.6560 L 261.3429 13.6482 L 262.5100 13.6961 L 262.6004 13.6877 L 263.7592 13.7353 L 263.8567 13.7261 L 265.0073 13.7734 L 265.1118 13.7636 L 266.2542 13.8106 L 266.3657 13.8001 L 267.5000 13.8467 L 267.6184 13.8356 L 268.7446 13.8819 L 268.8699 13.8701 L 269.9882 13.9161 L 270.1203 13.9037 L 271.2307 13.9494 L 271.3694 13.9363 L 272.4722 13.9817 L 272.6175 13.9680 L 273.7125 14.0130 L 273.8644 13.9988 L 274.9519 14.0435 L 275.1101 14.0286 L 276.1902 14.0730 L 276.3548 14.0576 L 277.4274 14.1017 L 277.5983 14.0856 L 278.6637 14.1294 L 278.8408 14.1128 L 279.8990 14.1563 L 280.0822 14.1391 L 281.1332 14.1823 L 281.3225 14.1645 L 282.3666 14.2074 L 282.5617 14.1891 L 283.5989 14.2317 L 283.8000 14.2128 L 284.8304 14.2552 L 285.0372 14.2358 L 286.0609 14.2779 L 286.2734 14.2579 L 287.2905 14.2997 L 287.5085 14.2792 L 288.5191 14.3208 L 288.7427 14.2998 L 289.7470 14.3411 L 289.9760 14.3196 L 290.9739 14.3606 L 291.2083 14.3386 L 292.2000 14.3793 L 292.4396 14.3568 L 293.4252 14.3974 L 293.6700 14.3744 L 294.6496 14.4146 L 294.8995 14.3912 L 295.8732 14.4312 L 296.1281 14.4073 L 297.0960 14.4471 L 297.3558 14.4227 L 298.3180 14.4622 L 298.5826 14.4374 L 299.5392 14.4767 L 299.8086 14.4514 L 300.7597 14.4905 L 301.0337 14.4648 L 301.9794 14.5037 L 302.2580 14.4775 L 303.1984 14.5162 L 303.4815 14.4896 L 304.4167 14.5280 L 304.7041 14.5010 L 305.6342 14.5393 L 305.9260 14.5119 L 306.8511 14.5499 L 307.1471 14.5221 L 308.0673 14.5599 L 308.3675 14.5317 L 309.2828 14.5693 L 309.5871 14.5408 L 310.4976 14.5782 L 310.8059 14.5492 L 311.7118 14.5865 L 312.0241 14.5572 L 312.9254 14.5942 L 313.2415 14.5645 L 314.1384 14.6014 L 314.4582 14.5714 L 315.3507 14.6081 L 317.1158 14.4423 L 318.5675 14.0294 L 319.6808 13.3765 L 320.4367 12.4948 L 320.8224 11.3992 L 320.8312 10.1086 L 320.4629 8.6450 L 319.7239 7.0335 L 318.6268 5.3017 L 317.1904 3.4791 L 315.4392 1.5970 L 313.4032 -0.3124 L 311.1173 -2.2164 L 308.6206 -4.0826 L 305.9557 -5.8789 L 303.1683 -7.5745 L 300.3061 -9.1406 L 297.4181 -10.5503 L 294.5536 -11.7795 L 291.7617 -12.8071 L 289.0901 -13.6156 L 286.5846 -14.1911 L 284.2880 -14.5238 L 282.2396 -14.6081 L 281.8258 -14.5692 L 281.0423 -14.6014 L 280.6248 -14.5622 L 279.8457 -14.5942 L 279.4242 -14.5546 L 278.6496 -14.5865 L 278.2242 -14.5465 L 277.4542 -14.5782 L 277.0248 -14.5379 L 276.2594 -14.5693 L 275.8259 -14.5286 L 275.0653 -14.5599 L 274.6276 -14.5188 L 273.8718 -14.5499 L 273.4299 -14.5084 L 272.6790 -14.5393 L 272.2328 -14.4974 L 271.4870 -14.5280 L 271.0363 -14.4857 L 270.2956 -14.5162 L 269.8405 -14.4734 L 269.1049 -14.5037 L 268.6453 -14.4605 L 267.9150 -14.4905 L 267.4507 -14.4469 L 266.7258 -14.4767 L 266.2568 -14.4327 L 265.5374 -14.4622 L 265.0635 -14.4177 L 264.3498 -14.4471 L 263.8710 -14.4021 L 263.1629 -14.4312 L 262.6791 -14.3858 L 261.9769 -14.4146 L 261.4880 -14.3687 L 260.7917 -14.3974 L 260.2976 -14.3510 L 259.6073 -14.3793 L 259.1079 -14.3325 L 258.4237 -14.3606 L 257.9190 -14.3132 L 257.2410 -14.3411 L 256.7309 -14.2932 L 256.0592 -14.3208 L 255.5436 -14.2724 L 254.8782 -14.2997 L 254.3570 -14.2508 L 253.6982 -14.2779 L 253.1713 -14.2284 L 252.5190 -14.2552 L 251.9864 -14.2052 L 251.3408 -14.2317 L 250.8023 -14.1812 L 250.1636 -14.2074 L 249.6191 -14.1563 L 248.9872 -14.1823 L 248.4368 -14.1306 L 247.8119 -14.1563 L 247.2553 -14.1040 L 246.6375 -14.1294 L 246.0747 -14.0766 L 245.4641 -14.1017 L 244.8951 -14.0482 L 244.2918 -14.0730 L 243.7164 -14.0190 L 243.1204 -14.0435 L 242.5386 -13.9888 L 241.9501 -14.0130 L 241.3617 -13.9578 L 240.7808 -13.9817 L 240.1859 -13.9258 L 239.6126 -13.9494 L 239.0110 -13.8929 L 238.4455 -13.9161 L 237.8371 -13.8590 L 237.2794 -13.8819 L 236.6642 -13.8241 L 236.1145 -13.8467 L 235.4923 -13.7883 L 234.9506 -13.8106 L 234.3215 -13.7515 L 233.7879 -13.7734 L 233.1517 -13.7137 L 232.6263 -13.7353 L 231.9830 -13.6749 L 231.4659 -13.6961 L 230.8154 -13.6351 L 230.3066 -13.6560 L 229.6488 -13.5942 L 229.1484 -13.6148 L 228.4834 -13.5523 L 227.9915 -13.5726 L 227.3191 -13.5094 L 226.8357 -13.5293 L 226.1558 -13.4655 L 225.6811 -13.4850 L 224.9938 -13.4204 L 224.5277 -13.4396 L 223.8328 -13.3743 L 223.3756 -13.3931 L 222.6731 -13.3272 L 222.2246 -13.3456 L 221.5145 -13.2789 L 221.0749 -13.2970 L 220.3571 -13.2296 L 219.9264 -13.2473 L 219.2009 -13.1792 L 218.7791 -13.1965 L 218.0458 -13.1277 L 217.6331 -13.1446 L 216.8920 -13.0750 L 216.4883 -13.0916 L 215.7395 -13.0213 L 215.3448 -13.0375 L 214.5881 -12.9665 L 214.2026 -12.9823 L 213.4380 -12.9105 L 213.0616 -12.9260 L 212.2891 -12.8535 L 211.9219 -12.8686 L 211.1415 -12.7953 L 210.7834 -12.8100 L 209.9951 -12.7360 L 209.6462 -12.7503 L 208.8500 -12.6756 L 208.5103 -12.6895 L 207.7062 -12.6140 L 207.3757 -12.6276 L 206.5637 -12.5514 L 206.2423 -12.5646 L 205.4224 -12.4876 L 205.1102 -12.5004 L 204.2824 -12.4227 L 203.9793 -12.4351 L 203.1437 -12.3567 L 202.8498 -12.3687 L 202.0063 -12.2895 L 201.7214 -12.3013 L 200.8702 -12.2213 L 200.5944 -12.2327 L 199.7353 -12.1520 L 199.4685 -12.1630 L 198.6018 -12.0816 L 198.3439 -12.0922 L 197.4695 -12.0101 L 197.2206 -12.0203 L 196.3385 -11.9375 L 196.0984 -11.9473 L 195.2088 -11.8638 L 194.9775 -11.8733 L 194.0804 -11.7891 L 193.8578 -11.7982 L 192.9533 -11.7133 L 192.7393 -11.7221 L 191.8274 -11.6364 L 191.6219 -11.6449 L 190.7028 -11.5586 L 190.5058 -11.5667 L 189.5794 -11.4797 L 189.3907 -11.4874 L 188.4573 -11.3998 L 188.2768 -11.4072 L 187.3364 -11.3189 L 187.1641 -11.3260 L 186.2168 -11.2370 L 186.0524 -11.2438 L 185.0984 -11.1542 L 184.9418 -11.1606 L 183.9811 -11.0704 L 183.8323 -11.0766 L 182.8651 -10.9857 L 182.7238 -10.9915 L 181.7503 -10.9001 L 181.6164 -10.9056 L 180.6366 -10.8136 L 180.5099 -10.8188 L 179.5240 -10.7262 L 179.4045 -10.7312 L 178.4126 -10.6380 L 178.2999 -10.6427 L 177.3023 -10.5490 L 177.1964 -10.5533 L 176.1931 -10.4591 L 176.0937 -10.4632 L 175.0849 -10.3685 L 174.9919 -10.3723 L 173.9778 -10.2771 L 173.8909 -10.2807 L 172.8718 -10.1850 L 172.7908 -10.1883 L 171.7667 -10.0921 L 171.6914 -10.0952 L 170.6626 -9.9986 L 170.5928 -10.0015 L 169.5595 -9.9045 L 169.4950 -9.9071 L 168.4573 -9.8097 L 168.3978 -9.8121 L 167.3560 -9.7143 L 167.3013 -9.7165 L 166.2556 -9.6183 L 166.2055 -9.6204 L 165.1560 -9.5218 L 165.1102 -9.5237 L 164.0572 -9.4249 L 164.0155 -9.4266 L 162.9592 -9.3274 L 162.9213 -9.3289 L 161.8620 -9.2295 L 161.8276 -9.2309 L 160.7655 -9.1311 L 160.7344 -9.1324 L 159.6697 -9.0324 L 159.6416 -9.0336 L 158.5745 -8.9334 L 158.5492 -8.9344 L 157.4799 -8.8340 L 157.4571 -8.8350 L 156.3895 -8.7347 L 156.3880 -8.7343 L 156.3653 -8.7352 L 155.3098 -8.6361 L 155.3026 -8.6341 L 155.2737 -8.6353 L 154.2303 -8.5373 L 154.2176 -8.5337 L 154.1824 -8.5351 L 153.1511 -8.4383 L 153.1329 -8.4331 L 153.0913 -8.4348 L 152.0722 -8.3391 L 152.0485 -8.3323 L 152.0004 -8.3343 L 150.9933 -8.2397 L 150.9643 -8.2315 L 150.9095 -8.2338 L 149.9146 -8.1403 L 149.8804 -8.1306 L 149.8187 -8.1331 L 148.8360 -8.0409 L 148.7967 -8.0297 L 148.7280 -8.0325 L 147.7574 -7.9414 L 147.7130 -7.9288 L 147.6372 -7.9319 L 146.6788 -7.8419 L 146.6295 -7.8279 L 146.5464 -7.8313 L 145.6001 -7.7424 L 145.5460 -7.7271 L 145.4554 -7.7308 L 144.5213 -7.6431 L 144.4626 -7.6264 L 144.3644 -7.6304 L 143.4424 -7.5438 L 143.3791 -7.5258 L 143.2732 -7.5302 L 142.3633 -7.4447 L 142.2955 -7.4254 L 142.1817 -7.4301 L 141.2840 -7.3458 L 141.2118 -7.3253 L 141.0901 -7.3303 L 140.2043 -7.2471 L 140.1279 -7.2254 L 139.9981 -7.2307 L 139.1244 -7.1487 L 139.0438 -7.1257 L 138.9058 -7.1314 L 138.0441 -7.0505 L 137.9595 -7.0264 L 137.8132 -7.0324 L 136.9634 -6.9526 L 136.8749 -6.9275 L 136.7201 -6.9338 L 135.8823 -6.8551 L 135.7899 -6.8289 L 135.6266 -6.8356 L 134.8007 -6.7580 L 134.7046 -6.7307 L 134.5326 -6.7378 L 133.7185 -6.6613 L 133.6189 -6.6330 L 133.4381 -6.6404 L 132.6358 -6.5651 L 132.5327 -6.5358 L 132.3431 -6.5435 L 131.5525 -6.4693 L 131.4460 -6.4390 L 131.2475 -6.4472 L 130.4685 -6.3740 L 130.3588 -6.3428 L 130.1513 -6.3514 L 129.3838 -6.2793 L 129.2710 -6.2472 L 129.0544 -6.2561 L 128.2985 -6.1851 L 128.1827 -6.1522 L 127.9568 -6.1615 L 127.2123 -6.0916 L 127.0936 -6.0578 L 126.8586 -6.0675 L 126.1254 -5.9986 L 126.0039 -5.9641 L 125.7595 -5.9741 L 125.0377 -5.9063 L 124.9135 -5.8710 L 124.6597 -5.8815 L 123.9491 -5.8147 L 123.8224 -5.7787 L 123.5591 -5.7895 L 122.8596 -5.7238 L 122.7304 -5.6871 L 122.4577 -5.6983 L 121.7691 -5.6336 L 121.6376 -5.5962 L 121.3554 -5.6079 L 120.6778 -5.5442 L 120.5440 -5.5062 L 120.2522 -5.5182 L 119.5854 -5.4556 L 119.4495 -5.4169 L 119.1481 -5.4293 L 118.4920 -5.3677 L 118.3542 -5.3285 L 118.0430 -5.3413 L 117.3976 -5.2807 L 117.2578 -5.2409 L 116.9370 -5.2541 L 116.3021 -5.1945 L 116.1605 -5.1543 L 115.8299 -5.1678 L 115.2055 -5.1092 L 115.0622 -5.0685 L 114.7219 -5.0824 L 114.1078 -5.0248 L 113.9629 -4.9836 L 113.6128 -4.9980 L 113.0089 -4.9412 L 112.8625 -4.8996 L 112.5027 -4.9144 L 111.9089 -4.8586 L 111.7611 -4.8166 L 111.3915 -4.8318 L 110.8077 -4.7770 L 110.6586 -4.7345 L 110.2792 -4.7501 L 109.7053 -4.6962 L 109.5549 -4.6535 L 109.1658 -4.6695 L 108.6016 -4.6165 L 108.4501 -4.5734 L 108.0513 -4.5898 L 107.4967 -4.5377 L 107.3442 -4.4944 L 106.9356 -4.5112 L 106.3905 -4.4600 L 106.2371 -4.4163 L 105.8188 -4.4335 L 105.2831 -4.3832 L 105.1288 -4.3393 L 104.7008 -4.3569 L 104.1743 -4.3075 L 104.0192 -4.2634 L 103.5816 -4.2814 L 103.0643 -4.2328 L 102.9085 -4.1885 L 102.4612 -4.2069 L 101.9529 -4.1591 L 101.7965 -4.1146 L 101.3396 -4.1334 L 100.8402 -4.0865 L 100.6832 -4.0419 L 100.2168 -4.0611 L 99.7261 -4.0150 L 99.5687 -3.9702 L 99.0928 -3.9898 L 98.6107 -3.9445 L 98.4529 -3.8996 L 97.9675 -3.9196 L 97.4939 -3.8751 L 97.3358 -3.8301 L 96.8410 -3.8505 L 96.3757 -3.8068 L 96.2174 -3.7618 L 95.7132 -3.7825 L 95.2562 -3.7396 L 95.0977 -3.6945 L 94.5842 -3.7156 L 94.1353 -3.6734 L 93.9740 -3.6276 L 93.9657 -3.6288 L 93.4540 -3.6498 L 93.0129 -3.6084 L 92.8473 -3.5613 L 92.8251 -3.5645 L 92.3224 -3.5852 L 91.8892 -3.5445 L 91.7192 -3.4961 L 91.6834 -3.5013 L 91.1896 -3.5216 L 90.7641 -3.4816 L 90.5899 -3.4321 L 90.5406 -3.4392 L 90.0556 -3.4592 L 89.6376 -3.4199 L 89.4593 -3.3692 L 89.3967 -3.3782 L 88.9203 -3.3978 L 88.5097 -3.3593 L 88.3274 -3.3074 L 88.2517 -3.3184 L 87.7837 -3.3376 L 87.3804 -3.2998 L 87.1942 -3.2468 L 87.1055 -3.2596 L 86.6458 -3.2785 L 86.2497 -3.2413 L 86.0597 -3.1873 L 85.9583 -3.2020 L 85.5067 -3.2206 L 85.1176 -3.1840 L 84.9239 -3.1290 L 84.8099 -3.1455 L 84.3663 -3.1637 L 83.9840 -3.1278 L 83.7869 -3.0717 L 83.6605 -3.0901 L 83.2247 -3.1080 L 82.8491 -3.0727 L 82.6485 -3.0157 L 82.5099 -3.0357 L 82.0818 -3.0533 L 81.7128 -3.0187 L 81.5089 -2.9607 L 81.3582 -2.9825 L 80.9376 -2.9998 L 80.5751 -2.9658 L 80.3680 -2.9069 L 80.2055 -2.9304 L 79.7922 -2.9474 L 79.4361 -2.9139 L 79.2258 -2.8541 L 79.0516 -2.8794 L 78.6456 -2.8961 L 78.2956 -2.8632 L 78.0823 -2.8025 L 77.8967 -2.8294 L 77.4977 -2.8458 L 77.1538 -2.8135 L 76.9376 -2.7520 L 76.7407 -2.7806 L 76.3485 -2.7967 L 76.0106 -2.7649 L 75.7916 -2.7026 L 75.5836 -2.7328 L 75.1982 -2.7486 L 74.8661 -2.7174 L 74.6443 -2.6543 L 74.4255 -2.6861 L 74.0466 -2.7016 L 73.7202 -2.6710 L 73.4958 -2.6071 L 73.2663 -2.6404 L 72.8939 -2.6557 L 72.5730 -2.6256 L 72.3460 -2.5610 L 72.1060 -2.5958 L 71.7399 -2.6108 L 71.4244 -2.5812 L 71.1950 -2.5160 L 70.9447 -2.5522 L 70.5847 -2.5670 L 70.2745 -2.5379 L 70.0428 -2.4720 L 69.7823 -2.5097 L 69.4284 -2.5243 L 69.1234 -2.4956 L 68.8893 -2.4291 L 68.6189 -2.4682 L 68.2708 -2.4825 L 67.9709 -2.4544 L 67.7346 -2.3872 L 67.4545 -2.4278 L 67.1121 -2.4418 L 66.8171 -2.4141 L 66.5788 -2.3464 L 66.2891 -2.3883 L 65.9523 -2.4022 L 65.6620 -2.3749 L 65.4233 -2.3070 L 65.4224 -2.3065 L 65.1227 -2.3499 L 64.7913 -2.3635 L 64.5057 -2.3367 L 64.2708 -2.2699 L 64.2665 -2.2673 L 63.9553 -2.3124 L 63.6292 -2.3258 L 63.3481 -2.2994 L 63.1170 -2.2337 L 63.1094 -2.2292 L 62.7869 -2.2759 L 62.4659 -2.2891 L 62.1893 -2.2632 L 61.9618 -2.1985 L 61.9510 -2.1921 L 61.6175 -2.2405 L 61.3016 -2.2534 L 61.0293 -2.2279 L 60.8053 -2.1642 L 60.7915 -2.1561 L 60.4472 -2.2059 L 60.1361 -2.2187 L 59.8680 -2.1935 L 59.6475 -2.1308 L 59.6295 -2.1203 L 59.6194 -2.1226 L 59.2759 -2.1723 L 58.9696 -2.1849 L 58.7055 -2.1601 L 58.4884 -2.0984 L 58.4659 -2.0852 L 58.4420 -2.0907 L 58.1037 -2.1397 L 57.8019 -2.1521 L 57.5419 -2.1277 L 57.3280 -2.0669 L 57.3012 -2.0511 L 57.2639 -2.0597 L 56.9306 -2.1080 L 56.6333 -2.1202 L 56.3771 -2.0962 L 56.1664 -2.0363 L 56.1354 -2.0181 L 56.0849 -2.0296 L 55.7565 -2.0772 L 55.4635 -2.0893 L 55.2111 -2.0656 L 55.0035 -2.0065 L 54.9684 -1.9860 L 54.9052 -2.0005 L 54.5815 -2.0474 L 54.2928 -2.0592 L 54.0439 -2.0359 L 53.8393 -1.9777 L 53.8003 -1.9548 L 53.7248 -1.9721 L 53.4056 -2.0184 L 53.1210 -2.0301 L 52.8757 -2.0070 L 52.6739 -1.9497 L 52.6311 -1.9246 L 52.5436 -1.9447 L 52.2289 -1.9903 L 51.9482 -2.0018 L 51.7063 -1.9791 L 51.5073 -1.9225 L 51.4609 -1.8953 L 51.3616 -1.9181 L 51.0512 -1.9631 L 50.7744 -1.9745 L 50.5358 -1.9521 L 50.3396 -1.8963 L 50.2896 -1.8670 L 50.1790 -1.8924 L 49.8727 -1.9367 L 49.5996 -1.9480 L 49.3642 -1.9259 L 49.1706 -1.8708 L 49.1173 -1.8395 L 48.9956 -1.8675 L 48.6934 -1.9112 L 48.4238 -1.9223 L 48.1915 -1.9005 L 48.0005 -1.8462 L 47.9439 -1.8129 L 47.8115 -1.8434 L 47.5132 -1.8866 L 47.2471 -1.8975 L 47.0178 -1.8760 L 46.8293 -1.8224 L 46.7695 -1.7873 L 46.6267 -1.8201 L 46.3322 -1.8627 L 46.0695 -1.8735 L 45.8431 -1.8523 L 45.6569 -1.7993 L 45.5941 -1.7625 L 45.4412 -1.7976 L 45.1503 -1.8397 L 44.8909 -1.8504 L 44.6673 -1.8294 L 44.4834 -1.7771 L 44.4177 -1.7385 L 44.2551 -1.7759 L 43.9677 -1.8175 L 43.7114 -1.8281 L 43.4905 -1.8073 L 43.3088 -1.7556 L 43.2403 -1.7154 L 43.0683 -1.7549 L 42.7843 -1.7961 L 42.5310 -1.8065 L 42.3127 -1.7860 L 42.1332 -1.7350 L 42.0619 -1.6932 L 41.8808 -1.7348 L 41.6001 -1.7755 L 41.3497 -1.7857 L 41.1339 -1.7655 L 40.9565 -1.7150 L 40.8827 -1.6717 L 40.6927 -1.7154 L 40.4151 -1.7556 L 40.1675 -1.7658 L 39.9542 -1.7457 L 39.7787 -1.6958 L 39.7024 -1.6511 L 39.5040 -1.6967 L 39.2294 -1.7365 L 38.9845 -1.7465 L 38.7735 -1.7267 L 38.5999 -1.6773 L 38.5213 -1.6312 L 38.3146 -1.6787 L 38.0429 -1.7181 L 37.8006 -1.7280 L 37.5918 -1.7084 L 37.4201 -1.6596 L 37.3392 -1.6122 L 37.1246 -1.6615 L 36.8557 -1.7004 L 36.6159 -1.7103 L 36.4093 -1.6909 L 36.2393 -1.6426 L 36.1563 -1.5939 L 35.9340 -1.6449 L 35.6678 -1.6835 L 35.4304 -1.6933 L 35.2258 -1.6741 L 35.0575 -1.6262 L 34.9725 -1.5763 L 34.7428 -1.6291 L 34.4792 -1.6673 L 34.2441 -1.6770 L 34.0414 -1.6579 L 33.8748 -1.6105 L 33.7878 -1.5595 L 33.5511 -1.6139 L 33.2899 -1.6518 L 33.0569 -1.6613 L 32.8562 -1.6425 L 32.6911 -1.5955 L 32.6023 -1.5435 L 32.3587 -1.5994 L 32.0999 -1.6369 L 31.8690 -1.6464 L 31.6701 -1.6277 L 31.5065 -1.5812 L 31.4160 -1.5281 L 31.1658 -1.5856 L 30.9092 -1.6228 L 30.6804 -1.6322 L 30.4831 -1.6136 L 30.3210 -1.5675 L 30.2288 -1.5135 L 29.9724 -1.5724 L 29.7179 -1.6092 L 29.4909 -1.6186 L 29.2954 -1.6002 L 29.1345 -1.5545 L 29.0408 -1.4995 L 28.7784 -1.5598 L 28.5259 -1.5964 L 28.3008 -1.6056 L 28.1068 -1.5874 L 27.9472 -1.5420 L 27.8521 -1.4862 L 27.5838 -1.5479 L 27.3333 -1.5842 L 27.1099 -1.5933 L 26.9174 -1.5753 L 26.7590 -1.5302 L 26.6623 -1.4735 L 26.6600 -1.4742 L 26.3888 -1.5365 L 26.1401 -1.5726 L 25.9183 -1.5817 L 25.7272 -1.5637 L 25.5700 -1.5190 L 25.4715 -1.4612 L 25.4626 -1.4639 L 25.1932 -1.5258 L 24.9462 -1.5616 L 24.7260 -1.5706 L 24.5362 -1.5528 L 24.3802 -1.5084 L 24.2799 -1.4496 L 24.2647 -1.4542 L 23.9971 -1.5156 L 23.7518 -1.5512 L 23.5330 -1.5602 L 23.3445 -1.5425 L 23.1895 -1.4984 L 23.0875 -1.4386 L 23.0664 -1.4450 L 22.8005 -1.5061 L 22.5568 -1.5414 L 22.3394 -1.5503 L 22.1521 -1.5327 L 21.9980 -1.4889 L 21.8945 -1.4282 L 21.8677 -1.4364 L 21.6034 -1.4971 L 21.3612 -1.5322 L 21.1451 -1.5411 L 20.9589 -1.5236 L 20.8057 -1.4800 L 20.7009 -1.4185 L 20.6687 -1.4282 L 20.4059 -1.4886 L 20.1650 -1.5235 L 19.9501 -1.5324 L 19.7650 -1.5150 L 19.6127 -1.4717 L 19.5065 -1.4094 L 19.4693 -1.4207 L 19.2079 -1.4807 L 18.9682 -1.5154 L 18.7545 -1.5242 L 18.5703 -1.5069 L 18.4189 -1.4638 L 18.3115 -1.4009 L 18.2695 -1.4136 L 18.0094 -1.4733 L 17.7710 -1.5079 L 17.5583 -1.5166 L 17.3750 -1.4994 L 17.2243 -1.4566 L 17.1159 -1.3929 L 17.0694 -1.4070 L 16.8105 -1.4665 L 16.5731 -1.5009 L 16.3615 -1.5096 L 16.1791 -1.4924 L 16.0291 -1.4498 L 15.9196 -1.3856 L 15.8689 -1.4009 L 15.6111 -1.4602 L 15.3748 -1.4944 L 15.1640 -1.5030 L 14.9824 -1.4860 L 14.8331 -1.4435 L 14.7227 -1.3788 L 14.6681 -1.3953 L 14.4113 -1.4543 L 14.1759 -1.4884 L 13.9660 -1.4970 L 13.7851 -1.4801 L 13.6364 -1.4377 L 13.5252 -1.3726 L 13.4669 -1.3902 L 13.2111 -1.4490 L 12.9766 -1.4829 L 12.7674 -1.4915 L 12.5872 -1.4746 L 12.4390 -1.4325 L 12.3271 -1.3669 L 12.2654 -1.3855 L 12.0104 -1.4441 L 11.7767 -1.4780 L 11.5683 -1.4865 L 11.3887 -1.4697 L 11.2410 -1.4277 L 11.1285 -1.3617 L 11.0636 -1.3813 L 10.8094 -1.4397 L 10.5764 -1.4735 L 10.3686 -1.4820 L 10.1895 -1.4652 L 10.0422 -1.4233 L 9.9293 -1.3571 L 9.9293 -1.3570 L 9.8615 -1.3776 L 9.6080 -1.4358 L 9.3756 -1.4695 L 9.1684 -1.4780 L 8.9898 -1.4612 L 8.8429 -1.4194 L 8.7303 -1.3534 L 8.7298 -1.3528 L 8.6590 -1.3742 L 8.4061 -1.4323 L 8.1743 -1.4659 L 7.9676 -1.4744 L 7.7894 -1.4577 L 7.6429 -1.4160 L 7.5305 -1.3501 L 7.5297 -1.3491 L 7.4563 -1.3713 L 7.2039 -1.4293 L 6.9726 -1.4628 L 6.7663 -1.4713 L 6.5885 -1.4546 L 6.4423 -1.4130 L 6.3302 -1.3473 L 6.3290 -1.3459 L 6.2532 -1.3688 L 6.0013 -1.4267 L 5.7704 -1.4601 L 5.5645 -1.4686 L 5.3871 -1.4519 L 5.2411 -1.4104 L 5.1292 -1.3448 L 5.1278 -1.3432 L 5.0499 -1.3668 L 4.7984 -1.4245 L 4.5678 -1.4579 L 4.3622 -1.4664 L 4.1850 -1.4497 L 4.0393 -1.4083 L 3.9276 -1.3428 L 3.9260 -1.3409 L 3.8463 -1.3651 L 3.5951 -1.4228 L 3.3648 -1.4561 L 3.1595 -1.4646 L 2.9825 -1.4479 L 2.8370 -1.4066 L 2.7253 -1.3411 L 2.7237 -1.3392 L 2.6424 -1.3638 L 2.3914 -1.4214 L 2.1614 -1.4547 L 1.9562 -1.4632 L 1.7794 -1.4466 L 1.6340 -1.4052 L 1.5225 -1.3398 L 1.5208 -1.3379 L 1.4382 -1.3629 L 1.1874 -1.4205 L 0.9575 -1.4538 L 0.7525 -1.4622 L 0.5758 -1.4456 L 0.4305 -1.4043 L 0.3191 -1.3389 L 0.3174 -1.3370 L 0.2338 -1.3623 L -0.0169 -1.4199 L -0.2467 -1.4532 L -0.4516 -1.4616 L -0.6283 -1.4450 L -0.7735 -1.4037 L -0.8849 -1.3384 L -0.8865 -1.3366 L -0.9709 -1.3621 L -1.2216 -1.4197 L -1.4513 -1.4530 L -1.6562 -1.4614 L -1.8328 -1.4448 L -1.9781 -1.4035 L -2.0894 -1.3382 L -2.1651 -1.2500 L -2.2036 -1.1404 L -2.2045 -1.0113 Z"/>
  <g id="debug">
  <path fill="none" stroke="#ff3366" stroke-opacity="0.6" stroke-width="0.5" d="M 0 0 L 1.5075 0 L 3.0151 0 L 4.5226 0 L 6.0302 0 L 7.5377 0 L 9.0452 0 L 10.5528 0 L 12.0603 0 L 13.5678 0 L 15.0754 0 L 16.5829 0 L 18.0905 0 L 19.5980 0 L 21.1055 0 L 22.6131 0 L 24.1206 0 L 25.6281 0 L 27.1357 0 L 28.6432 0 L 30.1508 0 L 31.6583 0 L 33.1658 0 L 34.6734 0 L 36.1809 0 L 37.6884 0 L 39.1960 0 L 40.7035 0 L 42.2111 0 L 43.7186 0 L 45.2261 0 L 46.7337 0 L 48.2412 0 L 49.7487 0 L 51.2563 0 L 52.7638 0 L 54.2714 0 L 55.7789 0 L 57.2864 0 L 58.7940 0 L 60.3015 0 L 61.8090 0 L 63.3166 0 L 64.8241 0 L 66.3317 0 L 67.8392 0 L 69.3467 0 L 70.8543 0 L 72.3618 0 L 73.8693 0 L 75.3769 0 L 76.8844 0 L 78.3920 0 L 79.8995 0 L 81.4070 0 L 82.9146 0 L 84.4221 0 L 85.9296 0 L 87.4372 0 L 88.9447 0 L 90.4523 0 L 91.9598 0 L 93.4673 0 L 94.9749 0 L 96.4824 0 L 97.9899 0 L 99.4975 0 L 101.0050 0 L 102.5126 0 L 104.0201 0 L 105.5276 0 L 107.0352 0 L 108.5427 0 L 110.0503 0 L 111.5578 0 L 113.0653 0 L 114.5729 0 L 116.0804 0 L 117.5879 0 L 119.0955 0 L 120.6030 0 L 122.1106 0 L 123.6181 0 L 125.1256 0 L 126.6332 0 L 128.1407 0 L 129.6482 0 L 131.1558 0 L 132.6633 0 L 134.1709 0 L 135.6784 0 L 137.1859 0 L 138.6935 0 L 140.2010 0 L 141.7085 0 L 143.2161 0 L 144.7236 0 L 146.2312 0 L 147.7387 0 L 149.2462 0 L 150.7538 0 L 152.2613 0 L 153.7688 0 L 155.2764 0 L 156.7839 0 L 158.2915 0 L 159.7990 0 L 161.3065 0 L 162.8141 0 L 164.3216 0 L 165.8291 0 L 167.3367 0 L 168.8442 0 L 170.3518 0 L 171.8593 0 L 173.3668 0 L 174.8744 0 L 176.3819 0 L 177.8894 0 L 179.3970 0 L 180.9045 0 L 182.4121 0 L 183.9196 0 L 185.4271 0 L 186.9347 0 L 188.4422 0 L 189.9497 0 L 191.4573 0 L 192.9648 0 L 194.4724 0 L 195.9799 0 L 197.4874 0 L 198.9950 0 L 200.5025 0 L 202.0101 0 L 203.5176 0 L 205.0251 0 L 206.5327 0 L 208.0402 0 L 209.5477 0 L 211.0553 0 L 212.5628 0 L 214.0704 0 L 215.5779 0 L 217.0854 0 L 218.5930 0 L 220.1005 0 L 221.6080 0 L 223.1156 0 L 224.6231 0 L 226.1307 0 L 227.6382 0 L 229.1457 0 L 230.6533 0 L 232.1608 0 L 233.6683 0 L 235.1759 0 L 236.6834 0 L 238.1910 0 L 239.6985 0 L 241.2060 0 L 242.7136 0 L 244.2211 0 L 245.7286 0 L 247.2362 0 L 248.7437 0 L 250.2513 0 L 251.7588 0 L 253.2663 0 L 254.7739 0 L 256.2814 0 L 257.7889 0 L 259.2965 0 L 260.8040 0 L 262.3116 0 L 263.8191 0 L 265.3266 0 L 266.8342 0 L 268.3417 0 L 269.8492 0 L 271.3568 0 L 272.8643 0 L 274.3719 0 L 275.8794 0 L 277.3869 0 L 278.8945 0 L 280.4020 0 L 281.9095 0 L 283.4171 0 L 284.9246 0 L 286.4322 0 L 287.9397 0 L 289.4472 0 L 290.9548 0 L 292.4623 0 L 293.9698 0 L 295.4774 0 L 296.9849 0 L 298.4925 0 L 300.0000 0"/>
  <path fill="none" stroke="#ff9900" stroke-opacity="0.6" stroke-width="0.6" d=""/>
  <path fill="none" stroke="#222222" stroke-opacity="0.7" stroke-width="0.6" d=""/>
  <circle cx="0" cy="0" r="0.6000" fill="#222222" fill-opacity="0.5"/>
    <circle cx="1.2048" cy="0" r="0.6000" fill="#222222" fill-opacity="0.5"/>
    <circle cx="2.4096" cy="0" r="0.6000" fill="#222222" fill-opacity="0.5"/>
    <circle cx="3.6145" cy="0" r="0.6000" fill="#222222" fill-opacity="0.5"/>
    <circle cx="4.8193" cy="0" r="0.6000" fill="#222222" fill-opacity="0.5"/>
    <circle cx="6.0241" cy="0" r="0.6000" fill="#222222" fill-opacity="0.5"/>
    <circle cx="7.2289" cy="0" r="0.6000" fill="#222222" fill-opacity="0.5"/>
    <circle cx="8.4337" cy="0" r="0.6000" fill="#222222" fill-opacity="0.5"/>
    <circle cx="9.6386" cy="0" r="0.6000" fill="#222222" fill-opacity="0.5"/>
    <circle cx="10.8434" cy="0" r="0.6000" fill="#222222" fill-opacity="0.5"/>
    <circle cx="12.0482" cy="0" r="0.6000" fill="#222222" fill-opacity="0.5"/>
    <circle cx="13.2530" cy="0" r="0.6000" fill="#222222" fill-opacity="0.5"/>
    <circle cx="14.4578" cy="0" r="0.6000" fill="#222222" fill-opacity="0.5"/>
    <circle cx="15.6627" cy="0" r="0.6000" fill="#222222" fill-opacity="0.5"/>
    <circle cx="16.8675" cy="0" r="0.6000" fill="#222222" fill-opacity="0.5"/>
    <circle cx="18.0723" cy="0" r="0.6000" fill="#222222" fill-opacity="0.5"/>
    <circle cx="19.2771" cy="0" r="0.6000" fill="#222222" fill-opacity="0.5"/>
    <circle cx="20.4819" cy="0" r="0.6000" fill="#222222" fill-opacity="0.5"/>
    <circle cx="21.6867" cy="0" r="0.6000" fill="#222222" fill-opacity="0.5"/>
    <circle cx="22.8916" cy="0" r="0.6000" fill="#222222" fill-opacity="0.5"/>
    <circle cx="24.0964" cy="0" r="0.6000" fill="#222222" fill-opacity="0.5"/>
    <circle cx="25.3012" cy="0" r="0.6000" fill="#222222" fill-opacity="0.5"/>
    <circle cx="26.5060" cy="0" r="0.6000" fill="#222222" fill-opacity="0.5"/>
    <circle cx="27.7108" cy="0" r="0.6000" fill="#222222" fill-opacity="0.5"/>
    <circle cx="28.9157" cy="0" r="0.6000" fill="#222222" fill-opacity="0.5"/>
    <circle cx="30.1205" cy="0" r="0.6000" fill="#222222" fill-opacity="0.5"/>
    <circle cx="31.3253" cy="0" r="0.6000" fill="#222222" fill-opacity="0.5"/>
    <circle cx="32.5301" cy="0" r="0.6000" fill="#222222" fill-opacity="0.5"/>
    <circle cx="33.7349" cy="0" r="0.6000" fill="#222222" fill-opacity="0.5"/>
    <circle cx="34.9398" cy="0" r="0.6000" fill="#222222" fill-opacity="0.5"/>
    <circle cx="36.1446" cy="0" r="0.6000" fill="#222222" fill-opacity="0.5"/>
    <circle cx="37.3494" cy="0" r="0.6000" fill="#222222" fill-opacity="0.5"/>
    <circle cx="38.5542" cy="0" r="0.6000" fill="#222222" fill-opacity="0.5"/>
    <circle cx="39.7590" cy="0" r="0.6000" fill="#222222" fill-opacity="0.5"/>
    <circle cx="40.9639" cy="0" r="0.6000" fill="#222222" fill-opacity="0.5"/>
    <circle cx="42.1687" cy="0" r="0.6000" fill="#222222" fill-opacity="0.5"/>
    <circle cx="43.3735" cy="0" r="0.6000" fill="#222222" fill-opacity="0.5"/>
    <circle cx="44.5783" cy="0" r="0.6000" fill="#222222" fill-opacity="0.5"/>
    <circle cx="45.7831" cy="0" r="0.6000" fill="#222222" fill-opacity="0.5"/>
    <circle cx="46.9880" cy="0" r="0.6000" fill="#222222" fill-opacity="0.5"/>
    <circle cx="48.1928" cy="0" r="0.6000" fill="#222222" fill-opacity="0.5"/>
    <circle cx="49.3976" cy="0" r="0.6000" fill="#222222" fill-opacity="0.5"/>
    <circle cx="50.6024" cy="0" r="0.6000" fill="#222222" fill-opacity="0.5"/>
    <circle cx="51.8072" cy="0" r="0.6000" fill="#222222" fill-opacity="0.5"/>
    <circle cx="53.0120" cy="0" r="0.6000" fill="#222222" fill-opacity="0.5"/>
    <circle cx="54.2169" cy="0" r="0.6000" fill="#222222" fill-opacity="0.5"/>
    <circle cx="55.4217" cy="0" r="0.6000" fill="#222222" fill-opacity="0.5"/>
    <circle cx="56.6265" cy="0" r="0.6000" fill="#222222" fill-opacity="0.5"/>
    <circle cx="57.8313" cy="0" r="0.6000" fill="#222222" fill-opacity="0.5"/>
    <circle cx="59.0361" cy="0" r="0.6000" fill="#222222" fill-opacity="0.5"/>
    <circle cx="60.2410" cy="0" r="0.6000" fill="#222222" fill-opacity="0.5"/>
    <circle cx="61.4458" cy="0" r="0.6000" fill="#222222" fill-opacity="0.5"/>
    <circle cx="62.6506" cy="0" r="0.6000" fill="#222222" fill-opacity="0.5"/>
    <circle cx="63.8554" cy="0" r="0.6000" fill="#222222" fill-opacity="0.5"/>
    <circle cx="65.0602" cy="0" r="0.6000" fill="#222222" fill-opacity="0.5"/>
    <circle cx="66.2651" cy="0" r="0.6000" fill="#222222" fill-opacity="0.5"/>
    <circle cx="67.4699" cy="0" r="0.6000" fill="#222222" fill-opacity="0.5"/>
    <circle cx="68.6747" cy="0" r="0.6000" fill="#222222" fill-opacity="0.5"/>
    <circle cx="69.8795" cy="0" r="0.6000" fill="#222222" fill-opacity="0.5"/>
    <circle cx="71.0843" cy="0" r="0.6000" fill="#222222" fill-opacity="0.5"/>
    <circle cx="72.2892" cy="0" r="0.6000" fill="#222222" fill-opacity="0.5"/>
    <circle cx="73.4940" cy="0" r="0.6000" fill="#222222" fill-opacity="0.5"/>
    <circle cx="74.6988" cy="0" r="0.6000" fill="#222222" fill-opacity="0.5"/>
    <circle cx="75.9036" cy="0" r="0.6000" fill="#222222" fill-opacity="0.5"/>
    <circle cx="77.1084" cy="0" r="0.6000" fill="#222222" fill-opacity="0.5"/>
    <circle cx="78.3133" cy="0" r="0.6000" fill="#222222" fill-opacity="0.5"/>
    <circle cx="79.5181" cy="0" r="0.6000" fill="#222222" fill-opacity="0.5"/>
    <circle cx="80.7229" cy="0" r="0.6000" fill="#222222" fill-opacity="0.5"/>
    <circle cx="81.9277" cy="0" r="0.6000" fill="#222222" fill-opacity="0.5"/>
    <circle cx="83.1325" cy="0" r="0.6000" fill="#222222" fill-opacity="0.5"/>
    <circle cx="84.3373" cy="0" r="0.6000" fill="#222222" fill-opacity="0.5"/>
    <circle cx="85.5422" cy="0" r="0.6000" fill="#222222" fill-opacity="0.5"/>
    <circle cx="86.7470" cy="0" r="0.6000" fill="#222222" fill-opacity="0.5"/>
    <circle cx="87.9518" cy="0" r="0.6000" fill="#222222" fill-opacity="0.5"/>
    <circle cx="89.1566" cy="0" r="0.6000" fill="#222222" fill-opacity="0.5"/>
    <circle cx="90.3614" cy="0" r="0.6000" fill="#222222" fill-opacity="0.5"/>
    <circle cx="91.5663" cy="0" r="0.6000" fill="#222222" fill-opacity="0.5"/>
    <circle cx="92.7711" cy="0" r="0.6000" fill="#222222" fill-opacity="0.5"/>
    <circle cx="93.9759" cy="0" r="0.6000" fill="#222222" fill-opacity="0.5"/>
    <circle cx="95.1807" cy="0" r="0.6000" fill="#222222" fill-opacity="0.5"/>
    <circle cx="96.3855" cy="0" r="0.6000" fill="#222222" fill-opacity="0.5"/>
    <circle cx="97.5904" cy="0" r="0.6000" fill="#222222" fill-opacity="0.5"/>
    <circle cx="98.7952" cy="0" r="0.6000" fill="#222222" fill-opacity="0.5"/>
    <circle cx="100.0000" cy="0" r="0.6000" fill="#222222" fill-opacity="0.5"/>
    <circle cx="101.2048" cy="0" r="0.6000" fill="#222222" fill-opacity="0.5"/>
    <circle cx="102.4096" cy="0" r="0.6000" fill="#222222" fill-opacity="0.5"/>
    <circle cx="103.6145" cy="0" r="0.6000" fill="#222222" fill-opacity="0.5"/>
    <circle cx="104.8193" cy="0" r="0.6000" fill="#222222" fill-opacity="0.5"/>
    <circle cx="106.0241" cy="0" r="0.6000" fill="#222222" fill-opacity="0.5"/>
    <circle cx="107.2289" cy="0" r="0.6000" fill="#222222" fill-opacity="0.5"/>
    <circle cx="108.4337" cy="0" r="0.6000" fill="#222222" fill-opacity="0.5"/>
    <circle cx="109.6386" cy="0" r="0.6000" fill="#222222" fill-opacity="0.5"/>
    <circle cx="110.8434" cy="0" r="0.6000" fill="#222222" fill-opacity="0.5"/>
    <circle cx="112.0482" cy="0" r="0.6000" fill="#222222" fill-opacity="0.5"/>
    <circle cx="113.2530" cy="0" r="0.6000" fill="#222222" fill-opacity="0.5"/>
    <circle cx="114.4578" cy="0" r="0.6000" fill="#222222" fill-opacity="0.5"/>
    <circle cx="115.6627" cy="0" r="0.6000" fill="#222222" fill-opacity="0.5"/>
    <circle cx="116.8675" cy="0" r="0.6000" fill="#222222" fill-opacity="0.5"/>
    <circle cx="118.0723" cy="0" r="0.6000" fill="#222222" fill-opacity="0.5"/>
    <circle cx="119.2771" cy="0" r="0.6000" fill="#222222" fill-opacity="0.5"/>
    <circle cx="120.4819" cy="0" r="0.6000" fill="#222222" fill-opacity="0.5"/>
    <circle cx="121.6867" cy="0" r="0.6000" fill="#222222" fill-opacity="0.5"/>
    <circle cx="122.8916" cy="0" r="0.6000" fill="#222222" fill-opacity="0.5"/>
    <circle cx="124.0964" cy="0" r="0.6000" fill="#222222" fill-opacity="0.5"/>
    <circle cx="125.3012" cy="0" r="0.6000" fill="#222222" fill-opacity="0.5"/>
    <circle cx="126.5060" cy="0" r="0.6000" fill="#222222" fill-opacity="0.5"/>
    <circle cx="127.7108" cy="0" r="0.6000" fill="#222222" fill-opacity="0.5"/>
    <circle cx="128.9157" cy="0" r="0.6000" fill="#222222" fill-opacity="0.5"/>
    <circle cx="130.1205" cy="0" r="0.6000" fill="#222222" fill-opacity="0.5"/>
    <circle cx="131.3253" cy="0" r="0.6000" fill="#222222" fill-opacity="0.5"/>
    <circle cx="132.5301" cy="0" r="0.6000" fill="#222222" fill-opacity="0.5"/>
    <circle cx="133.7349" cy="0" r="0.6000" fill="#222222" fill-opacity="0.5"/>
    <circle cx="134.9398" cy="0" r="0.6000" fill="#222222" fill-opacity="0.5"/>
    <circle cx="136.1446" cy="0" r="0.6000" fill="#222222" fill-opacity="0.5"/>
    <circle cx="137.3494" cy="0" r="0.6000" fill="#222222" fill-opacity="0.5"/>
    <circle cx="138.5542" cy="0" r="0.6000" fill="#222222" fill-opacity="0.5"/>
    <circle cx="139.7590" cy="0" r="0.6000" fill="#222222" fill-opacity="0.5"/>
    <circle cx="140.9639" cy="0" r="0.6000" fill="#222222" fill-opacity="0.5"/>
    <circle cx="142.1687" cy="0" r="0.6000" fill="#222222" fill-opacity="0.5"/>
    <circle cx="143.3735" cy="0" r="0.6000" fill="#222222" fill-opacity="0.5"/>
    <circle cx="144.5783" cy="0" r="0.6000" fill="#222222" fill-opacity="0.5"/>
    <circle cx="145.7831" cy="0" r="0.6000" fill="#222222" fill-opacity="0.5"/>
    <circle cx="146.9880" cy="0" r="0.6000" fill="#222222" fill-opacity="0.5"/>
    <circle cx="148.1928" cy="0" r="0.6000" fill="#222222" fill-opacity="0.5"/>
    <circle cx="149.3976" cy="0" r="0.6000" fill="#222222" fill-opacity="0.5"/>
    <circle cx="150.6024" cy="0" r="0.6000" fill="#222222" fill-opacity="0.5"/>
    <circle cx="151.8072" cy="0" r="0.6000" fill="#222222" fill-opacity="0.5"/>
    <circle cx="153.0120" cy="0" r="0.6000" fill="#222222" fill-opacity="0.5"/>
    <circle cx="154.2169" cy="0" r="0.6000" fill="#222222" fill-opacity="0.5"/>
    <circle cx="155.4217" cy="0" r="0.6000" fill="#222222" fill-opacity="0.5"/>
    <circle cx="156.6265" cy="0" r="0.6000" fill="#222222" fill-opacity="0.5"/>
    <circle cx="157.8313" cy="0" r="0.6000" fill="#222222" fill-opacity="0.5"/>
    <circle cx="159.0361" cy="0" r="0.6000" fill="#222222" fill-opacity="0.5"/>
    <circle cx="160.2410" cy="0" r="0.6000" fill="#222222" fill-opacity="0.5"/>
    <circle cx="161.4458" cy="0" r="0.6000" fill="#222222" fill-opacity="0.5"/>
    <circle cx="162.6506" cy="0" r="0.6000" fill="#222222" fill-opacity="0.5"/>
    <circle cx="163.8554" cy="0" r="0.6000" fill="#222222" fill-opacity="0.5"/>
    <circle cx="165.0602" cy="0" r="0.6000" fill="#222222" fill-opacity="0.5"/>
    <circle cx="166.2651" cy="0" r="0.6000" fill="#222222" fill-opacity="0.5"/>
    <circle cx="167.4699" cy="0" r="0.6000" fill="#222222" fill-opacity="0.5"/>
    <circle cx="168.6747" cy="0" r="0.6000" fill="#222222" fill-opacity="0.5"/>
    <circle cx="169.8795" cy="0" r="0.6000" fill="#222222" fill-opacity="0.5"/>
    <circle cx="171.0843" cy="0" r="0.6000" fill="#222222" fill-opacity="0.5"/>
    <circle cx="172.2892" cy="0" r="0.6000" fill="#222222" fill-opacity="0.5"/>
    <circle cx="173.4940" cy="0" r="0.6000" fill="#222222" fill-opacity="0.5"/>
    <circle cx="174.6988" cy="0" r="0.6000" fill="#222222" fill-opacity="0.5"/>
    <circle cx="175.9036" cy="0" r="0.6000" fill="#222222" fill-opacity="0.5"/>
    <circle cx="177.1084" cy="0" r="0.6000" fill="#222222" fill-opacity="0.5"/>
    <circle cx="178.3133" cy="0" r="0.6000" fill="#222222" fill-opacity="0.5"/>
    <circle cx="179.5181" cy="0" r="0.6000" fill="#222222" fill-opacity="0.5"/>
    <circle cx="180.7229" cy="0" r="0.6000" fill="#222222" fill-opacity="0.5"/>
    <circle cx="181.9277" cy="0" r="0.6000" fill="#222222" fill-opacity="0.5"/>
    <circle cx="183.1325" cy="0" r="0.6000" fill="#222222" fill-opacity="0.5"/>
    <circle cx="184.3373" cy="0" r="0.6000" fill="#222222" fill-opacity="0.5"/>
    <circle cx="185.5422" cy="0" r="0.6000" fill="#222222" fill-opacity="0.5"/>
    <circle cx="186.7470" cy="0" r="0.6000" fill="#222222" fill-opacity="0.5"/>
    <circle cx="187.9518" cy="0" r="0.6000" fill="#222222" fill-opacity="0.5"/>
    <circle cx="189.1566" cy="0" r="0.6000" fill="#222222" fill-opacity="0.5"/>
    <circle cx="190.3614" cy="0" r="0.6000" fill="#222222" fill-opacity="0.5"/>
    <circle cx="191.5663" cy="0" r="0.6000" fill="#222222" fill-opacity="0.5"/>
    <circle cx="192.7711" cy="0" r="0.6000" fill="#222222" fill-opacity="0.5"/>
    <circle cx="193.9759" cy="0" r="0.6000" fill="#222222" fill-opacity="0.5"/>
    <circle cx="195.1807" cy="0" r="0.6000" fill="#222222" fill-opacity="0.5"/>
    <circle cx="196.3855" cy="0" r="0.6000" fill="#222222" fill-opacity="0.5"/>
    <circle cx="197.5904" cy="0" r="0.6000" fill="#222222" fill-opacity="0.5"/>
    <circle cx="198.7952" cy="0" r="0.6000" fill="#222222" fill-opacity="0.5"/>
    <circle cx="200.0000" cy="0" r="0.6000" fill="#222222" fill-opacity="0.5"/>
    <circle cx="201.2048" cy="0" r="0.6000" fill="#222222" fill-opacity="0.5"/>
    <circle cx="202.4096" cy="0" r="0.6000" fill="#222222" fill-opacity="0.5"/>
    <circle cx="203.6145" cy="0" r="0.6000" fill="#222222" fill-opacity="0.5"/>
    <circle cx="204.8193" cy="0" r="0.6000" fill="#222222" fill-opacity="0.5"/>
    <circle cx="206.0241" cy="0" r="0.6000" fill="#222222" fill-opacity="0.5"/>
    <circle cx="207.2289" cy="0" r="0.6000" fill="#222222" fill-opacity="0.5"/>
    <circle cx="208.4337" cy="0" r="0.6000" fill="#222222" fill-opacity="0.5"/>
    <circle cx="209.6386" cy="0" r="0.6000" fill="#222222" fill-opacity="0.5"/>
    <circle cx="210.8434" cy="0" r="0.6000" fill="#222222" fill-opacity="0.5"/>
    <circle cx="212.0482" cy="0" r="0.6000" fill="#222222" fill-opacity="0.5"/>
    <circle cx="213.2530" cy="0" r="0.6000" fill="#222222" fill-opacity="0.5"/>
    <circle cx="214.4578" cy="0" r="0.6000" fill="#222222" fill-opacity="0.5"/>
    <circle cx="215.6627" cy="0" r="0.6000" fill="#222222" fill-opacity="0.5"/>
    <circle cx="216.8675" cy="0" r="0.6000" fill="#222222" fill-opacity="0.5"/>
    <circle cx="218.0723" cy="0" r="0.6000" fill="#222222" fill-opacity="0.5"/>
    <circle cx="219.2771" cy="0" r="0.6000" fill="#222222" fill-opacity="0.5"/>
    <circle cx="220.4819" cy="0" r="0.6000" fill="#222222" fill-opacity="0.5"/>
    <circle cx="221.6867" cy="0" r="0.6000" fill="#222222" fill-opacity="0.5"/>
    <circle cx="222.8916" cy="0" r="0.6000" fill="#222222" fill-opacity="0.5"/>
    <circle cx="224.0964" cy="0" r="0.6000" fill="#222222" fill-opacity="0.5"/>
    <circle cx="225.3012" cy="0" r="0.6000" fill="#222222" fill-opacity="0.5"/>
    <circle cx="226.5060" cy="0" r="0.6000" fill="#222222" fill-opacity="0.5"/>
    <circle cx="227.7108" cy="0" r="0.6000" fill="#222222" fill-opacity="0.5"/>
    <circle cx="228.9157" cy="0" r="0.6000" fill="#222222" fill-opacity="0.5"/>
    <circle cx="230.1205" cy="0" r="0.6000" fill="#222222" fill-opacity="0.5"/>
    <circle cx="231.3253" cy="0" r="0.6000" fill="#222222" fill-opacity="0.5"/>
    <circle cx="232.5301" cy="0" r="0.6000" fill="#222222" fill-opacity="0.5"/>
    <circle cx="233.7349" cy="0" r="0.6000" fill="#222222" fill-opacity="0.5"/>
    <circle cx="234.9398" cy="0" r="0.6000" fill="#222222" fill-opacity="0.5"/>
    <circle cx="236.1446" cy="0" r="0.6000" fill="#222222" fill-opacity="0.5"/>
    <circle cx="237.3494" cy="0" r="0.6000" fill="#222222" fill-opacity="0.5"/>
    <circle cx="238.5542" cy="0" r="0.6000" fill="#222222" fill-opacity="0.5"/>
    <circle cx="239.7590" cy="0" r="0.6000" fill="#222222" fill-opacity="0.5"/>
    <circle cx="240.9639" cy="0" r="0.6000" fill="#222222" fill-opacity="0.5"/>
    <circle cx="242.1687" cy="0" r="0.6000" fill="#222222" fill-opacity="0.5"/>
    <circle cx="243.3735" cy="0" r="0.6000" fill="#222222" fill-opacity="0.5"/>
    <circle cx="244.5783" cy="0" r="0.6000" fill="#222222" fill-opacity="0.5"/>
    <circle cx="245.7831" cy="0" r="0.6000" fill="#222222" fill-opacity="0.5"/>
    <circle cx="246.9880" cy="0" r="0.6000" fill="#222222" fill-opacity="0.5"/>
    <circle cx="248.1928" cy="0" r="0.6000" fill="#222222" fill-opacity="0.5"/>
    <circle cx="249.3976" cy="0" r="0.6000" fill="#222222" fill-opacity="0.5"/>
    <circle cx="250.6024" cy="0" r="0.6000" fill="#222222" fill-opacity="0.5"/>
    <circle cx="251.8072" cy="0" r="0.6000" fill="#222222" fill-opacity="0.5"/>
    <circle cx="253.0120" cy="0" r="0.6000" fill="#222222" fill-opacity="0.5"/>
    <circle cx="254.2169" cy="0" r="0.6000" fill="#222222" fill-opacity="0.5"/>
    <circle cx="255.4217" cy="0" r="0.6000" fill="#222222" fill-opacity="0.5"/>
    <circle cx="256.6265" cy="0" r="0.6000" fill="#222222" fill-opacity="0.5"/>
    <circle cx="257.8313" cy="0" r="0.6000" fill="#222222" fill-opacity="0.5"/>
    <circle cx="259.0361" cy="0" r="0.6000" fill="#222222" fill-opacity="0.5"/>
    <circle cx="260.2410" cy="0" r="0.6000" fill="#222222" fill-opacity="0.5"/>
    <circle cx="261.4458" cy="0" r="0.6000" fill="#222222" fill-opacity="0.5"/>
    <circle cx="262.6506" cy="0" r="0.6000" fill="#222222" fill-opacity="0.5"/>
    <circle cx="263.8554" cy="0" r="0.6000" fill="#222222" fill-opacity="0.5"/>
    <circle cx="265.0602" cy="0" r="0.6000" fill="#222222" fill-opacity="0.5"/>
    <circle cx="266.2651" cy="0" r="0.6000" fill="#222222" fill-opacity="0.5"/>
    <circle cx="267.4699" cy="0" r="0.6000" fill="#222222" fill-opacity="0.5"/>
    <circle cx="268.6747" cy="0" r="0.6000" fill="#222222" fill-opacity="0.5"/>
    <circle cx="269.8795" cy="0" r="0.6000" fill="#222222" fill-opacity="0.5"/>
    <circle cx="271.0843" cy="0" r="0.6000" fill="#222222" fill-opacity="0.5"/>
    <circle cx="272.2892" cy="0" r="0.6000" fill="#222222" fill-opacity="0.5"/>
    <circle cx="273.4940" cy="0" r="0.6000" fill="#222222" fill-opacity="0.5"/>
    <circle cx="274.6988" cy="0" r="0.6000" fill="#222222" fill-opacity="0.5"/>
    <circle cx="275.9036" cy="0" r="0.6000" fill="#222222" fill-opacity="0.5"/>
    <circle cx="277.1084" cy="0" r="0.6000" fill="#222222" fill-opacity="0.5"/>
    <circle cx="278.3133" cy="0" r="0.6000" fill="#222222" fill-opacity="0.5"/>
    <circle cx="279.5181" cy="0" r="0.6000" fill="#222222" fill-opacity="0.5"/>
    <circle cx="280.7229" cy="0" r="0.6000" fill="#222222" fill-opacity="0.5"/>
    <circle cx="281.9277" cy="0" r="0.6000" fill="#222222" fill-opacity="0.5"/>
    <circle cx="283.1325" cy="0" r="0.6000" fill="#222222" fill-opacity="0.5"/>
    <circle cx="284.3373" cy="0" r="0.6000" fill="#222222" fill-opacity="0.5"/>
    <circle cx="285.5422" cy="0" r="0.6000" fill="#222222" fill-opacity="0.5"/>
    <circle cx="286.7470" cy="0" r="0.6000" fill="#222222" fill-opacity="0.5"/>
    <circle cx="287.9518" cy="0" r="0.6000" fill="#222222" fill-opacity="0.5"/>
    <circle cx="289.1566" cy="0" r="0.6000" fill="#222222" fill-opacity="0.5"/>
    <circle cx="290.3614" cy="0" r="0.6000" fill="#222222" fill-opacity="0.5"/>
    <circle cx="291.5663" cy="0" r="0.6000" fill="#222222" fill-opacity="0.5"/>
    <circle cx="292.7711" cy="0" r="0.6000" fill="#222222" fill-opacity="0.5"/>
    <circle cx="293.9759" cy="0" r="0.6000" fill="#222222" fill-opacity="0.5"/>
    <circle cx="295.1807" cy="0" r="0.6000" fill="#222222" fill-opacity="0.5"/>
    <circle cx="296.3855" cy="0" r="0.6000" fill="#222222" fill-opacity="0.5"/>
    <circle cx="297.5904" cy="0" r="0.6000" fill="#222222" fill-opacity="0.5"/>
    <circle cx="298.7952" cy="0" r="0.6000" fill="#222222" fill-opacity="0.5"/>
    <circle cx="300.0000" cy="0" r="0.6000" fill="#222222" fill-opacity="0.5"/>
  <path fill="none" stroke="#8844ff" stroke-opacity="0.35" stroke-width="0.6" d="M -0.4375 0.7578 L 0.7673 0.7579 L 1.9719 0.7582 L 3.1764 0.7587 L 4.3808 0.7594 L 5.5851 0.7603 L 6.7893 0.7615 L 7.9933 0.7629 L 9.1972 0.7645 L 10.4009 0.7664 L 11.6045 0.7685 L 12.8080 0.7708 L 14.0113 0.7734 L 15.2145 0.7762 L 16.4175 0.7794 L 17.6204 0.7827 L 18.8231 0.7864 L 20.0256 0.7903 L 21.2280 0.7946 L 22.4302 0.7991 L 23.6323 0.8039 L 24.8341 0.8090 L 26.0358 0.8144 L 27.2373 0.8201 L 28.4387 0.8262 L 29.6398 0.8326 L 30.8408 0.8393 L 32.0415 0.8463 L 33.2421 0.8537 L 34.4424 0.8614 L 35.6426 0.8695 L 36.8425 0.8780 L 38.0422 0.8868 L 39.2417 0.8960 L 40.4410 0.9056 L 41.6401 0.9156 L 42.8389 0.9259 L 44.0375 0.9367 L 45.2359 0.9479 L 46.4340 0.9595 L 47.6319 0.9715 L 48.8295 0.9839 L 50.0269 0.9968 L 51.2241 1.0101 L 52.4210 1.0238 L 53.6176 1.0380 L 54.8139 1.0526 L 56.0100 1.0677 L 57.2059 1.0833 L 58.4014 1.0994 L 59.5967 1.1159 L 60.7917 1.1329 L 61.9864 1.1504 L 63.1808 1.1685 L 64.3749 1.1870 L 65.5688 1.2060 L 66.7623 1.2255 L 67.9556 1.2456 L 69.1485 1.2661 L 70.3411 1.2872 L 71.5335 1.3089 L 72.7255 1.3311 L 73.9172 1.3538 L 75.1086 1.3770 L 76.2997 1.4008 L 77.4904 1.4252 L 78.6808 1.4501 L 79.8709 1.4756 L 81.0607 1.5017 L 82.2502 1.5283 L 83.4393 1.5555 L 84.6281 1.5832 L 85.8166 1.6115 L 87.0047 1.6404 L 88.1925 1.6699 L 89.3800 1.7000 L 90.5671 1.7306 L 91.7539 1.7618 L 92.9403 1.7936 L 94.1265 1.8260 L 95.3123 1.8590 L 96.4977 1.8925 L 97.6829 1.9266 L 98.8676 1.9613 L 100.0521 1.9966 L 101.2362 2.0324 L 102.4201 2.0688 L 103.6035 2.1057 L 104.7867 2.1433 L 105.9695 2.1813 L 107.1520 2.2200 L 108.3342 2.2591 L 109.5161 2.2989 L 110.6977 2.3391 L 111.8790 2.3799 L 113.0599 2.4212 L 114.2406 2.4630 L 115.4210 2.5054 L 116.6011 2.5482 L 117.7809 2.5915 L 118.9604 2.6353 L 120.1397 2.6796 L 121.3187 2.7244 L 122.4974 2.7696 L 123.6758 2.8152 L 124.8541 2.8613 L 126.0320 2.9078 L 127.2098 2.9547 L 128.3873 3.0020 L 129.5646 3.0497 L 130.7417 3.0977 L 131.9185 3.1461 L 133.0952 3.1948 L 134.2717 3.2439 L 135.4480 3.2933 L 136.6241 3.3430 L 137.8001 3.3930 L 138.9759 3.4432 L 140.1516 3.4937 L 141.3271 3.5444 L 142.5026 3.5953 L 143.6779 3.6464 L 144.8530 3.6978 L 146.0281 3.7492 L 147.2031 3.8009 L 148.3781 3.8526 L 149.5529 3.9045 L 150.7278 3.9565 L 151.9025 4.0086 L 153.0773 4.0607 L 154.2520 4.1128 L 155.4267 4.1650 L 156.6014 4.2172 L 157.7761 4.2694 L 158.9508 4.3215 L 160.1255 4.3736 L 161.3003 4.4256 L 162.4751 4.4775 L 163.6500 4.5294 L 164.8250 4.5811 L 166.0000 4.6327 L 167.1752 4.6841 L 168.3504 4.7353 L 169.5257 4.7864 L 170.7012 4.8372 L 171.8768 4.8879 L 173.0525 4.9382 L 174.2284 4.9884 L 175.4044 5.0382 L 176.5807 5.0878 L 177.7570 5.1370 L 178.9336 5.1860 L 180.1104 5.2346 L 181.2873 5.2828 L 182.4645 5.3307 L 183.6419 5.3782 L 184.8195 5.4254 L 185.9973 5.4721 L 187.1754 5.5184 L 188.3537 5.5643 L 189.5323 5.6098 L 190.7111 5.6548 L 191.8902 5.6993 L 193.0696 5.7434 L 194.2492 5.7870 L 195.4292 5.8301 L 196.6094 5.8727 L 197.7899 5.9148 L 198.9707 5.9565 L 200.1518 5.9975 L 201.3332 6.0381 L 202.5149 6.0781 L 203.6969 6.1176 L 204.8793 6.1565 L 206.0619 6.1949 L 207.2449 6.2327 L 208.4282 6.2700 L 209.6118 6.3067 L 210.7958 6.3429 L 211.9801 6.3784 L 213.1647 6.4134 L 214.3496 6.4478 L 215.5349 6.4817 L 216.7205 6.5150 L 217.9065 6.5476 L 219.0927 6.5797 L 220.2794 6.6113 L 221.4663 6.6422 L 222.6536 6.6726 L 223.8412 6.7024 L 225.0292 6.7316 L 226.2175 6.7602 L 227.4061 6.7883 L 228.5951 6.8157 L 229.7843 6.8426 L 230.9740 6.8690 L 232.1639 6.8947 L 233.3542 6.9199 L 234.5448 6.9446 L 235.7357 6.9687 L 236.9269 6.9922 L 238.1185 7.0152 L 239.3103 7.0376 L 240.5025 7.0595 L 241.6950 7.0809 L 242.8878 7.1017 L 244.0809 7.1220 L 245.2743 7.1418 L 246.4680 7.1610 L 247.6620 7.1798 L 248.8563 7.1980 L 250.0508 7.2158 L 251.2457 7.2330 L 252.4409 7.2498 L 253.6363 7.2660 L 254.8320 7.2818 L 256.0280 7.2971 L 257.2242 7.3120 L 258.4207 7.3264 L 259.6175 7.3403 L 260.8145 7.3538 L 262.0118 7.3668 L 263.2094 7.3794 L 264.4072 7.3916 L 265.6052 7.4033 L 266.8035 7.4147 L 268.0020 7.4256 L 269.2007 7.4361 L 270.3997 7.4462 L 271.5989 7.4560 L 272.7983 7.4653 L 273.9980 7.4743 L 275.1978 7.4828 L 276.3979 7.4911 L 277.5982 7.4989 L 278.7987 7.5064 L 279.9994 7.5136 L 281.2003 7.5204 L 282.4013 7.5269 L 283.6026 7.5330 L 284.8041 7.5389 L 286.0057 7.5444 L 287.2075 7.5496 L 288.4095 7.5545 L 289.6117 7.5591 L 290.8140 7.5634 L 292.0165 7.5674 L 293.2192 7.5711 L 294.4220 7.5745 L 295.6250 7.5777 L 304.3750 -7.5777 L 303.1683 -7.5745 L 301.9615 -7.5711 L 300.7546 -7.5674 L 299.5474 -7.5634 L 298.3401 -7.5591 L 297.1327 -7.5545 L 295.9250 -7.5496 L 294.7172 -7.5444 L 293.5092 -7.5389 L 292.3010 -7.5330 L 291.0926 -7.5269 L 289.8841 -7.5204 L 288.6753 -7.5136 L 287.4664 -7.5064 L 286.2572 -7.4989 L 285.0479 -7.4911 L 283.8383 -7.4828 L 282.6285 -7.4743 L 281.4185 -7.4653 L 280.2083 -7.4560 L 278.9979 -7.4462 L 277.7872 -7.4361 L 276.5763 -7.4256 L 275.3652 -7.4147 L 274.1538 -7.4033 L 272.9422 -7.3916 L 271.7304 -7.3794 L 270.5183 -7.3668 L 269.3059 -7.3538 L 268.0933 -7.3403 L 266.8805 -7.3264 L 265.6673 -7.3120 L 264.4540 -7.2971 L 263.2403 -7.2818 L 262.0264 -7.2660 L 260.8122 -7.2498 L 259.5977 -7.2330 L 258.3829 -7.2158 L 257.1678 -7.1980 L 255.9525 -7.1798 L 254.7368 -7.1610 L 253.5209 -7.1418 L 252.3047 -7.1220 L 251.0881 -7.1017 L 249.8713 -7.0809 L 248.6541 -7.0595 L 247.4367 -7.0376 L 246.2189 -7.0152 L 245.0008 -6.9922 L 243.7824 -6.9687 L 242.5637 -6.9446 L 241.3446 -6.9199 L 240.1253 -6.8947 L 238.9056 -6.8690 L 237.6855 -6.8426 L 236.4652 -6.8157 L 235.2445 -6.7883 L 234.0235 -6.7602 L 232.8021 -6.7316 L 231.5805 -6.7024 L 230.3584 -6.6726 L 229.1361 -6.6422 L 227.9134 -6.6113 L 226.6904 -6.5797 L 225.4670 -6.5476 L 224.2433 -6.5150 L 223.0193 -6.4817 L 221.7950 -6.4478 L 220.5703 -6.4134 L 219.3452 -6.3784 L 218.1199 -6.3429 L 216.8942 -6.3067 L 215.6682 -6.2700 L 214.4418 -6.2327 L 213.2152 -6.1949 L 211.9882 -6.1565 L 210.7609 -6.1176 L 209.5333 -6.0781 L 208.3054 -6.0381 L 207.0771 -5.9975 L 205.8486 -5.9565 L 204.6198 -5.9148 L 203.3906 -5.8727 L 202.1612 -5.8301 L 200.9315 -5.7870 L 199.7015 -5.7434 L 198.4712 -5.6993 L 197.2407 -5.6548 L 196.0099 -5.6098 L 194.7788 -5.5643 L 193.5475 -5.5184 L 192.3159 -5.4721 L 191.0841 -5.4254 L 189.8521 -5.3782 L 188.6199 -5.3307 L 187.3874 -5.2828 L 186.1547 -5.2346 L 184.9218 -5.1860 L 183.6888 -5.1370 L 182.4555 -5.0878 L 181.2221 -5.0382 L 179.9885 -4.9884 L 178.7547 -4.9382 L 177.5208 -4.8879 L 176.2868 -4.8372 L 175.0526 -4.7864 L 173.8183 -4.7353 L 172.5839 -4.6841 L 171.3494 -4.6327 L 170.1148 -4.5811 L 168.8801 -4.5294 L 167.6454 -4.4775 L 166.4105 -4.4256 L 165.1757 -4.3736 L 163.9408 -4.3215 L 162.7059 -4.2694 L 161.4709 -4.2172 L 160.2360 -4.1650 L 159.0010 -4.1128 L 157.7661 -4.0607 L 156.5312 -4.0086 L 155.2963 -3.9565 L 154.0615 -3.9045 L 152.8267 -3.8526 L 151.5920 -3.8009 L 150.3574 -3.7492 L 149.1229 -3.6978 L 147.8884 -3.6464 L 146.6541 -3.5953 L 145.4198 -3.5444 L 144.1857 -3.4937 L 142.9518 -3.4432 L 141.7180 -3.3930 L 140.4843 -3.3430 L 139.2508 -3.2933 L 138.0175 -3.2439 L 136.7843 -3.1948 L 135.5513 -3.1461 L 134.3186 -3.0977 L 133.0860 -3.0497 L 131.8537 -3.0020 L 130.6215 -2.9547 L 129.3896 -2.9078 L 128.1580 -2.8613 L 126.9266 -2.8152 L 125.6954 -2.7696 L 124.4645 -2.7244 L 123.2338 -2.6796 L 122.0034 -2.6353 L 120.7733 -2.5915 L 119.5435 -2.5482 L 118.3139 -2.5054 L 117.0847 -2.4630 L 115.8557 -2.4212 L 114.6270 -2.3799 L 113.3987 -2.3391 L 112.1706 -2.2989 L 110.9429 -2.2591 L 109.7154 -2.2200 L 108.4883 -2.1813 L 107.2615 -2.1433 L 106.0350 -2.1057 L 104.8089 -2.0688 L 103.5830 -2.0324 L 102.3575 -1.9966 L 101.1324 -1.9613 L 99.9075 -1.9266 L 98.6830 -1.8925 L 97.4588 -1.8590 L 96.2350 -1.8260 L 95.0115 -1.7936 L 93.7883 -1.7618 L 92.5654 -1.7306 L 91.3429 -1.7000 L 90.1208 -1.6699 L 88.8989 -1.6404 L 87.6774 -1.6115 L 86.4562 -1.5832 L 85.2354 -1.5555 L 84.0149 -1.5283 L 82.7947 -1.5017 L 81.5748 -1.4756 L 80.3553 -1.4501 L 79.1361 -1.4252 L 77.9172 -1.4008 L 76.6986 -1.3770 L 75.4804 -1.3538 L 74.2625 -1.3311 L 73.0448 -1.3089 L 71.8275 -1.2872 L 70.6105 -1.2661 L 69.3938 -1.2456 L 68.1774 -1.2255 L 66.9613 -1.2060 L 65.7455 -1.1870 L 64.5300 -1.1685 L 63.3148 -1.1504 L 62.0999 -1.1329 L 60.8852 -1.1159 L 59.6709 -1.0994 L 58.4568 -1.0833 L 57.2430 -1.0677 L 56.0294 -1.0526 L 54.8161 -1.0380 L 53.6031 -1.0238 L 52.3904 -1.0101 L 51.1779 -0.9968 L 49.9656 -0.9839 L 48.7536 -0.9715 L 47.5419 -0.9595 L 46.3304 -0.9479 L 45.1191 -0.9367 L 43.9081 -0.9259 L 42.6973 -0.9156 L 41.4867 -0.9056 L 40.2764 -0.8960 L 39.0662 -0.8868 L 37.8563 -0.8780 L 36.6466 -0.8695 L 35.4371 -0.8614 L 34.2278 -0.8537 L 33.0187 -0.8463 L 31.8098 -0.8393 L 30.6012 -0.8326 L 29.3927 -0.8262 L 28.1843 -0.8201 L 26.9762 -0.8144 L 25.7683 -0.8090 L 24.5605 -0.8039 L 23.3529 -0.7991 L 22.1455 -0.7946 L 20.9382 -0.7903 L 19.7311 -0.7864 L 18.5242 -0.7827 L 17.3174 -0.7794 L 16.1108 -0.7762 L 14.9043 -0.7734 L 13.6980 -0.7708 L 12.4919 -0.7685 L 11.2858 -0.7664 L 10.0799 -0.7645 L 8.8742 -0.7629 L 7.6686 -0.7615 L 6.4631 -0.7603 L 5.2577 -0.7594 L 4.0525 -0.7587 L 2.8474 -0.7582 L 1.6424 -0.7579 L 0.4375 -0.7578 L -0.4375 0.7578 Z"/>
  
  
  
</g>
</svg>