<svg xmlns="http://www.w3.org/2000/svg" width="342.9653" height="49.1227" viewBox="-12.2045 -24.5614 342.9653 49.1227">
  <path fill="black" stroke="none" fill-rule="evenodd" d="M -2.2045 -1.0113 L -2.1677 -0.8649 L -2.0937 -0.7036 L -1.9840 -0.5304 L -1.8403 -0.3481 L -1.6651 -0.1598 L -1.4614 0.0313 L -1.2327 0.2217 L -0.9830 0.4084 L -0.7164 0.5881 L -0.4375 0.7578 L -0.1512 0.9144 L 0.1378 1.0555 L 0.4243 1.1784 L 0.7036 1.2813 L 0.9709 1.3621 L 1.2216 1.4197 L 1.4513 1.4530 L 1.6563 1.4614 L 1.8328 1.4448 L 1.9781 1.4035 L 2.0485 1.3622 L 2.2108 1.4114 L 2.4705 1.4710 L 2.7086 1.5055 L 2.9209 1.5142 L 3.1039 1.4971 L 3.2544 1.4543 L 3.3141 1.4192 L 3.4507 1.4606 L 3.7195 1.5223 L 3.9659 1.5580 L 4.1856 1.5671 L 4.3750 1.5493 L 4.5307 1.5050 L 4.5797 1.4763 L 4.6907 1.5098 L 4.9685 1.5737 L 5.2232 1.6105 L 5.4503 1.6199 L 5.6460 1.6015 L 5.8070 1.5557 L 5.8453 1.5333 L 5.9306 1.5591 L 6.2175 1.6250 L 6.4804 1.6631 L 6.7150 1.6727 L 6.9171 1.6537 L 7.0833 1.6065 L 7.1109 1.5903 L 7.1705 1.6083 L 7.4664 1.6763 L 7.7377 1.7156 L 7.9797 1.7255 L 8.1882 1.7060 L 8.3596 1.6572 L 8.3765 1.6473 L 8.4104 1.6575 L 8.7154 1.7276 L 8.9950 1.7681 L 9.2444 1.7784 L 9.4592 1.7582 L 9.6359 1.7079 L 9.6421 1.7043 L 9.6503 1.7068 L 9.9644 1.7789 L 10.2523 1.8206 L 10.5090 1.8312 L 10.7303 1.8104 L 10.9076 1.7600 L 11.2134 1.8302 L 11.5095 1.8731 L 11.7737 1.8840 L 12.0014 1.8626 L 12.1705 1.8145 L 12.4623 1.8815 L 12.7668 1.9257 L 13.0384 1.9368 L 13.2724 1.9148 L 13.4335 1.8690 L 13.7113 1.9329 L 14.0241 1.9782 L 14.3031 1.9896 L 14.5435 1.9671 L 14.6964 1.9236 L 14.9603 1.9842 L 15.2814 2.0307 L 15.5678 2.0425 L 15.8146 2.0193 L 15.9594 1.9781 L 16.2092 2.0355 L 16.5387 2.0832 L 16.8325 2.0953 L 17.0856 2.0715 L 17.2224 2.0326 L 17.4582 2.0868 L 17.7959 2.1357 L 18.0971 2.1481 L 18.3567 2.1237 L 18.4853 2.0872 L 18.7072 2.1381 L 19.0532 2.1882 L 19.3618 2.2009 L 19.6278 2.1760 L 19.7483 2.1417 L 19.9562 2.1894 L 20.3105 2.2408 L 20.6265 2.2538 L 20.8988 2.2282 L 21.0112 2.1962 L 21.2051 2.2407 L 21.5678 2.2933 L 21.8912 2.3066 L 22.1699 2.2804 L 22.2742 2.2507 L 22.4541 2.2921 L 22.8250 2.3458 L 23.1559 2.3594 L 23.4410 2.3326 L 23.5372 2.3053 L 23.7031 2.3434 L 24.0823 2.3983 L 24.4206 2.4122 L 24.7120 2.3849 L 24.8001 2.3598 L 24.9520 2.3947 L 25.3396 2.4508 L 25.6852 2.4650 L 25.9831 2.4371 L 26.0631 2.4143 L 26.2010 2.4460 L 26.5969 2.5034 L 26.9499 2.5179 L 27.2542 2.4893 L 27.3261 2.4688 L 27.4500 2.4973 L 27.8541 2.5559 L 28.2146 2.5707 L 28.5252 2.5415 L 28.5890 2.5234 L 28.6990 2.5486 L 29.1114 2.6084 L 29.4793 2.6235 L 29.7963 2.5937 L 29.8520 2.5779 L 29.9479 2.5999 L 30.3687 2.6609 L 30.7440 2.6763 L 31.0674 2.6460 L 31.1149 2.6324 L 31.1969 2.6513 L 31.6260 2.7134 L 32.0087 2.7292 L 32.3384 2.6982 L 32.3779 2.6870 L 32.4459 2.7026 L 32.8832 2.7659 L 33.2733 2.7820 L 33.6095 2.7504 L 33.6409 2.7415 L 33.6949 2.7539 L 34.1405 2.8185 L 34.5380 2.8348 L 34.8806 2.8026 L 34.9038 2.7960 L 34.9438 2.8052 L 35.3978 2.8710 L 35.8027 2.8876 L 36.1516 2.8549 L 36.1668 2.8505 L 36.1928 2.8565 L 36.6551 2.9235 L 37.0674 2.9404 L 37.4227 2.9071 L 37.4297 2.9051 L 37.4418 2.9078 L 37.9124 2.9760 L 38.3321 2.9933 L 38.6926 2.9594 L 39.1696 3.0285 L 39.5968 3.0461 L 39.9540 3.0125 L 40.4269 3.0810 L 40.8614 3.0989 L 41.2155 3.0657 L 41.6842 3.1336 L 42.1261 3.1517 L 42.4770 3.1188 L 42.9415 3.1861 L 43.3908 3.2046 L 43.7384 3.1719 L 44.1987 3.2386 L 44.6555 3.2574 L 44.9999 3.2250 L 45.4560 3.2911 L 45.9202 3.3102 L 46.2613 3.2782 L 46.7133 3.3436 L 47.1849 3.3630 L 47.5228 3.3313 L 47.9706 3.3962 L 48.4495 3.4158 L 48.7843 3.3844 L 49.2278 3.4487 L 49.7142 3.4687 L 50.0457 3.4375 L 50.4851 3.5012 L 50.9789 3.5215 L 51.3072 3.4907 L 51.7424 3.5537 L 52.2436 3.5743 L 52.5687 3.5438 L 52.9997 3.6062 L 53.5083 3.6271 L 53.8301 3.5969 L 54.2570 3.6587 L 54.7730 3.6800 L 55.0916 3.6500 L 55.5142 3.7113 L 56.0377 3.7328 L 56.3531 3.7032 L 56.7715 3.7638 L 57.3023 3.7856 L 57.6145 3.7563 L 58.0288 3.8163 L 58.5670 3.8384 L 58.8760 3.8094 L 59.2861 3.8688 L 59.8317 3.8912 L 60.1375 3.8625 L 60.5433 3.9213 L 61.0964 3.9441 L 61.3989 3.9157 L 61.8006 3.9739 L 62.3611 3.9969 L 62.6604 3.9688 L 63.0579 4.0264 L 63.6258 4.0497 L 63.9219 4.0219 L 64.3152 4.0789 L 64.8904 4.1025 L 65.1833 4.0750 L 65.5724 4.1314 L 66.1551 4.1554 L 66.4448 4.1282 L 66.8297 4.1839 L 67.4198 4.2082 L 67.7063 4.1813 L 68.0870 4.2364 L 68.6845 4.2610 L 68.9677 4.2344 L 69.3443 4.2890 L 69.9492 4.3138 L 70.2292 4.2875 L 70.6016 4.3415 L 71.2139 4.3666 L 71.4906 4.3407 L 71.8588 4.3940 L 72.4785 4.4195 L 72.7521 4.3938 L 73.1161 4.4465 L 73.7432 4.4723 L 74.0136 4.4469 L 74.3734 4.4990 L 75.0079 4.5251 L 75.2750 4.5000 L 75.6307 4.5515 L 76.2726 4.5779 L 76.5365 4.5532 L 76.8879 4.6041 L 77.5373 4.6308 L 77.7980 4.6063 L 78.1452 4.6566 L 78.8020 4.6836 L 79.0594 4.6594 L 79.4025 4.7091 L 80.0666 4.7364 L 80.3209 4.7125 L 80.6598 4.7616 L 81.3313 4.7892 L 81.5824 4.7657 L 81.9170 4.8141 L 82.5960 4.8420 L 82.8438 4.8188 L 83.1743 4.8667 L 83.8607 4.8949 L 84.1053 4.8719 L 84.4316 4.9192 L 85.1254 4.9477 L 85.3668 4.9250 L 85.6889 4.9717 L 86.3901 5.0005 L 86.6282 4.9781 L 86.9462 5.0242 L 87.6547 5.0533 L 87.8897 5.0313 L 88.2034 5.0767 L 88.9194 5.1062 L 89.1512 5.0844 L 89.4607 5.1292 L 90.1841 5.1590 L 90.4126 5.1375 L 90.7180 5.1818 L 91.4488 5.2118 L 91.6741 5.1906 L 91.9753 5.2343 L 92.7135 5.2646 L 92.9355 5.2438 L 93.2325 5.2868 L 93.9782 5.3174 L 94.1970 5.2969 L 94.4898 5.3393 L 95.2428 5.3703 L 95.4585 5.3500 L 95.7471 5.3918 L 96.5075 5.4231 L 96.7199 5.4031 L 97.0044 5.4444 L 97.7722 5.4759 L 97.9814 5.4563 L 98.2616 5.4969 L 99.0369 5.5287 L 99.2429 5.5094 L 99.5189 5.5494 L 100.3016 5.5816 L 100.5043 5.5625 L 100.7762 5.6019 L 101.5663 5.6344 L 101.7658 5.6156 L 102.0335 5.6544 L 102.8309 5.6872 L 103.0273 5.6688 L 103.2908 5.7069 L 104.0956 5.7400 L 104.2887 5.7219 L 104.5480 5.7595 L 105.3603 5.7928 L 105.5502 5.7750 L 105.8053 5.8120 L 106.6250 5.8457 L 106.8117 5.8281 L 107.0626 5.8645 L 107.8897 5.8985 L 108.0731 5.8813 L 108.3199 5.9170 L 109.1544 5.9513 L 109.3346 5.9344 L 109.5771 5.9695 L 110.4191 6.0041 L 110.5961 5.9875 L 110.8344 6.0220 L 111.6837 6.0570 L 111.8575 6.0406 L 112.0917 6.0746 L 112.9484 6.1098 L 113.1190 6.0938 L 113.3490 6.1271 L 114.2131 6.1626 L 114.3805 6.1469 L 114.6062 6.1796 L 115.4778 6.2154 L 115.6419 6.2000 L 115.8635 6.2321 L 116.7425 6.2682 L 116.9034 6.2531 L 117.1208 6.2846 L 118.0072 6.3211 L 118.1648 6.3063 L 118.3781 6.3372 L 119.2718 6.3739 L 119.4263 6.3594 L 119.6354 6.3897 L 120.5365 6.4267 L 120.6878 6.4125 L 120.8926 6.4422 L 121.8012 6.4795 L 121.9492 6.4656 L 122.1499 6.4947 L 123.0659 6.5324 L 123.2107 6.5188 L 123.4072 6.5472 L 124.3306 6.5852 L 124.4722 6.5719 L 124.6645 6.5997 L 125.5953 6.6380 L 125.7336 6.6250 L 125.9217 6.6523 L 126.8599 6.6908 L 126.9951 6.6781 L 127.1790 6.7048 L 128.1246 6.7437 L 128.2566 6.7313 L 128.4363 6.7573 L 129.3893 6.7965 L 129.5180 6.7844 L 129.6936 6.8098 L 130.6540 6.8493 L 130.7795 6.8375 L 130.9508 6.8623 L 131.9187 6.9021 L 132.0410 6.8906 L 132.2081 6.9149 L 133.1834 6.9549 L 133.3024 6.9438 L 133.4654 6.9674 L 134.4480 7.0078 L 134.5639 6.9969 L 134.7227 7.0199 L 135.7127 7.0606 L 135.8254 7.0500 L 135.9800 7.0724 L 136.9774 7.1134 L 137.0868 7.1031 L 137.2372 7.1249 L 138.2421 7.1662 L 138.3483 7.1563 L 138.4945 7.1774 L 139.5068 7.2191 L 139.6098 7.2094 L 139.7518 7.2300 L 140.7715 7.2719 L 140.8712 7.2625 L 141.0091 7.2825 L 142.0361 7.3247 L 142.1327 7.3156 L 142.2663 7.3350 L 143.3008 7.3775 L 143.3941 7.3688 L 143.5236 7.3875 L 144.5655 7.4303 L 144.6556 7.4219 L 144.7809 7.4400 L 145.8302 7.4832 L 145.9171 7.4750 L 146.0382 7.4925 L 147.0949 7.5360 L 147.1785 7.5281 L 147.2954 7.5451 L 148.3596 7.5888 L 148.4400 7.5813 L 148.5527 7.5976 L 149.6242 7.6416 L 149.7015 7.6344 L 149.8100 7.6501 L 150.8889 7.6945 L 150.9629 7.6875 L 151.0673 7.7026 L 152.1536 7.7473 L 152.2244 7.7406 L 152.3246 7.7551 L 153.4183 7.8001 L 153.4859 7.7938 L 153.5818 7.8077 L 154.6830 7.8529 L 154.7473 7.8469 L 154.8391 7.8602 L 155.9477 7.9057 L 156.0088 7.9000 L 156.0964 7.9127 L 157.2123 7.9586 L 157.2703 7.9531 L 157.3537 7.9652 L 158.4770 8.0114 L 158.5317 8.0063 L 158.6109 8.0177 L 159.7417 8.0642 L 159.7932 8.0594 L 159.8682 8.0702 L 161.0064 8.1170 L 161.0547 8.1125 L 161.1255 8.1228 L 162.2711 8.1699 L 162.3161 8.1656 L 162.3828 8.1753 L 163.5358 8.2227 L 163.5776 8.2187 L 163.6400 8.2278 L 164.8005 8.2755 L 164.8391 8.2719 L 164.8973 8.2803 L 166.0651 8.3283 L 166.1005 8.3250 L 166.1546 8.3328 L 167.3298 8.3811 L 167.3620 8.3781 L 167.4119 8.3854 L 168.5945 8.4340 L 168.6234 8.4312 L 168.6692 8.4379 L 169.8592 8.4868 L 169.8849 8.4844 L 169.9264 8.4904 L 171.1239 8.5396 L 171.1464 8.5375 L 171.1837 8.5429 L 172.3886 8.5924 L 172.4078 8.5906 L 172.4410 8.5954 L 173.6532 8.6453 L 173.6693 8.6437 L 173.6983 8.6479 L 174.9179 8.6981 L 174.9308 8.6969 L 174.9555 8.7005 L 176.1826 8.7509 L 176.1922 8.7500 L 176.2128 8.7530 L 177.4473 8.8037 L 177.4537 8.8031 L 177.4701 8.8055 L 178.7120 8.8565 L 178.7152 8.8562 L 178.7274 8.8580 L 179.9766 8.9094 L 179.9846 8.9105 L 181.2339 8.9619 L 181.2419 8.9630 L 182.4911 9.0144 L 182.4992 9.0156 L 183.7484 9.0669 L 183.7565 9.0681 L 185.0057 9.1194 L 185.0138 9.1206 L 186.2630 9.1720 L 186.2710 9.1731 L 187.5203 9.2245 L 187.5283 9.2256 L 188.7775 9.2770 L 188.7856 9.2782 L 190.0348 9.3295 L 190.0429 9.3307 L 191.2921 9.3820 L 191.3001 9.3832 L 192.5494 9.4345 L 192.5574 9.4357 L 193.8066 9.4871 L 193.8147 9.4882 L 195.0639 9.5396 L 195.0720 9.5407 L 196.3212 9.5921 L 196.3292 9.5933 L 197.5785 9.6446 L 197.5865 9.6458 L 198.8357 9.6971 L 198.8438 9.6983 L 200.0930 9.7496 L 200.1011 9.7508 L 201.3503 9.8022 L 201.3584 9.8033 L 202.6076 9.8547 L 202.6156 9.8559 L 203.8649 9.9072 L 203.8729 9.9084 L 205.1221 9.9597 L 205.1302 9.9609 L 206.3794 10.0122 L 206.3875 10.0134 L 207.6367 10.0648 L 207.6447 10.0659 L 208.8940 10.1173 L 208.9020 10.1184 L 210.1512 10.1698 L 210.1593 10.1710 L 211.4085 10.2223 L 211.4166 10.2235 L 212.6658 10.2748 L 212.6738 10.2760 L 213.9231 10.3273 L 213.9311 10.3285 L 215.1803 10.3799 L 215.1884 10.3810 L 216.4376 10.4324 L 216.4457 10.4335 L 217.6949 10.4849 L 217.7030 10.4861 L 218.9522 10.5374 L 218.9602 10.5386 L 220.2095 10.5899 L 220.2175 10.5911 L 221.4667 10.6425 L 221.4748 10.6436 L 222.7240 10.6950 L 222.7321 10.6961 L 223.9813 10.7475 L 223.9893 10.7487 L 225.2386 10.8000 L 225.2466 10.8012 L 226.4958 10.8525 L 226.5039 10.8537 L 227.7531 10.9050 L 227.7612 10.9062 L 229.0104 10.9576 L 229.0184 10.9587 L 230.2677 11.0101 L 230.2757 11.0112 L 231.5249 11.0626 L 231.5330 11.0638 L 232.7822 11.1151 L 232.7903 11.1163 L 234.0395 11.1676 L 234.0476 11.1688 L 235.2968 11.2201 L 235.3048 11.2213 L 236.5541 11.2727 L 236.5621 11.2738 L 237.8113 11.3252 L 237.8194 11.3264 L 239.0686 11.3777 L 239.0767 11.3789 L 240.3259 11.4302 L 240.3339 11.4314 L 241.5832 11.4827 L 241.5912 11.4839 L 242.8404 11.5353 L 242.8485 11.5364 L 244.0977 11.5878 L 244.1058 11.5889 L 245.3550 11.6403 L 245.3630 11.6415 L 246.6123 11.6928 L 246.6203 11.6940 L 247.8695 11.7453 L 247.8776 11.7465 L 249.1268 11.7978 L 249.1349 11.7990 L 250.3841 11.8504 L 250.3922 11.8515 L 251.6414 11.9029 L 251.6494 11.9040 L 252.8987 11.9554 L 252.9067 11.9566 L 254.1559 12.0079 L 254.1640 12.0091 L 255.4132 12.0604 L 255.4213 12.0616 L 256.6705 12.1130 L 256.6785 12.1141 L 257.9278 12.1655 L 257.9358 12.1666 L 259.1850 12.2180 L 259.1931 12.2192 L 260.4423 12.2705 L 260.4504 12.2717 L 261.6996 12.3230 L 261.7076 12.3242 L 262.9569 12.3755 L 262.9649 12.3767 L 264.2141 12.4281 L 264.2222 12.4292 L 265.4714 12.4806 L 265.4795 12.4817 L 266.7287 12.5331 L 266.7368 12.5343 L 267.9860 12.5856 L 267.9940 12.5868 L 269.2433 12.6381 L 269.2513 12.6393 L 270.5005 12.6906 L 270.5086 12.6918 L 271.7578 12.7432 L 271.7659 12.7443 L 273.0151 12.7957 L 273.0231 12.7969 L 274.2724 12.8482 L 274.2804 12.8494 L 275.5296 12.9007 L 275.5377 12.9019 L 276.7869 12.9532 L 276.7950 12.9544 L 278.0442 13.0058 L 278.0522 13.0069 L 279.3015 13.0583 L 279.3095 13.0594 L 280.5587 13.1108 L 280.5668 13.1120 L 281.8160 13.1633 L 281.8241 13.1645 L 283.0733 13.2158 L 283.0814 13.2170 L 284.3306 13.2683 L 284.3386 13.2695 L 285.5879 13.3209 L 285.5959 13.3220 L 286.8451 13.3734 L 286.8532 13.3745 L 288.1024 13.4259 L 288.1105 13.4271 L 289.3597 13.4784 L 289.3677 13.4796 L 290.6170 13.5309 L 290.6250 13.5321 L 291.8742 13.5835 L 291.8823 13.5846 L 293.1315 13.6360 L 293.1396 13.6371 L 294.3888 13.6885 L 294.3968 13.6897 L 295.6461 13.7410 L 295.6541 13.7422 L 296.9033 13.7935 L 296.9114 13.7947 L 298.1606 13.8460 L 298.1687 13.8472 L 299.4179 13.8986 L 299.4259 13.8997 L 300.6752 13.9511 L 300.6832 13.9522 L 301.9325 14.0036 L 301.9405 14.0048 L 303.1897 14.0561 L 303.1978 14.0573 L 304.4470 14.1086 L 304.4551 14.1098 L 305.7043 14.1612 L 305.7123 14.1623 L 306.9616 14.2137 L 306.9696 14.2148 L 308.2188 14.2662 L 308.2269 14.2674 L 309.4761 14.3187 L 309.4842 14.3199 L 310.7334 14.3712 L 310.7414 14.3724 L 311.9907 14.4237 L 311.9987 14.4249 L 313.2479 14.4763 L 313.2560 14.4774 L 315.2978 14.5614 L 317.0573 14.3961 L 318.5043 13.9846 L 319.6140 13.3338 L 320.3676 12.4548 L 320.7520 11.3628 L 320.7607 10.0763 L 320.3936 8.6174 L 319.6570 7.0110 L 318.5634 5.2847 L 317.1316 3.4680 L 315.3860 1.5919 L 313.3565 -0.3114 L 311.0779 -2.2093 L 308.5892 -4.0695 L 305.9328 -5.8601 L 303.1544 -7.5503 L 300.3013 -9.1114 L 297.4225 -10.5166 L 294.5672 -11.7419 L 291.7842 -12.7662 L 289.1211 -13.5721 L 286.6236 -14.1458 L 284.3344 -14.4774 L 282.2925 -14.5614 L 281.5527 -14.4919 L 281.1476 -14.5085 L 280.4077 -14.4391 L 280.0026 -14.4557 L 279.2628 -14.3862 L 278.8577 -14.4029 L 278.1178 -14.3334 L 277.7127 -14.3501 L 276.9729 -14.2806 L 276.5678 -14.2972 L 275.8279 -14.2278 L 275.4228 -14.2444 L 274.6830 -14.1749 L 274.2779 -14.1916 L 273.5380 -14.1221 L 273.1329 -14.1388 L 272.3930 -14.0693 L 271.9880 -14.0860 L 271.2481 -14.0165 L 270.8430 -14.0331 L 270.1031 -13.9637 L 269.6980 -13.9803 L 268.9582 -13.9108 L 268.5531 -13.9275 L 267.8132 -13.8580 L 267.4081 -13.8747 L 266.6683 -13.8052 L 266.2632 -13.8218 L 265.5233 -13.7524 L 265.1182 -13.7690 L 264.3784 -13.6995 L 263.9733 -13.7162 L 263.2334 -13.6467 L 262.8283 -13.6634 L 262.0885 -13.5939 L 261.6834 -13.6106 L 260.9435 -13.5411 L 260.5384 -13.5577 L 259.7985 -13.4883 L 259.3934 -13.5049 L 258.6536 -13.4354 L 258.2485 -13.4521 L 257.5086 -13.3826 L 257.1035 -13.3993 L 256.3637 -13.3298 L 255.9586 -13.3464 L 255.2187 -13.2770 L 254.8136 -13.2936 L 254.0738 -13.2241 L 253.6687 -13.2408 L 252.9288 -13.1713 L 252.5237 -13.1880 L 251.7839 -13.1185 L 251.3788 -13.1352 L 250.6389 -13.0657 L 250.2338 -13.0823 L 249.4939 -13.0129 L 249.0889 -13.0295 L 248.3490 -12.9600 L 247.9439 -12.9767 L 247.2040 -12.9072 L 246.7989 -12.9239 L 246.0591 -12.8544 L 245.6540 -12.8710 L 244.9141 -12.8016 L 244.5090 -12.8182 L 243.7692 -12.7487 L 243.3641 -12.7654 L 242.6242 -12.6959 L 242.2191 -12.7126 L 241.4793 -12.6431 L 241.0742 -12.6598 L 240.3343 -12.5903 L 239.9292 -12.6069 L 239.1894 -12.5375 L 238.7843 -12.5541 L 238.0444 -12.4846 L 237.6393 -12.5013 L 236.8994 -12.4318 L 236.4944 -12.4485 L 235.7545 -12.3790 L 235.3494 -12.3956 L 234.6095 -12.3262 L 234.2044 -12.3428 L 233.4646 -12.2733 L 233.0595 -12.2900 L 232.3196 -12.2205 L 231.9145 -12.2372 L 231.1747 -12.1677 L 230.7696 -12.1844 L 230.0297 -12.1149 L 229.6246 -12.1315 L 228.8848 -12.0621 L 228.4797 -12.0787 L 227.7398 -12.0092 L 227.3347 -12.0259 L 226.5949 -11.9564 L 226.1898 -11.9731 L 225.4499 -11.9036 L 225.0448 -11.9202 L 224.3049 -11.8508 L 223.8998 -11.8674 L 223.1600 -11.7979 L 222.7549 -11.8146 L 222.0150 -11.7451 L 221.6099 -11.7618 L 220.8701 -11.6923 L 220.4650 -11.7090 L 219.7251 -11.6395 L 219.3200 -11.6561 L 218.5802 -11.5867 L 218.1751 -11.6033 L 217.4352 -11.5338 L 217.0301 -11.5505 L 216.2903 -11.4810 L 215.8852 -11.4977 L 215.1453 -11.4282 L 214.7402 -11.4448 L 214.0003 -11.3754 L 213.5953 -11.3920 L 212.8554 -11.3225 L 212.4503 -11.3392 L 211.7104 -11.2697 L 211.3053 -11.2864 L 210.5655 -11.2169 L 210.1604 -11.2335 L 209.4205 -11.1641 L 209.0154 -11.1807 L 208.2756 -11.1113 L 207.8705 -11.1279 L 207.1306 -11.0584 L 206.7255 -11.0751 L 205.9857 -11.0056 L 205.5806 -11.0223 L 204.8407 -10.9528 L 204.4356 -10.9694 L 203.6958 -10.9000 L 203.2907 -10.9166 L 202.5508 -10.8471 L 202.1457 -10.8638 L 201.4058 -10.7943 L 201.0008 -10.8110 L 200.2609 -10.7415 L 199.8558 -10.7581 L 199.1159 -10.6887 L 198.7108 -10.7053 L 197.9710 -10.6359 L 197.5659 -10.6525 L 196.8260 -10.5830 L 196.4209 -10.5997 L 195.6811 -10.5302 L 195.2760 -10.5469 L 194.5361 -10.4774 L 194.1310 -10.4940 L 193.3912 -10.4246 L 192.9861 -10.4412 L 192.2462 -10.3717 L 191.8411 -10.3884 L 191.1013 -10.3189 L 190.6962 -10.3356 L 189.9563 -10.2661 L 189.5512 -10.2827 L 188.8113 -10.2133 L 188.4062 -10.2299 L 187.6664 -10.1605 L 187.2613 -10.1771 L 186.5214 -10.1076 L 186.1163 -10.1243 L 185.3765 -10.0548 L 184.9714 -10.0715 L 184.2315 -10.0020 L 183.8264 -10.0186 L 183.0866 -9.9492 L 182.6815 -9.9658 L 181.9416 -9.8963 L 181.5365 -9.9130 L 180.7967 -9.8435 L 180.3916 -9.8602 L 179.6517 -9.7907 L 179.2466 -9.8073 L 178.5068 -9.7379 L 178.1017 -9.7545 L 177.3618 -9.6850 L 176.9567 -9.7017 L 176.2168 -9.6322 L 175.8117 -9.6489 L 175.0719 -9.5794 L 174.6668 -9.5961 L 173.9269 -9.5266 L 173.5218 -9.5432 L 172.7820 -9.4738 L 172.3769 -9.4904 L 171.6370 -9.4209 L 171.2319 -9.4376 L 170.4921 -9.3681 L 170.0870 -9.3848 L 169.3471 -9.3153 L 168.9420 -9.3319 L 168.2022 -9.2625 L 167.7971 -9.2791 L 167.0572 -9.2096 L 166.6521 -9.2263 L 165.9122 -9.1568 L 165.5072 -9.1735 L 164.7673 -9.1040 L 164.3622 -9.1207 L 163.6223 -9.0512 L 163.2172 -9.0678 L 162.4774 -8.9984 L 162.0723 -9.0150 L 161.3324 -8.9455 L 160.9273 -8.9622 L 160.1875 -8.8927 L 159.7824 -8.9094 L 159.0425 -8.8399 L 158.6374 -8.8565 L 157.8976 -8.7871 L 157.4925 -8.8037 L 156.7526 -8.7342 L 156.3475 -8.7509 L 155.6077 -8.6814 L 155.2026 -8.6981 L 154.4627 -8.6286 L 154.0576 -8.6453 L 153.3177 -8.5758 L 152.9127 -8.5924 L 152.1728 -8.5230 L 151.7677 -8.5396 L 151.0278 -8.4701 L 150.6227 -8.4868 L 149.8829 -8.4173 L 149.4778 -8.4340 L 148.7379 -8.3645 L 148.3328 -8.3811 L 147.5930 -8.3117 L 147.1879 -8.3283 L 146.4480 -8.2588 L 146.0429 -8.2755 L 145.3031 -8.2060 L 144.8980 -8.2227 L 144.1581 -8.1532 L 143.7530 -8.1699 L 143.0132 -8.1004 L 142.6081 -8.1170 L 141.8682 -8.0476 L 141.4631 -8.0642 L 140.7232 -7.9947 L 140.3181 -8.0114 L 139.5783 -7.9419 L 139.1732 -7.9586 L 138.4333 -7.8891 L 138.0282 -7.9057 L 137.2884 -7.8363 L 136.8833 -7.8529 L 136.1434 -7.7834 L 135.7383 -7.8001 L 134.9985 -7.7306 L 134.5934 -7.7473 L 133.8535 -7.6778 L 133.4484 -7.6945 L 132.7086 -7.6250 L 132.3035 -7.6416 L 131.5636 -7.5722 L 131.1585 -7.5888 L 130.4186 -7.5193 L 130.0136 -7.5360 L 129.2737 -7.4665 L 128.8686 -7.4832 L 128.1287 -7.4137 L 127.7236 -7.4303 L 126.9838 -7.3609 L 126.5787 -7.3775 L 125.8388 -7.3080 L 125.4337 -7.3247 L 124.6939 -7.2552 L 124.2888 -7.2719 L 123.5489 -7.2024 L 123.1438 -7.2191 L 122.4040 -7.1496 L 121.9989 -7.1662 L 121.2590 -7.0968 L 120.8539 -7.1134 L 120.1141 -7.0439 L 119.7090 -7.0606 L 118.9691 -6.9911 L 118.5640 -7.0078 L 117.8241 -6.9383 L 117.4191 -6.9549 L 116.6792 -6.8855 L 116.2741 -6.9021 L 115.5342 -6.8326 L 115.1291 -6.8493 L 114.3893 -6.7798 L 113.9842 -6.7965 L 113.2443 -6.7270 L 112.8392 -6.7437 L 112.0994 -6.6742 L 111.6943 -6.6908 L 110.9544 -6.6214 L 110.5493 -6.6380 L 109.8095 -6.5685 L 109.4044 -6.5852 L 108.6645 -6.5157 L 108.2594 -6.5324 L 107.5196 -6.4629 L 107.1145 -6.4795 L 106.3746 -6.4101 L 105.9695 -6.4267 L 105.2296 -6.3572 L 104.8245 -6.3739 L 104.0847 -6.3044 L 103.6796 -6.3211 L 102.9397 -6.2516 L 102.5346 -6.2682 L 101.7948 -6.1988 L 101.3897 -6.2154 L 100.6498 -6.1460 L 100.2447 -6.1626 L 99.5049 -6.0931 L 99.0998 -6.1098 L 98.3615 -6.0405 L 98.3609 -6.0403 L 97.9548 -6.0570 L 97.2230 -5.9882 L 97.2196 -5.9873 L 96.8099 -6.0041 L 96.0844 -5.9360 L 96.0784 -5.9343 L 95.6649 -5.9513 L 94.9458 -5.8838 L 94.9372 -5.8813 L 94.5200 -5.8985 L 93.8072 -5.8316 L 93.7960 -5.8284 L 93.3750 -5.8457 L 92.6687 -5.7793 L 92.6548 -5.7754 L 92.2300 -5.7928 L 91.5301 -5.7271 L 91.5135 -5.7224 L 91.0851 -5.7400 L 90.3915 -5.6749 L 90.3723 -5.6694 L 89.9401 -5.6872 L 89.2529 -5.6227 L 89.2311 -5.6165 L 88.7952 -5.6344 L 88.1144 -5.5705 L 88.0899 -5.5635 L 87.6502 -5.5816 L 86.9758 -5.5182 L 86.9487 -5.5105 L 86.5053 -5.5287 L 85.8372 -5.4660 L 85.8074 -5.4575 L 85.3603 -5.4759 L 84.6987 -5.4138 L 84.6662 -5.4046 L 84.2154 -5.4231 L 83.5601 -5.3616 L 83.5250 -5.3516 L 83.0704 -5.3703 L 82.4215 -5.3093 L 82.3838 -5.2986 L 81.9255 -5.3174 L 81.2829 -5.2571 L 81.2426 -5.2456 L 80.7805 -5.2646 L 80.1444 -5.2049 L 80.1013 -5.1927 L 79.6355 -5.2118 L 79.0058 -5.1527 L 78.9601 -5.1397 L 78.4906 -5.1590 L 77.8672 -5.1004 L 77.8189 -5.0867 L 77.3456 -5.1062 L 76.7287 -5.0482 L 76.6777 -5.0337 L 76.2007 -5.0533 L 75.5901 -4.9960 L 75.5365 -4.9808 L 75.0557 -5.0005 L 74.4515 -4.9438 L 74.3952 -4.9278 L 73.9108 -4.9477 L 73.3129 -4.8916 L 73.2540 -4.8748 L 72.7658 -4.8949 L 72.1744 -4.8393 L 72.1128 -4.8218 L 71.6209 -4.8420 L 71.0358 -4.7871 L 70.9716 -4.7688 L 70.4759 -4.7892 L 69.8972 -4.7349 L 69.8304 -4.7159 L 69.3309 -4.7364 L 68.7586 -4.6827 L 68.6892 -4.6629 L 68.1860 -4.6836 L 67.6201 -4.6304 L 67.5479 -4.6099 L 67.0410 -4.6308 L 66.4815 -4.5782 L 66.4067 -4.5569 L 65.8961 -4.5779 L 65.3429 -4.5260 L 65.2655 -4.5040 L 64.7511 -4.5251 L 64.2044 -4.4738 L 64.1243 -4.4510 L 63.6062 -4.4723 L 63.0658 -4.4215 L 62.9831 -4.3980 L 62.4612 -4.4195 L 61.9272 -4.3693 L 61.8418 -4.3450 L 61.3163 -4.3666 L 60.7886 -4.3171 L 60.7006 -4.2921 L 60.1713 -4.3138 L 59.6501 -4.2649 L 59.5594 -4.2391 L 59.0264 -4.2610 L 58.5115 -4.2127 L 58.4182 -4.1861 L 57.8814 -4.2082 L 57.3729 -4.1604 L 57.2770 -4.1331 L 56.7364 -4.1554 L 56.2344 -4.1082 L 56.1357 -4.0802 L 55.5915 -4.1025 L 55.0958 -4.0560 L 54.9945 -4.0272 L 54.4465 -4.0497 L 53.9572 -4.0038 L 53.8533 -3.9742 L 53.3016 -3.9969 L 52.8186 -3.9515 L 52.7115 -3.9211 L 52.7097 -3.9213 L 52.1566 -3.9441 L 51.6801 -3.8993 L 51.5676 -3.8673 L 51.5573 -3.8688 L 51.0117 -3.8912 L 50.5415 -3.8471 L 50.4237 -3.8136 L 50.4049 -3.8163 L 49.8667 -3.8384 L 49.4029 -3.7949 L 49.2798 -3.7598 L 49.2526 -3.7638 L 48.7218 -3.7856 L 48.2643 -3.7426 L 48.1358 -3.7061 L 48.1002 -3.7113 L 47.5768 -3.7328 L 47.1258 -3.6904 L 46.9919 -3.6524 L 46.9479 -3.6587 L 46.4319 -3.6800 L 45.9872 -3.6382 L 45.8480 -3.5986 L 45.7955 -3.6062 L 45.2869 -3.6271 L 44.8486 -3.5860 L 44.7041 -3.5449 L 44.6431 -3.5537 L 44.1419 -3.5743 L 43.7101 -3.5338 L 43.5602 -3.4911 L 43.4908 -3.5012 L 42.9970 -3.5215 L 42.5715 -3.4815 L 42.4163 -3.4374 L 42.3384 -3.4487 L 41.8520 -3.4687 L 41.4329 -3.4293 L 41.2724 -3.3837 L 41.1861 -3.3962 L 40.7071 -3.4158 L 40.2943 -3.3771 L 40.1285 -3.3299 L 40.0337 -3.3436 L 39.5621 -3.3630 L 39.1558 -3.3249 L 38.9845 -3.2762 L 38.8813 -3.2911 L 38.4172 -3.3102 L 38.0172 -3.2726 L 37.8406 -3.2224 L 37.7290 -3.2386 L 37.2722 -3.2574 L 36.8786 -3.2204 L 36.6967 -3.1687 L 36.5766 -3.1861 L 36.1273 -3.2046 L 35.7401 -3.1682 L 35.5528 -3.1149 L 35.4242 -3.1336 L 34.9823 -3.1517 L 34.6015 -3.1160 L 34.4089 -3.0612 L 34.2719 -3.0810 L 33.8373 -3.0989 L 33.4629 -3.0637 L 33.2650 -3.0075 L 33.1195 -3.0285 L 32.6924 -3.0461 L 32.3243 -3.0115 L 32.1211 -2.9537 L 31.9672 -2.9760 L 31.5474 -2.9933 L 31.1858 -2.9593 L 30.9772 -2.9000 L 30.8148 -2.9235 L 30.4025 -2.9404 L 30.0472 -2.9071 L 29.8332 -2.8462 L 29.6624 -2.8710 L 29.2575 -2.8876 L 28.9086 -2.8549 L 28.6893 -2.7925 L 28.5101 -2.8185 L 28.1126 -2.8348 L 27.7700 -2.8026 L 27.5454 -2.7387 L 27.3577 -2.7659 L 26.9676 -2.7820 L 26.6315 -2.7504 L 26.4015 -2.6850 L 26.2054 -2.7134 L 25.8227 -2.7292 L 25.4929 -2.6982 L 25.2576 -2.6313 L 25.0530 -2.6609 L 24.6777 -2.6763 L 24.3543 -2.6460 L 24.1137 -2.5775 L 23.9006 -2.6084 L 23.5328 -2.6235 L 23.2158 -2.5937 L 22.9698 -2.5238 L 22.7483 -2.5559 L 22.3878 -2.5707 L 22.0772 -2.5415 L 21.8259 -2.4700 L 21.5959 -2.5034 L 21.2428 -2.5179 L 20.9386 -2.4893 L 20.6884 -2.4181 L 20.6846 -2.4159 L 20.4435 -2.4508 L 20.0979 -2.4650 L 19.8000 -2.4371 L 19.5551 -2.3674 L 19.5451 -2.3615 L 19.2912 -2.3983 L 18.9529 -2.4122 L 18.6615 -2.3849 L 18.4218 -2.3167 L 18.4055 -2.3072 L 18.1388 -2.3458 L 17.8080 -2.3594 L 17.5229 -2.3326 L 17.2884 -2.2659 L 17.2660 -2.2528 L 16.9865 -2.2933 L 16.6630 -2.3066 L 16.3843 -2.2804 L 16.1551 -2.2152 L 16.1265 -2.1984 L 15.8341 -2.2408 L 15.5181 -2.2538 L 15.2458 -2.2282 L 15.0218 -2.1645 L 14.9869 -2.1440 L 14.6817 -2.1882 L 14.3731 -2.2009 L 14.1072 -2.1760 L 13.8885 -2.1138 L 13.8474 -2.0897 L 13.5294 -2.1357 L 13.2282 -2.1481 L 12.9686 -2.1237 L 12.7551 -2.0630 L 12.7077 -2.0352 L 12.7064 -2.0355 L 12.3770 -2.0832 L 12.0832 -2.0953 L 11.8300 -2.0715 L 11.6218 -2.0123 L 11.5660 -1.9795 L 11.5458 -1.9842 L 11.2247 -2.0307 L 10.9383 -2.0425 L 10.6915 -2.0193 L 10.4885 -1.9616 L 10.4242 -1.9239 L 10.3851 -1.9329 L 10.0723 -1.9782 L 9.7933 -1.9896 L 9.5529 -1.9671 L 9.3552 -1.9108 L 9.2825 -1.8682 L 9.2244 -1.8815 L 8.9199 -1.9257 L 8.6483 -1.9368 L 8.4143 -1.9148 L 8.2219 -1.8601 L 8.1408 -1.8125 L 8.0638 -1.8302 L 7.7676 -1.8731 L 7.5034 -1.8840 L 7.2757 -1.8626 L 7.0885 -1.8094 L 6.9990 -1.7569 L 6.9031 -1.7789 L 6.6152 -1.8206 L 6.3584 -1.8312 L 6.1372 -1.8104 L 5.9552 -1.7586 L 5.8573 -1.7012 L 5.7424 -1.7276 L 5.4628 -1.7681 L 5.2135 -1.7784 L 4.9986 -1.7582 L 4.8219 -1.7079 L 4.7155 -1.6456 L 4.5818 -1.6763 L 4.3105 -1.7156 L 4.0685 -1.7255 L 3.8600 -1.7060 L 3.6886 -1.6572 L 3.5738 -1.5899 L 3.4211 -1.6250 L 3.1581 -1.6631 L 2.9236 -1.6727 L 2.7215 -1.6537 L 2.5552 -1.6065 L 2.4321 -1.5342 L 2.2604 -1.5737 L 2.0058 -1.6105 L 1.7786 -1.6199 L 1.5829 -1.6015 L 1.4219 -1.5557 L 1.2985 -1.4833 L 1.2937 -1.4778 L 1.0998 -1.5223 L 0.8534 -1.5580 L 0.6337 -1.5671 L 0.4443 -1.5493 L 0.2886 -1.5050 L 0.1692 -1.4350 L 0.1571 -1.4209 L -0.0609 -1.4710 L -0.2990 -1.5055 L -0.5113 -1.5142 L -0.6943 -1.4971 L -0.8447 -1.4543 L -0.9601 -1.3866 L -0.9794 -1.3641 L -1.2216 -1.4197 L -1.4513 -1.4530 L -1.6562 -1.4614 L -1.8328 -1.4448 L -1.9781 -1.4035 L -2.0894 -1.3382 L -2.1651 -1.2500 L -2.2036 -1.1404 L -2.2045 -1.0113 Z"/>
  <g id="debug">
  <path fill="none" stroke="#ff3366" stroke-opacity="0.6" stroke-width="0.5" d="M 0 0 L 1.5075 0 L 3.0151 0 L 4.5226 0 L 6.0302 0 L 7.5377 0 L 9.0452 0 L 10.5528 0 L 12.0603 0 L 13.5678 0 L 15.0754 0 L 16.5829 0 L 18.0905 0 L 19.5980 0 L 21.1055 0 L 22.6131 0 L 24.1206 0 L 25.6281 0 L 27.1357 0 L 28.6432 0 L 30.1508 0 L 31.6583 0 L 33.1658 0 L 34.6734 0 L 36.1809 0 L 37.6884 0 L 39.1960 0 L 40.7035 0 L 42.2111 0 L 43.7186 0 L 45.2261 0 L 46.7337 0 L 48.2412 0 L 49.7487 0 L 51.2563 0 L 52.7638 0 L 54.2714 0 L 55.7789 0 L 57.2864 0 L 58.7940 0 L 60.3015 0 L 61.8090 0 L 63.3166 0 L 64.8241 0 L 66.3317 0 L 67.8392 0 L 69.3467 0 L 70.8543 0 L 72.3618 0 L 73.8693 0 L 75.3769 0 L 76.8844 0 L 78.3920 0 L 79.8995 0 L 81.4070 0 L 82.9146 0 L 84.4221 0 L 85.9296 0 L 87.4372 0 L 88.9447 0 L 90.4523 0 L 91.9598 0 L 93.4673 0 L 94.9749 0 L 96.4824 0 L 97.9899 0 L 99.4975 0 L 101.0050 0 L 102.5126 0 L 104.0201 0 L 105.5276 0 L 107.0352 0 L 108.5427 0 L 110.0503 0 L 111.5578 0 L 113.0653 0 L 114.5729 0 L 116.0804 0 L 117.5879 0 L 119.0955 0 L 120.6030 0 L 122.1106 0 L 123.6181 0 L 125.1256 0 L 126.6332 0 L 128.1407 0 L 129.6482 0 L 131.1558 0 L 132.6633 0 L 134.1709 0 L 135.6784 0 L 137.1859 0 L 138.6935 0 L 140.2010 0 L 141.7085 0 L 143.2161 0 L 144.7236 0 L 146.2312 0 L 147.7387 0 L 149.2462 0 L 150.7538 0 L 152.2613 0 L 153.7688 0 L 155.2764 0 L 156.7839 0 L 158.2915 0 L 159.7990 0 L 161.3065 0 L 162.8141 0 L 164.3216 0 L 165.8291 0 L 167.3367 0 L 168.8442 0 L 170.3518 0 L 171.8593 0 L 173.3668 0 L 174.8744 0 L 176.3819 0 L 177.8894 0 L 179.3970 0 L 180.9045 0 L 182.4121 0 L 183.9196 0 L 185.4271 0 L 186.9347 0 L 188.4422 0 L 189.9497 0 L 191.4573 0 L 192.9648 0 L 194.4724 0 L 195.9799 0 L 197.4874 0 L 198.9950 0 L 200.5025 0 L 202.0101 0 L 203.5176 0 L 205.0251 0 L 206.5327 0 L 208.0402 0 L 209.5477 0 L 211.0553 0 L 212.5628 0 L 214.0704 0 L 215.5779 0 L 217.0854 0 L 218.5930 0 L 220.1005 0 L 221.6080 0 L 223.1156 0 L 224.6231 0 L 226.1307 0 L 227.6382 0 L 229.1457 0 L 230.6533 0 L 232.1608 0 L 233.6683 0 L 235.1759 0 L 236.6834 0 L 238.1910 0 L 239.6985 0 L 241.2060 0 L 242.7136 0 L 244.2211 0 L 245.7286 0 L 247.2362 0 L 248.7437 0 L 250.2513 0 L 251.7588 0 L 253.2663 0 L 254.7739 0 L 256.2814 0 L 257.7889 0 L 259.2965 0 L 260.8040 0 L 262.3116 0 L 263.8191 0 L 265.3266 0 L 266.8342 0 L 268.3417 0 L 269.8492 0 L 271.3568 0 L 272.8643 0 L 274.3719 0 L 275.8794 0 L 277.3869 0 L 278.8945 0 L 280.4020 0 L 281.9095 0 L 283.4171 0 L 284.9246 0 L 286.4322 0 L 287.9397 0 L 289.4472 0 L 290.9548 0 L 292.4623 0 L 293.9698 0 L 295.4774 0 L 296.9849 0 L 298.4925 0 L 300.0000 0"/>
  <path fill="none" stroke="#ff9900" stroke-opacity="0.6" stroke-width="0.6" d=""/>
  <path fill="none" stroke="#222222" stroke-opacity="0.7" stroke-width="0.6" d=""/>
  <path fill="none" stroke="#00aaff" stroke-opacity="0.6" stroke-width="0.6" d=""/>
  <circle cx="0" cy="0" r="0.6000" fill="#222222" fill-opacity="0.5"/>
    <circle cx="1.2048" cy="0" r="0.6000" fill="#222222" fill-opacity="0.5"/>
    <circle cx="2.4096" cy="0" r="0.6000" fill="#222222" fill-opacity="0.5"/>
    <circle cx="3.6145" cy="0" r="0.6000" fill="#222222" fill-opacity="0.5"/>
    <circle cx="4.8193" cy="0" r="0.6000" fill="#222222" fill-opacity="0.5"/>
    <circle cx="6.0241" cy="0" r="0.6000" fill="#222222" fill-opacity="0.5"/>
    <circle cx="7.2289" cy="0" r="0.6000" fill="#222222" fill-opacity="0.5"/>
    <circle cx="8.4337" cy="0" r="0.6000" fill="#222222" fill-opacity="0.5"/>
    <circle cx="9.6386" cy="0" r="0.6000" fill="#222222" fill-opacity="0.5"/>
    <circle cx="10.8434" cy="0" r="0.6000" fill="#222222" fill-opacity="0.5"/>
    <circle cx="12.0482" cy="0" r="0.6000" fill="#222222" fill-opacity="0.5"/>
    <circle cx="13.2530" cy="0" r="0.6000" fill="#222222" fill-opacity="0.5"/>
    <circle cx="14.4578" cy="0" r="0.6000" fill="#222222" fill-opacity="0.5"/>
    <circle cx="15.6627" cy="0" r="0.6000" fill="#222222" fill-opacity="0.5"/>
    <circle cx="16.8675" cy="0" r="0.6000" fill="#222222" fill-opacity="0.5"/>
    <circle cx="18.0723" cy="0" r="0.6000" fill="#222222" fill-opacity="0.5"/>
    <circle cx="19.2771" cy="0" r="0.6000" fill="#222222" fill-opacity="0.5"/>
    <circle cx="20.4819" cy="0" r="0.6000" fill="#222222" fill-opacity="0.5"/>
    <circle cx="21.6867" cy="0" r="0.6000" fill="#222222" fill-opacity="0.5"/>
    <circle cx="22.8916" cy="0" r="0.6000" fill="#222222" fill-opacity="0.5"/>
    <circle cx="24.0964" cy="0" r="0.6000" fill="#222222" fill-opacity="0.5"/>
    <circle cx="25.3012" cy="0" r="0.6000" fill="#222222" fill-opacity="0.5"/>
    <circle cx="26.5060" cy="0" r="0.6000" fill="#222222" fill-opacity="0.5"/>
    <circle cx="27.7108" cy="0" r="0.6000" fill="#222222" fill-opacity="0.5"/>
    <circle cx="28.9157" cy="0" r="0.6000" fill="#222222" fill-opacity="0.5"/>
    <circle cx="30.1205" cy="0" r="0.6000" fill="#222222" fill-opacity="0.5"/>
    <circle cx="31.3253" cy="0" r="0.6000" fill="#222222" fill-opacity="0.5"/>
    <circle cx="32.5301" cy="0" r="0.6000" fill="#222222" fill-opacity="0.5"/>
    <circle cx="33.7349" cy="0" r="0.6000" fill="#222222" fill-opacity="0.5"/>
    <circle cx="34.9398" cy="0" r="0.6000" fill="#222222" fill-opacity="0.5"/>
    <circle cx="36.1446" cy="0" r="0.6000" fill="#222222" fill-opacity="0.5"/>
    <circle cx="37.3494" cy="0" r="0.6000" fill="#222222" fill-opacity="0.5"/>
    <circle cx="38.5542" cy="0" r="0.6000" fill="#222222" fill-opacity="0.5"/>
    <circle cx="39.7590" cy="0" r="0.6000" fill="#222222" fill-opacity="0.5"/>
    <circle cx="40.9639" cy="0" r="0.6000" fill="#222222" fill-opacity="0.5"/>
    <circle cx="42.1687" cy="0" r="0.6000" fill="#222222" fill-opacity="0.5"/>
    <circle cx="43.3735" cy="0" r="0.6000" fill="#222222" fill-opacity="0.5"/>
    <circle cx="44.5783" cy="0" r="0.6000" fill="#222222" fill-opacity="0.5"/>
    <circle cx="45.7831" cy="0" r="0.6000" fill="#222222" fill-opacity="0.5"/>
    <circle cx="46.9880" cy="0" r="0.6000" fill="#222222" fill-opacity="0.5"/>
    <circle cx="48.1928" cy="0" r="0.6000" fill="#222222" fill-opacity="0.5"/>
    <circle cx="49.3976" cy="0" r="0.6000" fill="#222222" fill-opacity="0.5"/>
    <circle cx="50.6024" cy="0" r="0.6000" fill="#222222" fill-opacity="0.5"/>
    <circle cx="51.8072" cy="0" r="0.6000" fill="#222222" fill-opacity="0.5"/>
    <circle cx="53.0120" cy="0" r="0.6000" fill="#222222" fill-opacity="0.5"/>
    <circle cx="54.2169" cy="0" r="0.6000" fill="#222222" fill-opacity="0.5"/>
    <circle cx="55.4217" cy="0" r="0.6000" fill="#222222" fill-opacity="0.5"/>
    <circle cx="56.6265" cy="0" r="0.6000" fill="#222222" fill-opacity="0.5"/>
    <circle cx="57.8313" cy="0" r="0.6000" fill="#222222" fill-opacity="0.5"/>
    <circle cx="59.0361" cy="0" r="0.6000" fill="#222222" fill-opacity="0.5"/>
    <circle cx="60.2410" cy="0" r="0.6000" fill="#222222" fill-opacity="0.5"/>
    <circle cx="61.4458" cy="0" r="0.6000" fill="#222222" fill-opacity="0.5"/>
    <circle cx="62.6506" cy="0" r="0.6000" fill="#222222" fill-opacity="0.5"/>
    <circle cx="63.8554" cy="0" r="0.6000" fill="#222222" fill-opacity="0.5"/>
    <circle cx="65.0602" cy="0" r="0.6000" fill="#222222" fill-opacity="0.5"/>
    <circle cx="66.2651" cy="0" r="0.6000" fill="#222222" fill-opacity="0.5"/>
    <circle cx="67.4699" cy="0" r="0.6000" fill="#222222" fill-opacity="0.5"/>
    <circle cx="68.6747" cy="0" r="0.6000" fill="#222222" fill-opacity="0.5"/>
    <circle cx="69.8795" cy="0" r="0.6000" fill="#222222" fill-opacity="0.5"/>
    <circle cx="71.0843" cy="0" r="0.6000" fill="#222222" fill-opacity="0.5"/>
    <circle cx="72.2892" cy="0" r="0.6000" fill="#222222" fill-opacity="0.5"/>
    <circle cx="73.4940" cy="0" r="0.6000" fill="#222222" fill-opacity="0.5"/>
    <circle cx="74.6988" cy="0" r="0.6000" fill="#222222" fill-opacity="0.5"/>
    <circle cx="75.9036" cy="0" r="0.6000" fill="#222222" fill-opacity="0.5"/>
    <circle cx="77.1084" cy="0" r="0.6000" fill="#222222" fill-opacity="0.5"/>
    <circle cx="78.3133" cy="0" r="0.6000" fill="#222222" fill-opacity="0.5"/>
    <circle cx="79.5181" cy="0" r="0.6000" fill="#222222" fill-opacity="0.5"/>
    <circle cx="80.7229" cy="0" r="0.6000" fill="#222222" fill-opacity="0.5"/>
    <circle cx="81.9277" cy="0" r="0.6000" fill="#222222" fill-opacity="0.5"/>
    <circle cx="83.1325" cy="0" r="0.6000" fill="#222222" fill-opacity="0.5"/>
    <circle cx="84.3373" cy="0" r="0.6000" fill="#222222" fill-opacity="0.5"/>
    <circle cx="85.5422" cy="0" r="0.6000" fill="#222222" fill-opacity="0.5"/>
    <circle cx="86.7470" cy="0" r="0.6000" fill="#222222" fill-opacity="0.5"/>
    <circle cx="87.9518" cy="0" r="0.6000" fill="#222222" fill-opacity="0.5"/>
    <circle cx="89.1566" cy="0" r="0.6000" fill="#222222" fill-opacity="0.5"/>
    <circle cx="90.3614" cy="0" r="0.6000" fill="#222222" fill-opacity="0.5"/>
    <circle cx="91.5663" cy="0" r="0.6000" fill="#222222" fill-opacity="0.5"/>
    <circle cx="92.7711" cy="0" r="0.6000" fill="#222222" fill-opacity="0.5"/>
    <circle cx="93.9759" cy="0" r="0.6000" fill="#222222" fill-opacity="0.5"/>
    <circle cx="95.1807" cy="0" r="0.6000" fill="#222222" fill-opacity="0.5"/>
    <circle cx="96.3855" cy="0" r="0.6000" fill="#222222" fill-opacity="0.5"/>
    <circle cx="97.5904" cy="0" r="0.6000" fill="#222222" fill-opacity="0.5"/>
    <circle cx="98.7952" cy="0" r="0.6000" fill="#222222" fill-opacity="0.5"/>
    <circle cx="100.0000" cy="0" r="0.6000" fill="#222222" fill-opacity="0.5"/>
    <circle cx="101.2048" cy="0" r="0.6000" fill="#222222" fill-opacity="0.5"/>
    <circle cx="102.4096" cy="0" r="0.6000" fill="#222222" fill-opacity="0.5"/>
    <circle cx="103.6145" cy="0" r="0.6000" fill="#222222" fill-opacity="0.5"/>
    <circle cx="104.8193" cy="0" r="0.6000" fill="#222222" fill-opacity="0.5"/>
    <circle cx="106.0241" cy="0" r="0.6000" fill="#222222" fill-opacity="0.5"/>
    <circle cx="107.2289" cy="0" r="0.6000" fill="#222222" fill-opacity="0.5"/>
    <circle cx="108.4337" cy="0" r="0.6000" fill="#222222" fill-opacity="0.5"/>
    <circle cx="109.6386" cy="0" r="0.6000" fill="#222222" fill-opacity="0.5"/>
    <circle cx="110.8434" cy="0" r="0.6000" fill="#222222" fill-opacity="0.5"/>
    <circle cx="112.0482" cy="0" r="0.6000" fill="#222222" fill-opacity="0.5"/>
    <circle cx="113.2530" cy="0" r="0.6000" fill="#222222" fill-opacity="0.5"/>
    <circle cx="114.4578" cy="0" r="0.6000" fill="#222222" fill-opacity="0.5"/>
    <circle cx="115.6627" cy="0" r="0.6000" fill="#222222" fill-opacity="0.5"/>
    <circle cx="116.8675" cy="0" r="0.6000" fill="#222222" fill-opacity="0.5"/>
    <circle cx="118.0723" cy="0" r="0.6000" fill="#222222" fill-opacity="0.5"/>
    <circle cx="119.2771" cy="0" r="0.6000" fill="#222222" fill-opacity="0.5"/>
    <circle cx="120.4819" cy="0" r="0.6000" fill="#222222" fill-opacity="0.5"/>
    <circle cx="121.6867" cy="0" r="0.6000" fill="#222222" fill-opacity="0.5"/>
    <circle cx="122.8916" cy="0" r="0.6000" fill="#222222" fill-opacity="0.5"/>
    <circle cx="124.0964" cy="0" r="0.6000" fill="#222222" fill-opacity="0.5"/>
    <circle cx="125.3012" cy="0" r="0.6000" fill="#222222" fill-opacity="0.5"/>
    <circle cx="126.5060" cy="0" r="0.6000" fill="#222222" fill-opacity="0.5"/>
    <circle cx="127.7108" cy="0" r="0.6000" fill="#222222" fill-opacity="0.5"/>
    <circle cx="128.9157" cy="0" r="0.6000" fill="#222222" fill-opacity="0.5"/>
    <circle cx="130.1205" cy="0" r="0.6000" fill="#222222" fill-opacity="0.5"/>
    <circle cx="131.3253" cy="0" r="0.6000" fill="#222222" fill-opacity="0.5"/>
    <circle cx="132.5301" cy="0" r="0.6000" fill="#222222" fill-opacity="0.5"/>
    <circle cx="133.7349" cy="0" r="0.6000" fill="#222222" fill-opacity="0.5"/>
    <circle cx="134.9398" cy="0" r="0.6000" fill="#222222" fill-opacity="0.5"/>
    <circle cx="136.1446" cy="0" r="0.6000" fill="#222222" fill-opacity="0.5"/>
    <circle cx="137.3494" cy="0" r="0.6000" fill="#222222" fill-opacity="0.5"/>
    <circle cx="138.5542" cy="0" r="0.6000" fill="#222222" fill-opacity="0.5"/>
    <circle cx="139.7590" cy="0" r="0.6000" fill="#222222" fill-opacity="0.5"/>
    <circle cx="140.9639" cy="0" r="0.6000" fill="#222222" fill-opacity="0.5"/>
    <circle cx="142.1687" cy="0" r="0.6000" fill="#222222" fill-opacity="0.5"/>
    <circle cx="143.3735" cy="0" r="0.6000" fill="#222222" fill-opacity="0.5"/>
    <circle cx="144.5783" cy="0" r="0.6000" fill="#222222" fill-opacity="0.5"/>
    <circle cx="145.7831" cy="0" r="0.6000" fill="#222222" fill-opacity="0.5"/>
    <circle cx="146.9880" cy="0" r="0.6000" fill="#222222" fill-opacity="0.5"/>
    <circle cx="148.1928" cy="0" r="0.6000" fill="#222222" fill-opacity="0.5"/>
    <circle cx="149.3976" cy="0" r="0.6000" fill="#222222" fill-opacity="0.5"/>
    <circle cx="150.6024" cy="0" r="0.6000" fill="#222222" fill-opacity="0.5"/>
    <circle cx="151.8072" cy="0" r="0.6000" fill="#222222" fill-opacity="0.5"/>
    <circle cx="153.0120" cy="0" r="0.6000" fill="#222222" fill-opacity="0.5"/>
    <circle cx="154.2169" cy="0" r="0.6000" fill="#222222" fill-opacity="0.5"/>
    <circle cx="155.4217" cy="0" r="0.6000" fill="#222222" fill-opacity="0.5"/>
    <circle cx="156.6265" cy="0" r="0.6000" fill="#222222" fill-opacity="0.5"/>
    <circle cx="157.8313" cy="0" r="0.6000" fill="#222222" fill-opacity="0.5"/>
    <circle cx="159.0361" cy="0" r="0.6000" fill="#222222" fill-opacity="0.5"/>
    <circle cx="160.2410" cy="0" r="0.6000" fill="#222222" fill-opacity="0.5"/>
    <circle cx="161.4458" cy="0" r="0.6000" fill="#222222" fill-opacity="0.5"/>
    <circle cx="162.6506" cy="0" r="0.6000" fill="#222222" fill-opacity="0.5"/>
    <circle cx="163.8554" cy="0" r="0.6000" fill="#222222" fill-opacity="0.5"/>
    <circle cx="165.0602" cy="0" r="0.6000" fill="#222222" fill-opacity="0.5"/>
    <circle cx="166.2651" cy="0" r="0.6000" fill="#222222" fill-opacity="0.5"/>
    <circle cx="167.4699" cy="0" r="0.6000" fill="#222222" fill-opacity="0.5"/>
    <circle cx="168.6747" cy="0" r="0.6000" fill="#222222" fill-opacity="0.5"/>
    <circle cx="169.8795" cy="0" r="0.6000" fill="#222222" fill-opacity="0.5"/>
    <circle cx="171.0843" cy="0" r="0.6000" fill="#222222" fill-opacity="0.5"/>
    <circle cx="172.2892" cy="0" r="0.6000" fill="#222222" fill-opacity="0.5"/>
    <circle cx="173.4940" cy="0" r="0.6000" fill="#222222" fill-opacity="0.5"/>
    <circle cx="174.6988" cy="0" r="0.6000" fill="#222222" fill-opacity="0.5"/>
    <circle cx="175.9036" cy="0" r="0.6000" fill="#222222" fill-opacity="0.5"/>
    <circle cx="177.1084" cy="0" r="0.6000" fill="#222222" fill-opacity="0.5"/>
    <circle cx="178.3133" cy="0" r="0.6000" fill="#222222" fill-opacity="0.5"/>
    <circle cx="179.5181" cy="0" r="0.6000" fill="#222222" fill-opacity="0.5"/>
    <circle cx="180.7229" cy="0" r="0.6000" fill="#222222" fill-opacity="0.5"/>
    <circle cx="181.9277" cy="0" r="0.6000" fill="#222222" fill-opacity="0.5"/>
    <circle cx="183.1325" cy="0" r="0.6000" fill="#222222" fill-opacity="0.5"/>
    <circle cx="184.3373" cy="0" r="0.6000" fill="#222222" fill-opacity="0.5"/>
    <circle cx="185.5422" cy="0" r="0.6000" fill="#222222" fill-opacity="0.5"/>
    <circle cx="186.7470" cy="0" r="0.6000" fill="#222222" fill-opacity="0.5"/>
    <circle cx="187.9518" cy="0" r="0.6000" fill="#222222" fill-opacity="0.5"/>
    <circle cx="189.1566" cy="0" r="0.6000" fill="#222222" fill-opacity="0.5"/>
    <circle cx="190.3614" cy="0" r="0.6000" fill="#222222" fill-opacity="0.5"/>
    <circle cx="191.5663" cy="0" r="0.6000" fill="#222222" fill-opacity="0.5"/>
    <circle cx="192.7711" cy="0" r="0.6000" fill="#222222" fill-opacity="0.5"/>
    <circle cx="193.9759" cy="0" r="0.6000" fill="#222222" fill-opacity="0.5"/>
    <circle cx="195.1807" cy="0" r="0.6000" fill="#222222" fill-opacity="0.5"/>
    <circle cx="196.3855" cy="0" r="0.6000" fill="#222222" fill-opacity="0.5"/>
    <circle cx="197.5904" cy="0" r="0.6000" fill="#222222" fill-opacity="0.5"/>
    <circle cx="198.7952" cy="0" r="0.6000" fill="#222222" fill-opacity="0.5"/>
    <circle cx="200.0000" cy="0" r="0.6000" fill="#222222" fill-opacity="0.5"/>
    <circle cx="201.2048" cy="0" r="0.6000" fill="#222222" fill-opacity="0.5"/>
    <circle cx="202.4096" cy="0" r="0.6000" fill="#222222" fill-opacity="0.5"/>
    <circle cx="203.6145" cy="0" r="0.6000" fill="#222222" fill-opacity="0.5"/>
    <circle cx="204.8193" cy="0" r="0.6000" fill="#222222" fill-opacity="0.5"/>
    <circle cx="206.0241" cy="0" r="0.6000" fill="#222222" fill-opacity="0.5"/>
    <circle cx="207.2289" cy="0" r="0.6000" fill="#222222" fill-opacity="0.5"/>
    <circle cx="208.4337" cy="0" r="0.6000" fill="#222222" fill-opacity="0.5"/>
    <circle cx="209.6386" cy="0" r="0.6000" fill="#222222" fill-opacity="0.5"/>
    <circle cx="210.8434" cy="0" r="0.6000" fill="#222222" fill-opacity="0.5"/>
    <circle cx="212.0482" cy="0" r="0.6000" fill="#222222" fill-opacity="0.5"/>
    <circle cx="213.2530" cy="0" r="0.6000" fill="#222222" fill-opacity="0.5"/>
    <circle cx="214.4578" cy="0" r="0.6000" fill="#222222" fill-opacity="0.5"/>
    <circle cx="215.6627" cy="0" r="0.6000" fill="#222222" fill-opacity="0.5"/>
    <circle cx="216.8675" cy="0" r="0.6000" fill="#222222" fill-opacity="0.5"/>
    <circle cx="218.0723" cy="0" r="0.6000" fill="#222222" fill-opacity="0.5"/>
    <circle cx="219.2771" cy="0" r="0.6000" fill="#222222" fill-opacity="0.5"/>
    <circle cx="220.4819" cy="0" r="0.6000" fill="#222222" fill-opacity="0.5"/>
    <circle cx="221.6867" cy="0" r="0.6000" fill="#222222" fill-opacity="0.5"/>
    <circle cx="222.8916" cy="0" r="0.6000" fill="#222222" fill-opacity="0.5"/>
    <circle cx="224.0964" cy="0" r="0.6000" fill="#222222" fill-opacity="0.5"/>
    <circle cx="225.3012" cy="0" r="0.6000" fill="#222222" fill-opacity="0.5"/>
    <circle cx="226.5060" cy="0" r="0.6000" fill="#222222" fill-opacity="0.5"/>
    <circle cx="227.7108" cy="0" r="0.6000" fill="#222222" fill-opacity="0.5"/>
    <circle cx="228.9157" cy="0" r="0.6000" fill="#222222" fill-opacity="0.5"/>
    <circle cx="230.1205" cy="0" r="0.6000" fill="#222222" fill-opacity="0.5"/>
    <circle cx="231.3253" cy="0" r="0.6000" fill="#222222" fill-opacity="0.5"/>
    <circle cx="232.5301" cy="0" r="0.6000" fill="#222222" fill-opacity="0.5"/>
    <circle cx="233.7349" cy="0" r="0.6000" fill="#222222" fill-opacity="0.5"/>
    <circle cx="234.9398" cy="0" r="0.6000" fill="#222222" fill-opacity="0.5"/>
    <circle cx="236.1446" cy="0" r="0.6000" fill="#222222" fill-opacity="0.5"/>
    <circle cx="237.3494" cy="0" r="0.6000" fill="#222222" fill-opacity="0.5"/>
    <circle cx="238.5542" cy="0" r="0.6000" fill="#222222" fill-opacity="0.5"/>
    <circle cx="239.7590" cy="0" r="0.6000" fill="#222222" fill-opacity="0.5"/>
    <circle cx="240.9639" cy="0" r="0.6000" fill="#222222" fill-opacity="0.5"/>
    <circle cx="242.1687" cy="0" r="0.6000" fill="#222222" fill-opacity="0.5"/>
    <circle cx="243.3735" cy="0" r="0.6000" fill="#222222" fill-opacity="0.5"/>
    <circle cx="244.5783" cy="0" r="0.6000" fill="#222222" fill-opacity="0.5"/>
    <circle cx="245.7831" cy="0" r="0.6000" fill="#222222" fill-opacity="0.5"/>
    <circle cx="246.9880" cy="0" r="0.6000" fill="#222222" fill-opacity="0.5"/>
    <circle cx="248.1928" cy="0" r="0.6000" fill="#222222" fill-opacity="0.5"/>
    <circle cx="249.3976" cy="0" r="0.6000" fill="#222222" fill-opacity="0.5"/>
    <circle cx="250.6024" cy="0" r="0.6000" fill="#222222" fill-opacity="0.5"/>
    <circle cx="251.8072" cy="0" r="0.6000" fill="#222222" fill-opacity="0.5"/>
    <circle cx="253.0120" cy="0" r="0.6000" fill="#222222" fill-opacity="0.5"/>
    <circle cx="254.2169" cy="0" r="0.6000" fill="#222222" fill-opacity="0.5"/>
    <circle cx="255.4217" cy="0" r="0.6000" fill="#222222" fill-opacity="0.5"/>
    <circle cx="256.6265" cy="0" r="0.6000" fill="#222222" fill-opacity="0.5"/>
    <circle cx="257.8313" cy="0" r="0.6000" fill="#222222" fill-opacity="0.5"/>
    <circle cx="259.0361" cy="0" r="0.6000" fill="#222222" fill-opacity="0.5"/>
    <circle cx="260.2410" cy="0" r="0.6000" fill="#222222" fill-opacity="0.5"/>
    <circle cx="261.4458" cy="0" r="0.6000" fill="#222222" fill-opacity="0.5"/>
    <circle cx="262.6506" cy="0" r="0.6000" fill="#222222" fill-opacity="0.5"/>
    <circle cx="263.8554" cy="0" r="0.6000" fill="#222222" fill-opacity="0.5"/>
    <circle cx="265.0602" cy="0" r="0.6000" fill="#222222" fill-opacity="0.5"/>
    <circle cx="266.2651" cy="0" r="0.6000" fill="#222222" fill-opacity="0.5"/>
    <circle cx="267.4699" cy="0" r="0.6000" fill="#222222" fill-opacity="0.5"/>
    <circle cx="268.6747" cy="0" r="0.6000" fill="#222222" fill-opacity="0.5"/>
    <circle cx="269.8795" cy="0" r="0.6000" fill="#222222" fill-opacity="0.5"/>
    <circle cx="271.0843" cy="0" r="0.6000" fill="#222222" fill-opacity="0.5"/>
    <circle cx="272.2892" cy="0" r="0.6000" fill="#222222" fill-opacity="0.5"/>
    <circle cx="273.4940" cy="0" r="0.6000" fill="#222222" fill-opacity="0.5"/>
    <circle cx="274.6988" cy="0" r="0.6000" fill="#222222" fill-opacity="0.5"/>
    <circle cx="275.9036" cy="0" r="0.6000" fill="#222222" fill-opacity="0.5"/>
    <circle cx="277.1084" cy="0" r="0.6000" fill="#222222" fill-opacity="0.5"/>
    <circle cx="278.3133" cy="0" r="0.6000" fill="#222222" fill-opacity="0.5"/>
    <circle cx="279.5181" cy="0" r="0.6000" fill="#222222" fill-opacity="0.5"/>
    <circle cx="280.7229" cy="0" r="0.6000" fill="#222222" fill-opacity="0.5"/>
    <circle cx="281.9277" cy="0" r="0.6000" fill="#222222" fill-opacity="0.5"/>
    <circle cx="283.1325" cy="0" r="0.6000" fill="#222222" fill-opacity="0.5"/>
    <circle cx="284.3373" cy="0" r="0.6000" fill="#222222" fill-opacity="0.5"/>
    <circle cx="285.5422" cy="0" r="0.6000" fill="#222222" fill-opacity="0.5"/>
    <circle cx="286.7470" cy="0" r="0.6000" fill="#222222" fill-opacity="0.5"/>
    <circle cx="287.9518" cy="0" r="0.6000" fill="#222222" fill-opacity="0.5"/>
    <circle cx="289.1566" cy="0" r="0.6000" fill="#222222" fill-opacity="0.5"/>
    <circle cx="290.3614" cy="0" r="0.6000" fill="#222222" fill-opacity="0.5"/>
    <circle cx="291.5663" cy="0" r="0.6000" fill="#222222" fill-opacity="0.5"/>
    <circle cx="292.7711" cy="0" r="0.6000" fill="#222222" fill-opacity="0.5"/>
    <circle cx="293.9759" cy="0" r="0.6000" fill="#222222" fill-opacity="0.5"/>
    <circle cx="295.1807" cy="0" r="0.6000" fill="#222222" fill-opacity="0.5"/>
    <circle cx="296.3855" cy="0" r="0.6000" fill="#222222" fill-opacity="0.5"/>
    <circle cx="297.5904" cy="0" r="0.6000" fill="#222222" fill-opacity="0.5"/>
    <circle cx="298.7952" cy="0" r="0.6000" fill="#222222" fill-opacity="0.5"/>
    <circle cx="300.0000" cy="0" r="0.6000" fill="#222222" fill-opacity="0.5"/>
  <path fill="none" stroke="#8844ff" stroke-opacity="0.35" stroke-width="0.6" d="M -0.4375 0.7578 L 0.7515 0.7852 L 1.9405 0.8126 L 3.1295 0.8399 L 4.3185 0.8673 L 5.5075 0.8947 L 6.6965 0.9221 L 7.8855 0.9495 L 9.0745 0.9769 L 10.2636 1.0043 L 11.4526 1.0317 L 12.6416 1.0591 L 13.8306 1.0864 L 15.0196 1.1138 L 16.2086 1.1412 L 17.3976 1.1686 L 18.5866 1.1960 L 19.7756 1.2234 L 20.9646 1.2508 L 22.1536 1.2782 L 23.3426 1.3056 L 24.5316 1.3329 L 25.7206 1.3603 L 26.9096 1.3877 L 28.0986 1.4151 L 29.2877 1.4425 L 30.4767 1.4699 L 31.6657 1.4973 L 32.8547 1.5247 L 34.0437 1.5521 L 35.2327 1.5795 L 36.4217 1.6068 L 37.6107 1.6342 L 38.7997 1.6616 L 39.9887 1.6890 L 41.1777 1.7164 L 42.3667 1.7438 L 43.5557 1.7712 L 44.7447 1.7986 L 45.9337 1.8260 L 47.1227 1.8533 L 48.3117 1.8807 L 49.5008 1.9081 L 50.6898 1.9355 L 51.8788 1.9629 L 53.0678 1.9903 L 54.2568 2.0177 L 55.4458 2.0451 L 56.6348 2.0725 L 57.8238 2.0999 L 59.0128 2.1272 L 60.2018 2.1546 L 61.3908 2.1820 L 62.5798 2.2094 L 63.7688 2.2368 L 64.9578 2.2642 L 66.1468 2.2916 L 67.3358 2.3190 L 68.5248 2.3464 L 69.7139 2.3737 L 70.9029 2.4011 L 72.0919 2.4285 L 73.2809 2.4559 L 74.4699 2.4833 L 75.6589 2.5107 L 76.8479 2.5381 L 78.0369 2.5655 L 79.2259 2.5929 L 80.4149 2.6202 L 81.6039 2.6476 L 82.7929 2.6750 L 83.9819 2.7024 L 85.1709 2.7298 L 86.3599 2.7572 L 87.5489 2.7846 L 88.7380 2.8120 L 89.9270 2.8394 L 91.1160 2.8668 L 92.3050 2.8941 L 93.4940 2.9215 L 94.6830 2.9489 L 95.8720 2.9763 L 97.0610 3.0037 L 98.2500 3.0311 L 99.4390 3.0585 L 100.6280 3.0859 L 101.8170 3.1133 L 103.0060 3.1406 L 104.1950 3.1680 L 105.3840 3.1954 L 106.5730 3.2228 L 107.7620 3.2502 L 108.9511 3.2776 L 110.1401 3.3050 L 111.3291 3.3324 L 112.5181 3.3598 L 113.7071 3.3872 L 114.8961 3.4145 L 116.0851 3.4419 L 117.2741 3.4693 L 118.4631 3.4967 L 119.6521 3.5241 L 120.8411 3.5515 L 122.0301 3.5789 L 123.2191 3.6063 L 124.4081 3.6337 L 125.5971 3.6610 L 126.7861 3.6884 L 127.9752 3.7158 L 129.1642 3.7432 L 130.3532 3.7706 L 131.5422 3.7980 L 132.7312 3.8254 L 133.9202 3.8528 L 135.1092 3.8802 L 136.2982 3.9075 L 137.4872 3.9349 L 138.6762 3.9623 L 139.8652 3.9897 L 141.0542 4.0171 L 142.2432 4.0445 L 143.4322 4.0719 L 144.6212 4.0993 L 145.8102 4.1267 L 146.9992 4.1541 L 148.1883 4.1814 L 149.3773 4.2088 L 150.5663 4.2362 L 151.7553 4.2636 L 152.9443 4.2910 L 154.1333 4.3184 L 155.3223 4.3458 L 156.5113 4.3732 L 157.7003 4.4006 L 158.8893 4.4279 L 160.0783 4.4553 L 161.2673 4.4827 L 162.4563 4.5101 L 163.6453 4.5375 L 164.8343 4.5649 L 166.0233 4.5923 L 167.2123 4.6197 L 168.4014 4.6471 L 169.5904 4.6745 L 170.7794 4.7018 L 171.9684 4.7292 L 173.1574 4.7566 L 174.3464 4.7840 L 175.5354 4.8114 L 176.7244 4.8388 L 177.9134 4.8662 L 179.1024 4.8936 L 180.2914 4.9210 L 181.4804 4.9483 L 182.6694 4.9757 L 183.8584 5.0031 L 185.0474 5.0305 L 186.2364 5.0579 L 187.4255 5.0853 L 188.6145 5.1127 L 189.8035 5.1401 L 190.9925 5.1675 L 192.1815 5.1948 L 193.3705 5.2222 L 194.5595 5.2496 L 195.7485 5.2770 L 196.9375 5.3044 L 198.1265 5.3318 L 199.3155 5.3592 L 200.5045 5.3866 L 201.6935 5.4140 L 202.8825 5.4414 L 204.0715 5.4687 L 205.2605 5.4961 L 206.4495 5.5235 L 207.6386 5.5509 L 208.8276 5.5783 L 210.0166 5.6057 L 211.2056 5.6331 L 212.3946 5.6605 L 213.5836 5.6879 L 214.7726 5.7152 L 215.9616 5.7426 L 217.1506 5.7700 L 218.3396 5.7974 L 219.5286 5.8248 L 220.7176 5.8522 L 221.9066 5.8796 L 223.0956 5.9070 L 224.2846 5.9344 L 225.4736 5.9618 L 226.6627 5.9891 L 227.8517 6.0165 L 229.0407 6.0439 L 230.2297 6.0713 L 231.4187 6.0987 L 232.6077 6.1261 L 233.7967 6.1535 L 234.9857 6.1809 L 236.1747 6.2083 L 237.3637 6.2356 L 238.5527 6.2630 L 239.7417 6.2904 L 240.9307 6.3178 L 242.1197 6.3452 L 243.3087 6.3726 L 244.4977 6.4000 L 245.6867 6.4274 L 246.8758 6.4548 L 248.0648 6.4821 L 249.2538 6.5095 L 250.4428 6.5369 L 251.6318 6.5643 L 252.8208 6.5917 L 254.0098 6.6191 L 255.1988 6.6465 L 256.3878 6.6739 L 257.5768 6.7013 L 258.7658 6.7287 L 259.9548 6.7560 L 261.1438 6.7834 L 262.3328 6.8108 L 263.5218 6.8382 L 264.7108 6.8656 L 265.8998 6.8930 L 267.0889 6.9204 L 268.2779 6.9478 L 269.4669 6.9752 L 270.6559 7.0025 L 271.8449 7.0299 L 273.0339 7.0573 L 274.2229 7.0847 L 275.4119 7.1121 L 276.6009 7.1395 L 277.7899 7.1669 L 278.9789 7.1943 L 280.1679 7.2217 L 281.3569 7.2490 L 282.5459 7.2764 L 283.7349 7.3038 L 284.9239 7.3312 L 286.1130 7.3586 L 287.3020 7.3860 L 288.4910 7.4134 L 289.6800 7.4408 L 290.8690 7.4682 L 292.0580 7.4956 L 293.2470 7.5229 L 294.4360 7.5503 L 295.6250 7.5777 L 304.3750 -7.5777 L 303.1544 -7.5503 L 301.9337 -7.5229 L 300.7131 -7.4956 L 299.4925 -7.4682 L 298.2718 -7.4408 L 297.0512 -7.4134 L 295.8306 -7.3860 L 294.6099 -7.3586 L 293.3893 -7.3312 L 292.1687 -7.3038 L 290.9480 -7.2764 L 289.7274 -7.2490 L 288.5068 -7.2217 L 287.2861 -7.1943 L 286.0655 -7.1669 L 284.8449 -7.1395 L 283.6242 -7.1121 L 282.4036 -7.0847 L 281.1830 -7.0573 L 279.9623 -7.0299 L 278.7417 -7.0025 L 277.5211 -6.9752 L 276.3005 -6.9478 L 275.0798 -6.9204 L 273.8592 -6.8930 L 272.6386 -6.8656 L 271.4179 -6.8382 L 270.1973 -6.8108 L 268.9767 -6.7834 L 267.7560 -6.7560 L 266.5354 -6.7287 L 265.3148 -6.7013 L 264.0941 -6.6739 L 262.8735 -6.6465 L 261.6529 -6.6191 L 260.4322 -6.5917 L 259.2116 -6.5643 L 257.9910 -6.5369 L 256.7703 -6.5095 L 255.5497 -6.4821 L 254.3291 -6.4548 L 253.1084 -6.4274 L 251.8878 -6.4000 L 250.6672 -6.3726 L 249.4465 -6.3452 L 248.2259 -6.3178 L 247.0053 -6.2904 L 245.7846 -6.2630 L 244.5640 -6.2356 L 243.3434 -6.2083 L 242.1227 -6.1809 L 240.9021 -6.1535 L 239.6815 -6.1261 L 238.4608 -6.0987 L 237.2402 -6.0713 L 236.0196 -6.0439 L 234.7989 -6.0165 L 233.5783 -5.9891 L 232.3577 -5.9618 L 231.1370 -5.9344 L 229.9164 -5.9070 L 228.6958 -5.8796 L 227.4752 -5.8522 L 226.2545 -5.8248 L 225.0339 -5.7974 L 223.8133 -5.7700 L 222.5926 -5.7426 L 221.3720 -5.7152 L 220.1514 -5.6879 L 218.9307 -5.6605 L 217.7101 -5.6331 L 216.4895 -5.6057 L 215.2688 -5.5783 L 214.0482 -5.5509 L 212.8276 -5.5235 L 211.6069 -5.4961 L 210.3863 -5.4687 L 209.1657 -5.4414 L 207.9450 -5.4140 L 206.7244 -5.3866 L 205.5038 -5.3592 L 204.2831 -5.3318 L 203.0625 -5.3044 L 201.8419 -5.2770 L 200.6212 -5.2496 L 199.4006 -5.2222 L 198.1800 -5.1948 L 196.9593 -5.1675 L 195.7387 -5.1401 L 194.5181 -5.1127 L 193.2974 -5.0853 L 192.0768 -5.0579 L 190.8562 -5.0305 L 189.6355 -5.0031 L 188.4149 -4.9757 L 187.1943 -4.9483 L 185.9736 -4.9210 L 184.7530 -4.8936 L 183.5324 -4.8662 L 182.3117 -4.8388 L 181.0911 -4.8114 L 179.8705 -4.7840 L 178.6498 -4.7566 L 177.4292 -4.7292 L 176.2086 -4.7018 L 174.9880 -4.6745 L 173.7673 -4.6471 L 172.5467 -4.6197 L 171.3261 -4.5923 L 170.1054 -4.5649 L 168.8848 -4.5375 L 167.6642 -4.5101 L 166.4435 -4.4827 L 165.2229 -4.4553 L 164.0023 -4.4279 L 162.7816 -4.4006 L 161.5610 -4.3732 L 160.3404 -4.3458 L 159.1197 -4.3184 L 157.8991 -4.2910 L 156.6785 -4.2636 L 155.4578 -4.2362 L 154.2372 -4.2088 L 153.0166 -4.1814 L 151.7959 -4.1541 L 150.5753 -4.1267 L 149.3547 -4.0993 L 148.1340 -4.0719 L 146.9134 -4.0445 L 145.6928 -4.0171 L 144.4721 -3.9897 L 143.2515 -3.9623 L 142.0309 -3.9349 L 140.8102 -3.9075 L 139.5896 -3.8802 L 138.3690 -3.8528 L 137.1483 -3.8254 L 135.9277 -3.7980 L 134.7071 -3.7706 L 133.4864 -3.7432 L 132.2658 -3.7158 L 131.0452 -3.6884 L 129.8245 -3.6610 L 128.6039 -3.6337 L 127.3833 -3.6063 L 126.1627 -3.5789 L 124.9420 -3.5515 L 123.7214 -3.5241 L 122.5008 -3.4967 L 121.2801 -3.4693 L 120.0595 -3.4419 L 118.8389 -3.4145 L 117.6182 -3.3872 L 116.3976 -3.3598 L 115.1770 -3.3324 L 113.9563 -3.3050 L 112.7357 -3.2776 L 111.5151 -3.2502 L 110.2944 -3.2228 L 109.0738 -3.1954 L 107.8532 -3.1680 L 106.6325 -3.1406 L 105.4119 -3.1133 L 104.1913 -3.0859 L 102.9706 -3.0585 L 101.7500 -3.0311 L 100.5294 -3.0037 L 99.3087 -2.9763 L 98.0881 -2.9489 L 96.8675 -2.9215 L 95.6468 -2.8941 L 94.4262 -2.8668 L 93.2056 -2.8394 L 91.9849 -2.8120 L 90.7643 -2.7846 L 89.5437 -2.7572 L 88.3230 -2.7298 L 87.1024 -2.7024 L 85.8818 -2.6750 L 84.6611 -2.6476 L 83.4405 -2.6202 L 82.2199 -2.5929 L 80.9992 -2.5655 L 79.7786 -2.5381 L 78.5580 -2.5107 L 77.3373 -2.4833 L 76.1167 -2.4559 L 74.8961 -2.4285 L 73.6755 -2.4011 L 72.4548 -2.3737 L 71.2342 -2.3464 L 70.0136 -2.3190 L 68.7929 -2.2916 L 67.5723 -2.2642 L 66.3517 -2.2368 L 65.1310 -2.2094 L 63.9104 -2.1820 L 62.6898 -2.1546 L 61.4691 -2.1272 L 60.2485 -2.0999 L 59.0279 -2.0725 L 57.8072 -2.0451 L 56.5866 -2.0177 L 55.3660 -1.9903 L 54.1453 -1.9629 L 52.9247 -1.9355 L 51.7041 -1.9081 L 50.4834 -1.8807 L 49.2628 -1.8533 L 48.0422 -1.8260 L 46.8215 -1.7986 L 45.6009 -1.7712 L 44.3803 -1.7438 L 43.1596 -1.7164 L 41.9390 -1.6890 L 40.7184 -1.6616 L 39.4977 -1.6342 L 38.2771 -1.6068 L 37.0565 -1.5795 L 35.8358 -1.5521 L 34.6152 -1.5247 L 33.3946 -1.4973 L 32.1739 -1.4699 L 30.9533 -1.4425 L 29.7327 -1.4151 L 28.5120 -1.3877 L 27.2914 -1.3603 L 26.0708 -1.3329 L 24.8502 -1.3056 L 23.6295 -1.2782 L 22.4089 -1.2508 L 21.1883 -1.2234 L 19.9676 -1.1960 L 18.7470 -1.1686 L 17.5264 -1.1412 L 16.3057 -1.1138 L 15.0851 -1.0864 L 13.8645 -1.0591 L 12.6438 -1.0317 L 11.4232 -1.0043 L 10.2026 -0.9769 L 8.9819 -0.9495 L 7.7613 -0.9221 L 6.5407 -0.8947 L 5.3200 -0.8673 L 4.0994 -0.8399 L 2.8788 -0.8126 L 1.6581 -0.7852 L 0.4375 -0.7578 L -0.4375 0.7578 Z"/>
  
  
  
</g>
</svg>