<svg xmlns="http://www.w3.org/2000/svg" width="334.8053" height="223.3968" viewBox="-16.1120 -107.7076 334.8053 223.3968">
  <path fill="black" stroke="none" fill-rule="evenodd" d="M -6.1120 1.2876 L -6.0571 2.4292 L -5.8986 3.5293 L -5.6392 4.5690 L -5.2833 5.5306 L -5.1106 5.8659 L -5.1009 5.9351 L -4.8463 6.9760 L -4.4947 7.9391 L -4.3010 8.3196 L -4.2987 8.3369 L -4.0487 9.3789 L -3.7016 10.3437 L -3.4797 10.7845 L -3.2459 11.7793 L -2.9031 12.7456 L -2.6490 13.2562 L -2.4364 14.1798 L -2.0980 15.1476 L -1.8128 15.7273 L -1.6217 16.5750 L -1.2878 17.5444 L -0.9700 18.1978 L -0.7993 18.9714 L -0.4698 19.9422 L -0.1208 20.6681 L 0.0291 21.3624 L 0.3542 22.3348 L 0.7356 23.1376 L 0.8655 23.7531 L 1.1862 24.7269 L 1.5991 25.6062 L 1.7090 26.1387 L 2.0252 27.1140 L 2.4356 27.9984 L 2.4648 28.0442 L 2.5615 28.5237 L 2.8733 29.5004 L 3.2796 30.3867 L 3.3383 30.4795 L 3.4216 30.9021 L 3.7289 31.8803 L 4.1312 32.7684 L 4.2216 32.9128 L 4.2924 33.2812 L 4.5953 34.2607 L 4.9935 35.1507 L 5.1144 35.3457 L 5.1722 35.6540 L 5.4706 36.6349 L 5.8648 37.5267 L 6.0173 37.7751 L 6.0625 38.0226 L 6.3564 39.0049 L 6.7466 39.8985 L 6.9318 40.2034 L 6.9648 40.3888 L 7.2543 41.3724 L 7.6404 42.2677 L 7.8580 42.6297 L 7.8787 42.7488 L 8.1636 43.7337 L 8.5456 44.6308 L 8.7966 45.0525 L 8.8051 45.1026 L 9.0855 46.0888 L 9.4634 46.9876 L 9.7540 47.4810 L 10.0220 48.4399 L 10.3958 49.3405 L 10.7383 49.9281 L 10.9737 50.7852 L 11.3434 51.6875 L 11.7393 52.3739 L 11.9414 53.1233 L 12.3069 54.0272 L 12.7582 54.8179 L 12.9266 55.4536 L 13.2880 56.3592 L 13.7423 57.1637 L 13.7865 57.2202 L 13.9308 57.7756 L 14.2882 58.6828 L 14.7388 59.4893 L 14.8348 59.6133 L 14.9559 60.0882 L 15.3091 60.9970 L 15.7561 61.8056 L 15.9066 62.0017 L 16.0038 62.3903 L 16.3528 63.3007 L 16.7961 64.1113 L 17.0040 64.3848 L 17.0765 64.6801 L 17.4214 65.5921 L 17.8609 66.4047 L 18.1302 66.7622 L 18.1770 66.9569 L 18.5177 67.8705 L 18.9536 68.6851 L 19.2889 69.1346 L 19.3090 69.2201 L 19.6456 70.1352 L 20.0777 70.9518 L 20.4920 71.5125 L 20.8067 72.3803 L 21.2351 73.1989 L 21.7522 73.9054 L 21.7587 73.9117 L 22.0069 74.6060 L 22.4316 75.4266 L 22.9455 76.1354 L 23.0494 76.2377 L 23.2496 76.8059 L 23.6705 77.6283 L 24.1811 78.3396 L 24.3944 78.5514 L 24.5429 78.9791 L 24.9601 79.8034 L 25.4675 80.5170 L 25.8020 80.8524 L 25.8923 81.1163 L 26.3057 81.9425 L 26.8098 82.6584 L 27.2820 83.1362 L 27.3070 83.2101 L 27.7166 84.0383 L 28.2175 84.7564 L 28.8010 85.3523 L 28.8728 85.4029 L 29.2036 86.0794 L 29.7012 86.7999 L 30.2820 87.3983 L 30.5615 87.5976 L 30.7811 88.0519 L 31.2754 88.7745 L 31.8535 89.3757 L 32.3799 89.7546 L 32.4649 89.9325 L 32.9559 90.6574 L 33.5312 91.2612 L 34.1810 91.7335 L 34.3619 91.8179 L 34.7643 92.4178 L 35.3369 93.0242 L 35.9845 93.4994 L 36.5701 93.7759 L 36.7239 94.0075 L 37.2937 94.6165 L 37.9392 95.0947 L 38.6493 95.4339 L 39.0163 95.5275 L 39.4224 95.9655 L 40.0657 96.4467 L 40.7742 96.7891 L 41.5358 96.9870 L 41.7743 97.0019 L 42.3747 97.4552 L 43.0816 97.8008 L 43.8423 98.0022 L 44.6438 98.0559 L 44.8945 98.0271 L 45.5397 98.3462 L 46.2995 98.5510 L 47.1007 98.6083 L 47.9297 98.5171 L 48.3260 98.4050 L 48.8175 98.5399 L 49.6185 98.6008 L 50.4479 98.5134 L 51.2915 98.2790 L 51.8763 98.0174 L 52.0754 98.0334 L 52.9052 97.9497 L 53.7498 97.7192 L 54.5949 97.3458 L 55.3493 96.8829 L 56.0577 96.6930 L 56.9045 96.3234 L 57.7379 95.8173 L 58.5436 95.1832 L 58.5711 95.1562 L 59.0315 94.9577 L 59.8672 94.4554 L 60.6758 93.8250 L 61.4435 93.0773 L 61.4440 93.0767 L 61.8248 92.8501 L 62.6363 92.2234 L 63.4074 91.4793 L 63.9667 90.8176 L 64.4456 90.4512 L 65.2201 89.7106 L 65.9414 88.8650 L 66.2181 88.4702 L 66.9049 87.8194 L 67.6301 86.9771 L 68.2903 86.0441 L 68.3237 85.9864 L 68.4834 85.8364 L 69.2125 84.9975 L 69.8769 84.0674 L 70.1846 83.5418 L 70.7044 82.9491 L 71.3731 82.0221 L 71.9646 81.0221 L 72.1203 80.8462 L 72.7932 79.9222 L 73.3908 78.9225 L 73.5513 78.5907 L 74.1480 77.7791 L 74.7501 76.7820 L 75.1000 76.0672 L 75.4468 75.5999 L 76.0535 74.6056 L 76.5720 73.5583 L 76.6950 73.3941 L 77.3062 72.4026 L 77.8326 71.3512 L 77.9189 71.1333 L 78.5164 70.1738 L 79.0477 69.1248 L 79.2490 68.6229 L 79.6876 67.9256 L 80.2236 66.8790 L 80.5324 66.1192 L 80.8255 65.6579 L 81.3663 64.6138 L 81.7750 63.6210 L 81.9320 63.3765 L 82.4775 62.3349 L 82.9301 61.2496 L 82.9570 61.1649 L 83.0106 61.0822 L 83.5609 60.0430 L 84.0184 58.9599 L 84.0978 58.7132 L 84.6194 57.7390 L 85.0819 56.6579 L 85.2258 56.2178 L 85.6552 55.4245 L 86.1226 54.3455 L 86.3288 53.7246 L 86.6702 53.1007 L 87.1426 52.0239 L 87.4091 51.2334 L 87.6662 50.7685 L 88.1434 49.6939 L 88.4686 48.7435 L 88.6446 48.4287 L 89.1267 47.3562 L 89.5088 46.2560 L 89.5091 46.2549 L 89.6070 46.0817 L 90.0940 45.0114 L 90.4811 43.9129 L 90.5066 43.8123 L 90.5542 43.7289 L 91.0461 42.6609 L 91.4382 41.5641 L 91.4889 41.3678 L 91.9836 40.3064 L 92.3807 39.2114 L 92.4679 38.8802 L 92.9086 37.9458 L 93.3107 36.8527 L 93.4342 36.3918 L 93.8220 35.5791 L 94.2291 34.4878 L 94.3884 33.9038 L 94.7234 33.2099 L 95.1355 32.1205 L 95.3309 31.4172 L 95.6144 30.8367 L 96.0314 29.7491 L 96.2632 28.9292 L 96.4964 28.4572 L 96.9184 27.3716 L 97.1855 26.4428 L 97.3676 26.0784 L 97.7945 24.9947 L 98.0983 23.9561 L 98.2312 23.6931 L 98.6631 22.6114 L 98.9890 21.5159 L 98.9951 21.4847 L 99.0858 21.3072 L 99.5226 20.2275 L 99.8535 19.1335 L 99.8740 19.0313 L 99.9334 18.9164 L 100.3751 17.8387 L 100.7110 16.7462 L 100.7458 16.5771 L 100.7729 16.5252 L 101.2195 15.4495 L 101.5604 14.3585 L 101.6111 14.1179 L 102.0580 13.0551 L 102.4038 11.9657 L 102.4759 11.6312 L 102.8887 10.6619 L 103.2394 9.5741 L 103.3339 9.1454 L 103.7142 8.2635 L 104.0699 7.1773 L 104.1866 6.6587 L 104.5331 5.8653 L 104.8938 4.7807 L 105.0335 4.1729 L 105.3466 3.4646 L 105.7122 2.3817 L 105.8756 1.6854 L 106.1556 1.0600 L 106.5261 -0.0213 L 106.7070 -0.7766 L 106.9644 -1.3447 L 107.3398 -2.4243 L 107.5316 -3.2092 L 107.7775 -3.7455 L 108.1578 -4.8233 L 108.3606 -5.6371 L 108.5958 -6.1438 L 108.9810 -7.2199 L 109.1950 -8.0624 L 109.4204 -8.5423 L 109.8105 -9.6166 L 110.0348 -10.4830 L 110.2499 -10.9357 L 110.6450 -12.0083 L 110.8802 -12.9004 L 111.0870 -13.3303 L 111.4869 -14.4011 L 111.7319 -15.3131 L 111.9297 -15.7198 L 112.3345 -16.7887 L 112.5896 -17.7214 L 112.7803 -18.1090 L 113.1900 -19.1760 L 113.4539 -20.1241 L 113.6377 -20.4932 L 114.0522 -21.5584 L 114.3253 -22.5223 L 114.5038 -22.8770 L 114.9232 -23.9402 L 115.2037 -24.9134 L 115.3773 -25.2543 L 115.8015 -26.3157 L 116.0900 -27.2998 L 116.2613 -27.6324 L 116.6903 -28.6918 L 116.9847 -29.6791 L 117.1540 -30.0043 L 117.5879 -31.0617 L 117.8875 -32.0503 L 118.0570 -32.3722 L 118.4957 -33.4276 L 118.7997 -34.4147 L 118.9717 -34.7377 L 119.4152 -35.7911 L 119.7217 -36.7700 L 119.8977 -37.0971 L 120.3460 -38.1485 L 120.6533 -39.1148 L 120.8360 -39.4506 L 121.2891 -40.4999 L 121.5960 -41.4499 L 121.7886 -41.8001 L 122.2465 -42.8474 L 122.5506 -43.7742 L 122.7562 -44.1440 L 123.2188 -45.1891 L 123.5175 -46.0855 L 123.7395 -46.4807 L 124.2069 -47.5238 L 124.4974 -48.3824 L 124.7402 -48.8099 L 125.2123 -49.8508 L 125.4912 -50.6633 L 125.7596 -51.1309 L 126.2365 -52.1696 L 126.5001 -52.9262 L 126.7996 -53.4426 L 127.2812 -54.4792 L 127.5250 -55.1688 L 127.8622 -55.7439 L 128.3485 -56.7783 L 128.5672 -57.3880 L 128.9493 -58.0331 L 129.4403 -59.0653 L 129.6279 -59.5807 L 130.0640 -60.3095 L 130.5597 -61.3394 L 130.7089 -61.7436 L 131.2100 -62.5723 L 131.7104 -63.5999 L 131.8118 -63.8709 L 132.3890 -64.8157 L 132.8940 -65.8410 L 132.9499 -65.9882 L 132.9951 -66.0487 L 133.6068 -67.0399 L 134.1165 -68.0629 L 134.1237 -68.0817 L 134.2506 -68.2500 L 134.8668 -69.2384 L 135.2845 -70.0670 L 135.5565 -70.4248 L 136.1773 -71.4103 L 136.4628 -71.9704 L 136.9183 -72.5637 L 137.5436 -73.5464 L 137.6649 -73.7817 L 138.3452 -74.6595 L 138.9266 -75.5642 L 139.1234 -75.7749 L 139.8480 -76.7009 L 140.1258 -77.1289 L 140.7122 -77.7510 L 141.3700 -78.5840 L 141.5967 -78.7837 L 142.4071 -79.6357 L 142.5074 -79.7616 L 142.5380 -79.7837 L 143.4154 -80.5497 L 143.5766 -80.7177 L 144.5043 -81.3833 L 144.5774 -81.4466 L 144.7476 -81.5229 L 145.3848 -81.8901 L 146.0826 -82.1111 L 146.2208 -82.1724 L 146.6081 -82.1906 L 147.1867 -82.2967 L 147.3366 -82.2547 L 148.2071 -82.1610 L 148.5242 -82.1745 L 148.9960 -81.9416 L 149.7981 -81.7130 L 150.0899 -81.6802 L 150.5895 -81.2963 L 151.3081 -80.9374 L 151.7817 -80.8001 L 152.0991 -80.4347 L 152.7209 -79.9524 L 153.4379 -79.5902 L 153.4719 -79.5802 L 153.5478 -79.4471 L 154.0611 -78.8505 L 154.6807 -78.3654 L 155.1055 -78.1484 L 155.3616 -77.6949 L 155.8721 -77.0960 L 156.4895 -76.6081 L 156.6557 -76.5222 L 156.6559 -76.5217 L 157.0476 -75.8204 L 157.5555 -75.2193 L 158.1706 -74.7285 L 158.1840 -74.7215 L 158.2391 -74.5575 L 158.6276 -73.8545 L 159.1327 -73.2510 L 159.6223 -72.8567 L 159.7321 -72.5248 L 160.1174 -71.8200 L 160.6197 -71.2143 L 160.9960 -70.9084 L 161.1493 -70.4378 L 161.5314 -69.7313 L 162.0310 -69.1232 L 162.3145 -68.8906 L 162.5014 -68.3077 L 162.8803 -67.5994 L 163.3771 -66.9891 L 163.5846 -66.8173 L 163.7977 -66.1418 L 164.1734 -65.4318 L 164.6674 -64.8192 L 164.8108 -64.6994 L 165.0437 -63.9495 L 165.4161 -63.2377 L 165.9073 -62.6229 L 166.0019 -62.5432 L 166.0037 -62.5290 L 166.2474 -61.7314 L 166.6166 -61.0180 L 167.1050 -60.4010 L 167.1651 -60.3498 L 167.1723 -60.2930 L 167.4124 -59.4943 L 167.7783 -58.7792 L 168.2639 -58.1599 L 168.2964 -58.1320 L 168.3079 -58.0376 L 168.5444 -57.2378 L 168.9070 -56.5211 L 169.3898 -55.8996 L 169.3977 -55.8927 L 169.4123 -55.7686 L 169.6451 -54.9678 L 170.0045 -54.2494 L 170.4716 -53.6424 L 170.4891 -53.4869 L 170.7183 -52.6850 L 171.0744 -51.9650 L 171.5213 -51.3787 L 171.5414 -51.1931 L 171.7669 -50.3902 L 172.1197 -49.6686 L 172.5494 -49.0996 L 172.5712 -48.8890 L 172.7930 -48.0850 L 173.1426 -47.3618 L 173.5575 -46.8070 L 173.5804 -46.5757 L 173.7986 -45.7707 L 174.1449 -45.0459 L 174.5474 -44.5025 L 174.5709 -44.2542 L 174.7854 -43.4482 L 175.1283 -42.7218 L 175.5206 -42.1874 L 175.5441 -41.9251 L 175.7549 -41.1182 L 176.0946 -40.3903 L 176.4783 -39.8624 L 176.5016 -39.5890 L 176.7087 -38.7812 L 177.0451 -38.0517 L 177.4214 -37.5288 L 177.4442 -37.2473 L 177.6476 -36.4385 L 177.9806 -35.7075 L 178.3506 -35.1886 L 178.3725 -34.9017 L 178.5722 -34.0920 L 178.9019 -33.3595 L 179.2676 -32.8416 L 179.2885 -32.5502 L 179.4845 -31.7396 L 179.8109 -31.0055 L 180.1735 -30.4870 L 180.1932 -30.1926 L 180.3856 -29.3811 L 180.7086 -28.6456 L 181.0679 -28.1268 L 181.0863 -27.8327 L 181.2750 -27.0204 L 181.5946 -26.2834 L 181.9522 -25.7621 L 181.9691 -25.4688 L 182.1541 -24.6556 L 182.4704 -23.9172 L 182.8277 -23.3911 L 182.8433 -23.0989 L 183.0246 -22.2848 L 183.3374 -21.5450 L 183.6930 -21.0164 L 183.7069 -20.7297 L 183.8845 -19.9148 L 184.1940 -19.1735 L 184.5508 -18.6378 L 184.5633 -18.3541 L 184.7372 -17.5384 L 185.0433 -16.7958 L 185.4000 -16.2549 L 185.4110 -15.9781 L 185.5811 -15.1616 L 185.8838 -14.4176 L 186.2424 -13.8684 L 186.2519 -13.5972 L 186.4183 -12.7800 L 186.7176 -12.0345 L 187.0770 -11.4786 L 187.0850 -11.2160 L 187.2476 -10.3980 L 187.5436 -9.6512 L 187.9058 -9.0853 L 187.9124 -8.8297 L 188.0713 -8.0110 L 188.3639 -7.2629 L 188.7272 -6.6896 L 188.7324 -6.4447 L 188.8876 -5.6253 L 189.1767 -4.8758 L 189.5435 -4.2911 L 189.5475 -4.0546 L 189.6989 -3.2345 L 189.9847 -2.4838 L 190.3535 -1.8897 L 190.3562 -1.6648 L 190.5040 -0.8440 L 190.7863 -0.0919 L 191.1583 0.5133 L 191.1599 0.7274 L 191.3039 1.5489 L 191.5828 2.3022 L 191.9587 2.9201 L 191.9593 3.1236 L 192.0995 3.9457 L 192.3750 4.7003 L 192.7591 5.3382 L 192.7588 5.5196 L 192.8953 6.3424 L 193.1673 7.0982 L 193.5639 7.7637 L 193.5630 7.9117 L 193.6958 8.7350 L 193.9643 9.4921 L 194.3641 10.1699 L 194.3739 10.1809 L 194.3726 10.3012 L 194.5016 11.1251 L 194.7667 11.8834 L 195.1634 12.5631 L 195.1903 12.5935 L 195.1889 12.6908 L 195.3141 13.5153 L 195.5758 14.2748 L 195.9693 14.9562 L 196.0117 15.0046 L 196.0103 15.0752 L 196.1318 15.9003 L 196.3900 16.6610 L 196.7805 17.3442 L 196.8407 17.4136 L 196.8396 17.4608 L 196.9573 18.2864 L 197.2121 19.0483 L 197.5994 19.7333 L 197.6754 19.8216 L 197.6749 19.8411 L 197.7889 20.6673 L 198.0401 21.4303 L 198.4243 22.1171 L 198.5193 22.2284 L 198.6285 23.0477 L 198.8763 23.8118 L 199.2573 24.5003 L 199.3742 24.6387 L 199.4752 25.4231 L 199.7194 26.1884 L 200.0974 26.8786 L 200.2377 27.0463 L 200.3310 27.7980 L 200.5718 28.5643 L 200.9465 29.2563 L 201.1091 29.4522 L 201.1944 30.1663 L 201.4317 30.9337 L 201.8033 31.6274 L 201.9905 31.8552 L 202.0686 32.5352 L 202.3024 33.3037 L 202.6708 33.9990 L 202.8812 34.2575 L 202.9518 34.8979 L 203.1821 35.6674 L 203.5474 36.3645 L 203.7822 36.6555 L 203.8456 37.2564 L 204.0724 38.0270 L 204.4345 38.7257 L 204.6948 39.0514 L 204.7514 39.6125 L 204.9747 40.3841 L 205.3336 41.0844 L 205.6189 41.4448 L 205.6688 41.9624 L 205.8886 42.7350 L 206.2443 43.4370 L 206.5555 43.8337 L 206.5988 44.3062 L 206.8151 45.0798 L 207.1676 45.7834 L 207.5062 46.2193 L 207.5435 46.6460 L 207.7562 47.4206 L 208.1055 48.1257 L 208.4721 48.6021 L 208.5033 48.9800 L 208.7125 49.7556 L 209.0586 50.4623 L 209.4538 50.9807 L 209.4793 51.3068 L 209.6849 52.0834 L 210.0278 52.7917 L 210.4528 53.3545 L 210.4727 53.6260 L 210.6748 54.4034 L 211.0145 55.1133 L 211.4707 55.7231 L 211.4854 55.9368 L 211.6839 56.7151 L 212.0203 57.4265 L 212.4889 58.0588 L 212.5085 58.0768 L 212.5189 58.2383 L 212.7139 59.0175 L 213.0471 59.7304 L 213.5127 60.3648 L 213.5684 60.4163 L 213.5752 60.5292 L 213.7666 61.3094 L 214.0966 62.0238 L 214.5593 62.6603 L 214.6531 62.7477 L 214.6564 62.8080 L 214.8443 63.5890 L 215.1709 64.3049 L 215.6308 64.9436 L 215.7653 65.0701 L 215.7655 65.0738 L 215.9498 65.8557 L 216.2732 66.5731 L 216.7301 67.2138 L 216.9223 67.3963 L 217.0869 68.1087 L 217.4070 68.8276 L 217.8610 69.4703 L 218.1151 69.7138 L 218.2572 70.3422 L 218.5741 71.0625 L 219.0251 71.7073 L 219.3479 72.0193 L 219.4668 72.5563 L 219.7803 73.2781 L 220.2284 73.9250 L 220.6250 74.3119 L 220.7188 74.7446 L 221.0290 75.4678 L 221.4742 76.1167 L 221.9544 76.5895 L 222.0215 76.9063 L 222.3285 77.6309 L 222.7707 78.2818 L 223.3405 78.8480 L 223.3425 78.8494 L 223.3804 79.0321 L 223.6840 79.7580 L 224.1232 80.4110 L 224.6905 80.9797 L 224.7915 81.0496 L 224.8046 81.1145 L 225.1049 81.8419 L 225.5412 82.4968 L 226.1059 83.0681 L 226.3419 83.2332 L 226.6020 83.8712 L 227.0352 84.5281 L 227.5973 85.1020 L 228.0144 85.3964 L 228.1895 85.8317 L 228.6198 86.4906 L 229.1792 87.0671 L 229.8106 87.5172 L 229.8834 87.7006 L 230.3107 88.3615 L 230.8675 88.9404 L 231.5444 89.4277 L 231.7614 89.5346 L 232.1296 90.1098 L 232.6838 90.6913 L 233.3584 91.1816 L 233.9735 91.4883 L 234.0998 91.6876 L 234.6513 92.2716 L 235.3237 92.7649 L 236.1055 93.1592 L 236.4876 93.2848 L 236.7907 93.6086 L 237.4608 94.1050 L 238.2408 94.5028 L 239.1172 94.7952 L 239.4570 94.8597 L 239.7805 95.1017 L 240.5587 95.5030 L 241.4337 95.7994 L 242.3908 95.9857 L 243.0146 96.0303 L 243.0272 96.0369 L 243.9009 96.3373 L 244.8571 96.5279 L 245.8795 96.6057 L 246.9504 96.5692 L 247.3836 96.5101 L 247.3844 96.5103 L 248.4064 96.5927 L 249.4775 96.5610 L 250.5794 96.4159 L 251.6933 96.1597 L 252.3654 95.9394 L 253.0463 95.8529 L 254.1613 95.6018 L 255.2698 95.2440 L 256.3527 94.7857 L 257.1430 94.3665 L 257.5889 94.2248 L 258.6738 93.7714 L 259.7151 93.2252 L 260.6949 92.5953 L 261.1574 92.2348 L 261.8562 91.8723 L 262.8389 91.2469 L 263.7436 90.5484 L 264.4636 89.8741 L 264.8111 89.6552 L 265.7190 88.9608 L 266.5337 88.2049 L 267.1594 87.4934 L 267.5431 87.2027 L 268.3613 86.4504 L 269.0726 85.6490 L 269.4214 85.1562 L 270.0609 84.5736 L 270.7759 83.7754 L 271.3720 82.9412 L 271.4596 82.7807 L 271.6542 82.6050 L 272.3728 81.8101 L 272.9728 80.9787 L 273.2642 80.4504 L 273.8793 79.7762 L 274.4830 78.9475 L 274.9578 78.0959 L 274.9757 78.0505 L 275.3096 77.6877 L 275.9171 76.8618 L 276.3958 76.0124 L 276.5047 75.7389 L 276.6746 75.5561 L 277.2858 74.7329 L 277.7684 73.8856 L 277.9581 73.4156 L 277.9835 73.3884 L 278.5985 72.5681 L 279.0849 71.7230 L 279.3708 71.0236 L 279.8604 70.3767 L 280.3507 69.5339 L 280.7042 68.6802 L 280.7148 68.6373 L 281.0798 68.1595 L 281.5740 67.3189 L 281.9313 66.4669 L 281.9755 66.2921 L 282.2602 65.9230 L 282.7581 65.0847 L 283.1194 64.2343 L 283.1954 63.9391 L 283.4072 63.6670 L 283.9090 62.8310 L 284.2741 61.9823 L 284.3799 61.5792 L 284.5227 61.3975 L 285.0283 60.5637 L 285.3973 59.7167 L 285.5316 59.2143 L 285.6103 59.1150 L 286.1197 58.2835 L 286.4925 57.4382 L 286.6543 56.8437 L 286.6731 56.8203 L 287.1862 55.9912 L 287.5629 55.1476 L 287.7581 54.4431 L 288.2300 53.6884 L 288.6105 52.8465 L 288.8414 52.0279 L 289.2529 51.3763 L 289.6372 50.5361 L 289.8787 49.6945 L 289.8851 49.6383 L 290.2566 49.0560 L 290.6448 48.2175 L 290.8901 47.3770 L 290.9049 47.2523 L 291.2428 46.7280 L 291.6348 45.8913 L 291.8839 45.0520 L 291.9073 44.8623 L 292.2129 44.3928 L 292.6087 43.5579 L 292.8617 42.7197 L 292.8938 42.4688 L 293.1678 42.0519 L 293.5674 41.2189 L 293.8242 40.3818 L 293.8651 40.0731 L 294.1081 39.7071 L 294.5115 38.8758 L 294.7721 38.0400 L 294.8222 37.6747 L 295.0358 37.3562 L 295.4430 36.5268 L 295.7073 35.6921 L 295.7668 35.2724 L 295.9519 34.9992 L 296.3628 34.1717 L 296.6310 33.3382 L 296.6999 32.8680 L 296.8560 32.6397 L 297.2707 31.8141 L 297.5426 30.9819 L 297.6212 30.4620 L 297.7495 30.2762 L 298.1680 29.4525 L 298.4437 28.6215 L 298.5324 28.0522 L 298.6340 27.9065 L 299.0562 27.0847 L 299.3358 26.2549 L 299.4341 25.6419 L 299.5077 25.5374 L 299.9336 24.7175 L 300.2170 23.8891 L 300.3259 23.2292 L 300.3738 23.1619 L 300.8035 22.3439 L 301.0906 21.5168 L 301.2097 20.8151 L 301.2308 20.7858 L 301.6642 19.9698 L 301.9550 19.1440 L 302.0856 18.3956 L 302.5178 17.5908 L 302.8125 16.7663 L 302.9569 15.9599 L 303.3634 15.2113 L 303.6617 14.3882 L 303.8126 13.5679 L 303.8126 13.5379 L 304.2029 12.8267 L 304.5050 12.0049 L 304.6595 11.1854 L 304.6599 11.1187 L 305.0346 10.4433 L 305.3405 9.6229 L 305.4987 8.8040 L 305.4998 8.6990 L 305.8611 8.0547 L 306.1707 7.2357 L 306.3327 6.4176 L 306.3347 6.2771 L 306.6809 5.6663 L 306.9943 4.8487 L 307.1600 4.0313 L 307.1634 3.8549 L 307.4953 3.2754 L 307.8124 2.4592 L 307.9818 1.6426 L 308.0008 0.8396 L 307.8689 0.0638 L 307.5885 -0.6715 L 307.1643 -1.3537 L 306.6036 -1.9710 L 305.9160 -2.5131 L 305.1133 -2.9705 L 304.2091 -3.3354 L 303.2190 -3.6017 L 302.1599 -3.7647 L 301.0499 -3.8216 L 299.9080 -3.7716 L 298.7538 -3.6154 L 297.6070 -3.3557 L 296.4872 -2.9970 L 295.4136 -2.5453 L 294.4045 -2.0085 L 293.4773 -1.3957 L 292.6477 -0.7174 L 291.9300 0.0148 L 291.3365 0.7884 L 290.8773 1.5901 L 290.5602 2.4062 L 290.3908 3.2228 L 290.3848 3.4755 L 290.0554 4.0567 L 289.7420 4.8743 L 289.5763 5.6916 L 289.5722 5.9078 L 289.2284 6.5209 L 288.9188 7.3399 L 288.7568 8.1580 L 288.7542 8.3380 L 288.3951 8.9853 L 288.0892 9.8057 L 287.9309 10.6245 L 287.9295 10.7656 L 287.5569 11.4446 L 287.2547 12.2663 L 287.1002 13.0859 L 287.0996 13.1896 L 286.7112 13.9050 L 286.4129 14.7282 L 286.2621 15.5484 L 286.2620 15.6117 L 285.8599 16.3603 L 285.5653 17.1848 L 285.4182 18.0058 L 285.4183 18.0293 L 285.0008 18.8153 L 284.7100 19.6411 L 284.5708 20.4389 L 284.5647 20.4475 L 284.1350 21.2654 L 283.8480 22.0925 L 283.7197 22.8477 L 283.6864 22.8950 L 283.2605 23.7149 L 282.9771 24.5433 L 282.8603 25.2509 L 282.8009 25.3362 L 282.3786 26.1580 L 282.0991 26.9877 L 281.9927 27.6508 L 281.9048 27.7781 L 281.4863 28.6018 L 281.2106 29.4328 L 281.1151 30.0456 L 281.0001 30.2138 L 280.5854 31.0395 L 280.3134 31.8717 L 280.2284 32.4339 L 280.0851 32.6456 L 279.6742 33.4730 L 279.4060 34.3065 L 279.3312 34.8172 L 279.1585 35.0749 L 278.7513 35.9042 L 278.4869 36.7389 L 278.4223 37.1942 L 278.2206 37.4981 L 277.8172 38.3293 L 277.5566 39.1652 L 277.5020 39.5630 L 277.2704 39.9154 L 276.8708 40.7484 L 276.6140 41.5855 L 276.5691 41.9244 L 276.3059 42.3287 L 275.9101 43.1636 L 275.6572 44.0018 L 275.6218 44.2782 L 275.3266 44.7364 L 274.9346 45.5730 L 274.6854 46.4124 L 274.6595 46.6227 L 274.3314 47.1369 L 273.9433 47.9753 L 273.6980 48.8158 L 273.6813 48.9565 L 273.3191 49.5299 L 272.9348 50.3700 L 272.6933 51.2116 L 272.6857 51.2785 L 272.2880 51.9145 L 271.9075 52.7565 L 271.6748 53.5816 L 271.2363 54.2900 L 270.8596 55.1337 L 270.6659 55.8329 L 270.1622 56.6550 L 269.7894 57.5004 L 269.6255 58.1024 L 269.5691 58.1742 L 269.0635 59.0079 L 268.6945 59.8550 L 268.5607 60.3557 L 268.4391 60.5120 L 267.9373 61.3480 L 267.5722 62.1967 L 267.4697 62.5874 L 267.2778 62.8361 L 266.7799 63.6744 L 266.4186 64.5248 L 266.3496 64.7926 L 266.0836 65.1409 L 265.5894 65.9815 L 265.2321 66.8335 L 265.1984 66.9668 L 264.8505 67.4265 L 264.3602 68.2693 L 264.0180 69.0957 L 263.5753 69.6863 L 263.0889 70.5313 L 262.8541 71.1055 L 262.2497 71.9196 L 261.7671 72.7668 L 261.6178 73.1368 L 261.4758 73.2911 L 260.8683 74.1170 L 260.3896 74.9664 L 260.3351 75.1033 L 260.0255 75.4426 L 259.4218 76.2713 L 259.0608 76.9188 L 258.4995 77.5397 L 257.8996 78.3711 L 257.7616 78.6212 L 257.5982 78.7700 L 256.8832 79.5682 L 256.4540 80.1689 L 255.8723 80.7037 L 255.1609 81.5052 L 255.1556 81.5127 L 254.8334 81.7591 L 254.0220 82.5120 L 253.7300 82.6979 L 253.2086 83.1004 L 252.7600 83.3358 L 252.6822 83.3460 L 252.5855 83.3267 L 251.9862 83.2812 L 251.8912 83.2322 L 251.0161 82.9358 L 250.6957 82.8734 L 250.2972 82.5782 L 249.5173 82.1804 L 249.1400 82.0546 L 248.7799 81.6732 L 248.1075 81.1798 L 247.4802 80.8635 L 247.3181 80.6102 L 246.7639 80.0287 L 246.0892 79.5384 L 245.8658 79.4270 L 245.4557 78.7927 L 244.8989 78.2137 L 244.2441 77.7424 L 244.1513 77.5119 L 243.7211 76.8530 L 243.1616 76.2766 L 242.7237 75.9644 L 242.5257 75.4786 L 242.0924 74.8217 L 241.5304 74.2478 L 241.2757 74.0680 L 240.9903 73.3769 L 240.5540 72.7219 L 239.9893 72.1506 L 239.8574 72.0584 L 239.8343 71.9468 L 239.5306 71.2208 L 239.0914 70.5678 L 238.5241 69.9991 L 238.4918 69.9767 L 238.4430 69.7461 L 238.1360 69.0215 L 237.6938 68.3706 L 237.1843 67.8644 L 237.1075 67.5097 L 236.7972 66.7865 L 236.3520 66.1376 L 235.9269 65.7190 L 235.8223 65.2468 L 235.5088 64.5251 L 235.0606 63.8782 L 234.7100 63.5361 L 234.5793 62.9582 L 234.2625 62.2379 L 233.8114 61.5930 L 233.5300 61.3210 L 233.3751 60.6505 L 233.0550 59.9316 L 232.6010 59.2888 L 232.3821 59.0791 L 232.2039 58.3233 L 231.8805 57.6059 L 231.4236 56.9652 L 231.2540 56.8043 L 231.2518 56.7637 L 231.0639 55.9827 L 230.7373 55.2667 L 230.2774 54.6281 L 230.1487 54.5071 L 230.1429 54.4093 L 229.9515 53.6292 L 229.6215 52.9148 L 229.1588 52.2783 L 229.0683 52.1939 L 229.0586 52.0430 L 228.8635 51.2637 L 228.5304 50.5508 L 228.0648 49.9164 L 228.0104 49.8662 L 227.9966 49.6662 L 227.7981 48.8878 L 227.4617 48.1764 L 226.9932 47.5441 L 226.9733 47.5260 L 226.9553 47.2802 L 226.7532 46.5028 L 226.4135 45.7929 L 225.9557 45.1809 L 225.9327 44.8860 L 225.7271 44.1095 L 225.3842 43.4012 L 224.9563 42.8346 L 224.9273 42.4843 L 224.7182 41.7087 L 224.3721 41.0020 L 223.9728 40.4784 L 223.9377 40.0755 L 223.7250 39.3009 L 223.3757 38.5958 L 223.0045 38.1135 L 222.9630 37.6611 L 222.7467 36.8875 L 222.3942 36.1839 L 222.0506 35.7416 L 222.0025 35.2428 L 221.7828 34.4702 L 221.4270 33.7682 L 221.1093 33.3631 L 221.0543 32.8186 L 220.8311 32.0469 L 220.4722 31.3466 L 220.1796 30.9770 L 220.1174 30.3883 L 219.8906 29.6177 L 219.5285 28.9190 L 219.2615 28.5849 L 219.1922 27.9557 L 218.9619 27.1861 L 218.5966 26.4891 L 218.3540 26.1883 L 218.2771 25.5191 L 218.0433 24.7506 L 217.6749 24.0552 L 217.4555 23.7858 L 217.3708 23.0764 L 217.1335 22.3090 L 216.7619 21.6153 L 216.5672 21.3784 L 216.4749 20.6345 L 216.2341 19.8681 L 215.8593 19.1761 L 215.6869 18.9683 L 215.5863 18.1862 L 215.3420 17.4209 L 214.9641 16.7307 L 214.8152 16.5528 L 214.7065 15.7374 L 214.4587 14.9733 L 214.0777 14.2848 L 213.9468 14.1299 L 213.9473 14.1100 L 213.8334 13.2838 L 213.5821 12.5208 L 213.1979 11.8341 L 213.0847 11.7013 L 213.0858 11.6555 L 212.9681 10.8299 L 212.7133 10.0681 L 212.3260 9.3831 L 212.2285 9.2697 L 212.2299 9.1960 L 212.1084 8.3710 L 211.8502 7.6103 L 211.4598 6.9270 L 211.3800 6.8352 L 211.3815 6.7377 L 211.2562 5.9132 L 210.9946 5.1537 L 210.6010 4.4723 L 210.5366 4.3988 L 210.5379 4.2744 L 210.4089 3.4505 L 210.1438 2.6922 L 209.7471 2.0125 L 209.6998 1.9590 L 209.7007 1.8113 L 209.5679 0.9880 L 209.2994 0.2309 L 208.8996 -0.4469 L 208.8683 -0.4820 L 208.8686 -0.6542 L 208.7321 -1.4769 L 208.4601 -2.2327 L 208.0572 -2.9088 L 208.0413 -2.9264 L 208.0407 -3.1236 L 207.9005 -3.9457 L 207.6250 -4.7003 L 207.2191 -5.3744 L 207.2143 -5.3797 L 207.2127 -5.5929 L 207.0687 -6.4144 L 206.7898 -7.1677 L 206.3828 -7.8368 L 206.3801 -8.0582 L 206.2323 -8.8790 L 205.9500 -9.6310 L 205.5459 -10.2886 L 205.5420 -10.5210 L 205.3905 -11.3411 L 205.1048 -12.0918 L 204.7025 -12.7398 L 204.6973 -12.9838 L 204.5421 -13.8033 L 204.2529 -14.5527 L 203.8539 -15.1889 L 203.8474 -15.4415 L 203.6884 -16.2602 L 203.3959 -17.0084 L 202.9977 -17.6369 L 202.9896 -17.9003 L 202.8270 -18.7183 L 202.5310 -19.4651 L 202.1354 -20.0833 L 202.1259 -20.3539 L 201.9595 -21.1711 L 201.6602 -21.9166 L 201.2651 -22.5277 L 201.2541 -22.8071 L 201.0839 -23.6235 L 200.7812 -24.3675 L 200.3878 -24.9701 L 200.3752 -25.2552 L 200.2013 -26.0709 L 199.8952 -26.8135 L 199.5014 -27.4108 L 199.4872 -27.7027 L 199.3096 -28.5176 L 199.0001 -29.2589 L 198.6073 -29.8487 L 198.5916 -30.1438 L 198.4103 -30.9578 L 198.0974 -31.6977 L 197.7025 -32.2848 L 197.6852 -32.5854 L 197.5002 -33.3986 L 197.1839 -34.1370 L 196.7886 -34.7192 L 196.7697 -35.0208 L 196.5811 -35.8332 L 196.2614 -36.5702 L 195.8640 -37.1496 L 195.8438 -37.4521 L 195.6514 -38.2636 L 195.3284 -38.9991 L 194.9274 -39.5780 L 194.9058 -39.8809 L 194.7097 -40.6915 L 194.3834 -41.4255 L 193.9790 -42.0037 L 193.9562 -42.3035 L 193.7564 -43.1132 L 193.4268 -43.8457 L 193.0178 -44.4248 L 192.9940 -44.7200 L 192.7906 -45.5288 L 192.4576 -46.2598 L 192.0420 -46.8427 L 192.0172 -47.1325 L 191.8101 -47.9403 L 191.4738 -48.6698 L 191.0505 -49.2577 L 191.0252 -49.5392 L 190.8144 -50.3461 L 190.4748 -51.0741 L 190.0427 -51.6685 L 190.0172 -51.9387 L 189.8027 -52.7446 L 189.4597 -53.4710 L 189.0169 -54.0744 L 188.9915 -54.3305 L 188.7734 -55.1355 L 188.4271 -55.8603 L 187.9715 -56.4752 L 187.9468 -56.7140 L 187.7250 -57.5179 L 187.3754 -58.2411 L 186.9047 -58.8704 L 186.8812 -59.0881 L 186.6557 -59.8910 L 186.3028 -60.6126 L 185.8286 -61.2407 L 185.8153 -61.2526 L 185.7928 -61.4517 L 185.5636 -62.2536 L 185.2075 -62.9736 L 184.7304 -63.5994 L 184.7003 -63.6260 L 184.6795 -63.8030 L 184.4467 -64.6039 L 184.0873 -65.3223 L 183.6074 -65.9459 L 183.5568 -65.9902 L 183.5384 -66.1414 L 183.3019 -66.9412 L 182.9392 -67.6580 L 182.4565 -68.2794 L 182.3811 -68.3449 L 182.3657 -68.4662 L 182.1256 -69.2648 L 181.7597 -69.9799 L 181.2741 -70.5992 L 181.1706 -70.6881 L 181.1597 -70.7714 L 180.9160 -71.5689 L 180.5468 -72.2823 L 180.0584 -72.8994 L 179.9200 -73.0172 L 179.9146 -73.0572 L 179.6673 -73.8537 L 179.2948 -74.5654 L 178.8036 -75.1802 L 178.6219 -75.3335 L 178.3760 -76.1125 L 178.0003 -76.8226 L 177.5064 -77.4351 L 177.2596 -77.6414 L 177.0341 -78.3448 L 176.6552 -79.0531 L 176.1584 -79.6634 L 175.8345 -79.9316 L 175.6361 -80.5410 L 175.2540 -81.2476 L 174.7544 -81.8556 L 174.3366 -82.1984 L 174.1727 -82.6939 L 173.7874 -83.3987 L 173.2851 -84.0045 L 172.7524 -84.4374 L 172.6333 -84.7923 L 172.2447 -85.4953 L 171.7396 -86.0988 L 171.1267 -86.5923 L 171.0716 -86.6215 L 171.0033 -86.8219 L 170.6115 -87.5232 L 170.1037 -88.1244 L 169.4885 -88.6151 L 169.2792 -88.7245 L 169.2669 -88.7598 L 168.8720 -89.4593 L 168.3614 -90.0582 L 167.7441 -90.5461 L 167.2835 -90.7840 L 167.0045 -91.2729 L 166.4912 -91.8694 L 165.8716 -92.3546 L 165.1563 -92.7200 L 165.0867 -92.7409 L 164.9857 -92.9159 L 164.4698 -93.5101 L 163.8480 -93.9924 L 163.1309 -94.3546 L 162.6321 -94.5017 L 162.2765 -94.9074 L 161.6525 -95.3869 L 160.9338 -95.7458 L 160.1328 -95.9780 L 159.8327 -96.0131 L 159.2744 -96.4380 L 158.5542 -96.7936 L 157.7521 -97.0222 L 156.8820 -97.1198 L 156.5710 -97.1080 L 156.0238 -97.3751 L 155.2208 -97.6000 L 154.3502 -97.6936 L 153.4271 -97.6544 L 152.8624 -97.5535 L 152.6284 -97.6179 L 151.7575 -97.7076 L 150.8346 -97.6641 L 149.8755 -97.4883 L 148.8967 -97.1831 L 148.7969 -97.1394 L 148.3029 -97.1139 L 147.3447 -96.9337 L 146.3673 -96.6241 L 145.3874 -96.1902 L 144.8185 -95.8659 L 143.9883 -95.5987 L 143.0104 -95.1604 L 142.0475 -94.6054 L 141.1158 -93.9433 L 141.0658 -93.9005 L 140.8160 -93.7871 L 139.8555 -93.2278 L 138.9269 -92.5614 L 138.0460 -91.7995 L 137.8914 -91.6399 L 137.8353 -91.6069 L 136.9097 -90.9363 L 136.0323 -90.1703 L 135.2180 -89.3220 L 135.1124 -89.1907 L 135.0437 -89.1405 L 134.1698 -88.3705 L 133.3594 -87.5185 L 132.6790 -86.6651 L 132.4352 -86.4483 L 131.6287 -85.5926 L 130.8999 -84.6698 L 130.6008 -84.2137 L 130.0043 -83.5749 L 129.2797 -82.6489 L 128.6586 -81.6921 L 128.4703 -81.4886 L 127.7500 -80.5592 L 127.1203 -79.5794 L 126.9723 -79.2955 L 126.2963 -78.4151 L 125.6711 -77.4324 L 125.3490 -76.8075 L 124.9079 -76.2277 L 124.2872 -75.2422 L 123.8249 -74.3352 L 123.5756 -74.0044 L 122.9594 -73.0160 L 122.4450 -71.9953 L 122.4135 -71.9145 L 122.2940 -71.7544 L 121.6823 -70.7632 L 121.1725 -69.7402 L 121.0904 -69.5268 L 121.0548 -69.4786 L 120.4476 -68.4847 L 119.9425 -67.4594 L 119.8096 -67.1089 L 119.2520 -66.1868 L 118.7516 -65.1592 L 118.5682 -64.6690 L 118.0897 -63.8695 L 117.5940 -62.8396 L 117.3700 -62.2326 L 116.9589 -61.5386 L 116.4679 -60.5064 L 116.2110 -59.8005 L 115.8559 -59.1947 L 115.3696 -58.1603 L 115.0863 -57.3705 L 114.7778 -56.8386 L 114.2962 -55.8021 L 113.9921 -54.9419 L 113.7224 -54.4721 L 113.2456 -53.4333 L 112.9254 -52.5145 L 112.6879 -52.0963 L 112.2158 -51.0554 L 111.8836 -50.0880 L 111.6724 -49.7121 L 111.2050 -48.6691 L 110.8644 -47.6620 L 110.6744 -47.3204 L 110.2118 -46.2752 L 109.8656 -45.2361 L 109.6925 -44.9214 L 109.2347 -43.8741 L 108.8882 -42.8181 L 108.8871 -42.8131 L 108.7258 -42.5167 L 108.2727 -41.4674 L 107.9310 -40.4098 L 107.9277 -40.3943 L 107.7737 -40.1081 L 107.3254 -39.0567 L 106.9885 -37.9975 L 106.9836 -37.9743 L 106.8341 -37.6934 L 106.3906 -36.6399 L 106.0585 -35.5793 L 106.0528 -35.5513 L 105.9060 -35.2725 L 105.4673 -34.2171 L 105.1401 -33.1549 L 105.1345 -33.1268 L 104.9900 -32.8493 L 104.5561 -31.7918 L 104.2337 -30.7282 L 104.2286 -30.7018 L 104.0844 -30.4219 L 103.6554 -29.3625 L 103.3378 -28.2974 L 103.3334 -28.2743 L 103.1878 -27.9883 L 102.7636 -26.9270 L 102.4509 -25.8605 L 102.4482 -25.8458 L 102.3020 -25.5554 L 101.8827 -24.4922 L 101.5749 -23.4242 L 101.5735 -23.4169 L 101.4238 -23.1161 L 101.0093 -22.0509 L 100.7082 -20.9882 L 100.5546 -20.6761 L 100.1450 -19.6091 L 99.8536 -18.5626 L 99.6925 -18.2313 L 99.2877 -17.1624 L 99.0074 -16.1374 L 98.8384 -15.7860 L 98.4385 -14.7153 L 98.1688 -13.7111 L 97.9903 -13.3355 L 97.5953 -12.2630 L 97.3375 -11.2856 L 97.1499 -10.8862 L 96.7598 -9.8119 L 96.5133 -8.8595 L 96.3148 -8.4318 L 95.9295 -7.3557 L 95.6952 -6.4333 L 95.4862 -5.9775 L 95.1058 -4.8997 L 94.8836 -4.0075 L 94.6630 -3.5207 L 94.2876 -2.4412 L 94.0772 -1.5800 L 93.8444 -1.0600 L 93.4739 0.0213 L 93.2825 0.8206 L 93.0260 1.4008 L 92.6604 2.4837 L 92.4945 3.1905 L 92.2032 3.8577 L 91.8425 4.9422 L 91.7016 5.5555 L 91.3753 6.3121 L 91.0196 7.3983 L 90.9028 7.9171 L 90.5410 8.7667 L 90.1902 9.8545 L 90.0976 10.2748 L 89.7018 11.2162 L 89.3560 12.3056 L 89.2866 12.6274 L 88.8551 13.6669 L 88.5143 14.7578 L 88.4638 14.9970 L 88.4444 15.0347 L 88.0027 16.1124 L 87.6668 17.2049 L 87.6318 17.3750 L 87.5792 17.4779 L 87.1424 18.5576 L 86.8115 19.6516 L 86.7921 19.7485 L 86.7073 19.9162 L 86.2754 20.9979 L 85.9495 22.0934 L 85.9449 22.1172 L 85.8265 22.3540 L 85.3996 23.4377 L 85.1024 24.4536 L 84.9385 24.7855 L 84.5165 25.8711 L 84.2572 26.7726 L 84.0399 27.2176 L 83.6229 28.3051 L 83.4026 29.0843 L 83.1326 29.6436 L 82.7205 30.7331 L 82.5389 31.3868 L 82.2150 32.0656 L 81.8079 33.1569 L 81.6648 33.6813 L 81.2857 34.4853 L 80.8835 35.5784 L 80.7795 35.9666 L 80.3451 36.8988 L 79.9479 37.9938 L 79.8830 38.2404 L 79.3921 39.3064 L 79.0000 40.4031 L 78.9616 40.5518 L 78.9119 40.6398 L 78.4249 41.7101 L 78.0377 42.8086 L 78.0261 42.8543 L 77.9248 43.0356 L 77.4427 44.1081 L 77.0929 45.1151 L 76.9219 45.4243 L 76.4447 46.4990 L 76.1576 47.3379 L 75.9017 47.8055 L 75.4294 48.8823 L 75.2067 49.5429 L 74.8627 50.1784 L 74.3953 51.2574 L 74.2391 51.7279 L 73.8031 52.5422 L 73.3406 53.6233 L 73.2533 53.8904 L 72.7210 54.8955 L 72.2635 55.9787 L 72.2279 56.0891 L 72.1598 56.1952 L 71.6143 57.2368 L 71.1892 58.2560 L 71.0208 58.5211 L 70.4800 59.5652 L 70.1612 60.3395 L 69.8504 60.8336 L 69.3144 61.8801 L 69.1099 62.3833 L 68.6470 63.1266 L 68.1158 64.1756 L 68.0293 64.3912 L 68.0160 64.4090 L 67.4048 65.4005 L 66.8804 66.4477 L 66.7270 66.6544 L 66.1203 67.6487 L 65.7748 68.3466 L 65.3875 68.8734 L 64.7854 69.8704 L 64.6407 70.1661 L 63.9922 71.0566 L 63.4099 72.0308 L 63.2004 72.2697 L 62.5317 73.1966 L 62.2494 73.6739 L 61.6599 74.3523 L 60.9954 75.2824 L 60.9779 75.3124 L 60.7543 75.5243 L 60.0291 76.3665 L 59.7946 76.6979 L 59.7880 76.7030 L 59.0135 77.4436 L 58.4998 78.0457 L 57.9160 78.4966 L 57.1939 79.1935 L 56.7016 79.4894 L 55.9003 80.1142 L 55.3375 80.3598 L 54.6298 80.7896 L 53.8003 81.0160 L 53.2146 81.2748 L 52.9388 81.2539 L 52.1094 81.3413 L 51.7024 81.4544 L 51.1432 81.3037 L 50.3420 81.2464 L 50.0680 81.2765 L 49.3682 80.9343 L 48.6075 80.7330 L 48.3313 80.7145 L 47.6924 80.2366 L 46.9839 79.8941 L 46.5651 79.7853 L 46.1374 79.3282 L 45.4920 78.8501 L 44.8429 78.5400 L 44.6834 78.3022 L 44.1108 77.6958 L 43.4632 77.2205 L 43.2245 77.1078 L 42.8105 76.4967 L 42.2352 75.8930 L 41.6419 75.4617 L 41.5597 75.2918 L 41.0654 74.5691 L 40.4874 73.9680 L 40.1445 73.7211 L 39.9240 73.2704 L 39.4264 72.5499 L 38.8456 71.9514 L 38.7133 71.8571 L 38.3786 71.1805 L 37.8777 70.4623 L 37.3396 69.9129 L 37.3224 69.8625 L 36.9089 69.0363 L 36.4048 68.3204 L 36.0063 67.9172 L 35.9216 67.6734 L 35.5044 66.8490 L 34.9970 66.1355 L 34.7213 65.8590 L 34.5767 65.4485 L 34.1557 64.6260 L 33.6451 63.9148 L 33.4801 63.7509 L 33.2821 63.1971 L 32.8575 62.3766 L 32.3436 61.6677 L 32.2773 61.6024 L 32.0299 60.9201 L 31.6014 60.1015 L 31.1158 59.4379 L 30.8164 58.6240 L 30.3843 57.8074 L 29.9887 57.2721 L 29.9767 57.2221 L 29.6360 56.3085 L 29.2001 55.4939 L 28.8714 55.0532 L 28.8317 54.8916 L 28.4868 53.9796 L 28.0473 53.1669 L 27.7805 52.8127 L 27.7143 52.5483 L 27.3653 51.6379 L 26.9220 50.8273 L 26.7132 50.5527 L 26.6215 50.1930 L 26.2683 49.2842 L 25.8214 48.4756 L 25.6676 48.2753 L 25.5512 47.8273 L 25.1939 46.9201 L 24.7432 46.1136 L 24.6418 45.9827 L 24.5015 45.4526 L 24.1400 44.5470 L 23.6857 43.7425 L 23.6343 43.6768 L 23.4706 43.0696 L 23.1050 42.1657 L 22.6470 41.3632 L 22.6436 41.3589 L 22.4570 40.6791 L 22.0873 39.7769 L 21.6794 39.0697 L 21.4592 38.2816 L 21.0853 37.3810 L 20.7304 36.7721 L 20.4763 35.8785 L 20.0984 34.9796 L 19.7937 34.4624 L 19.7927 34.4564 L 19.5077 33.4715 L 19.1257 32.5744 L 18.8546 32.1188 L 18.8409 32.0422 L 18.5515 31.0587 L 18.1654 30.1633 L 17.9269 29.7666 L 17.9005 29.6221 L 17.6066 28.6398 L 17.2164 27.7462 L 17.0108 27.4078 L 16.9718 27.1996 L 16.6734 26.2187 L 16.2792 25.3269 L 16.1053 25.0436 L 16.0533 24.7731 L 15.7505 23.7936 L 15.3522 22.9036 L 15.2090 22.6726 L 15.1436 22.3405 L 14.8363 21.3624 L 14.4339 20.4742 L 14.3226 20.2964 L 14.2444 19.9088 L 13.9326 18.9320 L 13.5263 18.0457 L 13.4445 17.9165 L 13.3525 17.4706 L 13.0363 16.4953 L 12.6259 15.6109 L 12.5748 15.5309 L 12.4694 15.0321 L 12.1488 14.0582 L 11.7344 13.1756 L 11.7126 13.1419 L 11.5931 12.5887 L 11.2681 11.6163 L 10.8597 10.7568 L 10.7247 10.1450 L 10.3952 9.1741 L 10.0185 8.3905 L 9.8619 7.6962 L 9.5280 6.7269 L 9.1843 6.0202 L 9.0067 5.2488 L 8.6683 4.2809 L 8.3562 3.6466 L 8.1564 2.7963 L 7.8136 1.8300 L 7.5342 1.2685 L 7.3124 0.3440 L 6.9653 -0.6207 L 6.7180 -1.1120 L 6.4737 -2.1106 L 6.1221 -3.0737 L 5.9020 -3.5061 L 5.8986 -3.5293 L 5.6392 -4.5690 L 5.2833 -5.5306 L 4.8370 -6.3974 L 4.3079 -7.1549 L 3.7051 -7.7899 L 3.0389 -8.2916 L 2.3207 -8.6514 L 1.5628 -8.8633 L 0.7782 -8.9234 L -0.0197 -8.8309 L -0.8173 -8.5873 L -1.6010 -8.1968 L -2.3572 -7.6660 L -3.0731 -7.0040 L -3.7364 -6.2222 L -4.3358 -5.3339 L -4.8610 -4.3544 L -5.3030 -3.3004 L -5.6543 -2.1899 L -5.9088 -1.0419 L -6.0623 0.1239 L -6.1120 1.2876 Z"/>
  <g id="debug">
  <path fill="none" stroke="#ff3366" stroke-opacity="0.6" stroke-width="0.5" d=""/>
  <path fill="none" stroke="#ff9900" stroke-opacity="0.6" stroke-width="0.6" d="M 0 0 L 5.5317 16.5951 M 0.8137 2.4327 L 6.3799 19.0162 M 1.6318 4.8615 L 7.2344 21.4328 M 2.4553 7.2878 L 8.0962 23.8461 M 3.2852 9.7143 L 8.9665 26.2587 M 4.1201 12.1356 L 9.8442 28.6653 M 4.9627 14.5582 L 10.7319 31.0722 M 5.8111 16.9756 L 11.6281 33.4728 M 6.6675 19.3926 L 12.5351 35.8718 M 7.5307 21.8047 L 13.4521 38.2647 M 8.4029 24.2162 L 14.3813 40.6556 M 9.2826 26.6213 L 15.3216 43.0386 M 10.1729 29.0271 L 16.2765 45.4205 M 11.0720 31.4268 L 17.2445 47.7943 M 11.9815 33.8224 L 18.2276 50.1619 M 12.9029 36.2155 L 19.2279 52.5247 M 13.8357 38.6026 L 20.2451 54.8788 M 14.7809 40.9836 L 21.2812 57.2238 M 15.7406 43.3608 L 22.3387 59.5614 M 16.7153 45.7322 L 23.4191 61.8894 M 17.7060 48.0964 L 24.5241 64.2057 M 18.7140 50.4531 L 25.6564 66.5092 M 19.7410 52.8015 L 26.8187 68.7984 M 20.7887 55.1406 L 28.0143 71.0713 M 21.8590 57.4693 L 29.2469 73.3254 M 22.9541 59.7858 L 30.5207 75.5574 M 24.0769 62.0895 L 31.8413 77.7646 M 25.2310 64.3796 L 33.2158 79.9436 M 26.4183 66.6502 L 34.6493 82.0854 M 27.6445 68.9016 L 36.1530 84.1856 M 28.9131 71.1272 L 37.7358 86.2320 M 30.2322 73.3262 L 39.4143 88.2154 M 31.6073 75.4894 L 41.2030 90.1154 M 33.0476 77.6094 L 43.1240 91.9084 M 34.5638 79.6749 L 45.2040 93.5595 M 36.1704 81.6718 L 47.4778 95.0187 M 37.8832 83.5771 L 49.9849 96.2082 M 39.7238 85.3600 L 52.7721 97.0107 M 41.7156 86.9724 L 55.8744 97.2448 M 43.8790 88.3416 L 59.2731 96.6492 M 46.2249 89.3676 L 62.8141 94.9170 M 48.7213 89.9273 L 66.1023 91.9021 M 51.2787 89.9273 L 68.6596 87.9526 M 53.7751 89.3676 L 70.3643 83.8182 M 56.1210 88.3416 L 71.5151 80.0340 M 58.2844 86.9724 L 72.4433 76.6999 M 60.2762 85.3600 L 73.3244 73.7093 M 62.1168 83.5771 L 74.2185 70.9460 M 63.8296 81.6718 L 75.1369 68.3249 M 65.4362 79.6749 L 76.0763 65.7903 M 66.9524 77.6094 L 77.0288 63.3104 M 68.3927 75.4894 L 77.9884 60.8635 M 69.7678 73.3262 L 78.9498 58.4371 M 71.0869 71.1272 L 79.9096 56.0223 M 72.3555 68.9016 L 80.8639 53.6175 M 73.5817 66.6502 L 81.8127 51.2150 M 74.7690 64.3796 L 82.7538 48.8155 M 75.9231 62.0895 L 83.6876 46.4144 M 77.0459 59.7858 L 84.6125 44.0143 M 78.1410 57.4693 L 85.5288 41.6132 M 79.2113 55.1406 L 86.4368 39.2099 M 80.2590 52.8015 L 87.3367 36.8045 M 81.2860 50.4531 L 88.2284 34.3970 M 82.2940 48.0964 L 89.1122 31.9872 M 83.2847 45.7322 L 89.9885 29.5750 M 84.2594 43.3608 L 90.8575 27.1601 M 85.2191 40.9836 L 91.7193 24.7435 M 86.1643 38.6026 L 92.5738 22.3264 M 87.0971 36.2155 L 93.4221 19.9063 M 88.0185 33.8224 L 94.2646 17.4828 M 88.9280 31.4268 L 95.1005 15.0593 M 89.8271 29.0271 L 95.9308 12.6338 M 90.7174 26.6213 L 96.7564 10.2041 M 91.5971 24.2162 L 97.5754 7.7768 M 92.4693 21.8047 L 98.3906 5.3446 M 93.3325 19.3926 L 99.2002 2.9133 M 94.1889 16.9756 L 100.0059 0.4783 M 95.0373 14.5582 L 100.8065 -1.9558 M 95.8799 12.1356 L 101.6039 -4.3941 M 96.7148 9.7143 L 102.3962 -6.8302 M 97.5447 7.2878 L 103.1856 -9.2705 M 98.3682 4.8615 L 103.9707 -11.7098 M 99.1863 2.4327 L 104.7525 -14.1508 M 100.0000 0 L 105.5317 -16.5951 M 100.8137 -2.4327 L 106.3799 -19.0162 M 101.6318 -4.8615 L 107.2344 -21.4328 M 102.4553 -7.2878 L 108.0962 -23.8461 M 103.2852 -9.7143 L 108.9665 -26.2587 M 104.1201 -12.1356 L 109.8442 -28.6653 M 104.9627 -14.5582 L 110.7319 -31.0722 M 105.8111 -16.9756 L 111.6281 -33.4728 M 106.6675 -19.3926 L 112.5351 -35.8718 M 107.5307 -21.8047 L 113.4521 -38.2647 M 108.4029 -24.2162 L 114.3813 -40.6556 M 109.2826 -26.6213 L 115.3216 -43.0386 M 110.1729 -29.0271 L 116.2765 -45.4205 M 111.0720 -31.4268 L 117.2445 -47.7943 M 111.9815 -33.8224 L 118.2276 -50.1619 M 112.9029 -36.2155 L 119.2279 -52.5247 M 113.8357 -38.6026 L 120.2451 -54.8788 M 114.7809 -40.9836 L 121.2812 -57.2238 M 115.7406 -43.3608 L 122.3387 -59.5614 M 116.7153 -45.7322 L 123.4191 -61.8894 M 117.7060 -48.0964 L 124.5241 -64.2057 M 118.7140 -50.4531 L 125.6564 -66.5092 M 119.7410 -52.8015 L 126.8187 -68.7984 M 120.7887 -55.1406 L 128.0143 -71.0713 M 121.8590 -57.4693 L 129.2469 -73.3254 M 122.9541 -59.7858 L 130.5207 -75.5574 M 124.0769 -62.0895 L 131.8413 -77.7646 M 125.2310 -64.3796 L 133.2158 -79.9436 M 126.4183 -66.6502 L 134.6493 -82.0854 M 127.6445 -68.9016 L 136.1530 -84.1856 M 128.9131 -71.1272 L 137.7358 -86.2320 M 130.2322 -73.3262 L 139.4143 -88.2154 M 131.6073 -75.4894 L 141.2030 -90.1154 M 133.0476 -77.6094 L 143.1240 -91.9084 M 134.5638 -79.6749 L 145.2040 -93.5595 M 136.1704 -81.6718 L 147.4778 -95.0187 M 137.8832 -83.5771 L 149.9849 -96.2082 M 139.7238 -85.3600 L 152.7721 -97.0107 M 141.7156 -86.9724 L 155.8744 -97.2448 M 143.8790 -88.3416 L 159.2731 -96.6492 M 146.2249 -89.3676 L 162.8141 -94.9170 M 148.7213 -89.9273 L 166.1023 -91.9021 M 151.2787 -89.9273 L 168.6596 -87.9526 M 153.7751 -89.3676 L 170.3643 -83.8182 M 156.1210 -88.3416 L 171.5151 -80.0340 M 158.2844 -86.9724 L 172.4433 -76.6999 M 160.2762 -85.3600 L 173.3244 -73.7093 M 162.1168 -83.5771 L 174.2185 -70.9460 M 163.8296 -81.6718 L 175.1369 -68.3249 M 165.4362 -79.6749 L 176.0763 -65.7903 M 166.9524 -77.6094 L 177.0288 -63.3104 M 168.3927 -75.4894 L 177.9884 -60.8635 M 169.7678 -73.3262 L 178.9498 -58.4371 M 171.0869 -71.1272 L 179.9096 -56.0223 M 172.3555 -68.9016 L 180.8639 -53.6175 M 173.5817 -66.6502 L 181.8127 -51.2150 M 174.7690 -64.3796 L 182.7538 -48.8155 M 175.9231 -62.0895 L 183.6876 -46.4144 M 177.0459 -59.7858 L 184.6125 -44.0143 M 178.1410 -57.4693 L 185.5288 -41.6132 M 179.2113 -55.1406 L 186.4368 -39.2099 M 180.2590 -52.8015 L 187.3367 -36.8045 M 181.2860 -50.4531 L 188.2284 -34.3970 M 182.2940 -48.0964 L 189.1122 -31.9872 M 183.2847 -45.7322 L 189.9885 -29.5750 M 184.2594 -43.3608 L 190.8575 -27.1601 M 185.2191 -40.9836 L 191.7193 -24.7435 M 186.1643 -38.6026 L 192.5738 -22.3264 M 187.0971 -36.2155 L 193.4221 -19.9063 M 188.0185 -33.8224 L 194.2646 -17.4828 M 188.9280 -31.4268 L 195.1005 -15.0593 M 189.8271 -29.0271 L 195.9308 -12.6338 M 190.7174 -26.6213 L 196.7564 -10.2041 M 191.5971 -24.2162 L 197.5754 -7.7768 M 192.4693 -21.8047 L 198.3906 -5.3446 M 193.3325 -19.3926 L 199.2002 -2.9133 M 194.1889 -16.9756 L 200.0059 -0.4783 M 195.0373 -14.5582 L 200.8065 1.9558 M 195.8799 -12.1356 L 201.6039 4.3941 M 196.7148 -9.7143 L 202.3962 6.8302 M 197.5447 -7.2878 L 203.1856 9.2705 M 198.3682 -4.8615 L 203.9707 11.7098 M 199.1863 -2.4327 L 204.7525 14.1508 M 200.0000 0 L 205.5317 16.5951 M 200.8137 2.4327 L 206.3799 19.0162 M 201.6318 4.8615 L 207.2344 21.4328 M 202.4553 7.2878 L 208.0962 23.8461 M 203.2852 9.7143 L 208.9665 26.2587 M 204.1201 12.1356 L 209.8442 28.6653 M 204.9627 14.5582 L 210.7319 31.0722 M 205.8111 16.9756 L 211.6281 33.4728 M 206.6675 19.3926 L 212.5351 35.8718 M 207.5307 21.8047 L 213.4521 38.2647 M 208.4029 24.2162 L 214.3813 40.6556 M 209.2826 26.6213 L 215.3216 43.0386 M 210.1729 29.0271 L 216.2765 45.4205 M 211.0720 31.4268 L 217.2445 47.7943 M 211.9815 33.8224 L 218.2276 50.1619 M 212.9029 36.2155 L 219.2279 52.5247 M 213.8357 38.6026 L 220.2451 54.8788 M 214.7809 40.9836 L 221.2812 57.2238 M 215.7406 43.3608 L 222.3387 59.5614 M 216.7153 45.7322 L 223.4191 61.8894 M 217.7060 48.0964 L 224.5241 64.2057 M 218.7140 50.4531 L 225.6564 66.5092 M 219.7410 52.8015 L 226.8187 68.7984 M 220.7887 55.1406 L 228.0143 71.0713 M 221.8590 57.4693 L 229.2469 73.3254 M 222.9541 59.7858 L 230.5207 75.5574 M 224.0769 62.0895 L 231.8413 77.7646 M 225.2310 64.3796 L 233.2158 79.9436 M 226.4183 66.6502 L 234.6493 82.0854 M 227.6445 68.9016 L 236.1530 84.1856 M 228.9131 71.1272 L 237.7358 86.2320 M 230.2322 73.3262 L 239.4143 88.2154 M 231.6073 75.4894 L 241.2030 90.1154 M 233.0476 77.6094 L 243.1240 91.9084 M 234.5638 79.6749 L 245.2040 93.5595 M 236.1704 81.6718 L 247.4778 95.0187 M 237.8832 83.5771 L 249.9849 96.2082 M 239.7238 85.3600 L 252.7721 97.0107 M 241.7156 86.9724 L 255.8744 97.2448 M 243.8790 88.3416 L 259.2731 96.6492 M 246.2249 89.3676 L 262.8141 94.9170 M 248.7213 89.9273 L 266.1023 91.9021 M 251.2787 89.9273 L 268.6596 87.9526 M 253.7751 89.3676 L 270.3643 83.8182 M 256.1210 88.3416 L 271.5151 80.0340 M 258.2844 86.9724 L 272.4433 76.6999 M 260.2762 85.3600 L 273.3244 73.7093 M 262.1168 83.5771 L 274.2185 70.9460 M 263.8296 81.6718 L 275.1369 68.3249 M 265.4362 79.6749 L 276.0763 65.7903 M 266.9524 77.6094 L 277.0288 63.3104 M 268.3927 75.4894 L 277.9884 60.8635 M 269.7678 73.3262 L 278.9498 58.4371 M 271.0869 71.1272 L 279.9096 56.0223 M 272.3555 68.9016 L 280.8639 53.6175 M 273.5817 66.6502 L 281.8127 51.2150 M 274.7690 64.3796 L 282.7538 48.8155 M 275.9231 62.0895 L 283.6876 46.4144 M 277.0459 59.7858 L 284.6125 44.0143 M 278.1410 57.4693 L 285.5288 41.6132 M 279.2113 55.1406 L 286.4368 39.2099 M 280.2590 52.8015 L 287.3367 36.8045 M 281.2860 50.4531 L 288.2284 34.3970 M 282.2940 48.0964 L 289.1122 31.9872 M 283.2847 45.7322 L 289.9885 29.5750 M 284.2594 43.3608 L 290.8575 27.1601 M 285.2191 40.9836 L 291.7193 24.7435 M 286.1643 38.6026 L 292.5738 22.3264 M 287.0971 36.2155 L 293.4221 19.9063 M 288.0185 33.8224 L 294.2646 17.4828 M 288.9280 31.4268 L 295.1005 15.0593 M 289.8271 29.0271 L 295.9308 12.6338 M 290.7174 26.6213 L 296.7564 10.2041 M 291.5971 24.2162 L 297.5754 7.7768 M 292.4693 21.8047 L 298.3906 5.3446 M 293.3325 19.3926 L 299.2002 2.9133 M 294.1889 16.9756 L 300.0059 0.4783 M 295.0373 14.5582 L 300.8065 -1.9558 M 295.8799 12.1356 L 301.6039 -4.3941 M 296.7148 9.7143 L 302.3962 -6.8302 M 297.5447 7.2878 L 303.1856 -9.2705 M 298.3682 4.8615 L 303.9707 -11.7098 M 299.1863 2.4327 L 304.7525 -14.1508 M 300.0000 0 L 305.5317 -16.5951"/>
  <path fill="none" stroke="#222222" stroke-opacity="0.7" stroke-width="0.6" d="M 0 0 L 17.2270 3.0376 M 0.8137 2.4327 L 18.0267 5.5488 M 1.6318 4.8615 L 18.8304 8.0559 M 2.4553 7.2878 L 19.6391 10.5606 M 3.2852 9.7143 L 20.4539 13.0653 M 4.1201 12.1356 L 21.2734 15.5648 M 4.9627 14.5582 L 22.1002 18.0655 M 5.8111 16.9756 L 22.9325 20.5609 M 6.6675 19.3926 L 23.7723 23.0559 M 7.5307 21.8047 L 24.6187 25.5459 M 8.4029 24.2162 L 25.4737 28.0352 M 9.2826 26.6213 L 26.3358 30.5181 M 10.1729 29.0271 L 27.2081 33.0016 M 11.0720 31.4268 L 28.0890 35.4788 M 11.9815 33.8224 L 28.9798 37.9518 M 12.9029 36.2155 L 29.8822 40.4224 M 13.8357 38.6026 L 30.7957 42.8868 M 14.7809 40.9836 L 31.7212 45.3451 M 15.7406 43.3608 L 32.6608 47.7993 M 16.7153 45.7322 L 33.6152 50.2478 M 17.7060 48.0964 L 34.5851 52.6890 M 18.7140 50.4531 L 35.5720 55.1225 M 19.7410 52.8015 L 36.5776 57.5476 M 20.7887 55.1406 L 37.6035 59.9634 M 21.8590 57.4693 L 38.6517 62.3687 M 22.9541 59.7858 L 39.7242 64.7617 M 24.0769 62.0895 L 40.8241 67.1417 M 25.2310 64.3796 L 41.9551 69.5080 M 26.4183 66.6502 L 43.1188 71.8548 M 27.6445 68.9016 L 44.3212 74.1822 M 28.9131 71.1272 L 45.5655 76.4837 M 30.2322 73.3262 L 46.8601 78.7586 M 31.6073 75.4894 L 48.2102 80.9975 M 33.0476 77.6094 L 49.6253 83.1930 M 34.5638 79.6749 L 51.1159 85.3340 M 36.1704 81.6718 L 52.6965 87.4063 M 37.8832 83.5771 L 54.3830 89.3868 M 39.7238 85.3600 L 56.1970 91.2448 M 41.7156 86.9724 L 58.1618 92.9322 M 43.8790 88.3416 L 60.2979 94.3763 M 46.2249 89.3676 L 62.6161 95.4770 M 48.7213 89.9273 L 65.0845 96.1114 M 51.2787 89.9273 L 67.6135 96.1859 M 53.7751 89.3676 L 70.0812 95.7005 M 56.1210 88.3416 L 72.3981 94.7487 M 58.2844 86.9724 L 74.5322 93.4536 M 60.2762 85.3600 L 76.4942 91.9152 M 62.1168 83.5771 L 78.3048 90.2061 M 63.8296 81.6718 L 79.9872 88.3745 M 65.4362 79.6749 L 81.5631 86.4511 M 66.9524 77.6094 L 83.0483 84.4590 M 68.3927 75.4894 L 84.4572 82.4123 M 69.7678 73.3262 L 85.8006 80.3222 M 71.0869 71.1272 L 87.0877 78.1962 M 72.3555 68.9016 L 88.3239 76.0434 M 73.5817 66.6502 L 89.5174 73.8647 M 74.7690 64.3796 L 90.6717 71.6666 M 75.9231 62.0895 L 91.7925 69.4489 M 77.0459 59.7858 L 92.8815 67.2175 M 78.1410 57.4693 L 93.9426 64.9730 M 79.2113 55.1406 L 94.9785 62.7162 M 80.2590 52.8015 L 95.9916 60.4488 M 81.2860 50.4531 L 96.9836 58.1721 M 82.2940 48.0964 L 97.9563 55.8868 M 83.2847 45.7322 L 98.9113 53.5938 M 84.2594 43.3608 L 99.8500 51.2935 M 85.2191 40.9836 L 100.7734 48.9874 M 86.1643 38.6026 L 101.6820 46.6771 M 87.0971 36.2155 L 102.5778 44.3607 M 88.0185 33.8224 L 103.4619 42.0379 M 88.9280 31.4268 L 104.3339 39.7126 M 89.8271 29.0271 L 105.1951 37.3831 M 90.7174 26.6213 L 106.0471 35.0472 M 91.5971 24.2162 L 106.8882 32.7119 M 92.4693 21.8047 L 107.7216 30.3699 M 93.3325 19.3926 L 108.5456 28.0272 M 94.1889 16.9756 L 109.3625 25.6794 M 95.0373 14.5582 L 110.1711 23.3311 M 95.8799 12.1356 L 110.9736 20.9774 M 96.7148 9.7143 L 111.7681 18.6247 M 97.5447 7.2878 L 112.5572 16.2667 M 98.3682 4.8615 L 113.3396 13.9087 M 99.1863 2.4327 L 114.1163 11.5481 M 100.0000 0 L 114.8884 9.1833 M 100.8137 -2.4327 L 115.6601 6.8183 M 101.6318 -4.8615 L 116.4359 4.4571 M 102.4553 -7.2878 L 117.2167 2.0981 M 103.2852 -9.7143 L 118.0037 -0.2612 M 104.1201 -12.1356 L 118.7954 -2.6156 M 104.9627 -14.5582 L 119.5945 -4.9714 M 105.8111 -16.9756 L 120.3991 -7.3222 M 106.6675 -19.3926 L 121.2113 -9.6728 M 107.5307 -21.8047 L 122.0301 -12.0188 M 108.4029 -24.2162 L 122.8576 -14.3644 M 109.2826 -26.6213 L 123.6922 -16.7037 M 110.1729 -29.0271 L 124.5371 -19.0440 M 111.0720 -31.4268 L 125.3906 -21.3783 M 111.9815 -33.8224 L 126.2542 -23.7087 M 112.9029 -36.2155 L 127.1294 -26.0370 M 113.8357 -38.6026 L 128.0156 -28.3593 M 114.7809 -40.9836 L 128.9141 -30.6759 M 115.7406 -43.3608 L 129.8266 -32.9887 M 116.7153 -45.7322 L 130.7540 -35.2961 M 117.7060 -48.0964 L 131.6969 -37.5965 M 118.7140 -50.4531 L 132.6570 -39.8895 M 119.7410 -52.8015 L 133.6357 -42.1745 M 120.7887 -55.1406 L 134.6349 -44.4504 M 121.8590 -57.4693 L 135.6563 -46.7161 M 122.9541 -59.7858 L 136.7023 -48.9699 M 124.0769 -62.0895 L 137.7756 -51.2111 M 125.2310 -64.3796 L 138.8800 -53.4388 M 126.4183 -66.6502 L 140.0173 -55.6474 M 127.6445 -68.9016 L 141.1933 -57.8369 M 128.9131 -71.1272 L 142.4113 -60.0009 M 130.2322 -73.3262 L 143.6796 -62.1386 M 131.6073 -75.4894 L 145.0036 -64.2406 M 133.0476 -77.6094 L 146.3925 -66.2996 M 134.5638 -79.6749 L 147.8571 -68.3045 M 136.1704 -81.6718 L 149.4117 -70.2410 M 137.8832 -83.5771 L 151.0723 -72.0860 M 139.7238 -85.3600 L 152.8604 -73.8090 M 141.7156 -86.9724 L 154.7994 -75.3616 M 143.8790 -88.3416 L 156.9098 -76.6714 M 146.2249 -89.3676 L 159.2024 -77.6381 M 148.7213 -89.9273 L 161.6452 -78.1388 M 151.2787 -89.9273 L 164.1487 -78.0801 M 153.7751 -89.3676 L 166.5910 -77.4618 M 156.1210 -88.3416 L 168.8825 -76.3776 M 158.2844 -86.9724 L 170.9913 -74.9503 M 160.2762 -85.3600 L 172.9282 -73.2802 M 162.1168 -83.5771 L 174.7136 -71.4397 M 163.8296 -81.6718 L 176.3710 -69.4772 M 165.4362 -79.6749 L 177.9219 -67.4233 M 166.9524 -77.6094 L 179.3822 -65.3010 M 168.3927 -75.4894 L 180.7662 -63.1245 M 169.7678 -73.3262 L 182.0849 -60.9051 M 171.0869 -71.1272 L 183.3473 -58.6500 M 172.3555 -68.9016 L 184.5589 -56.3687 M 173.5817 -66.6502 L 185.7279 -54.0619 M 174.7690 -64.3796 L 186.8577 -51.7360 M 175.9231 -62.0895 L 187.9541 -49.3910 M 177.0459 -59.7858 L 189.0189 -47.0327 M 178.1410 -57.4693 L 190.0557 -44.6617 M 179.2113 -55.1406 L 191.0676 -42.2789 M 180.2590 -52.8015 L 192.0566 -39.8858 M 181.2860 -50.4531 L 193.0246 -37.4839 M 182.2940 -48.0964 L 193.9734 -35.0738 M 183.2847 -45.7322 L 194.9046 -32.6565 M 184.2594 -43.3608 L 195.8197 -30.2323 M 185.2191 -40.9836 L 196.7194 -27.8026 M 186.1643 -38.6026 L 197.6045 -25.3693 M 187.0971 -36.2155 L 198.4768 -22.9303 M 188.0185 -33.8224 L 199.3376 -20.4854 M 188.9280 -31.4268 L 200.1862 -18.0384 M 189.8271 -29.0271 L 201.0242 -15.5876 M 190.7174 -26.6213 L 201.8532 -13.1309 M 191.5971 -24.2162 L 202.6712 -10.6752 M 192.4693 -21.8047 L 203.4816 -8.2133 M 193.3325 -19.3926 L 204.2828 -5.7512 M 194.1889 -16.9756 L 205.0769 -3.2845 M 195.0373 -14.5582 L 205.8629 -0.8176 M 195.8799 -12.1356 L 206.6427 1.6541 M 196.7148 -9.7143 L 207.4147 4.1244 M 197.5447 -7.2878 L 208.1815 6.5995 M 198.3682 -4.8615 L 208.9415 9.0741 M 199.1863 -2.4327 L 209.6961 11.5509 M 200.0000 0 L 210.4459 14.0313 M 200.8137 2.4327 L 211.1956 16.5115 M 201.6318 4.8615 L 211.9495 18.9874 M 202.4553 7.2878 L 212.7084 21.4606 M 203.2852 9.7143 L 213.4737 23.9336 M 204.1201 12.1356 L 214.2437 26.4013 M 204.9627 14.5582 L 215.0212 28.8698 M 205.8111 16.9756 L 215.8043 31.3328 M 206.6675 19.3926 L 216.5952 33.7952 M 207.5307 21.8047 L 217.3927 36.2524 M 208.4029 24.2162 L 218.1990 38.7087 M 209.2826 26.6213 L 219.0125 41.1584 M 210.1729 29.0271 L 219.8364 43.6083 M 211.0720 31.4268 L 220.6690 46.0518 M 211.9815 33.8224 L 221.5118 48.4910 M 212.9029 36.2155 L 222.3663 50.9274 M 213.8357 38.6026 L 223.2319 53.3575 M 214.7809 40.9836 L 224.1098 55.7812 M 215.7406 43.3608 L 225.0020 58.2006 M 216.7153 45.7322 L 225.9090 60.6141 M 217.7060 48.0964 L 226.8318 63.0201 M 218.7140 50.4531 L 227.7717 65.4182 M 219.7410 52.8015 L 228.7305 67.8076 M 220.7887 55.1406 L 229.7097 70.1876 M 221.8590 57.4693 L 230.7114 72.5568 M 222.9541 59.7858 L 231.7376 74.9135 M 224.0769 62.0895 L 232.7914 77.2570 M 225.2310 64.3796 L 233.8763 79.5866 M 226.4183 66.6502 L 234.9942 81.8965 M 227.6445 68.9016 L 236.1509 84.1868 M 228.9131 71.1272 L 237.3498 86.4510 M 230.2322 73.3262 L 238.5990 88.6883 M 231.6073 75.4894 L 239.9040 90.8895 M 233.0476 77.6094 L 241.2740 93.0471 M 234.5638 79.6749 L 242.7198 95.1499 M 236.1704 81.6718 L 244.2558 97.1838 M 237.8832 83.5771 L 245.8979 99.1258 M 239.7238 85.3600 L 247.6676 100.9450 M 241.7156 86.9724 L 249.5882 102.5934 M 243.8790 88.3416 L 251.6804 103.9984 M 246.2249 89.3676 L 253.9549 105.0597 M 248.7213 89.9273 L 256.3797 105.6546 M 251.2787 89.9273 L 258.8653 105.6893 M 253.7751 89.3676 L 261.2899 105.1639 M 256.1210 88.3416 L 263.5637 104.1720 M 258.2844 86.9724 L 265.6549 102.8365 M 260.2762 85.3600 L 267.5743 101.2576 M 262.1168 83.5771 L 269.3424 99.5077 M 263.8296 81.6718 L 270.9826 97.6352 M 265.4362 79.6749 L 272.5164 95.6707 M 266.9524 77.6094 L 273.9596 93.6373 M 268.3927 75.4894 L 275.3268 91.5491 M 269.7678 73.3262 L 276.6287 89.4173 M 271.0869 71.1272 L 277.8744 87.2494 M 272.3555 68.9016 L 279.0695 85.0545 M 273.5817 66.6502 L 280.2220 82.8336 M 274.7690 64.3796 L 281.3355 80.5930 M 275.9231 62.0895 L 282.4157 78.3327 M 277.0459 59.7858 L 283.4644 76.0585 M 278.1410 57.4693 L 284.4853 73.7710 M 279.2113 55.1406 L 285.4813 71.4710 M 280.2590 52.8015 L 286.4545 69.1603 M 281.2860 50.4531 L 287.4069 66.8400 M 282.2940 48.0964 L 288.3402 64.5110 M 283.2847 45.7322 L 289.2560 62.1742 M 284.2594 43.3608 L 290.1558 59.8298 M 285.2191 40.9836 L 291.0404 57.4794 M 286.1643 38.6026 L 291.9104 55.1247 M 287.0971 36.2155 L 292.7678 52.7636 M 288.0185 33.8224 L 293.6138 50.3961 M 288.9280 31.4268 L 294.4477 48.0258 M 289.8271 29.0271 L 295.2712 45.6512 M 290.7174 26.6213 L 296.0857 43.2700 M 291.5971 24.2162 L 296.8894 40.8892 M 292.4693 21.8047 L 297.6856 38.5015 M 293.3325 19.3926 L 298.4727 36.1130 M 294.1889 16.9756 L 299.2528 33.7193 M 295.0373 14.5582 L 300.0249 31.3248 M 295.8799 12.1356 L 300.7910 28.9248 M 296.7148 9.7143 L 301.5495 26.5256 M 297.5447 7.2878 L 302.3027 24.1210 M 298.3682 4.8615 L 303.0494 21.7162 M 299.1863 2.4327 L 303.7907 19.3086 M 300.0000 0 L 304.5275 16.8967"/>
  
  <path fill="none" stroke="#8844ff" stroke-opacity="0.35" stroke-width="0.6" d="M -1.5628 8.8633 L -0.7895 11.2888 L -0.0117 13.7101 L 0.7714 16.1289 L 1.5611 18.5476 L 2.3558 20.9610 L 3.1582 23.3754 L 3.9664 25.7845 L 4.7827 28.1930 L 5.6059 30.5964 L 6.4381 32.9991 L 7.2777 35.3952 L 8.1280 37.7918 L 8.9872 40.1820 L 9.8569 42.5680 L 10.7384 44.9514 L 11.6315 47.3285 L 12.5370 49.6994 L 13.4569 52.0662 L 14.3920 54.4271 L 15.3431 56.7807 L 16.3116 59.1265 L 17.2991 61.4639 L 18.3074 63.7918 L 19.3383 66.1091 L 20.3940 68.4141 L 21.4775 70.7060 L 22.5924 72.9841 L 23.7405 75.2426 L 24.9277 77.4817 L 26.1572 79.6948 L 27.4373 81.8812 L 28.7734 84.0316 L 30.1748 86.1386 L 31.6522 88.1909 L 33.2200 90.1745 L 34.8941 92.0662 L 36.6961 93.8354 L 38.6493 95.4339 L 40.7742 96.7891 L 43.0816 97.8008 L 45.5397 98.3462 L 48.0586 98.3316 L 50.5168 97.7571 L 52.8245 96.7162 L 54.9498 95.3318 L 56.9035 93.7042 L 58.7062 91.9058 L 60.3811 89.9849 L 61.9498 87.9722 L 63.4283 85.8907 L 64.8309 83.7546 L 66.1683 81.5751 L 67.4499 79.3596 L 68.6810 77.1173 L 69.8699 74.8491 L 71.0198 72.5615 L 72.1367 70.2543 L 73.2223 67.9333 L 74.2803 65.5992 L 75.3136 63.2528 L 76.3244 60.8959 L 77.3146 58.5295 L 78.2859 56.1546 L 79.2399 53.7720 L 80.1780 51.3821 L 81.1012 48.9863 L 82.0100 46.5864 L 82.9064 44.1803 L 83.7916 41.7680 L 84.6649 39.3531 L 85.5280 36.9339 L 86.3823 34.5085 L 87.2260 32.0835 L 88.0625 29.6520 L 88.8900 27.2197 L 89.7108 24.7824 L 90.5237 22.3445 L 91.3308 19.9013 L 92.1304 17.4591 L 92.9251 15.0117 L 93.7134 12.5643 L 94.4965 10.1142 L 95.2752 7.6601 L 96.0541 5.2057 L 96.8375 2.7552 L 97.6262 0.3070 L 98.4216 -2.1416 L 99.2221 -4.5852 L 100.0303 -7.0301 L 100.8445 -9.4701 L 101.6667 -11.9098 L 102.4959 -14.3447 L 103.3342 -16.7793 L 104.1800 -19.2076 L 105.0365 -21.6367 L 105.9021 -24.0598 L 106.7781 -26.4790 L 107.6660 -28.8960 L 108.5655 -31.3070 L 109.4776 -33.7121 L 110.4042 -36.1135 L 111.3460 -38.5093 L 112.3038 -40.8981 L 113.2791 -43.2794 L 114.2734 -45.6526 L 115.2886 -48.0168 L 116.3265 -50.3706 L 117.3893 -52.7124 L 118.4799 -55.0415 L 119.6020 -57.3572 L 120.7573 -59.6535 L 121.9518 -61.9307 L 123.1886 -64.1824 L 124.4762 -66.4076 L 125.8198 -68.5970 L 127.2288 -70.7434 L 128.7138 -72.8355 L 130.2893 -74.8592 L 131.9711 -76.7913 L 133.7808 -78.6012 L 135.7419 -80.2408 L 137.8747 -81.6373 L 140.1901 -82.6907 L 142.6562 -83.2780 L 145.1832 -83.3057 L 147.6496 -82.7738 L 149.9655 -81.7758 L 152.0991 -80.4347 L 154.0611 -78.8505 L 155.8721 -77.0960 L 157.5555 -75.2193 L 159.1327 -73.2510 L 160.6197 -71.2143 L 162.0310 -69.1232 L 163.3771 -66.9891 L 164.6674 -64.8192 L 165.9073 -62.6229 L 167.1050 -60.4010 L 168.2639 -58.1599 L 169.3898 -55.8996 L 170.4844 -53.6257 L 171.5515 -51.3391 L 172.5939 -49.0406 L 173.6139 -46.7316 L 174.6133 -44.4136 L 175.5939 -42.0874 L 176.5573 -39.7537 L 177.5048 -37.4130 L 178.4375 -35.0667 L 179.3558 -32.7166 L 180.2619 -30.3607 L 181.1566 -27.9987 L 182.0397 -25.6344 L 182.9125 -23.2662 L 183.7766 -20.8920 L 184.6302 -18.5186 L 185.4765 -16.1388 L 186.3140 -13.7586 L 187.1448 -11.3737 L 187.9678 -8.9884 L 188.7851 -6.5982 L 189.5949 -4.2092 L 190.3998 -1.8152 L 191.1983 0.5785 L 191.9918 2.9745 L 192.7809 5.3744 L 193.5702 7.7742 L 194.3641 10.1699 L 195.1634 12.5631 L 195.9693 14.9562 L 196.7805 17.3442 L 197.5994 19.7333 L 198.4243 22.1171 L 199.2573 24.5003 L 200.0974 26.8786 L 200.9465 29.2563 L 201.8033 31.6274 L 202.6708 33.9990 L 203.5474 36.3645 L 204.4345 38.7257 L 205.3336 41.0844 L 206.2443 43.4370 L 207.1676 45.7834 L 208.1055 48.1257 L 209.0586 50.4623 L 210.0278 52.7917 L 211.0145 55.1133 L 212.0203 57.4265 L 213.0471 59.7304 L 214.0966 62.0238 L 215.1709 64.3049 L 216.2732 66.5731 L 217.4070 68.8276 L 218.5741 71.0625 L 219.7803 73.2781 L 221.0290 75.4678 L 222.3285 77.6309 L 223.6840 79.7580 L 225.1049 81.8419 L 226.6020 83.8712 L 228.1895 85.8317 L 229.8834 87.7006 L 231.7053 89.4470 L 233.6786 91.0228 L 235.8236 92.3554 L 238.1513 93.3447 L 240.6297 93.8676 L 243.1692 93.8307 L 245.6479 93.2339 L 247.9763 92.1709 L 250.1223 90.7645 L 252.0969 89.1149 L 253.9205 87.2947 L 255.6164 85.3520 L 257.2063 83.3177 L 258.7060 81.2146 L 260.1300 79.0570 L 261.4889 76.8562 L 262.7920 74.6194 L 264.0448 72.3559 L 265.2554 70.0666 L 266.4272 67.7580 L 267.5660 65.4299 L 268.6736 63.0882 L 269.7537 60.7334 L 270.8093 58.3665 L 271.8424 55.9890 L 272.8549 53.6023 L 273.8487 51.2072 L 274.8253 48.8044 L 275.7861 46.3944 L 276.7321 43.9787 L 277.6637 41.5589 L 278.5831 39.1331 L 279.4913 36.7011 L 280.3878 34.2667 L 281.2741 31.8281 L 282.1517 29.3833 L 283.0188 26.9391 L 283.8787 24.4884 L 284.7298 22.0372 L 285.5743 19.5809 L 286.4109 17.1243 L 287.2419 14.6624 L 288.0654 12.2017 L 288.8841 9.7358 L 289.6964 7.2700 L 290.5037 4.8017 L 291.3067 2.3294 L 308.6933 -2.3294 L 307.8689 0.0638 L 307.0399 2.4530 L 306.2054 4.8398 L 305.3643 7.2269 L 304.5179 9.6088 L 303.6637 11.9921 L 302.8035 14.3702 L 301.9352 16.7479 L 301.0598 19.1209 L 300.1753 21.4933 L 299.2832 23.8594 L 298.3802 26.2262 L 297.4682 28.5869 L 296.5457 30.9436 L 295.6111 33.2979 L 294.6649 35.6462 L 293.7061 37.9886 L 292.7327 40.3271 L 291.7441 42.6599 L 290.7393 44.9857 L 289.7170 47.3039 L 288.6756 49.6139 L 287.6133 51.9147 L 286.5282 54.2051 L 285.4182 56.4835 L 284.2803 58.7491 L 283.1108 61.0011 L 281.9080 63.2337 L 280.6662 65.4472 L 279.3818 67.6350 L 278.0466 69.7963 L 276.6554 71.9218 L 275.1987 74.0042 L 273.6660 76.0321 L 272.0427 77.9916 L 270.3131 79.8595 L 268.4555 81.6051 L 266.4465 83.1803 L 264.2657 84.5123 L 261.9023 85.5013 L 259.3882 86.0240 L 256.8130 85.9871 L 254.2985 85.3905 L 251.9344 84.3278 L 249.7526 82.9219 L 247.7423 81.2730 L 245.8830 79.4536 L 244.1513 77.5119 L 242.5257 75.4786 L 240.9903 73.3769 L 239.5306 71.2208 L 238.1360 69.0215 L 236.7972 66.7865 L 235.5088 64.5251 L 234.2625 62.2379 L 233.0550 59.9316 L 231.8805 57.6059 L 230.7373 55.2667 L 229.6215 52.9148 L 228.5304 50.5508 L 227.4617 48.1764 L 226.4135 45.7929 L 225.3842 43.4012 L 224.3721 41.0020 L 223.3757 38.5958 L 222.3942 36.1839 L 221.4270 33.7682 L 220.4722 31.3466 L 219.5285 28.9190 L 218.5966 26.4891 L 217.6749 24.0552 L 216.7619 21.6153 L 215.8593 19.1761 L 214.9641 16.7307 L 214.0777 14.2848 L 213.1979 11.8341 L 212.3260 9.3831 L 211.4598 6.9270 L 210.6010 4.4723 L 209.7471 2.0125 L 208.8996 -0.4469 L 208.0572 -2.9088 L 207.2191 -5.3744 L 206.3808 -7.8400 L 205.5380 -10.3015 L 204.6897 -12.7604 L 203.8348 -15.2194 L 202.9747 -17.6731 L 202.1068 -20.1279 L 201.2330 -22.5774 L 200.3510 -25.0265 L 199.4620 -27.4705 L 198.5639 -29.9138 L 197.6582 -32.3507 L 196.7418 -34.7880 L 195.8163 -37.2191 L 194.8804 -39.6460 L 193.9324 -42.0704 L 192.9728 -44.4885 L 192.0007 -46.9005 L 191.0140 -49.3085 L 190.0121 -51.7106 L 188.9941 -54.1055 L 187.9587 -56.4926 L 186.9041 -58.8713 L 185.8286 -61.2407 L 184.7304 -63.5994 L 183.6074 -65.9459 L 182.4565 -68.2794 L 181.2741 -70.5992 L 180.0584 -72.8994 L 178.8036 -75.1802 L 177.5064 -77.4351 L 176.1584 -79.6634 L 174.7544 -81.8556 L 173.2851 -84.0045 L 171.7396 -86.0988 L 170.1037 -88.1244 L 168.3614 -90.0582 L 166.4912 -91.8694 L 164.4698 -93.5101 L 162.2765 -94.9074 L 159.9006 -95.9614 L 157.3741 -96.5490 L 154.7865 -96.5767 L 152.2597 -96.0445 L 149.8834 -95.0459 L 147.6893 -93.7040 L 145.6668 -92.1187 L 143.7954 -90.3628 L 142.0516 -88.4844 L 140.4139 -86.5142 L 138.8665 -84.4753 L 137.3948 -82.3818 L 135.9883 -80.2449 L 134.6376 -78.0720 L 133.3373 -75.8724 L 132.0792 -73.6469 L 130.8600 -71.4020 L 129.6738 -69.1375 L 128.5189 -66.8593 L 127.3915 -64.5680 L 126.2888 -62.2644 L 125.2086 -59.9503 L 124.1490 -57.6267 L 123.1082 -55.2948 L 122.0847 -52.9550 L 121.0770 -50.6080 L 120.0842 -48.2551 L 119.1058 -45.8982 L 118.1397 -43.5350 L 117.1849 -41.1657 L 116.2419 -38.7937 L 115.3092 -36.4176 L 114.3852 -34.0351 L 113.4717 -31.6531 L 112.5656 -29.2646 L 111.6683 -26.8753 L 110.7778 -24.4811 L 109.8951 -22.0862 L 109.0182 -19.6861 L 108.1488 -17.2869 L 107.2843 -14.8826 L 106.4262 -12.4782 L 105.5733 -10.0712 L 104.7248 -7.6601 L 103.8761 -5.2488 L 103.0229 -2.8413 L 102.1644 -0.4361 L 101.2992 1.9694 L 100.4290 4.3700 L 99.5510 6.7718 L 98.6670 9.1687 L 97.7750 11.5654 L 96.8761 13.9574 L 95.9681 16.3489 L 95.0525 18.7342 L 94.1263 21.1203 L 93.1911 23.5005 L 92.2454 25.8767 L 91.2878 28.2507 L 90.3187 30.6188 L 89.3370 32.9810 L 88.3408 35.3394 L 87.3295 37.6923 L 86.3022 40.0382 L 85.2574 42.3767 L 84.1936 44.7071 L 83.1089 47.0284 L 82.0016 49.3394 L 80.8695 51.6384 L 79.7095 53.9248 L 78.5182 56.1977 L 77.2936 58.4513 L 76.0299 60.6858 L 74.7239 62.8948 L 73.3672 65.0773 L 71.9545 67.2242 L 70.4765 69.3280 L 68.9225 71.3776 L 67.2781 73.3587 L 65.5274 75.2484 L 63.6488 77.0158 L 61.6190 78.6129 L 59.4174 79.9671 L 57.0334 80.9781 L 54.4987 81.5231 L 51.9030 81.5085 L 49.3682 80.9343 L 46.9839 79.8941 L 44.7819 78.5108 L 42.7516 76.8846 L 40.8723 75.0880 L 39.1208 73.1692 L 37.4755 71.1589 L 35.9204 69.0802 L 34.4412 66.9472 L 33.0272 64.7712 L 31.6691 62.5595 L 30.3614 60.3214 L 29.0961 58.0578 L 27.8696 55.7750 L 26.6762 53.4730 L 25.5142 51.1576 L 24.3798 48.8295 L 23.2701 46.4894 L 22.1829 44.1391 L 21.1164 41.7797 L 20.0688 39.4121 L 19.0386 37.0372 L 18.0242 34.6553 L 17.0249 32.2679 L 16.0399 29.8767 L 15.0673 27.4797 L 14.1061 25.0767 L 13.1567 22.6716 L 12.2177 20.2625 L 11.2875 17.8475 L 10.3678 15.4333 L 9.4556 13.0129 L 8.5523 10.5921 L 7.6558 8.1666 L 6.7672 5.7409 L 5.8844 3.3103 L 5.0093 0.8810 L 4.1391 -1.5533 L 3.2754 -3.9872 L 2.4169 -6.4233 L 1.5628 -8.8633 L -1.5628 8.8633 Z"/>
  
  
  
</g>
</svg>