<svg xmlns="http://www.w3.org/2000/svg" width="335.7359" height="223.4468" viewBox="-18.2748 -111.7234 335.7359 223.4468">
  <path fill="black" stroke="none" fill-rule="evenodd" d="M -8.2748 4.6047 L -8.2513 5.9829 L -8.0867 7.2588 L -7.7837 8.4104 L -7.3475 9.4181 L -7.2988 9.4914 L -7.2730 9.6915 L -6.9700 10.8431 L -6.5338 11.8508 L -6.4789 11.9334 L -6.4548 12.1203 L -6.1518 13.2719 L -5.7156 14.2796 L -5.6539 14.3726 L -5.6314 14.5466 L -5.3284 15.6982 L -4.8922 16.7059 L -4.8224 16.8110 L -4.8015 16.9730 L -4.4985 18.1247 L -4.0623 19.1324 L -3.9854 19.2482 L -3.9666 19.3944 L -3.6635 20.5460 L -3.2273 21.5538 L -3.1412 21.6835 L -3.1240 21.8169 L -2.8210 22.9686 L -2.3848 23.9763 L -2.2905 24.1182 L -2.2756 24.2343 L -1.9725 25.3860 L -1.5363 26.3937 L -1.4322 26.5506 L -1.4192 26.6513 L -1.1162 27.8029 L -0.6800 28.8107 L -0.5665 28.9816 L -0.5559 29.0634 L -0.2529 30.2150 L 0.1833 31.2228 L 0.3080 31.4106 L 0.3163 31.4750 L 0.6193 32.6266 L 1.0555 33.6343 L 1.1904 33.8376 L 1.1959 33.8801 L 1.4989 35.0317 L 1.9351 36.0395 L 2.0832 36.2625 L 2.0862 36.2859 L 2.3892 37.4375 L 2.8254 38.4453 L 2.9856 38.6866 L 3.2883 39.8372 L 3.7245 40.8449 L 3.9037 41.1148 L 4.1978 42.2327 L 4.6340 43.2405 L 4.8339 43.5416 L 5.1192 44.6259 L 5.5554 45.6336 L 5.7769 45.9672 L 6.0520 47.0130 L 6.4882 48.0207 L 6.7329 48.3893 L 6.9972 49.3940 L 7.4335 50.4018 L 7.7038 50.8090 L 7.9569 51.7711 L 8.3931 52.7789 L 8.6909 53.2274 L 8.9317 54.1426 L 9.3679 55.1503 L 9.6951 55.6433 L 9.9223 56.5068 L 10.3585 57.5146 L 10.7179 58.0559 L 10.9304 58.8635 L 11.3666 59.8712 L 11.7609 60.4654 L 11.9574 61.2119 L 12.3936 62.2196 L 12.8263 62.8715 L 13.0051 63.5510 L 13.4413 64.5587 L 13.9160 65.2740 L 14.0754 65.8797 L 14.5116 66.8874 L 15.0326 67.6723 L 15.1704 68.1962 L 15.6066 69.2040 L 16.1686 70.0505 L 16.1772 70.0591 L 16.2932 70.4999 L 16.7294 71.5076 L 17.2913 72.3542 L 17.3472 72.4095 L 17.4473 72.7900 L 17.8835 73.7977 L 18.4455 74.6443 L 18.5531 74.7508 L 18.6346 75.0606 L 19.0708 76.0683 L 19.6328 76.9149 L 19.7999 77.0803 L 19.8609 77.3120 L 20.2971 78.3197 L 20.8590 79.1663 L 21.0926 79.3974 L 21.1295 79.5376 L 21.5657 80.5453 L 22.1276 81.3919 L 22.4390 81.7000 L 22.4486 81.7366 L 22.8848 82.7443 L 23.4467 83.5909 L 23.8722 84.0120 L 24.2599 84.9075 L 24.8218 85.7541 L 25.3941 86.3205 L 25.7002 87.0275 L 26.2621 87.8741 L 26.9401 88.5450 L 26.9935 88.5780 L 27.2164 89.0930 L 27.7783 89.9396 L 28.4563 90.6105 L 28.6736 90.7449 L 28.8230 91.0899 L 29.3849 91.9365 L 30.0629 92.6075 L 30.4794 92.8650 L 30.5358 92.9952 L 31.0977 93.8418 L 31.7757 94.5127 L 32.4957 94.9579 L 32.9383 95.6247 L 33.6163 96.2956 L 34.3988 96.7795 L 34.6901 96.8757 L 34.9300 97.2371 L 35.6081 97.9080 L 36.3906 98.3919 L 37.1202 98.6327 L 37.7715 99.2773 L 38.5540 99.7611 L 39.4277 100.0495 L 39.9059 100.0939 L 40.1174 100.3032 L 40.8999 100.7871 L 41.7736 101.0755 L 42.7234 101.1636 L 43.0420 101.1277 L 43.3964 101.3468 L 44.2700 101.6353 L 45.2198 101.7234 L 46.2295 101.6097 L 46.5030 101.5282 L 46.8273 101.6353 L 47.7771 101.7234 L 48.7868 101.6097 L 49.8392 101.2961 L 50.1451 101.1517 L 50.2735 101.1636 L 51.2832 101.0499 L 52.3356 100.7363 L 53.4126 100.2282 L 53.8203 99.9670 L 54.6815 99.7103 L 55.7585 99.2022 L 56.8416 98.5083 L 57.3307 98.1119 L 57.9219 97.8330 L 59.0051 97.1390 L 60.0759 96.2711 L 60.5216 95.8311 L 60.9968 95.5266 L 62.0677 94.6587 L 63.1079 93.6317 L 63.3993 93.2884 L 63.9083 92.8758 L 64.9485 91.8488 L 65.9402 90.6803 L 66.0015 90.5950 L 66.6613 89.9435 L 67.6530 88.7750 L 68.1990 88.0146 L 68.2679 87.9466 L 69.2596 86.7781 L 70.1859 85.4880 L 70.3584 85.2044 L 70.7758 84.7126 L 71.7022 83.4225 L 72.1834 82.6311 L 72.2161 82.5926 L 73.1425 81.3025 L 73.9875 79.9130 L 74.0506 79.7897 L 74.5175 79.1393 L 75.3626 77.7498 L 75.6278 77.2311 L 75.8367 76.9403 L 76.6817 75.5507 L 77.1307 74.6729 L 77.9503 73.3251 L 78.6996 71.8599 L 78.7023 71.8535 L 79.1765 71.0737 L 79.9259 69.6085 L 80.0440 69.3290 L 80.3638 68.8031 L 81.1132 67.3379 L 81.3338 66.8158 L 81.5180 66.5131 L 82.2673 65.0478 L 82.5784 64.3119 L 82.6407 64.2094 L 83.3901 62.7442 L 83.8174 61.7333 L 84.4851 60.4276 L 85.0598 59.0681 L 85.5554 58.0989 L 86.1962 56.5831 L 86.2238 56.5016 L 86.6031 55.7598 L 87.2439 54.2439 L 87.3212 54.0155 L 87.6301 53.4114 L 88.2709 51.8956 L 88.3936 51.5330 L 88.6382 51.0548 L 89.2790 49.5389 L 89.4432 49.0535 L 89.6288 48.6905 L 90.2696 47.1746 L 90.4722 46.5760 L 90.6036 46.3191 L 91.2443 44.8032 L 91.4820 44.1008 L 91.5633 43.9420 L 92.2040 42.4261 L 92.4739 41.6286 L 92.5085 41.5609 L 93.1493 40.0451 L 93.4552 39.1409 L 94.0820 37.6580 L 94.4440 36.5881 L 95.0034 35.2648 L 95.4172 34.0421 L 95.9129 32.8693 L 96.3752 31.5031 L 96.8121 30.4696 L 97.3203 28.9677 L 97.7024 28.0638 L 98.2236 26.5233 L 98.2345 26.4808 L 98.5820 25.6587 L 99.1032 24.1182 L 99.1295 24.0151 L 99.4542 23.2471 L 99.9755 21.7066 L 100.0158 21.5487 L 100.3174 20.8350 L 100.8387 19.2945 L 100.8926 19.0832 L 101.1738 18.4180 L 101.6951 16.8775 L 101.7614 16.6177 L 102.0222 16.0006 L 102.5435 14.4601 L 102.6221 14.1524 L 102.8648 13.5781 L 103.3861 12.0376 L 103.4755 11.6873 L 103.6998 11.1567 L 104.2210 9.6162 L 104.3214 9.2229 L 104.5297 8.7303 L 105.0509 7.1897 L 105.1611 6.7581 L 105.3531 6.3040 L 105.8743 4.7634 L 105.9942 4.2941 L 106.1712 3.8752 L 106.6925 2.3347 L 106.8216 1.8288 L 106.9849 1.4425 L 107.5062 -0.0981 L 107.6353 -0.6039 L 107.7986 -0.9902 L 108.3199 -2.5308 L 108.4397 -3.0001 L 108.6168 -3.4190 L 109.1380 -4.9595 L 109.2482 -5.3912 L 109.4402 -5.8453 L 109.9614 -7.3859 L 110.0619 -7.7792 L 110.2701 -8.2718 L 110.7914 -9.8123 L 110.8808 -10.1626 L 111.1051 -10.6932 L 111.6263 -12.2337 L 111.7049 -12.5414 L 111.9476 -13.1157 L 112.4689 -14.6562 L 112.5352 -14.9161 L 112.7960 -15.5331 L 113.3173 -17.0736 L 113.3712 -17.2849 L 113.6524 -17.9501 L 114.1737 -19.4906 L 114.2140 -19.6485 L 114.5157 -20.3622 L 115.0369 -21.9027 L 115.0632 -22.0057 L 115.3879 -22.7737 L 115.9091 -24.3143 L 115.9200 -24.3568 L 116.2675 -25.1789 L 116.7757 -26.6807 L 117.1578 -27.5847 L 117.6200 -28.9508 L 118.0569 -29.9843 L 118.4706 -31.2070 L 118.9664 -32.3799 L 119.3284 -33.4497 L 119.8878 -34.7730 L 120.1938 -35.6772 L 120.8206 -37.1601 L 121.0905 -37.9577 L 121.1251 -38.0253 L 121.7658 -39.5412 L 122.0035 -40.2436 L 122.0847 -40.4024 L 122.7255 -41.9183 L 122.9281 -42.5169 L 123.0595 -42.7738 L 123.7002 -44.2897 L 123.8645 -44.7751 L 124.0501 -45.1381 L 124.6909 -46.6540 L 124.8136 -47.0165 L 125.0582 -47.4948 L 125.6989 -49.0106 L 125.7762 -49.2390 L 126.0852 -49.8431 L 126.7259 -51.3590 L 126.7535 -51.4405 L 127.1329 -52.1823 L 127.7075 -53.5418 L 128.2032 -54.5110 L 128.6305 -55.5218 L 129.2983 -56.8275 L 129.6093 -57.5634 L 129.6717 -57.6659 L 130.4210 -59.1312 L 130.6417 -59.6532 L 130.8258 -59.9560 L 131.5752 -61.4212 L 131.6933 -61.7008 L 132.0131 -62.2266 L 132.7624 -63.6919 L 132.7651 -63.6982 L 133.2394 -64.4780 L 133.6883 -65.3559 L 134.5079 -66.7036 L 134.7732 -67.2223 L 134.9820 -67.5131 L 135.8271 -68.9027 L 135.8901 -69.0260 L 136.3571 -69.6763 L 136.8384 -70.4677 L 136.8711 -70.5062 L 137.7974 -71.7963 L 137.9698 -72.0799 L 138.3873 -72.5717 L 138.9333 -73.3321 L 139.0021 -73.4001 L 139.9939 -74.5686 L 140.0551 -74.6539 L 140.7149 -75.3054 L 141.0063 -75.6487 L 141.5153 -76.0613 L 141.9610 -76.5013 L 142.4362 -76.8057 L 142.9252 -77.2021 L 143.5165 -77.4810 L 143.9242 -77.7422 L 144.7854 -77.9989 L 145.0914 -78.1432 L 145.2198 -78.1313 L 146.2295 -78.2450 L 146.5030 -78.3265 L 146.8273 -78.2194 L 147.7771 -78.1313 L 148.0958 -78.1672 L 148.4501 -77.9481 L 149.3237 -77.6597 L 149.8019 -77.6153 L 150.0135 -77.4060 L 150.7960 -76.9221 L 151.5256 -76.6813 L 152.1769 -76.0367 L 152.9594 -75.5529 L 153.2507 -75.4567 L 153.4906 -75.0953 L 154.1687 -74.4243 L 154.8887 -73.9792 L 155.3313 -73.3124 L 156.0093 -72.6414 L 156.4258 -72.3839 L 156.4821 -72.2537 L 157.0440 -71.4071 L 157.7221 -70.7362 L 157.9394 -70.6018 L 158.0887 -70.2568 L 158.6506 -69.4102 L 159.3287 -68.7393 L 159.3820 -68.7063 L 159.6049 -68.1913 L 160.1669 -67.3447 L 160.7392 -66.7783 L 161.0452 -66.0713 L 161.6071 -65.2247 L 162.0327 -64.8036 L 162.4203 -63.9081 L 162.9822 -63.0615 L 163.2936 -62.7534 L 163.3032 -62.7168 L 163.7394 -61.7091 L 164.3014 -60.8625 L 164.5349 -60.6313 L 164.5718 -60.4912 L 165.0080 -59.4835 L 165.5699 -58.6369 L 165.7371 -58.4715 L 165.7981 -58.2398 L 166.2343 -57.2321 L 166.7962 -56.3855 L 166.9038 -56.2790 L 166.9853 -55.9692 L 167.4215 -54.9615 L 167.9835 -54.1149 L 168.0394 -54.0595 L 168.1395 -53.6791 L 168.5757 -52.6714 L 169.1376 -51.8248 L 169.1463 -51.8162 L 169.2622 -51.3754 L 169.6985 -50.3677 L 170.2194 -49.5828 L 170.3573 -49.0589 L 170.7935 -48.0512 L 171.2683 -47.3359 L 171.4276 -46.7302 L 171.8638 -45.7225 L 172.2965 -45.0706 L 172.4753 -44.3911 L 172.9115 -43.3833 L 173.3059 -42.7892 L 173.5023 -42.0427 L 173.9385 -41.0350 L 174.2979 -40.4936 L 174.5104 -39.6860 L 174.9466 -38.6783 L 175.2738 -38.1853 L 175.5010 -37.3218 L 175.9372 -36.3140 L 176.2350 -35.8655 L 176.4758 -34.9504 L 176.9120 -33.9426 L 177.1823 -33.5354 L 177.4354 -32.5732 L 177.8716 -31.5655 L 178.1163 -31.1969 L 178.3807 -30.1922 L 178.8169 -29.1845 L 179.0383 -28.8509 L 179.3135 -27.8051 L 179.7497 -26.7974 L 179.9495 -26.4963 L 180.2348 -25.4120 L 180.6710 -24.4042 L 180.8502 -24.1343 L 181.1444 -23.0164 L 181.5806 -22.0087 L 181.7407 -21.7673 L 182.0435 -20.6167 L 182.4797 -19.6090 L 182.6277 -19.3860 L 182.6308 -19.3626 L 182.9338 -18.2109 L 183.3700 -17.2032 L 183.5049 -17.0000 L 183.5104 -16.9574 L 183.8134 -15.8058 L 184.2496 -14.7981 L 184.3743 -14.6102 L 184.3826 -14.5459 L 184.6856 -13.3943 L 185.1218 -12.3865 L 185.2353 -12.2156 L 185.2458 -12.1338 L 185.5489 -10.9822 L 185.9851 -9.9744 L 186.0892 -9.8175 L 186.1022 -9.7168 L 186.4052 -8.5652 L 186.8414 -7.5574 L 186.9356 -7.4155 L 186.9506 -7.2994 L 187.2537 -6.1478 L 187.6899 -5.1400 L 187.7760 -5.0103 L 187.7932 -4.8769 L 188.0962 -3.7252 L 188.5324 -2.7175 L 188.6093 -2.6017 L 188.6282 -2.4555 L 188.9312 -1.3039 L 189.3674 -0.2962 L 189.4372 -0.1910 L 189.4581 -0.0290 L 189.7611 1.1226 L 190.1973 2.1303 L 190.2590 2.2233 L 190.2815 2.3973 L 190.5845 3.5489 L 191.0207 4.5566 L 191.0755 4.6392 L 191.0996 4.8260 L 191.4026 5.9777 L 191.8388 6.9854 L 191.8875 7.0587 L 191.9133 7.2588 L 192.2163 8.4104 L 192.6525 9.4181 L 192.7012 9.4914 L 192.7270 9.6915 L 193.0300 10.8431 L 193.4662 11.8508 L 193.5211 11.9334 L 193.5452 12.1203 L 193.8482 13.2719 L 194.2844 14.2796 L 194.3461 14.3726 L 194.3686 14.5466 L 194.6716 15.6982 L 195.1078 16.7059 L 195.1776 16.8110 L 195.1985 16.9730 L 195.5015 18.1247 L 195.9377 19.1324 L 196.0146 19.2482 L 196.0334 19.3944 L 196.3365 20.5460 L 196.7727 21.5538 L 196.8588 21.6835 L 196.8760 21.8169 L 197.1790 22.9686 L 197.6152 23.9763 L 197.7095 24.1182 L 197.7244 24.2343 L 198.0275 25.3860 L 198.4637 26.3937 L 198.5678 26.5506 L 198.5808 26.6513 L 198.8838 27.8029 L 199.3200 28.8107 L 199.4335 28.9816 L 199.4441 29.0634 L 199.7471 30.2150 L 200.1833 31.2228 L 200.3080 31.4106 L 200.3163 31.4750 L 200.6193 32.6266 L 201.0555 33.6343 L 201.1904 33.8376 L 201.1959 33.8801 L 201.4989 35.0317 L 201.9351 36.0395 L 202.0832 36.2625 L 202.0862 36.2859 L 202.3892 37.4375 L 202.8254 38.4453 L 202.9856 38.6866 L 203.2883 39.8372 L 203.7245 40.8449 L 203.9037 41.1148 L 204.1978 42.2327 L 204.6340 43.2405 L 204.8339 43.5416 L 205.1192 44.6259 L 205.5554 45.6336 L 205.7769 45.9672 L 206.0520 47.0130 L 206.4882 48.0207 L 206.7329 48.3893 L 206.9972 49.3940 L 207.4335 50.4018 L 207.7038 50.8090 L 207.9569 51.7711 L 208.3931 52.7789 L 208.6909 53.2274 L 208.9317 54.1426 L 209.3679 55.1503 L 209.6951 55.6433 L 209.9223 56.5068 L 210.3585 57.5146 L 210.7179 58.0559 L 210.9304 58.8635 L 211.3666 59.8712 L 211.7609 60.4654 L 211.9574 61.2119 L 212.3936 62.2196 L 212.8263 62.8715 L 213.0051 63.5510 L 213.4413 64.5587 L 213.9160 65.2740 L 214.0754 65.8797 L 214.5116 66.8874 L 215.0326 67.6723 L 215.1704 68.1962 L 215.6066 69.2040 L 216.1686 70.0505 L 216.1772 70.0591 L 216.2932 70.4999 L 216.7294 71.5076 L 217.2913 72.3542 L 217.3472 72.4095 L 217.4473 72.7900 L 217.8835 73.7977 L 218.4455 74.6443 L 218.5531 74.7508 L 218.6346 75.0606 L 219.0708 76.0683 L 219.6328 76.9149 L 219.7999 77.0803 L 219.8609 77.3120 L 220.2971 78.3197 L 220.8590 79.1663 L 221.0926 79.3974 L 221.1295 79.5376 L 221.5657 80.5453 L 222.1276 81.3919 L 222.4390 81.7000 L 222.4486 81.7366 L 222.8848 82.7443 L 223.4467 83.5909 L 223.8722 84.0120 L 224.2599 84.9075 L 224.8218 85.7541 L 225.3941 86.3205 L 225.7002 87.0275 L 226.2621 87.8741 L 226.9401 88.5450 L 226.9935 88.5780 L 227.2164 89.0930 L 227.7783 89.9396 L 228.4563 90.6105 L 228.6736 90.7449 L 228.8230 91.0899 L 229.3849 91.9365 L 230.0629 92.6075 L 230.4794 92.8650 L 230.5358 92.9952 L 231.0977 93.8418 L 231.7757 94.5127 L 232.4957 94.9579 L 232.9383 95.6247 L 233.6163 96.2956 L 234.3988 96.7795 L 234.6901 96.8757 L 234.9300 97.2371 L 235.6081 97.9080 L 236.3906 98.3919 L 237.1202 98.6327 L 237.7715 99.2773 L 238.5540 99.7611 L 239.4277 100.0495 L 239.9059 100.0939 L 240.1174 100.3032 L 240.8999 100.7871 L 241.7736 101.0755 L 242.7234 101.1636 L 243.0420 101.1277 L 243.3964 101.3468 L 244.2700 101.6353 L 245.2198 101.7234 L 246.2295 101.6097 L 246.5030 101.5282 L 246.8273 101.6353 L 247.7771 101.7234 L 248.7868 101.6097 L 249.8392 101.2961 L 250.1451 101.1517 L 250.2735 101.1636 L 251.2832 101.0499 L 252.3356 100.7363 L 253.4126 100.2282 L 253.8203 99.9670 L 254.6815 99.7103 L 255.7585 99.2022 L 256.8416 98.5083 L 257.3307 98.1119 L 257.9219 97.8330 L 259.0051 97.1390 L 260.0759 96.2711 L 260.5216 95.8311 L 260.9968 95.5266 L 262.0677 94.6587 L 263.1079 93.6317 L 263.3993 93.2884 L 263.9083 92.8758 L 264.9485 91.8488 L 265.9402 90.6803 L 266.0015 90.5950 L 266.6613 89.9435 L 267.6530 88.7750 L 268.1990 88.0146 L 268.2679 87.9466 L 269.2596 86.7781 L 270.1859 85.4880 L 270.3584 85.2044 L 270.7758 84.7126 L 271.7022 83.4225 L 272.1834 82.6311 L 272.2161 82.5926 L 273.1425 81.3025 L 273.9875 79.9130 L 274.0506 79.7897 L 274.5175 79.1393 L 275.3626 77.7498 L 275.6278 77.2311 L 275.8367 76.9403 L 276.6817 75.5507 L 277.1307 74.6729 L 277.9503 73.3251 L 278.6996 71.8599 L 278.7023 71.8535 L 279.1765 71.0737 L 279.9259 69.6085 L 280.0440 69.3290 L 280.3638 68.8031 L 281.1132 67.3379 L 281.3338 66.8158 L 281.5180 66.5131 L 282.2673 65.0478 L 282.5784 64.3119 L 282.6407 64.2094 L 283.3901 62.7442 L 283.8174 61.7333 L 284.4851 60.4276 L 285.0598 59.0681 L 285.5554 58.0989 L 286.1962 56.5831 L 286.2238 56.5016 L 286.6031 55.7598 L 287.2439 54.2439 L 287.3212 54.0155 L 287.6301 53.4114 L 288.2709 51.8956 L 288.3936 51.5330 L 288.6382 51.0548 L 289.2790 49.5389 L 289.4432 49.0535 L 289.6288 48.6905 L 290.2696 47.1746 L 290.4722 46.5760 L 290.6036 46.3191 L 291.2443 44.8032 L 291.4820 44.1008 L 291.5633 43.9420 L 292.2040 42.4261 L 292.4739 41.6286 L 292.5085 41.5609 L 293.1493 40.0451 L 293.4552 39.1409 L 294.0820 37.6580 L 294.4440 36.5881 L 295.0034 35.2648 L 295.4172 34.0421 L 295.9129 32.8693 L 296.3752 31.5031 L 296.8121 30.4696 L 297.3203 28.9677 L 297.7024 28.0638 L 298.2236 26.5233 L 298.2345 26.4808 L 298.5820 25.6587 L 299.1032 24.1182 L 299.1295 24.0151 L 299.4542 23.2471 L 299.9755 21.7066 L 300.0158 21.5487 L 300.3174 20.8350 L 300.8387 19.2945 L 300.8926 19.0832 L 301.1738 18.4180 L 301.6951 16.8775 L 301.7614 16.6177 L 302.0222 16.0006 L 302.5435 14.4601 L 302.6221 14.1524 L 302.8648 13.5781 L 303.3861 12.0376 L 303.4755 11.6873 L 303.6998 11.1567 L 304.2210 9.6162 L 304.3214 9.2229 L 304.5297 8.7303 L 305.0509 7.1897 L 305.1611 6.7581 L 305.3531 6.3040 L 305.8743 4.7634 L 305.9942 4.2941 L 306.1712 3.8752 L 306.6925 2.3347 L 307.0853 0.7958 L 307.3430 -0.7150 L 307.4611 -2.1720 L 307.4376 -3.5502 L 307.2730 -4.8260 L 306.9700 -5.9777 L 306.5338 -6.9854 L 305.9718 -7.8320 L 305.2938 -8.5029 L 304.5113 -8.9868 L 303.6377 -9.2752 L 302.6879 -9.3633 L 301.6781 -9.2496 L 300.6258 -8.9360 L 299.5488 -8.4279 L 298.4656 -7.7339 L 297.3948 -6.8660 L 296.3546 -5.8390 L 295.3629 -4.6705 L 294.4365 -3.3804 L 293.5915 -1.9908 L 292.8421 -0.5256 L 292.2014 0.9902 L 291.6801 2.5308 L 291.5603 3.0001 L 291.3832 3.4190 L 290.8620 4.9595 L 290.7518 5.3912 L 290.5598 5.8453 L 290.0386 7.3859 L 289.9381 7.7792 L 289.7299 8.2718 L 289.2086 9.8123 L 289.1192 10.1626 L 288.8949 10.6932 L 288.3737 12.2337 L 288.2951 12.5414 L 288.0524 13.1157 L 287.5311 14.6562 L 287.4648 14.9161 L 287.2040 15.5331 L 286.6827 17.0736 L 286.6288 17.2849 L 286.3476 17.9501 L 285.8263 19.4906 L 285.7860 19.6485 L 285.4843 20.3622 L 284.9631 21.9027 L 284.9368 22.0057 L 284.6121 22.7737 L 284.0909 24.3143 L 284.0800 24.3568 L 283.7325 25.1789 L 283.2243 26.6807 L 282.8422 27.5847 L 282.3800 28.9508 L 281.9431 29.9843 L 281.5294 31.2070 L 281.0336 32.3799 L 280.6716 33.4497 L 280.1122 34.7730 L 279.8062 35.6772 L 279.1794 37.1601 L 278.9095 37.9577 L 278.8749 38.0253 L 278.2342 39.5412 L 277.9965 40.2436 L 277.9153 40.4024 L 277.2745 41.9183 L 277.0719 42.5169 L 276.9405 42.7738 L 276.2998 44.2897 L 276.1355 44.7751 L 275.9499 45.1381 L 275.3091 46.6540 L 275.1864 47.0165 L 274.9418 47.4948 L 274.3011 49.0106 L 274.2238 49.2390 L 273.9148 49.8431 L 273.2741 51.3590 L 273.2465 51.4405 L 272.8671 52.1823 L 272.2925 53.5418 L 271.7968 54.5110 L 271.3695 55.5218 L 270.7017 56.8275 L 270.3907 57.5634 L 270.3283 57.6659 L 269.5790 59.1312 L 269.3583 59.6532 L 269.1742 59.9560 L 268.4248 61.4212 L 268.3067 61.7008 L 267.9869 62.2266 L 267.2376 63.6919 L 267.2349 63.6982 L 266.7606 64.4780 L 266.3117 65.3559 L 265.4921 66.7036 L 265.2268 67.2223 L 265.0180 67.5131 L 264.1729 68.9027 L 264.1099 69.0260 L 263.6429 69.6763 L 263.1616 70.4677 L 263.1289 70.5062 L 262.2026 71.7963 L 262.0302 72.0799 L 261.6127 72.5717 L 261.0667 73.3321 L 260.9979 73.4001 L 260.0061 74.5686 L 259.9449 74.6539 L 259.2851 75.3054 L 258.9937 75.6487 L 258.4847 76.0613 L 258.0390 76.5013 L 257.5638 76.8057 L 257.0748 77.2021 L 256.4835 77.4810 L 256.0758 77.7422 L 255.2146 77.9989 L 254.9086 78.1432 L 254.7802 78.1313 L 253.7705 78.2450 L 253.4970 78.3265 L 253.1727 78.2194 L 252.2229 78.1313 L 251.9042 78.1672 L 251.5499 77.9481 L 250.6763 77.6597 L 250.1981 77.6153 L 249.9865 77.4060 L 249.2040 76.9221 L 248.4744 76.6813 L 247.8231 76.0367 L 247.0406 75.5529 L 246.7493 75.4567 L 246.5094 75.0953 L 245.8313 74.4243 L 245.1113 73.9792 L 244.6687 73.3124 L 243.9907 72.6414 L 243.5742 72.3839 L 243.5179 72.2537 L 242.9560 71.4071 L 242.2779 70.7362 L 242.0606 70.6018 L 241.9113 70.2568 L 241.3494 69.4102 L 240.6713 68.7393 L 240.6180 68.7063 L 240.3951 68.1913 L 239.8331 67.3447 L 239.2608 66.7783 L 238.9548 66.0713 L 238.3929 65.2247 L 237.9673 64.8036 L 237.5797 63.9081 L 237.0178 63.0615 L 236.7064 62.7534 L 236.6968 62.7168 L 236.2606 61.7091 L 235.6986 60.8625 L 235.4651 60.6313 L 235.4282 60.4912 L 234.9920 59.4835 L 234.4301 58.6369 L 234.2629 58.4715 L 234.2019 58.2398 L 233.7657 57.2321 L 233.2038 56.3855 L 233.0962 56.2790 L 233.0147 55.9692 L 232.5785 54.9615 L 232.0165 54.1149 L 231.9606 54.0595 L 231.8605 53.6791 L 231.4243 52.6714 L 230.8624 51.8248 L 230.8537 51.8162 L 230.7378 51.3754 L 230.3015 50.3677 L 229.7806 49.5828 L 229.6427 49.0589 L 229.2065 48.0512 L 228.7317 47.3359 L 228.5724 46.7302 L 228.1362 45.7225 L 227.7035 45.0706 L 227.5247 44.3911 L 227.0885 43.3833 L 226.6941 42.7892 L 226.4977 42.0427 L 226.0615 41.0350 L 225.7021 40.4936 L 225.4896 39.6860 L 225.0534 38.6783 L 224.7262 38.1853 L 224.4990 37.3218 L 224.0628 36.3140 L 223.7650 35.8655 L 223.5242 34.9504 L 223.0880 33.9426 L 222.8177 33.5354 L 222.5646 32.5732 L 222.1284 31.5655 L 221.8837 31.1969 L 221.6193 30.1922 L 221.1831 29.1845 L 220.9617 28.8509 L 220.6865 27.8051 L 220.2503 26.7974 L 220.0505 26.4963 L 219.7652 25.4120 L 219.3290 24.4042 L 219.1498 24.1343 L 218.8556 23.0164 L 218.4194 22.0087 L 218.2593 21.7673 L 217.9565 20.6167 L 217.5203 19.6090 L 217.3723 19.3860 L 217.3692 19.3626 L 217.0662 18.2109 L 216.6300 17.2032 L 216.4951 17.0000 L 216.4896 16.9574 L 216.1866 15.8058 L 215.7504 14.7981 L 215.6257 14.6102 L 215.6174 14.5459 L 215.3144 13.3943 L 214.8782 12.3865 L 214.7647 12.2156 L 214.7542 12.1338 L 214.4511 10.9822 L 214.0149 9.9744 L 213.9108 9.8175 L 213.8978 9.7168 L 213.5948 8.5652 L 213.1586 7.5574 L 213.0644 7.4155 L 213.0494 7.2994 L 212.7463 6.1478 L 212.3101 5.1400 L 212.2240 5.0103 L 212.2068 4.8769 L 211.9038 3.7252 L 211.4676 2.7175 L 211.3907 2.6017 L 211.3718 2.4555 L 211.0688 1.3039 L 210.6326 0.2962 L 210.5628 0.1910 L 210.5419 0.0290 L 210.2389 -1.1226 L 209.8027 -2.1303 L 209.7410 -2.2233 L 209.7185 -2.3973 L 209.4155 -3.5489 L 208.9793 -4.5566 L 208.9245 -4.6392 L 208.9004 -4.8260 L 208.5974 -5.9777 L 208.1612 -6.9854 L 208.1125 -7.0587 L 208.0867 -7.2588 L 207.7837 -8.4104 L 207.3475 -9.4181 L 207.2988 -9.4914 L 207.2730 -9.6915 L 206.9700 -10.8431 L 206.5338 -11.8508 L 206.4789 -11.9334 L 206.4548 -12.1203 L 206.1518 -13.2719 L 205.7156 -14.2796 L 205.6539 -14.3726 L 205.6314 -14.5466 L 205.3284 -15.6982 L 204.8922 -16.7059 L 204.8224 -16.8110 L 204.8015 -16.9730 L 204.4985 -18.1247 L 204.0623 -19.1324 L 203.9854 -19.2482 L 203.9666 -19.3944 L 203.6635 -20.5460 L 203.2273 -21.5538 L 203.1412 -21.6835 L 203.1240 -21.8169 L 202.8210 -22.9686 L 202.3848 -23.9763 L 202.2905 -24.1182 L 202.2756 -24.2343 L 201.9725 -25.3860 L 201.5363 -26.3937 L 201.4322 -26.5506 L 201.4192 -26.6513 L 201.1162 -27.8029 L 200.6800 -28.8107 L 200.5665 -28.9816 L 200.5559 -29.0634 L 200.2529 -30.2150 L 199.8167 -31.2228 L 199.6920 -31.4106 L 199.6837 -31.4750 L 199.3807 -32.6266 L 198.9445 -33.6343 L 198.8096 -33.8376 L 198.8041 -33.8801 L 198.5011 -35.0317 L 198.0649 -36.0395 L 197.9168 -36.2625 L 197.9138 -36.2859 L 197.6108 -37.4375 L 197.1746 -38.4453 L 197.0144 -38.6866 L 196.7117 -39.8372 L 196.2755 -40.8449 L 196.0963 -41.1148 L 195.8022 -42.2327 L 195.3660 -43.2405 L 195.1661 -43.5416 L 194.8808 -44.6259 L 194.4446 -45.6336 L 194.2231 -45.9672 L 193.9480 -47.0130 L 193.5118 -48.0207 L 193.2671 -48.3893 L 193.0028 -49.3940 L 192.5665 -50.4018 L 192.2962 -50.8090 L 192.0431 -51.7711 L 191.6069 -52.7789 L 191.3091 -53.2274 L 191.0683 -54.1426 L 190.6321 -55.1503 L 190.3049 -55.6433 L 190.0777 -56.5068 L 189.6415 -57.5146 L 189.2821 -58.0559 L 189.0696 -58.8635 L 188.6334 -59.8712 L 188.2391 -60.4654 L 188.0426 -61.2119 L 187.6064 -62.2196 L 187.1737 -62.8715 L 186.9949 -63.5510 L 186.5587 -64.5587 L 186.0840 -65.2740 L 185.9246 -65.8797 L 185.4884 -66.8874 L 184.9674 -67.6723 L 184.8296 -68.1962 L 184.3934 -69.2040 L 183.8314 -70.0505 L 183.8228 -70.0591 L 183.7068 -70.4999 L 183.2706 -71.5076 L 182.7087 -72.3542 L 182.6528 -72.4095 L 182.5527 -72.7900 L 182.1165 -73.7977 L 181.5545 -74.6443 L 181.4469 -74.7508 L 181.3654 -75.0606 L 180.9292 -76.0683 L 180.3672 -76.9149 L 180.2001 -77.0803 L 180.1391 -77.3120 L 179.7029 -78.3197 L 179.1410 -79.1663 L 178.9074 -79.3974 L 178.8705 -79.5376 L 178.4343 -80.5453 L 177.8724 -81.3919 L 177.5610 -81.7000 L 177.5514 -81.7366 L 177.1152 -82.7443 L 176.5533 -83.5909 L 176.1278 -84.0120 L 175.7401 -84.9075 L 175.1782 -85.7541 L 174.6059 -86.3205 L 174.2998 -87.0275 L 173.7379 -87.8741 L 173.0599 -88.5450 L 173.0065 -88.5780 L 172.7836 -89.0930 L 172.2217 -89.9396 L 171.5437 -90.6105 L 171.3264 -90.7449 L 171.1770 -91.0899 L 170.6151 -91.9365 L 169.9371 -92.6075 L 169.5206 -92.8650 L 169.4642 -92.9952 L 168.9023 -93.8418 L 168.2243 -94.5127 L 167.5043 -94.9579 L 167.0617 -95.6247 L 166.3837 -96.2956 L 165.6012 -96.7795 L 165.3099 -96.8757 L 165.0700 -97.2371 L 164.3919 -97.9080 L 163.6094 -98.3919 L 162.8798 -98.6327 L 162.2285 -99.2773 L 161.4460 -99.7611 L 160.5723 -100.0495 L 160.0941 -100.0939 L 159.8826 -100.3032 L 159.1001 -100.7871 L 158.2264 -101.0755 L 157.2766 -101.1636 L 156.9580 -101.1277 L 156.6036 -101.3468 L 155.7300 -101.6353 L 154.7802 -101.7234 L 153.7705 -101.6097 L 153.4970 -101.5282 L 153.1727 -101.6353 L 152.2229 -101.7234 L 151.2132 -101.6097 L 150.1608 -101.2961 L 149.8549 -101.1517 L 149.7265 -101.1636 L 148.7168 -101.0499 L 147.6644 -100.7363 L 146.5874 -100.2282 L 146.1797 -99.9670 L 145.3185 -99.7103 L 144.2415 -99.2022 L 143.1584 -98.5083 L 142.6693 -98.1119 L 142.0781 -97.8330 L 140.9949 -97.1390 L 139.9241 -96.2711 L 139.4784 -95.8311 L 139.0032 -95.5266 L 137.9323 -94.6587 L 136.8921 -93.6317 L 136.6007 -93.2884 L 136.0917 -92.8758 L 135.0515 -91.8488 L 134.0598 -90.6803 L 133.9985 -90.5950 L 133.3387 -89.9435 L 132.3470 -88.7750 L 131.8010 -88.0146 L 131.7321 -87.9466 L 130.7404 -86.7781 L 129.8141 -85.4880 L 129.6416 -85.2044 L 129.2242 -84.7126 L 128.2978 -83.4225 L 127.8166 -82.6311 L 127.7839 -82.5926 L 126.8575 -81.3025 L 126.0125 -79.9130 L 125.9494 -79.7897 L 125.4825 -79.1393 L 124.6374 -77.7498 L 124.3722 -77.2311 L 124.1633 -76.9403 L 123.3183 -75.5507 L 122.8693 -74.6729 L 122.0497 -73.3251 L 121.3004 -71.8599 L 121.2977 -71.8535 L 120.8235 -71.0737 L 120.0741 -69.6085 L 119.9560 -69.3290 L 119.6362 -68.8031 L 118.8868 -67.3379 L 118.6662 -66.8158 L 118.4820 -66.5131 L 117.7327 -65.0478 L 117.4216 -64.3119 L 117.3593 -64.2094 L 116.6099 -62.7442 L 116.1826 -61.7333 L 115.5149 -60.4276 L 114.9402 -59.0681 L 114.4446 -58.0989 L 113.8038 -56.5831 L 113.7762 -56.5016 L 113.3969 -55.7598 L 112.7561 -54.2439 L 112.6788 -54.0155 L 112.3699 -53.4114 L 111.7291 -51.8956 L 111.6064 -51.5330 L 111.3618 -51.0548 L 110.7210 -49.5389 L 110.5568 -49.0535 L 110.3712 -48.6905 L 109.7304 -47.1746 L 109.5278 -46.5760 L 109.3964 -46.3191 L 108.7557 -44.8032 L 108.5180 -44.1008 L 108.4367 -43.9420 L 107.7960 -42.4261 L 107.5261 -41.6286 L 107.4915 -41.5609 L 106.8507 -40.0451 L 106.5448 -39.1409 L 105.9180 -37.6580 L 105.5560 -36.5881 L 104.9966 -35.2648 L 104.5828 -34.0421 L 104.0871 -32.8693 L 103.6248 -31.5031 L 103.1879 -30.4696 L 102.6797 -28.9677 L 102.2976 -28.0638 L 101.7764 -26.5233 L 101.7655 -26.4808 L 101.4180 -25.6587 L 100.8968 -24.1182 L 100.8705 -24.0151 L 100.5458 -23.2471 L 100.0245 -21.7066 L 99.9842 -21.5487 L 99.6826 -20.8350 L 99.1613 -19.2945 L 99.1074 -19.0832 L 98.8262 -18.4180 L 98.3049 -16.8775 L 98.2386 -16.6177 L 97.9778 -16.0006 L 97.4565 -14.4601 L 97.3779 -14.1524 L 97.1352 -13.5781 L 96.6139 -12.0376 L 96.5245 -11.6873 L 96.3002 -11.1567 L 95.7790 -9.6162 L 95.6786 -9.2229 L 95.4703 -8.7303 L 94.9491 -7.1897 L 94.8389 -6.7581 L 94.6469 -6.3040 L 94.1257 -4.7634 L 94.0058 -4.2941 L 93.8288 -3.8752 L 93.3075 -2.3347 L 93.1784 -1.8288 L 93.0151 -1.4425 L 92.4938 0.0981 L 92.3647 0.6039 L 92.2014 0.9902 L 91.6801 2.5308 L 91.5603 3.0001 L 91.3832 3.4190 L 90.8620 4.9595 L 90.7518 5.3912 L 90.5598 5.8453 L 90.0386 7.3859 L 89.9381 7.7792 L 89.7299 8.2718 L 89.2086 9.8123 L 89.1192 10.1626 L 88.8949 10.6932 L 88.3737 12.2337 L 88.2951 12.5414 L 88.0524 13.1157 L 87.5311 14.6562 L 87.4648 14.9161 L 87.2040 15.5331 L 86.6827 17.0736 L 86.6288 17.2849 L 86.3476 17.9501 L 85.8263 19.4906 L 85.7860 19.6485 L 85.4843 20.3622 L 84.9631 21.9027 L 84.9368 22.0057 L 84.6121 22.7737 L 84.0909 24.3143 L 84.0800 24.3568 L 83.7325 25.1789 L 83.2243 26.6807 L 82.8422 27.5847 L 82.3800 28.9508 L 81.9431 29.9843 L 81.5294 31.2070 L 81.0336 32.3799 L 80.6716 33.4497 L 80.1122 34.7730 L 79.8062 35.6772 L 79.1794 37.1601 L 78.9095 37.9577 L 78.8749 38.0253 L 78.2342 39.5412 L 77.9965 40.2436 L 77.9153 40.4024 L 77.2745 41.9183 L 77.0719 42.5169 L 76.9405 42.7738 L 76.2998 44.2897 L 76.1355 44.7751 L 75.9499 45.1381 L 75.3091 46.6540 L 75.1864 47.0165 L 74.9418 47.4948 L 74.3011 49.0106 L 74.2238 49.2390 L 73.9148 49.8431 L 73.2741 51.3590 L 73.2465 51.4405 L 72.8671 52.1823 L 72.2925 53.5418 L 71.7968 54.5110 L 71.3695 55.5218 L 70.7017 56.8275 L 70.3907 57.5634 L 70.3283 57.6659 L 69.5790 59.1312 L 69.3583 59.6532 L 69.1742 59.9560 L 68.4248 61.4212 L 68.3067 61.7008 L 67.9869 62.2266 L 67.2376 63.6919 L 67.2349 63.6982 L 66.7606 64.4780 L 66.3117 65.3559 L 65.4921 66.7036 L 65.2268 67.2223 L 65.0180 67.5131 L 64.1729 68.9027 L 64.1099 69.0260 L 63.6429 69.6763 L 63.1616 70.4677 L 63.1289 70.5062 L 62.2026 71.7963 L 62.0302 72.0799 L 61.6127 72.5717 L 61.0667 73.3321 L 60.9979 73.4001 L 60.0061 74.5686 L 59.9449 74.6539 L 59.2851 75.3054 L 58.9937 75.6487 L 58.4847 76.0613 L 58.0390 76.5013 L 57.5638 76.8057 L 57.0748 77.2021 L 56.4835 77.4810 L 56.0758 77.7422 L 55.2146 77.9989 L 54.9086 78.1432 L 54.7802 78.1313 L 53.7705 78.2450 L 53.4970 78.3265 L 53.1727 78.2194 L 52.2229 78.1313 L 51.9042 78.1672 L 51.5499 77.9481 L 50.6763 77.6597 L 50.1981 77.6153 L 49.9865 77.4060 L 49.2040 76.9221 L 48.4744 76.6813 L 47.8231 76.0367 L 47.0406 75.5529 L 46.7493 75.4567 L 46.5094 75.0953 L 45.8313 74.4243 L 45.1113 73.9792 L 44.6687 73.3124 L 43.9907 72.6414 L 43.5742 72.3839 L 43.5179 72.2537 L 42.9560 71.4071 L 42.2779 70.7362 L 42.0606 70.6018 L 41.9113 70.2568 L 41.3494 69.4102 L 40.6713 68.7393 L 40.6180 68.7063 L 40.3951 68.1913 L 39.8331 67.3447 L 39.2608 66.7783 L 38.9548 66.0713 L 38.3929 65.2247 L 37.9673 64.8036 L 37.5797 63.9081 L 37.0178 63.0615 L 36.7064 62.7534 L 36.6968 62.7168 L 36.2606 61.7091 L 35.6986 60.8625 L 35.4651 60.6313 L 35.4282 60.4912 L 34.9920 59.4835 L 34.4301 58.6369 L 34.2629 58.4715 L 34.2019 58.2398 L 33.7657 57.2321 L 33.2038 56.3855 L 33.0962 56.2790 L 33.0147 55.9692 L 32.5785 54.9615 L 32.0165 54.1149 L 31.9606 54.0595 L 31.8605 53.6791 L 31.4243 52.6714 L 30.8624 51.8248 L 30.8537 51.8162 L 30.7378 51.3754 L 30.3015 50.3677 L 29.7806 49.5828 L 29.6427 49.0589 L 29.2065 48.0512 L 28.7317 47.3359 L 28.5724 46.7302 L 28.1362 45.7225 L 27.7035 45.0706 L 27.5247 44.3911 L 27.0885 43.3833 L 26.6941 42.7892 L 26.4977 42.0427 L 26.0615 41.0350 L 25.7021 40.4936 L 25.4896 39.6860 L 25.0534 38.6783 L 24.7262 38.1853 L 24.4990 37.3218 L 24.0628 36.3140 L 23.7650 35.8655 L 23.5242 34.9504 L 23.0880 33.9426 L 22.8177 33.5354 L 22.5646 32.5732 L 22.1284 31.5655 L 21.8837 31.1969 L 21.6193 30.1922 L 21.1831 29.1845 L 20.9617 28.8509 L 20.6865 27.8051 L 20.2503 26.7974 L 20.0505 26.4963 L 19.7652 25.4120 L 19.3290 24.4042 L 19.1498 24.1343 L 18.8556 23.0164 L 18.4194 22.0087 L 18.2593 21.7673 L 17.9565 20.6167 L 17.5203 19.6090 L 17.3723 19.3860 L 17.3692 19.3626 L 17.0662 18.2109 L 16.6300 17.2032 L 16.4951 17.0000 L 16.4896 16.9574 L 16.1866 15.8058 L 15.7504 14.7981 L 15.6257 14.6102 L 15.6174 14.5459 L 15.3144 13.3943 L 14.8782 12.3865 L 14.7647 12.2156 L 14.7542 12.1338 L 14.4511 10.9822 L 14.0149 9.9744 L 13.9108 9.8175 L 13.8978 9.7168 L 13.5948 8.5652 L 13.1586 7.5574 L 13.0644 7.4155 L 13.0494 7.2994 L 12.7463 6.1478 L 12.3101 5.1400 L 12.2240 5.0103 L 12.2068 4.8769 L 11.9038 3.7252 L 11.4676 2.7175 L 11.3907 2.6017 L 11.3718 2.4555 L 11.0688 1.3039 L 10.6326 0.2962 L 10.5628 0.1910 L 10.5419 0.0290 L 10.2389 -1.1226 L 9.8027 -2.1303 L 9.7410 -2.2233 L 9.7185 -2.3973 L 9.4155 -3.5489 L 8.9793 -4.5566 L 8.9245 -4.6392 L 8.9004 -4.8260 L 8.5974 -5.9777 L 8.1612 -6.9854 L 8.1125 -7.0587 L 8.0867 -7.2588 L 7.7837 -8.4104 L 7.3475 -9.4181 L 6.7855 -10.2647 L 6.1075 -10.9356 L 5.3250 -11.4195 L 4.4514 -11.7079 L 3.5016 -11.7960 L 2.4918 -11.6823 L 1.4395 -11.3687 L 0.3625 -10.8606 L -0.7207 -10.1666 L -1.7915 -9.2987 L -2.8317 -8.2717 L -3.8234 -7.1032 L -4.7498 -5.8131 L -5.5948 -4.4236 L -6.3442 -2.9583 L -6.9849 -1.4425 L -7.5062 0.0981 L -7.8990 1.6369 L -8.1567 3.1478 L -8.2748 4.6047 Z"/>
  <g id="debug">
  <path fill="none" stroke="#ff3366" stroke-opacity="0.6" stroke-width="0.5" d=""/>
  <path fill="none" stroke="#ff9900" stroke-opacity="0.6" stroke-width="0.6" d=""/>
  <path fill="none" stroke="#222222" stroke-opacity="0.7" stroke-width="0.6" d=""/>
  
  <path fill="none" stroke="#8844ff" stroke-opacity="0.35" stroke-width="0.6" d="M -5.3250 11.4195 L -4.5113 13.8522 L -3.6931 16.2810 L -2.8697 18.7073 L -2.0398 21.1337 L -1.2049 23.5551 L -0.3623 25.9776 L 0.4861 28.3950 L 1.3425 30.8120 L 2.2057 33.2241 L 3.0780 35.6357 L 3.9576 38.0408 L 4.8479 40.4466 L 5.7470 42.8463 L 6.6565 45.2418 L 7.5779 47.6350 L 8.5107 50.0221 L 9.4559 52.4031 L 10.4156 54.7802 L 11.3903 57.1516 L 12.3810 59.5159 L 13.3890 61.8726 L 14.4160 64.2209 L 15.4637 66.5601 L 16.5341 68.8888 L 17.6291 71.2053 L 18.7519 73.5090 L 19.9060 75.7991 L 21.0933 78.0697 L 22.3195 80.3211 L 23.5881 82.5467 L 24.9073 84.7457 L 26.2823 86.9089 L 27.7226 89.0289 L 29.2388 91.0944 L 30.8454 93.0913 L 32.5582 94.9966 L 34.3988 96.7795 L 36.3906 98.3919 L 38.5540 99.7611 L 40.8999 100.7871 L 43.3964 101.3468 L 45.9537 101.3468 L 48.4501 100.7871 L 50.7960 99.7611 L 52.9594 98.3919 L 54.9512 96.7795 L 56.7918 94.9966 L 58.5046 93.0913 L 60.1112 91.0944 L 61.6274 89.0289 L 63.0677 86.9089 L 64.4428 84.7457 L 65.7619 82.5467 L 67.0305 80.3211 L 68.2567 78.0697 L 69.4440 75.7991 L 70.5982 73.5090 L 71.7209 71.2053 L 72.8160 68.8888 L 73.8863 66.5601 L 74.9340 64.2209 L 75.9610 61.8726 L 76.9690 59.5159 L 77.9597 57.1516 L 78.9344 54.7802 L 79.8941 52.4031 L 80.8393 50.0221 L 81.7721 47.6350 L 82.6935 45.2418 L 83.6030 42.8463 L 84.5022 40.4466 L 85.3924 38.0408 L 86.2721 35.6357 L 87.1443 33.2241 L 88.0075 30.8120 L 88.8639 28.3950 L 89.7123 25.9776 L 90.5549 23.5551 L 91.3898 21.1337 L 92.2198 18.7073 L 93.0432 16.2810 L 93.8613 13.8522 L 94.6750 11.4195 L 95.4887 8.9868 L 96.3069 6.5580 L 97.1303 4.1317 L 97.9602 1.7052 L 98.7951 -0.7162 L 99.6377 -3.1387 L 100.4861 -5.5561 L 101.3425 -7.9731 L 102.2057 -10.3852 L 103.0780 -12.7967 L 103.9576 -15.2019 L 104.8479 -17.6077 L 105.7470 -20.0073 L 106.6565 -22.4029 L 107.5779 -24.7960 L 108.5107 -27.1831 L 109.4559 -29.5642 L 110.4156 -31.9413 L 111.3903 -34.3127 L 112.3810 -36.6770 L 113.3890 -39.0336 L 114.4160 -41.3820 L 115.4637 -43.7211 L 116.5341 -46.0498 L 117.6291 -48.3664 L 118.7519 -50.6700 L 119.9060 -52.9601 L 121.0933 -55.2307 L 122.3195 -57.4821 L 123.5881 -59.7077 L 124.9073 -61.9067 L 126.2823 -64.0699 L 127.7226 -66.1899 L 129.2388 -68.2554 L 130.8454 -70.2523 L 132.5582 -72.1576 L 134.3988 -73.9405 L 136.3906 -75.5529 L 138.5540 -76.9221 L 140.8999 -77.9481 L 143.3964 -78.5079 L 145.9537 -78.5079 L 148.4501 -77.9481 L 150.7960 -76.9221 L 152.9594 -75.5529 L 154.9512 -73.9405 L 156.7918 -72.1576 L 158.5046 -70.2523 L 160.1112 -68.2554 L 161.6274 -66.1899 L 163.0677 -64.0699 L 164.4428 -61.9067 L 165.7619 -59.7077 L 167.0305 -57.4821 L 168.2567 -55.2307 L 169.4440 -52.9601 L 170.5982 -50.6700 L 171.7209 -48.3664 L 172.8160 -46.0498 L 173.8863 -43.7211 L 174.9340 -41.3820 L 175.9610 -39.0336 L 176.9690 -36.6770 L 177.9597 -34.3127 L 178.9344 -31.9413 L 179.8941 -29.5642 L 180.8393 -27.1831 L 181.7721 -24.7960 L 182.6935 -22.4029 L 183.6030 -20.0073 L 184.5022 -17.6077 L 185.3924 -15.2019 L 186.2721 -12.7967 L 187.1443 -10.3852 L 188.0075 -7.9731 L 188.8639 -5.5561 L 189.7123 -3.1387 L 190.5549 -0.7162 L 191.3898 1.7052 L 192.2198 4.1317 L 193.0432 6.5580 L 193.8613 8.9868 L 194.6750 11.4195 L 195.4887 13.8522 L 196.3069 16.2810 L 197.1303 18.7073 L 197.9602 21.1337 L 198.7951 23.5551 L 199.6377 25.9776 L 200.4861 28.3950 L 201.3425 30.8120 L 202.2057 33.2241 L 203.0780 35.6357 L 203.9576 38.0408 L 204.8479 40.4466 L 205.7470 42.8463 L 206.6565 45.2418 L 207.5779 47.6350 L 208.5107 50.0221 L 209.4559 52.4031 L 210.4156 54.7802 L 211.3903 57.1516 L 212.3810 59.5159 L 213.3890 61.8726 L 214.4160 64.2209 L 215.4637 66.5601 L 216.5341 68.8888 L 217.6291 71.2053 L 218.7519 73.5090 L 219.9060 75.7991 L 221.0933 78.0697 L 222.3195 80.3211 L 223.5881 82.5467 L 224.9073 84.7457 L 226.2823 86.9089 L 227.7226 89.0289 L 229.2388 91.0944 L 230.8454 93.0913 L 232.5582 94.9966 L 234.3988 96.7795 L 236.3906 98.3919 L 238.5540 99.7611 L 240.8999 100.7871 L 243.3964 101.3468 L 245.9537 101.3468 L 248.4501 100.7871 L 250.7960 99.7611 L 252.9594 98.3919 L 254.9512 96.7795 L 256.7918 94.9966 L 258.5046 93.0913 L 260.1112 91.0944 L 261.6274 89.0289 L 263.0677 86.9089 L 264.4428 84.7457 L 265.7619 82.5467 L 267.0305 80.3211 L 268.2567 78.0697 L 269.4440 75.7991 L 270.5982 73.5090 L 271.7209 71.2053 L 272.8160 68.8888 L 273.8863 66.5601 L 274.9340 64.2209 L 275.9610 61.8726 L 276.9690 59.5159 L 277.9597 57.1516 L 278.9344 54.7802 L 279.8941 52.4031 L 280.8393 50.0221 L 281.7721 47.6350 L 282.6935 45.2418 L 283.6030 42.8463 L 284.5022 40.4466 L 285.3924 38.0408 L 286.2721 35.6357 L 287.1443 33.2241 L 288.0075 30.8120 L 288.8639 28.3950 L 289.7123 25.9776 L 290.5549 23.5551 L 291.3898 21.1337 L 292.2198 18.7073 L 293.0432 16.2810 L 293.8613 13.8522 L 294.6750 11.4195 L 305.3250 -11.4195 L 304.5113 -8.9868 L 303.6931 -6.5580 L 302.8697 -4.1317 L 302.0398 -1.7052 L 301.2049 0.7162 L 300.3623 3.1387 L 299.5139 5.5561 L 298.6575 7.9731 L 297.7943 10.3852 L 296.9220 12.7967 L 296.0424 15.2019 L 295.1521 17.6077 L 294.2530 20.0073 L 293.3435 22.4029 L 292.4221 24.7960 L 291.4893 27.1831 L 290.5441 29.5642 L 289.5844 31.9413 L 288.6097 34.3127 L 287.6190 36.6770 L 286.6110 39.0336 L 285.5840 41.3820 L 284.5363 43.7211 L 283.4659 46.0498 L 282.3709 48.3664 L 281.2481 50.6700 L 280.0940 52.9601 L 278.9067 55.2307 L 277.6805 57.4821 L 276.4119 59.7077 L 275.0927 61.9067 L 273.7177 64.0699 L 272.2774 66.1899 L 270.7612 68.2554 L 269.1546 70.2523 L 267.4418 72.1576 L 265.6012 73.9405 L 263.6094 75.5529 L 261.4460 76.9221 L 259.1001 77.9481 L 256.6036 78.5079 L 254.0463 78.5079 L 251.5499 77.9481 L 249.2040 76.9221 L 247.0406 75.5529 L 245.0488 73.9405 L 243.2082 72.1576 L 241.4954 70.2523 L 239.8888 68.2554 L 238.3726 66.1899 L 236.9323 64.0699 L 235.5572 61.9067 L 234.2381 59.7077 L 232.9695 57.4821 L 231.7433 55.2307 L 230.5560 52.9601 L 229.4018 50.6700 L 228.2791 48.3664 L 227.1840 46.0498 L 226.1137 43.7211 L 225.0660 41.3820 L 224.0390 39.0336 L 223.0310 36.6770 L 222.0403 34.3127 L 221.0656 31.9413 L 220.1059 29.5642 L 219.1607 27.1831 L 218.2279 24.7960 L 217.3065 22.4029 L 216.3970 20.0073 L 215.4978 17.6077 L 214.6076 15.2019 L 213.7279 12.7967 L 212.8557 10.3852 L 211.9925 7.9731 L 211.1361 5.5561 L 210.2877 3.1387 L 209.4451 0.7162 L 208.6102 -1.7052 L 207.7802 -4.1317 L 206.9568 -6.5580 L 206.1387 -8.9868 L 205.3250 -11.4195 L 204.5113 -13.8522 L 203.6931 -16.2810 L 202.8697 -18.7073 L 202.0398 -21.1337 L 201.2049 -23.5551 L 200.3623 -25.9776 L 199.5139 -28.3950 L 198.6575 -30.8120 L 197.7943 -33.2241 L 196.9220 -35.6357 L 196.0424 -38.0408 L 195.1521 -40.4466 L 194.2530 -42.8463 L 193.3435 -45.2418 L 192.4221 -47.6350 L 191.4893 -50.0221 L 190.5441 -52.4031 L 189.5844 -54.7802 L 188.6097 -57.1516 L 187.6190 -59.5159 L 186.6110 -61.8726 L 185.5840 -64.2209 L 184.5363 -66.5601 L 183.4659 -68.8888 L 182.3709 -71.2053 L 181.2481 -73.5090 L 180.0940 -75.7991 L 178.9067 -78.0697 L 177.6805 -80.3211 L 176.4119 -82.5467 L 175.0927 -84.7457 L 173.7177 -86.9089 L 172.2774 -89.0289 L 170.7612 -91.0944 L 169.1546 -93.0913 L 167.4418 -94.9966 L 165.6012 -96.7795 L 163.6094 -98.3919 L 161.4460 -99.7611 L 159.1001 -100.7871 L 156.6036 -101.3468 L 154.0463 -101.3468 L 151.5499 -100.7871 L 149.2040 -99.7611 L 147.0406 -98.3919 L 145.0488 -96.7795 L 143.2082 -94.9966 L 141.4954 -93.0913 L 139.8888 -91.0944 L 138.3726 -89.0289 L 136.9323 -86.9089 L 135.5572 -84.7457 L 134.2381 -82.5467 L 132.9695 -80.3211 L 131.7433 -78.0697 L 130.5560 -75.7991 L 129.4018 -73.5090 L 128.2791 -71.2053 L 127.1840 -68.8888 L 126.1137 -66.5601 L 125.0660 -64.2209 L 124.0390 -61.8726 L 123.0310 -59.5159 L 122.0403 -57.1516 L 121.0656 -54.7802 L 120.1059 -52.4031 L 119.1607 -50.0221 L 118.2279 -47.6350 L 117.3065 -45.2418 L 116.3970 -42.8463 L 115.4978 -40.4466 L 114.6076 -38.0408 L 113.7279 -35.6357 L 112.8557 -33.2241 L 111.9925 -30.8120 L 111.1361 -28.3950 L 110.2877 -25.9776 L 109.4451 -23.5551 L 108.6102 -21.1337 L 107.7802 -18.7073 L 106.9568 -16.2810 L 106.1387 -13.8522 L 105.3250 -11.4195 L 104.5113 -8.9868 L 103.6931 -6.5580 L 102.8697 -4.1317 L 102.0398 -1.7052 L 101.2049 0.7162 L 100.3623 3.1387 L 99.5139 5.5561 L 98.6575 7.9731 L 97.7943 10.3852 L 96.9220 12.7967 L 96.0424 15.2019 L 95.1521 17.6077 L 94.2530 20.0073 L 93.3435 22.4029 L 92.4221 24.7960 L 91.4893 27.1831 L 90.5441 29.5642 L 89.5844 31.9413 L 88.6097 34.3127 L 87.6190 36.6770 L 86.6110 39.0336 L 85.5840 41.3820 L 84.5363 43.7211 L 83.4659 46.0498 L 82.3709 48.3664 L 81.2481 50.6700 L 80.0940 52.9601 L 78.9067 55.2307 L 77.6805 57.4821 L 76.4119 59.7077 L 75.0927 61.9067 L 73.7177 64.0699 L 72.2774 66.1899 L 70.7612 68.2554 L 69.1546 70.2523 L 67.4418 72.1576 L 65.6012 73.9405 L 63.6094 75.5529 L 61.4460 76.9221 L 59.1001 77.9481 L 56.6036 78.5079 L 54.0463 78.5079 L 51.5499 77.9481 L 49.2040 76.9221 L 47.0406 75.5529 L 45.0488 73.9405 L 43.2082 72.1576 L 41.4954 70.2523 L 39.8888 68.2554 L 38.3726 66.1899 L 36.9323 64.0699 L 35.5572 61.9067 L 34.2381 59.7077 L 32.9695 57.4821 L 31.7433 55.2307 L 30.5560 52.9601 L 29.4018 50.6700 L 28.2791 48.3664 L 27.1840 46.0498 L 26.1137 43.7211 L 25.0660 41.3820 L 24.0390 39.0336 L 23.0310 36.6770 L 22.0403 34.3127 L 21.0656 31.9413 L 20.1059 29.5642 L 19.1607 27.1831 L 18.2279 24.7960 L 17.3065 22.4029 L 16.3970 20.0073 L 15.4978 17.6077 L 14.6076 15.2019 L 13.7279 12.7967 L 12.8557 10.3852 L 11.9925 7.9731 L 11.1361 5.5561 L 10.2877 3.1387 L 9.4451 0.7162 L 8.6102 -1.7052 L 7.7802 -4.1317 L 6.9568 -6.5580 L 6.1387 -8.9868 L 5.3250 -11.4195 L -5.3250 11.4195 Z"/>
  
  
  
</g>
</svg>