<svg xmlns="http://www.w3.org/2000/svg" width="349.5507" height="242.2826" viewBox="-19.5517 -110.1928 349.5507 242.2826">
  <path fill="black" stroke="none" fill-rule="nonzero" d="M 149.1157 -77.2931 C 151.9439 -73.5648 155.2660 -70.1640 157.6004 -66.1082 C 161.0004 -60.2008 163.9325 -53.9869 166.2244 -47.5678 C 176.9691 -17.4756 185.7088 13.3137 196.6748 43.3260 C 202.2859 58.6826 209.1533 73.5578 215.9202 88.4414 C 217.4947 91.9045 219.3275 95.3022 221.6691 98.3005 C 240.2481 122.0898 265.6348 113.5931 280.8746 91.0567 C 287.9763 80.5547 293.9040 68.4792 298.6768 56.8579 C 301.9120 48.9803 319.9991 14.3568 311.2529 -0.5755 C 308.7593 -4.8327 306.5932 -8.5000 301.8506 -9.7268 C 283.1278 -14.5697 273.8742 36.4186 273.7618 36.7165 C 270.7412 44.7276 267.5996 52.7246 263.7220 60.3577 C 263.2432 61.3003 255.5412 76.8637 250.0466 78.9345 C 246.8884 80.1247 234.2577 61.8366 227.7334 45.5424 C 216.3994 17.2365 206.9660 -11.8030 195.7570 -40.1587 C 190.0926 -54.4880 174.4446 -98.4938 151.1336 -99.3048 C 125.6092 -100.1928 110.0738 -53.8921 104.1700 -38.4402 C 96.7157 -18.9302 90.7501 1.1194 83.6468 20.7600 C 78.2163 35.7753 70.3366 56.4505 61.4797 70.3939 C 60.7765 71.5010 53.2400 82.6507 49.3928 81.4015 C 42.6644 79.2168 35.6237 65.7606 34.1191 62.9822 C 29.7895 54.9870 26.1831 46.6036 22.8131 38.1590 C 17.4282 24.6653 13.5034 10.6072 7.8733 -2.7860 C 7.3618 -4.0026 5.8822 -4.6250 4.6402 -5.0713 C 1.1581 -6.3225 -2.9697 -6.4719 -6.2457 -4.4149 C -7.6557 -3.5295 -9.5517 -1.8155 -8.9966 -0.2458 C -2.7662 17.3749 3.3059 35.0581 10.0271 52.4975 C 12.2580 58.2859 14.9575 63.8952 17.8407 69.3879 C 26.0021 84.9364 38.2012 105.0055 58.8623 97.2300 C 76.8568 90.4581 91.7730 51.1083 97.3569 37.2054 C 107.8154 11.1659 116.7756 -15.4652 127.4828 -41.4034 C 135.5941 -61.0530 137.9599 -62.6081 149.1157 -77.2931 Z"/>
  <g id="debug">
  <path fill="none" stroke="#ff3366" stroke-opacity="0.6" stroke-width="0.5" d=""/>
  <path fill="none" stroke="#ff9900" stroke-opacity="0.6" stroke-width="0.6" d=""/>
  <path fill="none" stroke="#222222" stroke-opacity="0.7" stroke-width="0.6" d=""/>
  <path fill="none" stroke="#00aaff" stroke-opacity="0.6" stroke-width="0.6" d=""/>
  
  <path fill="none" stroke="#8844ff" stroke-opacity="0.35" stroke-width="0.6" d="M -8.9966 -0.2458 L -8.1836 2.2056 L -7.3665 4.6538 L -6.5445 7.1006 L -5.7164 9.5485 L -4.8836 11.9925 L -4.0436 14.4388 L -3.1981 16.8812 L -2.3450 19.3248 L -1.4854 21.7650 L -0.6172 24.2063 L 0.2581 26.6431 L 1.1437 29.0827 L 2.0378 31.5185 L 2.9420 33.9526 L 3.8578 36.3873 L 4.7848 38.8189 L 5.7241 41.2480 L 6.6776 43.6772 L 7.6462 46.1050 L 8.6308 48.5308 L 9.6329 50.9545 L 10.6544 53.3765 L 11.6971 55.7967 L 12.7633 58.2150 L 13.8555 60.6311 L 14.9770 63.0459 L 16.1323 65.4610 L 17.3241 67.8729 L 18.5593 70.2852 L 19.8431 72.6955 L 21.1864 75.1087 L 22.5983 77.5224 L 24.0936 79.9388 L 25.6918 82.3592 L 27.4215 84.7870 L 29.3212 87.2218 L 31.4512 89.6626 L 33.8993 92.0935 L 36.7888 94.4599 L 40.2671 96.6207 L 44.3861 98.2774 L 48.9130 99.0569 L 53.3515 98.8127 L 57.3145 97.7451 L 60.7093 96.1617 L 63.6169 94.2850 L 66.1440 92.2434 L 68.3824 90.1051 L 70.4016 87.9050 L 72.2494 85.6648 L 73.9620 83.3956 L 75.5652 81.1052 L 77.0786 78.7976 L 78.5149 76.4798 L 79.8883 74.1500 L 81.2061 71.8131 L 82.4772 69.4672 L 83.7058 67.1169 L 84.8974 64.7619 L 86.0567 62.4021 L 87.1868 60.0382 L 88.2907 57.6711 L 89.3709 55.3010 L 90.4297 52.9281 L 91.4691 50.5527 L 92.4903 48.1757 L 93.4945 45.7987 L 94.4839 43.4193 L 95.4599 41.0372 L 96.4222 38.6559 L 97.3726 36.2737 L 98.3128 33.8882 L 99.2410 31.5062 L 100.1608 29.1204 L 101.0707 26.7368 L 101.9728 24.3507 L 102.8662 21.9666 L 103.7531 19.5798 L 104.6317 17.1965 L 105.5048 14.8103 L 106.3708 12.4265 L 107.2312 10.0425 L 108.0867 7.6566 L 108.9106 5.3058 L 109.7379 2.9613 L 110.5693 0.6218 L 111.4060 -1.7153 L 112.2465 -4.0446 L 113.0929 -6.3722 L 113.9436 -8.6918 L 114.8003 -11.0079 L 115.6618 -13.3159 L 116.5299 -15.6201 L 117.4029 -17.9143 L 118.2836 -20.2055 L 119.1699 -22.4867 L 120.0630 -24.7598 L 120.9639 -27.0261 L 121.8717 -29.2817 L 122.7869 -31.5264 L 123.7108 -33.7619 L 124.6431 -35.9862 L 125.5840 -38.1973 L 126.5339 -40.3943 L 127.4929 -42.5760 L 128.4615 -44.7408 L 129.4396 -46.8868 L 130.4273 -49.0115 L 131.4246 -51.1133 L 132.4318 -53.1901 L 133.4465 -55.2351 L 134.4688 -57.2469 L 135.4951 -59.2176 L 136.5235 -61.1444 L 137.5468 -63.0165 L 138.5564 -64.8250 L 139.5381 -66.5585 L 140.4702 -68.2051 L 141.3170 -69.7507 L 142.0248 -71.1879 L 142.5129 -72.5241 L 142.6801 -73.8068 L 142.4592 -75.1586 L 141.9649 -76.7414 L 141.6054 -78.5494 L 141.8063 -80.2378 L 142.6245 -81.4065 L 143.8484 -81.9160 L 145.2653 -81.8351 L 146.7422 -81.2906 L 148.2119 -80.3984 L 149.6455 -79.2457 L 151.0301 -77.8970 L 152.3640 -76.3975 L 153.6480 -74.7804 L 154.8857 -73.0694 L 156.0787 -71.2856 L 157.2331 -69.4395 L 158.3508 -67.5442 L 159.4367 -65.6053 L 160.4920 -63.6325 L 161.5199 -61.6303 L 162.5233 -59.6021 L 163.5041 -57.5517 L 164.4642 -55.4824 L 165.4053 -53.3966 L 166.3291 -51.2962 L 167.2370 -49.1828 L 168.1300 -47.0587 L 169.0086 -44.9264 L 169.8751 -42.7846 L 170.7305 -40.6338 L 171.5744 -38.4781 L 172.4084 -36.3162 L 173.2341 -34.1466 L 174.0497 -31.9762 L 174.8587 -29.7984 L 175.6594 -27.6191 L 176.4542 -25.4345 L 177.2418 -23.2489 L 178.0247 -21.0580 L 178.8009 -18.8680 L 179.5733 -16.6730 L 180.3403 -14.4782 L 181.1032 -12.2811 L 181.8631 -10.0804 L 182.5826 -7.8061 L 183.3062 -5.5353 L 184.0347 -3.2662 L 184.7691 -0.9961 L 185.5080 1.2701 L 186.2535 3.5390 L 187.0039 5.8045 L 187.7611 8.0718 L 188.5237 10.3366 L 189.2935 12.6038 L 190.0689 14.8680 L 190.8526 17.1368 L 191.6424 19.4038 L 192.4396 21.6719 L 193.2451 23.9435 L 194.0580 26.2157 L 194.8787 28.4895 L 195.7084 30.7682 L 196.5470 33.0513 L 197.3944 35.3389 L 198.2511 37.6322 L 199.1175 39.9327 L 199.9937 42.2420 L 200.8802 44.5620 L 201.7771 46.8947 L 202.6851 49.2440 L 203.6049 51.6153 L 204.5354 54.0097 L 205.4784 56.4374 L 206.4330 58.9037 L 207.4016 61.4255 L 208.3840 64.0153 L 209.3826 66.6972 L 210.4017 69.5043 L 211.4511 72.4868 L 212.5503 75.7149 L 213.7435 79.2967 L 215.1258 83.3800 L 216.8965 88.1332 L 219.4292 93.6412 L 223.2022 99.5826 L 228.3594 105.0047 L 234.2734 108.8731 L 240.0256 110.9220 L 245.1045 111.5358 L 249.4369 111.2001 L 253.1192 110.2670 L 256.2824 108.9562 L 259.0420 107.3982 L 261.4840 105.6737 L 263.6757 103.8316 L 265.6660 101.9041 L 267.4929 99.9119 L 269.1821 97.8728 L 270.7590 95.7934 L 272.2387 93.6839 L 273.6374 91.5469 L 274.9638 89.3899 L 276.2280 87.2149 L 277.4381 85.0238 L 278.6003 82.8186 L 279.7198 80.6013 L 280.8012 78.3731 L 281.8484 76.1348 L 282.8650 73.8873 L 283.8534 71.6319 L 284.8157 69.3706 L 285.7553 67.1015 L 286.6744 64.8244 L 287.5733 62.5430 L 288.4546 60.2558 L 289.3205 57.9607 L 290.1697 55.6645 L 291.0063 53.3601 L 291.8292 51.0534 L 292.6409 48.7401 L 293.4409 46.4247 L 294.2316 44.1023 L 295.0116 41.7794 L 295.7839 39.4497 L 296.5472 37.1183 L 297.3031 34.7828 L 298.0528 32.4416 L 300.7489 -12.4775 L 299.9119 -10.0320 L 299.0711 -7.5901 L 298.2257 -5.1504 L 297.3748 -2.7102 L 296.5198 -0.2748 L 295.6583 2.1621 L 294.7923 4.5942 L 293.9197 7.0261 L 293.0419 9.4535 L 292.1569 11.8807 L 291.2666 14.3018 L 290.3679 16.7239 L 289.4629 19.1401 L 288.5505 21.5527 L 287.6294 23.9631 L 286.7006 26.3679 L 285.7635 28.7670 L 284.8166 31.1627 L 283.8600 33.5531 L 282.8936 35.9369 L 281.9166 38.3137 L 280.9286 40.6829 L 279.9291 43.0438 L 278.9174 45.3953 L 277.8934 47.7360 L 276.8562 50.0656 L 275.8048 52.3839 L 274.7405 54.6858 L 273.6621 56.9727 L 272.5711 59.2395 L 271.4669 61.4881 L 270.3527 63.7126 L 269.2318 65.9114 L 268.1099 68.0823 L 266.9957 70.2258 L 265.9037 72.3438 L 264.8534 74.4482 L 263.8689 76.5646 L 262.9641 78.7414 L 262.0952 81.0459 L 261.0912 83.4722 L 259.6860 85.7788 L 257.7797 87.5247 L 255.5570 88.4318 L 253.2664 88.5329 L 251.0524 88.0039 L 248.9716 87.0184 L 247.0320 85.7077 L 245.2221 84.1613 L 243.5279 82.4419 L 241.9332 80.5912 L 240.4247 78.6392 L 238.9903 76.6066 L 237.6223 74.5122 L 236.3100 72.3641 L 235.0482 70.1739 L 233.8295 67.9458 L 232.6508 65.6886 L 231.5073 63.4054 L 230.3949 61.0991 L 229.3109 58.7729 L 228.2525 56.4294 L 227.2174 54.0705 L 226.2035 51.6978 L 225.2088 49.3127 L 224.2323 46.9170 L 223.2728 44.5131 L 222.3280 42.0995 L 221.3967 39.6764 L 220.4791 37.2479 L 219.5735 34.8126 L 218.6782 32.3688 L 217.7948 29.9234 L 216.9199 27.4697 L 216.0549 25.0135 L 215.1976 22.5509 L 214.3491 20.0865 L 213.5070 17.6156 L 212.6731 15.1446 L 211.8448 12.6675 L 211.0233 10.1896 L 210.2074 7.7083 L 209.3962 5.2224 L 208.6062 2.6975 L 207.8113 0.1758 L 207.0109 -2.3443 L 206.2036 -4.8657 L 205.3909 -7.3829 L 204.5703 -9.9025 L 203.7437 -12.4182 L 202.9088 -14.9349 L 202.0668 -17.4482 L 201.2156 -19.9626 L 200.3569 -22.4723 L 199.4873 -24.9847 L 198.6087 -27.4932 L 197.7197 -30.0001 L 196.8187 -32.5073 L 195.9063 -35.0116 L 194.9814 -37.5132 L 194.0421 -40.0149 L 193.0877 -42.5153 L 192.1175 -45.0135 L 191.1300 -47.5100 L 190.1235 -50.0047 L 189.0964 -52.4979 L 188.0467 -54.9894 L 186.9722 -57.4792 L 185.8697 -59.9684 L 184.7354 -62.4585 L 183.5671 -64.9465 L 182.3584 -67.4364 L 181.1050 -69.9262 L 179.7972 -72.4215 L 178.4272 -74.9209 L 176.9821 -77.4282 L 175.4447 -79.9470 L 173.7899 -82.4839 L 171.9829 -85.0443 L 169.9686 -87.6360 L 167.6634 -90.2575 L 164.9439 -92.8752 L 161.6477 -95.3728 L 157.6807 -97.4576 L 153.2205 -98.7080 L 148.7480 -98.8878 L 144.6872 -98.1400 L 141.1748 -96.7722 L 138.1536 -95.0313 L 135.5256 -93.0701 L 133.2003 -90.9742 L 131.1069 -88.7903 L 129.1961 -86.5477 L 127.4296 -84.2626 L 125.7806 -81.9461 L 124.2278 -79.6048 L 122.7578 -77.2472 L 121.3557 -74.8727 L 120.0135 -72.4872 L 118.7216 -70.0893 L 117.4756 -67.6843 L 116.2695 -65.2722 L 115.0986 -62.8531 L 113.9592 -60.4283 L 112.8482 -57.9984 L 111.7630 -55.5641 L 110.7011 -53.1256 L 109.6604 -50.6833 L 108.6395 -48.2382 L 107.6373 -45.7920 L 106.6513 -43.3423 L 105.6800 -40.8888 L 104.7238 -38.4352 L 103.7807 -35.9796 L 102.8490 -33.5197 L 101.9304 -31.0624 L 101.0214 -28.6003 L 100.1233 -26.1394 L 99.2339 -23.6751 L 98.3542 -21.2119 L 97.4819 -18.7450 L 96.6187 -16.2806 L 95.7620 -13.8124 L 94.9130 -11.3456 L 94.0705 -8.8775 L 93.2336 -6.4065 L 92.4236 -3.9642 L 91.6101 -1.5270 L 90.7922 0.9064 L 89.9689 3.3387 L 89.1416 5.7646 L 88.3079 8.1901 L 87.4694 10.6090 L 86.6243 13.0259 L 85.7737 15.4362 L 84.9156 17.8442 L 84.0517 20.2439 L 83.1789 22.6422 L 82.2991 25.0323 L 81.4110 27.4160 L 80.5133 29.7948 L 79.6067 32.1649 L 78.6904 34.5261 L 77.7628 36.8801 L 76.8237 39.2251 L 75.8725 41.5591 L 74.9084 43.8813 L 73.9305 46.1907 L 72.9376 48.4857 L 71.9290 50.7644 L 70.9036 53.0245 L 69.8599 55.2644 L 68.7962 57.4821 L 67.7127 59.6708 L 66.6070 61.8290 L 65.4794 63.9485 L 64.3272 66.0261 L 63.1521 68.0500 L 61.9551 70.0097 L 60.7398 71.8908 L 59.5128 73.6757 L 58.2891 75.3401 L 57.0935 76.8572 L 55.9690 78.1977 L 54.9788 79.3425 L 54.1814 80.3090 L 53.5523 81.1529 L 52.8964 81.8858 L 51.9740 82.3686 L 50.7340 82.4263 L 49.2866 82.0120 L 47.7514 81.1849 L 46.2060 80.0342 L 44.6892 78.6385 L 43.2166 77.0569 L 41.7940 75.3340 L 40.4208 73.5005 L 39.0946 71.5799 L 37.8115 69.5885 L 36.5699 67.5423 L 35.3640 65.4475 L 34.1922 63.3145 L 33.0498 61.1464 L 31.9360 58.9515 L 30.8477 56.7324 L 29.7825 54.4916 L 28.7386 52.2320 L 27.7144 49.9561 L 26.7084 47.6656 L 25.7191 45.3620 L 24.7453 43.0464 L 23.7861 40.7208 L 22.8411 38.3874 L 21.9082 36.0445 L 20.9866 33.6926 L 20.0767 31.3354 L 19.1771 28.9717 L 18.2862 26.5996 L 17.4059 24.2261 L 16.5331 21.8443 L 15.6691 19.4602 L 14.8121 17.0698 L 13.9630 14.6775 L 13.1197 12.2787 L 12.2841 9.8800 L 11.4536 7.4750 L 10.6296 5.0691 L 9.8109 2.6599 L 8.9966 0.2458 L -8.9966 -0.2458 Z"/>
  
  
  
</g>
</svg>