<svg xmlns="http://www.w3.org/2000/svg" width="333.1502" height="208.9368" viewBox="-16.3671 -104.6385 333.1502 208.9368">
  <path fill="black" stroke="none" fill-rule="nonzero" d="M -6.3671 -2.7674 C 1.9961 20.1205 12.8901 60.7808 30.9276 80.3932 C 35.9314 85.8339 40.8747 88.9406 47.8133 91.5702 C 51.8475 93.0991 56.5108 94.0378 60.6693 92.2178 C 77.1551 85.0026 90.1219 48.0861 94.4160 36.6409 C 101.2149 18.5200 106.3703 -0.1827 112.9273 -18.3926 C 121.4665 -42.1070 126.5926 -55.5567 139.4331 -75.8979 C 140.7578 -77.9965 151.3158 -89.0844 155.0083 -86.8314 C 157.2629 -85.4559 158.8521 -83.1289 160.2428 -80.8837 C 165.0183 -73.1734 169.5670 -65.2906 173.4318 -57.0859 C 184.6697 -33.2289 198.2182 11.3410 205.6470 31.1535 C 212.9592 50.6554 221.7353 75.7864 240.3343 88.0599 C 244.5584 90.8474 253.1856 94.2983 258.8523 92.8183 C 280.2268 87.2356 303.4080 13.8619 305.9487 4.1426 C 306.7831 0.9508 285.6406 -4.8073 297.4945 -0.8610 C 291.5811 12.0347 285.6708 24.9318 279.7544 37.8261 C 275.4296 47.2516 271.7478 57.0005 266.7709 66.0986 C 261.2369 76.2152 249.0965 90.0248 244.9544 86.7825 C 237.2115 80.7218 227.7123 59.7463 224.7189 52.9120 C 211.8376 23.5026 205.6927 -1.6178 193.6081 -33.0926 C 185.8610 -53.2701 172.5120 -91.6787 144.3652 -93.2187 C 118.4157 -94.6385 91.2980 6.5405 87.7695 16.4369 C 79.3145 40.1507 74.5556 52.4621 62.4726 73.1863 C 60.7351 76.1664 49.9347 89.3803 44.9253 86.7767 C 41.4016 84.9452 39.3950 80.9694 37.4204 77.5238 C 31.8697 67.8381 26.7342 57.8740 22.4533 47.5640 C 12.3050 23.1230 18.1817 0.8298 -6.3671 -2.7674 Z"/>
  <g id="debug">
  <path fill="none" stroke="#ff3366" stroke-opacity="0.6" stroke-width="0.5" d=""/>
  <path fill="none" stroke="#ff9900" stroke-opacity="0.6" stroke-width="0.6" d=""/>
  <path fill="none" stroke="#222222" stroke-opacity="0.7" stroke-width="0.6" d=""/>
  <path fill="none" stroke="#00aaff" stroke-opacity="0.6" stroke-width="0.6" d=""/>
  
  <path fill="none" stroke="#8844ff" stroke-opacity="0.35" stroke-width="0.6" d="M -0.5917 1.2688 L -0.1962 2.4531 L 0.1997 3.6350 L 0.5963 4.8149 L 0.9954 5.9978 L 1.3951 7.1784 L 1.7955 8.3567 L 2.1986 9.5384 L 2.6024 10.7178 L 3.0072 11.8951 L 3.4143 13.0745 L 3.8227 14.2528 L 4.2321 15.4291 L 4.6434 16.6056 L 5.0568 17.7828 L 5.4714 18.9581 L 5.8873 20.1315 L 6.3060 21.3069 L 6.7263 22.4811 L 7.1480 23.6536 L 7.5713 24.8242 L 7.9978 25.9972 L 8.4259 27.1686 L 8.8559 28.3382 L 9.2877 29.5062 L 9.7224 30.6749 L 10.1596 31.8433 L 10.5990 33.0100 L 11.0406 34.1751 L 11.4845 35.3387 L 11.9316 36.5027 L 12.3817 37.6660 L 12.8345 38.8279 L 13.2900 39.9881 L 13.7484 41.1467 L 14.2098 42.3039 L 14.6746 43.4598 L 15.1433 44.6157 L 15.6154 45.7700 L 16.0911 46.9226 L 16.5706 48.0734 L 17.0539 49.2224 L 17.5413 50.3696 L 18.0330 51.5150 L 18.5291 52.6584 L 19.0298 53.7998 L 19.5355 54.9391 L 20.0462 56.0762 L 20.5622 57.2109 L 21.0838 58.3432 L 21.6112 59.4727 L 22.1447 60.5994 L 22.6845 61.7231 L 23.2310 62.8433 L 23.7845 63.9599 L 24.3453 65.0726 L 24.9137 66.1808 L 25.4911 67.2863 L 26.0774 68.3873 L 26.6727 69.4828 L 27.2774 70.5721 L 27.8923 71.6552 L 28.5196 72.7340 L 29.1581 73.8046 L 29.8084 74.8661 L 30.4740 75.9221 L 31.1528 76.9666 L 31.8480 78.0019 L 32.5596 79.0249 L 33.2899 80.0356 L 34.0388 81.0305 L 34.8107 82.0109 L 35.6048 82.9713 L 36.4236 83.9096 L 37.2709 84.8244 L 38.1483 85.7104 L 39.0581 86.5625 L 40.0031 87.3749 L 40.9859 88.1403 L 42.0105 88.8509 L 43.0777 89.4954 L 44.1871 90.0608 L 45.3404 90.5347 L 46.5309 90.9012 L 47.7524 91.1470 L 48.9930 91.2612 L 50.2385 91.2382 L 51.4743 91.0792 L 52.6864 90.7918 L 53.8650 90.3880 L 55.0041 89.8819 L 56.0997 89.2886 L 57.1518 88.6212 L 58.1624 87.8911 L 59.1330 87.1086 L 60.0662 86.2820 L 60.9645 85.4183 L 61.8309 84.5230 L 62.6683 83.6002 L 63.4794 82.6534 L 64.2665 81.6852 L 65.0292 80.7013 L 65.7726 79.6999 L 66.4961 78.6854 L 67.2023 77.6578 L 67.8916 76.6199 L 68.5666 75.5703 L 69.2259 74.5142 L 69.8730 73.4482 L 70.5078 72.3745 L 71.1299 71.2959 L 71.7418 70.2099 L 72.3439 69.1173 L 72.9362 68.0200 L 73.5186 66.9191 L 74.0927 65.8132 L 74.6589 64.7027 L 75.2175 63.5881 L 75.7689 62.4697 L 76.3133 61.3478 L 76.8512 60.2228 L 77.3827 59.0948 L 77.9080 57.9646 L 78.4276 56.8317 L 78.9418 55.6962 L 79.4509 54.5583 L 79.9549 53.4181 L 80.4542 52.2757 L 80.9487 51.1319 L 81.4388 49.9863 L 81.9247 48.8388 L 82.4065 47.6896 L 82.8845 46.5387 L 83.3587 45.3861 L 83.8295 44.2319 L 84.2968 43.0760 L 84.7610 41.9185 L 85.2220 40.7593 L 85.6793 39.6003 L 86.1336 38.4404 L 86.5850 37.2790 L 87.0339 36.1160 L 87.4802 34.9515 L 87.9242 33.7853 L 88.3647 32.6204 L 88.8029 31.4543 L 89.2390 30.2866 L 89.6730 29.1172 L 90.1049 27.9468 L 90.5338 26.7780 L 90.9609 25.6074 L 91.3863 24.4351 L 91.8101 23.2611 L 92.2308 22.0895 L 92.6501 20.9162 L 93.0680 19.7410 L 93.4841 18.5650 L 93.8977 17.3907 L 94.3102 16.2144 L 94.7215 15.0362 L 95.1305 13.8596 L 95.5380 12.6823 L 95.9445 11.5030 L 96.3493 10.3238 L 96.7523 9.1454 L 97.1545 7.9649 L 97.5554 6.7837 L 97.9542 5.6043 L 98.3524 4.4225 L 98.7495 3.2399 L 99.1446 2.0592 L 99.5403 0.8732 L 99.9353 -0.3085 L 100.3321 -1.4915 L 100.7294 -2.6722 L 101.1281 -3.8527 L 101.5287 -5.0344 L 101.9300 -6.2139 L 102.3326 -7.3927 L 102.7374 -8.5732 L 103.1430 -9.7515 L 103.5497 -10.9280 L 103.9590 -12.1073 L 104.3694 -13.2846 L 104.7809 -14.4599 L 105.1946 -15.6362 L 105.6102 -16.8124 L 106.0270 -17.9867 L 106.4453 -19.1592 L 106.8665 -20.3340 L 107.2893 -21.5072 L 107.7136 -22.6787 L 108.1397 -23.8485 L 108.5688 -25.0203 L 108.9999 -26.1907 L 109.4328 -27.3593 L 109.8677 -28.5264 L 110.3053 -29.6933 L 110.7458 -30.8606 L 111.1886 -32.0263 L 111.6337 -33.1904 L 112.0814 -34.3529 L 112.5316 -35.5141 L 112.9856 -36.6762 L 113.4424 -37.8368 L 113.9021 -38.9957 L 114.3649 -40.1530 L 114.8309 -41.3088 L 115.3002 -42.4629 L 115.7731 -43.6155 L 116.2499 -44.7671 L 116.7308 -45.9178 L 117.2156 -47.0667 L 117.7045 -48.2136 L 118.1978 -49.3586 L 118.6955 -50.5015 L 119.1979 -51.6424 L 119.7053 -52.7810 L 120.2177 -53.9173 L 120.7355 -55.0511 L 121.2589 -56.1823 L 121.7882 -57.3107 L 122.3236 -58.4361 L 122.8655 -59.5583 L 123.4140 -60.6768 L 123.9701 -61.7926 L 124.5340 -62.9052 L 125.1059 -64.0134 L 125.6859 -65.1169 L 126.2747 -66.2152 L 126.8724 -67.3075 L 127.4813 -68.3964 L 128.1008 -69.4789 L 128.7309 -70.5536 L 129.3732 -71.6213 L 130.0293 -72.6825 L 130.6981 -73.7330 L 131.3830 -74.7756 L 132.0831 -75.8064 L 132.8010 -76.8258 L 133.5370 -77.8309 L 134.2942 -78.8223 L 135.0722 -79.7950 L 135.8746 -80.7488 L 136.7036 -81.6807 L 137.5605 -82.5860 L 138.4481 -83.4610 L 139.3693 -84.3006 L 140.3269 -85.0984 L 141.3234 -85.8466 L 142.3608 -86.5356 L 143.4428 -87.1556 L 144.5672 -87.6922 L 145.7334 -88.1318 L 146.9349 -88.4595 L 148.1645 -88.6624 L 149.4083 -88.7312 L 150.6522 -88.6624 L 151.8817 -88.4595 L 153.0833 -88.1318 L 154.2495 -87.6922 L 155.3739 -87.1556 L 156.4559 -86.5356 L 157.4933 -85.8466 L 158.4898 -85.0984 L 159.4474 -84.3006 L 160.3686 -83.4610 L 161.2562 -82.5860 L 162.1131 -81.6807 L 162.9420 -80.7488 L 163.7445 -79.7950 L 164.5225 -78.8223 L 165.2797 -77.8309 L 166.0156 -76.8258 L 166.7335 -75.8064 L 167.4337 -74.7756 L 168.1185 -73.7330 L 168.7873 -72.6825 L 169.4435 -71.6213 L 170.0858 -70.5536 L 170.7159 -69.4789 L 171.3354 -68.3964 L 171.9442 -67.3075 L 172.5420 -66.2152 L 173.1307 -65.1169 L 173.7108 -64.0134 L 174.2826 -62.9052 L 174.8466 -61.7926 L 175.4026 -60.6768 L 175.9512 -59.5583 L 176.4930 -58.4361 L 177.0284 -57.3107 L 177.5577 -56.1823 L 178.0811 -55.0511 L 178.5990 -53.9173 L 179.1114 -52.7810 L 179.6187 -51.6424 L 180.1212 -50.5015 L 180.6189 -49.3586 L 181.1121 -48.2136 L 181.6011 -47.0667 L 182.0859 -45.9178 L 182.5668 -44.7671 L 183.0436 -43.6155 L 183.5164 -42.4629 L 183.9858 -41.3088 L 184.4518 -40.1530 L 184.9145 -38.9957 L 185.3743 -37.8368 L 185.8310 -36.6762 L 186.2850 -35.5141 L 186.7353 -34.3529 L 187.1829 -33.1904 L 187.6281 -32.0263 L 188.0708 -30.8606 L 188.5113 -29.6933 L 188.9489 -28.5264 L 189.3839 -27.3593 L 189.8168 -26.1907 L 190.2479 -25.0203 L 190.6770 -23.8485 L 191.1030 -22.6787 L 191.5274 -21.5072 L 191.9502 -20.3340 L 192.3714 -19.1592 L 192.7896 -17.9867 L 193.2065 -16.8124 L 193.6221 -15.6362 L 194.0358 -14.4599 L 194.4473 -13.2846 L 194.8577 -12.1073 L 195.2670 -10.9280 L 195.6737 -9.7515 L 196.0793 -8.5732 L 196.4840 -7.3927 L 196.8867 -6.2139 L 197.2880 -5.0344 L 197.6885 -3.8527 L 198.0873 -2.6722 L 198.4846 -1.4915 L 198.8814 -0.3085 L 199.2764 0.8732 L 199.6721 2.0592 L 200.0672 3.2399 L 200.4643 4.4225 L 200.8625 5.6043 L 201.2613 6.7837 L 201.6622 7.9649 L 202.0644 9.1454 L 202.4673 10.3238 L 202.8722 11.5030 L 203.2787 12.6823 L 203.6862 13.8596 L 204.0952 15.0362 L 204.5065 16.2144 L 204.9189 17.3907 L 205.3326 18.5650 L 205.7487 19.7410 L 206.1666 20.9162 L 206.5859 22.0895 L 207.0066 23.2611 L 207.4304 24.4351 L 207.8558 25.6074 L 208.2829 26.7780 L 208.7118 27.9468 L 209.1436 29.1172 L 209.5777 30.2866 L 210.0138 31.4543 L 210.4520 32.6204 L 210.8925 33.7853 L 211.3364 34.9515 L 211.7828 36.1160 L 212.2316 37.2790 L 212.6831 38.4404 L 213.1373 39.6003 L 213.5947 40.7593 L 214.0557 41.9185 L 214.5198 43.0760 L 214.9872 44.2319 L 215.4579 45.3861 L 215.9322 46.5387 L 216.4102 47.6896 L 216.8920 48.8388 L 217.3779 49.9863 L 217.8679 51.1319 L 218.3624 52.2757 L 218.8617 53.4181 L 219.3658 54.5583 L 219.8748 55.6962 L 220.3890 56.8317 L 220.9086 57.9646 L 221.4339 59.0948 L 221.9655 60.2228 L 222.5033 61.3478 L 223.0478 62.4697 L 223.5992 63.5881 L 224.1578 64.7027 L 224.7240 65.8132 L 225.2981 66.9191 L 225.8805 68.0200 L 226.4727 69.1173 L 227.0748 70.2099 L 227.6867 71.2959 L 228.3089 72.3745 L 228.9437 73.4482 L 229.5908 74.5142 L 230.2500 75.5703 L 230.9251 76.6199 L 231.6143 77.6578 L 232.3206 78.6854 L 233.0440 79.6999 L 233.7874 80.7013 L 234.5502 81.6852 L 235.3373 82.6534 L 236.1484 83.6002 L 236.9858 84.5230 L 237.8522 85.4183 L 238.7505 86.2820 L 239.6836 87.1086 L 240.6543 87.8911 L 241.6649 88.6212 L 242.7170 89.2886 L 243.8125 89.8819 L 244.9517 90.3880 L 246.1303 90.7918 L 247.3423 91.0792 L 248.5782 91.2382 L 249.8237 91.2612 L 251.0643 91.1470 L 252.2858 90.9012 L 253.4762 90.5347 L 254.6296 90.0608 L 255.7390 89.4954 L 256.8062 88.8509 L 257.8308 88.1403 L 258.8136 87.3749 L 259.7586 86.5625 L 260.6683 85.7104 L 261.5457 84.8244 L 262.3931 83.9096 L 263.2119 82.9713 L 264.0060 82.0109 L 264.7779 81.0305 L 265.5268 80.0356 L 266.2571 79.0249 L 266.9687 78.0019 L 267.6639 76.9666 L 268.3427 75.9221 L 269.0083 74.8661 L 269.6586 73.8046 L 270.2970 72.7340 L 270.9243 71.6552 L 271.5393 70.5721 L 272.1440 69.4828 L 272.7392 68.3873 L 273.3255 67.2863 L 273.9030 66.1808 L 274.4714 65.0726 L 275.0322 63.9599 L 275.5856 62.8433 L 276.1321 61.7231 L 276.6720 60.5994 L 277.2055 59.4727 L 277.7329 58.3432 L 278.2545 57.2109 L 278.7705 56.0762 L 279.2812 54.9391 L 279.7868 53.7998 L 280.2876 52.6584 L 280.7837 51.5150 L 281.2754 50.3696 L 281.7628 49.2224 L 282.2461 48.0734 L 282.7255 46.9226 L 283.2013 45.7700 L 283.6734 44.6157 L 284.1421 43.4598 L 284.6069 42.3039 L 285.0683 41.1467 L 285.5267 39.9881 L 285.9822 38.8279 L 286.4349 37.6660 L 286.8850 36.5027 L 287.3322 35.3387 L 287.7761 34.1751 L 288.2177 33.0100 L 288.6570 31.8433 L 289.0942 30.6749 L 289.5289 29.5062 L 289.9608 28.3382 L 290.3907 27.1686 L 290.8189 25.9972 L 291.2453 24.8242 L 291.6687 23.6536 L 292.0904 22.4811 L 292.5107 21.3069 L 292.9293 20.1315 L 293.3452 18.9581 L 293.7598 17.7828 L 294.1732 16.6056 L 294.5845 15.4291 L 294.9940 14.2528 L 295.4024 13.0745 L 295.8095 11.8951 L 296.2142 10.7178 L 296.6181 9.5384 L 297.0211 8.3567 L 297.4216 7.1784 L 297.8213 5.9978 L 298.2203 4.8149 L 298.6170 3.6350 L 299.0129 2.4531 L 299.4083 1.2688 L 300.5917 -1.2688 L 300.1962 -0.0845 L 299.8003 1.0973 L 299.4037 2.2772 L 299.0046 3.4601 L 298.6049 4.6407 L 298.2045 5.8191 L 297.8014 7.0007 L 297.3976 8.1801 L 296.9928 9.3574 L 296.5857 10.5368 L 296.1773 11.7152 L 295.7679 12.8914 L 295.3566 14.0679 L 294.9432 15.2451 L 294.5286 16.4204 L 294.1127 17.5938 L 293.6940 18.7692 L 293.2737 19.9435 L 292.8520 21.1159 L 292.4287 22.2866 L 292.0022 23.4596 L 291.5741 24.6309 L 291.1441 25.8005 L 290.7123 26.9685 L 290.2776 28.1373 L 289.8404 29.3056 L 289.4010 30.4723 L 288.9594 31.6374 L 288.5155 32.8010 L 288.0684 33.9650 L 287.6183 35.1284 L 287.1655 36.2902 L 286.7100 37.4504 L 286.2516 38.6091 L 285.7902 39.7662 L 285.3254 40.9221 L 284.8567 42.0781 L 284.3846 43.2324 L 283.9089 44.3849 L 283.4294 45.5357 L 282.9461 46.6848 L 282.4587 47.8320 L 281.9670 48.9773 L 281.4709 50.1208 L 280.9702 51.2622 L 280.4645 52.4014 L 279.9538 53.5385 L 279.4378 54.6733 L 278.9162 55.8055 L 278.3888 56.9351 L 277.8553 58.0618 L 277.3155 59.1854 L 276.7690 60.3057 L 276.2155 61.4223 L 275.6547 62.5349 L 275.0863 63.6432 L 274.5089 64.7487 L 273.9226 65.8497 L 273.3273 66.9451 L 272.7226 68.0344 L 272.1077 69.1175 L 271.4804 70.1964 L 270.8419 71.2669 L 270.1916 72.3285 L 269.5260 73.3845 L 268.8472 74.4289 L 268.1520 75.4642 L 267.4404 76.4872 L 266.7101 77.4980 L 265.9612 78.4928 L 265.1893 79.4733 L 264.3952 80.4337 L 263.5764 81.3720 L 262.7291 82.2867 L 261.8517 83.1727 L 260.9419 84.0248 L 259.9969 84.8372 L 259.0141 85.6026 L 257.9895 86.3133 L 256.9223 86.9577 L 255.8129 87.5232 L 254.6596 87.9970 L 253.4691 88.3635 L 252.2476 88.6093 L 251.0070 88.7235 L 249.7615 88.7005 L 248.5257 88.5416 L 247.3136 88.2541 L 246.1350 87.8503 L 244.9959 87.3442 L 243.9003 86.7509 L 242.8482 86.0835 L 241.8376 85.3535 L 240.8670 84.5709 L 239.9338 83.7443 L 239.0355 82.8807 L 238.1691 81.9853 L 237.3317 81.0626 L 236.5206 80.1157 L 235.7335 79.1475 L 234.9708 78.1637 L 234.2274 77.1622 L 233.5039 76.1478 L 232.7977 75.1202 L 232.1084 74.0822 L 231.4334 73.0327 L 230.7741 71.9766 L 230.1270 70.9105 L 229.4922 69.8369 L 228.8701 68.7582 L 228.2582 67.6722 L 227.6561 66.5797 L 227.0638 65.4823 L 226.4814 64.3814 L 225.9073 63.2755 L 225.3411 62.1650 L 224.7825 61.0504 L 224.2311 59.9320 L 223.6867 58.8102 L 223.1488 57.6851 L 222.6173 56.5572 L 222.0920 55.4269 L 221.5724 54.2940 L 221.0582 53.1586 L 220.5491 52.0207 L 220.0451 50.8804 L 219.5458 49.7381 L 219.0513 48.5943 L 218.5612 47.4486 L 218.0753 46.3011 L 217.5935 45.1519 L 217.1155 44.0010 L 216.6413 42.8485 L 216.1705 41.6942 L 215.7032 40.5383 L 215.2390 39.3808 L 214.7780 38.2216 L 214.3207 37.0626 L 213.8664 35.9027 L 213.4150 34.7413 L 212.9661 33.5784 L 212.5198 32.4138 L 212.0758 31.2476 L 211.6353 30.0827 L 211.1971 28.9166 L 210.7610 27.7489 L 210.3270 26.5796 L 209.8951 25.4092 L 209.4662 24.2403 L 209.0391 23.0697 L 208.6137 21.8974 L 208.1899 20.7235 L 207.7692 19.5519 L 207.3499 18.3785 L 206.9320 17.2033 L 206.5159 16.0274 L 206.1023 14.8530 L 205.6898 13.6768 L 205.2785 12.4985 L 204.8695 11.3220 L 204.4620 10.1447 L 204.0555 8.9653 L 203.6507 7.7861 L 203.2477 6.6078 L 202.8455 5.4272 L 202.4446 4.2461 L 202.0458 3.0666 L 201.6476 1.8848 L 201.2505 0.7023 L 200.8554 -0.4784 L 200.4597 -1.6645 L 200.0647 -2.8462 L 199.6679 -4.0292 L 199.2706 -5.2098 L 198.8719 -6.3904 L 198.4713 -7.5721 L 198.0700 -8.7515 L 197.6674 -9.9304 L 197.2626 -11.1109 L 196.8570 -12.2892 L 196.4503 -13.4657 L 196.0410 -14.6450 L 195.6306 -15.8223 L 195.2191 -16.9976 L 194.8054 -18.1738 L 194.3898 -19.3500 L 193.9730 -20.5244 L 193.5547 -21.6968 L 193.1335 -22.8716 L 192.7107 -24.0449 L 192.2864 -25.2164 L 191.8603 -26.3862 L 191.4312 -27.5580 L 191.0001 -28.7283 L 190.5672 -29.8970 L 190.1323 -31.0641 L 189.6947 -32.2310 L 189.2542 -33.3983 L 188.8114 -34.5639 L 188.3663 -35.7280 L 187.9186 -36.8905 L 187.4684 -38.0517 L 187.0144 -39.2139 L 186.5576 -40.3744 L 186.0979 -41.5333 L 185.6351 -42.6907 L 185.1691 -43.8464 L 184.6998 -45.0006 L 184.2269 -46.1532 L 183.7501 -47.3048 L 183.2692 -48.4555 L 182.7844 -49.6043 L 182.2955 -50.7513 L 181.8022 -51.8962 L 181.3045 -53.0392 L 180.8021 -54.1800 L 180.2947 -55.3187 L 179.7823 -56.4550 L 179.2645 -57.5888 L 178.7411 -58.7200 L 178.2118 -59.8484 L 177.6764 -60.9738 L 177.1345 -62.0959 L 176.5860 -63.2145 L 176.0299 -64.3302 L 175.4660 -65.4428 L 174.8941 -66.5511 L 174.3141 -67.6546 L 173.7253 -68.7528 L 173.1276 -69.8452 L 172.5187 -70.9340 L 171.8992 -72.0165 L 171.2691 -73.0913 L 170.6268 -74.1589 L 169.9707 -75.2202 L 169.3019 -76.2707 L 168.6170 -77.3133 L 167.9169 -78.3440 L 167.1990 -79.3635 L 166.4630 -80.3686 L 165.7058 -81.3600 L 164.9278 -82.3327 L 164.1254 -83.2864 L 163.2964 -84.2183 L 162.4395 -85.1237 L 161.5519 -85.9987 L 160.6307 -86.8382 L 159.6731 -87.6360 L 158.6766 -88.3842 L 157.6392 -89.0733 L 156.5572 -89.6933 L 155.4328 -90.2299 L 154.2666 -90.6695 L 153.0651 -90.9971 L 151.8355 -91.2001 L 150.5917 -91.2688 L 149.3478 -91.2001 L 148.1183 -90.9971 L 146.9167 -90.6695 L 145.7505 -90.2299 L 144.6261 -89.6933 L 143.5441 -89.0733 L 142.5067 -88.3842 L 141.5102 -87.6360 L 140.5526 -86.8382 L 139.6314 -85.9987 L 138.7438 -85.1237 L 137.8869 -84.2183 L 137.0580 -83.2864 L 136.2555 -82.3327 L 135.4775 -81.3600 L 134.7203 -80.3686 L 133.9844 -79.3635 L 133.2665 -78.3440 L 132.5663 -77.3133 L 131.8815 -76.2707 L 131.2127 -75.2202 L 130.5565 -74.1589 L 129.9142 -73.0913 L 129.2841 -72.0165 L 128.6646 -70.9340 L 128.0558 -69.8452 L 127.4580 -68.7528 L 126.8693 -67.6546 L 126.2892 -66.5511 L 125.7174 -65.4428 L 125.1534 -64.3302 L 124.5974 -63.2145 L 124.0488 -62.0959 L 123.5070 -60.9738 L 122.9716 -59.8484 L 122.4423 -58.7200 L 121.9189 -57.5888 L 121.4010 -56.4550 L 120.8886 -55.3187 L 120.3813 -54.1800 L 119.8788 -53.0392 L 119.3811 -51.8962 L 118.8879 -50.7513 L 118.3989 -49.6043 L 117.9141 -48.4555 L 117.4332 -47.3048 L 116.9564 -46.1532 L 116.4836 -45.0006 L 116.0142 -43.8464 L 115.5482 -42.6907 L 115.0855 -41.5333 L 114.6257 -40.3744 L 114.1690 -39.2139 L 113.7150 -38.0517 L 113.2647 -36.8905 L 112.8171 -35.7280 L 112.3719 -34.5639 L 111.9292 -33.3983 L 111.4887 -32.2310 L 111.0511 -31.0641 L 110.6161 -29.8970 L 110.1832 -28.7283 L 109.7521 -27.5580 L 109.3230 -26.3862 L 108.8970 -25.2164 L 108.4726 -24.0449 L 108.0498 -22.8716 L 107.6286 -21.6968 L 107.2104 -20.5244 L 106.7935 -19.3500 L 106.3779 -18.1738 L 105.9642 -16.9976 L 105.5527 -15.8223 L 105.1423 -14.6450 L 104.7330 -13.4657 L 104.3263 -12.2892 L 103.9207 -11.1109 L 103.5160 -9.9304 L 103.1133 -8.7515 L 102.7120 -7.5721 L 102.3115 -6.3904 L 101.9127 -5.2098 L 101.5154 -4.0292 L 101.1186 -2.8462 L 100.7236 -1.6645 L 100.3279 -0.4784 L 99.9328 0.7023 L 99.5357 1.8848 L 99.1375 3.0666 L 98.7387 4.2461 L 98.3378 5.4272 L 97.9356 6.6078 L 97.5327 7.7861 L 97.1278 8.9653 L 96.7213 10.1447 L 96.3138 11.3220 L 95.9048 12.4985 L 95.4935 13.6768 L 95.0811 14.8530 L 94.6674 16.0274 L 94.2513 17.2033 L 93.8334 18.3785 L 93.4141 19.5519 L 92.9934 20.7235 L 92.5696 21.8974 L 92.1442 23.0697 L 91.7171 24.2403 L 91.2882 25.4092 L 90.8564 26.5796 L 90.4223 27.7489 L 89.9862 28.9166 L 89.5480 30.0827 L 89.1075 31.2476 L 88.6636 32.4138 L 88.2172 33.5784 L 87.7684 34.7413 L 87.3169 35.9027 L 86.8627 37.0626 L 86.4053 38.2216 L 85.9443 39.3808 L 85.4802 40.5383 L 85.0128 41.6942 L 84.5421 42.8485 L 84.0678 44.0010 L 83.5898 45.1519 L 83.1080 46.3011 L 82.6221 47.4486 L 82.1321 48.5943 L 81.6376 49.7381 L 81.1383 50.8804 L 80.6342 52.0207 L 80.1252 53.1586 L 79.6110 54.2940 L 79.0914 55.4269 L 78.5661 56.5572 L 78.0345 57.6851 L 77.4967 58.8102 L 76.9522 59.9320 L 76.4008 61.0504 L 75.8422 62.1650 L 75.2760 63.2755 L 74.7019 64.3814 L 74.1195 65.4823 L 73.5273 66.5797 L 72.9252 67.6722 L 72.3133 68.7582 L 71.6911 69.8369 L 71.0563 70.9105 L 70.4092 71.9766 L 69.7500 73.0327 L 69.0749 74.0822 L 68.3857 75.1202 L 67.6794 76.1478 L 66.9560 77.1622 L 66.2126 78.1637 L 65.4498 79.1475 L 64.6627 80.1157 L 63.8516 81.0626 L 63.0142 81.9853 L 62.1478 82.8807 L 61.2495 83.7443 L 60.3164 84.5709 L 59.3457 85.3535 L 58.3351 86.0835 L 57.2830 86.7509 L 56.1875 87.3442 L 55.0483 87.8503 L 53.8697 88.2541 L 52.6577 88.5416 L 51.4218 88.7005 L 50.1763 88.7235 L 48.9357 88.6093 L 47.7142 88.3635 L 46.5238 87.9970 L 45.3704 87.5232 L 44.2610 86.9577 L 43.1938 86.3133 L 42.1692 85.6026 L 41.1864 84.8372 L 40.2414 84.0248 L 39.3317 83.1727 L 38.4543 82.2867 L 37.6069 81.3720 L 36.7881 80.4337 L 35.9940 79.4733 L 35.2221 78.4928 L 34.4732 77.4980 L 33.7429 76.4872 L 33.0313 75.4642 L 32.3361 74.4289 L 31.6573 73.3845 L 30.9917 72.3285 L 30.3414 71.2669 L 29.7030 70.1964 L 29.0757 69.1175 L 28.4607 68.0344 L 27.8560 66.9451 L 27.2608 65.8497 L 26.6745 64.7487 L 26.0970 63.6432 L 25.5286 62.5349 L 24.9678 61.4223 L 24.4144 60.3057 L 23.8679 59.1854 L 23.3280 58.0618 L 22.7945 56.9351 L 22.2671 55.8055 L 21.7455 54.6733 L 21.2295 53.5385 L 20.7188 52.4014 L 20.2132 51.2622 L 19.7124 50.1208 L 19.2163 48.9773 L 18.7246 47.8320 L 18.2372 46.6848 L 17.7539 45.5357 L 17.2745 44.3849 L 16.7987 43.2324 L 16.3266 42.0781 L 15.8579 40.9221 L 15.3931 39.7662 L 14.9317 38.6091 L 14.4733 37.4504 L 14.0178 36.2902 L 13.5651 35.1284 L 13.1150 33.9650 L 12.6678 32.8010 L 12.2239 31.6374 L 11.7823 30.4723 L 11.3430 29.3056 L 10.9058 28.1373 L 10.4711 26.9685 L 10.0392 25.8005 L 9.6093 24.6309 L 9.1811 23.4596 L 8.7547 22.2866 L 8.3313 21.1159 L 7.9096 19.9435 L 7.4893 18.7692 L 7.0707 17.5938 L 6.6548 16.4204 L 6.2402 15.2451 L 5.8268 14.0679 L 5.4155 12.8914 L 5.0060 11.7152 L 4.5976 10.5368 L 4.1905 9.3574 L 3.7858 8.1801 L 3.3819 7.0007 L 2.9789 5.8191 L 2.5784 4.6407 L 2.1787 3.4601 L 1.7797 2.2772 L 1.3830 1.0973 L 0.9871 -0.0845 L 0.5917 -1.2688 L -0.5917 1.2688 Z"/>
  
  
  
</g>
</svg>