<svg xmlns="http://www.w3.org/2000/svg" width="334.8421" height="213.0613" viewBox="-17.8279 -106.5307 334.8421 213.0613">
  <path fill="black" stroke="none" fill-rule="evenodd" d="M -7.8279 -1.0864 L -7.7830 -0.2264 L -7.6048 0.6374 L -7.2966 1.4904 L -6.9745 2.1057 L -6.9693 2.2063 L -6.7911 3.0702 L -6.4829 3.9231 L -6.1557 4.5483 L -6.1511 4.6351 L -5.9730 5.4989 L -5.6648 6.3519 L -5.3315 6.9885 L -5.3277 7.0614 L -5.1496 7.9252 L -4.8413 8.7782 L -4.5009 9.4286 L -4.4978 9.4879 L -4.3197 10.3517 L -4.0114 11.2046 L -3.6651 11.8664 L -3.6628 11.9092 L -3.4847 12.7731 L -3.1765 13.6260 L -2.8217 14.3037 L -2.8203 14.3318 L -2.6422 15.1956 L -2.3339 16.0485 L -1.9724 16.7393 L -1.9719 16.7491 L -1.7937 17.6130 L -1.4855 18.4659 L -1.1132 19.1772 L -0.9374 20.0300 L -0.6291 20.8829 L -0.2438 21.6190 L -0.0741 22.4421 L 0.2341 23.2950 L 0.6344 24.0597 L 0.7981 24.8536 L 1.1063 25.7066 L 1.5210 26.4989 L 1.6777 27.2588 L 1.9860 28.1117 L 2.4180 28.9372 L 2.5680 29.6646 L 2.8763 30.5175 L 3.3093 31.3449 L 3.3228 31.3642 L 3.4671 32.0642 L 3.7754 32.9171 L 4.2085 33.7446 L 4.2378 33.7866 L 4.3767 34.4598 L 4.6849 35.3127 L 5.1180 36.1402 L 5.1649 36.2073 L 5.2980 36.8530 L 5.6063 37.7059 L 6.0394 38.5333 L 6.1042 38.6262 L 6.2308 39.2400 L 6.5391 40.0930 L 6.9722 40.9204 L 7.0565 41.0410 L 7.1761 41.6211 L 7.4843 42.4740 L 7.9174 43.3014 L 8.0233 43.4530 L 8.1357 43.9982 L 8.4440 44.8511 L 8.8771 45.6786 L 9.0060 45.8631 L 9.1105 46.3696 L 9.4187 47.2225 L 9.8518 48.0500 L 10.0054 48.2698 L 10.1011 48.7339 L 10.4094 49.5868 L 10.8425 50.4142 L 11.0230 50.6725 L 11.1092 51.0905 L 11.4174 51.9435 L 11.8505 52.7709 L 12.0603 53.0712 L 12.1362 53.4389 L 12.4444 54.2918 L 12.8775 55.1193 L 13.1194 55.4654 L 13.1839 55.7780 L 13.4921 56.6310 L 13.9252 57.4584 L 14.2023 57.8549 L 14.2542 58.1067 L 14.5624 58.9597 L 14.9955 59.7871 L 15.3112 60.2388 L 15.3493 60.4233 L 15.6575 61.2762 L 16.0906 62.1036 L 16.4493 62.6170 L 16.4720 62.7269 L 16.7803 63.5799 L 17.2133 64.4073 L 17.6206 64.9901 L 17.6262 65.0170 L 17.9344 65.8699 L 18.3675 66.6974 L 18.8493 67.3868 L 19.1217 68.1406 L 19.5548 68.9680 L 20.1053 69.7558 L 20.1266 69.7795 L 20.3479 70.3919 L 20.7810 71.2194 L 21.3316 72.0072 L 21.4394 72.1275 L 21.6165 72.6175 L 22.0496 73.4450 L 22.6001 74.2328 L 22.8088 74.4655 L 22.9356 74.8166 L 23.3687 75.6440 L 23.9193 76.4318 L 24.2433 76.7933 L 24.3107 76.9798 L 24.7438 77.8072 L 25.2943 78.5950 L 25.7569 79.1110 L 26.1841 79.9272 L 26.7346 80.7150 L 27.3932 81.4496 L 27.4358 81.4874 L 27.7003 81.9927 L 28.2509 82.7805 L 28.9094 83.5151 L 29.1874 83.7614 L 29.3069 83.9896 L 29.8574 84.7774 L 30.5160 85.5120 L 31.1357 86.0609 L 31.5702 86.6827 L 32.2288 87.4173 L 32.9841 88.0862 L 33.3029 88.3111 L 33.4108 88.4656 L 34.0694 89.2002 L 34.8247 89.8691 L 35.6638 90.4609 L 35.8272 90.5517 L 36.0611 90.8126 L 36.8164 91.4815 L 37.6556 92.0733 L 38.5641 92.5778 L 38.7707 92.6655 L 38.9799 92.8508 L 39.8190 93.4426 L 40.7276 93.9471 L 41.6901 94.3557 L 42.2942 94.5403 L 43.0735 94.9730 L 44.0360 95.3816 L 45.0359 95.6873 L 46.0562 95.8849 L 46.4841 95.9209 L 46.5324 95.9414 L 47.5324 96.2471 L 48.5527 96.4446 L 49.5759 96.5307 L 50.5844 96.5037 L 51.0626 96.4355 L 51.1100 96.4446 L 52.1332 96.5307 L 53.1418 96.5037 L 54.1185 96.3643 L 55.0466 96.1147 L 55.4490 95.9490 L 55.6382 95.9440 L 56.6149 95.8045 L 57.5430 95.5549 L 58.4066 95.1994 L 59.1910 94.7442 L 59.2438 94.7024 L 59.8889 94.5289 L 60.7525 94.1735 L 61.5369 93.7182 L 62.2286 93.1710 L 62.3554 93.0349 L 62.9159 92.8042 L 63.7003 92.3490 L 64.3921 91.8017 L 64.9793 91.1719 L 65.0031 91.1365 L 65.6921 90.7366 L 66.3838 90.1893 L 66.9710 89.5595 L 67.2804 89.1001 L 67.5327 88.9537 L 68.2244 88.4064 L 68.8116 87.7766 L 69.2843 87.0748 L 69.3255 86.9851 L 69.9372 86.5012 L 70.5244 85.8713 L 70.9971 85.1696 L 71.1652 84.8038 L 71.5438 84.5043 L 72.1310 83.8744 L 72.6037 83.1726 L 72.8730 82.5867 L 73.0600 82.4387 L 73.6472 81.8088 L 74.1199 81.1071 L 74.4699 80.3455 L 74.4709 80.3420 L 74.5003 80.3188 L 75.0875 79.6889 L 75.5602 78.9872 L 75.9102 78.2256 L 75.9519 78.0736 L 76.4626 77.5257 L 76.9353 76.8240 L 77.2853 76.0624 L 77.3641 75.7746 L 77.7817 75.3267 L 78.2544 74.6249 L 78.6044 73.8633 L 78.7146 73.4612 L 79.0503 73.1010 L 79.5230 72.3993 L 79.8730 71.6377 L 80.0108 71.1348 L 80.2766 70.8497 L 80.7492 70.1479 L 81.0992 69.3863 L 81.2607 68.7970 L 81.4639 68.5790 L 81.9365 67.8773 L 82.2865 67.1157 L 82.4693 66.4485 L 82.6180 66.2890 L 83.0907 65.5872 L 83.4407 64.8257 L 83.6417 64.0915 L 83.7408 63.9853 L 84.2134 63.2836 L 84.5634 62.5220 L 84.7810 61.7275 L 84.8358 61.6688 L 85.3085 60.9670 L 85.6585 60.2054 L 85.8799 59.3970 L 85.8833 59.3645 L 85.9061 59.3401 L 86.3788 58.6384 L 86.7288 57.8768 L 86.9502 57.0684 L 86.9580 56.9947 L 87.4265 56.2992 L 87.7765 55.5376 L 87.9979 54.7292 L 88.0107 54.6082 L 88.4535 53.9508 L 88.8035 53.1893 L 89.0249 52.3809 L 89.0423 52.2166 L 89.4615 51.5942 L 89.8116 50.8326 L 90.0330 50.0242 L 90.0545 49.8203 L 90.4522 49.2299 L 90.8022 48.4683 L 91.0236 47.6599 L 91.0490 47.4195 L 91.4269 46.8585 L 91.7770 46.0969 L 91.9984 45.2885 L 92.0273 45.0148 L 92.3866 44.4814 L 92.7366 43.7198 L 92.9580 42.9114 L 92.9902 42.6076 L 93.3318 42.1003 L 93.6819 41.3388 L 93.9033 40.5304 L 93.9385 40.1975 L 94.2646 39.7133 L 94.6147 38.9517 L 94.8361 38.1433 L 94.8741 37.7831 L 95.1860 37.3201 L 95.5360 36.5585 L 95.7574 35.7501 L 95.7980 35.3662 L 96.0955 34.9245 L 96.4456 34.1629 L 96.6670 33.3545 L 96.7100 32.9475 L 96.9947 32.5249 L 97.3447 31.7633 L 97.5661 30.9549 L 97.6116 30.5250 L 97.8849 30.1191 L 98.2350 29.3575 L 98.4564 28.5491 L 98.5037 28.1012 L 98.7646 27.7139 L 99.1146 26.9524 L 99.3360 26.1440 L 99.3856 25.6754 L 99.6368 25.3024 L 99.9868 24.5408 L 100.2082 23.7324 L 100.2595 23.2474 L 100.5000 22.8903 L 100.8501 22.1287 L 101.0715 21.3203 L 101.1246 20.8174 L 101.3564 20.4733 L 101.7064 19.7117 L 101.9278 18.9033 L 101.9826 18.3859 L 102.2048 18.0559 L 102.5548 17.2943 L 102.7762 16.4859 L 102.8327 15.9521 L 103.0474 15.6334 L 103.3974 14.8718 L 103.6188 14.0634 L 103.6765 13.5176 L 103.8824 13.2120 L 104.2324 12.4504 L 104.4538 11.6420 L 104.5131 11.0812 L 104.7123 10.7855 L 105.0623 10.0240 L 105.2837 9.2156 L 105.3442 8.6435 L 105.5357 8.3592 L 105.8857 7.5976 L 106.1071 6.7893 L 106.1689 6.2050 L 106.3538 5.9305 L 106.7038 5.1689 L 106.9252 4.3605 L 106.9884 3.7637 L 107.1675 3.4977 L 107.5175 2.7362 L 107.7389 1.9278 L 107.8021 1.3310 L 107.9812 1.0650 L 108.3312 0.3034 L 108.5526 -0.5050 L 108.6144 -1.0892 L 108.7994 -1.3637 L 109.1494 -2.1253 L 109.3708 -2.9337 L 109.4313 -3.5058 L 109.6228 -3.7901 L 109.9728 -4.5516 L 110.1942 -5.3600 L 110.2535 -5.9208 L 110.4527 -6.2165 L 110.8027 -6.9781 L 111.0241 -7.7865 L 111.0818 -8.3323 L 111.2876 -8.6379 L 111.6377 -9.3995 L 111.8591 -10.2079 L 111.9155 -10.7417 L 112.1302 -11.0604 L 112.4802 -11.8220 L 112.7016 -12.6304 L 112.7564 -13.1478 L 112.9786 -13.4778 L 113.3287 -14.2394 L 113.5500 -15.0478 L 113.6032 -15.5507 L 113.8350 -15.8948 L 114.1850 -16.6564 L 114.4064 -17.4648 L 114.4577 -17.9498 L 114.6983 -18.3069 L 115.0483 -19.0685 L 115.2697 -19.8769 L 115.3192 -20.3455 L 115.5705 -20.7185 L 115.9205 -21.4800 L 116.1419 -22.2884 L 116.1893 -22.7364 L 116.4501 -23.1236 L 116.8001 -23.8852 L 117.0215 -24.6936 L 117.0670 -25.1235 L 117.3404 -25.5294 L 117.6904 -26.2910 L 117.9118 -27.0994 L 117.9548 -27.5064 L 118.2395 -27.9290 L 118.5895 -28.6906 L 118.8109 -29.4990 L 118.8515 -29.8830 L 119.1490 -30.3246 L 119.4990 -31.0862 L 119.7204 -31.8946 L 119.7585 -32.2548 L 120.0704 -32.7178 L 120.4204 -33.4794 L 120.6418 -34.2878 L 120.6770 -34.6206 L 121.0032 -35.1048 L 121.3532 -35.8664 L 121.5746 -36.6748 L 121.6067 -36.9786 L 121.9484 -37.4859 L 122.2984 -38.2475 L 122.5198 -39.0559 L 122.5488 -39.3296 L 122.9081 -39.8630 L 123.2581 -40.6246 L 123.4795 -41.4330 L 123.5049 -41.6734 L 123.8828 -42.2344 L 124.2329 -42.9960 L 124.4543 -43.8044 L 124.4758 -44.0083 L 124.8735 -44.5987 L 125.2235 -45.3603 L 125.4449 -46.1687 L 125.4623 -46.3329 L 125.8815 -46.9553 L 126.2316 -47.7169 L 126.4530 -48.5253 L 126.4658 -48.6464 L 126.9085 -49.3037 L 127.2586 -50.0653 L 127.4800 -50.8737 L 127.4877 -50.9473 L 127.9562 -51.6429 L 128.3063 -52.4044 L 128.5277 -53.2128 L 128.5311 -53.2454 L 128.5539 -53.2698 L 129.0266 -53.9715 L 129.3766 -54.7331 L 129.5942 -55.5276 L 129.6489 -55.5864 L 130.1216 -56.2881 L 130.4716 -57.0497 L 130.6727 -57.7838 L 130.7717 -57.8900 L 131.2444 -58.5918 L 131.5944 -59.3533 L 131.7771 -60.0206 L 131.9259 -60.1801 L 132.3985 -60.8818 L 132.7485 -61.6434 L 132.9099 -62.2328 L 133.1131 -62.4507 L 133.5858 -63.1524 L 133.9358 -63.9140 L 134.0736 -64.4170 L 134.3394 -64.7021 L 134.8120 -65.4038 L 135.1621 -66.1654 L 135.2722 -66.5676 L 135.6080 -66.9277 L 136.0806 -67.6294 L 136.4306 -68.3910 L 136.5095 -68.6788 L 136.9271 -69.1268 L 137.3998 -69.8285 L 137.7498 -70.5901 L 137.7914 -70.7421 L 138.3022 -71.2899 L 138.7748 -71.9917 L 139.1249 -72.7532 L 139.1258 -72.7567 L 139.1552 -72.7800 L 139.7425 -73.4099 L 140.2151 -74.1116 L 140.4844 -74.6976 L 140.6715 -74.8455 L 141.2587 -75.4754 L 141.7314 -76.1772 L 141.8995 -76.5429 L 142.2781 -76.8425 L 142.8653 -77.4723 L 143.3379 -78.1741 L 143.3792 -78.2638 L 143.9908 -78.7477 L 144.5781 -79.3776 L 144.8875 -79.8370 L 145.1397 -79.9834 L 145.8315 -80.5306 L 146.4187 -81.1605 L 146.4425 -81.1959 L 147.1315 -81.5958 L 147.8232 -82.1430 L 147.9500 -82.2791 L 148.5105 -82.5098 L 149.2949 -82.9650 L 149.3477 -83.0068 L 149.9928 -83.1803 L 150.3952 -83.3459 L 150.5844 -83.3510 L 151.0626 -83.4192 L 151.1100 -83.4101 L 151.5378 -83.3741 L 151.5862 -83.3536 L 152.1902 -83.1689 L 152.9695 -82.7362 L 153.1761 -82.6485 L 153.3853 -82.4632 L 154.2244 -81.8714 L 154.3878 -81.7807 L 154.6217 -81.5198 L 155.3770 -80.8508 L 155.6958 -80.6260 L 155.8038 -80.4715 L 156.4623 -79.7369 L 157.0821 -79.1880 L 157.5166 -78.5662 L 158.1751 -77.8316 L 158.4532 -77.5853 L 158.5727 -77.3571 L 159.1232 -76.5693 L 159.7817 -75.8347 L 159.8244 -75.7969 L 160.0889 -75.2916 L 160.6394 -74.5038 L 161.1020 -73.9878 L 161.5292 -73.1716 L 162.0797 -72.3838 L 162.4038 -72.0223 L 162.4712 -71.8359 L 162.9042 -71.0084 L 163.4548 -70.2206 L 163.6634 -69.9879 L 163.7903 -69.6368 L 164.2234 -68.8094 L 164.7739 -68.0216 L 164.8818 -67.9013 L 165.0589 -67.4112 L 165.4920 -66.5838 L 166.0425 -65.7960 L 166.0638 -65.7722 L 166.2851 -65.1598 L 166.7182 -64.3324 L 167.2000 -63.6429 L 167.4724 -62.8892 L 167.9055 -62.0618 L 168.3127 -61.4790 L 168.3183 -61.4521 L 168.6265 -60.5991 L 169.0596 -59.7717 L 169.4184 -59.2583 L 169.4411 -59.1484 L 169.7493 -58.2955 L 170.1824 -57.4680 L 170.4981 -57.0163 L 170.5361 -56.8319 L 170.8444 -55.9789 L 171.2774 -55.1515 L 171.5545 -54.7550 L 171.6064 -54.5032 L 171.9147 -53.6502 L 172.3478 -52.8228 L 172.5897 -52.4766 L 172.6541 -52.1640 L 172.9624 -51.3111 L 173.3955 -50.4837 L 173.6053 -50.1834 L 173.6811 -49.8157 L 173.9894 -48.9627 L 174.4225 -48.1353 L 174.6030 -47.8770 L 174.6892 -47.4590 L 174.9974 -46.6061 L 175.4305 -45.7786 L 175.5842 -45.5588 L 175.6798 -45.0947 L 175.9881 -44.2418 L 176.4212 -43.4144 L 176.5501 -43.2298 L 176.6546 -42.7233 L 176.9628 -41.8704 L 177.3959 -41.0429 L 177.5018 -40.8914 L 177.6143 -40.3462 L 177.9225 -39.4933 L 178.3556 -38.6658 L 178.4399 -38.5452 L 178.5595 -37.9652 L 178.8677 -37.1122 L 179.3008 -36.2848 L 179.3657 -36.1920 L 179.4923 -35.5781 L 179.8005 -34.7252 L 180.2336 -33.8977 L 180.2805 -33.8306 L 180.4137 -33.1849 L 180.7219 -32.3320 L 181.1550 -31.5046 L 181.1844 -31.4625 L 181.3232 -30.7893 L 181.6314 -29.9364 L 182.0645 -29.1090 L 182.0780 -29.0897 L 182.2223 -28.3897 L 182.5305 -27.5368 L 182.9626 -26.7113 L 183.1126 -25.9839 L 183.4208 -25.1310 L 183.8355 -24.3387 L 183.9922 -23.5788 L 184.3005 -22.7258 L 184.7007 -21.9611 L 184.8644 -21.1672 L 185.1727 -20.3143 L 185.5580 -19.5782 L 185.7277 -18.7551 L 186.0359 -17.9022 L 186.4082 -17.1909 L 186.5840 -16.3381 L 186.8923 -15.4852 L 187.2538 -14.7945 L 187.2543 -14.7846 L 187.4325 -13.9207 L 187.7407 -13.0678 L 188.0954 -12.3901 L 188.0969 -12.3620 L 188.2750 -11.4982 L 188.5833 -10.6453 L 188.9296 -9.9835 L 188.9319 -9.9407 L 189.1100 -9.0768 L 189.4182 -8.2239 L 189.7587 -7.5735 L 189.7618 -7.5142 L 189.9399 -6.6504 L 190.2481 -5.7974 L 190.5814 -5.1608 L 190.5852 -5.0879 L 190.7633 -4.2241 L 191.0716 -3.3711 L 191.3988 -2.7459 L 191.4033 -2.6591 L 191.5815 -1.7953 L 191.8897 -0.9424 L 192.2118 -0.3270 L 192.2170 -0.2264 L 192.3952 0.6374 L 192.7034 1.4904 L 193.0255 2.1057 L 193.0307 2.2063 L 193.2089 3.0702 L 193.5171 3.9231 L 193.8443 4.5483 L 193.8489 4.6351 L 194.0270 5.4989 L 194.3352 6.3519 L 194.6685 6.9885 L 194.6723 7.0614 L 194.8504 7.9252 L 195.1587 8.7782 L 195.4991 9.4286 L 195.5022 9.4879 L 195.6803 10.3517 L 195.9886 11.2046 L 196.3349 11.8664 L 196.3372 11.9092 L 196.5153 12.7731 L 196.8235 13.6260 L 197.1783 14.3037 L 197.1797 14.3318 L 197.3578 15.1956 L 197.6661 16.0485 L 198.0276 16.7393 L 198.0281 16.7491 L 198.2063 17.6130 L 198.5145 18.4659 L 198.8868 19.1772 L 199.0626 20.0300 L 199.3709 20.8829 L 199.7562 21.6190 L 199.9259 22.4421 L 200.2341 23.2950 L 200.6344 24.0597 L 200.7981 24.8536 L 201.1063 25.7066 L 201.5210 26.4989 L 201.6777 27.2588 L 201.9860 28.1117 L 202.4180 28.9372 L 202.5680 29.6646 L 202.8763 30.5175 L 203.3093 31.3449 L 203.3228 31.3642 L 203.4671 32.0642 L 203.7754 32.9171 L 204.2085 33.7446 L 204.2378 33.7866 L 204.3767 34.4598 L 204.6849 35.3127 L 205.1180 36.1402 L 205.1649 36.2073 L 205.2980 36.8530 L 205.6063 37.7059 L 206.0394 38.5333 L 206.1042 38.6262 L 206.2308 39.2400 L 206.5391 40.0930 L 206.9722 40.9204 L 207.0565 41.0410 L 207.1761 41.6211 L 207.4843 42.4740 L 207.9174 43.3014 L 208.0233 43.4530 L 208.1357 43.9982 L 208.4440 44.8511 L 208.8771 45.6786 L 209.0060 45.8631 L 209.1105 46.3696 L 209.4187 47.2225 L 209.8518 48.0500 L 210.0054 48.2698 L 210.1011 48.7339 L 210.4094 49.5868 L 210.8425 50.4142 L 211.0230 50.6725 L 211.1092 51.0905 L 211.4174 51.9435 L 211.8505 52.7709 L 212.0603 53.0712 L 212.1362 53.4389 L 212.4444 54.2918 L 212.8775 55.1193 L 213.1194 55.4654 L 213.1839 55.7780 L 213.4921 56.6310 L 213.9252 57.4584 L 214.2023 57.8549 L 214.2542 58.1067 L 214.5624 58.9597 L 214.9955 59.7871 L 215.3112 60.2388 L 215.3493 60.4233 L 215.6575 61.2762 L 216.0906 62.1036 L 216.4493 62.6170 L 216.4720 62.7269 L 216.7803 63.5799 L 217.2133 64.4073 L 217.6206 64.9901 L 217.6262 65.0170 L 217.9344 65.8699 L 218.3675 66.6974 L 218.8493 67.3868 L 219.1217 68.1406 L 219.5548 68.9680 L 220.1053 69.7558 L 220.1266 69.7795 L 220.3479 70.3919 L 220.7810 71.2194 L 221.3316 72.0072 L 221.4394 72.1275 L 221.6165 72.6175 L 222.0496 73.4450 L 222.6001 74.2328 L 222.8088 74.4655 L 222.9356 74.8166 L 223.3687 75.6440 L 223.9193 76.4318 L 224.2433 76.7933 L 224.3107 76.9798 L 224.7438 77.8072 L 225.2943 78.5950 L 225.7569 79.1110 L 226.1841 79.9272 L 226.7346 80.7150 L 227.3932 81.4496 L 227.4358 81.4874 L 227.7003 81.9927 L 228.2509 82.7805 L 228.9094 83.5151 L 229.1874 83.7614 L 229.3069 83.9896 L 229.8574 84.7774 L 230.5160 85.5120 L 231.1357 86.0609 L 231.5702 86.6827 L 232.2288 87.4173 L 232.9841 88.0862 L 233.3029 88.3111 L 233.4108 88.4656 L 234.0694 89.2002 L 234.8247 89.8691 L 235.6638 90.4609 L 235.8272 90.5517 L 236.0611 90.8126 L 236.8164 91.4815 L 237.6556 92.0733 L 238.5641 92.5778 L 238.7707 92.6655 L 238.9799 92.8508 L 239.8190 93.4426 L 240.7276 93.9471 L 241.6901 94.3557 L 242.2942 94.5403 L 243.0735 94.9730 L 244.0360 95.3816 L 245.0359 95.6873 L 246.0562 95.8849 L 246.4841 95.9209 L 246.5324 95.9414 L 247.5324 96.2471 L 248.5527 96.4446 L 249.5759 96.5307 L 250.5844 96.5037 L 251.0626 96.4355 L 251.1100 96.4446 L 252.1332 96.5307 L 253.1418 96.5037 L 254.1185 96.3643 L 255.0466 96.1147 L 255.4490 95.9490 L 255.6382 95.9440 L 256.6149 95.8045 L 257.5430 95.5549 L 258.4066 95.1994 L 259.1910 94.7442 L 259.2438 94.7024 L 259.8889 94.5289 L 260.7525 94.1735 L 261.5369 93.7182 L 262.2286 93.1710 L 262.3554 93.0349 L 262.9159 92.8042 L 263.7003 92.3490 L 264.3921 91.8017 L 264.9793 91.1719 L 265.0031 91.1365 L 265.6921 90.7366 L 266.3838 90.1893 L 266.9710 89.5595 L 267.2804 89.1001 L 267.5327 88.9537 L 268.2244 88.4064 L 268.8116 87.7766 L 269.2843 87.0748 L 269.3255 86.9851 L 269.9372 86.5012 L 270.5244 85.8713 L 270.9971 85.1696 L 271.1652 84.8038 L 271.5438 84.5043 L 272.1310 83.8744 L 272.6037 83.1726 L 272.8730 82.5867 L 273.0600 82.4387 L 273.6472 81.8088 L 274.1199 81.1071 L 274.4699 80.3455 L 274.4709 80.3420 L 274.5003 80.3188 L 275.0875 79.6889 L 275.5602 78.9872 L 275.9102 78.2256 L 275.9519 78.0736 L 276.4626 77.5257 L 276.9353 76.8240 L 277.2853 76.0624 L 277.3641 75.7746 L 277.7817 75.3267 L 278.2544 74.6249 L 278.6044 73.8633 L 278.7146 73.4612 L 279.0503 73.1010 L 279.5230 72.3993 L 279.8730 71.6377 L 280.0108 71.1348 L 280.2766 70.8497 L 280.7492 70.1479 L 281.0992 69.3863 L 281.2607 68.7970 L 281.4639 68.5790 L 281.9365 67.8773 L 282.2865 67.1157 L 282.4693 66.4485 L 282.6180 66.2890 L 283.0907 65.5872 L 283.4407 64.8257 L 283.6417 64.0915 L 283.7408 63.9853 L 284.2134 63.2836 L 284.5634 62.5220 L 284.7810 61.7275 L 284.8358 61.6688 L 285.3085 60.9670 L 285.6585 60.2054 L 285.8799 59.3970 L 285.8833 59.3645 L 285.9061 59.3401 L 286.3788 58.6384 L 286.7288 57.8768 L 286.9502 57.0684 L 286.9580 56.9947 L 287.4265 56.2992 L 287.7765 55.5376 L 287.9979 54.7292 L 288.0107 54.6082 L 288.4535 53.9508 L 288.8035 53.1893 L 289.0249 52.3809 L 289.0423 52.2166 L 289.4615 51.5942 L 289.8116 50.8326 L 290.0330 50.0242 L 290.0545 49.8203 L 290.4522 49.2299 L 290.8022 48.4683 L 291.0236 47.6599 L 291.0490 47.4195 L 291.4269 46.8585 L 291.7770 46.0969 L 291.9984 45.2885 L 292.0273 45.0148 L 292.3866 44.4814 L 292.7366 43.7198 L 292.9580 42.9114 L 292.9902 42.6076 L 293.3318 42.1003 L 293.6819 41.3388 L 293.9033 40.5304 L 293.9385 40.1975 L 294.2646 39.7133 L 294.6147 38.9517 L 294.8361 38.1433 L 294.8741 37.7831 L 295.1860 37.3201 L 295.5360 36.5585 L 295.7574 35.7501 L 295.7980 35.3662 L 296.0955 34.9245 L 296.4456 34.1629 L 296.6670 33.3545 L 296.7100 32.9475 L 296.9947 32.5249 L 297.3447 31.7633 L 297.5661 30.9549 L 297.6116 30.5250 L 297.8849 30.1191 L 298.2350 29.3575 L 298.4564 28.5491 L 298.5037 28.1012 L 298.7646 27.7139 L 299.1146 26.9524 L 299.3360 26.1440 L 299.3856 25.6754 L 299.6368 25.3024 L 299.9868 24.5408 L 300.2082 23.7324 L 300.2595 23.2474 L 300.5000 22.8903 L 300.8501 22.1287 L 301.0715 21.3203 L 301.1246 20.8174 L 301.3564 20.4733 L 301.7064 19.7117 L 301.9278 18.9033 L 301.9826 18.3859 L 302.2048 18.0559 L 302.5548 17.2943 L 302.7762 16.4859 L 302.8327 15.9521 L 303.0474 15.6334 L 303.3974 14.8718 L 303.6188 14.0634 L 303.6765 13.5176 L 303.8824 13.2120 L 304.2324 12.4504 L 304.4538 11.6420 L 304.5131 11.0812 L 304.7123 10.7855 L 305.0623 10.0240 L 305.2837 9.2156 L 305.3442 8.6435 L 305.5357 8.3592 L 305.8857 7.5976 L 306.1071 6.7893 L 306.1689 6.2050 L 306.3538 5.9305 L 306.7038 5.1689 L 306.9252 4.3605 L 307.0142 3.5191 L 306.9693 2.6591 L 306.7911 1.7953 L 306.4829 0.9424 L 306.0498 0.1149 L 305.4993 -0.6729 L 304.8407 -1.4075 L 304.0854 -2.0764 L 303.2463 -2.6682 L 302.3377 -3.1727 L 301.3752 -3.5813 L 300.3753 -3.8870 L 299.3550 -4.0846 L 298.3318 -4.1706 L 297.3232 -4.1437 L 296.3465 -4.0042 L 295.4184 -3.7546 L 294.5548 -3.3991 L 293.7704 -2.9439 L 293.0787 -2.3966 L 292.4915 -1.7667 L 292.0188 -1.0650 L 291.6688 -0.3034 L 291.4474 0.5050 L 291.3856 1.0892 L 291.2006 1.3637 L 290.8506 2.1253 L 290.6292 2.9337 L 290.5687 3.5058 L 290.3772 3.7901 L 290.0272 4.5516 L 289.8058 5.3600 L 289.7465 5.9208 L 289.5473 6.2165 L 289.1973 6.9781 L 288.9759 7.7865 L 288.9182 8.3323 L 288.7124 8.6379 L 288.3623 9.3995 L 288.1409 10.2079 L 288.0845 10.7417 L 287.8698 11.0604 L 287.5198 11.8220 L 287.2984 12.6304 L 287.2436 13.1478 L 287.0214 13.4778 L 286.6713 14.2394 L 286.4500 15.0478 L 286.3968 15.5507 L 286.1650 15.8948 L 285.8150 16.6564 L 285.5936 17.4648 L 285.5423 17.9498 L 285.3017 18.3069 L 284.9517 19.0685 L 284.7303 19.8769 L 284.6808 20.3455 L 284.4295 20.7185 L 284.0795 21.4800 L 283.8581 22.2884 L 283.8107 22.7364 L 283.5499 23.1236 L 283.1999 23.8852 L 282.9785 24.6936 L 282.9330 25.1235 L 282.6596 25.5294 L 282.3096 26.2910 L 282.0882 27.0994 L 282.0452 27.5064 L 281.7605 27.9290 L 281.4105 28.6906 L 281.1891 29.4990 L 281.1485 29.8830 L 280.8510 30.3246 L 280.5010 31.0862 L 280.2796 31.8946 L 280.2415 32.2548 L 279.9296 32.7178 L 279.5796 33.4794 L 279.3582 34.2878 L 279.3230 34.6206 L 278.9968 35.1048 L 278.6468 35.8664 L 278.4254 36.6748 L 278.3933 36.9786 L 278.0516 37.4859 L 277.7016 38.2475 L 277.4802 39.0559 L 277.4512 39.3296 L 277.0919 39.8630 L 276.7419 40.6246 L 276.5205 41.4330 L 276.4951 41.6734 L 276.1172 42.2344 L 275.7671 42.9960 L 275.5457 43.8044 L 275.5242 44.0083 L 275.1265 44.5987 L 274.7765 45.3603 L 274.5551 46.1687 L 274.5377 46.3329 L 274.1185 46.9553 L 273.7684 47.7169 L 273.5470 48.5253 L 273.5342 48.6464 L 273.0915 49.3037 L 272.7414 50.0653 L 272.5200 50.8737 L 272.5123 50.9473 L 272.0438 51.6429 L 271.6937 52.4044 L 271.4723 53.2128 L 271.4689 53.2454 L 271.4461 53.2698 L 270.9734 53.9715 L 270.6234 54.7331 L 270.4058 55.5276 L 270.3511 55.5864 L 269.8784 56.2881 L 269.5284 57.0497 L 269.3273 57.7838 L 269.2283 57.8900 L 268.7556 58.5918 L 268.4056 59.3533 L 268.2229 60.0206 L 268.0741 60.1801 L 267.6015 60.8818 L 267.2515 61.6434 L 267.0901 62.2328 L 266.8869 62.4507 L 266.4142 63.1524 L 266.0642 63.9140 L 265.9264 64.4170 L 265.6606 64.7021 L 265.1880 65.4038 L 264.8379 66.1654 L 264.7278 66.5676 L 264.3920 66.9277 L 263.9194 67.6294 L 263.5694 68.3910 L 263.4905 68.6788 L 263.0729 69.1268 L 262.6002 69.8285 L 262.2502 70.5901 L 262.2086 70.7421 L 261.6978 71.2899 L 261.2252 71.9917 L 260.8751 72.7532 L 260.8742 72.7567 L 260.8448 72.7800 L 260.2575 73.4099 L 259.7849 74.1116 L 259.5156 74.6976 L 259.3285 74.8455 L 258.7413 75.4754 L 258.2686 76.1772 L 258.1005 76.5429 L 257.7219 76.8425 L 257.1347 77.4723 L 256.6621 78.1741 L 256.6208 78.2638 L 256.0092 78.7477 L 255.4219 79.3776 L 255.1125 79.8370 L 254.8603 79.9834 L 254.1685 80.5306 L 253.5813 81.1605 L 253.5575 81.1959 L 252.8685 81.5958 L 252.1768 82.1430 L 252.0500 82.2791 L 251.4895 82.5098 L 250.7051 82.9650 L 250.6523 83.0068 L 250.0072 83.1803 L 249.6048 83.3459 L 249.4156 83.3510 L 248.9374 83.4192 L 248.8900 83.4101 L 248.4622 83.3741 L 248.4138 83.3536 L 247.8098 83.1689 L 247.0304 82.7362 L 246.8239 82.6485 L 246.6147 82.4632 L 245.7756 81.8714 L 245.6122 81.7807 L 245.3783 81.5198 L 244.6230 80.8508 L 244.3042 80.6260 L 244.1962 80.4715 L 243.5377 79.7369 L 242.9179 79.1880 L 242.4834 78.5662 L 241.8249 77.8316 L 241.5468 77.5853 L 241.4273 77.3571 L 240.8768 76.5693 L 240.2183 75.8347 L 240.1756 75.7969 L 239.9111 75.2916 L 239.3606 74.5038 L 238.8980 73.9878 L 238.4708 73.1716 L 237.9203 72.3838 L 237.5962 72.0223 L 237.5288 71.8359 L 237.0958 71.0084 L 236.5452 70.2206 L 236.3366 69.9879 L 236.2097 69.6368 L 235.7766 68.8094 L 235.2261 68.0216 L 235.1182 67.9013 L 234.9411 67.4112 L 234.5080 66.5838 L 233.9575 65.7960 L 233.9362 65.7722 L 233.7149 65.1598 L 233.2818 64.3324 L 232.8000 63.6429 L 232.5276 62.8892 L 232.0945 62.0618 L 231.6873 61.4790 L 231.6817 61.4521 L 231.3735 60.5991 L 230.9404 59.7717 L 230.5816 59.2583 L 230.5589 59.1484 L 230.2507 58.2955 L 229.8176 57.4680 L 229.5019 57.0163 L 229.4639 56.8319 L 229.1556 55.9789 L 228.7226 55.1515 L 228.4455 54.7550 L 228.3936 54.5032 L 228.0853 53.6502 L 227.6522 52.8228 L 227.4103 52.4766 L 227.3459 52.1640 L 227.0376 51.3111 L 226.6045 50.4837 L 226.3947 50.1834 L 226.3189 49.8157 L 226.0106 48.9627 L 225.5775 48.1353 L 225.3970 47.8770 L 225.3108 47.4590 L 225.0026 46.6061 L 224.5695 45.7786 L 224.4158 45.5588 L 224.3202 45.0947 L 224.0119 44.2418 L 223.5788 43.4144 L 223.4499 43.2298 L 223.3454 42.7233 L 223.0372 41.8704 L 222.6041 41.0429 L 222.4982 40.8914 L 222.3857 40.3462 L 222.0775 39.4933 L 221.6444 38.6658 L 221.5601 38.5452 L 221.4405 37.9652 L 221.1323 37.1122 L 220.6992 36.2848 L 220.6343 36.1920 L 220.5077 35.5781 L 220.1995 34.7252 L 219.7664 33.8977 L 219.7195 33.8306 L 219.5863 33.1849 L 219.2781 32.3320 L 218.8450 31.5046 L 218.8156 31.4625 L 218.6768 30.7893 L 218.3686 29.9364 L 217.9355 29.1090 L 217.9220 29.0897 L 217.7777 28.3897 L 217.4695 27.5368 L 217.0374 26.7113 L 216.8874 25.9839 L 216.5792 25.1310 L 216.1645 24.3387 L 216.0078 23.5788 L 215.6995 22.7258 L 215.2993 21.9611 L 215.1356 21.1672 L 214.8273 20.3143 L 214.4420 19.5782 L 214.2723 18.7551 L 213.9641 17.9022 L 213.5918 17.1909 L 213.4160 16.3381 L 213.1077 15.4852 L 212.7462 14.7945 L 212.7457 14.7846 L 212.5675 13.9207 L 212.2593 13.0678 L 211.9046 12.3901 L 211.9031 12.3620 L 211.7250 11.4982 L 211.4167 10.6453 L 211.0704 9.9835 L 211.0681 9.9407 L 210.8900 9.0768 L 210.5818 8.2239 L 210.2413 7.5735 L 210.2382 7.5142 L 210.0601 6.6504 L 209.7519 5.7974 L 209.4186 5.1608 L 209.4148 5.0879 L 209.2367 4.2241 L 208.9284 3.3711 L 208.6012 2.7459 L 208.5967 2.6591 L 208.4185 1.7953 L 208.1103 0.9424 L 207.7882 0.3270 L 207.7830 0.2264 L 207.6048 -0.6374 L 207.2966 -1.4904 L 206.9745 -2.1057 L 206.9693 -2.2063 L 206.7911 -3.0702 L 206.4829 -3.9231 L 206.1557 -4.5483 L 206.1511 -4.6351 L 205.9730 -5.4989 L 205.6648 -6.3519 L 205.3315 -6.9885 L 205.3277 -7.0614 L 205.1496 -7.9252 L 204.8413 -8.7782 L 204.5009 -9.4286 L 204.4978 -9.4879 L 204.3197 -10.3517 L 204.0114 -11.2046 L 203.6651 -11.8664 L 203.6628 -11.9092 L 203.4847 -12.7731 L 203.1765 -13.6260 L 202.8217 -14.3037 L 202.8203 -14.3318 L 202.6422 -15.1956 L 202.3339 -16.0485 L 201.9724 -16.7393 L 201.9719 -16.7491 L 201.7937 -17.6130 L 201.4855 -18.4659 L 201.1132 -19.1772 L 200.9374 -20.0300 L 200.6291 -20.8829 L 200.2438 -21.6190 L 200.0741 -22.4421 L 199.7659 -23.2950 L 199.3656 -24.0597 L 199.2019 -24.8536 L 198.8937 -25.7066 L 198.4790 -26.4989 L 198.3223 -27.2588 L 198.0140 -28.1117 L 197.5820 -28.9372 L 197.4320 -29.6646 L 197.1237 -30.5175 L 196.6907 -31.3449 L 196.6772 -31.3642 L 196.5329 -32.0642 L 196.2246 -32.9171 L 195.7915 -33.7446 L 195.7622 -33.7866 L 195.6233 -34.4598 L 195.3151 -35.3127 L 194.8820 -36.1402 L 194.8351 -36.2073 L 194.7020 -36.8530 L 194.3937 -37.7059 L 193.9606 -38.5333 L 193.8958 -38.6262 L 193.7692 -39.2400 L 193.4609 -40.0930 L 193.0278 -40.9204 L 192.9435 -41.0410 L 192.8239 -41.6211 L 192.5157 -42.4740 L 192.0826 -43.3014 L 191.9767 -43.4530 L 191.8643 -43.9982 L 191.5560 -44.8511 L 191.1229 -45.6786 L 190.9940 -45.8631 L 190.8895 -46.3696 L 190.5813 -47.2225 L 190.1482 -48.0500 L 189.9946 -48.2698 L 189.8989 -48.7339 L 189.5906 -49.5868 L 189.1575 -50.4142 L 188.9770 -50.6725 L 188.8908 -51.0905 L 188.5826 -51.9435 L 188.1495 -52.7709 L 187.9397 -53.0712 L 187.8638 -53.4389 L 187.5556 -54.2918 L 187.1225 -55.1193 L 186.8806 -55.4654 L 186.8161 -55.7780 L 186.5079 -56.6310 L 186.0748 -57.4584 L 185.7977 -57.8549 L 185.7458 -58.1067 L 185.4376 -58.9597 L 185.0045 -59.7871 L 184.6888 -60.2388 L 184.6507 -60.4233 L 184.3425 -61.2762 L 183.9094 -62.1036 L 183.5507 -62.6170 L 183.5280 -62.7269 L 183.2197 -63.5799 L 182.7867 -64.4073 L 182.3794 -64.9901 L 182.3738 -65.0170 L 182.0656 -65.8699 L 181.6325 -66.6974 L 181.1507 -67.3868 L 180.8783 -68.1406 L 180.4452 -68.9680 L 179.8947 -69.7558 L 179.8734 -69.7795 L 179.6521 -70.3919 L 179.2190 -71.2194 L 178.6684 -72.0072 L 178.5606 -72.1275 L 178.3835 -72.6175 L 177.9504 -73.4450 L 177.3999 -74.2328 L 177.1912 -74.4655 L 177.0644 -74.8166 L 176.6313 -75.6440 L 176.0807 -76.4318 L 175.7567 -76.7933 L 175.6893 -76.9798 L 175.2562 -77.8072 L 174.7057 -78.5950 L 174.2431 -79.1110 L 173.8159 -79.9272 L 173.2654 -80.7150 L 172.6068 -81.4496 L 172.5642 -81.4874 L 172.2997 -81.9927 L 171.7491 -82.7805 L 171.0906 -83.5151 L 170.8126 -83.7614 L 170.6931 -83.9896 L 170.1426 -84.7774 L 169.4840 -85.5120 L 168.8643 -86.0609 L 168.4298 -86.6827 L 167.7712 -87.4173 L 167.0159 -88.0862 L 166.6971 -88.3111 L 166.5892 -88.4656 L 165.9306 -89.2002 L 165.1753 -89.8691 L 164.3362 -90.4609 L 164.1728 -90.5517 L 163.9389 -90.8126 L 163.1836 -91.4815 L 162.3444 -92.0733 L 161.4359 -92.5778 L 161.2293 -92.6655 L 161.0201 -92.8508 L 160.1810 -93.4426 L 159.2724 -93.9471 L 158.3099 -94.3557 L 157.7058 -94.5403 L 156.9265 -94.9730 L 155.9640 -95.3816 L 154.9641 -95.6873 L 153.9438 -95.8849 L 153.5159 -95.9209 L 153.4676 -95.9414 L 152.4676 -96.2471 L 151.4473 -96.4446 L 150.4241 -96.5307 L 149.4156 -96.5037 L 148.9374 -96.4355 L 148.8900 -96.4446 L 147.8668 -96.5307 L 146.8582 -96.5037 L 145.8815 -96.3643 L 144.9534 -96.1147 L 144.5510 -95.9490 L 144.3618 -95.9440 L 143.3851 -95.8045 L 142.4570 -95.5549 L 141.5934 -95.1994 L 140.8090 -94.7442 L 140.7562 -94.7024 L 140.1111 -94.5289 L 139.2475 -94.1735 L 138.4631 -93.7182 L 137.7714 -93.1710 L 137.6446 -93.0349 L 137.0841 -92.8042 L 136.2997 -92.3490 L 135.6079 -91.8017 L 135.0207 -91.1719 L 134.9969 -91.1365 L 134.3079 -90.7366 L 133.6162 -90.1893 L 133.0290 -89.5595 L 132.7196 -89.1001 L 132.4673 -88.9537 L 131.7756 -88.4064 L 131.1884 -87.7766 L 130.7157 -87.0748 L 130.6745 -86.9851 L 130.0628 -86.5012 L 129.4756 -85.8713 L 129.0029 -85.1696 L 128.8348 -84.8038 L 128.4562 -84.5043 L 127.8690 -83.8744 L 127.3963 -83.1726 L 127.1270 -82.5867 L 126.9400 -82.4387 L 126.3528 -81.8088 L 125.8801 -81.1071 L 125.5301 -80.3455 L 125.5291 -80.3420 L 125.4997 -80.3188 L 124.9125 -79.6889 L 124.4398 -78.9872 L 124.0898 -78.2256 L 124.0481 -78.0736 L 123.5374 -77.5257 L 123.0647 -76.8240 L 122.7147 -76.0624 L 122.6359 -75.7746 L 122.2183 -75.3267 L 121.7456 -74.6249 L 121.3956 -73.8633 L 121.2854 -73.4612 L 120.9497 -73.1010 L 120.4770 -72.3993 L 120.1270 -71.6377 L 119.9892 -71.1348 L 119.7234 -70.8497 L 119.2508 -70.1479 L 118.9008 -69.3863 L 118.7393 -68.7970 L 118.5361 -68.5790 L 118.0635 -67.8773 L 117.7135 -67.1157 L 117.5307 -66.4485 L 117.3820 -66.2890 L 116.9093 -65.5872 L 116.5593 -64.8257 L 116.3583 -64.0915 L 116.2592 -63.9853 L 115.7866 -63.2836 L 115.4366 -62.5220 L 115.2190 -61.7275 L 115.1642 -61.6688 L 114.6915 -60.9670 L 114.3415 -60.2054 L 114.1201 -59.3970 L 114.1167 -59.3645 L 114.0939 -59.3401 L 113.6212 -58.6384 L 113.2712 -57.8768 L 113.0498 -57.0684 L 113.0420 -56.9947 L 112.5735 -56.2992 L 112.2235 -55.5376 L 112.0021 -54.7292 L 111.9893 -54.6082 L 111.5465 -53.9508 L 111.1965 -53.1893 L 110.9751 -52.3809 L 110.9577 -52.2166 L 110.5385 -51.5942 L 110.1884 -50.8326 L 109.9670 -50.0242 L 109.9455 -49.8203 L 109.5478 -49.2299 L 109.1978 -48.4683 L 108.9764 -47.6599 L 108.9510 -47.4195 L 108.5731 -46.8585 L 108.2230 -46.0969 L 108.0016 -45.2885 L 107.9727 -45.0148 L 107.6134 -44.4814 L 107.2634 -43.7198 L 107.0420 -42.9114 L 107.0098 -42.6076 L 106.6682 -42.1003 L 106.3181 -41.3388 L 106.0967 -40.5304 L 106.0615 -40.1975 L 105.7354 -39.7133 L 105.3853 -38.9517 L 105.1639 -38.1433 L 105.1259 -37.7831 L 104.8140 -37.3201 L 104.4640 -36.5585 L 104.2426 -35.7501 L 104.2020 -35.3662 L 103.9045 -34.9245 L 103.5544 -34.1629 L 103.3330 -33.3545 L 103.2900 -32.9475 L 103.0053 -32.5249 L 102.6553 -31.7633 L 102.4339 -30.9549 L 102.3884 -30.5250 L 102.1151 -30.1191 L 101.7650 -29.3575 L 101.5436 -28.5491 L 101.4963 -28.1012 L 101.2354 -27.7139 L 100.8854 -26.9524 L 100.6640 -26.1440 L 100.6144 -25.6754 L 100.3632 -25.3024 L 100.0132 -24.5408 L 99.7918 -23.7324 L 99.7405 -23.2474 L 99.5000 -22.8903 L 99.1499 -22.1287 L 98.9285 -21.3203 L 98.8754 -20.8174 L 98.6436 -20.4733 L 98.2936 -19.7117 L 98.0722 -18.9033 L 98.0174 -18.3859 L 97.7952 -18.0559 L 97.4452 -17.2943 L 97.2238 -16.4859 L 97.1673 -15.9521 L 96.9526 -15.6334 L 96.6026 -14.8718 L 96.3812 -14.0634 L 96.3235 -13.5176 L 96.1176 -13.2120 L 95.7676 -12.4504 L 95.5462 -11.6420 L 95.4869 -11.0812 L 95.2877 -10.7855 L 94.9377 -10.0240 L 94.7163 -9.2156 L 94.6558 -8.6435 L 94.4643 -8.3592 L 94.1143 -7.5976 L 93.8929 -6.7893 L 93.8311 -6.2050 L 93.6462 -5.9305 L 93.2962 -5.1689 L 93.0748 -4.3605 L 93.0116 -3.7637 L 92.8325 -3.4977 L 92.4825 -2.7362 L 92.2611 -1.9278 L 92.1979 -1.3310 L 92.0188 -1.0650 L 91.6688 -0.3034 L 91.4474 0.5050 L 91.3856 1.0892 L 91.2006 1.3637 L 90.8506 2.1253 L 90.6292 2.9337 L 90.5687 3.5058 L 90.3772 3.7901 L 90.0272 4.5516 L 89.8058 5.3600 L 89.7465 5.9208 L 89.5473 6.2165 L 89.1973 6.9781 L 88.9759 7.7865 L 88.9182 8.3323 L 88.7124 8.6379 L 88.3623 9.3995 L 88.1409 10.2079 L 88.0845 10.7417 L 87.8698 11.0604 L 87.5198 11.8220 L 87.2984 12.6304 L 87.2436 13.1478 L 87.0214 13.4778 L 86.6713 14.2394 L 86.4500 15.0478 L 86.3968 15.5507 L 86.1650 15.8948 L 85.8150 16.6564 L 85.5936 17.4648 L 85.5423 17.9498 L 85.3017 18.3069 L 84.9517 19.0685 L 84.7303 19.8769 L 84.6808 20.3455 L 84.4295 20.7185 L 84.0795 21.4800 L 83.8581 22.2884 L 83.8107 22.7364 L 83.5499 23.1236 L 83.1999 23.8852 L 82.9785 24.6936 L 82.9330 25.1235 L 82.6596 25.5294 L 82.3096 26.2910 L 82.0882 27.0994 L 82.0452 27.5064 L 81.7605 27.9290 L 81.4105 28.6906 L 81.1891 29.4990 L 81.1485 29.8830 L 80.8510 30.3246 L 80.5010 31.0862 L 80.2796 31.8946 L 80.2415 32.2548 L 79.9296 32.7178 L 79.5796 33.4794 L 79.3582 34.2878 L 79.3230 34.6206 L 78.9968 35.1048 L 78.6468 35.8664 L 78.4254 36.6748 L 78.3933 36.9786 L 78.0516 37.4859 L 77.7016 38.2475 L 77.4802 39.0559 L 77.4512 39.3296 L 77.0919 39.8630 L 76.7419 40.6246 L 76.5205 41.4330 L 76.4951 41.6734 L 76.1172 42.2344 L 75.7671 42.9960 L 75.5457 43.8044 L 75.5242 44.0083 L 75.1265 44.5987 L 74.7765 45.3603 L 74.5551 46.1687 L 74.5377 46.3329 L 74.1185 46.9553 L 73.7684 47.7169 L 73.5470 48.5253 L 73.5342 48.6464 L 73.0915 49.3037 L 72.7414 50.0653 L 72.5200 50.8737 L 72.5123 50.9473 L 72.0438 51.6429 L 71.6937 52.4044 L 71.4723 53.2128 L 71.4689 53.2454 L 71.4461 53.2698 L 70.9734 53.9715 L 70.6234 54.7331 L 70.4058 55.5276 L 70.3511 55.5864 L 69.8784 56.2881 L 69.5284 57.0497 L 69.3273 57.7838 L 69.2283 57.8900 L 68.7556 58.5918 L 68.4056 59.3533 L 68.2229 60.0206 L 68.0741 60.1801 L 67.6015 60.8818 L 67.2515 61.6434 L 67.0901 62.2328 L 66.8869 62.4507 L 66.4142 63.1524 L 66.0642 63.9140 L 65.9264 64.4170 L 65.6606 64.7021 L 65.1880 65.4038 L 64.8379 66.1654 L 64.7278 66.5676 L 64.3920 66.9277 L 63.9194 67.6294 L 63.5694 68.3910 L 63.4905 68.6788 L 63.0729 69.1268 L 62.6002 69.8285 L 62.2502 70.5901 L 62.2086 70.7421 L 61.6978 71.2899 L 61.2252 71.9917 L 60.8751 72.7532 L 60.8742 72.7567 L 60.8448 72.7800 L 60.2575 73.4099 L 59.7849 74.1116 L 59.5156 74.6976 L 59.3285 74.8455 L 58.7413 75.4754 L 58.2686 76.1772 L 58.1005 76.5429 L 57.7219 76.8425 L 57.1347 77.4723 L 56.6621 78.1741 L 56.6208 78.2638 L 56.0092 78.7477 L 55.4219 79.3776 L 55.1125 79.8370 L 54.8603 79.9834 L 54.1685 80.5306 L 53.5813 81.1605 L 53.5575 81.1959 L 52.8685 81.5958 L 52.1768 82.1430 L 52.0500 82.2791 L 51.4895 82.5098 L 50.7051 82.9650 L 50.6523 83.0068 L 50.0072 83.1803 L 49.6048 83.3459 L 49.4156 83.3510 L 48.9374 83.4192 L 48.8900 83.4101 L 48.4622 83.3741 L 48.4138 83.3536 L 47.8098 83.1689 L 47.0305 82.7362 L 46.8239 82.6485 L 46.6147 82.4632 L 45.7756 81.8714 L 45.6122 81.7807 L 45.3783 81.5198 L 44.6230 80.8508 L 44.3042 80.6260 L 44.1962 80.4715 L 43.5377 79.7369 L 42.9179 79.1880 L 42.4834 78.5662 L 41.8249 77.8316 L 41.5468 77.5853 L 41.4273 77.3571 L 40.8768 76.5693 L 40.2183 75.8347 L 40.1756 75.7969 L 39.9111 75.2916 L 39.3606 74.5038 L 38.8980 73.9878 L 38.4708 73.1716 L 37.9203 72.3838 L 37.5962 72.0223 L 37.5288 71.8359 L 37.0958 71.0084 L 36.5452 70.2206 L 36.3366 69.9879 L 36.2097 69.6368 L 35.7766 68.8094 L 35.2261 68.0216 L 35.1182 67.9013 L 34.9411 67.4112 L 34.5080 66.5838 L 33.9575 65.7960 L 33.9362 65.7722 L 33.7149 65.1598 L 33.2818 64.3324 L 32.8000 63.6429 L 32.5276 62.8892 L 32.0945 62.0618 L 31.6873 61.4790 L 31.6817 61.4521 L 31.3735 60.5991 L 30.9404 59.7717 L 30.5816 59.2583 L 30.5589 59.1484 L 30.2507 58.2955 L 29.8176 57.4680 L 29.5019 57.0163 L 29.4639 56.8319 L 29.1556 55.9789 L 28.7226 55.1515 L 28.4455 54.7550 L 28.3936 54.5032 L 28.0853 53.6502 L 27.6522 52.8228 L 27.4103 52.4766 L 27.3459 52.1640 L 27.0376 51.3111 L 26.6045 50.4837 L 26.3947 50.1834 L 26.3189 49.8157 L 26.0106 48.9627 L 25.5775 48.1353 L 25.3970 47.8770 L 25.3108 47.4590 L 25.0026 46.6061 L 24.5695 45.7786 L 24.4158 45.5588 L 24.3202 45.0947 L 24.0119 44.2418 L 23.5788 43.4144 L 23.4499 43.2298 L 23.3454 42.7233 L 23.0372 41.8704 L 22.6041 41.0429 L 22.4982 40.8914 L 22.3857 40.3462 L 22.0775 39.4933 L 21.6444 38.6658 L 21.5601 38.5452 L 21.4405 37.9652 L 21.1323 37.1122 L 20.6992 36.2848 L 20.6343 36.1920 L 20.5077 35.5781 L 20.1995 34.7252 L 19.7664 33.8977 L 19.7195 33.8306 L 19.5863 33.1849 L 19.2781 32.3320 L 18.8450 31.5046 L 18.8156 31.4625 L 18.6768 30.7893 L 18.3686 29.9364 L 17.9355 29.1090 L 17.9220 29.0897 L 17.7777 28.3897 L 17.4695 27.5368 L 17.0374 26.7113 L 16.8874 25.9839 L 16.5792 25.1310 L 16.1645 24.3387 L 16.0078 23.5788 L 15.6995 22.7258 L 15.2993 21.9611 L 15.1356 21.1672 L 14.8273 20.3143 L 14.4420 19.5782 L 14.2723 18.7551 L 13.9641 17.9022 L 13.5918 17.1909 L 13.4160 16.3381 L 13.1077 15.4852 L 12.7462 14.7945 L 12.7457 14.7846 L 12.5675 13.9207 L 12.2593 13.0678 L 11.9046 12.3901 L 11.9031 12.3620 L 11.7250 11.4982 L 11.4167 10.6453 L 11.0704 9.9835 L 11.0681 9.9407 L 10.8900 9.0768 L 10.5818 8.2239 L 10.2413 7.5735 L 10.2382 7.5142 L 10.0601 6.6504 L 9.7519 5.7974 L 9.4186 5.1608 L 9.4148 5.0879 L 9.2367 4.2241 L 8.9284 3.3711 L 8.6012 2.7459 L 8.5967 2.6591 L 8.4185 1.7953 L 8.1103 0.9424 L 7.7882 0.3270 L 7.7830 0.2264 L 7.6048 -0.6374 L 7.2966 -1.4904 L 6.8635 -2.3178 L 6.3130 -3.1056 L 5.6544 -3.8402 L 4.8991 -4.5092 L 4.0600 -5.1009 L 3.1514 -5.6054 L 2.1889 -6.0140 L 1.1890 -6.3197 L 0.1687 -6.5173 L -0.8545 -6.6033 L -1.8631 -6.5764 L -2.8398 -6.4369 L -3.7679 -6.1873 L -4.6315 -5.8319 L -5.4159 -5.3766 L -6.1076 -4.8294 L -6.6949 -4.1995 L -7.1675 -3.4977 L -7.5175 -2.7362 L -7.7389 -1.9278 L -7.8279 -1.0864 Z"/>
  <g id="debug">
  <path fill="none" stroke="#ff3366" stroke-opacity="0.6" stroke-width="0.5" d="M 0 0 L 0.6015 1.8000 L 1.2000 3.5817 L 1.7955 5.3453 L 2.3881 7.0907 L 2.9778 8.8180 L 3.5646 10.5270 L 4.1486 12.2179 L 4.7298 13.8906 L 5.3081 15.5451 L 5.8837 17.1814 L 6.4566 18.7995 L 7.0268 20.3995 L 7.5943 21.9813 L 8.1592 23.5449 L 8.7215 25.0903 L 9.2812 26.6175 L 9.8383 28.1266 L 10.3930 29.6174 L 10.9451 31.0901 L 11.4949 32.5446 L 12.0422 33.9810 L 12.5871 35.3991 L 13.1296 36.7991 L 13.6698 38.1809 L 14.2077 39.5445 L 14.7434 40.8899 L 15.2768 42.2171 L 15.8080 43.5262 L 16.3370 44.8171 L 16.8639 46.0897 L 17.3887 47.3443 L 17.9113 48.5806 L 18.4319 49.7987 L 18.9505 50.9987 L 19.4671 52.1805 L 19.9818 53.3441 L 20.4945 54.4895 L 21.0053 55.6168 L 21.5142 56.7258 L 22.0213 57.8167 L 22.5265 58.8894 L 23.0300 59.9439 L 23.5318 60.9803 L 24.0318 61.9984 L 24.5301 62.9984 L 25.0268 63.9802 L 25.5218 64.9438 L 26.0152 65.8892 L 26.5071 66.8165 L 26.9974 67.7256 L 27.4863 68.6164 L 27.9736 69.4892 L 28.4595 70.3437 L 28.9440 71.1800 L 29.4271 71.9982 L 29.9088 72.7982 L 30.3893 73.5800 L 30.8684 74.3436 L 31.3462 75.0890 L 31.8229 75.8163 L 32.2983 76.5253 L 32.7725 77.2162 L 33.2456 77.8889 L 33.7176 78.5435 L 34.1886 79.1798 L 34.6584 79.7980 L 35.1273 80.3980 L 35.5951 80.9798 L 36.0620 81.5434 L 36.5280 82.0888 L 36.9931 82.6161 L 37.4573 83.1252 L 37.9206 83.6161 L 38.3832 84.0888 L 38.8450 84.5433 L 39.3060 84.9797 L 39.7663 85.3978 L 40.2259 85.7978 L 40.6849 86.1796 L 41.1433 86.5433 L 41.6010 86.8887 L 42.0582 87.2160 L 42.5149 87.5251 L 42.9710 87.8160 L 43.4267 88.0887 L 43.8820 88.3432 L 44.3368 88.5796 L 44.7913 88.7978 L 45.2454 88.9978 L 45.6992 89.1796 L 46.1527 89.3432 L 46.6059 89.4886 L 47.0589 89.6159 L 47.5117 89.7250 L 47.9644 89.8159 L 48.4169 89.8886 L 48.8693 89.9432 L 49.3216 89.9795 L 49.7739 89.9977 L 50.2261 89.9977 L 50.6784 89.9795 L 51.1307 89.9432 L 51.5831 89.8886 L 52.0356 89.8159 L 52.4883 89.7250 L 52.9411 89.6159 L 53.3941 89.4886 L 53.8473 89.3432 L 54.3008 89.1796 L 54.7546 88.9978 L 55.2087 88.7978 L 55.6632 88.5796 L 56.1180 88.3432 L 56.5733 88.0887 L 57.0290 87.8160 L 57.4851 87.5251 L 57.9418 87.2160 L 58.3990 86.8887 L 58.8567 86.5433 L 59.3151 86.1796 L 59.7741 85.7978 L 60.2337 85.3978 L 60.6940 84.9797 L 61.1550 84.5433 L 61.6168 84.0888 L 62.0794 83.6161 L 62.5427 83.1252 L 63.0069 82.6161 L 63.4720 82.0888 L 63.9380 81.5434 L 64.4049 80.9798 L 64.8727 80.3980 L 65.3416 79.7980 L 65.8114 79.1798 L 66.2824 78.5435 L 66.7544 77.8889 L 67.2275 77.2162 L 67.7017 76.5253 L 68.1771 75.8163 L 68.6538 75.0890 L 69.1316 74.3436 L 69.6107 73.5800 L 70.0912 72.7982 L 70.5729 71.9982 L 71.0560 71.1800 L 71.5405 70.3437 L 72.0264 69.4892 L 72.5137 68.6164 L 73.0026 67.7256 L 73.4929 66.8165 L 73.9848 65.8892 L 74.4782 64.9438 L 74.9732 63.9802 L 75.4699 62.9984 L 75.9682 61.9984 L 76.4682 60.9803 L 76.9700 59.9439 L 77.4735 58.8894 L 77.9787 57.8167 L 78.4858 56.7258 L 78.9947 55.6168 L 79.5055 54.4895 L 80.0182 53.3441 L 80.5329 52.1805 L 81.0495 50.9987 L 81.5681 49.7987 L 82.0887 48.5806 L 82.6113 47.3443 L 83.1361 46.0897 L 83.6630 44.8171 L 84.1920 43.5262 L 84.7232 42.2171 L 85.2566 40.8899 L 85.7923 39.5445 L 86.3302 38.1809 L 86.8704 36.7991 L 87.4129 35.3991 L 87.9578 33.9810 L 88.5051 32.5446 L 89.0549 31.0901 L 89.6070 29.6174 L 90.1617 28.1266 L 90.7188 26.6175 L 91.2785 25.0903 L 91.8408 23.5449 L 92.4057 21.9813 L 92.9732 20.3995 L 93.5434 18.7995 L 94.1163 17.1814 L 94.6919 15.5451 L 95.2702 13.8906 L 95.8514 12.2179 L 96.4354 10.5270 L 97.0222 8.8180 L 97.6119 7.0907 L 98.2045 5.3453 L 98.8000 3.5817 L 99.3985 1.8000 L 100.0000 0 L 100.0000 0 L 100.6015 -1.8000 L 101.2000 -3.5817 L 101.7955 -5.3453 L 102.3881 -7.0907 L 102.9778 -8.8180 L 103.5646 -10.5270 L 104.1486 -12.2179 L 104.7298 -13.8906 L 105.3081 -15.5451 L 105.8837 -17.1814 L 106.4566 -18.7995 L 107.0268 -20.3995 L 107.5943 -21.9813 L 108.1592 -23.5449 L 108.7215 -25.0903 L 109.2812 -26.6175 L 109.8383 -28.1266 L 110.3930 -29.6174 L 110.9451 -31.0901 L 111.4949 -32.5446 L 112.0422 -33.9810 L 112.5871 -35.3991 L 113.1296 -36.7991 L 113.6698 -38.1809 L 114.2077 -39.5445 L 114.7434 -40.8899 L 115.2768 -42.2171 L 115.8080 -43.5262 L 116.3370 -44.8171 L 116.8639 -46.0897 L 117.3887 -47.3443 L 117.9113 -48.5806 L 118.4319 -49.7987 L 118.9505 -50.9987 L 119.4671 -52.1805 L 119.9818 -53.3441 L 120.4945 -54.4895 L 121.0053 -55.6168 L 121.5142 -56.7258 L 122.0213 -57.8167 L 122.5265 -58.8894 L 123.0300 -59.9439 L 123.5318 -60.9803 L 124.0318 -61.9984 L 124.5301 -62.9984 L 125.0268 -63.9802 L 125.5218 -64.9438 L 126.0152 -65.8892 L 126.5071 -66.8165 L 126.9974 -67.7256 L 127.4863 -68.6164 L 127.9736 -69.4892 L 128.4595 -70.3437 L 128.9440 -71.1800 L 129.4271 -71.9982 L 129.9088 -72.7982 L 130.3893 -73.5800 L 130.8684 -74.3436 L 131.3462 -75.0890 L 131.8229 -75.8163 L 132.2983 -76.5253 L 132.7725 -77.2162 L 133.2456 -77.8889 L 133.7176 -78.5435 L 134.1886 -79.1798 L 134.6584 -79.7980 L 135.1273 -80.3980 L 135.5951 -80.9798 L 136.0620 -81.5434 L 136.5280 -82.0888 L 136.9931 -82.6161 L 137.4573 -83.1252 L 137.9206 -83.6161 L 138.3832 -84.0888 L 138.8450 -84.5433 L 139.3060 -84.9797 L 139.7663 -85.3978 L 140.2259 -85.7978 L 140.6849 -86.1796 L 141.1433 -86.5433 L 141.6010 -86.8887 L 142.0582 -87.2160 L 142.5149 -87.5251 L 142.9710 -87.8160 L 143.4267 -88.0887 L 143.8820 -88.3432 L 144.3368 -88.5796 L 144.7913 -88.7978 L 145.2454 -88.9978 L 145.6992 -89.1796 L 146.1527 -89.3432 L 146.6059 -89.4886 L 147.0589 -89.6159 L 147.5117 -89.7250 L 147.9644 -89.8159 L 148.4169 -89.8886 L 148.8693 -89.9432 L 149.3216 -89.9795 L 149.7739 -89.9977 L 150.2261 -89.9977 L 150.6784 -89.9795 L 151.1307 -89.9432 L 151.5831 -89.8886 L 152.0356 -89.8159 L 152.4883 -89.7250 L 152.9411 -89.6159 L 153.3941 -89.4886 L 153.8473 -89.3432 L 154.3008 -89.1796 L 154.7546 -88.9978 L 155.2087 -88.7978 L 155.6632 -88.5796 L 156.1180 -88.3432 L 156.5733 -88.0887 L 157.0290 -87.8160 L 157.4851 -87.5251 L 157.9418 -87.2160 L 158.3990 -86.8887 L 158.8567 -86.5433 L 159.3151 -86.1796 L 159.7741 -85.7978 L 160.2337 -85.3978 L 160.6940 -84.9797 L 161.1550 -84.5433 L 161.6168 -84.0888 L 162.0794 -83.6161 L 162.5427 -83.1252 L 163.0069 -82.6161 L 163.4720 -82.0888 L 163.9380 -81.5434 L 164.4049 -80.9798 L 164.8727 -80.3980 L 165.3416 -79.7980 L 165.8114 -79.1798 L 166.2824 -78.5435 L 166.7544 -77.8889 L 167.2275 -77.2162 L 167.7017 -76.5253 L 168.1771 -75.8163 L 168.6538 -75.0890 L 169.1316 -74.3436 L 169.6107 -73.5800 L 170.0912 -72.7982 L 170.5729 -71.9982 L 171.0560 -71.1800 L 171.5405 -70.3437 L 172.0264 -69.4892 L 172.5137 -68.6164 L 173.0026 -67.7256 L 173.4929 -66.8165 L 173.9848 -65.8892 L 174.4782 -64.9438 L 174.9732 -63.9802 L 175.4699 -62.9984 L 175.9682 -61.9984 L 176.4682 -60.9803 L 176.9700 -59.9439 L 177.4735 -58.8894 L 177.9787 -57.8167 L 178.4858 -56.7258 L 178.9947 -55.6168 L 179.5055 -54.4895 L 180.0182 -53.3441 L 180.5329 -52.1805 L 181.0495 -50.9987 L 181.5681 -49.7987 L 182.0887 -48.5806 L 182.6113 -47.3443 L 183.1361 -46.0897 L 183.6630 -44.8171 L 184.1920 -43.5262 L 184.7232 -42.2171 L 185.2566 -40.8899 L 185.7923 -39.5445 L 186.3302 -38.1809 L 186.8704 -36.7991 L 187.4129 -35.3991 L 187.9578 -33.9810 L 188.5051 -32.5446 L 189.0549 -31.0901 L 189.6070 -29.6174 L 190.1617 -28.1266 L 190.7188 -26.6175 L 191.2785 -25.0903 L 191.8408 -23.5449 L 192.4057 -21.9813 L 192.9732 -20.3995 L 193.5434 -18.7995 L 194.1163 -17.1814 L 194.6919 -15.5451 L 195.2702 -13.8906 L 195.8514 -12.2179 L 196.4354 -10.5270 L 197.0222 -8.8180 L 197.6119 -7.0907 L 198.2045 -5.3453 L 198.8000 -3.5817 L 199.3985 -1.8000 L 200.0000 0 L 200.0000 0 L 200.6015 1.8000 L 201.2000 3.5817 L 201.7955 5.3453 L 202.3881 7.0907 L 202.9778 8.8180 L 203.5646 10.5270 L 204.1486 12.2179 L 204.7298 13.8906 L 205.3081 15.5451 L 205.8837 17.1814 L 206.4566 18.7995 L 207.0268 20.3995 L 207.5943 21.9813 L 208.1592 23.5449 L 208.7215 25.0903 L 209.2812 26.6175 L 209.8383 28.1266 L 210.3930 29.6174 L 210.9451 31.0901 L 211.4949 32.5446 L 212.0422 33.9810 L 212.5871 35.3991 L 213.1296 36.7991 L 213.6698 38.1809 L 214.2077 39.5445 L 214.7434 40.8899 L 215.2768 42.2171 L 215.8080 43.5262 L 216.3370 44.8171 L 216.8639 46.0897 L 217.3887 47.3443 L 217.9113 48.5806 L 218.4319 49.7987 L 218.9505 50.9987 L 219.4671 52.1805 L 219.9818 53.3441 L 220.4945 54.4895 L 221.0053 55.6168 L 221.5142 56.7258 L 222.0213 57.8167 L 222.5265 58.8894 L 223.0300 59.9439 L 223.5318 60.9803 L 224.0318 61.9984 L 224.5301 62.9984 L 225.0268 63.9802 L 225.5218 64.9438 L 226.0152 65.8892 L 226.5071 66.8165 L 226.9974 67.7256 L 227.4863 68.6164 L 227.9736 69.4892 L 228.4595 70.3437 L 228.9440 71.1800 L 229.4271 71.9982 L 229.9088 72.7982 L 230.3893 73.5800 L 230.8684 74.3436 L 231.3462 75.0890 L 231.8229 75.8163 L 232.2983 76.5253 L 232.7725 77.2162 L 233.2456 77.8889 L 233.7176 78.5435 L 234.1886 79.1798 L 234.6584 79.7980 L 235.1273 80.3980 L 235.5951 80.9798 L 236.0620 81.5434 L 236.5280 82.0888 L 236.9931 82.6161 L 237.4573 83.1252 L 237.9206 83.6161 L 238.3832 84.0888 L 238.8450 84.5433 L 239.3060 84.9797 L 239.7663 85.3978 L 240.2259 85.7978 L 240.6849 86.1796 L 241.1433 86.5433 L 241.6010 86.8887 L 242.0582 87.2160 L 242.5149 87.5251 L 242.9710 87.8160 L 243.4267 88.0887 L 243.8820 88.3432 L 244.3368 88.5796 L 244.7913 88.7978 L 245.2454 88.9978 L 245.6992 89.1796 L 246.1527 89.3432 L 246.6059 89.4886 L 247.0589 89.6159 L 247.5117 89.7250 L 247.9644 89.8159 L 248.4169 89.8886 L 248.8693 89.9432 L 249.3216 89.9795 L 249.7739 89.9977 L 250.2261 89.9977 L 250.6784 89.9795 L 251.1307 89.9432 L 251.5831 89.8886 L 252.0356 89.8159 L 252.4883 89.7250 L 252.9411 89.6159 L 253.3941 89.4886 L 253.8473 89.3432 L 254.3008 89.1796 L 254.7546 88.9978 L 255.2087 88.7978 L 255.6632 88.5796 L 256.1180 88.3432 L 256.5733 88.0887 L 257.0290 87.8160 L 257.4851 87.5251 L 257.9418 87.2160 L 258.3990 86.8887 L 258.8567 86.5433 L 259.3151 86.1796 L 259.7741 85.7978 L 260.2337 85.3978 L 260.6940 84.9797 L 261.1550 84.5433 L 261.6168 84.0888 L 262.0794 83.6161 L 262.5427 83.1252 L 263.0069 82.6161 L 263.4720 82.0888 L 263.9380 81.5434 L 264.4049 80.9798 L 264.8727 80.3980 L 265.3416 79.7980 L 265.8114 79.1798 L 266.2824 78.5435 L 266.7544 77.8889 L 267.2275 77.2162 L 267.7017 76.5253 L 268.1771 75.8163 L 268.6538 75.0890 L 269.1316 74.3436 L 269.6107 73.5800 L 270.0912 72.7982 L 270.5729 71.9982 L 271.0560 71.1800 L 271.5405 70.3437 L 272.0264 69.4892 L 272.5137 68.6164 L 273.0026 67.7256 L 273.4929 66.8165 L 273.9848 65.8892 L 274.4782 64.9438 L 274.9732 63.9802 L 275.4699 62.9984 L 275.9682 61.9984 L 276.4682 60.9803 L 276.9700 59.9439 L 277.4735 58.8894 L 277.9787 57.8167 L 278.4858 56.7258 L 278.9947 55.6168 L 279.5055 54.4895 L 280.0182 53.3441 L 280.5329 52.1805 L 281.0495 50.9987 L 281.5681 49.7987 L 282.0887 48.5806 L 282.6113 47.3443 L 283.1361 46.0897 L 283.6630 44.8171 L 284.1920 43.5262 L 284.7232 42.2171 L 285.2566 40.8899 L 285.7923 39.5445 L 286.3302 38.1809 L 286.8704 36.7991 L 287.4129 35.3991 L 287.9578 33.9810 L 288.5051 32.5446 L 289.0549 31.0901 L 289.6070 29.6174 L 290.1617 28.1266 L 290.7188 26.6175 L 291.2785 25.0903 L 291.8408 23.5449 L 292.4057 21.9813 L 292.9732 20.3995 L 293.5434 18.7995 L 294.1163 17.1814 L 294.6919 15.5451 L 295.2702 13.8906 L 295.8514 12.2179 L 296.4354 10.5270 L 297.0222 8.8180 L 297.6119 7.0907 L 298.2045 5.3453 L 298.8000 3.5817 L 299.3985 1.8000 L 300.0000 0"/>
  <path fill="none" stroke="#ff9900" stroke-opacity="0.6" stroke-width="0.6" d=""/>
  <path fill="none" stroke="#222222" stroke-opacity="0.7" stroke-width="0.6" d=""/>
  <circle cx="0" cy="0" r="0.6000" fill="#222222" fill-opacity="0.5"/>
    <circle cx="0.8137" cy="2.4327" r="0.6000" fill="#222222" fill-opacity="0.5"/>
    <circle cx="1.6318" cy="4.8615" r="0.6000" fill="#222222" fill-opacity="0.5"/>
    <circle cx="2.4553" cy="7.2878" r="0.6000" fill="#222222" fill-opacity="0.5"/>
    <circle cx="3.2852" cy="9.7143" r="0.6000" fill="#222222" fill-opacity="0.5"/>
    <circle cx="4.1201" cy="12.1356" r="0.6000" fill="#222222" fill-opacity="0.5"/>
    <circle cx="4.9627" cy="14.5582" r="0.6000" fill="#222222" fill-opacity="0.5"/>
    <circle cx="5.8111" cy="16.9756" r="0.6000" fill="#222222" fill-opacity="0.5"/>
    <circle cx="6.6675" cy="19.3926" r="0.6000" fill="#222222" fill-opacity="0.5"/>
    <circle cx="7.5307" cy="21.8047" r="0.6000" fill="#222222" fill-opacity="0.5"/>
    <circle cx="8.4029" cy="24.2162" r="0.6000" fill="#222222" fill-opacity="0.5"/>
    <circle cx="9.2826" cy="26.6213" r="0.6000" fill="#222222" fill-opacity="0.5"/>
    <circle cx="10.1729" cy="29.0271" r="0.6000" fill="#222222" fill-opacity="0.5"/>
    <circle cx="11.0720" cy="31.4268" r="0.6000" fill="#222222" fill-opacity="0.5"/>
    <circle cx="11.9815" cy="33.8224" r="0.6000" fill="#222222" fill-opacity="0.5"/>
    <circle cx="12.9029" cy="36.2155" r="0.6000" fill="#222222" fill-opacity="0.5"/>
    <circle cx="13.8357" cy="38.6026" r="0.6000" fill="#222222" fill-opacity="0.5"/>
    <circle cx="14.7809" cy="40.9836" r="0.6000" fill="#222222" fill-opacity="0.5"/>
    <circle cx="15.7406" cy="43.3608" r="0.6000" fill="#222222" fill-opacity="0.5"/>
    <circle cx="16.7153" cy="45.7322" r="0.6000" fill="#222222" fill-opacity="0.5"/>
    <circle cx="17.7060" cy="48.0964" r="0.6000" fill="#222222" fill-opacity="0.5"/>
    <circle cx="18.7140" cy="50.4531" r="0.6000" fill="#222222" fill-opacity="0.5"/>
    <circle cx="19.7410" cy="52.8015" r="0.6000" fill="#222222" fill-opacity="0.5"/>
    <circle cx="20.7887" cy="55.1406" r="0.6000" fill="#222222" fill-opacity="0.5"/>
    <circle cx="21.8590" cy="57.4693" r="0.6000" fill="#222222" fill-opacity="0.5"/>
    <circle cx="22.9541" cy="59.7858" r="0.6000" fill="#222222" fill-opacity="0.5"/>
    <circle cx="24.0769" cy="62.0895" r="0.6000" fill="#222222" fill-opacity="0.5"/>
    <circle cx="25.2310" cy="64.3796" r="0.6000" fill="#222222" fill-opacity="0.5"/>
    <circle cx="26.4183" cy="66.6502" r="0.6000" fill="#222222" fill-opacity="0.5"/>
    <circle cx="27.6445" cy="68.9016" r="0.6000" fill="#222222" fill-opacity="0.5"/>
    <circle cx="28.9131" cy="71.1272" r="0.6000" fill="#222222" fill-opacity="0.5"/>
    <circle cx="30.2322" cy="73.3262" r="0.6000" fill="#222222" fill-opacity="0.5"/>
    <circle cx="31.6073" cy="75.4894" r="0.6000" fill="#222222" fill-opacity="0.5"/>
    <circle cx="33.0476" cy="77.6094" r="0.6000" fill="#222222" fill-opacity="0.5"/>
    <circle cx="34.5638" cy="79.6749" r="0.6000" fill="#222222" fill-opacity="0.5"/>
    <circle cx="36.1704" cy="81.6718" r="0.6000" fill="#222222" fill-opacity="0.5"/>
    <circle cx="37.8832" cy="83.5771" r="0.6000" fill="#222222" fill-opacity="0.5"/>
    <circle cx="39.7238" cy="85.3600" r="0.6000" fill="#222222" fill-opacity="0.5"/>
    <circle cx="41.7156" cy="86.9724" r="0.6000" fill="#222222" fill-opacity="0.5"/>
    <circle cx="43.8790" cy="88.3416" r="0.6000" fill="#222222" fill-opacity="0.5"/>
    <circle cx="46.2249" cy="89.3676" r="0.6000" fill="#222222" fill-opacity="0.5"/>
    <circle cx="48.7213" cy="89.9273" r="0.6000" fill="#222222" fill-opacity="0.5"/>
    <circle cx="51.2787" cy="89.9273" r="0.6000" fill="#222222" fill-opacity="0.5"/>
    <circle cx="53.7751" cy="89.3676" r="0.6000" fill="#222222" fill-opacity="0.5"/>
    <circle cx="56.1210" cy="88.3416" r="0.6000" fill="#222222" fill-opacity="0.5"/>
    <circle cx="58.2844" cy="86.9724" r="0.6000" fill="#222222" fill-opacity="0.5"/>
    <circle cx="60.2762" cy="85.3600" r="0.6000" fill="#222222" fill-opacity="0.5"/>
    <circle cx="62.1168" cy="83.5771" r="0.6000" fill="#222222" fill-opacity="0.5"/>
    <circle cx="63.8296" cy="81.6718" r="0.6000" fill="#222222" fill-opacity="0.5"/>
    <circle cx="65.4362" cy="79.6749" r="0.6000" fill="#222222" fill-opacity="0.5"/>
    <circle cx="66.9524" cy="77.6094" r="0.6000" fill="#222222" fill-opacity="0.5"/>
    <circle cx="68.3927" cy="75.4894" r="0.6000" fill="#222222" fill-opacity="0.5"/>
    <circle cx="69.7678" cy="73.3262" r="0.6000" fill="#222222" fill-opacity="0.5"/>
    <circle cx="71.0869" cy="71.1272" r="0.6000" fill="#222222" fill-opacity="0.5"/>
    <circle cx="72.3555" cy="68.9016" r="0.6000" fill="#222222" fill-opacity="0.5"/>
    <circle cx="73.5817" cy="66.6502" r="0.6000" fill="#222222" fill-opacity="0.5"/>
    <circle cx="74.7690" cy="64.3796" r="0.6000" fill="#222222" fill-opacity="0.5"/>
    <circle cx="75.9231" cy="62.0895" r="0.6000" fill="#222222" fill-opacity="0.5"/>
    <circle cx="77.0459" cy="59.7858" r="0.6000" fill="#222222" fill-opacity="0.5"/>
    <circle cx="78.1410" cy="57.4693" r="0.6000" fill="#222222" fill-opacity="0.5"/>
    <circle cx="79.2113" cy="55.1406" r="0.6000" fill="#222222" fill-opacity="0.5"/>
    <circle cx="80.2590" cy="52.8015" r="0.6000" fill="#222222" fill-opacity="0.5"/>
    <circle cx="81.2860" cy="50.4531" r="0.6000" fill="#222222" fill-opacity="0.5"/>
    <circle cx="82.2940" cy="48.0964" r="0.6000" fill="#222222" fill-opacity="0.5"/>
    <circle cx="83.2847" cy="45.7322" r="0.6000" fill="#222222" fill-opacity="0.5"/>
    <circle cx="84.2594" cy="43.3608" r="0.6000" fill="#222222" fill-opacity="0.5"/>
    <circle cx="85.2191" cy="40.9836" r="0.6000" fill="#222222" fill-opacity="0.5"/>
    <circle cx="86.1643" cy="38.6026" r="0.6000" fill="#222222" fill-opacity="0.5"/>
    <circle cx="87.0971" cy="36.2155" r="0.6000" fill="#222222" fill-opacity="0.5"/>
    <circle cx="88.0185" cy="33.8224" r="0.6000" fill="#222222" fill-opacity="0.5"/>
    <circle cx="88.9280" cy="31.4268" r="0.6000" fill="#222222" fill-opacity="0.5"/>
    <circle cx="89.8271" cy="29.0271" r="0.6000" fill="#222222" fill-opacity="0.5"/>
    <circle cx="90.7174" cy="26.6213" r="0.6000" fill="#222222" fill-opacity="0.5"/>
    <circle cx="91.5971" cy="24.2162" r="0.6000" fill="#222222" fill-opacity="0.5"/>
    <circle cx="92.4693" cy="21.8047" r="0.6000" fill="#222222" fill-opacity="0.5"/>
    <circle cx="93.3325" cy="19.3926" r="0.6000" fill="#222222" fill-opacity="0.5"/>
    <circle cx="94.1889" cy="16.9756" r="0.6000" fill="#222222" fill-opacity="0.5"/>
    <circle cx="95.0373" cy="14.5582" r="0.6000" fill="#222222" fill-opacity="0.5"/>
    <circle cx="95.8799" cy="12.1356" r="0.6000" fill="#222222" fill-opacity="0.5"/>
    <circle cx="96.7148" cy="9.7143" r="0.6000" fill="#222222" fill-opacity="0.5"/>
    <circle cx="97.5447" cy="7.2878" r="0.6000" fill="#222222" fill-opacity="0.5"/>
    <circle cx="98.3682" cy="4.8615" r="0.6000" fill="#222222" fill-opacity="0.5"/>
    <circle cx="99.1863" cy="2.4327" r="0.6000" fill="#222222" fill-opacity="0.5"/>
    <circle cx="100.0000" cy="0" r="0.6000" fill="#222222" fill-opacity="0.5"/>
    <circle cx="100.8137" cy="-2.4327" r="0.6000" fill="#222222" fill-opacity="0.5"/>
    <circle cx="101.6318" cy="-4.8615" r="0.6000" fill="#222222" fill-opacity="0.5"/>
    <circle cx="102.4553" cy="-7.2878" r="0.6000" fill="#222222" fill-opacity="0.5"/>
    <circle cx="103.2852" cy="-9.7143" r="0.6000" fill="#222222" fill-opacity="0.5"/>
    <circle cx="104.1201" cy="-12.1356" r="0.6000" fill="#222222" fill-opacity="0.5"/>
    <circle cx="104.9627" cy="-14.5582" r="0.6000" fill="#222222" fill-opacity="0.5"/>
    <circle cx="105.8111" cy="-16.9756" r="0.6000" fill="#222222" fill-opacity="0.5"/>
    <circle cx="106.6675" cy="-19.3926" r="0.6000" fill="#222222" fill-opacity="0.5"/>
    <circle cx="107.5307" cy="-21.8047" r="0.6000" fill="#222222" fill-opacity="0.5"/>
    <circle cx="108.4029" cy="-24.2162" r="0.6000" fill="#222222" fill-opacity="0.5"/>
    <circle cx="109.2826" cy="-26.6213" r="0.6000" fill="#222222" fill-opacity="0.5"/>
    <circle cx="110.1729" cy="-29.0271" r="0.6000" fill="#222222" fill-opacity="0.5"/>
    <circle cx="111.0720" cy="-31.4268" r="0.6000" fill="#222222" fill-opacity="0.5"/>
    <circle cx="111.9815" cy="-33.8224" r="0.6000" fill="#222222" fill-opacity="0.5"/>
    <circle cx="112.9029" cy="-36.2155" r="0.6000" fill="#222222" fill-opacity="0.5"/>
    <circle cx="113.8357" cy="-38.6026" r="0.6000" fill="#222222" fill-opacity="0.5"/>
    <circle cx="114.7809" cy="-40.9836" r="0.6000" fill="#222222" fill-opacity="0.5"/>
    <circle cx="115.7406" cy="-43.3608" r="0.6000" fill="#222222" fill-opacity="0.5"/>
    <circle cx="116.7153" cy="-45.7322" r="0.6000" fill="#222222" fill-opacity="0.5"/>
    <circle cx="117.7060" cy="-48.0964" r="0.6000" fill="#222222" fill-opacity="0.5"/>
    <circle cx="118.7140" cy="-50.4531" r="0.6000" fill="#222222" fill-opacity="0.5"/>
    <circle cx="119.7410" cy="-52.8015" r="0.6000" fill="#222222" fill-opacity="0.5"/>
    <circle cx="120.7887" cy="-55.1406" r="0.6000" fill="#222222" fill-opacity="0.5"/>
    <circle cx="121.8590" cy="-57.4693" r="0.6000" fill="#222222" fill-opacity="0.5"/>
    <circle cx="122.9541" cy="-59.7858" r="0.6000" fill="#222222" fill-opacity="0.5"/>
    <circle cx="124.0769" cy="-62.0895" r="0.6000" fill="#222222" fill-opacity="0.5"/>
    <circle cx="125.2310" cy="-64.3796" r="0.6000" fill="#222222" fill-opacity="0.5"/>
    <circle cx="126.4183" cy="-66.6502" r="0.6000" fill="#222222" fill-opacity="0.5"/>
    <circle cx="127.6445" cy="-68.9016" r="0.6000" fill="#222222" fill-opacity="0.5"/>
    <circle cx="128.9131" cy="-71.1272" r="0.6000" fill="#222222" fill-opacity="0.5"/>
    <circle cx="130.2322" cy="-73.3262" r="0.6000" fill="#222222" fill-opacity="0.5"/>
    <circle cx="131.6073" cy="-75.4894" r="0.6000" fill="#222222" fill-opacity="0.5"/>
    <circle cx="133.0476" cy="-77.6094" r="0.6000" fill="#222222" fill-opacity="0.5"/>
    <circle cx="134.5638" cy="-79.6749" r="0.6000" fill="#222222" fill-opacity="0.5"/>
    <circle cx="136.1704" cy="-81.6718" r="0.6000" fill="#222222" fill-opacity="0.5"/>
    <circle cx="137.8832" cy="-83.5771" r="0.6000" fill="#222222" fill-opacity="0.5"/>
    <circle cx="139.7238" cy="-85.3600" r="0.6000" fill="#222222" fill-opacity="0.5"/>
    <circle cx="141.7156" cy="-86.9724" r="0.6000" fill="#222222" fill-opacity="0.5"/>
    <circle cx="143.8790" cy="-88.3416" r="0.6000" fill="#222222" fill-opacity="0.5"/>
    <circle cx="146.2249" cy="-89.3676" r="0.6000" fill="#222222" fill-opacity="0.5"/>
    <circle cx="148.7213" cy="-89.9273" r="0.6000" fill="#222222" fill-opacity="0.5"/>
    <circle cx="151.2787" cy="-89.9273" r="0.6000" fill="#222222" fill-opacity="0.5"/>
    <circle cx="153.7751" cy="-89.3676" r="0.6000" fill="#222222" fill-opacity="0.5"/>
    <circle cx="156.1210" cy="-88.3416" r="0.6000" fill="#222222" fill-opacity="0.5"/>
    <circle cx="158.2844" cy="-86.9724" r="0.6000" fill="#222222" fill-opacity="0.5"/>
    <circle cx="160.2762" cy="-85.3600" r="0.6000" fill="#222222" fill-opacity="0.5"/>
    <circle cx="162.1168" cy="-83.5771" r="0.6000" fill="#222222" fill-opacity="0.5"/>
    <circle cx="163.8296" cy="-81.6718" r="0.6000" fill="#222222" fill-opacity="0.5"/>
    <circle cx="165.4362" cy="-79.6749" r="0.6000" fill="#222222" fill-opacity="0.5"/>
    <circle cx="166.9524" cy="-77.6094" r="0.6000" fill="#222222" fill-opacity="0.5"/>
    <circle cx="168.3927" cy="-75.4894" r="0.6000" fill="#222222" fill-opacity="0.5"/>
    <circle cx="169.7678" cy="-73.3262" r="0.6000" fill="#222222" fill-opacity="0.5"/>
    <circle cx="171.0869" cy="-71.1272" r="0.6000" fill="#222222" fill-opacity="0.5"/>
    <circle cx="172.3555" cy="-68.9016" r="0.6000" fill="#222222" fill-opacity="0.5"/>
    <circle cx="173.5817" cy="-66.6502" r="0.6000" fill="#222222" fill-opacity="0.5"/>
    <circle cx="174.7690" cy="-64.3796" r="0.6000" fill="#222222" fill-opacity="0.5"/>
    <circle cx="175.9231" cy="-62.0895" r="0.6000" fill="#222222" fill-opacity="0.5"/>
    <circle cx="177.0459" cy="-59.7858" r="0.6000" fill="#222222" fill-opacity="0.5"/>
    <circle cx="178.1410" cy="-57.4693" r="0.6000" fill="#222222" fill-opacity="0.5"/>
    <circle cx="179.2113" cy="-55.1406" r="0.6000" fill="#222222" fill-opacity="0.5"/>
    <circle cx="180.2590" cy="-52.8015" r="0.6000" fill="#222222" fill-opacity="0.5"/>
    <circle cx="181.2860" cy="-50.4531" r="0.6000" fill="#222222" fill-opacity="0.5"/>
    <circle cx="182.2940" cy="-48.0964" r="0.6000" fill="#222222" fill-opacity="0.5"/>
    <circle cx="183.2847" cy="-45.7322" r="0.6000" fill="#222222" fill-opacity="0.5"/>
    <circle cx="184.2594" cy="-43.3608" r="0.6000" fill="#222222" fill-opacity="0.5"/>
    <circle cx="185.2191" cy="-40.9836" r="0.6000" fill="#222222" fill-opacity="0.5"/>
    <circle cx="186.1643" cy="-38.6026" r="0.6000" fill="#222222" fill-opacity="0.5"/>
    <circle cx="187.0971" cy="-36.2155" r="0.6000" fill="#222222" fill-opacity="0.5"/>
    <circle cx="188.0185" cy="-33.8224" r="0.6000" fill="#222222" fill-opacity="0.5"/>
    <circle cx="188.9280" cy="-31.4268" r="0.6000" fill="#222222" fill-opacity="0.5"/>
    <circle cx="189.8271" cy="-29.0271" r="0.6000" fill="#222222" fill-opacity="0.5"/>
    <circle cx="190.7174" cy="-26.6213" r="0.6000" fill="#222222" fill-opacity="0.5"/>
    <circle cx="191.5971" cy="-24.2162" r="0.6000" fill="#222222" fill-opacity="0.5"/>
    <circle cx="192.4693" cy="-21.8047" r="0.6000" fill="#222222" fill-opacity="0.5"/>
    <circle cx="193.3325" cy="-19.3926" r="0.6000" fill="#222222" fill-opacity="0.5"/>
    <circle cx="194.1889" cy="-16.9756" r="0.6000" fill="#222222" fill-opacity="0.5"/>
    <circle cx="195.0373" cy="-14.5582" r="0.6000" fill="#222222" fill-opacity="0.5"/>
    <circle cx="195.8799" cy="-12.1356" r="0.6000" fill="#222222" fill-opacity="0.5"/>
    <circle cx="196.7148" cy="-9.7143" r="0.6000" fill="#222222" fill-opacity="0.5"/>
    <circle cx="197.5447" cy="-7.2878" r="0.6000" fill="#222222" fill-opacity="0.5"/>
    <circle cx="198.3682" cy="-4.8615" r="0.6000" fill="#222222" fill-opacity="0.5"/>
    <circle cx="199.1863" cy="-2.4327" r="0.6000" fill="#222222" fill-opacity="0.5"/>
    <circle cx="200.0000" cy="0" r="0.6000" fill="#222222" fill-opacity="0.5"/>
    <circle cx="200.8137" cy="2.4327" r="0.6000" fill="#222222" fill-opacity="0.5"/>
    <circle cx="201.6318" cy="4.8615" r="0.6000" fill="#222222" fill-opacity="0.5"/>
    <circle cx="202.4553" cy="7.2878" r="0.6000" fill="#222222" fill-opacity="0.5"/>
    <circle cx="203.2852" cy="9.7143" r="0.6000" fill="#222222" fill-opacity="0.5"/>
    <circle cx="204.1201" cy="12.1356" r="0.6000" fill="#222222" fill-opacity="0.5"/>
    <circle cx="204.9627" cy="14.5582" r="0.6000" fill="#222222" fill-opacity="0.5"/>
    <circle cx="205.8111" cy="16.9756" r="0.6000" fill="#222222" fill-opacity="0.5"/>
    <circle cx="206.6675" cy="19.3926" r="0.6000" fill="#222222" fill-opacity="0.5"/>
    <circle cx="207.5307" cy="21.8047" r="0.6000" fill="#222222" fill-opacity="0.5"/>
    <circle cx="208.4029" cy="24.2162" r="0.6000" fill="#222222" fill-opacity="0.5"/>
    <circle cx="209.2826" cy="26.6213" r="0.6000" fill="#222222" fill-opacity="0.5"/>
    <circle cx="210.1729" cy="29.0271" r="0.6000" fill="#222222" fill-opacity="0.5"/>
    <circle cx="211.0720" cy="31.4268" r="0.6000" fill="#222222" fill-opacity="0.5"/>
    <circle cx="211.9815" cy="33.8224" r="0.6000" fill="#222222" fill-opacity="0.5"/>
    <circle cx="212.9029" cy="36.2155" r="0.6000" fill="#222222" fill-opacity="0.5"/>
    <circle cx="213.8357" cy="38.6026" r="0.6000" fill="#222222" fill-opacity="0.5"/>
    <circle cx="214.7809" cy="40.9836" r="0.6000" fill="#222222" fill-opacity="0.5"/>
    <circle cx="215.7406" cy="43.3608" r="0.6000" fill="#222222" fill-opacity="0.5"/>
    <circle cx="216.7153" cy="45.7322" r="0.6000" fill="#222222" fill-opacity="0.5"/>
    <circle cx="217.7060" cy="48.0964" r="0.6000" fill="#222222" fill-opacity="0.5"/>
    <circle cx="218.7140" cy="50.4531" r="0.6000" fill="#222222" fill-opacity="0.5"/>
    <circle cx="219.7410" cy="52.8015" r="0.6000" fill="#222222" fill-opacity="0.5"/>
    <circle cx="220.7887" cy="55.1406" r="0.6000" fill="#222222" fill-opacity="0.5"/>
    <circle cx="221.8590" cy="57.4693" r="0.6000" fill="#222222" fill-opacity="0.5"/>
    <circle cx="222.9541" cy="59.7858" r="0.6000" fill="#222222" fill-opacity="0.5"/>
    <circle cx="224.0769" cy="62.0895" r="0.6000" fill="#222222" fill-opacity="0.5"/>
    <circle cx="225.2310" cy="64.3796" r="0.6000" fill="#222222" fill-opacity="0.5"/>
    <circle cx="226.4183" cy="66.6502" r="0.6000" fill="#222222" fill-opacity="0.5"/>
    <circle cx="227.6445" cy="68.9016" r="0.6000" fill="#222222" fill-opacity="0.5"/>
    <circle cx="228.9131" cy="71.1272" r="0.6000" fill="#222222" fill-opacity="0.5"/>
    <circle cx="230.2322" cy="73.3262" r="0.6000" fill="#222222" fill-opacity="0.5"/>
    <circle cx="231.6073" cy="75.4894" r="0.6000" fill="#222222" fill-opacity="0.5"/>
    <circle cx="233.0476" cy="77.6094" r="0.6000" fill="#222222" fill-opacity="0.5"/>
    <circle cx="234.5638" cy="79.6749" r="0.6000" fill="#222222" fill-opacity="0.5"/>
    <circle cx="236.1704" cy="81.6718" r="0.6000" fill="#222222" fill-opacity="0.5"/>
    <circle cx="237.8832" cy="83.5771" r="0.6000" fill="#222222" fill-opacity="0.5"/>
    <circle cx="239.7238" cy="85.3600" r="0.6000" fill="#222222" fill-opacity="0.5"/>
    <circle cx="241.7156" cy="86.9724" r="0.6000" fill="#222222" fill-opacity="0.5"/>
    <circle cx="243.8790" cy="88.3416" r="0.6000" fill="#222222" fill-opacity="0.5"/>
    <circle cx="246.2249" cy="89.3676" r="0.6000" fill="#222222" fill-opacity="0.5"/>
    <circle cx="248.7213" cy="89.9273" r="0.6000" fill="#222222" fill-opacity="0.5"/>
    <circle cx="251.2787" cy="89.9273" r="0.6000" fill="#222222" fill-opacity="0.5"/>
    <circle cx="253.7751" cy="89.3676" r="0.6000" fill="#222222" fill-opacity="0.5"/>
    <circle cx="256.1210" cy="88.3416" r="0.6000" fill="#222222" fill-opacity="0.5"/>
    <circle cx="258.2844" cy="86.9724" r="0.6000" fill="#222222" fill-opacity="0.5"/>
    <circle cx="260.2762" cy="85.3600" r="0.6000" fill="#222222" fill-opacity="0.5"/>
    <circle cx="262.1168" cy="83.5771" r="0.6000" fill="#222222" fill-opacity="0.5"/>
    <circle cx="263.8296" cy="81.6718" r="0.6000" fill="#222222" fill-opacity="0.5"/>
    <circle cx="265.4362" cy="79.6749" r="0.6000" fill="#222222" fill-opacity="0.5"/>
    <circle cx="266.9524" cy="77.6094" r="0.6000" fill="#222222" fill-opacity="0.5"/>
    <circle cx="268.3927" cy="75.4894" r="0.6000" fill="#222222" fill-opacity="0.5"/>
    <circle cx="269.7678" cy="73.3262" r="0.6000" fill="#222222" fill-opacity="0.5"/>
    <circle cx="271.0869" cy="71.1272" r="0.6000" fill="#222222" fill-opacity="0.5"/>
    <circle cx="272.3555" cy="68.9016" r="0.6000" fill="#222222" fill-opacity="0.5"/>
    <circle cx="273.5817" cy="66.6502" r="0.6000" fill="#222222" fill-opacity="0.5"/>
    <circle cx="274.7690" cy="64.3796" r="0.6000" fill="#222222" fill-opacity="0.5"/>
    <circle cx="275.9231" cy="62.0895" r="0.6000" fill="#222222" fill-opacity="0.5"/>
    <circle cx="277.0459" cy="59.7858" r="0.6000" fill="#222222" fill-opacity="0.5"/>
    <circle cx="278.1410" cy="57.4693" r="0.6000" fill="#222222" fill-opacity="0.5"/>
    <circle cx="279.2113" cy="55.1406" r="0.6000" fill="#222222" fill-opacity="0.5"/>
    <circle cx="280.2590" cy="52.8015" r="0.6000" fill="#222222" fill-opacity="0.5"/>
    <circle cx="281.2860" cy="50.4531" r="0.6000" fill="#222222" fill-opacity="0.5"/>
    <circle cx="282.2940" cy="48.0964" r="0.6000" fill="#222222" fill-opacity="0.5"/>
    <circle cx="283.2847" cy="45.7322" r="0.6000" fill="#222222" fill-opacity="0.5"/>
    <circle cx="284.2594" cy="43.3608" r="0.6000" fill="#222222" fill-opacity="0.5"/>
    <circle cx="285.2191" cy="40.9836" r="0.6000" fill="#222222" fill-opacity="0.5"/>
    <circle cx="286.1643" cy="38.6026" r="0.6000" fill="#222222" fill-opacity="0.5"/>
    <circle cx="287.0971" cy="36.2155" r="0.6000" fill="#222222" fill-opacity="0.5"/>
    <circle cx="288.0185" cy="33.8224" r="0.6000" fill="#222222" fill-opacity="0.5"/>
    <circle cx="288.9280" cy="31.4268" r="0.6000" fill="#222222" fill-opacity="0.5"/>
    <circle cx="289.8271" cy="29.0271" r="0.6000" fill="#222222" fill-opacity="0.5"/>
    <circle cx="290.7174" cy="26.6213" r="0.6000" fill="#222222" fill-opacity="0.5"/>
    <circle cx="291.5971" cy="24.2162" r="0.6000" fill="#222222" fill-opacity="0.5"/>
    <circle cx="292.4693" cy="21.8047" r="0.6000" fill="#222222" fill-opacity="0.5"/>
    <circle cx="293.3325" cy="19.3926" r="0.6000" fill="#222222" fill-opacity="0.5"/>
    <circle cx="294.1889" cy="16.9756" r="0.6000" fill="#222222" fill-opacity="0.5"/>
    <circle cx="295.0373" cy="14.5582" r="0.6000" fill="#222222" fill-opacity="0.5"/>
    <circle cx="295.8799" cy="12.1356" r="0.6000" fill="#222222" fill-opacity="0.5"/>
    <circle cx="296.7148" cy="9.7143" r="0.6000" fill="#222222" fill-opacity="0.5"/>
    <circle cx="297.5447" cy="7.2878" r="0.6000" fill="#222222" fill-opacity="0.5"/>
    <circle cx="298.3682" cy="4.8615" r="0.6000" fill="#222222" fill-opacity="0.5"/>
    <circle cx="299.1863" cy="2.4327" r="0.6000" fill="#222222" fill-opacity="0.5"/>
    <circle cx="300.0000" cy="0" r="0.6000" fill="#222222" fill-opacity="0.5"/>
  <path fill="none" stroke="#8844ff" stroke-opacity="0.35" stroke-width="0.6" d="M -2.1889 6.0140 L -1.3752 8.4468 L -0.5571 10.8755 L 0.2663 13.3018 L 1.0962 15.7283 L 1.9312 18.1497 L 2.7738 20.5722 L 3.6222 22.9896 L 4.4786 25.4066 L 5.3418 27.8187 L 6.2140 30.2302 L 7.0936 32.6354 L 7.9839 35.0412 L 8.8831 37.4408 L 9.7926 39.8364 L 10.7140 42.2296 L 11.6467 44.6166 L 12.5920 46.9977 L 13.5517 49.3748 L 14.5264 51.7462 L 15.5170 54.1105 L 16.5251 56.4671 L 17.5521 58.8155 L 18.5998 61.1546 L 19.6701 63.4833 L 20.7652 65.7999 L 21.8879 68.1035 L 23.0421 70.3936 L 24.2294 72.6642 L 25.4556 74.9156 L 26.7242 77.1412 L 28.0433 79.3403 L 29.4184 81.5034 L 30.8587 83.6234 L 32.3749 85.6889 L 33.9815 87.6858 L 35.6943 89.5911 L 37.5349 91.3740 L 39.5267 92.9864 L 41.6901 94.3557 L 44.0360 95.3816 L 46.5324 95.9414 L 49.0897 95.9414 L 51.5862 95.3816 L 53.9321 94.3557 L 56.0955 92.9864 L 58.0872 91.3740 L 59.9279 89.5911 L 61.6407 87.6858 L 63.2472 85.6889 L 64.7635 83.6234 L 66.2038 81.5034 L 67.5788 79.3403 L 68.8980 77.1412 L 70.1665 74.9156 L 71.3928 72.6642 L 72.5801 70.3936 L 73.7342 68.1035 L 74.8570 65.7999 L 75.9520 63.4833 L 77.0224 61.1546 L 78.0701 58.8155 L 79.0971 56.4671 L 80.1051 54.1105 L 81.0958 51.7462 L 82.0705 49.3748 L 83.0302 46.9977 L 83.9754 44.6166 L 84.9082 42.2296 L 85.8296 39.8364 L 86.7391 37.4408 L 87.6382 35.0412 L 88.5285 32.6354 L 89.4081 30.2302 L 90.2803 27.8187 L 91.1436 25.4066 L 92.0000 22.9896 L 92.8484 20.5722 L 93.6909 18.1497 L 94.5259 15.7283 L 95.3558 13.3018 L 96.1792 10.8755 L 96.9974 8.4468 L 97.8111 6.0140 L 98.6248 3.5813 L 99.4429 1.1525 L 100.2663 -1.2738 L 101.0962 -3.7002 L 101.9312 -6.1216 L 102.7738 -8.5441 L 103.6222 -10.9615 L 104.4786 -13.3785 L 105.3418 -15.7906 L 106.2140 -18.2022 L 107.0936 -20.6073 L 107.9839 -23.0131 L 108.8831 -25.4127 L 109.7926 -27.8083 L 110.7140 -30.2015 L 111.6467 -32.5886 L 112.5920 -34.9696 L 113.5517 -37.3467 L 114.5264 -39.7181 L 115.5170 -42.0824 L 116.5251 -44.4391 L 117.5521 -46.7874 L 118.5998 -49.1266 L 119.6701 -51.4553 L 120.7652 -53.7718 L 121.8879 -56.0755 L 123.0421 -58.3655 L 124.2294 -60.6362 L 125.4556 -62.8875 L 126.7242 -65.1131 L 128.0433 -67.3122 L 129.4184 -69.4754 L 130.8587 -71.5953 L 132.3749 -73.6609 L 133.9815 -75.6578 L 135.6943 -77.5631 L 137.5349 -79.3460 L 139.5267 -80.9584 L 141.6901 -82.3276 L 144.0360 -83.3536 L 146.5324 -83.9133 L 149.0897 -83.9133 L 151.5862 -83.3536 L 153.9321 -82.3276 L 156.0955 -80.9584 L 158.0872 -79.3460 L 159.9279 -77.5631 L 161.6407 -75.6578 L 163.2472 -73.6609 L 164.7635 -71.5953 L 166.2038 -69.4754 L 167.5788 -67.3122 L 168.8980 -65.1131 L 170.1665 -62.8875 L 171.3928 -60.6362 L 172.5801 -58.3655 L 173.7342 -56.0755 L 174.8570 -53.7718 L 175.9520 -51.4553 L 177.0224 -49.1266 L 178.0701 -46.7874 L 179.0971 -44.4391 L 180.1051 -42.0824 L 181.0958 -39.7181 L 182.0705 -37.3467 L 183.0302 -34.9696 L 183.9754 -32.5886 L 184.9082 -30.2015 L 185.8296 -27.8083 L 186.7391 -25.4127 L 187.6382 -23.0131 L 188.5285 -20.6073 L 189.4081 -18.2022 L 190.2803 -15.7906 L 191.1436 -13.3785 L 192.0000 -10.9615 L 192.8484 -8.5441 L 193.6909 -6.1216 L 194.5259 -3.7002 L 195.3558 -1.2738 L 196.1792 1.1525 L 196.9974 3.5813 L 197.8111 6.0140 L 198.6248 8.4468 L 199.4429 10.8755 L 200.2663 13.3018 L 201.0962 15.7283 L 201.9312 18.1497 L 202.7738 20.5722 L 203.6222 22.9896 L 204.4786 25.4066 L 205.3418 27.8187 L 206.2140 30.2302 L 207.0936 32.6354 L 207.9839 35.0412 L 208.8831 37.4408 L 209.7926 39.8364 L 210.7140 42.2296 L 211.6467 44.6166 L 212.5920 46.9977 L 213.5517 49.3748 L 214.5264 51.7462 L 215.5170 54.1105 L 216.5251 56.4671 L 217.5521 58.8155 L 218.5998 61.1546 L 219.6701 63.4833 L 220.7652 65.7999 L 221.8879 68.1035 L 223.0421 70.3936 L 224.2294 72.6642 L 225.4556 74.9156 L 226.7242 77.1412 L 228.0433 79.3403 L 229.4184 81.5034 L 230.8587 83.6234 L 232.3749 85.6889 L 233.9815 87.6858 L 235.6943 89.5911 L 237.5349 91.3740 L 239.5267 92.9864 L 241.6901 94.3557 L 244.0360 95.3816 L 246.5324 95.9414 L 249.0897 95.9414 L 251.5862 95.3816 L 253.9321 94.3557 L 256.0955 92.9864 L 258.0872 91.3740 L 259.9279 89.5911 L 261.6407 87.6858 L 263.2472 85.6889 L 264.7635 83.6234 L 266.2038 81.5034 L 267.5788 79.3403 L 268.8980 77.1412 L 270.1665 74.9156 L 271.3928 72.6642 L 272.5801 70.3936 L 273.7342 68.1035 L 274.8570 65.7999 L 275.9520 63.4833 L 277.0224 61.1546 L 278.0701 58.8155 L 279.0971 56.4671 L 280.1051 54.1105 L 281.0958 51.7462 L 282.0705 49.3748 L 283.0302 46.9977 L 283.9754 44.6166 L 284.9082 42.2296 L 285.8296 39.8364 L 286.7391 37.4408 L 287.6382 35.0412 L 288.5285 32.6354 L 289.4081 30.2302 L 290.2803 27.8187 L 291.1436 25.4066 L 292.0000 22.9896 L 292.8484 20.5722 L 293.6909 18.1497 L 294.5259 15.7283 L 295.3558 13.3018 L 296.1792 10.8755 L 296.9974 8.4468 L 297.8111 6.0140 L 302.1889 -6.0140 L 301.3752 -3.5813 L 300.5571 -1.1525 L 299.7337 1.2738 L 298.9038 3.7002 L 298.0688 6.1216 L 297.2262 8.5441 L 296.3778 10.9615 L 295.5214 13.3785 L 294.6582 15.7906 L 293.7860 18.2022 L 292.9064 20.6073 L 292.0161 23.0131 L 291.1169 25.4127 L 290.2074 27.8083 L 289.2860 30.2015 L 288.3533 32.5886 L 287.4080 34.9696 L 286.4483 37.3467 L 285.4736 39.7181 L 284.4830 42.0824 L 283.4749 44.4391 L 282.4479 46.7874 L 281.4002 49.1266 L 280.3299 51.4553 L 279.2348 53.7718 L 278.1121 56.0755 L 276.9579 58.3655 L 275.7706 60.6362 L 274.5444 62.8875 L 273.2758 65.1131 L 271.9567 67.3122 L 270.5816 69.4754 L 269.1413 71.5953 L 267.6251 73.6609 L 266.0185 75.6578 L 264.3057 77.5631 L 262.4651 79.3460 L 260.4733 80.9584 L 258.3099 82.3276 L 255.9640 83.3536 L 253.4676 83.9133 L 250.9103 83.9133 L 248.4138 83.3536 L 246.0679 82.3276 L 243.9045 80.9584 L 241.9128 79.3460 L 240.0721 77.5631 L 238.3593 75.6578 L 236.7528 73.6609 L 235.2365 71.5953 L 233.7962 69.4754 L 232.4212 67.3122 L 231.1020 65.1131 L 229.8335 62.8875 L 228.6072 60.6362 L 227.4199 58.3655 L 226.2658 56.0755 L 225.1430 53.7718 L 224.0480 51.4553 L 222.9776 49.1266 L 221.9299 46.7874 L 220.9029 44.4391 L 219.8949 42.0824 L 218.9042 39.7181 L 217.9295 37.3467 L 216.9698 34.9696 L 216.0246 32.5886 L 215.0918 30.2015 L 214.1704 27.8083 L 213.2609 25.4127 L 212.3618 23.0131 L 211.4715 20.6073 L 210.5919 18.2022 L 209.7197 15.7906 L 208.8564 13.3785 L 208.0000 10.9615 L 207.1516 8.5441 L 206.3091 6.1216 L 205.4741 3.7002 L 204.6442 1.2738 L 203.8208 -1.1525 L 203.0026 -3.5813 L 202.1889 -6.0140 L 201.3752 -8.4468 L 200.5571 -10.8755 L 199.7337 -13.3018 L 198.9038 -15.7283 L 198.0688 -18.1497 L 197.2262 -20.5722 L 196.3778 -22.9896 L 195.5214 -25.4066 L 194.6582 -27.8187 L 193.7860 -30.2302 L 192.9064 -32.6354 L 192.0161 -35.0412 L 191.1169 -37.4408 L 190.2074 -39.8364 L 189.2860 -42.2296 L 188.3533 -44.6166 L 187.4080 -46.9977 L 186.4483 -49.3748 L 185.4736 -51.7462 L 184.4830 -54.1105 L 183.4749 -56.4671 L 182.4479 -58.8155 L 181.4002 -61.1546 L 180.3299 -63.4833 L 179.2348 -65.7999 L 178.1121 -68.1035 L 176.9579 -70.3936 L 175.7706 -72.6642 L 174.5444 -74.9156 L 173.2758 -77.1412 L 171.9567 -79.3403 L 170.5816 -81.5034 L 169.1413 -83.6234 L 167.6251 -85.6889 L 166.0185 -87.6858 L 164.3057 -89.5911 L 162.4651 -91.3740 L 160.4733 -92.9864 L 158.3099 -94.3557 L 155.9640 -95.3816 L 153.4676 -95.9414 L 150.9103 -95.9414 L 148.4138 -95.3816 L 146.0679 -94.3557 L 143.9045 -92.9864 L 141.9128 -91.3740 L 140.0721 -89.5911 L 138.3593 -87.6858 L 136.7528 -85.6889 L 135.2365 -83.6234 L 133.7962 -81.5034 L 132.4212 -79.3403 L 131.1020 -77.1412 L 129.8335 -74.9156 L 128.6072 -72.6642 L 127.4199 -70.3936 L 126.2658 -68.1035 L 125.1430 -65.7999 L 124.0480 -63.4833 L 122.9776 -61.1546 L 121.9299 -58.8155 L 120.9029 -56.4671 L 119.8949 -54.1105 L 118.9042 -51.7462 L 117.9295 -49.3748 L 116.9698 -46.9977 L 116.0246 -44.6166 L 115.0918 -42.2296 L 114.1704 -39.8364 L 113.2609 -37.4408 L 112.3618 -35.0412 L 111.4715 -32.6354 L 110.5919 -30.2302 L 109.7197 -27.8187 L 108.8564 -25.4066 L 108.0000 -22.9896 L 107.1516 -20.5722 L 106.3091 -18.1497 L 105.4741 -15.7283 L 104.6442 -13.3018 L 103.8208 -10.8755 L 103.0026 -8.4468 L 102.1889 -6.0140 L 101.3752 -3.5813 L 100.5571 -1.1525 L 99.7337 1.2738 L 98.9038 3.7002 L 98.0688 6.1216 L 97.2262 8.5441 L 96.3778 10.9615 L 95.5214 13.3785 L 94.6582 15.7906 L 93.7860 18.2022 L 92.9064 20.6073 L 92.0161 23.0131 L 91.1169 25.4127 L 90.2074 27.8083 L 89.2860 30.2015 L 88.3533 32.5886 L 87.4080 34.9696 L 86.4483 37.3467 L 85.4736 39.7181 L 84.4830 42.0824 L 83.4749 44.4391 L 82.4479 46.7874 L 81.4002 49.1266 L 80.3299 51.4553 L 79.2348 53.7718 L 78.1121 56.0755 L 76.9579 58.3655 L 75.7706 60.6362 L 74.5444 62.8875 L 73.2758 65.1131 L 71.9567 67.3122 L 70.5816 69.4754 L 69.1413 71.5953 L 67.6251 73.6609 L 66.0185 75.6578 L 64.3057 77.5631 L 62.4651 79.3460 L 60.4733 80.9584 L 58.3099 82.3276 L 55.9640 83.3536 L 53.4676 83.9133 L 50.9103 83.9133 L 48.4138 83.3536 L 46.0679 82.3276 L 43.9045 80.9584 L 41.9128 79.3460 L 40.0721 77.5631 L 38.3593 75.6578 L 36.7528 73.6609 L 35.2365 71.5953 L 33.7962 69.4754 L 32.4212 67.3122 L 31.1020 65.1131 L 29.8335 62.8875 L 28.6072 60.6362 L 27.4199 58.3655 L 26.2658 56.0755 L 25.1430 53.7718 L 24.0480 51.4553 L 22.9776 49.1266 L 21.9299 46.7874 L 20.9029 44.4391 L 19.8949 42.0824 L 18.9042 39.7181 L 17.9295 37.3467 L 16.9698 34.9696 L 16.0246 32.5886 L 15.0918 30.2015 L 14.1704 27.8083 L 13.2609 25.4127 L 12.3618 23.0131 L 11.4715 20.6073 L 10.5919 18.2022 L 9.7197 15.7906 L 8.8564 13.3785 L 8.0000 10.9615 L 7.1516 8.5441 L 6.3091 6.1216 L 5.4741 3.7002 L 4.6442 1.2738 L 3.8208 -1.1525 L 3.0026 -3.5813 L 2.1889 -6.0140 L -2.1889 6.0140 Z"/>
  
  
  
</g>
</svg>