<svg xmlns="http://www.w3.org/2000/svg" width="330.2939" height="222.3637" viewBox="-15.5350 -111.0175 330.2939 222.3637">
  <path fill="black" stroke="none" fill-rule="evenodd" d="M -5.5350 -6.7100 L -5.4885 -5.2587 L -5.3480 -3.7174 L -5.1160 -2.1125 L -4.7965 -0.4715 L -4.3950 1.1776 L -3.9182 2.8066 L -3.3744 4.3875 L -3.2417 4.7197 L -3.0864 5.2442 L -2.5392 6.8196 L -2.4152 7.1272 L -2.2506 7.6777 L -1.7000 9.2476 L -1.5829 9.5358 L -1.4097 10.1085 L -0.8559 11.6732 L -0.7436 11.9474 L -0.5627 12.5394 L -0.0057 14.0988 L 0.1030 14.3621 L 0.2891 14.9650 L 0.8491 16.5192 L 0.9572 16.7788 L 1.1482 17.3917 L 1.7112 18.9408 L 1.8199 19.1998 L 2.0128 19.8130 L 2.5788 21.3572 L 2.6911 21.6229 L 2.8851 22.2339 L 3.4540 23.7731 L 3.5718 24.0498 L 3.7640 24.6497 L 4.3357 26.1841 L 4.4625 26.4795 L 4.6516 27.0648 L 5.2260 28.5944 L 5.3637 28.9132 L 5.5464 29.4734 L 6.1234 30.9984 L 6.2765 31.3501 L 6.4515 31.8825 L 7.0311 33.4029 L 7.2019 33.7927 L 7.3653 34.2854 L 7.9474 35.8012 L 8.1401 36.2381 L 8.2891 36.6841 L 8.8737 38.1955 L 9.0928 38.6890 L 9.2246 39.0803 L 9.8116 40.5873 L 10.0610 41.1456 L 10.1712 41.4703 L 10.7605 42.9730 L 11.0453 43.6064 L 11.1300 43.8542 L 11.7216 45.3526 L 12.0479 46.0740 L 12.1030 46.2340 L 12.6969 47.7283 L 13.0706 48.5496 L 13.0909 48.6081 L 13.6869 50.0983 L 14.1402 51.0887 L 14.6926 52.4610 L 15.2665 53.7078 L 15.7153 54.8162 L 16.3669 56.2237 L 16.3984 56.2835 L 16.7568 57.1631 L 17.4101 58.5667 L 17.5232 58.7796 L 17.8187 59.5007 L 18.4737 60.9005 L 18.6800 61.2869 L 18.9029 61.8278 L 19.5597 63.2240 L 19.8724 63.8071 L 20.0116 64.1428 L 20.6700 65.5353 L 21.1051 66.3426 L 21.1478 66.4449 L 21.8078 67.8338 L 22.4654 69.0484 L 22.9766 70.1188 L 23.6767 71.4059 L 23.8163 71.6300 L 24.1783 72.3843 L 24.8797 73.6680 L 25.2063 74.1902 L 25.4187 74.6307 L 26.1213 75.9111 L 26.6649 76.7767 L 26.7011 76.8514 L 27.4050 78.1285 L 28.1346 79.2858 L 28.2674 79.4676 L 28.7388 80.3195 L 29.4695 81.4737 L 29.8941 82.0532 L 30.1284 82.4747 L 30.8599 83.6259 L 31.6042 84.6379 L 31.6461 84.6861 L 32.3152 85.7351 L 33.0602 86.7443 L 33.4971 87.2447 L 33.8462 87.7900 L 34.5917 88.7965 L 35.3368 89.6469 L 35.4537 89.7555 L 35.4671 89.7764 L 36.2133 90.7802 L 36.9587 91.6282 L 37.6150 92.2359 L 37.9407 92.6726 L 38.6865 93.5182 L 39.4185 94.1937 L 39.8302 94.4818 L 40.5417 95.2860 L 41.2738 95.9594 L 41.9793 96.4515 L 42.2887 96.5917 L 42.5478 96.8837 L 43.2799 97.5550 L 43.9852 98.0453 L 44.6517 98.3461 L 44.8875 98.3867 L 45.4574 98.9077 L 46.1625 99.3962 L 46.8286 99.6956 L 47.4442 99.8008 L 47.6516 99.7667 L 47.8170 99.9175 L 48.5220 100.4043 L 49.1876 100.7023 L 49.8025 100.8064 L 50.3563 100.7147 L 50.5384 100.6069 L 51.0316 100.9465 L 51.6968 101.2431 L 52.3111 101.3462 L 52.8640 101.2538 L 53.3460 100.9676 L 53.4607 100.8324 L 53.6019 100.9293 L 54.2667 101.2246 L 54.8803 101.3266 L 55.4324 101.2335 L 55.9134 100.9471 L 56.3150 100.4720 L 56.3266 100.4480 L 56.7753 100.6466 L 57.3884 100.7476 L 57.9396 100.6539 L 58.4196 100.3671 L 58.8201 99.8921 L 58.9893 99.5394 L 59.1331 99.6028 L 59.7456 99.7028 L 60.2960 99.6085 L 60.7750 99.3214 L 61.1744 98.8464 L 61.4636 98.2412 L 61.9200 98.3152 L 62.4697 98.2202 L 62.9477 97.9328 L 63.3460 97.4578 L 63.6576 96.8034 L 63.6989 96.6488 L 63.9225 96.6847 L 64.4714 96.5891 L 64.9485 96.3014 L 65.3457 95.8265 L 65.6561 95.1725 L 65.7344 94.8779 L 65.7736 94.8841 L 66.3218 94.7880 L 66.7979 94.4999 L 67.1940 94.0250 L 67.5032 93.3714 L 67.6172 92.9403 L 68.0440 92.8648 L 68.5193 92.5765 L 68.9144 92.1016 L 69.2224 91.4483 L 69.3659 90.9027 L 69.6599 90.8504 L 70.1343 90.5618 L 70.5283 90.0870 L 70.8352 89.4340 L 71.0008 88.8008 L 71.1851 88.7677 L 71.6586 88.4789 L 72.0517 88.0041 L 72.3574 87.3514 L 72.5406 86.6479 L 72.6341 86.6310 L 73.1069 86.3419 L 73.4989 85.8671 L 73.8036 85.2148 L 74.0005 84.4546 L 74.0177 84.4515 L 74.4896 84.1621 L 74.8807 83.6874 L 75.1843 83.0354 L 75.3953 82.2172 L 75.3967 82.2047 L 75.8163 81.9468 L 76.2064 81.4721 L 76.5090 80.8204 L 76.7188 80.0029 L 76.7273 79.9302 L 77.0921 79.7054 L 77.4814 79.2307 L 77.7829 78.5793 L 77.9916 77.7623 L 78.0063 77.6357 L 78.3255 77.4385 L 78.7138 76.9639 L 79.0144 76.3128 L 79.2220 75.4964 L 79.2417 75.3249 L 79.5196 75.1528 L 79.9072 74.6782 L 80.2068 74.0274 L 80.4133 73.2115 L 80.4375 72.9988 L 80.6805 72.8481 L 81.0671 72.3735 L 81.3658 71.7230 L 81.5713 70.9076 L 81.5991 70.6610 L 81.8097 70.5300 L 82.1956 70.0555 L 82.4933 69.4053 L 82.6979 68.5905 L 82.7288 68.3131 L 82.9111 68.1995 L 83.2961 67.7250 L 83.5930 67.0751 L 83.7965 66.2608 L 83.8303 65.9554 L 83.9875 65.8573 L 84.3718 65.3828 L 84.6678 64.7331 L 84.8704 63.9193 L 84.9066 63.5891 L 85.0411 63.5049 L 85.4247 63.0305 L 85.7198 62.3811 L 85.9215 61.5677 L 85.9599 61.2152 L 86.0739 61.1437 L 86.4567 60.6693 L 86.7510 60.0201 L 86.9518 59.2073 L 86.9920 58.8345 L 87.0874 58.7745 L 87.4695 58.3002 L 87.7631 57.6513 L 87.9630 56.8389 L 88.0049 56.4476 L 88.0835 56.3982 L 88.4649 55.9239 L 88.7576 55.2752 L 88.9568 54.4632 L 89.0001 54.0549 L 89.0634 54.0150 L 89.4441 53.5408 L 89.7361 52.8923 L 89.9345 52.0808 L 89.9791 51.6575 L 90.0281 51.6265 L 90.4082 51.1523 L 90.6995 50.5041 L 90.8970 49.6930 L 90.9426 49.2570 L 90.9781 49.2345 L 91.3576 48.7603 L 91.6482 48.1123 L 91.8450 47.3016 L 91.8916 46.8519 L 91.9156 46.8368 L 92.2944 46.3626 L 92.5844 45.7148 L 92.7804 44.9045 L 92.8281 44.4418 L 92.8414 44.4333 L 93.2197 43.9592 L 93.5090 43.3117 L 93.7043 42.5017 L 93.7527 42.0295 L 93.7553 42.0279 L 94.1330 41.5538 L 94.4216 40.9064 L 94.6163 40.0969 L 94.6658 39.6095 L 95.0357 39.1446 L 95.3238 38.4975 L 95.5178 37.6883 L 95.5687 37.1837 L 95.9294 36.7297 L 96.2169 36.0827 L 96.4103 35.2739 L 96.4621 34.7571 L 96.8124 34.3158 L 97.0993 33.6690 L 97.2921 32.8605 L 97.3452 32.3281 L 97.6877 31.8959 L 97.9741 31.2492 L 98.1663 30.4410 L 98.2202 29.8973 L 98.5540 29.4757 L 98.8399 28.8293 L 99.0315 28.0214 L 99.0864 27.4643 L 99.4132 27.0511 L 99.6986 26.4048 L 99.8898 25.5972 L 99.9453 25.0302 L 100.2644 24.6264 L 100.5493 23.9803 L 100.7399 23.1729 L 100.7964 22.5937 L 101.1095 22.1970 L 101.3940 21.5510 L 101.5842 20.7439 L 101.6411 20.1569 L 101.9469 19.7691 L 102.2310 19.1232 L 102.4207 18.3164 L 102.4785 17.7180 L 102.7791 17.3364 L 103.0628 16.6907 L 103.2521 15.8841 L 103.3103 15.2782 L 103.6046 14.9043 L 103.8880 14.2587 L 104.0769 13.4523 L 104.1357 12.8377 L 104.4248 12.4702 L 104.7078 11.8247 L 104.8963 11.0185 L 104.9558 10.3944 L 105.2403 10.0324 L 105.5230 9.3870 L 105.7112 8.5810 L 105.7703 7.9584 L 106.0557 7.5950 L 106.3381 6.9497 L 106.5260 6.1439 L 106.5838 5.5336 L 106.8755 5.1620 L 107.1576 4.5168 L 107.3452 3.7111 L 107.4016 3.1125 L 107.7003 2.7318 L 107.9822 2.0867 L 108.1695 1.2812 L 108.2248 0.6929 L 108.5315 0.3019 L 108.8131 -0.3432 L 109.0002 -1.1486 L 109.0541 -1.7226 L 109.3676 -2.1226 L 109.6490 -2.7676 L 109.8359 -3.5728 L 109.8886 -4.1362 L 110.2111 -4.5478 L 110.4924 -5.1927 L 110.6791 -5.9979 L 110.7303 -6.5461 L 111.0604 -6.9675 L 111.3415 -7.6124 L 111.5281 -8.4175 L 111.5780 -8.9529 L 111.9175 -9.3864 L 112.1985 -10.0312 L 112.3849 -10.8363 L 112.4332 -11.3555 L 112.7813 -11.8000 L 113.0622 -12.4448 L 113.2485 -13.2498 L 113.2955 -13.7548 L 113.6539 -14.2126 L 113.9347 -14.8574 L 114.1210 -15.6623 L 114.1662 -16.1488 L 114.5337 -16.6184 L 114.8146 -17.2632 L 115.0007 -18.0681 L 115.0451 -18.5455 L 115.0534 -18.5509 L 115.4241 -19.0245 L 115.7049 -19.6693 L 115.8911 -20.4741 L 115.9342 -20.9385 L 115.9525 -20.9504 L 116.3232 -21.4240 L 116.6040 -22.0687 L 116.7902 -22.8736 L 116.8322 -23.3262 L 116.8618 -23.3454 L 117.2325 -23.8190 L 117.5133 -24.4637 L 117.6996 -25.2686 L 117.7406 -25.7102 L 117.7827 -25.7375 L 118.1535 -26.2111 L 118.4344 -26.8559 L 118.6207 -27.6608 L 118.6604 -28.0878 L 118.7149 -28.1231 L 119.0857 -28.5967 L 119.3668 -29.2415 L 119.5531 -30.0465 L 119.5915 -30.4583 L 119.6593 -30.5022 L 120.0303 -30.9759 L 120.3114 -31.6207 L 120.4979 -32.4258 L 120.5350 -32.8232 L 120.6180 -32.8770 L 120.9891 -33.3506 L 121.2704 -33.9956 L 121.4571 -34.8007 L 121.4926 -35.1816 L 121.5916 -35.2456 L 121.9628 -35.7193 L 122.2443 -36.3642 L 122.4311 -37.1695 L 122.4650 -37.5317 L 122.5808 -37.6066 L 122.9523 -38.0803 L 123.2339 -38.7253 L 123.4210 -39.5307 L 123.4531 -39.8728 L 123.5873 -39.9595 L 123.9589 -40.4332 L 124.2408 -41.0783 L 124.4282 -41.8838 L 124.4583 -42.2040 L 124.6125 -42.3037 L 124.9844 -42.7774 L 125.2666 -43.4226 L 125.4542 -44.2283 L 125.4821 -44.5244 L 125.6582 -44.6381 L 126.0304 -45.1118 L 126.3129 -45.7572 L 126.5008 -46.5630 L 126.5263 -46.8326 L 126.7264 -46.9616 L 127.0988 -47.4353 L 127.3816 -48.0808 L 127.5699 -48.8868 L 127.5927 -49.1266 L 127.8190 -49.2725 L 128.1918 -49.7462 L 128.4749 -50.3918 L 128.6636 -51.1981 L 128.6834 -51.4053 L 128.9392 -51.5700 L 129.3123 -52.0438 L 129.5958 -52.6894 L 129.7849 -53.4959 L 129.8013 -53.6674 L 130.0904 -53.8533 L 130.4639 -54.3271 L 130.7479 -54.9730 L 130.9374 -55.7797 L 130.9498 -55.9080 L 131.2747 -56.1167 L 131.6486 -56.5906 L 131.9330 -57.2365 L 132.1230 -58.0436 L 132.1309 -58.1250 L 132.4976 -58.3604 L 132.8719 -58.8342 L 133.1568 -59.4804 L 133.3474 -60.2877 L 133.3499 -60.3131 L 133.7626 -60.5777 L 134.1374 -61.0516 L 134.4228 -61.6979 L 134.6060 -62.4718 L 134.6198 -62.4746 L 135.0780 -62.7679 L 135.4533 -63.2418 L 135.7392 -63.8883 L 135.9111 -64.6126 L 135.9903 -64.6285 L 136.4490 -64.9217 L 136.8248 -65.3956 L 137.1114 -66.0423 L 137.2697 -66.7073 L 137.4258 -66.7386 L 137.8850 -67.0316 L 138.2614 -67.5056 L 138.5486 -68.1525 L 138.6899 -68.7444 L 138.9370 -68.7937 L 139.3966 -69.0866 L 139.7736 -69.5606 L 140.0615 -70.2077 L 140.1815 -70.7087 L 140.5381 -70.7796 L 140.9984 -71.0724 L 141.3760 -71.5464 L 141.6646 -72.1938 L 141.7566 -72.5766 L 142.2452 -72.6733 L 142.7061 -72.9659 L 143.0843 -73.4400 L 143.3736 -74.0876 L 143.4377 -74.3530 L 143.5439 -74.3384 L 144.0798 -74.4440 L 144.5413 -74.7364 L 144.9203 -75.2105 L 145.2103 -75.8584 L 145.2394 -75.9785 L 145.5288 -75.9383 L 146.0652 -76.0435 L 146.5273 -76.3358 L 146.9070 -76.8100 L 147.1576 -77.3683 L 147.6849 -77.2945 L 148.2220 -77.3993 L 148.6847 -77.6913 L 149.0652 -78.1656 L 149.2069 -78.4804 L 149.4206 -78.3917 L 150.0232 -78.3068 L 150.5609 -78.4111 L 151.0243 -78.7030 L 151.3874 -79.1546 L 151.9086 -78.9378 L 152.5116 -78.8522 L 153.0499 -78.9561 L 153.5141 -79.2477 L 153.5862 -79.3372 L 153.7990 -79.1982 L 154.4570 -78.9235 L 155.0606 -78.8372 L 155.5994 -78.9406 L 155.7037 -79.0059 L 156.2857 -78.6246 L 156.9441 -78.3489 L 157.5482 -78.2618 L 157.6487 -78.2809 L 157.9200 -78.0449 L 158.6215 -77.5841 L 159.2802 -77.3074 L 159.3430 -77.2982 L 160.0725 -76.6620 L 160.7742 -76.1998 L 160.8706 -76.1592 L 161.3206 -75.6756 L 162.0529 -75.0353 L 162.2049 -74.9349 L 162.3994 -74.6876 L 163.1494 -73.8796 L 163.4095 -73.6515 L 164.0999 -72.7707 L 164.5944 -72.2366 L 164.9398 -71.7265 L 165.6938 -70.7618 L 165.6942 -70.7613 L 165.6983 -70.7544 L 166.4432 -69.6510 L 166.7653 -69.2375 L 167.1259 -68.6267 L 167.8005 -67.6239 L 168.4878 -66.4556 L 168.8347 -65.9380 L 169.0726 -65.4779 L 169.7931 -64.2483 L 169.8771 -64.1225 L 170.3279 -63.2470 L 170.8225 -62.3993 L 170.8570 -62.3232 L 171.5403 -60.9902 L 171.8422 -60.4706 L 172.0313 -60.0505 L 172.7132 -58.7139 L 172.8498 -58.4777 L 173.1719 -57.7584 L 173.8393 -56.4438 L 174.2806 -55.4525 L 174.7250 -54.5726 L 174.7314 -54.5562 L 175.3611 -53.1338 L 175.7000 -52.4591 L 175.7885 -52.2295 L 176.4162 -50.8028 L 176.6633 -50.3083 L 176.8225 -49.8924 L 177.4482 -48.4614 L 177.6154 -48.1248 L 177.8352 -47.5463 L 178.4588 -46.1107 L 178.5568 -45.9121 L 178.8285 -45.1919 L 179.4498 -43.7517 L 179.4882 -43.6734 L 179.8038 -42.8302 L 180.4001 -41.4378 L 180.7626 -40.4614 L 181.2789 -39.2469 L 181.7057 -38.0871 L 182.1543 -37.0236 L 182.6337 -35.7090 L 183.0267 -34.7700 L 183.5487 -33.3252 L 183.9022 -32.4730 L 183.9072 -32.4570 L 184.4515 -30.9354 L 184.7836 -30.1279 L 184.8009 -30.0710 L 185.3418 -28.5434 L 185.6574 -27.7688 L 185.6836 -27.6814 L 186.2209 -26.1476 L 186.5248 -25.3945 L 186.5569 -25.2861 L 187.0904 -23.7459 L 187.3846 -23.0096 L 187.4189 -22.8920 L 187.9485 -21.3452 L 188.2384 -20.6117 L 188.2729 -20.4921 L 188.7983 -18.9383 L 189.0857 -18.2030 L 189.1172 -18.0921 L 189.6382 -16.5312 L 189.9274 -15.7828 L 189.9539 -15.6879 L 190.4703 -14.1195 L 190.7629 -13.3532 L 190.7819 -13.2839 L 191.2935 -11.7078 L 191.5934 -10.9122 L 191.6033 -10.8755 L 192.1099 -9.2914 L 192.4196 -8.4587 L 192.9176 -6.8766 L 193.2547 -5.9571 L 193.7190 -4.4571 L 194.0866 -3.4399 L 194.5129 -2.0383 L 194.9150 -0.9080 L 195.3002 0.3825 L 195.8501 1.9536 L 196.4570 3.4496 L 197.1107 4.8451 L 197.7999 6.1159 L 198.5127 7.2406 L 199.2372 8.1997 L 199.9607 8.9768 L 200.6710 9.5588 L 201.3559 9.9356 L 202.0036 10.1007 L 202.6032 10.0514 L 202.7041 10.0024 L 202.7384 10.0157 L 202.8861 10.0640 L 203.0407 10.1063 L 203.1995 10.1419 L 203.3597 10.1702 L 203.5186 10.1907 L 203.6736 10.2031 L 203.8219 10.2071 L 203.9610 10.2026 L 204.0885 10.1898 L 204.2024 10.1689 L 204.3005 10.1402 L 204.3812 10.1042 L 204.4432 10.0615 L 204.4854 10.0129 L 204.5070 9.9592 L 204.5078 9.9012 L 204.4876 9.8401 L 204.4468 9.7769 L 204.3862 9.7125 L 204.3067 9.6482 L 204.2098 9.5850 L 204.0970 9.5241 L 203.9703 9.4664 L 203.8319 9.4129 L 203.6842 9.3646 L 203.5942 9.3399 L 203.6177 9.3165 L 204.0152 8.6435 L 204.3302 7.7809 L 204.4042 7.4425 L 204.5373 7.4600 L 204.9986 7.4029 L 205.3744 7.2191 L 205.6582 6.9118 L 205.8453 6.4863 L 205.9322 5.9497 L 205.9177 5.3114 L 205.8020 4.5822 L 205.5869 3.7746 L 205.2763 2.9024 L 204.8754 1.9805 L 204.5380 1.3147 L 204.5308 1.2399 L 204.2912 -0.3568 L 203.9644 -1.9889 L 203.5558 -3.6286 L 203.0724 -5.2479 L 202.5225 -6.8190 L 202.3795 -7.1716 L 202.2234 -7.6847 L 201.6678 -9.2464 L 201.5573 -9.5149 L 201.3704 -10.1185 L 200.8094 -11.6711 L 200.7280 -11.8661 L 200.5121 -12.5520 L 199.9460 -14.0958 L 199.8911 -14.2254 L 199.6499 -14.9799 L 199.0788 -16.5153 L 199.0467 -16.5904 L 198.7811 -17.4085 L 198.2054 -18.9358 L 198.1930 -18.9643 L 197.9074 -19.8316 L 197.3339 -21.3339 L 197.0268 -22.2539 L 196.4728 -23.6878 L 196.1403 -24.6710 L 195.5976 -26.0592 L 195.2456 -27.0872 L 194.7075 -28.4486 L 194.3444 -29.4967 L 193.8015 -30.8558 L 193.4334 -31.9066 L 192.8780 -33.2830 L 192.5142 -34.3101 L 191.9368 -35.7273 L 191.5855 -36.7093 L 190.9801 -38.1815 L 190.9777 -38.1864 L 190.6455 -39.1059 L 190.0372 -40.5722 L 190.0140 -40.6211 L 189.6949 -41.4961 L 189.0837 -42.9569 L 189.0336 -43.0619 L 188.7325 -43.8802 L 188.1186 -45.3355 L 188.0345 -45.5105 L 187.7563 -46.2601 L 187.1398 -47.7102 L 187.0145 -47.9691 L 186.7656 -48.6342 L 186.1466 -50.0792 L 185.9722 -50.4371 L 185.7596 -51.0009 L 185.1383 -52.4411 L 184.9059 -52.9149 L 184.7367 -53.3599 L 184.1132 -54.7954 L 183.8129 -55.4037 L 183.6955 -55.7105 L 183.0698 -57.1415 L 182.6906 -57.9051 L 182.6341 -58.0517 L 182.0063 -59.4784 L 181.5175 -60.4569 L 180.9208 -61.8048 L 180.2436 -63.1531 L 180.2335 -63.1707 L 179.8112 -64.1192 L 179.1323 -65.4634 L 178.9983 -65.6973 L 178.6744 -66.4207 L 177.9939 -67.7611 L 177.7159 -68.2439 L 177.5067 -68.7086 L 176.8248 -70.0453 L 176.3807 -70.8130 L 176.3064 -70.9771 L 175.6231 -72.3102 L 174.9048 -73.5465 L 174.8963 -73.5593 L 174.3830 -74.5561 L 173.6636 -75.7890 L 173.4309 -76.1388 L 173.1011 -76.7764 L 172.3807 -78.0061 L 171.8829 -78.7514 L 171.7692 -78.9703 L 171.0478 -80.1969 L 170.3044 -81.3059 L 170.1896 -81.4541 L 169.6594 -82.3521 L 168.9153 -83.4582 L 168.4398 -84.0706 L 168.2065 -84.4644 L 167.4616 -85.5678 L 166.7081 -86.5350 L 166.5622 -86.6936 L 165.9325 -87.6233 L 165.1786 -88.5880 L 164.5333 -89.2873 L 164.3136 -89.6105 L 163.5592 -90.5729 L 162.8094 -91.3830 L 162.4101 -91.7341 L 161.8342 -92.4666 L 161.0842 -93.2746 L 160.3519 -93.9167 L 160.1083 -94.0781 L 159.9819 -94.2384 L 159.2317 -95.0444 L 158.4994 -95.6847 L 157.7975 -96.1484 L 157.6220 -96.2226 L 157.2286 -96.6442 L 156.4963 -97.2828 L 155.7946 -97.7450 L 155.1355 -98.0229 L 155.0080 -98.0416 L 154.3220 -98.6383 L 153.6205 -99.0991 L 152.9618 -99.3759 L 152.3572 -99.4638 L 152.2131 -99.4365 L 151.9658 -99.6511 L 151.2645 -100.1106 L 150.6061 -100.3863 L 150.0020 -100.4734 L 149.4625 -100.3705 L 149.3262 -100.2854 L 148.7583 -100.6565 L 148.1004 -100.9311 L 147.4968 -101.0175 L 146.9579 -100.9141 L 146.4929 -100.6227 L 146.3999 -100.5075 L 146.1918 -100.6432 L 145.5341 -100.9169 L 144.9310 -101.0025 L 144.3928 -100.8986 L 143.9286 -100.6070 L 143.5464 -100.1327 L 143.5450 -100.1295 L 143.0292 -100.3435 L 142.4266 -100.4284 L 141.8890 -100.3241 L 141.4255 -100.0322 L 141.0442 -99.5579 L 140.8898 -99.2157 L 140.6752 -99.3045 L 140.0731 -99.3887 L 139.5360 -99.2839 L 139.0733 -98.9919 L 138.6928 -98.5177 L 138.4298 -97.9332 L 137.9024 -98.0064 L 137.3659 -97.9012 L 136.9039 -97.6090 L 136.5241 -97.1348 L 136.2332 -96.4867 L 136.1978 -96.3410 L 135.9038 -96.3816 L 135.3678 -96.2760 L 134.9064 -95.9836 L 134.5274 -95.5094 L 134.2373 -94.8616 L 134.1671 -94.5717 L 134.0566 -94.5869 L 133.5212 -94.4809 L 133.0604 -94.1883 L 132.6821 -93.7142 L 132.3928 -93.0666 L 132.2952 -92.6619 L 131.8027 -92.5640 L 131.3425 -92.2713 L 130.9648 -91.7972 L 130.6763 -91.1499 L 130.5508 -90.6280 L 130.1907 -90.5561 L 129.7310 -90.2632 L 129.3540 -89.7892 L 129.0662 -89.1421 L 128.9197 -88.5303 L 128.6694 -88.4801 L 128.2102 -88.1871 L 127.8338 -87.7131 L 127.5467 -87.0662 L 127.3834 -86.3823 L 127.2243 -86.3503 L 126.7656 -86.0572 L 126.3898 -85.5832 L 126.1033 -84.9365 L 125.9266 -84.1944 L 125.8447 -84.1779 L 125.3865 -83.8846 L 125.0112 -83.4106 L 124.7253 -82.7642 L 124.5376 -81.9734 L 124.5214 -81.9701 L 124.0636 -81.6767 L 123.6888 -81.2028 L 123.4034 -80.5565 L 123.2122 -79.7489 L 123.2085 -79.7104 L 122.7915 -79.4428 L 122.4171 -78.9689 L 122.1323 -78.3228 L 121.9417 -77.5155 L 121.9326 -77.4218 L 121.5619 -77.1836 L 121.1880 -76.7098 L 120.9036 -76.0638 L 120.7136 -75.2568 L 120.7000 -75.1171 L 120.3716 -74.9058 L 119.9981 -74.4320 L 119.7141 -73.7862 L 119.5246 -72.9794 L 119.5070 -72.7973 L 119.2146 -72.6090 L 118.8415 -72.1353 L 118.5579 -71.4896 L 118.3688 -70.6831 L 118.3480 -70.4660 L 118.0892 -70.2992 L 117.7164 -69.8254 L 117.4333 -69.1799 L 117.2446 -68.3736 L 117.2208 -68.1247 L 116.9917 -67.9770 L 116.6193 -67.5032 L 116.3365 -66.8578 L 116.1482 -66.0517 L 116.1218 -65.7739 L 115.9192 -65.6431 L 115.5471 -65.1694 L 115.2646 -64.5241 L 115.0766 -63.7182 L 115.0479 -63.4145 L 114.8695 -63.2993 L 114.4976 -62.8256 L 114.2155 -62.1803 L 114.0278 -61.3746 L 113.9970 -61.0477 L 113.8407 -60.9467 L 113.4691 -60.4730 L 113.1872 -59.8279 L 112.9998 -59.0223 L 112.9671 -58.6742 L 112.8311 -58.5863 L 112.4597 -58.1126 L 112.1780 -57.4676 L 111.9909 -56.6622 L 111.9565 -56.2947 L 111.8391 -56.2187 L 111.4678 -55.7451 L 111.1864 -55.1001 L 110.9995 -54.2948 L 110.9634 -53.9094 L 110.8632 -53.8445 L 110.4921 -53.3709 L 110.2108 -52.7259 L 110.0241 -51.9208 L 109.9866 -51.5195 L 109.9025 -51.4650 L 109.5315 -50.9914 L 109.2504 -50.3465 L 109.0639 -49.5415 L 109.0252 -49.1266 L 108.9565 -49.0821 L 108.5856 -48.6085 L 108.3046 -47.9636 L 108.1182 -47.1586 L 108.0782 -46.7293 L 108.0231 -46.6936 L 107.6523 -46.2199 L 107.3714 -45.5751 L 107.1851 -44.7702 L 107.1439 -44.3270 L 107.1012 -44.2994 L 106.7305 -43.8257 L 106.4497 -43.1810 L 106.2634 -42.3761 L 106.2213 -41.9225 L 106.1915 -41.9032 L 105.8208 -41.4296 L 105.5400 -40.7848 L 105.3538 -39.9799 L 105.3106 -39.5153 L 105.2923 -39.5034 L 104.9216 -39.0298 L 104.6408 -38.3850 L 104.4546 -37.5801 L 104.4103 -37.1032 L 104.4021 -37.0978 L 104.0314 -36.6242 L 103.7506 -35.9795 L 103.5644 -35.1746 L 103.5193 -34.6890 L 103.1520 -34.2198 L 102.8712 -33.5750 L 102.6849 -32.7701 L 102.6381 -32.2665 L 102.2802 -31.8093 L 101.9993 -31.1645 L 101.8130 -30.3595 L 101.7649 -29.8423 L 101.4175 -29.3987 L 101.1365 -28.7539 L 100.9501 -27.9489 L 100.9005 -27.4159 L 100.5618 -26.9836 L 100.2807 -26.3387 L 100.0941 -25.5336 L 100.0433 -24.9885 L 99.7143 -24.5685 L 99.4330 -23.9236 L 99.2463 -23.1184 L 99.1940 -22.5586 L 98.8727 -22.1487 L 98.5912 -21.5037 L 98.4043 -20.6984 L 98.3510 -20.1285 L 98.0389 -19.7304 L 97.7572 -19.0854 L 97.5701 -18.2800 L 97.5154 -17.6963 L 97.2102 -17.3074 L 96.9283 -16.6623 L 96.7410 -15.8568 L 96.6852 -15.2633 L 96.3882 -14.8850 L 96.1061 -14.2398 L 95.9185 -13.4341 L 95.8615 -12.8295 L 95.5717 -12.4605 L 95.2893 -11.8152 L 95.1014 -11.0094 L 95.0431 -10.3930 L 94.7597 -10.0324 L 94.4770 -9.3870 L 94.2888 -8.5810 L 94.2302 -7.9637 L 93.9478 -7.6047 L 93.6648 -6.9592 L 93.4763 -6.1530 L 93.4184 -5.5456 L 93.1317 -5.1814 L 92.8483 -4.5358 L 92.6594 -3.7294 L 92.6022 -3.1312 L 92.3104 -2.7608 L 92.0267 -2.1151 L 91.8374 -1.3085 L 91.7807 -0.7183 L 91.4828 -0.3405 L 91.1987 0.3053 L 91.0090 1.1122 L 90.9531 1.6905 L 90.6502 2.0743 L 90.3657 2.7203 L 90.1756 3.5274 L 90.1203 4.0975 L 89.8102 4.4899 L 89.5253 5.1361 L 89.3347 5.9434 L 89.2803 6.5007 L 88.9646 6.9000 L 88.6791 7.5463 L 88.4880 8.3540 L 88.4344 8.9009 L 88.1110 9.3094 L 87.8251 9.9558 L 87.6335 10.7637 L 87.5810 11.2969 L 87.2508 11.7134 L 86.9644 12.3601 L 86.7722 13.1683 L 86.7205 13.6897 L 86.3817 14.1166 L 86.0948 14.7634 L 85.9020 15.5719 L 85.8517 16.0772 L 85.5054 16.5130 L 85.2179 17.1599 L 85.0245 17.9688 L 84.9751 18.4615 L 84.6186 18.9096 L 84.3305 19.5568 L 84.1365 20.3660 L 84.0886 20.8410 L 83.7230 21.2998 L 83.4344 21.9471 L 83.2397 22.7567 L 83.1932 23.2143 L 82.8173 23.6855 L 82.5280 24.3331 L 82.3327 25.1430 L 82.2870 25.5890 L 82.2786 25.5943 L 81.8998 26.0684 L 81.6099 26.7162 L 81.4138 27.5265 L 81.3693 27.9588 L 81.3505 27.9707 L 80.9711 28.4449 L 80.6805 29.0929 L 80.4837 29.9036 L 80.4403 30.3217 L 80.4101 30.3408 L 80.0300 30.8150 L 79.7387 31.4632 L 79.5412 32.2743 L 79.4989 32.6791 L 79.4554 32.7065 L 79.0747 33.1808 L 78.7827 33.8292 L 78.5844 34.6407 L 78.5434 35.0300 L 78.4859 35.0662 L 78.1045 35.5405 L 77.8117 36.1891 L 77.6126 37.0011 L 77.5731 37.3727 L 77.5006 37.4183 L 77.1185 37.8927 L 76.8250 38.5416 L 76.6250 39.3540 L 76.5873 39.7066 L 76.4981 39.7625 L 76.1153 40.2369 L 75.8210 40.8861 L 75.6202 41.6989 L 75.5844 42.0307 L 75.4768 42.0980 L 75.0933 42.5724 L 74.7982 43.2219 L 74.5965 44.0352 L 74.5629 44.3441 L 74.4351 44.4240 L 74.0508 44.8984 L 73.7548 45.5481 L 73.5522 46.3619 L 73.5211 46.6454 L 73.3708 46.7390 L 72.9858 47.2135 L 72.6889 47.8635 L 72.4854 48.6778 L 72.4571 48.9328 L 72.2821 49.0416 L 71.8962 49.5162 L 71.5985 50.1664 L 71.3940 50.9812 L 71.3690 51.2049 L 71.1658 51.3310 L 70.7791 51.8055 L 70.4805 52.4560 L 70.2750 53.2714 L 70.2536 53.4606 L 70.0184 53.6063 L 69.6308 54.0809 L 69.3313 54.7317 L 69.1247 55.5476 L 69.1079 55.6951 L 68.8380 55.8618 L 68.4496 56.3365 L 68.1490 56.9876 L 67.9414 57.8040 L 67.9297 57.9062 L 67.6188 58.0978 L 67.2295 58.5724 L 66.9280 59.2238 L 66.7193 60.0408 L 66.7138 60.0885 L 66.3575 60.3075 L 65.9673 60.7822 L 65.6648 61.4339 L 65.4586 62.2372 L 65.0459 62.4903 L 64.6548 62.9651 L 64.3512 63.6171 L 64.1633 64.3456 L 64.1512 64.3478 L 63.6785 64.6369 L 63.2865 65.1117 L 62.9818 65.7640 L 62.8079 66.4352 L 62.7197 66.4510 L 62.2461 66.7399 L 61.8531 67.2147 L 61.5474 67.8673 L 61.3911 68.4676 L 61.2125 68.4994 L 60.7381 68.7880 L 60.3440 69.2628 L 60.0371 69.9158 L 59.9032 70.4279 L 59.6151 70.4788 L 59.1398 70.7671 L 58.7448 71.2420 L 58.4367 71.8953 L 58.3323 72.2924 L 57.9118 72.3662 L 57.4356 72.6542 L 57.0395 73.1291 L 56.7303 73.7828 L 56.6622 74.0405 L 56.6298 74.0353 L 56.0809 74.1308 L 55.6038 74.4186 L 55.2067 74.8935 L 54.8963 75.5475 L 54.8651 75.6646 L 54.6488 75.6296 L 54.0992 75.7246 L 53.6211 76.0120 L 53.2229 76.4870 L 52.9524 77.0549 L 52.4964 76.9804 L 51.9460 77.0747 L 51.4670 77.3619 L 51.0676 77.8368 L 50.9172 78.1516 L 50.7749 78.0886 L 50.1618 77.9876 L 49.6106 78.0813 L 49.1306 78.3681 L 48.7410 78.8302 L 48.2907 78.6301 L 47.6770 78.5281 L 47.1249 78.6212 L 46.6439 78.9076 L 46.5580 79.0093 L 46.4111 78.9082 L 45.7458 78.6116 L 45.1315 78.5085 L 44.5787 78.6009 L 44.4389 78.6838 L 43.9278 78.3309 L 43.2622 78.0329 L 42.6473 77.9288 L 42.4957 77.9539 L 42.3006 77.7755 L 41.5955 77.2870 L 40.9294 76.9876 L 40.7743 76.9611 L 40.1512 76.3898 L 39.4459 75.8995 L 39.2327 75.8032 L 38.9059 75.4339 L 38.1739 74.7605 L 37.8819 74.5569 L 37.8257 74.4816 L 37.0800 73.6360 L 36.5860 73.1801 L 36.1276 72.5634 L 35.3822 71.7154 L 35.3796 71.7130 L 35.2815 71.5598 L 34.5360 70.5533 L 34.2650 70.2441 L 33.7800 69.4837 L 33.1756 68.6649 L 33.0863 68.5041 L 32.3547 67.3529 L 32.0937 66.9980 L 31.7256 66.3330 L 31.0456 65.2587 L 30.4213 64.1259 L 30.0338 63.5114 L 29.8704 63.1724 L 29.1677 61.8920 L 28.9934 61.6145 L 28.6583 60.9161 L 27.9747 59.6649 L 27.4854 58.6404 L 27.0504 57.8406 L 27.0060 57.7341 L 26.3460 56.3452 L 26.0494 55.7975 L 25.8966 55.4288 L 25.2382 54.0364 L 25.0618 53.7091 L 24.8152 53.1107 L 24.1584 51.7146 L 24.0869 51.5812 L 23.7588 50.7805 L 23.1408 49.4600 L 22.7252 48.4399 L 22.2562 47.4321 L 21.7127 46.0900 L 21.3436 45.2927 L 21.3175 45.2180 L 20.7194 43.7318 L 20.4114 43.0627 L 20.3397 42.8563 L 19.7437 41.3661 L 19.4892 40.8101 L 19.3781 40.4875 L 18.7843 38.9932 L 18.5769 38.5375 L 18.4318 38.1131 L 17.8402 36.6147 L 17.6742 36.2477 L 17.5001 35.7349 L 16.9108 34.2322 L 16.7803 33.9418 L 16.5812 33.3507 L 15.9942 31.8437 L 15.8943 31.6200 L 15.6739 30.9606 L 15.0893 29.4492 L 15.0162 29.2845 L 14.7787 28.5681 L 14.1966 27.0523 L 14.1459 26.9374 L 13.8942 26.1717 L 13.3146 24.6514 L 13.2823 24.5778 L 13.0188 23.7693 L 12.4418 22.2443 L 12.4257 22.2075 L 12.1543 21.3676 L 11.5799 19.8380 L 11.5758 19.8284 L 11.2974 18.9596 L 10.7362 17.4532 L 10.4499 16.5512 L 9.9032 15.0722 L 9.6094 14.1381 L 9.0744 12.6784 L 8.7772 11.7247 L 8.2487 10.2705 L 7.9512 9.3063 L 7.4272 7.8521 L 7.1330 6.8891 L 6.6087 5.4210 L 6.3202 4.4671 L 5.7938 2.9798 L 5.5143 2.0453 L 4.9823 0.5285 L 4.7138 -0.3787 L 4.1734 -1.9345 L 3.9182 -2.8066 L 3.3744 -4.3875 L 2.7728 -5.8934 L 2.1238 -7.2984 L 1.4385 -8.5785 L 0.7285 -9.7119 L 0.0061 -10.6791 L -0.7164 -11.4635 L -1.4266 -12.0518 L -2.1125 -12.4340 L -2.7622 -12.6033 L -3.3646 -12.5570 L -3.9095 -12.2959 L -4.3875 -11.8244 L -4.7904 -11.1505 L -5.1114 -10.2859 L -5.3448 -9.2453 L -5.4869 -8.0465 L -5.5350 -6.7100 Z"/>
<path fill="black" stroke="none" fill-rule="evenodd" d="M 202.8337 11.9306 L 202.8546 11.9951 L 202.8971 12.0620 L 202.9605 12.1302 L 203.0438 12.1985 L 203.1455 12.2656 L 203.2639 12.3306 L 203.3969 12.3922 L 203.5423 12.4494 L 203.6976 12.5013 L 203.8601 12.5469 L 204.0270 12.5855 L 204.1956 12.6163 L 204.3628 12.6390 L 204.5260 12.6530 L 204.6821 12.6582 L 204.8287 12.6544 L 204.9631 12.6418 L 205.0831 12.6205 L 205.1866 12.5909 L 205.2719 12.5535 L 205.3375 12.5090 L 205.3822 12.4581 L 205.4054 12.4016 L 205.4065 12.3406 L 205.3857 12.2761 L 205.3432 12.2092 L 205.2797 12.1411 L 205.1964 12.0728 L 205.0948 12.0056 L 204.9764 11.9407 L 204.8434 11.8791 L 204.6980 11.8218 L 204.5427 11.7700 L 204.3802 11.7244 L 204.2132 11.6858 L 204.0447 11.6549 L 203.8774 11.6323 L 203.7143 11.6183 L 203.5581 11.6131 L 203.4116 11.6168 L 203.2772 11.6295 L 203.1571 11.6508 L 203.0536 11.6804 L 202.9683 11.7178 L 202.9028 11.7623 L 202.8580 11.8132 L 202.8349 11.8697 L 202.8337 11.9306 Z"/>
<path fill="black" stroke="none" fill-rule="evenodd" d="M 203.6108 14.3338 L 203.6323 14.4018 L 203.6766 14.4724 L 203.7428 14.5446 L 203.8300 14.6169 L 203.9365 14.6883 L 204.0606 14.7574 L 204.2001 14.8232 L 204.3527 14.8844 L 204.5157 14.9400 L 204.6863 14.9891 L 204.8617 15.0308 L 205.0388 15.0644 L 205.2146 15.0893 L 205.3861 15.1052 L 205.5504 15.1117 L 205.7046 15.1088 L 205.8461 15.0964 L 205.9725 15.0748 L 206.0816 15.0444 L 206.1715 15.0056 L 206.2408 14.9592 L 206.2882 14.9059 L 206.3130 14.8467 L 206.3146 14.7826 L 206.2931 14.7146 L 206.2488 14.6439 L 206.1826 14.5718 L 206.0954 14.4994 L 205.9889 14.4280 L 205.8648 14.3589 L 205.7253 14.2932 L 205.5727 14.2320 L 205.4097 14.1764 L 205.2391 14.1273 L 205.0637 14.0856 L 204.8866 14.0520 L 204.7108 14.0270 L 204.5393 14.0111 L 204.3750 14.0046 L 204.2208 14.0076 L 204.0793 14.0200 L 203.9529 14.0416 L 203.8438 14.0720 L 203.7539 14.1107 L 203.6846 14.1571 L 203.6372 14.2104 L 203.6124 14.2696 L 203.6108 14.3338 Z"/>
<path fill="black" stroke="none" fill-rule="evenodd" d="M 204.3920 16.7303 L 204.4141 16.8019 L 204.4601 16.8765 L 204.5293 16.9528 L 204.6203 17.0294 L 204.7318 17.1052 L 204.8617 17.1787 L 205.0079 17.2487 L 205.1678 17.3141 L 205.3387 17.3737 L 205.5177 17.4264 L 205.7017 17.4715 L 205.8876 17.5081 L 206.0721 17.5355 L 206.2523 17.5534 L 206.4248 17.5614 L 206.5869 17.5593 L 206.7357 17.5473 L 206.8686 17.5255 L 206.9835 17.4943 L 207.0783 17.4542 L 207.1515 17.4059 L 207.2017 17.3503 L 207.2281 17.2882 L 207.2302 17.2208 L 207.2081 17.1492 L 207.1621 17.0746 L 207.0929 16.9984 L 207.0019 16.9217 L 206.8904 16.8460 L 206.7605 16.7724 L 206.6144 16.7024 L 206.4545 16.6370 L 206.2835 16.5774 L 206.1046 16.5247 L 205.9205 16.4796 L 205.7347 16.4431 L 205.5501 16.4156 L 205.3700 16.3977 L 205.1974 16.3897 L 205.0353 16.3918 L 204.8866 16.4038 L 204.7536 16.4256 L 204.6387 16.4568 L 204.5439 16.4969 L 204.4708 16.5452 L 204.4206 16.6008 L 204.3942 16.6629 L 204.3920 16.7303 Z"/>
<path fill="black" stroke="none" fill-rule="evenodd" d="M 205.1794 19.1249 L 205.2021 19.2002 L 205.2499 19.2788 L 205.3220 19.3594 L 205.4170 19.4405 L 205.5335 19.5209 L 205.6693 19.5990 L 205.8223 19.6736 L 205.9897 19.7433 L 206.1687 19.8071 L 206.3562 19.8638 L 206.5490 19.9124 L 206.7439 19.9521 L 206.9375 19.9823 L 207.1265 20.0023 L 207.3076 20.0120 L 207.4777 20.0110 L 207.6340 19.9994 L 207.7738 19.9775 L 207.8946 19.9455 L 207.9944 19.9041 L 208.0715 19.8540 L 208.1246 19.7959 L 208.1528 19.7310 L 208.1555 19.6602 L 208.1328 19.5849 L 208.0850 19.5063 L 208.0130 19.4257 L 207.9180 19.3446 L 207.8015 19.2642 L 207.6656 19.1861 L 207.5127 19.1115 L 207.3453 19.0418 L 207.1663 18.9780 L 206.9788 18.9213 L 206.7859 18.8727 L 206.5910 18.8330 L 206.3975 18.8028 L 206.2085 18.7828 L 206.0274 18.7731 L 205.8573 18.7741 L 205.7010 18.7857 L 205.5612 18.8076 L 205.4404 18.8396 L 205.3406 18.8810 L 205.2635 18.9311 L 205.2104 18.9892 L 205.1822 19.0542 L 205.1794 19.1249 Z"/>
<path fill="black" stroke="none" fill-rule="evenodd" d="M 205.9720 21.5130 L 205.9953 21.5921 L 206.0448 21.6749 L 206.1198 21.7600 L 206.2189 21.8458 L 206.3404 21.9309 L 206.4823 22.0138 L 206.6422 22.0931 L 206.8172 22.1676 L 207.0045 22.2358 L 207.2008 22.2966 L 207.4027 22.3490 L 207.6068 22.3921 L 207.8096 22.4252 L 208.0076 22.4476 L 208.1975 22.4590 L 208.3759 22.4592 L 208.5399 22.4483 L 208.6867 22.4263 L 208.8136 22.3937 L 208.9186 22.3510 L 208.9999 22.2989 L 209.0560 22.2384 L 209.0860 22.1705 L 209.0894 22.0963 L 209.0662 22.0172 L 209.0166 21.9344 L 208.9417 21.8493 L 208.8426 21.7635 L 208.7210 21.6785 L 208.5791 21.5955 L 208.4193 21.5162 L 208.2442 21.4418 L 208.0570 21.3735 L 207.8607 21.3127 L 207.6588 21.2603 L 207.4547 21.2172 L 207.2519 21.1842 L 207.0539 21.1617 L 206.8640 21.1503 L 206.6855 21.1501 L 206.5215 21.1610 L 206.3748 21.1830 L 206.2478 21.2156 L 206.1428 21.2583 L 206.0616 21.3104 L 206.0055 21.3709 L 205.9754 21.4388 L 205.9720 21.5130 Z"/>
<path fill="black" stroke="none" fill-rule="evenodd" d="M 206.7719 23.8988 L 206.7957 23.9819 L 206.8469 24.0690 L 206.9248 24.1587 L 207.0280 24.2493 L 207.1547 24.3394 L 207.3028 24.4274 L 207.4697 24.5118 L 207.6526 24.5911 L 207.8483 24.6639 L 208.0535 24.7292 L 208.2646 24.7856 L 208.4782 24.8323 L 208.6904 24.8685 L 208.8978 24.8935 L 209.0966 24.9069 L 209.2836 24.9085 L 209.4556 24.8983 L 209.6095 24.8763 L 209.7427 24.8431 L 209.8531 24.7992 L 209.9386 24.7453 L 209.9979 24.6823 L 210.0299 24.6114 L 210.0340 24.5337 L 210.0102 24.4505 L 209.9589 24.3634 L 209.8810 24.2737 L 209.7779 24.1831 L 209.6511 24.0930 L 209.5031 24.0050 L 209.3362 23.9206 L 209.1533 23.8413 L 208.9576 23.7685 L 208.7524 23.7032 L 208.5412 23.6468 L 208.3277 23.6001 L 208.1155 23.5639 L 207.9081 23.5389 L 207.7093 23.5255 L 207.5223 23.5239 L 207.3503 23.5341 L 207.1964 23.5561 L 207.0631 23.5893 L 206.9528 23.6332 L 206.8673 23.6871 L 206.8080 23.7501 L 206.7760 23.8210 L 206.7719 23.8988 Z"/>
<path fill="black" stroke="none" fill-rule="evenodd" d="M 207.5775 26.2763 L 207.6017 26.3635 L 207.6547 26.4552 L 207.7356 26.5496 L 207.8429 26.6453 L 207.9748 26.7406 L 208.1292 26.8339 L 208.3032 26.9235 L 208.4941 27.0079 L 208.6984 27.0858 L 208.9127 27.1557 L 209.1333 27.2164 L 209.3565 27.2670 L 209.5785 27.3065 L 209.7953 27.3343 L 210.0034 27.3499 L 210.1992 27.3530 L 210.3793 27.3436 L 210.5406 27.3218 L 210.6804 27.2881 L 210.7962 27.2430 L 210.8862 27.1872 L 210.9487 27.1217 L 210.9828 27.0477 L 210.9877 26.9664 L 210.9634 26.8792 L 210.9104 26.7875 L 210.8296 26.6930 L 210.7223 26.5973 L 210.5903 26.5020 L 210.4360 26.4088 L 210.2619 26.3192 L 210.0711 26.2347 L 209.8668 26.1569 L 209.6524 26.0870 L 209.4318 26.0263 L 209.2086 25.9757 L 208.9867 25.9362 L 208.7698 25.9084 L 208.5617 25.8928 L 208.3660 25.8897 L 208.1859 25.8991 L 208.0246 25.9208 L 207.8848 25.9546 L 207.7689 25.9997 L 207.6789 26.0555 L 207.6164 26.1210 L 207.5824 26.1950 L 207.5775 26.2763 Z"/>
<path fill="black" stroke="none" fill-rule="evenodd" d="M 208.3920 28.6526 L 208.4166 28.7440 L 208.4714 28.8403 L 208.5552 28.9398 L 208.6667 29.0407 L 208.8040 29.1415 L 208.9647 29.2403 L 209.1460 29.3354 L 209.3450 29.4252 L 209.5581 29.5083 L 209.7817 29.5831 L 210.0120 29.6484 L 210.2451 29.7031 L 210.4769 29.7462 L 210.7035 29.7770 L 210.9211 29.7950 L 211.1258 29.7998 L 211.3143 29.7914 L 211.4832 29.7699 L 211.6297 29.7358 L 211.7512 29.6895 L 211.8458 29.6318 L 211.9117 29.5639 L 211.9479 29.4867 L 211.9537 29.4017 L 211.9291 29.3102 L 211.8744 29.2140 L 211.7905 29.1145 L 211.6790 29.0135 L 211.5418 28.9128 L 211.3811 28.8140 L 211.1997 28.7189 L 211.0007 28.6290 L 210.7876 28.5460 L 210.5640 28.4712 L 210.3337 28.4059 L 210.1006 28.3512 L 209.8688 28.3081 L 209.6422 28.2773 L 209.4246 28.2593 L 209.2199 28.2545 L 209.0314 28.2629 L 208.8625 28.2843 L 208.7160 28.3185 L 208.5945 28.3648 L 208.4999 28.4224 L 208.4340 28.4904 L 208.3978 28.5676 L 208.3920 28.6526 Z"/>
<path fill="black" stroke="none" fill-rule="evenodd" d="M 209.2137 31.0207 L 209.2387 31.1165 L 209.2951 31.2176 L 209.3819 31.3222 L 209.4976 31.4287 L 209.6403 31.5351 L 209.8074 31.6396 L 209.9962 31.7406 L 210.2034 31.8361 L 210.4255 31.9246 L 210.6586 32.0047 L 210.8988 32.0748 L 211.1419 32.1339 L 211.3839 32.1808 L 211.6205 32.2149 L 211.8478 32.2354 L 212.0617 32.2422 L 212.2587 32.2350 L 212.4355 32.2139 L 212.5889 32.1794 L 212.7163 32.1320 L 212.8156 32.0725 L 212.8851 32.0020 L 212.9235 31.9217 L 212.9303 31.8329 L 212.9053 31.7371 L 212.8489 31.6360 L 212.7621 31.5313 L 212.6464 31.4249 L 212.5037 31.3185 L 212.3365 31.2139 L 212.1478 31.1130 L 211.9406 31.0175 L 211.7185 30.9289 L 211.4854 30.8489 L 211.2452 30.7787 L 211.0020 30.7197 L 210.7601 30.6727 L 210.5235 30.6387 L 210.2962 30.6181 L 210.0823 30.6114 L 209.8852 30.6186 L 209.7085 30.6397 L 209.5551 30.6742 L 209.4277 30.7216 L 209.3284 30.7810 L 209.2589 30.8515 L 209.2205 30.9319 L 209.2137 31.0207 Z"/>
<path fill="black" stroke="none" fill-rule="evenodd" d="M 210.0441 33.3826 L 210.0694 33.4829 L 210.1275 33.5889 L 210.2173 33.6989 L 210.3372 33.8111 L 210.4853 33.9234 L 210.6590 34.0340 L 210.8553 34.1410 L 211.0709 34.2425 L 211.3021 34.3369 L 211.5449 34.4224 L 211.7951 34.4977 L 212.0486 34.5614 L 212.3009 34.6125 L 212.5478 34.6501 L 212.7849 34.6734 L 213.0083 34.6823 L 213.2141 34.6764 L 213.3989 34.6559 L 213.5594 34.6211 L 213.6929 34.5727 L 213.7971 34.5114 L 213.8702 34.4384 L 213.9111 34.3548 L 213.9189 34.2621 L 213.8936 34.1618 L 213.8355 34.0558 L 213.7457 33.9458 L 213.6258 33.8336 L 213.4777 33.7213 L 213.3040 33.6107 L 213.1077 33.5037 L 212.8921 33.4022 L 212.6609 33.3078 L 212.4181 33.2223 L 212.1679 33.1470 L 211.9144 33.0833 L 211.6621 33.0322 L 211.4152 32.9947 L 211.1781 32.9713 L 210.9547 32.9624 L 210.7489 32.9683 L 210.5641 32.9888 L 210.4036 33.0236 L 210.2701 33.0720 L 210.1659 33.1333 L 210.0928 33.2063 L 210.0519 33.2899 L 210.0441 33.3826 Z"/>
<path fill="black" stroke="none" fill-rule="evenodd" d="M 210.8848 35.7399 L 210.9103 35.8447 L 210.9700 35.9559 L 211.0627 36.0715 L 211.1870 36.1896 L 211.3406 36.3081 L 211.5209 36.4250 L 211.7248 36.5384 L 211.9490 36.6462 L 212.1894 36.7466 L 212.4420 36.8380 L 212.7026 36.9187 L 212.9665 36.9874 L 213.2294 37.0429 L 213.4867 37.0842 L 213.7340 37.1107 L 213.9671 37.1218 L 214.1819 37.1174 L 214.3749 37.0976 L 214.5427 37.0627 L 214.6825 37.0134 L 214.7918 36.9503 L 214.8687 36.8747 L 214.9121 36.7878 L 214.9210 36.6911 L 214.8954 36.5863 L 214.8358 36.4751 L 214.7430 36.3595 L 214.6188 36.2415 L 214.4652 36.1230 L 214.2849 36.0060 L 214.0809 35.8927 L 213.8568 35.7848 L 213.6164 35.6844 L 213.3637 35.5930 L 213.1032 35.5123 L 212.8392 35.4436 L 212.5764 35.3882 L 212.3191 35.3468 L 212.0718 35.3204 L 211.8387 35.3092 L 211.6238 35.3136 L 211.4308 35.3334 L 211.2630 35.3683 L 211.1233 35.4177 L 211.0140 35.4807 L 210.9371 35.5563 L 210.8937 35.6432 L 210.8848 35.7399 Z"/>
<path fill="black" stroke="none" fill-rule="evenodd" d="M 211.7352 38.0887 L 211.7610 38.1983 L 211.8222 38.3147 L 211.9179 38.4361 L 212.0464 38.5604 L 212.2055 38.6853 L 212.3925 38.8089 L 212.6042 38.9289 L 212.8370 39.0433 L 213.0869 39.1502 L 213.3496 39.2477 L 213.6206 39.3342 L 213.8952 39.4081 L 214.1689 39.4683 L 214.4368 39.5137 L 214.6945 39.5435 L 214.9375 39.5571 L 215.1616 39.5545 L 215.3630 39.5355 L 215.5383 39.5006 L 215.6845 39.4504 L 215.7990 39.3856 L 215.8800 39.3074 L 215.9259 39.2172 L 215.9361 39.1164 L 215.9104 39.0069 L 215.8491 38.8904 L 215.7534 38.7691 L 215.6249 38.6448 L 215.4658 38.5199 L 215.2788 38.3963 L 215.0671 38.2763 L 214.8343 38.1619 L 214.5845 38.0550 L 214.3218 37.9575 L 214.0508 37.8710 L 213.7761 37.7970 L 213.5024 37.7369 L 213.2345 37.6915 L 212.9768 37.6617 L 212.7339 37.6480 L 212.5097 37.6507 L 212.3083 37.6696 L 212.1330 37.7045 L 211.9868 37.7548 L 211.8723 37.8196 L 211.7914 37.8978 L 211.7454 37.9880 L 211.7352 38.0887 Z"/>
<path fill="black" stroke="none" fill-rule="evenodd" d="M 212.5965 40.4291 L 212.6224 40.5435 L 212.6851 40.6654 L 212.7838 40.7928 L 212.9166 40.9234 L 213.0813 41.0551 L 213.2751 41.1855 L 213.4946 41.3125 L 213.7362 41.4339 L 213.9956 41.5475 L 214.2685 41.6515 L 214.5501 41.7441 L 214.8357 41.8237 L 215.1203 41.8889 L 215.3992 41.9386 L 215.6674 41.9720 L 215.9205 41.9884 L 216.1541 41.9877 L 216.3642 41.9698 L 216.5472 41.9350 L 216.7000 41.8839 L 216.8200 41.8175 L 216.9050 41.7367 L 216.9537 41.6431 L 216.9653 41.5382 L 216.9394 41.4238 L 216.8767 41.3019 L 216.7780 41.1745 L 216.6452 41.0439 L 216.4805 40.9122 L 216.2868 40.7817 L 216.0672 40.6548 L 215.8257 40.5334 L 215.5662 40.4197 L 215.2933 40.3157 L 215.0117 40.2231 L 214.7261 40.1436 L 214.4415 40.0784 L 214.1626 40.0287 L 213.8944 39.9953 L 213.6413 39.9788 L 213.4077 39.9796 L 213.1976 39.9975 L 213.0146 40.0323 L 212.8618 40.0834 L 212.7418 40.1498 L 212.6568 40.2306 L 212.6081 40.3242 L 212.5965 40.4291 Z"/>
<path fill="black" stroke="none" fill-rule="evenodd" d="M 213.4708 42.7629 L 213.4966 42.8823 L 213.5608 43.0099 L 213.6624 43.1434 L 213.7995 43.2807 L 213.9698 43.4194 L 214.1704 43.5570 L 214.3979 43.6913 L 214.6483 43.8200 L 214.9175 43.9408 L 215.2007 44.0516 L 215.4931 44.1506 L 215.7898 44.2362 L 216.0857 44.3067 L 216.3756 44.3611 L 216.6547 44.3983 L 216.9181 44.4178 L 217.1614 44.4192 L 217.3804 44.4025 L 217.5713 44.3680 L 217.7309 44.3162 L 217.8565 44.2481 L 217.9458 44.1648 L 217.9974 44.0677 L 218.0104 43.9586 L 217.9846 43.8392 L 217.9203 43.7116 L 217.8188 43.5781 L 217.6817 43.4408 L 217.5114 43.3021 L 217.3108 43.1645 L 217.0833 43.0302 L 216.8328 42.9015 L 216.5637 42.7808 L 216.2805 42.6699 L 215.9880 42.5709 L 215.6913 42.4853 L 215.3955 42.4148 L 215.1055 42.3604 L 214.8265 42.3232 L 214.5630 42.3037 L 214.3197 42.3023 L 214.1007 42.3190 L 213.9098 42.3535 L 213.7502 42.4053 L 213.6247 42.4734 L 213.5354 42.5567 L 213.4837 42.6538 L 213.4708 42.7629 Z"/>
<path fill="black" stroke="none" fill-rule="evenodd" d="M 214.3585 45.0884 L 214.3843 45.2129 L 214.4500 45.3462 L 214.5544 45.4862 L 214.6958 45.6304 L 214.8717 45.7764 L 215.0792 45.9215 L 215.3147 46.0635 L 215.5741 46.1997 L 215.8531 46.3280 L 216.1468 46.4461 L 216.4503 46.5519 L 216.7583 46.6438 L 217.0655 46.7200 L 217.3668 46.7793 L 217.6569 46.8207 L 217.9309 46.8435 L 218.1841 46.8473 L 218.4122 46.8320 L 218.6112 46.7979 L 218.7778 46.7455 L 218.9091 46.6758 L 219.0029 46.5900 L 219.0575 46.4894 L 219.0721 46.3760 L 219.0463 46.2515 L 218.9807 46.1181 L 218.8763 45.9781 L 218.7349 45.8339 L 218.5589 45.6880 L 218.3514 45.5428 L 218.1160 45.4009 L 217.8565 45.2646 L 217.5775 45.1363 L 217.2838 45.0183 L 216.9804 44.9124 L 216.6724 44.8206 L 216.3651 44.7443 L 216.0639 44.6850 L 215.7737 44.6436 L 215.4997 44.6208 L 215.2465 44.6170 L 215.0185 44.6323 L 214.8194 44.6665 L 214.6528 44.7188 L 214.5215 44.7885 L 214.4277 44.8744 L 214.3731 44.9749 L 214.3585 45.0884 Z"/>
<path fill="black" stroke="none" fill-rule="evenodd" d="M 215.2608 47.4038 L 215.2864 47.5336 L 215.3534 47.6730 L 215.4606 47.8196 L 215.6063 47.9709 L 215.7879 48.1245 L 216.0023 48.2775 L 216.2459 48.4274 L 216.5144 48.5717 L 216.8033 48.7078 L 217.1077 48.8335 L 217.4223 48.9466 L 217.7418 49.0451 L 218.0606 49.1274 L 218.3734 49.1920 L 218.6748 49.2379 L 218.9596 49.2643 L 219.2229 49.2707 L 219.4603 49.2570 L 219.6676 49.2234 L 219.8414 49.1706 L 219.9787 49.0993 L 220.0771 49.0110 L 220.1349 48.9069 L 220.1511 48.7890 L 220.1255 48.6593 L 220.0586 48.5199 L 219.9513 48.3733 L 219.8056 48.2219 L 219.6241 48.0684 L 219.4097 47.9154 L 219.1661 47.7655 L 218.8976 47.6212 L 218.6086 47.4851 L 218.3043 47.3594 L 217.9896 47.2463 L 217.6702 47.1478 L 217.3513 47.0655 L 217.0386 47.0009 L 216.7372 46.9550 L 216.4524 46.9286 L 216.1891 46.9222 L 215.9517 46.9359 L 215.7443 46.9695 L 215.5705 47.0223 L 215.4332 47.0935 L 215.3349 47.1819 L 215.2771 47.2859 L 215.2608 47.4038 Z"/>
<path fill="black" stroke="none" fill-rule="evenodd" d="M 216.1791 49.7088 L 216.2044 49.8439 L 216.2726 49.9894 L 216.3827 50.1429 L 216.5326 50.3017 L 216.7198 50.4631 L 216.9412 50.6243 L 217.1929 50.7826 L 217.4706 50.9353 L 217.7696 51.0797 L 218.0847 51.2133 L 218.4107 51.3340 L 218.7418 51.4396 L 219.0724 51.5283 L 219.3969 51.5986 L 219.7097 51.6493 L 220.0055 51.6796 L 220.2792 51.6889 L 220.5261 51.6770 L 220.7420 51.6442 L 220.9232 51.5910 L 221.0666 51.5183 L 221.1698 51.4274 L 221.2309 51.3198 L 221.2489 51.1974 L 221.2236 51.0623 L 221.1554 50.9167 L 221.0454 50.7633 L 220.8955 50.6045 L 220.7082 50.4431 L 220.4869 50.2819 L 220.2352 50.1236 L 219.9574 49.9709 L 219.6584 49.8265 L 219.3433 49.6929 L 219.0174 49.5722 L 218.6863 49.4666 L 218.3556 49.3779 L 218.0311 49.3076 L 217.7183 49.2568 L 217.4225 49.2266 L 217.1488 49.2173 L 216.9019 49.2292 L 216.6860 49.2620 L 216.5048 49.3152 L 216.3614 49.3879 L 216.2583 49.4788 L 216.1971 49.5864 L 216.1791 49.7088 Z"/>
<path fill="black" stroke="none" fill-rule="evenodd" d="M 217.1150 52.0023 L 217.1399 52.1430 L 217.2093 52.2949 L 217.3221 52.4555 L 217.4762 52.6220 L 217.6691 52.7915 L 217.8974 52.9613 L 218.1573 53.1283 L 218.4443 53.2897 L 218.7534 53.4428 L 219.0795 53.5849 L 219.4169 53.7136 L 219.7598 53.8266 L 219.8205 53.8436 L 219.7403 53.8289 L 219.4219 53.7900 L 219.1269 53.7741 L 218.8603 53.7816 L 218.6267 53.8124 L 218.4301 53.8659 L 218.2739 53.9412 L 218.1607 54.0371 L 218.0924 54.1518 L 218.0703 54.2834 L 218.0947 54.4297 L 218.1652 54.5882 L 218.2806 54.7561 L 218.4389 54.9306 L 218.6374 55.1087 L 218.8728 55.2874 L 219.1409 55.4635 L 219.4372 55.6341 L 219.7566 55.7962 L 220.0937 55.9472 L 220.3452 56.0460 L 220.1490 56.0335 L 219.8723 56.0384 L 219.6295 56.0679 L 219.4249 56.1213 L 219.2620 56.1978 L 219.1435 56.2961 L 219.0714 56.4144 L 219.0471 56.5508 L 219.0709 56.7029 L 219.1423 56.8681 L 219.2603 57.0435 L 219.4227 57.2263 L 219.6268 57.4133 L 219.8691 57.6011 L 220.1455 57.7868 L 220.4512 57.9670 L 220.7809 58.1387 L 221.0854 58.2788 L 220.9090 58.2801 L 220.6569 58.3080 L 220.4441 58.3612 L 220.2742 58.4388 L 220.1503 58.5394 L 220.0742 58.6613 L 220.0475 58.8025 L 220.0705 58.9605 L 220.1428 59.1326 L 220.2633 59.3159 L 220.4298 59.5073 L 220.6394 59.7034 L 220.8887 59.9009 L 221.1733 60.0965 L 221.4884 60.2867 L 221.8286 60.4684 L 221.9191 60.5112 L 221.7118 60.5319 L 221.4906 60.5847 L 221.3137 60.6632 L 221.1841 60.7661 L 221.1039 60.8917 L 221.0746 61.0378 L 221.0967 61.2018 L 221.1698 61.3811 L 221.2926 61.5724 L 221.4630 61.7727 L 221.6782 61.9783 L 221.9344 62.1858 L 222.2273 62.3917 L 222.5518 62.5925 L 222.8160 62.7372 L 222.7982 62.7388 L 222.5684 62.7909 L 222.3842 62.8703 L 222.2487 62.9755 L 222.1642 63.1047 L 222.1322 63.2557 L 222.1532 63.4259 L 222.2269 63.6125 L 222.3520 63.8122 L 222.5263 64.0215 L 222.7469 64.2371 L 223.0100 64.4550 L 223.3112 64.6717 L 223.6451 64.8834 L 223.7712 64.9543 L 223.6793 64.9740 L 223.4876 65.0541 L 223.3460 65.1614 L 223.2570 65.2943 L 223.2221 65.4503 L 223.2419 65.6268 L 223.3160 65.8209 L 223.4433 66.0291 L 223.6214 66.2480 L 223.8474 66.4738 L 224.1173 66.7025 L 224.4267 66.9304 L 224.7701 67.1535 L 224.7746 67.1561 L 224.6298 67.2147 L 224.4820 67.3241 L 224.3883 67.4606 L 224.3503 67.6216 L 224.3687 67.8046 L 224.4431 68.0064 L 224.5724 68.2235 L 224.7541 68.4521 L 224.9854 68.6885 L 225.2621 68.9285 L 225.5796 69.1681 L 225.8343 69.3376 L 225.8143 69.3454 L 225.6601 69.4569 L 225.5615 69.5969 L 225.5203 69.7631 L 225.5371 69.9527 L 225.6117 70.1623 L 225.7427 70.3884 L 225.9281 70.6272 L 226.1644 70.8746 L 226.4479 71.1263 L 226.7735 71.3779 L 226.9623 71.5069 L 226.8887 71.5588 L 226.7851 71.7024 L 226.7404 71.8737 L 226.7554 72.0700 L 226.8300 72.2877 L 226.9627 72.5232 L 227.1514 72.7724 L 227.3928 73.0311 L 227.6828 73.2949 L 228.0164 73.5592 L 228.1497 73.6525 L 228.0645 73.7675 L 228.0161 73.9441 L 228.0292 74.1472 L 228.1035 74.3731 L 228.2378 74.6182 L 228.4297 74.8782 L 228.6760 75.1487 L 228.9724 75.4250 L 229.3140 75.7023 L 229.4161 75.7758 L 229.4091 75.7849 L 229.3569 75.9668 L 229.3679 76.1767 L 229.4417 76.4112 L 229.5773 76.6661 L 229.7723 76.9372 L 230.0233 77.2198 L 230.3261 77.5090 L 230.6754 77.8000 L 230.7879 77.8831 L 230.7737 77.9303 L 230.7823 78.1473 L 230.8555 78.3904 L 230.9922 78.6554 L 231.1900 78.9380 L 231.4456 79.2331 L 231.7545 79.5358 L 232.1114 79.8408 L 232.2851 79.9724 L 232.2870 80.0446 L 232.3594 80.2965 L 232.4970 80.5720 L 232.6974 80.8662 L 232.9573 81.1743 L 233.2721 81.4908 L 233.6366 81.8105 L 233.9565 82.0594 L 233.9693 82.1064 L 234.1076 82.3925 L 234.3104 82.6989 L 234.5744 83.0202 L 234.8950 83.3511 L 235.2668 83.6859 L 235.6833 84.0188 L 235.9044 84.1773 L 236.0509 84.4050 L 236.3187 84.7401 L 236.6448 85.0858 L 237.0236 85.4362 L 237.4486 85.7853 L 237.9126 86.1272 L 238.3112 86.3919 L 238.5450 86.6466 L 238.9306 87.0132 L 239.3639 87.3791 L 239.8374 87.7380 L 240.3431 88.0838 L 240.8723 88.4106 L 241.4158 88.7128 L 241.4580 88.7337 L 241.9325 89.1039 L 242.4487 89.4675 L 242.9894 89.8118 L 243.5453 90.1310 L 244.1069 90.4196 L 244.6646 90.6726 L 245.2089 90.8857 L 245.4437 90.9621 L 245.8552 91.2061 L 246.4296 91.5115 L 247.0005 91.7802 L 247.5581 92.0077 L 248.0929 92.1899 L 248.5957 92.3239 L 249.0579 92.4073 L 249.4717 92.4387 L 249.5150 92.4361 L 250.0554 92.6656 L 250.6034 92.8611 L 251.1192 93.0065 L 251.5940 93.0991 L 252.0196 93.1375 L 252.3888 93.1210 L 252.6953 93.0498 L 252.9337 92.9252 L 252.9609 92.8965 L 253.1721 92.9753 L 253.7009 93.1326 L 254.1882 93.2351 L 254.6258 93.2810 L 255.0061 93.2695 L 255.3226 93.2008 L 255.5699 93.0761 L 255.7438 92.8975 L 255.8412 92.6681 L 255.8470 92.5857 L 256.2188 92.7023 L 256.7187 92.8152 L 257.1683 92.8690 L 257.5597 92.8629 L 257.8864 92.7970 L 258.1428 92.6725 L 258.3244 92.4914 L 258.4282 92.2568 L 258.4524 91.9728 L 258.4151 91.7537 L 258.5832 91.8091 L 259.0956 91.9329 L 259.5572 91.9952 L 259.9599 91.9949 L 260.2969 91.9322 L 260.5625 91.8080 L 260.7521 91.6245 L 260.8625 91.3849 L 260.8917 91.0932 L 260.8393 90.7544 L 260.7783 90.5802 L 261.2868 90.7112 L 261.7603 90.7824 L 262.1744 90.7884 L 262.5219 90.7292 L 262.7969 90.6057 L 262.9947 90.4200 L 263.1119 90.1753 L 263.1465 89.8758 L 263.0979 89.5267 L 262.9759 89.1605 L 263.3028 89.2500 L 263.7883 89.3308 L 264.2138 89.3435 L 264.5719 89.2881 L 264.8565 89.1655 L 265.0627 88.9778 L 265.1870 88.7282 L 265.2273 88.4209 L 265.1829 88.0613 L 265.0546 87.6555 L 265.0189 87.5800 L 265.1639 87.6221 L 265.6614 87.7128 L 266.0984 87.7328 L 266.4671 87.6816 L 266.7615 87.5602 L 266.9764 87.3707 L 267.1081 87.1162 L 267.1544 86.8012 L 267.1146 86.4310 L 266.9892 86.0120 L 266.9307 85.8830 L 267.4028 85.9768 L 267.8512 86.0043 L 268.2307 85.9578 L 268.5350 85.8379 L 268.7588 85.6467 L 268.8982 85.3875 L 268.9509 85.0647 L 268.9159 84.6839 L 268.7940 84.2516 L 268.7221 84.0861 L 269.0337 84.1532 L 269.4936 84.1888 L 269.8840 84.1473 L 270.1983 84.0292 L 270.4312 83.8366 L 270.5786 83.5728 L 270.6380 83.2423 L 270.6084 82.8508 L 270.4903 82.4049 L 270.4175 82.2296 L 270.5698 82.2650 L 271.0411 82.3093 L 271.4425 82.2731 L 271.7671 82.1571 L 272.0092 81.9634 L 272.1649 81.6951 L 272.2314 81.3569 L 272.2075 80.9546 L 272.0937 80.4951 L 272.0269 80.3265 L 272.5081 80.3797 L 272.9205 80.3493 L 273.2554 80.2358 L 273.5070 80.0411 L 273.6712 79.7686 L 273.7451 79.4227 L 273.7274 79.0096 L 273.6184 78.5363 L 273.5543 78.3666 L 273.9049 78.4112 L 274.3283 78.3871 L 274.6736 78.2764 L 274.9351 78.0810 L 275.1081 77.8043 L 275.1897 77.4509 L 275.1786 77.0270 L 275.0749 76.5397 L 275.0171 76.3788 L 275.2405 76.4111 L 275.6749 76.3936 L 276.0309 76.2861 L 276.3022 76.0903 L 276.4844 75.8096 L 276.5741 75.4488 L 276.5700 75.0140 L 276.4721 74.5127 L 276.4246 74.3730 L 276.5201 74.3884 L 276.9656 74.3782 L 277.3322 74.2741 L 277.6137 74.0782 L 277.8052 73.7937 L 277.9035 73.4255 L 277.9068 72.9799 L 277.8152 72.4645 L 277.7764 72.3438 L 278.2083 72.3412 L 278.5857 72.2411 L 278.8774 72.0454 L 279.0786 71.7573 L 279.1857 71.3818 L 279.1969 70.9254 L 279.1121 70.3958 L 279.0788 70.2856 L 279.4060 70.2893 L 279.7942 70.1935 L 280.0965 69.9982 L 280.3076 69.7067 L 280.4239 69.3241 L 280.4435 68.8569 L 280.3660 68.3131 L 280.3383 68.2155 L 280.5644 68.2220 L 280.9635 68.1308 L 281.2764 67.9363 L 281.4977 67.6417 L 281.6236 67.2521 L 281.6520 66.7742 L 281.5824 66.2161 L 281.5620 66.1392 L 281.6849 66.1448 L 282.0950 66.0587 L 282.4187 65.8653 L 282.6505 65.5678 L 282.7864 65.1714 L 282.8240 64.6829 L 282.7628 64.1106 L 282.7497 64.0571 L 282.7711 64.0585 L 283.1922 63.9778 L 283.5268 63.7858 L 283.7693 63.4857 L 283.9155 63.0827 L 283.9629 62.5836 L 283.9107 61.9970 L 283.9001 61.9505 L 284.2578 61.8886 L 284.6035 61.6984 L 284.8569 61.3959 L 285.0138 60.9864 L 285.0714 60.4770 L 285.0287 59.8762 L 285.0200 59.8348 L 285.2936 59.7925 L 285.6505 59.6043 L 285.9152 59.2998 L 286.0831 58.8841 L 286.1513 58.3644 L 286.1187 57.7494 L 286.1124 57.7162 L 286.3015 57.6904 L 286.6697 57.5048 L 286.9458 57.1985 L 287.1251 56.7768 L 287.2044 56.2469 L 287.1825 55.6179 L 287.1786 55.5954 L 287.2829 55.5831 L 287.6625 55.4004 L 287.9503 55.0926 L 288.1412 54.6652 L 288.2321 54.1253 L 288.2215 53.4823 L 288.2200 53.4729 L 288.2393 53.4710 L 288.6304 53.2914 L 288.9300 52.9826 L 289.1330 52.5496 L 289.2359 52.0000 L 289.2370 51.3432 L 289.2348 51.3267 L 289.5745 51.1782 L 289.8862 50.8685 L 290.1016 50.4304 L 290.2170 49.8712 L 290.2305 49.2007 L 290.2273 49.1732 L 290.4957 49.0618 L 290.8196 48.7517 L 291.0477 48.3086 L 291.1760 47.7402 L 291.2025 47.0561 L 291.1990 47.0206 L 291.3944 46.9437 L 291.7307 46.6334 L 291.9718 46.1857 L 292.1135 45.6083 L 292.1534 44.9109 L 292.1500 44.8670 L 292.2724 44.8214 L 292.6213 44.5114 L 292.8757 44.0594 L 293.0312 43.4732 L 293.0851 42.7628 L 293.0821 42.7117 L 293.1308 42.6946 L 293.4924 42.3851 L 293.7603 41.9292 L 293.9300 41.3345 L 293.9986 40.6113 L 293.9959 40.5444 L 294.3434 40.2580 L 294.6252 39.7984 L 294.8095 39.1956 L 294.8931 38.4599 L 294.8908 38.3540 L 295.1758 38.1281 L 295.4716 37.6652 L 295.6709 37.0546 L 295.7701 36.3065 L 295.7697 36.1615 L 295.9909 35.9928 L 296.3011 35.5270 L 296.5157 34.9089 L 296.6311 34.1489 L 296.6340 33.9709 L 296.7871 33.8586 L 297.1118 33.3903 L 297.3421 32.7651 L 297.4742 31.9936 L 297.4816 31.7787 L 297.5675 31.7181 L 297.9069 31.2477 L 298.1533 30.6157 L 298.3025 29.8330 L 298.3157 29.5870 L 298.3306 29.5768 L 298.6850 29.1047 L 298.9477 28.4663 L 299.1144 27.6727 L 299.1375 27.3545 L 299.4480 26.9564 L 299.7275 26.3121 L 299.9122 25.5081 L 299.9484 25.1115 L 300.1951 24.8072 L 300.4915 24.1574 L 300.6946 23.3433 L 300.7471 22.8671 L 300.9284 22.6518 L 301.2421 21.9969 L 301.4640 21.1732 L 301.5350 20.6235 L 301.6462 20.4962 L 301.9774 19.8366 L 302.2184 19.0038 L 302.3111 18.3781 L 302.3513 18.3338 L 302.7001 17.6700 L 302.9607 16.8285 L 303.0833 16.0949 L 303.4090 15.5019 L 303.6894 14.6522 L 303.8541 13.7677 L 304.1054 13.3293 L 304.4060 12.4719 L 304.6172 11.4428 L 304.7355 10.2594 L 304.7589 8.9421 L 304.6869 7.5135 L 304.5208 5.9979 L 304.2635 4.4214 L 303.9192 2.8107 L 303.4940 1.1937 L 302.9950 -0.4022 L 302.4309 -1.9496 L 301.8113 -3.4219 L 301.1468 -4.7941 L 300.4487 -6.0427 L 299.7290 -7.1462 L 299.0001 -8.0859 L 298.2743 -8.8455 L 297.5641 -9.4122 L 296.8817 -9.7762 L 296.2387 -9.9314 L 295.6462 -9.8749 L 295.1142 -9.6079 L 294.6519 -9.1349 L 294.2672 -8.4639 L 293.9666 -7.6065 L 293.7554 -6.5773 L 293.7480 -6.5039 L 293.6940 -6.4465 L 293.3273 -5.7789 L 293.0469 -4.9292 L 292.8575 -3.9120 L 292.8555 -3.8875 L 292.7382 -3.7582 L 292.3894 -3.0944 L 292.1288 -2.2529 L 291.9655 -1.2759 L 291.7834 -1.0677 L 291.4523 -0.4081 L 291.2113 0.4247 L 291.0776 1.3270 L 290.8313 1.6194 L 290.5177 2.2744 L 290.2958 3.0980 L 290.1886 3.9278 L 289.8795 4.3091 L 289.5831 4.9590 L 289.3800 5.7730 L 289.2972 6.5236 L 288.9297 6.9947 L 288.6503 7.6390 L 288.4656 8.4430 L 288.3997 9.1640 L 288.3344 9.2083 L 287.9800 9.6804 L 287.7173 10.3188 L 287.5506 11.1124 L 287.5008 11.7997 L 287.3710 11.8912 L 287.0316 12.3616 L 286.7852 12.9936 L 286.6361 13.7763 L 286.6009 14.4315 L 286.4070 14.5738 L 286.0823 15.0421 L 285.8520 15.6673 L 285.7199 16.4389 L 285.6985 17.0557 L 285.4439 17.2499 L 285.1338 17.7157 L 284.9191 18.3338 L 284.8037 19.0937 L 284.7944 19.6757 L 284.4785 19.9262 L 284.1827 20.3891 L 283.9834 20.9997 L 283.8841 21.7477 L 283.8856 22.2882 L 283.5126 22.5955 L 283.2308 23.0551 L 283.0466 23.6579 L 282.9629 24.3937 L 282.9744 24.9262 L 282.9062 24.9501 L 282.5446 25.2596 L 282.2766 25.7155 L 282.1070 26.3102 L 282.0384 27.0334 L 282.0596 27.5583 L 281.9218 27.6096 L 281.5729 27.9197 L 281.3185 28.3717 L 281.1631 28.9579 L 281.1091 29.6683 L 281.1393 30.1808 L 280.9343 30.2615 L 280.5980 30.5718 L 280.3569 31.0195 L 280.2152 31.5969 L 280.1753 32.2942 L 280.2140 32.7927 L 279.9425 32.9055 L 279.6186 33.2156 L 279.3905 33.6587 L 279.2622 34.2271 L 279.2357 34.9111 L 279.2824 35.3955 L 278.9443 35.5433 L 278.6327 35.8530 L 278.4173 36.2911 L 278.3018 36.8503 L 278.2883 37.5208 L 278.3426 37.9921 L 278.3301 37.9933 L 277.9390 38.1729 L 277.6394 38.4818 L 277.4364 38.9147 L 277.3334 39.4643 L 277.3323 40.1211 L 277.3963 40.5990 L 277.3051 40.6097 L 276.9255 40.7925 L 276.6378 41.1003 L 276.4468 41.5277 L 276.3559 42.0675 L 276.3666 42.7105 L 276.4401 43.1927 L 276.2705 43.2158 L 275.9023 43.4014 L 275.6262 43.7077 L 275.4469 44.1294 L 275.3676 44.6593 L 275.3895 45.2883 L 275.4723 45.7721 L 275.2243 45.8105 L 274.8674 45.9986 L 274.6028 46.3031 L 274.4349 46.7188 L 274.3667 47.2385 L 274.3993 47.8535 L 274.4909 48.3362 L 274.1648 48.3926 L 273.8191 48.5829 L 273.5656 48.8853 L 273.4088 49.2948 L 273.3512 49.8043 L 273.3939 50.4051 L 273.4937 50.8834 L 273.0897 50.9607 L 272.7551 51.1528 L 272.5126 51.4528 L 272.3664 51.8559 L 272.3190 52.3550 L 272.3713 52.9415 L 272.4824 53.4303 L 272.4069 53.4268 L 271.9968 53.5129 L 271.6731 53.7064 L 271.4413 54.0038 L 271.3054 54.4002 L 271.2678 54.8888 L 271.3290 55.4611 L 271.4522 55.9619 L 271.2819 55.9571 L 270.8828 56.0482 L 270.5699 56.2428 L 270.3486 56.5373 L 270.2226 56.9269 L 270.1943 57.4048 L 270.2639 57.9629 L 270.3989 58.4728 L 270.1320 58.4698 L 269.7438 58.5657 L 269.4415 58.7610 L 269.2304 59.0524 L 269.1141 59.4350 L 269.0945 59.9022 L 269.1720 60.4460 L 269.3169 60.9570 L 268.9552 60.9591 L 268.5778 61.0592 L 268.2860 61.2550 L 268.0848 61.5431 L 267.9777 61.9186 L 267.9665 62.3750 L 268.0513 62.9046 L 268.2063 63.4172 L 268.1908 63.4147 L 267.7453 63.4250 L 267.3787 63.5290 L 267.0972 63.7249 L 266.9057 64.0094 L 266.8074 64.3777 L 266.8041 64.8233 L 266.8958 65.3387 L 267.0639 65.8621 L 266.9333 65.8433 L 266.4988 65.8607 L 266.1429 65.9682 L 265.8715 66.1640 L 265.6894 66.4448 L 265.5997 66.8056 L 265.6038 67.2404 L 265.7017 67.7417 L 265.8824 68.2733 L 265.6306 68.2413 L 265.2073 68.2653 L 264.8619 68.3760 L 264.6005 68.5714 L 264.4274 68.8482 L 264.3458 69.2015 L 264.3569 69.6255 L 264.4607 70.1127 L 264.6499 70.6403 L 264.2773 70.5991 L 263.8649 70.6295 L 263.5300 70.7430 L 263.2783 70.9377 L 263.1141 71.2103 L 263.0403 71.5561 L 263.0580 71.9692 L 263.1670 72.4425 L 263.3624 72.9601 L 263.3350 72.9537 L 262.8636 72.9095 L 262.4623 72.9456 L 262.1377 73.0616 L 261.8955 73.2554 L 261.7399 73.5236 L 261.6734 73.8618 L 261.6973 74.2641 L 261.8111 74.7236 L 262.0128 75.2326 L 262.0138 75.2343 L 261.8386 75.1966 L 261.3788 75.1610 L 260.9883 75.2025 L 260.6740 75.3206 L 260.4411 75.5132 L 260.2937 75.7770 L 260.2343 76.1075 L 260.2639 76.4990 L 260.3820 76.9449 L 260.5844 77.4320 L 260.2564 77.3669 L 259.8080 77.3393 L 259.4284 77.3859 L 259.1242 77.5058 L 258.9004 77.6969 L 258.7610 77.9561 L 258.7083 78.2789 L 258.7432 78.6597 L 258.8652 79.0921 L 259.0551 79.5294 L 258.5721 79.4413 L 258.1352 79.4214 L 257.7664 79.4726 L 257.4721 79.5940 L 257.2572 79.7835 L 257.1255 80.0380 L 257.0791 80.3530 L 257.1190 80.7232 L 257.2444 81.1422 L 257.4132 81.5148 L 257.2496 81.4699 L 256.7640 81.3892 L 256.3386 81.3765 L 255.9805 81.4319 L 255.6959 81.5545 L 255.4896 81.7422 L 255.3653 81.9918 L 255.3250 82.2991 L 255.3694 82.6587 L 255.4978 83.0645 L 255.6185 83.3203 L 255.2821 83.2336 L 254.8085 83.1624 L 254.3944 83.1563 L 254.0469 83.2156 L 253.7719 83.3391 L 253.5741 83.5248 L 253.4569 83.7695 L 253.4223 84.0690 L 253.4709 84.4181 L 253.6019 84.8110 L 253.6294 84.8670 L 253.1463 84.7504 L 252.6848 84.6881 L 252.2821 84.6883 L 251.9450 84.7510 L 251.6795 84.8752 L 251.4899 85.0587 L 251.3795 85.2983 L 251.3503 85.5901 L 251.4027 85.9289 L 251.4524 86.0708 L 251.3313 86.0328 L 250.8315 85.9200 L 250.3819 85.8662 L 249.9905 85.8723 L 249.6638 85.9381 L 249.4074 86.0627 L 249.2258 86.2438 L 249.1220 86.4784 L 249.0978 86.7624 L 249.1035 86.7956 L 248.8564 86.7221 L 248.3691 86.6196 L 247.9315 86.5737 L 247.5513 86.5852 L 247.2348 86.6539 L 246.9874 86.7786 L 246.8136 86.9572 L 246.8025 86.9832 L 246.3235 86.8482 L 245.8487 86.7556 L 245.4231 86.7172 L 245.0539 86.7337 L 244.9602 86.7555 L 244.8917 86.7275 L 244.3570 86.5453 L 244.0292 86.4579 L 243.7059 86.2918 L 243.5937 86.2068 L 243.0881 85.8610 L 242.9172 85.7554 L 242.8028 85.6342 L 242.4240 85.2838 L 241.9990 84.9346 L 241.5584 84.6100 L 241.4560 84.4553 L 241.1920 84.1339 L 240.8714 83.8030 L 240.4997 83.4683 L 240.0832 83.1353 L 239.9870 83.0665 L 239.9815 83.0471 L 239.8439 82.7717 L 239.6434 82.4774 L 239.3836 82.1693 L 239.0687 81.8528 L 238.7043 81.5331 L 238.3475 81.2555 L 238.3454 81.2025 L 238.2722 80.9594 L 238.1355 80.6943 L 237.9376 80.4118 L 237.6821 80.1167 L 237.3732 79.8140 L 237.0162 79.5090 L 236.7273 79.2901 L 236.7383 79.2520 L 236.7274 79.0420 L 236.6535 78.8076 L 236.5179 78.5526 L 236.3229 78.2816 L 236.0719 77.9990 L 235.7692 77.7097 L 235.4198 77.4187 L 235.1461 77.2168 L 235.1502 77.2113 L 235.1985 77.0347 L 235.1854 76.8317 L 235.1111 76.6057 L 234.9768 76.3606 L 234.7849 76.1006 L 234.5386 75.8301 L 234.2422 75.5539 L 233.9007 75.2765 L 233.5999 75.0602 L 233.6794 74.9501 L 233.7241 74.7787 L 233.7091 74.5825 L 233.6345 74.3648 L 233.5018 74.1293 L 233.3131 73.8800 L 233.0717 73.6213 L 232.7817 73.3576 L 232.4480 73.0933 L 232.0971 72.8474 L 232.1661 72.7975 L 232.2647 72.6575 L 232.3059 72.4913 L 232.2891 72.3017 L 232.2145 72.0921 L 232.0835 71.8659 L 231.8982 71.6271 L 231.6618 71.3798 L 231.3783 71.1281 L 231.0527 70.8764 L 230.6905 70.6290 L 230.6380 70.5971 L 230.6593 70.5885 L 230.8071 70.4790 L 230.9008 70.3426 L 230.9388 70.1815 L 230.9204 69.9985 L 230.8459 69.7968 L 230.7167 69.5797 L 230.5349 69.3510 L 230.3037 69.1146 L 230.0269 68.8746 L 229.7094 68.6351 L 229.3566 68.4001 L 229.2012 68.3080 L 229.3490 68.2463 L 229.4906 68.1389 L 229.5796 68.0061 L 229.6145 67.8501 L 229.5947 67.6736 L 229.5205 67.4795 L 229.3933 67.2712 L 229.2152 67.0524 L 228.9892 66.8266 L 228.7193 66.5978 L 228.4099 66.3699 L 228.0665 66.1469 L 227.7955 65.9905 L 227.8936 65.9682 L 228.0778 65.8889 L 228.2133 65.7837 L 228.2978 65.6545 L 228.3298 65.5035 L 228.3088 65.3332 L 228.2351 65.1467 L 228.1100 64.9470 L 227.9357 64.7376 L 227.7151 64.5221 L 227.4520 64.3041 L 227.1508 64.0875 L 226.8169 63.8758 L 226.4558 63.6727 L 226.4107 63.6502 L 226.4419 63.6471 L 226.6631 63.5943 L 226.8400 63.5158 L 226.9697 63.4129 L 227.0498 63.2873 L 227.0791 63.1413 L 227.0570 62.9772 L 226.9839 62.7980 L 226.8611 62.6066 L 226.6907 62.4064 L 226.4755 62.2007 L 226.2193 61.9932 L 225.9264 61.7873 L 225.6019 61.5866 L 225.2513 61.3944 L 225.0322 61.2879 L 225.2513 61.2637 L 225.4641 61.2105 L 225.6340 61.1329 L 225.7579 61.0323 L 225.8340 60.9104 L 225.8607 60.7692 L 225.8377 60.6112 L 225.7654 60.4390 L 225.6449 60.2557 L 225.4784 60.0644 L 225.2688 59.8683 L 225.0195 59.6707 L 224.7349 59.4752 L 224.4198 59.2850 L 224.0796 59.1033 L 223.7202 58.9333 L 223.6492 58.9037 L 223.8458 58.9001 L 224.0886 58.8707 L 224.2932 58.8173 L 224.4561 58.7408 L 224.5746 58.6425 L 224.6467 58.5242 L 224.6710 58.3878 L 224.6472 58.2357 L 224.5758 58.0705 L 224.4578 57.8950 L 224.2954 57.7122 L 224.0913 57.5253 L 223.8490 57.3374 L 223.5726 57.1518 L 223.2669 56.9716 L 222.9372 56.7999 L 222.5890 56.6397 L 222.2326 56.4954 L 222.4506 56.5071 L 222.7172 56.4996 L 222.9507 56.4688 L 223.1473 56.4153 L 223.3036 56.3400 L 223.4168 56.2441 L 223.4850 56.1294 L 223.5071 55.9978 L 223.4827 55.8515 L 223.4122 55.6930 L 223.2968 55.5251 L 223.1385 55.3506 L 222.9400 55.1725 L 222.7047 54.9939 L 222.4366 54.8177 L 222.1403 54.6471 L 221.8209 54.4850 L 221.4838 54.3340 L 221.1348 54.1969 L 220.7799 54.0759 L 220.6214 54.0300 L 220.7633 54.0544 L 221.0703 54.0889 L 221.3545 54.1013 L 221.6112 54.0915 L 221.8358 54.0596 L 222.0246 54.0061 L 222.1743 53.9321 L 222.2824 53.8387 L 222.3470 53.7276 L 222.3671 53.6006 L 222.3421 53.4600 L 222.2727 53.3080 L 222.1600 53.1475 L 222.0058 52.9810 L 221.8130 52.8114 L 221.5846 52.6416 L 221.3247 52.4746 L 221.0378 52.3132 L 220.7286 52.1601 L 220.4025 52.0180 L 220.0652 51.8894 L 219.7222 51.7763 L 219.3796 51.6807 L 219.0432 51.6044 L 218.7187 51.5485 L 218.4117 51.5140 L 218.1275 51.5016 L 217.8708 51.5115 L 217.6462 51.5434 L 217.4574 51.5968 L 217.3077 51.6708 L 217.1996 51.7642 L 217.1350 51.8753 L 217.1150 52.0023 Z"/>
  <g id="debug">
  <path fill="none" stroke="#ff3366" stroke-opacity="0.6" stroke-width="0.5" d=""/>
  <path fill="none" stroke="#ff9900" stroke-opacity="0.6" stroke-width="0.6" d=""/>
  <path fill="none" stroke="#222222" stroke-opacity="0.7" stroke-width="0.6" d=""/>
  
  <path fill="none" stroke="#8844ff" stroke-opacity="0.35" stroke-width="0.6" d="M -4.3950 1.1776 L -3.5669 3.6207 L -2.7347 6.0595 L -1.8974 8.4956 L -1.0538 10.9317 L -0.2054 13.3624 L 0.6504 15.7940 L 1.5118 18.2203 L 2.3810 20.6460 L 3.2569 23.0666 L 4.1415 25.4864 L 5.0333 27.8997 L 5.9356 30.3133 L 6.8466 32.7207 L 7.7677 35.1238 L 8.7005 37.5243 L 9.6446 39.9186 L 10.6009 42.3066 L 11.5714 44.6906 L 12.5569 47.0687 L 13.5581 49.4395 L 14.5765 51.8025 L 15.6137 54.1571 L 16.6714 56.5024 L 17.7516 58.8370 L 18.8563 61.1594 L 19.9886 63.4687 L 21.1520 65.7643 L 22.3485 68.0403 L 23.5838 70.2970 L 24.8613 72.5278 L 26.1891 74.7319 L 27.5727 76.9000 L 29.0214 79.0247 L 30.5459 81.0950 L 32.1606 83.0965 L 33.8814 85.0062 L 35.7298 86.7935 L 37.7292 88.4101 L 39.9001 89.7835 L 42.2534 90.8136 L 44.7571 91.3773 L 47.3215 91.3812 L 49.8249 90.8252 L 52.1776 89.8029 L 54.3477 88.4372 L 56.3460 86.8283 L 58.1930 85.0488 L 59.9120 83.1469 L 61.5248 81.1532 L 63.0470 79.0908 L 64.4931 76.9739 L 65.8739 74.8137 L 67.1987 72.6176 L 68.4727 70.3948 L 69.7043 68.1462 L 70.8968 65.8782 L 72.0560 63.5907 L 73.1837 61.2896 L 74.2836 58.9755 L 75.3586 56.6492 L 76.4108 54.3123 L 77.4423 51.9662 L 78.4546 49.6117 L 79.4495 47.2495 L 80.4282 44.8801 L 81.3918 42.5050 L 82.3409 40.1258 L 83.2773 37.7405 L 84.2023 35.3491 L 85.1152 32.9552 L 86.0176 30.5572 L 86.9111 28.1529 L 87.7937 25.7493 L 88.6688 23.3391 L 89.5349 20.9284 L 90.3939 18.5127 L 91.2448 16.0965 L 92.0898 13.6751 L 92.9270 11.2549 L 93.7591 8.8294 L 94.5845 6.4041 L 95.4045 3.9762 L 96.2200 1.5443 L 97.0353 -0.8876 L 97.8549 -3.3157 L 98.6797 -5.7414 L 99.5108 -8.1673 L 100.3468 -10.5881 L 101.1903 -13.0102 L 102.0395 -15.4272 L 102.8966 -17.8439 L 103.7603 -20.2557 L 104.6329 -22.6671 L 105.5128 -25.0721 L 106.4031 -27.4779 L 107.3022 -29.8776 L 108.2115 -32.2732 L 109.1326 -34.6666 L 110.0648 -37.0539 L 111.0094 -39.4352 L 111.9683 -41.8127 L 112.9420 -44.1846 L 113.9316 -46.5494 L 114.9383 -48.9067 L 115.9639 -51.2558 L 117.0099 -53.5957 L 118.0785 -55.9252 L 119.1716 -58.2427 L 120.2922 -60.5474 L 121.4440 -62.8386 L 122.6288 -65.1104 L 123.8524 -67.3631 L 125.1181 -69.5901 L 126.4342 -71.7906 L 127.8060 -73.9554 L 129.2428 -76.0770 L 130.7554 -78.1443 L 132.3582 -80.1431 L 134.0669 -82.0504 L 135.9032 -83.8354 L 137.8905 -85.4500 L 140.0492 -86.8216 L 142.3901 -87.8500 L 144.8814 -88.4124 L 147.4333 -88.4151 L 149.9241 -87.8582 L 152.2640 -86.8352 L 154.4213 -85.4691 L 156.4066 -83.8600 L 158.2405 -82.0805 L 159.9463 -80.1788 L 161.5456 -78.1857 L 163.0543 -76.1241 L 164.4867 -74.0083 L 165.8536 -71.8494 L 167.1642 -69.6548 L 168.4240 -67.4339 L 169.6410 -65.1875 L 170.8188 -62.9220 L 171.9631 -60.6373 L 173.0756 -58.3392 L 174.1600 -56.0285 L 175.2193 -53.7060 L 176.2556 -51.3732 L 177.2707 -49.0315 L 178.2665 -46.6818 L 179.2444 -44.3249 L 180.2059 -41.9611 L 181.1519 -39.5920 L 182.0829 -37.2193 L 183.0010 -34.8410 L 183.9072 -32.4570 L 184.8009 -30.0710 L 185.6836 -27.6814 L 186.5569 -25.2861 L 187.4189 -22.8920 L 188.2729 -20.4921 L 189.1172 -18.0921 L 189.9539 -15.6879 L 190.7819 -13.2839 L 191.6033 -10.8755 L 192.4164 -8.4689 L 193.2235 -6.0581 L 194.0232 -3.6482 L 194.8168 -1.2368 L 197.4733 1.8810 L 200.7473 2.7973 L 201.5595 5.2465 L 202.3764 7.6938 L 203.1995 10.1419 L 204.0270 12.5855 L 204.8617 15.0308 L 205.7017 17.4715 L 206.5490 19.9124 L 207.4027 22.3490 L 208.2646 24.7856 L 209.1333 27.2164 L 210.0120 29.6484 L 210.8988 32.0748 L 211.7951 34.4977 L 212.7026 36.9187 L 213.6206 39.3342 L 214.5501 41.7441 L 215.4931 44.1506 L 216.4503 46.5519 L 217.4223 48.9466 L 218.4107 51.3340 L 219.4169 53.7136 L 220.4426 56.0843 L 221.4898 58.4449 L 222.5605 60.7938 L 223.6576 63.1300 L 224.7848 65.4530 L 225.9437 67.7566 L 227.1402 70.0413 L 228.3775 72.3002 L 229.6639 74.5327 L 231.0047 76.7294 L 232.4091 78.8828 L 233.8878 80.9817 L 235.4551 83.0119 L 237.1270 84.9502 L 238.9249 86.7658 L 240.8723 88.4106 L 242.9894 89.8118 L 245.2872 90.8693 L 247.7337 91.4599 L 250.2391 91.4901 L 252.6818 90.9599 L 254.9720 89.9625 L 257.0778 88.6210 L 259.0099 87.0353 L 260.7890 85.2779 L 262.4384 83.3970 L 263.9796 81.4232 L 265.4285 79.3793 L 266.7996 77.2794 L 268.1036 75.1348 L 269.3498 72.9526 L 270.5436 70.7420 L 271.6934 68.5037 L 272.8025 66.2442 L 273.8768 63.9632 L 274.9181 61.6663 L 275.9302 59.3543 L 276.9161 57.0279 L 277.8780 54.6885 L 278.8179 52.3374 L 279.7377 49.9754 L 280.6389 47.6032 L 281.5233 45.2210 L 282.3917 42.8305 L 283.2449 40.4331 L 284.0850 38.0269 L 284.9132 35.6117 L 285.7291 33.1911 L 286.5343 30.7636 L 287.3305 28.3269 L 288.1161 25.8880 L 288.8943 23.4397 L 289.6637 20.9879 L 290.4267 18.5284 L 291.1822 16.0656 L 291.9325 13.5948 L 292.6760 11.1224 L 293.4152 8.6422 L 294.1490 6.1595 L 294.8786 3.6718 L 295.6050 1.1776 L 304.3950 -1.1776 L 303.4940 1.1937 L 302.5873 3.5635 L 301.6743 5.9334 L 300.7537 8.3062 L 299.8272 10.6765 L 298.8924 13.0508 L 297.9511 15.4227 L 297.0013 17.7972 L 296.0443 20.1696 L 295.0781 22.5444 L 294.1043 24.9157 L 293.1200 27.2907 L 292.1269 29.6624 L 291.1238 32.0330 L 290.1092 34.4042 L 289.0837 36.7721 L 288.0465 39.1368 L 286.9955 41.5005 L 285.9304 43.8612 L 284.8504 46.2175 L 283.7541 48.5688 L 282.6400 50.9144 L 281.5065 53.2533 L 280.3517 55.5842 L 279.1737 57.9054 L 277.9695 60.2159 L 276.7355 62.5150 L 275.4700 64.7967 L 274.1673 67.0612 L 272.8240 69.3018 L 271.4319 71.5177 L 269.9858 73.6994 L 268.4763 75.8395 L 266.8928 77.9266 L 265.2208 79.9466 L 263.4445 81.8762 L 261.5424 83.6847 L 259.4911 85.3238 L 257.2700 86.7207 L 254.8684 87.7753 L 252.3182 88.3646 L 249.7090 88.3948 L 247.1626 87.8659 L 244.7686 86.8714 L 242.5589 85.5342 L 240.5227 83.9542 L 238.6394 82.2040 L 236.8857 80.3317 L 235.2399 78.3681 L 233.6862 76.3359 L 232.2100 74.2494 L 230.8006 72.1197 L 229.4487 69.9541 L 228.1489 67.7619 L 226.8929 65.5437 L 225.6772 63.3062 L 224.4961 61.0490 L 223.3477 58.7779 L 222.2283 56.4936 L 221.1348 54.1969 L 220.0652 51.8894 L 219.0174 49.5722 L 217.9896 47.2463 L 216.9804 44.9124 L 215.9880 42.5709 L 215.0117 40.2231 L 214.0508 37.8710 L 213.1032 35.5123 L 212.1679 33.1470 L 211.2452 30.7787 L 210.3337 28.4059 L 209.4318 26.0263 L 208.5412 23.6468 L 207.6588 21.2603 L 206.7859 18.8727 L 205.9205 16.4796 L 205.0637 14.0856 L 204.2132 11.6858 L 203.3709 9.2866 L 202.5341 6.8817 L 201.7042 4.4765 L 200.8801 2.0682 L 202.5267 -1.8810 L 203.5558 -3.6286 L 202.7131 -6.0747 L 201.8660 -8.5175 L 201.0133 -10.9596 L 200.1564 -13.3958 L 199.2927 -15.8324 L 198.4239 -18.2632 L 197.5479 -20.6930 L 196.6657 -23.1173 L 195.7752 -25.5404 L 194.8780 -27.9566 L 193.9707 -30.3729 L 193.0552 -32.7826 L 192.1298 -35.1878 L 191.1932 -37.5901 L 190.2457 -39.9859 L 189.2863 -42.3753 L 188.3129 -44.7604 L 187.3250 -47.1395 L 186.3216 -49.5110 L 185.3012 -51.8747 L 184.2624 -54.2297 L 183.2032 -56.5753 L 182.1219 -58.9101 L 181.0162 -61.2325 L 179.8832 -63.5417 L 178.7192 -65.8372 L 177.5224 -68.1129 L 176.2870 -70.3692 L 175.0096 -72.5995 L 173.6819 -74.8031 L 172.2987 -76.9706 L 170.8505 -79.0946 L 169.3267 -81.1641 L 167.7129 -83.1648 L 165.9931 -85.0737 L 164.1457 -86.8600 L 162.1475 -88.4757 L 159.9779 -89.8480 L 157.6261 -90.8770 L 155.1240 -91.4396 L 152.5613 -91.4423 L 150.0597 -90.8852 L 147.7088 -89.8617 L 145.5407 -88.4948 L 143.5444 -86.8846 L 141.6995 -85.1038 L 139.9827 -83.2005 L 138.3722 -81.2055 L 136.8524 -79.1417 L 135.4086 -77.0235 L 134.0303 -74.8619 L 132.7081 -72.6643 L 131.4367 -70.4401 L 130.2078 -68.1900 L 129.0180 -65.9206 L 127.8615 -63.6316 L 126.7366 -61.3290 L 125.6396 -59.0133 L 124.5675 -56.6855 L 123.5182 -54.3472 L 122.4897 -51.9995 L 121.4804 -49.6434 L 120.4886 -47.2797 L 119.5129 -44.9088 L 118.5524 -42.5320 L 117.6065 -40.1513 L 116.6732 -37.7645 L 115.7515 -35.3715 L 114.8418 -32.9760 L 113.9426 -30.5764 L 113.0524 -28.1705 L 112.1730 -25.7653 L 111.3011 -23.3536 L 110.4384 -20.9412 L 109.5827 -18.5239 L 108.7351 -16.1061 L 107.8934 -13.6832 L 107.0596 -11.2613 L 106.2309 -8.8342 L 105.4088 -6.4073 L 104.5921 -3.9778 L 103.7800 -1.5443 L 102.9681 0.8892 L 102.1518 3.3189 L 101.3304 5.7462 L 100.5026 8.1737 L 99.6699 10.5961 L 98.8298 13.0198 L 97.9839 15.4384 L 97.1302 17.8567 L 96.2697 20.2702 L 95.4004 22.6831 L 94.5238 25.0898 L 93.6367 27.4971 L 92.7408 29.8984 L 91.8347 32.2956 L 90.9169 34.6905 L 89.9878 37.0794 L 89.0464 39.4623 L 88.0906 41.8414 L 87.1199 44.2148 L 86.1334 46.5812 L 85.1297 48.9400 L 84.1071 51.2906 L 83.0640 53.6320 L 81.9983 55.9631 L 80.9081 58.2821 L 79.7903 60.5883 L 78.6412 62.8809 L 77.4591 65.1542 L 76.2382 67.4083 L 74.9751 69.6368 L 73.6616 71.8387 L 72.2922 74.0049 L 70.8578 76.1279 L 69.3476 78.1966 L 67.7471 80.1968 L 66.0406 82.1053 L 64.2064 83.8917 L 62.2212 85.5075 L 60.0644 86.8804 L 57.7253 87.9100 L 55.2358 88.4735 L 52.6856 88.4774 L 50.1964 87.9216 L 47.8579 86.8997 L 45.7020 85.5346 L 43.7179 83.9265 L 41.8851 82.1480 L 40.1802 80.2472 L 38.5818 78.2548 L 37.0738 76.1940 L 35.6419 74.0788 L 34.2754 71.9206 L 32.9650 69.7266 L 31.7053 67.5061 L 30.4881 65.2600 L 29.3100 62.9948 L 28.1652 60.7103 L 27.0519 58.4123 L 25.9665 56.1016 L 24.9061 53.7788 L 23.8684 51.4458 L 22.8516 49.1036 L 21.8539 46.7534 L 20.8738 44.3956 L 19.9097 42.0309 L 18.9609 39.6606 L 18.0268 37.2866 L 17.1052 34.9067 L 16.1953 32.5209 L 15.2974 30.1329 L 14.4101 27.7409 L 13.5318 25.3430 L 12.6644 22.9460 L 11.8046 20.5427 L 10.9540 18.1391 L 10.1104 15.7308 L 9.2750 13.3223 L 8.4457 10.9089 L 7.6242 8.4969 L 6.8079 6.0800 L 5.9984 3.6635 L 5.1943 1.2448 L 4.3950 -1.1776 L -4.3950 1.1776 Z"/>
  
  
  
</g>
</svg>