<svg xmlns="http://www.w3.org/2000/svg" width="329.9300" height="222.3825" viewBox="-15.5350 -111.0826 329.9300 222.3825">
  <path fill="black" stroke="none" fill-rule="evenodd" d="M -5.5350 -6.7100 L -5.4885 -5.2587 L -5.3480 -3.7174 L -5.1160 -2.1125 L -4.7965 -0.4715 L -4.3950 1.1776 L -3.9182 2.8066 L -3.3744 4.3875 L -2.8147 5.7886 L -2.7803 5.9264 L -2.2963 7.5449 L -1.7460 9.1151 L -1.1976 10.4650 L -1.1464 10.6653 L -0.6556 12.2736 L -0.0990 13.8336 L 0.4470 15.1564 L 0.5093 15.3946 L 1.0066 16.9931 L 1.5691 18.5431 L 2.1231 19.8647 L 2.1897 20.1142 L 2.6932 21.7031 L 3.2614 23.2434 L 3.8352 24.5925 L 3.8982 24.8234 L 4.4075 26.4030 L 4.9811 27.9340 L 5.5885 29.3421 L 5.6382 29.5210 L 6.1532 31.0917 L 6.7320 32.6135 L 7.3646 34.0605 L 7.3843 34.0998 L 7.4140 34.2049 L 7.9344 35.7669 L 8.5180 37.2799 L 9.1550 38.7181 L 9.2264 38.8589 L 9.2301 38.8719 L 9.7556 40.4255 L 10.3439 41.9300 L 10.9850 43.3598 L 11.1440 43.6696 L 11.6221 45.0629 L 12.2149 46.5592 L 12.8599 47.9807 L 13.1389 48.5187 L 13.5437 49.6816 L 14.1407 51.1700 L 14.7894 52.5836 L 15.2239 53.4124 L 15.5268 54.2715 L 16.1279 55.7521 L 16.7801 57.1581 L 17.4160 58.3588 L 17.5837 58.8285 L 18.1886 60.3016 L 18.8443 61.7002 L 19.5394 63.0003 L 19.6980 63.2590 L 19.7290 63.3448 L 20.3376 64.8108 L 20.9965 66.2022 L 21.6943 67.4952 L 22.1778 68.2773 L 22.5924 69.2655 L 23.2543 70.6500 L 23.9548 71.9363 L 24.6817 73.1024 L 24.8402 73.3218 L 24.9808 73.6537 L 25.6457 75.0315 L 26.3486 76.3113 L 27.0775 77.4712 L 27.7649 78.4157 L 28.2032 79.3160 L 28.9084 80.5895 L 29.6392 81.7434 L 30.3829 82.7579 L 30.9581 83.4210 L 30.9800 83.4655 L 31.6874 84.7329 L 32.4199 85.8810 L 33.1649 86.8900 L 33.9096 87.7427 L 34.6056 88.3913 L 34.7593 88.6645 L 35.4934 89.8069 L 36.2395 90.8107 L 36.9850 91.6587 L 37.7169 92.3363 L 38.4228 92.8319 L 38.7034 92.9602 L 38.9738 93.3782 L 39.7211 94.3769 L 40.4671 95.2203 L 41.1991 95.8937 L 41.9047 96.3858 L 42.5716 96.6881 L 43.1886 96.7955 L 43.3759 96.7654 L 43.7677 97.2858 L 44.5143 98.1247 L 45.2464 98.7942 L 45.9516 99.2829 L 46.6177 99.5824 L 47.2333 99.6876 L 47.7880 99.5967 L 48.2722 99.3113 L 48.5414 98.9959 L 49.2154 99.7488 L 49.9476 100.4145 L 50.6524 100.8999 L 51.3176 101.1967 L 51.9320 101.2999 L 52.4850 101.2077 L 52.9672 100.9215 L 53.3702 100.4465 L 53.6873 99.7906 L 53.8896 99.0504 L 54.1747 99.3671 L 54.9070 100.0291 L 55.6114 100.5114 L 56.2758 100.8057 L 56.8890 100.9069 L 57.4404 100.8133 L 57.9206 100.5266 L 58.3213 100.0515 L 58.6358 99.3964 L 58.8586 98.5723 L 58.9859 97.5933 L 58.9893 97.4633 L 59.3965 97.8295 L 60.1006 98.3087 L 60.7643 98.6005 L 61.3763 98.6999 L 61.9261 98.6051 L 62.4044 98.3177 L 62.8029 97.8428 L 63.1149 97.1883 L 63.3350 96.3655 L 63.4594 95.3886 L 63.4743 94.7625 L 63.9359 95.0750 L 64.5989 95.3645 L 65.2097 95.4620 L 65.7581 95.3660 L 66.2346 95.0781 L 66.6310 94.6032 L 66.9406 93.9494 L 67.1581 93.1280 L 67.2797 92.1529 L 67.2972 91.3287 L 67.9217 91.5995 L 68.5315 91.6954 L 69.0785 91.5982 L 69.5532 91.3098 L 69.9476 90.8349 L 70.2549 90.1818 L 70.4699 89.3616 L 70.5888 88.3883 L 70.6070 87.4251 L 70.8775 87.5416 L 71.4862 87.6358 L 72.0318 87.5376 L 72.5049 87.2486 L 72.8973 86.7738 L 73.2024 86.1214 L 73.4150 85.3024 L 73.5315 84.3308 L 73.5485 83.2949 L 73.5670 83.3028 L 74.1747 83.3954 L 74.7190 83.2962 L 75.1905 83.0067 L 75.5811 82.5320 L 75.8841 81.8801 L 76.0945 81.0623 L 76.2085 80.0925 L 76.2242 78.9872 L 76.2230 78.9691 L 76.6627 79.0352 L 77.2057 78.9349 L 77.6756 78.6450 L 78.0645 78.1704 L 78.3655 77.5191 L 78.5737 76.7024 L 78.6854 75.7342 L 78.6988 74.6310 L 78.6929 74.5479 L 78.9937 74.5925 L 79.5355 74.4913 L 80.0040 74.2010 L 80.3911 73.7264 L 80.6903 73.0757 L 80.8965 72.2600 L 81.0060 71.2934 L 81.0170 70.1922 L 81.0073 70.0576 L 81.2012 70.0859 L 81.7418 69.9839 L 82.2090 69.6931 L 82.5945 69.2186 L 82.8919 68.5685 L 83.0961 67.7538 L 83.2036 66.7886 L 83.2125 65.6893 L 83.1998 65.5186 L 83.3062 65.5340 L 83.8457 65.4311 L 84.3116 65.1400 L 84.6956 64.6655 L 84.9913 64.0159 L 85.1937 63.2023 L 85.2992 62.2384 L 85.3060 61.1410 L 85.2908 60.9406 L 85.3265 60.9457 L 85.8651 60.8420 L 86.3297 60.5505 L 86.7123 60.0762 L 87.0064 59.4270 L 87.2070 58.6143 L 87.3107 57.6518 L 87.3156 56.5561 L 87.2977 56.3253 L 87.8126 56.2254 L 88.2760 55.9335 L 88.6572 55.4592 L 88.9498 54.8106 L 89.1488 53.9987 L 89.2507 53.0375 L 89.2538 51.9434 L 89.2325 51.6746 L 89.7000 51.5831 L 90.1623 51.2909 L 90.5423 50.8167 L 90.8335 50.1685 L 91.0309 49.3575 L 91.1312 48.3974 L 91.1326 47.3048 L 91.1085 47.0069 L 91.5343 46.9229 L 91.9956 46.6305 L 92.3744 46.1564 L 92.6642 45.5086 L 92.8602 44.6983 L 92.9590 43.7394 L 92.9588 42.6482 L 92.9320 42.3228 L 93.3235 42.2451 L 93.7838 41.9524 L 94.1615 41.4783 L 94.4501 40.8309 L 94.6447 40.0214 L 94.7420 39.0635 L 94.7404 37.9736 L 94.7113 37.6258 L 95.0724 37.5536 L 95.5318 37.2606 L 95.9085 36.7866 L 96.1960 36.1396 L 96.3894 35.3307 L 96.4854 34.3738 L 96.4823 33.2852 L 96.4512 32.9186 L 96.7857 32.8513 L 97.2442 32.5581 L 97.6200 32.0841 L 97.9064 31.4375 L 98.0987 30.6293 L 98.1934 29.6732 L 98.1891 28.5858 L 98.1561 28.2029 L 98.4671 28.1400 L 98.9249 27.8466 L 99.2997 27.3727 L 99.5852 26.7264 L 99.7764 25.9187 L 99.8701 24.9635 L 99.8646 23.8771 L 99.8299 23.4798 L 100.1201 23.4208 L 100.5772 23.1273 L 100.9513 22.6534 L 101.2359 22.0074 L 101.4261 21.2002 L 101.5188 20.2458 L 101.5122 19.1603 L 101.4761 18.7498 L 101.7479 18.6942 L 102.2044 18.4005 L 102.5778 17.9267 L 102.8616 17.2809 L 103.0510 16.4743 L 103.1427 15.5205 L 103.1352 14.4359 L 103.0976 14.0127 L 103.3533 13.9603 L 103.8092 13.6664 L 104.1820 13.1926 L 104.4651 12.5471 L 104.6537 11.7409 L 104.7447 10.7877 L 104.7364 9.7039 L 104.6974 9.2698 L 104.9407 9.2198 L 105.3962 8.9257 L 105.7684 8.4520 L 106.0509 7.8067 L 106.2389 7.0008 L 106.3291 6.0481 L 106.3201 4.9650 L 106.2815 4.5386 L 106.5380 4.4857 L 106.9931 4.1916 L 107.3649 3.7179 L 107.6468 3.0727 L 107.8343 2.2672 L 107.9239 1.3149 L 107.9143 0.2324 L 107.8767 -0.1804 L 108.1555 -0.2381 L 108.6103 -0.5323 L 108.9816 -1.0060 L 109.2632 -1.6510 L 109.4501 -2.4563 L 109.5393 -3.4081 L 109.5292 -4.4902 L 109.4927 -4.8888 L 109.7959 -4.9516 L 110.2504 -5.2459 L 110.6214 -5.7195 L 110.9026 -6.3644 L 111.0892 -7.1696 L 111.1780 -8.1211 L 111.1675 -9.2029 L 111.1323 -9.5862 L 111.4620 -9.6546 L 111.9164 -9.9489 L 112.2872 -10.4226 L 112.5682 -11.0674 L 112.7545 -11.8724 L 112.8431 -12.8237 L 112.8323 -13.9052 L 112.7985 -14.2716 L 113.1575 -14.3461 L 113.6117 -14.6405 L 113.9824 -15.1141 L 114.2632 -15.7589 L 114.4494 -16.5638 L 114.5378 -17.5150 L 114.5268 -18.5963 L 114.4948 -18.9434 L 114.8858 -19.0246 L 115.3400 -19.3190 L 115.7107 -19.7926 L 115.9915 -20.4373 L 116.1776 -21.2422 L 116.2660 -22.1934 L 116.2549 -23.2747 L 116.2250 -23.5991 L 116.6513 -23.6876 L 117.1056 -23.9820 L 117.4763 -24.4556 L 117.7572 -25.1003 L 117.9434 -25.9053 L 118.0318 -26.8565 L 118.0208 -27.9379 L 117.9934 -28.2349 L 118.4588 -28.3314 L 118.9131 -28.6257 L 119.2840 -29.0993 L 119.5651 -29.7442 L 119.7515 -30.5492 L 119.8400 -31.5006 L 119.8293 -32.5821 L 119.8048 -32.8477 L 120.3146 -32.9533 L 120.7691 -33.2476 L 121.1403 -33.7212 L 121.4216 -34.3662 L 121.6083 -35.1713 L 121.6972 -36.1230 L 121.6867 -37.2048 L 121.6646 -37.4456 L 121.6966 -37.4415 L 122.2271 -37.5511 L 122.6820 -37.8453 L 123.0534 -38.3190 L 123.3351 -38.9640 L 123.5222 -39.7694 L 123.6116 -40.7214 L 123.6016 -41.8036 L 123.5816 -42.0217 L 123.6750 -42.0097 L 124.2058 -42.1191 L 124.6610 -42.4132 L 125.0329 -42.8869 L 125.3151 -43.5321 L 125.5027 -44.3378 L 125.5926 -45.2902 L 125.5832 -46.3730 L 125.5660 -46.5619 L 125.7310 -46.5405 L 126.2622 -46.6496 L 126.7180 -46.9435 L 127.0904 -47.4173 L 127.3732 -48.0627 L 127.5615 -48.8688 L 127.6520 -49.8217 L 127.6434 -50.9051 L 127.6297 -51.0567 L 127.8802 -51.0240 L 128.4119 -51.1327 L 128.8682 -51.4265 L 129.2412 -51.9003 L 129.5247 -52.5460 L 129.7138 -53.3525 L 129.8052 -54.3060 L 129.7974 -55.3903 L 129.7878 -55.4982 L 130.1452 -55.4512 L 130.6774 -55.5596 L 131.1344 -55.8532 L 131.5082 -56.3270 L 131.7926 -56.9730 L 131.9825 -57.7800 L 132.0749 -58.7342 L 132.0681 -59.8194 L 132.0642 -59.8630 L 132.5520 -59.7983 L 133.0849 -59.9063 L 133.5426 -60.1997 L 133.9173 -60.6736 L 134.2026 -61.3198 L 134.3936 -62.1274 L 134.4871 -63.0825 L 134.4816 -64.1400 L 134.5408 -64.1160 L 135.1403 -64.0357 L 135.6739 -64.1431 L 136.1324 -64.4363 L 136.5081 -64.9102 L 136.7945 -65.5569 L 136.9868 -66.3651 L 137.0815 -67.3211 L 137.0776 -68.3149 L 137.3687 -68.1960 L 137.9688 -68.1148 L 138.5032 -68.2216 L 138.9627 -68.5145 L 139.3396 -68.9885 L 139.6272 -69.6356 L 139.8208 -70.4445 L 139.9170 -71.4016 L 139.9147 -72.2754 L 140.5232 -72.0258 L 141.1240 -71.9436 L 141.6593 -72.0497 L 142.1199 -72.3423 L 142.4979 -72.8164 L 142.7870 -73.4639 L 142.9821 -74.2737 L 143.0798 -75.2319 L 143.0791 -75.9492 L 143.4763 -75.6921 L 144.1329 -75.4214 L 144.7345 -75.3381 L 145.2707 -75.4435 L 145.7326 -75.7357 L 146.1120 -76.2099 L 146.4026 -76.8579 L 146.5993 -77.6686 L 146.6989 -78.6281 L 146.6991 -78.9782 L 147.0004 -78.7186 L 147.7010 -78.2633 L 148.3582 -77.9910 L 148.9606 -77.9064 L 149.4980 -78.0110 L 149.9611 -78.3029 L 150.3421 -78.7771 L 150.6343 -79.4257 L 150.8329 -80.2373 L 150.8715 -80.6025 L 151.0918 -80.3684 L 151.8240 -79.7351 L 152.5250 -79.2775 L 153.1828 -79.0034 L 153.7862 -78.9174 L 154.3247 -79.0211 L 154.7893 -79.3126 L 155.1719 -79.7869 L 155.2674 -79.9977 L 155.9137 -79.3078 L 156.6459 -78.6717 L 157.3473 -78.2116 L 158.0058 -77.9355 L 158.6102 -77.8480 L 159.0397 -77.9297 L 159.3826 -77.4954 L 160.1329 -76.6906 L 160.8652 -76.0513 L 161.5670 -75.5885 L 161.9494 -75.4271 L 162.2286 -75.0170 L 162.9833 -74.0562 L 163.7332 -73.2475 L 164.3608 -72.6966 L 164.6261 -72.2501 L 165.3714 -71.1486 L 166.1253 -70.1832 L 166.5044 -69.7720 L 166.7183 -69.3616 L 167.4405 -68.1374 L 168.1844 -67.0306 L 168.5346 -66.5793 L 168.6053 -66.4244 L 169.2911 -65.0976 L 170.0114 -63.8674 L 170.5288 -63.0921 L 170.9962 -62.0586 L 171.6793 -60.7251 L 172.3975 -59.4884 L 172.4738 -59.3731 L 172.6090 -59.0291 L 173.2422 -57.6144 L 173.9226 -56.2738 L 174.3634 -55.5080 L 174.7397 -54.5381 L 175.3694 -53.1156 L 176.0467 -51.7673 L 176.2056 -51.4886 L 176.2075 -51.4826 L 176.7745 -50.0021 L 177.4003 -48.5713 L 178.0633 -47.2368 L 178.1665 -46.9202 L 178.7287 -45.4308 L 179.3503 -43.9910 L 179.8531 -42.9665 L 180.0567 -42.3309 L 180.6138 -40.8320 L 181.2307 -39.3827 L 181.6137 -38.5921 L 181.8876 -37.7205 L 182.4390 -36.2114 L 183.0508 -34.7518 L 183.3475 -34.1308 L 183.6674 -33.0913 L 184.2126 -31.5713 L 184.8188 -30.1007 L 185.0569 -29.5946 L 185.4024 -28.4462 L 185.9409 -26.9145 L 186.5410 -25.4320 L 186.7437 -24.9938 L 187.0972 -23.7890 L 187.6283 -22.2447 L 188.2217 -20.7495 L 188.4094 -20.3364 L 188.7559 -19.1223 L 189.2788 -17.5645 L 189.8648 -16.0557 L 190.0552 -15.6283 L 190.3820 -14.4479 L 190.8960 -12.8756 L 191.4739 -11.3521 L 191.6825 -10.8736 L 191.9788 -9.7670 L 192.4829 -8.1791 L 193.0517 -6.6398 L 193.2924 -6.0749 L 193.5489 -5.0801 L 194.0421 -3.4755 L 194.6009 -1.9193 L 194.8857 -1.2334 L 195.0947 -0.3877 L 195.5758 1.2349 L 195.7910 1.8534 L 195.9552 2.4124 L 196.0110 2.5744 L 196.0502 2.7080 L 196.0703 2.7665 L 196.0749 2.7822 L 196.0800 2.7968 L 196.0811 2.8008 L 196.0824 2.8044 L 196.0827 2.8054 L 196.6267 4.3859 L 197.2285 5.8913 L 197.8777 7.2960 L 198.5632 8.5757 L 199.2733 9.7087 L 199.9958 10.6755 L 200.7183 11.4597 L 201.4286 12.0478 L 202.1144 12.4296 L 202.7640 12.5988 L 203.0971 12.5732 L 203.1071 12.5839 L 203.1911 12.6529 L 203.2937 12.7209 L 203.3286 12.7401 L 203.3063 12.7498 L 203.2392 12.7951 L 203.1933 12.8470 L 203.1695 12.9047 L 203.1681 12.9670 L 203.1893 13.0330 L 203.2325 13.1015 L 203.2972 13.1714 L 203.3821 13.2414 L 203.4859 13.3103 L 203.5103 13.3238 L 203.4967 13.3297 L 203.4287 13.3755 L 203.3822 13.4280 L 203.3579 13.4863 L 203.3565 13.5494 L 203.3778 13.6163 L 203.4215 13.6857 L 203.4868 13.7565 L 203.5727 13.8275 L 203.6776 13.8975 L 203.6971 13.9083 L 203.6884 13.9121 L 203.6194 13.9583 L 203.5722 14.0114 L 203.5476 14.0704 L 203.5460 14.1342 L 203.5675 14.2019 L 203.6116 14.2723 L 203.6776 14.3441 L 203.7645 14.4161 L 203.8706 14.4871 L 203.8809 14.4929 L 203.8800 14.4933 L 203.8102 14.5400 L 203.7623 14.5936 L 203.7373 14.6533 L 203.7356 14.7180 L 203.7572 14.7865 L 203.8017 14.8578 L 203.8685 14.9306 L 203.9562 15.0036 L 204.0635 15.0757 L 204.0648 15.0764 L 204.0005 15.1193 L 203.9519 15.1735 L 203.9265 15.2338 L 203.9247 15.2993 L 203.9465 15.3687 L 203.9914 15.4409 L 204.0589 15.5147 L 204.1476 15.5888 L 204.2545 15.6609 L 204.1924 15.7021 L 204.1432 15.7569 L 204.1174 15.8179 L 204.1154 15.8842 L 204.1373 15.9545 L 204.1827 16.0277 L 204.2509 16.1024 L 204.3405 16.1776 L 204.4405 16.2452 L 204.3840 16.2826 L 204.3341 16.3379 L 204.3079 16.3997 L 204.3058 16.4667 L 204.3278 16.5379 L 204.3737 16.6121 L 204.4425 16.6879 L 204.5331 16.7641 L 204.6271 16.8278 L 204.5755 16.8618 L 204.5249 16.9178 L 204.4983 16.9802 L 204.4961 17.0481 L 204.5183 17.1202 L 204.5645 17.1953 L 204.6340 17.2721 L 204.7256 17.3493 L 204.8170 17.4116 L 204.7684 17.4435 L 204.7171 17.5001 L 204.6900 17.5632 L 204.6877 17.6319 L 204.7100 17.7049 L 204.7567 17.7809 L 204.8269 17.8588 L 204.9195 17.9371 L 205.0037 17.9947 L 204.9608 18.0227 L 204.9088 18.0799 L 204.8813 18.1437 L 204.8788 18.2132 L 204.9013 18.2871 L 204.9484 18.3641 L 205.0193 18.4431 L 205.1128 18.5225 L 205.1924 18.5770 L 205.1537 18.6022 L 205.1010 18.6599 L 205.0731 18.7245 L 205.0704 18.7947 L 205.0931 18.8696 L 205.1406 18.9476 L 205.2122 19.0276 L 205.3067 19.1081 L 205.3822 19.1600 L 205.3474 19.1825 L 205.2940 19.2409 L 205.2657 19.3061 L 205.2628 19.3772 L 205.2856 19.4530 L 205.3336 19.5320 L 205.4059 19.6130 L 205.5014 19.6947 L 205.5695 19.7417 L 205.5407 19.7604 L 205.4866 19.8193 L 205.4578 19.8852 L 205.4548 19.9572 L 205.4777 20.0338 L 205.5261 20.1139 L 205.5991 20.1960 L 205.6956 20.2787 L 205.7605 20.3237 L 205.7351 20.3401 L 205.6803 20.3996 L 205.6510 20.4663 L 205.6479 20.5390 L 205.6709 20.6166 L 205.7197 20.6977 L 205.7935 20.7809 L 205.8909 20.8648 L 205.9501 20.9059 L 205.9298 20.9190 L 205.8741 20.9790 L 205.8444 21.0465 L 205.8411 21.1201 L 205.8643 21.1986 L 205.9136 21.2807 L 205.9880 21.3650 L 206.0865 21.4500 L 206.1383 21.4862 L 206.1240 21.4953 L 206.0676 21.5560 L 206.0374 21.6242 L 206.0340 21.6986 L 206.0573 21.7781 L 206.1069 21.8613 L 206.1821 21.9467 L 206.2815 22.0328 L 206.3316 22.0679 L 206.3200 22.0753 L 206.2628 22.1366 L 206.2322 22.2055 L 206.2286 22.2808 L 206.2520 22.3612 L 206.3021 22.4454 L 206.3780 22.5319 L 206.4784 22.6192 L 206.5209 22.6491 L 206.5155 22.6526 L 206.4576 22.7145 L 206.4265 22.7841 L 206.4227 22.8602 L 206.4463 22.9416 L 206.4968 23.0269 L 206.5734 23.1145 L 206.6748 23.2030 L 206.7118 23.2291 L 206.7114 23.2294 L 206.6528 23.2919 L 206.6212 23.3623 L 206.6172 23.4393 L 206.6409 23.5216 L 206.6918 23.6079 L 206.7691 23.6967 L 206.8715 23.7864 L 206.9056 23.8106 L 206.8489 23.8708 L 206.8168 23.9419 L 206.8127 24.0197 L 206.8365 24.1031 L 206.8878 24.1905 L 206.9659 24.2804 L 207.0693 24.3713 L 207.0973 24.3912 L 207.0446 24.4469 L 207.0121 24.5187 L 207.0077 24.5975 L 207.0316 24.6818 L 207.0834 24.7703 L 207.1622 24.8613 L 207.2666 24.9534 L 207.2920 24.9716 L 207.2415 25.0249 L 207.2085 25.0975 L 207.2039 25.1771 L 207.2280 25.2624 L 207.2802 25.3519 L 207.3597 25.4442 L 207.4651 25.5375 L 207.4858 25.5524 L 207.4387 25.6019 L 207.4051 25.6752 L 207.4004 25.7558 L 207.4245 25.8421 L 207.4771 25.9327 L 207.5573 26.0261 L 207.6637 26.1207 L 207.6788 26.1315 L 207.6356 26.1768 L 207.6015 26.2509 L 207.5966 26.3323 L 207.6208 26.4196 L 207.6738 26.5114 L 207.7548 26.6060 L 207.8622 26.7018 L 207.8756 26.7115 L 207.8342 26.7547 L 207.7996 26.8296 L 207.7944 26.9119 L 207.8188 27.0002 L 207.8722 27.0931 L 207.9539 27.1888 L 208.0623 27.2859 L 208.0695 27.2911 L 208.0323 27.3298 L 207.9972 27.4054 L 207.9918 27.4886 L 208.0162 27.5779 L 208.0701 27.6719 L 208.1525 27.7689 L 208.2619 27.8673 L 208.2655 27.8698 L 208.2312 27.9054 L 208.1955 27.9817 L 208.1900 28.0658 L 208.2145 28.1562 L 208.2688 28.2513 L 208.3519 28.3496 L 208.4621 28.4489 L 208.4308 28.4812 L 208.3946 28.5583 L 208.3888 28.6433 L 208.4135 28.7348 L 208.4682 28.8310 L 208.5520 28.9305 L 208.6574 29.0259 L 208.6299 29.0541 L 208.5932 29.1320 L 208.5872 29.2179 L 208.6119 29.3104 L 208.6670 29.4078 L 208.7516 29.5085 L 208.8567 29.6041 L 208.8309 29.6304 L 208.7937 29.7091 L 208.7874 29.7960 L 208.8123 29.8895 L 208.8678 29.9881 L 208.9531 30.0900 L 209.0535 30.1817 L 209.0316 30.2040 L 208.9938 30.2835 L 208.9873 30.3713 L 209.0122 30.4658 L 209.0682 30.5656 L 209.1541 30.6688 L 209.2519 30.7583 L 209.2329 30.7776 L 209.1945 30.8578 L 209.1878 30.9465 L 209.2128 31.0422 L 209.2691 31.1431 L 209.3558 31.2476 L 209.4513 31.3354 L 209.4351 31.3518 L 209.3962 31.4328 L 209.3892 31.5224 L 209.4143 31.6192 L 209.4710 31.7213 L 209.5584 31.8270 L 209.6490 31.9106 L 209.6368 31.9229 L 209.5973 32.0047 L 209.5901 32.0953 L 209.6152 32.1931 L 209.6724 32.2964 L 209.7606 32.4035 L 209.8508 32.4871 L 209.8405 32.4974 L 209.8004 32.5800 L 209.7929 32.6715 L 209.8182 32.7704 L 209.8757 32.8749 L 209.9646 32.9833 L 210.0501 33.0628 L 210.0438 33.0690 L 210.0031 33.1525 L 209.9954 33.2449 L 210.0207 33.3449 L 210.0787 33.4506 L 210.1683 33.5603 L 210.2511 33.6377 L 210.2479 33.6409 L 210.2067 33.7251 L 210.1986 33.8185 L 210.2240 33.9196 L 210.2824 34.0265 L 210.3727 34.1376 L 210.4530 34.2129 L 210.4529 34.2130 L 210.4110 34.2980 L 210.4027 34.3924 L 210.4282 34.4946 L 210.4869 34.6028 L 210.5780 34.7152 L 210.6549 34.7876 L 210.6150 34.8680 L 210.6064 34.9634 L 210.6319 35.0667 L 210.6911 35.1762 L 210.7828 35.2899 L 210.8601 35.3629 L 210.8210 35.4414 L 210.8122 35.5377 L 210.8377 35.6421 L 210.8973 35.7529 L 210.9897 35.8680 L 211.0634 35.9379 L 211.0266 36.0114 L 211.0174 36.1088 L 211.0430 36.2143 L 211.1029 36.3263 L 211.1961 36.4428 L 211.2688 36.5121 L 211.2333 36.5826 L 211.2239 36.6809 L 211.2495 36.7876 L 211.3098 36.9009 L 211.4037 37.0188 L 211.4743 37.0863 L 211.4405 37.1530 L 211.4308 37.2523 L 211.4565 37.3601 L 211.5172 37.4747 L 211.6118 37.5940 L 211.6798 37.6592 L 211.6480 37.7218 L 211.6379 37.8220 L 211.6637 37.9310 L 211.7247 38.0469 L 211.8201 38.1676 L 211.8875 38.2326 L 211.8570 38.2923 L 211.8466 38.3936 L 211.8724 38.5038 L 211.9338 38.6209 L 212.0299 38.7431 L 212.0935 38.8047 L 212.0654 38.8594 L 212.0548 38.9617 L 212.0806 39.0731 L 212.1424 39.1915 L 212.2392 39.3151 L 212.3029 39.3772 L 212.2760 39.4295 L 212.2650 39.5328 L 212.2908 39.6453 L 212.3530 39.7651 L 212.4505 39.8901 L 212.5109 39.9492 L 212.4862 39.9966 L 212.4749 40.1010 L 212.5007 40.2147 L 212.5633 40.3358 L 212.6615 40.4623 L 212.7937 40.5920 L 212.9576 40.7228 L 213.1504 40.8522 L 213.1963 40.8787 L 213.1679 40.8881 L 213.0460 40.9552 L 212.9595 41.0368 L 212.9098 41.1316 L 212.8977 41.2379 L 212.9236 41.3540 L 212.9869 41.4779 L 213.0865 41.6074 L 213.2208 41.7403 L 213.3874 41.8744 L 213.5836 42.0073 L 213.6005 42.0171 L 213.4759 42.0849 L 213.3873 42.1678 L 213.3362 42.2642 L 213.3235 42.3727 L 213.3493 42.4912 L 213.4133 42.6178 L 213.5144 42.7503 L 213.6508 42.8865 L 213.8201 43.0239 L 214.0134 43.1561 L 213.9090 43.2123 L 213.8183 43.2964 L 213.7657 43.3946 L 213.7522 43.5051 L 213.7781 43.6261 L 213.8428 43.7555 L 213.9452 43.8911 L 214.0837 44.0306 L 214.2558 44.1715 L 214.4304 44.2921 L 214.3454 44.3374 L 214.2525 44.4228 L 214.1984 44.5226 L 214.1842 44.6353 L 214.2100 44.7587 L 214.2754 44.8910 L 214.3792 45.0297 L 214.5198 45.1725 L 214.6946 45.3170 L 214.8505 45.4257 L 214.7852 45.4602 L 214.6901 45.5468 L 214.6345 45.6483 L 214.6195 45.7631 L 214.6452 45.8891 L 214.7113 46.0242 L 214.8165 46.1661 L 214.9591 46.3123 L 215.1367 46.4604 L 215.2738 46.5569 L 215.2286 46.5805 L 215.1313 46.6683 L 215.0742 46.7716 L 215.0583 46.8885 L 215.0839 47.0171 L 215.1506 47.1551 L 215.2573 47.3002 L 215.4020 47.4499 L 215.5823 47.6017 L 215.7005 47.6857 L 215.6758 47.6984 L 215.5762 47.7874 L 215.5175 47.8924 L 215.5008 48.0115 L 215.5264 48.1426 L 215.5937 48.2836 L 215.7017 48.4320 L 215.8485 48.5853 L 216.0315 48.7409 L 216.1306 48.8120 L 216.1271 48.8138 L 216.0251 48.9040 L 215.9648 49.0107 L 215.9472 49.1320 L 215.9726 49.2657 L 216.0406 49.4097 L 216.1499 49.5615 L 216.2988 49.7184 L 216.4846 49.8778 L 216.5686 49.9387 L 216.4782 50.0180 L 216.4163 50.1264 L 216.3978 50.2499 L 216.4230 50.3863 L 216.4915 50.5334 L 216.6022 50.6885 L 216.7531 50.8491 L 216.9417 51.0124 L 217.0118 51.0638 L 216.9358 51.1298 L 216.8722 51.2399 L 216.8528 51.3656 L 216.8778 51.5047 L 216.9469 51.6549 L 217.0589 51.8135 L 217.2119 51.9778 L 217.4032 52.1451 L 217.4589 52.1863 L 217.3980 52.2387 L 217.3327 52.3505 L 217.3122 52.4785 L 217.3371 52.6203 L 217.4067 52.7736 L 217.5200 52.9357 L 217.6750 53.1038 L 217.8691 53.2752 L 217.9102 53.3059 L 217.8649 53.3444 L 217.7978 53.4580 L 217.7764 53.5883 L 217.8009 53.7328 L 217.8711 53.8893 L 217.9857 54.0549 L 218.1428 54.2270 L 218.3396 54.4024 L 218.3660 54.4223 L 218.3368 54.4469 L 218.2679 54.5623 L 218.2454 54.6948 L 218.2697 54.8421 L 218.3404 55.0018 L 218.4562 55.1711 L 218.6153 55.3471 L 218.8148 55.5268 L 218.8264 55.5356 L 218.8139 55.5460 L 218.7431 55.6632 L 218.7195 55.7980 L 218.7435 55.9481 L 218.8147 56.1111 L 218.9318 56.2840 L 219.0929 56.4640 L 219.2935 56.6465 L 219.2238 56.7606 L 219.1991 56.8977 L 219.2228 57.0507 L 219.2944 57.2170 L 219.4127 57.3936 L 219.5758 57.5777 L 219.7710 57.7571 L 219.7106 57.8549 L 219.6847 57.9943 L 219.7080 58.1502 L 219.7800 58.3198 L 219.8996 58.5003 L 220.0646 58.6885 L 220.2540 58.8643 L 220.2034 58.9454 L 220.1763 59.0872 L 220.1992 59.2459 L 220.2717 59.4190 L 220.3924 59.6033 L 220.5594 59.7957 L 220.7430 59.9679 L 220.7026 60.0318 L 220.6743 60.1760 L 220.6968 60.3377 L 220.7696 60.5142 L 220.8915 60.7024 L 221.0604 60.8991 L 221.2382 61.0676 L 221.2086 61.1139 L 221.1790 61.2605 L 221.2010 61.4251 L 221.2741 61.6051 L 221.3972 61.7973 L 221.5680 61.9984 L 221.7399 62.1630 L 221.7216 62.1913 L 221.6907 62.3403 L 221.7122 62.5080 L 221.7857 62.6915 L 221.9098 62.8877 L 222.0826 63.0932 L 222.2485 63.2539 L 222.2420 63.2637 L 222.2098 63.4151 L 222.2308 63.5858 L 222.3045 63.7729 L 222.4297 63.9732 L 222.6043 64.1832 L 222.7676 64.3429 L 222.7367 64.4844 L 222.7570 64.6581 L 222.8310 64.8489 L 222.9572 65.0533 L 223.1337 65.2679 L 223.2979 65.4304 L 223.2716 65.5477 L 223.2914 65.7246 L 223.3655 65.9190 L 223.4928 66.1276 L 223.6711 66.3469 L 223.8376 66.5135 L 223.8162 66.6066 L 223.8353 66.7865 L 223.9096 66.9847 L 224.0379 67.1976 L 224.2180 67.4216 L 224.3865 67.5920 L 224.3706 67.6597 L 224.3889 67.8428 L 224.4634 68.0447 L 224.5926 68.2619 L 224.7745 68.4907 L 224.9444 68.6645 L 224.9346 68.7052 L 224.9522 68.8915 L 225.0267 69.0972 L 225.1569 69.3188 L 225.3405 69.5526 L 225.5119 69.7298 L 225.5087 69.7425 L 225.5255 69.9320 L 225.6001 70.1415 L 225.7312 70.3676 L 225.9165 70.6063 L 226.0972 70.7953 L 226.1114 70.9664 L 226.1860 71.1799 L 226.3179 71.4105 L 226.5048 71.6542 L 226.6992 71.8599 L 226.7094 71.9923 L 226.7839 72.2097 L 226.9166 72.4448 L 227.1052 72.6937 L 227.3129 72.9161 L 227.3194 73.0071 L 227.3939 73.2286 L 227.5274 73.4683 L 227.7175 73.7224 L 227.9420 73.9655 L 227.9452 74.0145 L 228.0195 74.2399 L 228.1537 74.4844 L 228.3454 74.7437 L 228.5849 75.0062 L 228.5850 75.0091 L 228.6592 75.2387 L 228.7941 75.4879 L 228.9873 75.7525 L 229.2356 76.0280 L 229.2605 76.0515 L 229.3158 76.2261 L 229.4512 76.4801 L 229.6459 76.7502 L 229.8965 77.0316 L 229.9547 77.0871 L 229.9895 77.1993 L 230.1255 77.4582 L 230.3216 77.7338 L 230.5744 78.0213 L 230.6691 78.1126 L 230.6830 78.1585 L 230.8196 78.4224 L 231.0171 78.7035 L 231.2721 78.9971 L 231.4151 79.1368 L 231.5329 79.3679 L 231.7317 79.6547 L 231.9889 79.9545 L 232.2070 80.1703 L 232.2705 80.2967 L 232.4705 80.5893 L 232.7298 80.8954 L 233.0268 81.1929 L 233.0319 81.2033 L 233.2332 81.5016 L 233.4945 81.8141 L 233.8113 82.1355 L 233.9138 82.2262 L 234.0220 82.3888 L 234.2853 82.7079 L 234.6049 83.0363 L 234.8383 83.2455 L 234.8398 83.2477 L 235.1050 83.5733 L 235.4274 83.9088 L 235.8013 84.2484 L 236.2205 84.5864 L 236.5495 84.8241 L 236.5737 84.8620 L 236.8426 85.2012 L 237.1703 85.5512 L 237.5510 85.9062 L 237.9784 86.2600 L 238.4451 86.6066 L 238.9431 86.9402 L 239.0609 87.0113 L 239.0622 87.0127 L 239.4495 87.3836 L 239.8849 87.7539 L 240.3609 88.1173 L 240.8693 88.4676 L 241.4014 88.7989 L 241.9482 89.1054 L 242.3656 89.3145 L 242.4418 89.3743 L 242.9604 89.7421 L 243.5037 90.0906 L 244.0624 90.4138 L 244.6270 90.7061 L 245.1877 90.9627 L 245.7351 91.1791 L 246.2596 91.3515 L 246.3509 91.3748 L 246.9216 91.6804 L 247.4952 91.9524 L 248.0555 92.1828 L 248.5929 92.3677 L 249.0984 92.5039 L 249.5632 92.5892 L 249.9794 92.6219 L 250.2297 92.6079 L 250.5037 92.7251 L 251.0541 92.9230 L 251.5722 93.0704 L 252.0492 93.1648 L 252.4769 93.2044 L 252.8480 93.1888 L 253.1562 93.1180 L 253.3962 92.9934 L 253.4720 92.9137 L 253.5509 92.9433 L 254.0816 93.1024 L 254.5708 93.2064 L 255.0101 93.2534 L 255.3921 93.2427 L 255.7101 93.1744 L 255.9587 93.0497 L 256.1337 92.8708 L 256.2321 92.6406 L 256.2401 92.5301 L 256.5141 92.6165 L 257.0155 92.7306 L 257.4664 92.7855 L 257.8593 92.7801 L 258.1872 92.7146 L 258.4447 92.5900 L 258.6273 92.4086 L 258.7318 92.1735 L 258.7566 91.8885 L 258.7220 91.6827 L 258.7945 91.7067 L 259.3081 91.8315 L 259.7707 91.8946 L 260.1745 91.8949 L 260.5125 91.8325 L 260.7790 91.7084 L 260.9693 91.5247 L 261.0803 91.2846 L 261.1100 90.9921 L 261.0580 90.6523 L 261.0091 90.5122 L 261.4265 90.6201 L 261.9008 90.6920 L 262.3157 90.6985 L 262.6639 90.6395 L 262.9395 90.5160 L 263.1379 90.3302 L 263.2555 90.0852 L 263.2905 89.7852 L 263.2422 89.4353 L 263.1388 89.1240 L 263.3777 89.1897 L 263.8637 89.2708 L 264.2896 89.2838 L 264.6482 89.2286 L 264.9331 89.1060 L 265.1397 88.9182 L 265.2643 88.6684 L 265.3048 88.3608 L 265.2606 88.0008 L 265.1323 87.5944 L 265.1284 87.5861 L 265.1847 87.6025 L 265.6824 87.6933 L 266.1194 87.7133 L 266.4884 87.6622 L 266.7828 87.5408 L 266.9978 87.3512 L 267.1296 87.0967 L 267.1760 86.7816 L 267.1362 86.4113 L 267.0109 85.9921 L 266.9811 85.9264 L 267.3763 86.0048 L 267.8245 86.0322 L 268.2039 85.9856 L 268.5081 85.8657 L 268.7317 85.6745 L 268.8710 85.4154 L 268.9236 85.0927 L 268.8886 84.7121 L 268.7665 84.2799 L 268.7232 84.1802 L 268.9661 84.2324 L 269.4255 84.2677 L 269.8155 84.2259 L 270.1294 84.1077 L 270.3619 83.9152 L 270.5089 83.6516 L 270.5680 83.3214 L 270.5382 82.9304 L 270.4199 82.4851 L 270.3755 82.3784 L 270.4649 82.3991 L 270.9355 82.4427 L 271.3361 82.4061 L 271.6599 82.2900 L 271.9014 82.0963 L 272.0565 81.8284 L 272.1224 81.4907 L 272.0981 81.0892 L 271.9840 80.6306 L 271.9411 80.5227 L 272.3686 80.5692 L 272.7799 80.5383 L 273.1137 80.4246 L 273.3645 80.2299 L 273.5278 79.9578 L 273.6010 79.6127 L 273.5826 79.2007 L 273.4732 78.7287 L 273.4318 78.6198 L 273.7347 78.6577 L 274.1567 78.6328 L 274.5007 78.5217 L 274.7609 78.3264 L 274.9328 78.0502 L 275.0135 77.6978 L 275.0015 77.2752 L 274.8971 76.7897 L 274.8623 76.6933 L 275.0401 76.7185 L 275.4729 76.7000 L 275.8272 76.5920 L 276.0970 76.3963 L 276.2778 76.1161 L 276.3663 75.7564 L 276.3610 75.3233 L 276.2622 74.8242 L 276.2347 74.7439 L 276.2940 74.7533 L 276.7375 74.7417 L 277.1022 74.6371 L 277.3819 74.4411 L 277.5717 74.1573 L 277.6684 73.7904 L 277.6704 73.3467 L 277.5775 72.8339 L 277.5564 72.7686 L 277.9545 72.7648 L 278.3297 72.6639 L 278.6193 72.4680 L 278.8185 72.1807 L 278.9237 71.8067 L 278.9333 71.3525 L 278.8470 70.8259 L 278.8292 70.7680 L 279.1297 70.7701 L 279.5154 70.6733 L 279.8152 70.4778 L 280.0240 70.1871 L 280.1381 69.8062 L 280.1557 69.3415 L 280.0764 68.8010 L 280.0646 68.7601 L 280.2646 68.7649 L 280.6608 68.6725 L 280.9709 68.4777 L 281.1896 68.1839 L 281.3129 67.7961 L 281.3390 67.3210 L 281.2672 66.7667 L 281.2609 66.7431 L 281.3641 66.7474 L 281.7711 66.6597 L 282.0916 66.4660 L 282.3204 66.1693 L 282.4533 65.7749 L 282.4882 65.2894 L 282.4245 64.7212 L 282.4241 64.7195 L 282.4308 64.7199 L 282.8484 64.6375 L 283.1796 64.4450 L 283.4187 64.1457 L 283.5616 63.7447 L 283.6058 63.2490 L 283.5509 62.6691 L 283.8950 62.6074 L 284.2369 62.4165 L 284.4866 62.1148 L 284.6397 61.7075 L 284.6937 61.2016 L 284.6483 60.6134 L 284.9127 60.5707 L 285.2655 60.3818 L 285.5260 60.0780 L 285.6897 59.6646 L 285.7539 59.1486 L 285.7185 58.5549 L 285.9033 58.5284 L 286.2670 58.3417 L 286.5385 58.0361 L 286.7132 57.6168 L 286.7880 57.0909 L 286.7629 56.4942 L 286.8682 56.4810 L 287.2429 56.2970 L 287.5257 55.9898 L 287.7116 55.5648 L 287.7976 55.0291 L 287.7830 54.4316 L 287.8089 54.4288 L 288.1947 54.2478 L 288.4889 53.9394 L 288.6865 53.5089 L 288.7839 52.9637 L 288.7796 52.3131 L 288.6736 51.5683 L 288.4678 50.7419 L 288.2591 50.1246 L 288.5635 50.2411 L 289.1307 50.3455 L 289.6226 50.3104 L 290.0309 50.1364 L 290.3486 49.8264 L 290.5702 49.3858 L 290.6919 48.8221 L 290.7117 48.1449 L 290.6292 47.3659 L 290.4458 46.4983 L 290.3225 46.0851 L 290.8375 46.1993 L 291.3501 46.1813 L 291.7810 46.0158 L 292.1228 45.7055 L 292.3696 45.2559 L 292.5173 44.6746 L 292.5633 43.9715 L 292.5068 43.1587 L 292.3488 42.2501 L 292.2805 41.9871 L 292.4675 42.0357 L 293.0003 42.0364 L 293.4538 41.8808 L 293.8203 41.5717 L 294.0935 41.1143 L 294.2687 40.5164 L 294.3429 39.7884 L 294.3149 38.9426 L 294.1852 37.9935 L 294.1561 37.8618 L 294.5779 37.8777 L 295.0539 37.7336 L 295.4455 37.4270 L 295.7460 36.9631 L 295.9503 36.3500 L 296.0548 35.5980 L 296.0578 34.7201 L 295.9592 33.7313 L 295.9527 33.6958 L 296.0873 33.7058 L 296.5857 33.5746 L 297.0028 33.2720 L 297.3315 32.8031 L 297.5662 32.1759 L 297.7028 31.4013 L 297.7391 30.4924 L 297.6759 29.4881 L 298.0533 29.4033 L 298.4961 29.1061 L 298.8537 28.6336 L 299.1201 27.9939 L 299.2907 27.1980 L 299.3626 26.2594 L 299.3358 25.2415 L 299.4609 25.2181 L 299.9295 24.9278 L 300.3166 24.4532 L 300.6159 23.8025 L 300.8220 22.9868 L 300.9316 22.0201 L 300.9424 20.9430 L 301.3068 20.7350 L 301.7240 20.2599 L 302.0571 19.5998 L 302.3002 18.7660 L 302.4494 17.7728 L 302.5020 16.6372 L 302.5005 16.5943 L 302.6322 16.5253 L 303.0797 16.0512 L 303.4473 15.3834 L 303.7289 14.5333 L 303.9194 13.5154 L 304.0158 12.3472 L 304.0162 11.0486 L 303.9208 9.6419 L 303.7312 8.1511 L 303.4506 6.6018 L 303.0837 5.0205 L 302.6370 3.4341 L 302.1180 1.8699 L 301.5355 0.3546 L 300.8997 -1.0858 L 300.2213 -2.4267 L 299.5120 -3.6452 L 298.7838 -4.7205 L 298.0494 -5.6340 L 297.3211 -6.3702 L 296.6115 -6.9165 L 295.9328 -7.2636 L 295.2964 -7.4055 L 294.7134 -7.3397 L 294.1937 -7.0674 L 293.7462 -6.5933 L 293.3786 -5.9255 L 293.0971 -5.0754 L 292.9065 -4.0575 L 292.8102 -2.8893 L 292.8099 -2.1207 L 292.7992 -2.1191 L 292.3050 -1.8371 L 291.8878 -1.3620 L 291.5547 -0.7019 L 291.3116 0.1319 L 291.1624 1.1251 L 291.1098 2.2607 L 291.1381 3.0563 L 290.8915 3.1024 L 290.4230 3.3927 L 290.0358 3.8673 L 289.7365 4.5180 L 289.5304 5.3337 L 289.4208 6.3004 L 289.4098 7.4016 L 289.4683 8.2142 L 288.9887 8.3220 L 288.5459 8.6192 L 288.1882 9.0917 L 287.9219 9.7314 L 287.7513 10.5273 L 287.6794 11.4658 L 287.7075 12.5309 L 287.8042 13.4212 L 287.5867 13.4050 L 287.0883 13.5362 L 286.6712 13.8389 L 286.3425 14.3078 L 286.1078 14.9349 L 285.9712 15.7096 L 285.9349 16.6184 L 285.9995 17.6460 L 286.1408 18.6150 L 285.6634 18.5970 L 285.1873 18.7411 L 284.7957 19.0477 L 284.4952 19.5116 L 284.2909 20.1247 L 284.1864 20.8767 L 284.1834 21.7546 L 284.2821 22.7434 L 284.4806 23.8262 L 284.4822 23.8325 L 284.2680 23.7768 L 283.7352 23.7762 L 283.2817 23.9318 L 282.9153 24.2409 L 282.6421 24.6983 L 282.4668 25.2961 L 282.3926 26.0242 L 282.4206 26.8700 L 282.5503 27.8191 L 282.7796 28.8552 L 282.8323 29.0345 L 282.3102 28.9187 L 281.7976 28.9367 L 281.3668 29.1023 L 281.0250 29.4125 L 280.7781 29.8621 L 280.6304 30.4434 L 280.5844 31.1465 L 280.6409 31.9593 L 280.7989 32.8679 L 281.0558 33.8568 L 281.1867 34.2489 L 280.9041 34.1408 L 280.3369 34.0363 L 279.8449 34.0714 L 279.4366 34.2454 L 279.1190 34.5554 L 278.8974 34.9960 L 278.7756 35.5597 L 278.7559 36.2369 L 278.8383 37.0160 L 279.0217 37.8836 L 279.3028 38.8249 L 279.5318 39.4365 L 279.5011 39.4211 L 278.8855 39.2104 L 278.3376 39.1297 L 277.8667 39.1803 L 277.4808 39.3614 L 277.1866 39.6698 L 276.9891 40.1002 L 276.8916 40.6454 L 276.8959 41.2960 L 276.9548 41.7095 L 276.8659 41.7207 L 276.4911 41.9047 L 276.2084 42.2118 L 276.0224 42.6369 L 275.9365 43.1725 L 275.9521 43.8096 L 276.0191 44.2273 L 275.8552 44.2508 L 275.4915 44.4374 L 275.2200 44.7430 L 275.0454 45.1624 L 274.9705 45.6883 L 274.9967 46.3117 L 275.0717 46.7313 L 274.8330 46.7699 L 274.4802 46.9588 L 274.2198 47.2626 L 274.0560 47.6760 L 273.9918 48.1920 L 274.0282 48.8017 L 274.1107 49.2206 L 273.7972 49.2768 L 273.4553 49.4677 L 273.2057 49.7694 L 273.0525 50.1767 L 272.9985 50.6826 L 273.0445 51.2785 L 273.1338 51.6938 L 272.7458 51.7703 L 272.4147 51.9628 L 272.1756 52.2621 L 272.0327 52.6631 L 271.9885 53.1588 L 272.0436 53.7409 L 272.1422 54.1635 L 272.0835 54.1611 L 271.6765 54.2487 L 271.3560 54.4425 L 271.1273 54.7391 L 270.9943 55.1336 L 270.9594 55.6191 L 271.0231 56.1873 L 271.1321 56.6209 L 270.9831 56.6173 L 270.5868 56.7097 L 270.2767 56.9045 L 270.0581 57.1983 L 269.9347 57.5861 L 269.9087 58.0612 L 269.9804 58.6155 L 270.0991 59.0556 L 269.8596 59.0539 L 269.4739 59.1508 L 269.1741 59.3462 L 268.9653 59.6369 L 268.8512 60.0178 L 268.8336 60.4825 L 268.9129 61.0230 L 269.0413 61.4690 L 268.7073 61.4722 L 268.3321 61.5732 L 268.0425 61.7690 L 267.8433 62.0564 L 267.7381 62.4303 L 267.7285 62.8845 L 267.8148 63.4112 L 267.9503 63.8536 L 267.5244 63.8647 L 267.1597 63.9694 L 266.8800 64.1653 L 266.6902 64.4492 L 266.5935 64.8161 L 266.5916 65.2597 L 266.6844 65.7726 L 266.8312 66.2252 L 266.7373 66.2119 L 266.3045 66.2303 L 265.9502 66.3384 L 265.6803 66.5341 L 265.4996 66.8142 L 265.4111 67.1739 L 265.4163 67.6071 L 265.5152 68.1062 L 265.6717 68.5627 L 265.4653 68.5369 L 265.0433 68.5618 L 264.6992 68.6729 L 264.4390 68.8682 L 264.2671 69.1444 L 264.1865 69.4968 L 264.1985 69.9194 L 264.3029 70.4049 L 264.4678 70.8617 L 264.1425 70.8263 L 263.7312 70.8572 L 263.3974 70.9709 L 263.1466 71.1656 L 262.9833 71.4377 L 262.9101 71.7828 L 262.9285 72.1949 L 263.0379 72.6668 L 263.2063 73.1106 L 262.7621 73.0694 L 262.3615 73.1059 L 262.0376 73.2220 L 261.7961 73.4157 L 261.6411 73.6837 L 261.5751 74.0213 L 261.5994 74.4229 L 261.7135 74.8814 L 261.8860 75.3151 L 261.7730 75.2909 L 261.3136 75.2556 L 260.9237 75.2974 L 260.6098 75.4155 L 260.3773 75.6081 L 260.2303 75.8717 L 260.1711 76.2018 L 260.2010 76.5929 L 260.3193 77.0382 L 260.4914 77.4519 L 260.2308 77.4002 L 259.7826 77.3728 L 259.4032 77.4194 L 259.0991 77.5393 L 258.8754 77.7305 L 258.7361 77.9896 L 258.6835 78.3123 L 258.7186 78.6929 L 258.8406 79.1251 L 259.0001 79.4922 L 258.5924 79.4178 L 258.1553 79.3978 L 257.7864 79.4489 L 257.4919 79.5703 L 257.2770 79.7599 L 257.1451 80.0144 L 257.0987 80.3295 L 257.1386 80.6998 L 257.2639 81.1190 L 257.3996 81.4187 L 257.3228 81.3976 L 256.8368 81.3165 L 256.4108 81.3035 L 256.0523 81.3587 L 255.7674 81.4813 L 255.5608 81.6691 L 255.4362 81.9189 L 255.3956 82.2264 L 255.4399 82.5865 L 255.5682 82.9928 L 255.6587 83.1849 L 255.4183 83.1228 L 254.9440 83.0509 L 254.5292 83.0444 L 254.1810 83.1034 L 253.9053 83.2269 L 253.7070 83.4127 L 253.5893 83.6577 L 253.5543 83.9577 L 253.6027 84.3076 L 253.7334 84.7013 L 253.7405 84.7157 L 253.3533 84.6216 L 252.8906 84.5585 L 252.4868 84.5582 L 252.1488 84.6206 L 251.8824 84.7447 L 251.6920 84.9284 L 251.5810 85.1686 L 251.5513 85.4610 L 251.6034 85.8008 L 251.6459 85.9228 L 251.6217 85.9152 L 251.1203 85.8011 L 250.6694 85.7463 L 250.2765 85.7517 L 249.9486 85.8172 L 249.6911 85.9417 L 249.5085 86.1231 L 249.4040 86.3583 L 249.3792 86.6432 L 249.3890 86.7015 L 249.2304 86.6539 L 248.7412 86.5499 L 248.3018 86.5029 L 247.9199 86.5136 L 247.6019 86.5819 L 247.3533 86.7066 L 247.1782 86.8856 L 247.1403 86.9744 L 246.7675 86.8683 L 246.2905 86.7740 L 245.8628 86.7343 L 245.4917 86.7500 L 245.2325 86.8095 L 244.8509 86.6782 L 244.3454 86.5420 L 244.1521 86.5065 L 243.8028 86.3467 L 243.6437 86.2371 L 243.2023 85.9623 L 242.9995 85.7733 L 242.5722 85.4195 L 242.1055 85.0728 L 242.0174 85.0139 L 241.7827 84.7256 L 241.4603 84.3902 L 241.0863 84.0506 L 241.0553 84.0255 L 240.8695 83.8004 L 240.5499 83.4721 L 240.3139 83.2604 L 240.2469 83.1612 L 239.9856 82.8487 L 239.6688 82.5273 L 239.5581 82.4293 L 239.3874 82.1798 L 239.1282 81.8737 L 238.8142 81.5592 L 238.7867 81.5351 L 238.7508 81.4648 L 238.5520 81.1781 L 238.2949 80.8782 L 238.0268 80.6131 L 237.9386 80.4427 L 237.7411 80.1615 L 237.4861 79.8679 L 237.2845 79.6709 L 237.2819 79.6628 L 237.1459 79.4039 L 236.9498 79.1283 L 236.6970 78.8408 L 236.5324 78.6821 L 236.5087 78.6071 L 236.3732 78.3531 L 236.1785 78.0830 L 235.9280 77.8016 L 235.7973 77.6770 L 235.7528 77.5393 L 235.6179 77.2901 L 235.4247 77.0255 L 235.1764 76.7499 L 235.0784 76.6577 L 235.0140 76.4622 L 234.8798 76.2177 L 234.6881 75.9584 L 234.4421 75.6888 L 234.3655 75.6175 L 234.3640 75.5959 L 234.2895 75.3744 L 234.1561 75.1347 L 233.9659 74.8806 L 233.7223 74.6167 L 233.6603 74.5597 L 233.6555 74.4986 L 233.5810 74.2811 L 233.4483 74.0460 L 233.2597 73.7972 L 233.0185 73.5389 L 232.9677 73.4927 L 232.9593 73.3923 L 232.8848 73.1788 L 232.7529 72.9483 L 232.5659 72.7045 L 232.3271 72.4518 L 232.2878 72.4165 L 232.2756 72.2795 L 232.2010 72.0699 L 232.0700 71.8438 L 231.8847 71.6051 L 231.6484 71.3579 L 231.6208 71.3335 L 231.6046 71.1626 L 231.5301 70.9568 L 231.3999 70.7352 L 231.2164 70.5015 L 230.9825 70.2596 L 230.9586 70.2387 L 230.9625 70.2224 L 230.9441 70.0393 L 230.8696 69.8374 L 230.7404 69.6202 L 230.5585 69.3913 L 230.3272 69.1548 L 230.3027 69.1335 L 230.3126 69.0904 L 230.2935 68.9105 L 230.2192 68.7123 L 230.0909 68.4994 L 229.9108 68.2754 L 229.6820 68.0440 L 229.6574 68.0229 L 229.6727 67.9546 L 229.6530 67.7777 L 229.5789 67.5833 L 229.4516 67.3747 L 229.2733 67.1554 L 229.0470 66.9292 L 229.0227 66.9085 L 229.0429 66.8161 L 229.0225 66.6424 L 228.9486 66.4517 L 228.8223 66.2472 L 228.6458 66.0326 L 228.4222 65.8114 L 228.3967 65.7900 L 228.4215 65.6736 L 228.4005 65.5029 L 228.3268 65.3158 L 228.2016 65.1155 L 228.0270 64.9055 L 227.8059 64.6892 L 227.7792 64.6671 L 227.8082 64.5274 L 227.7867 64.3598 L 227.7133 64.1763 L 227.5891 63.9800 L 227.4164 63.7745 L 227.1980 63.5631 L 227.1655 63.5365 L 227.1731 63.5246 L 227.2027 63.3780 L 227.1807 63.2133 L 227.1075 63.0334 L 226.9845 62.8412 L 226.8137 62.6401 L 226.5979 62.4335 L 226.5571 62.4003 L 226.5763 62.3699 L 226.6046 62.2257 L 226.5822 62.0640 L 226.5094 61.8875 L 226.3874 61.6993 L 226.2185 61.5026 L 226.0055 61.3006 L 225.9563 61.2612 L 225.9866 61.2126 L 226.0137 61.0708 L 225.9908 60.9120 L 225.9184 60.7390 L 225.7976 60.5547 L 225.6306 60.3622 L 225.4203 60.1649 L 225.3628 60.1193 L 225.4038 60.0530 L 225.4296 59.9136 L 225.4063 59.7577 L 225.3343 59.5881 L 225.2147 59.4076 L 225.0497 59.2194 L 224.8420 59.0266 L 224.7763 58.9750 L 224.8274 58.8914 L 224.8521 58.7543 L 224.8284 58.6013 L 224.7568 58.4350 L 224.6385 58.2583 L 224.4754 58.0743 L 224.2704 57.8859 L 224.1968 57.8287 L 224.2575 57.7283 L 224.2811 57.5935 L 224.2571 57.4434 L 224.1859 57.2804 L 224.0688 57.1075 L 223.9077 56.9275 L 223.7055 56.7435 L 223.6231 56.6801 L 223.6246 56.6788 L 223.6935 56.5634 L 223.7160 56.4309 L 223.6917 56.2836 L 223.6210 56.1239 L 223.5051 55.9546 L 223.3461 55.7787 L 223.1466 55.5990 L 223.0502 55.5256 L 223.0681 55.5104 L 223.1352 55.3968 L 223.1566 55.2665 L 223.1321 55.1220 L 223.0619 54.9655 L 222.9473 54.7999 L 222.7902 54.6278 L 222.5934 54.4524 L 222.4833 54.3693 L 222.5169 54.3403 L 222.5823 54.2284 L 222.6027 54.1005 L 222.5779 53.9587 L 222.5082 53.8054 L 222.3949 53.6433 L 222.2399 53.4751 L 222.0459 53.3038 L 221.9220 53.2113 L 221.9710 53.1687 L 222.0346 53.0586 L 222.0540 52.9329 L 222.0290 52.7938 L 221.9599 52.6436 L 221.8479 52.4850 L 221.6949 52.3207 L 221.5036 52.1534 L 221.3661 52.0518 L 221.4300 51.9958 L 221.4919 51.8874 L 221.5105 51.7639 L 221.4852 51.6275 L 221.4167 51.4805 L 221.3060 51.3253 L 221.1551 51.1647 L 220.9665 51.0014 L 220.8160 50.8913 L 220.8941 50.8222 L 220.9544 50.7155 L 220.9720 50.5942 L 220.9466 50.4604 L 220.8786 50.3164 L 220.7693 50.1647 L 220.6205 50.0078 L 220.4346 49.8484 L 220.2708 49.7297 L 220.3628 49.6474 L 220.4215 49.5424 L 220.4382 49.4234 L 220.4127 49.2922 L 220.3454 49.1512 L 220.2374 49.0028 L 220.0906 48.8495 L 219.9075 48.6940 L 219.7279 48.5651 L 219.7387 48.5594 L 219.8361 48.4716 L 219.8932 48.3683 L 219.9090 48.2514 L 219.8834 48.1229 L 219.8167 47.9848 L 219.7101 47.8397 L 219.5653 47.6900 L 219.3850 47.5382 L 219.1874 47.3978 L 219.2185 47.3813 L 219.3136 47.2948 L 219.3691 47.1932 L 219.3842 47.0785 L 219.3584 46.9525 L 219.2924 46.8173 L 219.1872 46.6755 L 219.0445 46.5292 L 218.8669 46.3811 L 218.6574 46.2337 L 218.6509 46.2297 L 218.7024 46.2023 L 218.7953 46.1169 L 218.8493 46.0171 L 218.8635 45.9045 L 218.8377 45.7810 L 218.7724 45.6487 L 218.6685 45.5100 L 218.5280 45.3672 L 218.3531 45.2227 L 218.1470 45.0790 L 218.1175 45.0614 L 218.1902 45.0222 L 218.2809 44.9381 L 218.3335 44.8400 L 218.3469 44.7294 L 218.3211 44.6084 L 218.2564 44.4791 L 218.1539 44.3435 L 218.0155 44.2040 L 217.8434 44.0631 L 217.6406 43.9231 L 217.5884 43.8920 L 217.6818 43.8412 L 217.7704 43.7583 L 217.8215 43.6618 L 217.8342 43.5534 L 217.8084 43.4349 L 217.7444 43.3083 L 217.6433 43.1758 L 217.5069 43.0396 L 217.3376 42.9021 L 217.1381 42.7657 L 217.0633 42.7217 L 217.1770 42.6592 L 217.2635 42.5775 L 217.3132 42.4827 L 217.3252 42.3764 L 217.2994 42.2603 L 217.2361 42.1364 L 217.1365 42.0069 L 217.0022 41.8740 L 216.8355 41.7400 L 216.6394 41.6071 L 216.5387 41.5484 L 216.5565 41.5424 L 216.6757 41.4761 L 216.7602 41.3958 L 216.8085 41.3026 L 216.8199 41.1983 L 216.7940 41.0846 L 216.7315 40.9634 L 216.6332 40.8369 L 216.5409 40.7463 L 216.5579 40.7133 L 216.5689 40.6100 L 216.5431 40.4975 L 216.4809 40.3777 L 216.3834 40.2527 L 216.2878 40.1593 L 216.3072 40.1215 L 216.3179 40.0192 L 216.2921 39.9079 L 216.2303 39.7894 L 216.1335 39.6658 L 216.0382 39.5731 L 216.0588 39.5329 L 216.0691 39.4316 L 216.0434 39.3214 L 215.9819 39.2043 L 215.8859 39.0821 L 215.7870 38.9863 L 215.8100 38.9411 L 215.8200 38.8408 L 215.7943 38.7318 L 215.7332 38.6160 L 215.6379 38.4953 L 215.5386 38.3995 L 215.5629 38.3514 L 215.5727 38.2522 L 215.5470 38.1443 L 215.4863 38.0298 L 215.3916 37.9105 L 215.2900 37.8128 L 215.3162 37.7605 L 215.3257 37.6622 L 215.3000 37.5555 L 215.2397 37.4422 L 215.1458 37.3243 L 215.0421 37.2251 L 215.0702 37.1690 L 215.0793 37.0717 L 215.0537 36.9661 L 214.9938 36.8542 L 214.9006 36.7376 L 214.7961 36.6381 L 214.8256 36.5789 L 214.8344 36.4826 L 214.8089 36.3782 L 214.7493 36.2675 L 214.6568 36.1523 L 214.5489 36.0499 L 214.5806 35.9859 L 214.5892 35.8905 L 214.5637 35.7872 L 214.5045 35.6777 L 214.4128 35.5640 L 214.3053 35.4624 L 214.3379 35.3964 L 214.3462 35.3020 L 214.3207 35.1998 L 214.2620 35.0916 L 214.1709 34.9792 L 214.0603 34.8750 L 214.0950 34.8043 L 214.1030 34.7109 L 214.0776 34.6098 L 214.0192 34.5028 L 213.9289 34.3918 L 213.8170 34.2868 L 213.8531 34.2128 L 213.8608 34.1203 L 213.8355 34.0203 L 213.7776 33.9146 L 213.6880 33.8049 L 213.5746 33.6990 L 213.6121 33.6217 L 213.6196 33.5302 L 213.5944 33.4313 L 213.5368 33.3268 L 213.4479 33.2184 L 213.3314 33.1100 L 213.3315 33.1100 L 213.3710 33.0281 L 213.3783 32.9376 L 213.3531 32.8398 L 213.2959 32.7365 L 213.2078 32.6294 L 213.0911 32.5212 L 213.0931 32.5192 L 213.1320 32.4381 L 213.1390 32.3485 L 213.1139 32.2518 L 213.0572 32.1497 L 212.9697 32.0439 L 212.8531 31.9363 L 212.8478 31.9323 L 212.8544 31.9256 L 212.8928 31.8453 L 212.8995 31.7566 L 212.8745 31.6610 L 212.8181 31.5601 L 212.7314 31.4556 L 212.6158 31.3493 L 212.6071 31.3428 L 212.6167 31.3329 L 212.6546 31.2535 L 212.6611 31.1657 L 212.6361 31.0711 L 212.5802 30.9714 L 212.4942 30.8682 L 212.3797 30.7632 L 212.3669 30.7538 L 212.3799 30.7405 L 212.4172 30.6618 L 212.4235 30.5750 L 212.3986 30.4815 L 212.3431 30.3829 L 212.2578 30.2809 L 212.1443 30.1774 L 212.1255 30.1634 L 212.1429 30.1456 L 212.1796 30.0676 L 212.1856 29.9817 L 212.1609 29.8893 L 212.1058 29.7919 L 212.0212 29.6912 L 211.9087 29.5889 L 211.8887 29.5742 L 211.9080 29.5543 L 211.9441 29.4772 L 211.9499 29.3922 L 211.9253 29.3008 L 211.8706 29.2045 L 211.7868 29.1051 L 211.6753 29.0041 L 211.6491 28.9849 L 211.6727 28.9605 L 211.7084 28.8841 L 211.7139 28.8000 L 211.6894 28.7096 L 211.6351 28.6145 L 211.5520 28.5163 L 211.4415 28.4166 L 211.4117 28.3948 L 211.4384 28.3670 L 211.4735 28.2914 L 211.4788 28.2082 L 211.4544 28.1189 L 211.4005 28.0249 L 211.3181 27.9279 L 211.2087 27.8295 L 211.1754 27.8053 L 211.2050 27.7744 L 211.2395 27.6996 L 211.2447 27.6173 L 211.2203 27.5290 L 211.1669 27.4361 L 211.0852 27.3403 L 210.9768 27.2432 L 210.9374 27.2147 L 210.9713 27.1792 L 211.0053 27.1051 L 211.0103 27.0237 L 210.9860 26.9364 L 210.9330 26.8447 L 210.8521 26.7501 L 210.7446 26.6542 L 210.7038 26.6247 L 210.7394 26.5872 L 210.7730 26.5139 L 210.7777 26.4334 L 210.7536 26.3471 L 210.7010 26.2564 L 210.6208 26.1630 L 210.5144 26.0685 L 210.4680 26.0351 L 210.5076 25.9934 L 210.5406 25.9208 L 210.5452 25.8412 L 210.5211 25.7559 L 210.4689 25.6663 L 210.3895 25.5741 L 210.2840 25.4807 L 210.2331 25.4443 L 210.2761 25.3988 L 210.3086 25.3270 L 210.3130 25.2482 L 210.2891 25.1639 L 210.2373 25.0755 L 210.1585 24.9844 L 210.0541 24.8923 L 210.0009 24.8542 L 210.0460 24.8064 L 210.0781 24.7353 L 210.0822 24.6574 L 210.0584 24.5740 L 210.0071 24.4867 L 209.9290 24.3968 L 209.8256 24.3059 L 209.7664 24.2638 L 209.8156 24.2114 L 209.8472 24.1410 L 209.8512 24.0640 L 209.8275 23.9816 L 209.7766 23.8953 L 209.6992 23.8066 L 209.5968 23.7169 L 209.5350 23.6731 L 209.5864 23.6180 L 209.6176 23.5484 L 209.6214 23.4723 L 209.5978 23.3909 L 209.5473 23.3056 L 209.4707 23.2180 L 209.3693 23.1295 L 209.3034 23.0830 L 209.3578 23.0245 L 209.3885 22.9556 L 209.3921 22.8803 L 209.3687 22.7999 L 209.3186 22.7157 L 209.2427 22.6292 L 209.1423 22.5419 L 209.0699 22.4909 L 209.0726 22.4892 L 209.1289 22.4285 L 209.1591 22.3604 L 209.1625 22.2859 L 209.1392 22.2064 L 209.0896 22.1233 L 209.0144 22.0379 L 208.9150 21.9518 L 208.8410 21.8999 L 208.8464 21.8964 L 208.9020 21.8363 L 208.9317 21.7689 L 208.9350 21.6953 L 208.9118 21.6168 L 208.8626 21.5347 L 208.7881 21.4504 L 208.6897 21.3654 L 208.6085 21.3087 L 208.6199 21.3014 L 208.6748 21.2419 L 208.7040 21.1752 L 208.7072 21.1024 L 208.6841 21.0248 L 208.6353 20.9437 L 208.5616 20.8605 L 208.4641 20.7767 L 208.3774 20.7163 L 208.3938 20.7057 L 208.4480 20.6468 L 208.4768 20.5808 L 208.4798 20.5089 L 208.4569 20.4322 L 208.4085 20.3521 L 208.3354 20.2700 L 208.2389 20.1873 L 208.1492 20.1251 L 208.1691 20.1121 L 208.2225 20.0538 L 208.2509 19.9886 L 208.2537 19.9175 L 208.2309 19.8417 L 208.1829 19.7627 L 208.1106 19.6816 L 208.0151 19.6000 L 207.9182 19.5331 L 207.9441 19.5163 L 207.9968 19.4585 L 208.0247 19.3940 L 208.0273 19.3237 L 208.0047 19.2489 L 207.9572 19.1708 L 207.8855 19.0909 L 207.7910 19.0104 L 207.6902 18.9410 L 207.7200 18.9215 L 207.7720 18.8644 L 207.7995 18.8005 L 207.8020 18.7311 L 207.7795 18.6572 L 207.7324 18.5801 L 207.6614 18.5012 L 207.5679 18.4218 L 207.4626 18.3495 L 207.4966 18.3272 L 207.5479 18.2706 L 207.5749 18.2075 L 207.5773 18.1388 L 207.5550 18.0659 L 207.5083 17.9898 L 207.4381 17.9119 L 207.3455 17.8336 L 207.2331 17.7568 L 207.2730 17.7306 L 207.3235 17.6746 L 207.3502 17.6122 L 207.3524 17.5443 L 207.3302 17.4722 L 207.2840 17.3971 L 207.2144 17.3203 L 207.1228 17.2431 L 207.0107 17.1667 L 207.0078 17.1651 L 207.0508 17.1366 L 207.1007 17.0813 L 207.1269 17.0195 L 207.1290 16.9525 L 207.1069 16.8813 L 207.0611 16.8071 L 206.9923 16.7313 L 206.9017 16.6552 L 206.7908 16.5799 L 206.7802 16.5739 L 206.8288 16.5417 L 206.8780 16.4869 L 206.9038 16.4258 L 206.9058 16.3596 L 206.8838 16.2893 L 206.8384 16.2161 L 206.7703 16.1413 L 206.6806 16.0662 L 206.5710 15.9920 L 206.5516 15.9811 L 206.6065 15.9446 L 206.6551 15.8903 L 206.6805 15.8300 L 206.6823 15.7645 L 206.6605 15.6951 L 206.6156 15.6229 L 206.5481 15.5491 L 206.4594 15.4750 L 206.3509 15.4019 L 206.3288 15.3895 L 206.3861 15.3512 L 206.4340 15.2976 L 206.4590 15.2379 L 206.4607 15.1732 L 206.4391 15.1047 L 206.3945 15.0334 L 206.3278 14.9606 L 206.2400 14.8875 L 206.1327 14.8155 L 206.1019 14.7983 L 206.1655 14.7556 L 206.2126 14.7026 L 206.2372 14.6436 L 206.2388 14.5797 L 206.2174 14.5120 L 206.1733 14.4417 L 206.1072 14.3699 L 206.0204 14.2978 L 205.9143 14.2268 L 205.8758 14.2054 L 205.8769 14.2050 L 205.9450 14.1592 L 205.9915 14.1067 L 206.0157 14.0484 L 206.0172 13.9852 L 205.9959 13.9184 L 205.9522 13.8490 L 205.8868 13.7782 L 205.8010 13.7071 L 205.6960 13.6372 L 205.6528 13.6132 L 205.6587 13.6106 L 205.7259 13.5653 L 205.7717 13.5133 L 205.7956 13.4557 L 205.7969 13.3934 L 205.7758 13.3274 L 205.7325 13.2589 L 205.6679 13.1890 L 205.5829 13.1190 L 205.4792 13.0501 L 205.4256 13.0205 L 205.4402 13.0141 L 205.5065 12.9692 L 205.5517 12.9179 L 205.5752 12.8609 L 205.5764 12.7993 L 205.5554 12.7342 L 205.5126 12.6666 L 205.4486 12.5977 L 205.3646 12.5287 L 205.2620 12.4607 L 205.2009 12.4271 L 205.2223 12.4177 L 205.2877 12.3732 L 205.3322 12.3224 L 205.3553 12.2661 L 205.3564 12.2053 L 205.3356 12.1410 L 205.2932 12.0743 L 205.2299 12.0064 L 205.1469 11.9384 L 205.0454 11.8714 L 204.9785 11.8347 L 205.0054 11.8229 L 205.0699 11.7789 L 205.1138 11.7287 L 205.1365 11.6730 L 205.1375 11.6130 L 205.1169 11.5495 L 205.0749 11.4837 L 205.0123 11.4167 L 204.9302 11.3496 L 204.8299 11.2837 L 204.7529 11.2416 L 204.7882 11.2260 L 204.8518 11.1824 L 204.8951 11.1328 L 204.9175 11.0778 L 204.9184 11.0185 L 204.8979 10.9558 L 204.8752 10.9204 L 205.1122 10.2813 L 205.3454 9.2408 L 205.4872 8.0422 L 205.5350 6.7059 L 205.4881 5.2549 L 205.3474 3.7139 L 205.1151 2.1094 L 204.7952 0.4687 L 204.3934 -1.1800 L 203.9163 -2.8085 L 203.9151 -2.8121 L 203.9148 -2.8131 L 203.9097 -2.8278 L 203.9086 -2.8317 L 203.8884 -2.8902 L 203.8838 -2.9059 L 203.3398 -4.4864 L 203.3299 -4.5110 L 203.2361 -4.7830 L 203.2155 -4.8344 L 202.8225 -5.9641 L 202.2428 -7.4006 L 202.2104 -7.5264 L 201.7172 -9.1310 L 201.1583 -10.6872 L 200.6467 -11.9197 L 200.5519 -12.2738 L 200.0478 -13.8617 L 199.4789 -15.4009 L 199.0200 -16.4782 L 198.8729 -17.0096 L 198.3589 -18.5819 L 197.7811 -20.1053 L 197.3582 -21.0750 L 197.1702 -21.7337 L 196.6472 -23.2916 L 196.0612 -24.8004 L 195.6561 -25.7095 L 195.4401 -26.4457 L 194.9090 -27.9901 L 194.3157 -29.4852 L 193.9081 -30.3820 L 193.6788 -31.1443 L 193.1403 -32.6760 L 192.5402 -34.1584 L 192.1077 -35.0932 L 191.8818 -35.8271 L 191.3366 -37.3471 L 190.7304 -38.8177 L 190.2474 -39.8443 L 190.0443 -40.4907 L 189.4928 -41.9998 L 188.8810 -43.4594 L 188.3178 -44.6384 L 188.1595 -45.1326 L 187.6024 -46.6315 L 186.9855 -48.0808 L 186.3194 -49.4557 L 186.3091 -49.4745 L 186.2190 -49.7508 L 185.6568 -51.2402 L 185.0352 -52.6799 L 184.3651 -54.0453 L 184.2315 -54.2847 L 184.2133 -54.3398 L 183.6463 -55.8203 L 183.0205 -57.2511 L 182.3466 -58.6077 L 182.0075 -59.2087 L 181.5591 -60.3642 L 180.9294 -61.7867 L 180.2521 -63.1350 L 179.6283 -64.2291 L 179.3797 -64.8622 L 178.7464 -66.2770 L 178.0661 -67.6176 L 177.3503 -68.8612 L 177.1259 -69.2028 L 177.0852 -69.3054 L 176.4486 -70.7129 L 175.7654 -72.0465 L 175.0473 -73.2831 L 174.3351 -74.3585 L 174.0099 -75.0710 L 173.3241 -76.3979 L 172.6038 -77.6281 L 171.8613 -78.7405 L 171.3413 -79.4154 L 170.7021 -80.6421 L 169.9799 -81.8663 L 169.2360 -82.9731 L 168.4830 -83.9435 L 167.9467 -84.5287 L 167.8406 -84.7307 L 167.1166 -85.9494 L 166.3713 -87.0509 L 165.6175 -88.0163 L 164.8679 -88.8292 L 164.1356 -89.4756 L 164.0974 -89.5011 L 163.9274 -89.7854 L 163.1809 -90.8820 L 162.4262 -91.8428 L 161.6763 -92.6515 L 160.9439 -93.2942 L 160.2417 -93.7599 L 159.7504 -93.9689 L 159.5357 -94.2824 L 158.7803 -95.2390 L 158.0300 -96.0439 L 157.2977 -96.6831 L 156.5959 -97.1459 L 155.9367 -97.4242 L 155.3312 -97.5134 L 154.8314 -97.4196 L 154.5192 -97.8130 L 153.7686 -98.6142 L 153.0364 -99.2504 L 152.3350 -99.7104 L 151.6765 -99.9866 L 151.0721 -100.0741 L 150.5323 -99.9714 L 150.0661 -99.6804 L 149.6817 -99.2059 L 149.5600 -98.9389 L 148.9082 -99.6316 L 148.1760 -100.2649 L 147.4750 -100.7225 L 146.8172 -100.9966 L 146.2138 -101.0826 L 145.6753 -100.9789 L 145.2107 -100.6874 L 144.8281 -100.2131 L 144.5340 -99.5640 L 144.3334 -98.7512 L 144.2871 -98.3214 L 144.0495 -98.5728 L 143.3173 -99.2034 L 142.6167 -99.6588 L 141.9595 -99.9311 L 141.3571 -100.0157 L 140.8197 -99.9111 L 140.3566 -99.6192 L 139.9757 -99.1449 L 139.6834 -98.4964 L 139.4848 -97.6847 L 139.3833 -96.7238 L 139.3823 -96.3135 L 139.0611 -96.5891 L 138.3608 -97.0424 L 137.7042 -97.3130 L 137.1027 -97.3963 L 136.5664 -97.2910 L 136.1046 -96.9987 L 135.7251 -96.5245 L 135.4346 -95.8765 L 135.2378 -95.0658 L 135.1383 -94.1063 L 135.1378 -93.3369 L 134.7234 -93.6041 L 134.0674 -93.8732 L 133.4666 -93.9554 L 132.9313 -93.8493 L 132.4707 -93.5567 L 132.0926 -93.0826 L 131.8036 -92.4351 L 131.6085 -91.6253 L 131.5107 -90.6671 L 131.5117 -89.7490 L 130.8885 -90.0036 L 130.2884 -90.0847 L 129.7540 -89.9779 L 129.2945 -89.6850 L 128.9177 -89.2110 L 128.6300 -88.5640 L 128.4364 -87.7550 L 128.3403 -86.7979 L 128.3430 -85.7640 L 128.0388 -85.8877 L 127.4393 -85.9680 L 126.9058 -85.8606 L 126.4472 -85.5674 L 126.0715 -85.0935 L 125.7851 -84.4468 L 125.5928 -83.6386 L 125.4981 -82.6826 L 125.5024 -81.5951 L 125.5030 -81.5888 L 125.4317 -81.6176 L 124.8328 -81.6971 L 124.3000 -81.5892 L 123.8423 -81.2957 L 123.4676 -80.8219 L 123.1822 -80.1756 L 122.9912 -79.3680 L 122.8977 -78.4129 L 122.9034 -77.3267 L 122.9097 -77.2546 L 122.4100 -77.3203 L 121.8778 -77.2120 L 121.4209 -76.9183 L 121.0470 -76.4445 L 120.7627 -75.7986 L 120.5727 -74.9916 L 120.4803 -74.0373 L 120.4871 -72.9521 L 120.4989 -72.8194 L 120.1312 -72.8674 L 119.5995 -72.7586 L 119.1432 -72.4648 L 118.7701 -71.9910 L 118.4866 -71.3454 L 118.2976 -70.5389 L 118.2062 -69.5854 L 118.2140 -68.5011 L 118.2294 -68.3282 L 117.9702 -68.3619 L 117.4390 -68.2528 L 116.9833 -67.9588 L 116.6108 -67.4851 L 116.3280 -66.8396 L 116.1398 -66.0336 L 116.0492 -65.0807 L 116.0579 -63.9972 L 116.0765 -63.7905 L 115.9042 -63.8127 L 115.3734 -63.7033 L 114.9182 -63.4092 L 114.5463 -62.9355 L 114.2641 -62.2903 L 114.0765 -61.4846 L 113.9866 -60.5322 L 113.9960 -59.4494 L 114.0171 -59.2168 L 113.9179 -59.2295 L 113.3874 -59.1199 L 112.9325 -58.8257 L 112.5611 -58.3520 L 112.2794 -57.7070 L 112.0923 -56.9016 L 112.0030 -55.9496 L 112.0130 -54.8673 L 112.0360 -54.6153 L 111.9995 -54.6200 L 111.4692 -54.5102 L 111.0146 -54.2159 L 110.6435 -53.7423 L 110.3622 -53.0974 L 110.1755 -52.2922 L 110.0866 -51.3405 L 110.0971 -50.2587 L 110.1221 -49.9861 L 109.6094 -49.8798 L 109.1550 -49.5854 L 108.7841 -49.1118 L 108.5031 -48.4670 L 108.3167 -47.6620 L 108.2281 -46.7106 L 108.2389 -45.6290 L 108.2666 -45.3278 L 107.7995 -45.2308 L 107.3452 -44.9364 L 106.9745 -44.4628 L 106.6936 -43.8180 L 106.5074 -43.0131 L 106.4190 -42.0618 L 106.4300 -40.9805 L 106.4600 -40.6545 L 106.0330 -40.5658 L 105.5788 -40.2715 L 105.2082 -39.7979 L 104.9273 -39.1531 L 104.7412 -38.3482 L 104.6529 -37.3970 L 104.6639 -36.3157 L 104.6958 -35.9697 L 104.3052 -35.8886 L 103.8510 -35.5942 L 103.4803 -35.1206 L 103.1995 -34.4758 L 103.0133 -33.6709 L 102.9249 -32.7197 L 102.9359 -31.6384 L 102.9694 -31.2756 L 102.6119 -31.2014 L 102.1576 -30.9071 L 101.7868 -30.4335 L 101.5058 -29.7886 L 101.3194 -28.9837 L 101.2309 -28.0323 L 101.2417 -26.9508 L 101.2765 -26.5736 L 100.9492 -26.5058 L 100.4947 -26.2115 L 100.1237 -25.7379 L 99.8425 -25.0930 L 99.6558 -24.2879 L 99.5670 -23.3363 L 99.5776 -22.2546 L 99.6134 -21.8646 L 99.3138 -21.8027 L 98.8591 -21.5085 L 98.4877 -21.0348 L 98.2062 -20.3898 L 98.0192 -19.5845 L 97.9300 -18.6326 L 97.9402 -17.5505 L 97.9770 -17.1488 L 97.7027 -17.0922 L 97.2476 -16.7981 L 96.8759 -16.3244 L 96.5939 -15.6793 L 96.4065 -14.8737 L 96.3168 -13.9215 L 96.3265 -12.8389 L 96.3641 -12.4260 L 96.1132 -12.3744 L 95.6577 -12.0804 L 95.2855 -11.6067 L 95.0030 -10.9614 L 94.8150 -10.1555 L 94.7248 -9.2028 L 94.7338 -8.1197 L 94.7716 -7.7016 L 94.5349 -7.6530 L 94.0789 -7.3591 L 93.7062 -6.8854 L 93.4231 -6.2398 L 93.2344 -5.4336 L 93.1435 -4.4804 L 93.1518 -3.3966 L 93.1882 -2.9917 L 92.9400 -2.9410 L 92.4835 -2.6473 L 92.1102 -2.1735 L 91.8264 -1.5277 L 91.6370 -0.7211 L 91.5452 0.2327 L 91.5527 1.3173 L 91.5874 1.7072 L 91.3242 1.7608 L 90.8670 2.0543 L 90.4930 2.5282 L 90.2084 3.1742 L 90.0181 3.9814 L 89.9255 4.9358 L 89.9320 6.0213 L 89.9650 6.3956 L 89.6845 6.4524 L 89.2266 6.7458 L 88.8518 7.2197 L 88.5663 7.8660 L 88.3751 8.6737 L 88.2815 9.6289 L 88.2869 10.7152 L 88.3181 11.0729 L 88.0178 11.1333 L 87.5592 11.4265 L 87.1835 11.9004 L 86.8971 12.5471 L 86.7048 13.3553 L 86.6100 14.3113 L 86.6144 15.3988 L 86.6436 15.7379 L 86.3207 15.8025 L 85.8613 16.0954 L 85.4846 16.5694 L 85.1971 17.2164 L 85.0037 18.0253 L 84.9078 18.9822 L 84.9108 20.0708 L 84.9378 20.3888 L 84.5893 20.4581 L 84.1290 20.7508 L 83.7513 21.2249 L 83.4626 21.8722 L 83.2680 22.6818 L 83.1707 23.6397 L 83.1724 24.7295 L 83.1969 25.0228 L 82.8191 25.0974 L 82.3578 25.3898 L 81.9790 25.8640 L 81.6892 26.5117 L 81.4932 27.3220 L 81.3944 28.2809 L 81.3946 29.3721 L 81.4163 29.6357 L 81.0053 29.7162 L 80.5430 30.0083 L 80.1630 30.4825 L 79.8718 31.1307 L 79.6743 31.9418 L 79.5741 32.9018 L 79.5727 33.9944 L 79.5914 34.2266 L 79.1397 34.3144 L 78.6763 34.6062 L 78.2951 35.0805 L 78.0024 35.7291 L 77.8035 36.5410 L 77.7016 37.5022 L 77.6985 38.5964 L 77.7137 38.7883 L 77.2157 38.8842 L 76.7511 39.1757 L 76.3685 39.6500 L 76.0744 40.2991 L 75.8738 41.1119 L 75.7701 42.0744 L 75.7652 43.1701 L 75.7771 43.3232 L 75.7608 43.3208 L 75.2213 43.4237 L 74.7555 43.7148 L 74.3714 44.1892 L 74.0757 44.8389 L 73.8733 45.6525 L 73.7678 46.6164 L 73.7610 47.7138 L 73.7702 47.8345 L 73.6845 47.8220 L 73.1439 47.9241 L 72.6767 48.2148 L 72.2912 48.6893 L 71.9938 49.3395 L 71.7896 50.1541 L 71.6821 51.1193 L 71.6732 52.2186 L 71.6793 52.3007 L 71.5074 52.2752 L 70.9656 52.3764 L 70.4971 52.6667 L 70.1099 53.1413 L 69.8107 53.7920 L 69.6046 54.6077 L 69.4951 55.5744 L 69.4840 56.6755 L 69.4861 56.7035 L 69.2085 56.6618 L 68.6655 56.7621 L 68.1956 57.0520 L 67.8067 57.5266 L 67.5057 58.1779 L 67.2975 58.9946 L 67.1858 59.9628 L 67.1729 61.0271 L 66.7545 60.9633 L 66.2103 61.0625 L 65.7388 61.3520 L 65.3482 61.8267 L 65.0451 62.4786 L 64.8348 63.2964 L 64.7208 64.2663 L 64.7070 65.2358 L 64.1018 65.1421 L 63.5562 65.2404 L 63.0831 65.5293 L 62.6907 66.0041 L 62.3856 66.6566 L 62.1730 67.4756 L 62.0565 68.4471 L 62.0418 69.3405 L 61.7945 69.2332 L 61.1847 69.1374 L 60.6378 69.2345 L 60.1631 69.5230 L 59.7687 69.9978 L 59.4614 70.6510 L 59.2464 71.4712 L 59.1274 72.4444 L 59.1133 73.1964 L 58.5134 72.9345 L 57.9026 72.8370 L 57.3542 72.9330 L 56.8777 73.2209 L 56.4813 73.6958 L 56.1717 74.3496 L 55.9543 75.1710 L 55.8327 76.1461 L 55.8210 76.6919 L 55.3864 76.3960 L 54.7227 76.1042 L 54.1107 76.0049 L 53.5608 76.0997 L 53.0826 76.3870 L 52.6840 76.8620 L 52.3721 77.5165 L 52.1520 78.3392 L 52.0276 79.3162 L 52.0266 79.3581 L 51.6492 79.0168 L 50.9448 78.5346 L 50.2803 78.2403 L 49.6671 78.1391 L 49.1157 78.2326 L 48.6356 78.5194 L 48.2348 78.9944 L 47.9204 79.6496 L 47.7422 80.3086 L 47.4727 80.0076 L 46.7404 79.3419 L 46.0357 78.8564 L 45.3704 78.5596 L 44.7560 78.4564 L 44.2030 78.5487 L 43.7208 78.8348 L 43.5033 79.0912 L 42.8244 78.3284 L 42.0922 77.6589 L 41.3871 77.1702 L 40.7210 76.8707 L 40.1053 76.7655 L 40.0060 76.7818 L 39.5784 76.2103 L 38.8324 75.3670 L 38.1004 74.6935 L 37.3948 74.2014 L 37.2429 74.1326 L 36.8995 73.5981 L 36.1534 72.5943 L 35.4079 71.7463 L 34.8843 71.2616 L 34.6151 70.7791 L 33.8826 69.6311 L 33.1376 68.6221 L 32.7335 68.1594 L 32.5968 67.8786 L 31.8916 66.6051 L 31.1609 65.4512 L 30.6837 64.8004 L 30.0924 63.5750 L 29.3895 62.2952 L 28.6606 61.1353 L 28.6597 61.1341 L 28.4183 60.5585 L 27.7563 59.1740 L 27.0559 57.8877 L 26.7625 57.4171 L 26.2148 56.0977 L 25.5559 54.7063 L 24.8581 53.4132 L 24.8430 53.3888 L 24.7240 53.0557 L 24.1191 51.5825 L 23.4635 50.1840 L 23.0004 49.3180 L 22.7147 48.5077 L 22.1136 47.0271 L 21.4614 45.6211 L 21.1954 45.1188 L 20.7808 43.9275 L 20.1838 42.4391 L 19.5351 41.0255 L 19.4219 40.8095 L 18.9103 39.3190 L 18.3175 37.8227 L 17.6726 36.4011 L 17.6595 36.3758 L 17.6221 36.2462 L 17.0966 34.6926 L 16.5083 33.1880 L 15.9372 31.9142 L 15.8505 31.6077 L 15.3301 30.0457 L 14.7465 28.5326 L 14.2440 27.3981 L 14.1206 26.9537 L 13.6056 25.3830 L 13.0268 23.8612 L 12.5752 22.8282 L 12.4279 22.2874 L 11.9185 20.7078 L 11.3449 19.1769 L 10.9289 18.2126 L 10.7683 17.6111 L 10.2648 16.0222 L 9.6966 14.4819 L 9.3033 13.5572 L 9.1383 12.9259 L 8.6410 11.3274 L 8.0785 9.7775 L 7.6967 8.8666 L 7.5346 8.2326 L 7.0438 6.6243 L 6.4872 5.0643 L 6.1072 4.1438 L 5.9543 3.5315 L 5.4704 1.9130 L 4.9200 0.3427 L 4.5335 -0.6089 L 4.3950 -1.1776 L 3.9182 -2.8066 L 3.3744 -4.3875 L 2.7728 -5.8934 L 2.1238 -7.2984 L 1.4385 -8.5785 L 0.7285 -9.7119 L 0.0061 -10.6791 L -0.7164 -11.4635 L -1.4266 -12.0518 L -2.1125 -12.4340 L -2.7622 -12.6033 L -3.3646 -12.5570 L -3.9095 -12.2959 L -4.3875 -11.8244 L -4.7904 -11.1505 L -5.1114 -10.2859 L -5.3448 -9.2453 L -5.4869 -8.0465 L -5.5350 -6.7100 Z"/>
  <g id="debug">
  <path fill="none" stroke="#ff3366" stroke-opacity="0.6" stroke-width="0.5" d=""/>
  <path fill="none" stroke="#ff9900" stroke-opacity="0.6" stroke-width="0.6" d=""/>
  <path fill="none" stroke="#222222" stroke-opacity="0.7" stroke-width="0.6" d=""/>
  
  <path fill="none" stroke="#8844ff" stroke-opacity="0.35" stroke-width="0.6" d="M -4.3950 1.1776 L -2.7803 5.9264 L -1.1464 10.6653 L 0.5093 15.3946 L 2.1897 20.1142 L 3.8982 24.8234 L 5.6382 29.5210 L 7.4140 34.2049 L 9.2301 38.8719 L 11.0917 43.5174 L 13.0086 48.1441 L 14.9873 52.7415 L 17.0399 57.3059 L 19.1811 61.8294 L 21.4286 66.2980 L 23.8099 70.6996 L 26.3580 75.0036 L 29.1256 79.1717 L 32.1868 83.1272 L 35.6554 86.7270 L 39.6898 89.6681 L 44.3787 91.3275 L 49.3265 90.9798 L 53.8050 88.8163 L 57.6304 85.6202 L 60.9445 81.8935 L 63.8920 77.8722 L 66.5738 73.6684 L 69.0554 69.3430 L 71.3804 64.9336 L 73.5824 60.4586 L 75.6822 55.9367 L 77.6978 51.3767 L 79.6417 46.7876 L 81.5259 42.1712 L 83.3572 37.5353 L 85.1436 32.8801 L 86.8901 28.2096 L 88.6011 23.5267 L 90.2804 18.8331 L 91.9316 14.1301 L 93.5578 9.4180 L 95.1617 4.6969 L 96.7480 -0.0325 L 98.3442 -4.7571 L 99.9609 -9.4731 L 101.6006 -14.1806 L 103.2663 -18.8792 L 104.9614 -23.5682 L 106.6897 -28.2460 L 108.4553 -32.9101 L 110.2631 -37.5569 L 112.1195 -42.1838 L 114.0327 -46.7885 L 116.0124 -51.3655 L 118.0701 -55.9071 L 120.2212 -60.4035 L 122.4884 -64.8458 L 124.8979 -69.2104 L 127.4892 -73.4674 L 130.3213 -77.5687 L 133.4803 -81.4221 L 137.0952 -84.8439 L 141.3263 -87.4423 L 146.1574 -88.4863 L 150.9875 -87.4529 L 155.2158 -84.8652 L 158.8261 -81.4541 L 161.9787 -77.6116 L 164.8024 -73.5216 L 167.3834 -69.2762 L 169.7806 -64.9236 L 172.0336 -60.4938 L 174.1684 -56.0105 L 176.2075 -51.4826 L 178.1665 -46.9202 L 180.0567 -42.3309 L 181.8876 -37.7205 L 183.6674 -33.0913 L 185.4024 -28.4462 L 187.0972 -23.7890 L 188.7559 -19.1223 L 190.3820 -14.4479 L 191.9788 -9.7670 L 193.5489 -5.0801 L 195.0947 -0.3877 L 195.4773 0.7850 L 195.5731 1.0794 L 195.5979 1.1537 L 195.6041 1.1722 L 195.6056 1.1769 L 199.9393 0.3463 L 199.9400 0.3486 L 199.9431 0.3579 L 199.9555 0.3950 L 200.0048 0.5442 L 200.1030 0.8431 L 200.2012 1.1415 L 200.2993 1.4394 L 200.3973 1.7368 L 200.4952 2.0338 L 200.5936 2.3319 L 200.6923 2.6307 L 200.7909 2.9290 L 200.8894 3.2269 L 200.9878 3.5242 L 201.0862 3.8211 L 201.1849 4.1190 L 201.2841 4.4177 L 201.3831 4.7160 L 201.4820 5.0137 L 201.5809 5.3109 L 201.7789 5.9055 L 201.9780 6.5022 L 202.1767 7.0969 L 202.3756 7.6914 L 202.5756 8.2878 L 202.7752 8.8821 L 202.9752 9.4767 L 203.1761 10.0726 L 203.3766 10.6665 L 203.5777 11.2612 L 203.7795 11.8567 L 203.9810 12.4500 L 204.1833 13.0449 L 204.3861 13.6398 L 204.5885 14.2324 L 204.7921 14.8277 L 204.9958 15.4219 L 205.1992 16.0138 L 205.4042 16.6095 L 205.6089 17.2029 L 205.8136 17.7953 L 206.0197 18.3902 L 206.2254 18.9828 L 206.4317 19.5757 L 206.6388 20.1698 L 206.8456 20.7613 L 207.0535 21.3550 L 207.2616 21.9480 L 207.4694 22.5386 L 207.6791 23.1329 L 207.8883 23.7247 L 208.0979 24.3162 L 208.3086 24.9093 L 208.5189 25.4998 L 208.7305 26.0923 L 208.9423 26.6840 L 209.1539 27.2737 L 209.3673 27.8666 L 209.5802 28.4568 L 209.7940 29.0477 L 210.0086 29.6389 L 210.2227 30.2275 L 210.4387 30.8196 L 210.6544 31.4091 L 210.8708 31.9988 L 211.0882 32.5892 L 211.3051 33.1768 L 211.5240 33.7679 L 211.7425 34.3564 L 211.9619 34.9451 L 212.1822 35.5344 L 212.4022 36.1209 L 212.6242 36.7110 L 212.8458 37.2979 L 213.0686 37.8861 L 213.2920 38.4736 L 213.5156 39.0598 L 213.7408 39.6479 L 213.9655 40.2328 L 214.1923 40.8207 L 214.4188 41.4060 L 214.8750 42.5778 L 215.3343 43.7480 L 215.7966 44.9166 L 216.2623 46.0838 L 216.7315 47.2493 L 217.2042 48.4133 L 217.6808 49.5756 L 218.1613 50.7363 L 218.6459 51.8952 L 219.1351 53.0527 L 219.6288 54.2082 L 220.1272 55.3614 L 220.6305 56.5123 L 221.1389 57.6608 L 221.6527 58.8066 L 222.1725 59.9503 L 222.6982 61.0911 L 223.2303 62.2287 L 223.7690 63.3630 L 224.3146 64.4936 L 224.8674 65.6201 L 225.4279 66.7421 L 225.9963 67.8591 L 226.5742 68.9726 L 227.1616 70.0813 L 227.7585 71.1835 L 228.3653 72.2785 L 228.9843 73.3684 L 229.6154 74.4507 L 230.2581 75.5231 L 230.9164 76.5889 L 231.5884 77.6431 L 232.2770 78.6870 L 232.9825 79.7177 L 233.7076 80.7354 L 234.4516 81.7354 L 235.2195 82.7197 L 236.0111 83.6827 L 236.8285 84.6215 L 237.6745 85.5329 L 239.4639 87.2548 L 241.4014 88.7989 L 243.5037 90.0906 L 245.7742 91.0310 L 248.1732 91.5073 L 250.6086 91.4454 L 252.9679 90.8616 L 255.1763 89.8501 L 257.2119 88.5219 L 259.0816 86.9699 L 260.8089 85.2567 L 262.4134 83.4273 L 263.9158 81.5089 L 265.3297 79.5245 L 266.6693 77.4859 L 267.9448 75.4036 L 269.1628 73.2881 L 270.3327 71.1411 L 271.4586 68.9695 L 272.5466 66.7742 L 273.5985 64.5626 L 274.6197 62.3330 L 275.6128 60.0878 L 276.5801 57.8289 L 277.5238 55.5577 L 278.4460 53.2753 L 279.3484 50.9824 L 280.2327 48.6795 L 281.9529 44.0449 L 283.6140 39.3815 L 285.2267 34.6864 L 286.7969 29.9640 L 288.3303 25.2175 L 289.8318 20.4489 L 291.3060 15.6599 L 292.7571 10.8513 L 294.1889 6.0238 L 295.6050 1.1776 L 304.3950 -1.1776 L 302.6370 3.4341 L 300.8547 8.0466 L 299.0465 12.6606 L 297.2102 17.2763 L 295.3437 21.8934 L 293.4443 26.5107 L 291.5088 31.1262 L 289.5337 35.7365 L 287.5147 40.3369 L 285.4429 44.9296 L 284.3857 47.2193 L 283.3125 49.5039 L 282.2219 51.7829 L 281.1122 54.0553 L 279.9815 56.3200 L 278.8279 58.5755 L 277.6491 60.8196 L 276.4427 63.0498 L 275.2032 65.2676 L 273.9292 67.4654 L 272.6146 69.6423 L 271.2552 71.7910 L 269.8418 73.9096 L 268.3679 75.9876 L 266.8233 78.0143 L 265.1938 79.9777 L 263.4659 81.8544 L 261.6188 83.6173 L 259.6330 85.2210 L 257.4850 86.6030 L 255.1679 87.6701 L 252.7034 88.3109 L 250.1665 88.4314 L 247.6696 88.0150 L 245.3047 87.1356 L 243.1116 85.9059 L 241.0867 84.4246 L 239.2132 82.7661 L 238.3264 81.8868 L 237.4691 80.9801 L 236.6384 80.0493 L 235.8321 79.0973 L 235.0506 78.1296 L 234.2889 77.1444 L 233.5474 76.1462 L 232.8236 75.1349 L 232.1171 74.1132 L 231.4253 73.0799 L 230.7496 72.0401 L 230.0864 70.9904 L 229.4359 69.9330 L 228.7983 68.8705 L 228.1714 67.8008 L 227.5546 66.7244 L 226.9481 65.6432 L 226.3516 64.5584 L 225.7639 63.4686 L 225.1843 62.3741 L 224.6127 61.2754 L 224.0486 60.1729 L 223.4918 59.0669 L 222.9418 57.9576 L 222.3985 56.8454 L 221.8617 55.7307 L 221.3309 54.6134 L 220.8058 53.4934 L 220.2861 52.3708 L 219.7717 51.2458 L 219.2623 50.1187 L 218.7579 48.9899 L 218.2583 47.8592 L 217.7631 46.7266 L 217.2722 45.5922 L 216.7854 44.4560 L 216.3025 43.3179 L 215.8234 42.1781 L 215.3479 41.0366 L 214.8759 39.8932 L 214.6416 39.3221 L 214.4072 38.7481 L 214.1750 38.1773 L 213.9424 37.6031 L 213.7115 37.0308 L 213.4809 36.4571 L 213.2509 35.8826 L 213.0224 35.3094 L 212.7934 34.7330 L 212.5667 34.1600 L 212.3397 33.5842 L 212.1137 33.0089 L 211.8886 32.4338 L 211.6633 31.8560 L 211.4400 31.2817 L 211.2164 30.7044 L 210.9939 30.1278 L 210.7722 29.5514 L 210.5501 28.9722 L 210.3302 28.3966 L 210.1099 27.8182 L 209.8904 27.2400 L 209.6718 26.6626 L 209.4529 26.0823 L 209.2358 25.5052 L 209.0186 24.9260 L 208.8018 24.3460 L 208.5863 23.7678 L 208.3705 23.1871 L 208.1558 22.6078 L 207.9416 22.0282 L 207.7271 21.4460 L 207.5145 20.8674 L 207.3016 20.2864 L 207.0890 19.7047 L 206.8777 19.1249 L 206.6660 18.5427 L 206.4553 17.9614 L 206.2452 17.3805 L 206.0348 16.7971 L 205.8259 16.2163 L 205.6170 15.6342 L 205.4078 15.0500 L 205.2004 14.4693 L 204.9928 13.8863 L 204.7852 13.3022 L 204.5789 12.7206 L 204.3724 12.1367 L 204.1663 11.5528 L 203.9612 10.9704 L 203.7558 10.3857 L 203.5511 9.8018 L 203.3471 9.2186 L 203.1428 8.6332 L 202.9394 8.0492 L 202.7365 7.4654 L 202.5333 6.8794 L 202.3311 6.2952 L 202.1292 5.7108 L 201.9271 5.1243 L 201.7260 4.5398 L 201.6256 4.2476 L 201.5252 3.9549 L 201.4247 3.6617 L 201.3241 3.3679 L 201.2238 3.0750 L 201.1240 2.7831 L 201.0242 2.4906 L 200.9242 2.1977 L 200.8242 1.9043 L 200.7241 1.6104 L 200.6244 1.3171 L 200.5251 1.0250 L 200.4257 0.7324 L 200.3263 0.4393 L 200.2268 0.1457 L 200.1272 -0.1483 L 200.0775 -0.2960 L 200.0651 -0.3331 L 200.0620 -0.3424 L 200.0613 -0.3447 L 204.3934 -1.1800 L 204.3918 -1.1846 L 204.3856 -1.2032 L 204.3609 -1.2774 L 204.2588 -1.5763 L 203.8514 -2.7669 L 202.2104 -7.5264 L 200.5519 -12.2738 L 198.8729 -17.0096 L 197.1702 -21.7337 L 195.4401 -26.4457 L 193.6788 -31.1443 L 191.8818 -35.8271 L 190.0443 -40.4907 L 188.1595 -45.1326 L 186.2190 -49.7508 L 184.2133 -54.3398 L 182.1304 -58.8919 L 179.9550 -63.3976 L 177.6642 -67.8479 L 175.2317 -72.2193 L 172.6180 -76.4820 L 169.7640 -80.5879 L 166.5833 -84.4449 L 162.9471 -87.8692 L 158.6948 -90.4691 L 153.8426 -91.5137 L 148.9914 -90.4797 L 144.7419 -87.8905 L 141.1102 -84.4769 L 137.9360 -80.6309 L 135.0904 -76.5363 L 132.4869 -72.2851 L 130.0668 -67.9257 L 127.7902 -63.4878 L 125.6312 -58.9952 L 123.5668 -54.4569 L 121.5818 -49.8824 L 119.6643 -45.2797 L 117.8050 -40.6542 L 115.9955 -36.0083 L 114.2291 -31.3445 L 112.5013 -26.6665 L 110.8077 -21.9768 L 109.1445 -17.2769 L 107.5085 -12.5677 L 105.8965 -7.8494 L 104.3059 -3.1221 L 102.7264 1.6104 L 101.1301 6.3352 L 99.5126 11.0515 L 97.8711 15.7592 L 96.2024 20.4579 L 94.5030 25.1465 L 92.7691 29.8231 L 90.9962 34.4850 L 89.1793 39.1280 L 87.3106 43.7521 L 85.3830 48.3494 L 83.3848 52.9181 L 81.3033 57.4493 L 79.1207 61.9341 L 76.8159 66.3540 L 74.3555 70.6903 L 71.6960 74.9058 L 68.7718 78.9393 L 65.4819 82.6788 L 61.6819 85.8885 L 57.2297 88.0662 L 52.3093 88.4288 L 47.6489 86.7850 L 43.6441 83.8603 L 40.2061 80.2778 L 37.1768 76.3403 L 34.4421 72.1910 L 31.9282 67.9068 L 29.5821 63.5260 L 27.3712 59.0790 L 25.2678 54.5783 L 23.2542 50.0376 L 21.3159 45.4650 L 19.4407 40.8644 L 17.6221 36.2462 L 15.8505 31.6077 L 14.1206 26.9537 L 12.4279 22.2874 L 10.7683 17.6111 L 9.1383 12.9259 L 7.5346 8.2326 L 5.9543 3.5315 L 4.3950 -1.1776 L -4.3950 1.1776 Z"/>
  
  
  
</g>
</svg>