<svg xmlns="http://www.w3.org/2000/svg" width="335.7759" height="250.4337" viewBox="-17.8279 -108.8339 335.7759 250.4337">
  <path fill="black" stroke="none" fill-rule="nonzero" d="M -7.8279 -1.0864 C 5.4238 36.6122 5.2658 40.8688 22.0496 73.4450 C 25.8625 80.8456 32.7821 90.3589 40.7276 93.9471 C 71.1066 107.6660 87.7113 56.8633 94.6147 38.9517 C 103.6096 15.6130 115.4949 -24.7932 127.4877 -50.9473 C 133.9251 -64.9859 145.4971 -87.2206 153.1761 -82.6485 C 155.2707 -81.4014 156.9376 -79.4947 158.4532 -77.5853 C 170.2769 -62.6894 177.5577 -41.4054 183.8355 -24.3387 C 191.1071 -4.5703 197.2373 15.6100 204.6849 35.3127 C 220.3410 76.7310 248.6842 131.5998 281.9365 67.8773 C 291.3315 49.8734 302.4695 18.4401 307.0142 3.5191 C 307.9479 0.4536 303.2939 -2.8830 301.3752 -3.5813 C 286.2300 -9.0937 284.1151 22.7273 277.4512 39.3296 C 274.0233 47.8699 270.3705 56.3585 265.9264 64.4170 C 262.8947 69.9144 259.0980 74.9863 255.1125 79.8370 C 248.1298 88.3355 241.5135 78.2475 237.5962 72.0223 C 233.2389 65.0978 229.7487 57.6457 226.3947 50.1834 C 215.8929 26.8180 200.7918 -20.9926 194.3937 -37.7059 C 188.2252 -53.8194 174.1113 -94.2658 150.4241 -96.5307 C 126.3365 -98.8339 110.4926 -52.1840 105.3853 -38.9517 C 97.8468 -19.4200 91.8349 0.6698 84.6808 20.3455 C 82.3794 26.6748 60.6676 85.9789 48.4622 83.3741 C 38.5511 81.2589 24.4176 45.6774 22.4982 40.8914 C 17.5068 28.4454 14.7813 -7.0210 -1.8631 -6.5764 C -4.9891 -6.4929 -7.5025 -4.1631 -7.8279 -1.0864 Z"/>
  <g id="debug">
  <path fill="none" stroke="#ff3366" stroke-opacity="0.6" stroke-width="0.5" d="M 0 0 L 0.6015 1.8000 L 1.2000 3.5817 L 1.7955 5.3453 L 2.3881 7.0907 L 2.9778 8.8180 L 3.5646 10.5270 L 4.1486 12.2179 L 4.7298 13.8906 L 5.3081 15.5451 L 5.8837 17.1814 L 6.4566 18.7995 L 7.0268 20.3995 L 7.5943 21.9813 L 8.1592 23.5449 L 8.7215 25.0903 L 9.2812 26.6175 L 9.8383 28.1266 L 10.3930 29.6174 L 10.9451 31.0901 L 11.4949 32.5446 L 12.0422 33.9810 L 12.5871 35.3991 L 13.1296 36.7991 L 13.6698 38.1809 L 14.2077 39.5445 L 14.7434 40.8899 L 15.2768 42.2171 L 15.8080 43.5262 L 16.3370 44.8171 L 16.8639 46.0897 L 17.3887 47.3443 L 17.9113 48.5806 L 18.4319 49.7987 L 18.9505 50.9987 L 19.4671 52.1805 L 19.9818 53.3441 L 20.4945 54.4895 L 21.0053 55.6168 L 21.5142 56.7258 L 22.0213 57.8167 L 22.5265 58.8894 L 23.0300 59.9439 L 23.5318 60.9803 L 24.0318 61.9984 L 24.5301 62.9984 L 25.0268 63.9802 L 25.5218 64.9438 L 26.0152 65.8892 L 26.5071 66.8165 L 26.9974 67.7256 L 27.4863 68.6164 L 27.9736 69.4892 L 28.4595 70.3437 L 28.9440 71.1800 L 29.4271 71.9982 L 29.9088 72.7982 L 30.3893 73.5800 L 30.8684 74.3436 L 31.3462 75.0890 L 31.8229 75.8163 L 32.2983 76.5253 L 32.7725 77.2162 L 33.2456 77.8889 L 33.7176 78.5435 L 34.1886 79.1798 L 34.6584 79.7980 L 35.1273 80.3980 L 35.5951 80.9798 L 36.0620 81.5434 L 36.5280 82.0888 L 36.9931 82.6161 L 37.4573 83.1252 L 37.9206 83.6161 L 38.3832 84.0888 L 38.8450 84.5433 L 39.3060 84.9797 L 39.7663 85.3978 L 40.2259 85.7978 L 40.6849 86.1796 L 41.1433 86.5433 L 41.6010 86.8887 L 42.0582 87.2160 L 42.5149 87.5251 L 42.9710 87.8160 L 43.4267 88.0887 L 43.8820 88.3432 L 44.3368 88.5796 L 44.7913 88.7978 L 45.2454 88.9978 L 45.6992 89.1796 L 46.1527 89.3432 L 46.6059 89.4886 L 47.0589 89.6159 L 47.5117 89.7250 L 47.9644 89.8159 L 48.4169 89.8886 L 48.8693 89.9432 L 49.3216 89.9795 L 49.7739 89.9977 L 50.2261 89.9977 L 50.6784 89.9795 L 51.1307 89.9432 L 51.5831 89.8886 L 52.0356 89.8159 L 52.4883 89.7250 L 52.9411 89.6159 L 53.3941 89.4886 L 53.8473 89.3432 L 54.3008 89.1796 L 54.7546 88.9978 L 55.2087 88.7978 L 55.6632 88.5796 L 56.1180 88.3432 L 56.5733 88.0887 L 57.0290 87.8160 L 57.4851 87.5251 L 57.9418 87.2160 L 58.3990 86.8887 L 58.8567 86.5433 L 59.3151 86.1796 L 59.7741 85.7978 L 60.2337 85.3978 L 60.6940 84.9797 L 61.1550 84.5433 L 61.6168 84.0888 L 62.0794 83.6161 L 62.5427 83.1252 L 63.0069 82.6161 L 63.4720 82.0888 L 63.9380 81.5434 L 64.4049 80.9798 L 64.8727 80.3980 L 65.3416 79.7980 L 65.8114 79.1798 L 66.2824 78.5435 L 66.7544 77.8889 L 67.2275 77.2162 L 67.7017 76.5253 L 68.1771 75.8163 L 68.6538 75.0890 L 69.1316 74.3436 L 69.6107 73.5800 L 70.0912 72.7982 L 70.5729 71.9982 L 71.0560 71.1800 L 71.5405 70.3437 L 72.0264 69.4892 L 72.5137 68.6164 L 73.0026 67.7256 L 73.4929 66.8165 L 73.9848 65.8892 L 74.4782 64.9438 L 74.9732 63.9802 L 75.4699 62.9984 L 75.9682 61.9984 L 76.4682 60.9803 L 76.9700 59.9439 L 77.4735 58.8894 L 77.9787 57.8167 L 78.4858 56.7258 L 78.9947 55.6168 L 79.5055 54.4895 L 80.0182 53.3441 L 80.5329 52.1805 L 81.0495 50.9987 L 81.5681 49.7987 L 82.0887 48.5806 L 82.6113 47.3443 L 83.1361 46.0897 L 83.6630 44.8171 L 84.1920 43.5262 L 84.7232 42.2171 L 85.2566 40.8899 L 85.7923 39.5445 L 86.3302 38.1809 L 86.8704 36.7991 L 87.4129 35.3991 L 87.9578 33.9810 L 88.5051 32.5446 L 89.0549 31.0901 L 89.6070 29.6174 L 90.1617 28.1266 L 90.7188 26.6175 L 91.2785 25.0903 L 91.8408 23.5449 L 92.4057 21.9813 L 92.9732 20.3995 L 93.5434 18.7995 L 94.1163 17.1814 L 94.6919 15.5451 L 95.2702 13.8906 L 95.8514 12.2179 L 96.4354 10.5270 L 97.0222 8.8180 L 97.6119 7.0907 L 98.2045 5.3453 L 98.8000 3.5817 L 99.3985 1.8000 L 100.0000 0 L 100.0000 0 L 100.6015 -1.8000 L 101.2000 -3.5817 L 101.7955 -5.3453 L 102.3881 -7.0907 L 102.9778 -8.8180 L 103.5646 -10.5270 L 104.1486 -12.2179 L 104.7298 -13.8906 L 105.3081 -15.5451 L 105.8837 -17.1814 L 106.4566 -18.7995 L 107.0268 -20.3995 L 107.5943 -21.9813 L 108.1592 -23.5449 L 108.7215 -25.0903 L 109.2812 -26.6175 L 109.8383 -28.1266 L 110.3930 -29.6174 L 110.9451 -31.0901 L 111.4949 -32.5446 L 112.0422 -33.9810 L 112.5871 -35.3991 L 113.1296 -36.7991 L 113.6698 -38.1809 L 114.2077 -39.5445 L 114.7434 -40.8899 L 115.2768 -42.2171 L 115.8080 -43.5262 L 116.3370 -44.8171 L 116.8639 -46.0897 L 117.3887 -47.3443 L 117.9113 -48.5806 L 118.4319 -49.7987 L 118.9505 -50.9987 L 119.4671 -52.1805 L 119.9818 -53.3441 L 120.4945 -54.4895 L 121.0053 -55.6168 L 121.5142 -56.7258 L 122.0213 -57.8167 L 122.5265 -58.8894 L 123.0300 -59.9439 L 123.5318 -60.9803 L 124.0318 -61.9984 L 124.5301 -62.9984 L 125.0268 -63.9802 L 125.5218 -64.9438 L 126.0152 -65.8892 L 126.5071 -66.8165 L 126.9974 -67.7256 L 127.4863 -68.6164 L 127.9736 -69.4892 L 128.4595 -70.3437 L 128.9440 -71.1800 L 129.4271 -71.9982 L 129.9088 -72.7982 L 130.3893 -73.5800 L 130.8684 -74.3436 L 131.3462 -75.0890 L 131.8229 -75.8163 L 132.2983 -76.5253 L 132.7725 -77.2162 L 133.2456 -77.8889 L 133.7176 -78.5435 L 134.1886 -79.1798 L 134.6584 -79.7980 L 135.1273 -80.3980 L 135.5951 -80.9798 L 136.0620 -81.5434 L 136.5280 -82.0888 L 136.9931 -82.6161 L 137.4573 -83.1252 L 137.9206 -83.6161 L 138.3832 -84.0888 L 138.8450 -84.5433 L 139.3060 -84.9797 L 139.7663 -85.3978 L 140.2259 -85.7978 L 140.6849 -86.1796 L 141.1433 -86.5433 L 141.6010 -86.8887 L 142.0582 -87.2160 L 142.5149 -87.5251 L 142.9710 -87.8160 L 143.4267 -88.0887 L 143.8820 -88.3432 L 144.3368 -88.5796 L 144.7913 -88.7978 L 145.2454 -88.9978 L 145.6992 -89.1796 L 146.1527 -89.3432 L 146.6059 -89.4886 L 147.0589 -89.6159 L 147.5117 -89.7250 L 147.9644 -89.8159 L 148.4169 -89.8886 L 148.8693 -89.9432 L 149.3216 -89.9795 L 149.7739 -89.9977 L 150.2261 -89.9977 L 150.6784 -89.9795 L 151.1307 -89.9432 L 151.5831 -89.8886 L 152.0356 -89.8159 L 152.4883 -89.7250 L 152.9411 -89.6159 L 153.3941 -89.4886 L 153.8473 -89.3432 L 154.3008 -89.1796 L 154.7546 -88.9978 L 155.2087 -88.7978 L 155.6632 -88.5796 L 156.1180 -88.3432 L 156.5733 -88.0887 L 157.0290 -87.8160 L 157.4851 -87.5251 L 157.9418 -87.2160 L 158.3990 -86.8887 L 158.8567 -86.5433 L 159.3151 -86.1796 L 159.7741 -85.7978 L 160.2337 -85.3978 L 160.6940 -84.9797 L 161.1550 -84.5433 L 161.6168 -84.0888 L 162.0794 -83.6161 L 162.5427 -83.1252 L 163.0069 -82.6161 L 163.4720 -82.0888 L 163.9380 -81.5434 L 164.4049 -80.9798 L 164.8727 -80.3980 L 165.3416 -79.7980 L 165.8114 -79.1798 L 166.2824 -78.5435 L 166.7544 -77.8889 L 167.2275 -77.2162 L 167.7017 -76.5253 L 168.1771 -75.8163 L 168.6538 -75.0890 L 169.1316 -74.3436 L 169.6107 -73.5800 L 170.0912 -72.7982 L 170.5729 -71.9982 L 171.0560 -71.1800 L 171.5405 -70.3437 L 172.0264 -69.4892 L 172.5137 -68.6164 L 173.0026 -67.7256 L 173.4929 -66.8165 L 173.9848 -65.8892 L 174.4782 -64.9438 L 174.9732 -63.9802 L 175.4699 -62.9984 L 175.9682 -61.9984 L 176.4682 -60.9803 L 176.9700 -59.9439 L 177.4735 -58.8894 L 177.9787 -57.8167 L 178.4858 -56.7258 L 178.9947 -55.6168 L 179.5055 -54.4895 L 180.0182 -53.3441 L 180.5329 -52.1805 L 181.0495 -50.9987 L 181.5681 -49.7987 L 182.0887 -48.5806 L 182.6113 -47.3443 L 183.1361 -46.0897 L 183.6630 -44.8171 L 184.1920 -43.5262 L 184.7232 -42.2171 L 185.2566 -40.8899 L 185.7923 -39.5445 L 186.3302 -38.1809 L 186.8704 -36.7991 L 187.4129 -35.3991 L 187.9578 -33.9810 L 188.5051 -32.5446 L 189.0549 -31.0901 L 189.6070 -29.6174 L 190.1617 -28.1266 L 190.7188 -26.6175 L 191.2785 -25.0903 L 191.8408 -23.5449 L 192.4057 -21.9813 L 192.9732 -20.3995 L 193.5434 -18.7995 L 194.1163 -17.1814 L 194.6919 -15.5451 L 195.2702 -13.8906 L 195.8514 -12.2179 L 196.4354 -10.5270 L 197.0222 -8.8180 L 197.6119 -7.0907 L 198.2045 -5.3453 L 198.8000 -3.5817 L 199.3985 -1.8000 L 200.0000 0 L 200.0000 0 L 200.6015 1.8000 L 201.2000 3.5817 L 201.7955 5.3453 L 202.3881 7.0907 L 202.9778 8.8180 L 203.5646 10.5270 L 204.1486 12.2179 L 204.7298 13.8906 L 205.3081 15.5451 L 205.8837 17.1814 L 206.4566 18.7995 L 207.0268 20.3995 L 207.5943 21.9813 L 208.1592 23.5449 L 208.7215 25.0903 L 209.2812 26.6175 L 209.8383 28.1266 L 210.3930 29.6174 L 210.9451 31.0901 L 211.4949 32.5446 L 212.0422 33.9810 L 212.5871 35.3991 L 213.1296 36.7991 L 213.6698 38.1809 L 214.2077 39.5445 L 214.7434 40.8899 L 215.2768 42.2171 L 215.8080 43.5262 L 216.3370 44.8171 L 216.8639 46.0897 L 217.3887 47.3443 L 217.9113 48.5806 L 218.4319 49.7987 L 218.9505 50.9987 L 219.4671 52.1805 L 219.9818 53.3441 L 220.4945 54.4895 L 221.0053 55.6168 L 221.5142 56.7258 L 222.0213 57.8167 L 222.5265 58.8894 L 223.0300 59.9439 L 223.5318 60.9803 L 224.0318 61.9984 L 224.5301 62.9984 L 225.0268 63.9802 L 225.5218 64.9438 L 226.0152 65.8892 L 226.5071 66.8165 L 226.9974 67.7256 L 227.4863 68.6164 L 227.9736 69.4892 L 228.4595 70.3437 L 228.9440 71.1800 L 229.4271 71.9982 L 229.9088 72.7982 L 230.3893 73.5800 L 230.8684 74.3436 L 231.3462 75.0890 L 231.8229 75.8163 L 232.2983 76.5253 L 232.7725 77.2162 L 233.2456 77.8889 L 233.7176 78.5435 L 234.1886 79.1798 L 234.6584 79.7980 L 235.1273 80.3980 L 235.5951 80.9798 L 236.0620 81.5434 L 236.5280 82.0888 L 236.9931 82.6161 L 237.4573 83.1252 L 237.9206 83.6161 L 238.3832 84.0888 L 238.8450 84.5433 L 239.3060 84.9797 L 239.7663 85.3978 L 240.2259 85.7978 L 240.6849 86.1796 L 241.1433 86.5433 L 241.6010 86.8887 L 242.0582 87.2160 L 242.5149 87.5251 L 242.9710 87.8160 L 243.4267 88.0887 L 243.8820 88.3432 L 244.3368 88.5796 L 244.7913 88.7978 L 245.2454 88.9978 L 245.6992 89.1796 L 246.1527 89.3432 L 246.6059 89.4886 L 247.0589 89.6159 L 247.5117 89.7250 L 247.9644 89.8159 L 248.4169 89.8886 L 248.8693 89.9432 L 249.3216 89.9795 L 249.7739 89.9977 L 250.2261 89.9977 L 250.6784 89.9795 L 251.1307 89.9432 L 251.5831 89.8886 L 252.0356 89.8159 L 252.4883 89.7250 L 252.9411 89.6159 L 253.3941 89.4886 L 253.8473 89.3432 L 254.3008 89.1796 L 254.7546 88.9978 L 255.2087 88.7978 L 255.6632 88.5796 L 256.1180 88.3432 L 256.5733 88.0887 L 257.0290 87.8160 L 257.4851 87.5251 L 257.9418 87.2160 L 258.3990 86.8887 L 258.8567 86.5433 L 259.3151 86.1796 L 259.7741 85.7978 L 260.2337 85.3978 L 260.6940 84.9797 L 261.1550 84.5433 L 261.6168 84.0888 L 262.0794 83.6161 L 262.5427 83.1252 L 263.0069 82.6161 L 263.4720 82.0888 L 263.9380 81.5434 L 264.4049 80.9798 L 264.8727 80.3980 L 265.3416 79.7980 L 265.8114 79.1798 L 266.2824 78.5435 L 266.7544 77.8889 L 267.2275 77.2162 L 267.7017 76.5253 L 268.1771 75.8163 L 268.6538 75.0890 L 269.1316 74.3436 L 269.6107 73.5800 L 270.0912 72.7982 L 270.5729 71.9982 L 271.0560 71.1800 L 271.5405 70.3437 L 272.0264 69.4892 L 272.5137 68.6164 L 273.0026 67.7256 L 273.4929 66.8165 L 273.9848 65.8892 L 274.4782 64.9438 L 274.9732 63.9802 L 275.4699 62.9984 L 275.9682 61.9984 L 276.4682 60.9803 L 276.9700 59.9439 L 277.4735 58.8894 L 277.9787 57.8167 L 278.4858 56.7258 L 278.9947 55.6168 L 279.5055 54.4895 L 280.0182 53.3441 L 280.5329 52.1805 L 281.0495 50.9987 L 281.5681 49.7987 L 282.0887 48.5806 L 282.6113 47.3443 L 283.1361 46.0897 L 283.6630 44.8171 L 284.1920 43.5262 L 284.7232 42.2171 L 285.2566 40.8899 L 285.7923 39.5445 L 286.3302 38.1809 L 286.8704 36.7991 L 287.4129 35.3991 L 287.9578 33.9810 L 288.5051 32.5446 L 289.0549 31.0901 L 289.6070 29.6174 L 290.1617 28.1266 L 290.7188 26.6175 L 291.2785 25.0903 L 291.8408 23.5449 L 292.4057 21.9813 L 292.9732 20.3995 L 293.5434 18.7995 L 294.1163 17.1814 L 294.6919 15.5451 L 295.2702 13.8906 L 295.8514 12.2179 L 296.4354 10.5270 L 297.0222 8.8180 L 297.6119 7.0907 L 298.2045 5.3453 L 298.8000 3.5817 L 299.3985 1.8000 L 300.0000 0"/>
  <path fill="none" stroke="#ff9900" stroke-opacity="0.6" stroke-width="0.6" d=""/>
  <path fill="none" stroke="#222222" stroke-opacity="0.7" stroke-width="0.6" d=""/>
  <path fill="none" stroke="#00aaff" stroke-opacity="0.6" stroke-width="0.6" d=""/>
  <circle cx="0" cy="0" r="0.6000" fill="#222222" fill-opacity="0.5"/>
    <circle cx="0.8137" cy="2.4327" r="0.6000" fill="#222222" fill-opacity="0.5"/>
    <circle cx="1.6318" cy="4.8615" r="0.6000" fill="#222222" fill-opacity="0.5"/>
    <circle cx="2.4553" cy="7.2878" r="0.6000" fill="#222222" fill-opacity="0.5"/>
    <circle cx="3.2852" cy="9.7143" r="0.6000" fill="#222222" fill-opacity="0.5"/>
    <circle cx="4.1201" cy="12.1356" r="0.6000" fill="#222222" fill-opacity="0.5"/>
    <circle cx="4.9627" cy="14.5582" r="0.6000" fill="#222222" fill-opacity="0.5"/>
    <circle cx="5.8111" cy="16.9756" r="0.6000" fill="#222222" fill-opacity="0.5"/>
    <circle cx="6.6675" cy="19.3926" r="0.6000" fill="#222222" fill-opacity="0.5"/>
    <circle cx="7.5307" cy="21.8047" r="0.6000" fill="#222222" fill-opacity="0.5"/>
    <circle cx="8.4029" cy="24.2162" r="0.6000" fill="#222222" fill-opacity="0.5"/>
    <circle cx="9.2826" cy="26.6213" r="0.6000" fill="#222222" fill-opacity="0.5"/>
    <circle cx="10.1729" cy="29.0271" r="0.6000" fill="#222222" fill-opacity="0.5"/>
    <circle cx="11.0720" cy="31.4268" r="0.6000" fill="#222222" fill-opacity="0.5"/>
    <circle cx="11.9815" cy="33.8224" r="0.6000" fill="#222222" fill-opacity="0.5"/>
    <circle cx="12.9029" cy="36.2155" r="0.6000" fill="#222222" fill-opacity="0.5"/>
    <circle cx="13.8357" cy="38.6026" r="0.6000" fill="#222222" fill-opacity="0.5"/>
    <circle cx="14.7809" cy="40.9836" r="0.6000" fill="#222222" fill-opacity="0.5"/>
    <circle cx="15.7406" cy="43.3608" r="0.6000" fill="#222222" fill-opacity="0.5"/>
    <circle cx="16.7153" cy="45.7322" r="0.6000" fill="#222222" fill-opacity="0.5"/>
    <circle cx="17.7060" cy="48.0964" r="0.6000" fill="#222222" fill-opacity="0.5"/>
    <circle cx="18.7140" cy="50.4531" r="0.6000" fill="#222222" fill-opacity="0.5"/>
    <circle cx="19.7410" cy="52.8015" r="0.6000" fill="#222222" fill-opacity="0.5"/>
    <circle cx="20.7887" cy="55.1406" r="0.6000" fill="#222222" fill-opacity="0.5"/>
    <circle cx="21.8590" cy="57.4693" r="0.6000" fill="#222222" fill-opacity="0.5"/>
    <circle cx="22.9541" cy="59.7858" r="0.6000" fill="#222222" fill-opacity="0.5"/>
    <circle cx="24.0769" cy="62.0895" r="0.6000" fill="#222222" fill-opacity="0.5"/>
    <circle cx="25.2310" cy="64.3796" r="0.6000" fill="#222222" fill-opacity="0.5"/>
    <circle cx="26.4183" cy="66.6502" r="0.6000" fill="#222222" fill-opacity="0.5"/>
    <circle cx="27.6445" cy="68.9016" r="0.6000" fill="#222222" fill-opacity="0.5"/>
    <circle cx="28.9131" cy="71.1272" r="0.6000" fill="#222222" fill-opacity="0.5"/>
    <circle cx="30.2322" cy="73.3262" r="0.6000" fill="#222222" fill-opacity="0.5"/>
    <circle cx="31.6073" cy="75.4894" r="0.6000" fill="#222222" fill-opacity="0.5"/>
    <circle cx="33.0476" cy="77.6094" r="0.6000" fill="#222222" fill-opacity="0.5"/>
    <circle cx="34.5638" cy="79.6749" r="0.6000" fill="#222222" fill-opacity="0.5"/>
    <circle cx="36.1704" cy="81.6718" r="0.6000" fill="#222222" fill-opacity="0.5"/>
    <circle cx="37.8832" cy="83.5771" r="0.6000" fill="#222222" fill-opacity="0.5"/>
    <circle cx="39.7238" cy="85.3600" r="0.6000" fill="#222222" fill-opacity="0.5"/>
    <circle cx="41.7156" cy="86.9724" r="0.6000" fill="#222222" fill-opacity="0.5"/>
    <circle cx="43.8790" cy="88.3416" r="0.6000" fill="#222222" fill-opacity="0.5"/>
    <circle cx="46.2249" cy="89.3676" r="0.6000" fill="#222222" fill-opacity="0.5"/>
    <circle cx="48.7213" cy="89.9273" r="0.6000" fill="#222222" fill-opacity="0.5"/>
    <circle cx="51.2787" cy="89.9273" r="0.6000" fill="#222222" fill-opacity="0.5"/>
    <circle cx="53.7751" cy="89.3676" r="0.6000" fill="#222222" fill-opacity="0.5"/>
    <circle cx="56.1210" cy="88.3416" r="0.6000" fill="#222222" fill-opacity="0.5"/>
    <circle cx="58.2844" cy="86.9724" r="0.6000" fill="#222222" fill-opacity="0.5"/>
    <circle cx="60.2762" cy="85.3600" r="0.6000" fill="#222222" fill-opacity="0.5"/>
    <circle cx="62.1168" cy="83.5771" r="0.6000" fill="#222222" fill-opacity="0.5"/>
    <circle cx="63.8296" cy="81.6718" r="0.6000" fill="#222222" fill-opacity="0.5"/>
    <circle cx="65.4362" cy="79.6749" r="0.6000" fill="#222222" fill-opacity="0.5"/>
    <circle cx="66.9524" cy="77.6094" r="0.6000" fill="#222222" fill-opacity="0.5"/>
    <circle cx="68.3927" cy="75.4894" r="0.6000" fill="#222222" fill-opacity="0.5"/>
    <circle cx="69.7678" cy="73.3262" r="0.6000" fill="#222222" fill-opacity="0.5"/>
    <circle cx="71.0869" cy="71.1272" r="0.6000" fill="#222222" fill-opacity="0.5"/>
    <circle cx="72.3555" cy="68.9016" r="0.6000" fill="#222222" fill-opacity="0.5"/>
    <circle cx="73.5817" cy="66.6502" r="0.6000" fill="#222222" fill-opacity="0.5"/>
    <circle cx="74.7690" cy="64.3796" r="0.6000" fill="#222222" fill-opacity="0.5"/>
    <circle cx="75.9231" cy="62.0895" r="0.6000" fill="#222222" fill-opacity="0.5"/>
    <circle cx="77.0459" cy="59.7858" r="0.6000" fill="#222222" fill-opacity="0.5"/>
    <circle cx="78.1410" cy="57.4693" r="0.6000" fill="#222222" fill-opacity="0.5"/>
    <circle cx="79.2113" cy="55.1406" r="0.6000" fill="#222222" fill-opacity="0.5"/>
    <circle cx="80.2590" cy="52.8015" r="0.6000" fill="#222222" fill-opacity="0.5"/>
    <circle cx="81.2860" cy="50.4531" r="0.6000" fill="#222222" fill-opacity="0.5"/>
    <circle cx="82.2940" cy="48.0964" r="0.6000" fill="#222222" fill-opacity="0.5"/>
    <circle cx="83.2847" cy="45.7322" r="0.6000" fill="#222222" fill-opacity="0.5"/>
    <circle cx="84.2594" cy="43.3608" r="0.6000" fill="#222222" fill-opacity="0.5"/>
    <circle cx="85.2191" cy="40.9836" r="0.6000" fill="#222222" fill-opacity="0.5"/>
    <circle cx="86.1643" cy="38.6026" r="0.6000" fill="#222222" fill-opacity="0.5"/>
    <circle cx="87.0971" cy="36.2155" r="0.6000" fill="#222222" fill-opacity="0.5"/>
    <circle cx="88.0185" cy="33.8224" r="0.6000" fill="#222222" fill-opacity="0.5"/>
    <circle cx="88.9280" cy="31.4268" r="0.6000" fill="#222222" fill-opacity="0.5"/>
    <circle cx="89.8271" cy="29.0271" r="0.6000" fill="#222222" fill-opacity="0.5"/>
    <circle cx="90.7174" cy="26.6213" r="0.6000" fill="#222222" fill-opacity="0.5"/>
    <circle cx="91.5971" cy="24.2162" r="0.6000" fill="#222222" fill-opacity="0.5"/>
    <circle cx="92.4693" cy="21.8047" r="0.6000" fill="#222222" fill-opacity="0.5"/>
    <circle cx="93.3325" cy="19.3926" r="0.6000" fill="#222222" fill-opacity="0.5"/>
    <circle cx="94.1889" cy="16.9756" r="0.6000" fill="#222222" fill-opacity="0.5"/>
    <circle cx="95.0373" cy="14.5582" r="0.6000" fill="#222222" fill-opacity="0.5"/>
    <circle cx="95.8799" cy="12.1356" r="0.6000" fill="#222222" fill-opacity="0.5"/>
    <circle cx="96.7148" cy="9.7143" r="0.6000" fill="#222222" fill-opacity="0.5"/>
    <circle cx="97.5447" cy="7.2878" r="0.6000" fill="#222222" fill-opacity="0.5"/>
    <circle cx="98.3682" cy="4.8615" r="0.6000" fill="#222222" fill-opacity="0.5"/>
    <circle cx="99.1863" cy="2.4327" r="0.6000" fill="#222222" fill-opacity="0.5"/>
    <circle cx="100.0000" cy="0" r="0.6000" fill="#222222" fill-opacity="0.5"/>
    <circle cx="100.8137" cy="-2.4327" r="0.6000" fill="#222222" fill-opacity="0.5"/>
    <circle cx="101.6318" cy="-4.8615" r="0.6000" fill="#222222" fill-opacity="0.5"/>
    <circle cx="102.4553" cy="-7.2878" r="0.6000" fill="#222222" fill-opacity="0.5"/>
    <circle cx="103.2852" cy="-9.7143" r="0.6000" fill="#222222" fill-opacity="0.5"/>
    <circle cx="104.1201" cy="-12.1356" r="0.6000" fill="#222222" fill-opacity="0.5"/>
    <circle cx="104.9627" cy="-14.5582" r="0.6000" fill="#222222" fill-opacity="0.5"/>
    <circle cx="105.8111" cy="-16.9756" r="0.6000" fill="#222222" fill-opacity="0.5"/>
    <circle cx="106.6675" cy="-19.3926" r="0.6000" fill="#222222" fill-opacity="0.5"/>
    <circle cx="107.5307" cy="-21.8047" r="0.6000" fill="#222222" fill-opacity="0.5"/>
    <circle cx="108.4029" cy="-24.2162" r="0.6000" fill="#222222" fill-opacity="0.5"/>
    <circle cx="109.2826" cy="-26.6213" r="0.6000" fill="#222222" fill-opacity="0.5"/>
    <circle cx="110.1729" cy="-29.0271" r="0.6000" fill="#222222" fill-opacity="0.5"/>
    <circle cx="111.0720" cy="-31.4268" r="0.6000" fill="#222222" fill-opacity="0.5"/>
    <circle cx="111.9815" cy="-33.8224" r="0.6000" fill="#222222" fill-opacity="0.5"/>
    <circle cx="112.9029" cy="-36.2155" r="0.6000" fill="#222222" fill-opacity="0.5"/>
    <circle cx="113.8357" cy="-38.6026" r="0.6000" fill="#222222" fill-opacity="0.5"/>
    <circle cx="114.7809" cy="-40.9836" r="0.6000" fill="#222222" fill-opacity="0.5"/>
    <circle cx="115.7406" cy="-43.3608" r="0.6000" fill="#222222" fill-opacity="0.5"/>
    <circle cx="116.7153" cy="-45.7322" r="0.6000" fill="#222222" fill-opacity="0.5"/>
    <circle cx="117.7060" cy="-48.0964" r="0.6000" fill="#222222" fill-opacity="0.5"/>
    <circle cx="118.7140" cy="-50.4531" r="0.6000" fill="#222222" fill-opacity="0.5"/>
    <circle cx="119.7410" cy="-52.8015" r="0.6000" fill="#222222" fill-opacity="0.5"/>
    <circle cx="120.7887" cy="-55.1406" r="0.6000" fill="#222222" fill-opacity="0.5"/>
    <circle cx="121.8590" cy="-57.4693" r="0.6000" fill="#222222" fill-opacity="0.5"/>
    <circle cx="122.9541" cy="-59.7858" r="0.6000" fill="#222222" fill-opacity="0.5"/>
    <circle cx="124.0769" cy="-62.0895" r="0.6000" fill="#222222" fill-opacity="0.5"/>
    <circle cx="125.2310" cy="-64.3796" r="0.6000" fill="#222222" fill-opacity="0.5"/>
    <circle cx="126.4183" cy="-66.6502" r="0.6000" fill="#222222" fill-opacity="0.5"/>
    <circle cx="127.6445" cy="-68.9016" r="0.6000" fill="#222222" fill-opacity="0.5"/>
    <circle cx="128.9131" cy="-71.1272" r="0.6000" fill="#222222" fill-opacity="0.5"/>
    <circle cx="130.2322" cy="-73.3262" r="0.6000" fill="#222222" fill-opacity="0.5"/>
    <circle cx="131.6073" cy="-75.4894" r="0.6000" fill="#222222" fill-opacity="0.5"/>
    <circle cx="133.0476" cy="-77.6094" r="0.6000" fill="#222222" fill-opacity="0.5"/>
    <circle cx="134.5638" cy="-79.6749" r="0.6000" fill="#222222" fill-opacity="0.5"/>
    <circle cx="136.1704" cy="-81.6718" r="0.6000" fill="#222222" fill-opacity="0.5"/>
    <circle cx="137.8832" cy="-83.5771" r="0.6000" fill="#222222" fill-opacity="0.5"/>
    <circle cx="139.7238" cy="-85.3600" r="0.6000" fill="#222222" fill-opacity="0.5"/>
    <circle cx="141.7156" cy="-86.9724" r="0.6000" fill="#222222" fill-opacity="0.5"/>
    <circle cx="143.8790" cy="-88.3416" r="0.6000" fill="#222222" fill-opacity="0.5"/>
    <circle cx="146.2249" cy="-89.3676" r="0.6000" fill="#222222" fill-opacity="0.5"/>
    <circle cx="148.7213" cy="-89.9273" r="0.6000" fill="#222222" fill-opacity="0.5"/>
    <circle cx="151.2787" cy="-89.9273" r="0.6000" fill="#222222" fill-opacity="0.5"/>
    <circle cx="153.7751" cy="-89.3676" r="0.6000" fill="#222222" fill-opacity="0.5"/>
    <circle cx="156.1210" cy="-88.3416" r="0.6000" fill="#222222" fill-opacity="0.5"/>
    <circle cx="158.2844" cy="-86.9724" r="0.6000" fill="#222222" fill-opacity="0.5"/>
    <circle cx="160.2762" cy="-85.3600" r="0.6000" fill="#222222" fill-opacity="0.5"/>
    <circle cx="162.1168" cy="-83.5771" r="0.6000" fill="#222222" fill-opacity="0.5"/>
    <circle cx="163.8296" cy="-81.6718" r="0.6000" fill="#222222" fill-opacity="0.5"/>
    <circle cx="165.4362" cy="-79.6749" r="0.6000" fill="#222222" fill-opacity="0.5"/>
    <circle cx="166.9524" cy="-77.6094" r="0.6000" fill="#222222" fill-opacity="0.5"/>
    <circle cx="168.3927" cy="-75.4894" r="0.6000" fill="#222222" fill-opacity="0.5"/>
    <circle cx="169.7678" cy="-73.3262" r="0.6000" fill="#222222" fill-opacity="0.5"/>
    <circle cx="171.0869" cy="-71.1272" r="0.6000" fill="#222222" fill-opacity="0.5"/>
    <circle cx="172.3555" cy="-68.9016" r="0.6000" fill="#222222" fill-opacity="0.5"/>
    <circle cx="173.5817" cy="-66.6502" r="0.6000" fill="#222222" fill-opacity="0.5"/>
    <circle cx="174.7690" cy="-64.3796" r="0.6000" fill="#222222" fill-opacity="0.5"/>
    <circle cx="175.9231" cy="-62.0895" r="0.6000" fill="#222222" fill-opacity="0.5"/>
    <circle cx="177.0459" cy="-59.7858" r="0.6000" fill="#222222" fill-opacity="0.5"/>
    <circle cx="178.1410" cy="-57.4693" r="0.6000" fill="#222222" fill-opacity="0.5"/>
    <circle cx="179.2113" cy="-55.1406" r="0.6000" fill="#222222" fill-opacity="0.5"/>
    <circle cx="180.2590" cy="-52.8015" r="0.6000" fill="#222222" fill-opacity="0.5"/>
    <circle cx="181.2860" cy="-50.4531" r="0.6000" fill="#222222" fill-opacity="0.5"/>
    <circle cx="182.2940" cy="-48.0964" r="0.6000" fill="#222222" fill-opacity="0.5"/>
    <circle cx="183.2847" cy="-45.7322" r="0.6000" fill="#222222" fill-opacity="0.5"/>
    <circle cx="184.2594" cy="-43.3608" r="0.6000" fill="#222222" fill-opacity="0.5"/>
    <circle cx="185.2191" cy="-40.9836" r="0.6000" fill="#222222" fill-opacity="0.5"/>
    <circle cx="186.1643" cy="-38.6026" r="0.6000" fill="#222222" fill-opacity="0.5"/>
    <circle cx="187.0971" cy="-36.2155" r="0.6000" fill="#222222" fill-opacity="0.5"/>
    <circle cx="188.0185" cy="-33.8224" r="0.6000" fill="#222222" fill-opacity="0.5"/>
    <circle cx="188.9280" cy="-31.4268" r="0.6000" fill="#222222" fill-opacity="0.5"/>
    <circle cx="189.8271" cy="-29.0271" r="0.6000" fill="#222222" fill-opacity="0.5"/>
    <circle cx="190.7174" cy="-26.6213" r="0.6000" fill="#222222" fill-opacity="0.5"/>
    <circle cx="191.5971" cy="-24.2162" r="0.6000" fill="#222222" fill-opacity="0.5"/>
    <circle cx="192.4693" cy="-21.8047" r="0.6000" fill="#222222" fill-opacity="0.5"/>
    <circle cx="193.3325" cy="-19.3926" r="0.6000" fill="#222222" fill-opacity="0.5"/>
    <circle cx="194.1889" cy="-16.9756" r="0.6000" fill="#222222" fill-opacity="0.5"/>
    <circle cx="195.0373" cy="-14.5582" r="0.6000" fill="#222222" fill-opacity="0.5"/>
    <circle cx="195.8799" cy="-12.1356" r="0.6000" fill="#222222" fill-opacity="0.5"/>
    <circle cx="196.7148" cy="-9.7143" r="0.6000" fill="#222222" fill-opacity="0.5"/>
    <circle cx="197.5447" cy="-7.2878" r="0.6000" fill="#222222" fill-opacity="0.5"/>
    <circle cx="198.3682" cy="-4.8615" r="0.6000" fill="#222222" fill-opacity="0.5"/>
    <circle cx="199.1863" cy="-2.4327" r="0.6000" fill="#222222" fill-opacity="0.5"/>
    <circle cx="200.0000" cy="0" r="0.6000" fill="#222222" fill-opacity="0.5"/>
    <circle cx="200.8137" cy="2.4327" r="0.6000" fill="#222222" fill-opacity="0.5"/>
    <circle cx="201.6318" cy="4.8615" r="0.6000" fill="#222222" fill-opacity="0.5"/>
    <circle cx="202.4553" cy="7.2878" r="0.6000" fill="#222222" fill-opacity="0.5"/>
    <circle cx="203.2852" cy="9.7143" r="0.6000" fill="#222222" fill-opacity="0.5"/>
    <circle cx="204.1201" cy="12.1356" r="0.6000" fill="#222222" fill-opacity="0.5"/>
    <circle cx="204.9627" cy="14.5582" r="0.6000" fill="#222222" fill-opacity="0.5"/>
    <circle cx="205.8111" cy="16.9756" r="0.6000" fill="#222222" fill-opacity="0.5"/>
    <circle cx="206.6675" cy="19.3926" r="0.6000" fill="#222222" fill-opacity="0.5"/>
    <circle cx="207.5307" cy="21.8047" r="0.6000" fill="#222222" fill-opacity="0.5"/>
    <circle cx="208.4029" cy="24.2162" r="0.6000" fill="#222222" fill-opacity="0.5"/>
    <circle cx="209.2826" cy="26.6213" r="0.6000" fill="#222222" fill-opacity="0.5"/>
    <circle cx="210.1729" cy="29.0271" r="0.6000" fill="#222222" fill-opacity="0.5"/>
    <circle cx="211.0720" cy="31.4268" r="0.6000" fill="#222222" fill-opacity="0.5"/>
    <circle cx="211.9815" cy="33.8224" r="0.6000" fill="#222222" fill-opacity="0.5"/>
    <circle cx="212.9029" cy="36.2155" r="0.6000" fill="#222222" fill-opacity="0.5"/>
    <circle cx="213.8357" cy="38.6026" r="0.6000" fill="#222222" fill-opacity="0.5"/>
    <circle cx="214.7809" cy="40.9836" r="0.6000" fill="#222222" fill-opacity="0.5"/>
    <circle cx="215.7406" cy="43.3608" r="0.6000" fill="#222222" fill-opacity="0.5"/>
    <circle cx="216.7153" cy="45.7322" r="0.6000" fill="#222222" fill-opacity="0.5"/>
    <circle cx="217.7060" cy="48.0964" r="0.6000" fill="#222222" fill-opacity="0.5"/>
    <circle cx="218.7140" cy="50.4531" r="0.6000" fill="#222222" fill-opacity="0.5"/>
    <circle cx="219.7410" cy="52.8015" r="0.6000" fill="#222222" fill-opacity="0.5"/>
    <circle cx="220.7887" cy="55.1406" r="0.6000" fill="#222222" fill-opacity="0.5"/>
    <circle cx="221.8590" cy="57.4693" r="0.6000" fill="#222222" fill-opacity="0.5"/>
    <circle cx="222.9541" cy="59.7858" r="0.6000" fill="#222222" fill-opacity="0.5"/>
    <circle cx="224.0769" cy="62.0895" r="0.6000" fill="#222222" fill-opacity="0.5"/>
    <circle cx="225.2310" cy="64.3796" r="0.6000" fill="#222222" fill-opacity="0.5"/>
    <circle cx="226.4183" cy="66.6502" r="0.6000" fill="#222222" fill-opacity="0.5"/>
    <circle cx="227.6445" cy="68.9016" r="0.6000" fill="#222222" fill-opacity="0.5"/>
    <circle cx="228.9131" cy="71.1272" r="0.6000" fill="#222222" fill-opacity="0.5"/>
    <circle cx="230.2322" cy="73.3262" r="0.6000" fill="#222222" fill-opacity="0.5"/>
    <circle cx="231.6073" cy="75.4894" r="0.6000" fill="#222222" fill-opacity="0.5"/>
    <circle cx="233.0476" cy="77.6094" r="0.6000" fill="#222222" fill-opacity="0.5"/>
    <circle cx="234.5638" cy="79.6749" r="0.6000" fill="#222222" fill-opacity="0.5"/>
    <circle cx="236.1704" cy="81.6718" r="0.6000" fill="#222222" fill-opacity="0.5"/>
    <circle cx="237.8832" cy="83.5771" r="0.6000" fill="#222222" fill-opacity="0.5"/>
    <circle cx="239.7238" cy="85.3600" r="0.6000" fill="#222222" fill-opacity="0.5"/>
    <circle cx="241.7156" cy="86.9724" r="0.6000" fill="#222222" fill-opacity="0.5"/>
    <circle cx="243.8790" cy="88.3416" r="0.6000" fill="#222222" fill-opacity="0.5"/>
    <circle cx="246.2249" cy="89.3676" r="0.6000" fill="#222222" fill-opacity="0.5"/>
    <circle cx="248.7213" cy="89.9273" r="0.6000" fill="#222222" fill-opacity="0.5"/>
    <circle cx="251.2787" cy="89.9273" r="0.6000" fill="#222222" fill-opacity="0.5"/>
    <circle cx="253.7751" cy="89.3676" r="0.6000" fill="#222222" fill-opacity="0.5"/>
    <circle cx="256.1210" cy="88.3416" r="0.6000" fill="#222222" fill-opacity="0.5"/>
    <circle cx="258.2844" cy="86.9724" r="0.6000" fill="#222222" fill-opacity="0.5"/>
    <circle cx="260.2762" cy="85.3600" r="0.6000" fill="#222222" fill-opacity="0.5"/>
    <circle cx="262.1168" cy="83.5771" r="0.6000" fill="#222222" fill-opacity="0.5"/>
    <circle cx="263.8296" cy="81.6718" r="0.6000" fill="#222222" fill-opacity="0.5"/>
    <circle cx="265.4362" cy="79.6749" r="0.6000" fill="#222222" fill-opacity="0.5"/>
    <circle cx="266.9524" cy="77.6094" r="0.6000" fill="#222222" fill-opacity="0.5"/>
    <circle cx="268.3927" cy="75.4894" r="0.6000" fill="#222222" fill-opacity="0.5"/>
    <circle cx="269.7678" cy="73.3262" r="0.6000" fill="#222222" fill-opacity="0.5"/>
    <circle cx="271.0869" cy="71.1272" r="0.6000" fill="#222222" fill-opacity="0.5"/>
    <circle cx="272.3555" cy="68.9016" r="0.6000" fill="#222222" fill-opacity="0.5"/>
    <circle cx="273.5817" cy="66.6502" r="0.6000" fill="#222222" fill-opacity="0.5"/>
    <circle cx="274.7690" cy="64.3796" r="0.6000" fill="#222222" fill-opacity="0.5"/>
    <circle cx="275.9231" cy="62.0895" r="0.6000" fill="#222222" fill-opacity="0.5"/>
    <circle cx="277.0459" cy="59.7858" r="0.6000" fill="#222222" fill-opacity="0.5"/>
    <circle cx="278.1410" cy="57.4693" r="0.6000" fill="#222222" fill-opacity="0.5"/>
    <circle cx="279.2113" cy="55.1406" r="0.6000" fill="#222222" fill-opacity="0.5"/>
    <circle cx="280.2590" cy="52.8015" r="0.6000" fill="#222222" fill-opacity="0.5"/>
    <circle cx="281.2860" cy="50.4531" r="0.6000" fill="#222222" fill-opacity="0.5"/>
    <circle cx="282.2940" cy="48.0964" r="0.6000" fill="#222222" fill-opacity="0.5"/>
    <circle cx="283.2847" cy="45.7322" r="0.6000" fill="#222222" fill-opacity="0.5"/>
    <circle cx="284.2594" cy="43.3608" r="0.6000" fill="#222222" fill-opacity="0.5"/>
    <circle cx="285.2191" cy="40.9836" r="0.6000" fill="#222222" fill-opacity="0.5"/>
    <circle cx="286.1643" cy="38.6026" r="0.6000" fill="#222222" fill-opacity="0.5"/>
    <circle cx="287.0971" cy="36.2155" r="0.6000" fill="#222222" fill-opacity="0.5"/>
    <circle cx="288.0185" cy="33.8224" r="0.6000" fill="#222222" fill-opacity="0.5"/>
    <circle cx="288.9280" cy="31.4268" r="0.6000" fill="#222222" fill-opacity="0.5"/>
    <circle cx="289.8271" cy="29.0271" r="0.6000" fill="#222222" fill-opacity="0.5"/>
    <circle cx="290.7174" cy="26.6213" r="0.6000" fill="#222222" fill-opacity="0.5"/>
    <circle cx="291.5971" cy="24.2162" r="0.6000" fill="#222222" fill-opacity="0.5"/>
    <circle cx="292.4693" cy="21.8047" r="0.6000" fill="#222222" fill-opacity="0.5"/>
    <circle cx="293.3325" cy="19.3926" r="0.6000" fill="#222222" fill-opacity="0.5"/>
    <circle cx="294.1889" cy="16.9756" r="0.6000" fill="#222222" fill-opacity="0.5"/>
    <circle cx="295.0373" cy="14.5582" r="0.6000" fill="#222222" fill-opacity="0.5"/>
    <circle cx="295.8799" cy="12.1356" r="0.6000" fill="#222222" fill-opacity="0.5"/>
    <circle cx="296.7148" cy="9.7143" r="0.6000" fill="#222222" fill-opacity="0.5"/>
    <circle cx="297.5447" cy="7.2878" r="0.6000" fill="#222222" fill-opacity="0.5"/>
    <circle cx="298.3682" cy="4.8615" r="0.6000" fill="#222222" fill-opacity="0.5"/>
    <circle cx="299.1863" cy="2.4327" r="0.6000" fill="#222222" fill-opacity="0.5"/>
    <circle cx="300.0000" cy="0" r="0.6000" fill="#222222" fill-opacity="0.5"/>
  <path fill="none" stroke="#8844ff" stroke-opacity="0.35" stroke-width="0.6" d="M -2.1889 6.0140 L -1.3752 8.4468 L -0.5571 10.8755 L 0.2663 13.3018 L 1.0962 15.7283 L 1.9312 18.1497 L 2.7738 20.5722 L 3.6222 22.9896 L 4.4786 25.4066 L 5.3418 27.8187 L 6.2140 30.2302 L 7.0936 32.6354 L 7.9839 35.0412 L 8.8831 37.4408 L 9.7926 39.8364 L 10.7140 42.2296 L 11.6467 44.6166 L 12.5920 46.9977 L 13.5517 49.3748 L 14.5264 51.7462 L 15.5170 54.1105 L 16.5251 56.4671 L 17.5521 58.8155 L 18.5998 61.1546 L 19.6701 63.4833 L 20.7652 65.7999 L 21.8879 68.1035 L 23.0421 70.3936 L 24.2294 72.6642 L 25.4556 74.9156 L 26.7242 77.1412 L 28.0433 79.3403 L 29.4184 81.5034 L 30.8587 83.6234 L 32.3749 85.6889 L 33.9815 87.6858 L 35.6943 89.5911 L 37.5349 91.3740 L 39.5267 92.9864 L 41.6901 94.3557 L 44.0360 95.3816 L 46.5324 95.9414 L 49.0897 95.9414 L 51.5862 95.3816 L 53.9321 94.3557 L 56.0955 92.9864 L 58.0872 91.3740 L 59.9279 89.5911 L 61.6407 87.6858 L 63.2472 85.6889 L 64.7635 83.6234 L 66.2038 81.5034 L 67.5788 79.3403 L 68.8980 77.1412 L 70.1665 74.9156 L 71.3928 72.6642 L 72.5801 70.3936 L 73.7342 68.1035 L 74.8570 65.7999 L 75.9520 63.4833 L 77.0224 61.1546 L 78.0701 58.8155 L 79.0971 56.4671 L 80.1051 54.1105 L 81.0958 51.7462 L 82.0705 49.3748 L 83.0302 46.9977 L 83.9754 44.6166 L 84.9082 42.2296 L 85.8296 39.8364 L 86.7391 37.4408 L 87.6382 35.0412 L 88.5285 32.6354 L 89.4081 30.2302 L 90.2803 27.8187 L 91.1436 25.4066 L 92.0000 22.9896 L 92.8484 20.5722 L 93.6909 18.1497 L 94.5259 15.7283 L 95.3558 13.3018 L 96.1792 10.8755 L 96.9974 8.4468 L 106.0695 2.0301 L 106.0695 2.0301 L 106.0695 2.0301 L 106.0695 2.0301 L 106.0695 2.0301 L 106.0695 2.0301 L 106.0695 2.0301 L 106.0695 2.0301 L 106.0695 2.0301 L 106.0695 2.0301 L 106.0695 2.0301 L 106.8832 -0.4026 L 106.8827 -0.4013 L 106.8823 -0.4000 L 106.8819 -0.3987 L 106.8814 -0.3974 L 106.8810 -0.3961 L 106.8806 -0.3948 L 106.8801 -0.3935 L 106.8797 -0.3922 L 106.8793 -0.3909 L 106.8788 -0.3896 L 99.4429 1.1525 L 100.2663 -1.2738 L 101.0962 -3.7002 L 101.9312 -6.1216 L 102.7738 -8.5441 L 103.6222 -10.9615 L 104.4786 -13.3785 L 105.3418 -15.7906 L 106.2140 -18.2022 L 107.0936 -20.6073 L 107.9839 -23.0131 L 108.8831 -25.4127 L 109.7926 -27.8083 L 110.7140 -30.2015 L 111.6467 -32.5886 L 112.5920 -34.9696 L 113.5517 -37.3467 L 114.5264 -39.7181 L 115.5170 -42.0824 L 116.5251 -44.4391 L 117.5521 -46.7874 L 118.5998 -49.1266 L 119.6701 -51.4553 L 120.7652 -53.7718 L 121.8879 -56.0755 L 123.0421 -58.3655 L 124.2294 -60.6362 L 125.4556 -62.8875 L 126.7242 -65.1131 L 128.0433 -67.3122 L 129.4184 -69.4754 L 130.8587 -71.5953 L 132.3749 -73.6609 L 133.9815 -75.6578 L 135.6943 -77.5631 L 137.5349 -79.3460 L 139.5267 -80.9584 L 141.6901 -82.3276 L 144.0360 -83.3536 L 146.5324 -83.9133 L 149.0897 -83.9133 L 151.5862 -83.3536 L 153.9321 -82.3276 L 156.0955 -80.9584 L 158.0872 -79.3460 L 159.9279 -77.5631 L 161.6407 -75.6578 L 163.2472 -73.6609 L 164.7635 -71.5953 L 166.2038 -69.4754 L 167.5788 -67.3122 L 168.8980 -65.1131 L 170.1665 -62.8875 L 171.3928 -60.6362 L 172.5801 -58.3655 L 173.7342 -56.0755 L 174.8570 -53.7718 L 175.9520 -51.4553 L 177.0224 -49.1266 L 178.0701 -46.7874 L 179.0971 -44.4391 L 180.1051 -42.0824 L 181.0958 -39.7181 L 182.0705 -37.3467 L 183.0302 -34.9696 L 183.9754 -32.5886 L 184.9082 -30.2015 L 185.8296 -27.8083 L 186.7391 -25.4127 L 187.6382 -23.0131 L 188.5285 -20.6073 L 189.4081 -18.2022 L 190.2803 -15.7906 L 191.1436 -13.3785 L 192.0000 -10.9615 L 192.8484 -8.5441 L 193.6909 -6.1216 L 194.5259 -3.7002 L 195.3558 -1.2738 L 196.1792 1.1525 L 196.9974 3.5813 L 193.9305 2.0301 L 193.9305 2.0301 L 193.9305 2.0301 L 193.9305 2.0301 L 193.9305 2.0301 L 193.9305 2.0301 L 193.9305 2.0301 L 193.9305 2.0301 L 193.9305 2.0301 L 193.9305 2.0301 L 193.9305 2.0301 L 194.7442 4.4628 L 194.7447 4.4641 L 194.7451 4.4654 L 194.7455 4.4667 L 194.7460 4.4680 L 194.7464 4.4693 L 194.7468 4.4706 L 194.7473 4.4719 L 194.7477 4.4732 L 194.7481 4.4745 L 194.7486 4.4758 L 199.4429 10.8755 L 200.2663 13.3018 L 201.0962 15.7283 L 201.9312 18.1497 L 202.7738 20.5722 L 203.6222 22.9896 L 204.4786 25.4066 L 205.3418 27.8187 L 206.2140 30.2302 L 207.0936 32.6354 L 207.9839 35.0412 L 208.8831 37.4408 L 209.7926 39.8364 L 210.7140 42.2296 L 211.6467 44.6166 L 212.5920 46.9977 L 213.5517 49.3748 L 214.5264 51.7462 L 215.5170 54.1105 L 216.5251 56.4671 L 217.5521 58.8155 L 218.5998 61.1546 L 219.6701 63.4833 L 220.7652 65.7999 L 221.8879 68.1035 L 223.0421 70.3936 L 224.2294 72.6642 L 225.4556 74.9156 L 226.7242 77.1412 L 228.0433 79.3403 L 229.4184 81.5034 L 230.8587 83.6234 L 232.3749 85.6889 L 233.9815 87.6858 L 235.6943 89.5911 L 237.5349 91.3740 L 239.5267 92.9864 L 241.6901 94.3557 L 244.0360 95.3816 L 246.5324 95.9414 L 249.0897 95.9414 L 251.5862 95.3816 L 253.9321 94.3557 L 256.0955 92.9864 L 258.0872 91.3740 L 259.9279 89.5911 L 261.6407 87.6858 L 263.2472 85.6889 L 264.7635 83.6234 L 266.2038 81.5034 L 267.5788 79.3403 L 268.8980 77.1412 L 270.1665 74.9156 L 271.3928 72.6642 L 272.5801 70.3936 L 273.7342 68.1035 L 274.8570 65.7999 L 275.9520 63.4833 L 277.0224 61.1546 L 278.0701 58.8155 L 279.0971 56.4671 L 280.1051 54.1105 L 281.0958 51.7462 L 282.0705 49.3748 L 283.0302 46.9977 L 283.9754 44.6166 L 284.9082 42.2296 L 285.8296 39.8364 L 286.7391 37.4408 L 287.6382 35.0412 L 288.5285 32.6354 L 289.4081 30.2302 L 290.2803 27.8187 L 291.1436 25.4066 L 292.0000 22.9896 L 292.8484 20.5722 L 293.6909 18.1497 L 294.5259 15.7283 L 295.3558 13.3018 L 296.1792 10.8755 L 296.9974 8.4468 L 297.8111 6.0140 L 302.1889 -6.0140 L 301.3752 -3.5813 L 300.5571 -1.1525 L 299.7337 1.2738 L 298.9038 3.7002 L 298.0688 6.1216 L 297.2262 8.5441 L 296.3778 10.9615 L 295.5214 13.3785 L 294.6582 15.7906 L 293.7860 18.2022 L 292.9064 20.6073 L 292.0161 23.0131 L 291.1169 25.4127 L 290.2074 27.8083 L 289.2860 30.2015 L 288.3533 32.5886 L 287.4080 34.9696 L 286.4483 37.3467 L 285.4736 39.7181 L 284.4830 42.0824 L 283.4749 44.4391 L 282.4479 46.7874 L 281.4002 49.1266 L 280.3299 51.4553 L 279.2348 53.7718 L 278.1121 56.0755 L 276.9579 58.3655 L 275.7706 60.6362 L 274.5444 62.8875 L 273.2758 65.1131 L 271.9567 67.3122 L 270.5816 69.4754 L 269.1413 71.5953 L 267.6251 73.6609 L 266.0185 75.6578 L 264.3057 77.5631 L 262.4651 79.3460 L 260.4733 80.9584 L 258.3099 82.3276 L 255.9640 83.3536 L 253.4676 83.9133 L 250.9103 83.9133 L 248.4138 83.3536 L 246.0679 82.3276 L 243.9045 80.9584 L 241.9128 79.3460 L 240.0721 77.5631 L 238.3593 75.6578 L 236.7528 73.6609 L 235.2365 71.5953 L 233.7962 69.4754 L 232.4212 67.3122 L 231.1020 65.1131 L 229.8335 62.8875 L 228.6072 60.6362 L 227.4199 58.3655 L 226.2658 56.0755 L 225.1430 53.7718 L 224.0480 51.4553 L 222.9776 49.1266 L 221.9299 46.7874 L 220.9029 44.4391 L 219.8949 42.0824 L 218.9042 39.7181 L 217.9295 37.3467 L 216.9698 34.9696 L 216.0246 32.5886 L 215.0918 30.2015 L 214.1704 27.8083 L 213.2609 25.4127 L 212.3618 23.0131 L 211.4715 20.6073 L 210.5919 18.2022 L 209.7197 15.7906 L 208.8564 13.3785 L 208.0000 10.9615 L 207.1516 8.5441 L 206.3091 6.1216 L 205.4741 3.7002 L 204.6442 1.2738 L 203.8208 -1.1525 L 206.8788 0.3896 L 206.8793 0.3909 L 206.8797 0.3922 L 206.8801 0.3935 L 206.8806 0.3948 L 206.8810 0.3961 L 206.8814 0.3974 L 206.8819 0.3987 L 206.8823 0.4000 L 206.8827 0.4013 L 206.8832 0.4026 L 206.0695 -2.0301 L 206.0695 -2.0301 L 206.0695 -2.0301 L 206.0695 -2.0301 L 206.0695 -2.0301 L 206.0695 -2.0301 L 206.0695 -2.0301 L 206.0695 -2.0301 L 206.0695 -2.0301 L 206.0695 -2.0301 L 206.0695 -2.0301 L 201.3752 -8.4468 L 200.5571 -10.8755 L 199.7337 -13.3018 L 198.9038 -15.7283 L 198.0688 -18.1497 L 197.2262 -20.5722 L 196.3778 -22.9896 L 195.5214 -25.4066 L 194.6582 -27.8187 L 193.7860 -30.2302 L 192.9064 -32.6354 L 192.0161 -35.0412 L 191.1169 -37.4408 L 190.2074 -39.8364 L 189.2860 -42.2296 L 188.3533 -44.6166 L 187.4080 -46.9977 L 186.4483 -49.3748 L 185.4736 -51.7462 L 184.4830 -54.1105 L 183.4749 -56.4671 L 182.4479 -58.8155 L 181.4002 -61.1546 L 180.3299 -63.4833 L 179.2348 -65.7999 L 178.1121 -68.1035 L 176.9579 -70.3936 L 175.7706 -72.6642 L 174.5444 -74.9156 L 173.2758 -77.1412 L 171.9567 -79.3403 L 170.5816 -81.5034 L 169.1413 -83.6234 L 167.6251 -85.6889 L 166.0185 -87.6858 L 164.3057 -89.5911 L 162.4651 -91.3740 L 160.4733 -92.9864 L 158.3099 -94.3557 L 155.9640 -95.3816 L 153.4676 -95.9414 L 150.9103 -95.9414 L 148.4138 -95.3816 L 146.0679 -94.3557 L 143.9045 -92.9864 L 141.9128 -91.3740 L 140.0721 -89.5911 L 138.3593 -87.6858 L 136.7528 -85.6889 L 135.2365 -83.6234 L 133.7962 -81.5034 L 132.4212 -79.3403 L 131.1020 -77.1412 L 129.8335 -74.9156 L 128.6072 -72.6642 L 127.4199 -70.3936 L 126.2658 -68.1035 L 125.1430 -65.7999 L 124.0480 -63.4833 L 122.9776 -61.1546 L 121.9299 -58.8155 L 120.9029 -56.4671 L 119.8949 -54.1105 L 118.9042 -51.7462 L 117.9295 -49.3748 L 116.9698 -46.9977 L 116.0246 -44.6166 L 115.0918 -42.2296 L 114.1704 -39.8364 L 113.2609 -37.4408 L 112.3618 -35.0412 L 111.4715 -32.6354 L 110.5919 -30.2302 L 109.7197 -27.8187 L 108.8564 -25.4066 L 108.0000 -22.9896 L 107.1516 -20.5722 L 106.3091 -18.1497 L 105.4741 -15.7283 L 104.6442 -13.3018 L 103.8208 -10.8755 L 94.7486 -4.4758 L 94.7481 -4.4745 L 94.7477 -4.4732 L 94.7473 -4.4719 L 94.7468 -4.4706 L 94.7464 -4.4693 L 94.7460 -4.4680 L 94.7455 -4.4667 L 94.7451 -4.4654 L 94.7447 -4.4641 L 94.7442 -4.4628 L 93.9305 -2.0301 L 93.9305 -2.0301 L 93.9305 -2.0301 L 93.9305 -2.0301 L 93.9305 -2.0301 L 93.9305 -2.0301 L 93.9305 -2.0301 L 93.9305 -2.0301 L 93.9305 -2.0301 L 93.9305 -2.0301 L 93.9305 -2.0301 L 101.3752 -3.5813 L 100.5571 -1.1525 L 99.7337 1.2738 L 98.9038 3.7002 L 98.0688 6.1216 L 97.2262 8.5441 L 96.3778 10.9615 L 95.5214 13.3785 L 94.6582 15.7906 L 93.7860 18.2022 L 92.9064 20.6073 L 92.0161 23.0131 L 91.1169 25.4127 L 90.2074 27.8083 L 89.2860 30.2015 L 88.3533 32.5886 L 87.4080 34.9696 L 86.4483 37.3467 L 85.4736 39.7181 L 84.4830 42.0824 L 83.4749 44.4391 L 82.4479 46.7874 L 81.4002 49.1266 L 80.3299 51.4553 L 79.2348 53.7718 L 78.1121 56.0755 L 76.9579 58.3655 L 75.7706 60.6362 L 74.5444 62.8875 L 73.2758 65.1131 L 71.9567 67.3122 L 70.5816 69.4754 L 69.1413 71.5953 L 67.6251 73.6609 L 66.0185 75.6578 L 64.3057 77.5631 L 62.4651 79.3460 L 60.4733 80.9584 L 58.3099 82.3276 L 55.9640 83.3536 L 53.4676 83.9133 L 50.9103 83.9133 L 48.4138 83.3536 L 46.0679 82.3276 L 43.9045 80.9584 L 41.9128 79.3460 L 40.0721 77.5631 L 38.3593 75.6578 L 36.7528 73.6609 L 35.2365 71.5953 L 33.7962 69.4754 L 32.4212 67.3122 L 31.1020 65.1131 L 29.8335 62.8875 L 28.6072 60.6362 L 27.4199 58.3655 L 26.2658 56.0755 L 25.1430 53.7718 L 24.0480 51.4553 L 22.9776 49.1266 L 21.9299 46.7874 L 20.9029 44.4391 L 19.8949 42.0824 L 18.9042 39.7181 L 17.9295 37.3467 L 16.9698 34.9696 L 16.0246 32.5886 L 15.0918 30.2015 L 14.1704 27.8083 L 13.2609 25.4127 L 12.3618 23.0131 L 11.4715 20.6073 L 10.5919 18.2022 L 9.7197 15.7906 L 8.8564 13.3785 L 8.0000 10.9615 L 7.1516 8.5441 L 6.3091 6.1216 L 5.4741 3.7002 L 4.6442 1.2738 L 3.8208 -1.1525 L 3.0026 -3.5813 L 2.1889 -6.0140 L -2.1889 6.0140 Z"/>
  
  
  
</g>
</svg>