<svg xmlns="http://www.w3.org/2000/svg" width="346.4027" height="242.3783" viewBox="-18.9414 -117.0286 346.4027 242.3783">
  <path fill="black" stroke="none" fill-rule="nonzero" d="M -8.9414 0.5342 C 0.8449 28.0220 9.4953 62.7740 28.6217 86.2547 C 33.8369 92.6571 40.9971 98.7619 49.8055 98.7627 C 74.2572 98.7649 89.6215 53.2839 95.2121 38.5828 C 102.8937 18.3830 109.0274 -2.3753 116.3543 -22.7064 C 123.4250 -42.3264 128.2650 -54.4876 138.5517 -72.0344 C 140.1043 -74.6829 145.2045 -81.4151 149.0052 -82.5390 C 151.7807 -83.3597 156.1177 -79.3586 157.2149 -77.8580 C 186.4900 -37.8159 193.9708 15.2535 215.3059 59.7138 C 219.9417 69.3743 226.2465 82.0526 234.7544 90.1412 C 261.2693 115.3497 282.1358 65.9591 289.2576 48.0797 C 293.8140 36.6405 298.0828 25.0830 302.0762 13.4352 C 303.3991 9.5767 304.6493 5.6443 305.1926 1.6017 C 305.4987 -0.6759 303.8938 -4.3725 301.9563 -5.7366 C 299.9775 -7.1297 296.4345 -6.7495 295.3162 -4.1644 C 289.0662 10.2841 284.7544 25.5091 278.7643 40.0673 C 278.1307 41.6073 261.9821 82.5685 250.8586 83.5362 C 244.5247 84.0873 238.0579 73.2293 236.6350 70.9573 C 228.4828 57.9402 220.5573 37.4553 215.5108 23.3692 C 208.1512 2.8266 201.8435 -18.0901 194.1841 -38.5228 C 189.0459 -52.2299 170.3210 -107.0286 143.5864 -96.9628 C 114.6577 -86.0708 91.0347 1.9787 84.2080 20.5019 C 78.6825 35.4944 70.6161 56.4090 61.7006 70.3500 C 57.5953 76.7693 51.2711 86.4168 44.3255 77.9515 C 24.9739 54.3656 19.8166 23.6999 7.8882 -3.4909 C 7.2465 -4.9537 5.2479 -5.4511 3.6891 -5.8000 C -0.8626 -6.8189 -8.1468 -4.9946 -8.9414 0.5342 Z"/>
  <g id="debug">
  <path fill="none" stroke="#ff3366" stroke-opacity="0.6" stroke-width="0.5" d=""/>
  <path fill="none" stroke="#ff9900" stroke-opacity="0.6" stroke-width="0.6" d="M 0 0 L 5.5317 16.5951 M 0.8137 2.4327 L 6.3799 19.0162 M 1.6318 4.8615 L 7.2344 21.4328 M 2.4553 7.2878 L 8.0962 23.8461 M 3.2852 9.7143 L 8.9665 26.2587 M 4.1201 12.1356 L 9.8442 28.6653 M 4.9627 14.5582 L 10.7319 31.0722 M 5.8111 16.9756 L 11.6281 33.4728 M 6.6675 19.3926 L 12.5351 35.8718 M 7.5307 21.8047 L 13.4521 38.2647 M 8.4029 24.2162 L 14.3813 40.6556 M 9.2826 26.6213 L 15.3216 43.0386 M 10.1729 29.0271 L 16.2765 45.4205 M 11.0720 31.4268 L 17.2445 47.7943 M 11.9815 33.8224 L 18.2276 50.1619 M 12.9029 36.2155 L 19.2279 52.5247 M 13.8357 38.6026 L 20.2451 54.8788 M 14.7809 40.9836 L 21.2812 57.2238 M 15.7406 43.3608 L 22.3387 59.5614 M 16.7153 45.7322 L 23.4191 61.8894 M 17.7060 48.0964 L 24.5241 64.2057 M 18.7140 50.4531 L 25.6564 66.5092 M 19.7410 52.8015 L 26.8187 68.7984 M 20.7887 55.1406 L 28.0143 71.0713 M 21.8590 57.4693 L 29.2469 73.3254 M 22.9541 59.7858 L 30.5207 75.5574 M 24.0769 62.0895 L 31.8413 77.7646 M 25.2310 64.3796 L 33.2158 79.9436 M 26.4183 66.6502 L 34.6493 82.0854 M 27.6445 68.9016 L 36.1530 84.1856 M 28.9131 71.1272 L 37.7358 86.2320 M 30.2322 73.3262 L 39.4143 88.2154 M 31.6073 75.4894 L 41.2030 90.1154 M 33.0476 77.6094 L 43.1240 91.9084 M 34.5638 79.6749 L 45.2040 93.5595 M 36.1704 81.6718 L 47.4778 95.0187 M 37.8832 83.5771 L 49.9849 96.2082 M 39.7238 85.3600 L 52.7721 97.0107 M 41.7156 86.9724 L 55.8744 97.2448 M 43.8790 88.3416 L 59.2731 96.6492 M 46.2249 89.3676 L 62.8141 94.9170 M 48.7213 89.9273 L 66.1023 91.9021 M 51.2787 89.9273 L 68.6596 87.9526 M 53.7751 89.3676 L 70.3643 83.8182 M 56.1210 88.3416 L 71.5151 80.0340 M 58.2844 86.9724 L 72.4433 76.6999 M 60.2762 85.3600 L 73.3244 73.7093 M 62.1168 83.5771 L 74.2185 70.9460 M 63.8296 81.6718 L 75.1369 68.3249 M 65.4362 79.6749 L 76.0763 65.7903 M 66.9524 77.6094 L 77.0288 63.3104 M 68.3927 75.4894 L 77.9884 60.8635 M 69.7678 73.3262 L 78.9498 58.4371 M 71.0869 71.1272 L 79.9096 56.0223 M 72.3555 68.9016 L 80.8639 53.6175 M 73.5817 66.6502 L 81.8127 51.2150 M 74.7690 64.3796 L 82.7538 48.8155 M 75.9231 62.0895 L 83.6876 46.4144 M 77.0459 59.7858 L 84.6125 44.0143 M 78.1410 57.4693 L 85.5288 41.6132 M 79.2113 55.1406 L 86.4368 39.2099 M 80.2590 52.8015 L 87.3367 36.8045 M 81.2860 50.4531 L 88.2284 34.3970 M 82.2940 48.0964 L 89.1122 31.9872 M 83.2847 45.7322 L 89.9885 29.5750 M 84.2594 43.3608 L 90.8575 27.1601 M 85.2191 40.9836 L 91.7193 24.7435 M 86.1643 38.6026 L 92.5738 22.3264 M 87.0971 36.2155 L 93.4221 19.9063 M 88.0185 33.8224 L 94.2646 17.4828 M 88.9280 31.4268 L 95.1005 15.0593 M 89.8271 29.0271 L 95.9308 12.6338 M 90.7174 26.6213 L 96.7564 10.2041 M 91.5971 24.2162 L 97.5754 7.7768 M 92.4693 21.8047 L 98.3906 5.3446 M 93.3325 19.3926 L 99.2002 2.9133 M 94.1889 16.9756 L 100.0059 0.4783 M 95.0373 14.5582 L 100.8065 -1.9558 M 95.8799 12.1356 L 101.6039 -4.3941 M 96.7148 9.7143 L 102.3962 -6.8302 M 97.5447 7.2878 L 103.1856 -9.2705 M 98.3682 4.8615 L 103.9707 -11.7098 M 99.1863 2.4327 L 104.7525 -14.1508 M 100.0000 0 L 105.5317 -16.5951 M 100.8137 -2.4327 L 106.3799 -19.0162 M 101.6318 -4.8615 L 107.2344 -21.4328 M 102.4553 -7.2878 L 108.0962 -23.8461 M 103.2852 -9.7143 L 108.9665 -26.2587 M 104.1201 -12.1356 L 109.8442 -28.6653 M 104.9627 -14.5582 L 110.7319 -31.0722 M 105.8111 -16.9756 L 111.6281 -33.4728 M 106.6675 -19.3926 L 112.5351 -35.8718 M 107.5307 -21.8047 L 113.4521 -38.2647 M 108.4029 -24.2162 L 114.3813 -40.6556 M 109.2826 -26.6213 L 115.3216 -43.0386 M 110.1729 -29.0271 L 116.2765 -45.4205 M 111.0720 -31.4268 L 117.2445 -47.7943 M 111.9815 -33.8224 L 118.2276 -50.1619 M 112.9029 -36.2155 L 119.2279 -52.5247 M 113.8357 -38.6026 L 120.2451 -54.8788 M 114.7809 -40.9836 L 121.2812 -57.2238 M 115.7406 -43.3608 L 122.3387 -59.5614 M 116.7153 -45.7322 L 123.4191 -61.8894 M 117.7060 -48.0964 L 124.5241 -64.2057 M 118.7140 -50.4531 L 125.6564 -66.5092 M 119.7410 -52.8015 L 126.8187 -68.7984 M 120.7887 -55.1406 L 128.0143 -71.0713 M 121.8590 -57.4693 L 129.2469 -73.3254 M 122.9541 -59.7858 L 130.5207 -75.5574 M 124.0769 -62.0895 L 131.8413 -77.7646 M 125.2310 -64.3796 L 133.2158 -79.9436 M 126.4183 -66.6502 L 134.6493 -82.0854 M 127.6445 -68.9016 L 136.1530 -84.1856 M 128.9131 -71.1272 L 137.7358 -86.2320 M 130.2322 -73.3262 L 139.4143 -88.2154 M 131.6073 -75.4894 L 141.2030 -90.1154 M 133.0476 -77.6094 L 143.1240 -91.9084 M 134.5638 -79.6749 L 145.2040 -93.5595 M 136.1704 -81.6718 L 147.4778 -95.0187 M 137.8832 -83.5771 L 149.9849 -96.2082 M 139.7238 -85.3600 L 152.7721 -97.0107 M 141.7156 -86.9724 L 155.8744 -97.2448 M 143.8790 -88.3416 L 159.2731 -96.6492 M 146.2249 -89.3676 L 162.8141 -94.9170 M 148.7213 -89.9273 L 166.1023 -91.9021 M 151.2787 -89.9273 L 168.6596 -87.9526 M 153.7751 -89.3676 L 170.3643 -83.8182 M 156.1210 -88.3416 L 171.5151 -80.0340 M 158.2844 -86.9724 L 172.4433 -76.6999 M 160.2762 -85.3600 L 173.3244 -73.7093 M 162.1168 -83.5771 L 174.2185 -70.9460 M 163.8296 -81.6718 L 175.1369 -68.3249 M 165.4362 -79.6749 L 176.0763 -65.7903 M 166.9524 -77.6094 L 177.0288 -63.3104 M 168.3927 -75.4894 L 177.9884 -60.8635 M 169.7678 -73.3262 L 178.9498 -58.4371 M 171.0869 -71.1272 L 179.9096 -56.0223 M 172.3555 -68.9016 L 180.8639 -53.6175 M 173.5817 -66.6502 L 181.8127 -51.2150 M 174.7690 -64.3796 L 182.7538 -48.8155 M 175.9231 -62.0895 L 183.6876 -46.4144 M 177.0459 -59.7858 L 184.6125 -44.0143 M 178.1410 -57.4693 L 185.5288 -41.6132 M 179.2113 -55.1406 L 186.4368 -39.2099 M 180.2590 -52.8015 L 187.3367 -36.8045 M 181.2860 -50.4531 L 188.2284 -34.3970 M 182.2940 -48.0964 L 189.1122 -31.9872 M 183.2847 -45.7322 L 189.9885 -29.5750 M 184.2594 -43.3608 L 190.8575 -27.1601 M 185.2191 -40.9836 L 191.7193 -24.7435 M 186.1643 -38.6026 L 192.5738 -22.3264 M 187.0971 -36.2155 L 193.4221 -19.9063 M 188.0185 -33.8224 L 194.2646 -17.4828 M 188.9280 -31.4268 L 195.1005 -15.0593 M 189.8271 -29.0271 L 195.9308 -12.6338 M 190.7174 -26.6213 L 196.7564 -10.2041 M 191.5971 -24.2162 L 197.5754 -7.7768 M 192.4693 -21.8047 L 198.3906 -5.3446 M 193.3325 -19.3926 L 199.2002 -2.9133 M 194.1889 -16.9756 L 200.0059 -0.4783 M 195.0373 -14.5582 L 200.8065 1.9558 M 195.8799 -12.1356 L 201.6039 4.3941 M 196.7148 -9.7143 L 202.3962 6.8302 M 197.5447 -7.2878 L 203.1856 9.2705 M 198.3682 -4.8615 L 203.9707 11.7098 M 199.1863 -2.4327 L 204.7525 14.1508 M 200.0000 0 L 205.5317 16.5951 M 200.8137 2.4327 L 206.3799 19.0162 M 201.6318 4.8615 L 207.2344 21.4328 M 202.4553 7.2878 L 208.0962 23.8461 M 203.2852 9.7143 L 208.9665 26.2587 M 204.1201 12.1356 L 209.8442 28.6653 M 204.9627 14.5582 L 210.7319 31.0722 M 205.8111 16.9756 L 211.6281 33.4728 M 206.6675 19.3926 L 212.5351 35.8718 M 207.5307 21.8047 L 213.4521 38.2647 M 208.4029 24.2162 L 214.3813 40.6556 M 209.2826 26.6213 L 215.3216 43.0386 M 210.1729 29.0271 L 216.2765 45.4205 M 211.0720 31.4268 L 217.2445 47.7943 M 211.9815 33.8224 L 218.2276 50.1619 M 212.9029 36.2155 L 219.2279 52.5247 M 213.8357 38.6026 L 220.2451 54.8788 M 214.7809 40.9836 L 221.2812 57.2238 M 215.7406 43.3608 L 222.3387 59.5614 M 216.7153 45.7322 L 223.4191 61.8894 M 217.7060 48.0964 L 224.5241 64.2057 M 218.7140 50.4531 L 225.6564 66.5092 M 219.7410 52.8015 L 226.8187 68.7984 M 220.7887 55.1406 L 228.0143 71.0713 M 221.8590 57.4693 L 229.2469 73.3254 M 222.9541 59.7858 L 230.5207 75.5574 M 224.0769 62.0895 L 231.8413 77.7646 M 225.2310 64.3796 L 233.2158 79.9436 M 226.4183 66.6502 L 234.6493 82.0854 M 227.6445 68.9016 L 236.1530 84.1856 M 228.9131 71.1272 L 237.7358 86.2320 M 230.2322 73.3262 L 239.4143 88.2154 M 231.6073 75.4894 L 241.2030 90.1154 M 233.0476 77.6094 L 243.1240 91.9084 M 234.5638 79.6749 L 245.2040 93.5595 M 236.1704 81.6718 L 247.4778 95.0187 M 237.8832 83.5771 L 249.9849 96.2082 M 239.7238 85.3600 L 252.7721 97.0107 M 241.7156 86.9724 L 255.8744 97.2448 M 243.8790 88.3416 L 259.2731 96.6492 M 246.2249 89.3676 L 262.8141 94.9170 M 248.7213 89.9273 L 266.1023 91.9021 M 251.2787 89.9273 L 268.6596 87.9526 M 253.7751 89.3676 L 270.3643 83.8182 M 256.1210 88.3416 L 271.5151 80.0340 M 258.2844 86.9724 L 272.4433 76.6999 M 260.2762 85.3600 L 273.3244 73.7093 M 262.1168 83.5771 L 274.2185 70.9460 M 263.8296 81.6718 L 275.1369 68.3249 M 265.4362 79.6749 L 276.0763 65.7903 M 266.9524 77.6094 L 277.0288 63.3104 M 268.3927 75.4894 L 277.9884 60.8635 M 269.7678 73.3262 L 278.9498 58.4371 M 271.0869 71.1272 L 279.9096 56.0223 M 272.3555 68.9016 L 280.8639 53.6175 M 273.5817 66.6502 L 281.8127 51.2150 M 274.7690 64.3796 L 282.7538 48.8155 M 275.9231 62.0895 L 283.6876 46.4144 M 277.0459 59.7858 L 284.6125 44.0143 M 278.1410 57.4693 L 285.5288 41.6132 M 279.2113 55.1406 L 286.4368 39.2099 M 280.2590 52.8015 L 287.3367 36.8045 M 281.2860 50.4531 L 288.2284 34.3970 M 282.2940 48.0964 L 289.1122 31.9872 M 283.2847 45.7322 L 289.9885 29.5750 M 284.2594 43.3608 L 290.8575 27.1601 M 285.2191 40.9836 L 291.7193 24.7435 M 286.1643 38.6026 L 292.5738 22.3264 M 287.0971 36.2155 L 293.4221 19.9063 M 288.0185 33.8224 L 294.2646 17.4828 M 288.9280 31.4268 L 295.1005 15.0593 M 289.8271 29.0271 L 295.9308 12.6338 M 290.7174 26.6213 L 296.7564 10.2041 M 291.5971 24.2162 L 297.5754 7.7768 M 292.4693 21.8047 L 298.3906 5.3446 M 293.3325 19.3926 L 299.2002 2.9133 M 294.1889 16.9756 L 300.0059 0.4783 M 295.0373 14.5582 L 300.8065 -1.9558 M 295.8799 12.1356 L 301.6039 -4.3941 M 296.7148 9.7143 L 302.3962 -6.8302 M 297.5447 7.2878 L 303.1856 -9.2705 M 298.3682 4.8615 L 303.9707 -11.7098 M 299.1863 2.4327 L 304.7525 -14.1508 M 300.0000 0 L 305.5317 -16.5951"/>
  <path fill="none" stroke="#222222" stroke-opacity="0.7" stroke-width="0.6" d="M 0 0 L 2.5659 17.3035 M 0.8137 2.4327 L 3.3368 19.7425 M 1.6318 4.8615 L 4.1141 22.1772 M 2.4553 7.2878 L 4.8986 24.6091 M 3.2852 9.7143 L 5.6920 27.0406 M 4.1201 12.1356 L 6.4927 29.4667 M 4.9627 14.5582 L 7.3037 31.8936 M 5.8111 16.9756 L 8.1233 34.3148 M 6.6675 19.3926 L 8.9539 36.7352 M 7.5307 21.8047 L 9.7947 39.1503 M 8.4029 24.2162 L 10.6480 41.5643 M 9.2826 26.6213 L 11.5126 43.9713 M 10.1729 29.0271 L 12.3922 46.3785 M 11.0720 31.4268 L 13.2853 48.7789 M 11.9815 33.8224 L 14.1938 51.1746 M 12.9029 36.2155 L 15.1200 53.5672 M 13.8357 38.6026 L 16.0637 55.9529 M 14.7809 40.9836 L 17.0267 58.3316 M 15.7406 43.3608 L 18.0120 60.7054 M 16.7153 45.7322 L 19.0210 63.0723 M 17.7060 48.0964 L 20.0556 65.4306 M 18.7140 50.4531 L 21.1186 67.7798 M 19.7410 52.8015 L 22.2129 70.1187 M 20.7887 55.1406 L 23.3421 72.4460 M 21.8590 57.4693 L 24.5102 74.7600 M 22.9541 59.7858 L 25.7218 77.0582 M 24.0769 62.0895 L 26.9832 79.3391 M 25.2310 64.3796 L 28.3019 81.6007 M 26.4183 66.6502 L 29.6841 83.8354 M 27.6445 68.9016 L 31.1422 86.0411 M 28.9131 71.1272 L 32.6866 88.2081 M 30.2322 73.3262 L 34.3365 90.3307 M 31.6073 75.4894 L 36.1095 92.3928 M 33.0476 77.6094 L 38.0327 94.3767 M 34.5638 79.6749 L 40.1399 96.2551 M 36.1704 81.6718 L 42.4775 97.9880 M 37.8832 83.5771 L 45.1029 99.5104 M 39.7238 85.3600 L 48.0921 100.7212 M 41.7156 86.9724 L 51.5275 101.4542 M 43.8790 88.3416 L 55.4621 101.4499 M 46.2249 89.3676 L 59.8313 100.3614 M 48.7213 89.9273 L 64.2818 97.9191 M 51.2787 89.9273 L 68.2156 94.3018 M 53.7751 89.3676 L 71.2480 90.2004 M 56.1210 88.3416 L 73.4882 86.2498 M 58.2844 86.9724 L 75.2416 82.6770 M 60.2762 85.3600 L 76.7396 79.4479 M 62.1168 83.5771 L 78.1025 76.4741 M 63.8296 81.6718 L 79.3880 73.6762 M 65.4362 79.6749 L 80.6241 70.9960 M 66.9524 77.6094 L 81.8233 68.3978 M 68.3927 75.4894 L 82.9933 65.8552 M 69.7678 73.3262 L 84.1382 63.3519 M 71.0869 71.1272 L 85.2611 60.8760 M 72.3555 68.9016 L 86.3626 58.4231 M 73.5817 66.6502 L 87.4460 55.9836 M 74.7690 64.3796 L 88.5115 53.5565 M 75.9231 62.0895 L 89.5617 51.1357 M 77.0459 59.7858 L 90.5961 48.7229 M 78.1410 57.4693 L 91.6162 46.3152 M 79.2113 55.1406 L 92.6232 43.9105 M 80.2590 52.8015 L 93.6179 41.5083 M 81.2860 50.4531 L 94.6010 39.1082 M 82.2940 48.0964 L 95.5730 36.7094 M 83.2847 45.7322 L 96.5347 34.3115 M 84.2594 43.3608 L 97.4869 31.9139 M 85.2191 40.9836 L 98.4297 29.5173 M 86.1643 38.6026 L 99.3631 27.1227 M 87.0971 36.2155 L 100.2886 24.7273 M 88.0185 33.8224 L 101.2069 22.3305 M 88.9280 31.4268 L 102.1170 19.9357 M 89.8271 29.0271 L 103.0202 17.5407 M 90.7174 26.6213 L 103.9175 15.1430 M 91.5971 24.2162 L 104.8071 12.7493 M 92.4693 21.8047 L 105.6918 10.3521 M 93.3325 19.3926 L 106.5699 7.9572 M 94.1889 16.9756 L 107.4432 5.5598 M 95.0373 14.5582 L 108.3106 3.1645 M 95.8799 12.1356 L 109.1739 0.7662 M 96.7148 9.7143 L 110.0313 -1.6289 M 97.5447 7.2878 L 110.8851 -4.0273 M 98.3682 4.8615 L 111.7339 -6.4236 M 99.1863 2.4327 L 112.5786 -8.8208 M 100.0000 0 L 113.4201 -11.2203 M 100.8137 -2.4327 L 114.3080 -13.5637 M 101.6318 -4.8615 L 115.2010 -15.9012 M 102.4553 -7.2878 L 116.0999 -18.2340 M 103.2852 -9.7143 L 117.0061 -20.5647 M 104.1201 -12.1356 L 117.9182 -22.8878 M 104.9627 -14.5582 L 118.8388 -25.2095 M 105.8111 -16.9756 L 119.7661 -27.5232 M 106.6675 -19.3926 L 120.7026 -29.8334 M 107.5307 -21.8047 L 121.6470 -32.1355 M 108.4029 -24.2162 L 122.6016 -34.4335 M 109.2826 -26.6213 L 123.5650 -36.7212 M 110.1729 -29.0271 L 124.5406 -39.0053 M 111.0720 -31.4268 L 125.5266 -41.2787 M 111.9815 -33.8224 L 126.5248 -43.5429 M 112.9029 -36.2155 L 127.5367 -45.7992 M 113.8357 -38.6026 L 128.5622 -48.0432 M 114.7809 -40.9836 L 129.6024 -50.2745 M 115.7406 -43.3608 L 130.6596 -52.4941 M 116.7153 -45.7322 L 131.7347 -54.6995 M 117.7060 -48.0964 L 132.8288 -56.8883 M 118.7140 -50.4531 L 133.9436 -59.0586 M 119.7410 -52.8015 L 135.0812 -61.2083 M 120.7887 -55.1406 L 136.2436 -63.3346 M 121.8590 -57.4693 L 137.4332 -65.4342 M 122.9541 -59.7858 L 138.6526 -67.5028 M 124.0769 -62.0895 L 139.9054 -69.5363 M 125.2310 -64.3796 L 141.1957 -71.5297 M 126.4183 -66.6502 L 142.5258 -73.4724 M 127.6445 -68.9016 L 143.9022 -75.3578 M 128.9131 -71.1272 L 145.3286 -77.1711 M 130.2322 -73.3262 L 146.8133 -78.8997 M 131.6073 -75.4894 L 148.3612 -80.5197 M 133.0476 -77.6094 L 149.9796 -82.0030 M 134.5638 -79.6749 L 151.6747 -83.3101 M 136.1704 -81.6718 L 153.4513 -84.3859 M 137.8832 -83.5771 L 155.3050 -85.1509 M 139.7238 -85.3600 L 157.2161 -85.4931 M 141.7156 -86.9724 L 159.1241 -85.2578 M 143.8790 -88.3416 L 160.8889 -84.2600 M 146.2249 -89.3676 L 162.2531 -82.3609 M 148.7213 -89.9273 L 162.8934 -79.6732 M 151.2787 -89.9273 L 162.7290 -76.7029 M 153.7751 -89.3676 L 162.1520 -74.0111 M 156.1210 -88.3416 L 161.6696 -71.7522 M 158.2844 -86.9724 L 161.5097 -69.7796 M 160.2762 -85.3600 L 161.6681 -67.9227 M 162.1168 -83.5771 L 162.0673 -66.0844 M 163.8296 -81.6718 L 162.6319 -64.2201 M 165.4362 -79.6749 L 163.3061 -62.3123 M 166.9524 -77.6094 L 164.0512 -60.3589 M 168.3927 -75.4894 L 164.8418 -58.3609 M 169.7678 -73.3262 L 165.6607 -56.3225 M 171.0869 -71.1272 L 166.4967 -54.2474 M 172.3555 -68.9016 L 167.3408 -52.1430 M 173.5817 -66.6502 L 168.1893 -50.0093 M 174.7690 -64.3796 L 169.0375 -47.8524 M 175.9231 -62.0895 L 169.8843 -45.6722 M 177.0459 -59.7858 L 170.7265 -43.4745 M 178.1410 -57.4693 L 171.5637 -41.2602 M 179.2113 -55.1406 L 172.3954 -39.0304 M 180.2590 -52.8015 L 173.2211 -36.7869 M 181.2860 -50.4531 L 174.0406 -34.5314 M 182.2940 -48.0964 L 174.8537 -32.2649 M 183.2847 -45.7322 L 175.6605 -29.9884 M 184.2594 -43.3608 L 176.4611 -27.7025 M 185.2191 -40.9836 L 177.2554 -25.4088 M 186.1643 -38.6026 L 178.0431 -23.1093 M 187.0971 -36.2155 L 178.8254 -20.8021 M 188.0185 -33.8224 L 179.6024 -18.4872 M 188.9280 -31.4268 L 180.3734 -16.1685 M 189.8271 -29.0271 L 181.1392 -13.8444 M 190.7174 -26.6213 L 181.9008 -11.5130 M 191.5971 -24.2162 L 182.6562 -9.1810 M 192.4693 -21.8047 L 183.4080 -6.8417 M 193.3325 -19.3926 L 184.1546 -4.5009 M 194.1889 -16.9756 L 184.8976 -2.1543 M 195.0373 -14.5582 L 185.6359 0.1934 M 195.8799 -12.1356 L 186.3712 2.5470 M 196.7148 -9.7143 L 187.1016 4.9001 M 197.5447 -7.2878 L 187.8294 7.2590 M 198.3682 -4.8615 L 188.5531 9.6182 M 199.1863 -2.4327 L 189.2738 11.9804 M 200.0000 0 L 189.9920 14.3470 M 200.8137 2.4327 L 190.7702 16.7549 M 201.6318 4.8615 L 191.5546 19.1599 M 202.4553 7.2878 L 192.3459 21.5636 M 203.2852 9.7143 L 193.1457 23.9687 M 204.1201 12.1356 L 193.9526 26.3700 M 204.9627 14.5582 L 194.7692 28.7740 M 205.8111 16.9756 L 195.5940 31.1744 M 206.6675 19.3926 L 196.4293 33.5762 M 207.5307 21.8047 L 197.2742 35.9750 M 208.4029 24.2162 L 198.1310 38.3754 M 209.2826 26.6213 L 198.9984 40.7716 M 210.1729 29.0271 L 199.8799 43.1711 M 211.0720 31.4268 L 200.7741 45.5671 M 211.9815 33.8224 L 201.6828 47.9621 M 212.9029 36.2155 L 202.6081 50.3581 M 213.8357 38.6026 L 203.5498 52.7517 M 214.7809 40.9836 L 204.5096 55.1433 M 215.7406 43.3608 L 205.4902 57.5355 M 216.7153 45.7322 L 206.4929 59.9272 M 217.7060 48.0964 L 207.5196 62.3173 M 218.7140 50.4531 L 208.5727 64.7062 M 219.7410 52.8015 L 209.6552 67.0938 M 220.7887 55.1406 L 210.7703 69.4803 M 221.8590 57.4693 L 211.9218 71.8654 M 222.9541 59.7858 L 213.1142 74.2487 M 224.0769 62.0895 L 214.3534 76.6309 M 225.2310 64.3796 L 215.6469 79.0131 M 226.4183 66.6502 L 217.0006 81.3914 M 227.6445 68.9016 L 218.4268 83.7686 M 228.9131 71.1272 L 219.9363 86.1409 M 230.2322 73.3262 L 221.5484 88.5113 M 231.6073 75.4894 L 223.2823 90.8741 M 233.0476 77.6094 L 225.1672 93.2265 M 234.5638 79.6749 L 227.2417 95.5614 M 236.1704 81.6718 L 229.5612 97.8679 M 237.8832 83.5771 L 232.2005 100.1211 M 239.7238 85.3600 L 235.2692 102.2760 M 241.7156 86.9724 L 238.9145 104.2394 M 243.8790 88.3416 L 243.3088 105.8251 M 246.2249 89.3676 L 248.5774 106.7014 M 248.7213 89.9273 L 254.5553 106.4186 M 251.2787 89.9273 L 260.5962 104.7321 M 253.7751 89.3676 L 265.9129 101.9640 M 256.1210 88.3416 L 270.1890 98.7382 M 258.2844 86.9724 L 273.5663 95.4848 M 260.2762 85.3600 L 276.3083 92.3576 M 262.1168 83.5771 L 278.6187 89.3806 M 263.8296 81.6718 L 280.6333 86.5329 M 265.4362 79.6749 L 282.4393 83.7847 M 266.9524 77.6094 L 284.0904 81.1141 M 268.3927 75.4894 L 285.6242 78.5013 M 269.7678 73.3262 L 287.0652 75.9328 M 271.0869 71.1272 L 288.4317 73.3977 M 272.3555 68.9016 L 289.7346 70.8921 M 273.5817 66.6502 L 290.9861 68.4058 M 274.7690 64.3796 L 292.1922 65.9379 M 275.9231 62.0895 L 293.3604 63.4814 M 277.0459 59.7858 L 294.4938 61.0377 M 278.1410 57.4693 L 295.5969 58.6034 M 279.2113 55.1406 L 296.6733 56.1760 M 280.2590 52.8015 L 297.7257 53.7546 M 281.2860 50.4531 L 298.7563 51.3384 M 282.2940 48.0964 L 299.7671 48.9264 M 283.2847 45.7322 L 300.7598 46.5178 M 284.2594 43.3608 L 301.7360 44.1119 M 285.2191 40.9836 L 302.6968 41.7090 M 286.1643 38.6026 L 303.6428 39.3099 M 287.0971 36.2155 L 304.5760 36.9119 M 288.0185 33.8224 L 305.4976 34.5139 M 288.9280 31.4268 L 306.4070 32.1193 M 289.8271 29.0271 L 307.3059 29.7258 M 290.7174 26.6213 L 308.1958 27.3308 M 291.5971 24.2162 L 309.0748 24.9408 M 292.4693 21.8047 L 309.9462 22.5482 M 293.3325 19.3926 L 310.8085 20.1588 M 294.1889 16.9756 L 311.6637 17.7677 M 295.0373 14.5582 L 312.5108 15.3794 M 295.8799 12.1356 L 313.3518 12.9887 M 296.7148 9.7143 L 314.1850 10.6018 M 297.5447 7.2878 L 315.0130 8.2122 M 298.3682 4.8615 L 315.8343 5.8251 M 299.1863 2.4327 L 316.6502 3.4376 M 300.0000 0 L 317.4613 1.0481"/>
  <path fill="none" stroke="#00aaff" stroke-opacity="0.6" stroke-width="0.6" d=""/>
  
  <path fill="none" stroke="#8844ff" stroke-opacity="0.35" stroke-width="0.6" d="M -8.9026 1.3202 L -8.0922 3.7309 L -7.2771 6.1386 L -6.4565 8.5449 L -5.6292 10.9526 L -4.7967 13.3563 L -3.9563 15.7626 L -3.1099 18.1652 L -2.2553 20.5689 L -1.3936 22.9695 L -0.5226 25.3713 L 0.3560 27.7687 L 1.2456 30.1690 L 2.1443 32.5655 L 3.0538 34.9606 L 3.9755 37.3562 L 4.9090 39.7489 L 5.8554 42.1391 L 6.8168 44.5294 L 7.7938 46.9185 L 8.7875 49.3053 L 9.7994 51.6902 L 10.8313 54.0732 L 11.8851 56.4543 L 12.9630 58.8333 L 14.0675 61.2098 L 15.2019 63.5848 L 16.3708 65.9595 L 17.5765 68.3305 L 18.8263 70.7011 L 20.1250 73.0687 L 21.4835 75.4378 L 22.9105 77.8058 L 24.4208 80.1742 L 26.0333 82.5438 L 27.7758 84.9168 L 29.6855 87.2916 L 31.8205 89.6655 L 34.2647 92.0206 L 37.1348 94.3011 L 40.5686 96.3681 L 44.6096 97.9332 L 49.0280 98.6414 L 53.3466 98.3574 L 57.1972 97.2770 L 60.4944 95.6968 L 63.3179 93.8304 L 65.7713 91.8017 L 67.9433 89.6766 L 69.9014 87.4891 L 71.6917 85.2604 L 73.3495 83.0014 L 74.8995 80.7198 L 76.3611 78.4198 L 77.7466 76.1082 L 79.0697 73.7834 L 80.3375 71.4501 L 81.5589 69.1065 L 82.7378 66.7574 L 83.8797 64.4023 L 84.9892 62.0411 L 86.0693 59.6746 L 87.1230 57.3036 L 88.1527 54.9285 L 89.1606 52.5493 L 90.1488 50.1663 L 91.1185 47.7805 L 92.0707 45.3933 L 93.0078 43.0026 L 93.9310 40.6078 L 94.8402 38.2125 L 95.7369 35.8150 L 96.6230 33.4128 L 97.4968 31.0128 L 98.3616 28.6076 L 99.2160 26.2032 L 100.0623 23.7949 L 100.8993 21.3873 L 101.7295 18.9754 L 102.5509 16.5656 L 103.3663 14.1514 L 104.1743 11.7381 L 104.9762 9.3231 L 105.7729 6.9046 L 106.5406 4.5101 L 107.3118 2.1198 L 108.0871 -0.2676 L 108.8677 -2.6549 L 109.6521 -5.0366 L 110.4428 -7.4189 L 111.2379 -9.7957 L 112.0393 -12.1715 L 112.8460 -14.5419 L 113.6597 -16.9110 L 114.4789 -19.2730 L 115.3066 -21.6349 L 116.1408 -23.9899 L 116.9827 -26.3399 L 117.8337 -28.6864 L 118.6929 -31.0258 L 119.5610 -33.3580 L 120.4397 -35.6849 L 121.3290 -38.0047 L 122.2294 -40.3158 L 123.1415 -42.6175 L 124.0663 -44.9089 L 125.0045 -47.1891 L 125.9570 -49.4564 L 126.9245 -51.7090 L 127.9082 -53.9458 L 128.9097 -56.1657 L 129.9283 -58.3629 L 130.9662 -60.5370 L 132.0227 -62.6814 L 133.0998 -64.7953 L 134.1954 -66.8696 L 135.3081 -68.8979 L 136.4341 -70.8714 L 137.5668 -72.7808 L 138.6930 -74.6136 L 139.7923 -76.3603 L 140.8334 -78.0157 L 141.7790 -79.5900 L 142.6200 -81.1211 L 143.4456 -82.6358 L 144.4747 -84.0362 L 145.8742 -85.0577 L 147.5857 -85.4869 L 149.4387 -85.3130 L 151.3047 -84.6438 L 153.1168 -83.6025 L 154.8507 -82.2880 L 156.5031 -80.7708 L 158.0770 -79.1020 L 159.5801 -77.3163 L 161.0193 -75.4393 L 162.4023 -73.4888 L 163.7332 -71.4816 L 165.0200 -69.4246 L 166.2658 -67.3284 L 167.4765 -65.1965 L 168.6537 -63.0372 L 169.8014 -60.8533 L 170.9226 -58.6474 L 172.0195 -56.4224 L 173.0943 -54.1808 L 174.1487 -51.9245 L 175.1845 -49.6548 L 176.2032 -47.3730 L 177.2059 -45.0809 L 178.1930 -42.7809 L 179.1669 -40.4713 L 180.1286 -38.1524 L 181.0776 -35.8281 L 182.0156 -33.4971 L 182.9442 -31.1575 L 183.8615 -28.8163 L 184.7708 -26.4667 L 185.6708 -24.1146 L 186.5634 -21.7559 L 187.4476 -19.3952 L 188.3257 -17.0279 L 189.1957 -14.6603 L 190.0605 -12.2863 L 190.9184 -9.9113 L 191.7708 -7.5327 L 192.6185 -5.1491 L 193.4449 -2.7346 L 194.2753 -0.3233 L 195.1104 2.0866 L 195.9513 4.4975 L 196.7966 6.9044 L 197.6487 9.3136 L 198.5058 11.7189 L 199.3700 14.1250 L 200.2401 16.5277 L 201.1180 18.9313 L 202.0023 21.3301 L 202.8958 23.7314 L 203.7968 26.1285 L 204.7066 28.5237 L 205.6265 30.9189 L 206.5560 33.3105 L 207.4958 35.6990 L 208.4477 38.0869 L 209.4120 40.4728 L 210.3893 42.8555 L 211.3808 45.2354 L 212.3876 47.6123 L 213.4110 49.9861 L 214.4523 52.3566 L 215.5130 54.7232 L 216.5953 57.0868 L 217.7021 59.4485 L 218.8340 61.8048 L 219.9955 64.1590 L 221.1886 66.5086 L 222.4195 68.8584 L 223.6919 71.2062 L 225.0126 73.5549 L 226.3902 75.9077 L 227.8375 78.2714 L 229.3714 80.6533 L 231.0205 83.0681 L 232.8317 85.5312 L 234.8838 88.0482 L 237.3067 90.5780 L 240.2366 92.9289 L 243.6616 94.7212 L 247.2943 95.6125 L 250.7720 95.5796 L 253.9048 94.8349 L 256.6759 93.6085 L 259.1309 92.0673 L 261.3286 90.3173 L 263.3217 88.4230 L 265.1492 86.4269 L 266.8431 84.3550 L 268.4267 82.2258 L 269.9187 80.0510 L 271.3313 77.8431 L 272.6784 75.6047 L 273.9673 73.3438 L 275.2070 71.0610 L 276.4018 68.7628 L 277.5575 66.4504 L 278.6786 64.1248 L 279.7686 61.7881 L 280.8305 59.4416 L 281.8670 57.0863 L 282.8805 54.7231 L 283.8730 52.3525 L 284.8459 49.9759 L 285.8004 47.5952 L 286.7388 45.2084 L 287.6627 42.8153 L 288.5717 40.4197 L 289.4677 38.0200 L 290.3524 35.6139 L 291.2243 33.2085 L 292.0867 30.7965 L 292.9383 28.3839 L 293.7813 25.9663 L 294.6148 23.5482 L 295.4410 21.1249 L 296.2582 18.7027 L 297.0691 16.2752 L 297.8724 13.8478 L 298.6693 11.4179 L 299.4608 8.9838 L 300.5392 -8.9838 L 299.7033 -6.5524 L 298.8639 -4.1248 L 298.0204 -1.6996 L 297.1715 0.7259 L 296.3188 3.1463 L 295.4598 5.5681 L 294.5965 7.9848 L 293.7267 10.4012 L 292.8518 12.8128 L 291.9699 15.2239 L 291.0824 17.6287 L 290.1866 20.0343 L 289.2843 22.4338 L 288.3743 24.8294 L 287.4554 27.2227 L 286.5283 29.6100 L 285.5923 31.9914 L 284.6459 34.3691 L 283.6889 36.7412 L 282.7210 39.1066 L 281.7415 41.4646 L 280.7494 43.8148 L 279.7440 46.1564 L 278.7244 48.4882 L 277.6900 50.8089 L 276.6392 53.1180 L 275.5707 55.4154 L 274.4850 57.6956 L 273.3796 59.9600 L 272.2551 62.2033 L 271.1088 64.4267 L 269.9423 66.6238 L 268.7556 68.7919 L 267.5507 70.9268 L 266.3306 73.0263 L 265.1027 75.0868 L 263.8764 77.1115 L 262.6640 79.1099 L 261.4700 81.1037 L 260.2559 83.1227 L 258.8957 85.1335 L 257.2061 86.9258 L 255.1431 88.1572 L 252.8742 88.6350 L 250.5994 88.4136 L 248.4271 87.6519 L 246.3951 86.5008 L 244.5033 85.0722 L 242.7375 83.4421 L 241.0826 81.6639 L 239.5227 79.7726 L 238.0450 77.7941 L 236.6377 75.7458 L 235.2936 73.6441 L 234.0026 71.4956 L 232.7599 69.3106 L 231.5584 67.0922 L 230.3952 64.8484 L 229.2658 62.5820 L 228.1665 60.2951 L 227.0944 57.9906 L 226.0472 55.6708 L 225.0226 53.3373 L 224.0186 50.9916 L 223.0335 48.6346 L 222.0660 46.2682 L 221.1154 43.8947 L 220.1792 41.5122 L 219.2564 39.1210 L 218.3472 36.7250 L 217.4499 34.3228 L 216.5629 31.9126 L 215.6878 29.5011 L 214.8214 27.0816 L 213.9650 24.6601 L 213.1164 22.2322 L 212.2767 19.8027 L 211.4437 17.3668 L 210.6190 14.9310 L 209.8001 12.4890 L 208.9884 10.0462 L 208.1824 7.6001 L 207.3815 5.1491 L 206.6018 2.6673 L 205.8179 0.1883 L 205.0290 -2.2893 L 204.2339 -4.7683 L 203.4341 -7.2434 L 202.6270 -9.7211 L 201.8144 -12.1952 L 200.9943 -14.6705 L 200.1677 -17.1426 L 199.3326 -19.6161 L 198.4907 -22.0852 L 197.6386 -24.5572 L 196.7784 -27.0255 L 195.9084 -29.4923 L 195.0273 -31.9597 L 194.1356 -34.4242 L 193.2323 -36.8863 L 192.3156 -39.3485 L 191.3849 -41.8095 L 190.4393 -44.2684 L 189.4777 -46.7253 L 188.4984 -49.1805 L 187.5000 -51.6339 L 186.4805 -54.0853 L 185.4381 -56.5345 L 184.3698 -58.9825 L 183.2722 -61.4307 L 182.1434 -63.8758 L 180.9777 -66.3215 L 179.7715 -68.7655 L 178.5162 -71.2131 L 177.2053 -73.6625 L 175.8278 -76.1167 L 174.3692 -78.5790 L 172.8085 -81.0556 L 171.1167 -83.5517 L 169.2476 -86.0761 L 167.1301 -88.6318 L 164.6562 -91.1964 L 161.6760 -93.6775 L 158.0826 -95.8185 L 153.9971 -97.2189 L 149.8298 -97.6141 L 145.9790 -97.0932 L 142.5977 -95.9290 L 139.6553 -94.3597 L 137.0735 -92.5406 L 134.7740 -90.5628 L 132.6935 -88.4784 L 130.7871 -86.3209 L 129.0193 -84.1093 L 127.3647 -81.8572 L 125.8035 -79.5729 L 124.3228 -77.2662 L 122.9083 -74.9375 L 121.5523 -72.5934 L 120.2455 -70.2333 L 118.9837 -67.8627 L 117.7611 -65.4822 L 116.5729 -63.0921 L 115.4157 -60.6940 L 114.2865 -58.2887 L 113.1826 -55.8771 L 112.1016 -53.4596 L 111.0415 -51.0366 L 110.0008 -48.6093 L 108.9785 -46.1794 L 107.9721 -43.7446 L 106.9803 -41.3049 L 106.0032 -38.8637 L 105.0391 -36.4193 L 104.0862 -33.9697 L 103.1462 -31.5214 L 102.2155 -29.0675 L 101.2957 -26.6136 L 100.3844 -24.1554 L 99.4826 -21.6974 L 98.5881 -19.2347 L 97.7026 -16.7737 L 96.8234 -14.3080 L 95.9519 -11.8428 L 95.0868 -9.3755 L 94.2271 -6.9046 L 93.3964 -4.4576 L 92.5620 -2.0152 L 91.7231 0.4242 L 90.8788 2.8630 L 90.0303 5.2959 L 89.1753 7.7291 L 88.3155 10.1562 L 87.4490 12.5819 L 86.5769 15.0017 L 85.6973 17.4196 L 84.8118 19.8299 L 83.9174 22.2393 L 83.0158 24.6410 L 82.1060 27.0369 L 81.1864 29.4285 L 80.2579 31.8118 L 79.3197 34.1868 L 78.3700 36.5552 L 77.4088 38.9150 L 76.4354 41.2644 L 75.4490 43.6026 L 74.4487 45.9283 L 73.4334 48.2402 L 72.4022 50.5363 L 71.3540 52.8143 L 70.2874 55.0725 L 69.2005 57.3091 L 68.0937 59.5170 L 66.9643 61.6949 L 65.8127 63.8346 L 64.6360 65.9326 L 63.4359 67.9774 L 62.2130 69.9583 L 60.9709 71.8607 L 59.7158 73.6670 L 58.4623 75.3524 L 57.2344 76.8896 L 56.0744 78.2479 L 55.0447 79.4062 L 54.2036 80.3778 L 53.5293 81.2133 L 52.8331 81.9215 L 51.8812 82.3671 L 50.6232 82.3821 L 49.1665 81.9242 L 47.6272 81.0545 L 46.0809 79.8626 L 44.5651 78.4268 L 43.0943 76.8060 L 41.6744 75.0445 L 40.3041 73.1730 L 38.9810 71.2146 L 37.7012 69.1857 L 36.4628 67.1020 L 35.2600 64.9699 L 34.0912 62.7996 L 32.9518 60.5942 L 31.8407 58.3618 L 30.7551 56.1053 L 29.6923 53.8269 L 28.6507 51.5297 L 27.6286 49.2160 L 26.6244 46.8875 L 25.6368 44.5459 L 24.6644 42.1921 L 23.7064 39.8282 L 22.7624 37.4563 L 21.8303 35.0748 L 20.9092 32.6841 L 19.9997 30.2880 L 19.1001 27.8853 L 18.2091 25.4740 L 17.3285 23.0611 L 16.4550 20.6398 L 15.5903 18.2162 L 14.7321 15.7859 L 13.8817 13.3537 L 13.0370 10.9149 L 12.1996 8.4760 L 11.3670 6.0307 L 10.5408 3.5844 L 9.7196 1.1346 L 8.9026 -1.3202 L -8.9026 1.3202 Z"/>
  
  
  
</g>
</svg>