<svg xmlns="http://www.w3.org/2000/svg" width="335.8418" height="225.6793" viewBox="-16.1120 -109.9901 335.8418 225.6793">
  <path fill="black" stroke="none" fill-rule="nonzero" d="M -6.1120 1.2876 C 3.4421 29.9398 11.4790 61.9520 29.7012 86.7999 C 33.7560 92.3289 39.8088 98.0856 47.1007 98.6083 C 70.4485 100.2819 88.2472 49.9154 92.9086 37.9458 C 100.9761 17.2292 107.5310 -4.0474 115.2037 -24.9134 C 122.1089 -43.6923 126.7447 -54.8826 136.4628 -71.9704 C 137.4228 -73.6584 142.3961 -80.8288 145.3848 -81.8901 C 160.0253 -87.0887 179.5866 -32.0505 180.1735 -30.4870 C 187.7875 -10.2038 194.0291 10.5725 201.4317 30.9337 C 208.6237 50.7160 216.8139 75.6882 232.6838 90.6913 C 238.8313 96.5031 247.3078 97.9438 255.2698 95.2440 C 262.0457 92.9465 268.1660 87.2908 272.3728 81.8101 C 288.6270 60.6342 301.0973 23.3366 308.0008 0.8396 C 309.7298 -4.7949 297.4079 -3.4918 295.4136 -2.5453 C 281.6336 3.9947 283.0491 25.3542 277.5020 39.5630 C 274.1582 48.1283 270.6726 56.6774 266.3496 64.7926 C 256.8895 82.5517 252.5479 91.3907 239.8574 72.0584 C 230.3611 57.5920 222.3860 37.2020 216.5672 21.3784 C 208.9966 0.7910 202.5835 -20.2180 194.7097 -40.6915 C 190.4421 -51.7882 173.4801 -99.9901 151.7575 -97.7076 C 127.3728 -95.1453 112.8015 -53.4970 106.3906 -36.6399 C 98.7247 -16.4830 92.4400 4.1749 85.1024 24.4536 C 82.0436 32.9073 78.8797 41.3373 75.2067 49.5429 C 69.9605 61.2632 65.5485 71.6963 55.9003 80.1142 C 45.4718 89.2127 30.3311 59.8399 21.6794 39.0697 C 15.3501 23.8749 10.6777 8.0230 4.3079 -7.1549 C 2.1196 -12.3691 -3.8961 -6.1539 -4.8610 -4.3544 C -6.0503 -2.1363 -6.0246 -0.7583 -6.1120 1.2876 Z"/>
  <g id="debug">
  <path fill="none" stroke="#ff3366" stroke-opacity="0.6" stroke-width="0.5" d=""/>
  <path fill="none" stroke="#ff9900" stroke-opacity="0.6" stroke-width="0.6" d="M 0 0 L 5.5317 16.5951 M 0.8137 2.4327 L 6.3799 19.0162 M 1.6318 4.8615 L 7.2344 21.4328 M 2.4553 7.2878 L 8.0962 23.8461 M 3.2852 9.7143 L 8.9665 26.2587 M 4.1201 12.1356 L 9.8442 28.6653 M 4.9627 14.5582 L 10.7319 31.0722 M 5.8111 16.9756 L 11.6281 33.4728 M 6.6675 19.3926 L 12.5351 35.8718 M 7.5307 21.8047 L 13.4521 38.2647 M 8.4029 24.2162 L 14.3813 40.6556 M 9.2826 26.6213 L 15.3216 43.0386 M 10.1729 29.0271 L 16.2765 45.4205 M 11.0720 31.4268 L 17.2445 47.7943 M 11.9815 33.8224 L 18.2276 50.1619 M 12.9029 36.2155 L 19.2279 52.5247 M 13.8357 38.6026 L 20.2451 54.8788 M 14.7809 40.9836 L 21.2812 57.2238 M 15.7406 43.3608 L 22.3387 59.5614 M 16.7153 45.7322 L 23.4191 61.8894 M 17.7060 48.0964 L 24.5241 64.2057 M 18.7140 50.4531 L 25.6564 66.5092 M 19.7410 52.8015 L 26.8187 68.7984 M 20.7887 55.1406 L 28.0143 71.0713 M 21.8590 57.4693 L 29.2469 73.3254 M 22.9541 59.7858 L 30.5207 75.5574 M 24.0769 62.0895 L 31.8413 77.7646 M 25.2310 64.3796 L 33.2158 79.9436 M 26.4183 66.6502 L 34.6493 82.0854 M 27.6445 68.9016 L 36.1530 84.1856 M 28.9131 71.1272 L 37.7358 86.2320 M 30.2322 73.3262 L 39.4143 88.2154 M 31.6073 75.4894 L 41.2030 90.1154 M 33.0476 77.6094 L 43.1240 91.9084 M 34.5638 79.6749 L 45.2040 93.5595 M 36.1704 81.6718 L 47.4778 95.0187 M 37.8832 83.5771 L 49.9849 96.2082 M 39.7238 85.3600 L 52.7721 97.0107 M 41.7156 86.9724 L 55.8744 97.2448 M 43.8790 88.3416 L 59.2731 96.6492 M 46.2249 89.3676 L 62.8141 94.9170 M 48.7213 89.9273 L 66.1023 91.9021 M 51.2787 89.9273 L 68.6596 87.9526 M 53.7751 89.3676 L 70.3643 83.8182 M 56.1210 88.3416 L 71.5151 80.0340 M 58.2844 86.9724 L 72.4433 76.6999 M 60.2762 85.3600 L 73.3244 73.7093 M 62.1168 83.5771 L 74.2185 70.9460 M 63.8296 81.6718 L 75.1369 68.3249 M 65.4362 79.6749 L 76.0763 65.7903 M 66.9524 77.6094 L 77.0288 63.3104 M 68.3927 75.4894 L 77.9884 60.8635 M 69.7678 73.3262 L 78.9498 58.4371 M 71.0869 71.1272 L 79.9096 56.0223 M 72.3555 68.9016 L 80.8639 53.6175 M 73.5817 66.6502 L 81.8127 51.2150 M 74.7690 64.3796 L 82.7538 48.8155 M 75.9231 62.0895 L 83.6876 46.4144 M 77.0459 59.7858 L 84.6125 44.0143 M 78.1410 57.4693 L 85.5288 41.6132 M 79.2113 55.1406 L 86.4368 39.2099 M 80.2590 52.8015 L 87.3367 36.8045 M 81.2860 50.4531 L 88.2284 34.3970 M 82.2940 48.0964 L 89.1122 31.9872 M 83.2847 45.7322 L 89.9885 29.5750 M 84.2594 43.3608 L 90.8575 27.1601 M 85.2191 40.9836 L 91.7193 24.7435 M 86.1643 38.6026 L 92.5738 22.3264 M 87.0971 36.2155 L 93.4221 19.9063 M 88.0185 33.8224 L 94.2646 17.4828 M 88.9280 31.4268 L 95.1005 15.0593 M 89.8271 29.0271 L 95.9308 12.6338 M 90.7174 26.6213 L 96.7564 10.2041 M 91.5971 24.2162 L 97.5754 7.7768 M 92.4693 21.8047 L 98.3906 5.3446 M 93.3325 19.3926 L 99.2002 2.9133 M 94.1889 16.9756 L 100.0059 0.4783 M 95.0373 14.5582 L 100.8065 -1.9558 M 95.8799 12.1356 L 101.6039 -4.3941 M 96.7148 9.7143 L 102.3962 -6.8302 M 97.5447 7.2878 L 103.1856 -9.2705 M 98.3682 4.8615 L 103.9707 -11.7098 M 99.1863 2.4327 L 104.7525 -14.1508 M 100.0000 0 L 105.5317 -16.5951 M 100.8137 -2.4327 L 106.3799 -19.0162 M 101.6318 -4.8615 L 107.2344 -21.4328 M 102.4553 -7.2878 L 108.0962 -23.8461 M 103.2852 -9.7143 L 108.9665 -26.2587 M 104.1201 -12.1356 L 109.8442 -28.6653 M 104.9627 -14.5582 L 110.7319 -31.0722 M 105.8111 -16.9756 L 111.6281 -33.4728 M 106.6675 -19.3926 L 112.5351 -35.8718 M 107.5307 -21.8047 L 113.4521 -38.2647 M 108.4029 -24.2162 L 114.3813 -40.6556 M 109.2826 -26.6213 L 115.3216 -43.0386 M 110.1729 -29.0271 L 116.2765 -45.4205 M 111.0720 -31.4268 L 117.2445 -47.7943 M 111.9815 -33.8224 L 118.2276 -50.1619 M 112.9029 -36.2155 L 119.2279 -52.5247 M 113.8357 -38.6026 L 120.2451 -54.8788 M 114.7809 -40.9836 L 121.2812 -57.2238 M 115.7406 -43.3608 L 122.3387 -59.5614 M 116.7153 -45.7322 L 123.4191 -61.8894 M 117.7060 -48.0964 L 124.5241 -64.2057 M 118.7140 -50.4531 L 125.6564 -66.5092 M 119.7410 -52.8015 L 126.8187 -68.7984 M 120.7887 -55.1406 L 128.0143 -71.0713 M 121.8590 -57.4693 L 129.2469 -73.3254 M 122.9541 -59.7858 L 130.5207 -75.5574 M 124.0769 -62.0895 L 131.8413 -77.7646 M 125.2310 -64.3796 L 133.2158 -79.9436 M 126.4183 -66.6502 L 134.6493 -82.0854 M 127.6445 -68.9016 L 136.1530 -84.1856 M 128.9131 -71.1272 L 137.7358 -86.2320 M 130.2322 -73.3262 L 139.4143 -88.2154 M 131.6073 -75.4894 L 141.2030 -90.1154 M 133.0476 -77.6094 L 143.1240 -91.9084 M 134.5638 -79.6749 L 145.2040 -93.5595 M 136.1704 -81.6718 L 147.4778 -95.0187 M 137.8832 -83.5771 L 149.9849 -96.2082 M 139.7238 -85.3600 L 152.7721 -97.0107 M 141.7156 -86.9724 L 155.8744 -97.2448 M 143.8790 -88.3416 L 159.2731 -96.6492 M 146.2249 -89.3676 L 162.8141 -94.9170 M 148.7213 -89.9273 L 166.1023 -91.9021 M 151.2787 -89.9273 L 168.6596 -87.9526 M 153.7751 -89.3676 L 170.3643 -83.8182 M 156.1210 -88.3416 L 171.5151 -80.0340 M 158.2844 -86.9724 L 172.4433 -76.6999 M 160.2762 -85.3600 L 173.3244 -73.7093 M 162.1168 -83.5771 L 174.2185 -70.9460 M 163.8296 -81.6718 L 175.1369 -68.3249 M 165.4362 -79.6749 L 176.0763 -65.7903 M 166.9524 -77.6094 L 177.0288 -63.3104 M 168.3927 -75.4894 L 177.9884 -60.8635 M 169.7678 -73.3262 L 178.9498 -58.4371 M 171.0869 -71.1272 L 179.9096 -56.0223 M 172.3555 -68.9016 L 180.8639 -53.6175 M 173.5817 -66.6502 L 181.8127 -51.2150 M 174.7690 -64.3796 L 182.7538 -48.8155 M 175.9231 -62.0895 L 183.6876 -46.4144 M 177.0459 -59.7858 L 184.6125 -44.0143 M 178.1410 -57.4693 L 185.5288 -41.6132 M 179.2113 -55.1406 L 186.4368 -39.2099 M 180.2590 -52.8015 L 187.3367 -36.8045 M 181.2860 -50.4531 L 188.2284 -34.3970 M 182.2940 -48.0964 L 189.1122 -31.9872 M 183.2847 -45.7322 L 189.9885 -29.5750 M 184.2594 -43.3608 L 190.8575 -27.1601 M 185.2191 -40.9836 L 191.7193 -24.7435 M 186.1643 -38.6026 L 192.5738 -22.3264 M 187.0971 -36.2155 L 193.4221 -19.9063 M 188.0185 -33.8224 L 194.2646 -17.4828 M 188.9280 -31.4268 L 195.1005 -15.0593 M 189.8271 -29.0271 L 195.9308 -12.6338 M 190.7174 -26.6213 L 196.7564 -10.2041 M 191.5971 -24.2162 L 197.5754 -7.7768 M 192.4693 -21.8047 L 198.3906 -5.3446 M 193.3325 -19.3926 L 199.2002 -2.9133 M 194.1889 -16.9756 L 200.0059 -0.4783 M 195.0373 -14.5582 L 200.8065 1.9558 M 195.8799 -12.1356 L 201.6039 4.3941 M 196.7148 -9.7143 L 202.3962 6.8302 M 197.5447 -7.2878 L 203.1856 9.2705 M 198.3682 -4.8615 L 203.9707 11.7098 M 199.1863 -2.4327 L 204.7525 14.1508 M 200.0000 0 L 205.5317 16.5951 M 200.8137 2.4327 L 206.3799 19.0162 M 201.6318 4.8615 L 207.2344 21.4328 M 202.4553 7.2878 L 208.0962 23.8461 M 203.2852 9.7143 L 208.9665 26.2587 M 204.1201 12.1356 L 209.8442 28.6653 M 204.9627 14.5582 L 210.7319 31.0722 M 205.8111 16.9756 L 211.6281 33.4728 M 206.6675 19.3926 L 212.5351 35.8718 M 207.5307 21.8047 L 213.4521 38.2647 M 208.4029 24.2162 L 214.3813 40.6556 M 209.2826 26.6213 L 215.3216 43.0386 M 210.1729 29.0271 L 216.2765 45.4205 M 211.0720 31.4268 L 217.2445 47.7943 M 211.9815 33.8224 L 218.2276 50.1619 M 212.9029 36.2155 L 219.2279 52.5247 M 213.8357 38.6026 L 220.2451 54.8788 M 214.7809 40.9836 L 221.2812 57.2238 M 215.7406 43.3608 L 222.3387 59.5614 M 216.7153 45.7322 L 223.4191 61.8894 M 217.7060 48.0964 L 224.5241 64.2057 M 218.7140 50.4531 L 225.6564 66.5092 M 219.7410 52.8015 L 226.8187 68.7984 M 220.7887 55.1406 L 228.0143 71.0713 M 221.8590 57.4693 L 229.2469 73.3254 M 222.9541 59.7858 L 230.5207 75.5574 M 224.0769 62.0895 L 231.8413 77.7646 M 225.2310 64.3796 L 233.2158 79.9436 M 226.4183 66.6502 L 234.6493 82.0854 M 227.6445 68.9016 L 236.1530 84.1856 M 228.9131 71.1272 L 237.7358 86.2320 M 230.2322 73.3262 L 239.4143 88.2154 M 231.6073 75.4894 L 241.2030 90.1154 M 233.0476 77.6094 L 243.1240 91.9084 M 234.5638 79.6749 L 245.2040 93.5595 M 236.1704 81.6718 L 247.4778 95.0187 M 237.8832 83.5771 L 249.9849 96.2082 M 239.7238 85.3600 L 252.7721 97.0107 M 241.7156 86.9724 L 255.8744 97.2448 M 243.8790 88.3416 L 259.2731 96.6492 M 246.2249 89.3676 L 262.8141 94.9170 M 248.7213 89.9273 L 266.1023 91.9021 M 251.2787 89.9273 L 268.6596 87.9526 M 253.7751 89.3676 L 270.3643 83.8182 M 256.1210 88.3416 L 271.5151 80.0340 M 258.2844 86.9724 L 272.4433 76.6999 M 260.2762 85.3600 L 273.3244 73.7093 M 262.1168 83.5771 L 274.2185 70.9460 M 263.8296 81.6718 L 275.1369 68.3249 M 265.4362 79.6749 L 276.0763 65.7903 M 266.9524 77.6094 L 277.0288 63.3104 M 268.3927 75.4894 L 277.9884 60.8635 M 269.7678 73.3262 L 278.9498 58.4371 M 271.0869 71.1272 L 279.9096 56.0223 M 272.3555 68.9016 L 280.8639 53.6175 M 273.5817 66.6502 L 281.8127 51.2150 M 274.7690 64.3796 L 282.7538 48.8155 M 275.9231 62.0895 L 283.6876 46.4144 M 277.0459 59.7858 L 284.6125 44.0143 M 278.1410 57.4693 L 285.5288 41.6132 M 279.2113 55.1406 L 286.4368 39.2099 M 280.2590 52.8015 L 287.3367 36.8045 M 281.2860 50.4531 L 288.2284 34.3970 M 282.2940 48.0964 L 289.1122 31.9872 M 283.2847 45.7322 L 289.9885 29.5750 M 284.2594 43.3608 L 290.8575 27.1601 M 285.2191 40.9836 L 291.7193 24.7435 M 286.1643 38.6026 L 292.5738 22.3264 M 287.0971 36.2155 L 293.4221 19.9063 M 288.0185 33.8224 L 294.2646 17.4828 M 288.9280 31.4268 L 295.1005 15.0593 M 289.8271 29.0271 L 295.9308 12.6338 M 290.7174 26.6213 L 296.7564 10.2041 M 291.5971 24.2162 L 297.5754 7.7768 M 292.4693 21.8047 L 298.3906 5.3446 M 293.3325 19.3926 L 299.2002 2.9133 M 294.1889 16.9756 L 300.0059 0.4783 M 295.0373 14.5582 L 300.8065 -1.9558 M 295.8799 12.1356 L 301.6039 -4.3941 M 296.7148 9.7143 L 302.3962 -6.8302 M 297.5447 7.2878 L 303.1856 -9.2705 M 298.3682 4.8615 L 303.9707 -11.7098 M 299.1863 2.4327 L 304.7525 -14.1508 M 300.0000 0 L 305.5317 -16.5951"/>
  <path fill="none" stroke="#222222" stroke-opacity="0.7" stroke-width="0.6" d="M 0 0 L 17.2270 3.0376 M 0.8137 2.4327 L 18.0267 5.5488 M 1.6318 4.8615 L 18.8304 8.0559 M 2.4553 7.2878 L 19.6391 10.5606 M 3.2852 9.7143 L 20.4539 13.0653 M 4.1201 12.1356 L 21.2734 15.5648 M 4.9627 14.5582 L 22.1002 18.0655 M 5.8111 16.9756 L 22.9325 20.5609 M 6.6675 19.3926 L 23.7723 23.0559 M 7.5307 21.8047 L 24.6187 25.5459 M 8.4029 24.2162 L 25.4737 28.0352 M 9.2826 26.6213 L 26.3358 30.5181 M 10.1729 29.0271 L 27.2081 33.0016 M 11.0720 31.4268 L 28.0890 35.4788 M 11.9815 33.8224 L 28.9798 37.9518 M 12.9029 36.2155 L 29.8822 40.4224 M 13.8357 38.6026 L 30.7957 42.8868 M 14.7809 40.9836 L 31.7212 45.3451 M 15.7406 43.3608 L 32.6608 47.7993 M 16.7153 45.7322 L 33.6152 50.2478 M 17.7060 48.0964 L 34.5851 52.6890 M 18.7140 50.4531 L 35.5720 55.1225 M 19.7410 52.8015 L 36.5776 57.5476 M 20.7887 55.1406 L 37.6035 59.9634 M 21.8590 57.4693 L 38.6517 62.3687 M 22.9541 59.7858 L 39.7242 64.7617 M 24.0769 62.0895 L 40.8241 67.1417 M 25.2310 64.3796 L 41.9551 69.5080 M 26.4183 66.6502 L 43.1188 71.8548 M 27.6445 68.9016 L 44.3212 74.1822 M 28.9131 71.1272 L 45.5655 76.4837 M 30.2322 73.3262 L 46.8601 78.7586 M 31.6073 75.4894 L 48.2102 80.9975 M 33.0476 77.6094 L 49.6253 83.1930 M 34.5638 79.6749 L 51.1159 85.3340 M 36.1704 81.6718 L 52.6965 87.4063 M 37.8832 83.5771 L 54.3830 89.3868 M 39.7238 85.3600 L 56.1970 91.2448 M 41.7156 86.9724 L 58.1618 92.9322 M 43.8790 88.3416 L 60.2979 94.3763 M 46.2249 89.3676 L 62.6161 95.4770 M 48.7213 89.9273 L 65.0845 96.1114 M 51.2787 89.9273 L 67.6135 96.1859 M 53.7751 89.3676 L 70.0812 95.7005 M 56.1210 88.3416 L 72.3981 94.7487 M 58.2844 86.9724 L 74.5322 93.4536 M 60.2762 85.3600 L 76.4942 91.9152 M 62.1168 83.5771 L 78.3048 90.2061 M 63.8296 81.6718 L 79.9872 88.3745 M 65.4362 79.6749 L 81.5631 86.4511 M 66.9524 77.6094 L 83.0483 84.4590 M 68.3927 75.4894 L 84.4572 82.4123 M 69.7678 73.3262 L 85.8006 80.3222 M 71.0869 71.1272 L 87.0877 78.1962 M 72.3555 68.9016 L 88.3239 76.0434 M 73.5817 66.6502 L 89.5174 73.8647 M 74.7690 64.3796 L 90.6717 71.6666 M 75.9231 62.0895 L 91.7925 69.4489 M 77.0459 59.7858 L 92.8815 67.2175 M 78.1410 57.4693 L 93.9426 64.9730 M 79.2113 55.1406 L 94.9785 62.7162 M 80.2590 52.8015 L 95.9916 60.4488 M 81.2860 50.4531 L 96.9836 58.1721 M 82.2940 48.0964 L 97.9563 55.8868 M 83.2847 45.7322 L 98.9113 53.5938 M 84.2594 43.3608 L 99.8500 51.2935 M 85.2191 40.9836 L 100.7734 48.9874 M 86.1643 38.6026 L 101.6820 46.6771 M 87.0971 36.2155 L 102.5778 44.3607 M 88.0185 33.8224 L 103.4619 42.0379 M 88.9280 31.4268 L 104.3339 39.7126 M 89.8271 29.0271 L 105.1951 37.3831 M 90.7174 26.6213 L 106.0471 35.0472 M 91.5971 24.2162 L 106.8882 32.7119 M 92.4693 21.8047 L 107.7216 30.3699 M 93.3325 19.3926 L 108.5456 28.0272 M 94.1889 16.9756 L 109.3625 25.6794 M 95.0373 14.5582 L 110.1711 23.3311 M 95.8799 12.1356 L 110.9736 20.9774 M 96.7148 9.7143 L 111.7681 18.6247 M 97.5447 7.2878 L 112.5572 16.2667 M 98.3682 4.8615 L 113.3396 13.9087 M 99.1863 2.4327 L 114.1163 11.5481 M 100.0000 0 L 114.8884 9.1833 M 100.8137 -2.4327 L 115.6601 6.8183 M 101.6318 -4.8615 L 116.4359 4.4571 M 102.4553 -7.2878 L 117.2167 2.0981 M 103.2852 -9.7143 L 118.0037 -0.2612 M 104.1201 -12.1356 L 118.7954 -2.6156 M 104.9627 -14.5582 L 119.5945 -4.9714 M 105.8111 -16.9756 L 120.3991 -7.3222 M 106.6675 -19.3926 L 121.2113 -9.6728 M 107.5307 -21.8047 L 122.0301 -12.0188 M 108.4029 -24.2162 L 122.8576 -14.3644 M 109.2826 -26.6213 L 123.6922 -16.7037 M 110.1729 -29.0271 L 124.5371 -19.0440 M 111.0720 -31.4268 L 125.3906 -21.3783 M 111.9815 -33.8224 L 126.2542 -23.7087 M 112.9029 -36.2155 L 127.1294 -26.0370 M 113.8357 -38.6026 L 128.0156 -28.3593 M 114.7809 -40.9836 L 128.9141 -30.6759 M 115.7406 -43.3608 L 129.8266 -32.9887 M 116.7153 -45.7322 L 130.7540 -35.2961 M 117.7060 -48.0964 L 131.6969 -37.5965 M 118.7140 -50.4531 L 132.6570 -39.8895 M 119.7410 -52.8015 L 133.6357 -42.1745 M 120.7887 -55.1406 L 134.6349 -44.4504 M 121.8590 -57.4693 L 135.6563 -46.7161 M 122.9541 -59.7858 L 136.7023 -48.9699 M 124.0769 -62.0895 L 137.7756 -51.2111 M 125.2310 -64.3796 L 138.8800 -53.4388 M 126.4183 -66.6502 L 140.0173 -55.6474 M 127.6445 -68.9016 L 141.1933 -57.8369 M 128.9131 -71.1272 L 142.4113 -60.0009 M 130.2322 -73.3262 L 143.6796 -62.1386 M 131.6073 -75.4894 L 145.0036 -64.2406 M 133.0476 -77.6094 L 146.3925 -66.2996 M 134.5638 -79.6749 L 147.8571 -68.3045 M 136.1704 -81.6718 L 149.4117 -70.2410 M 137.8832 -83.5771 L 151.0723 -72.0860 M 139.7238 -85.3600 L 152.8604 -73.8090 M 141.7156 -86.9724 L 154.7994 -75.3616 M 143.8790 -88.3416 L 156.9098 -76.6714 M 146.2249 -89.3676 L 159.2024 -77.6381 M 148.7213 -89.9273 L 161.6452 -78.1388 M 151.2787 -89.9273 L 164.1487 -78.0801 M 153.7751 -89.3676 L 166.5910 -77.4618 M 156.1210 -88.3416 L 168.8825 -76.3776 M 158.2844 -86.9724 L 170.9913 -74.9503 M 160.2762 -85.3600 L 172.9282 -73.2802 M 162.1168 -83.5771 L 174.7136 -71.4397 M 163.8296 -81.6718 L 176.3710 -69.4772 M 165.4362 -79.6749 L 177.9219 -67.4233 M 166.9524 -77.6094 L 179.3822 -65.3010 M 168.3927 -75.4894 L 180.7662 -63.1245 M 169.7678 -73.3262 L 182.0849 -60.9051 M 171.0869 -71.1272 L 183.3473 -58.6500 M 172.3555 -68.9016 L 184.5589 -56.3687 M 173.5817 -66.6502 L 185.7279 -54.0619 M 174.7690 -64.3796 L 186.8577 -51.7360 M 175.9231 -62.0895 L 187.9541 -49.3910 M 177.0459 -59.7858 L 189.0189 -47.0327 M 178.1410 -57.4693 L 190.0557 -44.6617 M 179.2113 -55.1406 L 191.0676 -42.2789 M 180.2590 -52.8015 L 192.0566 -39.8858 M 181.2860 -50.4531 L 193.0246 -37.4839 M 182.2940 -48.0964 L 193.9734 -35.0738 M 183.2847 -45.7322 L 194.9046 -32.6565 M 184.2594 -43.3608 L 195.8197 -30.2323 M 185.2191 -40.9836 L 196.7194 -27.8026 M 186.1643 -38.6026 L 197.6045 -25.3693 M 187.0971 -36.2155 L 198.4768 -22.9303 M 188.0185 -33.8224 L 199.3376 -20.4854 M 188.9280 -31.4268 L 200.1862 -18.0384 M 189.8271 -29.0271 L 201.0242 -15.5876 M 190.7174 -26.6213 L 201.8532 -13.1309 M 191.5971 -24.2162 L 202.6712 -10.6752 M 192.4693 -21.8047 L 203.4816 -8.2133 M 193.3325 -19.3926 L 204.2828 -5.7512 M 194.1889 -16.9756 L 205.0769 -3.2845 M 195.0373 -14.5582 L 205.8629 -0.8176 M 195.8799 -12.1356 L 206.6427 1.6541 M 196.7148 -9.7143 L 207.4147 4.1244 M 197.5447 -7.2878 L 208.1815 6.5995 M 198.3682 -4.8615 L 208.9415 9.0741 M 199.1863 -2.4327 L 209.6961 11.5509 M 200.0000 0 L 210.4459 14.0313 M 200.8137 2.4327 L 211.1956 16.5115 M 201.6318 4.8615 L 211.9495 18.9874 M 202.4553 7.2878 L 212.7084 21.4606 M 203.2852 9.7143 L 213.4737 23.9336 M 204.1201 12.1356 L 214.2437 26.4013 M 204.9627 14.5582 L 215.0212 28.8698 M 205.8111 16.9756 L 215.8043 31.3328 M 206.6675 19.3926 L 216.5952 33.7952 M 207.5307 21.8047 L 217.3927 36.2524 M 208.4029 24.2162 L 218.1990 38.7087 M 209.2826 26.6213 L 219.0125 41.1584 M 210.1729 29.0271 L 219.8364 43.6083 M 211.0720 31.4268 L 220.6690 46.0518 M 211.9815 33.8224 L 221.5118 48.4910 M 212.9029 36.2155 L 222.3663 50.9274 M 213.8357 38.6026 L 223.2319 53.3575 M 214.7809 40.9836 L 224.1098 55.7812 M 215.7406 43.3608 L 225.0020 58.2006 M 216.7153 45.7322 L 225.9090 60.6141 M 217.7060 48.0964 L 226.8318 63.0201 M 218.7140 50.4531 L 227.7717 65.4182 M 219.7410 52.8015 L 228.7305 67.8076 M 220.7887 55.1406 L 229.7097 70.1876 M 221.8590 57.4693 L 230.7114 72.5568 M 222.9541 59.7858 L 231.7376 74.9135 M 224.0769 62.0895 L 232.7914 77.2570 M 225.2310 64.3796 L 233.8763 79.5866 M 226.4183 66.6502 L 234.9942 81.8965 M 227.6445 68.9016 L 236.1509 84.1868 M 228.9131 71.1272 L 237.3498 86.4510 M 230.2322 73.3262 L 238.5990 88.6883 M 231.6073 75.4894 L 239.9040 90.8895 M 233.0476 77.6094 L 241.2740 93.0471 M 234.5638 79.6749 L 242.7198 95.1499 M 236.1704 81.6718 L 244.2558 97.1838 M 237.8832 83.5771 L 245.8979 99.1258 M 239.7238 85.3600 L 247.6676 100.9450 M 241.7156 86.9724 L 249.5882 102.5934 M 243.8790 88.3416 L 251.6804 103.9984 M 246.2249 89.3676 L 253.9549 105.0597 M 248.7213 89.9273 L 256.3797 105.6546 M 251.2787 89.9273 L 258.8653 105.6893 M 253.7751 89.3676 L 261.2899 105.1639 M 256.1210 88.3416 L 263.5637 104.1720 M 258.2844 86.9724 L 265.6549 102.8365 M 260.2762 85.3600 L 267.5743 101.2576 M 262.1168 83.5771 L 269.3424 99.5077 M 263.8296 81.6718 L 270.9826 97.6352 M 265.4362 79.6749 L 272.5164 95.6707 M 266.9524 77.6094 L 273.9596 93.6373 M 268.3927 75.4894 L 275.3268 91.5491 M 269.7678 73.3262 L 276.6287 89.4173 M 271.0869 71.1272 L 277.8744 87.2494 M 272.3555 68.9016 L 279.0695 85.0545 M 273.5817 66.6502 L 280.2220 82.8336 M 274.7690 64.3796 L 281.3355 80.5930 M 275.9231 62.0895 L 282.4157 78.3327 M 277.0459 59.7858 L 283.4644 76.0585 M 278.1410 57.4693 L 284.4853 73.7710 M 279.2113 55.1406 L 285.4813 71.4710 M 280.2590 52.8015 L 286.4545 69.1603 M 281.2860 50.4531 L 287.4069 66.8400 M 282.2940 48.0964 L 288.3402 64.5110 M 283.2847 45.7322 L 289.2560 62.1742 M 284.2594 43.3608 L 290.1558 59.8298 M 285.2191 40.9836 L 291.0404 57.4794 M 286.1643 38.6026 L 291.9104 55.1247 M 287.0971 36.2155 L 292.7678 52.7636 M 288.0185 33.8224 L 293.6138 50.3961 M 288.9280 31.4268 L 294.4477 48.0258 M 289.8271 29.0271 L 295.2712 45.6512 M 290.7174 26.6213 L 296.0857 43.2700 M 291.5971 24.2162 L 296.8894 40.8892 M 292.4693 21.8047 L 297.6856 38.5015 M 293.3325 19.3926 L 298.4727 36.1130 M 294.1889 16.9756 L 299.2528 33.7193 M 295.0373 14.5582 L 300.0249 31.3248 M 295.8799 12.1356 L 300.7910 28.9248 M 296.7148 9.7143 L 301.5495 26.5256 M 297.5447 7.2878 L 302.3027 24.1210 M 298.3682 4.8615 L 303.0494 21.7162 M 299.1863 2.4327 L 303.7907 19.3086 M 300.0000 0 L 304.5275 16.8967"/>
  <path fill="none" stroke="#00aaff" stroke-opacity="0.6" stroke-width="0.6" d=""/>
  
  <path fill="none" stroke="#8844ff" stroke-opacity="0.35" stroke-width="0.6" d="M -1.5628 8.8633 L -0.7895 11.2888 L -0.0117 13.7101 L 0.7714 16.1289 L 1.5611 18.5476 L 2.3558 20.9610 L 3.1582 23.3754 L 3.9664 25.7845 L 4.7827 28.1930 L 5.6059 30.5964 L 6.4381 32.9991 L 7.2777 35.3952 L 8.1280 37.7918 L 8.9872 40.1820 L 9.8569 42.5680 L 10.7384 44.9514 L 11.6315 47.3285 L 12.5370 49.6994 L 13.4569 52.0662 L 14.3920 54.4271 L 15.3431 56.7807 L 16.3116 59.1265 L 17.2991 61.4639 L 18.3074 63.7918 L 19.3383 66.1091 L 20.3940 68.4141 L 21.4775 70.7060 L 22.5924 72.9841 L 23.7405 75.2426 L 24.9277 77.4817 L 26.1572 79.6948 L 27.4373 81.8812 L 28.7734 84.0316 L 30.1748 86.1386 L 31.6522 88.1909 L 33.2200 90.1745 L 34.8941 92.0662 L 36.6961 93.8354 L 38.6493 95.4339 L 40.7742 96.7891 L 43.0816 97.8008 L 45.5397 98.3462 L 48.0586 98.3316 L 50.5168 97.7571 L 52.8245 96.7162 L 54.9498 95.3318 L 56.9035 93.7042 L 58.7062 91.9058 L 60.3811 89.9849 L 61.9498 87.9722 L 63.4283 85.8907 L 64.8309 83.7546 L 66.1683 81.5751 L 67.4499 79.3596 L 68.6810 77.1173 L 69.8699 74.8491 L 71.0198 72.5615 L 72.1367 70.2543 L 73.2223 67.9333 L 74.2803 65.5992 L 75.3136 63.2528 L 76.3244 60.8959 L 77.3146 58.5295 L 78.2859 56.1546 L 79.2399 53.7720 L 80.1780 51.3821 L 81.1012 48.9863 L 82.0100 46.5864 L 82.9064 44.1803 L 83.7916 41.7680 L 84.6649 39.3531 L 85.5280 36.9339 L 86.3823 34.5085 L 87.2260 32.0835 L 88.0625 29.6520 L 88.8900 27.2197 L 89.7108 24.7824 L 90.5237 22.3445 L 91.3308 19.9013 L 92.1304 17.4591 L 92.9251 15.0117 L 93.7134 12.5643 L 94.4965 10.1142 L 95.2752 7.6601 L 96.0541 5.2057 L 96.8375 2.7552 L 97.6262 0.3070 L 98.4216 -2.1416 L 99.2221 -4.5852 L 100.0303 -7.0301 L 100.8445 -9.4701 L 101.6667 -11.9098 L 102.4959 -14.3447 L 103.3342 -16.7793 L 104.1800 -19.2076 L 105.0365 -21.6367 L 105.9021 -24.0598 L 106.7781 -26.4790 L 107.6660 -28.8960 L 108.5655 -31.3070 L 109.4776 -33.7121 L 110.4042 -36.1135 L 111.3460 -38.5093 L 112.3038 -40.8981 L 113.2791 -43.2794 L 114.2734 -45.6526 L 115.2886 -48.0168 L 116.3265 -50.3706 L 117.3893 -52.7124 L 118.4799 -55.0415 L 119.6020 -57.3572 L 120.7573 -59.6535 L 121.9518 -61.9307 L 123.1886 -64.1824 L 124.4762 -66.4076 L 125.8198 -68.5970 L 127.2288 -70.7434 L 128.7138 -72.8355 L 130.2893 -74.8592 L 131.9711 -76.7913 L 133.7808 -78.6012 L 135.7419 -80.2408 L 137.8747 -81.6373 L 140.1901 -82.6907 L 142.6562 -83.2780 L 145.1832 -83.3057 L 147.6496 -82.7738 L 149.9655 -81.7758 L 152.0991 -80.4347 L 154.0611 -78.8505 L 155.8721 -77.0960 L 157.5555 -75.2193 L 159.1327 -73.2510 L 160.6197 -71.2143 L 162.0310 -69.1232 L 163.3771 -66.9891 L 164.6674 -64.8192 L 165.9073 -62.6229 L 167.1050 -60.4010 L 168.2639 -58.1599 L 169.3898 -55.8996 L 170.4844 -53.6257 L 171.5515 -51.3391 L 172.5939 -49.0406 L 173.6139 -46.7316 L 174.6133 -44.4136 L 175.5939 -42.0874 L 176.5573 -39.7537 L 177.5048 -37.4130 L 178.4375 -35.0667 L 179.3558 -32.7166 L 180.2619 -30.3607 L 181.1566 -27.9987 L 182.0397 -25.6344 L 182.9125 -23.2662 L 183.7766 -20.8920 L 184.6302 -18.5186 L 185.4765 -16.1388 L 186.3140 -13.7586 L 187.1448 -11.3737 L 187.9678 -8.9884 L 188.7851 -6.5982 L 189.5949 -4.2092 L 190.3998 -1.8152 L 191.1983 0.5785 L 191.9918 2.9745 L 192.7809 5.3744 L 193.5702 7.7742 L 194.3641 10.1699 L 195.1634 12.5631 L 195.9693 14.9562 L 196.7805 17.3442 L 197.5994 19.7333 L 198.4243 22.1171 L 199.2573 24.5003 L 200.0974 26.8786 L 200.9465 29.2563 L 201.8033 31.6274 L 202.6708 33.9990 L 203.5474 36.3645 L 204.4345 38.7257 L 205.3336 41.0844 L 206.2443 43.4370 L 207.1676 45.7834 L 208.1055 48.1257 L 209.0586 50.4623 L 210.0278 52.7917 L 211.0145 55.1133 L 212.0203 57.4265 L 213.0471 59.7304 L 214.0966 62.0238 L 215.1709 64.3049 L 216.2732 66.5731 L 217.4070 68.8276 L 218.5741 71.0625 L 219.7803 73.2781 L 221.0290 75.4678 L 222.3285 77.6309 L 223.6840 79.7580 L 225.1049 81.8419 L 226.6020 83.8712 L 228.1895 85.8317 L 229.8834 87.7006 L 231.7053 89.4470 L 233.6786 91.0228 L 235.8236 92.3554 L 238.1513 93.3447 L 240.6297 93.8676 L 243.1692 93.8307 L 245.6479 93.2339 L 247.9763 92.1709 L 250.1223 90.7645 L 252.0969 89.1149 L 253.9205 87.2947 L 255.6164 85.3520 L 257.2063 83.3177 L 258.7060 81.2146 L 260.1300 79.0570 L 261.4889 76.8562 L 262.7920 74.6194 L 264.0448 72.3559 L 265.2554 70.0666 L 266.4272 67.7580 L 267.5660 65.4299 L 268.6736 63.0882 L 269.7537 60.7334 L 270.8093 58.3665 L 271.8424 55.9890 L 272.8549 53.6023 L 273.8487 51.2072 L 274.8253 48.8044 L 275.7861 46.3944 L 276.7321 43.9787 L 277.6637 41.5589 L 278.5831 39.1331 L 279.4913 36.7011 L 280.3878 34.2667 L 281.2741 31.8281 L 282.1517 29.3833 L 283.0188 26.9391 L 283.8787 24.4884 L 284.7298 22.0372 L 285.5743 19.5809 L 286.4109 17.1243 L 287.2419 14.6624 L 288.0654 12.2017 L 288.8841 9.7358 L 289.6964 7.2700 L 290.5037 4.8017 L 291.3067 2.3294 L 308.6933 -2.3294 L 307.8689 0.0638 L 307.0399 2.4530 L 306.2054 4.8398 L 305.3643 7.2269 L 304.5179 9.6088 L 303.6637 11.9921 L 302.8035 14.3702 L 301.9352 16.7479 L 301.0598 19.1209 L 300.1753 21.4933 L 299.2832 23.8594 L 298.3802 26.2262 L 297.4682 28.5869 L 296.5457 30.9436 L 295.6111 33.2979 L 294.6649 35.6462 L 293.7061 37.9886 L 292.7327 40.3271 L 291.7441 42.6599 L 290.7393 44.9857 L 289.7170 47.3039 L 288.6756 49.6139 L 287.6133 51.9147 L 286.5282 54.2051 L 285.4182 56.4835 L 284.2803 58.7491 L 283.1108 61.0011 L 281.9080 63.2337 L 280.6662 65.4472 L 279.3818 67.6350 L 278.0466 69.7963 L 276.6554 71.9218 L 275.1987 74.0042 L 273.6660 76.0321 L 272.0427 77.9916 L 270.3131 79.8595 L 268.4555 81.6051 L 266.4465 83.1803 L 264.2657 84.5123 L 261.9023 85.5013 L 259.3882 86.0240 L 256.8130 85.9871 L 254.2985 85.3905 L 251.9344 84.3278 L 249.7526 82.9219 L 247.7423 81.2730 L 245.8830 79.4536 L 244.1513 77.5119 L 242.5257 75.4786 L 240.9903 73.3769 L 239.5306 71.2208 L 238.1360 69.0215 L 236.7972 66.7865 L 235.5088 64.5251 L 234.2625 62.2379 L 233.0550 59.9316 L 231.8805 57.6059 L 230.7373 55.2667 L 229.6215 52.9148 L 228.5304 50.5508 L 227.4617 48.1764 L 226.4135 45.7929 L 225.3842 43.4012 L 224.3721 41.0020 L 223.3757 38.5958 L 222.3942 36.1839 L 221.4270 33.7682 L 220.4722 31.3466 L 219.5285 28.9190 L 218.5966 26.4891 L 217.6749 24.0552 L 216.7619 21.6153 L 215.8593 19.1761 L 214.9641 16.7307 L 214.0777 14.2848 L 213.1979 11.8341 L 212.3260 9.3831 L 211.4598 6.9270 L 210.6010 4.4723 L 209.7471 2.0125 L 208.8996 -0.4469 L 208.0572 -2.9088 L 207.2191 -5.3744 L 206.3808 -7.8400 L 205.5380 -10.3015 L 204.6897 -12.7604 L 203.8348 -15.2194 L 202.9747 -17.6731 L 202.1068 -20.1279 L 201.2330 -22.5774 L 200.3510 -25.0265 L 199.4620 -27.4705 L 198.5639 -29.9138 L 197.6582 -32.3507 L 196.7418 -34.7880 L 195.8163 -37.2191 L 194.8804 -39.6460 L 193.9324 -42.0704 L 192.9728 -44.4885 L 192.0007 -46.9005 L 191.0140 -49.3085 L 190.0121 -51.7106 L 188.9941 -54.1055 L 187.9587 -56.4926 L 186.9041 -58.8713 L 185.8286 -61.2407 L 184.7304 -63.5994 L 183.6074 -65.9459 L 182.4565 -68.2794 L 181.2741 -70.5992 L 180.0584 -72.8994 L 178.8036 -75.1802 L 177.5064 -77.4351 L 176.1584 -79.6634 L 174.7544 -81.8556 L 173.2851 -84.0045 L 171.7396 -86.0988 L 170.1037 -88.1244 L 168.3614 -90.0582 L 166.4912 -91.8694 L 164.4698 -93.5101 L 162.2765 -94.9074 L 159.9006 -95.9614 L 157.3741 -96.5490 L 154.7865 -96.5767 L 152.2597 -96.0445 L 149.8834 -95.0459 L 147.6893 -93.7040 L 145.6668 -92.1187 L 143.7954 -90.3628 L 142.0516 -88.4844 L 140.4139 -86.5142 L 138.8665 -84.4753 L 137.3948 -82.3818 L 135.9883 -80.2449 L 134.6376 -78.0720 L 133.3373 -75.8724 L 132.0792 -73.6469 L 130.8600 -71.4020 L 129.6738 -69.1375 L 128.5189 -66.8593 L 127.3915 -64.5680 L 126.2888 -62.2644 L 125.2086 -59.9503 L 124.1490 -57.6267 L 123.1082 -55.2948 L 122.0847 -52.9550 L 121.0770 -50.6080 L 120.0842 -48.2551 L 119.1058 -45.8982 L 118.1397 -43.5350 L 117.1849 -41.1657 L 116.2419 -38.7937 L 115.3092 -36.4176 L 114.3852 -34.0351 L 113.4717 -31.6531 L 112.5656 -29.2646 L 111.6683 -26.8753 L 110.7778 -24.4811 L 109.8951 -22.0862 L 109.0182 -19.6861 L 108.1488 -17.2869 L 107.2843 -14.8826 L 106.4262 -12.4782 L 105.5733 -10.0712 L 104.7248 -7.6601 L 103.8761 -5.2488 L 103.0229 -2.8413 L 102.1644 -0.4361 L 101.2992 1.9694 L 100.4290 4.3700 L 99.5510 6.7718 L 98.6670 9.1687 L 97.7750 11.5654 L 96.8761 13.9574 L 95.9681 16.3489 L 95.0525 18.7342 L 94.1263 21.1203 L 93.1911 23.5005 L 92.2454 25.8767 L 91.2878 28.2507 L 90.3187 30.6188 L 89.3370 32.9810 L 88.3408 35.3394 L 87.3295 37.6923 L 86.3022 40.0382 L 85.2574 42.3767 L 84.1936 44.7071 L 83.1089 47.0284 L 82.0016 49.3394 L 80.8695 51.6384 L 79.7095 53.9248 L 78.5182 56.1977 L 77.2936 58.4513 L 76.0299 60.6858 L 74.7239 62.8948 L 73.3672 65.0773 L 71.9545 67.2242 L 70.4765 69.3280 L 68.9225 71.3776 L 67.2781 73.3587 L 65.5274 75.2484 L 63.6488 77.0158 L 61.6190 78.6129 L 59.4174 79.9671 L 57.0334 80.9781 L 54.4987 81.5231 L 51.9030 81.5085 L 49.3682 80.9343 L 46.9839 79.8941 L 44.7819 78.5108 L 42.7516 76.8846 L 40.8723 75.0880 L 39.1208 73.1692 L 37.4755 71.1589 L 35.9204 69.0802 L 34.4412 66.9472 L 33.0272 64.7712 L 31.6691 62.5595 L 30.3614 60.3214 L 29.0961 58.0578 L 27.8696 55.7750 L 26.6762 53.4730 L 25.5142 51.1576 L 24.3798 48.8295 L 23.2701 46.4894 L 22.1829 44.1391 L 21.1164 41.7797 L 20.0688 39.4121 L 19.0386 37.0372 L 18.0242 34.6553 L 17.0249 32.2679 L 16.0399 29.8767 L 15.0673 27.4797 L 14.1061 25.0767 L 13.1567 22.6716 L 12.2177 20.2625 L 11.2875 17.8475 L 10.3678 15.4333 L 9.4556 13.0129 L 8.5523 10.5921 L 7.6558 8.1666 L 6.7672 5.7409 L 5.8844 3.3103 L 5.0093 0.8810 L 4.1391 -1.5533 L 3.2754 -3.9872 L 2.4169 -6.4233 L 1.5628 -8.8633 L -1.5628 8.8633 Z"/>
  
  
  
</g>
</svg>