<svg xmlns="http://www.w3.org/2000/svg" width="346.4027" height="224.7112" viewBox="-18.9414 -108.0098 346.4027 224.7112">
  <path fill="black" stroke="none" fill-rule="evenodd" d="M -8.9414 0.5342 L -8.9026 1.3202 L -8.7116 2.0836 L -8.3715 2.8113 L -8.1186 3.1670 L -8.0922 3.7309 L -7.9030 4.4947 L -7.5647 5.2233 L -7.3012 5.5959 L -7.2771 6.1386 L -7.0897 6.9029 L -6.7532 7.6323 L -6.4785 8.0224 L -6.4565 8.5449 L -6.2709 9.3096 L -5.9359 10.0398 L -5.6494 10.4488 L -5.6292 10.9526 L -5.4452 11.7177 L -5.1118 12.4485 L -4.8151 12.8740 L -4.7967 13.3563 L -4.6142 14.1218 L -4.2823 14.8533 L -3.9732 15.2983 L -3.9563 15.7626 L -3.7752 16.5284 L -3.4446 17.2605 L -3.1252 17.7222 L -3.1099 18.1652 L -2.9301 18.9313 L -2.6007 19.6639 L -2.2693 20.1446 L -2.2553 20.5689 L -2.0766 21.3353 L -1.7483 22.0684 L -1.4064 22.5660 L -1.3936 22.9695 L -1.2159 23.7361 L -0.8885 24.4696 L -0.5344 24.9863 L -0.5226 25.3713 L -0.3458 26.1381 L -0.0192 26.8720 L 0.3452 27.4049 L 0.3560 27.7687 L 0.5322 28.5357 L 0.8581 29.2698 L 1.2355 29.8228 L 1.2456 30.1690 L 1.4213 30.9361 L 1.7468 31.6705 L 2.1349 32.2400 L 2.1443 32.5655 L 2.3198 33.3326 L 2.6450 34.0672 L 3.0449 34.6545 L 3.0538 34.9606 L 3.2292 35.7277 L 3.5544 36.4623 L 3.9671 37.0684 L 3.9755 37.3562 L 4.1511 38.1233 L 4.4765 38.8577 L 4.9010 39.4809 L 4.9090 39.7489 L 5.0851 40.5159 L 5.4109 41.2501 L 5.8477 41.8904 L 5.8554 42.1391 L 6.0323 42.9059 L 6.3589 43.6398 L 6.8093 44.2987 L 6.8168 44.5294 L 6.9948 45.2959 L 7.3225 46.0294 L 7.7866 46.7060 L 7.7938 46.9185 L 7.9734 47.6846 L 8.3025 48.4174 L 8.7756 49.1042 L 8.7803 49.1091 L 8.7875 49.3053 L 8.9690 50.0710 L 9.3000 50.8030 L 9.7748 51.4886 L 9.7921 51.5064 L 9.7994 51.6902 L 9.9834 52.4554 L 10.3167 53.1862 L 10.7936 53.8704 L 10.8238 53.9011 L 10.8313 54.0732 L 11.0182 54.8376 L 11.3543 55.5672 L 11.8340 56.2495 L 11.8773 56.2934 L 11.8851 56.4543 L 12.0756 57.2178 L 12.4152 57.9458 L 12.8980 58.6258 L 12.9549 58.6829 L 12.9630 58.8333 L 13.1578 59.5957 L 13.5015 60.3218 L 13.9882 60.9990 L 14.0589 61.0693 L 14.0675 61.2098 L 14.2674 61.9709 L 14.6160 62.6947 L 15.1072 63.3686 L 15.1928 63.4525 L 15.2019 63.5848 L 15.4080 64.3443 L 15.7624 65.0652 L 16.2590 65.7352 L 16.3608 65.8333 L 16.3708 65.9595 L 16.5841 66.7170 L 16.9453 67.4345 L 17.4483 68.0997 L 17.5658 68.2108 L 17.5765 68.3305 L 17.7984 69.0855 L 18.1677 69.7988 L 18.6782 70.4583 L 18.8141 70.5839 L 18.8263 70.7011 L 19.0583 71.4531 L 19.4373 72.1613 L 19.9566 72.8139 L 20.1111 72.9528 L 20.1250 73.0687 L 20.3691 73.8168 L 20.7595 74.5189 L 21.2893 75.1629 L 21.4666 75.3174 L 21.4835 75.4378 L 21.7421 76.1811 L 22.1459 76.8755 L 22.6882 77.5091 L 22.8896 77.6777 L 22.9105 77.8058 L 23.1865 78.5428 L 23.6065 79.2275 L 24.1635 79.8482 L 24.3932 80.0316 L 24.4208 80.1742 L 24.7178 80.9029 L 25.1573 81.5753 L 25.7318 82.1799 L 25.9951 82.3779 L 26.0333 82.5438 L 26.3560 83.2616 L 26.8190 83.9179 L 27.4146 84.5017 L 27.7197 84.7147 L 27.7758 84.9168 L 28.1300 85.6195 L 28.6217 86.2547 L 29.2427 86.8115 L 29.5992 87.0375 L 29.6855 87.2916 L 30.0789 87.9732 L 30.6058 88.5795 L 31.2572 89.1003 L 31.6811 89.3365 L 31.8205 89.6655 L 32.2627 90.3164 L 32.8327 90.8824 L 33.5205 91.3540 L 34.0318 91.5917 L 34.2647 92.0206 L 34.7677 92.6258 L 35.3896 93.1342 L 36.1198 93.5372 L 36.7407 93.7558 L 37.1348 94.3011 L 37.7111 94.8370 L 38.3929 95.2617 L 39.1686 95.5681 L 39.9525 95.7353 L 40.0078 95.8160 L 40.5686 96.3681 L 41.2262 96.8004 L 41.9693 97.1055 L 42.7852 97.2782 L 43.6599 97.3156 L 43.7397 97.3070 L 43.9481 97.5069 L 44.6096 97.9332 L 45.3414 98.2225 L 46.1311 98.3699 L 46.9650 98.3728 L 47.8291 98.2312 L 47.9777 98.1832 L 48.2890 98.3710 L 49.0280 98.6414 L 49.8055 98.7627 L 50.6083 98.7328 L 51.4225 98.5523 L 52.2342 98.2241 L 52.3384 98.1626 L 52.5680 98.2432 L 53.3466 98.3574 L 54.1325 98.3178 L 54.9124 98.1250 L 55.6727 97.7824 L 56.4006 97.2958 L 56.4036 97.2931 L 56.4105 97.2942 L 57.1972 97.2770 L 57.9656 97.1069 L 58.7023 96.7869 L 59.3949 96.3223 L 59.9739 95.7755 L 60.4944 95.6968 L 61.2347 95.4299 L 61.9245 95.0182 L 62.5520 94.4689 L 63.0113 93.9076 L 63.3179 93.8304 L 64.0290 93.4932 L 64.6758 93.0169 L 65.2474 92.4096 L 65.6201 91.8518 L 65.7713 91.8017 L 66.4557 91.4134 L 67.0659 90.8909 L 67.5914 90.2433 L 67.9038 89.6923 L 67.9433 89.6766 L 68.6047 89.2502 L 69.1844 88.6941 L 69.6724 88.0178 L 69.9513 87.4537 L 70.5432 87.0337 L 71.0976 86.4523 L 71.5551 85.7551 L 71.8141 85.1669 L 72.3170 84.7826 L 72.8504 84.1820 L 73.2829 83.4689 L 73.5265 82.8579 L 73.9608 82.5058 L 74.4767 81.8902 L 74.8886 81.1650 L 75.1201 80.5322 L 75.4990 80.2100 L 76.0004 79.5824 L 76.3952 78.8478 L 76.6173 78.1933 L 76.9506 77.8985 L 77.4397 77.2613 L 77.8202 76.5191 L 78.0343 75.8454 L 78.3276 75.5774 L 78.8064 74.9324 L 79.1748 74.1842 L 79.3836 73.4887 L 79.6434 73.2448 L 80.1135 72.5934 L 80.4718 71.8403 L 80.6760 71.1250 L 80.9051 70.9050 L 81.3677 70.2484 L 81.7174 69.4912 L 81.9189 68.7542 L 82.1212 68.5561 L 82.5776 67.8950 L 82.9201 67.1346 L 83.1191 66.3782 L 83.2957 66.2025 L 83.7467 65.5377 L 84.0831 64.7746 L 84.2808 63.9980 L 84.4339 63.8436 L 84.8804 63.1758 L 85.2117 62.4104 L 85.4089 61.6131 L 85.5402 61.4792 L 85.9829 60.8090 L 86.3098 60.0417 L 86.5072 59.2240 L 86.6177 59.1102 L 87.0572 58.4379 L 87.3805 57.6691 L 87.5786 56.8310 L 87.6691 56.7371 L 88.1061 56.0631 L 88.4264 55.2930 L 88.6245 54.4402 L 88.6248 54.4356 L 88.6970 54.3602 L 89.1319 53.6848 L 89.4497 52.9137 L 89.6451 52.0603 L 89.6467 52.0394 L 89.7036 51.9797 L 90.1367 51.3032 L 90.4525 50.5313 L 90.6458 49.6773 L 90.6485 49.6399 L 90.6906 49.5956 L 91.1224 48.9182 L 91.4367 48.1457 L 91.6283 47.2914 L 91.6321 47.2379 L 91.6595 47.2090 L 92.0903 46.5309 L 92.4035 45.7580 L 92.5938 44.9034 L 92.5985 44.8346 L 92.6111 44.8213 L 93.0412 44.1428 L 93.3536 43.3696 L 93.5430 42.5148 L 93.5489 42.4284 L 93.9775 41.7514 L 94.2894 40.9780 L 94.4783 40.1230 L 94.4858 40.0117 L 94.9004 39.3564 L 95.2121 38.5828 L 95.4007 37.7278 L 95.4098 37.5930 L 95.8096 36.9612 L 96.1213 36.1877 L 96.3100 35.3327 L 96.3208 35.1735 L 96.7068 34.5640 L 97.0188 33.7905 L 97.2078 32.9356 L 97.2203 32.7512 L 97.5936 32.1624 L 97.9061 31.3892 L 98.0957 30.5344 L 98.1098 30.3277 L 98.4685 29.7632 L 98.7816 28.9903 L 98.9719 28.1356 L 98.9880 27.9034 L 99.3346 27.3591 L 99.6487 26.5865 L 99.8398 25.7321 L 99.8578 25.4771 L 100.1907 24.9559 L 100.5057 24.1837 L 100.6980 23.3296 L 100.7181 23.0496 L 101.0388 22.5491 L 101.3550 21.7774 L 101.5485 20.9235 L 101.5707 20.6208 L 101.8779 20.1431 L 102.1954 19.3719 L 102.3903 18.5183 L 102.4149 18.1905 L 102.7103 17.7330 L 103.0292 16.9624 L 103.2257 16.1092 L 103.2526 15.7594 L 103.5342 15.3251 L 103.8546 14.5551 L 104.0528 13.7023 L 104.0824 13.3273 L 104.3523 12.9130 L 104.6743 12.1437 L 104.8743 11.2913 L 104.9064 10.8939 L 105.1630 10.5020 L 105.4868 9.7334 L 105.6887 8.8814 L 105.7237 8.4602 L 105.9678 8.0893 L 106.2934 7.3214 L 106.4973 6.4700 L 106.5355 6.0240 L 106.7675 5.6733 L 107.0949 4.9063 L 107.3010 4.0553 L 107.3425 3.5848 L 107.5434 3.2854 L 107.8759 2.5205 L 108.0876 1.6710 L 108.1343 1.1787 L 108.3228 0.9019 L 108.6605 0.1393 L 108.8779 -0.7088 L 108.9302 -1.2235 L 109.1065 -1.4786 L 109.4494 -2.2388 L 109.6726 -3.0854 L 109.7311 -3.6242 L 109.8955 -3.8586 L 110.2438 -4.6164 L 110.4729 -5.4615 L 110.5377 -6.0211 L 110.6885 -6.2330 L 111.0422 -6.9883 L 111.2773 -7.8317 L 111.3492 -8.4159 L 111.4879 -8.6078 L 111.8470 -9.3605 L 112.0883 -10.2021 L 112.1672 -10.8071 L 112.2918 -10.9767 L 112.6565 -11.7267 L 112.9041 -12.5665 L 112.9908 -13.1952 L 113.1022 -13.3445 L 113.4727 -14.0917 L 113.7266 -14.9296 L 113.8212 -15.5789 L 113.9180 -15.7065 L 114.2943 -16.4507 L 114.5548 -17.2866 L 114.6582 -17.9595 L 114.7411 -18.0669 L 115.1233 -18.8082 L 115.3905 -19.6420 L 115.5026 -20.3344 L 115.5698 -20.4200 L 115.9581 -21.1581 L 116.2322 -21.9896 L 116.3543 -22.7064 L 116.4072 -22.7726 L 116.8017 -23.5074 L 117.0829 -24.3366 L 117.2148 -25.0730 L 117.2513 -25.1179 L 117.6523 -25.8491 L 117.9407 -26.6758 L 118.0832 -27.4334 L 118.1034 -27.4578 L 118.5110 -28.1854 L 118.8069 -29.0094 L 118.9609 -29.7892 L 118.9648 -29.7937 L 119.3792 -30.5175 L 119.6828 -31.3387 L 119.8510 -32.1498 L 120.2561 -32.8417 L 120.5677 -33.6600 L 120.7517 -34.5056 L 121.1426 -35.1580 L 121.4625 -35.9730 L 121.6636 -36.8544 L 122.0403 -37.4681 L 122.3687 -38.2797 L 122.5838 -39.1782 L 122.5851 -39.1912 L 122.9493 -39.7700 L 123.2867 -40.5779 L 123.5117 -41.4740 L 123.5162 -41.5139 L 123.8701 -42.0621 L 124.2169 -42.8660 L 124.4523 -43.7594 L 124.4606 -43.8263 L 124.8036 -44.3435 L 125.1602 -45.1431 L 125.4066 -46.0335 L 125.4195 -46.1276 L 125.7506 -46.6132 L 126.1177 -47.4081 L 126.3756 -48.2953 L 126.3938 -48.4165 L 126.7122 -48.8699 L 127.0902 -49.6597 L 127.3604 -50.5432 L 127.3847 -50.6914 L 127.6893 -51.1118 L 128.0790 -51.8959 L 128.3621 -52.7753 L 128.3935 -52.9505 L 128.6828 -53.3367 L 129.0848 -54.1145 L 129.3819 -54.9894 L 129.4215 -55.1918 L 129.6942 -55.5431 L 130.1095 -56.3139 L 130.4215 -57.1836 L 130.4707 -57.4140 L 130.7252 -57.7295 L 131.1548 -58.4924 L 131.4830 -59.3561 L 131.5428 -59.6126 L 131.7754 -59.8892 L 132.2205 -60.6432 L 132.5663 -61.4999 L 132.6387 -61.7841 L 132.8474 -62.0212 L 133.3094 -62.7649 L 133.6745 -63.6136 L 133.7610 -63.9236 L 133.9407 -64.1177 L 134.4213 -64.8495 L 134.8077 -65.6887 L 134.9112 -66.0266 L 135.0579 -66.1762 L 135.5593 -66.8940 L 135.9694 -67.7219 L 136.0922 -68.0853 L 136.1975 -68.1860 L 136.7219 -68.8871 L 137.1589 -69.7012 L 137.3044 -70.0897 L 137.3586 -70.1377 L 137.9091 -70.8185 L 138.3765 -71.6155 L 138.5517 -72.0344 L 139.1181 -72.6743 L 139.6205 -73.4496 L 139.8504 -73.9372 L 140.3434 -74.4374 L 140.8866 -75.1848 L 141.1863 -75.7410 L 141.5723 -76.0844 L 142.1634 -76.7945 L 142.5528 -77.4158 L 142.7831 -77.5888 L 143.4306 -78.2478 L 143.9329 -78.9191 L 143.9372 -78.9216 L 144.6507 -79.5086 L 145.3140 -80.2232 L 145.3743 -80.3063 L 145.7647 -80.5463 L 146.5196 -81.1634 L 146.7095 -81.3613 L 146.7117 -81.3622 L 147.5633 -81.8371 L 147.9985 -82.1542 L 148.4281 -82.2844 L 149.0052 -82.5390 L 149.2447 -82.5542 L 149.8039 -82.6586 L 150.2200 -82.5955 L 150.5917 -82.5844 L 151.4314 -82.2995 L 151.6716 -82.2492 L 151.9401 -82.0659 L 152.8118 -81.6291 L 152.9412 -81.5828 L 153.4493 -81.1508 L 154.2700 -80.6244 L 154.3095 -80.6053 L 154.3141 -80.5991 L 154.9663 -79.9447 L 155.7409 -79.3525 L 155.7697 -79.3355 L 155.8482 -79.2125 L 156.4561 -78.5167 L 157.1901 -77.8748 L 157.2149 -77.8580 L 157.3346 -77.6463 L 157.9044 -76.9189 L 158.6029 -76.2387 L 158.6284 -76.2194 L 158.7686 -75.9436 L 159.3053 -75.1916 L 159.9729 -74.4810 L 160.0033 -74.4556 L 160.1517 -74.1340 L 160.6597 -73.3623 L 161.3000 -72.6269 L 161.3380 -72.5927 L 161.4870 -72.2401 L 161.9696 -71.4522 L 162.5856 -70.6964 L 162.6334 -70.6504 L 162.7786 -70.2776 L 163.2385 -69.4762 L 163.8326 -68.7032 L 163.8904 -68.6443 L 164.0284 -68.2619 L 164.4679 -67.4492 L 165.0424 -66.6614 L 165.1124 -66.5864 L 165.2423 -66.1990 L 165.6633 -65.3766 L 166.2198 -64.5760 L 166.3016 -64.4843 L 166.4221 -64.0989 L 166.8262 -63.2681 L 167.3662 -62.4563 L 167.4611 -62.3454 L 167.5724 -61.9647 L 167.9610 -61.1264 L 168.4858 -60.3047 L 168.5928 -60.1748 L 168.6943 -59.8042 L 169.0684 -58.9594 L 169.5790 -58.1287 L 169.6986 -57.9785 L 169.7907 -57.6200 L 170.1514 -56.7694 L 170.6487 -55.9308 L 170.7811 -55.7590 L 170.8641 -55.4146 L 171.2122 -54.5588 L 171.6972 -53.7129 L 171.8421 -53.5189 L 171.9164 -53.1908 L 172.2527 -52.3303 L 172.7259 -51.4778 L 172.8831 -51.2610 L 172.9492 -50.9509 L 173.2742 -50.0860 L 173.7363 -49.2274 L 173.9057 -48.9874 L 173.9640 -48.6965 L 174.2783 -47.8277 L 174.7299 -46.9635 L 174.9113 -46.6997 L 174.9622 -46.4292 L 175.2664 -45.5568 L 175.7078 -44.6875 L 175.9011 -44.3992 L 175.9452 -44.1501 L 176.2397 -43.2743 L 176.6715 -42.4001 L 176.8761 -42.0875 L 176.9137 -41.8609 L 177.1989 -40.9821 L 177.6214 -40.1034 L 177.8367 -39.7668 L 177.8682 -39.5640 L 178.1445 -38.6824 L 178.5581 -37.7994 L 178.7847 -37.4372 L 178.8108 -37.2578 L 179.0785 -36.3735 L 179.4834 -35.4865 L 179.7211 -35.0980 L 179.7423 -34.9423 L 180.0017 -34.0556 L 180.3983 -33.1648 L 180.6458 -32.7517 L 180.6623 -32.6217 L 180.9137 -31.7326 L 181.3022 -30.8383 L 181.5599 -30.3992 L 181.5722 -30.2944 L 181.8158 -29.4031 L 182.1964 -28.5055 L 182.4648 -28.0389 L 182.4736 -27.9587 L 182.7095 -27.0654 L 183.0826 -26.1645 L 183.3592 -25.6740 L 183.3645 -25.6215 L 183.5931 -24.7263 L 183.9587 -23.8224 L 184.2457 -23.3035 L 184.2482 -23.2759 L 184.4697 -22.3789 L 184.8280 -21.4721 L 185.1232 -20.9281 L 185.1232 -20.9280 L 185.3376 -20.0293 L 185.6888 -19.1198 L 186.0006 -18.5345 L 186.1991 -17.6733 L 186.5434 -16.7611 L 186.8702 -16.1360 L 187.0529 -15.3154 L 187.3904 -14.4006 L 187.7330 -13.7333 L 187.9013 -12.9511 L 188.2320 -12.0339 L 188.5886 -11.3268 L 188.7422 -10.5867 L 189.0665 -9.6671 L 189.4380 -8.9169 L 189.5784 -8.2160 L 189.8962 -7.2942 L 190.2812 -6.5032 L 190.4084 -5.8444 L 190.7199 -4.9204 L 191.1184 -4.0870 L 191.2334 -3.4693 L 191.5386 -2.5433 L 191.9507 -1.6663 L 192.0541 -1.0893 L 192.3532 -0.1613 L 192.7661 0.7328 L 192.8706 1.3237 L 193.1673 2.2525 L 193.5949 3.1844 L 193.5959 3.1861 L 193.6913 3.7337 L 193.9859 4.6632 L 194.4113 5.5961 L 194.4283 5.6246 L 194.5173 6.1422 L 194.8098 7.0724 L 195.2330 8.0062 L 195.2665 8.0627 L 195.3496 8.5519 L 195.6401 9.4827 L 196.0614 10.4174 L 196.1101 10.4998 L 196.1869 10.9576 L 196.4756 11.8890 L 196.8950 12.8245 L 196.9602 12.9355 L 197.0316 13.3657 L 197.3186 14.2976 L 197.7364 15.2339 L 197.8165 15.3708 L 197.8821 15.7699 L 198.1675 16.7023 L 198.5837 17.6393 L 198.6799 17.8043 L 198.7402 18.1752 L 199.0243 19.1079 L 199.4391 20.0455 L 199.5501 20.2366 L 199.6051 20.5770 L 199.8879 21.5101 L 200.3015 22.4483 L 200.4285 22.6676 L 200.4786 22.9799 L 200.7604 23.9133 L 201.1730 24.8520 L 201.3145 25.0967 L 201.3593 25.3782 L 201.6403 26.3119 L 202.0521 27.2508 L 202.2100 27.5245 L 202.2504 27.7791 L 202.5308 28.7129 L 202.9420 29.6522 L 203.1144 29.9515 L 203.1499 30.1760 L 203.4300 31.1099 L 203.8409 32.0493 L 204.0285 32.3753 L 204.0595 32.5711 L 204.3396 33.5051 L 204.7503 34.4445 L 204.9539 34.7980 L 204.9806 34.9664 L 205.2609 35.9003 L 205.6719 36.8396 L 205.8903 37.2189 L 205.9126 37.3585 L 206.1934 38.2922 L 206.6051 39.2312 L 206.8386 39.6362 L 206.8565 39.7477 L 207.1384 40.6811 L 207.5510 41.6197 L 207.8006 42.0516 L 207.8144 42.1365 L 208.0976 43.0695 L 208.5116 44.0075 L 208.7772 44.4653 L 208.7867 44.5236 L 209.0718 45.4560 L 209.4876 46.3932 L 209.7690 46.8761 L 209.7743 46.9080 L 210.0618 47.8397 L 210.4800 48.7758 L 210.7776 49.2836 L 210.7786 49.2897 L 211.0690 50.2205 L 211.4902 51.1553 L 211.8101 51.6972 L 212.0952 52.5986 L 212.5200 53.5317 L 212.8644 54.1099 L 213.1420 54.9738 L 213.5712 55.9049 L 213.9403 56.5180 L 214.2115 57.3457 L 214.6460 58.2743 L 215.0401 58.9207 L 215.3059 59.7138 L 215.7466 60.6395 L 216.1664 61.3176 L 216.4283 62.0789 L 216.8765 63.0010 L 217.3227 63.7091 L 217.5827 64.4420 L 218.0396 65.3598 L 218.5116 66.0931 L 218.7712 66.7993 L 219.2385 67.7119 L 219.7375 68.4682 L 220.0002 69.1539 L 220.4797 70.0601 L 221.0048 70.8331 L 221.2738 71.5027 L 221.7679 72.4011 L 222.3200 73.1863 L 222.6017 73.8499 L 223.1131 74.7385 L 223.6896 75.5254 L 223.9911 76.1921 L 224.5233 77.0684 L 225.1209 77.8453 L 225.4547 78.5302 L 226.0118 79.3909 L 226.6231 80.1401 L 227.0083 80.8641 L 227.5956 81.7046 L 228.2059 82.4007 L 228.6752 83.1955 L 229.2992 84.0091 L 229.9131 84.6494 L 229.9437 84.7120 L 230.4862 85.5222 L 231.1551 86.2992 L 231.7718 86.8736 L 231.8889 87.0738 L 232.4893 87.8421 L 233.2134 88.5679 L 233.7926 89.0330 L 234.0827 89.4345 L 234.7544 90.1412 L 235.5452 90.7937 L 235.9910 91.0858 L 235.9911 91.0859 L 236.6236 91.7595 L 237.3801 92.3746 L 238.2479 92.9206 L 238.6299 93.1059 L 238.9049 93.3886 L 239.6408 93.9472 L 240.4893 94.4276 L 241.4360 94.8213 L 241.6958 94.8972 L 242.3739 95.3550 L 243.2081 95.7521 L 244.1367 96.0495 L 245.1437 96.2422 L 245.4027 96.2627 L 245.4645 96.2996 L 246.2801 96.6180 L 247.1812 96.8219 L 248.1525 96.9078 L 249.1772 96.8743 L 249.5555 96.8200 L 250.2441 96.9361 L 251.1679 96.9522 L 252.1363 96.8385 L 253.1327 96.5970 L 253.6955 96.3930 L 253.9013 96.3929 L 254.8148 96.2547 L 255.7507 95.9812 L 256.6929 95.5769 L 257.4615 95.1416 L 258.0008 94.9876 L 258.8940 94.5966 L 259.7768 94.0752 L 260.6340 93.4322 L 260.6616 93.4068 L 260.7675 93.3651 L 261.6188 92.8898 L 262.4471 92.2856 L 263.2383 91.5629 L 263.3854 91.3983 L 264.0078 90.9882 L 264.7896 90.3249 L 265.5257 89.5461 L 265.7555 89.2474 L 266.1366 88.9641 L 266.8797 88.2577 L 267.5706 87.4385 L 267.8451 87.0365 L 268.0649 86.8575 L 268.7758 86.1188 L 269.4296 85.2697 L 269.7296 84.7857 L 269.8340 84.6943 L 270.5183 83.9308 L 271.1416 83.0592 L 271.4580 82.5057 L 271.4762 82.4888 L 272.1384 81.7060 L 272.7364 80.8169 L 273.0853 80.1638 L 273.6583 79.4532 L 274.2354 78.5503 L 274.6148 77.7980 L 275.0956 77.1775 L 275.6550 76.2636 L 276.0580 75.4246 L 276.4612 74.8865 L 277.0058 73.9636 L 277.4297 73.0434 L 277.7679 72.5791 L 278.3000 71.6490 L 278.7417 70.6549 L 279.0221 70.2607 L 279.5436 69.3246 L 279.9834 68.3038 L 279.9937 68.2720 L 280.2322 67.9297 L 280.7448 66.9887 L 281.1748 65.9638 L 281.1984 65.8881 L 281.4017 65.5913 L 281.9067 64.6461 L 282.3285 63.6178 L 282.3645 63.4989 L 282.5359 63.2452 L 283.0344 62.2967 L 283.4493 61.2656 L 283.4970 61.1041 L 283.6388 60.8916 L 284.1320 59.9403 L 284.5410 58.9068 L 284.5997 58.7038 L 284.7135 58.5315 L 285.2022 57.5779 L 285.6064 56.5425 L 285.6757 56.2988 L 285.7627 56.1658 L 286.2477 55.2103 L 286.6479 54.1734 L 286.7274 53.8894 L 286.7888 53.7950 L 287.2708 52.8379 L 287.6677 51.7997 L 287.7572 51.4760 L 287.7939 51.4193 L 288.2735 50.4610 L 288.6677 49.4218 L 288.7672 49.0587 L 288.7799 49.0389 L 289.2576 48.0797 L 289.6497 47.0397 L 289.7620 46.6269 L 290.2242 45.6952 L 290.6148 44.6547 L 290.7429 44.1807 L 291.1743 43.3090 L 291.5638 42.2681 L 291.7080 41.7325 L 292.1100 40.9188 L 292.4989 39.8776 L 292.6592 39.2808 L 293.0327 38.5243 L 293.4213 37.4830 L 293.5973 36.8270 L 293.9419 36.1290 L 294.3306 35.0877 L 294.5226 34.3721 L 294.8394 33.7311 L 295.2284 32.6899 L 295.4369 31.9140 L 295.7268 31.3284 L 296.1165 30.2875 L 296.3407 29.4550 L 296.6024 28.9276 L 296.9929 27.8870 L 297.2342 26.9944 L 297.4694 26.5215 L 297.8611 25.4813 L 298.1188 24.5322 L 298.3266 24.1158 L 298.7196 23.0762 L 298.9947 22.0681 L 299.1759 21.7063 L 299.5705 20.6672 L 299.8625 19.6032 L 300.0165 19.2971 L 300.4128 18.2588 L 300.7171 17.1571 L 300.7198 17.1421 L 300.8504 16.8837 L 301.2486 15.8460 L 301.5549 14.7449 L 301.5647 14.6912 L 301.6760 14.4721 L 302.0762 13.4352 L 302.3847 12.3347 L 302.4024 12.2392 L 302.4958 12.0561 L 302.8983 11.0201 L 303.2091 9.9202 L 303.2342 9.7856 L 303.3085 9.6409 L 303.7133 8.6058 L 304.0266 7.5066 L 304.0597 7.3317 L 304.1154 7.2238 L 304.5226 6.1896 L 304.8385 5.0912 L 305.0577 3.9472 L 305.1764 2.7774 L 305.1926 1.6017 L 305.1061 0.4401 L 304.9183 -0.6873 L 304.6324 -1.7613 L 304.2533 -2.7636 L 303.7875 -3.6770 L 303.2430 -4.4858 L 302.6291 -5.1763 L 301.9563 -5.7366 L 301.2360 -6.1570 L 300.4808 -6.4306 L 299.7033 -6.5524 L 298.9170 -6.5205 L 298.1353 -6.3355 L 297.3716 -6.0004 L 296.6390 -5.5210 L 295.9499 -4.9055 L 295.3162 -4.1644 L 294.7488 -3.3105 L 294.2572 -2.3583 L 293.8500 -1.3242 L 293.5341 -0.2257 L 293.5034 -0.0652 L 293.4278 0.0821 L 293.0230 1.1172 L 292.7097 2.2164 L 292.6870 2.3367 L 292.5937 2.5195 L 292.1912 3.5555 L 291.8804 4.6554 L 291.8652 4.7369 L 291.7537 4.9564 L 291.3534 5.9933 L 291.0449 7.0938 L 291.0375 7.1339 L 290.9093 7.3876 L 290.5111 8.4253 L 290.2048 9.5264 L 290.2045 9.5283 L 290.0581 9.8192 L 289.6618 10.8576 L 289.3730 11.9032 L 289.2019 12.2449 L 288.8073 13.2839 L 288.5353 14.2748 L 288.3385 14.6693 L 287.9454 15.7089 L 287.6908 16.6422 L 287.4691 17.0878 L 287.0774 18.1280 L 286.8389 19.0067 L 286.5918 19.5048 L 286.2012 20.5454 L 285.9793 21.3663 L 285.7080 21.9143 L 285.3184 22.9552 L 285.1117 23.7227 L 284.8149 24.3232 L 284.4258 25.3643 L 284.2349 26.0748 L 283.9141 26.7246 L 283.5254 27.7659 L 283.3496 28.4210 L 283.0043 29.1204 L 282.6157 30.1617 L 282.4545 30.7628 L 282.0842 31.5122 L 281.6953 32.5534 L 281.5488 33.0992 L 281.1544 33.8962 L 280.7649 34.9371 L 280.6326 35.4283 L 280.2140 36.2721 L 279.8234 37.3126 L 279.7049 37.7509 L 279.2613 38.6418 L 278.8691 39.6818 L 278.7643 40.0673 L 278.2959 41.0033 L 277.9017 42.0425 L 277.8080 42.3844 L 277.7992 42.3979 L 277.3172 43.3550 L 276.9204 44.3932 L 276.8353 44.7005 L 276.8092 44.7404 L 276.3242 45.6959 L 275.9241 46.7328 L 275.8475 47.0062 L 275.8045 47.0714 L 275.3158 48.0250 L 274.9116 49.0604 L 274.8434 49.3003 L 274.7838 49.3896 L 274.2906 50.3409 L 273.8816 51.3744 L 273.8217 51.5814 L 273.7460 51.6934 L 273.2475 52.6419 L 272.8326 53.6730 L 272.7810 53.8477 L 272.6901 53.9804 L 272.1851 54.9255 L 271.7633 55.9538 L 271.7197 56.0976 L 271.6141 56.2493 L 271.1015 57.1903 L 270.6715 58.2152 L 270.6357 58.3300 L 270.5159 58.4985 L 269.9944 59.4346 L 269.5546 60.4553 L 269.5271 60.5407 L 269.3955 60.7213 L 268.8634 61.6514 L 268.4121 62.6671 L 268.3922 62.7265 L 268.2497 62.9166 L 267.7051 63.8395 L 267.2401 64.8490 L 267.2281 64.8833 L 267.0782 65.0768 L 266.5188 65.9908 L 266.0375 66.9927 L 266.0323 67.0068 L 265.8772 67.1992 L 265.3001 68.1022 L 264.8022 69.0893 L 264.6470 69.2728 L 264.0489 70.1620 L 263.5372 71.1198 L 263.3865 71.2879 L 262.7632 72.1595 L 262.2298 73.0925 L 262.0965 73.2310 L 261.4427 74.0801 L 260.8765 74.9937 L 260.7795 75.0860 L 260.0886 75.9051 L 259.4758 76.8023 L 259.4440 76.8293 L 258.7079 77.6080 L 258.0301 78.4889 L 258.0094 78.5219 L 257.3140 79.1571 L 256.5735 79.9859 L 256.4955 80.0920 L 255.9348 80.5126 L 255.1177 81.2660 L 254.9638 81.4378 L 254.6167 81.6344 L 253.7100 82.2772 L 253.4751 82.4799 L 253.4100 82.5034 L 252.4088 82.9861 L 252.0598 83.1974 L 251.2409 83.4013 L 250.8586 83.5362 L 250.1196 83.5528 L 249.8372 83.5861 L 248.8923 83.4115 L 248.7628 83.4001 L 248.5460 83.2949 L 247.5505 82.9313 L 246.9896 82.5639 L 246.2758 82.1937 L 246.2343 82.1520 L 245.3987 81.4811 L 244.8367 81.1168 L 244.6113 80.8550 L 243.8272 80.1246 L 243.3984 79.7997 L 243.0417 79.3346 L 242.3001 78.5610 L 241.9841 78.2921 L 241.5321 77.6452 L 240.8257 76.8395 L 240.6056 76.6347 L 240.0834 75.8279 L 239.4060 74.9976 L 239.2471 74.8389 L 239.2235 74.7867 L 238.6913 73.9104 L 238.0380 73.0610 L 237.9192 72.9354 L 237.8628 72.8025 L 237.3514 71.9139 L 236.7181 71.0495 L 236.6350 70.9573 L 236.5524 70.7516 L 236.0583 69.8533 L 235.4419 68.9767 L 235.3925 68.9197 L 235.2889 68.6492 L 234.8093 67.7430 L 234.2072 66.8566 L 234.1874 66.8331 L 234.0654 66.5011 L 233.5981 65.5885 L 233.0189 64.7107 L 232.8793 64.3172 L 232.4224 63.3993 L 231.8853 62.5649 L 231.7254 62.1001 L 231.2773 61.1780 L 230.7806 60.3899 L 230.6023 59.8579 L 230.1616 58.9321 L 229.7023 58.1902 L 229.5066 57.5929 L 229.0721 56.6642 L 228.6479 55.9685 L 228.4354 55.3075 L 228.0062 54.3763 L 227.6155 53.7273 L 227.3869 53.0043 L 226.9620 52.0712 L 226.6034 51.4691 L 226.3590 50.6857 L 225.9378 49.7509 L 225.6101 49.1958 L 225.3502 48.3532 L 224.9320 47.4171 L 224.6343 46.9092 L 224.3589 46.0083 L 223.9430 45.0711 L 223.6695 44.6018 L 223.6668 44.5850 L 223.3836 43.6520 L 222.9696 42.7140 L 222.7139 42.2732 L 222.7053 42.2196 L 222.4234 41.2862 L 222.0108 40.3476 L 221.7730 39.9362 L 221.7588 39.8467 L 221.4779 38.9130 L 221.0663 37.9740 L 220.8452 37.5907 L 220.8252 37.4646 L 220.5449 36.5307 L 220.1339 35.5914 L 219.9292 35.2361 L 219.9035 35.0736 L 219.6234 34.1396 L 219.2127 33.2003 L 219.0253 32.8746 L 218.9940 32.6776 L 218.7140 31.7436 L 218.3031 30.8043 L 218.1322 30.5074 L 218.0953 30.2752 L 217.8149 29.3413 L 217.4038 28.4021 L 217.2486 28.1327 L 217.2058 27.8645 L 216.9248 26.9308 L 216.5131 25.9919 L 216.3755 25.7534 L 216.3273 25.4525 L 216.0455 24.5191 L 215.6329 23.5804 L 215.5108 23.3692 L 215.4564 23.0323 L 215.1736 22.0992 L 214.7600 21.1610 L 214.6549 20.9797 L 214.5947 20.6099 L 214.3107 19.6772 L 213.8959 18.7396 L 213.8066 18.5860 L 213.7402 18.1812 L 213.4548 17.2488 L 213.0386 16.3118 L 212.9663 16.1880 L 212.8937 15.7506 L 212.6068 14.8188 L 212.1890 13.8824 L 212.1326 13.7861 L 212.0533 13.3136 L 211.7647 12.3823 L 211.3452 11.4467 L 211.3063 11.3805 L 211.2207 10.8766 L 210.9302 9.9458 L 210.5089 9.0111 L 210.4859 8.9722 L 210.3932 8.4334 L 210.1008 7.5032 L 209.6775 6.5694 L 209.6718 6.5599 L 209.5723 5.9892 L 209.2778 5.0598 L 208.8653 4.1550 L 208.7568 3.5417 L 208.4601 2.6129 L 208.0644 1.7506 L 207.9459 1.0893 L 207.6468 0.1613 L 207.2822 -0.6283 L 207.1392 -1.3962 L 206.8340 -2.3222 L 206.4851 -3.0647 L 206.3279 -3.8786 L 206.0165 -4.8026 L 205.6834 -5.4990 L 205.5110 -6.3596 L 205.1933 -7.2814 L 204.8754 -7.9346 L 204.8752 -7.9373 L 204.6874 -8.8419 L 204.3632 -9.7614 L 204.0548 -10.3841 L 204.0528 -10.4169 L 203.8585 -11.3202 L 203.5277 -12.2374 L 203.2271 -12.8337 L 203.2225 -12.8991 L 203.0217 -13.8009 L 202.6842 -14.7157 L 202.3936 -15.2817 L 202.3862 -15.3775 L 202.1787 -16.2778 L 201.8344 -17.1900 L 201.5527 -17.7289 L 201.5418 -17.8571 L 201.3274 -18.7558 L 200.9762 -19.6654 L 200.7050 -20.1744 L 200.6903 -20.3334 L 200.4689 -21.2304 L 200.1106 -22.1372 L 199.8489 -22.6193 L 199.8296 -22.8109 L 199.6010 -23.7061 L 199.2354 -24.6100 L 198.9855 -25.0618 L 198.9613 -25.2840 L 198.7253 -26.1773 L 198.3523 -27.0781 L 198.1122 -27.5039 L 198.0821 -27.7599 L 197.8385 -28.6511 L 197.4579 -29.5488 L 197.2301 -29.9448 L 197.1937 -30.2319 L 196.9424 -31.1210 L 196.5539 -32.0153 L 196.3381 -32.3829 L 196.2947 -32.7024 L 196.0353 -33.5891 L 195.6387 -34.4799 L 195.4348 -34.8202 L 195.3835 -35.1733 L 195.1157 -36.0576 L 194.7108 -36.9445 L 194.5203 -37.2559 L 194.4604 -37.6411 L 194.1841 -38.5228 L 193.7706 -39.4058 L 193.5938 -39.6884 L 193.5245 -40.1063 L 193.2393 -40.9851 L 192.8168 -41.8639 L 192.6536 -42.1190 L 192.5737 -42.5714 L 192.2791 -43.4472 L 191.8474 -44.3214 L 191.6987 -44.5485 L 191.6072 -45.0351 L 191.3030 -45.9075 L 190.8615 -46.7769 L 190.7283 -46.9755 L 190.6241 -47.4963 L 190.3097 -48.3651 L 189.8582 -49.2293 L 189.7412 -49.3995 L 189.6228 -49.9553 L 189.2978 -50.8202 L 188.8357 -51.6788 L 188.7356 -51.8205 L 188.6016 -52.4121 L 188.2653 -53.2727 L 187.7921 -54.1252 L 187.7099 -54.2384 L 187.5584 -54.8666 L 187.2103 -55.7224 L 186.7254 -56.5683 L 186.6622 -56.6529 L 186.4912 -57.3185 L 186.1305 -58.1691 L 185.6332 -59.0078 L 185.5904 -59.0633 L 185.3975 -59.7675 L 185.0234 -60.6123 L 184.5128 -61.4429 L 184.4916 -61.4696 L 184.2739 -62.2143 L 183.8853 -63.0526 L 183.3628 -63.8707 L 183.1159 -64.6602 L 182.7118 -65.4910 L 182.2016 -66.2580 L 182.1995 -66.2713 L 181.9212 -67.1014 L 181.5001 -67.9238 L 180.9907 -68.6566 L 180.9796 -68.7176 L 180.6826 -69.5413 L 180.2431 -70.3539 L 179.7363 -71.0489 L 179.7129 -71.1609 L 179.3952 -71.9768 L 178.9353 -72.7781 L 178.4299 -73.4357 L 178.3893 -73.6059 L 178.0485 -74.4124 L 177.5659 -75.2003 L 177.0646 -75.8154 L 177.0006 -76.0498 L 176.6336 -76.8448 L 176.1256 -77.6165 L 175.6300 -78.1858 L 175.5330 -78.4946 L 175.1362 -79.2751 L 174.5995 -80.0271 L 174.1130 -80.5449 L 173.9688 -80.9414 L 173.5377 -81.7035 L 172.9680 -82.4309 L 172.4964 -82.8900 L 172.2822 -83.3932 L 171.8109 -84.1311 L 171.2031 -84.8269 L 170.7589 -85.2154 L 170.4382 -85.8497 L 169.9195 -86.5550 L 169.2673 -87.2095 L 168.8443 -87.5329 L 168.8184 -87.5997 L 168.3820 -88.3104 L 167.8070 -88.9707 L 167.1031 -89.5691 L 166.6752 -89.8436 L 166.5424 -90.1015 L 166.0334 -90.7622 L 165.3919 -91.3580 L 164.6287 -91.8788 L 164.2138 -92.0867 L 163.8728 -92.5718 L 163.2782 -93.1566 L 162.5611 -93.6590 L 161.7339 -94.0704 L 161.3111 -94.2139 L 161.2334 -94.3282 L 160.6631 -94.8939 L 159.9750 -95.3652 L 159.1808 -95.7337 L 158.2942 -95.9934 L 157.8230 -96.0649 L 157.5118 -96.3602 L 156.8343 -96.7918 L 156.0617 -97.1059 L 155.2073 -97.2972 L 154.2857 -97.3625 L 153.8037 -97.3318 L 153.3175 -97.6156 L 152.5592 -97.8807 L 151.7353 -98.0098 L 150.8598 -98.0006 L 149.9477 -97.8532 L 149.5060 -97.7193 L 149.0814 -97.8572 L 148.2841 -97.9551 L 147.4516 -97.9061 L 146.5980 -97.7109 L 145.7381 -97.3730 L 145.3840 -97.1755 L 145.1995 -97.2011 L 144.3974 -97.1573 L 143.5864 -96.9628 L 142.7805 -96.6207 L 141.9933 -96.1370 L 141.7168 -95.9109 L 141.0222 -95.7761 L 140.2455 -95.4723 L 139.4940 -95.0231 L 138.7804 -94.4362 L 138.5369 -94.1738 L 138.1048 -94.0413 L 137.3645 -93.6572 L 136.6646 -93.1312 L 136.0170 -92.4722 L 135.8122 -92.1984 L 135.5545 -92.0954 L 134.8483 -91.6517 L 134.1941 -91.0698 L 133.6031 -90.3597 L 133.4331 -90.0885 L 133.2875 -90.0189 L 132.6120 -89.5298 L 131.9974 -88.9062 L 131.4542 -88.1588 L 131.3129 -87.8964 L 131.2383 -87.8557 L 130.5899 -87.3311 L 130.0096 -86.6755 L 129.5072 -85.9002 L 129.3899 -85.6515 L 129.3610 -85.6340 L 128.7367 -85.0810 L 128.1861 -84.4002 L 127.7187 -83.6032 L 127.6210 -83.3696 L 127.6201 -83.3690 L 127.0171 -82.7928 L 126.4927 -82.0917 L 126.0558 -81.2777 L 125.9714 -81.0523 L 125.4066 -80.4762 L 124.9052 -79.7584 L 124.4951 -78.9305 L 124.4229 -78.7170 L 123.8855 -78.1367 L 123.4049 -77.4049 L 123.0185 -76.5656 L 122.9582 -76.3687 L 122.4417 -75.7820 L 121.9796 -75.0383 L 121.6145 -74.1896 L 121.5644 -74.0096 L 121.0612 -73.4112 L 120.6161 -72.6572 L 120.2703 -71.8004 L 120.2295 -71.6406 L 119.7368 -71.0296 L 119.3072 -70.2667 L 118.9790 -69.4031 L 118.9463 -69.2631 L 118.4595 -68.6359 L 118.0442 -67.8651 L 117.7322 -66.9955 L 117.7071 -66.8781 L 117.2254 -66.2350 L 116.8234 -65.4572 L 116.5263 -64.5823 L 116.5078 -64.4878 L 116.0288 -63.8268 L 115.6391 -63.0427 L 115.3560 -62.1632 L 115.3432 -62.0918 L 114.8652 -61.4113 L 114.4872 -60.6216 L 114.2170 -59.7380 L 114.2085 -59.6861 L 114.2013 -59.6787 L 113.7314 -58.9897 L 113.3644 -58.1948 L 113.1064 -57.3076 L 113.1015 -57.2745 L 113.0853 -57.2578 L 112.6245 -56.5627 L 112.2678 -55.7631 L 112.0214 -54.8726 L 112.0195 -54.8584 L 111.9942 -54.8315 L 111.5419 -54.1308 L 111.1950 -53.3269 L 110.9611 -52.4390 L 110.9255 -52.4002 L 110.4814 -51.6943 L 110.1439 -50.8864 L 109.9260 -50.0186 L 109.8772 -49.9642 L 109.4409 -49.2534 L 109.1124 -48.4418 L 108.9097 -47.5951 L 108.8479 -47.5247 L 108.4192 -46.8093 L 108.0993 -45.9943 L 107.9112 -45.1697 L 107.8366 -45.0831 L 107.4152 -44.3634 L 107.1036 -43.5452 L 106.9287 -42.7412 L 106.8410 -42.6373 L 106.4266 -41.9136 L 106.1230 -41.0923 L 105.9605 -40.3088 L 105.8596 -40.1869 L 105.4520 -39.4594 L 105.1561 -38.6353 L 105.0059 -37.8749 L 104.8927 -37.7357 L 104.4917 -37.0044 L 104.2033 -36.1777 L 104.0643 -35.4392 L 103.9385 -35.2816 L 103.5440 -34.5469 L 103.2628 -33.7177 L 103.1342 -32.9996 L 102.9953 -32.8227 L 102.6070 -32.0846 L 102.3329 -31.2530 L 102.2149 -30.5600 L 102.0648 -30.3655 L 101.6826 -29.6242 L 101.4154 -28.7905 L 101.3064 -28.1177 L 101.1434 -27.9029 L 100.7672 -27.1586 L 100.5067 -26.3227 L 100.4070 -25.6741 L 100.2327 -25.4407 L 99.8623 -24.6934 L 99.6083 -23.8555 L 99.5170 -23.2283 L 99.3304 -22.9744 L 98.9657 -22.2244 L 98.7181 -21.3846 L 98.6350 -20.7816 L 98.4375 -20.5086 L 98.0784 -19.7559 L 97.8371 -18.9142 L 97.7612 -18.3325 L 97.5517 -18.0383 L 97.1981 -17.2830 L 96.9629 -16.4396 L 96.8945 -15.8831 L 96.6748 -15.5699 L 96.3266 -14.8121 L 96.0974 -13.9671 L 96.0355 -13.4319 L 95.8040 -13.0970 L 95.4611 -12.3368 L 95.2379 -11.4902 L 95.1825 -10.9796 L 94.9409 -10.6249 L 94.6032 -9.8623 L 94.3858 -9.0142 L 94.3362 -8.5267 L 94.0840 -8.1508 L 93.7515 -7.3860 L 93.5398 -6.5364 L 93.4957 -6.0711 L 93.2325 -5.6733 L 92.9051 -4.9063 L 92.6990 -4.0553 L 92.6599 -3.6115 L 92.4048 -3.2238 L 92.0792 -2.4560 L 91.8753 -1.6045 L 91.8394 -1.1856 L 91.5733 -0.7790 L 91.2496 -0.0104 L 91.0476 0.8415 L 91.0147 1.2366 L 90.7372 1.6626 L 90.4152 2.4319 L 90.2152 3.2843 L 90.1850 3.6568 L 89.8955 4.1034 L 89.5751 4.8734 L 89.3769 5.7262 L 89.3495 6.0735 L 89.0494 6.5383 L 88.7306 7.3089 L 88.5341 8.1621 L 88.5090 8.4875 L 88.1967 8.9732 L 87.8792 9.7444 L 87.6843 10.5980 L 87.6617 10.8983 L 87.3390 11.4020 L 87.0228 12.1737 L 86.8293 13.0276 L 86.8089 13.3053 L 86.4743 13.8292 L 86.1593 14.6014 L 85.9671 15.4555 L 85.9489 15.7085 L 85.6039 16.2502 L 85.2899 17.0228 L 85.0987 17.8772 L 85.0824 18.1076 L 84.7257 18.6692 L 84.4125 19.4421 L 84.2222 20.2968 L 84.2080 20.5019 L 83.8412 21.0803 L 83.5287 21.8535 L 83.3392 22.7083 L 83.3266 22.8916 L 82.9475 23.4903 L 82.6355 24.2637 L 82.4465 25.1186 L 82.4357 25.2771 L 82.0464 25.8924 L 81.7347 26.6659 L 81.5460 27.5209 L 81.5369 27.6556 L 81.1366 28.2883 L 80.8249 29.0619 L 80.6363 29.9169 L 80.6287 30.0288 L 80.2168 30.6796 L 79.9048 31.4531 L 79.7160 32.3080 L 79.7100 32.3958 L 79.2875 33.0623 L 78.9750 33.8356 L 78.7856 34.6904 L 78.7812 34.7557 L 78.7787 34.7583 L 78.3479 35.4363 L 78.0347 36.2093 L 77.8444 37.0639 L 77.8411 37.1124 L 77.8282 37.1259 L 77.3964 37.8033 L 77.0821 38.5758 L 76.8906 39.4301 L 76.8884 39.4610 L 76.8658 39.4846 L 76.4327 40.1612 L 76.1168 40.9330 L 75.9236 41.7870 L 75.9227 41.7996 L 75.8910 41.8327 L 75.4562 42.5081 L 75.1384 43.2791 L 74.9445 44.1259 L 74.9028 44.1691 L 74.4659 44.8431 L 74.1456 45.6132 L 73.9542 46.4372 L 73.9003 46.4927 L 73.4607 47.1650 L 73.1375 47.9338 L 72.9481 48.7350 L 72.8824 48.8020 L 72.4396 49.4722 L 72.1128 50.2395 L 71.9250 51.0173 L 71.8480 51.0950 L 71.4015 51.7627 L 71.0703 52.5281 L 70.8838 53.2820 L 70.7961 53.3692 L 70.3451 54.0339 L 70.0087 54.7971 L 69.8229 55.5271 L 69.7250 55.6229 L 69.2687 56.2840 L 68.9262 57.0444 L 68.7403 57.7509 L 68.6329 57.8541 L 68.1703 58.5108 L 67.8206 59.2679 L 67.6347 59.9479 L 67.5200 60.0556 L 67.0499 60.7070 L 66.6917 61.4601 L 66.5047 62.1148 L 66.3833 62.2257 L 65.9045 62.8707 L 65.5361 63.6189 L 65.3480 64.2455 L 65.2232 64.3559 L 64.7341 64.9931 L 64.3536 65.7352 L 64.1630 66.3349 L 64.0365 66.4425 L 63.5351 67.0700 L 63.1404 67.8047 L 62.9473 68.3735 L 62.8246 68.4730 L 62.3086 69.0887 L 61.8967 69.8138 L 61.7006 70.3500 L 61.5878 70.4362 L 61.0544 71.0368 L 60.6219 71.7498 L 60.4225 72.2498 L 60.3291 72.3161 L 59.7747 72.8974 L 59.3172 73.5947 L 59.1148 74.0546 L 59.0545 74.0934 L 58.4748 74.6496 L 57.9868 75.3258 L 57.7830 75.7379 L 57.7779 75.7408 L 57.1677 76.2633 L 56.6422 76.9108 L 56.4199 77.3029 L 55.8765 77.7030 L 55.3050 78.3104 L 55.0583 78.6795 L 54.6444 78.9265 L 54.0169 79.4759 L 53.7462 79.8066 L 53.5396 79.8964 L 52.8470 80.3609 L 52.5331 80.6574 L 51.8775 80.9528 L 51.4634 81.2296 L 51.1348 81.3024 L 50.6890 81.4827 L 50.4776 81.4819 L 50.0858 81.5461 L 49.6647 81.4570 L 49.4042 81.4458 L 49.3651 81.4215 L 48.5895 81.1152 L 48.3522 81.0645 L 48.0415 80.8106 L 47.3114 80.4076 L 47.1216 80.3408 L 46.6150 79.8375 L 45.9271 79.3659 L 45.7456 79.2815 L 45.6875 79.1810 L 45.1607 78.5746 L 44.5092 78.0539 L 44.3255 77.9515 L 44.2109 77.7241 L 43.7191 77.0889 L 43.0982 76.5322 L 42.9207 76.4196 L 42.7717 76.0882 L 42.3087 75.4319 L 41.7131 74.8481 L 41.5471 74.7322 L 41.3774 74.3158 L 40.9379 73.6434 L 40.3634 73.0389 L 40.2110 72.9242 L 40.0282 72.4361 L 39.6081 71.7513 L 39.0512 71.1306 L 38.9136 71.0208 L 38.7224 70.4714 L 38.3186 69.7770 L 37.7763 69.1433 L 37.6539 69.0409 L 37.4571 68.4376 L 37.0668 67.7355 L 36.5369 67.0914 L 36.4311 66.9993 L 36.2308 66.3501 L 35.8518 65.6418 L 35.3324 64.9893 L 35.2418 64.9077 L 35.0382 64.2149 L 34.6688 63.5016 L 34.1583 62.8421 L 34.0838 62.7732 L 33.8779 62.0421 L 33.5167 61.3246 L 33.0137 60.6594 L 32.9523 60.6013 L 32.9518 60.5942 L 32.7457 59.8347 L 32.3914 59.1138 L 31.8947 58.4438 L 31.8427 58.3937 L 31.8407 58.3618 L 31.6408 57.6007 L 31.2922 56.8770 L 30.8010 56.2031 L 30.7581 56.1611 L 30.7551 56.1053 L 30.5603 55.3428 L 30.2166 54.6168 L 29.7299 53.9395 L 29.6962 53.9060 L 29.6923 53.8269 L 29.5018 53.0634 L 29.1623 52.3354 L 28.6794 51.6554 L 28.6551 51.6310 L 28.6507 51.5297 L 28.4638 50.7653 L 28.1277 50.0357 L 27.6480 49.3534 L 27.6335 49.3387 L 27.6286 49.2160 L 27.4447 48.4508 L 27.1114 47.7199 L 26.6344 47.0358 L 26.6297 47.0310 L 26.6244 46.8875 L 26.4429 46.1218 L 26.1119 45.3899 L 25.6425 44.7120 L 25.6368 44.5459 L 25.4572 43.7797 L 25.1281 43.0469 L 24.6705 42.3826 L 24.6644 42.1921 L 24.4863 41.4256 L 24.1587 40.6921 L 23.7130 40.0424 L 23.7064 39.8282 L 23.5295 39.0614 L 23.2029 38.3275 L 22.7694 37.6934 L 22.7624 37.4563 L 22.5863 36.6893 L 22.2604 35.9551 L 21.8379 35.3357 L 21.8303 35.0748 L 21.6547 34.3078 L 21.3293 33.5733 L 20.9174 32.9688 L 20.9092 32.6841 L 20.7338 31.9170 L 20.4086 31.1825 L 20.0085 30.5948 L 19.9997 30.2880 L 19.8242 29.5209 L 19.4990 28.7864 L 19.1098 28.2148 L 19.1001 27.8853 L 18.9244 27.1182 L 18.5989 26.3838 L 18.2197 25.8273 L 18.2091 25.4740 L 18.0329 24.7070 L 17.7070 23.9728 L 17.3400 23.4350 L 17.3285 23.0611 L 17.1516 22.2943 L 16.8251 21.5604 L 16.4677 21.0376 L 16.4550 20.6398 L 16.2773 19.8732 L 15.9500 19.1397 L 15.6041 18.6350 L 15.5903 18.2162 L 15.4116 17.4498 L 15.0833 16.7167 L 14.7474 16.2279 L 14.7321 15.7859 L 14.5523 15.0198 L 14.2229 14.2872 L 13.8985 13.8166 L 13.8817 13.3537 L 13.7006 12.5879 L 13.3700 11.8558 L 13.0555 11.4011 L 13.0370 10.9149 L 12.8545 10.1495 L 12.5225 9.4180 L 12.2198 8.9822 L 12.1996 8.4760 L 12.0156 7.7109 L 11.6822 6.9800 L 11.3894 6.5602 L 11.3670 6.0307 L 11.1814 5.2660 L 10.8465 4.5358 L 10.5652 4.1344 L 10.5408 3.5844 L 10.3534 2.8201 L 10.0169 2.0907 L 9.7463 1.7064 L 9.7196 1.1346 L 9.5304 0.3707 L 9.1921 -0.3579 L 8.9319 -0.7257 L 8.9026 -1.3202 L 8.7116 -2.0836 L 8.3715 -2.8113 L 7.8882 -3.4909 L 7.2699 -4.1109 L 6.5272 -4.6604 L 5.6728 -5.1303 L 4.7213 -5.5123 L 3.6891 -5.8000 L 2.5938 -5.9885 L 1.4540 -6.0746 L 0.2894 -6.0566 L -0.8801 -5.9351 L -2.0346 -5.7120 L -3.1543 -5.3912 L -4.2200 -4.9781 L -5.2135 -4.4799 L -6.1178 -3.9050 L -6.9175 -3.2632 L -7.5987 -2.5657 L -8.1500 -1.8242 L -8.5618 -1.0516 L -8.8271 -0.2609 L -8.9414 0.5342 Z"/>
  <g id="debug">
  <path fill="none" stroke="#ff3366" stroke-opacity="0.6" stroke-width="0.5" d=""/>
  <path fill="none" stroke="#ff9900" stroke-opacity="0.6" stroke-width="0.6" d="M 0 0 L 5.5317 16.5951 M 0.8137 2.4327 L 6.3799 19.0162 M 1.6318 4.8615 L 7.2344 21.4328 M 2.4553 7.2878 L 8.0962 23.8461 M 3.2852 9.7143 L 8.9665 26.2587 M 4.1201 12.1356 L 9.8442 28.6653 M 4.9627 14.5582 L 10.7319 31.0722 M 5.8111 16.9756 L 11.6281 33.4728 M 6.6675 19.3926 L 12.5351 35.8718 M 7.5307 21.8047 L 13.4521 38.2647 M 8.4029 24.2162 L 14.3813 40.6556 M 9.2826 26.6213 L 15.3216 43.0386 M 10.1729 29.0271 L 16.2765 45.4205 M 11.0720 31.4268 L 17.2445 47.7943 M 11.9815 33.8224 L 18.2276 50.1619 M 12.9029 36.2155 L 19.2279 52.5247 M 13.8357 38.6026 L 20.2451 54.8788 M 14.7809 40.9836 L 21.2812 57.2238 M 15.7406 43.3608 L 22.3387 59.5614 M 16.7153 45.7322 L 23.4191 61.8894 M 17.7060 48.0964 L 24.5241 64.2057 M 18.7140 50.4531 L 25.6564 66.5092 M 19.7410 52.8015 L 26.8187 68.7984 M 20.7887 55.1406 L 28.0143 71.0713 M 21.8590 57.4693 L 29.2469 73.3254 M 22.9541 59.7858 L 30.5207 75.5574 M 24.0769 62.0895 L 31.8413 77.7646 M 25.2310 64.3796 L 33.2158 79.9436 M 26.4183 66.6502 L 34.6493 82.0854 M 27.6445 68.9016 L 36.1530 84.1856 M 28.9131 71.1272 L 37.7358 86.2320 M 30.2322 73.3262 L 39.4143 88.2154 M 31.6073 75.4894 L 41.2030 90.1154 M 33.0476 77.6094 L 43.1240 91.9084 M 34.5638 79.6749 L 45.2040 93.5595 M 36.1704 81.6718 L 47.4778 95.0187 M 37.8832 83.5771 L 49.9849 96.2082 M 39.7238 85.3600 L 52.7721 97.0107 M 41.7156 86.9724 L 55.8744 97.2448 M 43.8790 88.3416 L 59.2731 96.6492 M 46.2249 89.3676 L 62.8141 94.9170 M 48.7213 89.9273 L 66.1023 91.9021 M 51.2787 89.9273 L 68.6596 87.9526 M 53.7751 89.3676 L 70.3643 83.8182 M 56.1210 88.3416 L 71.5151 80.0340 M 58.2844 86.9724 L 72.4433 76.6999 M 60.2762 85.3600 L 73.3244 73.7093 M 62.1168 83.5771 L 74.2185 70.9460 M 63.8296 81.6718 L 75.1369 68.3249 M 65.4362 79.6749 L 76.0763 65.7903 M 66.9524 77.6094 L 77.0288 63.3104 M 68.3927 75.4894 L 77.9884 60.8635 M 69.7678 73.3262 L 78.9498 58.4371 M 71.0869 71.1272 L 79.9096 56.0223 M 72.3555 68.9016 L 80.8639 53.6175 M 73.5817 66.6502 L 81.8127 51.2150 M 74.7690 64.3796 L 82.7538 48.8155 M 75.9231 62.0895 L 83.6876 46.4144 M 77.0459 59.7858 L 84.6125 44.0143 M 78.1410 57.4693 L 85.5288 41.6132 M 79.2113 55.1406 L 86.4368 39.2099 M 80.2590 52.8015 L 87.3367 36.8045 M 81.2860 50.4531 L 88.2284 34.3970 M 82.2940 48.0964 L 89.1122 31.9872 M 83.2847 45.7322 L 89.9885 29.5750 M 84.2594 43.3608 L 90.8575 27.1601 M 85.2191 40.9836 L 91.7193 24.7435 M 86.1643 38.6026 L 92.5738 22.3264 M 87.0971 36.2155 L 93.4221 19.9063 M 88.0185 33.8224 L 94.2646 17.4828 M 88.9280 31.4268 L 95.1005 15.0593 M 89.8271 29.0271 L 95.9308 12.6338 M 90.7174 26.6213 L 96.7564 10.2041 M 91.5971 24.2162 L 97.5754 7.7768 M 92.4693 21.8047 L 98.3906 5.3446 M 93.3325 19.3926 L 99.2002 2.9133 M 94.1889 16.9756 L 100.0059 0.4783 M 95.0373 14.5582 L 100.8065 -1.9558 M 95.8799 12.1356 L 101.6039 -4.3941 M 96.7148 9.7143 L 102.3962 -6.8302 M 97.5447 7.2878 L 103.1856 -9.2705 M 98.3682 4.8615 L 103.9707 -11.7098 M 99.1863 2.4327 L 104.7525 -14.1508 M 100.0000 0 L 105.5317 -16.5951 M 100.8137 -2.4327 L 106.3799 -19.0162 M 101.6318 -4.8615 L 107.2344 -21.4328 M 102.4553 -7.2878 L 108.0962 -23.8461 M 103.2852 -9.7143 L 108.9665 -26.2587 M 104.1201 -12.1356 L 109.8442 -28.6653 M 104.9627 -14.5582 L 110.7319 -31.0722 M 105.8111 -16.9756 L 111.6281 -33.4728 M 106.6675 -19.3926 L 112.5351 -35.8718 M 107.5307 -21.8047 L 113.4521 -38.2647 M 108.4029 -24.2162 L 114.3813 -40.6556 M 109.2826 -26.6213 L 115.3216 -43.0386 M 110.1729 -29.0271 L 116.2765 -45.4205 M 111.0720 -31.4268 L 117.2445 -47.7943 M 111.9815 -33.8224 L 118.2276 -50.1619 M 112.9029 -36.2155 L 119.2279 -52.5247 M 113.8357 -38.6026 L 120.2451 -54.8788 M 114.7809 -40.9836 L 121.2812 -57.2238 M 115.7406 -43.3608 L 122.3387 -59.5614 M 116.7153 -45.7322 L 123.4191 -61.8894 M 117.7060 -48.0964 L 124.5241 -64.2057 M 118.7140 -50.4531 L 125.6564 -66.5092 M 119.7410 -52.8015 L 126.8187 -68.7984 M 120.7887 -55.1406 L 128.0143 -71.0713 M 121.8590 -57.4693 L 129.2469 -73.3254 M 122.9541 -59.7858 L 130.5207 -75.5574 M 124.0769 -62.0895 L 131.8413 -77.7646 M 125.2310 -64.3796 L 133.2158 -79.9436 M 126.4183 -66.6502 L 134.6493 -82.0854 M 127.6445 -68.9016 L 136.1530 -84.1856 M 128.9131 -71.1272 L 137.7358 -86.2320 M 130.2322 -73.3262 L 139.4143 -88.2154 M 131.6073 -75.4894 L 141.2030 -90.1154 M 133.0476 -77.6094 L 143.1240 -91.9084 M 134.5638 -79.6749 L 145.2040 -93.5595 M 136.1704 -81.6718 L 147.4778 -95.0187 M 137.8832 -83.5771 L 149.9849 -96.2082 M 139.7238 -85.3600 L 152.7721 -97.0107 M 141.7156 -86.9724 L 155.8744 -97.2448 M 143.8790 -88.3416 L 159.2731 -96.6492 M 146.2249 -89.3676 L 162.8141 -94.9170 M 148.7213 -89.9273 L 166.1023 -91.9021 M 151.2787 -89.9273 L 168.6596 -87.9526 M 153.7751 -89.3676 L 170.3643 -83.8182 M 156.1210 -88.3416 L 171.5151 -80.0340 M 158.2844 -86.9724 L 172.4433 -76.6999 M 160.2762 -85.3600 L 173.3244 -73.7093 M 162.1168 -83.5771 L 174.2185 -70.9460 M 163.8296 -81.6718 L 175.1369 -68.3249 M 165.4362 -79.6749 L 176.0763 -65.7903 M 166.9524 -77.6094 L 177.0288 -63.3104 M 168.3927 -75.4894 L 177.9884 -60.8635 M 169.7678 -73.3262 L 178.9498 -58.4371 M 171.0869 -71.1272 L 179.9096 -56.0223 M 172.3555 -68.9016 L 180.8639 -53.6175 M 173.5817 -66.6502 L 181.8127 -51.2150 M 174.7690 -64.3796 L 182.7538 -48.8155 M 175.9231 -62.0895 L 183.6876 -46.4144 M 177.0459 -59.7858 L 184.6125 -44.0143 M 178.1410 -57.4693 L 185.5288 -41.6132 M 179.2113 -55.1406 L 186.4368 -39.2099 M 180.2590 -52.8015 L 187.3367 -36.8045 M 181.2860 -50.4531 L 188.2284 -34.3970 M 182.2940 -48.0964 L 189.1122 -31.9872 M 183.2847 -45.7322 L 189.9885 -29.5750 M 184.2594 -43.3608 L 190.8575 -27.1601 M 185.2191 -40.9836 L 191.7193 -24.7435 M 186.1643 -38.6026 L 192.5738 -22.3264 M 187.0971 -36.2155 L 193.4221 -19.9063 M 188.0185 -33.8224 L 194.2646 -17.4828 M 188.9280 -31.4268 L 195.1005 -15.0593 M 189.8271 -29.0271 L 195.9308 -12.6338 M 190.7174 -26.6213 L 196.7564 -10.2041 M 191.5971 -24.2162 L 197.5754 -7.7768 M 192.4693 -21.8047 L 198.3906 -5.3446 M 193.3325 -19.3926 L 199.2002 -2.9133 M 194.1889 -16.9756 L 200.0059 -0.4783 M 195.0373 -14.5582 L 200.8065 1.9558 M 195.8799 -12.1356 L 201.6039 4.3941 M 196.7148 -9.7143 L 202.3962 6.8302 M 197.5447 -7.2878 L 203.1856 9.2705 M 198.3682 -4.8615 L 203.9707 11.7098 M 199.1863 -2.4327 L 204.7525 14.1508 M 200.0000 0 L 205.5317 16.5951 M 200.8137 2.4327 L 206.3799 19.0162 M 201.6318 4.8615 L 207.2344 21.4328 M 202.4553 7.2878 L 208.0962 23.8461 M 203.2852 9.7143 L 208.9665 26.2587 M 204.1201 12.1356 L 209.8442 28.6653 M 204.9627 14.5582 L 210.7319 31.0722 M 205.8111 16.9756 L 211.6281 33.4728 M 206.6675 19.3926 L 212.5351 35.8718 M 207.5307 21.8047 L 213.4521 38.2647 M 208.4029 24.2162 L 214.3813 40.6556 M 209.2826 26.6213 L 215.3216 43.0386 M 210.1729 29.0271 L 216.2765 45.4205 M 211.0720 31.4268 L 217.2445 47.7943 M 211.9815 33.8224 L 218.2276 50.1619 M 212.9029 36.2155 L 219.2279 52.5247 M 213.8357 38.6026 L 220.2451 54.8788 M 214.7809 40.9836 L 221.2812 57.2238 M 215.7406 43.3608 L 222.3387 59.5614 M 216.7153 45.7322 L 223.4191 61.8894 M 217.7060 48.0964 L 224.5241 64.2057 M 218.7140 50.4531 L 225.6564 66.5092 M 219.7410 52.8015 L 226.8187 68.7984 M 220.7887 55.1406 L 228.0143 71.0713 M 221.8590 57.4693 L 229.2469 73.3254 M 222.9541 59.7858 L 230.5207 75.5574 M 224.0769 62.0895 L 231.8413 77.7646 M 225.2310 64.3796 L 233.2158 79.9436 M 226.4183 66.6502 L 234.6493 82.0854 M 227.6445 68.9016 L 236.1530 84.1856 M 228.9131 71.1272 L 237.7358 86.2320 M 230.2322 73.3262 L 239.4143 88.2154 M 231.6073 75.4894 L 241.2030 90.1154 M 233.0476 77.6094 L 243.1240 91.9084 M 234.5638 79.6749 L 245.2040 93.5595 M 236.1704 81.6718 L 247.4778 95.0187 M 237.8832 83.5771 L 249.9849 96.2082 M 239.7238 85.3600 L 252.7721 97.0107 M 241.7156 86.9724 L 255.8744 97.2448 M 243.8790 88.3416 L 259.2731 96.6492 M 246.2249 89.3676 L 262.8141 94.9170 M 248.7213 89.9273 L 266.1023 91.9021 M 251.2787 89.9273 L 268.6596 87.9526 M 253.7751 89.3676 L 270.3643 83.8182 M 256.1210 88.3416 L 271.5151 80.0340 M 258.2844 86.9724 L 272.4433 76.6999 M 260.2762 85.3600 L 273.3244 73.7093 M 262.1168 83.5771 L 274.2185 70.9460 M 263.8296 81.6718 L 275.1369 68.3249 M 265.4362 79.6749 L 276.0763 65.7903 M 266.9524 77.6094 L 277.0288 63.3104 M 268.3927 75.4894 L 277.9884 60.8635 M 269.7678 73.3262 L 278.9498 58.4371 M 271.0869 71.1272 L 279.9096 56.0223 M 272.3555 68.9016 L 280.8639 53.6175 M 273.5817 66.6502 L 281.8127 51.2150 M 274.7690 64.3796 L 282.7538 48.8155 M 275.9231 62.0895 L 283.6876 46.4144 M 277.0459 59.7858 L 284.6125 44.0143 M 278.1410 57.4693 L 285.5288 41.6132 M 279.2113 55.1406 L 286.4368 39.2099 M 280.2590 52.8015 L 287.3367 36.8045 M 281.2860 50.4531 L 288.2284 34.3970 M 282.2940 48.0964 L 289.1122 31.9872 M 283.2847 45.7322 L 289.9885 29.5750 M 284.2594 43.3608 L 290.8575 27.1601 M 285.2191 40.9836 L 291.7193 24.7435 M 286.1643 38.6026 L 292.5738 22.3264 M 287.0971 36.2155 L 293.4221 19.9063 M 288.0185 33.8224 L 294.2646 17.4828 M 288.9280 31.4268 L 295.1005 15.0593 M 289.8271 29.0271 L 295.9308 12.6338 M 290.7174 26.6213 L 296.7564 10.2041 M 291.5971 24.2162 L 297.5754 7.7768 M 292.4693 21.8047 L 298.3906 5.3446 M 293.3325 19.3926 L 299.2002 2.9133 M 294.1889 16.9756 L 300.0059 0.4783 M 295.0373 14.5582 L 300.8065 -1.9558 M 295.8799 12.1356 L 301.6039 -4.3941 M 296.7148 9.7143 L 302.3962 -6.8302 M 297.5447 7.2878 L 303.1856 -9.2705 M 298.3682 4.8615 L 303.9707 -11.7098 M 299.1863 2.4327 L 304.7525 -14.1508 M 300.0000 0 L 305.5317 -16.5951"/>
  <path fill="none" stroke="#222222" stroke-opacity="0.7" stroke-width="0.6" d="M 0 0 L 2.5659 17.3035 M 0.8137 2.4327 L 3.3368 19.7425 M 1.6318 4.8615 L 4.1141 22.1772 M 2.4553 7.2878 L 4.8986 24.6091 M 3.2852 9.7143 L 5.6920 27.0406 M 4.1201 12.1356 L 6.4927 29.4667 M 4.9627 14.5582 L 7.3037 31.8936 M 5.8111 16.9756 L 8.1233 34.3148 M 6.6675 19.3926 L 8.9539 36.7352 M 7.5307 21.8047 L 9.7947 39.1503 M 8.4029 24.2162 L 10.6480 41.5643 M 9.2826 26.6213 L 11.5126 43.9713 M 10.1729 29.0271 L 12.3922 46.3785 M 11.0720 31.4268 L 13.2853 48.7789 M 11.9815 33.8224 L 14.1938 51.1746 M 12.9029 36.2155 L 15.1200 53.5672 M 13.8357 38.6026 L 16.0637 55.9529 M 14.7809 40.9836 L 17.0267 58.3316 M 15.7406 43.3608 L 18.0120 60.7054 M 16.7153 45.7322 L 19.0210 63.0723 M 17.7060 48.0964 L 20.0556 65.4306 M 18.7140 50.4531 L 21.1186 67.7798 M 19.7410 52.8015 L 22.2129 70.1187 M 20.7887 55.1406 L 23.3421 72.4460 M 21.8590 57.4693 L 24.5102 74.7600 M 22.9541 59.7858 L 25.7218 77.0582 M 24.0769 62.0895 L 26.9832 79.3391 M 25.2310 64.3796 L 28.3019 81.6007 M 26.4183 66.6502 L 29.6841 83.8354 M 27.6445 68.9016 L 31.1422 86.0411 M 28.9131 71.1272 L 32.6866 88.2081 M 30.2322 73.3262 L 34.3365 90.3307 M 31.6073 75.4894 L 36.1095 92.3928 M 33.0476 77.6094 L 38.0327 94.3767 M 34.5638 79.6749 L 40.1399 96.2551 M 36.1704 81.6718 L 42.4775 97.9880 M 37.8832 83.5771 L 45.1029 99.5104 M 39.7238 85.3600 L 48.0921 100.7212 M 41.7156 86.9724 L 51.5275 101.4542 M 43.8790 88.3416 L 55.4621 101.4499 M 46.2249 89.3676 L 59.8313 100.3614 M 48.7213 89.9273 L 64.2818 97.9191 M 51.2787 89.9273 L 68.2156 94.3018 M 53.7751 89.3676 L 71.2480 90.2004 M 56.1210 88.3416 L 73.4882 86.2498 M 58.2844 86.9724 L 75.2416 82.6770 M 60.2762 85.3600 L 76.7396 79.4479 M 62.1168 83.5771 L 78.1025 76.4741 M 63.8296 81.6718 L 79.3880 73.6762 M 65.4362 79.6749 L 80.6241 70.9960 M 66.9524 77.6094 L 81.8233 68.3978 M 68.3927 75.4894 L 82.9933 65.8552 M 69.7678 73.3262 L 84.1382 63.3519 M 71.0869 71.1272 L 85.2611 60.8760 M 72.3555 68.9016 L 86.3626 58.4231 M 73.5817 66.6502 L 87.4460 55.9836 M 74.7690 64.3796 L 88.5115 53.5565 M 75.9231 62.0895 L 89.5617 51.1357 M 77.0459 59.7858 L 90.5961 48.7229 M 78.1410 57.4693 L 91.6162 46.3152 M 79.2113 55.1406 L 92.6232 43.9105 M 80.2590 52.8015 L 93.6179 41.5083 M 81.2860 50.4531 L 94.6010 39.1082 M 82.2940 48.0964 L 95.5730 36.7094 M 83.2847 45.7322 L 96.5347 34.3115 M 84.2594 43.3608 L 97.4869 31.9139 M 85.2191 40.9836 L 98.4297 29.5173 M 86.1643 38.6026 L 99.3631 27.1227 M 87.0971 36.2155 L 100.2886 24.7273 M 88.0185 33.8224 L 101.2069 22.3305 M 88.9280 31.4268 L 102.1170 19.9357 M 89.8271 29.0271 L 103.0202 17.5407 M 90.7174 26.6213 L 103.9175 15.1430 M 91.5971 24.2162 L 104.8071 12.7493 M 92.4693 21.8047 L 105.6918 10.3521 M 93.3325 19.3926 L 106.5699 7.9572 M 94.1889 16.9756 L 107.4432 5.5598 M 95.0373 14.5582 L 108.3106 3.1645 M 95.8799 12.1356 L 109.1739 0.7662 M 96.7148 9.7143 L 110.0313 -1.6289 M 97.5447 7.2878 L 110.8851 -4.0273 M 98.3682 4.8615 L 111.7339 -6.4236 M 99.1863 2.4327 L 112.5786 -8.8208 M 100.0000 0 L 113.4201 -11.2203 M 100.8137 -2.4327 L 114.3080 -13.5637 M 101.6318 -4.8615 L 115.2010 -15.9012 M 102.4553 -7.2878 L 116.0999 -18.2340 M 103.2852 -9.7143 L 117.0061 -20.5647 M 104.1201 -12.1356 L 117.9182 -22.8878 M 104.9627 -14.5582 L 118.8388 -25.2095 M 105.8111 -16.9756 L 119.7661 -27.5232 M 106.6675 -19.3926 L 120.7026 -29.8334 M 107.5307 -21.8047 L 121.6470 -32.1355 M 108.4029 -24.2162 L 122.6016 -34.4335 M 109.2826 -26.6213 L 123.5650 -36.7212 M 110.1729 -29.0271 L 124.5406 -39.0053 M 111.0720 -31.4268 L 125.5266 -41.2787 M 111.9815 -33.8224 L 126.5248 -43.5429 M 112.9029 -36.2155 L 127.5367 -45.7992 M 113.8357 -38.6026 L 128.5622 -48.0432 M 114.7809 -40.9836 L 129.6024 -50.2745 M 115.7406 -43.3608 L 130.6596 -52.4941 M 116.7153 -45.7322 L 131.7347 -54.6995 M 117.7060 -48.0964 L 132.8288 -56.8883 M 118.7140 -50.4531 L 133.9436 -59.0586 M 119.7410 -52.8015 L 135.0812 -61.2083 M 120.7887 -55.1406 L 136.2436 -63.3346 M 121.8590 -57.4693 L 137.4332 -65.4342 M 122.9541 -59.7858 L 138.6526 -67.5028 M 124.0769 -62.0895 L 139.9054 -69.5363 M 125.2310 -64.3796 L 141.1957 -71.5297 M 126.4183 -66.6502 L 142.5258 -73.4724 M 127.6445 -68.9016 L 143.9022 -75.3578 M 128.9131 -71.1272 L 145.3286 -77.1711 M 130.2322 -73.3262 L 146.8133 -78.8997 M 131.6073 -75.4894 L 148.3612 -80.5197 M 133.0476 -77.6094 L 149.9796 -82.0030 M 134.5638 -79.6749 L 151.6747 -83.3101 M 136.1704 -81.6718 L 153.4513 -84.3859 M 137.8832 -83.5771 L 155.3050 -85.1509 M 139.7238 -85.3600 L 157.2161 -85.4931 M 141.7156 -86.9724 L 159.1241 -85.2578 M 143.8790 -88.3416 L 160.8889 -84.2600 M 146.2249 -89.3676 L 162.2531 -82.3609 M 148.7213 -89.9273 L 162.8934 -79.6732 M 151.2787 -89.9273 L 162.7290 -76.7029 M 153.7751 -89.3676 L 162.1520 -74.0111 M 156.1210 -88.3416 L 161.6696 -71.7522 M 158.2844 -86.9724 L 161.5097 -69.7796 M 160.2762 -85.3600 L 161.6681 -67.9227 M 162.1168 -83.5771 L 162.0673 -66.0844 M 163.8296 -81.6718 L 162.6319 -64.2201 M 165.4362 -79.6749 L 163.3061 -62.3123 M 166.9524 -77.6094 L 164.0512 -60.3589 M 168.3927 -75.4894 L 164.8418 -58.3609 M 169.7678 -73.3262 L 165.6607 -56.3225 M 171.0869 -71.1272 L 166.4967 -54.2474 M 172.3555 -68.9016 L 167.3408 -52.1430 M 173.5817 -66.6502 L 168.1893 -50.0093 M 174.7690 -64.3796 L 169.0375 -47.8524 M 175.9231 -62.0895 L 169.8843 -45.6722 M 177.0459 -59.7858 L 170.7265 -43.4745 M 178.1410 -57.4693 L 171.5637 -41.2602 M 179.2113 -55.1406 L 172.3954 -39.0304 M 180.2590 -52.8015 L 173.2211 -36.7869 M 181.2860 -50.4531 L 174.0406 -34.5314 M 182.2940 -48.0964 L 174.8537 -32.2649 M 183.2847 -45.7322 L 175.6605 -29.9884 M 184.2594 -43.3608 L 176.4611 -27.7025 M 185.2191 -40.9836 L 177.2554 -25.4088 M 186.1643 -38.6026 L 178.0431 -23.1093 M 187.0971 -36.2155 L 178.8254 -20.8021 M 188.0185 -33.8224 L 179.6024 -18.4872 M 188.9280 -31.4268 L 180.3734 -16.1685 M 189.8271 -29.0271 L 181.1392 -13.8444 M 190.7174 -26.6213 L 181.9008 -11.5130 M 191.5971 -24.2162 L 182.6562 -9.1810 M 192.4693 -21.8047 L 183.4080 -6.8417 M 193.3325 -19.3926 L 184.1546 -4.5009 M 194.1889 -16.9756 L 184.8976 -2.1543 M 195.0373 -14.5582 L 185.6359 0.1934 M 195.8799 -12.1356 L 186.3712 2.5470 M 196.7148 -9.7143 L 187.1016 4.9001 M 197.5447 -7.2878 L 187.8294 7.2590 M 198.3682 -4.8615 L 188.5531 9.6182 M 199.1863 -2.4327 L 189.2738 11.9804 M 200.0000 0 L 189.9920 14.3470 M 200.8137 2.4327 L 190.7702 16.7549 M 201.6318 4.8615 L 191.5546 19.1599 M 202.4553 7.2878 L 192.3459 21.5636 M 203.2852 9.7143 L 193.1457 23.9687 M 204.1201 12.1356 L 193.9526 26.3700 M 204.9627 14.5582 L 194.7692 28.7740 M 205.8111 16.9756 L 195.5940 31.1744 M 206.6675 19.3926 L 196.4293 33.5762 M 207.5307 21.8047 L 197.2742 35.9750 M 208.4029 24.2162 L 198.1310 38.3754 M 209.2826 26.6213 L 198.9984 40.7716 M 210.1729 29.0271 L 199.8799 43.1711 M 211.0720 31.4268 L 200.7741 45.5671 M 211.9815 33.8224 L 201.6828 47.9621 M 212.9029 36.2155 L 202.6081 50.3581 M 213.8357 38.6026 L 203.5498 52.7517 M 214.7809 40.9836 L 204.5096 55.1433 M 215.7406 43.3608 L 205.4902 57.5355 M 216.7153 45.7322 L 206.4929 59.9272 M 217.7060 48.0964 L 207.5196 62.3173 M 218.7140 50.4531 L 208.5727 64.7062 M 219.7410 52.8015 L 209.6552 67.0938 M 220.7887 55.1406 L 210.7703 69.4803 M 221.8590 57.4693 L 211.9218 71.8654 M 222.9541 59.7858 L 213.1142 74.2487 M 224.0769 62.0895 L 214.3534 76.6309 M 225.2310 64.3796 L 215.6469 79.0131 M 226.4183 66.6502 L 217.0006 81.3914 M 227.6445 68.9016 L 218.4268 83.7686 M 228.9131 71.1272 L 219.9363 86.1409 M 230.2322 73.3262 L 221.5484 88.5113 M 231.6073 75.4894 L 223.2823 90.8741 M 233.0476 77.6094 L 225.1672 93.2265 M 234.5638 79.6749 L 227.2417 95.5614 M 236.1704 81.6718 L 229.5612 97.8679 M 237.8832 83.5771 L 232.2005 100.1211 M 239.7238 85.3600 L 235.2692 102.2760 M 241.7156 86.9724 L 238.9145 104.2394 M 243.8790 88.3416 L 243.3088 105.8251 M 246.2249 89.3676 L 248.5774 106.7014 M 248.7213 89.9273 L 254.5553 106.4186 M 251.2787 89.9273 L 260.5962 104.7321 M 253.7751 89.3676 L 265.9129 101.9640 M 256.1210 88.3416 L 270.1890 98.7382 M 258.2844 86.9724 L 273.5663 95.4848 M 260.2762 85.3600 L 276.3083 92.3576 M 262.1168 83.5771 L 278.6187 89.3806 M 263.8296 81.6718 L 280.6333 86.5329 M 265.4362 79.6749 L 282.4393 83.7847 M 266.9524 77.6094 L 284.0904 81.1141 M 268.3927 75.4894 L 285.6242 78.5013 M 269.7678 73.3262 L 287.0652 75.9328 M 271.0869 71.1272 L 288.4317 73.3977 M 272.3555 68.9016 L 289.7346 70.8921 M 273.5817 66.6502 L 290.9861 68.4058 M 274.7690 64.3796 L 292.1922 65.9379 M 275.9231 62.0895 L 293.3604 63.4814 M 277.0459 59.7858 L 294.4938 61.0377 M 278.1410 57.4693 L 295.5969 58.6034 M 279.2113 55.1406 L 296.6733 56.1760 M 280.2590 52.8015 L 297.7257 53.7546 M 281.2860 50.4531 L 298.7563 51.3384 M 282.2940 48.0964 L 299.7671 48.9264 M 283.2847 45.7322 L 300.7598 46.5178 M 284.2594 43.3608 L 301.7360 44.1119 M 285.2191 40.9836 L 302.6968 41.7090 M 286.1643 38.6026 L 303.6428 39.3099 M 287.0971 36.2155 L 304.5760 36.9119 M 288.0185 33.8224 L 305.4976 34.5139 M 288.9280 31.4268 L 306.4070 32.1193 M 289.8271 29.0271 L 307.3059 29.7258 M 290.7174 26.6213 L 308.1958 27.3308 M 291.5971 24.2162 L 309.0748 24.9408 M 292.4693 21.8047 L 309.9462 22.5482 M 293.3325 19.3926 L 310.8085 20.1588 M 294.1889 16.9756 L 311.6637 17.7677 M 295.0373 14.5582 L 312.5108 15.3794 M 295.8799 12.1356 L 313.3518 12.9887 M 296.7148 9.7143 L 314.1850 10.6018 M 297.5447 7.2878 L 315.0130 8.2122 M 298.3682 4.8615 L 315.8343 5.8251 M 299.1863 2.4327 L 316.6502 3.4376 M 300.0000 0 L 317.4613 1.0481"/>
  
  <path fill="none" stroke="#8844ff" stroke-opacity="0.35" stroke-width="0.6" d="M -8.9026 1.3202 L -8.0922 3.7309 L -7.2771 6.1386 L -6.4565 8.5449 L -5.6292 10.9526 L -4.7967 13.3563 L -3.9563 15.7626 L -3.1099 18.1652 L -2.2553 20.5689 L -1.3936 22.9695 L -0.5226 25.3713 L 0.3560 27.7687 L 1.2456 30.1690 L 2.1443 32.5655 L 3.0538 34.9606 L 3.9755 37.3562 L 4.9090 39.7489 L 5.8554 42.1391 L 6.8168 44.5294 L 7.7938 46.9185 L 8.7875 49.3053 L 9.7994 51.6902 L 10.8313 54.0732 L 11.8851 56.4543 L 12.9630 58.8333 L 14.0675 61.2098 L 15.2019 63.5848 L 16.3708 65.9595 L 17.5765 68.3305 L 18.8263 70.7011 L 20.1250 73.0687 L 21.4835 75.4378 L 22.9105 77.8058 L 24.4208 80.1742 L 26.0333 82.5438 L 27.7758 84.9168 L 29.6855 87.2916 L 31.8205 89.6655 L 34.2647 92.0206 L 37.1348 94.3011 L 40.5686 96.3681 L 44.6096 97.9332 L 49.0280 98.6414 L 53.3466 98.3574 L 57.1972 97.2770 L 60.4944 95.6968 L 63.3179 93.8304 L 65.7713 91.8017 L 67.9433 89.6766 L 69.9014 87.4891 L 71.6917 85.2604 L 73.3495 83.0014 L 74.8995 80.7198 L 76.3611 78.4198 L 77.7466 76.1082 L 79.0697 73.7834 L 80.3375 71.4501 L 81.5589 69.1065 L 82.7378 66.7574 L 83.8797 64.4023 L 84.9892 62.0411 L 86.0693 59.6746 L 87.1230 57.3036 L 88.1527 54.9285 L 89.1606 52.5493 L 90.1488 50.1663 L 91.1185 47.7805 L 92.0707 45.3933 L 93.0078 43.0026 L 93.9310 40.6078 L 94.8402 38.2125 L 95.7369 35.8150 L 96.6230 33.4128 L 97.4968 31.0128 L 98.3616 28.6076 L 99.2160 26.2032 L 100.0623 23.7949 L 100.8993 21.3873 L 101.7295 18.9754 L 102.5509 16.5656 L 103.3663 14.1514 L 104.1743 11.7381 L 104.9762 9.3231 L 105.7729 6.9046 L 106.5406 4.5101 L 107.3118 2.1198 L 108.0871 -0.2676 L 108.8677 -2.6549 L 109.6521 -5.0366 L 110.4428 -7.4189 L 111.2379 -9.7957 L 112.0393 -12.1715 L 112.8460 -14.5419 L 113.6597 -16.9110 L 114.4789 -19.2730 L 115.3066 -21.6349 L 116.1408 -23.9899 L 116.9827 -26.3399 L 117.8337 -28.6864 L 118.6929 -31.0258 L 119.5610 -33.3580 L 120.4397 -35.6849 L 121.3290 -38.0047 L 122.2294 -40.3158 L 123.1415 -42.6175 L 124.0663 -44.9089 L 125.0045 -47.1891 L 125.9570 -49.4564 L 126.9245 -51.7090 L 127.9082 -53.9458 L 128.9097 -56.1657 L 129.9283 -58.3629 L 130.9662 -60.5370 L 132.0227 -62.6814 L 133.0998 -64.7953 L 134.1954 -66.8696 L 135.3081 -68.8979 L 136.4341 -70.8714 L 137.5668 -72.7808 L 138.6930 -74.6136 L 139.7923 -76.3603 L 140.8334 -78.0157 L 141.7790 -79.5900 L 142.6200 -81.1211 L 143.4456 -82.6358 L 144.4747 -84.0362 L 145.8742 -85.0577 L 147.5857 -85.4869 L 149.4387 -85.3130 L 151.3047 -84.6438 L 153.1168 -83.6025 L 154.8507 -82.2880 L 156.5031 -80.7708 L 158.0770 -79.1020 L 159.5801 -77.3163 L 161.0193 -75.4393 L 162.4023 -73.4888 L 163.7332 -71.4816 L 165.0200 -69.4246 L 166.2658 -67.3284 L 167.4765 -65.1965 L 168.6537 -63.0372 L 169.8014 -60.8533 L 170.9226 -58.6474 L 172.0195 -56.4224 L 173.0943 -54.1808 L 174.1487 -51.9245 L 175.1845 -49.6548 L 176.2032 -47.3730 L 177.2059 -45.0809 L 178.1930 -42.7809 L 179.1669 -40.4713 L 180.1286 -38.1524 L 181.0776 -35.8281 L 182.0156 -33.4971 L 182.9442 -31.1575 L 183.8615 -28.8163 L 184.7708 -26.4667 L 185.6708 -24.1146 L 186.5634 -21.7559 L 187.4476 -19.3952 L 188.3257 -17.0279 L 189.1957 -14.6603 L 190.0605 -12.2863 L 190.9184 -9.9113 L 191.7708 -7.5327 L 192.6185 -5.1491 L 193.4449 -2.7346 L 194.2753 -0.3233 L 195.1104 2.0866 L 195.9513 4.4975 L 196.7966 6.9044 L 197.6487 9.3136 L 198.5058 11.7189 L 199.3700 14.1250 L 200.2401 16.5277 L 201.1180 18.9313 L 202.0023 21.3301 L 202.8958 23.7314 L 203.7968 26.1285 L 204.7066 28.5237 L 205.6265 30.9189 L 206.5560 33.3105 L 207.4958 35.6990 L 208.4477 38.0869 L 209.4120 40.4728 L 210.3893 42.8555 L 211.3808 45.2354 L 212.3876 47.6123 L 213.4110 49.9861 L 214.4523 52.3566 L 215.5130 54.7232 L 216.5953 57.0868 L 217.7021 59.4485 L 218.8340 61.8048 L 219.9955 64.1590 L 221.1886 66.5086 L 222.4195 68.8584 L 223.6919 71.2062 L 225.0126 73.5549 L 226.3902 75.9077 L 227.8375 78.2714 L 229.3714 80.6533 L 231.0205 83.0681 L 232.8317 85.5312 L 234.8838 88.0482 L 237.3067 90.5780 L 240.2366 92.9289 L 243.6616 94.7212 L 247.2943 95.6125 L 250.7720 95.5796 L 253.9048 94.8349 L 256.6759 93.6085 L 259.1309 92.0673 L 261.3286 90.3173 L 263.3217 88.4230 L 265.1492 86.4269 L 266.8431 84.3550 L 268.4267 82.2258 L 269.9187 80.0510 L 271.3313 77.8431 L 272.6784 75.6047 L 273.9673 73.3438 L 275.2070 71.0610 L 276.4018 68.7628 L 277.5575 66.4504 L 278.6786 64.1248 L 279.7686 61.7881 L 280.8305 59.4416 L 281.8670 57.0863 L 282.8805 54.7231 L 283.8730 52.3525 L 284.8459 49.9759 L 285.8004 47.5952 L 286.7388 45.2084 L 287.6627 42.8153 L 288.5717 40.4197 L 289.4677 38.0200 L 290.3524 35.6139 L 291.2243 33.2085 L 292.0867 30.7965 L 292.9383 28.3839 L 293.7813 25.9663 L 294.6148 23.5482 L 295.4410 21.1249 L 296.2582 18.7027 L 297.0691 16.2752 L 297.8724 13.8478 L 298.6693 11.4179 L 299.4608 8.9838 L 300.5392 -8.9838 L 299.7033 -6.5524 L 298.8639 -4.1248 L 298.0204 -1.6996 L 297.1715 0.7259 L 296.3188 3.1463 L 295.4598 5.5681 L 294.5965 7.9848 L 293.7267 10.4012 L 292.8518 12.8128 L 291.9699 15.2239 L 291.0824 17.6287 L 290.1866 20.0343 L 289.2843 22.4338 L 288.3743 24.8294 L 287.4554 27.2227 L 286.5283 29.6100 L 285.5923 31.9914 L 284.6459 34.3691 L 283.6889 36.7412 L 282.7210 39.1066 L 281.7415 41.4646 L 280.7494 43.8148 L 279.7440 46.1564 L 278.7244 48.4882 L 277.6900 50.8089 L 276.6392 53.1180 L 275.5707 55.4154 L 274.4850 57.6956 L 273.3796 59.9600 L 272.2551 62.2033 L 271.1088 64.4267 L 269.9423 66.6238 L 268.7556 68.7919 L 267.5507 70.9268 L 266.3306 73.0263 L 265.1027 75.0868 L 263.8764 77.1115 L 262.6640 79.1099 L 261.4700 81.1037 L 260.2559 83.1227 L 258.8957 85.1335 L 257.2061 86.9258 L 255.1431 88.1572 L 252.8742 88.6350 L 250.5994 88.4136 L 248.4271 87.6519 L 246.3951 86.5008 L 244.5033 85.0722 L 242.7375 83.4421 L 241.0826 81.6639 L 239.5227 79.7726 L 238.0450 77.7941 L 236.6377 75.7458 L 235.2936 73.6441 L 234.0026 71.4956 L 232.7599 69.3106 L 231.5584 67.0922 L 230.3952 64.8484 L 229.2658 62.5820 L 228.1665 60.2951 L 227.0944 57.9906 L 226.0472 55.6708 L 225.0226 53.3373 L 224.0186 50.9916 L 223.0335 48.6346 L 222.0660 46.2682 L 221.1154 43.8947 L 220.1792 41.5122 L 219.2564 39.1210 L 218.3472 36.7250 L 217.4499 34.3228 L 216.5629 31.9126 L 215.6878 29.5011 L 214.8214 27.0816 L 213.9650 24.6601 L 213.1164 22.2322 L 212.2767 19.8027 L 211.4437 17.3668 L 210.6190 14.9310 L 209.8001 12.4890 L 208.9884 10.0462 L 208.1824 7.6001 L 207.3815 5.1491 L 206.6018 2.6673 L 205.8179 0.1883 L 205.0290 -2.2893 L 204.2339 -4.7683 L 203.4341 -7.2434 L 202.6270 -9.7211 L 201.8144 -12.1952 L 200.9943 -14.6705 L 200.1677 -17.1426 L 199.3326 -19.6161 L 198.4907 -22.0852 L 197.6386 -24.5572 L 196.7784 -27.0255 L 195.9084 -29.4923 L 195.0273 -31.9597 L 194.1356 -34.4242 L 193.2323 -36.8863 L 192.3156 -39.3485 L 191.3849 -41.8095 L 190.4393 -44.2684 L 189.4777 -46.7253 L 188.4984 -49.1805 L 187.5000 -51.6339 L 186.4805 -54.0853 L 185.4381 -56.5345 L 184.3698 -58.9825 L 183.2722 -61.4307 L 182.1434 -63.8758 L 180.9777 -66.3215 L 179.7715 -68.7655 L 178.5162 -71.2131 L 177.2053 -73.6625 L 175.8278 -76.1167 L 174.3692 -78.5790 L 172.8085 -81.0556 L 171.1167 -83.5517 L 169.2476 -86.0761 L 167.1301 -88.6318 L 164.6562 -91.1964 L 161.6760 -93.6775 L 158.0826 -95.8185 L 153.9971 -97.2189 L 149.8298 -97.6141 L 145.9790 -97.0932 L 142.5977 -95.9290 L 139.6553 -94.3597 L 137.0735 -92.5406 L 134.7740 -90.5628 L 132.6935 -88.4784 L 130.7871 -86.3209 L 129.0193 -84.1093 L 127.3647 -81.8572 L 125.8035 -79.5729 L 124.3228 -77.2662 L 122.9083 -74.9375 L 121.5523 -72.5934 L 120.2455 -70.2333 L 118.9837 -67.8627 L 117.7611 -65.4822 L 116.5729 -63.0921 L 115.4157 -60.6940 L 114.2865 -58.2887 L 113.1826 -55.8771 L 112.1016 -53.4596 L 111.0415 -51.0366 L 110.0008 -48.6093 L 108.9785 -46.1794 L 107.9721 -43.7446 L 106.9803 -41.3049 L 106.0032 -38.8637 L 105.0391 -36.4193 L 104.0862 -33.9697 L 103.1462 -31.5214 L 102.2155 -29.0675 L 101.2957 -26.6136 L 100.3844 -24.1554 L 99.4826 -21.6974 L 98.5881 -19.2347 L 97.7026 -16.7737 L 96.8234 -14.3080 L 95.9519 -11.8428 L 95.0868 -9.3755 L 94.2271 -6.9046 L 93.3964 -4.4576 L 92.5620 -2.0152 L 91.7231 0.4242 L 90.8788 2.8630 L 90.0303 5.2959 L 89.1753 7.7291 L 88.3155 10.1562 L 87.4490 12.5819 L 86.5769 15.0017 L 85.6973 17.4196 L 84.8118 19.8299 L 83.9174 22.2393 L 83.0158 24.6410 L 82.1060 27.0369 L 81.1864 29.4285 L 80.2579 31.8118 L 79.3197 34.1868 L 78.3700 36.5552 L 77.4088 38.9150 L 76.4354 41.2644 L 75.4490 43.6026 L 74.4487 45.9283 L 73.4334 48.2402 L 72.4022 50.5363 L 71.3540 52.8143 L 70.2874 55.0725 L 69.2005 57.3091 L 68.0937 59.5170 L 66.9643 61.6949 L 65.8127 63.8346 L 64.6360 65.9326 L 63.4359 67.9774 L 62.2130 69.9583 L 60.9709 71.8607 L 59.7158 73.6670 L 58.4623 75.3524 L 57.2344 76.8896 L 56.0744 78.2479 L 55.0447 79.4062 L 54.2036 80.3778 L 53.5293 81.2133 L 52.8331 81.9215 L 51.8812 82.3671 L 50.6232 82.3821 L 49.1665 81.9242 L 47.6272 81.0545 L 46.0809 79.8626 L 44.5651 78.4268 L 43.0943 76.8060 L 41.6744 75.0445 L 40.3041 73.1730 L 38.9810 71.2146 L 37.7012 69.1857 L 36.4628 67.1020 L 35.2600 64.9699 L 34.0912 62.7996 L 32.9518 60.5942 L 31.8407 58.3618 L 30.7551 56.1053 L 29.6923 53.8269 L 28.6507 51.5297 L 27.6286 49.2160 L 26.6244 46.8875 L 25.6368 44.5459 L 24.6644 42.1921 L 23.7064 39.8282 L 22.7624 37.4563 L 21.8303 35.0748 L 20.9092 32.6841 L 19.9997 30.2880 L 19.1001 27.8853 L 18.2091 25.4740 L 17.3285 23.0611 L 16.4550 20.6398 L 15.5903 18.2162 L 14.7321 15.7859 L 13.8817 13.3537 L 13.0370 10.9149 L 12.1996 8.4760 L 11.3670 6.0307 L 10.5408 3.5844 L 9.7196 1.1346 L 8.9026 -1.3202 L -8.9026 1.3202 Z"/>
  
  
  
</g>
</svg>