<svg xmlns="http://www.w3.org/2000/svg" width="335.8522" height="286.8066" viewBox="-18.2748 -133.4398 335.8522 286.8066">
  <path fill="black" stroke="none" fill-rule="nonzero" d="M -8.2748 4.6047 C -1.8738 27.5217 6.1329 50.1555 16.7294 71.5076 C 52.3913 143.3668 82.6513 68.6227 96.8121 30.4696 C 104.6725 9.2915 111.3329 -12.3223 119.3284 -33.4497 C 123.0197 -43.2036 136.1136 -76.8677 145.0914 -78.1432 C 161.8576 -80.5254 180.1494 -26.1697 183.5049 -17.0000 C 190.9856 3.4431 197.2804 24.3174 205.1192 44.6259 C 209.9626 57.1738 222.8923 93.8848 240.8999 100.7871 C 268.0880 111.2081 290.8551 45.5107 295.0034 35.2648 C 299.3746 24.4684 303.1391 13.4272 306.6925 2.3347 C 307.2957 0.4516 307.5774 -1.5779 307.4376 -3.5502 C 306.8257 -12.1834 298.9090 -9.2160 295.3629 -4.6705 C 294.0335 -2.9664 292.9847 -1.0241 292.2014 0.9902 C 286.5670 15.4798 281.9370 30.3517 276.1355 44.7751 C 257.1941 91.8664 246.4993 86.8815 226.6941 42.7892 C 216.2942 19.6359 201.1755 -28.1540 194.8808 -44.6259 C 187.4400 -64.0967 166.9733 -123.4398 136.0917 -92.8758 C 121.7196 -78.6515 112.7145 -55.2446 105.9180 -37.6580 C 103.0954 -30.3544 80.8414 41.1984 65.2268 67.2223 C 63.0168 70.9055 60.3937 74.4754 57.0748 77.2021 C 49.1429 83.7183 37.5034 64.5576 35.4651 60.6313 C 30.8725 51.7850 26.5556 42.7754 22.8177 33.5354 C 14.1622 12.1388 11.3443 -21.0897 -1.7915 -9.2987 C -5.6956 -5.7943 -7.8584 -0.5315 -8.2748 4.6047 Z"/>
  <g id="debug">
  <path fill="none" stroke="#ff3366" stroke-opacity="0.6" stroke-width="0.5" d=""/>
  <path fill="none" stroke="#ff9900" stroke-opacity="0.6" stroke-width="0.6" d=""/>
  <path fill="none" stroke="#222222" stroke-opacity="0.7" stroke-width="0.6" d=""/>
  
  <path fill="none" stroke="#8844ff" stroke-opacity="0.35" stroke-width="0.6" d="M -5.3250 11.4195 L -4.5113 13.8522 L -3.6931 16.2810 L -2.8697 18.7073 L -2.0398 21.1337 L -1.2049 23.5551 L -0.3623 25.9776 L 0.4861 28.3950 L 1.3425 30.8120 L 2.2057 33.2241 L 3.0780 35.6357 L 3.9576 38.0408 L 4.8479 40.4466 L 5.7470 42.8463 L 6.6565 45.2418 L 7.5779 47.6350 L 8.5107 50.0221 L 9.4559 52.4031 L 10.4156 54.7802 L 11.3903 57.1516 L 12.3810 59.5159 L 13.3890 61.8726 L 14.4160 64.2209 L 15.4637 66.5601 L 16.5341 68.8888 L 17.6291 71.2053 L 18.7519 73.5090 L 19.9060 75.7991 L 21.0933 78.0697 L 22.3195 80.3211 L 23.5881 82.5467 L 24.9073 84.7457 L 26.2823 86.9089 L 27.7226 89.0289 L 29.2388 91.0944 L 30.8454 93.0913 L 32.5582 94.9966 L 34.3988 96.7795 L 36.3906 98.3919 L 38.5540 99.7611 L 40.8999 100.7871 L 43.3964 101.3468 L 45.9537 101.3468 L 48.4501 100.7871 L 50.7960 99.7611 L 52.9594 98.3919 L 54.9512 96.7795 L 56.7918 94.9966 L 58.5046 93.0913 L 60.1112 91.0944 L 61.6274 89.0289 L 63.0677 86.9089 L 64.4428 84.7457 L 65.7619 82.5467 L 67.0305 80.3211 L 68.2567 78.0697 L 69.4440 75.7991 L 70.5982 73.5090 L 71.7209 71.2053 L 72.8160 68.8888 L 73.8863 66.5601 L 74.9340 64.2209 L 75.9610 61.8726 L 76.9690 59.5159 L 77.9597 57.1516 L 78.9344 54.7802 L 79.8941 52.4031 L 80.8393 50.0221 L 81.7721 47.6350 L 82.6935 45.2418 L 83.6030 42.8463 L 84.5022 40.4466 L 85.3924 38.0408 L 86.2721 35.6357 L 87.1443 33.2241 L 88.0075 30.8120 L 88.8639 28.3950 L 89.7123 25.9776 L 90.5549 23.5551 L 91.3898 21.1337 L 92.2198 18.7073 L 93.0432 16.2810 L 93.8613 13.8522 L 94.6750 11.4195 L 95.4887 8.9868 L 96.3069 6.5580 L 97.1303 4.1317 L 97.9602 1.7052 L 98.7951 -0.7162 L 99.6377 -3.1387 L 100.4861 -5.5561 L 101.3425 -7.9731 L 102.2057 -10.3852 L 103.0780 -12.7967 L 103.9576 -15.2019 L 104.8479 -17.6077 L 105.7470 -20.0073 L 106.6565 -22.4029 L 107.5779 -24.7960 L 108.5107 -27.1831 L 109.4559 -29.5642 L 110.4156 -31.9413 L 111.3903 -34.3127 L 112.3810 -36.6770 L 113.3890 -39.0336 L 114.4160 -41.3820 L 115.4637 -43.7211 L 116.5341 -46.0498 L 117.6291 -48.3664 L 118.7519 -50.6700 L 119.9060 -52.9601 L 121.0933 -55.2307 L 122.3195 -57.4821 L 123.5881 -59.7077 L 124.9073 -61.9067 L 126.2823 -64.0699 L 127.7226 -66.1899 L 129.2388 -68.2554 L 130.8454 -70.2523 L 132.5582 -72.1576 L 134.3988 -73.9405 L 136.3906 -75.5529 L 138.5540 -76.9221 L 140.8999 -77.9481 L 143.3964 -78.5079 L 145.9537 -78.5079 L 148.4501 -77.9481 L 150.7960 -76.9221 L 152.9594 -75.5529 L 154.9512 -73.9405 L 156.7918 -72.1576 L 158.5046 -70.2523 L 160.1112 -68.2554 L 161.6274 -66.1899 L 163.0677 -64.0699 L 164.4428 -61.9067 L 165.7619 -59.7077 L 167.0305 -57.4821 L 168.2567 -55.2307 L 169.4440 -52.9601 L 170.5982 -50.6700 L 171.7209 -48.3664 L 172.8160 -46.0498 L 173.8863 -43.7211 L 174.9340 -41.3820 L 175.9610 -39.0336 L 176.9690 -36.6770 L 177.9597 -34.3127 L 178.9344 -31.9413 L 179.8941 -29.5642 L 180.8393 -27.1831 L 181.7721 -24.7960 L 182.6935 -22.4029 L 183.6030 -20.0073 L 184.5022 -17.6077 L 185.3924 -15.2019 L 186.2721 -12.7967 L 187.1443 -10.3852 L 188.0075 -7.9731 L 188.8639 -5.5561 L 189.7123 -3.1387 L 190.5549 -0.7162 L 191.3898 1.7052 L 192.2198 4.1317 L 193.0432 6.5580 L 193.8613 8.9868 L 194.6750 11.4195 L 195.4887 13.8522 L 196.3069 16.2810 L 197.1303 18.7073 L 197.9602 21.1337 L 198.7951 23.5551 L 199.6377 25.9776 L 200.4861 28.3950 L 201.3425 30.8120 L 202.2057 33.2241 L 203.0780 35.6357 L 203.9576 38.0408 L 204.8479 40.4466 L 205.7470 42.8463 L 206.6565 45.2418 L 207.5779 47.6350 L 208.5107 50.0221 L 209.4559 52.4031 L 210.4156 54.7802 L 211.3903 57.1516 L 212.3810 59.5159 L 213.3890 61.8726 L 214.4160 64.2209 L 215.4637 66.5601 L 216.5341 68.8888 L 217.6291 71.2053 L 218.7519 73.5090 L 219.9060 75.7991 L 221.0933 78.0697 L 222.3195 80.3211 L 223.5881 82.5467 L 224.9073 84.7457 L 226.2823 86.9089 L 227.7226 89.0289 L 229.2388 91.0944 L 230.8454 93.0913 L 232.5582 94.9966 L 234.3988 96.7795 L 236.3906 98.3919 L 238.5540 99.7611 L 240.8999 100.7871 L 243.3964 101.3468 L 245.9537 101.3468 L 248.4501 100.7871 L 250.7960 99.7611 L 252.9594 98.3919 L 254.9512 96.7795 L 256.7918 94.9966 L 258.5046 93.0913 L 260.1112 91.0944 L 261.6274 89.0289 L 263.0677 86.9089 L 264.4428 84.7457 L 265.7619 82.5467 L 267.0305 80.3211 L 268.2567 78.0697 L 269.4440 75.7991 L 270.5982 73.5090 L 271.7209 71.2053 L 272.8160 68.8888 L 273.8863 66.5601 L 274.9340 64.2209 L 275.9610 61.8726 L 276.9690 59.5159 L 277.9597 57.1516 L 278.9344 54.7802 L 279.8941 52.4031 L 280.8393 50.0221 L 281.7721 47.6350 L 282.6935 45.2418 L 283.6030 42.8463 L 284.5022 40.4466 L 285.3924 38.0408 L 286.2721 35.6357 L 287.1443 33.2241 L 288.0075 30.8120 L 288.8639 28.3950 L 289.7123 25.9776 L 290.5549 23.5551 L 291.3898 21.1337 L 292.2198 18.7073 L 293.0432 16.2810 L 293.8613 13.8522 L 294.6750 11.4195 L 305.3250 -11.4195 L 304.5113 -8.9868 L 303.6931 -6.5580 L 302.8697 -4.1317 L 302.0398 -1.7052 L 301.2049 0.7162 L 300.3623 3.1387 L 299.5139 5.5561 L 298.6575 7.9731 L 297.7943 10.3852 L 296.9220 12.7967 L 296.0424 15.2019 L 295.1521 17.6077 L 294.2530 20.0073 L 293.3435 22.4029 L 292.4221 24.7960 L 291.4893 27.1831 L 290.5441 29.5642 L 289.5844 31.9413 L 288.6097 34.3127 L 287.6190 36.6770 L 286.6110 39.0336 L 285.5840 41.3820 L 284.5363 43.7211 L 283.4659 46.0498 L 282.3709 48.3664 L 281.2481 50.6700 L 280.0940 52.9601 L 278.9067 55.2307 L 277.6805 57.4821 L 276.4119 59.7077 L 275.0927 61.9067 L 273.7177 64.0699 L 272.2774 66.1899 L 270.7612 68.2554 L 269.1546 70.2523 L 267.4418 72.1576 L 265.6012 73.9405 L 263.6094 75.5529 L 261.4460 76.9221 L 259.1001 77.9481 L 256.6036 78.5079 L 254.0463 78.5079 L 251.5499 77.9481 L 249.2040 76.9221 L 247.0406 75.5529 L 245.0488 73.9405 L 243.2082 72.1576 L 241.4954 70.2523 L 239.8888 68.2554 L 238.3726 66.1899 L 236.9323 64.0699 L 235.5572 61.9067 L 234.2381 59.7077 L 232.9695 57.4821 L 231.7433 55.2307 L 230.5560 52.9601 L 229.4018 50.6700 L 228.2791 48.3664 L 227.1840 46.0498 L 226.1137 43.7211 L 225.0660 41.3820 L 224.0390 39.0336 L 223.0310 36.6770 L 222.0403 34.3127 L 221.0656 31.9413 L 220.1059 29.5642 L 219.1607 27.1831 L 218.2279 24.7960 L 217.3065 22.4029 L 216.3970 20.0073 L 215.4978 17.6077 L 214.6076 15.2019 L 213.7279 12.7967 L 212.8557 10.3852 L 211.9925 7.9731 L 211.1361 5.5561 L 210.2877 3.1387 L 209.4451 0.7162 L 208.6102 -1.7052 L 207.7802 -4.1317 L 206.9568 -6.5580 L 206.1387 -8.9868 L 205.3250 -11.4195 L 204.5113 -13.8522 L 203.6931 -16.2810 L 202.8697 -18.7073 L 202.0398 -21.1337 L 201.2049 -23.5551 L 200.3623 -25.9776 L 199.5139 -28.3950 L 198.6575 -30.8120 L 197.7943 -33.2241 L 196.9220 -35.6357 L 196.0424 -38.0408 L 195.1521 -40.4466 L 194.2530 -42.8463 L 193.3435 -45.2418 L 192.4221 -47.6350 L 191.4893 -50.0221 L 190.5441 -52.4031 L 189.5844 -54.7802 L 188.6097 -57.1516 L 187.6190 -59.5159 L 186.6110 -61.8726 L 185.5840 -64.2209 L 184.5363 -66.5601 L 183.4659 -68.8888 L 182.3709 -71.2053 L 181.2481 -73.5090 L 180.0940 -75.7991 L 178.9067 -78.0697 L 177.6805 -80.3211 L 176.4119 -82.5467 L 175.0927 -84.7457 L 173.7177 -86.9089 L 172.2774 -89.0289 L 170.7612 -91.0944 L 169.1546 -93.0913 L 167.4418 -94.9966 L 165.6012 -96.7795 L 163.6094 -98.3919 L 161.4460 -99.7611 L 159.1001 -100.7871 L 156.6036 -101.3468 L 154.0463 -101.3468 L 151.5499 -100.7871 L 149.2040 -99.7611 L 147.0406 -98.3919 L 145.0488 -96.7795 L 143.2082 -94.9966 L 141.4954 -93.0913 L 139.8888 -91.0944 L 138.3726 -89.0289 L 136.9323 -86.9089 L 135.5572 -84.7457 L 134.2381 -82.5467 L 132.9695 -80.3211 L 131.7433 -78.0697 L 130.5560 -75.7991 L 129.4018 -73.5090 L 128.2791 -71.2053 L 127.1840 -68.8888 L 126.1137 -66.5601 L 125.0660 -64.2209 L 124.0390 -61.8726 L 123.0310 -59.5159 L 122.0403 -57.1516 L 121.0656 -54.7802 L 120.1059 -52.4031 L 119.1607 -50.0221 L 118.2279 -47.6350 L 117.3065 -45.2418 L 116.3970 -42.8463 L 115.4978 -40.4466 L 114.6076 -38.0408 L 113.7279 -35.6357 L 112.8557 -33.2241 L 111.9925 -30.8120 L 111.1361 -28.3950 L 110.2877 -25.9776 L 109.4451 -23.5551 L 108.6102 -21.1337 L 107.7802 -18.7073 L 106.9568 -16.2810 L 106.1387 -13.8522 L 105.3250 -11.4195 L 104.5113 -8.9868 L 103.6931 -6.5580 L 102.8697 -4.1317 L 102.0398 -1.7052 L 101.2049 0.7162 L 100.3623 3.1387 L 99.5139 5.5561 L 98.6575 7.9731 L 97.7943 10.3852 L 96.9220 12.7967 L 96.0424 15.2019 L 95.1521 17.6077 L 94.2530 20.0073 L 93.3435 22.4029 L 92.4221 24.7960 L 91.4893 27.1831 L 90.5441 29.5642 L 89.5844 31.9413 L 88.6097 34.3127 L 87.6190 36.6770 L 86.6110 39.0336 L 85.5840 41.3820 L 84.5363 43.7211 L 83.4659 46.0498 L 82.3709 48.3664 L 81.2481 50.6700 L 80.0940 52.9601 L 78.9067 55.2307 L 77.6805 57.4821 L 76.4119 59.7077 L 75.0927 61.9067 L 73.7177 64.0699 L 72.2774 66.1899 L 70.7612 68.2554 L 69.1546 70.2523 L 67.4418 72.1576 L 65.6012 73.9405 L 63.6094 75.5529 L 61.4460 76.9221 L 59.1001 77.9481 L 56.6036 78.5079 L 54.0463 78.5079 L 51.5499 77.9481 L 49.2040 76.9221 L 47.0406 75.5529 L 45.0488 73.9405 L 43.2082 72.1576 L 41.4954 70.2523 L 39.8888 68.2554 L 38.3726 66.1899 L 36.9323 64.0699 L 35.5572 61.9067 L 34.2381 59.7077 L 32.9695 57.4821 L 31.7433 55.2307 L 30.5560 52.9601 L 29.4018 50.6700 L 28.2791 48.3664 L 27.1840 46.0498 L 26.1137 43.7211 L 25.0660 41.3820 L 24.0390 39.0336 L 23.0310 36.6770 L 22.0403 34.3127 L 21.0656 31.9413 L 20.1059 29.5642 L 19.1607 27.1831 L 18.2279 24.7960 L 17.3065 22.4029 L 16.3970 20.0073 L 15.4978 17.6077 L 14.6076 15.2019 L 13.7279 12.7967 L 12.8557 10.3852 L 11.9925 7.9731 L 11.1361 5.5561 L 10.2877 3.1387 L 9.4451 0.7162 L 8.6102 -1.7052 L 7.7802 -4.1317 L 6.9568 -6.5580 L 6.1387 -8.9868 L 5.3250 -11.4195 L -5.3250 11.4195 Z"/>
  
  
  
</g>
</svg>