<svg xmlns="http://www.w3.org/2000/svg" width="1200" height="500" viewBox="-50.0000 -180.0000 570.0000 360.0000">


  <g id="stroke-ink">
    <path id="ink-compound" d="M 0.0000 30.0000 L 0.0000 110.0000 L 3.1746 110.0000 L 6.3492 110.0000 L 9.5238 110.0000 L 12.6984 110.0000 L 15.8730 110.0000 L 19.0476 110.0000 L 22.2222 110.0000 L 25.3968 110.0000 L 28.5714 110.0000 L 31.7460 110.0000 L 34.9206 110.0000 L 38.0952 110.0000 L 41.2698 110.0000 L 44.4444 110.0000 L 47.6190 110.0000 L 50.7937 110.0000 L 53.9683 110.0000 L 57.1429 110.0000 L 60.3175 110.0000 L 63.4921 110.0000 L 66.6667 110.0000 L 69.8413 110.0000 L 73.0159 110.0000 L 76.1905 110.0000 L 79.3651 110.0000 L 82.5397 110.0000 L 85.7143 110.0000 L 88.8889 110.0000 L 92.0635 110.0000 L 95.2381 110.0000 L 98.4127 110.0000 L 101.5873 110.0000 L 104.7619 110.0000 L 107.9365 110.0000 L 111.1111 110.0000 L 114.2857 110.0000 L 117.4603 110.0000 L 120.6349 110.0000 L 123.8095 110.0000 L 126.9841 110.0000 L 130.1587 110.0000 L 133.3333 110.0000 L 136.5079 110.0000 L 139.6825 110.0000 L 142.8571 110.0000 L 146.0317 110.0000 L 149.2063 110.0000 L 152.3810 110.0000 L 155.5556 110.0000 L 158.7302 110.0000 L 161.9048 110.0000 L 165.0794 110.0000 L 168.2540 110.0000 L 171.4286 110.0000 L 174.6032 110.0000 L 177.7778 110.0000 L 180.9524 110.0000 L 184.1270 110.0000 L 187.3016 110.0000 L 190.4762 110.0000 L 193.6508 110.0000 L 196.8254 110.0000 L 200.0000 110.0000 L 200.0000 30.0000 L 196.8254 30.0000 L 193.6508 30.0000 L 190.4762 30.0000 L 187.3016 30.0000 L 184.1270 30.0000 L 180.9524 30.0000 L 177.7778 30.0000 L 174.6032 30.0000 L 171.4286 30.0000 L 168.2540 30.0000 L 165.0794 30.0000 L 161.9048 30.0000 L 158.7302 30.0000 L 155.5556 30.0000 L 152.3810 30.0000 L 149.2063 30.0000 L 146.0317 30.0000 L 142.8571 30.0000 L 139.6825 30.0000 L 136.5079 30.0000 L 133.3333 30.0000 L 130.1587 30.0000 L 126.9841 30.0000 L 123.8095 30.0000 L 120.6349 30.0000 L 117.4603 30.0000 L 114.2857 30.0000 L 111.1111 30.0000 L 107.9365 30.0000 L 104.7619 30.0000 L 101.5873 30.0000 L 98.4127 30.0000 L 95.2381 30.0000 L 92.0635 30.0000 L 88.8889 30.0000 L 85.7143 30.0000 L 82.5397 30.0000 L 79.3651 30.0000 L 76.1905 30.0000 L 73.0159 30.0000 L 69.8413 30.0000 L 66.6667 30.0000 L 63.4921 30.0000 L 60.3175 30.0000 L 57.1429 30.0000 L 53.9683 30.0000 L 50.7937 30.0000 L 47.6190 30.0000 L 44.4444 30.0000 L 41.2698 30.0000 L 38.0952 30.0000 L 34.9206 30.0000 L 31.7460 30.0000 L 28.5714 30.0000 L 25.3968 30.0000 L 22.2222 30.0000 L 19.0476 30.0000 L 15.8730 30.0000 L 12.6984 30.0000 L 9.5238 30.0000 L 6.3492 30.0000 L 3.1746 30.0000 L 0.0000 30.0000 Z M 0.0000 -110.0000 L 0.0000 -30.0000 L 3.1746 -30.0000 L 6.3492 -30.0000 L 9.5238 -30.0000 L 12.6984 -30.0000 L 15.8730 -30.0000 L 19.0476 -30.0000 L 22.2222 -30.0000 L 25.3968 -30.0000 L 28.5714 -30.0000 L 31.7460 -30.0000 L 34.9206 -30.0000 L 38.0952 -30.0000 L 41.2698 -30.0000 L 44.4444 -30.0000 L 47.6190 -30.0000 L 50.7937 -30.0000 L 53.9683 -30.0000 L 57.1429 -30.0000 L 60.3175 -30.0000 L 63.4921 -30.0000 L 66.6667 -30.0000 L 69.8413 -30.0000 L 73.0159 -30.0000 L 76.1905 -30.0000 L 79.3651 -30.0000 L 82.5397 -30.0000 L 85.7143 -30.0000 L 88.8889 -30.0000 L 92.0635 -30.0000 L 95.2381 -30.0000 L 98.4127 -30.0000 L 101.5873 -30.0000 L 104.7619 -30.0000 L 107.9365 -30.0000 L 111.1111 -30.0000 L 114.2857 -30.0000 L 117.4603 -30.0000 L 120.6349 -30.0000 L 123.8095 -30.0000 L 126.9841 -30.0000 L 130.1587 -30.0000 L 133.3333 -30.0000 L 136.5079 -30.0000 L 139.6825 -30.0000 L 142.8571 -30.0000 L 146.0317 -30.0000 L 149.2063 -30.0000 L 152.3810 -30.0000 L 155.5556 -30.0000 L 158.7302 -30.0000 L 161.9048 -30.0000 L 165.0794 -30.0000 L 168.2540 -30.0000 L 171.4286 -30.0000 L 174.6032 -30.0000 L 177.7778 -30.0000 L 180.9524 -30.0000 L 184.1270 -30.0000 L 187.3016 -30.0000 L 190.4762 -30.0000 L 193.6508 -30.0000 L 196.8254 -30.0000 L 195.0000 -30.0000 L 195.0249 -30.0472 L 195.0542 -30.0981 L 195.0877 -30.1525 L 195.1253 -30.2103 L 195.1668 -30.2714 L 195.2122 -30.3355 L 195.2614 -30.4027 L 195.3141 -30.4728 L 195.3702 -30.5456 L 195.4297 -30.6211 L 195.4924 -30.6990 L 195.5582 -30.7793 L 195.6269 -30.8618 L 195.6984 -30.9464 L 195.7726 -31.0330 L 195.8493 -31.1214 L 195.9284 -31.2116 L 196.0099 -31.3033 L 196.0935 -31.3965 L 196.1792 -31.4910 L 196.2667 -31.5867 L 196.3560 -31.6835 L 196.4470 -31.7812 L 196.5395 -31.8797 L 196.6334 -31.9789 L 196.7285 -32.0786 L 196.8248 -32.1788 L 196.9221 -32.2793 L 197.0202 -32.3799 L 197.1191 -32.4805 L 197.2186 -32.5811 L 197.3186 -32.6814 L 197.4189 -32.7814 L 197.5195 -32.8809 L 197.6201 -32.9798 L 197.7207 -33.0779 L 197.8212 -33.1752 L 197.9214 -33.2715 L 198.0211 -33.3666 L 198.1203 -33.4605 L 198.2188 -33.5530 L 198.3165 -33.6440 L 198.4133 -33.7333 L 198.5090 -33.8208 L 198.6035 -33.9065 L 198.6967 -33.9901 L 198.7884 -34.0716 L 198.8786 -34.1507 L 198.9670 -34.2274 L 199.0536 -34.3016 L 199.1382 -34.3731 L 199.2207 -34.4418 L 199.3010 -34.5076 L 199.3789 -34.5703 L 199.4544 -34.6298 L 199.5272 -34.6859 L 199.5973 -34.7386 L 199.6645 -34.7878 L 199.7286 -34.8332 L 199.7897 -34.8747 L 199.8475 -34.9123 L 199.9019 -34.9458 L 199.9528 -34.9751 L 200.0000 -35.0000 L 200.0000 -105.0000 L 196.8254 -110.0000 L 193.6508 -110.0000 L 190.4762 -110.0000 L 187.3016 -110.0000 L 184.1270 -110.0000 L 180.9524 -110.0000 L 177.7778 -110.0000 L 174.6032 -110.0000 L 171.4286 -110.0000 L 168.2540 -110.0000 L 165.0794 -110.0000 L 161.9048 -110.0000 L 158.7302 -110.0000 L 155.5556 -110.0000 L 152.3810 -110.0000 L 149.2063 -110.0000 L 146.0317 -110.0000 L 142.8571 -110.0000 L 139.6825 -110.0000 L 136.5079 -110.0000 L 133.3333 -110.0000 L 130.1587 -110.0000 L 126.9841 -110.0000 L 123.8095 -110.0000 L 120.6349 -110.0000 L 117.4603 -110.0000 L 114.2857 -110.0000 L 111.1111 -110.0000 L 107.9365 -110.0000 L 104.7619 -110.0000 L 101.5873 -110.0000 L 98.4127 -110.0000 L 95.2381 -110.0000 L 92.0635 -110.0000 L 88.8889 -110.0000 L 85.7143 -110.0000 L 82.5397 -110.0000 L 79.3651 -110.0000 L 76.1905 -110.0000 L 73.0159 -110.0000 L 69.8413 -110.0000 L 66.6667 -110.0000 L 63.4921 -110.0000 L 60.3175 -110.0000 L 57.1429 -110.0000 L 53.9683 -110.0000 L 50.7937 -110.0000 L 47.6190 -110.0000 L 44.4444 -110.0000 L 41.2698 -110.0000 L 38.0952 -110.0000 L 34.9206 -110.0000 L 31.7460 -110.0000 L 28.5714 -110.0000 L 25.3968 -110.0000 L 22.2222 -110.0000 L 19.0476 -110.0000 L 15.8730 -110.0000 L 12.6984 -110.0000 L 9.5238 -110.0000 L 6.3492 -110.0000 L 3.1746 -110.0000 L 0.0000 -110.0000 Z" fill="black" stroke="none" fill-rule="nonzero" />
  </g>

  <g id="debug-overlays">
  <g id="cap-fillet-line-aids-butt">
    <path d="M 0.0000 70.0000 L 3.1746 70.0000 L 6.3492 70.0000 L 9.5238 70.0000 L 12.6984 70.0000 L 15.8730 70.0000 L 19.0476 70.0000 L 22.2222 70.0000 L 25.3968 70.0000 L 28.5714 70.0000 L 31.7460 70.0000 L 34.9206 70.0000 L 38.0952 70.0000 L 41.2698 70.0000 L 44.4444 70.0000 L 47.6190 70.0000 L 50.7937 70.0000 L 53.9683 70.0000 L 57.1429 70.0000 L 60.3175 70.0000 L 63.4921 70.0000 L 66.6667 70.0000 L 69.8413 70.0000 L 73.0159 70.0000 L 76.1905 70.0000 L 79.3651 70.0000 L 82.5397 70.0000 L 85.7143 70.0000 L 88.8889 70.0000 L 92.0635 70.0000 L 95.2381 70.0000 L 98.4127 70.0000 L 101.5873 70.0000 L 104.7619 70.0000 L 107.9365 70.0000 L 111.1111 70.0000 L 114.2857 70.0000 L 117.4603 70.0000 L 120.6349 70.0000 L 123.8095 70.0000 L 126.9841 70.0000 L 130.1587 70.0000 L 133.3333 70.0000 L 136.5079 70.0000 L 139.6825 70.0000 L 142.8571 70.0000 L 146.0317 70.0000 L 149.2063 70.0000 L 152.3810 70.0000 L 155.5556 70.0000 L 158.7302 70.0000 L 161.9048 70.0000 L 165.0794 70.0000 L 168.2540 70.0000 L 171.4286 70.0000 L 174.6032 70.0000 L 177.7778 70.0000 L 180.9524 70.0000 L 184.1270 70.0000 L 187.3016 70.0000 L 190.4762 70.0000 L 193.6508 70.0000 L 196.8254 70.0000 L 200.0000 70.0000" fill="none" stroke="#111111" stroke-width="0.8" />
    <path d="M 0.0000 110.0000 L 3.1746 110.0000 L 6.3492 110.0000 L 9.5238 110.0000 L 12.6984 110.0000 L 15.8730 110.0000 L 19.0476 110.0000 L 22.2222 110.0000 L 25.3968 110.0000 L 28.5714 110.0000 L 31.7460 110.0000 L 34.9206 110.0000 L 38.0952 110.0000 L 41.2698 110.0000 L 44.4444 110.0000 L 47.6190 110.0000 L 50.7937 110.0000 L 53.9683 110.0000 L 57.1429 110.0000 L 60.3175 110.0000 L 63.4921 110.0000 L 66.6667 110.0000 L 69.8413 110.0000 L 73.0159 110.0000 L 76.1905 110.0000 L 79.3651 110.0000 L 82.5397 110.0000 L 85.7143 110.0000 L 88.8889 110.0000 L 92.0635 110.0000 L 95.2381 110.0000 L 98.4127 110.0000 L 101.5873 110.0000 L 104.7619 110.0000 L 107.9365 110.0000 L 111.1111 110.0000 L 114.2857 110.0000 L 117.4603 110.0000 L 120.6349 110.0000 L 123.8095 110.0000 L 126.9841 110.0000 L 130.1587 110.0000 L 133.3333 110.0000 L 136.5079 110.0000 L 139.6825 110.0000 L 142.8571 110.0000 L 146.0317 110.0000 L 149.2063 110.0000 L 152.3810 110.0000 L 155.5556 110.0000 L 158.7302 110.0000 L 161.9048 110.0000 L 165.0794 110.0000 L 168.2540 110.0000 L 171.4286 110.0000 L 174.6032 110.0000 L 177.7778 110.0000 L 180.9524 110.0000 L 184.1270 110.0000 L 187.3016 110.0000 L 190.4762 110.0000 L 193.6508 110.0000 L 196.8254 110.0000 L 200.0000 110.0000" fill="none" stroke="#d32f2f" stroke-width="0.6" />
    <path d="M 0.0000 30.0000 L 3.1746 30.0000 L 6.3492 30.0000 L 9.5238 30.0000 L 12.6984 30.0000 L 15.8730 30.0000 L 19.0476 30.0000 L 22.2222 30.0000 L 25.3968 30.0000 L 28.5714 30.0000 L 31.7460 30.0000 L 34.9206 30.0000 L 38.0952 30.0000 L 41.2698 30.0000 L 44.4444 30.0000 L 47.6190 30.0000 L 50.7937 30.0000 L 53.9683 30.0000 L 57.1429 30.0000 L 60.3175 30.0000 L 63.4921 30.0000 L 66.6667 30.0000 L 69.8413 30.0000 L 73.0159 30.0000 L 76.1905 30.0000 L 79.3651 30.0000 L 82.5397 30.0000 L 85.7143 30.0000 L 88.8889 30.0000 L 92.0635 30.0000 L 95.2381 30.0000 L 98.4127 30.0000 L 101.5873 30.0000 L 104.7619 30.0000 L 107.9365 30.0000 L 111.1111 30.0000 L 114.2857 30.0000 L 117.4603 30.0000 L 120.6349 30.0000 L 123.8095 30.0000 L 126.9841 30.0000 L 130.1587 30.0000 L 133.3333 30.0000 L 136.5079 30.0000 L 139.6825 30.0000 L 142.8571 30.0000 L 146.0317 30.0000 L 149.2063 30.0000 L 152.3810 30.0000 L 155.5556 30.0000 L 158.7302 30.0000 L 161.9048 30.0000 L 165.0794 30.0000 L 168.2540 30.0000 L 171.4286 30.0000 L 174.6032 30.0000 L 177.7778 30.0000 L 180.9524 30.0000 L 184.1270 30.0000 L 187.3016 30.0000 L 190.4762 30.0000 L 193.6508 30.0000 L 196.8254 30.0000 L 200.0000 30.0000" fill="none" stroke="#1976d2" stroke-width="0.6" />
    <text x="-40.0000" y="60.0000" font-size="10" fill="#000000">BUTT</text>
  </g>
  <g id="cap-fillet-line-aids-fillet">
    <path d="M 0.0000 -70.0000 L 3.1746 -70.0000 L 6.3492 -70.0000 L 9.5238 -70.0000 L 12.6984 -70.0000 L 15.8730 -70.0000 L 19.0476 -70.0000 L 22.2222 -70.0000 L 25.3968 -70.0000 L 28.5714 -70.0000 L 31.7460 -70.0000 L 34.9206 -70.0000 L 38.0952 -70.0000 L 41.2698 -70.0000 L 44.4444 -70.0000 L 47.6190 -70.0000 L 50.7937 -70.0000 L 53.9683 -70.0000 L 57.1429 -70.0000 L 60.3175 -70.0000 L 63.4921 -70.0000 L 66.6667 -70.0000 L 69.8413 -70.0000 L 73.0159 -70.0000 L 76.1905 -70.0000 L 79.3651 -70.0000 L 82.5397 -70.0000 L 85.7143 -70.0000 L 88.8889 -70.0000 L 92.0635 -70.0000 L 95.2381 -70.0000 L 98.4127 -70.0000 L 101.5873 -70.0000 L 104.7619 -70.0000 L 107.9365 -70.0000 L 111.1111 -70.0000 L 114.2857 -70.0000 L 117.4603 -70.0000 L 120.6349 -70.0000 L 123.8095 -70.0000 L 126.9841 -70.0000 L 130.1587 -70.0000 L 133.3333 -70.0000 L 136.5079 -70.0000 L 139.6825 -70.0000 L 142.8571 -70.0000 L 146.0317 -70.0000 L 149.2063 -70.0000 L 152.3810 -70.0000 L 155.5556 -70.0000 L 158.7302 -70.0000 L 161.9048 -70.0000 L 165.0794 -70.0000 L 168.2540 -70.0000 L 171.4286 -70.0000 L 174.6032 -70.0000 L 177.7778 -70.0000 L 180.9524 -70.0000 L 184.1270 -70.0000 L 187.3016 -70.0000 L 190.4762 -70.0000 L 193.6508 -70.0000 L 196.8254 -70.0000 L 200.0000 -70.0000" fill="none" stroke="#111111" stroke-width="0.8" />
    <path d="M 0.0000 -30.0000 L 3.1746 -30.0000 L 6.3492 -30.0000 L 9.5238 -30.0000 L 12.6984 -30.0000 L 15.8730 -30.0000 L 19.0476 -30.0000 L 22.2222 -30.0000 L 25.3968 -30.0000 L 28.5714 -30.0000 L 31.7460 -30.0000 L 34.9206 -30.0000 L 38.0952 -30.0000 L 41.2698 -30.0000 L 44.4444 -30.0000 L 47.6190 -30.0000 L 50.7937 -30.0000 L 53.9683 -30.0000 L 57.1429 -30.0000 L 60.3175 -30.0000 L 63.4921 -30.0000 L 66.6667 -30.0000 L 69.8413 -30.0000 L 73.0159 -30.0000 L 76.1905 -30.0000 L 79.3651 -30.0000 L 82.5397 -30.0000 L 85.7143 -30.0000 L 88.8889 -30.0000 L 92.0635 -30.0000 L 95.2381 -30.0000 L 98.4127 -30.0000 L 101.5873 -30.0000 L 104.7619 -30.0000 L 107.9365 -30.0000 L 111.1111 -30.0000 L 114.2857 -30.0000 L 117.4603 -30.0000 L 120.6349 -30.0000 L 123.8095 -30.0000 L 126.9841 -30.0000 L 130.1587 -30.0000 L 133.3333 -30.0000 L 136.5079 -30.0000 L 139.6825 -30.0000 L 142.8571 -30.0000 L 146.0317 -30.0000 L 149.2063 -30.0000 L 152.3810 -30.0000 L 155.5556 -30.0000 L 158.7302 -30.0000 L 161.9048 -30.0000 L 165.0794 -30.0000 L 168.2540 -30.0000 L 171.4286 -30.0000 L 174.6032 -30.0000 L 177.7778 -30.0000 L 180.9524 -30.0000 L 184.1270 -30.0000 L 187.3016 -30.0000 L 190.4762 -30.0000 L 193.6508 -30.0000 L 196.8254 -30.0000 L 200.0000 -30.0000" fill="none" stroke="#d32f2f" stroke-width="0.6" />
    <path d="M 0.0000 -110.0000 L 3.1746 -110.0000 L 6.3492 -110.0000 L 9.5238 -110.0000 L 12.6984 -110.0000 L 15.8730 -110.0000 L 19.0476 -110.0000 L 22.2222 -110.0000 L 25.3968 -110.0000 L 28.5714 -110.0000 L 31.7460 -110.0000 L 34.9206 -110.0000 L 38.0952 -110.0000 L 41.2698 -110.0000 L 44.4444 -110.0000 L 47.6190 -110.0000 L 50.7937 -110.0000 L 53.9683 -110.0000 L 57.1429 -110.0000 L 60.3175 -110.0000 L 63.4921 -110.0000 L 66.6667 -110.0000 L 69.8413 -110.0000 L 73.0159 -110.0000 L 76.1905 -110.0000 L 79.3651 -110.0000 L 82.5397 -110.0000 L 85.7143 -110.0000 L 88.8889 -110.0000 L 92.0635 -110.0000 L 95.2381 -110.0000 L 98.4127 -110.0000 L 101.5873 -110.0000 L 104.7619 -110.0000 L 107.9365 -110.0000 L 111.1111 -110.0000 L 114.2857 -110.0000 L 117.4603 -110.0000 L 120.6349 -110.0000 L 123.8095 -110.0000 L 126.9841 -110.0000 L 130.1587 -110.0000 L 133.3333 -110.0000 L 136.5079 -110.0000 L 139.6825 -110.0000 L 142.8571 -110.0000 L 146.0317 -110.0000 L 149.2063 -110.0000 L 152.3810 -110.0000 L 155.5556 -110.0000 L 158.7302 -110.0000 L 161.9048 -110.0000 L 165.0794 -110.0000 L 168.2540 -110.0000 L 171.4286 -110.0000 L 174.6032 -110.0000 L 177.7778 -110.0000 L 180.9524 -110.0000 L 184.1270 -110.0000 L 187.3016 -110.0000 L 190.4762 -110.0000 L 193.6508 -110.0000 L 196.8254 -110.0000 L 200.0000 -110.0000" fill="none" stroke="#1976d2" stroke-width="0.6" />
    <text x="-40.0000" y="-80.0000" font-size="10" fill="#000000">FILLET</text>
  </g>
  <g id="cap-fillet-line-arc-points-fillet">
    <path d="M 195.0000 -30.0000 L 195.0249 -30.0472 L 195.0542 -30.0981 L 195.0877 -30.1525 L 195.1253 -30.2103 L 195.1668 -30.2714 L 195.2122 -30.3355 L 195.2614 -30.4027 L 195.3141 -30.4728 L 195.3702 -30.5456 L 195.4297 -30.6211 L 195.4924 -30.6990 L 195.5582 -30.7793 L 195.6269 -30.8618 L 195.6984 -30.9464 L 195.7726 -31.0330 L 195.8493 -31.1214 L 195.9284 -31.2116 L 196.0099 -31.3033 L 196.0935 -31.3965 L 196.1792 -31.4910 L 196.2667 -31.5867 L 196.3560 -31.6835 L 196.4470 -31.7812 L 196.5395 -31.8797 L 196.6334 -31.9789 L 196.7285 -32.0786 L 196.8248 -32.1788 L 196.9221 -32.2793 L 197.0202 -32.3799 L 197.1191 -32.4805 L 197.2186 -32.5811 L 197.3186 -32.6814 L 197.4189 -32.7814 L 197.5195 -32.8809 L 197.6201 -32.9798 L 197.7207 -33.0779 L 197.8212 -33.1752 L 197.9214 -33.2715 L 198.0211 -33.3666 L 198.1203 -33.4605 L 198.2188 -33.5530 L 198.3165 -33.6440 L 198.4133 -33.7333 L 198.5090 -33.8208 L 198.6035 -33.9065 L 198.6967 -33.9901 L 198.7884 -34.0716 L 198.8786 -34.1507 L 198.9670 -34.2274 L 199.0536 -34.3016 L 199.1382 -34.3731 L 199.2207 -34.4418 L 199.3010 -34.5076 L 199.3789 -34.5703 L 199.4544 -34.6298 L 199.5272 -34.6859 L 199.5973 -34.7386 L 199.6645 -34.7878 L 199.7286 -34.8332 L 199.7897 -34.8747 L 199.8475 -34.9123 L 199.9019 -34.9458 L 199.9528 -34.9751 L 200.0000 -35.0000" fill="none" stroke="#1b5e20" stroke-width="1.6" />
    <circle cx="195.0000" cy="-30.0000" r="1.6" fill="#43a047" stroke="none"/>
    <circle cx="195.0249" cy="-30.0472" r="1.6" fill="#43a047" stroke="none"/>
    <circle cx="195.0542" cy="-30.0981" r="1.6" fill="#43a047" stroke="none"/>
    <circle cx="195.0877" cy="-30.1525" r="1.6" fill="#43a047" stroke="none"/>
    <circle cx="195.1253" cy="-30.2103" r="1.6" fill="#43a047" stroke="none"/>
    <circle cx="195.1668" cy="-30.2714" r="1.6" fill="#43a047" stroke="none"/>
    <circle cx="195.2122" cy="-30.3355" r="1.6" fill="#43a047" stroke="none"/>
    <circle cx="195.2614" cy="-30.4027" r="1.6" fill="#43a047" stroke="none"/>
    <circle cx="195.3141" cy="-30.4728" r="1.6" fill="#43a047" stroke="none"/>
    <circle cx="195.3702" cy="-30.5456" r="1.6" fill="#43a047" stroke="none"/>
    <circle cx="195.4297" cy="-30.6211" r="1.6" fill="#43a047" stroke="none"/>
    <circle cx="195.4924" cy="-30.6990" r="1.6" fill="#43a047" stroke="none"/>
    <circle cx="195.5582" cy="-30.7793" r="1.6" fill="#43a047" stroke="none"/>
    <circle cx="195.6269" cy="-30.8618" r="1.6" fill="#43a047" stroke="none"/>
    <circle cx="195.6984" cy="-30.9464" r="1.6" fill="#43a047" stroke="none"/>
    <circle cx="195.7726" cy="-31.0330" r="1.6" fill="#43a047" stroke="none"/>
    <circle cx="195.8493" cy="-31.1214" r="1.6" fill="#43a047" stroke="none"/>
    <circle cx="195.9284" cy="-31.2116" r="1.6" fill="#43a047" stroke="none"/>
    <circle cx="196.0099" cy="-31.3033" r="1.6" fill="#43a047" stroke="none"/>
    <circle cx="196.0935" cy="-31.3965" r="1.6" fill="#43a047" stroke="none"/>
    <circle cx="196.1792" cy="-31.4910" r="1.6" fill="#43a047" stroke="none"/>
    <circle cx="196.2667" cy="-31.5867" r="1.6" fill="#43a047" stroke="none"/>
    <circle cx="196.3560" cy="-31.6835" r="1.6" fill="#43a047" stroke="none"/>
    <circle cx="196.4470" cy="-31.7812" r="1.6" fill="#43a047" stroke="none"/>
    <circle cx="196.5395" cy="-31.8797" r="1.6" fill="#43a047" stroke="none"/>
    <circle cx="196.6334" cy="-31.9789" r="1.6" fill="#43a047" stroke="none"/>
    <circle cx="196.7285" cy="-32.0786" r="1.6" fill="#43a047" stroke="none"/>
    <circle cx="196.8248" cy="-32.1788" r="1.6" fill="#43a047" stroke="none"/>
    <circle cx="196.9221" cy="-32.2793" r="1.6" fill="#43a047" stroke="none"/>
    <circle cx="197.0202" cy="-32.3799" r="1.6" fill="#43a047" stroke="none"/>
    <circle cx="197.1191" cy="-32.4805" r="1.6" fill="#43a047" stroke="none"/>
    <circle cx="197.2186" cy="-32.5811" r="1.6" fill="#43a047" stroke="none"/>
    <circle cx="197.3186" cy="-32.6814" r="1.6" fill="#43a047" stroke="none"/>
    <circle cx="197.4189" cy="-32.7814" r="1.6" fill="#43a047" stroke="none"/>
    <circle cx="197.5195" cy="-32.8809" r="1.6" fill="#43a047" stroke="none"/>
    <circle cx="197.6201" cy="-32.9798" r="1.6" fill="#43a047" stroke="none"/>
    <circle cx="197.7207" cy="-33.0779" r="1.6" fill="#43a047" stroke="none"/>
    <circle cx="197.8212" cy="-33.1752" r="1.6" fill="#43a047" stroke="none"/>
    <circle cx="197.9214" cy="-33.2715" r="1.6" fill="#43a047" stroke="none"/>
    <circle cx="198.0211" cy="-33.3666" r="1.6" fill="#43a047" stroke="none"/>
    <circle cx="198.1203" cy="-33.4605" r="1.6" fill="#43a047" stroke="none"/>
    <circle cx="198.2188" cy="-33.5530" r="1.6" fill="#43a047" stroke="none"/>
    <circle cx="198.3165" cy="-33.6440" r="1.6" fill="#43a047" stroke="none"/>
    <circle cx="198.4133" cy="-33.7333" r="1.6" fill="#43a047" stroke="none"/>
    <circle cx="198.5090" cy="-33.8208" r="1.6" fill="#43a047" stroke="none"/>
    <circle cx="198.6035" cy="-33.9065" r="1.6" fill="#43a047" stroke="none"/>
    <circle cx="198.6967" cy="-33.9901" r="1.6" fill="#43a047" stroke="none"/>
    <circle cx="198.7884" cy="-34.0716" r="1.6" fill="#43a047" stroke="none"/>
    <circle cx="198.8786" cy="-34.1507" r="1.6" fill="#43a047" stroke="none"/>
    <circle cx="198.9670" cy="-34.2274" r="1.6" fill="#43a047" stroke="none"/>
    <circle cx="199.0536" cy="-34.3016" r="1.6" fill="#43a047" stroke="none"/>
    <circle cx="199.1382" cy="-34.3731" r="1.6" fill="#43a047" stroke="none"/>
    <circle cx="199.2207" cy="-34.4418" r="1.6" fill="#43a047" stroke="none"/>
    <circle cx="199.3010" cy="-34.5076" r="1.6" fill="#43a047" stroke="none"/>
    <circle cx="199.3789" cy="-34.5703" r="1.6" fill="#43a047" stroke="none"/>
    <circle cx="199.4544" cy="-34.6298" r="1.6" fill="#43a047" stroke="none"/>
    <circle cx="199.5272" cy="-34.6859" r="1.6" fill="#43a047" stroke="none"/>
    <circle cx="199.5973" cy="-34.7386" r="1.6" fill="#43a047" stroke="none"/>
    <circle cx="199.6645" cy="-34.7878" r="1.6" fill="#43a047" stroke="none"/>
    <circle cx="199.7286" cy="-34.8332" r="1.6" fill="#43a047" stroke="none"/>
    <circle cx="199.7897" cy="-34.8747" r="1.6" fill="#43a047" stroke="none"/>
    <circle cx="199.8475" cy="-34.9123" r="1.6" fill="#43a047" stroke="none"/>
    <circle cx="199.9019" cy="-34.9458" r="1.6" fill="#43a047" stroke="none"/>
    <circle cx="199.9528" cy="-34.9751" r="1.6" fill="#43a047" stroke="none"/>
    <circle cx="200.0000" cy="-35.0000" r="1.6" fill="#43a047" stroke="none"/>
    <path d="M 200.0000 -105.0000 L 199.9528 -105.0249 L 199.9019 -105.0542 L 199.8475 -105.0877 L 199.7897 -105.1253 L 199.7286 -105.1668 L 199.6645 -105.2122 L 199.5973 -105.2614 L 199.5272 -105.3141 L 199.4544 -105.3702 L 199.3789 -105.4297 L 199.3010 -105.4924 L 199.2207 -105.5582 L 199.1382 -105.6269 L 199.0536 -105.6984 L 198.9670 -105.7726 L 198.8786 -105.8493 L 198.7884 -105.9284 L 198.6967 -106.0099 L 198.6035 -106.0935 L 198.5090 -106.1792 L 198.4133 -106.2667 L 198.3165 -106.3560 L 198.2188 -106.4470 L 198.1203 -106.5395 L 198.0211 -106.6334 L 197.9214 -106.7285 L 197.8212 -106.8248 L 197.7207 -106.9221 L 197.6201 -107.0202 L 197.5195 -107.1191 L 197.4189 -107.2186 L 197.3186 -107.3186 L 197.2186 -107.4189 L 197.1191 -107.5195 L 197.0202 -107.6201 L 196.9221 -107.7207 L 196.8248 -107.8212 L 196.7285 -107.9214 L 196.6334 -108.0211 L 196.5395 -108.1203 L 196.4470 -108.2188 L 196.3560 -108.3165 L 196.2667 -108.4133 L 196.1792 -108.5090 L 196.0935 -108.6035 L 196.0099 -108.6967 L 195.9284 -108.7884 L 195.8493 -108.8786 L 195.7726 -108.9670 L 195.6984 -109.0536 L 195.6269 -109.1382 L 195.5582 -109.2207 L 195.4924 -109.3010 L 195.4297 -109.3789 L 195.3702 -109.4544 L 195.3141 -109.5272 L 195.2614 -109.5973 L 195.2122 -109.6645 L 195.1668 -109.7286 L 195.1253 -109.7897 L 195.0877 -109.8475 L 195.0542 -109.9019 L 195.0249 -109.9528 L 195.0000 -110.0000" fill="none" stroke="#0d47a1" stroke-width="1.6" />
    <circle cx="200.0000" cy="-105.0000" r="1.6" fill="#42a5f5" stroke="none"/>
    <circle cx="199.9528" cy="-105.0249" r="1.6" fill="#42a5f5" stroke="none"/>
    <circle cx="199.9019" cy="-105.0542" r="1.6" fill="#42a5f5" stroke="none"/>
    <circle cx="199.8475" cy="-105.0877" r="1.6" fill="#42a5f5" stroke="none"/>
    <circle cx="199.7897" cy="-105.1253" r="1.6" fill="#42a5f5" stroke="none"/>
    <circle cx="199.7286" cy="-105.1668" r="1.6" fill="#42a5f5" stroke="none"/>
    <circle cx="199.6645" cy="-105.2122" r="1.6" fill="#42a5f5" stroke="none"/>
    <circle cx="199.5973" cy="-105.2614" r="1.6" fill="#42a5f5" stroke="none"/>
    <circle cx="199.5272" cy="-105.3141" r="1.6" fill="#42a5f5" stroke="none"/>
    <circle cx="199.4544" cy="-105.3702" r="1.6" fill="#42a5f5" stroke="none"/>
    <circle cx="199.3789" cy="-105.4297" r="1.6" fill="#42a5f5" stroke="none"/>
    <circle cx="199.3010" cy="-105.4924" r="1.6" fill="#42a5f5" stroke="none"/>
    <circle cx="199.2207" cy="-105.5582" r="1.6" fill="#42a5f5" stroke="none"/>
    <circle cx="199.1382" cy="-105.6269" r="1.6" fill="#42a5f5" stroke="none"/>
    <circle cx="199.0536" cy="-105.6984" r="1.6" fill="#42a5f5" stroke="none"/>
    <circle cx="198.9670" cy="-105.7726" r="1.6" fill="#42a5f5" stroke="none"/>
    <circle cx="198.8786" cy="-105.8493" r="1.6" fill="#42a5f5" stroke="none"/>
    <circle cx="198.7884" cy="-105.9284" r="1.6" fill="#42a5f5" stroke="none"/>
    <circle cx="198.6967" cy="-106.0099" r="1.6" fill="#42a5f5" stroke="none"/>
    <circle cx="198.6035" cy="-106.0935" r="1.6" fill="#42a5f5" stroke="none"/>
    <circle cx="198.5090" cy="-106.1792" r="1.6" fill="#42a5f5" stroke="none"/>
    <circle cx="198.4133" cy="-106.2667" r="1.6" fill="#42a5f5" stroke="none"/>
    <circle cx="198.3165" cy="-106.3560" r="1.6" fill="#42a5f5" stroke="none"/>
    <circle cx="198.2188" cy="-106.4470" r="1.6" fill="#42a5f5" stroke="none"/>
    <circle cx="198.1203" cy="-106.5395" r="1.6" fill="#42a5f5" stroke="none"/>
    <circle cx="198.0211" cy="-106.6334" r="1.6" fill="#42a5f5" stroke="none"/>
    <circle cx="197.9214" cy="-106.7285" r="1.6" fill="#42a5f5" stroke="none"/>
    <circle cx="197.8212" cy="-106.8248" r="1.6" fill="#42a5f5" stroke="none"/>
    <circle cx="197.7207" cy="-106.9221" r="1.6" fill="#42a5f5" stroke="none"/>
    <circle cx="197.6201" cy="-107.0202" r="1.6" fill="#42a5f5" stroke="none"/>
    <circle cx="197.5195" cy="-107.1191" r="1.6" fill="#42a5f5" stroke="none"/>
    <circle cx="197.4189" cy="-107.2186" r="1.6" fill="#42a5f5" stroke="none"/>
    <circle cx="197.3186" cy="-107.3186" r="1.6" fill="#42a5f5" stroke="none"/>
    <circle cx="197.2186" cy="-107.4189" r="1.6" fill="#42a5f5" stroke="none"/>
    <circle cx="197.1191" cy="-107.5195" r="1.6" fill="#42a5f5" stroke="none"/>
    <circle cx="197.0202" cy="-107.6201" r="1.6" fill="#42a5f5" stroke="none"/>
    <circle cx="196.9221" cy="-107.7207" r="1.6" fill="#42a5f5" stroke="none"/>
    <circle cx="196.8248" cy="-107.8212" r="1.6" fill="#42a5f5" stroke="none"/>
    <circle cx="196.7285" cy="-107.9214" r="1.6" fill="#42a5f5" stroke="none"/>
    <circle cx="196.6334" cy="-108.0211" r="1.6" fill="#42a5f5" stroke="none"/>
    <circle cx="196.5395" cy="-108.1203" r="1.6" fill="#42a5f5" stroke="none"/>
    <circle cx="196.4470" cy="-108.2188" r="1.6" fill="#42a5f5" stroke="none"/>
    <circle cx="196.3560" cy="-108.3165" r="1.6" fill="#42a5f5" stroke="none"/>
    <circle cx="196.2667" cy="-108.4133" r="1.6" fill="#42a5f5" stroke="none"/>
    <circle cx="196.1792" cy="-108.5090" r="1.6" fill="#42a5f5" stroke="none"/>
    <circle cx="196.0935" cy="-108.6035" r="1.6" fill="#42a5f5" stroke="none"/>
    <circle cx="196.0099" cy="-108.6967" r="1.6" fill="#42a5f5" stroke="none"/>
    <circle cx="195.9284" cy="-108.7884" r="1.6" fill="#42a5f5" stroke="none"/>
    <circle cx="195.8493" cy="-108.8786" r="1.6" fill="#42a5f5" stroke="none"/>
    <circle cx="195.7726" cy="-108.9670" r="1.6" fill="#42a5f5" stroke="none"/>
    <circle cx="195.6984" cy="-109.0536" r="1.6" fill="#42a5f5" stroke="none"/>
    <circle cx="195.6269" cy="-109.1382" r="1.6" fill="#42a5f5" stroke="none"/>
    <circle cx="195.5582" cy="-109.2207" r="1.6" fill="#42a5f5" stroke="none"/>
    <circle cx="195.4924" cy="-109.3010" r="1.6" fill="#42a5f5" stroke="none"/>
    <circle cx="195.4297" cy="-109.3789" r="1.6" fill="#42a5f5" stroke="none"/>
    <circle cx="195.3702" cy="-109.4544" r="1.6" fill="#42a5f5" stroke="none"/>
    <circle cx="195.3141" cy="-109.5272" r="1.6" fill="#42a5f5" stroke="none"/>
    <circle cx="195.2614" cy="-109.5973" r="1.6" fill="#42a5f5" stroke="none"/>
    <circle cx="195.2122" cy="-109.6645" r="1.6" fill="#42a5f5" stroke="none"/>
    <circle cx="195.1668" cy="-109.7286" r="1.6" fill="#42a5f5" stroke="none"/>
    <circle cx="195.1253" cy="-109.7897" r="1.6" fill="#42a5f5" stroke="none"/>
    <circle cx="195.0877" cy="-109.8475" r="1.6" fill="#42a5f5" stroke="none"/>
    <circle cx="195.0542" cy="-109.9019" r="1.6" fill="#42a5f5" stroke="none"/>
    <circle cx="195.0249" cy="-109.9528" r="1.6" fill="#42a5f5" stroke="none"/>
    <circle cx="195.0000" cy="-110.0000" r="1.6" fill="#42a5f5" stroke="none"/>
  </g>
  </g>
  <text x="20" y="20" font-size="14" fill="#111">example=cap_fillet_line view=none solo=false</text>

</svg>