<svg xmlns="http://www.w3.org/2000/svg" width="1200" height="500" viewBox="-50.0000 -180.0000 570.0000 360.0000">


  <g id="stroke-ink">
    <path id="ink-compound" d="M 0.0000 30.0000 L 0.0000 110.0000 L 3.1746 110.0000 L 6.3492 110.0000 L 9.5238 110.0000 L 12.6984 110.0000 L 15.8730 110.0000 L 19.0476 110.0000 L 22.2222 110.0000 L 25.3968 110.0000 L 28.5714 110.0000 L 31.7460 110.0000 L 34.9206 110.0000 L 38.0952 110.0000 L 41.2698 110.0000 L 44.4444 110.0000 L 47.6190 110.0000 L 50.7937 110.0000 L 53.9683 110.0000 L 57.1429 110.0000 L 60.3175 110.0000 L 63.4921 110.0000 L 66.6667 110.0000 L 69.8413 110.0000 L 73.0159 110.0000 L 76.1905 110.0000 L 79.3651 110.0000 L 82.5397 110.0000 L 85.7143 110.0000 L 88.8889 110.0000 L 92.0635 110.0000 L 95.2381 110.0000 L 98.4127 110.0000 L 101.5873 110.0000 L 104.7619 110.0000 L 107.9365 110.0000 L 111.1111 110.0000 L 114.2857 110.0000 L 117.4603 110.0000 L 120.6349 110.0000 L 123.8095 110.0000 L 126.9841 110.0000 L 130.1587 110.0000 L 133.3333 110.0000 L 136.5079 110.0000 L 139.6825 110.0000 L 142.8571 110.0000 L 146.0317 110.0000 L 149.2063 110.0000 L 152.3810 110.0000 L 155.5556 110.0000 L 158.7302 110.0000 L 161.9048 110.0000 L 165.0794 110.0000 L 168.2540 110.0000 L 171.4286 110.0000 L 174.6032 110.0000 L 177.7778 110.0000 L 180.9524 110.0000 L 184.1270 110.0000 L 187.3016 110.0000 L 190.4762 110.0000 L 193.6508 110.0000 L 196.8254 110.0000 L 200.0000 110.0000 L 200.0000 30.0000 L 196.8254 30.0000 L 193.6508 30.0000 L 190.4762 30.0000 L 187.3016 30.0000 L 184.1270 30.0000 L 180.9524 30.0000 L 177.7778 30.0000 L 174.6032 30.0000 L 171.4286 30.0000 L 168.2540 30.0000 L 165.0794 30.0000 L 161.9048 30.0000 L 158.7302 30.0000 L 155.5556 30.0000 L 152.3810 30.0000 L 149.2063 30.0000 L 146.0317 30.0000 L 142.8571 30.0000 L 139.6825 30.0000 L 136.5079 30.0000 L 133.3333 30.0000 L 130.1587 30.0000 L 126.9841 30.0000 L 123.8095 30.0000 L 120.6349 30.0000 L 117.4603 30.0000 L 114.2857 30.0000 L 111.1111 30.0000 L 107.9365 30.0000 L 104.7619 30.0000 L 101.5873 30.0000 L 98.4127 30.0000 L 95.2381 30.0000 L 92.0635 30.0000 L 88.8889 30.0000 L 85.7143 30.0000 L 82.5397 30.0000 L 79.3651 30.0000 L 76.1905 30.0000 L 73.0159 30.0000 L 69.8413 30.0000 L 66.6667 30.0000 L 63.4921 30.0000 L 60.3175 30.0000 L 57.1429 30.0000 L 53.9683 30.0000 L 50.7937 30.0000 L 47.6190 30.0000 L 44.4444 30.0000 L 41.2698 30.0000 L 38.0952 30.0000 L 34.9206 30.0000 L 31.7460 30.0000 L 28.5714 30.0000 L 25.3968 30.0000 L 22.2222 30.0000 L 19.0476 30.0000 L 15.8730 30.0000 L 12.6984 30.0000 L 9.5238 30.0000 L 6.3492 30.0000 L 3.1746 30.0000 L 0.0000 30.0000 Z M 0.0000 -110.0000 L 0.0000 -30.0000 L 3.1746 -30.0000 L 6.3492 -30.0000 L 9.5238 -30.0000 L 12.6984 -30.0000 L 15.8730 -30.0000 L 19.0476 -30.0000 L 22.2222 -30.0000 L 25.3968 -30.0000 L 28.5714 -30.0000 L 31.7460 -30.0000 L 34.9206 -30.0000 L 38.0952 -30.0000 L 41.2698 -30.0000 L 44.4444 -30.0000 L 47.6190 -30.0000 L 50.7937 -30.0000 L 53.9683 -30.0000 L 57.1429 -30.0000 L 60.3175 -30.0000 L 63.4921 -30.0000 L 66.6667 -30.0000 L 69.8413 -30.0000 L 73.0159 -30.0000 L 76.1905 -30.0000 L 79.3651 -30.0000 L 82.5397 -30.0000 L 85.7143 -30.0000 L 88.8889 -30.0000 L 92.0635 -30.0000 L 95.2381 -30.0000 L 98.4127 -30.0000 L 101.5873 -30.0000 L 104.7619 -30.0000 L 107.9365 -30.0000 L 111.1111 -30.0000 L 114.2857 -30.0000 L 117.4603 -30.0000 L 120.6349 -30.0000 L 123.8095 -30.0000 L 126.9841 -30.0000 L 130.1587 -30.0000 L 133.3333 -30.0000 L 136.5079 -30.0000 L 139.6825 -30.0000 L 142.8571 -30.0000 L 146.0317 -30.0000 L 149.2063 -30.0000 L 152.3810 -30.0000 L 155.5556 -30.0000 L 158.7302 -30.0000 L 161.9048 -30.0000 L 165.0794 -30.0000 L 168.2540 -30.0000 L 171.4286 -30.0000 L 174.6032 -30.0000 L 177.7778 -30.0000 L 180.9524 -30.0000 L 184.1270 -30.0000 L 187.3016 -30.0000 L 190.4762 -30.0000 L 193.6508 -30.0000 L 196.8254 -30.0000 L 195.0000 -30.0000 L 195.0542 -30.0981 L 195.1253 -30.2103 L 195.2122 -30.3355 L 195.3141 -30.4728 L 195.4297 -30.6211 L 195.5582 -30.7793 L 195.6984 -30.9464 L 195.8493 -31.1214 L 196.0099 -31.3033 L 196.1792 -31.4910 L 196.3560 -31.6835 L 196.5395 -31.8797 L 196.7285 -32.0786 L 196.9221 -32.2793 L 197.1191 -32.4805 L 197.3186 -32.6814 L 197.5195 -32.8809 L 197.7207 -33.0779 L 197.9214 -33.2715 L 198.1203 -33.4605 L 198.3165 -33.6440 L 198.5090 -33.8208 L 198.6967 -33.9901 L 198.8786 -34.1507 L 199.0536 -34.3016 L 199.2207 -34.4418 L 199.3789 -34.5703 L 199.5272 -34.6859 L 199.6645 -34.7878 L 199.7897 -34.8747 L 199.9019 -34.9458 L 200.0000 -35.0000 L 200.0000 -105.0000 L 196.8254 -110.0000 L 193.6508 -110.0000 L 190.4762 -110.0000 L 187.3016 -110.0000 L 184.1270 -110.0000 L 180.9524 -110.0000 L 177.7778 -110.0000 L 174.6032 -110.0000 L 171.4286 -110.0000 L 168.2540 -110.0000 L 165.0794 -110.0000 L 161.9048 -110.0000 L 158.7302 -110.0000 L 155.5556 -110.0000 L 152.3810 -110.0000 L 149.2063 -110.0000 L 146.0317 -110.0000 L 142.8571 -110.0000 L 139.6825 -110.0000 L 136.5079 -110.0000 L 133.3333 -110.0000 L 130.1587 -110.0000 L 126.9841 -110.0000 L 123.8095 -110.0000 L 120.6349 -110.0000 L 117.4603 -110.0000 L 114.2857 -110.0000 L 111.1111 -110.0000 L 107.9365 -110.0000 L 104.7619 -110.0000 L 101.5873 -110.0000 L 98.4127 -110.0000 L 95.2381 -110.0000 L 92.0635 -110.0000 L 88.8889 -110.0000 L 85.7143 -110.0000 L 82.5397 -110.0000 L 79.3651 -110.0000 L 76.1905 -110.0000 L 73.0159 -110.0000 L 69.8413 -110.0000 L 66.6667 -110.0000 L 63.4921 -110.0000 L 60.3175 -110.0000 L 57.1429 -110.0000 L 53.9683 -110.0000 L 50.7937 -110.0000 L 47.6190 -110.0000 L 44.4444 -110.0000 L 41.2698 -110.0000 L 38.0952 -110.0000 L 34.9206 -110.0000 L 31.7460 -110.0000 L 28.5714 -110.0000 L 25.3968 -110.0000 L 22.2222 -110.0000 L 19.0476 -110.0000 L 15.8730 -110.0000 L 12.6984 -110.0000 L 9.5238 -110.0000 L 6.3492 -110.0000 L 3.1746 -110.0000 L 0.0000 -110.0000 Z" fill="black" stroke="none" fill-rule="nonzero" />
  </g>

  <g id="debug-overlays">

  </g>
  <text x="20" y="20" font-size="14" fill="#111">example=cap_fillet_line view=none solo=false</text>

</svg>