<svg xmlns="http://www.w3.org/2000/svg" width="1200" height="500" viewBox="-50.0000 -180.0000 570.0000 360.0000">


  <g id="stroke-ink">
    <path id="ink-compound" d="M 0.0000 30.0000 L 0.0000 110.0000 L 3.1746 110.0000 L 6.3492 110.0000 L 9.5238 110.0000 L 12.6984 110.0000 L 15.8730 110.0000 L 19.0476 110.0000 L 22.2222 110.0000 L 25.3968 110.0000 L 28.5714 110.0000 L 31.7460 110.0000 L 34.9206 110.0000 L 38.0952 110.0000 L 41.2698 110.0000 L 44.4444 110.0000 L 47.6190 110.0000 L 50.7937 110.0000 L 53.9683 110.0000 L 57.1429 110.0000 L 60.3175 110.0000 L 63.4921 110.0000 L 66.6667 110.0000 L 69.8413 110.0000 L 73.0159 110.0000 L 76.1905 110.0000 L 79.3651 110.0000 L 82.5397 110.0000 L 85.7143 110.0000 L 88.8889 110.0000 L 92.0635 110.0000 L 95.2381 110.0000 L 98.4127 110.0000 L 101.5873 110.0000 L 104.7619 110.0000 L 107.9365 110.0000 L 111.1111 110.0000 L 114.2857 110.0000 L 117.4603 110.0000 L 120.6349 110.0000 L 123.8095 110.0000 L 126.9841 110.0000 L 130.1587 110.0000 L 133.3333 110.0000 L 136.5079 110.0000 L 139.6825 110.0000 L 142.8571 110.0000 L 146.0317 110.0000 L 149.2063 110.0000 L 152.3810 110.0000 L 155.5556 110.0000 L 158.7302 110.0000 L 161.9048 110.0000 L 165.0794 110.0000 L 168.2540 110.0000 L 171.4286 110.0000 L 174.6032 110.0000 L 177.7778 110.0000 L 180.9524 110.0000 L 184.1270 110.0000 L 187.3016 110.0000 L 190.4762 110.0000 L 193.6508 110.0000 L 196.8254 110.0000 L 200.0000 110.0000 L 200.0000 30.0000 L 196.8254 30.0000 L 193.6508 30.0000 L 190.4762 30.0000 L 187.3016 30.0000 L 184.1270 30.0000 L 180.9524 30.0000 L 177.7778 30.0000 L 174.6032 30.0000 L 171.4286 30.0000 L 168.2540 30.0000 L 165.0794 30.0000 L 161.9048 30.0000 L 158.7302 30.0000 L 155.5556 30.0000 L 152.3810 30.0000 L 149.2063 30.0000 L 146.0317 30.0000 L 142.8571 30.0000 L 139.6825 30.0000 L 136.5079 30.0000 L 133.3333 30.0000 L 130.1587 30.0000 L 126.9841 30.0000 L 123.8095 30.0000 L 120.6349 30.0000 L 117.4603 30.0000 L 114.2857 30.0000 L 111.1111 30.0000 L 107.9365 30.0000 L 104.7619 30.0000 L 101.5873 30.0000 L 98.4127 30.0000 L 95.2381 30.0000 L 92.0635 30.0000 L 88.8889 30.0000 L 85.7143 30.0000 L 82.5397 30.0000 L 79.3651 30.0000 L 76.1905 30.0000 L 73.0159 30.0000 L 69.8413 30.0000 L 66.6667 30.0000 L 63.4921 30.0000 L 60.3175 30.0000 L 57.1429 30.0000 L 53.9683 30.0000 L 50.7937 30.0000 L 47.6190 30.0000 L 44.4444 30.0000 L 41.2698 30.0000 L 38.0952 30.0000 L 34.9206 30.0000 L 31.7460 30.0000 L 28.5714 30.0000 L 25.3968 30.0000 L 22.2222 30.0000 L 19.0476 30.0000 L 15.8730 30.0000 L 12.6984 30.0000 L 9.5238 30.0000 L 6.3492 30.0000 L 3.1746 30.0000 L 0.0000 30.0000 Z M 0.0000 -110.0000 L 0.0000 -30.0000 L 3.1746 -30.0000 L 6.3492 -30.0000 L 9.5238 -30.0000 L 12.6984 -30.0000 L 15.8730 -30.0000 L 19.0476 -30.0000 L 22.2222 -30.0000 L 25.3968 -30.0000 L 28.5714 -30.0000 L 31.7460 -30.0000 L 34.9206 -30.0000 L 38.0952 -30.0000 L 41.2698 -30.0000 L 44.4444 -30.0000 L 47.6190 -30.0000 L 50.7937 -30.0000 L 53.9683 -30.0000 L 57.1429 -30.0000 L 60.3175 -30.0000 L 63.4921 -30.0000 L 66.6667 -30.0000 L 69.8413 -30.0000 L 73.0159 -30.0000 L 76.1905 -30.0000 L 79.3651 -30.0000 L 82.5397 -30.0000 L 85.7143 -30.0000 L 88.8889 -30.0000 L 92.0635 -30.0000 L 95.2381 -30.0000 L 98.4127 -30.0000 L 101.5873 -30.0000 L 104.7619 -30.0000 L 107.9365 -30.0000 L 111.1111 -30.0000 L 114.2857 -30.0000 L 117.4603 -30.0000 L 120.6349 -30.0000 L 123.8095 -30.0000 L 126.9841 -30.0000 L 130.1587 -30.0000 L 133.3333 -30.0000 L 136.5079 -30.0000 L 139.6825 -30.0000 L 142.8571 -30.0000 L 146.0317 -30.0000 L 149.2063 -30.0000 L 152.3810 -30.0000 L 155.5556 -30.0000 L 158.7302 -30.0000 L 161.9048 -30.0000 L 165.0794 -30.0000 L 168.2540 -30.0000 L 171.4286 -30.0000 L 174.6032 -30.0000 L 177.7778 -30.0000 L 180.9524 -30.0000 L 184.1270 -30.0000 L 187.3016 -30.0000 L 190.4762 -30.0000 L 193.6508 -30.0000 L 196.8254 -30.0000 L 195.0000 -30.0000 L 195.1291 -30.0016 L 195.2573 -30.0065 L 195.3847 -30.0146 L 195.5112 -30.0258 L 195.6368 -30.0402 L 195.7615 -30.0576 L 195.8851 -30.0781 L 196.0077 -30.1016 L 196.1292 -30.1280 L 196.2496 -30.1574 L 196.3688 -30.1897 L 196.4868 -30.2248 L 196.6036 -30.2627 L 196.7192 -30.3034 L 196.8334 -30.3468 L 196.9462 -30.3929 L 197.0577 -30.4417 L 197.1677 -30.4931 L 197.2763 -30.5470 L 197.3833 -30.6035 L 197.4888 -30.6624 L 197.5927 -30.7239 L 197.6949 -30.7877 L 197.7955 -30.8539 L 197.8944 -30.9225 L 197.9916 -30.9933 L 198.0869 -31.0664 L 198.1805 -31.1418 L 198.2721 -31.2193 L 198.3619 -31.2989 L 198.4497 -31.3807 L 198.5355 -31.4645 L 198.6193 -31.5503 L 198.7011 -31.6381 L 198.7807 -31.7279 L 198.8582 -31.8195 L 198.9336 -31.9131 L 199.0067 -32.0084 L 199.0775 -32.1056 L 199.1461 -32.2045 L 199.2123 -32.3051 L 199.2761 -32.4073 L 199.3376 -32.5112 L 199.3965 -32.6167 L 199.4530 -32.7237 L 199.5069 -32.8323 L 199.5583 -32.9423 L 199.6071 -33.0538 L 199.6532 -33.1666 L 199.6966 -33.2808 L 199.7373 -33.3964 L 199.7752 -33.5132 L 199.8103 -33.6312 L 199.8426 -33.7504 L 199.8720 -33.8708 L 199.8984 -33.9923 L 199.9219 -34.1149 L 199.9424 -34.2385 L 199.9598 -34.3632 L 199.9742 -34.4888 L 199.9854 -34.6153 L 199.9935 -34.7427 L 199.9984 -34.8709 L 200.0000 -35.0000 L 200.0000 -105.0000 L 199.9984 -105.1291 L 199.9935 -105.2573 L 199.9854 -105.3847 L 199.9742 -105.5112 L 199.9598 -105.6368 L 199.9424 -105.7615 L 199.9219 -105.8851 L 199.8984 -106.0077 L 199.8720 -106.1292 L 199.8426 -106.2496 L 199.8103 -106.3688 L 199.7752 -106.4868 L 199.7373 -106.6036 L 199.6966 -106.7192 L 199.6532 -106.8334 L 199.6071 -106.9462 L 199.5583 -107.0577 L 199.5069 -107.1677 L 199.4530 -107.2763 L 199.3965 -107.3833 L 199.3376 -107.4888 L 199.2761 -107.5927 L 199.2123 -107.6949 L 199.1461 -107.7955 L 199.0775 -107.8944 L 199.0067 -107.9916 L 198.9336 -108.0869 L 198.8582 -108.1805 L 198.7807 -108.2721 L 198.7011 -108.3619 L 198.6193 -108.4497 L 198.5355 -108.5355 L 198.4497 -108.6193 L 198.3619 -108.7011 L 198.2721 -108.7807 L 198.1805 -108.8582 L 198.0869 -108.9336 L 197.9916 -109.0067 L 197.8944 -109.0775 L 197.7955 -109.1461 L 197.6949 -109.2123 L 197.5927 -109.2761 L 197.4888 -109.3376 L 197.3833 -109.3965 L 197.2763 -109.4530 L 197.1677 -109.5069 L 197.0577 -109.5583 L 196.9462 -109.6071 L 196.8334 -109.6532 L 196.7192 -109.6966 L 196.6036 -109.7373 L 196.4868 -109.7752 L 196.3688 -109.8103 L 196.2496 -109.8426 L 196.1292 -109.8720 L 196.0077 -109.8984 L 195.8851 -109.9219 L 195.7615 -109.9424 L 195.6368 -109.9598 L 195.5112 -109.9742 L 195.3847 -109.9854 L 195.2573 -109.9935 L 195.1291 -109.9984 L 195.0000 -110.0000 L 196.8254 -110.0000 L 193.6508 -110.0000 L 190.4762 -110.0000 L 187.3016 -110.0000 L 184.1270 -110.0000 L 180.9524 -110.0000 L 177.7778 -110.0000 L 174.6032 -110.0000 L 171.4286 -110.0000 L 168.2540 -110.0000 L 165.0794 -110.0000 L 161.9048 -110.0000 L 158.7302 -110.0000 L 155.5556 -110.0000 L 152.3810 -110.0000 L 149.2063 -110.0000 L 146.0317 -110.0000 L 142.8571 -110.0000 L 139.6825 -110.0000 L 136.5079 -110.0000 L 133.3333 -110.0000 L 130.1587 -110.0000 L 126.9841 -110.0000 L 123.8095 -110.0000 L 120.6349 -110.0000 L 117.4603 -110.0000 L 114.2857 -110.0000 L 111.1111 -110.0000 L 107.9365 -110.0000 L 104.7619 -110.0000 L 101.5873 -110.0000 L 98.4127 -110.0000 L 95.2381 -110.0000 L 92.0635 -110.0000 L 88.8889 -110.0000 L 85.7143 -110.0000 L 82.5397 -110.0000 L 79.3651 -110.0000 L 76.1905 -110.0000 L 73.0159 -110.0000 L 69.8413 -110.0000 L 66.6667 -110.0000 L 63.4921 -110.0000 L 60.3175 -110.0000 L 57.1429 -110.0000 L 53.9683 -110.0000 L 50.7937 -110.0000 L 47.6190 -110.0000 L 44.4444 -110.0000 L 41.2698 -110.0000 L 38.0952 -110.0000 L 34.9206 -110.0000 L 31.7460 -110.0000 L 28.5714 -110.0000 L 25.3968 -110.0000 L 22.2222 -110.0000 L 19.0476 -110.0000 L 15.8730 -110.0000 L 12.6984 -110.0000 L 9.5238 -110.0000 L 6.3492 -110.0000 L 3.1746 -110.0000 L 0.0000 -110.0000 Z" fill="black" stroke="none" fill-rule="nonzero" />
  </g>

  <g id="debug-overlays">
  <g id="debug-cap-boundary">
    <path d="M 187.3016 -30.0000 L 200.0000 -30.0000 L 200.0000 -110.0000 L 187.3016 -110.0000" fill="none" stroke="#455a64" stroke-width="1.0" />
    <circle cx="187.3016" cy="-30.0000" r="2.0" fill="#78909c" stroke="none"/>
    <circle cx="200.0000" cy="-30.0000" r="3.0" fill="#d32f2f" stroke="none"/>
    <text x="204.0000" y="-34.0000" font-size="8" fill="#d32f2f">end i=1 θ=-90.0</text>
    <circle cx="200.0000" cy="-110.0000" r="3.0" fill="#d32f2f" stroke="none"/>
    <text x="204.0000" y="-114.0000" font-size="8" fill="#d32f2f">end i=2 θ=-90.0</text>
    <circle cx="187.3016" cy="-110.0000" r="2.0" fill="#78909c" stroke="none"/>
    <circle cx="195.0000" cy="-30.0000" r="2.4" fill="#1e88e5" stroke="none"/>
    <circle cx="200.0000" cy="-35.0000" r="2.4" fill="#1e88e5" stroke="none"/>
    <circle cx="200.0000" cy="-105.0000" r="2.4" fill="#1e88e5" stroke="none"/>
    <circle cx="195.0000" cy="-110.0000" r="2.4" fill="#1e88e5" stroke="none"/>
    <circle cx="195.0000" cy="-30.0000" r="1.5" fill="#43a047" stroke="none"/>
    <circle cx="195.1291" cy="-30.0016" r="1.5" fill="#43a047" stroke="none"/>
    <circle cx="195.2573" cy="-30.0065" r="1.5" fill="#43a047" stroke="none"/>
    <circle cx="195.3847" cy="-30.0146" r="1.5" fill="#43a047" stroke="none"/>
    <circle cx="195.5112" cy="-30.0258" r="1.5" fill="#43a047" stroke="none"/>
    <circle cx="195.6368" cy="-30.0402" r="1.5" fill="#43a047" stroke="none"/>
    <circle cx="195.7615" cy="-30.0576" r="1.5" fill="#43a047" stroke="none"/>
    <circle cx="195.8851" cy="-30.0781" r="1.5" fill="#43a047" stroke="none"/>
    <circle cx="196.0077" cy="-30.1016" r="1.5" fill="#43a047" stroke="none"/>
    <circle cx="196.1292" cy="-30.1280" r="1.5" fill="#43a047" stroke="none"/>
    <circle cx="196.2496" cy="-30.1574" r="1.5" fill="#43a047" stroke="none"/>
    <circle cx="196.3688" cy="-30.1897" r="1.5" fill="#43a047" stroke="none"/>
    <circle cx="196.4868" cy="-30.2248" r="1.5" fill="#43a047" stroke="none"/>
    <circle cx="196.6036" cy="-30.2627" r="1.5" fill="#43a047" stroke="none"/>
    <circle cx="196.7192" cy="-30.3034" r="1.5" fill="#43a047" stroke="none"/>
    <circle cx="196.8334" cy="-30.3468" r="1.5" fill="#43a047" stroke="none"/>
    <circle cx="196.9462" cy="-30.3929" r="1.5" fill="#43a047" stroke="none"/>
    <circle cx="197.0577" cy="-30.4417" r="1.5" fill="#43a047" stroke="none"/>
    <circle cx="197.1677" cy="-30.4931" r="1.5" fill="#43a047" stroke="none"/>
    <circle cx="197.2763" cy="-30.5470" r="1.5" fill="#43a047" stroke="none"/>
    <circle cx="197.3833" cy="-30.6035" r="1.5" fill="#43a047" stroke="none"/>
    <circle cx="197.4888" cy="-30.6624" r="1.5" fill="#43a047" stroke="none"/>
    <circle cx="197.5927" cy="-30.7239" r="1.5" fill="#43a047" stroke="none"/>
    <circle cx="197.6949" cy="-30.7877" r="1.5" fill="#43a047" stroke="none"/>
    <circle cx="197.7955" cy="-30.8539" r="1.5" fill="#43a047" stroke="none"/>
    <circle cx="197.8944" cy="-30.9225" r="1.5" fill="#43a047" stroke="none"/>
    <circle cx="197.9916" cy="-30.9933" r="1.5" fill="#43a047" stroke="none"/>
    <circle cx="198.0869" cy="-31.0664" r="1.5" fill="#43a047" stroke="none"/>
    <circle cx="198.1805" cy="-31.1418" r="1.5" fill="#43a047" stroke="none"/>
    <circle cx="198.2721" cy="-31.2193" r="1.5" fill="#43a047" stroke="none"/>
    <circle cx="198.3619" cy="-31.2989" r="1.5" fill="#43a047" stroke="none"/>
    <circle cx="198.4497" cy="-31.3807" r="1.5" fill="#43a047" stroke="none"/>
    <circle cx="198.5355" cy="-31.4645" r="1.5" fill="#43a047" stroke="none"/>
    <circle cx="198.6193" cy="-31.5503" r="1.5" fill="#43a047" stroke="none"/>
    <circle cx="198.7011" cy="-31.6381" r="1.5" fill="#43a047" stroke="none"/>
    <circle cx="198.7807" cy="-31.7279" r="1.5" fill="#43a047" stroke="none"/>
    <circle cx="198.8582" cy="-31.8195" r="1.5" fill="#43a047" stroke="none"/>
    <circle cx="198.9336" cy="-31.9131" r="1.5" fill="#43a047" stroke="none"/>
    <circle cx="199.0067" cy="-32.0084" r="1.5" fill="#43a047" stroke="none"/>
    <circle cx="199.0775" cy="-32.1056" r="1.5" fill="#43a047" stroke="none"/>
    <circle cx="199.1461" cy="-32.2045" r="1.5" fill="#43a047" stroke="none"/>
    <circle cx="199.2123" cy="-32.3051" r="1.5" fill="#43a047" stroke="none"/>
    <circle cx="199.2761" cy="-32.4073" r="1.5" fill="#43a047" stroke="none"/>
    <circle cx="199.3376" cy="-32.5112" r="1.5" fill="#43a047" stroke="none"/>
    <circle cx="199.3965" cy="-32.6167" r="1.5" fill="#43a047" stroke="none"/>
    <circle cx="199.4530" cy="-32.7237" r="1.5" fill="#43a047" stroke="none"/>
    <circle cx="199.5069" cy="-32.8323" r="1.5" fill="#43a047" stroke="none"/>
    <circle cx="199.5583" cy="-32.9423" r="1.5" fill="#43a047" stroke="none"/>
    <circle cx="199.6071" cy="-33.0538" r="1.5" fill="#43a047" stroke="none"/>
    <circle cx="199.6532" cy="-33.1666" r="1.5" fill="#43a047" stroke="none"/>
    <circle cx="199.6966" cy="-33.2808" r="1.5" fill="#43a047" stroke="none"/>
    <circle cx="199.7373" cy="-33.3964" r="1.5" fill="#43a047" stroke="none"/>
    <circle cx="199.7752" cy="-33.5132" r="1.5" fill="#43a047" stroke="none"/>
    <circle cx="199.8103" cy="-33.6312" r="1.5" fill="#43a047" stroke="none"/>
    <circle cx="199.8426" cy="-33.7504" r="1.5" fill="#43a047" stroke="none"/>
    <circle cx="199.8720" cy="-33.8708" r="1.5" fill="#43a047" stroke="none"/>
    <circle cx="199.8984" cy="-33.9923" r="1.5" fill="#43a047" stroke="none"/>
    <circle cx="199.9219" cy="-34.1149" r="1.5" fill="#43a047" stroke="none"/>
    <circle cx="199.9424" cy="-34.2385" r="1.5" fill="#43a047" stroke="none"/>
    <circle cx="199.9598" cy="-34.3632" r="1.5" fill="#43a047" stroke="none"/>
    <circle cx="199.9742" cy="-34.4888" r="1.5" fill="#43a047" stroke="none"/>
    <circle cx="199.9854" cy="-34.6153" r="1.5" fill="#43a047" stroke="none"/>
    <circle cx="199.9935" cy="-34.7427" r="1.5" fill="#43a047" stroke="none"/>
    <circle cx="199.9984" cy="-34.8709" r="1.5" fill="#43a047" stroke="none"/>
    <circle cx="200.0000" cy="-35.0000" r="1.5" fill="#43a047" stroke="none"/>
    <circle cx="200.0000" cy="-105.0000" r="1.5" fill="#43a047" stroke="none"/>
    <circle cx="199.9984" cy="-105.1291" r="1.5" fill="#43a047" stroke="none"/>
    <circle cx="199.9935" cy="-105.2573" r="1.5" fill="#43a047" stroke="none"/>
    <circle cx="199.9854" cy="-105.3847" r="1.5" fill="#43a047" stroke="none"/>
    <circle cx="199.9742" cy="-105.5112" r="1.5" fill="#43a047" stroke="none"/>
    <circle cx="199.9598" cy="-105.6368" r="1.5" fill="#43a047" stroke="none"/>
    <circle cx="199.9424" cy="-105.7615" r="1.5" fill="#43a047" stroke="none"/>
    <circle cx="199.9219" cy="-105.8851" r="1.5" fill="#43a047" stroke="none"/>
    <circle cx="199.8984" cy="-106.0077" r="1.5" fill="#43a047" stroke="none"/>
    <circle cx="199.8720" cy="-106.1292" r="1.5" fill="#43a047" stroke="none"/>
    <circle cx="199.8426" cy="-106.2496" r="1.5" fill="#43a047" stroke="none"/>
    <circle cx="199.8103" cy="-106.3688" r="1.5" fill="#43a047" stroke="none"/>
    <circle cx="199.7752" cy="-106.4868" r="1.5" fill="#43a047" stroke="none"/>
    <circle cx="199.7373" cy="-106.6036" r="1.5" fill="#43a047" stroke="none"/>
    <circle cx="199.6966" cy="-106.7192" r="1.5" fill="#43a047" stroke="none"/>
    <circle cx="199.6532" cy="-106.8334" r="1.5" fill="#43a047" stroke="none"/>
    <circle cx="199.6071" cy="-106.9462" r="1.5" fill="#43a047" stroke="none"/>
    <circle cx="199.5583" cy="-107.0577" r="1.5" fill="#43a047" stroke="none"/>
    <circle cx="199.5069" cy="-107.1677" r="1.5" fill="#43a047" stroke="none"/>
    <circle cx="199.4530" cy="-107.2763" r="1.5" fill="#43a047" stroke="none"/>
    <circle cx="199.3965" cy="-107.3833" r="1.5" fill="#43a047" stroke="none"/>
    <circle cx="199.3376" cy="-107.4888" r="1.5" fill="#43a047" stroke="none"/>
    <circle cx="199.2761" cy="-107.5927" r="1.5" fill="#43a047" stroke="none"/>
    <circle cx="199.2123" cy="-107.6949" r="1.5" fill="#43a047" stroke="none"/>
    <circle cx="199.1461" cy="-107.7955" r="1.5" fill="#43a047" stroke="none"/>
    <circle cx="199.0775" cy="-107.8944" r="1.5" fill="#43a047" stroke="none"/>
    <circle cx="199.0067" cy="-107.9916" r="1.5" fill="#43a047" stroke="none"/>
    <circle cx="198.9336" cy="-108.0869" r="1.5" fill="#43a047" stroke="none"/>
    <circle cx="198.8582" cy="-108.1805" r="1.5" fill="#43a047" stroke="none"/>
    <circle cx="198.7807" cy="-108.2721" r="1.5" fill="#43a047" stroke="none"/>
    <circle cx="198.7011" cy="-108.3619" r="1.5" fill="#43a047" stroke="none"/>
    <circle cx="198.6193" cy="-108.4497" r="1.5" fill="#43a047" stroke="none"/>
    <circle cx="198.5355" cy="-108.5355" r="1.5" fill="#43a047" stroke="none"/>
    <circle cx="198.4497" cy="-108.6193" r="1.5" fill="#43a047" stroke="none"/>
    <circle cx="198.3619" cy="-108.7011" r="1.5" fill="#43a047" stroke="none"/>
    <circle cx="198.2721" cy="-108.7807" r="1.5" fill="#43a047" stroke="none"/>
    <circle cx="198.1805" cy="-108.8582" r="1.5" fill="#43a047" stroke="none"/>
    <circle cx="198.0869" cy="-108.9336" r="1.5" fill="#43a047" stroke="none"/>
    <circle cx="197.9916" cy="-109.0067" r="1.5" fill="#43a047" stroke="none"/>
    <circle cx="197.8944" cy="-109.0775" r="1.5" fill="#43a047" stroke="none"/>
    <circle cx="197.7955" cy="-109.1461" r="1.5" fill="#43a047" stroke="none"/>
    <circle cx="197.6949" cy="-109.2123" r="1.5" fill="#43a047" stroke="none"/>
    <circle cx="197.5927" cy="-109.2761" r="1.5" fill="#43a047" stroke="none"/>
    <circle cx="197.4888" cy="-109.3376" r="1.5" fill="#43a047" stroke="none"/>
    <circle cx="197.3833" cy="-109.3965" r="1.5" fill="#43a047" stroke="none"/>
    <circle cx="197.2763" cy="-109.4530" r="1.5" fill="#43a047" stroke="none"/>
    <circle cx="197.1677" cy="-109.5069" r="1.5" fill="#43a047" stroke="none"/>
    <circle cx="197.0577" cy="-109.5583" r="1.5" fill="#43a047" stroke="none"/>
    <circle cx="196.9462" cy="-109.6071" r="1.5" fill="#43a047" stroke="none"/>
    <circle cx="196.8334" cy="-109.6532" r="1.5" fill="#43a047" stroke="none"/>
    <circle cx="196.7192" cy="-109.6966" r="1.5" fill="#43a047" stroke="none"/>
    <circle cx="196.6036" cy="-109.7373" r="1.5" fill="#43a047" stroke="none"/>
    <circle cx="196.4868" cy="-109.7752" r="1.5" fill="#43a047" stroke="none"/>
    <circle cx="196.3688" cy="-109.8103" r="1.5" fill="#43a047" stroke="none"/>
    <circle cx="196.2496" cy="-109.8426" r="1.5" fill="#43a047" stroke="none"/>
    <circle cx="196.1292" cy="-109.8720" r="1.5" fill="#43a047" stroke="none"/>
    <circle cx="196.0077" cy="-109.8984" r="1.5" fill="#43a047" stroke="none"/>
    <circle cx="195.8851" cy="-109.9219" r="1.5" fill="#43a047" stroke="none"/>
    <circle cx="195.7615" cy="-109.9424" r="1.5" fill="#43a047" stroke="none"/>
    <circle cx="195.6368" cy="-109.9598" r="1.5" fill="#43a047" stroke="none"/>
    <circle cx="195.5112" cy="-109.9742" r="1.5" fill="#43a047" stroke="none"/>
    <circle cx="195.3847" cy="-109.9854" r="1.5" fill="#43a047" stroke="none"/>
    <circle cx="195.2573" cy="-109.9935" r="1.5" fill="#43a047" stroke="none"/>
    <circle cx="195.1291" cy="-109.9984" r="1.5" fill="#43a047" stroke="none"/>
    <circle cx="195.0000" cy="-110.0000" r="1.5" fill="#43a047" stroke="none"/>
  </g>
  <g id="cap-fillet-line-aids-butt">
    <path d="M 0.0000 70.0000 L 3.1746 70.0000 L 6.3492 70.0000 L 9.5238 70.0000 L 12.6984 70.0000 L 15.8730 70.0000 L 19.0476 70.0000 L 22.2222 70.0000 L 25.3968 70.0000 L 28.5714 70.0000 L 31.7460 70.0000 L 34.9206 70.0000 L 38.0952 70.0000 L 41.2698 70.0000 L 44.4444 70.0000 L 47.6190 70.0000 L 50.7937 70.0000 L 53.9683 70.0000 L 57.1429 70.0000 L 60.3175 70.0000 L 63.4921 70.0000 L 66.6667 70.0000 L 69.8413 70.0000 L 73.0159 70.0000 L 76.1905 70.0000 L 79.3651 70.0000 L 82.5397 70.0000 L 85.7143 70.0000 L 88.8889 70.0000 L 92.0635 70.0000 L 95.2381 70.0000 L 98.4127 70.0000 L 101.5873 70.0000 L 104.7619 70.0000 L 107.9365 70.0000 L 111.1111 70.0000 L 114.2857 70.0000 L 117.4603 70.0000 L 120.6349 70.0000 L 123.8095 70.0000 L 126.9841 70.0000 L 130.1587 70.0000 L 133.3333 70.0000 L 136.5079 70.0000 L 139.6825 70.0000 L 142.8571 70.0000 L 146.0317 70.0000 L 149.2063 70.0000 L 152.3810 70.0000 L 155.5556 70.0000 L 158.7302 70.0000 L 161.9048 70.0000 L 165.0794 70.0000 L 168.2540 70.0000 L 171.4286 70.0000 L 174.6032 70.0000 L 177.7778 70.0000 L 180.9524 70.0000 L 184.1270 70.0000 L 187.3016 70.0000 L 190.4762 70.0000 L 193.6508 70.0000 L 196.8254 70.0000 L 200.0000 70.0000" fill="none" stroke="#111111" stroke-width="0.8" />
    <path d="M 0.0000 110.0000 L 3.1746 110.0000 L 6.3492 110.0000 L 9.5238 110.0000 L 12.6984 110.0000 L 15.8730 110.0000 L 19.0476 110.0000 L 22.2222 110.0000 L 25.3968 110.0000 L 28.5714 110.0000 L 31.7460 110.0000 L 34.9206 110.0000 L 38.0952 110.0000 L 41.2698 110.0000 L 44.4444 110.0000 L 47.6190 110.0000 L 50.7937 110.0000 L 53.9683 110.0000 L 57.1429 110.0000 L 60.3175 110.0000 L 63.4921 110.0000 L 66.6667 110.0000 L 69.8413 110.0000 L 73.0159 110.0000 L 76.1905 110.0000 L 79.3651 110.0000 L 82.5397 110.0000 L 85.7143 110.0000 L 88.8889 110.0000 L 92.0635 110.0000 L 95.2381 110.0000 L 98.4127 110.0000 L 101.5873 110.0000 L 104.7619 110.0000 L 107.9365 110.0000 L 111.1111 110.0000 L 114.2857 110.0000 L 117.4603 110.0000 L 120.6349 110.0000 L 123.8095 110.0000 L 126.9841 110.0000 L 130.1587 110.0000 L 133.3333 110.0000 L 136.5079 110.0000 L 139.6825 110.0000 L 142.8571 110.0000 L 146.0317 110.0000 L 149.2063 110.0000 L 152.3810 110.0000 L 155.5556 110.0000 L 158.7302 110.0000 L 161.9048 110.0000 L 165.0794 110.0000 L 168.2540 110.0000 L 171.4286 110.0000 L 174.6032 110.0000 L 177.7778 110.0000 L 180.9524 110.0000 L 184.1270 110.0000 L 187.3016 110.0000 L 190.4762 110.0000 L 193.6508 110.0000 L 196.8254 110.0000 L 200.0000 110.0000" fill="none" stroke="#d32f2f" stroke-width="0.6" />
    <path d="M 0.0000 30.0000 L 3.1746 30.0000 L 6.3492 30.0000 L 9.5238 30.0000 L 12.6984 30.0000 L 15.8730 30.0000 L 19.0476 30.0000 L 22.2222 30.0000 L 25.3968 30.0000 L 28.5714 30.0000 L 31.7460 30.0000 L 34.9206 30.0000 L 38.0952 30.0000 L 41.2698 30.0000 L 44.4444 30.0000 L 47.6190 30.0000 L 50.7937 30.0000 L 53.9683 30.0000 L 57.1429 30.0000 L 60.3175 30.0000 L 63.4921 30.0000 L 66.6667 30.0000 L 69.8413 30.0000 L 73.0159 30.0000 L 76.1905 30.0000 L 79.3651 30.0000 L 82.5397 30.0000 L 85.7143 30.0000 L 88.8889 30.0000 L 92.0635 30.0000 L 95.2381 30.0000 L 98.4127 30.0000 L 101.5873 30.0000 L 104.7619 30.0000 L 107.9365 30.0000 L 111.1111 30.0000 L 114.2857 30.0000 L 117.4603 30.0000 L 120.6349 30.0000 L 123.8095 30.0000 L 126.9841 30.0000 L 130.1587 30.0000 L 133.3333 30.0000 L 136.5079 30.0000 L 139.6825 30.0000 L 142.8571 30.0000 L 146.0317 30.0000 L 149.2063 30.0000 L 152.3810 30.0000 L 155.5556 30.0000 L 158.7302 30.0000 L 161.9048 30.0000 L 165.0794 30.0000 L 168.2540 30.0000 L 171.4286 30.0000 L 174.6032 30.0000 L 177.7778 30.0000 L 180.9524 30.0000 L 184.1270 30.0000 L 187.3016 30.0000 L 190.4762 30.0000 L 193.6508 30.0000 L 196.8254 30.0000 L 200.0000 30.0000" fill="none" stroke="#1976d2" stroke-width="0.6" />
    <text x="-40.0000" y="60.0000" font-size="10" fill="#000000">BUTT</text>
  </g>
  <g id="cap-fillet-line-aids-fillet">
    <path d="M 0.0000 -70.0000 L 3.1746 -70.0000 L 6.3492 -70.0000 L 9.5238 -70.0000 L 12.6984 -70.0000 L 15.8730 -70.0000 L 19.0476 -70.0000 L 22.2222 -70.0000 L 25.3968 -70.0000 L 28.5714 -70.0000 L 31.7460 -70.0000 L 34.9206 -70.0000 L 38.0952 -70.0000 L 41.2698 -70.0000 L 44.4444 -70.0000 L 47.6190 -70.0000 L 50.7937 -70.0000 L 53.9683 -70.0000 L 57.1429 -70.0000 L 60.3175 -70.0000 L 63.4921 -70.0000 L 66.6667 -70.0000 L 69.8413 -70.0000 L 73.0159 -70.0000 L 76.1905 -70.0000 L 79.3651 -70.0000 L 82.5397 -70.0000 L 85.7143 -70.0000 L 88.8889 -70.0000 L 92.0635 -70.0000 L 95.2381 -70.0000 L 98.4127 -70.0000 L 101.5873 -70.0000 L 104.7619 -70.0000 L 107.9365 -70.0000 L 111.1111 -70.0000 L 114.2857 -70.0000 L 117.4603 -70.0000 L 120.6349 -70.0000 L 123.8095 -70.0000 L 126.9841 -70.0000 L 130.1587 -70.0000 L 133.3333 -70.0000 L 136.5079 -70.0000 L 139.6825 -70.0000 L 142.8571 -70.0000 L 146.0317 -70.0000 L 149.2063 -70.0000 L 152.3810 -70.0000 L 155.5556 -70.0000 L 158.7302 -70.0000 L 161.9048 -70.0000 L 165.0794 -70.0000 L 168.2540 -70.0000 L 171.4286 -70.0000 L 174.6032 -70.0000 L 177.7778 -70.0000 L 180.9524 -70.0000 L 184.1270 -70.0000 L 187.3016 -70.0000 L 190.4762 -70.0000 L 193.6508 -70.0000 L 196.8254 -70.0000 L 200.0000 -70.0000" fill="none" stroke="#111111" stroke-width="0.8" />
    <path d="M 0.0000 -30.0000 L 3.1746 -30.0000 L 6.3492 -30.0000 L 9.5238 -30.0000 L 12.6984 -30.0000 L 15.8730 -30.0000 L 19.0476 -30.0000 L 22.2222 -30.0000 L 25.3968 -30.0000 L 28.5714 -30.0000 L 31.7460 -30.0000 L 34.9206 -30.0000 L 38.0952 -30.0000 L 41.2698 -30.0000 L 44.4444 -30.0000 L 47.6190 -30.0000 L 50.7937 -30.0000 L 53.9683 -30.0000 L 57.1429 -30.0000 L 60.3175 -30.0000 L 63.4921 -30.0000 L 66.6667 -30.0000 L 69.8413 -30.0000 L 73.0159 -30.0000 L 76.1905 -30.0000 L 79.3651 -30.0000 L 82.5397 -30.0000 L 85.7143 -30.0000 L 88.8889 -30.0000 L 92.0635 -30.0000 L 95.2381 -30.0000 L 98.4127 -30.0000 L 101.5873 -30.0000 L 104.7619 -30.0000 L 107.9365 -30.0000 L 111.1111 -30.0000 L 114.2857 -30.0000 L 117.4603 -30.0000 L 120.6349 -30.0000 L 123.8095 -30.0000 L 126.9841 -30.0000 L 130.1587 -30.0000 L 133.3333 -30.0000 L 136.5079 -30.0000 L 139.6825 -30.0000 L 142.8571 -30.0000 L 146.0317 -30.0000 L 149.2063 -30.0000 L 152.3810 -30.0000 L 155.5556 -30.0000 L 158.7302 -30.0000 L 161.9048 -30.0000 L 165.0794 -30.0000 L 168.2540 -30.0000 L 171.4286 -30.0000 L 174.6032 -30.0000 L 177.7778 -30.0000 L 180.9524 -30.0000 L 184.1270 -30.0000 L 187.3016 -30.0000 L 190.4762 -30.0000 L 193.6508 -30.0000 L 196.8254 -30.0000 L 200.0000 -30.0000" fill="none" stroke="#d32f2f" stroke-width="0.6" />
    <path d="M 0.0000 -110.0000 L 3.1746 -110.0000 L 6.3492 -110.0000 L 9.5238 -110.0000 L 12.6984 -110.0000 L 15.8730 -110.0000 L 19.0476 -110.0000 L 22.2222 -110.0000 L 25.3968 -110.0000 L 28.5714 -110.0000 L 31.7460 -110.0000 L 34.9206 -110.0000 L 38.0952 -110.0000 L 41.2698 -110.0000 L 44.4444 -110.0000 L 47.6190 -110.0000 L 50.7937 -110.0000 L 53.9683 -110.0000 L 57.1429 -110.0000 L 60.3175 -110.0000 L 63.4921 -110.0000 L 66.6667 -110.0000 L 69.8413 -110.0000 L 73.0159 -110.0000 L 76.1905 -110.0000 L 79.3651 -110.0000 L 82.5397 -110.0000 L 85.7143 -110.0000 L 88.8889 -110.0000 L 92.0635 -110.0000 L 95.2381 -110.0000 L 98.4127 -110.0000 L 101.5873 -110.0000 L 104.7619 -110.0000 L 107.9365 -110.0000 L 111.1111 -110.0000 L 114.2857 -110.0000 L 117.4603 -110.0000 L 120.6349 -110.0000 L 123.8095 -110.0000 L 126.9841 -110.0000 L 130.1587 -110.0000 L 133.3333 -110.0000 L 136.5079 -110.0000 L 139.6825 -110.0000 L 142.8571 -110.0000 L 146.0317 -110.0000 L 149.2063 -110.0000 L 152.3810 -110.0000 L 155.5556 -110.0000 L 158.7302 -110.0000 L 161.9048 -110.0000 L 165.0794 -110.0000 L 168.2540 -110.0000 L 171.4286 -110.0000 L 174.6032 -110.0000 L 177.7778 -110.0000 L 180.9524 -110.0000 L 184.1270 -110.0000 L 187.3016 -110.0000 L 190.4762 -110.0000 L 193.6508 -110.0000 L 196.8254 -110.0000 L 200.0000 -110.0000" fill="none" stroke="#1976d2" stroke-width="0.6" />
    <text x="-40.0000" y="-80.0000" font-size="10" fill="#000000">FILLET</text>
  </g>
  <g id="cap-fillet-line-arc-points-fillet">
    <path d="M 195.0000 -30.0000 L 195.1291 -30.0016 L 195.2573 -30.0065 L 195.3847 -30.0146 L 195.5112 -30.0258 L 195.6368 -30.0402 L 195.7615 -30.0576 L 195.8851 -30.0781 L 196.0077 -30.1016 L 196.1292 -30.1280 L 196.2496 -30.1574 L 196.3688 -30.1897 L 196.4868 -30.2248 L 196.6036 -30.2627 L 196.7192 -30.3034 L 196.8334 -30.3468 L 196.9462 -30.3929 L 197.0577 -30.4417 L 197.1677 -30.4931 L 197.2763 -30.5470 L 197.3833 -30.6035 L 197.4888 -30.6624 L 197.5927 -30.7239 L 197.6949 -30.7877 L 197.7955 -30.8539 L 197.8944 -30.9225 L 197.9916 -30.9933 L 198.0869 -31.0664 L 198.1805 -31.1418 L 198.2721 -31.2193 L 198.3619 -31.2989 L 198.4497 -31.3807 L 198.5355 -31.4645 L 198.6193 -31.5503 L 198.7011 -31.6381 L 198.7807 -31.7279 L 198.8582 -31.8195 L 198.9336 -31.9131 L 199.0067 -32.0084 L 199.0775 -32.1056 L 199.1461 -32.2045 L 199.2123 -32.3051 L 199.2761 -32.4073 L 199.3376 -32.5112 L 199.3965 -32.6167 L 199.4530 -32.7237 L 199.5069 -32.8323 L 199.5583 -32.9423 L 199.6071 -33.0538 L 199.6532 -33.1666 L 199.6966 -33.2808 L 199.7373 -33.3964 L 199.7752 -33.5132 L 199.8103 -33.6312 L 199.8426 -33.7504 L 199.8720 -33.8708 L 199.8984 -33.9923 L 199.9219 -34.1149 L 199.9424 -34.2385 L 199.9598 -34.3632 L 199.9742 -34.4888 L 199.9854 -34.6153 L 199.9935 -34.7427 L 199.9984 -34.8709 L 200.0000 -35.0000" fill="none" stroke="#1b5e20" stroke-width="1.6" />
    <circle cx="195.0000" cy="-30.0000" r="1.6" fill="#43a047" stroke="none"/>
    <circle cx="195.1291" cy="-30.0016" r="1.6" fill="#43a047" stroke="none"/>
    <circle cx="195.2573" cy="-30.0065" r="1.6" fill="#43a047" stroke="none"/>
    <circle cx="195.3847" cy="-30.0146" r="1.6" fill="#43a047" stroke="none"/>
    <circle cx="195.5112" cy="-30.0258" r="1.6" fill="#43a047" stroke="none"/>
    <circle cx="195.6368" cy="-30.0402" r="1.6" fill="#43a047" stroke="none"/>
    <circle cx="195.7615" cy="-30.0576" r="1.6" fill="#43a047" stroke="none"/>
    <circle cx="195.8851" cy="-30.0781" r="1.6" fill="#43a047" stroke="none"/>
    <circle cx="196.0077" cy="-30.1016" r="1.6" fill="#43a047" stroke="none"/>
    <circle cx="196.1292" cy="-30.1280" r="1.6" fill="#43a047" stroke="none"/>
    <circle cx="196.2496" cy="-30.1574" r="1.6" fill="#43a047" stroke="none"/>
    <circle cx="196.3688" cy="-30.1897" r="1.6" fill="#43a047" stroke="none"/>
    <circle cx="196.4868" cy="-30.2248" r="1.6" fill="#43a047" stroke="none"/>
    <circle cx="196.6036" cy="-30.2627" r="1.6" fill="#43a047" stroke="none"/>
    <circle cx="196.7192" cy="-30.3034" r="1.6" fill="#43a047" stroke="none"/>
    <circle cx="196.8334" cy="-30.3468" r="1.6" fill="#43a047" stroke="none"/>
    <circle cx="196.9462" cy="-30.3929" r="1.6" fill="#43a047" stroke="none"/>
    <circle cx="197.0577" cy="-30.4417" r="1.6" fill="#43a047" stroke="none"/>
    <circle cx="197.1677" cy="-30.4931" r="1.6" fill="#43a047" stroke="none"/>
    <circle cx="197.2763" cy="-30.5470" r="1.6" fill="#43a047" stroke="none"/>
    <circle cx="197.3833" cy="-30.6035" r="1.6" fill="#43a047" stroke="none"/>
    <circle cx="197.4888" cy="-30.6624" r="1.6" fill="#43a047" stroke="none"/>
    <circle cx="197.5927" cy="-30.7239" r="1.6" fill="#43a047" stroke="none"/>
    <circle cx="197.6949" cy="-30.7877" r="1.6" fill="#43a047" stroke="none"/>
    <circle cx="197.7955" cy="-30.8539" r="1.6" fill="#43a047" stroke="none"/>
    <circle cx="197.8944" cy="-30.9225" r="1.6" fill="#43a047" stroke="none"/>
    <circle cx="197.9916" cy="-30.9933" r="1.6" fill="#43a047" stroke="none"/>
    <circle cx="198.0869" cy="-31.0664" r="1.6" fill="#43a047" stroke="none"/>
    <circle cx="198.1805" cy="-31.1418" r="1.6" fill="#43a047" stroke="none"/>
    <circle cx="198.2721" cy="-31.2193" r="1.6" fill="#43a047" stroke="none"/>
    <circle cx="198.3619" cy="-31.2989" r="1.6" fill="#43a047" stroke="none"/>
    <circle cx="198.4497" cy="-31.3807" r="1.6" fill="#43a047" stroke="none"/>
    <circle cx="198.5355" cy="-31.4645" r="1.6" fill="#43a047" stroke="none"/>
    <circle cx="198.6193" cy="-31.5503" r="1.6" fill="#43a047" stroke="none"/>
    <circle cx="198.7011" cy="-31.6381" r="1.6" fill="#43a047" stroke="none"/>
    <circle cx="198.7807" cy="-31.7279" r="1.6" fill="#43a047" stroke="none"/>
    <circle cx="198.8582" cy="-31.8195" r="1.6" fill="#43a047" stroke="none"/>
    <circle cx="198.9336" cy="-31.9131" r="1.6" fill="#43a047" stroke="none"/>
    <circle cx="199.0067" cy="-32.0084" r="1.6" fill="#43a047" stroke="none"/>
    <circle cx="199.0775" cy="-32.1056" r="1.6" fill="#43a047" stroke="none"/>
    <circle cx="199.1461" cy="-32.2045" r="1.6" fill="#43a047" stroke="none"/>
    <circle cx="199.2123" cy="-32.3051" r="1.6" fill="#43a047" stroke="none"/>
    <circle cx="199.2761" cy="-32.4073" r="1.6" fill="#43a047" stroke="none"/>
    <circle cx="199.3376" cy="-32.5112" r="1.6" fill="#43a047" stroke="none"/>
    <circle cx="199.3965" cy="-32.6167" r="1.6" fill="#43a047" stroke="none"/>
    <circle cx="199.4530" cy="-32.7237" r="1.6" fill="#43a047" stroke="none"/>
    <circle cx="199.5069" cy="-32.8323" r="1.6" fill="#43a047" stroke="none"/>
    <circle cx="199.5583" cy="-32.9423" r="1.6" fill="#43a047" stroke="none"/>
    <circle cx="199.6071" cy="-33.0538" r="1.6" fill="#43a047" stroke="none"/>
    <circle cx="199.6532" cy="-33.1666" r="1.6" fill="#43a047" stroke="none"/>
    <circle cx="199.6966" cy="-33.2808" r="1.6" fill="#43a047" stroke="none"/>
    <circle cx="199.7373" cy="-33.3964" r="1.6" fill="#43a047" stroke="none"/>
    <circle cx="199.7752" cy="-33.5132" r="1.6" fill="#43a047" stroke="none"/>
    <circle cx="199.8103" cy="-33.6312" r="1.6" fill="#43a047" stroke="none"/>
    <circle cx="199.8426" cy="-33.7504" r="1.6" fill="#43a047" stroke="none"/>
    <circle cx="199.8720" cy="-33.8708" r="1.6" fill="#43a047" stroke="none"/>
    <circle cx="199.8984" cy="-33.9923" r="1.6" fill="#43a047" stroke="none"/>
    <circle cx="199.9219" cy="-34.1149" r="1.6" fill="#43a047" stroke="none"/>
    <circle cx="199.9424" cy="-34.2385" r="1.6" fill="#43a047" stroke="none"/>
    <circle cx="199.9598" cy="-34.3632" r="1.6" fill="#43a047" stroke="none"/>
    <circle cx="199.9742" cy="-34.4888" r="1.6" fill="#43a047" stroke="none"/>
    <circle cx="199.9854" cy="-34.6153" r="1.6" fill="#43a047" stroke="none"/>
    <circle cx="199.9935" cy="-34.7427" r="1.6" fill="#43a047" stroke="none"/>
    <circle cx="199.9984" cy="-34.8709" r="1.6" fill="#43a047" stroke="none"/>
    <circle cx="200.0000" cy="-35.0000" r="1.6" fill="#43a047" stroke="none"/>
    <path d="M 200.0000 -105.0000 L 199.9984 -105.1291 L 199.9935 -105.2573 L 199.9854 -105.3847 L 199.9742 -105.5112 L 199.9598 -105.6368 L 199.9424 -105.7615 L 199.9219 -105.8851 L 199.8984 -106.0077 L 199.8720 -106.1292 L 199.8426 -106.2496 L 199.8103 -106.3688 L 199.7752 -106.4868 L 199.7373 -106.6036 L 199.6966 -106.7192 L 199.6532 -106.8334 L 199.6071 -106.9462 L 199.5583 -107.0577 L 199.5069 -107.1677 L 199.4530 -107.2763 L 199.3965 -107.3833 L 199.3376 -107.4888 L 199.2761 -107.5927 L 199.2123 -107.6949 L 199.1461 -107.7955 L 199.0775 -107.8944 L 199.0067 -107.9916 L 198.9336 -108.0869 L 198.8582 -108.1805 L 198.7807 -108.2721 L 198.7011 -108.3619 L 198.6193 -108.4497 L 198.5355 -108.5355 L 198.4497 -108.6193 L 198.3619 -108.7011 L 198.2721 -108.7807 L 198.1805 -108.8582 L 198.0869 -108.9336 L 197.9916 -109.0067 L 197.8944 -109.0775 L 197.7955 -109.1461 L 197.6949 -109.2123 L 197.5927 -109.2761 L 197.4888 -109.3376 L 197.3833 -109.3965 L 197.2763 -109.4530 L 197.1677 -109.5069 L 197.0577 -109.5583 L 196.9462 -109.6071 L 196.8334 -109.6532 L 196.7192 -109.6966 L 196.6036 -109.7373 L 196.4868 -109.7752 L 196.3688 -109.8103 L 196.2496 -109.8426 L 196.1292 -109.8720 L 196.0077 -109.8984 L 195.8851 -109.9219 L 195.7615 -109.9424 L 195.6368 -109.9598 L 195.5112 -109.9742 L 195.3847 -109.9854 L 195.2573 -109.9935 L 195.1291 -109.9984 L 195.0000 -110.0000" fill="none" stroke="#0d47a1" stroke-width="1.6" />
    <circle cx="200.0000" cy="-105.0000" r="1.6" fill="#42a5f5" stroke="none"/>
    <circle cx="199.9984" cy="-105.1291" r="1.6" fill="#42a5f5" stroke="none"/>
    <circle cx="199.9935" cy="-105.2573" r="1.6" fill="#42a5f5" stroke="none"/>
    <circle cx="199.9854" cy="-105.3847" r="1.6" fill="#42a5f5" stroke="none"/>
    <circle cx="199.9742" cy="-105.5112" r="1.6" fill="#42a5f5" stroke="none"/>
    <circle cx="199.9598" cy="-105.6368" r="1.6" fill="#42a5f5" stroke="none"/>
    <circle cx="199.9424" cy="-105.7615" r="1.6" fill="#42a5f5" stroke="none"/>
    <circle cx="199.9219" cy="-105.8851" r="1.6" fill="#42a5f5" stroke="none"/>
    <circle cx="199.8984" cy="-106.0077" r="1.6" fill="#42a5f5" stroke="none"/>
    <circle cx="199.8720" cy="-106.1292" r="1.6" fill="#42a5f5" stroke="none"/>
    <circle cx="199.8426" cy="-106.2496" r="1.6" fill="#42a5f5" stroke="none"/>
    <circle cx="199.8103" cy="-106.3688" r="1.6" fill="#42a5f5" stroke="none"/>
    <circle cx="199.7752" cy="-106.4868" r="1.6" fill="#42a5f5" stroke="none"/>
    <circle cx="199.7373" cy="-106.6036" r="1.6" fill="#42a5f5" stroke="none"/>
    <circle cx="199.6966" cy="-106.7192" r="1.6" fill="#42a5f5" stroke="none"/>
    <circle cx="199.6532" cy="-106.8334" r="1.6" fill="#42a5f5" stroke="none"/>
    <circle cx="199.6071" cy="-106.9462" r="1.6" fill="#42a5f5" stroke="none"/>
    <circle cx="199.5583" cy="-107.0577" r="1.6" fill="#42a5f5" stroke="none"/>
    <circle cx="199.5069" cy="-107.1677" r="1.6" fill="#42a5f5" stroke="none"/>
    <circle cx="199.4530" cy="-107.2763" r="1.6" fill="#42a5f5" stroke="none"/>
    <circle cx="199.3965" cy="-107.3833" r="1.6" fill="#42a5f5" stroke="none"/>
    <circle cx="199.3376" cy="-107.4888" r="1.6" fill="#42a5f5" stroke="none"/>
    <circle cx="199.2761" cy="-107.5927" r="1.6" fill="#42a5f5" stroke="none"/>
    <circle cx="199.2123" cy="-107.6949" r="1.6" fill="#42a5f5" stroke="none"/>
    <circle cx="199.1461" cy="-107.7955" r="1.6" fill="#42a5f5" stroke="none"/>
    <circle cx="199.0775" cy="-107.8944" r="1.6" fill="#42a5f5" stroke="none"/>
    <circle cx="199.0067" cy="-107.9916" r="1.6" fill="#42a5f5" stroke="none"/>
    <circle cx="198.9336" cy="-108.0869" r="1.6" fill="#42a5f5" stroke="none"/>
    <circle cx="198.8582" cy="-108.1805" r="1.6" fill="#42a5f5" stroke="none"/>
    <circle cx="198.7807" cy="-108.2721" r="1.6" fill="#42a5f5" stroke="none"/>
    <circle cx="198.7011" cy="-108.3619" r="1.6" fill="#42a5f5" stroke="none"/>
    <circle cx="198.6193" cy="-108.4497" r="1.6" fill="#42a5f5" stroke="none"/>
    <circle cx="198.5355" cy="-108.5355" r="1.6" fill="#42a5f5" stroke="none"/>
    <circle cx="198.4497" cy="-108.6193" r="1.6" fill="#42a5f5" stroke="none"/>
    <circle cx="198.3619" cy="-108.7011" r="1.6" fill="#42a5f5" stroke="none"/>
    <circle cx="198.2721" cy="-108.7807" r="1.6" fill="#42a5f5" stroke="none"/>
    <circle cx="198.1805" cy="-108.8582" r="1.6" fill="#42a5f5" stroke="none"/>
    <circle cx="198.0869" cy="-108.9336" r="1.6" fill="#42a5f5" stroke="none"/>
    <circle cx="197.9916" cy="-109.0067" r="1.6" fill="#42a5f5" stroke="none"/>
    <circle cx="197.8944" cy="-109.0775" r="1.6" fill="#42a5f5" stroke="none"/>
    <circle cx="197.7955" cy="-109.1461" r="1.6" fill="#42a5f5" stroke="none"/>
    <circle cx="197.6949" cy="-109.2123" r="1.6" fill="#42a5f5" stroke="none"/>
    <circle cx="197.5927" cy="-109.2761" r="1.6" fill="#42a5f5" stroke="none"/>
    <circle cx="197.4888" cy="-109.3376" r="1.6" fill="#42a5f5" stroke="none"/>
    <circle cx="197.3833" cy="-109.3965" r="1.6" fill="#42a5f5" stroke="none"/>
    <circle cx="197.2763" cy="-109.4530" r="1.6" fill="#42a5f5" stroke="none"/>
    <circle cx="197.1677" cy="-109.5069" r="1.6" fill="#42a5f5" stroke="none"/>
    <circle cx="197.0577" cy="-109.5583" r="1.6" fill="#42a5f5" stroke="none"/>
    <circle cx="196.9462" cy="-109.6071" r="1.6" fill="#42a5f5" stroke="none"/>
    <circle cx="196.8334" cy="-109.6532" r="1.6" fill="#42a5f5" stroke="none"/>
    <circle cx="196.7192" cy="-109.6966" r="1.6" fill="#42a5f5" stroke="none"/>
    <circle cx="196.6036" cy="-109.7373" r="1.6" fill="#42a5f5" stroke="none"/>
    <circle cx="196.4868" cy="-109.7752" r="1.6" fill="#42a5f5" stroke="none"/>
    <circle cx="196.3688" cy="-109.8103" r="1.6" fill="#42a5f5" stroke="none"/>
    <circle cx="196.2496" cy="-109.8426" r="1.6" fill="#42a5f5" stroke="none"/>
    <circle cx="196.1292" cy="-109.8720" r="1.6" fill="#42a5f5" stroke="none"/>
    <circle cx="196.0077" cy="-109.8984" r="1.6" fill="#42a5f5" stroke="none"/>
    <circle cx="195.8851" cy="-109.9219" r="1.6" fill="#42a5f5" stroke="none"/>
    <circle cx="195.7615" cy="-109.9424" r="1.6" fill="#42a5f5" stroke="none"/>
    <circle cx="195.6368" cy="-109.9598" r="1.6" fill="#42a5f5" stroke="none"/>
    <circle cx="195.5112" cy="-109.9742" r="1.6" fill="#42a5f5" stroke="none"/>
    <circle cx="195.3847" cy="-109.9854" r="1.6" fill="#42a5f5" stroke="none"/>
    <circle cx="195.2573" cy="-109.9935" r="1.6" fill="#42a5f5" stroke="none"/>
    <circle cx="195.1291" cy="-109.9984" r="1.6" fill="#42a5f5" stroke="none"/>
    <circle cx="195.0000" cy="-110.0000" r="1.6" fill="#42a5f5" stroke="none"/>
  </g>
  </g>
  <text x="20" y="20" font-size="14" fill="#111">example=cap_fillet_line view=none solo=false</text>

</svg>