<svg xmlns="http://www.w3.org/2000/svg" width="1200" height="500" viewBox="-50.0000 -180.0000 570.0000 360.0000">


  <g id="stroke-ink">
    <path id="ink-compound" d="M 0.0000 30.0000 L 0.0000 110.0000 L 3.1746 110.0000 L 6.3492 110.0000 L 9.5238 110.0000 L 12.6984 110.0000 L 15.8730 110.0000 L 19.0476 110.0000 L 22.2222 110.0000 L 25.3968 110.0000 L 28.5714 110.0000 L 31.7460 110.0000 L 34.9206 110.0000 L 38.0952 110.0000 L 41.2698 110.0000 L 44.4444 110.0000 L 47.6190 110.0000 L 50.7937 110.0000 L 53.9683 110.0000 L 57.1429 110.0000 L 60.3175 110.0000 L 63.4921 110.0000 L 66.6667 110.0000 L 69.8413 110.0000 L 73.0159 110.0000 L 76.1905 110.0000 L 79.3651 110.0000 L 82.5397 110.0000 L 85.7143 110.0000 L 88.8889 110.0000 L 92.0635 110.0000 L 95.2381 110.0000 L 98.4127 110.0000 L 101.5873 110.0000 L 104.7619 110.0000 L 107.9365 110.0000 L 111.1111 110.0000 L 114.2857 110.0000 L 117.4603 110.0000 L 120.6349 110.0000 L 123.8095 110.0000 L 126.9841 110.0000 L 130.1587 110.0000 L 133.3333 110.0000 L 136.5079 110.0000 L 139.6825 110.0000 L 142.8571 110.0000 L 146.0317 110.0000 L 149.2063 110.0000 L 152.3810 110.0000 L 155.5556 110.0000 L 158.7302 110.0000 L 161.9048 110.0000 L 165.0794 110.0000 L 168.2540 110.0000 L 171.4286 110.0000 L 174.6032 110.0000 L 177.7778 110.0000 L 180.9524 110.0000 L 184.1270 110.0000 L 187.3016 110.0000 L 190.4762 110.0000 L 193.6508 110.0000 L 196.8254 110.0000 L 200.0000 110.0000 L 200.0000 30.0000 L 196.8254 30.0000 L 193.6508 30.0000 L 190.4762 30.0000 L 187.3016 30.0000 L 184.1270 30.0000 L 180.9524 30.0000 L 177.7778 30.0000 L 174.6032 30.0000 L 171.4286 30.0000 L 168.2540 30.0000 L 165.0794 30.0000 L 161.9048 30.0000 L 158.7302 30.0000 L 155.5556 30.0000 L 152.3810 30.0000 L 149.2063 30.0000 L 146.0317 30.0000 L 142.8571 30.0000 L 139.6825 30.0000 L 136.5079 30.0000 L 133.3333 30.0000 L 130.1587 30.0000 L 126.9841 30.0000 L 123.8095 30.0000 L 120.6349 30.0000 L 117.4603 30.0000 L 114.2857 30.0000 L 111.1111 30.0000 L 107.9365 30.0000 L 104.7619 30.0000 L 101.5873 30.0000 L 98.4127 30.0000 L 95.2381 30.0000 L 92.0635 30.0000 L 88.8889 30.0000 L 85.7143 30.0000 L 82.5397 30.0000 L 79.3651 30.0000 L 76.1905 30.0000 L 73.0159 30.0000 L 69.8413 30.0000 L 66.6667 30.0000 L 63.4921 30.0000 L 60.3175 30.0000 L 57.1429 30.0000 L 53.9683 30.0000 L 50.7937 30.0000 L 47.6190 30.0000 L 44.4444 30.0000 L 41.2698 30.0000 L 38.0952 30.0000 L 34.9206 30.0000 L 31.7460 30.0000 L 28.5714 30.0000 L 25.3968 30.0000 L 22.2222 30.0000 L 19.0476 30.0000 L 15.8730 30.0000 L 12.6984 30.0000 L 9.5238 30.0000 L 6.3492 30.0000 L 3.1746 30.0000 L 0.0000 30.0000 Z M 0.0000 -110.0000 L 0.0000 -30.0000 L 3.1746 -30.0000 L 6.3492 -30.0000 L 9.5238 -30.0000 L 12.6984 -30.0000 L 15.8730 -30.0000 L 19.0476 -30.0000 L 22.2222 -30.0000 L 25.3968 -30.0000 L 28.5714 -30.0000 L 31.7460 -30.0000 L 34.9206 -30.0000 L 38.0952 -30.0000 L 41.2698 -30.0000 L 44.4444 -30.0000 L 47.6190 -30.0000 L 50.7937 -30.0000 L 53.9683 -30.0000 L 57.1429 -30.0000 L 60.3175 -30.0000 L 63.4921 -30.0000 L 66.6667 -30.0000 L 69.8413 -30.0000 L 73.0159 -30.0000 L 76.1905 -30.0000 L 79.3651 -30.0000 L 82.5397 -30.0000 L 85.7143 -30.0000 L 88.8889 -30.0000 L 92.0635 -30.0000 L 95.2381 -30.0000 L 98.4127 -30.0000 L 101.5873 -30.0000 L 104.7619 -30.0000 L 107.9365 -30.0000 L 111.1111 -30.0000 L 114.2857 -30.0000 L 117.4603 -30.0000 L 120.6349 -30.0000 L 123.8095 -30.0000 L 126.9841 -30.0000 L 130.1587 -30.0000 L 133.3333 -30.0000 L 136.5079 -30.0000 L 139.6825 -30.0000 L 142.8571 -30.0000 L 146.0317 -30.0000 L 149.2063 -30.0000 L 152.3810 -30.0000 L 155.5556 -30.0000 L 158.7302 -30.0000 L 161.9048 -30.0000 L 165.0794 -30.0000 L 168.2540 -30.0000 L 171.4286 -30.0000 L 174.6032 -30.0000 L 177.7778 -30.0000 L 180.9524 -30.0000 L 184.1270 -30.0000 L 187.3016 -30.0000 L 190.4762 -30.0000 L 193.6508 -30.0000 L 196.8254 -30.0000 L 195.0000 -30.0000 L 195.0646 -30.0004 L 195.1291 -30.0016 L 195.1933 -30.0037 L 195.2573 -30.0065 L 195.3211 -30.0101 L 195.3847 -30.0146 L 195.4481 -30.0198 L 195.5112 -30.0258 L 195.5741 -30.0326 L 195.6368 -30.0402 L 195.6993 -30.0485 L 195.7615 -30.0576 L 195.8234 -30.0675 L 195.8851 -30.0781 L 195.9465 -30.0895 L 196.0077 -30.1016 L 196.0686 -30.1144 L 196.1292 -30.1280 L 196.1895 -30.1424 L 196.2496 -30.1574 L 196.3093 -30.1732 L 196.3688 -30.1897 L 196.4280 -30.2069 L 196.4868 -30.2248 L 196.5454 -30.2434 L 196.6036 -30.2627 L 196.6616 -30.2827 L 196.7192 -30.3034 L 196.7764 -30.3248 L 196.8334 -30.3468 L 196.8900 -30.3695 L 196.9462 -30.3929 L 197.0021 -30.4170 L 197.0577 -30.4417 L 197.1129 -30.4670 L 197.1677 -30.4931 L 197.2222 -30.5197 L 197.2763 -30.5470 L 197.3300 -30.5749 L 197.3833 -30.6035 L 197.4362 -30.6326 L 197.4888 -30.6624 L 197.5409 -30.6929 L 197.5927 -30.7239 L 197.6440 -30.7555 L 197.6949 -30.7877 L 197.7455 -30.8205 L 197.7955 -30.8539 L 197.8452 -30.8879 L 197.8944 -30.9225 L 197.9432 -30.9576 L 197.9916 -30.9933 L 198.0395 -31.0296 L 198.0869 -31.0664 L 198.1339 -31.1038 L 198.1805 -31.1418 L 198.2265 -31.1802 L 198.2721 -31.2193 L 198.3172 -31.2588 L 198.3619 -31.2989 L 198.4060 -31.3395 L 198.4497 -31.3807 L 198.4929 -31.4223 L 198.5355 -31.4645 L 198.5777 -31.5071 L 198.6193 -31.5503 L 198.6605 -31.5940 L 198.7011 -31.6381 L 198.7412 -31.6828 L 198.7807 -31.7279 L 198.8198 -31.7735 L 198.8582 -31.8195 L 198.8962 -31.8661 L 198.9336 -31.9131 L 198.9704 -31.9605 L 199.0067 -32.0084 L 199.0424 -32.0568 L 199.0775 -32.1056 L 199.1121 -32.1548 L 199.1461 -32.2045 L 199.1795 -32.2545 L 199.2123 -32.3051 L 199.2445 -32.3560 L 199.2761 -32.4073 L 199.3071 -32.4591 L 199.3376 -32.5112 L 199.3674 -32.5638 L 199.3965 -32.6167 L 199.4251 -32.6700 L 199.4530 -32.7237 L 199.4803 -32.7778 L 199.5069 -32.8323 L 199.5330 -32.8871 L 199.5583 -32.9423 L 199.5830 -32.9979 L 199.6071 -33.0538 L 199.6305 -33.1100 L 199.6532 -33.1666 L 199.6752 -33.2236 L 199.6966 -33.2808 L 199.7173 -33.3384 L 199.7373 -33.3964 L 199.7566 -33.4546 L 199.7752 -33.5132 L 199.7931 -33.5720 L 199.8103 -33.6312 L 199.8268 -33.6907 L 199.8426 -33.7504 L 199.8576 -33.8105 L 199.8720 -33.8708 L 199.8856 -33.9314 L 199.8984 -33.9923 L 199.9105 -34.0535 L 199.9219 -34.1149 L 199.9325 -34.1766 L 199.9424 -34.2385 L 199.9515 -34.3007 L 199.9598 -34.3632 L 199.9674 -34.4259 L 199.9742 -34.4888 L 199.9802 -34.5519 L 199.9854 -34.6153 L 199.9899 -34.6789 L 199.9935 -34.7427 L 199.9963 -34.8067 L 199.9984 -34.8709 L 199.9996 -34.9354 L 200.0000 -35.0000 L 200.0000 -105.0000 L 199.9996 -105.0646 L 199.9984 -105.1291 L 199.9963 -105.1933 L 199.9935 -105.2573 L 199.9899 -105.3211 L 199.9854 -105.3847 L 199.9802 -105.4481 L 199.9742 -105.5112 L 199.9674 -105.5741 L 199.9598 -105.6368 L 199.9515 -105.6993 L 199.9424 -105.7615 L 199.9325 -105.8234 L 199.9219 -105.8851 L 199.9105 -105.9465 L 199.8984 -106.0077 L 199.8856 -106.0686 L 199.8720 -106.1292 L 199.8576 -106.1895 L 199.8426 -106.2496 L 199.8268 -106.3093 L 199.8103 -106.3688 L 199.7931 -106.4280 L 199.7752 -106.4868 L 199.7566 -106.5454 L 199.7373 -106.6036 L 199.7173 -106.6616 L 199.6966 -106.7192 L 199.6752 -106.7764 L 199.6532 -106.8334 L 199.6305 -106.8900 L 199.6071 -106.9462 L 199.5830 -107.0021 L 199.5583 -107.0577 L 199.5330 -107.1129 L 199.5069 -107.1677 L 199.4803 -107.2222 L 199.4530 -107.2763 L 199.4251 -107.3300 L 199.3965 -107.3833 L 199.3674 -107.4362 L 199.3376 -107.4888 L 199.3071 -107.5409 L 199.2761 -107.5927 L 199.2445 -107.6440 L 199.2123 -107.6949 L 199.1795 -107.7455 L 199.1461 -107.7955 L 199.1121 -107.8452 L 199.0775 -107.8944 L 199.0424 -107.9432 L 199.0067 -107.9916 L 198.9704 -108.0395 L 198.9336 -108.0869 L 198.8962 -108.1339 L 198.8582 -108.1805 L 198.8198 -108.2265 L 198.7807 -108.2721 L 198.7412 -108.3172 L 198.7011 -108.3619 L 198.6605 -108.4060 L 198.6193 -108.4497 L 198.5777 -108.4929 L 198.5355 -108.5355 L 198.4929 -108.5777 L 198.4497 -108.6193 L 198.4060 -108.6605 L 198.3619 -108.7011 L 198.3172 -108.7412 L 198.2721 -108.7807 L 198.2265 -108.8198 L 198.1805 -108.8582 L 198.1339 -108.8962 L 198.0869 -108.9336 L 198.0395 -108.9704 L 197.9916 -109.0067 L 197.9432 -109.0424 L 197.8944 -109.0775 L 197.8452 -109.1121 L 197.7955 -109.1461 L 197.7455 -109.1795 L 197.6949 -109.2123 L 197.6440 -109.2445 L 197.5927 -109.2761 L 197.5409 -109.3071 L 197.4888 -109.3376 L 197.4362 -109.3674 L 197.3833 -109.3965 L 197.3300 -109.4251 L 197.2763 -109.4530 L 197.2222 -109.4803 L 197.1677 -109.5069 L 197.1129 -109.5330 L 197.0577 -109.5583 L 197.0021 -109.5830 L 196.9462 -109.6071 L 196.8900 -109.6305 L 196.8334 -109.6532 L 196.7764 -109.6752 L 196.7192 -109.6966 L 196.6616 -109.7173 L 196.6036 -109.7373 L 196.5454 -109.7566 L 196.4868 -109.7752 L 196.4280 -109.7931 L 196.3688 -109.8103 L 196.3093 -109.8268 L 196.2496 -109.8426 L 196.1895 -109.8576 L 196.1292 -109.8720 L 196.0686 -109.8856 L 196.0077 -109.8984 L 195.9465 -109.9105 L 195.8851 -109.9219 L 195.8234 -109.9325 L 195.7615 -109.9424 L 195.6993 -109.9515 L 195.6368 -109.9598 L 195.5741 -109.9674 L 195.5112 -109.9742 L 195.4481 -109.9802 L 195.3847 -109.9854 L 195.3211 -109.9899 L 195.2573 -109.9935 L 195.1933 -109.9963 L 195.1291 -109.9984 L 195.0646 -109.9996 L 195.0000 -110.0000 L 196.8254 -110.0000 L 193.6508 -110.0000 L 190.4762 -110.0000 L 187.3016 -110.0000 L 184.1270 -110.0000 L 180.9524 -110.0000 L 177.7778 -110.0000 L 174.6032 -110.0000 L 171.4286 -110.0000 L 168.2540 -110.0000 L 165.0794 -110.0000 L 161.9048 -110.0000 L 158.7302 -110.0000 L 155.5556 -110.0000 L 152.3810 -110.0000 L 149.2063 -110.0000 L 146.0317 -110.0000 L 142.8571 -110.0000 L 139.6825 -110.0000 L 136.5079 -110.0000 L 133.3333 -110.0000 L 130.1587 -110.0000 L 126.9841 -110.0000 L 123.8095 -110.0000 L 120.6349 -110.0000 L 117.4603 -110.0000 L 114.2857 -110.0000 L 111.1111 -110.0000 L 107.9365 -110.0000 L 104.7619 -110.0000 L 101.5873 -110.0000 L 98.4127 -110.0000 L 95.2381 -110.0000 L 92.0635 -110.0000 L 88.8889 -110.0000 L 85.7143 -110.0000 L 82.5397 -110.0000 L 79.3651 -110.0000 L 76.1905 -110.0000 L 73.0159 -110.0000 L 69.8413 -110.0000 L 66.6667 -110.0000 L 63.4921 -110.0000 L 60.3175 -110.0000 L 57.1429 -110.0000 L 53.9683 -110.0000 L 50.7937 -110.0000 L 47.6190 -110.0000 L 44.4444 -110.0000 L 41.2698 -110.0000 L 38.0952 -110.0000 L 34.9206 -110.0000 L 31.7460 -110.0000 L 28.5714 -110.0000 L 25.3968 -110.0000 L 22.2222 -110.0000 L 19.0476 -110.0000 L 15.8730 -110.0000 L 12.6984 -110.0000 L 9.5238 -110.0000 L 6.3492 -110.0000 L 3.1746 -110.0000 L 0.0000 -110.0000 Z" fill="black" stroke="none" fill-rule="nonzero" />
  </g>

  <g id="debug-overlays">

  </g>
  <text x="20" y="20" font-size="14" fill="#111">example=cap_fillet_line view=none solo=false</text>

</svg>