<svg xmlns="http://www.w3.org/2000/svg" width="1200" height="500" viewBox="-50.0000 -180.0000 570.0000 360.0000">


  <g id="stroke-ink">
    <path id="ink-compound" d="M 0.0000 30.0000 L 0.0000 110.0000 L 3.1746 110.0000 L 6.3492 110.0000 L 9.5238 110.0000 L 12.6984 110.0000 L 15.8730 110.0000 L 19.0476 110.0000 L 22.2222 110.0000 L 25.3968 110.0000 L 28.5714 110.0000 L 31.7460 110.0000 L 34.9206 110.0000 L 38.0952 110.0000 L 41.2698 110.0000 L 44.4444 110.0000 L 47.6190 110.0000 L 50.7937 110.0000 L 53.9683 110.0000 L 57.1429 110.0000 L 60.3175 110.0000 L 63.4921 110.0000 L 66.6667 110.0000 L 69.8413 110.0000 L 73.0159 110.0000 L 76.1905 110.0000 L 79.3651 110.0000 L 82.5397 110.0000 L 85.7143 110.0000 L 88.8889 110.0000 L 92.0635 110.0000 L 95.2381 110.0000 L 98.4127 110.0000 L 101.5873 110.0000 L 104.7619 110.0000 L 107.9365 110.0000 L 111.1111 110.0000 L 114.2857 110.0000 L 117.4603 110.0000 L 120.6349 110.0000 L 123.8095 110.0000 L 126.9841 110.0000 L 130.1587 110.0000 L 133.3333 110.0000 L 136.5079 110.0000 L 139.6825 110.0000 L 142.8571 110.0000 L 146.0317 110.0000 L 149.2063 110.0000 L 152.3810 110.0000 L 155.5556 110.0000 L 158.7302 110.0000 L 161.9048 110.0000 L 165.0794 110.0000 L 168.2540 110.0000 L 171.4286 110.0000 L 174.6032 110.0000 L 177.7778 110.0000 L 180.9524 110.0000 L 184.1270 110.0000 L 187.3016 110.0000 L 190.4762 110.0000 L 193.6508 110.0000 L 196.8254 110.0000 L 200.0000 110.0000 L 200.0000 30.0000 L 196.8254 30.0000 L 193.6508 30.0000 L 190.4762 30.0000 L 187.3016 30.0000 L 184.1270 30.0000 L 180.9524 30.0000 L 177.7778 30.0000 L 174.6032 30.0000 L 171.4286 30.0000 L 168.2540 30.0000 L 165.0794 30.0000 L 161.9048 30.0000 L 158.7302 30.0000 L 155.5556 30.0000 L 152.3810 30.0000 L 149.2063 30.0000 L 146.0317 30.0000 L 142.8571 30.0000 L 139.6825 30.0000 L 136.5079 30.0000 L 133.3333 30.0000 L 130.1587 30.0000 L 126.9841 30.0000 L 123.8095 30.0000 L 120.6349 30.0000 L 117.4603 30.0000 L 114.2857 30.0000 L 111.1111 30.0000 L 107.9365 30.0000 L 104.7619 30.0000 L 101.5873 30.0000 L 98.4127 30.0000 L 95.2381 30.0000 L 92.0635 30.0000 L 88.8889 30.0000 L 85.7143 30.0000 L 82.5397 30.0000 L 79.3651 30.0000 L 76.1905 30.0000 L 73.0159 30.0000 L 69.8413 30.0000 L 66.6667 30.0000 L 63.4921 30.0000 L 60.3175 30.0000 L 57.1429 30.0000 L 53.9683 30.0000 L 50.7937 30.0000 L 47.6190 30.0000 L 44.4444 30.0000 L 41.2698 30.0000 L 38.0952 30.0000 L 34.9206 30.0000 L 31.7460 30.0000 L 28.5714 30.0000 L 25.3968 30.0000 L 22.2222 30.0000 L 19.0476 30.0000 L 15.8730 30.0000 L 12.6984 30.0000 L 9.5238 30.0000 L 6.3492 30.0000 L 3.1746 30.0000 L 0.0000 30.0000 Z M 0.0000 -110.0000 L 0.0000 -30.0000 L 3.1746 -30.0000 L 6.3492 -30.0000 L 9.5238 -30.0000 L 12.6984 -30.0000 L 15.8730 -30.0000 L 19.0476 -30.0000 L 22.2222 -30.0000 L 25.3968 -30.0000 L 28.5714 -30.0000 L 31.7460 -30.0000 L 34.9206 -30.0000 L 38.0952 -30.0000 L 41.2698 -30.0000 L 44.4444 -30.0000 L 47.6190 -30.0000 L 50.7937 -30.0000 L 53.9683 -30.0000 L 57.1429 -30.0000 L 60.3175 -30.0000 L 63.4921 -30.0000 L 66.6667 -30.0000 L 69.8413 -30.0000 L 73.0159 -30.0000 L 76.1905 -30.0000 L 79.3651 -30.0000 L 82.5397 -30.0000 L 85.7143 -30.0000 L 88.8889 -30.0000 L 92.0635 -30.0000 L 95.2381 -30.0000 L 98.4127 -30.0000 L 101.5873 -30.0000 L 104.7619 -30.0000 L 107.9365 -30.0000 L 111.1111 -30.0000 L 114.2857 -30.0000 L 117.4603 -30.0000 L 120.6349 -30.0000 L 123.8095 -30.0000 L 126.9841 -30.0000 L 130.1587 -30.0000 L 133.3333 -30.0000 L 136.5079 -30.0000 L 139.6825 -30.0000 L 142.8571 -30.0000 L 146.0317 -30.0000 L 149.2063 -30.0000 L 152.3810 -30.0000 L 155.5556 -30.0000 L 158.7302 -30.0000 L 161.9048 -30.0000 L 165.0794 -30.0000 L 168.2540 -30.0000 L 171.4286 -30.0000 L 174.6032 -30.0000 L 177.7778 -30.0000 L 180.9524 -30.0000 L 184.1270 -30.0000 L 187.3016 -30.0000 L 190.4762 -30.0000 L 193.6508 -30.0000 L 196.8254 -30.0000 L 195.0000 -30.0000 L 195.0058 -30.0115 L 195.0119 -30.0231 L 195.0183 -30.0351 L 195.0249 -30.0472 L 195.0318 -30.0596 L 195.0390 -30.0722 L 195.0464 -30.0851 L 195.0542 -30.0981 L 195.0621 -30.1114 L 195.0704 -30.1249 L 195.0789 -30.1386 L 195.0877 -30.1525 L 195.0967 -30.1666 L 195.1060 -30.1810 L 195.1155 -30.1955 L 195.1253 -30.2103 L 195.1353 -30.2253 L 195.1455 -30.2404 L 195.1561 -30.2558 L 195.1668 -30.2714 L 195.1778 -30.2871 L 195.1891 -30.3031 L 195.2005 -30.3192 L 195.2122 -30.3355 L 195.2242 -30.3521 L 195.2363 -30.3688 L 195.2487 -30.3857 L 195.2614 -30.4027 L 195.2742 -30.4200 L 195.2873 -30.4374 L 195.3006 -30.4550 L 195.3141 -30.4728 L 195.3278 -30.4908 L 195.3417 -30.5089 L 195.3559 -30.5272 L 195.3702 -30.5456 L 195.3848 -30.5643 L 195.3996 -30.5830 L 195.4145 -30.6020 L 195.4297 -30.6211 L 195.4451 -30.6403 L 195.4607 -30.6597 L 195.4764 -30.6793 L 195.4924 -30.6990 L 195.5086 -30.7189 L 195.5249 -30.7389 L 195.5414 -30.7590 L 195.5582 -30.7793 L 195.5751 -30.7997 L 195.5922 -30.8203 L 195.6094 -30.8410 L 195.6269 -30.8618 L 195.6445 -30.8828 L 195.6623 -30.9039 L 195.6802 -30.9251 L 195.6984 -30.9464 L 195.7167 -30.9679 L 195.7351 -30.9895 L 195.7538 -31.0112 L 195.7726 -31.0330 L 195.7915 -31.0549 L 195.8106 -31.0770 L 195.8299 -31.0992 L 195.8493 -31.1214 L 195.8689 -31.1438 L 195.8886 -31.1663 L 195.9084 -31.1889 L 195.9284 -31.2116 L 195.9486 -31.2344 L 195.9689 -31.2573 L 195.9893 -31.2802 L 196.0099 -31.3033 L 196.0306 -31.3265 L 196.0514 -31.3497 L 196.0724 -31.3731 L 196.0935 -31.3965 L 196.1147 -31.4200 L 196.1361 -31.4436 L 196.1576 -31.4672 L 196.1792 -31.4910 L 196.2009 -31.5148 L 196.2227 -31.5387 L 196.2447 -31.5627 L 196.2667 -31.5867 L 196.2889 -31.6108 L 196.3112 -31.6350 L 196.3335 -31.6592 L 196.3560 -31.6835 L 196.3786 -31.7078 L 196.4013 -31.7322 L 196.4241 -31.7567 L 196.4470 -31.7812 L 196.4700 -31.8057 L 196.4931 -31.8303 L 196.5162 -31.8550 L 196.5395 -31.8797 L 196.5629 -31.9044 L 196.5863 -31.9292 L 196.6098 -31.9540 L 196.6334 -31.9789 L 196.6571 -32.0038 L 196.6808 -32.0287 L 196.7046 -32.0537 L 196.7285 -32.0786 L 196.7525 -32.1036 L 196.7765 -32.1287 L 196.8006 -32.1537 L 196.8248 -32.1788 L 196.8490 -32.2039 L 196.8733 -32.2290 L 196.8977 -32.2541 L 196.9221 -32.2793 L 196.9465 -32.3044 L 196.9710 -32.3296 L 196.9956 -32.3547 L 197.0202 -32.3799 L 197.0449 -32.4050 L 197.0696 -32.4302 L 197.0943 -32.4554 L 197.1191 -32.4805 L 197.1439 -32.5057 L 197.1688 -32.5308 L 197.1937 -32.5560 L 197.2186 -32.5811 L 197.2435 -32.6062 L 197.2685 -32.6313 L 197.2935 -32.6564 L 197.3186 -32.6814 L 197.3436 -32.7065 L 197.3687 -32.7315 L 197.3938 -32.7565 L 197.4189 -32.7814 L 197.4440 -32.8063 L 197.4692 -32.8312 L 197.4943 -32.8561 L 197.5195 -32.8809 L 197.5446 -32.9057 L 197.5698 -32.9304 L 197.5950 -32.9551 L 197.6201 -32.9798 L 197.6453 -33.0044 L 197.6704 -33.0290 L 197.6956 -33.0535 L 197.7207 -33.0779 L 197.7459 -33.1023 L 197.7710 -33.1267 L 197.7961 -33.1510 L 197.8212 -33.1752 L 197.8463 -33.1994 L 197.8713 -33.2235 L 197.8964 -33.2475 L 197.9214 -33.2715 L 197.9463 -33.2954 L 197.9713 -33.3192 L 197.9962 -33.3429 L 198.0211 -33.3666 L 198.0460 -33.3902 L 198.0708 -33.4137 L 198.0956 -33.4371 L 198.1203 -33.4605 L 198.1450 -33.4838 L 198.1697 -33.5069 L 198.1943 -33.5300 L 198.2188 -33.5530 L 198.2433 -33.5759 L 198.2678 -33.5987 L 198.2922 -33.6214 L 198.3165 -33.6440 L 198.3408 -33.6665 L 198.3650 -33.6888 L 198.3892 -33.7111 L 198.4133 -33.7333 L 198.4373 -33.7553 L 198.4613 -33.7773 L 198.4852 -33.7991 L 198.5090 -33.8208 L 198.5328 -33.8424 L 198.5564 -33.8639 L 198.5800 -33.8853 L 198.6035 -33.9065 L 198.6269 -33.9276 L 198.6503 -33.9486 L 198.6735 -33.9694 L 198.6967 -33.9901 L 198.7198 -34.0107 L 198.7427 -34.0311 L 198.7656 -34.0514 L 198.7884 -34.0716 L 198.8111 -34.0916 L 198.8337 -34.1114 L 198.8562 -34.1311 L 198.8786 -34.1507 L 198.9008 -34.1701 L 198.9230 -34.1894 L 198.9451 -34.2085 L 198.9670 -34.2274 L 198.9888 -34.2462 L 199.0105 -34.2649 L 199.0321 -34.2833 L 199.0536 -34.3016 L 199.0749 -34.3198 L 199.0961 -34.3377 L 199.1172 -34.3555 L 199.1382 -34.3731 L 199.1590 -34.3906 L 199.1797 -34.4078 L 199.2003 -34.4249 L 199.2207 -34.4418 L 199.2410 -34.4586 L 199.2611 -34.4751 L 199.2811 -34.4914 L 199.3010 -34.5076 L 199.3207 -34.5236 L 199.3403 -34.5393 L 199.3597 -34.5549 L 199.3789 -34.5703 L 199.3980 -34.5855 L 199.4170 -34.6004 L 199.4357 -34.6152 L 199.4544 -34.6298 L 199.4728 -34.6441 L 199.4911 -34.6583 L 199.5092 -34.6722 L 199.5272 -34.6859 L 199.5450 -34.6994 L 199.5626 -34.7127 L 199.5800 -34.7258 L 199.5973 -34.7386 L 199.6143 -34.7513 L 199.6312 -34.7637 L 199.6479 -34.7758 L 199.6645 -34.7878 L 199.6808 -34.7995 L 199.6969 -34.8109 L 199.7129 -34.8222 L 199.7286 -34.8332 L 199.7442 -34.8439 L 199.7596 -34.8545 L 199.7747 -34.8647 L 199.7897 -34.8747 L 199.8045 -34.8845 L 199.8190 -34.8940 L 199.8334 -34.9033 L 199.8475 -34.9123 L 199.8614 -34.9211 L 199.8751 -34.9296 L 199.8886 -34.9379 L 199.9019 -34.9458 L 199.9149 -34.9536 L 199.9278 -34.9610 L 199.9404 -34.9682 L 199.9528 -34.9751 L 199.9649 -34.9817 L 199.9769 -34.9881 L 199.9885 -34.9942 L 200.0000 -35.0000 L 200.0000 -105.0000 L 196.8254 -110.0000 L 193.6508 -110.0000 L 190.4762 -110.0000 L 187.3016 -110.0000 L 184.1270 -110.0000 L 180.9524 -110.0000 L 177.7778 -110.0000 L 174.6032 -110.0000 L 171.4286 -110.0000 L 168.2540 -110.0000 L 165.0794 -110.0000 L 161.9048 -110.0000 L 158.7302 -110.0000 L 155.5556 -110.0000 L 152.3810 -110.0000 L 149.2063 -110.0000 L 146.0317 -110.0000 L 142.8571 -110.0000 L 139.6825 -110.0000 L 136.5079 -110.0000 L 133.3333 -110.0000 L 130.1587 -110.0000 L 126.9841 -110.0000 L 123.8095 -110.0000 L 120.6349 -110.0000 L 117.4603 -110.0000 L 114.2857 -110.0000 L 111.1111 -110.0000 L 107.9365 -110.0000 L 104.7619 -110.0000 L 101.5873 -110.0000 L 98.4127 -110.0000 L 95.2381 -110.0000 L 92.0635 -110.0000 L 88.8889 -110.0000 L 85.7143 -110.0000 L 82.5397 -110.0000 L 79.3651 -110.0000 L 76.1905 -110.0000 L 73.0159 -110.0000 L 69.8413 -110.0000 L 66.6667 -110.0000 L 63.4921 -110.0000 L 60.3175 -110.0000 L 57.1429 -110.0000 L 53.9683 -110.0000 L 50.7937 -110.0000 L 47.6190 -110.0000 L 44.4444 -110.0000 L 41.2698 -110.0000 L 38.0952 -110.0000 L 34.9206 -110.0000 L 31.7460 -110.0000 L 28.5714 -110.0000 L 25.3968 -110.0000 L 22.2222 -110.0000 L 19.0476 -110.0000 L 15.8730 -110.0000 L 12.6984 -110.0000 L 9.5238 -110.0000 L 6.3492 -110.0000 L 3.1746 -110.0000 L 0.0000 -110.0000 Z" fill="black" stroke="none" fill-rule="nonzero" />
  </g>

  <g id="debug-overlays">

  </g>
  <text x="20" y="20" font-size="14" fill="#111">example=cap_fillet_line view=none solo=false</text>

</svg>