<svg xmlns="http://www.w3.org/2000/svg" width="1600" height="1600" viewBox="-250.0000 -250.0000 1500.0000 1500.0000">

  <g id="reference-fill" opacity="0.2500" transform="matrix(1.000000 0.000000 -0.000000 1.000000 0.000000 0.000000)">

    <g transform="matrix(1,0,0,1,-30,14)">
        <path d="M160,171L389,171C411,171 420,170 420,157C420,141 411,-14 249,-14C172,-14 111,15 75,68C30,134 30,187 30,215C31,293 48,332 99,387C132,423 185,434 249,434C343,434 408,365 426,328C435,311 432,306 428,304L411,295C407,292 403,293 401,298C381,330 341,353 292,353C219,353 160,302 160,198L160,171ZM257,133L161,133C168,63 193,26 240,26C271,26 289,69 289,113C289,128 279,133 257,133Z" style="fill-rule:nonzero;"/>
    </g>

  </g>
  <g id="stroke-ink">
    <g id="stroke-ink-e-bowl" data-stroke-id="e-bowl">
      <path d="M -0.0515 236.2708 L 0.2693 255.1747 L 2.0428 274.2975 L 2.5868 278.1398 L 5.6089 293.4938 L 10.9264 312.6263 L 18.0130 331.5371 L 26.9192 350.0190 L 32.0645 359.0242 L 37.6734 367.8302 L 43.7427 376.3997 L 50.2655 384.6942 L 57.2314 392.6756 L 64.6252 400.3048 L 72.4269 407.5434 L 80.6111 414.3543 L 89.1474 420.7031 L 98.0013 426.5595 L 107.1356 431.8991 L 116.5081 436.7011 L 126.0761 440.9521 L 135.7977 444.6458 L 145.6294 447.7810 L 155.5317 450.3636 L 165.4668 452.4042 L 175.4007 453.9184 L 195.1492 455.4464 L 214.5868 455.1275 L 233.5876 453.1590 L 237.3280 452.5846 L 252.0700 449.6647 L 269.9460 444.6474 L 287.1354 438.2113 L 303.5662 430.4567 L 319.1737 421.4762 L 333.8939 411.3589 L 347.6661 400.1918 L 360.4326 388.0623 L 372.1390 375.0607 L 382.7366 361.2812 L 392.1850 346.8211 L 400.4535 331.7804 L 407.5220 316.2610 L 378.9003 301.9502 L 368.9572 313.1328 L 358.2523 323.2372 L 346.9250 332.2093 L 335.1185 340.0183 L 322.9762 346.6563 L 310.6387 352.1361 L 298.2401 356.4901 L 285.9062 359.7668 L 273.7527 362.0291 L 261.8842 363.3517 L 250.3901 363.8202 L 239.3430 363.5291 L 230.8610 362.8173 L 228.7916 362.5746 L 218.7635 360.8782 L 209.3143 358.4117 L 200.4907 355.2284 L 196.3208 353.3850 L 192.3119 351.3817 L 188.4615 349.2236 L 184.7651 346.9142 L 181.2165 344.4554 L 177.8093 341.8476 L 174.5354 339.0889 L 171.3874 336.1759 L 168.3593 333.1046 L 165.4447 329.8691 L 162.6398 326.4637 L 159.9421 322.8832 L 157.3507 319.1228 L 154.8663 315.1792 L 152.4908 311.0502 L 150.2270 306.7352 L 148.0785 302.2361 L 146.0496 297.5565 L 142.3637 287.6715 L 139.1966 277.1297 L 136.5686 265.9953 L 134.8614 256.7057 L 134.2889 254.3650 L 131.4651 242.3641 L 128.7425 229.8698 L 126.1714 216.9063 L 123.7995 203.4981 L 121.7477 190.9258 L 120.1892 178.1303 L 119.2320 165.3320 L 119.0031 152.5491 L 119.6345 139.8160 L 121.2595 127.1937 L 124.0069 114.7722 L 127.9924 102.6765 L 133.3099 91.0664 L 140.0168 80.1393 L 148.1201 70.1249 L 157.5662 61.2739 L 168.2308 53.8459 L 173.9614 50.7446 L 179.9165 48.0914 L 186.0613 45.9134 L 192.3550 44.2352 L 198.8236 43.5032 L 205.3468 43.7495 L 211.7933 44.9234 L 218.0433 46.9603 L 223.9889 49.7833 L 229.5362 53.3047 L 234.6057 57.4272 L 239.1346 62.0464 L 243.0776 67.0526 L 246.4087 72.3335 L 249.1218 77.7770 L 251.2321 83.2745 L 252.7756 88.7248 L 253.8091 94.0376 L 254.4084 99.1375 L 254.6657 103.9666 L 254.6866 108.4881 L 254.5858 112.6865 L 254.4822 116.5678 L 254.4718 117.3082 L 254.4674 120.1778 L 254.5448 123.6173 L 254.7175 126.9690 L 254.9751 130.3059 L 255.2944 133.6904 L 255.9769 140.7902 L 256.4208 148.5216 L 256.2286 156.9514 L 255.0000 166.0000 L 390.0000 166.0000 L 388.1214 147.1643 L 384.6432 128.3377 L 379.4288 109.6993 L 372.3613 91.4887 L 368.1063 82.6311 L 363.3639 73.9919 L 358.1356 65.6137 L 352.4277 57.5388 L 347.5243 51.3259 L 346.2528 49.8099 L 339.6308 42.4698 L 332.5849 35.5554 L 325.1462 29.1025 L 317.3486 23.1402 L 309.2287 17.6921 L 300.8264 12.7766 L 292.1815 8.4055 L 283.3334 4.5855 L 274.3201 1.3179 L 265.1781 -1.3994 L 255.9412 -3.5724 L 246.6408 -5.2094 L 237.3054 -6.3205 L 227.9614 -6.9171 L 218.6328 -7.0111 L 209.3412 -6.6149 L 200.1065 -5.7408 L 190.9469 -4.4011 L 181.8801 -2.6079 L 172.8289 -0.6979 L 163.8496 1.6119 L 154.9554 4.3242 L 146.1589 7.4422 L 128.9254 14.8997 L 112.2906 23.9793 L 96.4103 34.6429 L 81.4413 46.8144 L 67.5300 60.3771 L 54.7996 75.1823 L 43.3423 91.0615 L 33.2203 107.8324 L 24.4652 125.3161 L 17.0842 143.3422 L 11.0662 161.7576 L 6.3897 180.4199 L 3.0240 199.4109 L 0.9178 217.6693 L -0.0515 236.2708 Z" fill="black" stroke="none" data-stroke-id="e-bowl" />
    </g>
    <g id="stroke-ink-e-cross" data-stroke-id="e-cross">
      <path d="M 75.0000 148.0000 L 75.0000 184.0000 L 79.7619 184.0000 L 84.5238 184.0000 L 89.2857 184.0000 L 94.0476 184.0000 L 98.8095 184.0000 L 103.5714 184.0000 L 108.3333 184.0000 L 113.0952 184.0000 L 117.8571 184.0000 L 122.6190 184.0000 L 127.3810 184.0000 L 132.1429 184.0000 L 136.9048 184.0000 L 141.6667 184.0000 L 146.4286 184.0000 L 151.1905 184.0000 L 155.9524 184.0000 L 160.7143 184.0000 L 165.4762 184.0000 L 170.2381 184.0000 L 175.0000 184.0000 L 179.7619 184.0000 L 184.5238 184.0000 L 189.2857 184.0000 L 194.0476 184.0000 L 198.8095 184.0000 L 203.5714 184.0000 L 208.3333 184.0000 L 213.0952 184.0000 L 217.8571 184.0000 L 222.6190 184.0000 L 227.3810 184.0000 L 232.1429 184.0000 L 236.9048 184.0000 L 241.6667 184.0000 L 246.4286 184.0000 L 251.1905 184.0000 L 255.9524 184.0000 L 260.7143 184.0000 L 265.4762 184.0000 L 270.2381 184.0000 L 275.0000 184.0000 L 279.7619 184.0000 L 284.5238 184.0000 L 289.2857 184.0000 L 294.0476 184.0000 L 298.8095 184.0000 L 303.5714 184.0000 L 308.3333 184.0000 L 313.0952 184.0000 L 317.8571 184.0000 L 322.6190 184.0000 L 327.3810 184.0000 L 332.1429 184.0000 L 336.9048 184.0000 L 341.6667 184.0000 L 346.4286 184.0000 L 351.1905 184.0000 L 355.9524 184.0000 L 360.7143 184.0000 L 365.4762 184.0000 L 370.2381 184.0000 L 375.0000 184.0000 L 375.0000 148.0000 L 370.2381 148.0000 L 365.4762 148.0000 L 360.7143 148.0000 L 355.9524 148.0000 L 351.1905 148.0000 L 346.4286 148.0000 L 341.6667 148.0000 L 336.9048 148.0000 L 332.1429 148.0000 L 327.3810 148.0000 L 322.6190 148.0000 L 317.8571 148.0000 L 313.0952 148.0000 L 308.3333 148.0000 L 303.5714 148.0000 L 298.8095 148.0000 L 294.0476 148.0000 L 289.2857 148.0000 L 284.5238 148.0000 L 279.7619 148.0000 L 275.0000 148.0000 L 270.2381 148.0000 L 265.4762 148.0000 L 260.7143 148.0000 L 255.9524 148.0000 L 251.1905 148.0000 L 246.4286 148.0000 L 241.6667 148.0000 L 236.9048 148.0000 L 232.1429 148.0000 L 227.3810 148.0000 L 222.6190 148.0000 L 217.8571 148.0000 L 213.0952 148.0000 L 208.3333 148.0000 L 203.5714 148.0000 L 198.8095 148.0000 L 194.0476 148.0000 L 189.2857 148.0000 L 184.5238 148.0000 L 179.7619 148.0000 L 175.0000 148.0000 L 170.2381 148.0000 L 165.4762 148.0000 L 160.7143 148.0000 L 155.9524 148.0000 L 151.1905 148.0000 L 146.4286 148.0000 L 141.6667 148.0000 L 136.9048 148.0000 L 132.1429 148.0000 L 127.3810 148.0000 L 122.6190 148.0000 L 117.8571 148.0000 L 113.0952 148.0000 L 108.3333 148.0000 L 103.5714 148.0000 L 98.8095 148.0000 L 94.0476 148.0000 L 89.2857 148.0000 L 84.5238 148.0000 L 79.7619 148.0000 L 75.0000 148.0000 Z" fill="black" stroke="none" data-stroke-id="e-cross" />
    </g>
  </g>
  <g id="reference-outline" transform="matrix(1.000000 0.000000 -0.000000 1.000000 0.000000 0.000000)" style="fill:none;stroke:#ff66cc;stroke-width:1;vector-effect:non-scaling-stroke">

    <g transform="matrix(1,0,0,1,-30,14)">
        <path d="M160,171L389,171C411,171 420,170 420,157C420,141 411,-14 249,-14C172,-14 111,15 75,68C30,134 30,187 30,215C31,293 48,332 99,387C132,423 185,434 249,434C343,434 408,365 426,328C435,311 432,306 428,304L411,295C407,292 403,293 401,298C381,330 341,353 292,353C219,353 160,302 160,198L160,171ZM257,133L161,133C168,63 193,26 240,26C271,26 289,69 289,113C289,128 279,133 257,133Z" style="fill-rule:nonzero;"/>
    </g>

  </g>
  <g id="debug-overlays">
  <g id="debug">
    <line x1="350.0000" y1="166.0000" x2="350.0000" y2="-40.0000" stroke="#cccccc" stroke-width="1.0"/>
    <line x1="60.0000" y1="200.0000" x2="70.0000" y2="-40.0000" stroke="#cccccc" stroke-width="1.0"/>
    <path d="M 350.0000 166.0000 L 349.7906 156.3463 L 349.1710 147.0049 L 348.1546 137.9765 L 346.7545 129.2619 L 344.9839 120.8620 L 342.8561 112.7777 L 340.3841 105.0096 L 337.5812 97.5587 L 334.4606 90.4257 L 331.0356 83.6114 L 327.3192 77.1167 L 323.3247 70.9424 L 319.0653 65.0894 L 314.5542 59.5583 L 309.8046 54.3501 L 304.8296 49.4655 L 299.6425 44.9054 L 294.2566 40.6706 L 288.6848 36.7618 L 282.9406 33.1800 L 277.0370 29.9259 L 270.9873 27.0004 L 264.8047 24.4042 L 258.5023 22.1382 L 252.0934 20.2032 L 245.5911 18.6000 L 239.0087 17.3294 L 232.3594 16.3923 L 225.6563 15.7894 L 218.9126 15.5216 L 212.1416 15.5897 L 205.3565 15.9945 L 198.5703 16.7369 L 191.7965 17.8175 L 185.0480 19.2373 L 178.3382 20.9971 L 171.6802 23.0976 L 165.0872 25.5398 L 158.5725 28.3244 L 152.1492 31.4522 L 145.8305 34.9240 L 139.6296 38.7407 L 133.5598 42.9031 L 127.6341 47.4120 L 121.8659 52.2682 L 116.2683 57.4725 L 110.8544 63.0258 L 105.6376 68.9288 L 100.6310 75.1824 L 95.8478 81.7874 L 91.3012 88.7446 L 87.0043 96.0548 L 82.9705 103.7189 L 79.2128 111.7376 L 75.7446 120.1118 L 72.5789 128.8422 L 69.7290 137.9298 L 67.2080 147.3753 L 65.0293 157.1795 L 63.2059 167.3433 L 61.7511 177.8674 L 60.6781 188.7527 L 60.0000 200.0000" fill="none" stroke="orange" stroke-width="2.0" />
    <circle cx="350.0000" cy="166.0000" r="4.0" fill="blue" stroke="none"/>
    <circle cx="60.0000" cy="200.0000" r="4.0" fill="blue" stroke="none"/>
    <circle cx="350.0000" cy="-40.0000" r="4.0" fill="red" stroke="none"/>
    <circle cx="70.0000" cy="-40.0000" r="4.0" fill="red" stroke="none"/>
    <text x="209.3565" y="11.9945" font-size="10" fill="#444444">upper_loop</text>
    <line x1="60.0000" y1="200.0000" x2="50.0000" y2="470.0000" stroke="#cccccc" stroke-width="1.0"/>
    <line x1="395.0000" y1="310.0000" x2="310.0000" y2="480.0000" stroke="#cccccc" stroke-width="1.0"/>
    <path d="M 60.0000 200.0000 L 59.7261 212.6609 L 59.8497 224.9308 L 60.3601 236.8114 L 61.2466 248.3047 L 62.4986 259.4126 L 64.1054 270.1371 L 66.0562 280.4801 L 68.3405 290.4435 L 70.9475 300.0292 L 73.8666 309.2391 L 77.0870 318.0751 L 80.5982 326.5393 L 84.3894 334.6334 L 88.4499 342.3594 L 92.7691 349.7193 L 97.3363 356.7149 L 102.1409 363.3481 L 107.1720 369.6210 L 112.4191 375.5354 L 117.8715 381.0932 L 123.5185 386.2963 L 129.3494 391.1467 L 135.3536 395.6463 L 141.5204 399.7970 L 147.8390 403.6007 L 154.2988 407.0594 L 160.8892 410.1749 L 167.5995 412.9492 L 174.4189 415.3843 L 181.3368 417.4819 L 188.3425 419.2441 L 195.4254 420.6728 L 202.5748 421.7698 L 209.7799 422.5371 L 217.0302 422.9767 L 224.3149 423.0904 L 231.6233 422.8801 L 238.9448 422.3479 L 246.2688 421.4955 L 253.5844 420.3250 L 260.8811 418.8382 L 268.1481 417.0370 L 275.3749 414.9235 L 282.5506 412.4994 L 289.6647 409.7668 L 296.7065 406.7275 L 303.6652 403.3834 L 310.5302 399.7365 L 317.2908 395.7888 L 323.9364 391.5420 L 330.4562 386.9982 L 336.8396 382.1592 L 343.0760 377.0270 L 349.1545 371.6035 L 355.0646 365.8906 L 360.7956 359.8903 L 366.3368 353.6044 L 371.6775 347.0348 L 376.8070 340.1836 L 381.7147 333.0526 L 386.3899 325.6437 L 390.8219 317.9589 L 395.0000 310.0000" fill="none" stroke="orange" stroke-width="2.0" />
    <circle cx="60.0000" cy="200.0000" r="4.0" fill="blue" stroke="none"/>
    <circle cx="395.0000" cy="310.0000" r="4.0" fill="blue" stroke="none"/>
    <circle cx="50.0000" cy="470.0000" r="4.0" fill="red" stroke="none"/>
    <circle cx="310.0000" cy="480.0000" r="4.0" fill="red" stroke="none"/>
    <text x="199.4254" y="416.6728" font-size="10" fill="#444444">lower_loop</text>
  </g>
  <g id="debug-keyframes">
    <polygon points="384.0000,166.0000 393.6000,162.4000 393.6000,169.6000" fill="none" stroke="#d32f2f" stroke-width="1.0" vector-effect="non-scaling-stroke"/>
    <polygon points="183.1895,3.2475 177.5812,-5.3355 184.6077,-6.9067" fill="none" stroke="#d32f2f" stroke-width="1.0" vector-effect="non-scaling-stroke"/>
    <polygon points="8.5095,277.1801 -0.3910,282.2693 -1.5427,275.1620" fill="none" stroke="#d32f2f" stroke-width="1.0" vector-effect="non-scaling-stroke"/>
    <polygon points="236.8969,446.6001 241.1774,455.9166 233.9960,456.4340" fill="none" stroke="#d32f2f" stroke-width="1.0" vector-effect="non-scaling-stroke"/>
    <polygon points="402.1554,313.5777 412.3519,314.6510 409.1319,321.0909" fill="none" stroke="#d32f2f" stroke-width="1.0" vector-effect="non-scaling-stroke"/>
    <polygon points="261.0000,166.0000 251.4000,169.6000 251.4000,162.4000" fill="none" stroke="#1976d2" stroke-width="1.0" vector-effect="non-scaling-stroke"/>
    <polygon points="259.3662,113.8376 253.6175,122.3271 249.4528,116.4538" fill="none" stroke="#1976d2" stroke-width="1.0" vector-effect="non-scaling-stroke"/>
    <polygon points="191.0457,38.3799 196.6539,46.9628 189.6274,48.5341" fill="none" stroke="#1976d2" stroke-width="1.0" vector-effect="non-scaling-stroke"/>
    <polygon points="128.9386,257.6654 137.8392,252.5762 138.9909,259.6835" fill="none" stroke="#1976d2" stroke-width="1.0" vector-effect="non-scaling-stroke"/>
    <polygon points="231.2921,368.8017 227.0116,359.4852 234.1930,358.9679" fill="none" stroke="#1976d2" stroke-width="1.0" vector-effect="non-scaling-stroke"/>
    <polygon points="384.2669,304.6334 374.0704,303.5601 377.2903,297.1202" fill="none" stroke="#1976d2" stroke-width="1.0" vector-effect="non-scaling-stroke"/>
    <polygon points="368.0000,166.0000 358.4000,169.6000 358.4000,162.4000" fill="none" stroke="#388e3c" stroke-width="1.0" vector-effect="non-scaling-stroke"/>
    <polygon points="411.0997,318.0498 400.9032,316.9765 404.1232,310.5367" fill="none" stroke="#388e3c" stroke-width="1.0" vector-effect="non-scaling-stroke"/>
    <polygon points="368.0000,166.0000 358.4000,169.6000 358.4000,162.4000" fill="none" stroke="#8e24aa" stroke-width="1.0" vector-effect="non-scaling-stroke"/>
    <polygon points="411.0997,318.0498 400.9032,316.9765 404.1232,310.5367" fill="none" stroke="#8e24aa" stroke-width="1.0" vector-effect="non-scaling-stroke"/>
  </g>
  <g id="debug-ring-spine">
    <path d="M -0.0515 236.2708 L 0.2693 255.1747 L 2.0428 274.2975 L 2.5868 278.1398 L 5.6089 293.4938 L 10.9264 312.6263 L 18.0130 331.5371 L 26.9192 350.0190 L 32.0645 359.0242 L 37.6734 367.8302 L 43.7427 376.3997 L 50.2655 384.6942 L 57.2314 392.6756 L 64.6252 400.3048 L 72.4269 407.5434 L 80.6111 414.3543 L 89.1474 420.7031 L 98.0013 426.5595 L 107.1356 431.8991 L 116.5081 436.7011 L 126.0761 440.9521 L 135.7977 444.6458 L 145.6294 447.7810 L 155.5317 450.3636 L 165.4668 452.4042 L 175.4007 453.9184 L 195.1492 455.4464 L 214.5868 455.1275 L 233.5876 453.1590 L 237.3280 452.5846 L 252.0700 449.6647 L 269.9460 444.6474 L 287.1354 438.2113 L 303.5662 430.4567 L 319.1737 421.4762 L 333.8939 411.3589 L 347.6661 400.1918 L 360.4326 388.0623 L 372.1390 375.0607 L 382.7366 361.2812 L 392.1850 346.8211 L 400.4535 331.7804 L 407.5220 316.2610 L 378.9003 301.9502 L 368.9572 313.1328 L 358.2523 323.2372 L 346.9250 332.2093 L 335.1185 340.0183 L 322.9762 346.6563 L 310.6387 352.1361 L 298.2401 356.4901 L 285.9062 359.7668 L 273.7527 362.0291 L 261.8842 363.3517 L 250.3901 363.8202 L 239.3430 363.5291 L 230.8610 362.8173 L 228.7916 362.5746 L 218.7635 360.8782 L 209.3143 358.4117 L 200.4907 355.2284 L 196.3208 353.3850 L 192.3119 351.3817 L 188.4615 349.2236 L 184.7651 346.9142 L 181.2165 344.4554 L 177.8093 341.8476 L 174.5354 339.0889 L 171.3874 336.1759 L 168.3593 333.1046 L 165.4447 329.8691 L 162.6398 326.4637 L 159.9421 322.8832 L 157.3507 319.1228 L 154.8663 315.1792 L 152.4908 311.0502 L 150.2270 306.7352 L 148.0785 302.2361 L 146.0496 297.5565 L 142.3637 287.6715 L 139.1966 277.1297 L 136.5686 265.9953 L 134.8614 256.7057 L 134.2889 254.3650 L 131.4651 242.3641 L 128.7425 229.8698 L 126.1714 216.9063 L 123.7995 203.4981 L 121.7477 190.9258 L 120.1892 178.1303 L 119.2320 165.3320 L 119.0031 152.5491 L 119.6345 139.8160 L 121.2595 127.1937 L 124.0069 114.7722 L 127.9924 102.6765 L 133.3099 91.0664 L 140.0168 80.1393 L 148.1201 70.1249 L 157.5662 61.2739 L 168.2308 53.8459 L 173.9614 50.7446 L 179.9165 48.0914 L 186.0613 45.9134 L 192.3550 44.2352 L 198.8236 43.5032 L 205.3468 43.7495 L 211.7933 44.9234 L 218.0433 46.9603 L 223.9889 49.7833 L 229.5362 53.3047 L 234.6057 57.4272 L 239.1346 62.0464 L 243.0776 67.0526 L 246.4087 72.3335 L 249.1218 77.7770 L 251.2321 83.2745 L 252.7756 88.7248 L 253.8091 94.0376 L 254.4084 99.1375 L 254.6657 103.9666 L 254.6866 108.4881 L 254.5858 112.6865 L 254.4822 116.5678 L 254.4718 117.3082 L 254.4674 120.1778 L 254.5448 123.6173 L 254.7175 126.9690 L 254.9751 130.3059 L 255.2944 133.6904 L 255.9769 140.7902 L 256.4208 148.5216 L 256.2286 156.9514 L 255.0000 166.0000 L 390.0000 166.0000 L 388.1214 147.1643 L 384.6432 128.3377 L 379.4288 109.6993 L 372.3613 91.4887 L 368.1063 82.6311 L 363.3639 73.9919 L 358.1356 65.6137 L 352.4277 57.5388 L 347.5243 51.3259 L 346.2528 49.8099 L 339.6308 42.4698 L 332.5849 35.5554 L 325.1462 29.1025 L 317.3486 23.1402 L 309.2287 17.6921 L 300.8264 12.7766 L 292.1815 8.4055 L 283.3334 4.5855 L 274.3201 1.3179 L 265.1781 -1.3994 L 255.9412 -3.5724 L 246.6408 -5.2094 L 237.3054 -6.3205 L 227.9614 -6.9171 L 218.6328 -7.0111 L 209.3412 -6.6149 L 200.1065 -5.7408 L 190.9469 -4.4011 L 181.8801 -2.6079 L 172.8289 -0.6979 L 163.8496 1.6119 L 154.9554 4.3242 L 146.1589 7.4422 L 128.9254 14.8997 L 112.2906 23.9793 L 96.4103 34.6429 L 81.4413 46.8144 L 67.5300 60.3771 L 54.7996 75.1823 L 43.3423 91.0615 L 33.2203 107.8324 L 24.4652 125.3161 L 17.0842 143.3422 L 11.0662 161.7576 L 6.3897 180.4199 L 3.0240 199.4109 L 0.9178 217.6693 L -0.0515 236.2708" fill="none" stroke="#00c853" stroke-width="1.5" stroke-linejoin="round" stroke-linecap="round" />
    <circle cx="-0.0515" cy="236.2708" r="1.8" fill="#00c853" stroke="none"/>
    <text x="3.9485" y="232.2708" font-size="10" fill="#111111">0</text>
    <circle cx="298.2401" cy="356.4901" r="1.8" fill="#00c853" stroke="none"/>
    <text x="302.2401" y="352.4901" font-size="10" fill="#111111">50</text>
    <circle cx="168.2308" cy="53.8459" r="1.8" fill="#00c853" stroke="none"/>
    <text x="172.2308" y="49.8459" font-size="10" fill="#111111">100</text>
    <circle cx="300.8264" cy="12.7766" r="1.8" fill="#00c853" stroke="none"/>
    <text x="304.8264" y="8.7766" font-size="10" fill="#111111">150</text>
    <circle cx="-0.0515" cy="236.2708" r="4.0" fill="#2962ff" stroke="none"/>
    <text x="3.9485" y="232.2708" font-size="10" fill="#111111">start</text>
  </g>
  <g id="debug-ring-jump">
    <line x1="255.0000" y1="166.0000" x2="390.0000" y2="166.0000" stroke="#ff1744" stroke-width="6" stroke-linecap="round" opacity="0.9"/>
    <circle cx="255.0000" cy="166.0000" r="5" fill="#ff1744" stroke="none"/>
    <circle cx="390.0000" cy="166.0000" r="5" fill="#ff1744" stroke="none"/>
    <text x="259.0000" y="162.0000" font-size="10" fill="#111111">a=133</text>
    <text x="394.0000" y="162.0000" font-size="10" fill="#111111">b=134</text>
    <text x="326.5000" y="162.0000" font-size="10" fill="#111111">k=133 len=135.0000</text>
    <text x="326.5000" y="178.0000" font-size="10" fill="#111111">ringJump verts=183 maxK=133 len=135.0000</text>
  </g>
  <g id="debug-sampling-why">
    <circle cx="59.7265" cy="217.3111" r="7.50" fill="#9932cc" stroke="none"/>
    <circle cx="186.6811" cy="18.8619" r="7.50" fill="#9932cc" stroke="none"/>
    <circle cx="305.4390" cy="50.0354" r="7.50" fill="#9932cc" stroke="none"/>
    <circle cx="339.7588" cy="103.2416" r="7.50" fill="#9932cc" stroke="none"/>
    <circle cx="347.5955" cy="134.1695" r="7.50" fill="#9932cc" stroke="none"/>
    <circle cx="349.4188" cy="150.0363" r="6.30" fill="#9932cc" stroke="none"/>
    <circle cx="344.4114" cy="118.5183" r="7.21" fill="#9932cc" stroke="none"/>
    <circle cx="325.7478" cy="74.5988" r="7.50" fill="#9932cc" stroke="none"/>
    <circle cx="333.5526" cy="88.5282" r="7.50" fill="#9932cc" stroke="none"/>
    <circle cx="336.8538" cy="95.8013" r="3.10" fill="#3377ff" stroke="none"/>
    <circle cx="329.8510" cy="81.4511" r="3.20" fill="#3377ff" stroke="none"/>
    <circle cx="316.3527" cy="61.6892" r="7.50" fill="#9932cc" stroke="none"/>
    <circle cx="321.2458" cy="68.0011" r="3.28" fill="#3377ff" stroke="none"/>
    <circle cx="311.0784" cy="55.6910" r="3.32" fill="#9932cc" stroke="none"/>
    <circle cx="249.9942" cy="19.6469" r="7.50" fill="#9932cc" stroke="none"/>
    <circle cx="279.6508" cy="31.3159" r="7.50" fill="#9932cc" stroke="none"/>
    <circle cx="293.1424" cy="39.8524" r="7.50" fill="#9932cc" stroke="none"/>
    <circle cx="299.4531" cy="44.7482" r="3.32" fill="#9932cc" stroke="none"/>
    <circle cx="286.5326" cy="35.3691" r="3.29" fill="#9932cc" stroke="none"/>
    <circle cx="265.1876" cy="24.5540" r="7.50" fill="#9932cc" stroke="none"/>
    <circle cx="272.5258" cy="27.7070" r="3.32" fill="#9932cc" stroke="none"/>
    <circle cx="257.6668" cy="21.8653" r="3.51" fill="#3377ff" stroke="none"/>
    <circle cx="218.3868" cy="15.5149" r="7.50" fill="#9932cc" stroke="none"/>
    <circle cx="234.3146" cy="16.6324" r="7.50" fill="#9932cc" stroke="none"/>
    <circle cx="242.2001" cy="17.9021" r="3.70" fill="#3377ff" stroke="none"/>
    <circle cx="226.3672" cy="15.8374" r="3.91" fill="#3377ff" stroke="none"/>
    <circle cx="202.4374" cy="16.2724" r="7.50" fill="#9932cc" stroke="none"/>
    <circle cx="210.4011" cy="15.6615" r="4.16" fill="#3377ff" stroke="none"/>
    <circle cx="194.5220" cy="17.3416" r="4.44" fill="#3377ff" stroke="none"/>
    <circle cx="88.0494" cy="94.2028" r="7.50" fill="#9932cc" stroke="none"/>
    <circle cx="129.4023" cy="46.0179" r="7.50" fill="#9932cc" stroke="none"/>
    <circle cx="156.5418" cy="29.2711" r="7.50" fill="#9932cc" stroke="none"/>
    <circle cx="171.3196" cy="23.2217" r="7.50" fill="#9932cc" stroke="none"/>
    <circle cx="178.9390" cy="20.8251" r="3.06" fill="#3377ff" stroke="none"/>
    <circle cx="163.8469" cy="26.0409" r="3.00" fill="#3377ff" stroke="none"/>
    <circle cx="142.5189" cy="36.9098" r="7.12" fill="#9932cc" stroke="none"/>
    <circle cx="106.3611" cy="68.0749" r="7.50" fill="#9932cc" stroke="none"/>
    <circle cx="117.3181" cy="56.4569" r="6.79" fill="#9932cc" stroke="none"/>
    <circle cx="96.5948" cy="80.7108" r="6.64" fill="#9932cc" stroke="none"/>
    <circle cx="65.7290" cy="153.8142" r="7.50" fill="#9932cc" stroke="none"/>
    <circle cx="74.5945" cy="123.1458" r="7.50" fill="#9932cc" stroke="none"/>
    <circle cx="80.7241" cy="108.3964" r="6.32" fill="#9932cc" stroke="none"/>
    <circle cx="69.6155" cy="138.3223" r="5.93" fill="#9932cc" stroke="none"/>
    <circle cx="60.9645" cy="185.3901" r="7.50" fill="#9932cc" stroke="none"/>
    <circle cx="62.8684" cy="169.5299" r="5.59" fill="#9932cc" stroke="none"/>
    <circle cx="59.9526" cy="201.3374" r="5.87" fill="#9932cc" stroke="none"/>
    <circle cx="184.4535" cy="418.3098" r="7.50" fill="#9932cc" stroke="none"/>
    <circle cx="87.5652" cy="340.7486" r="7.50" fill="#9932cc" stroke="none"/>
    <circle cx="66.1207" cy="280.7878" r="7.50" fill="#9932cc" stroke="none"/>
    <circle cx="61.3339" cy="249.2121" r="7.50" fill="#9932cc" stroke="none"/>
    <circle cx="60.1665" cy="233.2780" r="5.48" fill="#9932cc" stroke="none"/>
    <circle cx="63.2948" cy="265.0654" r="6.88" fill="#9932cc" stroke="none"/>
    <circle cx="74.6681" cy="311.5517" r="7.50" fill="#9932cc" stroke="none"/>
    <circle cx="69.8861" cy="296.3102" r="6.85" fill="#9932cc" stroke="none"/>
    <circle cx="80.5394" cy="326.4058" r="7.40" fill="#9932cc" stroke="none"/>
    <circle cx="83.9041" cy="333.6490" r="3.01" fill="#3377ff" stroke="none"/>
    <circle cx="127.7769" cy="389.8874" r="7.50" fill="#9932cc" stroke="none"/>
    <circle cx="105.2539" cy="367.3040" r="7.50" fill="#9932cc" stroke="none"/>
    <circle cx="95.7955" cy="354.4361" r="7.50" fill="#9932cc" stroke="none"/>
    <circle cx="91.5278" cy="347.6844" r="3.09" fill="#3377ff" stroke="none"/>
    <circle cx="100.3709" cy="360.9831" r="3.16" fill="#3377ff" stroke="none"/>
    <circle cx="115.9313" cy="379.1791" r="7.50" fill="#9932cc" stroke="none"/>
    <circle cx="110.4424" cy="373.3767" r="3.22" fill="#3377ff" stroke="none"/>
    <circle cx="121.7129" cy="384.6897" r="3.26" fill="#3377ff" stroke="none"/>
    <circle cx="154.5634" cy="407.1923" r="7.50" fill="#9932cc" stroke="none"/>
    <circle cx="140.6989" cy="399.2700" r="7.50" fill="#9932cc" stroke="none"/>
    <circle cx="134.1110" cy="394.7537" r="3.26" fill="#3377ff" stroke="none"/>
    <circle cx="147.5226" cy="403.4204" r="3.23" fill="#3377ff" stroke="none"/>
    <circle cx="169.2082" cy="413.5577" r="7.50" fill="#9932cc" stroke="none"/>
    <circle cx="161.7992" cy="410.5741" r="3.17" fill="#3377ff" stroke="none"/>
    <circle cx="176.7674" cy="416.1374" r="3.08" fill="#3377ff" stroke="none"/>
    <circle cx="308.1556" cy="401.0382" r="7.50" fill="#9932cc" stroke="none"/>
    <circle cx="247.8740" cy="421.2660" r="7.50" fill="#9932cc" stroke="none"/>
    <circle cx="216.0135" cy="422.9348" r="7.50" fill="#9932cc" stroke="none"/>
    <circle cx="200.1148" cy="421.4306" r="7.12" fill="#9932cc" stroke="none"/>
    <circle cx="231.9835" cy="422.8615" r="6.33" fill="#9932cc" stroke="none"/>
    <circle cx="278.8931" cy="413.7760" r="7.50" fill="#9932cc" stroke="none"/>
    <circle cx="263.5505" cy="418.2140" r="6.23" fill="#9932cc" stroke="none"/>
    <circle cx="293.7933" cy="408.0260" r="5.93" fill="#9932cc" stroke="none"/>
    <circle cx="358.6004" cy="362.2455" r="7.50" fill="#9932cc" stroke="none"/>
    <circle cx="334.9236" cy="383.6540" r="7.50" fill="#9932cc" stroke="none"/>
    <circle cx="321.8919" cy="392.8886" r="5.74" fill="#9932cc" stroke="none"/>
    <circle cx="347.1805" cy="373.4129" r="5.62" fill="#9932cc" stroke="none"/>
    <circle cx="378.7262" cy="337.4670" r="7.50" fill="#9932cc" stroke="none"/>
    <circle cx="369.1300" cy="350.2354" r="5.51" fill="#9932cc" stroke="none"/>
    <circle cx="387.3567" cy="324.0264" r="5.46" fill="#9932cc" stroke="none"/>
    <text x="62.7265" y="214.3111" font-size="8" fill="#333333">1:B 1594.14</text>
    <text x="189.6811" y="15.8619" font-size="8" fill="#333333">2:B 779.66</text>
    <text x="187.4535" y="415.3098" font-size="8" fill="#333333">3:B 756.65</text>
    <text x="308.4390" y="47.0354" font-size="8" fill="#333333">4:B 262.40</text>
    <text x="90.5652" y="337.7486" font-size="8" fill="#333333">5:B 239.17</text>
  </g>
  </g>
  <text x="20" y="20" font-size="14" fill="#111">example=none view=compareAll,ringSpine,ringJump,samplingWhy,centerline,inkControls,debugSVG solo=false</text>
  <g id="debug-legend">
    <text x="20" y="40" font-size="12" fill="#111">reference fill</text>
    <text x="20" y="56" font-size="12" fill="#ff66cc">reference outline</text>
    <text x="20" y="72" font-size="12" fill="#111">ink fill</text>
    <text x="20" y="88" font-size="12" fill="orange">centerline</text>
    <text x="20" y="104" font-size="12" fill="gray">ink controls</text>
    <text x="20" y="120" font-size="12" fill="#00c853">ring spine</text>
    <text x="20" y="136" font-size="12" fill="#ff1744">ring jump</text>
    <text x="20" y="152" font-size="12" fill="red">why: flatness</text>
    <text x="20" y="168" font-size="12" fill="blue">why: rail deviation</text>
    <text x="20" y="184" font-size="12" fill="purple">why: both</text>
    <text x="20" y="200" font-size="12" fill="gray">why: forced stop</text>
  </g>
</svg>