<svg xmlns="http://www.w3.org/2000/svg" width="1600" height="1600" viewBox="-250.0000 -250.0000 1500.0000 1500.0000">

  <g id="reference-fill" opacity="0.2500" transform="matrix(1.000000 0.000000 -0.000000 1.000000 0.000000 0.000000)">

    <g transform="matrix(1,0,0,1,-30,14)">
        <path d="M160,171L389,171C411,171 420,170 420,157C420,141 411,-14 249,-14C172,-14 111,15 75,68C30,134 30,187 30,215C31,293 48,332 99,387C132,423 185,434 249,434C343,434 408,365 426,328C435,311 432,306 428,304L411,295C407,292 403,293 401,298C381,330 341,353 292,353C219,353 160,302 160,198L160,171ZM257,133L161,133C168,63 193,26 240,26C271,26 289,69 289,113C289,128 279,133 257,133Z" style="fill-rule:nonzero;"/>
    </g>

  </g>
  <g id="stroke-ink">
    <path id="ink-shape" d="M -0.0515 236.2708 L 0.2693 255.1747 L 2.0428 274.2975 L 2.5868 278.1398 L 5.6089 293.4938 L 10.9264 312.6263 L 18.0130 331.5371 L 26.9192 350.0190 L 32.0645 359.0242 L 37.6734 367.8302 L 43.7427 376.3997 L 50.2655 384.6942 L 57.2314 392.6756 L 64.6252 400.3048 L 72.4269 407.5434 L 80.6111 414.3543 L 89.1474 420.7031 L 98.0013 426.5595 L 107.1356 431.8991 L 116.5081 436.7011 L 126.0761 440.9521 L 135.7977 444.6458 L 145.6294 447.7810 L 155.5317 450.3636 L 165.4668 452.4042 L 175.4007 453.9184 L 195.1492 455.4464 L 214.5868 455.1275 L 233.5876 453.1590 L 237.3280 452.5846 L 252.0700 449.6647 L 269.9460 444.6474 L 287.1354 438.2113 L 303.5662 430.4567 L 319.1737 421.4762 L 333.8939 411.3589 L 347.6661 400.1918 L 360.4326 388.0623 L 372.1390 375.0607 L 382.7366 361.2812 L 392.1850 346.8211 L 400.4535 331.7804 L 407.5220 316.2610 L 378.9003 301.9502 L 368.9572 313.1328 L 358.2523 323.2372 L 346.9250 332.2093 L 335.1185 340.0183 L 322.9762 346.6563 L 310.6387 352.1361 L 298.2401 356.4901 L 285.9062 359.7668 L 273.7527 362.0291 L 261.8842 363.3517 L 250.3901 363.8202 L 239.3430 363.5291 L 230.8610 362.8173 L 228.7916 362.5746 L 218.7635 360.8782 L 209.3143 358.4117 L 200.4907 355.2284 L 196.3208 353.3850 L 192.3119 351.3817 L 188.4615 349.2236 L 184.7651 346.9142 L 181.2165 344.4554 L 177.8093 341.8476 L 174.5354 339.0889 L 171.3874 336.1759 L 168.3593 333.1046 L 165.4447 329.8691 L 162.6398 326.4637 L 159.9421 322.8832 L 157.3507 319.1228 L 154.8663 315.1792 L 152.4908 311.0502 L 150.2270 306.7352 L 148.0785 302.2361 L 146.0496 297.5565 L 142.3637 287.6715 L 139.1966 277.1297 L 136.5686 265.9953 L 134.8614 256.7057 L 134.4286 254.3439 L 132.4490 242.2681 L 130.7890 229.7681 L 129.4642 216.8862 L 128.4875 203.6568 L 127.9348 191.4893 L 127.9321 179.2920 L 128.5304 167.3337 L 129.7930 155.6573 L 131.7813 144.3118 L 134.5515 133.3576 L 138.1537 122.8648 L 142.6278 112.9155 L 148.0020 103.6010 L 154.2859 95.0268 L 161.4644 87.3114 L 169.4916 80.5832 L 178.2820 74.9775 L 187.7070 70.6281 L 197.5925 67.6568 L 202.6930 67.0357 L 207.8121 67.0323 L 212.8732 67.6196 L 217.8051 68.7628 L 222.5431 70.4199 L 227.0295 72.5424 L 231.2146 75.0764 L 235.0579 77.9631 L 238.5290 81.1410 L 241.6086 84.5463 L 244.2893 88.1156 L 246.5759 91.7875 L 248.4859 95.5050 L 250.0487 99.2179 L 251.3050 102.8847 L 252.3046 106.4746 L 253.1049 109.9689 L 253.7680 113.3617 L 254.3572 116.6588 L 254.4718 117.3082 L 254.9117 119.8937 L 255.4147 123.1302 L 255.8696 126.4072 L 256.2735 129.7587 L 256.6173 133.2135 L 257.0635 140.5165 L 257.0575 148.4214 L 256.4258 156.9368 L 255.0000 166.0000 L 390.0000 166.0000 L 388.1214 147.1643 L 384.6432 128.3377 L 379.4288 109.6993 L 372.3613 91.4887 L 368.1063 82.6311 L 363.3639 73.9919 L 358.1356 65.6137 L 352.4277 57.5388 L 347.5243 51.3259 L 346.2528 49.8099 L 339.6308 42.4698 L 332.5849 35.5554 L 325.1462 29.1025 L 317.3486 23.1402 L 309.2287 17.6921 L 300.8264 12.7766 L 292.1815 8.4055 L 283.3334 4.5855 L 274.3201 1.3179 L 265.1781 -1.3994 L 255.9412 -3.5724 L 246.6408 -5.2094 L 237.3054 -6.3205 L 227.9614 -6.9171 L 218.6328 -7.0111 L 209.3412 -6.6149 L 200.1065 -5.7408 L 190.9469 -4.4011 L 181.8801 -2.6079 L 163.8496 1.6119 L 146.1589 7.4422 L 128.9254 14.8997 L 112.2906 23.9793 L 96.4103 34.6429 L 81.4413 46.8144 L 67.5300 60.3771 L 54.7996 75.1823 L 43.3423 91.0615 L 33.2203 107.8324 L 24.4652 125.3161 L 17.0842 143.3422 L 11.0662 161.7576 L 6.3897 180.4199 L 3.0240 199.4109 L 0.9178 217.6693 L -0.0515 236.2708 Z" fill="black" stroke="none" fill-rule="nonzero" />
    <defs>
      <clipPath id="clip-ink">
        <use href="#ink-shape" />
      </clipPath>
    </defs>
    <path id="counter-shape" d="M 151.3335 137.7797 L 149.8357 133.1059 L 148.8473 128.2884 L 148.3777 123.3736 L 148.4316 118.4090 L 149.0084 113.4424 L 150.1025 108.5214 L 151.7034 103.6936 L 153.7958 99.0055 L 156.3593 94.5021 L 159.3694 90.2269 L 162.7971 86.2210 L 166.6094 82.5231 L 170.7694 79.1686 L 175.2373 76.1900 L 179.9699 73.6159 L 184.9217 71.4711 L 190.0449 69.7762 L 195.2903 68.5477 L 200.6073 67.7972 L 205.9448 67.5321 L 211.2512 67.7549 L 216.4756 68.4634 L 221.5676 69.6508 L 226.4781 71.3058 L 231.1599 73.4123 L 235.5679 75.9500 L 239.6596 78.8946 L 243.3957 82.2176 L 246.7401 85.8871 L 249.6606 89.8677 L 252.1291 94.1212 L 254.1219 98.6064 L 255.6197 103.2803 L 256.6082 108.0978 L 257.0777 113.0125 L 257.0238 117.9771 L 256.4471 122.9438 L 255.3529 127.8647 L 253.7520 132.6925 L 251.6597 137.3806 L 249.0961 141.8840 L 246.0860 146.1592 L 242.6583 150.1651 L 238.8461 153.8631 L 234.6860 157.2175 L 230.2181 160.1961 L 225.4855 162.7702 L 220.5338 164.9151 L 215.4105 166.6099 L 210.1651 167.8385 L 204.8481 168.5889 L 199.5107 168.8540 L 194.2042 168.6313 L 188.9798 167.9227 L 183.8879 166.7353 L 178.9773 165.0804 L 174.2955 162.9739 L 169.8875 160.4361 L 165.7958 157.4915 L 162.0598 154.1685 L 158.7154 150.4990 L 155.7948 146.5184 L 153.3263 142.2650 L 151.3335 137.7797 Z" fill="white" stroke="none" clip-path="url(#clip-ink)" />
    <path id="stroke-ink-e-cross" d="M 75.0000 148.0000 L 75.0000 184.0000 L 79.7619 184.0000 L 84.5238 184.0000 L 89.2857 184.0000 L 94.0476 184.0000 L 98.8095 184.0000 L 103.5714 184.0000 L 108.3333 184.0000 L 113.0952 184.0000 L 117.8571 184.0000 L 122.6190 184.0000 L 127.3810 184.0000 L 132.1429 184.0000 L 136.9048 184.0000 L 141.6667 184.0000 L 146.4286 184.0000 L 151.1905 184.0000 L 155.9524 184.0000 L 160.7143 184.0000 L 165.4762 184.0000 L 170.2381 184.0000 L 175.0000 184.0000 L 179.7619 184.0000 L 184.5238 184.0000 L 189.2857 184.0000 L 194.0476 184.0000 L 198.8095 184.0000 L 203.5714 184.0000 L 208.3333 184.0000 L 213.0952 184.0000 L 217.8571 184.0000 L 222.6190 184.0000 L 227.3810 184.0000 L 232.1429 184.0000 L 236.9048 184.0000 L 241.6667 184.0000 L 246.4286 184.0000 L 251.1905 184.0000 L 255.9524 184.0000 L 260.7143 184.0000 L 265.4762 184.0000 L 270.2381 184.0000 L 275.0000 184.0000 L 279.7619 184.0000 L 284.5238 184.0000 L 289.2857 184.0000 L 294.0476 184.0000 L 298.8095 184.0000 L 303.5714 184.0000 L 308.3333 184.0000 L 313.0952 184.0000 L 317.8571 184.0000 L 322.6190 184.0000 L 327.3810 184.0000 L 332.1429 184.0000 L 336.9048 184.0000 L 341.6667 184.0000 L 346.4286 184.0000 L 351.1905 184.0000 L 355.9524 184.0000 L 360.7143 184.0000 L 365.4762 184.0000 L 370.2381 184.0000 L 375.0000 184.0000 L 375.0000 148.0000 L 370.2381 148.0000 L 365.4762 148.0000 L 360.7143 148.0000 L 355.9524 148.0000 L 351.1905 148.0000 L 346.4286 148.0000 L 341.6667 148.0000 L 336.9048 148.0000 L 332.1429 148.0000 L 327.3810 148.0000 L 322.6190 148.0000 L 317.8571 148.0000 L 313.0952 148.0000 L 308.3333 148.0000 L 303.5714 148.0000 L 298.8095 148.0000 L 294.0476 148.0000 L 289.2857 148.0000 L 284.5238 148.0000 L 279.7619 148.0000 L 275.0000 148.0000 L 270.2381 148.0000 L 265.4762 148.0000 L 260.7143 148.0000 L 255.9524 148.0000 L 251.1905 148.0000 L 246.4286 148.0000 L 241.6667 148.0000 L 236.9048 148.0000 L 232.1429 148.0000 L 227.3810 148.0000 L 222.6190 148.0000 L 217.8571 148.0000 L 213.0952 148.0000 L 208.3333 148.0000 L 203.5714 148.0000 L 198.8095 148.0000 L 194.0476 148.0000 L 189.2857 148.0000 L 184.5238 148.0000 L 179.7619 148.0000 L 175.0000 148.0000 L 170.2381 148.0000 L 165.4762 148.0000 L 160.7143 148.0000 L 155.9524 148.0000 L 151.1905 148.0000 L 146.4286 148.0000 L 141.6667 148.0000 L 136.9048 148.0000 L 132.1429 148.0000 L 127.3810 148.0000 L 122.6190 148.0000 L 117.8571 148.0000 L 113.0952 148.0000 L 108.3333 148.0000 L 103.5714 148.0000 L 98.8095 148.0000 L 94.0476 148.0000 L 89.2857 148.0000 L 84.5238 148.0000 L 79.7619 148.0000 L 75.0000 148.0000 Z" fill="black" stroke="none" data-stroke-id="e-cross" />
  </g>

  <g id="debug-overlays">
  <g id="debug-keyframes">
    <polygon points="384.0000,166.0000 393.6000,162.4000 393.6000,169.6000" fill="none" stroke="#d32f2f" stroke-width="1.0" vector-effect="non-scaling-stroke"/>
    <polygon points="183.1895,3.2475 177.5812,-5.3355 184.6077,-6.9067" fill="none" stroke="#d32f2f" stroke-width="1.0" vector-effect="non-scaling-stroke"/>
    <polygon points="8.5095,277.1801 -0.3910,282.2693 -1.5427,275.1620" fill="none" stroke="#d32f2f" stroke-width="1.0" vector-effect="non-scaling-stroke"/>
    <polygon points="236.8969,446.6001 241.1774,455.9166 233.9960,456.4340" fill="none" stroke="#d32f2f" stroke-width="1.0" vector-effect="non-scaling-stroke"/>
    <polygon points="402.1554,313.5777 412.3519,314.6510 409.1319,321.0909" fill="none" stroke="#d32f2f" stroke-width="1.0" vector-effect="non-scaling-stroke"/>
    <polygon points="261.0000,166.0000 251.4000,169.6000 251.4000,162.4000" fill="none" stroke="#1976d2" stroke-width="1.0" vector-effect="non-scaling-stroke"/>
    <polygon points="259.3662,113.8376 253.6175,122.3271 249.4528,116.4538" fill="none" stroke="#1976d2" stroke-width="1.0" vector-effect="non-scaling-stroke"/>
    <polygon points="196.2831,61.8014 201.8914,70.3844 194.8649,71.9556" fill="none" stroke="#1976d2" stroke-width="1.0" vector-effect="non-scaling-stroke"/>
    <polygon points="128.9386,257.6654 137.8392,252.5762 138.9909,259.6835" fill="none" stroke="#1976d2" stroke-width="1.0" vector-effect="non-scaling-stroke"/>
    <polygon points="231.2921,368.8017 227.0116,359.4852 234.1930,358.9679" fill="none" stroke="#1976d2" stroke-width="1.0" vector-effect="non-scaling-stroke"/>
    <polygon points="384.2669,304.6334 374.0704,303.5601 377.2903,297.1202" fill="none" stroke="#1976d2" stroke-width="1.0" vector-effect="non-scaling-stroke"/>
    <polygon points="368.0000,166.0000 358.4000,169.6000 358.4000,162.4000" fill="none" stroke="#388e3c" stroke-width="1.0" vector-effect="non-scaling-stroke"/>
    <polygon points="411.0997,318.0498 400.9032,316.9765 404.1232,310.5367" fill="none" stroke="#388e3c" stroke-width="1.0" vector-effect="non-scaling-stroke"/>
    <polygon points="368.0000,166.0000 358.4000,169.6000 358.4000,162.4000" fill="none" stroke="#8e24aa" stroke-width="1.0" vector-effect="non-scaling-stroke"/>
    <polygon points="411.0997,318.0498 400.9032,316.9765 404.1232,310.5367" fill="none" stroke="#8e24aa" stroke-width="1.0" vector-effect="non-scaling-stroke"/>
  </g>
  </g>
  <text x="20" y="20" font-size="14" fill="#111">example=none view=none solo=false</text>

</svg>