<svg xmlns="http://www.w3.org/2000/svg" width="1600" height="1600" viewBox="-250.0000 -250.0000 1500.0000 1500.0000">




  <g id="debug-overlays">
  <g id="debug">
    <path d="M 75.0000 165.0000 L 95.4822 165.0000 L 115.9645 165.0000 L 136.4467 165.0000 L 156.9289 165.0000 L 177.4112 165.0000 L 197.8934 165.0000 L 218.3757 165.0000 L 238.8579 165.0000 L 259.3401 165.0000 L 279.8224 165.0000 L 300.3046 165.0000 L 320.7868 165.0000 L 341.2691 165.0000 L 349.6742 153.2544 L 347.4420 132.9038 L 342.8818 112.9483 L 335.7888 93.7504 L 326.0531 75.7514 L 313.7087 59.4322 L 298.9573 45.2539 L 282.1457 33.5914 L 263.7149 24.7038 L 244.1417 18.7360 L 223.8977 15.7450 L 203.4332 15.7282 L 183.1769 18.6422 L 163.5404 24.4068 L 144.9195 32.8965 L 127.6824 43.9295 L 112.1508 57.2571 L 98.5713 72.5696 L 87.0937 89.5178 L 77.7679 107.7397 L 70.5507 126.8981 L 65.3335 146.6956 L 61.9652 166.8924 L 60.2773 187.2994 L 60.0546 207.7825 L 60.7490 228.2520 L 62.3200 248.6720 L 64.8818 268.9915 L 68.5679 289.1355 L 73.5344 309.0027 L 79.9584 328.4452 L 88.0350 347.2599 L 97.9602 365.1632 L 109.9050 381.7864 L 123.9558 396.6649 L 140.0584 409.2905 L 157.9631 419.1902 L 177.2423 426.0386 L 197.3690 429.7240 L 217.8240 430.3381 L 238.1690 428.1051 L 258.0678 423.3042 L 277.2722 416.2146 L 295.5986 407.0881 L 312.9015 396.1431 L 329.0580 383.5665 L 343.9550 369.5205 L 357.4833 354.1513 L 369.5340 337.5982 L 380.0000 320.0000" fill="none" stroke="orange" stroke-width="0.8" />
    <line x1="166.6667" y1="165.0000" x2="156.9289" y2="165.0000" stroke="#cccccc" stroke-width="0.5"/>
    <line x1="258.3333" y1="165.0000" x2="259.3401" y2="165.0000" stroke="#cccccc" stroke-width="0.5"/>
    <line x1="350.0000" y1="-40.0000" x2="298.9573" y2="45.2539" stroke="#cccccc" stroke-width="0.5"/>
    <line x1="60.0000" y1="-40.0000" x2="127.6824" y2="43.9295" stroke="#cccccc" stroke-width="0.5"/>
    <line x1="60.0000" y1="500.0000" x2="140.0584" y2="409.2905" stroke="#cccccc" stroke-width="0.5"/>
    <line x1="300.0000" y1="470.0000" x2="277.2722" y2="416.2146" stroke="#cccccc" stroke-width="0.5"/>
    <circle cx="166.6667" cy="165.0000" r="2.0" fill="red" stroke="none"/>
    <circle cx="258.3333" cy="165.0000" r="2.0" fill="red" stroke="none"/>
    <circle cx="350.0000" cy="-40.0000" r="2.0" fill="red" stroke="none"/>
    <circle cx="60.0000" cy="-40.0000" r="2.0" fill="red" stroke="none"/>
    <circle cx="60.0000" cy="500.0000" r="2.0" fill="red" stroke="none"/>
    <circle cx="300.0000" cy="470.0000" r="2.0" fill="red" stroke="none"/>
  </g>
  </g>


</svg>