<svg xmlns="http://www.w3.org/2000/svg" width="1600" height="1600" viewBox="-250.0000 -250.0000 1500.0000 1500.0000">




  <g id="debug-overlays">
  <g id="debug">
    <path d="M 340.0000 182.0000 L 340.2138 165.7054 L 339.3112 149.4387 L 337.1706 133.2874 L 333.6683 117.3776 L 328.6866 101.8681 L 322.1283 86.9594 L 313.9313 72.8845 L 304.0916 59.9076 L 292.6731 48.2967 L 279.8155 38.3043 L 265.7251 30.1416 L 250.6582 23.9644 L 234.8979 19.8668 L 218.7340 17.8862 L 202.4492 18.0124 L 186.3106 20.1964 L 170.5646 24.3580 L 155.4362 30.3892 L 141.1213 38.1586 L 127.7872 47.5126 L 115.5663 58.2808 L 104.5522 70.2830 L 94.8030 83.3326 L 86.3376 97.2517 L 79.1464 111.8689 L 73.1921 127.0345 L 68.4214 142.6126 L 64.7683 158.4907 L 62.1605 174.5743 L 60.5239 190.7861 L 59.7984 207.0688 L 59.8117 223.3647 L 60.5415 239.6417 L 62.0548 255.8655 L 64.4242 271.9860 L 67.7281 287.9435 L 72.0453 303.6525 L 77.4576 319.0203 L 84.0394 333.9248 L 91.8511 348.2204 L 100.9333 361.7442 L 111.2925 374.3149 L 122.8956 385.7479 L 135.6612 395.8643 L 149.4647 404.5107 L 164.1439 411.5690 L 179.5127 416.9641 L 195.3756 420.6639 L 211.5402 422.6742 L 227.8259 423.0296 L 244.0685 421.7852 L 260.1205 419.0081 L 275.8513 414.7727 L 291.1441 409.1563 L 305.8935 402.2384 L 320.0064 394.0986 L 333.3968 384.8189 L 345.9894 374.4819 L 357.7172 363.1729 L 368.5230 350.9796 L 378.3604 337.9917 L 387.1934 324.3018 L 395.0000 310.0000" fill="none" stroke="orange" stroke-width="0.8" />
    <line x1="350.0000" y1="-40.0000" x2="279.8155" y2="38.3043" stroke="#cccccc" stroke-width="0.5"/>
    <line x1="70.0000" y1="-40.0000" x2="127.7872" y2="47.5126" stroke="#cccccc" stroke-width="0.5"/>
    <line x1="50.0000" y1="470.0000" x2="122.8956" y2="385.7479" stroke="#cccccc" stroke-width="0.5"/>
    <line x1="310.0000" y1="480.0000" x2="291.1441" y2="409.1563" stroke="#cccccc" stroke-width="0.5"/>
    <circle cx="350.0000" cy="-40.0000" r="2.0" fill="red" stroke="none"/>
    <circle cx="70.0000" cy="-40.0000" r="2.0" fill="red" stroke="none"/>
    <circle cx="50.0000" cy="470.0000" r="2.0" fill="red" stroke="none"/>
    <circle cx="310.0000" cy="480.0000" r="2.0" fill="red" stroke="none"/>
  </g>
  <g id="debug-cap-fillet">
        <g id="debug-cap-fillet-start-left">
      <circle cx="389.9494" cy="184.2500" r="3.0" fill="#ff1744" stroke="none"/>
      <path d="M 390.7756 194.2158 A 10.00 10.00 0 0 1 379.9595 183.8000" fill="none" stroke="#2e7d32" stroke-width="2.4" opacity="1.00"/>
      <path d="M 389.5859 179.8661 L 389.5096 179.9158 L 389.4218 179.9793 L 389.3232 180.0558 L 389.2149 180.1445 L 389.0975 180.2444 L 388.9719 180.3548 L 388.8389 180.4747 L 388.6995 180.6033 L 388.5543 180.7398 L 388.4042 180.8832 L 388.2501 181.0327 L 388.0929 181.1874 L 387.9332 181.3465 L 387.7720 181.5092 L 387.6101 181.6744 L 387.4483 181.8415 L 387.2875 182.0095 L 387.1284 182.1775 L 386.9720 182.3447 L 386.8190 182.5102 L 386.6703 182.6733 L 386.5267 182.8329 L 386.3890 182.9882 L 386.2582 183.1384 L 386.1349 183.2827 L 386.0201 183.4200 L 385.9145 183.5497 L 385.8191 183.6708 L 385.7346 183.7824 L 385.6618 183.8837 L 385.6016 183.9739 L 385.5549 184.0520" fill="none" stroke="#ff6f00" stroke-width="1.6" />
      <circle cx="389.5859" cy="179.8661" r="3.0" fill="#00c853" stroke="none"/>
      <circle cx="385.5549" cy="184.0520" r="3.0" fill="#00c853" stroke="none"/>
      <line x1="389.5859" y1="179.8661" x2="385.5549" y2="184.0520" stroke="#1565c0" stroke-width="1.6"/>
      <text x="391.5704" y="177.9591" font-size="8" fill="#1565c0">P→Q</text>
      <text x="395.9494" y="178.2500" font-size="8" fill="#2e7d32">FILLET MARKER start LEFT</text>
    </g>
        <g id="debug-cap-fillet-end-left">
      <circle cx="407.5220" cy="316.2610" r="3.0" fill="#ff1744" stroke="none"/>
      <path d="M 411.6709 307.1623 A 10.00 10.00 0 0 0 398.5777 311.7889" fill="none" stroke="#2e7d32" stroke-width="2.4" opacity="1.00"/>
      <path d="M 405.3718 320.9763 L 405.3014 320.8811 L 405.2254 320.7632 L 405.1443 320.6242 L 405.0586 320.4655 L 404.9688 320.2886 L 404.8755 320.0948 L 404.7791 319.8858 L 404.6802 319.6628 L 404.5792 319.4275 L 404.4768 319.1812 L 404.3734 318.9254 L 404.2695 318.6616 L 404.1656 318.3912 L 404.0623 318.1157 L 403.9601 317.8365 L 403.8595 317.5551 L 403.7610 317.2730 L 403.6651 316.9916 L 403.5724 316.7124 L 403.4833 316.4367 L 403.3984 316.1662 L 403.3181 315.9023 L 403.2431 315.6463 L 403.1738 315.3998 L 403.1107 315.1642 L 403.0543 314.9410 L 403.0052 314.7316 L 402.9639 314.5375 L 402.9309 314.3602 L 402.9067 314.2011 L 402.8918 314.0617 L 402.8867 313.9434" fill="none" stroke="#ff6f00" stroke-width="1.6" />
      <circle cx="405.3718" cy="320.9763" r="3.0" fill="#00c853" stroke="none"/>
      <circle cx="402.8867" cy="313.9434" r="3.0" fill="#00c853" stroke="none"/>
      <line x1="405.3718" y1="320.9763" x2="402.8867" y2="313.9434" stroke="#1565c0" stroke-width="1.6"/>
      <text x="408.1293" y="313.4598" font-size="8" fill="#1565c0">P→Q</text>
      <text x="413.5220" y="310.2610" font-size="8" fill="#2e7d32">FILLET MARKER end LEFT</text>
    </g>
        <g id="debug-cap-fillet-end-right">
      <circle cx="378.9003" cy="301.9502" r="3.0" fill="#ff1744" stroke="none"/>
      <path d="M 369.9560 297.4780 A 10.00 10.00 0 0 0 372.2612 309.4283" fill="none" stroke="#2e7d32" stroke-width="2.4" opacity="1.00"/>
      <path d="M 384.7321 304.8660 L 384.5969 304.9581 L 384.4280 305.0523 L 384.2276 305.1484 L 383.9979 305.2459 L 383.7410 305.3444 L 383.4592 305.4435 L 383.1547 305.5426 L 382.8297 305.6415 L 382.4863 305.7396 L 382.1267 305.8367 L 381.7532 305.9321 L 381.3679 306.0256 L 380.9731 306.1166 L 380.5709 306.2048 L 380.1635 306.2898 L 379.7531 306.3711 L 379.3419 306.4483 L 378.9322 306.5209 L 378.5260 306.5887 L 378.1256 306.6510 L 377.7332 306.7075 L 377.3510 306.7579 L 376.9812 306.8016 L 376.6259 306.8382 L 376.2874 306.8673 L 375.9678 306.8885 L 375.6694 306.9014 L 375.3944 306.9055 L 375.1449 306.9005 L 374.9231 306.8858 L 374.7312 306.8611 L 374.5715 306.8260" fill="none" stroke="#ff6f00" stroke-width="1.6" />
      <circle cx="384.7321" cy="304.8660" r="3.0" fill="#00c853" stroke="none"/>
      <circle cx="374.5715" cy="306.8260" r="3.0" fill="#00c853" stroke="none"/>
      <line x1="384.7321" y1="304.8660" x2="374.5715" y2="306.8260" stroke="#1565c0" stroke-width="1.6"/>
      <text x="383.6518" y="301.8460" font-size="8" fill="#1565c0">P→Q</text>
      <text x="384.9003" y="295.9502" font-size="8" fill="#2e7d32">FILLET MARKER end RIGHT</text>
    </g>
  </g>
  </g>


</svg>