<svg xmlns="http://www.w3.org/2000/svg" width="1600" height="1600" viewBox="-250.0000 -250.0000 1500.0000 1500.0000">

  <g id="reference-fill" opacity="0.2500" transform="matrix(1.000000 0.000000 -0.000000 1.000000 0.000000 0.000000)">

    <g transform="matrix(1,0,0,1,-30,14)">
        <path d="M160,171L389,171C411,171 420,170 420,157C420,141 411,-14 249,-14C172,-14 111,15 75,68C30,134 30,187 30,215C31,293 48,332 99,387C132,423 185,434 249,434C343,434 408,365 426,328C435,311 432,306 428,304L411,295C407,292 403,293 401,298C381,330 341,353 292,353C219,353 160,302 160,198L160,171ZM257,133L161,133C168,63 193,26 240,26C271,26 289,69 289,113C289,128 279,133 257,133Z" style="fill-rule:nonzero;"/>
    </g>

  </g>
  <g id="stroke-ink">
    <path id="ink-compound" d="M -0.0992 233.8969 L 0.0691 252.8450 L 1.7082 272.0240 L 2.2276 275.8767 L 5.1528 291.2837 L 10.3444 310.4930 L 17.3013 329.4947 L 26.0771 348.0857 L 31.1587 357.1543 L 36.7037 366.0257 L 42.7119 374.6675 L 49.1767 383.0403 L 56.0881 391.1050 L 63.4319 398.8223 L 71.1888 406.1534 L 79.3341 413.0606 L 87.8385 419.5089 L 96.6691 425.4681 L 105.7865 430.9105 L 115.1499 435.8152 L 124.7177 440.1684 L 134.4456 443.9616 L 144.2913 447.1933 L 154.2140 449.8683 L 164.1753 451.9967 L 174.1407 453.5934 L 193.9643 455.2696 L 213.4889 455.0757 L 232.5836 453.2095 L 236.3436 452.6531 L 251.1641 449.7965 L 269.1399 444.8407 L 286.4279 438.4485 L 302.9562 430.7213 L 318.6569 421.7539 L 333.4666 411.6358 L 347.3228 400.4558 L 360.1665 388.3026 L 371.9429 375.2676 L 382.6025 361.4463 L 392.1046 346.9366 L 400.4178 331.8406 L 405.3718 320.9763 L 405.7866 319.9713 L 405.9706 318.9360 L 405.9357 317.9035 L 405.6936 316.9071 L 405.2559 315.9797 L 404.6344 315.1545 L 403.8408 314.4647 L 402.8867 313.9434 L 384.7321 304.8660 L 383.6237 303.7679 L 382.2373 303.0982 L 380.6888 302.8346 L 379.0941 302.9548 L 377.5691 303.4364 L 376.2298 304.2570 L 375.1919 305.3943 L 374.5715 306.8260 L 368.9271 313.1837 L 358.1862 323.3323 L 346.8178 332.3411 L 334.9665 340.1786 L 322.7764 346.8367 L 310.3893 352.3279 L 297.9404 356.6843 L 285.5568 359.9545 L 273.3559 362.2012 L 261.4429 363.4997 L 249.9093 363.9355 L 238.8279 363.6040 L 230.3231 362.8547 L 228.2486 362.6020 L 218.2007 360.8517 L 208.7401 358.3260 L 199.9132 355.0795 L 195.7442 353.2030 L 191.7377 351.1658 L 187.8907 348.9729 L 184.1987 346.6276 L 180.6554 344.1317 L 177.2535 341.4851 L 173.9858 338.6862 L 170.8444 335.7311 L 167.8227 332.6151 L 164.9158 329.3332 L 162.1192 325.8793 L 159.4308 322.2480 L 156.8500 318.4349 L 154.3775 314.4367 L 152.0156 310.2516 L 149.7673 305.8798 L 147.6366 301.3238 L 145.6266 296.5854 L 141.9849 286.5844 L 138.8690 275.9289 L 136.2980 264.6839 L 134.6397 255.3088 L 134.2197 252.9267 L 132.3051 240.7465 L 130.7132 228.1490 L 129.4585 215.1697 L 128.5423 202.2127 L 128.0955 189.7965 L 128.1939 177.5922 L 128.9020 165.6364 L 130.2824 153.9756 L 132.3952 142.6629 L 135.2952 131.7633 L 139.0284 121.3550 L 143.6317 111.5249 L 149.1257 102.3748 L 155.5122 94.0178 L 162.7645 86.5814 L 170.8230 80.2014 L 179.5848 75.0192 L 188.9007 71.1707 L 198.5731 68.7751 L 203.5023 68.4695 L 208.3967 68.7948 L 213.1760 69.7180 L 217.7667 71.1971 L 222.1033 73.1822 L 226.1303 75.6167 L 229.8028 78.4386 L 233.0884 81.5826 L 235.9679 84.9819 L 238.4359 88.5707 L 240.5008 92.2870 L 242.1845 96.0748 L 243.5208 99.8867 L 244.5535 103.6858 L 245.3340 107.4460 L 245.9186 111.1537 L 246.3660 114.8064 L 246.7343 118.4117 L 247.0796 121.9856 L 247.1506 122.6986 L 247.4287 125.5642 L 247.7493 129.2042 L 248.0332 132.9364 L 248.4374 140.7663 L 248.5048 149.1702 L 248.0744 158.1702 L 246.9867 167.7191 L 245.0962 177.7251 L 385.5549 184.0520 L 386.2913 183.8343 L 386.9845 183.5051 L 387.6230 183.0765 L 388.1951 182.5606 L 388.6890 181.9695 L 389.0933 181.3153 L 389.3961 180.6102 L 389.5859 179.8661 L 388.3576 165.0521 L 385.2887 145.8084 L 380.6264 126.6593 L 374.2550 107.7938 L 366.0750 89.4529 L 361.2838 80.5656 L 356.0198 71.9201 L 351.4692 65.2068 L 350.2848 63.5596 L 344.0860 55.5283 L 337.4357 47.8693 L 330.3528 40.6252 L 322.8629 33.8371 L 314.9966 27.5411 L 306.7888 21.7676 L 298.2796 16.5428 L 289.5102 11.8847 L 280.5230 7.8049 L 271.3599 4.3086 L 262.0615 1.3952 L 252.6658 -0.9411 L 243.2079 -2.7100 L 233.7193 -3.9245 L 224.2282 -4.5994 L 214.7591 -4.7512 L 205.3336 -4.3967 L 195.9702 -3.5529 L 186.6850 -2.2366 L 168.2931 1.3815 L 150.2600 6.7186 L 132.7018 13.7680 L 115.7561 22.5070 L 99.5741 32.8838 L 84.3071 44.8137 L 70.0984 58.1743 L 57.0678 72.8158 L 45.3093 88.5656 L 34.8848 105.2458 L 25.8310 122.6738 L 18.1595 140.6793 L 11.8646 159.1068 L 6.9305 177.8104 L 3.3339 196.6599 L 1.0359 215.2541 L -0.0992 233.8969 Z M 141.6076 97.9721 L 144.9422 90.8692 L 148.7764 84.0608 L 153.0734 77.6126 L 157.7916 71.5866 L 162.8857 66.0408 L 168.3067 61.0286 L 174.0023 56.5984 L 179.9177 52.7928 L 185.9958 49.6484 L 192.1782 47.1955 L 198.4054 45.4577 L 204.6172 44.4519 L 210.7541 44.1876 L 216.7567 44.6674 L 222.5674 45.8867 L 228.1301 47.8337 L 233.3913 50.4898 L 238.3004 53.8292 L 242.8099 57.8199 L 246.8766 62.4234 L 250.4612 67.5955 L 253.5293 73.2862 L 256.0512 79.4407 L 258.0028 85.9999 L 259.3651 92.9005 L 260.1251 100.0761 L 260.2755 107.4575 L 259.8147 114.9738 L 258.7474 122.5524 L 257.0836 130.1205 L 254.8395 137.6050 L 252.0366 144.9341 L 248.7021 152.0370 L 244.8678 158.8453 L 240.5709 165.2936 L 235.8526 171.3196 L 230.7585 176.8654 L 225.3375 181.8775 L 219.6420 186.3078 L 213.7266 190.1134 L 207.6484 193.2578 L 201.4660 195.7107 L 195.2389 197.4484 L 189.0270 198.4543 L 182.8902 198.7186 L 176.8875 198.2388 L 171.0769 197.0195 L 165.5141 195.0724 L 160.2529 192.4164 L 155.3439 189.0769 L 150.8343 185.0862 L 146.7676 180.4827 L 143.1830 175.3107 L 140.1149 169.6200 L 137.5930 163.4654 L 135.6415 156.9063 L 134.2791 150.0057 L 133.5191 142.8301 L 133.3688 135.4486 L 133.8295 127.9324 L 134.8969 120.3537 L 136.5607 112.7857 L 138.8048 105.3011 L 141.6076 97.9721 Z" fill="black" stroke="none" fill-rule="nonzero" />
    <path id="stroke-ink-e-cross" d="M 75.0000 148.0000 L 75.0000 184.0000 L 79.7619 184.0000 L 84.5238 184.0000 L 89.2857 184.0000 L 94.0476 184.0000 L 98.8095 184.0000 L 103.5714 184.0000 L 108.3333 184.0000 L 113.0952 184.0000 L 117.8571 184.0000 L 122.6190 184.0000 L 127.3810 184.0000 L 132.1429 184.0000 L 136.9048 184.0000 L 141.6667 184.0000 L 146.4286 184.0000 L 151.1905 184.0000 L 155.9524 184.0000 L 160.7143 184.0000 L 165.4762 184.0000 L 170.2381 184.0000 L 175.0000 184.0000 L 179.7619 184.0000 L 184.5238 184.0000 L 189.2857 184.0000 L 194.0476 184.0000 L 198.8095 184.0000 L 203.5714 184.0000 L 208.3333 184.0000 L 213.0952 184.0000 L 217.8571 184.0000 L 222.6190 184.0000 L 227.3810 184.0000 L 232.1429 184.0000 L 236.9048 184.0000 L 241.6667 184.0000 L 246.4286 184.0000 L 251.1905 184.0000 L 255.9524 184.0000 L 260.7143 184.0000 L 265.4762 184.0000 L 270.2381 184.0000 L 275.0000 184.0000 L 279.7619 184.0000 L 284.5238 184.0000 L 289.2857 184.0000 L 294.0476 184.0000 L 298.8095 184.0000 L 303.5714 184.0000 L 308.3333 184.0000 L 313.0952 184.0000 L 317.8571 184.0000 L 322.6190 184.0000 L 327.3810 184.0000 L 332.1429 184.0000 L 336.9048 184.0000 L 341.6667 184.0000 L 346.4286 184.0000 L 351.1905 184.0000 L 355.9524 184.0000 L 360.7143 184.0000 L 365.4762 184.0000 L 370.2381 184.0000 L 375.0000 184.0000 L 375.0000 148.0000 L 370.2381 148.0000 L 365.4762 148.0000 L 360.7143 148.0000 L 355.9524 148.0000 L 351.1905 148.0000 L 346.4286 148.0000 L 341.6667 148.0000 L 336.9048 148.0000 L 332.1429 148.0000 L 327.3810 148.0000 L 322.6190 148.0000 L 317.8571 148.0000 L 313.0952 148.0000 L 308.3333 148.0000 L 303.5714 148.0000 L 298.8095 148.0000 L 294.0476 148.0000 L 289.2857 148.0000 L 284.5238 148.0000 L 279.7619 148.0000 L 275.0000 148.0000 L 270.2381 148.0000 L 265.4762 148.0000 L 260.7143 148.0000 L 255.9524 148.0000 L 251.1905 148.0000 L 246.4286 148.0000 L 241.6667 148.0000 L 236.9048 148.0000 L 232.1429 148.0000 L 227.3810 148.0000 L 222.6190 148.0000 L 217.8571 148.0000 L 213.0952 148.0000 L 208.3333 148.0000 L 203.5714 148.0000 L 198.8095 148.0000 L 194.0476 148.0000 L 189.2857 148.0000 L 184.5238 148.0000 L 179.7619 148.0000 L 175.0000 148.0000 L 170.2381 148.0000 L 165.4762 148.0000 L 160.7143 148.0000 L 155.9524 148.0000 L 151.1905 148.0000 L 146.4286 148.0000 L 141.6667 148.0000 L 136.9048 148.0000 L 132.1429 148.0000 L 127.3810 148.0000 L 122.6190 148.0000 L 117.8571 148.0000 L 113.0952 148.0000 L 108.3333 148.0000 L 103.5714 148.0000 L 98.8095 148.0000 L 94.0476 148.0000 L 89.2857 148.0000 L 84.5238 148.0000 L 79.7619 148.0000 L 75.0000 148.0000 Z" fill="black" stroke="none" data-stroke-id="e-cross" />
  </g>
  <g id="reference-outline" transform="matrix(1.000000 0.000000 -0.000000 1.000000 0.000000 0.000000)" style="fill:none;stroke:#ff66cc;stroke-width:1;vector-effect:non-scaling-stroke">

    <g transform="matrix(1,0,0,1,-30,14)">
        <path d="M160,171L389,171C411,171 420,170 420,157C420,141 411,-14 249,-14C172,-14 111,15 75,68C30,134 30,187 30,215C31,293 48,332 99,387C132,423 185,434 249,434C343,434 408,365 426,328C435,311 432,306 428,304L411,295C407,292 403,293 401,298C381,330 341,353 292,353C219,353 160,302 160,198L160,171ZM257,133L161,133C168,63 193,26 240,26C271,26 289,69 289,113C289,128 279,133 257,133Z" style="fill-rule:nonzero;"/>
    </g>

  </g>
  <g id="debug-overlays">
  <g id="debug-cap-boundary">
    <path d="M 388.3576 165.0521 L 389.9494 184.2500 L 245.0962 177.7251 L 246.9867 167.7191" fill="none" stroke="#455a64" stroke-width="1.0" />
    <circle cx="388.3576" cy="165.0521" r="2.0" fill="#78909c" stroke="none"/>
    <circle cx="389.9494" cy="184.2500" r="3.0" fill="#d32f2f" stroke="none"/>
    <text x="393.9494" y="180.2500" font-size="8" fill="#d32f2f">start i=1 θ=97.3</text>
    <circle cx="245.0962" cy="177.7251" r="3.0" fill="#d32f2f" stroke="none"/>
    <text x="249.0962" y="173.7251" font-size="8" fill="#d32f2f">start i=2 θ=98.1</text>
    <circle cx="246.9867" cy="167.7191" r="2.0" fill="#78909c" stroke="none"/>
    <circle cx="389.5859" cy="179.8661" r="2.4" fill="#1e88e5" stroke="none"/>
    <circle cx="385.5549" cy="184.0520" r="2.4" fill="#1e88e5" stroke="none"/>
    <circle cx="389.5859" cy="179.8661" r="1.5" fill="#43a047" stroke="none"/>
    <circle cx="389.3961" cy="180.6102" r="1.5" fill="#43a047" stroke="none"/>
    <circle cx="389.0933" cy="181.3153" r="1.5" fill="#43a047" stroke="none"/>
    <circle cx="388.6890" cy="181.9695" r="1.5" fill="#43a047" stroke="none"/>
    <circle cx="388.1951" cy="182.5606" r="1.5" fill="#43a047" stroke="none"/>
    <circle cx="387.6230" cy="183.0765" r="1.5" fill="#43a047" stroke="none"/>
    <circle cx="386.9845" cy="183.5051" r="1.5" fill="#43a047" stroke="none"/>
    <circle cx="386.2913" cy="183.8343" r="1.5" fill="#43a047" stroke="none"/>
    <circle cx="385.5549" cy="184.0520" r="1.5" fill="#43a047" stroke="none"/>
    <path d="M 400.4178 331.8406 L 407.5220 316.2610 L 378.9003 301.9502 L 368.9271 313.1837" fill="none" stroke="#455a64" stroke-width="1.0" />
    <circle cx="400.4178" cy="331.8406" r="2.0" fill="#78909c" stroke="none"/>
    <circle cx="407.5220" cy="316.2610" r="3.0" fill="#d32f2f" stroke="none"/>
    <text x="411.5220" y="312.2610" font-size="8" fill="#d32f2f">end i=1 θ=-87.9</text>
    <circle cx="378.9003" cy="301.9502" r="3.0" fill="#d32f2f" stroke="none"/>
    <text x="382.9003" y="297.9502" font-size="8" fill="#d32f2f">end i=2 θ=-75.0</text>
    <circle cx="368.9271" cy="313.1837" r="2.0" fill="#78909c" stroke="none"/>
    <circle cx="405.3718" cy="320.9763" r="2.4" fill="#1e88e5" stroke="none"/>
    <circle cx="402.8867" cy="313.9434" r="2.4" fill="#1e88e5" stroke="none"/>
    <circle cx="384.7321" cy="304.8660" r="2.4" fill="#1e88e5" stroke="none"/>
    <circle cx="374.5715" cy="306.8260" r="2.4" fill="#1e88e5" stroke="none"/>
    <circle cx="405.3718" cy="320.9763" r="1.5" fill="#43a047" stroke="none"/>
    <circle cx="405.7866" cy="319.9713" r="1.5" fill="#43a047" stroke="none"/>
    <circle cx="405.9706" cy="318.9360" r="1.5" fill="#43a047" stroke="none"/>
    <circle cx="405.9357" cy="317.9035" r="1.5" fill="#43a047" stroke="none"/>
    <circle cx="405.6936" cy="316.9071" r="1.5" fill="#43a047" stroke="none"/>
    <circle cx="405.2559" cy="315.9797" r="1.5" fill="#43a047" stroke="none"/>
    <circle cx="404.6344" cy="315.1545" r="1.5" fill="#43a047" stroke="none"/>
    <circle cx="403.8408" cy="314.4647" r="1.5" fill="#43a047" stroke="none"/>
    <circle cx="402.8867" cy="313.9434" r="1.5" fill="#43a047" stroke="none"/>
    <circle cx="384.7321" cy="304.8660" r="1.5" fill="#43a047" stroke="none"/>
    <circle cx="383.6237" cy="303.7679" r="1.5" fill="#43a047" stroke="none"/>
    <circle cx="382.2373" cy="303.0982" r="1.5" fill="#43a047" stroke="none"/>
    <circle cx="380.6888" cy="302.8346" r="1.5" fill="#43a047" stroke="none"/>
    <circle cx="379.0941" cy="302.9548" r="1.5" fill="#43a047" stroke="none"/>
    <circle cx="377.5691" cy="303.4364" r="1.5" fill="#43a047" stroke="none"/>
    <circle cx="376.2298" cy="304.2570" r="1.5" fill="#43a047" stroke="none"/>
    <circle cx="375.1919" cy="305.3943" r="1.5" fill="#43a047" stroke="none"/>
    <circle cx="374.5715" cy="306.8260" r="1.5" fill="#43a047" stroke="none"/>
  </g>
  </g>
  <text x="20" y="20" font-size="14" fill="#111">example=none view=compare solo=false</text>
  <g id="debug-legend">
    <text x="20" y="40" font-size="12" fill="#111">reference fill</text>
    <text x="20" y="56" font-size="12" fill="#ff66cc">reference outline</text>
    <text x="20" y="72" font-size="12" fill="#111">ink fill</text>
  </g>
</svg>