<svg xmlns="http://www.w3.org/2000/svg" viewBox="-27.9989 -20.0294 85.1208 140.5063">
  <path d="M -17.9989 96.9624 L -17.9872 92.7299 L -17.1223 101.2708 L -3.2769 110.4768 L -5.0000 110.0000 L -5.0000 90.0000 L -5.6858 88.2463 L 4.3522 95.0383 L 1.7730 89.6421 L 3.4860 90.7657 L 4.4685 90.4057 L 6.4612 88.0123 L 11.2474 81.5646 L 16.5692 74.6168 L 21.6158 68.0969 L 38.1714 44.3260 L 38.1842 44.3763 L 46.2845 25.3883 L 47.1217 19.5134 L 46.6884 12.8873 L 47.1220 15.3039 L 38.9114 -0.4561 L 40.6536 1.2969 L 35.4826 -2.8605 L 20.6082 -8.4308 L 24.9657 -7.3333 L 4.8552 -10.0294 L -5.0000 -10.0000 L -5.0000 10.0000 L 3.3587 9.9145 L 11.2512 10.3278 L 14.8613 10.7257 L 18.0881 11.1905 L 20.7889 11.5630 L 22.9958 11.6556 L 25.0246 11.8822 L 26.6917 13.2547 L 27.4616 15.8421 L 27.2991 19.0991 L 25.0393 26.2873 L 21.2749 33.6251 L 11.6052 48.1022 L -5.4136 70.5231 L -10.8648 78.2400 L -15.8813 87.1121 L -14.3212 83.5539 L -17.9989 96.9624 Z" fill="none" stroke="black" stroke-width="1" />

</svg>