<svg xmlns="http://www.w3.org/2000/svg" viewBox="-27.9021 -20.0779 85.1159 140.0779">
  <path d="M -17.9021 92.2729 L -16.0255 86.7943 L -14.1541 83.2649 L -16.8224 89.4865 L -10.8566 78.0643 L -9.3145 75.8297 L -7.8035 73.7119 L -6.3133 71.6741 L -10.6104 77.8560 L -3.3692 67.7497 L -1.9115 65.8393 L -0.4616 63.9520 L 0.9800 62.0831 L -3.6561 68.1758 L 3.8359 58.3839 L 5.2486 56.5476 L 6.6495 54.7170 L 8.0371 52.8905 L 9.4100 51.0660 L 4.7476 57.2280 L 12.1047 47.4179 L 13.4223 45.5919 L 8.8409 51.8547 L 15.9855 41.9307 L 17.2251 40.0940 L 18.4318 38.2525 L 19.6014 36.4056 L 20.7290 34.5531 L 16.5295 41.1888 L 22.8322 30.8335 L 23.7923 28.9683 L 19.9644 35.9220 L 25.4772 25.2407 L 26.1740 23.3883 L 26.7493 21.5560 L 27.1803 19.7590 L 27.4392 18.0207 L 27.4951 16.3771 L 27.3164 14.8787 L 26.8810 13.5975 L 26.1924 12.6148 L 27.9034 21.6471 L 24.2954 11.7133 L 23.2576 11.6558 L 29.1641 18.8222 L 28.9667 17.7033 L 28.3624 16.5825 L 18.3691 11.2334 L 16.8128 10.9979 L 24.6842 13.7207 L 13.3519 10.5419 L 11.4884 10.3496 L 9.5578 10.1896 L 7.5763 10.0642 L 15.4972 10.9876 L 3.4887 9.9169 L 11.3835 10.4329 L -0.7166 9.8999 L 7.1481 10.0980 L -5.0000 10.0000 L -5.0000 -10.0000 L -2.5270 -10.0612 L 9.9592 -9.7477 L 2.4781 -10.0779 L 5.0146 -10.0248 L 7.5769 -9.9233 L 10.1756 -9.7661 L 12.8101 -9.5442 L 15.4958 -9.2448 L 18.2386 -8.8519 L 21.0510 -8.3428 L 23.9527 -7.6842 L 26.9532 -6.8307 L 30.0674 -5.7131 L 41.1966 1.8784 L 36.5362 -2.2882 L 45.3851 8.4350 L 42.4427 3.3063 L 47.2138 16.4406 L 47.1705 20.3556 L 46.8771 13.9884 L 45.9021 27.3114 L 47.0460 20.5914 L 46.6462 23.5970 L 46.0340 26.4325 L 41.4796 38.3792 L 40.2190 40.7876 L 43.3812 34.1539 L 42.3168 36.5304 L 36.2587 47.5314 L 34.8953 49.6612 L 38.7947 43.2530 L 37.5402 45.3874 L 30.7185 55.8069 L 34.9458 49.5347 L 33.6145 51.5565 L 32.2649 53.5489 L 30.8999 55.5150 L 23.5895 65.5074 L 28.1343 59.3784 L 26.7381 61.2801 L 25.3359 63.1642 L 17.8589 72.9785 L 22.5218 66.8853 L 21.1140 68.7250 L 19.7086 70.5517 L 18.3085 72.3659 L 16.9157 74.1683 L 15.5338 75.9582 L 14.1662 77.7350 L 12.8177 79.4963 L 5.7186 89.4044 L 4.5561 91.2153 L 3.4779 93.0181 L 7.7390 86.2786 L 6.5986 87.8273 L 5.5367 89.2257 L 4.5575 90.3273 L 1.5818 100.5777 L 1.9409 89.7718 L -2.2041 87.7344 L -5.6371 88.2085 L -6.0011 89.3144 L -5.0000 90.0000 L -5.0000 110.0000 L -8.5327 109.1535 L -12.7988 106.8823 L -10.7102 108.4140 L -17.9021 92.2729 Z" fill="none" stroke="black" stroke-width="1" />

</svg>