<svg xmlns="http://www.w3.org/2000/svg" viewBox="-40.6860 -20.1858 81.3394 140.3101">
  <path d="M -30.6860 86.5786 L -30.6792 91.2115 L -29.5438 96.0420 L -19.6898 106.7573 L -24.4396 103.4222 L -21.4341 105.6303 L -18.4756 107.1535 L -15.6139 108.2115 L -12.8471 108.9488 L -10.1677 109.4558 L 2.4383 110.1243 L -5.0000 110.0000 L -5.0000 90.0000 L -6.8937 89.8040 L -8.7077 89.5092 L -10.4100 89.0979 L -2.1223 90.3796 L -3.6027 90.4564 L -14.1983 86.9851 L -14.6071 86.0061 L -14.3019 85.0555 L -13.2930 84.3839 L -11.9924 84.0838 L -10.8736 83.8454 L -10.0126 83.3300 L -9.2689 82.4638 L -8.5290 81.3166 L -7.7414 79.9737 L -10.6722 87.7579 L -5.9770 76.9395 L -5.0051 75.3196 L -3.9821 73.6587 L -2.9145 71.9685 L -6.9145 78.8564 L -5.9131 77.0465 L 0.4950 66.7915 L 1.6850 65.0416 L -2.6309 71.6169 L 4.1222 61.5154 L 5.3635 59.7400 L 0.9388 66.1882 L 7.8784 56.1636 L 9.1475 54.3615 L 10.4215 52.5490 L 11.6982 50.7249 L 12.9758 48.8876 L 14.2522 47.0356 L 15.5252 45.1669 L 16.7924 43.2792 L 18.0515 41.3697 L 13.7735 47.7697 L 20.5340 37.4716 L 21.7505 35.4743 L 17.7025 41.9537 L 24.1117 31.3543 L 25.2438 29.2156 L 26.3328 27.0087 L 27.3657 24.7196 L 24.1491 31.4136 L 29.1873 19.8046 L 29.9116 17.1136 L 27.8473 23.8605 L 30.6534 11.0014 L 30.3807 7.4428 L 29.3194 3.5152 L 27.1153 -0.5549 L 23.7147 -4.1674 L 19.6898 -6.7573 L 24.4396 -3.4222 L 12.1115 -9.2482 L 18.4756 -7.1535 L 5.7828 -10.0418 L 12.8471 -8.9488 L 0.1943 -10.1858 L -2.4383 -10.1243 L -5.0000 -10.0000 L -5.0000 10.0000 L -3.1008 9.8647 L 8.7077 10.4908 L 0.4845 9.6836 L 2.1223 9.6204 L 3.6027 9.5436 L 4.8757 9.3970 L 5.8990 9.0776 L 6.6987 8.4490 L 7.4639 7.4907 L 8.4286 6.5729 L 9.5070 6.2485 L 10.3954 6.6773 L 10.9319 7.6754 L 11.1175 9.0243 L 11.0104 10.5757 L 6.8910 21.4996 L 5.9770 23.0605 L 5.0051 24.6804 L 8.7192 17.5345 L 7.8540 19.3366 L 6.9145 21.1436 L 5.9131 22.9535 L 4.8604 24.7634 L 3.7640 26.5735 L 2.6309 28.3831 L 1.4666 30.1921 L 0.2754 32.0014 L -0.9388 33.8118 L -2.1726 35.6240 L -3.4232 37.4390 L -10.4215 47.4510 L -5.9648 41.0820 L -7.2515 42.9129 L -8.5464 44.7520 L -9.8476 46.6011 L -11.1536 48.4623 L -12.4627 50.3378 L -13.7735 52.2303 L -15.0849 54.1434 L -21.7505 64.5257 L -17.7025 58.0463 L -24.1117 68.6457 L -20.3043 62.0895 L -21.5957 64.1845 L -27.3657 75.2804 L -28.3256 77.6725 L -29.1873 80.1954 L -29.9116 82.8864 L -27.8473 76.1395 L -30.6534 88.9986 L -29.9980 82.5645 L -30.6860 86.5786 Z" fill="none" stroke="black" stroke-width="1" />

</svg>