<svg xmlns="http://www.w3.org/2000/svg" width="1600" height="1600" viewBox="-250.0000 -250.0000 1500.0000 1500.0000">

  <g id="reference-fill" opacity="0.2500" transform="matrix(1.000000 0.000000 -0.000000 1.000000 0.000000 0.000000)">

    <g transform="matrix(1,0,0,1,-723.651,-447.875)">
        <path d="M955.526,454.125L955.526,447.875L763.026,447.875L763.026,454.125C773.859,455.375 784.38,457.25 794.589,459.75C804.797,462.25 812.818,467.042 818.651,474.125C821.151,477.042 822.922,481.208 823.964,486.625C825.005,492.042 825.839,498.188 826.464,505.063C827.089,511.938 827.401,519.125 827.401,526.625L827.401,744.125C827.401,755.792 827.297,766.625 827.089,776.625C826.88,786.625 826.776,794.542 826.776,800.375C826.359,812.042 825.63,823.708 824.589,835.375C823.547,847.042 821.776,857.458 819.276,866.625C816.359,876.208 811.672,884.333 805.214,891C798.755,897.667 790.318,901 779.901,901C776.568,901 773.026,900.271 769.276,898.813C765.526,897.354 762.609,895.167 760.526,892.25L760.526,890.375C769.276,889.125 776.568,886.313 782.401,881.938C788.234,877.563 791.151,870.583 791.151,861C791.151,852.667 788.13,845.479 782.089,839.438C776.047,833.396 768.859,830.375 760.526,830.375C750.943,830.375 742.401,833.5 734.901,839.75C727.401,846 723.651,854.125 723.651,864.125C723.651,872.042 725.214,878.813 728.339,884.438C731.464,890.063 735.63,894.438 740.839,897.563C746.047,900.688 751.88,903.083 758.339,904.75C764.797,906.417 771.359,907.25 778.026,907.25C790.109,907.25 803.339,904.958 817.714,900.375C832.089,895.792 845.943,888.292 859.276,877.875C870.109,869.542 878.859,860.479 885.526,850.688C892.193,840.896 895.526,829.125 895.526,815.375L895.526,600.375C895.526,589.958 895.63,579.646 895.839,569.438C896.047,559.229 896.151,548.917 896.151,538.5C896.568,528.917 896.984,518.604 897.401,507.563C897.818,496.521 899.693,487.667 903.026,481C908.443,471 916.359,464.333 926.776,461C937.193,457.667 946.776,455.375 955.526,454.125Z" style="fill-rule:nonzero;"/>
    </g>

  </g>
  <g id="stroke-ink">
    <path d="M 0.4839 405.2420 L 1.0480 413.1552 L 2.4765 421.3055 L 2.5365 421.5673 L 4.8564 429.4987 L 8.3215 437.4253 L 8.5810 437.9101 L 10.4936 441.1396 L 12.9490 444.5811 L 13.5765 445.3568 L 13.6029 445.3887 L 14.2711 446.1727 L 15.6457 447.6663 L 18.5103 450.3361 L 19.0673 450.7951 L 20.8596 452.1589 L 24.4184 454.3652 L 30.2395 456.7688 L 30.9550 456.9817 L 35.7023 458.0406 L 40.8032 458.6483 L 41.5854 458.7055 L 45.6394 458.8897 L 50.3140 458.9300 L 51.1931 458.9229 L 53.9909 458.8765 L 54.9115 459.0077 L 59.5676 459.5327 L 60.6133 459.6208 L 69.1209 459.9654 L 70.3557 459.9628 L 78.9589 459.5896 L 80.3841 459.4679 L 89.0219 458.3588 L 90.6347 458.0794 L 99.2247 456.1882 L 101.0119 455.7058 L 109.4465 452.9840 L 111.3833 452.2493 L 119.5310 448.6644 L 121.5780 447.6288 L 129.2888 443.1773 L 131.3914 441.7979 L 138.5037 436.5176 L 140.5929 434.7631 L 146.9480 428.7346 L 148.9428 426.5903 L 154.3976 419.9335 L 156.2102 417.4035 L 160.6465 410.2731 L 162.1861 407.3817 L 165.5199 399.9503 L 166.3170 397.8242 L 166.6408 396.7226 L 168.6303 389.1248 L 169.4009 385.6652 L 170.7863 378.2283 L 171.3328 374.6030 L 172.1822 367.3747 L 172.5028 363.6036 L 172.8842 356.6159 L 172.9806 352.7211 L 172.9957 351.2859 L 173.0000 346.7151 L 173.0000 343.4131 L 173.0000 334.6076 L 173.0000 325.8021 L 173.0000 316.9967 L 173.0000 308.1912 L 173.0000 299.3857 L 173.0000 290.5803 L 173.0000 281.7748 L 173.0000 277.3721 L 173.0000 272.9694 L 173.0000 264.1639 L 173.0000 255.3584 L 173.0000 246.5530 L 173.0000 237.7475 L 173.0000 228.9420 L 173.0000 220.1366 L 173.0000 211.3311 L 173.0000 202.5257 L 173.0000 193.7202 L 173.0000 184.9147 L 173.0000 176.1093 L 173.0000 167.3038 L 173.0000 158.4983 L 173.0000 149.6929 L 173.0000 140.8874 L 173.0000 138.6860 L 173.0000 132.0819 L 173.0000 123.2765 L 173.0000 114.4710 L 173.0000 105.6656 L 173.0000 96.8601 L 173.0000 88.0546 L 173.0000 79.2492 L 173.0000 70.4437 L 173.0000 69.3430 L 173.0000 61.6382 L 173.0000 60.6751 L 173.0000 56.3412 L 173.0000 55.4744 L 173.4582 52.8328 L 173.6250 52.0073 L 174.7389 47.6733 L 176.0667 44.0273 L 176.3653 43.3394 L 178.6568 39.0054 L 181.3209 35.2219 L 181.7663 34.6715 L 185.8467 30.3376 L 190.5025 26.4164 L 191.0507 26.0036 L 197.5311 21.6697 L 204.8931 17.6109 L 205.4407 17.3358 L 214.9324 13.0018 L 225.7744 8.8055 L 226.1590 8.6679 L 229.2546 7.5844 L 230.0472 7.3135 L 230.3472 7.2117 L 230.8474 7.0427 L 232.0000 6.6569 L 232.0000 6.5009 L 232.0000 4.3339 L 232.0000 0.0000 L 39.0000 0.0000 L 39.0000 4.3339 L 39.0000 6.5009 L 39.0000 6.6569 L 39.0000 7.0427 L 39.0000 7.2117 L 39.3318 7.3135 L 40.2084 7.5844 L 43.6335 8.6679 L 44.0591 8.8055 L 56.0722 13.0018 L 66.6151 17.3358 L 67.2243 17.6109 L 75.4256 21.6697 L 82.6669 26.0036 L 83.2807 26.4164 L 88.5025 30.3376 L 93.0955 34.6715 L 93.5981 35.2219 L 96.6094 39.0054 L 99.2074 43.3394 L 99.5464 44.0273 L 101.0530 47.6733 L 102.3094 52.0073 L 102.4954 52.8328 L 103.0000 55.4744 L 103.0000 56.3412 L 103.0000 60.6751 L 103.0000 61.6382 L 103.0000 69.3430 L 103.0000 70.4437 L 103.0000 79.2492 L 103.0000 88.0546 L 103.0000 96.8601 L 103.0000 105.6656 L 103.0000 114.4710 L 103.0000 123.2765 L 103.0000 132.0819 L 103.0000 138.6860 L 103.0000 140.8874 L 103.0000 149.6929 L 103.0000 158.4983 L 103.0000 167.3038 L 103.0000 176.1093 L 103.0000 184.9147 L 103.0000 193.7202 L 103.0000 202.5257 L 103.0000 211.3311 L 103.0000 220.1366 L 103.0000 228.9420 L 103.0000 237.7475 L 103.0000 246.5530 L 103.0000 255.3584 L 103.0000 264.1639 L 103.0000 272.9694 L 103.0000 277.3721 L 103.0000 281.7748 L 103.0000 290.5803 L 103.0000 299.3857 L 103.0000 308.1912 L 103.0000 316.9967 L 103.0000 325.8021 L 103.0000 334.6076 L 103.0000 343.4131 L 103.0000 346.7151 L 102.9973 350.8141 L 102.9877 351.7183 L 102.9276 354.1490 L 102.6946 358.4251 L 102.5023 360.6875 L 102.0035 364.9361 L 101.6888 367.0239 L 100.9079 371.2187 L 100.4821 373.1306 L 99.4053 377.2446 L 99.2328 377.8317 L 99.0135 379.0220 L 98.2959 383.2885 L 98.0282 385.0086 L 97.3589 389.4560 L 97.1069 391.1229 L 96.3581 395.8066 L 96.0760 397.4281 L 95.1062 402.3760 L 94.7561 403.9473 L 93.4174 409.1525 L 92.9725 410.6570 L 91.1218 416.0704 L 90.5681 417.4832 L 88.0785 423.0121 L 87.4155 424.3038 L 84.1828 429.8150 L 83.4223 430.9561 L 79.3729 436.2771 L 78.5370 437.2412 L 73.6305 442.1627 L 72.7493 442.9290 L 66.9821 447.2006 L 66.0903 447.7556 L 59.5049 451.0718 L 58.6428 451.4084 L 54.6682 452.6763 L 53.8569 452.8780 L 51.3708 452.8687 L 50.5970 452.8375 L 46.5835 452.4227 L 43.3165 451.7020 L 42.7178 451.5235 L 39.1372 450.0605 L 36.4098 448.2874 L 36.0555 447.9916 L 33.7511 445.3667 L 32.8537 443.5978 L 32.5528 442.6665 L 32.4805 442.3728 L 32.2713 440.8204 L 32.2722 440.0442 L 32.2984 439.6574 L 32.2998 439.6420 L 32.9346 439.1096 L 35.5801 437.3063 L 37.8377 436.1818 L 38.1596 436.0459 L 42.9876 434.5536 L 47.3519 433.7980 L 47.4931 433.7798 L 51.9959 433.3984 L 56.8328 433.4164 L 0.4839 405.2420 Z" fill="black" stroke="none" />
  </g>
  <g id="reference-outline" transform="matrix(1.000000 0.000000 -0.000000 1.000000 0.000000 0.000000)" style="fill:none;stroke:cyan;stroke-width:1;vector-effect:non-scaling-stroke">

    <g transform="matrix(1,0,0,1,-723.651,-447.875)">
        <path d="M955.526,454.125L955.526,447.875L763.026,447.875L763.026,454.125C773.859,455.375 784.38,457.25 794.589,459.75C804.797,462.25 812.818,467.042 818.651,474.125C821.151,477.042 822.922,481.208 823.964,486.625C825.005,492.042 825.839,498.188 826.464,505.063C827.089,511.938 827.401,519.125 827.401,526.625L827.401,744.125C827.401,755.792 827.297,766.625 827.089,776.625C826.88,786.625 826.776,794.542 826.776,800.375C826.359,812.042 825.63,823.708 824.589,835.375C823.547,847.042 821.776,857.458 819.276,866.625C816.359,876.208 811.672,884.333 805.214,891C798.755,897.667 790.318,901 779.901,901C776.568,901 773.026,900.271 769.276,898.813C765.526,897.354 762.609,895.167 760.526,892.25L760.526,890.375C769.276,889.125 776.568,886.313 782.401,881.938C788.234,877.563 791.151,870.583 791.151,861C791.151,852.667 788.13,845.479 782.089,839.438C776.047,833.396 768.859,830.375 760.526,830.375C750.943,830.375 742.401,833.5 734.901,839.75C727.401,846 723.651,854.125 723.651,864.125C723.651,872.042 725.214,878.813 728.339,884.438C731.464,890.063 735.63,894.438 740.839,897.563C746.047,900.688 751.88,903.083 758.339,904.75C764.797,906.417 771.359,907.25 778.026,907.25C790.109,907.25 803.339,904.958 817.714,900.375C832.089,895.792 845.943,888.292 859.276,877.875C870.109,869.542 878.859,860.479 885.526,850.688C892.193,840.896 895.526,829.125 895.526,815.375L895.526,600.375C895.526,589.958 895.63,579.646 895.839,569.438C896.047,559.229 896.151,548.917 896.151,538.5C896.568,528.917 896.984,518.604 897.401,507.563C897.818,496.521 899.693,487.667 903.026,481C908.443,471 916.359,464.333 926.776,461C937.193,457.667 946.776,455.375 955.526,454.125Z" style="fill-rule:nonzero;"/>
    </g>

  </g>
  <g id="debug-overlays">

  </g>
  <text x="20" y="20" font-size="14" fill="#111">example=none view=compare solo=false</text>
  <g id="debug-legend">
    <text x="20" y="40" font-size="12" fill="#111">reference fill</text>
    <text x="20" y="56" font-size="12" fill="cyan">reference outline</text>
    <text x="20" y="72" font-size="12" fill="#111">ink fill</text>
  </g>
</svg>