<svg xmlns="http://www.w3.org/2000/svg" width="1600" height="1600" viewBox="-250.0000 -250.0000 1500.0000 1500.0000">

  <g id="reference-fill" opacity="0.2500" transform="matrix(1.000000 0.000000 -0.000000 1.000000 0.000000 0.000000)">

    <g transform="matrix(1,0,0,1,-723.651,-447.875)">
        <path d="M955.526,454.125L955.526,447.875L763.026,447.875L763.026,454.125C773.859,455.375 784.38,457.25 794.589,459.75C804.797,462.25 812.818,467.042 818.651,474.125C821.151,477.042 822.922,481.208 823.964,486.625C825.005,492.042 825.839,498.188 826.464,505.063C827.089,511.938 827.401,519.125 827.401,526.625L827.401,744.125C827.401,755.792 827.297,766.625 827.089,776.625C826.88,786.625 826.776,794.542 826.776,800.375C826.359,812.042 825.63,823.708 824.589,835.375C823.547,847.042 821.776,857.458 819.276,866.625C816.359,876.208 811.672,884.333 805.214,891C798.755,897.667 790.318,901 779.901,901C776.568,901 773.026,900.271 769.276,898.813C765.526,897.354 762.609,895.167 760.526,892.25L760.526,890.375C769.276,889.125 776.568,886.313 782.401,881.938C788.234,877.563 791.151,870.583 791.151,861C791.151,852.667 788.13,845.479 782.089,839.438C776.047,833.396 768.859,830.375 760.526,830.375C750.943,830.375 742.401,833.5 734.901,839.75C727.401,846 723.651,854.125 723.651,864.125C723.651,872.042 725.214,878.813 728.339,884.438C731.464,890.063 735.63,894.438 740.839,897.563C746.047,900.688 751.88,903.083 758.339,904.75C764.797,906.417 771.359,907.25 778.026,907.25C790.109,907.25 803.339,904.958 817.714,900.375C832.089,895.792 845.943,888.292 859.276,877.875C870.109,869.542 878.859,860.479 885.526,850.688C892.193,840.896 895.526,829.125 895.526,815.375L895.526,600.375C895.526,589.958 895.63,579.646 895.839,569.438C896.047,559.229 896.151,548.917 896.151,538.5C896.568,528.917 896.984,518.604 897.401,507.563C897.818,496.521 899.693,487.667 903.026,481C908.443,471 916.359,464.333 926.776,461C937.193,457.667 946.776,455.375 955.526,454.125Z" style="fill-rule:nonzero;"/>
    </g>

  </g>
  <g id="stroke-ink">
    <path d="M -3.5053 433.3598 L -3.0662 453.0493 L 9.3523 475.0591 L 28.3656 486.3101 L 44.6683 489.4339 L 58.4707 489.3216 L 70.8345 487.6162 L 82.3136 484.8886 L 93.1853 481.3793 L 103.5995 477.2009 L 113.6355 472.4073 L 123.3350 467.0187 L 132.7136 461.0337 L 141.7663 454.4354 L 150.4696 447.1958 L 158.7809 439.2785 L 166.6359 430.6431 L 173.9460 421.2519 L 180.5958 411.0799 L 186.4443 400.1288 L 191.3325 388.4432 L 195.1008 376.1255 L 197.6148 363.3412 L 198.7942 350.3074 L 199.5520 341.1286 L 200.3810 332.0440 L 201.2099 322.9595 L 201.3968 313.8749 L 201.2381 304.7904 L 201.0794 295.7058 L 200.9206 286.6212 L 200.7619 277.5367 L 200.6032 268.4521 L 200.4444 259.3676 L 200.2857 250.2830 L 200.1270 241.1985 L 199.9683 232.1139 L 199.8095 223.0294 L 199.6508 213.9448 L 199.4921 204.8602 L 199.3333 195.7757 L 199.1746 186.6911 L 199.0159 177.6066 L 198.8571 168.5220 L 198.6984 159.4375 L 198.5397 150.3529 L 198.3810 141.2683 L 198.2222 132.1838 L 198.0635 123.0992 L 197.9048 114.0147 L 197.7460 104.9301 L 197.5873 95.8456 L 197.4286 86.7610 L 197.2698 77.6765 L 197.1111 68.5919 L 196.9524 59.5073 L 196.7937 50.4228 L 196.6349 41.3382 L 196.4762 32.2537 L 196.3175 23.1691 L 196.1587 14.0846 L 196.0000 5.0000 L 116.0000 5.0000 L 116.1587 14.0846 L 116.3175 23.1691 L 116.4762 32.2537 L 116.6349 41.3382 L 116.7937 50.4228 L 116.9524 59.5073 L 117.1111 68.5919 L 117.2698 77.6765 L 117.4286 86.7610 L 117.5873 95.8456 L 117.7460 104.9301 L 117.9048 114.0147 L 118.0635 123.0992 L 118.2222 132.1838 L 118.3810 141.2683 L 118.5397 150.3529 L 118.6984 159.4375 L 118.8571 168.5220 L 119.0159 177.6066 L 119.1746 186.6911 L 119.3333 195.7757 L 119.4921 204.8602 L 119.6508 213.9448 L 119.8095 223.0294 L 119.9683 232.1139 L 120.1270 241.1985 L 120.2857 250.2830 L 120.4444 259.3676 L 120.6032 268.4521 L 120.7619 277.5367 L 120.9206 286.6212 L 121.0794 295.7058 L 121.2381 304.7904 L 121.3968 313.8749 L 121.2099 322.9595 L 120.3810 332.0440 L 119.5520 341.1286 L 118.5563 350.1132 L 116.6447 354.7127 L 114.2909 358.9305 L 111.5307 362.8363 L 108.3822 366.4937 L 104.8544 369.9456 L 100.9568 373.2102 L 96.7068 376.2848 L 92.1325 379.1520 L 87.2730 381.7855 L 82.1775 384.1539 L 76.9065 386.2227 L 71.5334 387.9533 L 66.1505 389.3026 L 60.8804 390.2204 L 55.8984 390.6469 L 51.4769 390.5130 L 48.0778 389.7510 L 46.5710 388.3537 L 48.7702 386.6586 L 58.6360 386.7630 L 80.9649 397.9443 L 100.1825 427.2278 L 103.1297 447.8800 L 103.0678 455.5231 L 104.2375 457.1187 L 5.8505 407.9252 L 0.5146 419.1588 L -3.5053 433.3598 Z" fill="black" stroke="none" />
  </g>
  <g id="reference-outline" transform="matrix(1.000000 0.000000 -0.000000 1.000000 0.000000 0.000000)" style="fill:none;stroke:rgba(0,0,0,0.35);stroke-width:1;vector-effect:non-scaling-stroke">

    <g transform="matrix(1,0,0,1,-723.651,-447.875)">
        <path d="M955.526,454.125L955.526,447.875L763.026,447.875L763.026,454.125C773.859,455.375 784.38,457.25 794.589,459.75C804.797,462.25 812.818,467.042 818.651,474.125C821.151,477.042 822.922,481.208 823.964,486.625C825.005,492.042 825.839,498.188 826.464,505.063C827.089,511.938 827.401,519.125 827.401,526.625L827.401,744.125C827.401,755.792 827.297,766.625 827.089,776.625C826.88,786.625 826.776,794.542 826.776,800.375C826.359,812.042 825.63,823.708 824.589,835.375C823.547,847.042 821.776,857.458 819.276,866.625C816.359,876.208 811.672,884.333 805.214,891C798.755,897.667 790.318,901 779.901,901C776.568,901 773.026,900.271 769.276,898.813C765.526,897.354 762.609,895.167 760.526,892.25L760.526,890.375C769.276,889.125 776.568,886.313 782.401,881.938C788.234,877.563 791.151,870.583 791.151,861C791.151,852.667 788.13,845.479 782.089,839.438C776.047,833.396 768.859,830.375 760.526,830.375C750.943,830.375 742.401,833.5 734.901,839.75C727.401,846 723.651,854.125 723.651,864.125C723.651,872.042 725.214,878.813 728.339,884.438C731.464,890.063 735.63,894.438 740.839,897.563C746.047,900.688 751.88,903.083 758.339,904.75C764.797,906.417 771.359,907.25 778.026,907.25C790.109,907.25 803.339,904.958 817.714,900.375C832.089,895.792 845.943,888.292 859.276,877.875C870.109,869.542 878.859,860.479 885.526,850.688C892.193,840.896 895.526,829.125 895.526,815.375L895.526,600.375C895.526,589.958 895.63,579.646 895.839,569.438C896.047,559.229 896.151,548.917 896.151,538.5C896.568,528.917 896.984,518.604 897.401,507.563C897.818,496.521 899.693,487.667 903.026,481C908.443,471 916.359,464.333 926.776,461C937.193,457.667 946.776,455.375 955.526,454.125Z" style="fill-rule:nonzero;"/>
    </g>

  </g>
  <g id="debug-overlays">
  <g id="debug">
    <line x1="160.0000" y1="5.0000" x2="160.0000" y2="350.0000" stroke="orange" stroke-width="2.0"/>
    <circle cx="160.0000" cy="5.0000" r="4.0" fill="blue" stroke="none"/>
    <circle cx="160.0000" cy="350.0000" r="4.0" fill="blue" stroke="none"/>
    <text x="164.0000" y="346.0000" font-size="10" fill="#444444">stem</text>
    <line x1="160.0000" y1="350.0000" x2="160.0000" y2="450.0000" stroke="#cccccc" stroke-width="1.0"/>
    <line x1="30.0000" y1="420.0000" x2="-10.0000" y2="500.0000" stroke="#cccccc" stroke-width="1.0"/>
    <path d="M 160.0000 350.0000 L 159.8730 354.7238 L 159.4982 359.3701 L 158.8846 363.9369 L 158.0413 368.4225 L 156.9776 372.8247 L 155.7024 377.1418 L 154.2250 381.3717 L 152.5544 385.5127 L 150.6997 389.5627 L 148.6701 393.5198 L 146.4747 397.3822 L 144.1227 401.1478 L 141.6230 404.8149 L 138.9849 408.3813 L 136.2175 411.8454 L 133.3298 415.2050 L 130.3311 418.4584 L 127.2303 421.6035 L 124.0367 424.6385 L 120.7594 427.5614 L 117.4074 430.3704 L 113.9899 433.0634 L 110.5161 435.6387 L 106.9949 438.0942 L 103.4356 440.4280 L 99.8473 442.6383 L 96.2391 444.7230 L 92.6200 446.6804 L 88.9993 448.5084 L 85.3860 450.2052 L 81.7893 451.7687 L 78.2183 453.1972 L 74.6820 454.4887 L 71.1897 455.6413 L 67.7503 456.6529 L 64.3732 457.5219 L 61.0673 458.2461 L 57.8418 458.8237 L 54.7058 459.2528 L 51.6684 459.5314 L 48.7387 459.6577 L 45.9259 459.6296 L 43.2391 459.4454 L 40.6874 459.1030 L 38.2799 458.6006 L 36.0257 457.9362 L 33.9340 457.1079 L 32.0138 456.1138 L 30.2743 454.9520 L 28.7247 453.6205 L 27.3739 452.1175 L 26.2312 450.4410 L 25.3057 448.5890 L 24.6064 446.5598 L 24.1425 444.3513 L 23.9232 441.9616 L 23.9575 439.3888 L 24.2545 436.6311 L 24.8234 433.6864 L 25.6733 430.5529 L 26.8132 427.2286 L 28.2524 423.7116 L 30.0000 420.0000" fill="none" stroke="orange" stroke-width="2.0" />
    <circle cx="160.0000" cy="350.0000" r="4.0" fill="blue" stroke="none"/>
    <circle cx="30.0000" cy="420.0000" r="4.0" fill="blue" stroke="none"/>
    <circle cx="160.0000" cy="450.0000" r="4.0" fill="red" stroke="none"/>
    <circle cx="-10.0000" cy="500.0000" r="4.0" fill="red" stroke="none"/>
    <text x="82.2183" y="449.1972" font-size="10" fill="#444444">hook</text>
  </g>
  <g id="debug-ring-spine">
    <path d="M -3.5053 433.3598 L -3.0662 453.0493 L 9.3523 475.0591 L 28.3656 486.3101 L 44.6683 489.4339 L 58.4707 489.3216 L 70.8345 487.6162 L 82.3136 484.8886 L 93.1853 481.3793 L 103.5995 477.2009 L 113.6355 472.4073 L 123.3350 467.0187 L 132.7136 461.0337 L 141.7663 454.4354 L 150.4696 447.1958 L 158.7809 439.2785 L 166.6359 430.6431 L 173.9460 421.2519 L 180.5958 411.0799 L 186.4443 400.1288 L 191.3325 388.4432 L 195.1008 376.1255 L 197.6148 363.3412 L 198.7942 350.3074 L 199.5520 341.1286 L 200.3810 332.0440 L 201.2099 322.9595 L 201.3968 313.8749 L 201.2381 304.7904 L 201.0794 295.7058 L 200.9206 286.6212 L 200.7619 277.5367 L 200.6032 268.4521 L 200.4444 259.3676 L 200.2857 250.2830 L 200.1270 241.1985 L 199.9683 232.1139 L 199.8095 223.0294 L 199.6508 213.9448 L 199.4921 204.8602 L 199.3333 195.7757 L 199.1746 186.6911 L 199.0159 177.6066 L 198.8571 168.5220 L 198.6984 159.4375 L 198.5397 150.3529 L 198.3810 141.2683 L 198.2222 132.1838 L 198.0635 123.0992 L 197.9048 114.0147 L 197.7460 104.9301 L 197.5873 95.8456 L 197.4286 86.7610 L 197.2698 77.6765 L 197.1111 68.5919 L 196.9524 59.5073 L 196.7937 50.4228 L 196.6349 41.3382 L 196.4762 32.2537 L 196.3175 23.1691 L 196.1587 14.0846 L 196.0000 5.0000 L 116.0000 5.0000 L 116.1587 14.0846 L 116.3175 23.1691 L 116.4762 32.2537 L 116.6349 41.3382 L 116.7937 50.4228 L 116.9524 59.5073 L 117.1111 68.5919 L 117.2698 77.6765 L 117.4286 86.7610 L 117.5873 95.8456 L 117.7460 104.9301 L 117.9048 114.0147 L 118.0635 123.0992 L 118.2222 132.1838 L 118.3810 141.2683 L 118.5397 150.3529 L 118.6984 159.4375 L 118.8571 168.5220 L 119.0159 177.6066 L 119.1746 186.6911 L 119.3333 195.7757 L 119.4921 204.8602 L 119.6508 213.9448 L 119.8095 223.0294 L 119.9683 232.1139 L 120.1270 241.1985 L 120.2857 250.2830 L 120.4444 259.3676 L 120.6032 268.4521 L 120.7619 277.5367 L 120.9206 286.6212 L 121.0794 295.7058 L 121.2381 304.7904 L 121.3968 313.8749 L 121.2099 322.9595 L 120.3810 332.0440 L 119.5520 341.1286 L 118.5563 350.1132 L 116.6447 354.7127 L 114.2909 358.9305 L 111.5307 362.8363 L 108.3822 366.4937 L 104.8544 369.9456 L 100.9568 373.2102 L 96.7068 376.2848 L 92.1325 379.1520 L 87.2730 381.7855 L 82.1775 384.1539 L 76.9065 386.2227 L 71.5334 387.9533 L 66.1505 389.3026 L 60.8804 390.2204 L 55.8984 390.6469 L 51.4769 390.5130 L 48.0778 389.7510 L 46.5710 388.3537 L 48.7702 386.6586 L 58.6360 386.7630 L 80.9649 397.9443 L 100.1825 427.2278 L 103.1297 447.8800 L 103.0678 455.5231 L 104.2375 457.1187 L 5.8505 407.9252 L 0.5146 419.1588 L -3.5053 433.3598" fill="none" stroke="#00c853" stroke-width="1.5" stroke-linejoin="round" stroke-linecap="round" />
    <circle cx="-3.5053" cy="433.3598" r="1.8" fill="#00c853" stroke="none"/>
    <text x="0.4947" y="429.3598" font-size="10" fill="#111111">0</text>
    <circle cx="197.7460" cy="104.9301" r="1.8" fill="#00c853" stroke="none"/>
    <text x="201.7460" y="100.9301" font-size="10" fill="#111111">50</text>
    <circle cx="118.5563" cy="350.1132" r="1.8" fill="#00c853" stroke="none"/>
    <text x="122.5563" y="346.1132" font-size="10" fill="#111111">100</text>
    <circle cx="-3.5053" cy="433.3598" r="4.0" fill="#2962ff" stroke="none"/>
    <text x="0.4947" y="429.3598" font-size="10" fill="#111111">start</text>
  </g>
  <g id="debug-ring-jump">
    <line x1="104.2375" y1="457.1187" x2="5.8505" y2="407.9252" stroke="#ff1744" stroke-width="6" stroke-linecap="round" opacity="0.9"/>
    <circle cx="104.2375" cy="457.1187" r="5" fill="#ff1744" stroke="none"/>
    <circle cx="5.8505" cy="407.9252" r="5" fill="#ff1744" stroke="none"/>
    <text x="108.2375" y="453.1187" font-size="10" fill="#111111">a=125</text>
    <text x="9.8505" y="403.9252" font-size="10" fill="#111111">b=126</text>
    <text x="59.0440" y="428.5220" font-size="10" fill="#111111">k=125 len=110.0000</text>
    <text x="59.0440" y="444.5220" font-size="10" fill="#111111">ringJump verts=129 maxK=125 len=110.0000</text>
  </g>
<g id="debug-sampling-why"></g>
  </g>
  <text x="20" y="20" font-size="14" fill="#111">example=none view=ringSpine,ringJump,samplingWhy,centerline,inkControls,debugSVG solo=false</text>
</svg>