<svg xmlns="http://www.w3.org/2000/svg" width="1600" height="1600" viewBox="-250.0000 -250.0000 1500.0000 1500.0000">

  <g id="reference-fill" opacity="0.2500" transform="matrix(1.000000 0.000000 -0.000000 1.000000 0.000000 0.000000)">

    <g transform="matrix(1,0,0,1,-723.651,-447.875)">
        <path d="M955.526,454.125L955.526,447.875L763.026,447.875L763.026,454.125C773.859,455.375 784.38,457.25 794.589,459.75C804.797,462.25 812.818,467.042 818.651,474.125C821.151,477.042 822.922,481.208 823.964,486.625C825.005,492.042 825.839,498.188 826.464,505.063C827.089,511.938 827.401,519.125 827.401,526.625L827.401,744.125C827.401,755.792 827.297,766.625 827.089,776.625C826.88,786.625 826.776,794.542 826.776,800.375C826.359,812.042 825.63,823.708 824.589,835.375C823.547,847.042 821.776,857.458 819.276,866.625C816.359,876.208 811.672,884.333 805.214,891C798.755,897.667 790.318,901 779.901,901C776.568,901 773.026,900.271 769.276,898.813C765.526,897.354 762.609,895.167 760.526,892.25L760.526,890.375C769.276,889.125 776.568,886.313 782.401,881.938C788.234,877.563 791.151,870.583 791.151,861C791.151,852.667 788.13,845.479 782.089,839.438C776.047,833.396 768.859,830.375 760.526,830.375C750.943,830.375 742.401,833.5 734.901,839.75C727.401,846 723.651,854.125 723.651,864.125C723.651,872.042 725.214,878.813 728.339,884.438C731.464,890.063 735.63,894.438 740.839,897.563C746.047,900.688 751.88,903.083 758.339,904.75C764.797,906.417 771.359,907.25 778.026,907.25C790.109,907.25 803.339,904.958 817.714,900.375C832.089,895.792 845.943,888.292 859.276,877.875C870.109,869.542 878.859,860.479 885.526,850.688C892.193,840.896 895.526,829.125 895.526,815.375L895.526,600.375C895.526,589.958 895.63,579.646 895.839,569.438C896.047,559.229 896.151,548.917 896.151,538.5C896.568,528.917 896.984,518.604 897.401,507.563C897.818,496.521 899.693,487.667 903.026,481C908.443,471 916.359,464.333 926.776,461C937.193,457.667 946.776,455.375 955.526,454.125Z" style="fill-rule:nonzero;"/>
    </g>

  </g>
  <g id="stroke-ink">
    <path d="M 0.4839 405.2420 L 2.0056 421.4225 L 7.4056 437.9795 L 12.5971 445.6558 L 18.7713 450.9735 L 20.8596 452.1589 L 30.1455 458.2719 L 41.1543 460.4496 L 51.1752 459.5340 L 53.9909 458.8765 L 60.6093 459.5902 L 70.2239 459.4644 L 79.8674 458.1439 L 84.1842 457.1896 L 89.4230 455.7337 L 98.7969 452.2981 L 107.9018 447.8816 L 113.1993 444.7768 L 117.0912 442.9797 L 126.6403 437.7135 L 135.8331 431.3741 L 144.5536 424.0209 L 152.6998 415.7365 L 160.1879 406.6281 L 166.3170 397.8242 L 166.6408 396.7226 L 169.4009 385.6652 L 171.3328 374.6030 L 172.5028 363.6036 L 172.9806 352.7211 L 173.0000 343.4131 L 173.0000 334.6076 L 173.0000 325.8021 L 173.0000 316.9967 L 173.0000 308.1912 L 173.0000 299.3857 L 173.0000 290.5803 L 173.0000 281.7748 L 173.0000 272.9694 L 173.0000 264.1639 L 173.0000 255.3584 L 173.0000 246.5530 L 173.0000 237.7475 L 173.0000 228.9420 L 173.0000 220.1366 L 173.0000 211.3311 L 173.0000 202.5257 L 173.0000 193.7202 L 173.0000 184.9147 L 173.0000 176.1093 L 173.0000 167.3038 L 173.0000 158.4983 L 173.0000 149.6929 L 173.0000 140.8874 L 173.0000 132.0819 L 173.0000 123.2765 L 173.0000 114.4710 L 173.0000 110.9488 L 173.0000 105.6656 L 173.0000 96.8601 L 173.0000 88.0546 L 173.0000 79.2492 L 173.0000 70.4437 L 173.0000 61.6382 L 173.0000 55.4744 L 173.6590 52.8328 L 176.0986 44.0273 L 179.0505 35.2219 L 182.8473 26.4164 L 188.3664 17.6109 L 200.5954 8.8055 L 208.1072 7.2117 L 232.0000 6.6569 L 232.0000 0.0000 L 39.0000 0.0000 L 39.0000 6.6569 L 39.0000 7.2117 L 39.9833 8.8055 L 45.4158 17.6109 L 50.8482 26.4164 L 56.2807 35.2219 L 61.7132 44.0273 L 67.1457 52.8328 L 68.7754 55.4744 L 72.5781 61.6382 L 78.0106 70.4437 L 83.4431 79.2492 L 88.8756 88.0546 L 94.3080 96.8601 L 99.7405 105.6656 L 103.0000 110.9488 L 103.0000 114.4710 L 103.0000 123.2765 L 103.0000 132.0819 L 103.0000 140.8874 L 103.0000 149.6929 L 103.0000 158.4983 L 103.0000 167.3038 L 103.0000 176.1093 L 103.0000 184.9147 L 103.0000 193.7202 L 103.0000 202.5257 L 103.0000 211.3311 L 103.0000 220.1366 L 103.0000 228.9420 L 103.0000 237.7475 L 103.0000 246.5530 L 103.0000 255.3584 L 103.0000 264.1639 L 103.0000 272.9694 L 103.0000 281.7748 L 103.0000 290.5803 L 103.0000 299.3857 L 103.0000 308.1912 L 103.0000 316.9967 L 103.0000 325.8021 L 103.0000 334.6076 L 103.0000 343.4131 L 102.9877 351.7183 L 102.6946 358.4251 L 102.0035 364.9361 L 100.9079 371.2187 L 99.4053 377.2446 L 99.2328 377.8317 L 100.1707 383.9955 L 100.6371 391.0128 L 100.4312 398.1911 L 99.4861 405.4945 L 97.7404 412.8689 L 95.1450 420.2393 L 93.8610 423.1660 L 91.6661 427.5130 L 87.2829 434.5844 L 81.9854 441.3348 L 78.6790 444.8631 L 75.3489 446.5658 L 67.6561 449.7505 L 59.6236 451.9871 L 53.8569 452.8780 L 51.3778 452.6322 L 43.5348 450.8188 L 37.0208 447.3136 L 33.4755 443.1540 L 33.0863 442.3450 L 32.2998 439.6420 L 49.1811 435.5117 L 53.4923 435.4738 L 56.8328 433.4164 L 0.4839 405.2420 Z" fill="black" stroke="none" />
  </g>
  <g id="reference-outline" transform="matrix(1.000000 0.000000 -0.000000 1.000000 0.000000 0.000000)" style="fill:none;stroke:cyan;stroke-width:1;vector-effect:non-scaling-stroke">

    <g transform="matrix(1,0,0,1,-723.651,-447.875)">
        <path d="M955.526,454.125L955.526,447.875L763.026,447.875L763.026,454.125C773.859,455.375 784.38,457.25 794.589,459.75C804.797,462.25 812.818,467.042 818.651,474.125C821.151,477.042 822.922,481.208 823.964,486.625C825.005,492.042 825.839,498.188 826.464,505.063C827.089,511.938 827.401,519.125 827.401,526.625L827.401,744.125C827.401,755.792 827.297,766.625 827.089,776.625C826.88,786.625 826.776,794.542 826.776,800.375C826.359,812.042 825.63,823.708 824.589,835.375C823.547,847.042 821.776,857.458 819.276,866.625C816.359,876.208 811.672,884.333 805.214,891C798.755,897.667 790.318,901 779.901,901C776.568,901 773.026,900.271 769.276,898.813C765.526,897.354 762.609,895.167 760.526,892.25L760.526,890.375C769.276,889.125 776.568,886.313 782.401,881.938C788.234,877.563 791.151,870.583 791.151,861C791.151,852.667 788.13,845.479 782.089,839.438C776.047,833.396 768.859,830.375 760.526,830.375C750.943,830.375 742.401,833.5 734.901,839.75C727.401,846 723.651,854.125 723.651,864.125C723.651,872.042 725.214,878.813 728.339,884.438C731.464,890.063 735.63,894.438 740.839,897.563C746.047,900.688 751.88,903.083 758.339,904.75C764.797,906.417 771.359,907.25 778.026,907.25C790.109,907.25 803.339,904.958 817.714,900.375C832.089,895.792 845.943,888.292 859.276,877.875C870.109,869.542 878.859,860.479 885.526,850.688C892.193,840.896 895.526,829.125 895.526,815.375L895.526,600.375C895.526,589.958 895.63,579.646 895.839,569.438C896.047,559.229 896.151,548.917 896.151,538.5C896.568,528.917 896.984,518.604 897.401,507.563C897.818,496.521 899.693,487.667 903.026,481C908.443,471 916.359,464.333 926.776,461C937.193,457.667 946.776,455.375 955.526,454.125Z" style="fill-rule:nonzero;"/>
    </g>

  </g>
  <g id="debug-overlays">
  <g id="debug-keyframes">
    <polygon points="45.0000,0.0000 35.4000,3.6000 35.4000,-3.6000" fill="none" stroke="#d32f2f" stroke-width="1.0" vector-effect="non-scaling-stroke"/>
    <polygon points="45.0000,7.2117 35.4000,10.8117 35.4000,3.6117" fill="none" stroke="#d32f2f" stroke-width="1.0" vector-effect="non-scaling-stroke"/>
    <polygon points="109.0000,110.9488 99.4000,114.5488 99.4000,107.3488" fill="none" stroke="#d32f2f" stroke-width="1.0" vector-effect="non-scaling-stroke"/>
    <polygon points="104.9829,379.5454 94.7545,380.2536 96.8109,373.3535" fill="none" stroke="#d32f2f" stroke-width="1.0" vector-effect="non-scaling-stroke"/>
    <polygon points="97.8620,427.6372 88.7776,422.8839 94.1431,418.0826" fill="none" stroke="#d32f2f" stroke-width="1.0" vector-effect="non-scaling-stroke"/>
    <polygon points="81.1258,450.3416 73.9239,443.0441 80.4980,440.1080" fill="none" stroke="#d32f2f" stroke-width="1.0" vector-effect="non-scaling-stroke"/>
    <polygon points="53.9909,458.8765 50.1774,449.3593 57.3756,449.1984" fill="none" stroke="#d32f2f" stroke-width="1.0" vector-effect="non-scaling-stroke"/>
    <polygon points="26.5611,441.3936 34.6920,435.1478 36.7939,442.0342" fill="none" stroke="#d32f2f" stroke-width="1.0" vector-effect="non-scaling-stroke"/>
    <polygon points="51.4663,430.7331 61.6627,431.8064 58.4428,438.2463" fill="none" stroke="#d32f2f" stroke-width="1.0" vector-effect="non-scaling-stroke"/>
    <polygon points="226.0000,0.0000 235.6000,-3.6000 235.6000,3.6000" fill="none" stroke="#1976d2" stroke-width="1.0" vector-effect="non-scaling-stroke"/>
    <polygon points="226.0000,6.6569 235.6000,3.0569 235.6000,10.2569" fill="none" stroke="#1976d2" stroke-width="1.0" vector-effect="non-scaling-stroke"/>
    <polygon points="167.0000,55.4744 176.6000,51.8744 176.6000,59.0744" fill="none" stroke="#1976d2" stroke-width="1.0" vector-effect="non-scaling-stroke"/>
    <polygon points="160.5670,396.1106 170.7953,395.4024 168.7389,402.3025" fill="none" stroke="#1976d2" stroke-width="1.0" vector-effect="non-scaling-stroke"/>
    <polygon points="109.1983,440.3056 118.2826,445.0589 112.9172,449.8601" fill="none" stroke="#1976d2" stroke-width="1.0" vector-effect="non-scaling-stroke"/>
    <polygon points="53.8569,452.8780 57.6704,462.3952 50.4722,462.5560" fill="none" stroke="#1976d2" stroke-width="1.0" vector-effect="non-scaling-stroke"/>
    <polygon points="25.7431,448.6731 20.0209,457.1805 15.8380,451.3202" fill="none" stroke="#1976d2" stroke-width="1.0" vector-effect="non-scaling-stroke"/>
    <polygon points="5.8505,407.9252 -4.3460,406.8519 -1.1261,400.4120" fill="none" stroke="#1976d2" stroke-width="1.0" vector-effect="non-scaling-stroke"/>
    <polygon points="120.0000,0.0000 129.6000,-3.6000 129.6000,3.6000" fill="none" stroke="#388e3c" stroke-width="1.0" vector-effect="non-scaling-stroke"/>
    <polygon points="46.0997,428.0498 35.9032,426.9765 39.1232,420.5367" fill="none" stroke="#388e3c" stroke-width="1.0" vector-effect="non-scaling-stroke"/>
    <polygon points="120.0000,0.0000 129.6000,-3.6000 129.6000,3.6000" fill="none" stroke="#8e24aa" stroke-width="1.0" vector-effect="non-scaling-stroke"/>
    <polygon points="46.0997,428.0498 35.9032,426.9765 39.1232,420.5367" fill="none" stroke="#8e24aa" stroke-width="1.0" vector-effect="non-scaling-stroke"/>
    <circle cx="150.0000" cy="0.0000" r="3.00" fill="none" stroke="#f9a825" stroke-width="1.0" vector-effect="non-scaling-stroke"/>
    <circle cx="144.2751" cy="391.2553" r="3.00" fill="none" stroke="#f9a825" stroke-width="1.0" vector-effect="non-scaling-stroke"/>
    <circle cx="19.2669" cy="414.6334" r="3.00" fill="none" stroke="#f9a825" stroke-width="1.0" vector-effect="non-scaling-stroke"/>
  </g>
  </g>
  <text x="20" y="20" font-size="14" fill="#111">example=none view=compare solo=false</text>
  <g id="debug-legend">
    <text x="20" y="40" font-size="12" fill="#111">reference fill</text>
    <text x="20" y="56" font-size="12" fill="cyan">reference outline</text>
    <text x="20" y="72" font-size="12" fill="#111">ink fill</text>
  </g>
</svg>