<svg xmlns="http://www.w3.org/2000/svg" width="1600" height="1600" viewBox="-250.0000 -250.0000 1500.0000 1500.0000">

  <g id="reference-fill" opacity="0.2500" transform="matrix(1.000000 0.000000 -0.000000 1.000000 0.000000 0.000000)">

    <g transform="matrix(1,0,0,1,-723.651,-447.875)">
        <path d="M955.526,454.125L955.526,447.875L763.026,447.875L763.026,454.125C773.859,455.375 784.38,457.25 794.589,459.75C804.797,462.25 812.818,467.042 818.651,474.125C821.151,477.042 822.922,481.208 823.964,486.625C825.005,492.042 825.839,498.188 826.464,505.063C827.089,511.938 827.401,519.125 827.401,526.625L827.401,744.125C827.401,755.792 827.297,766.625 827.089,776.625C826.88,786.625 826.776,794.542 826.776,800.375C826.359,812.042 825.63,823.708 824.589,835.375C823.547,847.042 821.776,857.458 819.276,866.625C816.359,876.208 811.672,884.333 805.214,891C798.755,897.667 790.318,901 779.901,901C776.568,901 773.026,900.271 769.276,898.813C765.526,897.354 762.609,895.167 760.526,892.25L760.526,890.375C769.276,889.125 776.568,886.313 782.401,881.938C788.234,877.563 791.151,870.583 791.151,861C791.151,852.667 788.13,845.479 782.089,839.438C776.047,833.396 768.859,830.375 760.526,830.375C750.943,830.375 742.401,833.5 734.901,839.75C727.401,846 723.651,854.125 723.651,864.125C723.651,872.042 725.214,878.813 728.339,884.438C731.464,890.063 735.63,894.438 740.839,897.563C746.047,900.688 751.88,903.083 758.339,904.75C764.797,906.417 771.359,907.25 778.026,907.25C790.109,907.25 803.339,904.958 817.714,900.375C832.089,895.792 845.943,888.292 859.276,877.875C870.109,869.542 878.859,860.479 885.526,850.688C892.193,840.896 895.526,829.125 895.526,815.375L895.526,600.375C895.526,589.958 895.63,579.646 895.839,569.438C896.047,559.229 896.151,548.917 896.151,538.5C896.568,528.917 896.984,518.604 897.401,507.563C897.818,496.521 899.693,487.667 903.026,481C908.443,471 916.359,464.333 926.776,461C937.193,457.667 946.776,455.375 955.526,454.125Z" style="fill-rule:nonzero;"/>
    </g>

  </g>
  <g id="stroke-ink">
    <path d="M 0.4839 405.2420 L 0.8948 413.0943 L 1.9589 421.1621 L 3.9306 429.3760 L 7.1508 437.4795 L 9.3329 441.3169 L 10.5762 443.1349 L 11.2353 444.0113 L 11.9188 444.8631 L 12.2693 445.2786 L 12.4469 445.4845 L 12.5971 445.6558 L 12.6258 445.6882 L 13.3554 446.4844 L 14.8774 447.9826 L 18.1285 450.5537 L 20.8596 452.1589 L 21.3517 452.6454 L 23.9349 454.8314 L 29.4368 457.9802 L 34.9781 459.7231 L 40.3282 460.4159 L 45.4268 460.3461 L 50.2778 459.7085 L 53.9909 458.8765 L 54.9119 459.0204 L 59.5667 459.5247 L 69.0174 459.5483 L 78.5145 458.3972 L 83.2420 457.4168 L 84.1842 457.1896 L 87.9397 456.1792 L 97.2026 452.9595 L 106.2192 448.7826 L 113.1993 444.7768 L 115.1190 443.9146 L 124.5777 438.9587 L 133.7166 432.9536 L 142.4236 425.9502 L 150.5971 418.0222 L 158.1521 409.2667 L 165.0270 399.7951 L 166.3170 397.8242 L 166.4773 397.2828 L 167.2478 394.5674 L 168.6303 389.1248 L 170.7863 378.2283 L 172.1822 367.3747 L 172.8842 356.6159 L 172.9957 351.2859 L 173.0000 346.7151 L 173.0000 277.3721 L 173.0000 138.6860 L 173.0000 69.3430 L 173.0000 60.6751 L 173.0000 56.3412 L 173.0000 55.4744 L 173.9619 52.0073 L 176.6449 43.3394 L 179.8763 34.6715 L 184.0089 26.0036 L 186.6493 21.6697 L 189.9685 17.3358 L 192.0427 15.1688 L 194.5782 13.0018 L 197.9094 10.8348 L 200.1182 9.7514 L 203.0414 8.6679 L 205.0002 8.1261 L 206.2004 7.8553 L 207.6341 7.5844 L 208.4774 7.4490 L 209.4414 7.3135 L 210.2740 7.2117 L 210.5747 7.1781 L 211.9661 7.0427 L 213.8092 6.9072 L 216.7115 6.7718 L 232.0000 6.6569 L 232.0000 6.6363 L 232.0000 6.5009 L 232.0000 4.3339 L 232.0000 0.0000 L 39.0000 0.0000 L 39.0000 4.3339 L 39.0000 6.5009 L 39.0000 6.6363 L 39.0000 6.6569 L 39.0000 6.7718 L 39.0000 6.9072 L 39.0000 7.0427 L 39.0000 7.1781 L 39.0000 7.2117 L 55.1867 7.3135 L 58.5487 7.4490 L 60.6211 7.5844 L 63.4236 7.8553 L 65.4150 8.1261 L 68.3046 8.6679 L 72.1768 9.7514 L 74.9141 10.8348 L 78.8744 13.0018 L 81.8056 15.1688 L 84.1690 17.3358 L 87.9070 21.6697 L 90.8534 26.0036 L 95.4329 34.6715 L 98.9952 43.3394 L 101.9442 52.0073 L 103.0000 55.4744 L 103.0000 56.3412 L 103.0000 60.6751 L 103.0000 69.3430 L 103.0000 138.6860 L 103.0000 277.3721 L 103.0000 346.7151 L 102.9973 350.8141 L 102.9276 354.1490 L 102.5023 360.6875 L 101.6888 367.0239 L 100.4821 373.1306 L 99.7307 376.0892 L 99.3181 377.5434 L 99.2328 377.8317 L 99.4771 379.1679 L 100.3658 385.9517 L 100.6508 392.9050 L 100.2667 400.0071 L 99.1507 407.2191 L 97.2467 414.4844 L 94.5107 421.7278 L 93.8610 423.1660 L 90.9135 428.8577 L 86.4377 435.7709 L 81.0746 442.3521 L 78.6790 444.8631 L 77.9581 445.2489 L 74.2908 447.0650 L 66.6686 450.0855 L 58.7290 452.1660 L 54.6725 452.7906 L 53.8569 452.8780 L 50.6114 452.5287 L 46.6794 451.7652 L 42.9639 450.6076 L 39.5804 449.0309 L 36.6866 447.0391 L 34.4518 444.6910 L 33.6187 443.4155 L 33.4755 443.1540 L 32.9791 442.0886 L 32.5258 440.7156 L 32.3659 440.0123 L 32.3021 439.6563 L 32.2998 439.6420 L 40.2091 437.2042 L 41.5648 436.7826 L 43.0531 436.3395 L 44.7407 435.9015 L 45.8468 435.6810 L 47.3903 435.5017 L 49.3890 435.5268 L 51.8167 435.7241 L 53.5435 435.4564 L 55.1454 434.6498 L 56.8328 433.4164 L 0.4839 405.2420 Z" fill="black" stroke="none" />
  </g>

  <g id="debug-overlays">

  </g>
  <text x="20" y="20" font-size="14" fill="#111">example=none view=none solo=false</text>

</svg>