<svg xmlns="http://www.w3.org/2000/svg" width="1600" height="1600" viewBox="-250.0000 -250.0000 1500.0000 1500.0000">

  <g id="reference-fill" opacity="0.2500" transform="matrix(1.000000 0.000000 -0.000000 1.000000 0.000000 0.000000)">

    <g transform="matrix(1,0,0,1,-723.651,-447.875)">
        <path d="M955.526,454.125L955.526,447.875L763.026,447.875L763.026,454.125C773.859,455.375 784.38,457.25 794.589,459.75C804.797,462.25 812.818,467.042 818.651,474.125C821.151,477.042 822.922,481.208 823.964,486.625C825.005,492.042 825.839,498.188 826.464,505.063C827.089,511.938 827.401,519.125 827.401,526.625L827.401,744.125C827.401,755.792 827.297,766.625 827.089,776.625C826.88,786.625 826.776,794.542 826.776,800.375C826.359,812.042 825.63,823.708 824.589,835.375C823.547,847.042 821.776,857.458 819.276,866.625C816.359,876.208 811.672,884.333 805.214,891C798.755,897.667 790.318,901 779.901,901C776.568,901 773.026,900.271 769.276,898.813C765.526,897.354 762.609,895.167 760.526,892.25L760.526,890.375C769.276,889.125 776.568,886.313 782.401,881.938C788.234,877.563 791.151,870.583 791.151,861C791.151,852.667 788.13,845.479 782.089,839.438C776.047,833.396 768.859,830.375 760.526,830.375C750.943,830.375 742.401,833.5 734.901,839.75C727.401,846 723.651,854.125 723.651,864.125C723.651,872.042 725.214,878.813 728.339,884.438C731.464,890.063 735.63,894.438 740.839,897.563C746.047,900.688 751.88,903.083 758.339,904.75C764.797,906.417 771.359,907.25 778.026,907.25C790.109,907.25 803.339,904.958 817.714,900.375C832.089,895.792 845.943,888.292 859.276,877.875C870.109,869.542 878.859,860.479 885.526,850.688C892.193,840.896 895.526,829.125 895.526,815.375L895.526,600.375C895.526,589.958 895.63,579.646 895.839,569.438C896.047,559.229 896.151,548.917 896.151,538.5C896.568,528.917 896.984,518.604 897.401,507.563C897.818,496.521 899.693,487.667 903.026,481C908.443,471 916.359,464.333 926.776,461C937.193,457.667 946.776,455.375 955.526,454.125Z" style="fill-rule:nonzero;"/>
    </g>

  </g>
  <g id="stroke-ink">
    <path d="M 1.2832 416.2174 L 1.4716 406.8909 L 2.6696 398.1357 L 53.4261 438.7409 L 46.8230 436.0151 L 39.8920 434.1921 L 32.6323 433.8514 L 31.1569 434.0374 L 31.1193 434.1690 L 30.9522 434.8188 L 30.7235 436.0786 L 30.6368 437.2919 L 30.6967 438.4777 L 30.9154 439.6588 L 31.3116 440.8506 L 31.7681 441.8121 L 31.9024 442.0528 L 32.6944 443.2494 L 34.8516 445.5345 L 37.6483 447.5387 L 40.9137 449.1588 L 44.5015 450.3448 L 48.2953 451.0729 L 51.4162 451.3170 L 52.2064 451.2817 L 56.1472 450.8873 L 63.8535 449.0994 L 71.1355 446.1460 L 77.8219 442.2084 L 83.7886 437.4574 L 88.9568 432.0580 L 93.2931 426.1664 L 96.8093 419.9212 L 99.5550 413.4365 L 101.6074 406.7962 L 103.0575 400.0566 L 104.0012 393.2497 L 104.5318 386.3896 L 104.7364 379.4794 L 104.6950 372.5143 L 104.4812 365.4846 L 104.3626 362.6520 L 104.3121 361.9404 L 104.0500 358.3720 L 103.5009 351.1752 L 103.0000 337.3668 L 103.0000 333.8525 L 103.0000 316.2814 L 103.0000 281.1390 L 103.0000 140.5695 L 103.0000 70.2847 L 103.0000 56.2278 L 103.0000 52.7136 L 103.0000 44.9822 L 102.8433 43.9280 L 102.1840 39.5352 L 101.0183 35.1424 L 98.6825 30.7496 L 96.8684 28.5532 L 94.5128 26.3568 L 91.5328 24.1604 L 87.8455 21.9640 L 83.3677 19.7676 L 78.0167 17.5712 L 71.7093 15.3748 L 64.3626 13.1784 L 55.8937 10.9820 L 46.2196 8.7856 L 40.9047 7.6874 L 39.5244 7.4128 L 39.0000 7.3096 L 39.0000 7.2756 L 39.0000 7.1383 L 39.0000 6.5892 L 39.0000 4.3928 L 39.0000 0.0000 L 232.0000 0.0000 L 232.0000 4.3928 L 232.0000 6.5892 L 232.0000 7.1383 L 232.0000 7.2756 L 232.0000 7.3096 L 231.6275 7.4128 L 230.6449 7.6874 L 226.8281 8.7856 L 219.7262 10.9820 L 213.3038 13.1784 L 207.5253 15.3748 L 202.3553 17.5712 L 197.7583 19.7676 L 193.6987 21.9640 L 190.1411 24.1604 L 187.0500 26.3568 L 184.3899 28.5532 L 182.1253 30.7496 L 178.6406 35.1424 L 176.3120 39.5352 L 174.8555 43.9280 L 174.6041 44.9822 L 173.4230 52.7136 L 173.0000 56.2278 L 173.0000 70.2847 L 173.0000 140.5695 L 173.0000 281.1390 L 173.0000 316.2814 L 173.0000 333.8525 L 173.0000 337.3668 L 172.9940 351.6775 L 172.6757 362.1093 L 172.3222 367.3779 L 172.2348 368.4355 L 170.3696 372.5246 L 165.5065 382.5732 L 160.3088 392.3397 L 154.7173 401.7725 L 148.6782 410.8029 L 142.1487 419.3471 L 135.1038 427.3079 L 127.5425 434.5795 L 119.4924 441.0557 L 111.0082 446.6423 L 102.1683 451.2629 L 93.0653 454.8635 L 83.8001 457.4077 L 74.4784 458.8679 L 65.2148 459.2115 L 56.1483 458.3857 L 51.7483 457.5079 L 50.8834 457.2933 L 47.3476 457.1780 L 42.8351 457.0279 L 38.1414 456.7830 L 33.1698 456.2844 L 27.8145 455.2545 L 22.0190 453.2214 L 18.9919 451.6164 L 18.3821 451.2357 L 15.9263 449.5060 L 12.8770 446.8289 L 9.9878 443.5357 L 7.4118 439.6632 L 5.2652 435.3284 L 3.6009 430.6839 L 2.9491 428.2942 L 2.8327 427.8132 L 2.4122 425.8804 L 1.2832 416.2174 Z" fill="black" stroke="none" />
  </g>

  <g id="debug-overlays">

  </g>
  <text x="20" y="20" font-size="14" fill="#111">example=none view=none solo=false</text>

</svg>