<svg xmlns="http://www.w3.org/2000/svg" viewBox="-31.0148 -28.2215 58.0148 162.0808">
  <path d="M -21.0148 5.4026 L -20.7183 9.9204 L -20.8828 4.1215 L -18.2593 17.7178 L -20.2795 11.6805 L -14.6489 23.8329 L -18.0283 17.9900 L -16.5537 20.7553 L -14.9248 23.3101 L -6.3672 33.0077 L -11.3362 27.9044 L -9.3545 32.2637 L -10.0416 24.6149 L -9.8109 26.9293 L -8.9235 39.2274 L -9.4134 31.5772 L -8.7200 43.8954 L -9.0942 36.2454 L -8.9617 38.5855 L -8.8463 40.9291 L -8.4958 53.2724 L -8.6643 45.6247 L -8.5966 47.9761 L -8.5439 50.3294 L -8.5056 52.6844 L -8.5274 65.0407 L -8.5726 67.3979 L -8.6303 69.7558 L -8.7004 72.1142 L -8.7827 74.4729 L -8.8771 76.8319 L -8.9835 79.1908 L -9.1020 81.5496 L -9.2324 83.9081 L -8.8544 76.2797 L -8.9580 78.6400 L -9.0736 80.9998 L -9.2011 83.3590 L -9.3405 85.7174 L -9.4918 88.0750 L -9.1659 89.4952 L -11.2714 102.0401 L -10.2911 94.8336 L -10.7312 97.5320 L -11.0868 100.2456 L -11.3563 102.9709 L -11.5385 105.7041 L -11.6325 108.4416 L -11.6382 111.1793 L -10.5151 123.8593 L -11.3853 116.6405 L -11.1284 119.3566 L -10.7864 122.0583 L 8.8252 118.1359 L 8.5940 116.0361 L 9.7838 123.8426 L 8.3359 111.8327 L 8.3094 109.7318 L 8.7552 117.6251 L 8.4608 105.5385 L 8.6380 103.4485 L 8.8818 101.3646 L 9.1916 99.2877 L 9.5661 97.2189 L 10.0043 95.1592 L 10.5048 93.1094 L 10.4484 89.6206 L 10.6073 87.1618 L 10.0820 94.6798 L 10.8878 82.2423 L 11.0094 79.7815 L 10.5983 87.3066 L 11.2150 74.8580 L 10.8805 82.3864 L 11.3700 69.9316 L 11.4282 67.4673 L 11.4733 65.0021 L 11.5051 62.5362 L 11.5234 60.0693 L 11.5279 57.6015 L 11.5184 55.1327 L 11.4944 52.6630 L 11.4557 50.1922 L 11.5297 57.7194 L 11.5210 55.2452 L 11.2463 42.7726 L 11.1437 40.2968 L 11.0237 37.8195 L 10.8854 35.3407 L 10.7280 32.8602 L 10.5506 30.3778 L 10.3520 27.8935 L 10.8922 35.3779 L 9.8863 22.9180 L 9.6160 20.4264 L 2.6651 13.6227 L 1.4682 12.0647 L 6.8313 18.1456 L -0.4696 8.8682 L -1.1501 7.2603 L -1.5869 5.6840 L -1.7352 4.1898 L -1.5530 2.8551 L 0.1478 11.7185 L -0.1698 1.1021 L 0.8798 0.8612 L -2.5765 9.8848 L -3.2436 9.0310 L 4.0965 1.4640 L 5.2581 1.5733 L 6.5676 1.5964 L -1.4460 4.7694 L 9.6375 1.5750 L 1.4928 3.2358 L 13.1715 1.6751 L 5.0687 2.2826 L 17.0000 2.0000 L 17.0000 -18.0000 L 14.1067 -18.1702 L 11.1401 -18.2215 L 8.0872 -18.1304 L 4.9328 -17.8638 L -7.8191 -14.1880 L -10.8427 -12.4351 L -5.2931 -15.4171 L -8.9360 -13.7068 L -12.5430 -11.3042 L -15.8369 -8.1197 L -21.0148 5.4026 Z" fill="none" stroke="black" stroke-width="1" />
  <g id="debug">
    <path d="M 12.0000 -8.0000 L 9.5877 -7.9438 L 7.1817 -7.7654 L 4.7900 -7.4473 L 2.4255 -6.9683 L 0.1068 -6.3025 L -2.1376 -5.4194 L -4.2650 -4.2841 L -6.2125 -2.8632 L -7.8933 -1.1366 L -9.2067 0.8826 L -10.0675 3.1319 L -10.4440 5.5113 L -10.3675 7.9200 L -9.9061 10.2864 L -9.1347 12.5712 L -8.1179 14.7584 L -6.9067 16.8447 L -5.5399 18.8328 L -4.0468 20.7278 L -2.4495 22.5362 L -0.7652 24.2639 L 0.1308 26.3450 L 0.3465 28.7484 L 0.5407 31.1536 L 0.7143 33.5604 L 0.8684 35.9685 L 1.0040 38.3778 L 1.1218 40.7879 L 1.2225 43.1989 L 1.3068 45.6104 L 1.3753 48.0225 L 1.4283 50.4350 L 1.4665 52.8477 L 1.4902 55.2606 L 1.4998 57.6737 L 1.4955 60.0867 L 1.4777 62.4997 L 1.4465 64.9125 L 1.4024 67.3252 L 1.3453 69.7375 L 1.2756 72.1496 L 1.1932 74.5612 L 1.0985 76.9724 L 0.9913 79.3831 L 0.8719 81.7932 L 0.7403 84.2026 L 0.5965 86.6114 L 0.4405 89.0194 L 0.2723 91.4265 L 0.0919 93.8328 L -0.2341 96.2200 L -0.6335 98.5997 L -0.9589 100.9906 L -1.2088 103.3905 L -1.3822 105.7972 L -1.4786 108.2083 L -1.4974 110.6211 L -1.4387 113.0333 L -1.3025 115.4424 L -1.0896 117.8460 L -0.8007 120.2416 L -0.4371 122.6270 L 0.0000 125.0000" fill="none" stroke="orange" stroke-width="0.6" />
    <path d="M 17.0000 2.0000 L 5.0687 2.2826 L 13.1715 1.6751 L 1.4928 3.2358 L 9.6375 1.5750 L -1.4460 4.7694 L 6.5676 1.5964 L 5.2581 1.5733 L 4.0965 1.4640 L -3.2436 9.0310 L -2.5765 9.8848 L 0.8798 0.8612 L -0.1698 1.1021 L 0.1478 11.7185 L -1.5530 2.8551 L -1.7352 4.1898 L -1.5869 5.6840 L -1.1501 7.2603 L -0.4696 8.8682 L 6.8313 18.1456 L 1.4682 12.0647 L 2.6651 13.6227 L 9.6160 20.4264 L 9.8863 22.9180 L 10.8922 35.3779 L 10.3520 27.8935 L 10.5506 30.3778 L 10.7280 32.8602 L 10.8854 35.3407 L 11.0237 37.8195 L 11.1437 40.2968 L 11.2463 42.7726 L 11.5210 55.2452 L 11.5297 57.7194 L 11.4557 50.1922 L 11.4944 52.6630 L 11.5184 55.1327 L 11.5279 57.6015 L 11.5234 60.0693 L 11.5051 62.5362 L 11.4733 65.0021 L 11.4282 67.4673 L 11.3700 69.9316 L 10.8805 82.3864 L 11.2150 74.8580 L 10.5983 87.3066 L 11.0094 79.7815 L 10.8878 82.2423 L 10.0820 94.6798 L 10.6073 87.1618 L 10.4484 89.6206 L 10.5048 93.1094 L 10.0043 95.1592 L 9.5661 97.2189 L 9.1916 99.2877 L 8.8818 101.3646 L 8.6380 103.4485 L 8.4608 105.5385 L 8.7552 117.6251 L 8.3094 109.7318 L 8.3359 111.8327 L 9.7838 123.8426 L 8.5940 116.0361 L 8.8252 118.1359" fill="none" stroke="green" stroke-width="0.6" />
    <path d="M 17.0000 -18.0000 L 14.1067 -18.1702 L 11.1401 -18.2215 L 8.0872 -18.1304 L 4.9328 -17.8638 L -7.8191 -14.1880 L -10.8427 -12.4351 L -5.2931 -15.4171 L -8.9360 -13.7068 L -12.5430 -11.3042 L -15.8369 -8.1197 L -21.0148 5.4026 L -20.7183 9.9204 L -20.8828 4.1215 L -18.2593 17.7178 L -20.2795 11.6805 L -14.6489 23.8329 L -18.0283 17.9900 L -16.5537 20.7553 L -14.9248 23.3101 L -6.3672 33.0077 L -11.3362 27.9044 L -9.3545 32.2637 L -10.0416 24.6149 L -9.8109 26.9293 L -8.9235 39.2274 L -9.4134 31.5772 L -8.7200 43.8954 L -9.0942 36.2454 L -8.9617 38.5855 L -8.8463 40.9291 L -8.4958 53.2724 L -8.6643 45.6247 L -8.5966 47.9761 L -8.5439 50.3294 L -8.5056 52.6844 L -8.5274 65.0407 L -8.5726 67.3979 L -8.6303 69.7558 L -8.7004 72.1142 L -8.7827 74.4729 L -8.8771 76.8319 L -8.9835 79.1908 L -9.1020 81.5496 L -9.2324 83.9081 L -8.8544 76.2797 L -8.9580 78.6400 L -9.0736 80.9998 L -9.2011 83.3590 L -9.3405 85.7174 L -9.4918 88.0750 L -9.1659 89.4952 L -11.2714 102.0401 L -10.2911 94.8336 L -10.7312 97.5320 L -11.0868 100.2456 L -11.3563 102.9709 L -11.5385 105.7041 L -11.6325 108.4416 L -11.6382 111.1793 L -10.5151 123.8593 L -11.3853 116.6405 L -11.1284 119.3566 L -10.7864 122.0583" fill="none" stroke="green" stroke-width="0.6" />
    <line x1="12.0000" y1="-8.0000" x2="12.0000" y2="-18.0000" stroke="purple" stroke-width="0.5"/>
    <line x1="9.5877" y1="-7.9438" x2="9.1123" y2="-17.9325" stroke="purple" stroke-width="0.5"/>
    <line x1="7.1817" y1="-7.7654" x2="6.1660" y2="-17.7137" stroke="purple" stroke-width="0.5"/>
    <line x1="4.7900" y1="-7.4473" x2="3.1545" y2="-17.3126" stroke="purple" stroke-width="0.5"/>
    <line x1="2.4255" y1="-6.9683" x2="0.0731" y2="-16.6876" stroke="purple" stroke-width="0.5"/>
    <line x1="0.1068" y1="-6.3025" x2="-3.0797" y2="-15.7813" stroke="purple" stroke-width="0.5"/>
    <line x1="-2.1376" y1="-5.4194" x2="-6.2954" y2="-14.5140" stroke="purple" stroke-width="0.5"/>
    <line x1="-4.2650" y1="-4.2841" x2="-9.5407" y2="-12.7793" stroke="purple" stroke-width="0.5"/>
    <line x1="-6.2125" y1="-2.8632" x2="-12.7287" y2="-10.4486" stroke="purple" stroke-width="0.5"/>
    <line x1="-7.8933" y1="-1.1366" x2="-15.6801" y2="-7.4108" stroke="purple" stroke-width="0.5"/>
    <line x1="-9.2067" y1="0.8826" x2="-18.1118" y2="-3.6671" stroke="purple" stroke-width="0.5"/>
    <line x1="-10.0675" y1="3.1319" x2="-19.7336" y2="0.5696" stroke="purple" stroke-width="0.5"/>
    <line x1="-10.4440" y1="5.5113" x2="-20.4271" y2="4.9289" stroke="purple" stroke-width="0.5"/>
    <line x1="-10.3675" y1="7.9200" x2="-20.2991" y2="9.0873" stroke="purple" stroke-width="0.5"/>
    <line x1="-9.9061" y1="10.2864" x2="-19.5612" y2="12.8902" stroke="purple" stroke-width="0.5"/>
    <line x1="-9.1347" y1="12.5712" x2="-18.4068" y2="16.3165" stroke="purple" stroke-width="0.5"/>
    <line x1="-8.1179" y1="14.7584" x2="-16.9725" y2="19.4056" stroke="purple" stroke-width="0.5"/>
    <line x1="-6.9067" y1="16.8447" x2="-15.3458" y2="22.2095" stroke="purple" stroke-width="0.5"/>
    <line x1="-5.5399" y1="18.8328" x2="-13.5819" y2="24.7763" stroke="purple" stroke-width="0.5"/>
    <line x1="-4.0468" y1="20.7278" x2="-11.7163" y2="27.1449" stroke="purple" stroke-width="0.5"/>
    <line x1="-2.4495" y1="22.5362" x2="-9.7722" y2="29.3463" stroke="purple" stroke-width="0.5"/>
    <line x1="-0.7652" y1="24.2639" x2="-7.7658" y2="31.4047" stroke="purple" stroke-width="0.5"/>
    <line x1="0.1308" y1="26.3450" x2="-9.8249" y2="27.2858" stroke="purple" stroke-width="0.5"/>
    <line x1="0.3465" y1="28.7484" x2="-9.6174" y2="29.5969" stroke="purple" stroke-width="0.5"/>
    <line x1="0.5407" y1="31.1536" x2="-9.4303" y2="31.9148" stroke="purple" stroke-width="0.5"/>
    <line x1="0.7143" y1="33.5604" x2="-9.2627" y2="34.2389" stroke="purple" stroke-width="0.5"/>
    <line x1="0.8684" y1="35.9685" x2="-9.1136" y2="36.5682" stroke="purple" stroke-width="0.5"/>
    <line x1="1.0040" y1="38.3778" x2="-8.9823" y2="38.9022" stroke="purple" stroke-width="0.5"/>
    <line x1="1.1218" y1="40.7879" x2="-8.8680" y2="41.2403" stroke="purple" stroke-width="0.5"/>
    <line x1="1.2225" y1="43.1989" x2="-8.7702" y2="43.5819" stroke="purple" stroke-width="0.5"/>
    <line x1="1.3068" y1="45.6104" x2="-8.6882" y2="45.9266" stroke="purple" stroke-width="0.5"/>
    <line x1="1.3753" y1="48.0225" x2="-8.6216" y2="48.2740" stroke="purple" stroke-width="0.5"/>
    <line x1="1.4283" y1="50.4350" x2="-8.5699" y2="50.6238" stroke="purple" stroke-width="0.5"/>
    <line x1="1.4665" y1="52.8477" x2="-8.5326" y2="52.9756" stroke="purple" stroke-width="0.5"/>
    <line x1="1.4902" y1="55.2606" x2="-8.5095" y2="55.3293" stroke="purple" stroke-width="0.5"/>
    <line x1="1.4998" y1="57.6737" x2="-8.5002" y2="57.6844" stroke="purple" stroke-width="0.5"/>
    <line x1="1.4955" y1="60.0867" x2="-8.5044" y2="60.0407" stroke="purple" stroke-width="0.5"/>
    <line x1="1.4777" y1="62.4997" x2="-8.5218" y2="62.3982" stroke="purple" stroke-width="0.5"/>
    <line x1="1.4465" y1="64.9125" x2="-8.5522" y2="64.7564" stroke="purple" stroke-width="0.5"/>
    <line x1="1.4024" y1="67.3252" x2="-8.5954" y2="67.1153" stroke="purple" stroke-width="0.5"/>
    <line x1="1.3453" y1="69.7375" x2="-8.6512" y2="69.4747" stroke="purple" stroke-width="0.5"/>
    <line x1="1.2756" y1="72.1496" x2="-8.7195" y2="71.8344" stroke="purple" stroke-width="0.5"/>
    <line x1="1.1932" y1="74.5612" x2="-8.8000" y2="74.1942" stroke="purple" stroke-width="0.5"/>
    <line x1="1.0985" y1="76.9724" x2="-8.8928" y2="76.5540" stroke="purple" stroke-width="0.5"/>
    <line x1="0.9913" y1="79.3831" x2="-8.9976" y2="78.9136" stroke="purple" stroke-width="0.5"/>
    <line x1="0.8719" y1="81.7932" x2="-9.1145" y2="81.2730" stroke="purple" stroke-width="0.5"/>
    <line x1="0.7403" y1="84.2026" x2="-9.2434" y2="83.6318" stroke="purple" stroke-width="0.5"/>
    <line x1="0.5965" y1="86.6114" x2="-9.3842" y2="85.9901" stroke="purple" stroke-width="0.5"/>
    <line x1="0.4405" y1="89.0194" x2="-9.5369" y2="88.3477" stroke="purple" stroke-width="0.5"/>
    <line x1="0.2723" y1="91.4265" x2="-9.7016" y2="90.7043" stroke="purple" stroke-width="0.5"/>
    <line x1="0.0919" y1="93.8328" x2="-9.8782" y2="93.0600" stroke="purple" stroke-width="0.5"/>
    <line x1="-0.2341" y1="96.2200" x2="-10.0694" y2="94.4129" stroke="purple" stroke-width="0.5"/>
    <line x1="-0.6335" y1="98.5997" x2="-10.5200" y2="97.0969" stroke="purple" stroke-width="0.5"/>
    <line x1="-0.9589" y1="100.9906" x2="-10.8875" y2="99.7979" stroke="purple" stroke-width="0.5"/>
    <line x1="-1.2088" y1="103.3905" x2="-11.1702" y2="102.5127" stroke="purple" stroke-width="0.5"/>
    <line x1="-1.3822" y1="105.7972" x2="-11.3666" y2="105.2377" stroke="purple" stroke-width="0.5"/>
    <line x1="-1.4786" y1="108.2083" x2="-11.4757" y2="107.9694" stroke="purple" stroke-width="0.5"/>
    <line x1="-1.4974" y1="110.6211" x2="-11.4971" y2="110.7039" stroke="purple" stroke-width="0.5"/>
    <line x1="-1.4387" y1="113.0333" x2="-11.4305" y2="113.4375" stroke="purple" stroke-width="0.5"/>
    <line x1="-1.3025" y1="115.4424" x2="-11.2763" y2="116.1662" stroke="purple" stroke-width="0.5"/>
    <line x1="-1.0896" y1="117.8460" x2="-11.0353" y2="118.8864" stroke="purple" stroke-width="0.5"/>
    <line x1="-0.8007" y1="120.2416" x2="-10.7088" y2="121.5946" stroke="purple" stroke-width="0.5"/>
    <line x1="-0.4371" y1="122.6270" x2="-10.2983" y2="124.2872" stroke="purple" stroke-width="0.5"/>
    <line x1="0.0000" y1="125.0000" x2="-9.8058" y2="126.9612" stroke="purple" stroke-width="0.5"/>
    <circle cx="12.0000" cy="-8.0000" r="1.2" fill="none" stroke="blue" stroke-width="0.5"/>
    <circle cx="9.5877" cy="-7.9438" r="1.2" fill="none" stroke="blue" stroke-width="0.5"/>
    <circle cx="7.1817" cy="-7.7654" r="1.2" fill="none" stroke="blue" stroke-width="0.5"/>
    <circle cx="4.7900" cy="-7.4473" r="1.2" fill="none" stroke="blue" stroke-width="0.5"/>
    <circle cx="2.4255" cy="-6.9683" r="1.2" fill="none" stroke="blue" stroke-width="0.5"/>
    <circle cx="0.1068" cy="-6.3025" r="1.2" fill="none" stroke="blue" stroke-width="0.5"/>
    <circle cx="-2.1376" cy="-5.4194" r="1.2" fill="none" stroke="blue" stroke-width="0.5"/>
    <circle cx="-4.2650" cy="-4.2841" r="1.2" fill="none" stroke="blue" stroke-width="0.5"/>
    <circle cx="-6.2125" cy="-2.8632" r="1.2" fill="none" stroke="blue" stroke-width="0.5"/>
    <circle cx="-7.8933" cy="-1.1366" r="1.2" fill="none" stroke="blue" stroke-width="0.5"/>
    <circle cx="-9.2067" cy="0.8826" r="1.2" fill="none" stroke="blue" stroke-width="0.5"/>
    <circle cx="-10.0675" cy="3.1319" r="1.2" fill="none" stroke="blue" stroke-width="0.5"/>
    <circle cx="-10.4440" cy="5.5113" r="1.2" fill="none" stroke="blue" stroke-width="0.5"/>
    <circle cx="-10.3675" cy="7.9200" r="1.2" fill="none" stroke="blue" stroke-width="0.5"/>
    <circle cx="-9.9061" cy="10.2864" r="1.2" fill="none" stroke="blue" stroke-width="0.5"/>
    <circle cx="-9.1347" cy="12.5712" r="1.2" fill="none" stroke="blue" stroke-width="0.5"/>
    <circle cx="-8.1179" cy="14.7584" r="1.2" fill="none" stroke="blue" stroke-width="0.5"/>
    <circle cx="-6.9067" cy="16.8447" r="1.2" fill="none" stroke="blue" stroke-width="0.5"/>
    <circle cx="-5.5399" cy="18.8328" r="1.2" fill="none" stroke="blue" stroke-width="0.5"/>
    <circle cx="-4.0468" cy="20.7278" r="1.2" fill="none" stroke="blue" stroke-width="0.5"/>
    <circle cx="-2.4495" cy="22.5362" r="1.2" fill="none" stroke="blue" stroke-width="0.5"/>
    <circle cx="-0.7652" cy="24.2639" r="1.2" fill="none" stroke="blue" stroke-width="0.5"/>
    <circle cx="0.1308" cy="26.3450" r="1.2" fill="none" stroke="blue" stroke-width="0.5"/>
    <circle cx="0.3465" cy="28.7484" r="1.2" fill="none" stroke="blue" stroke-width="0.5"/>
    <circle cx="0.5407" cy="31.1536" r="1.2" fill="none" stroke="blue" stroke-width="0.5"/>
    <circle cx="0.7143" cy="33.5604" r="1.2" fill="none" stroke="blue" stroke-width="0.5"/>
    <circle cx="0.8684" cy="35.9685" r="1.2" fill="none" stroke="blue" stroke-width="0.5"/>
    <circle cx="1.0040" cy="38.3778" r="1.2" fill="none" stroke="blue" stroke-width="0.5"/>
    <circle cx="1.1218" cy="40.7879" r="1.2" fill="none" stroke="blue" stroke-width="0.5"/>
    <circle cx="1.2225" cy="43.1989" r="1.2" fill="none" stroke="blue" stroke-width="0.5"/>
    <circle cx="1.3068" cy="45.6104" r="1.2" fill="none" stroke="blue" stroke-width="0.5"/>
    <circle cx="1.3753" cy="48.0225" r="1.2" fill="none" stroke="blue" stroke-width="0.5"/>
    <circle cx="1.4283" cy="50.4350" r="1.2" fill="none" stroke="blue" stroke-width="0.5"/>
    <circle cx="1.4665" cy="52.8477" r="1.2" fill="none" stroke="blue" stroke-width="0.5"/>
    <circle cx="1.4902" cy="55.2606" r="1.2" fill="none" stroke="blue" stroke-width="0.5"/>
    <circle cx="1.4998" cy="57.6737" r="1.2" fill="none" stroke="blue" stroke-width="0.5"/>
    <circle cx="1.4955" cy="60.0867" r="1.2" fill="none" stroke="blue" stroke-width="0.5"/>
    <circle cx="1.4777" cy="62.4997" r="1.2" fill="none" stroke="blue" stroke-width="0.5"/>
    <circle cx="1.4465" cy="64.9125" r="1.2" fill="none" stroke="blue" stroke-width="0.5"/>
    <circle cx="1.4024" cy="67.3252" r="1.2" fill="none" stroke="blue" stroke-width="0.5"/>
    <circle cx="1.3453" cy="69.7375" r="1.2" fill="none" stroke="blue" stroke-width="0.5"/>
    <circle cx="1.2756" cy="72.1496" r="1.2" fill="none" stroke="blue" stroke-width="0.5"/>
    <circle cx="1.1932" cy="74.5612" r="1.2" fill="none" stroke="blue" stroke-width="0.5"/>
    <circle cx="1.0985" cy="76.9724" r="1.2" fill="none" stroke="blue" stroke-width="0.5"/>
    <circle cx="0.9913" cy="79.3831" r="1.2" fill="none" stroke="blue" stroke-width="0.5"/>
    <circle cx="0.8719" cy="81.7932" r="1.2" fill="none" stroke="blue" stroke-width="0.5"/>
    <circle cx="0.7403" cy="84.2026" r="1.2" fill="none" stroke="blue" stroke-width="0.5"/>
    <circle cx="0.5965" cy="86.6114" r="1.2" fill="none" stroke="blue" stroke-width="0.5"/>
    <circle cx="0.4405" cy="89.0194" r="1.2" fill="none" stroke="blue" stroke-width="0.5"/>
    <circle cx="0.2723" cy="91.4265" r="1.2" fill="none" stroke="blue" stroke-width="0.5"/>
    <circle cx="0.0919" cy="93.8328" r="1.2" fill="none" stroke="blue" stroke-width="0.5"/>
    <circle cx="-0.2341" cy="96.2200" r="1.2" fill="none" stroke="blue" stroke-width="0.5"/>
    <circle cx="-0.6335" cy="98.5997" r="1.2" fill="none" stroke="blue" stroke-width="0.5"/>
    <circle cx="-0.9589" cy="100.9906" r="1.2" fill="none" stroke="blue" stroke-width="0.5"/>
    <circle cx="-1.2088" cy="103.3905" r="1.2" fill="none" stroke="blue" stroke-width="0.5"/>
    <circle cx="-1.3822" cy="105.7972" r="1.2" fill="none" stroke="blue" stroke-width="0.5"/>
    <circle cx="-1.4786" cy="108.2083" r="1.2" fill="none" stroke="blue" stroke-width="0.5"/>
    <circle cx="-1.4974" cy="110.6211" r="1.2" fill="none" stroke="blue" stroke-width="0.5"/>
    <circle cx="-1.4387" cy="113.0333" r="1.2" fill="none" stroke="blue" stroke-width="0.5"/>
    <circle cx="-1.3025" cy="115.4424" r="1.2" fill="none" stroke="blue" stroke-width="0.5"/>
    <circle cx="-1.0896" cy="117.8460" r="1.2" fill="none" stroke="blue" stroke-width="0.5"/>
    <circle cx="-0.8007" cy="120.2416" r="1.2" fill="none" stroke="blue" stroke-width="0.5"/>
    <circle cx="-0.4371" cy="122.6270" r="1.2" fill="none" stroke="blue" stroke-width="0.5"/>
    <circle cx="0.0000" cy="125.0000" r="1.2" fill="none" stroke="blue" stroke-width="0.5"/>
  </g>
</svg>