<svg xmlns="http://www.w3.org/2000/svg" viewBox="-31.2368 -27.5290 56.3718 163.6602">
  <path d="M -21.2368 5.7281 L -21.0786 9.6992 L -20.3966 13.3377 L -19.3471 16.6547 L -18.0380 19.6879 L -16.5408 22.4788 L -14.9031 25.0637 L -13.1573 27.4733 L -11.3261 29.7318 L -11.5639 23.6824 L -11.4202 25.9471 L -11.2980 28.2173 L -11.1962 30.4922 L -11.1137 32.7709 L -11.0496 35.0528 L -11.0030 37.3373 L -10.8421 39.6081 L -10.6262 41.8759 L -10.4254 44.1493 L -10.2436 46.4407 L -10.0807 48.7494 L -9.9321 51.0619 L -9.7973 53.3778 L -9.6762 55.6968 L -9.5682 58.0188 L -9.4733 60.3433 L -9.3911 62.6703 L -9.3215 64.9994 L -9.2643 67.3305 L -9.2193 69.6633 L -9.1863 71.9978 L -9.1654 74.3337 L -9.1563 76.6709 L -9.1590 79.0093 L -9.1734 81.3486 L -9.1995 83.6888 L -9.2373 86.0297 L -9.2868 88.3713 L -8.8884 89.8060 L -9.3773 92.4476 L -9.7869 95.1043 L -10.1122 97.7725 L -10.3416 100.4471 L -10.4827 103.1253 L -10.5405 105.8043 L -10.5181 108.4817 L -10.4177 111.1547 L -10.2408 113.8209 L -9.9884 116.4778 L -9.6615 119.1227 L -9.2612 121.7532 L 7.3001 118.4410 L 8.7874 126.1312 L 8.3869 124.0054 L 8.0616 121.8710 L 7.8127 119.7302 L 7.6408 117.5850 L 7.5456 115.4379 L 7.5255 113.2913 L 7.5771 111.1474 L 7.6947 109.0086 L 7.8692 106.8769 L 8.1102 104.7517 L 8.4203 102.6340 L 9.4707 99.2944 L 9.7819 96.8233 L 10.0805 94.3499 L 10.3663 91.8741 L 10.6395 89.3959 L 10.9001 86.9154 L 11.1480 84.4324 L 11.3833 81.9470 L 11.6057 79.4591 L 11.8154 76.9687 L 12.0122 74.4757 L 12.1959 71.9801 L 12.3664 69.4817 L 12.5235 66.9806 L 12.6671 64.4766 L 12.7969 61.9696 L 12.9125 59.4594 L 13.0138 56.9460 L 13.1003 54.4292 L 13.1759 51.8958 L 13.2399 49.3450 L 13.2871 46.7896 L 13.2466 44.2386 L 13.0576 41.7027 L 12.8506 39.1662 L 12.6248 36.6286 L 12.3793 34.0899 L 12.1133 31.5497 L 11.8254 29.0077 L 9.7958 18.7959 L 8.2584 17.5991 L 6.8096 16.3919 L 5.4609 15.1868 L 4.2245 14.0015 L 3.1113 12.8622 L 2.1272 11.8047 L 1.2663 10.8737 L 0.5018 10.1119 L -0.2168 9.5301 L -0.9324 9.0585 L -1.6048 8.5400 L -2.0750 7.8327 L -2.1646 6.9254 L -1.7958 5.9155 L -0.9972 4.9141 L 0.1546 3.9957 L 1.5787 3.1974 L 3.2077 2.5317 L 4.9892 1.9982 L 6.8844 1.5905 L 8.8650 1.2996 L 15.1350 -17.2996 L 12.2910 -17.4781 L 9.3741 -17.5290 L 6.3723 -17.4262 L 3.2722 -17.1339 L 0.0591 -16.6008 L -3.2780 -15.7528 L -6.7343 -14.4837 L -10.2603 -12.6519 L -13.7116 -10.1060 L -16.8085 -6.7749 L -19.2026 -2.7946 L -20.6713 1.4925 L -21.2368 5.7281 Z" fill="none" stroke="black" stroke-width="1" />
  <g id="debug">
    <path d="M 12.0000 -8.0000 L 9.5877 -7.9438 L 7.1817 -7.7654 L 4.7900 -7.4473 L 2.4255 -6.9683 L 0.1068 -6.3025 L -2.1376 -5.4194 L -4.2650 -4.2841 L -6.2125 -2.8632 L -7.8933 -1.1366 L -9.2067 0.8826 L -10.0675 3.1319 L -10.4440 5.5113 L -10.3675 7.9200 L -9.9061 10.2864 L -9.1347 12.5712 L -8.1179 14.7584 L -6.9067 16.8447 L -5.5399 18.8328 L -4.0468 20.7278 L -2.4495 22.5362 L -0.7652 24.2639 L 0.1308 26.3450 L 0.3465 28.7484 L 0.5407 31.1536 L 0.7143 33.5604 L 0.8684 35.9685 L 1.0040 38.3778 L 1.1218 40.7879 L 1.2225 43.1989 L 1.3068 45.6104 L 1.3753 48.0225 L 1.4283 50.4350 L 1.4665 52.8477 L 1.4902 55.2606 L 1.4998 57.6737 L 1.4955 60.0867 L 1.4777 62.4997 L 1.4465 64.9125 L 1.4024 67.3252 L 1.3453 69.7375 L 1.2756 72.1496 L 1.1932 74.5612 L 1.0985 76.9724 L 0.9913 79.3831 L 0.8719 81.7932 L 0.7403 84.2026 L 0.5965 86.6114 L 0.4405 89.0194 L 0.2723 91.4265 L 0.0919 93.8328 L -0.2341 96.2200 L -0.6335 98.5997 L -0.9589 100.9906 L -1.2088 103.3905 L -1.3822 105.7972 L -1.4786 108.2083 L -1.4974 110.6211 L -1.4387 113.0333 L -1.3025 115.4424 L -1.0896 117.8460 L -0.8007 120.2416 L -0.4371 122.6270 L 0.0000 125.0000" fill="none" stroke="orange" stroke-width="0.6" />
    <path d="M 8.8650 1.2996 L 6.8844 1.5905 L 4.9892 1.9982 L 3.2077 2.5317 L 1.5787 3.1974 L 0.1546 3.9957 L -0.9972 4.9141 L -1.7958 5.9155 L -2.1646 6.9254 L -2.0750 7.8327 L -1.6048 8.5400 L -0.9324 9.0585 L -0.2168 9.5301 L 0.5018 10.1119 L 1.2663 10.8737 L 2.1272 11.8047 L 3.1113 12.8622 L 4.2245 14.0015 L 5.4609 15.1868 L 6.8096 16.3919 L 8.2584 17.5991 L 9.7958 18.7959 L 11.8254 29.0077 L 12.1133 31.5497 L 12.3793 34.0899 L 12.6248 36.6286 L 12.8506 39.1662 L 13.0576 41.7027 L 13.2466 44.2386 L 13.2871 46.7896 L 13.2399 49.3450 L 13.1759 51.8958 L 13.1003 54.4292 L 13.0138 56.9460 L 12.9125 59.4594 L 12.7969 61.9696 L 12.6671 64.4766 L 12.5235 66.9806 L 12.3664 69.4817 L 12.1959 71.9801 L 12.0122 74.4757 L 11.8154 76.9687 L 11.6057 79.4591 L 11.3833 81.9470 L 11.1480 84.4324 L 10.9001 86.9154 L 10.6395 89.3959 L 10.3663 91.8741 L 10.0805 94.3499 L 9.7819 96.8233 L 9.4707 99.2944 L 8.4203 102.6340 L 8.1102 104.7517 L 7.8692 106.8769 L 7.6961 109.0084 L 7.5868 111.1459 L 7.5454 113.2875 L 7.5745 115.4317 L 7.6754 117.5766 L 7.8487 119.7203 L 8.0945 121.8610 L 8.4124 123.9968 L 8.8017 126.1260 L 7.3001 118.4410" fill="none" stroke="green" stroke-width="0.6" />
    <path d="M 15.1350 -17.2996 L 12.2910 -17.4781 L 9.3741 -17.5290 L 6.3723 -17.4262 L 3.2722 -17.1339 L 0.0591 -16.6008 L -3.2780 -15.7528 L -6.7343 -14.4837 L -10.2603 -12.6519 L -13.7116 -10.1060 L -16.8085 -6.7749 L -19.2026 -2.7946 L -20.6713 1.4925 L -21.2368 5.7281 L -21.0786 9.6992 L -20.3966 13.3377 L -19.3471 16.6547 L -18.0380 19.6879 L -16.5408 22.4788 L -14.9031 25.0637 L -13.1573 27.4733 L -11.3261 29.7318 L -11.5639 23.6824 L -11.4202 25.9471 L -11.2980 28.2173 L -11.1962 30.4922 L -11.1137 32.7709 L -11.0496 35.0528 L -11.0030 37.3373 L -10.8421 39.6081 L -10.6262 41.8759 L -10.4254 44.1493 L -10.2436 46.4407 L -10.0807 48.7494 L -9.9321 51.0619 L -9.7973 53.3778 L -9.6762 55.6968 L -9.5682 58.0188 L -9.4733 60.3433 L -9.3911 62.6703 L -9.3215 64.9994 L -9.2643 67.3305 L -9.2193 69.6633 L -9.1863 71.9978 L -9.1654 74.3337 L -9.1563 76.6709 L -9.1590 79.0093 L -9.1734 81.3486 L -9.1995 83.6888 L -9.2373 86.0297 L -9.2868 88.3713 L -8.8884 89.8060 L -9.3773 92.4476 L -9.7869 95.1043 L -10.1137 97.7727 L -10.3512 100.4486 L -10.5026 103.1290 L -10.5693 105.8105 L -10.5527 108.4901 L -10.4538 111.1646 L -10.2737 113.8310 L -10.0139 116.4863 L -9.6758 119.1279 L -9.2612 121.7532" fill="none" stroke="green" stroke-width="0.6" />
    <line x1="12.0000" y1="-8.0000" x2="12.0000" y2="-18.0000" stroke="purple" stroke-width="0.5"/>
    <line x1="9.5877" y1="-7.9438" x2="9.1123" y2="-17.9325" stroke="purple" stroke-width="0.5"/>
    <line x1="7.1817" y1="-7.7654" x2="6.1660" y2="-17.7137" stroke="purple" stroke-width="0.5"/>
    <line x1="4.7900" y1="-7.4473" x2="3.1545" y2="-17.3126" stroke="purple" stroke-width="0.5"/>
    <line x1="2.4255" y1="-6.9683" x2="0.0731" y2="-16.6876" stroke="purple" stroke-width="0.5"/>
    <line x1="0.1068" y1="-6.3025" x2="-3.0797" y2="-15.7813" stroke="purple" stroke-width="0.5"/>
    <line x1="-2.1376" y1="-5.4194" x2="-6.2954" y2="-14.5140" stroke="purple" stroke-width="0.5"/>
    <line x1="-4.2650" y1="-4.2841" x2="-9.5407" y2="-12.7793" stroke="purple" stroke-width="0.5"/>
    <line x1="-6.2125" y1="-2.8632" x2="-12.7287" y2="-10.4486" stroke="purple" stroke-width="0.5"/>
    <line x1="-7.8933" y1="-1.1366" x2="-15.6801" y2="-7.4108" stroke="purple" stroke-width="0.5"/>
    <line x1="-9.2067" y1="0.8826" x2="-18.1118" y2="-3.6671" stroke="purple" stroke-width="0.5"/>
    <line x1="-10.0675" y1="3.1319" x2="-19.7336" y2="0.5696" stroke="purple" stroke-width="0.5"/>
    <line x1="-10.4440" y1="5.5113" x2="-20.4271" y2="4.9289" stroke="purple" stroke-width="0.5"/>
    <line x1="-10.3675" y1="7.9200" x2="-20.2991" y2="9.0873" stroke="purple" stroke-width="0.5"/>
    <line x1="-9.9061" y1="10.2864" x2="-19.5612" y2="12.8902" stroke="purple" stroke-width="0.5"/>
    <line x1="-9.1347" y1="12.5712" x2="-18.4068" y2="16.3165" stroke="purple" stroke-width="0.5"/>
    <line x1="-8.1179" y1="14.7584" x2="-16.9725" y2="19.4056" stroke="purple" stroke-width="0.5"/>
    <line x1="-6.9067" y1="16.8447" x2="-15.3458" y2="22.2095" stroke="purple" stroke-width="0.5"/>
    <line x1="-5.5399" y1="18.8328" x2="-13.5819" y2="24.7763" stroke="purple" stroke-width="0.5"/>
    <line x1="-4.0468" y1="20.7278" x2="-11.7163" y2="27.1449" stroke="purple" stroke-width="0.5"/>
    <line x1="-2.4495" y1="22.5362" x2="-9.7722" y2="29.3463" stroke="purple" stroke-width="0.5"/>
    <line x1="-0.7652" y1="24.2639" x2="-7.7658" y2="31.4047" stroke="purple" stroke-width="0.5"/>
    <line x1="0.1308" y1="26.3450" x2="-9.8249" y2="27.2858" stroke="purple" stroke-width="0.5"/>
    <line x1="0.3465" y1="28.7484" x2="-9.6174" y2="29.5969" stroke="purple" stroke-width="0.5"/>
    <line x1="0.5407" y1="31.1536" x2="-9.4303" y2="31.9148" stroke="purple" stroke-width="0.5"/>
    <line x1="0.7143" y1="33.5604" x2="-9.2627" y2="34.2389" stroke="purple" stroke-width="0.5"/>
    <line x1="0.8684" y1="35.9685" x2="-9.1136" y2="36.5682" stroke="purple" stroke-width="0.5"/>
    <line x1="1.0040" y1="38.3778" x2="-8.9823" y2="38.9022" stroke="purple" stroke-width="0.5"/>
    <line x1="1.1218" y1="40.7879" x2="-8.8680" y2="41.2403" stroke="purple" stroke-width="0.5"/>
    <line x1="1.2225" y1="43.1989" x2="-8.7702" y2="43.5819" stroke="purple" stroke-width="0.5"/>
    <line x1="1.3068" y1="45.6104" x2="-8.6882" y2="45.9266" stroke="purple" stroke-width="0.5"/>
    <line x1="1.3753" y1="48.0225" x2="-8.6216" y2="48.2740" stroke="purple" stroke-width="0.5"/>
    <line x1="1.4283" y1="50.4350" x2="-8.5699" y2="50.6238" stroke="purple" stroke-width="0.5"/>
    <line x1="1.4665" y1="52.8477" x2="-8.5326" y2="52.9756" stroke="purple" stroke-width="0.5"/>
    <line x1="1.4902" y1="55.2606" x2="-8.5095" y2="55.3293" stroke="purple" stroke-width="0.5"/>
    <line x1="1.4998" y1="57.6737" x2="-8.5002" y2="57.6844" stroke="purple" stroke-width="0.5"/>
    <line x1="1.4955" y1="60.0867" x2="-8.5044" y2="60.0407" stroke="purple" stroke-width="0.5"/>
    <line x1="1.4777" y1="62.4997" x2="-8.5218" y2="62.3982" stroke="purple" stroke-width="0.5"/>
    <line x1="1.4465" y1="64.9125" x2="-8.5522" y2="64.7564" stroke="purple" stroke-width="0.5"/>
    <line x1="1.4024" y1="67.3252" x2="-8.5954" y2="67.1153" stroke="purple" stroke-width="0.5"/>
    <line x1="1.3453" y1="69.7375" x2="-8.6512" y2="69.4747" stroke="purple" stroke-width="0.5"/>
    <line x1="1.2756" y1="72.1496" x2="-8.7195" y2="71.8344" stroke="purple" stroke-width="0.5"/>
    <line x1="1.1932" y1="74.5612" x2="-8.8000" y2="74.1942" stroke="purple" stroke-width="0.5"/>
    <line x1="1.0985" y1="76.9724" x2="-8.8928" y2="76.5540" stroke="purple" stroke-width="0.5"/>
    <line x1="0.9913" y1="79.3831" x2="-8.9976" y2="78.9136" stroke="purple" stroke-width="0.5"/>
    <line x1="0.8719" y1="81.7932" x2="-9.1145" y2="81.2730" stroke="purple" stroke-width="0.5"/>
    <line x1="0.7403" y1="84.2026" x2="-9.2434" y2="83.6318" stroke="purple" stroke-width="0.5"/>
    <line x1="0.5965" y1="86.6114" x2="-9.3842" y2="85.9901" stroke="purple" stroke-width="0.5"/>
    <line x1="0.4405" y1="89.0194" x2="-9.5369" y2="88.3477" stroke="purple" stroke-width="0.5"/>
    <line x1="0.2723" y1="91.4265" x2="-9.7016" y2="90.7043" stroke="purple" stroke-width="0.5"/>
    <line x1="0.0919" y1="93.8328" x2="-9.8782" y2="93.0600" stroke="purple" stroke-width="0.5"/>
    <line x1="-0.2341" y1="96.2200" x2="-10.0694" y2="94.4129" stroke="purple" stroke-width="0.5"/>
    <line x1="-0.6335" y1="98.5997" x2="-10.5200" y2="97.0969" stroke="purple" stroke-width="0.5"/>
    <line x1="-0.9589" y1="100.9906" x2="-10.8875" y2="99.7979" stroke="purple" stroke-width="0.5"/>
    <line x1="-1.2088" y1="103.3905" x2="-11.1702" y2="102.5127" stroke="purple" stroke-width="0.5"/>
    <line x1="-1.3822" y1="105.7972" x2="-11.3666" y2="105.2377" stroke="purple" stroke-width="0.5"/>
    <line x1="-1.4786" y1="108.2083" x2="-11.4757" y2="107.9694" stroke="purple" stroke-width="0.5"/>
    <line x1="-1.4974" y1="110.6211" x2="-11.4971" y2="110.7039" stroke="purple" stroke-width="0.5"/>
    <line x1="-1.4387" y1="113.0333" x2="-11.4305" y2="113.4375" stroke="purple" stroke-width="0.5"/>
    <line x1="-1.3025" y1="115.4424" x2="-11.2763" y2="116.1662" stroke="purple" stroke-width="0.5"/>
    <line x1="-1.0896" y1="117.8460" x2="-11.0353" y2="118.8864" stroke="purple" stroke-width="0.5"/>
    <line x1="-0.8007" y1="120.2416" x2="-10.7088" y2="121.5946" stroke="purple" stroke-width="0.5"/>
    <line x1="-0.4371" y1="122.6270" x2="-10.2983" y2="124.2872" stroke="purple" stroke-width="0.5"/>
    <line x1="0.0000" y1="125.0000" x2="-9.8058" y2="126.9612" stroke="purple" stroke-width="0.5"/>
    <circle cx="12.0000" cy="-8.0000" r="1.2" fill="none" stroke="blue" stroke-width="0.5"/>
    <circle cx="9.5877" cy="-7.9438" r="1.2" fill="none" stroke="blue" stroke-width="0.5"/>
    <circle cx="7.1817" cy="-7.7654" r="1.2" fill="none" stroke="blue" stroke-width="0.5"/>
    <circle cx="4.7900" cy="-7.4473" r="1.2" fill="none" stroke="blue" stroke-width="0.5"/>
    <circle cx="2.4255" cy="-6.9683" r="1.2" fill="none" stroke="blue" stroke-width="0.5"/>
    <circle cx="0.1068" cy="-6.3025" r="1.2" fill="none" stroke="blue" stroke-width="0.5"/>
    <circle cx="-2.1376" cy="-5.4194" r="1.2" fill="none" stroke="blue" stroke-width="0.5"/>
    <circle cx="-4.2650" cy="-4.2841" r="1.2" fill="none" stroke="blue" stroke-width="0.5"/>
    <circle cx="-6.2125" cy="-2.8632" r="1.2" fill="none" stroke="blue" stroke-width="0.5"/>
    <circle cx="-7.8933" cy="-1.1366" r="1.2" fill="none" stroke="blue" stroke-width="0.5"/>
    <circle cx="-9.2067" cy="0.8826" r="1.2" fill="none" stroke="blue" stroke-width="0.5"/>
    <circle cx="-10.0675" cy="3.1319" r="1.2" fill="none" stroke="blue" stroke-width="0.5"/>
    <circle cx="-10.4440" cy="5.5113" r="1.2" fill="none" stroke="blue" stroke-width="0.5"/>
    <circle cx="-10.3675" cy="7.9200" r="1.2" fill="none" stroke="blue" stroke-width="0.5"/>
    <circle cx="-9.9061" cy="10.2864" r="1.2" fill="none" stroke="blue" stroke-width="0.5"/>
    <circle cx="-9.1347" cy="12.5712" r="1.2" fill="none" stroke="blue" stroke-width="0.5"/>
    <circle cx="-8.1179" cy="14.7584" r="1.2" fill="none" stroke="blue" stroke-width="0.5"/>
    <circle cx="-6.9067" cy="16.8447" r="1.2" fill="none" stroke="blue" stroke-width="0.5"/>
    <circle cx="-5.5399" cy="18.8328" r="1.2" fill="none" stroke="blue" stroke-width="0.5"/>
    <circle cx="-4.0468" cy="20.7278" r="1.2" fill="none" stroke="blue" stroke-width="0.5"/>
    <circle cx="-2.4495" cy="22.5362" r="1.2" fill="none" stroke="blue" stroke-width="0.5"/>
    <circle cx="-0.7652" cy="24.2639" r="1.2" fill="none" stroke="blue" stroke-width="0.5"/>
    <circle cx="0.1308" cy="26.3450" r="1.2" fill="none" stroke="blue" stroke-width="0.5"/>
    <circle cx="0.3465" cy="28.7484" r="1.2" fill="none" stroke="blue" stroke-width="0.5"/>
    <circle cx="0.5407" cy="31.1536" r="1.2" fill="none" stroke="blue" stroke-width="0.5"/>
    <circle cx="0.7143" cy="33.5604" r="1.2" fill="none" stroke="blue" stroke-width="0.5"/>
    <circle cx="0.8684" cy="35.9685" r="1.2" fill="none" stroke="blue" stroke-width="0.5"/>
    <circle cx="1.0040" cy="38.3778" r="1.2" fill="none" stroke="blue" stroke-width="0.5"/>
    <circle cx="1.1218" cy="40.7879" r="1.2" fill="none" stroke="blue" stroke-width="0.5"/>
    <circle cx="1.2225" cy="43.1989" r="1.2" fill="none" stroke="blue" stroke-width="0.5"/>
    <circle cx="1.3068" cy="45.6104" r="1.2" fill="none" stroke="blue" stroke-width="0.5"/>
    <circle cx="1.3753" cy="48.0225" r="1.2" fill="none" stroke="blue" stroke-width="0.5"/>
    <circle cx="1.4283" cy="50.4350" r="1.2" fill="none" stroke="blue" stroke-width="0.5"/>
    <circle cx="1.4665" cy="52.8477" r="1.2" fill="none" stroke="blue" stroke-width="0.5"/>
    <circle cx="1.4902" cy="55.2606" r="1.2" fill="none" stroke="blue" stroke-width="0.5"/>
    <circle cx="1.4998" cy="57.6737" r="1.2" fill="none" stroke="blue" stroke-width="0.5"/>
    <circle cx="1.4955" cy="60.0867" r="1.2" fill="none" stroke="blue" stroke-width="0.5"/>
    <circle cx="1.4777" cy="62.4997" r="1.2" fill="none" stroke="blue" stroke-width="0.5"/>
    <circle cx="1.4465" cy="64.9125" r="1.2" fill="none" stroke="blue" stroke-width="0.5"/>
    <circle cx="1.4024" cy="67.3252" r="1.2" fill="none" stroke="blue" stroke-width="0.5"/>
    <circle cx="1.3453" cy="69.7375" r="1.2" fill="none" stroke="blue" stroke-width="0.5"/>
    <circle cx="1.2756" cy="72.1496" r="1.2" fill="none" stroke="blue" stroke-width="0.5"/>
    <circle cx="1.1932" cy="74.5612" r="1.2" fill="none" stroke="blue" stroke-width="0.5"/>
    <circle cx="1.0985" cy="76.9724" r="1.2" fill="none" stroke="blue" stroke-width="0.5"/>
    <circle cx="0.9913" cy="79.3831" r="1.2" fill="none" stroke="blue" stroke-width="0.5"/>
    <circle cx="0.8719" cy="81.7932" r="1.2" fill="none" stroke="blue" stroke-width="0.5"/>
    <circle cx="0.7403" cy="84.2026" r="1.2" fill="none" stroke="blue" stroke-width="0.5"/>
    <circle cx="0.5965" cy="86.6114" r="1.2" fill="none" stroke="blue" stroke-width="0.5"/>
    <circle cx="0.4405" cy="89.0194" r="1.2" fill="none" stroke="blue" stroke-width="0.5"/>
    <circle cx="0.2723" cy="91.4265" r="1.2" fill="none" stroke="blue" stroke-width="0.5"/>
    <circle cx="0.0919" cy="93.8328" r="1.2" fill="none" stroke="blue" stroke-width="0.5"/>
    <circle cx="-0.2341" cy="96.2200" r="1.2" fill="none" stroke="blue" stroke-width="0.5"/>
    <circle cx="-0.6335" cy="98.5997" r="1.2" fill="none" stroke="blue" stroke-width="0.5"/>
    <circle cx="-0.9589" cy="100.9906" r="1.2" fill="none" stroke="blue" stroke-width="0.5"/>
    <circle cx="-1.2088" cy="103.3905" r="1.2" fill="none" stroke="blue" stroke-width="0.5"/>
    <circle cx="-1.3822" cy="105.7972" r="1.2" fill="none" stroke="blue" stroke-width="0.5"/>
    <circle cx="-1.4786" cy="108.2083" r="1.2" fill="none" stroke="blue" stroke-width="0.5"/>
    <circle cx="-1.4974" cy="110.6211" r="1.2" fill="none" stroke="blue" stroke-width="0.5"/>
    <circle cx="-1.4387" cy="113.0333" r="1.2" fill="none" stroke="blue" stroke-width="0.5"/>
    <circle cx="-1.3025" cy="115.4424" r="1.2" fill="none" stroke="blue" stroke-width="0.5"/>
    <circle cx="-1.0896" cy="117.8460" r="1.2" fill="none" stroke="blue" stroke-width="0.5"/>
    <circle cx="-0.8007" cy="120.2416" r="1.2" fill="none" stroke="blue" stroke-width="0.5"/>
    <circle cx="-0.4371" cy="122.6270" r="1.2" fill="none" stroke="blue" stroke-width="0.5"/>
    <circle cx="0.0000" cy="125.0000" r="1.2" fill="none" stroke="blue" stroke-width="0.5"/>
  </g>
</svg>