<svg xmlns="http://www.w3.org/2000/svg" viewBox="-31.2420 -27.5335 56.3760 163.6793">
  <path d="M -21.2420 5.7295 L -21.0836 9.7014 L -20.4014 13.3405 L -19.3517 16.6579 L -18.0424 19.6915 L -16.5449 22.4827 L -14.9071 25.0680 L -13.1611 27.4778 L -11.3297 29.7364 L -11.5697 23.6836 L -11.4261 25.9483 L -11.3040 28.2184 L -11.2023 30.4932 L -11.1199 32.7719 L -11.0558 35.0537 L -11.0093 37.3381 L -10.8484 39.6089 L -10.6325 41.8766 L -10.4316 44.1499 L -10.2497 46.4412 L -10.0868 48.7499 L -9.9381 51.0623 L -9.8034 53.3782 L -9.6821 55.6972 L -9.5741 58.0191 L -9.4792 60.3436 L -9.3970 62.6705 L -9.3273 64.9995 L -9.2700 67.3306 L -9.2249 69.6634 L -9.1920 71.9978 L -9.1709 74.3337 L -9.1618 76.6709 L -9.1644 79.0092 L -9.1788 81.3485 L -9.2049 83.6886 L -9.2427 86.0295 L -9.2921 88.3710 L -8.8936 89.8052 L -9.3825 92.4470 L -9.7920 95.1038 L -10.1118 97.7714 L -10.3070 100.4407 L -10.4048 103.1099 L -10.4277 105.7794 L -10.3881 108.4494 L -10.2902 111.1193 L -10.1327 113.7875 L -9.9120 116.4515 L -9.6241 119.1082 L -9.2658 121.7541 L 7.3046 118.4401 L 8.7500 126.1458 L 8.3105 124.0316 L 7.9535 121.9044 L 7.6851 119.7656 L 7.5108 117.6173 L 7.4328 115.4628 L 7.4476 113.3066 L 7.5426 111.1538 L 7.6943 109.0097 L 7.8743 106.8774 L 8.1154 104.7523 L 8.4254 102.6348 L 9.4759 99.2947 L 9.7872 96.8235 L 10.0858 94.3501 L 10.3718 91.8742 L 10.6450 89.3960 L 10.9056 86.9155 L 11.1536 84.4324 L 11.3889 81.9470 L 11.6114 79.4591 L 11.8211 76.9686 L 12.0179 74.4756 L 12.2017 71.9799 L 12.3723 69.4815 L 12.5295 66.9803 L 12.6731 64.4762 L 12.8029 61.9692 L 12.9186 59.4590 L 13.0199 56.9456 L 13.1064 54.4287 L 13.1821 51.8952 L 13.2461 49.3443 L 13.2934 46.7888 L 13.2528 44.2378 L 13.0638 41.7019 L 12.8567 39.1652 L 12.6308 36.6276 L 12.3853 34.0888 L 12.1192 31.5486 L 11.8313 29.0065 L 9.7994 18.7913 L 8.2622 17.5946 L 6.8135 16.3877 L 5.4651 15.1828 L 4.2289 13.9978 L 3.1158 12.8589 L 2.1320 11.8019 L 1.2714 10.8715 L 0.5070 10.1105 L -0.2115 9.5296 L -0.9271 9.0590 L -1.5998 8.5416 L -2.0705 7.8352 L -2.1606 6.9286 L -1.7924 5.9193 L -0.9943 4.9182 L 0.1570 4.0000 L 1.5808 3.2018 L 3.2094 2.5362 L 4.9906 2.0028 L 6.8856 1.5950 L 8.8660 1.3042 L 15.1340 -17.3042 L 12.2898 -17.4827 L 9.3727 -17.5335 L 6.3706 -17.4307 L 3.2702 -17.1383 L 0.0567 -16.6051 L -3.2808 -15.7569 L -6.7377 -14.4874 L -10.2643 -12.6551 L -13.7161 -10.1085 L -16.8135 -6.7765 L -19.2079 -2.7951 L -20.6766 1.4930 L -21.2420 5.7295 Z" fill="none" stroke="black" stroke-width="1" />
  <g id="debug">
    <path d="M 12.0000 -8.0000 L 9.5877 -7.9438 L 7.1817 -7.7654 L 4.7900 -7.4473 L 2.4255 -6.9683 L 0.1068 -6.3025 L -2.1376 -5.4194 L -4.2650 -4.2841 L -6.2125 -2.8632 L -7.8933 -1.1366 L -9.2067 0.8826 L -10.0675 3.1319 L -10.4440 5.5113 L -10.3675 7.9200 L -9.9061 10.2864 L -9.1347 12.5712 L -8.1179 14.7584 L -6.9067 16.8447 L -5.5399 18.8328 L -4.0468 20.7278 L -2.4495 22.5362 L -0.7652 24.2639 L 0.1308 26.3450 L 0.3465 28.7484 L 0.5407 31.1536 L 0.7143 33.5604 L 0.8684 35.9685 L 1.0040 38.3778 L 1.1218 40.7879 L 1.2225 43.1989 L 1.3068 45.6104 L 1.3753 48.0225 L 1.4283 50.4350 L 1.4665 52.8477 L 1.4902 55.2606 L 1.4998 57.6737 L 1.4955 60.0867 L 1.4777 62.4997 L 1.4465 64.9125 L 1.4024 67.3252 L 1.3453 69.7375 L 1.2756 72.1496 L 1.1932 74.5612 L 1.0985 76.9724 L 0.9913 79.3831 L 0.8719 81.7932 L 0.7403 84.2026 L 0.5965 86.6114 L 0.4405 89.0194 L 0.2723 91.4265 L 0.0919 93.8328 L -0.2341 96.2200 L -0.6335 98.5997 L -0.9589 100.9906 L -1.2088 103.3905 L -1.3822 105.7972 L -1.4786 108.2083 L -1.4974 110.6211 L -1.4387 113.0333 L -1.3025 115.4424 L -1.0896 117.8460 L -0.8007 120.2416 L -0.4371 122.6270 L 0.0000 125.0000" fill="none" stroke="orange" stroke-width="0.6" />
    <path d="M 8.8660 1.3042 L 6.8856 1.5950 L 4.9906 2.0028 L 3.2094 2.5362 L 1.5808 3.2018 L 0.1570 4.0000 L -0.9943 4.9182 L -1.7924 5.9193 L -2.1606 6.9286 L -2.0705 7.8352 L -1.5998 8.5416 L -0.9271 9.0590 L -0.2115 9.5296 L 0.5070 10.1105 L 1.2714 10.8715 L 2.1320 11.8019 L 3.1158 12.8589 L 4.2289 13.9978 L 5.4651 15.1828 L 6.8135 16.3877 L 8.2622 17.5946 L 9.7994 18.7913 L 11.8313 29.0065 L 12.1192 31.5486 L 12.3853 34.0888 L 12.6308 36.6276 L 12.8567 39.1652 L 13.0638 41.7019 L 13.2528 44.2378 L 13.2934 46.7888 L 13.2461 49.3443 L 13.1821 51.8952 L 13.1064 54.4287 L 13.0199 56.9456 L 12.9186 59.4590 L 12.8029 61.9692 L 12.6731 64.4762 L 12.5295 66.9803 L 12.3723 69.4815 L 12.2017 71.9799 L 12.0179 74.4756 L 11.8211 76.9686 L 11.6114 79.4591 L 11.3889 81.9470 L 11.1536 84.4324 L 10.9056 86.9155 L 10.6450 89.3960 L 10.3718 91.8742 L 10.0858 94.3501 L 9.7872 96.8235 L 9.4759 99.2947 L 8.4254 102.6348 L 8.1154 104.7523 L 7.8743 106.8774 L 7.6987 109.0091 L 7.5750 111.1487 L 7.5152 113.2941 L 7.5273 115.4428 L 7.6162 117.5920 L 7.7848 119.7387 L 8.0344 121.8801 L 8.3652 124.0135 L 8.7762 126.1362 L 7.3046 118.4401" fill="none" stroke="green" stroke-width="0.6" />
    <path d="M 15.1340 -17.3042 L 12.2898 -17.4827 L 9.3727 -17.5335 L 6.3706 -17.4307 L 3.2702 -17.1383 L 0.0567 -16.6051 L -3.2808 -15.7569 L -6.7377 -14.4874 L -10.2643 -12.6551 L -13.7161 -10.1085 L -16.8135 -6.7765 L -19.2079 -2.7951 L -20.6766 1.4930 L -21.2420 5.7295 L -21.0836 9.7014 L -20.4014 13.3405 L -19.3517 16.6579 L -18.0424 19.6915 L -16.5449 22.4827 L -14.9071 25.0680 L -13.1611 27.4778 L -11.3297 29.7364 L -11.5697 23.6836 L -11.4261 25.9483 L -11.3040 28.2184 L -11.2023 30.4932 L -11.1199 32.7719 L -11.0558 35.0537 L -11.0093 37.3381 L -10.8484 39.6089 L -10.6325 41.8766 L -10.4316 44.1499 L -10.2497 46.4412 L -10.0868 48.7499 L -9.9381 51.0623 L -9.8034 53.3782 L -9.6821 55.6972 L -9.5741 58.0191 L -9.4792 60.3436 L -9.3970 62.6705 L -9.3273 64.9995 L -9.2700 67.3306 L -9.2249 69.6634 L -9.1920 71.9978 L -9.1709 74.3337 L -9.1618 76.6709 L -9.1644 79.0092 L -9.1788 81.3485 L -9.2049 83.6886 L -9.2427 86.0295 L -9.2921 88.3710 L -8.8936 89.8052 L -9.3825 92.4470 L -9.7920 95.1038 L -10.1162 97.7720 L -10.3395 100.4458 L -10.4724 103.1224 L -10.5221 105.7994 L -10.4935 108.4747 L -10.3899 111.1462 L -10.2137 113.8118 L -9.9667 116.4696 L -9.6503 119.1177 L -9.2658 121.7541" fill="none" stroke="green" stroke-width="0.6" />
    <line x1="12.0000" y1="-8.0000" x2="12.0000" y2="-18.0000" stroke="purple" stroke-width="0.5"/>
    <line x1="9.5877" y1="-7.9438" x2="9.1123" y2="-17.9325" stroke="purple" stroke-width="0.5"/>
    <line x1="7.1817" y1="-7.7654" x2="6.1660" y2="-17.7137" stroke="purple" stroke-width="0.5"/>
    <line x1="4.7900" y1="-7.4473" x2="3.1545" y2="-17.3126" stroke="purple" stroke-width="0.5"/>
    <line x1="2.4255" y1="-6.9683" x2="0.0731" y2="-16.6876" stroke="purple" stroke-width="0.5"/>
    <line x1="0.1068" y1="-6.3025" x2="-3.0797" y2="-15.7813" stroke="purple" stroke-width="0.5"/>
    <line x1="-2.1376" y1="-5.4194" x2="-6.2954" y2="-14.5140" stroke="purple" stroke-width="0.5"/>
    <line x1="-4.2650" y1="-4.2841" x2="-9.5407" y2="-12.7793" stroke="purple" stroke-width="0.5"/>
    <line x1="-6.2125" y1="-2.8632" x2="-12.7287" y2="-10.4486" stroke="purple" stroke-width="0.5"/>
    <line x1="-7.8933" y1="-1.1366" x2="-15.6801" y2="-7.4108" stroke="purple" stroke-width="0.5"/>
    <line x1="-9.2067" y1="0.8826" x2="-18.1118" y2="-3.6671" stroke="purple" stroke-width="0.5"/>
    <line x1="-10.0675" y1="3.1319" x2="-19.7336" y2="0.5696" stroke="purple" stroke-width="0.5"/>
    <line x1="-10.4440" y1="5.5113" x2="-20.4271" y2="4.9289" stroke="purple" stroke-width="0.5"/>
    <line x1="-10.3675" y1="7.9200" x2="-20.2991" y2="9.0873" stroke="purple" stroke-width="0.5"/>
    <line x1="-9.9061" y1="10.2864" x2="-19.5612" y2="12.8902" stroke="purple" stroke-width="0.5"/>
    <line x1="-9.1347" y1="12.5712" x2="-18.4068" y2="16.3165" stroke="purple" stroke-width="0.5"/>
    <line x1="-8.1179" y1="14.7584" x2="-16.9725" y2="19.4056" stroke="purple" stroke-width="0.5"/>
    <line x1="-6.9067" y1="16.8447" x2="-15.3458" y2="22.2095" stroke="purple" stroke-width="0.5"/>
    <line x1="-5.5399" y1="18.8328" x2="-13.5819" y2="24.7763" stroke="purple" stroke-width="0.5"/>
    <line x1="-4.0468" y1="20.7278" x2="-11.7163" y2="27.1449" stroke="purple" stroke-width="0.5"/>
    <line x1="-2.4495" y1="22.5362" x2="-9.7722" y2="29.3463" stroke="purple" stroke-width="0.5"/>
    <line x1="-0.7652" y1="24.2639" x2="-7.7658" y2="31.4047" stroke="purple" stroke-width="0.5"/>
    <line x1="0.1308" y1="26.3450" x2="-9.8249" y2="27.2858" stroke="purple" stroke-width="0.5"/>
    <line x1="0.3465" y1="28.7484" x2="-9.6174" y2="29.5969" stroke="purple" stroke-width="0.5"/>
    <line x1="0.5407" y1="31.1536" x2="-9.4303" y2="31.9148" stroke="purple" stroke-width="0.5"/>
    <line x1="0.7143" y1="33.5604" x2="-9.2627" y2="34.2389" stroke="purple" stroke-width="0.5"/>
    <line x1="0.8684" y1="35.9685" x2="-9.1136" y2="36.5682" stroke="purple" stroke-width="0.5"/>
    <line x1="1.0040" y1="38.3778" x2="-8.9823" y2="38.9022" stroke="purple" stroke-width="0.5"/>
    <line x1="1.1218" y1="40.7879" x2="-8.8680" y2="41.2403" stroke="purple" stroke-width="0.5"/>
    <line x1="1.2225" y1="43.1989" x2="-8.7702" y2="43.5819" stroke="purple" stroke-width="0.5"/>
    <line x1="1.3068" y1="45.6104" x2="-8.6882" y2="45.9266" stroke="purple" stroke-width="0.5"/>
    <line x1="1.3753" y1="48.0225" x2="-8.6216" y2="48.2740" stroke="purple" stroke-width="0.5"/>
    <line x1="1.4283" y1="50.4350" x2="-8.5699" y2="50.6238" stroke="purple" stroke-width="0.5"/>
    <line x1="1.4665" y1="52.8477" x2="-8.5326" y2="52.9756" stroke="purple" stroke-width="0.5"/>
    <line x1="1.4902" y1="55.2606" x2="-8.5095" y2="55.3293" stroke="purple" stroke-width="0.5"/>
    <line x1="1.4998" y1="57.6737" x2="-8.5002" y2="57.6844" stroke="purple" stroke-width="0.5"/>
    <line x1="1.4955" y1="60.0867" x2="-8.5044" y2="60.0407" stroke="purple" stroke-width="0.5"/>
    <line x1="1.4777" y1="62.4997" x2="-8.5218" y2="62.3982" stroke="purple" stroke-width="0.5"/>
    <line x1="1.4465" y1="64.9125" x2="-8.5522" y2="64.7564" stroke="purple" stroke-width="0.5"/>
    <line x1="1.4024" y1="67.3252" x2="-8.5954" y2="67.1153" stroke="purple" stroke-width="0.5"/>
    <line x1="1.3453" y1="69.7375" x2="-8.6512" y2="69.4747" stroke="purple" stroke-width="0.5"/>
    <line x1="1.2756" y1="72.1496" x2="-8.7195" y2="71.8344" stroke="purple" stroke-width="0.5"/>
    <line x1="1.1932" y1="74.5612" x2="-8.8000" y2="74.1942" stroke="purple" stroke-width="0.5"/>
    <line x1="1.0985" y1="76.9724" x2="-8.8928" y2="76.5540" stroke="purple" stroke-width="0.5"/>
    <line x1="0.9913" y1="79.3831" x2="-8.9976" y2="78.9136" stroke="purple" stroke-width="0.5"/>
    <line x1="0.8719" y1="81.7932" x2="-9.1145" y2="81.2730" stroke="purple" stroke-width="0.5"/>
    <line x1="0.7403" y1="84.2026" x2="-9.2434" y2="83.6318" stroke="purple" stroke-width="0.5"/>
    <line x1="0.5965" y1="86.6114" x2="-9.3842" y2="85.9901" stroke="purple" stroke-width="0.5"/>
    <line x1="0.4405" y1="89.0194" x2="-9.5369" y2="88.3477" stroke="purple" stroke-width="0.5"/>
    <line x1="0.2723" y1="91.4265" x2="-9.7016" y2="90.7043" stroke="purple" stroke-width="0.5"/>
    <line x1="0.0919" y1="93.8328" x2="-9.8782" y2="93.0600" stroke="purple" stroke-width="0.5"/>
    <line x1="-0.2341" y1="96.2200" x2="-10.0694" y2="94.4129" stroke="purple" stroke-width="0.5"/>
    <line x1="-0.6335" y1="98.5997" x2="-10.5200" y2="97.0969" stroke="purple" stroke-width="0.5"/>
    <line x1="-0.9589" y1="100.9906" x2="-10.8875" y2="99.7979" stroke="purple" stroke-width="0.5"/>
    <line x1="-1.2088" y1="103.3905" x2="-11.1702" y2="102.5127" stroke="purple" stroke-width="0.5"/>
    <line x1="-1.3822" y1="105.7972" x2="-11.3666" y2="105.2377" stroke="purple" stroke-width="0.5"/>
    <line x1="-1.4786" y1="108.2083" x2="-11.4757" y2="107.9694" stroke="purple" stroke-width="0.5"/>
    <line x1="-1.4974" y1="110.6211" x2="-11.4971" y2="110.7039" stroke="purple" stroke-width="0.5"/>
    <line x1="-1.4387" y1="113.0333" x2="-11.4305" y2="113.4375" stroke="purple" stroke-width="0.5"/>
    <line x1="-1.3025" y1="115.4424" x2="-11.2763" y2="116.1662" stroke="purple" stroke-width="0.5"/>
    <line x1="-1.0896" y1="117.8460" x2="-11.0353" y2="118.8864" stroke="purple" stroke-width="0.5"/>
    <line x1="-0.8007" y1="120.2416" x2="-10.7088" y2="121.5946" stroke="purple" stroke-width="0.5"/>
    <line x1="-0.4371" y1="122.6270" x2="-10.2983" y2="124.2872" stroke="purple" stroke-width="0.5"/>
    <line x1="0.0000" y1="125.0000" x2="-9.8058" y2="126.9612" stroke="purple" stroke-width="0.5"/>
    <circle cx="12.0000" cy="-8.0000" r="1.2" fill="none" stroke="blue" stroke-width="0.5"/>
    <circle cx="9.5877" cy="-7.9438" r="1.2" fill="none" stroke="blue" stroke-width="0.5"/>
    <circle cx="7.1817" cy="-7.7654" r="1.2" fill="none" stroke="blue" stroke-width="0.5"/>
    <circle cx="4.7900" cy="-7.4473" r="1.2" fill="none" stroke="blue" stroke-width="0.5"/>
    <circle cx="2.4255" cy="-6.9683" r="1.2" fill="none" stroke="blue" stroke-width="0.5"/>
    <circle cx="0.1068" cy="-6.3025" r="1.2" fill="none" stroke="blue" stroke-width="0.5"/>
    <circle cx="-2.1376" cy="-5.4194" r="1.2" fill="none" stroke="blue" stroke-width="0.5"/>
    <circle cx="-4.2650" cy="-4.2841" r="1.2" fill="none" stroke="blue" stroke-width="0.5"/>
    <circle cx="-6.2125" cy="-2.8632" r="1.2" fill="none" stroke="blue" stroke-width="0.5"/>
    <circle cx="-7.8933" cy="-1.1366" r="1.2" fill="none" stroke="blue" stroke-width="0.5"/>
    <circle cx="-9.2067" cy="0.8826" r="1.2" fill="none" stroke="blue" stroke-width="0.5"/>
    <circle cx="-10.0675" cy="3.1319" r="1.2" fill="none" stroke="blue" stroke-width="0.5"/>
    <circle cx="-10.4440" cy="5.5113" r="1.2" fill="none" stroke="blue" stroke-width="0.5"/>
    <circle cx="-10.3675" cy="7.9200" r="1.2" fill="none" stroke="blue" stroke-width="0.5"/>
    <circle cx="-9.9061" cy="10.2864" r="1.2" fill="none" stroke="blue" stroke-width="0.5"/>
    <circle cx="-9.1347" cy="12.5712" r="1.2" fill="none" stroke="blue" stroke-width="0.5"/>
    <circle cx="-8.1179" cy="14.7584" r="1.2" fill="none" stroke="blue" stroke-width="0.5"/>
    <circle cx="-6.9067" cy="16.8447" r="1.2" fill="none" stroke="blue" stroke-width="0.5"/>
    <circle cx="-5.5399" cy="18.8328" r="1.2" fill="none" stroke="blue" stroke-width="0.5"/>
    <circle cx="-4.0468" cy="20.7278" r="1.2" fill="none" stroke="blue" stroke-width="0.5"/>
    <circle cx="-2.4495" cy="22.5362" r="1.2" fill="none" stroke="blue" stroke-width="0.5"/>
    <circle cx="-0.7652" cy="24.2639" r="1.2" fill="none" stroke="blue" stroke-width="0.5"/>
    <circle cx="0.1308" cy="26.3450" r="1.2" fill="none" stroke="blue" stroke-width="0.5"/>
    <circle cx="0.3465" cy="28.7484" r="1.2" fill="none" stroke="blue" stroke-width="0.5"/>
    <circle cx="0.5407" cy="31.1536" r="1.2" fill="none" stroke="blue" stroke-width="0.5"/>
    <circle cx="0.7143" cy="33.5604" r="1.2" fill="none" stroke="blue" stroke-width="0.5"/>
    <circle cx="0.8684" cy="35.9685" r="1.2" fill="none" stroke="blue" stroke-width="0.5"/>
    <circle cx="1.0040" cy="38.3778" r="1.2" fill="none" stroke="blue" stroke-width="0.5"/>
    <circle cx="1.1218" cy="40.7879" r="1.2" fill="none" stroke="blue" stroke-width="0.5"/>
    <circle cx="1.2225" cy="43.1989" r="1.2" fill="none" stroke="blue" stroke-width="0.5"/>
    <circle cx="1.3068" cy="45.6104" r="1.2" fill="none" stroke="blue" stroke-width="0.5"/>
    <circle cx="1.3753" cy="48.0225" r="1.2" fill="none" stroke="blue" stroke-width="0.5"/>
    <circle cx="1.4283" cy="50.4350" r="1.2" fill="none" stroke="blue" stroke-width="0.5"/>
    <circle cx="1.4665" cy="52.8477" r="1.2" fill="none" stroke="blue" stroke-width="0.5"/>
    <circle cx="1.4902" cy="55.2606" r="1.2" fill="none" stroke="blue" stroke-width="0.5"/>
    <circle cx="1.4998" cy="57.6737" r="1.2" fill="none" stroke="blue" stroke-width="0.5"/>
    <circle cx="1.4955" cy="60.0867" r="1.2" fill="none" stroke="blue" stroke-width="0.5"/>
    <circle cx="1.4777" cy="62.4997" r="1.2" fill="none" stroke="blue" stroke-width="0.5"/>
    <circle cx="1.4465" cy="64.9125" r="1.2" fill="none" stroke="blue" stroke-width="0.5"/>
    <circle cx="1.4024" cy="67.3252" r="1.2" fill="none" stroke="blue" stroke-width="0.5"/>
    <circle cx="1.3453" cy="69.7375" r="1.2" fill="none" stroke="blue" stroke-width="0.5"/>
    <circle cx="1.2756" cy="72.1496" r="1.2" fill="none" stroke="blue" stroke-width="0.5"/>
    <circle cx="1.1932" cy="74.5612" r="1.2" fill="none" stroke="blue" stroke-width="0.5"/>
    <circle cx="1.0985" cy="76.9724" r="1.2" fill="none" stroke="blue" stroke-width="0.5"/>
    <circle cx="0.9913" cy="79.3831" r="1.2" fill="none" stroke="blue" stroke-width="0.5"/>
    <circle cx="0.8719" cy="81.7932" r="1.2" fill="none" stroke="blue" stroke-width="0.5"/>
    <circle cx="0.7403" cy="84.2026" r="1.2" fill="none" stroke="blue" stroke-width="0.5"/>
    <circle cx="0.5965" cy="86.6114" r="1.2" fill="none" stroke="blue" stroke-width="0.5"/>
    <circle cx="0.4405" cy="89.0194" r="1.2" fill="none" stroke="blue" stroke-width="0.5"/>
    <circle cx="0.2723" cy="91.4265" r="1.2" fill="none" stroke="blue" stroke-width="0.5"/>
    <circle cx="0.0919" cy="93.8328" r="1.2" fill="none" stroke="blue" stroke-width="0.5"/>
    <circle cx="-0.2341" cy="96.2200" r="1.2" fill="none" stroke="blue" stroke-width="0.5"/>
    <circle cx="-0.6335" cy="98.5997" r="1.2" fill="none" stroke="blue" stroke-width="0.5"/>
    <circle cx="-0.9589" cy="100.9906" r="1.2" fill="none" stroke="blue" stroke-width="0.5"/>
    <circle cx="-1.2088" cy="103.3905" r="1.2" fill="none" stroke="blue" stroke-width="0.5"/>
    <circle cx="-1.3822" cy="105.7972" r="1.2" fill="none" stroke="blue" stroke-width="0.5"/>
    <circle cx="-1.4786" cy="108.2083" r="1.2" fill="none" stroke="blue" stroke-width="0.5"/>
    <circle cx="-1.4974" cy="110.6211" r="1.2" fill="none" stroke="blue" stroke-width="0.5"/>
    <circle cx="-1.4387" cy="113.0333" r="1.2" fill="none" stroke="blue" stroke-width="0.5"/>
    <circle cx="-1.3025" cy="115.4424" r="1.2" fill="none" stroke="blue" stroke-width="0.5"/>
    <circle cx="-1.0896" cy="117.8460" r="1.2" fill="none" stroke="blue" stroke-width="0.5"/>
    <circle cx="-0.8007" cy="120.2416" r="1.2" fill="none" stroke="blue" stroke-width="0.5"/>
    <circle cx="-0.4371" cy="122.6270" r="1.2" fill="none" stroke="blue" stroke-width="0.5"/>
    <circle cx="0.0000" cy="125.0000" r="1.2" fill="none" stroke="blue" stroke-width="0.5"/>
  </g>
</svg>