<svg xmlns="http://www.w3.org/2000/svg" viewBox="-31.2362 -27.5285 56.3713 163.6660">
  <path d="M -21.2362 5.7279 L -21.0780 9.6990 L -20.3960 13.3374 L -19.3466 16.6543 L -18.0375 19.6875 L -16.5403 22.4783 L -14.9027 25.0633 L -13.1569 27.4728 L -11.3257 29.7312 L -11.5632 23.6823 L -11.4195 25.9470 L -11.2973 28.2172 L -11.1955 30.4921 L -11.1130 32.7708 L -11.0489 35.0527 L -11.0023 37.3372 L -10.8414 39.6080 L -10.6255 41.8758 L -10.4247 44.1492 L -10.2429 46.4406 L -10.0800 48.7493 L -9.9314 51.0618 L -9.7967 53.3777 L -9.6755 55.6968 L -9.5676 58.0188 L -9.4726 60.3433 L -9.3905 62.6703 L -9.3209 64.9994 L -9.2636 67.3305 L -9.2186 69.6633 L -9.1857 71.9978 L -9.1647 74.3337 L -9.1556 76.6709 L -9.1583 79.0093 L -9.1728 81.3486 L -9.1989 83.6888 L -9.2367 86.0298 L -9.2862 88.3713 L -8.8878 89.8061 L -9.3768 92.4477 L -9.7863 95.1043 L -10.1145 97.7729 L -10.3595 100.4500 L -10.5202 103.1324 L -10.5923 105.8156 L -10.5508 108.4897 L -10.4215 111.1559 L -10.2235 113.8158 L -9.9641 116.4698 L -9.6439 119.1164 L -9.2607 121.7531 L 7.2995 118.4411 L 8.7698 126.1376 L 8.3626 124.0134 L 8.0443 121.8762 L 7.8165 119.7290 L 7.6735 117.5770 L 7.5975 115.4266 L 7.5630 113.2841 L 7.5950 111.1444 L 7.6969 109.0082 L 7.8686 106.8768 L 8.1097 104.7516 L 8.4197 102.6339 L 9.4701 99.2944 L 9.7813 96.8233 L 10.0799 94.3499 L 10.3657 91.8741 L 10.6389 89.3959 L 10.8995 86.9154 L 11.1474 84.4324 L 11.3826 81.9470 L 11.6051 79.4591 L 11.8148 76.9687 L 12.0115 74.4757 L 12.1952 71.9801 L 12.3657 69.4817 L 12.5229 66.9806 L 12.6664 64.4766 L 12.7962 61.9696 L 12.9118 59.4595 L 13.0131 56.9461 L 13.0996 54.4293 L 13.1752 51.8958 L 13.2392 49.3451 L 13.2864 46.7897 L 13.2458 44.2387 L 13.0569 41.7028 L 12.8499 39.1663 L 12.6241 36.6288 L 12.3786 34.0900 L 12.1126 31.5499 L 11.8248 29.0078 L 9.7954 18.7965 L 8.2580 17.5996 L 6.8091 16.3924 L 5.4605 15.1872 L 4.2240 14.0019 L 3.1108 12.8626 L 2.1266 11.8050 L 1.2658 10.8739 L 0.5012 10.1121 L -0.2174 9.5302 L -0.9330 9.0584 L -1.6054 8.5398 L -2.0755 7.8324 L -2.1650 6.9250 L -1.7962 5.9151 L -0.9975 4.9136 L 0.1543 3.9952 L 1.5785 3.1969 L 3.2075 2.5312 L 4.9890 1.9977 L 6.8843 1.5900 L 8.8649 1.2991 L 15.1351 -17.2991 L 12.2911 -17.4776 L 9.3743 -17.5285 L 6.3725 -17.4257 L 3.2724 -17.1334 L 0.0594 -16.6003 L -3.2777 -15.7523 L -6.7339 -14.4833 L -10.2599 -12.6515 L -13.7111 -10.1057 L -16.8080 -6.7747 L -19.2020 -2.7946 L -20.6707 1.4924 L -21.2362 5.7279 Z" fill="none" stroke="black" stroke-width="1" />

</svg>