<svg xmlns="http://www.w3.org/2000/svg" viewBox="-20.4224 12.6706 43.0143 124.2414">
  <path d="M -10.4224 106.0406 L -10.4170 104.2810 L -10.3746 102.5203 L -10.2956 100.7596 L -10.1800 99.0000 L -10.0282 97.2424 L -9.8407 95.4878 L -9.6179 93.7372 L -9.3602 91.9914 L -9.0683 90.2514 L -9.4464 89.5946 L -9.4386 88.0576 L -9.4357 86.5212 L -9.4379 84.9855 L -9.4450 83.4505 L -9.4572 81.9163 L -9.4743 80.3828 L -9.4964 78.8501 L -9.5236 77.3183 L -9.5558 75.7874 L -9.5930 74.2575 L -9.6352 72.7285 L -9.6826 71.2006 L -9.7401 69.6859 L -9.8077 68.1848 L -9.8800 66.6855 L -9.8900 65.1839 L -9.7801 63.6746 L -9.6754 62.1641 L -9.5759 60.6525 L -9.4816 59.1398 L -9.3927 57.6260 L -9.3092 56.1112 L -9.2314 54.5954 L -9.1591 53.0788 L -9.0927 51.5613 L -9.0321 50.0430 L -8.9775 48.5239 L -8.9291 47.0042 L -8.8869 45.4839 L -8.8512 43.9630 L -8.8221 42.4417 L -8.7997 40.9200 L -8.7843 39.3980 L -8.7760 37.8757 L -8.7751 36.3534 L -8.7818 34.8311 L -8.7963 33.3090 L -8.8189 31.7871 L -8.8499 30.2656 L -8.8896 28.7447 L -8.9382 27.2246 L -8.9962 25.7053 L -9.0640 24.1873 L -9.1419 22.6706 L 9.1419 27.3294 L 9.3706 28.9815 L 9.5895 30.6342 L 9.7991 32.2874 L 9.9997 33.9412 L 10.1915 35.5955 L 10.3748 37.2506 L 10.5498 38.9062 L 10.7168 40.5625 L 10.8760 42.2196 L 11.0276 43.8775 L 11.1717 45.5361 L 11.3085 47.1954 L 11.4381 48.8556 L 11.5607 50.5166 L 11.6764 52.1784 L 11.7853 53.8410 L 11.8875 55.5046 L 11.9831 57.1690 L 12.0722 58.8342 L 12.1549 60.5003 L 12.2312 62.1674 L 12.3012 63.8353 L 12.3650 65.5042 L 12.4226 67.1739 L 12.4740 68.8446 L 12.5193 70.5162 L 12.5586 72.1887 L 12.5918 73.8622 L 12.4941 75.5431 L 12.3231 77.2259 L 12.1459 78.9066 L 11.9679 80.5734 L 11.7893 82.2264 L 11.6050 83.8780 L 11.4152 85.5281 L 11.2197 87.1767 L 11.0185 88.8238 L 10.8118 90.4695 L 10.5995 92.1137 L 10.3816 93.7565 L 10.1581 95.3978 L 9.9289 97.0377 L 9.6942 98.6761 L 9.4538 100.3131 L 8.4917 102.7854 L 8.2522 104.1844 L 8.0427 105.5878 L 7.8635 106.9953 L 7.7148 108.4066 L 7.5965 109.8211 L 7.5090 111.2387 L 7.4521 112.6587 L 7.4259 114.0810 L 7.4304 115.5050 L 7.4655 116.9303 L 7.5310 118.3566 L 7.6269 119.7835 L 7.7529 121.2105 L 7.9087 122.6372 L 8.0942 124.0633 L 8.3090 125.4884 L 8.5528 126.9121 L 6.8641 118.5282 L -8.8252 121.6660 L -9.1458 119.9600 L -9.4315 118.2444 L -9.6819 116.5200 L -9.8966 114.7877 L -10.0751 113.0484 L -10.2172 111.3031 L -10.3225 109.5527 L -10.3910 107.7982 L -10.4224 106.0406 Z" fill="none" stroke="black" stroke-width="1" />

</svg>