<svg xmlns="http://www.w3.org/2000/svg" viewBox="-31.2340 -27.5266 56.3695 169.0851">
  <path d="M -21.2340 5.7273 L -21.0759 9.6981 L -20.3941 13.3362 L -19.3447 16.6529 L -18.0357 19.6860 L -16.5386 22.4767 L -14.9011 25.0615 L -13.1554 27.4709 L -11.3242 29.7293 L -11.5608 23.6817 L -11.4170 25.9465 L -11.2948 28.2168 L -11.1930 30.4917 L -11.1105 32.7704 L -11.0463 35.0523 L -10.9997 37.3368 L -10.8388 39.6077 L -10.6229 41.8755 L -10.4221 44.1489 L -10.2403 46.4404 L -10.0775 48.7491 L -9.9289 51.0616 L -9.7942 53.3776 L -9.6730 55.6967 L -9.5651 58.0186 L -9.4702 60.3432 L -9.3881 62.6702 L -9.3185 64.9993 L -9.2613 67.3304 L -9.2163 69.6633 L -9.1834 71.9978 L -9.1624 74.3337 L -9.1533 76.6710 L -9.1561 79.0093 L -9.1705 81.3487 L -9.1967 83.6889 L -9.2345 86.0299 L -9.2840 88.3714 L -8.8857 89.8064 L -9.3746 92.4480 L -9.7842 95.1045 L -10.1124 97.7730 L -10.3575 100.4501 L -10.5182 103.1324 L -10.5936 105.8163 L -10.5833 108.4981 L -10.4872 111.1743 L -10.3056 113.8412 L -10.0395 116.4954 L -9.6901 119.1336 L -7.2977 131.5586 L 9.2588 128.2473 L 8.8159 126.1203 L 8.4381 123.9877 L 8.1264 121.8508 L 7.8821 119.7106 L 7.7060 117.5686 L 7.5987 115.4260 L 7.5610 113.2841 L 7.5930 111.1443 L 7.6948 109.0081 L 7.8665 106.8766 L 8.1075 104.7513 L 8.4175 102.6336 L 9.4679 99.2943 L 9.7791 96.8232 L 10.0776 94.3498 L 10.3635 91.8740 L 10.6366 89.3959 L 10.8972 86.9154 L 11.1451 84.4324 L 11.3803 81.9470 L 11.6027 79.4591 L 11.8124 76.9687 L 12.0091 74.4758 L 12.1928 71.9802 L 12.3633 69.4818 L 12.5204 66.9808 L 12.6640 64.4767 L 12.7937 61.9698 L 12.9093 59.4597 L 13.0106 56.9463 L 13.0970 54.4295 L 13.1727 51.8961 L 13.2366 49.3454 L 13.2838 46.7900 L 13.2432 44.2390 L 13.0543 41.7032 L 12.8473 39.1667 L 12.6216 36.6292 L 12.3762 34.0905 L 12.1101 31.5503 L 11.8224 29.0083 L 9.7939 18.7984 L 8.2564 17.6014 L 6.8075 16.3941 L 5.4588 15.1889 L 4.2222 14.0034 L 3.1089 12.8639 L 2.1246 11.8062 L 1.2637 10.8748 L 0.4990 10.1127 L -0.2196 9.5304 L -0.9352 9.0582 L -1.6075 8.5392 L -2.0774 7.8314 L -2.1667 6.9237 L -1.7976 5.9135 L -0.9987 4.9119 L 0.1533 3.9934 L 1.5777 3.1951 L 3.2068 2.5293 L 4.9884 1.9958 L 6.8838 1.5881 L 8.8645 1.2973 L 15.1355 -17.2973 L 12.2916 -17.4757 L 9.3749 -17.5266 L 6.3732 -17.4239 L 3.2733 -17.1316 L 0.0604 -16.5985 L -3.2765 -15.7506 L -6.7325 -14.4817 L -10.2583 -12.6502 L -13.7092 -10.1047 L -16.8059 -6.7741 L -19.1998 -2.7943 L -20.6685 1.4922 L -21.2340 5.7273 Z" fill="none" stroke="black" stroke-width="1" />

</svg>