<svg xmlns="http://www.w3.org/2000/svg" viewBox="-29.8968 -26.4705 56.8968 158.1365">
  <path d="M -19.8968 11.5259 L -19.0244 14.8357 L -17.8586 17.8821 L -16.4771 20.6987 L -14.9329 23.3169 L -6.4524 33.0869 L -11.4918 28.0630 L -9.6810 32.2945 L -10.4739 24.6517 L -10.3490 26.9704 L -9.5675 39.2712 L -9.5637 41.6043 L -9.5760 43.9403 L -10.0561 36.2889 L -9.9047 38.6217 L -9.3868 50.9512 L -9.2661 53.2918 L -9.3481 45.6376 L -9.1940 47.9837 L -9.0547 50.3329 L -8.9298 52.6848 L -8.8651 65.0391 L -8.7221 57.3959 L -8.7948 69.7532 L -8.5684 62.1148 L -8.7740 74.4732 L -8.7819 76.8349 L -8.8019 79.1975 L -8.8338 81.5608 L -8.8778 83.9248 L -8.4135 76.3027 L -8.4307 78.6701 L -8.4601 81.0380 L -8.5014 83.4061 L -8.5547 85.7743 L -8.6199 88.1425 L -8.2207 89.6689 L -10.2357 102.1975 L -9.1650 94.9688 L -9.5152 97.6392 L -10.3410 110.3031 L -10.2016 113.0013 L -10.0580 105.6918 L -10.0667 108.3782 L -9.9888 111.0596 L -9.8247 113.7325 L -9.5752 116.3934 L -9.2415 119.0389 L -8.8252 121.6660 L 6.8641 118.5282 L 6.7072 116.3538 L 6.6208 114.1817 L 6.6051 112.0137 L 6.6600 109.8515 L 7.1894 117.6885 L 7.0632 115.5504 L 7.2444 103.4152 L 7.5765 101.2914 L 7.9755 99.1805 L 8.4400 97.0837 L 8.9686 95.0018 L 9.5596 92.9357 L 9.5766 89.5530 L 9.8215 87.1049 L 10.0540 84.6552 L 10.2742 82.2041 L 10.4821 79.7514 L 10.6775 77.2972 L 10.8604 74.8414 L 11.0308 72.3840 L 11.1883 69.9250 L 11.3330 67.4643 L 11.4646 65.0019 L 11.5830 62.5378 L 11.6879 60.0718 L 11.7790 57.6041 L 11.8560 55.1343 L 11.9187 52.6625 L 11.9665 50.1887 L 12.1270 57.7117 L 12.0160 45.2341 L 12.0167 42.7532 L 12.0005 40.2697 L 11.9667 37.7834 L 11.8473 35.2971 L 11.5840 32.8152 L 11.3005 30.3328 L 10.9960 27.8497 L 10.6692 25.3659 L 10.3186 22.8812 L 10.8834 30.3512 L 9.9614 20.4647 L 1.5534 11.9854 L 6.8394 18.1388 L 5.3973 16.9668 L -1.3197 7.3682 L -1.8586 5.8266 L -2.1179 4.3444 L -2.0536 2.9901 L -0.4723 11.7913 L -0.8988 1.0596 L 0.0718 0.6470 L -3.4152 9.4563 L 2.2149 0.5868 L 3.3449 0.5891 L 4.5938 0.5035 L -3.0947 4.5127 L -1.9147 3.3752 L 9.2666 0.0425 L 1.2176 1.5760 L 12.9899 -0.1040 L 14.9674 -0.0848 L 17.0000 0.0000 L 17.0000 -16.0000 L 14.1967 -16.2782 L 1.3735 -15.4267 L 8.3624 -16.4705 L 5.3037 -16.3313 L 2.1284 -15.9803 L -1.1805 -15.3514 L -4.6287 -14.3473 L -15.7698 -6.3156 L -11.7273 -10.6469 L -14.9982 -7.6912 L -17.6444 -4.0493 L -19.4070 -0.0201 L -19.0954 13.9803 L -17.7587 17.5827 L -19.8968 11.5259 Z" fill="none" stroke="black" stroke-width="1" />
  <g id="debug">
    <path d="M 12.0000 -8.0000 L 9.5877 -7.9438 L 7.1817 -7.7654 L 4.7900 -7.4473 L 2.4255 -6.9683 L 0.1068 -6.3025 L -2.1376 -5.4194 L -4.2650 -4.2841 L -6.2125 -2.8632 L -7.8933 -1.1366 L -9.2067 0.8826 L -10.0675 3.1319 L -10.4440 5.5113 L -10.3675 7.9200 L -9.9061 10.2864 L -9.1347 12.5712 L -8.1179 14.7584 L -6.9067 16.8447 L -5.5399 18.8328 L -4.0468 20.7278 L -2.4495 22.5362 L -0.7652 24.2639 L 0.1308 26.3450 L 0.3465 28.7484 L 0.5407 31.1536 L 0.7143 33.5604 L 0.8684 35.9685 L 1.0040 38.3778 L 1.1218 40.7879 L 1.2225 43.1989 L 1.3068 45.6104 L 1.3753 48.0225 L 1.4283 50.4350 L 1.4665 52.8477 L 1.4902 55.2606 L 1.4998 57.6737 L 1.4955 60.0867 L 1.4777 62.4997 L 1.4465 64.9125 L 1.4024 67.3252 L 1.3453 69.7375 L 1.2756 72.1496 L 1.1932 74.5612 L 1.0985 76.9724 L 0.9913 79.3831 L 0.8719 81.7932 L 0.7403 84.2026 L 0.5965 86.6114 L 0.4405 89.0194 L 0.2723 91.4265 L 0.0919 93.8328 L -0.2341 96.2200 L -0.6335 98.5997 L -0.9589 100.9906 L -1.2088 103.3905 L -1.3822 105.7972 L -1.4786 108.2083 L -1.4974 110.6211 L -1.4387 113.0333 L -1.3025 115.4424 L -1.0896 117.8460 L -0.8007 120.2416 L -0.4371 122.6270 L 0.0000 125.0000" fill="none" stroke="orange" stroke-width="0.6" />
    <path d="M 17.0000 0.0000 L 14.9674 -0.0848 L 12.9899 -0.1040 L 1.2176 1.5760 L 9.2666 0.0425 L -1.9147 3.3752 L -3.0947 4.5127 L 4.5938 0.5035 L 3.3449 0.5891 L 2.2149 0.5868 L -3.4152 9.4563 L 0.0718 0.6470 L -0.8988 1.0596 L -0.4723 11.7913 L -2.0536 2.9901 L -2.1179 4.3444 L -1.8586 5.8266 L -1.3197 7.3682 L 5.3973 16.9668 L 6.8394 18.1388 L 1.5534 11.9854 L 9.9614 20.4647 L 10.8834 30.3512 L 10.3186 22.8812 L 10.6692 25.3659 L 10.9960 27.8497 L 11.3005 30.3328 L 11.5840 32.8152 L 11.8473 35.2971 L 11.9667 37.7834 L 12.0005 40.2697 L 12.0167 42.7532 L 12.0160 45.2341 L 12.1270 57.7117 L 11.9665 50.1887 L 11.9187 52.6625 L 11.8560 55.1343 L 11.7790 57.6041 L 11.6879 60.0718 L 11.5830 62.5378 L 11.4646 65.0019 L 11.3330 67.4643 L 11.1883 69.9250 L 11.0308 72.3840 L 10.8604 74.8414 L 10.6775 77.2972 L 10.4821 79.7514 L 10.2742 82.2041 L 10.0540 84.6552 L 9.8215 87.1049 L 9.5766 89.5530 L 9.5596 92.9357 L 8.9686 95.0018 L 8.4400 97.0837 L 7.9755 99.1805 L 7.5765 101.2914 L 7.2444 103.4152 L 7.0632 115.5504 L 7.1894 117.6885 L 6.6600 109.8515 L 6.6051 112.0137 L 6.6208 114.1817 L 6.7072 116.3538 L 6.8641 118.5282" fill="none" stroke="green" stroke-width="0.6" />
    <path d="M 17.0000 -16.0000 L 14.1967 -16.2782 L 1.3735 -15.4267 L 8.3624 -16.4705 L 5.3037 -16.3313 L 2.1284 -15.9803 L -1.1805 -15.3514 L -4.6287 -14.3473 L -15.7698 -6.3156 L -11.7273 -10.6469 L -14.9982 -7.6912 L -17.6444 -4.0493 L -19.4070 -0.0201 L -19.0954 13.9803 L -17.7587 17.5827 L -19.8968 11.5259 L -19.0244 14.8357 L -17.8586 17.8821 L -16.4771 20.6987 L -14.9329 23.3169 L -6.4524 33.0869 L -11.4918 28.0630 L -9.6810 32.2945 L -10.4739 24.6517 L -10.3490 26.9704 L -9.5675 39.2712 L -9.5637 41.6043 L -9.5760 43.9403 L -10.0561 36.2889 L -9.9047 38.6217 L -9.3868 50.9512 L -9.2661 53.2918 L -9.3481 45.6376 L -9.1940 47.9837 L -9.0547 50.3329 L -8.9298 52.6848 L -8.8651 65.0391 L -8.7221 57.3959 L -8.7948 69.7532 L -8.5684 62.1148 L -8.7740 74.4732 L -8.7819 76.8349 L -8.8019 79.1975 L -8.8338 81.5608 L -8.8778 83.9248 L -8.4135 76.3027 L -8.4307 78.6701 L -8.4601 81.0380 L -8.5014 83.4061 L -8.5547 85.7743 L -8.6199 88.1425 L -8.2207 89.6689 L -10.2357 102.1975 L -9.1650 94.9688 L -9.5152 97.6392 L -10.3410 110.3031 L -10.2016 113.0013 L -10.0580 105.6918 L -10.0667 108.3782 L -9.9888 111.0596 L -9.8247 113.7325 L -9.5752 116.3934 L -9.2415 119.0389 L -8.8252 121.6660" fill="none" stroke="green" stroke-width="0.6" />
    <line x1="12.0000" y1="-8.0000" x2="12.0000" y2="-18.0000" stroke="purple" stroke-width="0.5"/>
    <line x1="9.5877" y1="-7.9438" x2="9.1123" y2="-17.9325" stroke="purple" stroke-width="0.5"/>
    <line x1="7.1817" y1="-7.7654" x2="6.1660" y2="-17.7137" stroke="purple" stroke-width="0.5"/>
    <line x1="4.7900" y1="-7.4473" x2="3.1545" y2="-17.3126" stroke="purple" stroke-width="0.5"/>
    <line x1="2.4255" y1="-6.9683" x2="0.0731" y2="-16.6876" stroke="purple" stroke-width="0.5"/>
    <line x1="0.1068" y1="-6.3025" x2="-3.0797" y2="-15.7813" stroke="purple" stroke-width="0.5"/>
    <line x1="-2.1376" y1="-5.4194" x2="-6.2954" y2="-14.5140" stroke="purple" stroke-width="0.5"/>
    <line x1="-4.2650" y1="-4.2841" x2="-9.5407" y2="-12.7793" stroke="purple" stroke-width="0.5"/>
    <line x1="-6.2125" y1="-2.8632" x2="-12.7287" y2="-10.4486" stroke="purple" stroke-width="0.5"/>
    <line x1="-7.8933" y1="-1.1366" x2="-15.6801" y2="-7.4108" stroke="purple" stroke-width="0.5"/>
    <line x1="-9.2067" y1="0.8826" x2="-18.1118" y2="-3.6671" stroke="purple" stroke-width="0.5"/>
    <line x1="-10.0675" y1="3.1319" x2="-19.7336" y2="0.5696" stroke="purple" stroke-width="0.5"/>
    <line x1="-10.4440" y1="5.5113" x2="-20.4271" y2="4.9289" stroke="purple" stroke-width="0.5"/>
    <line x1="-10.3675" y1="7.9200" x2="-20.2991" y2="9.0873" stroke="purple" stroke-width="0.5"/>
    <line x1="-9.9061" y1="10.2864" x2="-19.5612" y2="12.8902" stroke="purple" stroke-width="0.5"/>
    <line x1="-9.1347" y1="12.5712" x2="-18.4068" y2="16.3165" stroke="purple" stroke-width="0.5"/>
    <line x1="-8.1179" y1="14.7584" x2="-16.9725" y2="19.4056" stroke="purple" stroke-width="0.5"/>
    <line x1="-6.9067" y1="16.8447" x2="-15.3458" y2="22.2095" stroke="purple" stroke-width="0.5"/>
    <line x1="-5.5399" y1="18.8328" x2="-13.5819" y2="24.7763" stroke="purple" stroke-width="0.5"/>
    <line x1="-4.0468" y1="20.7278" x2="-11.7163" y2="27.1449" stroke="purple" stroke-width="0.5"/>
    <line x1="-2.4495" y1="22.5362" x2="-9.7722" y2="29.3463" stroke="purple" stroke-width="0.5"/>
    <line x1="-0.7652" y1="24.2639" x2="-7.7658" y2="31.4047" stroke="purple" stroke-width="0.5"/>
    <line x1="0.1308" y1="26.3450" x2="-9.8249" y2="27.2858" stroke="purple" stroke-width="0.5"/>
    <line x1="0.3465" y1="28.7484" x2="-9.6174" y2="29.5969" stroke="purple" stroke-width="0.5"/>
    <line x1="0.5407" y1="31.1536" x2="-9.4303" y2="31.9148" stroke="purple" stroke-width="0.5"/>
    <line x1="0.7143" y1="33.5604" x2="-9.2627" y2="34.2389" stroke="purple" stroke-width="0.5"/>
    <line x1="0.8684" y1="35.9685" x2="-9.1136" y2="36.5682" stroke="purple" stroke-width="0.5"/>
    <line x1="1.0040" y1="38.3778" x2="-8.9823" y2="38.9022" stroke="purple" stroke-width="0.5"/>
    <line x1="1.1218" y1="40.7879" x2="-8.8680" y2="41.2403" stroke="purple" stroke-width="0.5"/>
    <line x1="1.2225" y1="43.1989" x2="-8.7702" y2="43.5819" stroke="purple" stroke-width="0.5"/>
    <line x1="1.3068" y1="45.6104" x2="-8.6882" y2="45.9266" stroke="purple" stroke-width="0.5"/>
    <line x1="1.3753" y1="48.0225" x2="-8.6216" y2="48.2740" stroke="purple" stroke-width="0.5"/>
    <line x1="1.4283" y1="50.4350" x2="-8.5699" y2="50.6238" stroke="purple" stroke-width="0.5"/>
    <line x1="1.4665" y1="52.8477" x2="-8.5326" y2="52.9756" stroke="purple" stroke-width="0.5"/>
    <line x1="1.4902" y1="55.2606" x2="-8.5095" y2="55.3293" stroke="purple" stroke-width="0.5"/>
    <line x1="1.4998" y1="57.6737" x2="-8.5002" y2="57.6844" stroke="purple" stroke-width="0.5"/>
    <line x1="1.4955" y1="60.0867" x2="-8.5044" y2="60.0407" stroke="purple" stroke-width="0.5"/>
    <line x1="1.4777" y1="62.4997" x2="-8.5218" y2="62.3982" stroke="purple" stroke-width="0.5"/>
    <line x1="1.4465" y1="64.9125" x2="-8.5522" y2="64.7564" stroke="purple" stroke-width="0.5"/>
    <line x1="1.4024" y1="67.3252" x2="-8.5954" y2="67.1153" stroke="purple" stroke-width="0.5"/>
    <line x1="1.3453" y1="69.7375" x2="-8.6512" y2="69.4747" stroke="purple" stroke-width="0.5"/>
    <line x1="1.2756" y1="72.1496" x2="-8.7195" y2="71.8344" stroke="purple" stroke-width="0.5"/>
    <line x1="1.1932" y1="74.5612" x2="-8.8000" y2="74.1942" stroke="purple" stroke-width="0.5"/>
    <line x1="1.0985" y1="76.9724" x2="-8.8928" y2="76.5540" stroke="purple" stroke-width="0.5"/>
    <line x1="0.9913" y1="79.3831" x2="-8.9976" y2="78.9136" stroke="purple" stroke-width="0.5"/>
    <line x1="0.8719" y1="81.7932" x2="-9.1145" y2="81.2730" stroke="purple" stroke-width="0.5"/>
    <line x1="0.7403" y1="84.2026" x2="-9.2434" y2="83.6318" stroke="purple" stroke-width="0.5"/>
    <line x1="0.5965" y1="86.6114" x2="-9.3842" y2="85.9901" stroke="purple" stroke-width="0.5"/>
    <line x1="0.4405" y1="89.0194" x2="-9.5369" y2="88.3477" stroke="purple" stroke-width="0.5"/>
    <line x1="0.2723" y1="91.4265" x2="-9.7016" y2="90.7043" stroke="purple" stroke-width="0.5"/>
    <line x1="0.0919" y1="93.8328" x2="-9.8782" y2="93.0600" stroke="purple" stroke-width="0.5"/>
    <line x1="-0.2341" y1="96.2200" x2="-10.0694" y2="94.4129" stroke="purple" stroke-width="0.5"/>
    <line x1="-0.6335" y1="98.5997" x2="-10.5200" y2="97.0969" stroke="purple" stroke-width="0.5"/>
    <line x1="-0.9589" y1="100.9906" x2="-10.8875" y2="99.7979" stroke="purple" stroke-width="0.5"/>
    <line x1="-1.2088" y1="103.3905" x2="-11.1702" y2="102.5127" stroke="purple" stroke-width="0.5"/>
    <line x1="-1.3822" y1="105.7972" x2="-11.3666" y2="105.2377" stroke="purple" stroke-width="0.5"/>
    <line x1="-1.4786" y1="108.2083" x2="-11.4757" y2="107.9694" stroke="purple" stroke-width="0.5"/>
    <line x1="-1.4974" y1="110.6211" x2="-11.4971" y2="110.7039" stroke="purple" stroke-width="0.5"/>
    <line x1="-1.4387" y1="113.0333" x2="-11.4305" y2="113.4375" stroke="purple" stroke-width="0.5"/>
    <line x1="-1.3025" y1="115.4424" x2="-11.2763" y2="116.1662" stroke="purple" stroke-width="0.5"/>
    <line x1="-1.0896" y1="117.8460" x2="-11.0353" y2="118.8864" stroke="purple" stroke-width="0.5"/>
    <line x1="-0.8007" y1="120.2416" x2="-10.7088" y2="121.5946" stroke="purple" stroke-width="0.5"/>
    <line x1="-0.4371" y1="122.6270" x2="-10.2983" y2="124.2872" stroke="purple" stroke-width="0.5"/>
    <line x1="0.0000" y1="125.0000" x2="-9.8058" y2="126.9612" stroke="purple" stroke-width="0.5"/>
    <circle cx="12.0000" cy="-8.0000" r="1.2" fill="none" stroke="blue" stroke-width="0.5"/>
    <circle cx="9.5877" cy="-7.9438" r="1.2" fill="none" stroke="blue" stroke-width="0.5"/>
    <circle cx="7.1817" cy="-7.7654" r="1.2" fill="none" stroke="blue" stroke-width="0.5"/>
    <circle cx="4.7900" cy="-7.4473" r="1.2" fill="none" stroke="blue" stroke-width="0.5"/>
    <circle cx="2.4255" cy="-6.9683" r="1.2" fill="none" stroke="blue" stroke-width="0.5"/>
    <circle cx="0.1068" cy="-6.3025" r="1.2" fill="none" stroke="blue" stroke-width="0.5"/>
    <circle cx="-2.1376" cy="-5.4194" r="1.2" fill="none" stroke="blue" stroke-width="0.5"/>
    <circle cx="-4.2650" cy="-4.2841" r="1.2" fill="none" stroke="blue" stroke-width="0.5"/>
    <circle cx="-6.2125" cy="-2.8632" r="1.2" fill="none" stroke="blue" stroke-width="0.5"/>
    <circle cx="-7.8933" cy="-1.1366" r="1.2" fill="none" stroke="blue" stroke-width="0.5"/>
    <circle cx="-9.2067" cy="0.8826" r="1.2" fill="none" stroke="blue" stroke-width="0.5"/>
    <circle cx="-10.0675" cy="3.1319" r="1.2" fill="none" stroke="blue" stroke-width="0.5"/>
    <circle cx="-10.4440" cy="5.5113" r="1.2" fill="none" stroke="blue" stroke-width="0.5"/>
    <circle cx="-10.3675" cy="7.9200" r="1.2" fill="none" stroke="blue" stroke-width="0.5"/>
    <circle cx="-9.9061" cy="10.2864" r="1.2" fill="none" stroke="blue" stroke-width="0.5"/>
    <circle cx="-9.1347" cy="12.5712" r="1.2" fill="none" stroke="blue" stroke-width="0.5"/>
    <circle cx="-8.1179" cy="14.7584" r="1.2" fill="none" stroke="blue" stroke-width="0.5"/>
    <circle cx="-6.9067" cy="16.8447" r="1.2" fill="none" stroke="blue" stroke-width="0.5"/>
    <circle cx="-5.5399" cy="18.8328" r="1.2" fill="none" stroke="blue" stroke-width="0.5"/>
    <circle cx="-4.0468" cy="20.7278" r="1.2" fill="none" stroke="blue" stroke-width="0.5"/>
    <circle cx="-2.4495" cy="22.5362" r="1.2" fill="none" stroke="blue" stroke-width="0.5"/>
    <circle cx="-0.7652" cy="24.2639" r="1.2" fill="none" stroke="blue" stroke-width="0.5"/>
    <circle cx="0.1308" cy="26.3450" r="1.2" fill="none" stroke="blue" stroke-width="0.5"/>
    <circle cx="0.3465" cy="28.7484" r="1.2" fill="none" stroke="blue" stroke-width="0.5"/>
    <circle cx="0.5407" cy="31.1536" r="1.2" fill="none" stroke="blue" stroke-width="0.5"/>
    <circle cx="0.7143" cy="33.5604" r="1.2" fill="none" stroke="blue" stroke-width="0.5"/>
    <circle cx="0.8684" cy="35.9685" r="1.2" fill="none" stroke="blue" stroke-width="0.5"/>
    <circle cx="1.0040" cy="38.3778" r="1.2" fill="none" stroke="blue" stroke-width="0.5"/>
    <circle cx="1.1218" cy="40.7879" r="1.2" fill="none" stroke="blue" stroke-width="0.5"/>
    <circle cx="1.2225" cy="43.1989" r="1.2" fill="none" stroke="blue" stroke-width="0.5"/>
    <circle cx="1.3068" cy="45.6104" r="1.2" fill="none" stroke="blue" stroke-width="0.5"/>
    <circle cx="1.3753" cy="48.0225" r="1.2" fill="none" stroke="blue" stroke-width="0.5"/>
    <circle cx="1.4283" cy="50.4350" r="1.2" fill="none" stroke="blue" stroke-width="0.5"/>
    <circle cx="1.4665" cy="52.8477" r="1.2" fill="none" stroke="blue" stroke-width="0.5"/>
    <circle cx="1.4902" cy="55.2606" r="1.2" fill="none" stroke="blue" stroke-width="0.5"/>
    <circle cx="1.4998" cy="57.6737" r="1.2" fill="none" stroke="blue" stroke-width="0.5"/>
    <circle cx="1.4955" cy="60.0867" r="1.2" fill="none" stroke="blue" stroke-width="0.5"/>
    <circle cx="1.4777" cy="62.4997" r="1.2" fill="none" stroke="blue" stroke-width="0.5"/>
    <circle cx="1.4465" cy="64.9125" r="1.2" fill="none" stroke="blue" stroke-width="0.5"/>
    <circle cx="1.4024" cy="67.3252" r="1.2" fill="none" stroke="blue" stroke-width="0.5"/>
    <circle cx="1.3453" cy="69.7375" r="1.2" fill="none" stroke="blue" stroke-width="0.5"/>
    <circle cx="1.2756" cy="72.1496" r="1.2" fill="none" stroke="blue" stroke-width="0.5"/>
    <circle cx="1.1932" cy="74.5612" r="1.2" fill="none" stroke="blue" stroke-width="0.5"/>
    <circle cx="1.0985" cy="76.9724" r="1.2" fill="none" stroke="blue" stroke-width="0.5"/>
    <circle cx="0.9913" cy="79.3831" r="1.2" fill="none" stroke="blue" stroke-width="0.5"/>
    <circle cx="0.8719" cy="81.7932" r="1.2" fill="none" stroke="blue" stroke-width="0.5"/>
    <circle cx="0.7403" cy="84.2026" r="1.2" fill="none" stroke="blue" stroke-width="0.5"/>
    <circle cx="0.5965" cy="86.6114" r="1.2" fill="none" stroke="blue" stroke-width="0.5"/>
    <circle cx="0.4405" cy="89.0194" r="1.2" fill="none" stroke="blue" stroke-width="0.5"/>
    <circle cx="0.2723" cy="91.4265" r="1.2" fill="none" stroke="blue" stroke-width="0.5"/>
    <circle cx="0.0919" cy="93.8328" r="1.2" fill="none" stroke="blue" stroke-width="0.5"/>
    <circle cx="-0.2341" cy="96.2200" r="1.2" fill="none" stroke="blue" stroke-width="0.5"/>
    <circle cx="-0.6335" cy="98.5997" r="1.2" fill="none" stroke="blue" stroke-width="0.5"/>
    <circle cx="-0.9589" cy="100.9906" r="1.2" fill="none" stroke="blue" stroke-width="0.5"/>
    <circle cx="-1.2088" cy="103.3905" r="1.2" fill="none" stroke="blue" stroke-width="0.5"/>
    <circle cx="-1.3822" cy="105.7972" r="1.2" fill="none" stroke="blue" stroke-width="0.5"/>
    <circle cx="-1.4786" cy="108.2083" r="1.2" fill="none" stroke="blue" stroke-width="0.5"/>
    <circle cx="-1.4974" cy="110.6211" r="1.2" fill="none" stroke="blue" stroke-width="0.5"/>
    <circle cx="-1.4387" cy="113.0333" r="1.2" fill="none" stroke="blue" stroke-width="0.5"/>
    <circle cx="-1.3025" cy="115.4424" r="1.2" fill="none" stroke="blue" stroke-width="0.5"/>
    <circle cx="-1.0896" cy="117.8460" r="1.2" fill="none" stroke="blue" stroke-width="0.5"/>
    <circle cx="-0.8007" cy="120.2416" r="1.2" fill="none" stroke="blue" stroke-width="0.5"/>
    <circle cx="-0.4371" cy="122.6270" r="1.2" fill="none" stroke="blue" stroke-width="0.5"/>
    <circle cx="0.0000" cy="125.0000" r="1.2" fill="none" stroke="blue" stroke-width="0.5"/>
  </g>
</svg>