<svg xmlns="http://www.w3.org/2000/svg" viewBox="-30.8684 -26.9240 57.8684 168.4826">
  <path d="M -20.8684 8.0641 L -20.7774 4.1091 L -19.9185 -0.0499 L -18.1340 -4.1791 L -15.4441 -7.9190 L -12.1126 -10.9574 L -8.5030 -13.2028 L -13.3788 -9.4821 L -1.3790 -15.7855 L 1.9781 -16.4272 L 5.1942 -16.7839 L 8.2872 -16.9240 L 11.2757 -16.8939 L 14.1754 -16.7257 L 17.0000 -16.4422 L 17.0000 0.4422 L 14.9887 0.3627 L 3.0877 1.3632 L 11.1582 0.3940 L 9.3761 0.4950 L -1.7645 3.8221 L 6.1984 0.7889 L -3.6465 6.1896 L 3.6635 0.9600 L -3.6740 8.6841 L -2.9693 9.6841 L 0.5614 0.7768 L -0.3873 1.0894 L 0.0424 11.7308 L -1.5476 2.8537 L -1.6266 4.1459 L -1.3842 5.5776 L 4.5022 15.5167 L -0.1060 8.5994 L 0.8467 10.1142 L 8.7730 18.9274 L 3.2162 13.0606 L 10.5109 20.3418 L 10.8932 22.8323 L 11.2500 25.3215 L 11.5831 27.8098 L 11.8937 30.2971 L 12.1832 32.7838 L 12.4527 35.2697 L 12.5711 37.7602 L 12.6003 40.2507 L 12.6118 42.7382 L 12.6064 45.2230 L 12.7127 57.7042 L 12.5474 50.1847 L 12.5055 62.6619 L 12.4274 55.1369 L 12.3456 57.6098 L 12.2496 60.0806 L 12.1399 62.5495 L 12.0167 65.0164 L 11.8802 67.4815 L 11.7306 69.9449 L 11.5682 72.4065 L 11.3930 74.8664 L 11.2051 77.3247 L 11.0048 79.7813 L 10.1707 92.2170 L 10.5668 84.6898 L 9.6071 97.1155 L 10.0795 89.5920 L 10.0510 93.0260 L 9.4578 95.0761 L 8.9265 97.1421 L 8.4589 99.2231 L 8.0562 101.3183 L 7.7200 103.4266 L 7.5340 115.5465 L 7.6551 117.6696 L 7.1201 109.8181 L 7.0591 111.9662 L 7.0684 114.1206 L 8.8082 126.1408 L 9.2588 128.2473 L -7.2977 131.5586 L -9.6823 119.1131 L -10.0228 116.4545 L -10.2788 113.7800 L -9.7252 121.0668 L -10.5325 108.3971 L -10.5289 105.6957 L -10.4383 102.9928 L -10.2612 100.2918 L -9.9985 97.5966 L -9.6516 94.9104 L -9.2221 92.2367 L -8.7121 89.5786 L -9.1228 88.1036 L -9.0625 85.7375 L -9.0142 83.3715 L -8.9778 81.0057 L -8.9534 78.6402 L -8.9411 76.2752 L -9.4103 83.8997 L -9.3713 81.5383 L -9.3442 79.1776 L -9.3291 76.8176 L -9.0632 64.4621 L -9.3352 72.1009 L -9.3565 69.7444 L -9.3902 67.3896 L -9.3905 55.0366 L -9.5060 52.6854 L -9.6356 50.3369 L -9.7797 47.9912 L -9.9386 45.6488 L -9.8613 53.3068 L -10.3028 40.9752 L -10.5091 38.6449 L -10.2091 46.3061 L -10.6997 33.9855 L -10.7566 31.6579 L -10.1545 39.3111 L -10.9299 27.0148 L -10.2001 34.6646 L -10.2494 32.3482 L -4.7465 35.4671 L -13.6720 26.1450 L -15.3573 23.6720 L -16.9174 21.0241 L -12.9508 26.6118 L -14.8516 23.9392 L -20.3882 11.7244 L -20.8684 8.0641 Z" fill="none" stroke="black" stroke-width="1" />

</svg>