<svg xmlns="http://www.w3.org/2000/svg" viewBox="-31.2389 -27.5309 56.3735 163.6691">
  <path d="M -21.2389 5.7287 L -21.0807 9.7001 L -20.3986 13.3389 L -19.3490 16.6560 L -18.0398 19.6894 L -16.5425 22.4804 L -14.9048 25.0655 L -13.1589 27.4752 L -11.3276 29.7337 L -11.5663 23.6829 L -11.4226 25.9476 L -11.3005 28.2178 L -11.1987 30.4926 L -11.1163 32.7713 L -11.0522 35.0532 L -11.0056 37.3376 L -10.8447 39.6084 L -10.6288 41.8762 L -10.4280 44.1495 L -10.2461 46.4409 L -10.0833 48.7496 L -9.9346 51.0620 L -9.7998 53.3779 L -9.6786 55.6970 L -9.5707 58.0189 L -9.4757 60.3434 L -9.3936 62.6704 L -9.3239 64.9994 L -9.2667 67.3305 L -9.2216 69.6634 L -9.1887 71.9978 L -9.1677 74.3337 L -9.1586 76.6709 L -9.1612 79.0092 L -9.1757 81.3486 L -9.2018 83.6887 L -9.2395 86.0297 L -9.2890 88.3712 L -8.8906 89.8057 L -9.3795 92.4474 L -9.7890 95.1041 L -10.1121 97.7720 L -10.3280 100.4445 L -10.4519 103.1192 L -10.4953 105.7943 L -10.4646 108.4683 L -10.3634 111.1396 L -10.1929 113.8061 L -9.9531 116.4656 L -9.6434 119.1157 L -9.2631 121.7536 L 7.3019 118.4406 L 8.7692 126.1382 L 8.3516 124.0175 L 8.0137 121.8859 L 7.7584 119.7453 L 7.5873 117.5984 L 7.5004 115.4480 L 7.4947 113.2974 L 7.5635 111.1499 L 7.6945 109.0090 L 7.8713 106.8771 L 8.1124 104.7519 L 8.4224 102.6343 L 9.4728 99.2945 L 9.7841 96.8234 L 10.0827 94.3500 L 10.3686 91.8742 L 10.6418 89.3960 L 10.9024 86.9154 L 11.1503 84.4324 L 11.3856 81.9470 L 11.6081 79.4591 L 11.8178 76.9687 L 12.0146 74.4756 L 12.1983 71.9800 L 12.3688 69.4816 L 12.5260 66.9805 L 12.6696 64.4764 L 12.7994 61.9694 L 12.9150 59.4593 L 13.0163 56.9458 L 13.1028 54.4290 L 13.1785 51.8955 L 13.2425 49.3447 L 13.2897 46.7893 L 13.2492 44.2382 L 13.0602 41.7024 L 12.8531 39.1658 L 12.6273 36.6282 L 12.3818 34.0895 L 12.1157 31.5492 L 11.8279 29.0072 L 9.7973 18.7940 L 8.2600 17.5972 L 6.8112 16.3901 L 5.4627 15.1851 L 4.2263 14.0000 L 3.1132 12.8608 L 2.1292 11.8035 L 1.2684 10.8728 L 0.5039 10.1113 L -0.2146 9.5299 L -0.9302 9.0587 L -1.6028 8.5407 L -2.0731 7.8338 L -2.1629 6.9267 L -1.7944 5.9171 L -0.9960 4.9158 L 0.1556 3.9975 L 1.5796 3.1992 L 3.2084 2.5336 L 4.9898 2.0001 L 6.8849 1.5924 L 8.8654 1.3015 L 15.1346 -17.3015 L 12.2905 -17.4800 L 9.3735 -17.5309 L 6.3716 -17.4281 L 3.2713 -17.1358 L 0.0581 -16.6026 L -3.2792 -15.7545 L -6.7357 -14.4852 L -10.2620 -12.6532 L -13.7134 -10.1070 L -16.8106 -6.7756 L -19.2048 -2.7948 L -20.6735 1.4927 L -21.2389 5.7287 Z" fill="none" stroke="black" stroke-width="1" />
  <g id="debug">
    <path d="M 12.0000 -8.0000 L 9.5877 -7.9438 L 7.1817 -7.7654 L 4.7900 -7.4473 L 2.4255 -6.9683 L 0.1068 -6.3025 L -2.1376 -5.4194 L -4.2650 -4.2841 L -6.2125 -2.8632 L -7.8933 -1.1366 L -9.2067 0.8826 L -10.0675 3.1319 L -10.4440 5.5113 L -10.3675 7.9200 L -9.9061 10.2864 L -9.1347 12.5712 L -8.1179 14.7584 L -6.9067 16.8447 L -5.5399 18.8328 L -4.0468 20.7278 L -2.4495 22.5362 L -0.7652 24.2639 L 0.1308 26.3450 L 0.3465 28.7484 L 0.5407 31.1536 L 0.7143 33.5604 L 0.8684 35.9685 L 1.0040 38.3778 L 1.1218 40.7879 L 1.2225 43.1989 L 1.3068 45.6104 L 1.3753 48.0225 L 1.4283 50.4350 L 1.4665 52.8477 L 1.4902 55.2606 L 1.4998 57.6737 L 1.4955 60.0867 L 1.4777 62.4997 L 1.4465 64.9125 L 1.4024 67.3252 L 1.3453 69.7375 L 1.2756 72.1496 L 1.1932 74.5612 L 1.0985 76.9724 L 0.9913 79.3831 L 0.8719 81.7932 L 0.7403 84.2026 L 0.5965 86.6114 L 0.4405 89.0194 L 0.2723 91.4265 L 0.0919 93.8328 L -0.2341 96.2200 L -0.6335 98.5997 L -0.9589 100.9906 L -1.2088 103.3905 L -1.3822 105.7972 L -1.4786 108.2083 L -1.4974 110.6211 L -1.4387 113.0333 L -1.3025 115.4424 L -1.0896 117.8460 L -0.8007 120.2416 L -0.4371 122.6270 L 0.0000 125.0000" fill="none" stroke="orange" stroke-width="0.6" />
    <path d="M 8.8654 1.3015 L 6.8849 1.5924 L 4.9898 2.0001 L 3.2084 2.5336 L 1.5796 3.1992 L 0.1556 3.9975 L -0.9960 4.9158 L -1.7944 5.9171 L -2.1629 6.9267 L -2.0731 7.8338 L -1.6028 8.5407 L -0.9302 9.0587 L -0.2146 9.5299 L 0.5039 10.1113 L 1.2684 10.8728 L 2.1292 11.8035 L 3.1132 12.8608 L 4.2263 14.0000 L 5.4627 15.1851 L 6.8112 16.3901 L 8.2600 17.5972 L 9.7973 18.7940 L 11.8279 29.0072 L 12.1157 31.5492 L 12.3818 34.0895 L 12.6273 36.6282 L 12.8531 39.1658 L 13.0602 41.7024 L 13.2492 44.2382 L 13.2897 46.7893 L 13.2425 49.3447 L 13.1785 51.8955 L 13.1028 54.4290 L 13.0163 56.9458 L 12.9150 59.4593 L 12.7994 61.9694 L 12.6696 64.4764 L 12.5260 66.9805 L 12.3688 69.4816 L 12.1983 71.9800 L 12.0146 74.4756 L 11.8178 76.9687 L 11.6081 79.4591 L 11.3856 81.9470 L 11.1503 84.4324 L 10.9024 86.9154 L 10.6418 89.3960 L 10.3686 91.8742 L 10.0827 94.3500 L 9.7841 96.8234 L 9.4728 99.2945 L 8.4224 102.6343 L 8.1124 104.7519 L 7.8713 106.8771 L 7.6972 109.0087 L 7.5819 111.1470 L 7.5329 113.2903 L 7.5550 115.4363 L 7.6509 117.5830 L 7.8222 119.7280 L 8.0694 121.8690 L 8.3925 124.0039 L 8.7908 126.1303 L 7.3019 118.4406" fill="none" stroke="green" stroke-width="0.6" />
    <path d="M 15.1346 -17.3015 L 12.2905 -17.4800 L 9.3735 -17.5309 L 6.3716 -17.4281 L 3.2713 -17.1358 L 0.0581 -16.6026 L -3.2792 -15.7545 L -6.7357 -14.4852 L -10.2620 -12.6532 L -13.7134 -10.1070 L -16.8106 -6.7756 L -19.2048 -2.7948 L -20.6735 1.4927 L -21.2389 5.7287 L -21.0807 9.7001 L -20.3986 13.3389 L -19.3490 16.6560 L -18.0398 19.6894 L -16.5425 22.4804 L -14.9048 25.0655 L -13.1589 27.4752 L -11.3276 29.7337 L -11.5663 23.6829 L -11.4226 25.9476 L -11.3005 28.2178 L -11.1987 30.4926 L -11.1163 32.7713 L -11.0522 35.0532 L -11.0056 37.3376 L -10.8447 39.6084 L -10.6288 41.8762 L -10.4280 44.1495 L -10.2461 46.4409 L -10.0833 48.7496 L -9.9346 51.0620 L -9.7998 53.3779 L -9.6786 55.6970 L -9.5707 58.0189 L -9.4757 60.3434 L -9.3936 62.6704 L -9.3239 64.9994 L -9.2667 67.3305 L -9.2216 69.6634 L -9.1887 71.9978 L -9.1677 74.3337 L -9.1586 76.6709 L -9.1612 79.0092 L -9.1757 81.3486 L -9.2018 83.6887 L -9.2395 86.0297 L -9.2890 88.3712 L -8.8906 89.8057 L -9.3795 92.4474 L -9.7890 95.1041 L -10.1147 97.7724 L -10.3463 100.4474 L -10.4901 103.1262 L -10.5499 105.8059 L -10.5283 108.4837 L -10.4273 111.1569 L -10.2486 113.8229 L -9.9940 116.4793 L -9.6650 119.1236 L -9.2631 121.7536" fill="none" stroke="green" stroke-width="0.6" />
    <line x1="12.0000" y1="-8.0000" x2="12.0000" y2="-18.0000" stroke="purple" stroke-width="0.5"/>
    <line x1="9.5877" y1="-7.9438" x2="9.1123" y2="-17.9325" stroke="purple" stroke-width="0.5"/>
    <line x1="7.1817" y1="-7.7654" x2="6.1660" y2="-17.7137" stroke="purple" stroke-width="0.5"/>
    <line x1="4.7900" y1="-7.4473" x2="3.1545" y2="-17.3126" stroke="purple" stroke-width="0.5"/>
    <line x1="2.4255" y1="-6.9683" x2="0.0731" y2="-16.6876" stroke="purple" stroke-width="0.5"/>
    <line x1="0.1068" y1="-6.3025" x2="-3.0797" y2="-15.7813" stroke="purple" stroke-width="0.5"/>
    <line x1="-2.1376" y1="-5.4194" x2="-6.2954" y2="-14.5140" stroke="purple" stroke-width="0.5"/>
    <line x1="-4.2650" y1="-4.2841" x2="-9.5407" y2="-12.7793" stroke="purple" stroke-width="0.5"/>
    <line x1="-6.2125" y1="-2.8632" x2="-12.7287" y2="-10.4486" stroke="purple" stroke-width="0.5"/>
    <line x1="-7.8933" y1="-1.1366" x2="-15.6801" y2="-7.4108" stroke="purple" stroke-width="0.5"/>
    <line x1="-9.2067" y1="0.8826" x2="-18.1118" y2="-3.6671" stroke="purple" stroke-width="0.5"/>
    <line x1="-10.0675" y1="3.1319" x2="-19.7336" y2="0.5696" stroke="purple" stroke-width="0.5"/>
    <line x1="-10.4440" y1="5.5113" x2="-20.4271" y2="4.9289" stroke="purple" stroke-width="0.5"/>
    <line x1="-10.3675" y1="7.9200" x2="-20.2991" y2="9.0873" stroke="purple" stroke-width="0.5"/>
    <line x1="-9.9061" y1="10.2864" x2="-19.5612" y2="12.8902" stroke="purple" stroke-width="0.5"/>
    <line x1="-9.1347" y1="12.5712" x2="-18.4068" y2="16.3165" stroke="purple" stroke-width="0.5"/>
    <line x1="-8.1179" y1="14.7584" x2="-16.9725" y2="19.4056" stroke="purple" stroke-width="0.5"/>
    <line x1="-6.9067" y1="16.8447" x2="-15.3458" y2="22.2095" stroke="purple" stroke-width="0.5"/>
    <line x1="-5.5399" y1="18.8328" x2="-13.5819" y2="24.7763" stroke="purple" stroke-width="0.5"/>
    <line x1="-4.0468" y1="20.7278" x2="-11.7163" y2="27.1449" stroke="purple" stroke-width="0.5"/>
    <line x1="-2.4495" y1="22.5362" x2="-9.7722" y2="29.3463" stroke="purple" stroke-width="0.5"/>
    <line x1="-0.7652" y1="24.2639" x2="-7.7658" y2="31.4047" stroke="purple" stroke-width="0.5"/>
    <line x1="0.1308" y1="26.3450" x2="-9.8249" y2="27.2858" stroke="purple" stroke-width="0.5"/>
    <line x1="0.3465" y1="28.7484" x2="-9.6174" y2="29.5969" stroke="purple" stroke-width="0.5"/>
    <line x1="0.5407" y1="31.1536" x2="-9.4303" y2="31.9148" stroke="purple" stroke-width="0.5"/>
    <line x1="0.7143" y1="33.5604" x2="-9.2627" y2="34.2389" stroke="purple" stroke-width="0.5"/>
    <line x1="0.8684" y1="35.9685" x2="-9.1136" y2="36.5682" stroke="purple" stroke-width="0.5"/>
    <line x1="1.0040" y1="38.3778" x2="-8.9823" y2="38.9022" stroke="purple" stroke-width="0.5"/>
    <line x1="1.1218" y1="40.7879" x2="-8.8680" y2="41.2403" stroke="purple" stroke-width="0.5"/>
    <line x1="1.2225" y1="43.1989" x2="-8.7702" y2="43.5819" stroke="purple" stroke-width="0.5"/>
    <line x1="1.3068" y1="45.6104" x2="-8.6882" y2="45.9266" stroke="purple" stroke-width="0.5"/>
    <line x1="1.3753" y1="48.0225" x2="-8.6216" y2="48.2740" stroke="purple" stroke-width="0.5"/>
    <line x1="1.4283" y1="50.4350" x2="-8.5699" y2="50.6238" stroke="purple" stroke-width="0.5"/>
    <line x1="1.4665" y1="52.8477" x2="-8.5326" y2="52.9756" stroke="purple" stroke-width="0.5"/>
    <line x1="1.4902" y1="55.2606" x2="-8.5095" y2="55.3293" stroke="purple" stroke-width="0.5"/>
    <line x1="1.4998" y1="57.6737" x2="-8.5002" y2="57.6844" stroke="purple" stroke-width="0.5"/>
    <line x1="1.4955" y1="60.0867" x2="-8.5044" y2="60.0407" stroke="purple" stroke-width="0.5"/>
    <line x1="1.4777" y1="62.4997" x2="-8.5218" y2="62.3982" stroke="purple" stroke-width="0.5"/>
    <line x1="1.4465" y1="64.9125" x2="-8.5522" y2="64.7564" stroke="purple" stroke-width="0.5"/>
    <line x1="1.4024" y1="67.3252" x2="-8.5954" y2="67.1153" stroke="purple" stroke-width="0.5"/>
    <line x1="1.3453" y1="69.7375" x2="-8.6512" y2="69.4747" stroke="purple" stroke-width="0.5"/>
    <line x1="1.2756" y1="72.1496" x2="-8.7195" y2="71.8344" stroke="purple" stroke-width="0.5"/>
    <line x1="1.1932" y1="74.5612" x2="-8.8000" y2="74.1942" stroke="purple" stroke-width="0.5"/>
    <line x1="1.0985" y1="76.9724" x2="-8.8928" y2="76.5540" stroke="purple" stroke-width="0.5"/>
    <line x1="0.9913" y1="79.3831" x2="-8.9976" y2="78.9136" stroke="purple" stroke-width="0.5"/>
    <line x1="0.8719" y1="81.7932" x2="-9.1145" y2="81.2730" stroke="purple" stroke-width="0.5"/>
    <line x1="0.7403" y1="84.2026" x2="-9.2434" y2="83.6318" stroke="purple" stroke-width="0.5"/>
    <line x1="0.5965" y1="86.6114" x2="-9.3842" y2="85.9901" stroke="purple" stroke-width="0.5"/>
    <line x1="0.4405" y1="89.0194" x2="-9.5369" y2="88.3477" stroke="purple" stroke-width="0.5"/>
    <line x1="0.2723" y1="91.4265" x2="-9.7016" y2="90.7043" stroke="purple" stroke-width="0.5"/>
    <line x1="0.0919" y1="93.8328" x2="-9.8782" y2="93.0600" stroke="purple" stroke-width="0.5"/>
    <line x1="-0.2341" y1="96.2200" x2="-10.0694" y2="94.4129" stroke="purple" stroke-width="0.5"/>
    <line x1="-0.6335" y1="98.5997" x2="-10.5200" y2="97.0969" stroke="purple" stroke-width="0.5"/>
    <line x1="-0.9589" y1="100.9906" x2="-10.8875" y2="99.7979" stroke="purple" stroke-width="0.5"/>
    <line x1="-1.2088" y1="103.3905" x2="-11.1702" y2="102.5127" stroke="purple" stroke-width="0.5"/>
    <line x1="-1.3822" y1="105.7972" x2="-11.3666" y2="105.2377" stroke="purple" stroke-width="0.5"/>
    <line x1="-1.4786" y1="108.2083" x2="-11.4757" y2="107.9694" stroke="purple" stroke-width="0.5"/>
    <line x1="-1.4974" y1="110.6211" x2="-11.4971" y2="110.7039" stroke="purple" stroke-width="0.5"/>
    <line x1="-1.4387" y1="113.0333" x2="-11.4305" y2="113.4375" stroke="purple" stroke-width="0.5"/>
    <line x1="-1.3025" y1="115.4424" x2="-11.2763" y2="116.1662" stroke="purple" stroke-width="0.5"/>
    <line x1="-1.0896" y1="117.8460" x2="-11.0353" y2="118.8864" stroke="purple" stroke-width="0.5"/>
    <line x1="-0.8007" y1="120.2416" x2="-10.7088" y2="121.5946" stroke="purple" stroke-width="0.5"/>
    <line x1="-0.4371" y1="122.6270" x2="-10.2983" y2="124.2872" stroke="purple" stroke-width="0.5"/>
    <line x1="0.0000" y1="125.0000" x2="-9.8058" y2="126.9612" stroke="purple" stroke-width="0.5"/>
    <circle cx="12.0000" cy="-8.0000" r="1.2" fill="none" stroke="blue" stroke-width="0.5"/>
    <circle cx="9.5877" cy="-7.9438" r="1.2" fill="none" stroke="blue" stroke-width="0.5"/>
    <circle cx="7.1817" cy="-7.7654" r="1.2" fill="none" stroke="blue" stroke-width="0.5"/>
    <circle cx="4.7900" cy="-7.4473" r="1.2" fill="none" stroke="blue" stroke-width="0.5"/>
    <circle cx="2.4255" cy="-6.9683" r="1.2" fill="none" stroke="blue" stroke-width="0.5"/>
    <circle cx="0.1068" cy="-6.3025" r="1.2" fill="none" stroke="blue" stroke-width="0.5"/>
    <circle cx="-2.1376" cy="-5.4194" r="1.2" fill="none" stroke="blue" stroke-width="0.5"/>
    <circle cx="-4.2650" cy="-4.2841" r="1.2" fill="none" stroke="blue" stroke-width="0.5"/>
    <circle cx="-6.2125" cy="-2.8632" r="1.2" fill="none" stroke="blue" stroke-width="0.5"/>
    <circle cx="-7.8933" cy="-1.1366" r="1.2" fill="none" stroke="blue" stroke-width="0.5"/>
    <circle cx="-9.2067" cy="0.8826" r="1.2" fill="none" stroke="blue" stroke-width="0.5"/>
    <circle cx="-10.0675" cy="3.1319" r="1.2" fill="none" stroke="blue" stroke-width="0.5"/>
    <circle cx="-10.4440" cy="5.5113" r="1.2" fill="none" stroke="blue" stroke-width="0.5"/>
    <circle cx="-10.3675" cy="7.9200" r="1.2" fill="none" stroke="blue" stroke-width="0.5"/>
    <circle cx="-9.9061" cy="10.2864" r="1.2" fill="none" stroke="blue" stroke-width="0.5"/>
    <circle cx="-9.1347" cy="12.5712" r="1.2" fill="none" stroke="blue" stroke-width="0.5"/>
    <circle cx="-8.1179" cy="14.7584" r="1.2" fill="none" stroke="blue" stroke-width="0.5"/>
    <circle cx="-6.9067" cy="16.8447" r="1.2" fill="none" stroke="blue" stroke-width="0.5"/>
    <circle cx="-5.5399" cy="18.8328" r="1.2" fill="none" stroke="blue" stroke-width="0.5"/>
    <circle cx="-4.0468" cy="20.7278" r="1.2" fill="none" stroke="blue" stroke-width="0.5"/>
    <circle cx="-2.4495" cy="22.5362" r="1.2" fill="none" stroke="blue" stroke-width="0.5"/>
    <circle cx="-0.7652" cy="24.2639" r="1.2" fill="none" stroke="blue" stroke-width="0.5"/>
    <circle cx="0.1308" cy="26.3450" r="1.2" fill="none" stroke="blue" stroke-width="0.5"/>
    <circle cx="0.3465" cy="28.7484" r="1.2" fill="none" stroke="blue" stroke-width="0.5"/>
    <circle cx="0.5407" cy="31.1536" r="1.2" fill="none" stroke="blue" stroke-width="0.5"/>
    <circle cx="0.7143" cy="33.5604" r="1.2" fill="none" stroke="blue" stroke-width="0.5"/>
    <circle cx="0.8684" cy="35.9685" r="1.2" fill="none" stroke="blue" stroke-width="0.5"/>
    <circle cx="1.0040" cy="38.3778" r="1.2" fill="none" stroke="blue" stroke-width="0.5"/>
    <circle cx="1.1218" cy="40.7879" r="1.2" fill="none" stroke="blue" stroke-width="0.5"/>
    <circle cx="1.2225" cy="43.1989" r="1.2" fill="none" stroke="blue" stroke-width="0.5"/>
    <circle cx="1.3068" cy="45.6104" r="1.2" fill="none" stroke="blue" stroke-width="0.5"/>
    <circle cx="1.3753" cy="48.0225" r="1.2" fill="none" stroke="blue" stroke-width="0.5"/>
    <circle cx="1.4283" cy="50.4350" r="1.2" fill="none" stroke="blue" stroke-width="0.5"/>
    <circle cx="1.4665" cy="52.8477" r="1.2" fill="none" stroke="blue" stroke-width="0.5"/>
    <circle cx="1.4902" cy="55.2606" r="1.2" fill="none" stroke="blue" stroke-width="0.5"/>
    <circle cx="1.4998" cy="57.6737" r="1.2" fill="none" stroke="blue" stroke-width="0.5"/>
    <circle cx="1.4955" cy="60.0867" r="1.2" fill="none" stroke="blue" stroke-width="0.5"/>
    <circle cx="1.4777" cy="62.4997" r="1.2" fill="none" stroke="blue" stroke-width="0.5"/>
    <circle cx="1.4465" cy="64.9125" r="1.2" fill="none" stroke="blue" stroke-width="0.5"/>
    <circle cx="1.4024" cy="67.3252" r="1.2" fill="none" stroke="blue" stroke-width="0.5"/>
    <circle cx="1.3453" cy="69.7375" r="1.2" fill="none" stroke="blue" stroke-width="0.5"/>
    <circle cx="1.2756" cy="72.1496" r="1.2" fill="none" stroke="blue" stroke-width="0.5"/>
    <circle cx="1.1932" cy="74.5612" r="1.2" fill="none" stroke="blue" stroke-width="0.5"/>
    <circle cx="1.0985" cy="76.9724" r="1.2" fill="none" stroke="blue" stroke-width="0.5"/>
    <circle cx="0.9913" cy="79.3831" r="1.2" fill="none" stroke="blue" stroke-width="0.5"/>
    <circle cx="0.8719" cy="81.7932" r="1.2" fill="none" stroke="blue" stroke-width="0.5"/>
    <circle cx="0.7403" cy="84.2026" r="1.2" fill="none" stroke="blue" stroke-width="0.5"/>
    <circle cx="0.5965" cy="86.6114" r="1.2" fill="none" stroke="blue" stroke-width="0.5"/>
    <circle cx="0.4405" cy="89.0194" r="1.2" fill="none" stroke="blue" stroke-width="0.5"/>
    <circle cx="0.2723" cy="91.4265" r="1.2" fill="none" stroke="blue" stroke-width="0.5"/>
    <circle cx="0.0919" cy="93.8328" r="1.2" fill="none" stroke="blue" stroke-width="0.5"/>
    <circle cx="-0.2341" cy="96.2200" r="1.2" fill="none" stroke="blue" stroke-width="0.5"/>
    <circle cx="-0.6335" cy="98.5997" r="1.2" fill="none" stroke="blue" stroke-width="0.5"/>
    <circle cx="-0.9589" cy="100.9906" r="1.2" fill="none" stroke="blue" stroke-width="0.5"/>
    <circle cx="-1.2088" cy="103.3905" r="1.2" fill="none" stroke="blue" stroke-width="0.5"/>
    <circle cx="-1.3822" cy="105.7972" r="1.2" fill="none" stroke="blue" stroke-width="0.5"/>
    <circle cx="-1.4786" cy="108.2083" r="1.2" fill="none" stroke="blue" stroke-width="0.5"/>
    <circle cx="-1.4974" cy="110.6211" r="1.2" fill="none" stroke="blue" stroke-width="0.5"/>
    <circle cx="-1.4387" cy="113.0333" r="1.2" fill="none" stroke="blue" stroke-width="0.5"/>
    <circle cx="-1.3025" cy="115.4424" r="1.2" fill="none" stroke="blue" stroke-width="0.5"/>
    <circle cx="-1.0896" cy="117.8460" r="1.2" fill="none" stroke="blue" stroke-width="0.5"/>
    <circle cx="-0.8007" cy="120.2416" r="1.2" fill="none" stroke="blue" stroke-width="0.5"/>
    <circle cx="-0.4371" cy="122.6270" r="1.2" fill="none" stroke="blue" stroke-width="0.5"/>
    <circle cx="0.0000" cy="125.0000" r="1.2" fill="none" stroke="blue" stroke-width="0.5"/>
  </g>
</svg>