<svg xmlns="http://www.w3.org/2000/svg" viewBox="-21.5684 -14.1866 43.0926 140.5521">
  <path d="M -11.5684 98.2136 L -11.5651 96.1917 L -11.5389 94.1698 L -11.4898 92.1484 L -11.4179 90.1276 L -11.3231 88.1078 L -11.2056 86.0893 L -11.5367 94.0613 L -10.9026 82.0574 L -11.4131 90.0203 L -10.5094 78.0342 L -10.2793 76.0265 L -10.0270 74.0219 L -9.7527 72.0206 L -9.4564 70.0228 L -10.3701 78.3530 L -9.2824 66.5812 L -9.1682 64.7546 L -9.0640 62.9209 L -8.9694 61.0813 L -8.8840 59.2368 L -9.3488 67.3734 L -8.7397 55.5355 L -9.1149 63.6704 L -8.6284 51.8215 L -8.5846 49.9608 L -8.5483 48.0980 L -8.7693 56.2303 L -8.4979 44.3673 L -8.6502 52.4986 L -8.4758 40.6315 L -8.4751 38.7620 L -8.5314 46.8917 L -8.4940 35.0209 L -8.4894 43.1496 L -8.5396 31.2779 L -8.4758 39.4055 L -8.6117 27.5339 L -8.6577 25.6618 L -8.7103 23.7899 L -8.5303 31.9154 L -8.8356 20.0469 L -8.9085 18.1760 L -8.9883 16.3057 L -9.0750 14.4361 L -9.1689 12.5674 L -9.2701 10.6996 L -8.8813 18.8206 L -9.4950 6.9676 L -9.6191 5.1037 L -9.7513 3.2415 L -9.2311 11.3592 L -10.0411 -0.4773 L -9.4491 7.6385 L -10.3669 -4.1866 L 10.3669 4.1866 L 9.7444 -3.8337 L 9.9092 -1.8867 L 10.0644 0.0595 L 10.8287 11.9858 L 10.9245 13.9332 L 11.0129 15.8798 L 11.0939 17.8258 L 10.7088 9.7817 L 10.8133 11.7250 L 10.9102 13.6681 L 11.3470 25.6050 L 11.0818 17.5539 L 11.1568 19.4967 L 11.2247 21.4396 L 11.2855 23.3826 L 11.3395 25.3257 L 11.3865 27.2691 L 11.4267 29.2128 L 11.4600 31.1569 L 11.4864 33.1014 L 11.4932 45.0465 L 11.5185 36.9921 L 11.5241 38.9385 L 11.5226 40.8857 L 11.5139 42.8338 L 11.2901 54.7807 L 11.4743 46.7332 L 11.4430 48.6848 L 11.4039 50.6380 L 11.3567 52.5928 L 11.3011 54.5497 L 11.2367 56.5088 L 11.1631 58.4705 L 10.4808 70.4173 L 10.3258 72.3815 L 10.8831 64.3757 L 10.7679 66.3529 L 9.7632 78.2972 L 10.5001 70.3256 L 10.3867 72.5235 L 8.9764 84.2363 L 9.8666 76.0820 L 9.6360 77.8647 L 8.6175 89.6169 L 9.2343 81.4363 L 9.0633 83.2249 L 8.9124 85.0150 L 8.7815 86.8065 L 8.6708 88.5993 L 8.5804 90.3931 L 8.4905 102.1877 L 8.4602 93.9830 L 8.6371 105.7767 L 8.4214 97.5749 L 8.4324 99.3711 L 8.4639 101.1673 L 8.5156 102.9631 L 9.3565 114.7289 L 8.6801 106.5533 L 8.7927 108.3472 L 8.9255 110.1402 L 9.0784 111.9319 L 9.2515 113.7222 L -10.5731 116.3655 L -10.7741 114.3562 L -10.9527 112.3444 L -11.1088 110.3302 L -11.2423 108.3141 L -11.3531 106.2962 L -10.7843 114.2553 L -11.5064 102.2566 L -11.5489 100.2353 L -11.5684 98.2136 Z" fill="none" stroke="black" stroke-width="1" />
  <g id="debug">
    <path d="M 0.0000 0.0000 L 0.1476 1.9024 L 0.2864 3.8056 L 0.4167 5.7094 L 0.5387 7.6136 L 0.6527 9.5185 L 0.7589 11.4237 L 0.8576 13.3294 L 0.9488 15.2354 L 1.0328 17.1417 L 1.1096 19.0484 L 1.1794 20.9553 L 1.2422 22.8625 L 1.2981 24.7699 L 1.3472 26.6775 L 1.3895 28.5852 L 1.4249 30.4931 L 1.4536 32.4011 L 1.4754 34.3092 L 1.4904 36.2173 L 1.4985 38.1255 L 1.4996 40.0337 L 1.4936 41.9419 L 1.4804 43.8500 L 1.4599 45.7582 L 1.4318 47.6662 L 1.3961 49.5740 L 1.3525 51.4818 L 1.3007 53.3892 L 1.2404 55.2965 L 1.1713 57.2035 L 1.0931 59.1100 L 1.0052 61.0162 L 0.9072 62.9219 L 0.7984 64.8270 L 0.6782 66.7314 L 0.5458 68.6350 L 0.4003 70.5377 L 0.2404 72.4392 L 0.0650 74.3393 L -0.1600 76.2339 L -0.3881 78.1284 L -0.5952 80.0254 L -0.7812 81.9245 L -0.9460 83.8255 L -1.0894 85.7283 L -1.2115 87.6326 L -1.3122 89.5382 L -1.3914 91.4447 L -1.4490 93.3520 L -1.4851 95.2599 L -1.4997 97.1680 L -1.4926 99.0762 L -1.4640 100.9842 L -1.4139 102.8917 L -1.3422 104.7986 L -1.2490 106.7045 L -1.1343 108.6092 L -0.9983 110.5126 L -0.8409 112.4143 L -0.6623 114.3141 L -0.4626 116.2118 L -0.2418 118.1072 L -0.0000 120.0000" fill="none" stroke="orange" stroke-width="0.6" />
    <path d="M 10.3669 4.1866 L 9.7444 -3.8337 L 9.9092 -1.8867 L 10.0644 0.0595 L 10.8287 11.9858 L 10.9245 13.9332 L 11.0129 15.8798 L 11.0939 17.8258 L 10.7088 9.7817 L 10.8133 11.7250 L 10.9102 13.6681 L 11.3470 25.6050 L 11.0818 17.5539 L 11.1568 19.4967 L 11.2247 21.4396 L 11.2855 23.3826 L 11.3395 25.3257 L 11.3865 27.2691 L 11.4267 29.2128 L 11.4600 31.1569 L 11.4864 33.1014 L 11.4932 45.0465 L 11.5185 36.9921 L 11.5241 38.9385 L 11.5226 40.8857 L 11.5139 42.8338 L 11.2901 54.7807 L 11.4743 46.7332 L 11.4430 48.6848 L 11.4039 50.6380 L 11.3567 52.5928 L 11.3011 54.5497 L 11.2367 56.5088 L 11.1631 58.4705 L 10.4808 70.4173 L 10.3258 72.3815 L 10.8831 64.3757 L 10.7679 66.3529 L 9.7632 78.2972 L 10.5001 70.3256 L 10.3867 72.5235 L 8.9764 84.2363 L 9.8666 76.0820 L 9.6360 77.8647 L 8.6175 89.6169 L 9.2343 81.4363 L 9.0633 83.2249 L 8.9124 85.0150 L 8.7815 86.8065 L 8.6708 88.5993 L 8.5804 90.3931 L 8.4905 102.1877 L 8.4602 93.9830 L 8.6371 105.7767 L 8.4214 97.5749 L 8.4324 99.3711 L 8.4639 101.1673 L 8.5156 102.9631 L 9.3565 114.7289 L 8.6801 106.5533 L 8.7927 108.3472 L 8.9255 110.1402 L 9.0784 111.9319 L 9.2515 113.7222" fill="none" stroke="green" stroke-width="0.6" />
    <path d="M -10.3669 -4.1866 L -9.4491 7.6385 L -10.0411 -0.4773 L -9.2311 11.3592 L -9.7513 3.2415 L -9.6191 5.1037 L -9.4950 6.9676 L -8.8813 18.8206 L -9.2701 10.6996 L -9.1689 12.5674 L -9.0750 14.4361 L -8.9883 16.3057 L -8.9085 18.1760 L -8.8356 20.0469 L -8.5303 31.9154 L -8.7103 23.7899 L -8.6577 25.6618 L -8.6117 27.5339 L -8.4758 39.4055 L -8.5396 31.2779 L -8.4894 43.1496 L -8.4940 35.0209 L -8.5314 46.8917 L -8.4751 38.7620 L -8.4758 40.6315 L -8.6502 52.4986 L -8.4979 44.3673 L -8.7693 56.2303 L -8.5483 48.0980 L -8.5846 49.9608 L -8.6284 51.8215 L -9.1149 63.6704 L -8.7397 55.5355 L -9.3488 67.3734 L -8.8840 59.2368 L -8.9694 61.0813 L -9.0640 62.9209 L -9.1682 64.7546 L -9.2824 66.5812 L -10.3701 78.3530 L -9.4564 70.0228 L -9.7527 72.0206 L -10.0270 74.0219 L -10.2793 76.0265 L -10.5094 78.0342 L -11.4131 90.0203 L -10.9026 82.0574 L -11.5367 94.0613 L -11.2056 86.0893 L -11.3231 88.1078 L -11.4179 90.1276 L -11.4898 92.1484 L -11.5389 94.1698 L -11.5651 96.1917 L -11.5684 98.2136 L -11.5489 100.2353 L -11.5064 102.2566 L -10.7843 114.2553 L -11.3531 106.2962 L -11.2423 108.3141 L -11.1088 110.3302 L -10.9527 112.3444 L -10.7741 114.3562 L -10.5731 116.3655" fill="none" stroke="green" stroke-width="0.6" />
    <line x1="0.0000" y1="0.0000" x2="-9.9682" y2="0.7975" stroke="purple" stroke-width="0.5"/>
    <line x1="0.1476" y1="1.9024" x2="-9.8242" y2="2.6526" stroke="purple" stroke-width="0.5"/>
    <line x1="0.2864" y1="3.8056" x2="-9.6887" y2="4.5103" stroke="purple" stroke-width="0.5"/>
    <line x1="0.4167" y1="5.7094" x2="-9.5615" y2="6.3701" stroke="purple" stroke-width="0.5"/>
    <line x1="0.5387" y1="7.6136" x2="-9.4422" y2="8.2319" stroke="purple" stroke-width="0.5"/>
    <line x1="0.6527" y1="9.5185" x2="-9.3307" y2="10.0954" stroke="purple" stroke-width="0.5"/>
    <line x1="0.7589" y1="11.4237" x2="-9.2267" y2="11.9604" stroke="purple" stroke-width="0.5"/>
    <line x1="0.8576" y1="13.3294" x2="-9.1300" y2="13.8268" stroke="purple" stroke-width="0.5"/>
    <line x1="0.9488" y1="15.2354" x2="-9.0406" y2="15.6943" stroke="purple" stroke-width="0.5"/>
    <line x1="1.0328" y1="17.1417" x2="-8.9583" y2="17.5629" stroke="purple" stroke-width="0.5"/>
    <line x1="1.1096" y1="19.0484" x2="-8.8830" y2="19.4324" stroke="purple" stroke-width="0.5"/>
    <line x1="1.1794" y1="20.9553" x2="-8.8146" y2="21.3027" stroke="purple" stroke-width="0.5"/>
    <line x1="1.2422" y1="22.8625" x2="-8.7530" y2="23.1736" stroke="purple" stroke-width="0.5"/>
    <line x1="1.2981" y1="24.7699" x2="-8.6981" y2="25.0450" stroke="purple" stroke-width="0.5"/>
    <line x1="1.3472" y1="26.6775" x2="-8.6499" y2="26.9168" stroke="purple" stroke-width="0.5"/>
    <line x1="1.3895" y1="28.5852" x2="-8.6085" y2="28.7889" stroke="purple" stroke-width="0.5"/>
    <line x1="1.4249" y1="30.4931" x2="-8.5737" y2="30.6611" stroke="purple" stroke-width="0.5"/>
    <line x1="1.4536" y1="32.4011" x2="-8.5455" y2="32.5334" stroke="purple" stroke-width="0.5"/>
    <line x1="1.4754" y1="34.3092" x2="-8.5241" y2="34.4057" stroke="purple" stroke-width="0.5"/>
    <line x1="1.4904" y1="36.2173" x2="-8.5094" y2="36.2778" stroke="purple" stroke-width="0.5"/>
    <line x1="1.4985" y1="38.1255" x2="-8.5015" y2="38.1496" stroke="purple" stroke-width="0.5"/>
    <line x1="1.4996" y1="40.0337" x2="-8.5004" y2="40.0209" stroke="purple" stroke-width="0.5"/>
    <line x1="1.4936" y1="41.9419" x2="-8.5063" y2="41.8917" stroke="purple" stroke-width="0.5"/>
    <line x1="1.4804" y1="43.8500" x2="-8.5192" y2="43.7618" stroke="purple" stroke-width="0.5"/>
    <line x1="1.4599" y1="45.7582" x2="-8.5393" y2="45.6311" stroke="purple" stroke-width="0.5"/>
    <line x1="1.4318" y1="47.6662" x2="-8.5668" y2="47.4993" stroke="purple" stroke-width="0.5"/>
    <line x1="1.3961" y1="49.5740" x2="-8.6017" y2="49.3663" stroke="purple" stroke-width="0.5"/>
    <line x1="1.3525" y1="51.4818" x2="-8.6444" y2="51.2319" stroke="purple" stroke-width="0.5"/>
    <line x1="1.3007" y1="53.3892" x2="-8.6950" y2="53.0958" stroke="purple" stroke-width="0.5"/>
    <line x1="1.2404" y1="55.2965" x2="-8.7539" y2="54.9579" stroke="purple" stroke-width="0.5"/>
    <line x1="1.1713" y1="57.2035" x2="-8.8212" y2="56.8178" stroke="purple" stroke-width="0.5"/>
    <line x1="1.0931" y1="59.1100" x2="-8.8975" y2="58.6751" stroke="purple" stroke-width="0.5"/>
    <line x1="1.0052" y1="61.0162" x2="-8.9830" y2="60.5296" stroke="purple" stroke-width="0.5"/>
    <line x1="0.9072" y1="62.9219" x2="-9.0782" y2="62.3807" stroke="purple" stroke-width="0.5"/>
    <line x1="0.7984" y1="64.8270" x2="-9.1836" y2="64.2278" stroke="purple" stroke-width="0.5"/>
    <line x1="0.6782" y1="66.7314" x2="-9.2999" y2="66.0704" stroke="purple" stroke-width="0.5"/>
    <line x1="0.5458" y1="68.6350" x2="-9.4277" y2="67.9076" stroke="purple" stroke-width="0.5"/>
    <line x1="0.4003" y1="70.5377" x2="-9.5677" y2="69.7386" stroke="purple" stroke-width="0.5"/>
    <line x1="0.2404" y1="72.4392" x2="-9.7210" y2="71.5619" stroke="purple" stroke-width="0.5"/>
    <line x1="0.0650" y1="74.3393" x2="-9.8885" y2="73.3762" stroke="purple" stroke-width="0.5"/>
    <line x1="-0.1600" y1="76.2339" x2="-10.0815" y2="74.9836" stroke="purple" stroke-width="0.5"/>
    <line x1="-0.3881" y1="78.1284" x2="-10.3229" y2="76.9880" stroke="purple" stroke-width="0.5"/>
    <line x1="-0.5952" y1="80.0254" x2="-10.5420" y2="78.9953" stroke="purple" stroke-width="0.5"/>
    <line x1="-0.7812" y1="81.9245" x2="-10.7389" y2="81.0054" stroke="purple" stroke-width="0.5"/>
    <line x1="-0.9460" y1="83.8255" x2="-10.9133" y2="83.0178" stroke="purple" stroke-width="0.5"/>
    <line x1="-1.0894" y1="85.7283" x2="-11.0652" y2="85.0324" stroke="purple" stroke-width="0.5"/>
    <line x1="-1.2115" y1="87.6326" x2="-11.1945" y2="87.0489" stroke="purple" stroke-width="0.5"/>
    <line x1="-1.3122" y1="89.5382" x2="-11.3011" y2="89.0669" stroke="purple" stroke-width="0.5"/>
    <line x1="-1.3914" y1="91.4447" x2="-11.3849" y2="91.0861" stroke="purple" stroke-width="0.5"/>
    <line x1="-1.4490" y1="93.3520" x2="-11.4460" y2="93.1063" stroke="purple" stroke-width="0.5"/>
    <line x1="-1.4851" y1="95.2599" x2="-11.4843" y2="95.1272" stroke="purple" stroke-width="0.5"/>
    <line x1="-1.4997" y1="97.1680" x2="-11.4997" y2="97.1484" stroke="purple" stroke-width="0.5"/>
    <line x1="-1.4926" y1="99.0762" x2="-11.4922" y2="99.1696" stroke="purple" stroke-width="0.5"/>
    <line x1="-1.4640" y1="100.9842" x2="-11.4619" y2="101.1906" stroke="purple" stroke-width="0.5"/>
    <line x1="-1.4139" y1="102.8917" x2="-11.4088" y2="103.2111" stroke="purple" stroke-width="0.5"/>
    <line x1="-1.3422" y1="104.7986" x2="-11.3328" y2="105.2307" stroke="purple" stroke-width="0.5"/>
    <line x1="-1.2490" y1="106.7045" x2="-11.2341" y2="107.2491" stroke="purple" stroke-width="0.5"/>
    <line x1="-1.1343" y1="108.6092" x2="-11.1127" y2="109.2661" stroke="purple" stroke-width="0.5"/>
    <line x1="-0.9983" y1="110.5126" x2="-10.9687" y2="111.2814" stroke="purple" stroke-width="0.5"/>
    <line x1="-0.8409" y1="112.4143" x2="-10.8021" y2="113.2947" stroke="purple" stroke-width="0.5"/>
    <line x1="-0.6623" y1="114.3141" x2="-10.6131" y2="115.3056" stroke="purple" stroke-width="0.5"/>
    <line x1="-0.4626" y1="116.2118" x2="-10.4017" y2="117.3139" stroke="purple" stroke-width="0.5"/>
    <line x1="-0.2418" y1="118.1072" x2="-10.1680" y2="119.3193" stroke="purple" stroke-width="0.5"/>
    <line x1="-0.0000" y1="120.0000" x2="-9.9123" y2="121.3216" stroke="purple" stroke-width="0.5"/>
    <circle cx="0.0000" cy="0.0000" r="1.2" fill="none" stroke="blue" stroke-width="0.5"/>
    <circle cx="0.1476" cy="1.9024" r="1.2" fill="none" stroke="blue" stroke-width="0.5"/>
    <circle cx="0.2864" cy="3.8056" r="1.2" fill="none" stroke="blue" stroke-width="0.5"/>
    <circle cx="0.4167" cy="5.7094" r="1.2" fill="none" stroke="blue" stroke-width="0.5"/>
    <circle cx="0.5387" cy="7.6136" r="1.2" fill="none" stroke="blue" stroke-width="0.5"/>
    <circle cx="0.6527" cy="9.5185" r="1.2" fill="none" stroke="blue" stroke-width="0.5"/>
    <circle cx="0.7589" cy="11.4237" r="1.2" fill="none" stroke="blue" stroke-width="0.5"/>
    <circle cx="0.8576" cy="13.3294" r="1.2" fill="none" stroke="blue" stroke-width="0.5"/>
    <circle cx="0.9488" cy="15.2354" r="1.2" fill="none" stroke="blue" stroke-width="0.5"/>
    <circle cx="1.0328" cy="17.1417" r="1.2" fill="none" stroke="blue" stroke-width="0.5"/>
    <circle cx="1.1096" cy="19.0484" r="1.2" fill="none" stroke="blue" stroke-width="0.5"/>
    <circle cx="1.1794" cy="20.9553" r="1.2" fill="none" stroke="blue" stroke-width="0.5"/>
    <circle cx="1.2422" cy="22.8625" r="1.2" fill="none" stroke="blue" stroke-width="0.5"/>
    <circle cx="1.2981" cy="24.7699" r="1.2" fill="none" stroke="blue" stroke-width="0.5"/>
    <circle cx="1.3472" cy="26.6775" r="1.2" fill="none" stroke="blue" stroke-width="0.5"/>
    <circle cx="1.3895" cy="28.5852" r="1.2" fill="none" stroke="blue" stroke-width="0.5"/>
    <circle cx="1.4249" cy="30.4931" r="1.2" fill="none" stroke="blue" stroke-width="0.5"/>
    <circle cx="1.4536" cy="32.4011" r="1.2" fill="none" stroke="blue" stroke-width="0.5"/>
    <circle cx="1.4754" cy="34.3092" r="1.2" fill="none" stroke="blue" stroke-width="0.5"/>
    <circle cx="1.4904" cy="36.2173" r="1.2" fill="none" stroke="blue" stroke-width="0.5"/>
    <circle cx="1.4985" cy="38.1255" r="1.2" fill="none" stroke="blue" stroke-width="0.5"/>
    <circle cx="1.4996" cy="40.0337" r="1.2" fill="none" stroke="blue" stroke-width="0.5"/>
    <circle cx="1.4936" cy="41.9419" r="1.2" fill="none" stroke="blue" stroke-width="0.5"/>
    <circle cx="1.4804" cy="43.8500" r="1.2" fill="none" stroke="blue" stroke-width="0.5"/>
    <circle cx="1.4599" cy="45.7582" r="1.2" fill="none" stroke="blue" stroke-width="0.5"/>
    <circle cx="1.4318" cy="47.6662" r="1.2" fill="none" stroke="blue" stroke-width="0.5"/>
    <circle cx="1.3961" cy="49.5740" r="1.2" fill="none" stroke="blue" stroke-width="0.5"/>
    <circle cx="1.3525" cy="51.4818" r="1.2" fill="none" stroke="blue" stroke-width="0.5"/>
    <circle cx="1.3007" cy="53.3892" r="1.2" fill="none" stroke="blue" stroke-width="0.5"/>
    <circle cx="1.2404" cy="55.2965" r="1.2" fill="none" stroke="blue" stroke-width="0.5"/>
    <circle cx="1.1713" cy="57.2035" r="1.2" fill="none" stroke="blue" stroke-width="0.5"/>
    <circle cx="1.0931" cy="59.1100" r="1.2" fill="none" stroke="blue" stroke-width="0.5"/>
    <circle cx="1.0052" cy="61.0162" r="1.2" fill="none" stroke="blue" stroke-width="0.5"/>
    <circle cx="0.9072" cy="62.9219" r="1.2" fill="none" stroke="blue" stroke-width="0.5"/>
    <circle cx="0.7984" cy="64.8270" r="1.2" fill="none" stroke="blue" stroke-width="0.5"/>
    <circle cx="0.6782" cy="66.7314" r="1.2" fill="none" stroke="blue" stroke-width="0.5"/>
    <circle cx="0.5458" cy="68.6350" r="1.2" fill="none" stroke="blue" stroke-width="0.5"/>
    <circle cx="0.4003" cy="70.5377" r="1.2" fill="none" stroke="blue" stroke-width="0.5"/>
    <circle cx="0.2404" cy="72.4392" r="1.2" fill="none" stroke="blue" stroke-width="0.5"/>
    <circle cx="0.0650" cy="74.3393" r="1.2" fill="none" stroke="blue" stroke-width="0.5"/>
    <circle cx="-0.1600" cy="76.2339" r="1.2" fill="none" stroke="blue" stroke-width="0.5"/>
    <circle cx="-0.3881" cy="78.1284" r="1.2" fill="none" stroke="blue" stroke-width="0.5"/>
    <circle cx="-0.5952" cy="80.0254" r="1.2" fill="none" stroke="blue" stroke-width="0.5"/>
    <circle cx="-0.7812" cy="81.9245" r="1.2" fill="none" stroke="blue" stroke-width="0.5"/>
    <circle cx="-0.9460" cy="83.8255" r="1.2" fill="none" stroke="blue" stroke-width="0.5"/>
    <circle cx="-1.0894" cy="85.7283" r="1.2" fill="none" stroke="blue" stroke-width="0.5"/>
    <circle cx="-1.2115" cy="87.6326" r="1.2" fill="none" stroke="blue" stroke-width="0.5"/>
    <circle cx="-1.3122" cy="89.5382" r="1.2" fill="none" stroke="blue" stroke-width="0.5"/>
    <circle cx="-1.3914" cy="91.4447" r="1.2" fill="none" stroke="blue" stroke-width="0.5"/>
    <circle cx="-1.4490" cy="93.3520" r="1.2" fill="none" stroke="blue" stroke-width="0.5"/>
    <circle cx="-1.4851" cy="95.2599" r="1.2" fill="none" stroke="blue" stroke-width="0.5"/>
    <circle cx="-1.4997" cy="97.1680" r="1.2" fill="none" stroke="blue" stroke-width="0.5"/>
    <circle cx="-1.4926" cy="99.0762" r="1.2" fill="none" stroke="blue" stroke-width="0.5"/>
    <circle cx="-1.4640" cy="100.9842" r="1.2" fill="none" stroke="blue" stroke-width="0.5"/>
    <circle cx="-1.4139" cy="102.8917" r="1.2" fill="none" stroke="blue" stroke-width="0.5"/>
    <circle cx="-1.3422" cy="104.7986" r="1.2" fill="none" stroke="blue" stroke-width="0.5"/>
    <circle cx="-1.2490" cy="106.7045" r="1.2" fill="none" stroke="blue" stroke-width="0.5"/>
    <circle cx="-1.1343" cy="108.6092" r="1.2" fill="none" stroke="blue" stroke-width="0.5"/>
    <circle cx="-0.9983" cy="110.5126" r="1.2" fill="none" stroke="blue" stroke-width="0.5"/>
    <circle cx="-0.8409" cy="112.4143" r="1.2" fill="none" stroke="blue" stroke-width="0.5"/>
    <circle cx="-0.6623" cy="114.3141" r="1.2" fill="none" stroke="blue" stroke-width="0.5"/>
    <circle cx="-0.4626" cy="116.2118" r="1.2" fill="none" stroke="blue" stroke-width="0.5"/>
    <circle cx="-0.2418" cy="118.1072" r="1.2" fill="none" stroke="blue" stroke-width="0.5"/>
    <circle cx="-0.0000" cy="120.0000" r="1.2" fill="none" stroke="blue" stroke-width="0.5"/>
  </g>
</svg>