<svg xmlns="http://www.w3.org/2000/svg" viewBox="-20.0000 -15.0000 40.0000 120.0000">
  <path d="M -10.0000 -5.0000 L -10.0000 -3.4471 L -10.0000 -1.8941 L -10.0000 -0.3411 L -10.0000 1.2120 L -10.0000 2.7652 L -10.0000 4.3185 L -10.0000 5.8719 L -10.0000 7.4255 L -10.0000 8.9793 L -10.0000 10.5333 L -10.0000 12.4761 L -10.0000 14.0306 L -10.0000 15.5854 L -10.0000 17.1406 L -10.0000 18.6960 L -10.0000 20.2519 L -10.0000 21.8080 L -10.0000 23.3646 L -10.0000 24.9217 L -10.0000 26.4791 L -10.0000 28.0370 L -10.0000 29.5955 L -10.0000 31.1544 L -10.0000 32.7139 L -10.0000 34.2739 L -10.0000 35.8345 L -10.0000 37.3957 L -10.0000 38.9576 L -10.0000 40.5201 L -10.0000 42.0833 L -10.0000 43.6472 L -10.0000 45.6031 L -10.0000 47.1686 L -10.0000 48.7350 L -10.0000 50.3021 L -10.0000 51.8700 L -10.0000 53.4388 L -10.0000 55.0085 L -10.0000 56.5791 L -10.0000 58.1505 L -10.0000 59.7229 L -10.0000 61.2963 L -10.0000 62.8706 L -10.0000 64.4460 L -10.0000 66.0224 L -10.0000 67.5998 L -10.0000 69.1784 L -10.0000 70.7580 L -10.0000 72.3387 L -10.0000 73.9206 L -10.0000 75.5037 L -10.0000 77.0879 L -10.0000 79.0700 L -10.0000 80.6570 L -10.0000 82.2453 L -10.0000 83.8348 L -10.0000 85.4257 L -10.0000 87.0180 L -10.0000 88.6116 L -10.0000 90.2065 L -10.0000 91.8029 L -10.0000 93.4007 L -10.0000 95.0000 L 10.0000 95.0000 L 10.0000 93.4007 L 10.0000 91.8029 L 10.0000 90.2065 L 10.0000 88.6116 L 10.0000 87.0180 L 10.0000 85.4257 L 10.0000 83.8348 L 10.0000 82.2453 L 10.0000 80.6570 L 10.0000 79.0700 L 10.0000 77.0879 L 10.0000 75.5037 L 10.0000 73.9206 L 10.0000 72.3387 L 10.0000 70.7580 L 10.0000 69.1784 L 10.0000 67.5998 L 10.0000 66.0224 L 10.0000 64.4460 L 10.0000 62.8706 L 10.0000 61.2963 L 10.0000 59.7229 L 10.0000 58.1505 L 10.0000 56.5791 L 10.0000 55.0085 L 10.0000 53.4388 L 10.0000 51.8700 L 10.0000 50.3021 L 10.0000 48.7350 L 10.0000 47.1686 L 10.0000 45.6031 L 10.0000 43.6472 L 10.0000 42.0833 L 10.0000 40.5201 L 10.0000 38.9576 L 10.0000 37.3957 L 10.0000 35.8345 L 10.0000 34.2739 L 10.0000 32.7139 L 10.0000 31.1544 L 10.0000 29.5955 L 10.0000 28.0370 L 10.0000 26.4791 L 10.0000 24.9217 L 10.0000 23.3646 L 10.0000 21.8080 L 10.0000 20.2519 L 10.0000 18.6960 L 10.0000 17.1406 L 10.0000 15.5854 L 10.0000 14.0306 L 10.0000 12.4761 L 10.0000 10.5333 L 10.0000 8.9793 L 10.0000 7.4255 L 10.0000 5.8719 L 10.0000 4.3185 L 10.0000 2.7652 L 10.0000 1.2120 L 10.0000 -0.3411 L 10.0000 -1.8941 L 10.0000 -3.4471 L 10.0000 -5.0000 L -10.0000 -5.0000 Z" fill="none" stroke="black" stroke-width="1" />

</svg>