<svg xmlns="http://www.w3.org/2000/svg" width="1400" height="600" viewBox="-80.0000 -140.0000 620.0000 280.0000">


  <g id="stroke-ink">
    <path id="ink-compound" d="M 0.0000 -50.0000 L 0.0000 50.0000 L 7.3016 50.0000 L 14.6032 50.0000 L 21.9048 50.0000 L 29.2063 50.0000 L 36.5079 50.0000 L 43.8095 50.0000 L 51.1111 50.0000 L 58.4127 50.0000 L 65.7143 50.0000 L 73.0159 50.0000 L 80.3175 50.0000 L 87.6190 50.0000 L 94.9206 50.0000 L 102.2222 50.0000 L 109.5238 50.0000 L 116.8254 50.0000 L 124.1270 50.0000 L 131.4286 50.0000 L 138.7302 50.0000 L 146.0317 50.0000 L 153.3333 50.0000 L 160.6349 50.0000 L 167.9365 50.0000 L 175.2381 50.0000 L 182.5397 50.0000 L 189.8413 50.0000 L 197.1429 50.0000 L 204.4444 50.0000 L 211.7460 50.0000 L 219.0476 50.0000 L 226.3492 50.0000 L 233.6508 50.0000 L 240.9524 50.0000 L 248.2540 50.0000 L 255.5556 50.0000 L 262.8571 50.0000 L 270.1587 50.0000 L 277.4603 50.0000 L 284.7619 50.0000 L 292.0635 50.0000 L 299.3651 50.0000 L 306.6667 50.0000 L 313.9683 50.0000 L 321.2698 50.0000 L 328.5714 50.0000 L 335.8730 50.0000 L 343.1746 50.0000 L 350.4762 50.0000 L 357.7778 50.0000 L 365.0794 50.0000 L 372.3810 50.0000 L 379.6825 50.0000 L 386.9841 50.0000 L 394.2857 50.0000 L 401.5873 50.0000 L 408.8889 50.0000 L 416.1905 50.0000 L 423.4921 50.0000 L 430.7937 50.0000 L 438.0952 50.0000 L 445.3968 50.0000 L 452.6984 50.0000 L 460.0000 50.0000 L 479.1342 46.1940 L 495.3553 35.3553 L 506.1940 19.1342 L 510.0000 0.0000 L 506.1940 -19.1342 L 495.3553 -35.3553 L 479.1342 -46.1940 L 460.0000 -50.0000 L 452.6984 -50.0000 L 445.3968 -50.0000 L 438.0952 -50.0000 L 430.7937 -50.0000 L 423.4921 -50.0000 L 416.1905 -50.0000 L 408.8889 -50.0000 L 401.5873 -50.0000 L 394.2857 -50.0000 L 386.9841 -50.0000 L 379.6825 -50.0000 L 372.3810 -50.0000 L 365.0794 -50.0000 L 357.7778 -50.0000 L 350.4762 -50.0000 L 343.1746 -50.0000 L 335.8730 -50.0000 L 328.5714 -50.0000 L 321.2698 -50.0000 L 313.9683 -50.0000 L 306.6667 -50.0000 L 299.3651 -50.0000 L 292.0635 -50.0000 L 284.7619 -50.0000 L 277.4603 -50.0000 L 270.1587 -50.0000 L 262.8571 -50.0000 L 255.5556 -50.0000 L 248.2540 -50.0000 L 240.9524 -50.0000 L 233.6508 -50.0000 L 226.3492 -50.0000 L 219.0476 -50.0000 L 211.7460 -50.0000 L 204.4444 -50.0000 L 197.1429 -50.0000 L 189.8413 -50.0000 L 182.5397 -50.0000 L 175.2381 -50.0000 L 167.9365 -50.0000 L 160.6349 -50.0000 L 153.3333 -50.0000 L 146.0317 -50.0000 L 138.7302 -50.0000 L 131.4286 -50.0000 L 124.1270 -50.0000 L 116.8254 -50.0000 L 109.5238 -50.0000 L 102.2222 -50.0000 L 94.9206 -50.0000 L 87.6190 -50.0000 L 80.3175 -50.0000 L 73.0159 -50.0000 L 65.7143 -50.0000 L 58.4127 -50.0000 L 51.1111 -50.0000 L 43.8095 -50.0000 L 36.5079 -50.0000 L 29.2063 -50.0000 L 21.9048 -50.0000 L 14.6032 -50.0000 L 7.3016 -50.0000 L 0.0000 -50.0000 Z" fill="black" stroke="none" fill-rule="nonzero" />
  </g>

  <g id="debug-overlays">
  <g id="debug-cap-boundary">
    <path d="M 0.0000 50.0000 L 0.0000 -50.0000" fill="none" stroke="#455a64" stroke-width="1.0" />
    <circle cx="0.0000" cy="50.0000" r="2.4" fill="#1e88e5" stroke="none"/>
    <circle cx="0.0000" cy="-50.0000" r="2.4" fill="#1e88e5" stroke="none"/>
    <path d="M 460.0000 50.0000 L 479.1342 46.1940 L 495.3553 35.3553 L 506.1940 19.1342 L 510.0000 0.0000 L 506.1940 -19.1342 L 495.3553 -35.3553 L 479.1342 -46.1940 L 460.0000 -50.0000" fill="none" stroke="#455a64" stroke-width="1.0" />
    <circle cx="460.0000" cy="50.0000" r="2.0" fill="#78909c" stroke="none"/>
    <circle cx="479.1342" cy="46.1940" r="2.0" fill="#78909c" stroke="none"/>
    <circle cx="495.3553" cy="35.3553" r="2.0" fill="#78909c" stroke="none"/>
    <circle cx="506.1940" cy="19.1342" r="2.0" fill="#78909c" stroke="none"/>
    <circle cx="510.0000" cy="0.0000" r="2.0" fill="#78909c" stroke="none"/>
    <circle cx="506.1940" cy="-19.1342" r="2.0" fill="#78909c" stroke="none"/>
    <circle cx="495.3553" cy="-35.3553" r="2.0" fill="#78909c" stroke="none"/>
    <circle cx="479.1342" cy="-46.1940" r="2.0" fill="#78909c" stroke="none"/>
    <circle cx="460.0000" cy="-50.0000" r="2.0" fill="#78909c" stroke="none"/>
    <circle cx="460.0000" cy="50.0000" r="2.4" fill="#1e88e5" stroke="none"/>
    <circle cx="460.0000" cy="-50.0000" r="2.4" fill="#1e88e5" stroke="none"/>
    <circle cx="460.0000" cy="50.0000" r="1.5" fill="#43a047" stroke="none"/>
    <circle cx="479.1342" cy="46.1940" r="1.5" fill="#43a047" stroke="none"/>
    <circle cx="495.3553" cy="35.3553" r="1.5" fill="#43a047" stroke="none"/>
    <circle cx="506.1940" cy="19.1342" r="1.5" fill="#43a047" stroke="none"/>
    <circle cx="510.0000" cy="0.0000" r="1.5" fill="#43a047" stroke="none"/>
    <circle cx="506.1940" cy="-19.1342" r="1.5" fill="#43a047" stroke="none"/>
    <circle cx="495.3553" cy="-35.3553" r="1.5" fill="#43a047" stroke="none"/>
    <circle cx="479.1342" cy="-46.1940" r="1.5" fill="#43a047" stroke="none"/>
    <circle cx="460.0000" cy="-50.0000" r="1.5" fill="#43a047" stroke="none"/>
  </g>
  </g>
  <text x="20" y="20" font-size="14" fill="#111">example=line_02_roundcap_end view=none solo=false</text>

</svg>