<svg xmlns="http://www.w3.org/2000/svg" viewBox="-24.0000 -15.0000 48.0000 120.0000">
  <path d="M -14.0000 95.0000 L -13.6963 93.4127 L -13.3138 91.8254 L -12.8411 90.2381 L -12.2697 88.6508 L -11.5971 87.0635 L -10.8309 85.4762 L -9.9942 83.8889 L -9.1312 82.3016 L -8.3168 80.7143 L -8.0000 79.1270 L -8.0000 77.5397 L -8.0000 75.9524 L -8.0000 74.3651 L -8.0000 72.7778 L -8.0000 71.1905 L -8.0000 69.6032 L -8.0000 68.0159 L -8.0000 66.4286 L -8.0000 64.8413 L -8.0000 63.2540 L -8.0000 61.6667 L -8.0000 60.0794 L -8.0000 58.4921 L -8.0000 56.9048 L -8.0000 55.3175 L -8.0000 53.7302 L -8.0000 52.1429 L -8.0000 50.5555 L -8.0000 48.9682 L -8.0000 47.3809 L -8.0000 45.7936 L -8.0000 44.2063 L -8.0000 42.6190 L -8.0000 41.0317 L -8.0000 39.4444 L -8.0000 37.8571 L -8.0000 36.2698 L -8.0000 34.6825 L -8.0000 33.0952 L -8.0000 31.5079 L -8.0000 29.9206 L -8.0000 28.3333 L -8.0000 26.7460 L -8.0000 25.1587 L -8.0000 23.5714 L -8.0000 21.9841 L -8.0000 20.3968 L -8.0000 18.8095 L -8.0000 17.2222 L -8.0000 15.6349 L -8.0000 14.0476 L -8.0000 12.4603 L -8.0000 10.8730 L -8.0000 9.2857 L -8.0000 7.6984 L -8.0000 6.1111 L -8.0000 4.5238 L -8.0000 2.9365 L -8.0000 1.3492 L -8.0000 -0.2381 L -8.0000 -1.8254 L -8.0000 -3.4127 L -8.0000 -5.0000 L 8.0000 -5.0000 L 8.0000 -3.4127 L 8.0000 -1.8254 L 8.0000 -0.2381 L 8.0000 1.3492 L 8.0000 2.9365 L 8.0000 4.5238 L 8.0000 6.1111 L 8.0000 7.6984 L 8.0000 9.2857 L 8.0000 10.8730 L 8.0000 12.4603 L 8.0000 14.0476 L 8.0000 15.6349 L 8.0000 17.2222 L 8.0000 18.8095 L 8.0000 20.3968 L 8.0000 21.9841 L 8.0000 23.5714 L 8.0000 25.1587 L 8.0000 26.7460 L 8.0000 28.3333 L 8.0000 29.9206 L 8.0000 31.5079 L 8.0000 33.0952 L 8.0000 34.6825 L 8.0000 36.2698 L 8.0000 37.8571 L 8.0000 39.4444 L 8.0000 41.0317 L 8.0000 42.6190 L 8.0000 44.2063 L 8.0000 45.7936 L 8.0000 47.3809 L 8.0000 48.9682 L 8.0000 50.5555 L 8.0000 52.1429 L 8.0000 53.7302 L 8.0000 55.3175 L 8.0000 56.9048 L 8.0000 58.4921 L 8.0000 60.0794 L 8.0000 61.6667 L 8.0000 63.2540 L 8.0000 64.8413 L 8.0000 66.4286 L 8.0000 68.0159 L 8.0000 69.6032 L 8.0000 71.1905 L 8.0000 72.7778 L 8.0000 74.3651 L 8.0000 75.9524 L 8.0000 77.5397 L 8.0000 79.1270 L 8.3168 80.7143 L 9.1312 82.3016 L 9.9942 83.8889 L 10.8309 85.4762 L 11.5971 87.0635 L 12.2697 88.6508 L 12.8411 90.2381 L 13.3138 91.8254 L 13.6963 93.4127 L 14.0000 95.0000 L -14.0000 95.0000 Z" fill="none" stroke="black" stroke-width="1" />

</svg>