<svg xmlns="http://www.w3.org/2000/svg" width="1400" height="600" viewBox="-80.0000 -140.0000 620.0000 280.0000">


  <g id="stroke-ink">
    <path id="ink-compound" d="M 0.0000 -50.0000 L 0.0000 50.0000 L 7.3016 50.0000 L 14.6032 50.0000 L 21.9048 50.0000 L 29.2063 50.0000 L 36.5079 50.0000 L 43.8095 50.0000 L 51.1111 50.0000 L 58.4127 50.0000 L 65.7143 50.0000 L 73.0159 50.0000 L 80.3175 50.0000 L 87.6190 50.0000 L 94.9206 50.0000 L 102.2222 50.0000 L 109.5238 50.0000 L 116.8254 50.0000 L 124.1270 50.0000 L 131.4286 50.0000 L 138.7302 50.0000 L 146.0317 50.0000 L 153.3333 50.0000 L 160.6349 50.0000 L 167.9365 50.0000 L 175.2381 50.0000 L 182.5397 50.0000 L 189.8413 50.0000 L 197.1429 50.0000 L 204.4444 50.0000 L 211.7460 50.0000 L 219.0476 50.0000 L 226.3492 50.0000 L 233.6508 50.0000 L 240.9524 50.0000 L 248.2540 50.0000 L 255.5556 50.0000 L 262.8571 50.0000 L 270.1587 50.0000 L 277.4603 50.0000 L 284.7619 50.0000 L 292.0635 50.0000 L 299.3651 50.0000 L 306.6667 50.0000 L 313.9683 50.0000 L 321.2698 50.0000 L 328.5714 50.0000 L 335.8730 50.0000 L 343.1746 50.0000 L 350.4762 50.0000 L 357.7778 50.0000 L 365.0794 50.0000 L 372.3810 50.0000 L 379.6825 50.0000 L 386.9841 50.0000 L 394.2857 50.0000 L 401.5873 50.0000 L 408.8889 50.0000 L 416.1905 50.0000 L 423.4921 50.0000 L 430.7937 50.0000 L 438.0952 50.0000 L 445.3968 50.0000 L 452.6984 50.0000 L 460.0000 50.0000 L 461.2271 49.9849 L 462.4534 49.9398 L 463.6782 49.8645 L 464.9009 49.7592 L 466.1205 49.6240 L 467.3365 49.4588 L 468.5481 49.2639 L 469.7545 49.0393 L 470.9551 48.7851 L 472.1490 48.5016 L 473.3356 48.1888 L 474.5142 47.8470 L 475.6841 47.4764 L 476.8445 47.0772 L 477.9948 46.6496 L 479.1342 46.1940 L 480.2621 45.7105 L 481.3778 45.1995 L 482.4806 44.6612 L 483.5698 44.0961 L 484.6449 43.5043 L 485.7051 42.8864 L 486.7499 42.2427 L 487.7785 41.5735 L 488.7904 40.8792 L 489.7850 40.1604 L 490.7616 39.4173 L 491.7197 38.6505 L 492.6586 37.8604 L 493.5779 37.0476 L 494.4770 36.2124 L 495.3553 35.3553 L 496.2124 34.4770 L 497.0476 33.5779 L 497.8604 32.6586 L 498.6505 31.7197 L 499.4173 30.7616 L 500.1604 29.7850 L 500.8792 28.7904 L 501.5735 27.7785 L 502.2427 26.7499 L 502.8864 25.7051 L 503.5043 24.6449 L 504.0961 23.5698 L 504.6612 22.4806 L 505.1995 21.3778 L 505.7105 20.2621 L 506.1940 19.1342 L 506.6496 17.9948 L 507.0772 16.8445 L 507.4764 15.6841 L 507.8470 14.5142 L 508.1888 13.3356 L 508.5016 12.1490 L 508.7851 10.9551 L 509.0393 9.7545 L 509.2639 8.5481 L 509.4588 7.3365 L 509.6240 6.1205 L 509.7592 4.9009 L 509.8645 3.6782 L 509.9398 2.4534 L 509.9849 1.2271 L 510.0000 0.0000 L 509.9849 -1.2271 L 509.9398 -2.4534 L 509.8645 -3.6782 L 509.7592 -4.9009 L 509.6240 -6.1205 L 509.4588 -7.3365 L 509.2639 -8.5481 L 509.0393 -9.7545 L 508.7851 -10.9551 L 508.5016 -12.1490 L 508.1888 -13.3356 L 507.8470 -14.5142 L 507.4764 -15.6841 L 507.0772 -16.8445 L 506.6496 -17.9948 L 506.1940 -19.1342 L 505.7105 -20.2621 L 505.1995 -21.3778 L 504.6612 -22.4806 L 504.0961 -23.5698 L 503.5043 -24.6449 L 502.8864 -25.7051 L 502.2427 -26.7499 L 501.5735 -27.7785 L 500.8792 -28.7904 L 500.1604 -29.7850 L 499.4173 -30.7616 L 498.6505 -31.7197 L 497.8604 -32.6586 L 497.0476 -33.5779 L 496.2124 -34.4770 L 495.3553 -35.3553 L 494.4770 -36.2124 L 493.5779 -37.0476 L 492.6586 -37.8604 L 491.7197 -38.6505 L 490.7616 -39.4173 L 489.7850 -40.1604 L 488.7904 -40.8792 L 487.7785 -41.5735 L 486.7499 -42.2427 L 485.7051 -42.8864 L 484.6449 -43.5043 L 483.5698 -44.0961 L 482.4806 -44.6612 L 481.3778 -45.1995 L 480.2621 -45.7105 L 479.1342 -46.1940 L 477.9948 -46.6496 L 476.8445 -47.0772 L 475.6841 -47.4764 L 474.5142 -47.8470 L 473.3356 -48.1888 L 472.1490 -48.5016 L 470.9551 -48.7851 L 469.7545 -49.0393 L 468.5481 -49.2639 L 467.3365 -49.4588 L 466.1205 -49.6240 L 464.9009 -49.7592 L 463.6782 -49.8645 L 462.4534 -49.9398 L 461.2271 -49.9849 L 460.0000 -50.0000 L 452.6984 -50.0000 L 445.3968 -50.0000 L 438.0952 -50.0000 L 430.7937 -50.0000 L 423.4921 -50.0000 L 416.1905 -50.0000 L 408.8889 -50.0000 L 401.5873 -50.0000 L 394.2857 -50.0000 L 386.9841 -50.0000 L 379.6825 -50.0000 L 372.3810 -50.0000 L 365.0794 -50.0000 L 357.7778 -50.0000 L 350.4762 -50.0000 L 343.1746 -50.0000 L 335.8730 -50.0000 L 328.5714 -50.0000 L 321.2698 -50.0000 L 313.9683 -50.0000 L 306.6667 -50.0000 L 299.3651 -50.0000 L 292.0635 -50.0000 L 284.7619 -50.0000 L 277.4603 -50.0000 L 270.1587 -50.0000 L 262.8571 -50.0000 L 255.5556 -50.0000 L 248.2540 -50.0000 L 240.9524 -50.0000 L 233.6508 -50.0000 L 226.3492 -50.0000 L 219.0476 -50.0000 L 211.7460 -50.0000 L 204.4444 -50.0000 L 197.1429 -50.0000 L 189.8413 -50.0000 L 182.5397 -50.0000 L 175.2381 -50.0000 L 167.9365 -50.0000 L 160.6349 -50.0000 L 153.3333 -50.0000 L 146.0317 -50.0000 L 138.7302 -50.0000 L 131.4286 -50.0000 L 124.1270 -50.0000 L 116.8254 -50.0000 L 109.5238 -50.0000 L 102.2222 -50.0000 L 94.9206 -50.0000 L 87.6190 -50.0000 L 80.3175 -50.0000 L 73.0159 -50.0000 L 65.7143 -50.0000 L 58.4127 -50.0000 L 51.1111 -50.0000 L 43.8095 -50.0000 L 36.5079 -50.0000 L 29.2063 -50.0000 L 21.9048 -50.0000 L 14.6032 -50.0000 L 7.3016 -50.0000 L 0.0000 -50.0000 Z" fill="black" stroke="none" fill-rule="nonzero" />
  </g>

  <g id="debug-overlays">

  </g>
  <text x="20" y="20" font-size="14" fill="#111">example=line_02_roundcap_end view=none solo=false</text>

</svg>