<svg xmlns="http://www.w3.org/2000/svg" width="1400" height="600" viewBox="-80.0000 -140.0000 620.0000 280.0000">


  <g id="stroke-ink">
    <path id="ink-compound" d="M 0.0000 -20.0000 L 0.0000 20.0000 L 7.3016 20.0000 L 14.6032 20.0000 L 21.9048 20.0000 L 29.2063 20.0000 L 36.5079 20.0000 L 43.8095 20.0000 L 51.1111 20.0000 L 58.4127 20.0000 L 65.7143 20.0000 L 73.0159 20.0000 L 80.3175 20.0000 L 87.6190 20.0000 L 94.9206 20.0000 L 102.2222 20.0000 L 109.5238 20.0000 L 116.8254 20.0000 L 124.1270 20.0000 L 131.4286 20.0000 L 138.7302 20.0000 L 146.0317 20.0000 L 153.3333 20.0000 L 160.6349 20.0000 L 167.9365 20.0000 L 175.2381 20.0000 L 182.5397 20.0000 L 189.8413 20.0000 L 197.1429 20.0000 L 204.4444 20.0000 L 211.7460 20.0000 L 219.0476 20.0000 L 226.3492 20.0000 L 230.0000 20.0000 L 233.6508 20.0000 L 240.9524 20.0000 L 248.2540 20.0000 L 255.5556 20.0000 L 262.8571 20.0000 L 270.1587 20.0000 L 277.4603 20.0000 L 284.7619 20.0000 L 287.5000 20.0000 L 292.0635 20.0000 L 299.3651 20.0000 L 306.6667 20.0000 L 313.9683 20.0000 L 316.2500 20.0000 L 319.8438 20.0000 L 321.2698 20.0000 L 321.6406 20.0000 L 322.0000 20.0000 L 322.0898 20.1524 L 322.5391 20.9107 L 323.4375 22.4096 L 328.5714 30.5309 L 330.6250 33.5737 L 335.8730 40.8382 L 337.8125 43.3432 L 343.1746 49.7873 L 345.0000 51.8254 L 350.4762 57.4904 L 352.1875 59.1277 L 357.7778 64.0601 L 359.3750 65.3572 L 365.0794 69.6088 L 366.5625 70.6213 L 372.3810 74.2491 L 373.7500 75.0271 L 379.6825 78.0932 L 380.9375 78.6820 L 386.9841 81.2538 L 388.1250 81.6931 L 394.2857 83.8431 L 401.5873 85.9738 L 402.5000 86.2135 L 408.8889 87.7582 L 416.1905 89.3088 L 423.4921 90.7381 L 430.7937 92.1585 L 431.2500 92.2495 L 438.0952 93.6824 L 445.3968 95.4223 L 445.6250 95.4814 L 452.6984 97.4907 L 460.0000 100.0000 L 460.0000 -100.0000 L 452.6984 -95.5593 L 445.6250 -90.9047 L 445.3968 -90.7495 L 438.0952 -85.6400 L 431.2500 -80.6397 L 430.7937 -80.3006 L 423.4921 -74.8010 L 416.1905 -69.2108 L 408.8889 -63.5997 L 402.5000 -58.7276 L 401.5873 -58.0374 L 394.2857 -52.5935 L 388.1250 -48.1437 L 386.9841 -47.3377 L 380.9375 -43.1774 L 379.6825 -42.3397 L 373.7500 -38.5167 L 372.3810 -37.6692 L 366.5625 -34.2282 L 365.0794 -33.3957 L 359.3750 -30.3783 L 357.7778 -29.5891 L 352.1875 -27.0335 L 350.4762 -26.3188 L 345.0000 -24.2601 L 343.1746 -23.6548 L 337.8125 -22.1248 L 335.8730 -21.6665 L 330.6250 -20.6938 L 328.5714 -20.4236 L 323.4375 -20.0337 L 322.5391 -20.0087 L 322.0898 -20.0011 L 322.0000 -20.0000 L 321.6406 -20.0000 L 321.2698 -20.0000 L 319.8438 -20.0000 L 316.2500 -20.0000 L 313.9683 -20.0000 L 306.6667 -20.0000 L 299.3651 -20.0000 L 292.0635 -20.0000 L 287.5000 -20.0000 L 284.7619 -20.0000 L 277.4603 -20.0000 L 270.1587 -20.0000 L 262.8571 -20.0000 L 255.5556 -20.0000 L 248.2540 -20.0000 L 240.9524 -20.0000 L 233.6508 -20.0000 L 230.0000 -20.0000 L 226.3492 -20.0000 L 219.0476 -20.0000 L 211.7460 -20.0000 L 204.4444 -20.0000 L 197.1429 -20.0000 L 189.8413 -20.0000 L 182.5397 -20.0000 L 175.2381 -20.0000 L 167.9365 -20.0000 L 160.6349 -20.0000 L 153.3333 -20.0000 L 146.0317 -20.0000 L 138.7302 -20.0000 L 131.4286 -20.0000 L 124.1270 -20.0000 L 116.8254 -20.0000 L 109.5238 -20.0000 L 102.2222 -20.0000 L 94.9206 -20.0000 L 87.6190 -20.0000 L 80.3175 -20.0000 L 73.0159 -20.0000 L 65.7143 -20.0000 L 58.4127 -20.0000 L 51.1111 -20.0000 L 43.8095 -20.0000 L 36.5079 -20.0000 L 29.2063 -20.0000 L 21.9048 -20.0000 L 14.6032 -20.0000 L 7.3016 -20.0000 L 0.0000 -20.0000 Z" fill="black" stroke="none" fill-rule="nonzero" />
  </g>

  <g id="debug-overlays">

  </g>
  <text x="20" y="20" font-size="14" fill="#111">example=line_06_ramp_alpha view=none solo=false</text>

</svg>