<svg xmlns="http://www.w3.org/2000/svg" width="1400" height="600" viewBox="-80.0000 -140.0000 620.0000 280.0000">


  <g id="stroke-ink">
    <path id="ink-compound" d="M 0.0000 -50.0000 L 0.0000 10.0000 L 7.3016 13.1746 L 14.6032 16.3492 L 21.9048 19.5238 L 29.2063 22.6984 L 36.5079 25.8730 L 43.8095 29.0476 L 51.1111 32.2222 L 58.4127 35.3968 L 65.7143 38.5714 L 73.0159 41.7460 L 80.3175 44.9206 L 87.6190 48.0952 L 94.9206 51.2698 L 102.2222 54.4444 L 109.5238 57.6190 L 115.0000 60.0000 L 116.8254 59.3651 L 124.1270 56.8254 L 131.4286 54.2857 L 138.7302 51.7460 L 146.0317 49.2063 L 153.3333 46.6667 L 160.6349 44.1270 L 167.9365 41.5873 L 175.2381 39.0476 L 182.5397 36.5079 L 189.8413 33.9683 L 197.1429 31.4286 L 204.4444 28.8889 L 211.7460 26.3492 L 219.0476 23.8095 L 226.3492 21.2698 L 230.0000 20.0000 L 233.6508 21.5873 L 240.9524 24.7619 L 248.2540 27.9365 L 255.5556 31.1111 L 262.8571 34.2857 L 270.1587 37.4603 L 277.4603 40.6349 L 284.7619 43.8095 L 292.0635 46.9841 L 299.3651 50.1587 L 306.6667 53.3333 L 313.9683 56.5079 L 321.2698 59.6825 L 328.5714 62.8571 L 335.8730 66.0317 L 343.1746 69.2063 L 345.0000 70.0000 L 350.4762 68.0952 L 357.7778 65.5556 L 365.0794 63.0159 L 372.3810 60.4762 L 379.6825 57.9365 L 386.9841 55.3968 L 394.2857 52.8571 L 401.5873 50.3175 L 408.8889 47.7778 L 416.1905 45.2381 L 423.4921 42.6984 L 430.7937 40.1587 L 438.0952 37.6190 L 445.3968 35.0794 L 452.6984 32.5397 L 460.0000 30.0000 L 460.0000 -30.0000 L 452.6984 -27.4603 L 445.3968 -24.9206 L 438.0952 -22.3810 L 430.7937 -19.8413 L 423.4921 -17.3016 L 416.1905 -14.7619 L 408.8889 -12.2222 L 401.5873 -9.6825 L 394.2857 -7.1429 L 386.9841 -4.6032 L 379.6825 -2.0635 L 372.3810 0.4762 L 365.0794 3.0159 L 357.7778 5.5556 L 350.4762 8.0952 L 345.0000 10.0000 L 343.1746 9.2063 L 335.8730 6.0317 L 328.5714 2.8571 L 321.2698 -0.3175 L 313.9683 -3.4921 L 306.6667 -6.6667 L 299.3651 -9.8413 L 292.0635 -13.0159 L 284.7619 -16.1905 L 277.4603 -19.3651 L 270.1587 -22.5397 L 262.8571 -25.7143 L 255.5556 -28.8889 L 248.2540 -32.0635 L 240.9524 -35.2381 L 233.6508 -38.4127 L 230.0000 -40.0000 L 226.3492 -38.7302 L 219.0476 -36.1905 L 211.7460 -33.6508 L 204.4444 -31.1111 L 197.1429 -28.5714 L 189.8413 -26.0317 L 182.5397 -23.4921 L 175.2381 -20.9524 L 167.9365 -18.4127 L 160.6349 -15.8730 L 153.3333 -13.3333 L 146.0317 -10.7937 L 138.7302 -8.2540 L 131.4286 -5.7143 L 124.1270 -3.1746 L 116.8254 -0.6349 L 115.0000 0.0000 L 109.5238 -2.3810 L 102.2222 -5.5556 L 94.9206 -8.7302 L 87.6190 -11.9048 L 80.3175 -15.0794 L 73.0159 -18.2540 L 65.7143 -21.4286 L 58.4127 -24.6032 L 51.1111 -27.7778 L 43.8095 -30.9524 L 36.5079 -34.1270 L 29.2063 -37.3016 L 21.9048 -40.4762 L 14.6032 -43.6508 L 7.3016 -46.8254 L 0.0000 -50.0000 Z" fill="black" stroke="none" fill-rule="nonzero" />
  </g>

  <g id="debug-overlays">

  </g>
  <text x="20" y="20" font-size="14" fill="#111">example=line_14_offset view=none solo=false</text>

</svg>