<svg xmlns="http://www.w3.org/2000/svg" viewBox="-23.9532 -15.0000 47.9065 160.0000">
  <path d="M -13.9532 59.4445 L -13.7870 57.2222 L -13.5275 55.0000 L -13.2693 52.7778 L -13.0136 50.5556 L -12.7615 48.3333 L -12.5147 46.1111 L -12.2747 43.8889 L -12.0435 41.6667 L -11.8236 39.4444 L -11.6192 37.2222 L -11.4286 35.0000 L -11.2381 32.7778 L -11.0476 30.5556 L -10.8571 28.3333 L -10.6667 26.1111 L -10.4762 23.8889 L -10.2857 21.6667 L -10.0952 19.4444 L -9.9048 17.2222 L -9.7143 15.0000 L -9.5238 12.7778 L -9.3333 10.5556 L -9.1429 8.3333 L -8.9524 6.1111 L -8.7619 3.8889 L -8.5714 1.6667 L -8.3810 -0.5556 L -8.1905 -2.7778 L -8.0000 -5.0000 L 8.0000 -5.0000 L 8.1905 -2.7778 L 8.3810 -0.5556 L 8.5714 1.6667 L 8.7619 3.8889 L 8.9524 6.1111 L 9.1429 8.3333 L 9.3333 10.5556 L 9.5238 12.7778 L 9.7143 15.0000 L 9.9048 17.2222 L 10.0952 19.4444 L 10.2857 21.6667 L 10.4762 23.8889 L 10.6667 26.1111 L 10.8571 28.3333 L 11.0476 30.5556 L 11.2381 32.7778 L 11.4286 35.0000 L 11.6192 37.2222 L 11.8236 39.4444 L 12.0435 41.6667 L 12.2747 43.8889 L 12.5147 46.1111 L 12.7615 48.3333 L 13.0136 50.5556 L 13.2693 52.7778 L 13.5275 55.0000 L 13.7870 57.2222 L 13.9532 59.4445 L 13.6942 61.6667 L 13.4368 63.8889 L 13.1816 66.1111 L 12.9295 68.3333 L 12.6810 70.5555 L 12.4367 72.7778 L 12.1970 75.0000 L 11.9624 77.2222 L 11.7332 79.4444 L 11.5097 81.6667 L 11.2922 83.8889 L 11.0808 86.1111 L 10.8757 88.3333 L 10.6771 90.5556 L 10.4850 92.7778 L 10.2994 95.0000 L 10.1204 97.2222 L 9.9479 99.4444 L 9.7820 101.6667 L 9.6225 103.8889 L 9.4693 106.1111 L 9.3225 108.3333 L 9.1818 110.5556 L 9.0472 112.7778 L 8.9184 115.0000 L 8.7954 117.2222 L 8.6781 119.4444 L 8.5662 121.6667 L 8.4595 123.8889 L 8.3580 126.1111 L 8.2615 128.3333 L 8.1698 130.5556 L 8.0827 132.7778 L 8.0000 135.0000 L -8.0000 135.0000 L -8.0827 132.7778 L -8.1698 130.5556 L -8.2615 128.3333 L -8.3580 126.1111 L -8.4595 123.8889 L -8.5662 121.6667 L -8.6781 119.4444 L -8.7954 117.2222 L -8.9184 115.0000 L -9.0472 112.7778 L -9.1818 110.5556 L -9.3225 108.3333 L -9.4693 106.1111 L -9.6225 103.8889 L -9.7820 101.6667 L -9.9479 99.4444 L -10.1204 97.2222 L -10.2994 95.0000 L -10.4850 92.7778 L -10.6771 90.5556 L -10.8757 88.3333 L -11.0808 86.1111 L -11.2922 83.8889 L -11.5097 81.6667 L -11.7332 79.4444 L -11.9624 77.2222 L -12.1970 75.0000 L -12.4367 72.7778 L -12.6810 70.5555 L -12.9295 68.3333 L -13.1816 66.1111 L -13.4368 63.8889 L -13.6942 61.6667 L -13.9532 59.4445 Z" fill="none" stroke="black" stroke-width="1" />

</svg>