<svg xmlns="http://www.w3.org/2000/svg" viewBox="-23.9048 -15.0000 47.8095 160.0000">
  <path d="M -13.9048 63.8889 L -13.9048 66.1111 L -13.7143 68.3333 L -13.5238 70.5555 L -13.3333 72.7778 L -13.1429 75.0000 L -12.9524 77.2222 L -12.7619 79.4444 L -12.5714 81.6667 L -12.3810 83.8889 L -12.1905 86.1111 L -12.0000 88.3333 L -11.8095 90.5556 L -11.6190 92.7778 L -11.4286 95.0000 L -11.2381 97.2222 L -11.0476 99.4444 L -10.8571 101.6667 L -10.6667 103.8889 L -10.4762 106.1111 L -10.2857 108.3333 L -10.0952 110.5556 L -9.9048 112.7778 L -9.7143 115.0000 L -9.5238 117.2222 L -9.3333 119.4444 L -9.1429 121.6667 L -8.9524 123.8889 L -8.7619 126.1111 L -8.5714 128.3333 L -8.3810 130.5556 L -8.1905 132.7778 L -8.0000 135.0000 L 8.0000 135.0000 L 8.1905 132.7778 L 8.3810 130.5556 L 8.5714 128.3333 L 8.7619 126.1111 L 8.9524 123.8889 L 9.1429 121.6667 L 9.3333 119.4444 L 9.5238 117.2222 L 9.7143 115.0000 L 9.9048 112.7778 L 10.0952 110.5556 L 10.2857 108.3333 L 10.4762 106.1111 L 10.6667 103.8889 L 10.8571 101.6667 L 11.0476 99.4444 L 11.2381 97.2222 L 11.4286 95.0000 L 11.6190 92.7778 L 11.8095 90.5556 L 12.0000 88.3333 L 12.1905 86.1111 L 12.3810 83.8889 L 12.5714 81.6667 L 12.7619 79.4444 L 12.9524 77.2222 L 13.1429 75.0000 L 13.3333 72.7778 L 13.5238 70.5555 L 13.7143 68.3333 L 13.9048 66.1111 L 13.9048 63.8889 L 13.7143 61.6667 L 13.5238 59.4445 L 13.3333 57.2222 L 13.1429 55.0000 L 12.9524 52.7778 L 12.7619 50.5556 L 12.5714 48.3333 L 12.3810 46.1111 L 12.1905 43.8889 L 12.0000 41.6667 L 11.8095 39.4444 L 11.6190 37.2222 L 11.4286 35.0000 L 11.2381 32.7778 L 11.0476 30.5556 L 10.8571 28.3333 L 10.6667 26.1111 L 10.4762 23.8889 L 10.2857 21.6667 L 10.0952 19.4444 L 9.9048 17.2222 L 9.7143 15.0000 L 9.5238 12.7778 L 9.3333 10.5556 L 9.1429 8.3333 L 8.9524 6.1111 L 8.7619 3.8889 L 8.5714 1.6667 L 8.3810 -0.5556 L 8.1905 -2.7778 L 8.0000 -5.0000 L -8.0000 -5.0000 L -8.1905 -2.7778 L -8.3810 -0.5556 L -8.5714 1.6667 L -8.7619 3.8889 L -8.9524 6.1111 L -9.1429 8.3333 L -9.3333 10.5556 L -9.5238 12.7778 L -9.7143 15.0000 L -9.9048 17.2222 L -10.0952 19.4444 L -10.2857 21.6667 L -10.4762 23.8889 L -10.6667 26.1111 L -10.8571 28.3333 L -11.0476 30.5556 L -11.2381 32.7778 L -11.4286 35.0000 L -11.6190 37.2222 L -11.8095 39.4444 L -12.0000 41.6667 L -12.1905 43.8889 L -12.3810 46.1111 L -12.5714 48.3333 L -12.7619 50.5556 L -12.9524 52.7778 L -13.1429 55.0000 L -13.3333 57.2222 L -13.5238 59.4445 L -13.7143 61.6667 L -13.9048 63.8889 Z" fill="none" stroke="black" stroke-width="1" />

</svg>