<svg xmlns="http://www.w3.org/2000/svg" viewBox="-23.0136 -15.0000 64.7468 160.0000">
  <path d="M -13.0136 53.8430 L -12.7615 51.4892 L -12.5147 49.1355 L -12.2747 46.7818 L -12.0435 44.4281 L -11.8236 42.0744 L -11.6192 39.7207 L -11.4286 37.3669 L -11.2381 35.0132 L -11.0476 32.6595 L -10.8571 30.3058 L -10.6667 27.9521 L -10.4762 25.5983 L -10.2857 23.2446 L -10.0952 20.8909 L -9.9048 18.5372 L -9.7143 16.1835 L -9.5238 13.8297 L -9.3333 11.4760 L -9.1429 9.1223 L -8.9524 6.7686 L -8.7619 4.4149 L -8.5714 2.0612 L -8.3810 -0.2926 L -8.1905 -2.6463 L -8.0000 -5.0000 L 8.0000 -5.0000 L 8.1905 -2.6463 L 8.3810 -0.2926 L 8.5714 2.0612 L 8.7619 4.4149 L 8.9524 6.7686 L 9.1429 9.1223 L 9.3333 11.4760 L 9.5238 13.8297 L 9.7143 16.1835 L 9.9048 18.5372 L 10.0952 20.8909 L 10.2857 23.2446 L 10.4762 25.5983 L 10.6667 27.9521 L 10.8571 30.3058 L 11.0476 32.6595 L 11.2381 35.0132 L 11.4286 37.3669 L 11.6192 39.7207 L 11.8236 42.0744 L 12.0435 44.4281 L 12.2747 46.7818 L 12.5147 49.1355 L 12.7615 51.4892 L 13.0136 53.8430 L 6.6935 47.9278 L 8.5404 49.4096 L 17.4593 57.9615 L 12.1701 52.4372 L 20.7223 61.3558 L 15.1335 56.1311 L 16.6174 57.9758 L 18.1035 59.8184 L 19.5921 61.6585 L 28.1548 70.5666 L 22.5785 65.3294 L 24.0770 67.1596 L 31.7332 76.1570 L 31.5097 78.5108 L 31.2922 80.8645 L 31.0808 83.2182 L 30.8757 85.5719 L 30.6771 87.9256 L 30.4850 90.2793 L 30.2994 92.6331 L 30.1204 94.9868 L 29.9479 97.3405 L 29.7820 99.6942 L 29.6225 102.0479 L 29.4693 104.4017 L 29.3225 106.7554 L 29.1818 109.1091 L 29.0472 111.4628 L 28.9184 113.8165 L 28.7954 116.1703 L 28.6781 118.5240 L 28.5662 120.8777 L 28.4595 123.2314 L 28.3580 125.5851 L 28.2615 127.9388 L 28.1698 130.2926 L 28.0827 132.6463 L 28.0000 135.0000 L 12.0000 135.0000 L 11.9173 132.6463 L 11.8302 130.2926 L 11.7385 127.9388 L 11.6420 125.5851 L 11.5405 123.2314 L 11.4338 120.8777 L 11.3219 118.5240 L 11.2046 116.1703 L 11.0816 113.8165 L 10.9528 111.4628 L 10.8182 109.1091 L 10.6775 106.7554 L 10.5307 104.4017 L 10.3775 102.0479 L 10.2180 99.6942 L 10.0521 97.3405 L 9.8796 94.9868 L 9.7006 92.6331 L 9.5150 90.2793 L 9.3229 87.9256 L 9.1243 85.5719 L 8.9192 83.2182 L 8.7078 80.8645 L 8.4903 78.5108 L 8.2668 76.1570 L 7.1596 84.0770 L 5.3294 82.5785 L 3.4956 81.0837 L 1.6585 79.5921 L -0.1816 78.1035 L -2.0242 76.6174 L -3.8689 75.1335 L -5.7153 73.6512 L -7.5628 72.1701 L -9.1096 70.3882 L -10.5904 68.5404 L -12.0722 66.6935 L -13.0136 53.8430 Z" fill="none" stroke="black" stroke-width="1" />

</svg>