<svg xmlns="http://www.w3.org/2000/svg" viewBox="-22.7619 -15.0000 65.5238 160.0000">
  <path d="M -12.7619 53.8430 L -12.5714 51.4892 L -12.3810 49.1355 L -12.1905 46.7818 L -12.0000 44.4281 L -11.8095 42.0744 L -11.6190 39.7207 L -11.4286 37.3669 L -11.2381 35.0132 L -11.0476 32.6595 L -10.8571 30.3058 L -10.6667 27.9521 L -10.4762 25.5983 L -10.2857 23.2446 L -10.0952 20.8909 L -9.9048 18.5372 L -9.7143 16.1835 L -9.5238 13.8297 L -9.3333 11.4760 L -9.1429 9.1223 L -8.9524 6.7686 L -8.7619 4.4149 L -8.5714 2.0612 L -8.3810 -0.2926 L -8.1905 -2.6463 L -8.0000 -5.0000 L 8.0000 -5.0000 L 8.1905 -2.6463 L 8.3810 -0.2926 L 8.5714 2.0612 L 8.7619 4.4149 L 8.9524 6.7686 L 9.1429 9.1223 L 9.3333 11.4760 L 9.5238 13.8297 L 9.7143 16.1835 L 9.9048 18.5372 L 10.0952 20.8909 L 10.2857 23.2446 L 10.4762 25.5983 L 10.6667 27.9521 L 10.8571 30.3058 L 11.0476 32.6595 L 11.2381 35.0132 L 11.4286 37.3669 L 11.6190 39.7207 L 11.8095 42.0744 L 12.0000 44.4281 L 12.1905 46.7818 L 12.3810 49.1355 L 12.5714 51.4892 L 12.7619 53.8430 L 6.4694 48.1519 L 8.2684 49.6816 L 17.1385 58.2823 L 18.9375 59.8119 L 20.7365 61.3416 L 15.4645 55.8002 L 17.1288 57.4645 L 18.6584 59.2635 L 27.2591 68.1336 L 28.7888 69.9326 L 23.2474 64.6605 L 31.8481 73.5306 L 32.7619 76.1570 L 32.5714 78.5108 L 32.3810 80.8645 L 32.1905 83.2182 L 32.0000 85.5719 L 31.8095 87.9256 L 31.6190 90.2793 L 31.4286 92.6331 L 31.2381 94.9868 L 31.0476 97.3405 L 30.8571 99.6942 L 30.6667 102.0479 L 30.4762 104.4017 L 30.2857 106.7554 L 30.0952 109.1091 L 29.9048 111.4628 L 29.7143 113.8165 L 29.5238 116.1703 L 29.3333 118.5240 L 29.1429 120.8777 L 28.9524 123.2314 L 28.7619 125.5851 L 28.5714 127.9388 L 28.3810 130.2926 L 28.1905 132.6463 L 28.0000 135.0000 L 12.0000 135.0000 L 11.8095 132.6463 L 11.6190 130.2926 L 11.4286 127.9388 L 11.2381 125.5851 L 11.0476 123.2314 L 10.8571 120.8777 L 10.6667 118.5240 L 10.4762 116.1703 L 10.2857 113.8165 L 10.0952 111.4628 L 9.9048 109.1091 L 9.7143 106.7554 L 9.5238 104.4017 L 9.3333 102.0479 L 9.1429 99.6942 L 8.9524 97.3405 L 8.7619 94.9868 L 8.5714 92.6331 L 8.3810 90.2793 L 8.1905 87.9256 L 8.0000 85.5719 L 7.8095 83.2182 L 7.6190 80.8645 L 7.4286 78.5108 L 7.2381 76.1570 L 6.4596 84.7770 L 4.6605 83.2474 L 2.8615 81.7177 L 1.0625 80.1881 L -0.7365 78.6584 L -2.5355 77.1288 L -4.1998 75.4645 L -5.7295 73.6654 L -7.2591 71.8664 L -8.7888 70.0674 L -10.3184 68.2684 L -11.8481 66.4694 L -12.7619 53.8430 Z" fill="none" stroke="black" stroke-width="1" />

</svg>