<svg xmlns="http://www.w3.org/2000/svg" viewBox="-34.9467 -20.2769 69.5337 140.4987">
  <path d="M -24.9467 89.0068 L -24.6708 92.9204 L -23.5996 97.0914 L -14.1129 107.6460 L -18.9252 104.1839 L -15.9899 106.4584 L -13.0656 107.9937 L -10.2530 108.9973 L 2.4131 110.2218 L -5.0000 110.0000 L -5.0000 90.0000 L -6.3852 89.6648 L -7.5812 89.1766 L -8.4993 88.5220 L 0.3595 91.2040 L -8.9778 86.8331 L -8.3412 86.0431 L -7.2995 85.5024 L -2.3564 94.3582 L -5.4115 84.7202 L -4.0462 94.0335 L -4.2565 83.1447 L -3.7547 82.0182 L -3.2366 80.7347 L -4.9760 89.0726 L -4.7791 87.4939 L -1.4625 76.3247 L -0.7946 74.7446 L -0.0932 73.1322 L 0.6386 71.4940 L 1.3965 69.8369 L -1.7693 77.3514 L 2.9799 66.4771 L 3.7994 64.7798 L 4.6341 63.0727 L 1.1902 70.3887 L 6.3408 59.6321 L 7.2086 57.8996 L 3.6617 65.1281 L 8.9646 54.4103 L 9.8493 52.6530 L 10.7364 50.8867 L 11.6243 49.1108 L 12.5114 47.3244 L 13.3960 45.5265 L 14.2765 43.7161 L 15.1511 41.8918 L 11.6724 49.0585 L 16.8742 38.1948 L 13.4914 45.3810 L 18.5470 34.4196 L 19.3571 32.4960 L 20.1452 30.5432 L 20.9064 28.5571 L 21.6349 26.5328 L 22.3240 24.4618 L 22.9640 22.3374 L 23.5431 20.1474 L 24.0443 17.8775 L 24.4440 15.5099 L 22.9113 22.8577 L 23.6188 20.3091 L 24.5870 7.5455 L 23.9919 4.4929 L 22.8034 1.2255 L 20.7830 -2.1337 L 17.8051 -5.2415 L 14.1129 -7.6460 L 10.2498 -9.1576 L 15.9899 -6.4584 L 3.3298 -10.2769 L 10.2530 -8.9973 L -2.4131 -10.2218 L -5.0000 -10.0000 L -5.0000 10.0000 L 6.3852 10.3352 L -2.3291 9.4876 L 8.4993 11.4780 L -0.3595 8.7960 L 0.3024 8.1932 L 8.3412 13.9569 L 7.2995 14.4976 L 2.3564 5.6418 L 3.2682 5.5121 L 4.0462 5.9665 L 4.5987 6.8611 L 4.9184 8.0497 L 5.0328 9.4279 L 4.9760 10.9274 L 4.7791 12.5061 L 4.4674 14.1375 L 0.7946 25.2554 L 0.0932 26.8678 L 3.0268 19.2020 L 2.4216 20.9207 L 1.7693 22.6486 L -2.9799 33.5229 L 0.3496 26.1215 L -0.4073 27.8646 L -1.1902 29.6113 L -1.9955 31.3613 L -7.2086 42.1004 L -3.6617 34.8719 L -8.9646 45.5897 L -5.3862 38.3982 L -10.7364 49.1133 L -11.6243 50.8892 L -8.0483 43.7268 L -8.9492 45.5166 L -9.8544 47.3148 L -10.7626 49.1226 L -11.6724 50.9415 L -12.5824 52.7730 L -17.7182 63.6818 L -14.3979 56.4818 L -19.3571 67.5040 L -16.1979 60.2688 L -17.0882 62.2005 L -21.6349 73.4672 L -18.8402 66.1646 L -19.6973 68.2112 L -23.5431 79.8526 L -21.3586 72.4899 L -22.1527 74.7561 L -22.9113 77.1423 L -24.7825 89.6229 L -24.2448 82.4603 L -23.9919 95.5071 L -24.9467 89.0068 Z" fill="none" stroke="black" stroke-width="1" />
  <g id="debug">
    <path d="M 0.0000 0.0000 L 0.5813 0.0046 L 1.1489 0.0184 L 1.7029 0.0412 L 2.2434 0.0730 L 2.7704 0.1138 L 3.2842 0.1635 L 3.7848 0.2219 L 4.2722 0.2891 L 4.7468 0.3649 L 5.2084 0.4493 L 5.6573 0.5422 L 6.0935 0.6435 L 6.5173 0.7532 L 6.9285 0.8712 L 7.3275 0.9974 L 7.7142 1.1317 L 8.0889 1.2741 L 8.4515 1.4245 L 8.8023 1.5828 L 9.1413 1.7490 L 9.4686 1.9229 L 9.7843 2.1046 L 10.0886 2.2938 L 10.3816 2.4907 L 10.6633 2.6950 L 10.9339 2.9068 L 11.1935 3.1259 L 11.4422 3.3523 L 11.6800 3.5859 L 11.9072 3.8266 L 12.1238 4.0743 L 12.3299 4.3291 L 12.5256 4.5908 L 12.7111 4.8593 L 12.8864 5.1345 L 13.0517 5.4165 L 13.2071 5.7051 L 13.3526 6.0002 L 13.4885 6.3018 L 13.6147 6.6098 L 13.7314 6.9242 L 13.8387 7.2448 L 13.9368 7.5716 L 14.0256 7.9045 L 14.1054 8.2434 L 14.1763 8.5884 L 14.2383 8.9392 L 14.2916 9.2958 L 14.3362 9.6582 L 14.3723 10.0263 L 14.4000 10.4000 L 14.4194 10.7792 L 14.4306 11.1639 L 14.4337 11.5540 L 14.4288 11.9494 L 14.4161 12.3500 L 14.3956 12.7559 L 14.3675 13.1668 L 14.3318 13.5828 L 14.2886 14.0037 L 14.2382 14.4295 L 14.1805 14.8601 L 14.1157 15.2954 L 14.0439 15.7354 L 13.9652 16.1801 L 13.8797 16.6292 L 13.7876 17.0828 L 13.6889 17.5407 L 13.5837 18.0030 L 13.4722 18.4695 L 13.3544 18.9402 L 13.2305 19.4149 L 13.1006 19.8937 L 12.9648 20.3764 L 12.8231 20.8630 L 12.6758 21.3534 L 12.5228 21.8475 L 12.3644 22.3453 L 12.2006 22.8466 L 12.0316 23.3515 L 11.8574 23.8598 L 11.6781 24.3715 L 11.4939 24.8864 L 11.3049 25.4046 L 11.1111 25.9259 L 10.9127 26.4503 L 10.7099 26.9777 L 10.5026 27.5081 L 10.2910 28.0413 L 10.0753 28.5772 L 9.8555 29.1159 L 9.6317 29.6573 L 9.4041 30.2012 L 9.1727 30.7476 L 8.9377 31.2964 L 8.6992 31.8476 L 8.4573 32.4010 L 8.2120 32.9567 L 7.9635 33.5145 L 7.7120 34.0744 L 7.4574 34.6362 L 7.2000 35.2000 L 6.9398 35.7656 L 6.6770 36.3330 L 6.4116 36.9021 L 6.1437 37.4728 L 5.8735 38.0451 L 5.6011 38.6188 L 5.3266 39.1940 L 5.0501 39.7705 L 4.7717 40.3483 L 4.4914 40.9273 L 4.2095 41.5074 L 3.9261 42.0885 L 3.6411 42.6706 L 3.3548 43.2536 L 3.0673 43.8375 L 2.7786 44.4221 L 2.4889 45.0074 L 2.1982 45.5933 L 1.9068 46.1798 L 1.6146 46.7667 L 1.3219 47.3540 L 1.0286 47.9417 L 0.7350 48.5296 L 0.4411 49.1177 L 0.1471 49.7059 L -0.1471 50.2941 L -0.4411 50.8823 L -0.7350 51.4704 L -1.0286 52.0583 L -1.3219 52.6460 L -1.6146 53.2333 L -1.9068 53.8202 L -2.1982 54.4067 L -2.4889 54.9926 L -2.7786 55.5779 L -3.0673 56.1625 L -3.3548 56.7464 L -3.6411 57.3294 L -3.9261 57.9115 L -4.2095 58.4926 L -4.4914 59.0727 L -4.7717 59.6517 L -5.0501 60.2295 L -5.3266 60.8060 L -5.6011 61.3812 L -5.8735 61.9549 L -6.1437 62.5272 L -6.4116 63.0979 L -6.6770 63.6670 L -6.9398 64.2344 L -7.2000 64.8000 L -7.4574 65.3638 L -7.7120 65.9256 L -7.9635 66.4855 L -8.2120 67.0433 L -8.4573 67.5990 L -8.6992 68.1524 L -8.9377 68.7036 L -9.1727 69.2524 L -9.4041 69.7988 L -9.6317 70.3427 L -9.8555 70.8841 L -10.0753 71.4228 L -10.2910 71.9587 L -10.5026 72.4919 L -10.7099 73.0223 L -10.9127 73.5497 L -11.1111 74.0741 L -11.3049 74.5954 L -11.4939 75.1136 L -11.6781 75.6285 L -11.8574 76.1402 L -12.0316 76.6485 L -12.2006 77.1534 L -12.3644 77.6547 L -12.5228 78.1525 L -12.6758 78.6466 L -12.8231 79.1370 L -12.9648 79.6236 L -13.1006 80.1063 L -13.2305 80.5851 L -13.3544 81.0598 L -13.4722 81.5305 L -13.5837 81.9970 L -13.6889 82.4593 L -13.7876 82.9172 L -13.8797 83.3708 L -13.9652 83.8199 L -14.0439 84.2646 L -14.1157 84.7046 L -14.1805 85.1399 L -14.2382 85.5705 L -14.2886 85.9963 L -14.3318 86.4172 L -14.3675 86.8332 L -14.3956 87.2441 L -14.4161 87.6500 L -14.4288 88.0506 L -14.4337 88.4460 L -14.4306 88.8361 L -14.4194 89.2208 L -14.4000 89.6000 L -14.3723 89.9737 L -14.3362 90.3418 L -14.2916 90.7042 L -14.2383 91.0608 L -14.1763 91.4116 L -14.1054 91.7566 L -14.0256 92.0955 L -13.9368 92.4284 L -13.8387 92.7552 L -13.7314 93.0758 L -13.6147 93.3902 L -13.4885 93.6982 L -13.3526 93.9998 L -13.2071 94.2949 L -13.0517 94.5835 L -12.8864 94.8655 L -12.7111 95.1407 L -12.5256 95.4092 L -12.3299 95.6709 L -12.1238 95.9257 L -11.9072 96.1734 L -11.6800 96.4141 L -11.4422 96.6477 L -11.1935 96.8741 L -10.9339 97.0932 L -10.6633 97.3050 L -10.3816 97.5093 L -10.0886 97.7062 L -9.7843 97.8954 L -9.4686 98.0771 L -9.1413 98.2510 L -8.8023 98.4172 L -8.4515 98.5755 L -8.0889 98.7259 L -7.7142 98.8683 L -7.3275 99.0026 L -6.9285 99.1288 L -6.5173 99.2468 L -6.0935 99.3565 L -5.6573 99.4578 L -5.2084 99.5507 L -4.7468 99.6351 L -4.2722 99.7109 L -3.7848 99.7781 L -3.2842 99.8365 L -2.7704 99.8862 L -2.2434 99.9270 L -1.7029 99.9588 L -1.1489 99.9816 L -0.5813 99.9954 L 0.0000 100.0000" fill="none" stroke="orange" stroke-width="0.6" />
    <path d="M -5.0000 -10.0000 L 7.9109 -9.5643 L 0.7970 -10.3374 L 13.3328 -7.8766 L 15.8296 -6.5586 L 9.2350 -9.4310 L 12.0068 -8.5709 L 14.6794 -7.3491 L 17.1519 -5.7579 L 19.3202 -3.8413 L 21.1126 -1.6836 L 22.7960 1.2096 L 23.7266 3.5903 L 24.5210 15.9789 L 24.0804 18.3420 L 24.7859 10.7220 L 24.7040 13.0692 L 24.4583 15.4062 L 24.0713 17.7389 L 23.5613 20.0723 L 22.9433 22.4102 L 22.2300 24.7555 L 21.4325 27.1096 L 20.5607 29.4731 L 15.6017 41.0008 L 14.4899 43.3279 L 17.5881 36.6110 L 16.5053 39.0000 L 15.3893 41.3896 L 9.8244 52.7449 L 13.0871 46.1565 L 11.9154 48.5262 L 10.4453 51.4670 L 9.2735 53.7969 L 8.1129 56.1013 L 6.9702 58.3748 L 5.8520 60.6120 L 4.7650 62.8068 L 3.7154 64.9528 L -1.3128 76.1987 L 1.7525 69.0707 L -2.8609 80.3129 L 0.0078 72.9037 L -4.0461 84.1392 L -1.4843 76.3772 L -2.1299 77.9515 L -4.9815 89.1386 L -3.2264 80.7090 L -4.9436 91.7843 L -4.1158 82.8480 L -4.3402 93.6510 L -4.9458 84.2738 L -5.4149 84.7228 L -6.1167 85.0967 L -6.7833 85.3257 L -7.5078 85.5839 L -8.2049 85.9463 L -0.5572 92.1725 L -0.1411 91.6181 L -8.9972 87.7618 L 1.1457 90.8363 L -7.7475 89.0844 L -6.5527 89.6105 L -5.0000 90.0000" fill="none" stroke="green" stroke-width="0.6" />
    <path d="M -5.0000 10.0000 L -3.4242 9.7104 L 7.7475 10.9156 L -1.1457 9.1637 L 8.9972 12.2382 L 9.0476 12.9289 L 0.5572 7.8275 L 8.2049 14.0537 L 7.5078 14.4161 L 1.8844 5.9564 L 2.4812 5.5875 L 5.4149 15.2772 L 3.8476 5.7867 L 4.3402 6.3490 L 4.1158 17.1520 L 4.9436 8.2157 L 5.0332 9.4555 L 2.7091 20.5998 L 4.7943 12.4100 L 4.4795 14.0819 L 4.0461 15.8608 L 3.5034 17.7330 L -0.8504 28.9729 L 2.1276 21.7128 L 1.3128 23.8013 L 0.4250 25.9446 L -0.5273 28.1355 L -5.8520 39.3880 L -2.5925 32.6343 L -3.6898 34.9301 L -4.8201 37.2495 L -5.9759 39.5874 L -7.4460 42.5282 L -13.0871 53.8435 L -9.8244 47.2551 L -11.0116 49.6195 L -16.5053 61.0000 L -13.3504 54.3313 L -14.4899 56.6721 L -15.6017 58.9992 L -20.5607 70.5269 L -17.7212 63.6045 L -18.7188 65.8812 L -19.6686 68.1412 L -20.5661 70.3868 L -21.4069 72.6226 L -22.1859 74.8554 L -24.7040 86.9308 L -23.5328 79.3568 L -24.0804 81.6580 L -24.5210 84.0211 L -24.8248 86.4702 L -24.9468 89.0244 L -24.7482 92.3679 L -24.2190 95.1234 L -17.1519 105.7579 L -21.9456 100.4788 L -20.2060 102.8461 L -18.1415 104.8840 L -15.8296 106.5586 L -13.3328 107.8766 L -0.7970 110.3374 L 2.0660 110.2434 L -5.0000 110.0000" fill="none" stroke="green" stroke-width="0.6" />
    <line x1="0.0000" y1="0.0000" x2="0.0000" y2="10.0000" stroke="purple" stroke-width="0.5"/>
    <line x1="2.2434" y1="0.0730" x2="1.5643" y2="10.0500" stroke="purple" stroke-width="0.5"/>
    <line x1="4.2722" y1="0.2891" x2="2.8018" y2="10.1804" stroke="purple" stroke-width="0.5"/>
    <line x1="6.0935" y1="0.6435" x2="3.7102" y2="10.3553" stroke="purple" stroke-width="0.5"/>
    <line x1="7.7142" y1="1.1317" x2="4.2980" y2="10.5301" stroke="purple" stroke-width="0.5"/>
    <line x1="9.1413" y1="1.7490" x2="4.5943" y2="10.6554" stroke="purple" stroke-width="0.5"/>
    <line x1="10.3816" y1="2.4907" x2="4.6568" y2="10.6899" stroke="purple" stroke-width="0.5"/>
    <line x1="11.4422" y1="3.3523" x2="4.5718" y2="10.6185" stroke="purple" stroke-width="0.5"/>
    <line x1="12.3299" y1="4.3291" x2="4.4374" y2="10.4699" stroke="purple" stroke-width="0.5"/>
    <line x1="13.0517" y1="5.4165" x2="4.3339" y2="10.3153" stroke="purple" stroke-width="0.5"/>
    <line x1="13.6147" y1="6.6098" x2="4.2990" y2="10.2454" stroke="purple" stroke-width="0.5"/>
    <line x1="14.1054" y1="8.2434" x2="4.3395" y2="10.3943" stroke="purple" stroke-width="0.5"/>
    <line x1="14.3362" y1="9.6582" x2="4.3967" y2="10.7564" stroke="purple" stroke-width="0.5"/>
    <line x1="14.4306" y1="11.1639" x2="4.4323" y2="11.3481" stroke="purple" stroke-width="0.5"/>
    <line x1="14.3956" y1="12.7559" x2="4.4133" y2="12.1608" stroke="purple" stroke-width="0.5"/>
    <line x1="14.2382" y1="14.4295" x2="4.3170" y2="13.1763" stroke="purple" stroke-width="0.5"/>
    <line x1="13.9652" y1="16.1801" x2="4.1298" y2="14.3732" stroke="purple" stroke-width="0.5"/>
    <line x1="13.5837" y1="18.0030" x2="3.8453" y2="15.7306" stroke="purple" stroke-width="0.5"/>
    <line x1="13.1006" y1="19.8937" x2="3.4621" y2="17.2293" stroke="purple" stroke-width="0.5"/>
    <line x1="12.5228" y1="21.8475" x2="2.9819" y2="18.8523" stroke="purple" stroke-width="0.5"/>
    <line x1="11.8574" y1="23.8598" x2="2.4088" y2="20.5851" stroke="purple" stroke-width="0.5"/>
    <line x1="11.1111" y1="25.9259" x2="1.7478" y2="22.4147" stroke="purple" stroke-width="0.5"/>
    <line x1="10.2910" y1="28.0413" x2="1.0052" y2="24.3300" stroke="purple" stroke-width="0.5"/>
    <line x1="9.4041" y1="30.2012" x2="0.1876" y2="26.3210" stroke="purple" stroke-width="0.5"/>
    <line x1="8.4573" y1="32.4010" x2="-0.6982" y2="28.3790" stroke="purple" stroke-width="0.5"/>
    <line x1="7.4574" y1="34.6362" x2="-1.6452" y2="30.4959" stroke="purple" stroke-width="0.5"/>
    <line x1="6.4116" y1="36.9021" x2="-2.6461" y2="32.6644" stroke="purple" stroke-width="0.5"/>
    <line x1="5.3266" y1="39.1940" x2="-3.6939" y2="34.8778" stroke="purple" stroke-width="0.5"/>
    <line x1="4.2095" y1="41.5074" x2="-4.7813" y2="37.1297" stroke="purple" stroke-width="0.5"/>
    <line x1="3.0673" y1="43.8375" x2="-5.9013" y2="39.4144" stroke="purple" stroke-width="0.5"/>
    <line x1="1.9068" y1="46.1798" x2="-7.0468" y2="41.7263" stroke="purple" stroke-width="0.5"/>
    <line x1="0.7350" y1="48.5296" x2="-8.2106" y2="44.0602" stroke="purple" stroke-width="0.5"/>
    <line x1="-0.7350" y1="51.4704" x2="-9.6807" y2="47.0010" stroke="purple" stroke-width="0.5"/>
    <line x1="-1.9068" y1="53.8202" x2="-10.8604" y2="49.3668" stroke="purple" stroke-width="0.5"/>
    <line x1="-3.0673" y1="56.1625" x2="-12.0359" y2="51.7394" stroke="purple" stroke-width="0.5"/>
    <line x1="-4.2095" y1="58.4926" x2="-13.2004" y2="54.1150" stroke="purple" stroke-width="0.5"/>
    <line x1="-5.3266" y1="60.8060" x2="-14.3471" y2="56.4897" stroke="purple" stroke-width="0.5"/>
    <line x1="-6.4116" y1="63.0979" x2="-15.4693" y2="58.8602" stroke="purple" stroke-width="0.5"/>
    <line x1="-7.4574" y1="65.3638" x2="-16.5600" y2="61.2234" stroke="purple" stroke-width="0.5"/>
    <line x1="-8.4573" y1="67.5990" x2="-17.6128" y2="63.5769" stroke="purple" stroke-width="0.5"/>
    <line x1="-9.4041" y1="69.7988" x2="-18.6206" y2="65.9187" stroke="purple" stroke-width="0.5"/>
    <line x1="-10.2910" y1="71.9587" x2="-19.5769" y2="68.2475" stroke="purple" stroke-width="0.5"/>
    <line x1="-11.1111" y1="74.0741" x2="-20.4744" y2="70.5628" stroke="purple" stroke-width="0.5"/>
    <line x1="-11.8574" y1="76.1402" x2="-21.3060" y2="72.8655" stroke="purple" stroke-width="0.5"/>
    <line x1="-12.5228" y1="78.1525" x2="-22.0637" y2="75.1573" stroke="purple" stroke-width="0.5"/>
    <line x1="-13.1006" y1="80.1063" x2="-22.7391" y2="77.4418" stroke="purple" stroke-width="0.5"/>
    <line x1="-13.5837" y1="81.9970" x2="-23.3221" y2="79.7246" stroke="purple" stroke-width="0.5"/>
    <line x1="-13.9652" y1="83.8199" x2="-23.8006" y2="82.0131" stroke="purple" stroke-width="0.5"/>
    <line x1="-14.2382" y1="85.5705" x2="-24.1593" y2="84.3174" stroke="purple" stroke-width="0.5"/>
    <line x1="-14.3956" y1="87.2441" x2="-24.3779" y2="86.6491" stroke="purple" stroke-width="0.5"/>
    <line x1="-14.4306" y1="88.8361" x2="-24.4289" y2="89.0203" stroke="purple" stroke-width="0.5"/>
    <line x1="-14.3362" y1="90.3418" x2="-24.2757" y2="91.4400" stroke="purple" stroke-width="0.5"/>
    <line x1="-14.1054" y1="91.7566" x2="-23.8714" y2="93.9074" stroke="purple" stroke-width="0.5"/>
    <line x1="-13.6147" y1="93.3902" x2="-22.9304" y2="97.0257" stroke="purple" stroke-width="0.5"/>
    <line x1="-13.0517" y1="94.5835" x2="-21.7696" y2="99.4823" stroke="purple" stroke-width="0.5"/>
    <line x1="-12.3299" y1="95.6709" x2="-20.2223" y2="101.8117" stroke="purple" stroke-width="0.5"/>
    <line x1="-11.4422" y1="96.6477" x2="-18.3125" y2="103.9139" stroke="purple" stroke-width="0.5"/>
    <line x1="-10.3816" y1="97.5093" x2="-16.1064" y2="105.7085" stroke="purple" stroke-width="0.5"/>
    <line x1="-9.1413" y1="98.2510" x2="-13.6882" y2="107.1575" stroke="purple" stroke-width="0.5"/>
    <line x1="-7.7142" y1="98.8683" x2="-11.1305" y2="108.2667" stroke="purple" stroke-width="0.5"/>
    <line x1="-6.0935" y1="99.3565" x2="-8.4769" y2="109.0683" stroke="purple" stroke-width="0.5"/>
    <line x1="-4.2722" y1="99.7109" x2="-5.7427" y2="109.6022" stroke="purple" stroke-width="0.5"/>
    <line x1="-2.2434" y1="99.9270" x2="-2.9225" y2="109.9039" stroke="purple" stroke-width="0.5"/>
    <line x1="0.0000" y1="100.0000" x2="0.0000" y2="110.0000" stroke="purple" stroke-width="0.5"/>
    <circle cx="0.0000" cy="0.0000" r="1.2" fill="none" stroke="blue" stroke-width="0.5"/>
    <circle cx="0.5813" cy="0.0046" r="1.2" fill="none" stroke="blue" stroke-width="0.5"/>
    <circle cx="1.1489" cy="0.0184" r="1.2" fill="none" stroke="blue" stroke-width="0.5"/>
    <circle cx="1.7029" cy="0.0412" r="1.2" fill="none" stroke="blue" stroke-width="0.5"/>
    <circle cx="2.2434" cy="0.0730" r="1.2" fill="none" stroke="blue" stroke-width="0.5"/>
    <circle cx="2.7704" cy="0.1138" r="1.2" fill="none" stroke="blue" stroke-width="0.5"/>
    <circle cx="3.2842" cy="0.1635" r="1.2" fill="none" stroke="blue" stroke-width="0.5"/>
    <circle cx="3.7848" cy="0.2219" r="1.2" fill="none" stroke="blue" stroke-width="0.5"/>
    <circle cx="4.2722" cy="0.2891" r="1.2" fill="none" stroke="blue" stroke-width="0.5"/>
    <circle cx="4.7468" cy="0.3649" r="1.2" fill="none" stroke="blue" stroke-width="0.5"/>
    <circle cx="5.2084" cy="0.4493" r="1.2" fill="none" stroke="blue" stroke-width="0.5"/>
    <circle cx="5.6573" cy="0.5422" r="1.2" fill="none" stroke="blue" stroke-width="0.5"/>
    <circle cx="6.0935" cy="0.6435" r="1.2" fill="none" stroke="blue" stroke-width="0.5"/>
    <circle cx="6.5173" cy="0.7532" r="1.2" fill="none" stroke="blue" stroke-width="0.5"/>
    <circle cx="6.9285" cy="0.8712" r="1.2" fill="none" stroke="blue" stroke-width="0.5"/>
    <circle cx="7.3275" cy="0.9974" r="1.2" fill="none" stroke="blue" stroke-width="0.5"/>
    <circle cx="7.7142" cy="1.1317" r="1.2" fill="none" stroke="blue" stroke-width="0.5"/>
    <circle cx="8.0889" cy="1.2741" r="1.2" fill="none" stroke="blue" stroke-width="0.5"/>
    <circle cx="8.4515" cy="1.4245" r="1.2" fill="none" stroke="blue" stroke-width="0.5"/>
    <circle cx="8.8023" cy="1.5828" r="1.2" fill="none" stroke="blue" stroke-width="0.5"/>
    <circle cx="9.1413" cy="1.7490" r="1.2" fill="none" stroke="blue" stroke-width="0.5"/>
    <circle cx="9.4686" cy="1.9229" r="1.2" fill="none" stroke="blue" stroke-width="0.5"/>
    <circle cx="9.7843" cy="2.1046" r="1.2" fill="none" stroke="blue" stroke-width="0.5"/>
    <circle cx="10.0886" cy="2.2938" r="1.2" fill="none" stroke="blue" stroke-width="0.5"/>
    <circle cx="10.3816" cy="2.4907" r="1.2" fill="none" stroke="blue" stroke-width="0.5"/>
    <circle cx="10.6633" cy="2.6950" r="1.2" fill="none" stroke="blue" stroke-width="0.5"/>
    <circle cx="10.9339" cy="2.9068" r="1.2" fill="none" stroke="blue" stroke-width="0.5"/>
    <circle cx="11.1935" cy="3.1259" r="1.2" fill="none" stroke="blue" stroke-width="0.5"/>
    <circle cx="11.4422" cy="3.3523" r="1.2" fill="none" stroke="blue" stroke-width="0.5"/>
    <circle cx="11.6800" cy="3.5859" r="1.2" fill="none" stroke="blue" stroke-width="0.5"/>
    <circle cx="11.9072" cy="3.8266" r="1.2" fill="none" stroke="blue" stroke-width="0.5"/>
    <circle cx="12.1238" cy="4.0743" r="1.2" fill="none" stroke="blue" stroke-width="0.5"/>
    <circle cx="12.3299" cy="4.3291" r="1.2" fill="none" stroke="blue" stroke-width="0.5"/>
    <circle cx="12.5256" cy="4.5908" r="1.2" fill="none" stroke="blue" stroke-width="0.5"/>
    <circle cx="12.7111" cy="4.8593" r="1.2" fill="none" stroke="blue" stroke-width="0.5"/>
    <circle cx="12.8864" cy="5.1345" r="1.2" fill="none" stroke="blue" stroke-width="0.5"/>
    <circle cx="13.0517" cy="5.4165" r="1.2" fill="none" stroke="blue" stroke-width="0.5"/>
    <circle cx="13.2071" cy="5.7051" r="1.2" fill="none" stroke="blue" stroke-width="0.5"/>
    <circle cx="13.3526" cy="6.0002" r="1.2" fill="none" stroke="blue" stroke-width="0.5"/>
    <circle cx="13.4885" cy="6.3018" r="1.2" fill="none" stroke="blue" stroke-width="0.5"/>
    <circle cx="13.6147" cy="6.6098" r="1.2" fill="none" stroke="blue" stroke-width="0.5"/>
    <circle cx="13.7314" cy="6.9242" r="1.2" fill="none" stroke="blue" stroke-width="0.5"/>
    <circle cx="13.8387" cy="7.2448" r="1.2" fill="none" stroke="blue" stroke-width="0.5"/>
    <circle cx="13.9368" cy="7.5716" r="1.2" fill="none" stroke="blue" stroke-width="0.5"/>
    <circle cx="14.0256" cy="7.9045" r="1.2" fill="none" stroke="blue" stroke-width="0.5"/>
    <circle cx="14.1054" cy="8.2434" r="1.2" fill="none" stroke="blue" stroke-width="0.5"/>
    <circle cx="14.1763" cy="8.5884" r="1.2" fill="none" stroke="blue" stroke-width="0.5"/>
    <circle cx="14.2383" cy="8.9392" r="1.2" fill="none" stroke="blue" stroke-width="0.5"/>
    <circle cx="14.2916" cy="9.2958" r="1.2" fill="none" stroke="blue" stroke-width="0.5"/>
    <circle cx="14.3362" cy="9.6582" r="1.2" fill="none" stroke="blue" stroke-width="0.5"/>
    <circle cx="14.3723" cy="10.0263" r="1.2" fill="none" stroke="blue" stroke-width="0.5"/>
    <circle cx="14.4000" cy="10.4000" r="1.2" fill="none" stroke="blue" stroke-width="0.5"/>
    <circle cx="14.4194" cy="10.7792" r="1.2" fill="none" stroke="blue" stroke-width="0.5"/>
    <circle cx="14.4306" cy="11.1639" r="1.2" fill="none" stroke="blue" stroke-width="0.5"/>
    <circle cx="14.4337" cy="11.5540" r="1.2" fill="none" stroke="blue" stroke-width="0.5"/>
    <circle cx="14.4288" cy="11.9494" r="1.2" fill="none" stroke="blue" stroke-width="0.5"/>
    <circle cx="14.4161" cy="12.3500" r="1.2" fill="none" stroke="blue" stroke-width="0.5"/>
    <circle cx="14.3956" cy="12.7559" r="1.2" fill="none" stroke="blue" stroke-width="0.5"/>
    <circle cx="14.3675" cy="13.1668" r="1.2" fill="none" stroke="blue" stroke-width="0.5"/>
    <circle cx="14.3318" cy="13.5828" r="1.2" fill="none" stroke="blue" stroke-width="0.5"/>
    <circle cx="14.2886" cy="14.0037" r="1.2" fill="none" stroke="blue" stroke-width="0.5"/>
    <circle cx="14.2382" cy="14.4295" r="1.2" fill="none" stroke="blue" stroke-width="0.5"/>
    <circle cx="14.1805" cy="14.8601" r="1.2" fill="none" stroke="blue" stroke-width="0.5"/>
    <circle cx="14.1157" cy="15.2954" r="1.2" fill="none" stroke="blue" stroke-width="0.5"/>
    <circle cx="14.0439" cy="15.7354" r="1.2" fill="none" stroke="blue" stroke-width="0.5"/>
    <circle cx="13.9652" cy="16.1801" r="1.2" fill="none" stroke="blue" stroke-width="0.5"/>
    <circle cx="13.8797" cy="16.6292" r="1.2" fill="none" stroke="blue" stroke-width="0.5"/>
    <circle cx="13.7876" cy="17.0828" r="1.2" fill="none" stroke="blue" stroke-width="0.5"/>
    <circle cx="13.6889" cy="17.5407" r="1.2" fill="none" stroke="blue" stroke-width="0.5"/>
    <circle cx="13.5837" cy="18.0030" r="1.2" fill="none" stroke="blue" stroke-width="0.5"/>
    <circle cx="13.4722" cy="18.4695" r="1.2" fill="none" stroke="blue" stroke-width="0.5"/>
    <circle cx="13.3544" cy="18.9402" r="1.2" fill="none" stroke="blue" stroke-width="0.5"/>
    <circle cx="13.2305" cy="19.4149" r="1.2" fill="none" stroke="blue" stroke-width="0.5"/>
    <circle cx="13.1006" cy="19.8937" r="1.2" fill="none" stroke="blue" stroke-width="0.5"/>
    <circle cx="12.9648" cy="20.3764" r="1.2" fill="none" stroke="blue" stroke-width="0.5"/>
    <circle cx="12.8231" cy="20.8630" r="1.2" fill="none" stroke="blue" stroke-width="0.5"/>
    <circle cx="12.6758" cy="21.3534" r="1.2" fill="none" stroke="blue" stroke-width="0.5"/>
    <circle cx="12.5228" cy="21.8475" r="1.2" fill="none" stroke="blue" stroke-width="0.5"/>
    <circle cx="12.3644" cy="22.3453" r="1.2" fill="none" stroke="blue" stroke-width="0.5"/>
    <circle cx="12.2006" cy="22.8466" r="1.2" fill="none" stroke="blue" stroke-width="0.5"/>
    <circle cx="12.0316" cy="23.3515" r="1.2" fill="none" stroke="blue" stroke-width="0.5"/>
    <circle cx="11.8574" cy="23.8598" r="1.2" fill="none" stroke="blue" stroke-width="0.5"/>
    <circle cx="11.6781" cy="24.3715" r="1.2" fill="none" stroke="blue" stroke-width="0.5"/>
    <circle cx="11.4939" cy="24.8864" r="1.2" fill="none" stroke="blue" stroke-width="0.5"/>
    <circle cx="11.3049" cy="25.4046" r="1.2" fill="none" stroke="blue" stroke-width="0.5"/>
    <circle cx="11.1111" cy="25.9259" r="1.2" fill="none" stroke="blue" stroke-width="0.5"/>
    <circle cx="10.9127" cy="26.4503" r="1.2" fill="none" stroke="blue" stroke-width="0.5"/>
    <circle cx="10.7099" cy="26.9777" r="1.2" fill="none" stroke="blue" stroke-width="0.5"/>
    <circle cx="10.5026" cy="27.5081" r="1.2" fill="none" stroke="blue" stroke-width="0.5"/>
    <circle cx="10.2910" cy="28.0413" r="1.2" fill="none" stroke="blue" stroke-width="0.5"/>
    <circle cx="10.0753" cy="28.5772" r="1.2" fill="none" stroke="blue" stroke-width="0.5"/>
    <circle cx="9.8555" cy="29.1159" r="1.2" fill="none" stroke="blue" stroke-width="0.5"/>
    <circle cx="9.6317" cy="29.6573" r="1.2" fill="none" stroke="blue" stroke-width="0.5"/>
    <circle cx="9.4041" cy="30.2012" r="1.2" fill="none" stroke="blue" stroke-width="0.5"/>
    <circle cx="9.1727" cy="30.7476" r="1.2" fill="none" stroke="blue" stroke-width="0.5"/>
    <circle cx="8.9377" cy="31.2964" r="1.2" fill="none" stroke="blue" stroke-width="0.5"/>
    <circle cx="8.6992" cy="31.8476" r="1.2" fill="none" stroke="blue" stroke-width="0.5"/>
    <circle cx="8.4573" cy="32.4010" r="1.2" fill="none" stroke="blue" stroke-width="0.5"/>
    <circle cx="8.2120" cy="32.9567" r="1.2" fill="none" stroke="blue" stroke-width="0.5"/>
    <circle cx="7.9635" cy="33.5145" r="1.2" fill="none" stroke="blue" stroke-width="0.5"/>
    <circle cx="7.7120" cy="34.0744" r="1.2" fill="none" stroke="blue" stroke-width="0.5"/>
    <circle cx="7.4574" cy="34.6362" r="1.2" fill="none" stroke="blue" stroke-width="0.5"/>
    <circle cx="7.2000" cy="35.2000" r="1.2" fill="none" stroke="blue" stroke-width="0.5"/>
    <circle cx="6.9398" cy="35.7656" r="1.2" fill="none" stroke="blue" stroke-width="0.5"/>
    <circle cx="6.6770" cy="36.3330" r="1.2" fill="none" stroke="blue" stroke-width="0.5"/>
    <circle cx="6.4116" cy="36.9021" r="1.2" fill="none" stroke="blue" stroke-width="0.5"/>
    <circle cx="6.1437" cy="37.4728" r="1.2" fill="none" stroke="blue" stroke-width="0.5"/>
    <circle cx="5.8735" cy="38.0451" r="1.2" fill="none" stroke="blue" stroke-width="0.5"/>
    <circle cx="5.6011" cy="38.6188" r="1.2" fill="none" stroke="blue" stroke-width="0.5"/>
    <circle cx="5.3266" cy="39.1940" r="1.2" fill="none" stroke="blue" stroke-width="0.5"/>
    <circle cx="5.0501" cy="39.7705" r="1.2" fill="none" stroke="blue" stroke-width="0.5"/>
    <circle cx="4.7717" cy="40.3483" r="1.2" fill="none" stroke="blue" stroke-width="0.5"/>
    <circle cx="4.4914" cy="40.9273" r="1.2" fill="none" stroke="blue" stroke-width="0.5"/>
    <circle cx="4.2095" cy="41.5074" r="1.2" fill="none" stroke="blue" stroke-width="0.5"/>
    <circle cx="3.9261" cy="42.0885" r="1.2" fill="none" stroke="blue" stroke-width="0.5"/>
    <circle cx="3.6411" cy="42.6706" r="1.2" fill="none" stroke="blue" stroke-width="0.5"/>
    <circle cx="3.3548" cy="43.2536" r="1.2" fill="none" stroke="blue" stroke-width="0.5"/>
    <circle cx="3.0673" cy="43.8375" r="1.2" fill="none" stroke="blue" stroke-width="0.5"/>
    <circle cx="2.7786" cy="44.4221" r="1.2" fill="none" stroke="blue" stroke-width="0.5"/>
    <circle cx="2.4889" cy="45.0074" r="1.2" fill="none" stroke="blue" stroke-width="0.5"/>
    <circle cx="2.1982" cy="45.5933" r="1.2" fill="none" stroke="blue" stroke-width="0.5"/>
    <circle cx="1.9068" cy="46.1798" r="1.2" fill="none" stroke="blue" stroke-width="0.5"/>
    <circle cx="1.6146" cy="46.7667" r="1.2" fill="none" stroke="blue" stroke-width="0.5"/>
    <circle cx="1.3219" cy="47.3540" r="1.2" fill="none" stroke="blue" stroke-width="0.5"/>
    <circle cx="1.0286" cy="47.9417" r="1.2" fill="none" stroke="blue" stroke-width="0.5"/>
    <circle cx="0.7350" cy="48.5296" r="1.2" fill="none" stroke="blue" stroke-width="0.5"/>
    <circle cx="0.4411" cy="49.1177" r="1.2" fill="none" stroke="blue" stroke-width="0.5"/>
    <circle cx="0.1471" cy="49.7059" r="1.2" fill="none" stroke="blue" stroke-width="0.5"/>
    <circle cx="-0.1471" cy="50.2941" r="1.2" fill="none" stroke="blue" stroke-width="0.5"/>
    <circle cx="-0.4411" cy="50.8823" r="1.2" fill="none" stroke="blue" stroke-width="0.5"/>
    <circle cx="-0.7350" cy="51.4704" r="1.2" fill="none" stroke="blue" stroke-width="0.5"/>
    <circle cx="-1.0286" cy="52.0583" r="1.2" fill="none" stroke="blue" stroke-width="0.5"/>
    <circle cx="-1.3219" cy="52.6460" r="1.2" fill="none" stroke="blue" stroke-width="0.5"/>
    <circle cx="-1.6146" cy="53.2333" r="1.2" fill="none" stroke="blue" stroke-width="0.5"/>
    <circle cx="-1.9068" cy="53.8202" r="1.2" fill="none" stroke="blue" stroke-width="0.5"/>
    <circle cx="-2.1982" cy="54.4067" r="1.2" fill="none" stroke="blue" stroke-width="0.5"/>
    <circle cx="-2.4889" cy="54.9926" r="1.2" fill="none" stroke="blue" stroke-width="0.5"/>
    <circle cx="-2.7786" cy="55.5779" r="1.2" fill="none" stroke="blue" stroke-width="0.5"/>
    <circle cx="-3.0673" cy="56.1625" r="1.2" fill="none" stroke="blue" stroke-width="0.5"/>
    <circle cx="-3.3548" cy="56.7464" r="1.2" fill="none" stroke="blue" stroke-width="0.5"/>
    <circle cx="-3.6411" cy="57.3294" r="1.2" fill="none" stroke="blue" stroke-width="0.5"/>
    <circle cx="-3.9261" cy="57.9115" r="1.2" fill="none" stroke="blue" stroke-width="0.5"/>
    <circle cx="-4.2095" cy="58.4926" r="1.2" fill="none" stroke="blue" stroke-width="0.5"/>
    <circle cx="-4.4914" cy="59.0727" r="1.2" fill="none" stroke="blue" stroke-width="0.5"/>
    <circle cx="-4.7717" cy="59.6517" r="1.2" fill="none" stroke="blue" stroke-width="0.5"/>
    <circle cx="-5.0501" cy="60.2295" r="1.2" fill="none" stroke="blue" stroke-width="0.5"/>
    <circle cx="-5.3266" cy="60.8060" r="1.2" fill="none" stroke="blue" stroke-width="0.5"/>
    <circle cx="-5.6011" cy="61.3812" r="1.2" fill="none" stroke="blue" stroke-width="0.5"/>
    <circle cx="-5.8735" cy="61.9549" r="1.2" fill="none" stroke="blue" stroke-width="0.5"/>
    <circle cx="-6.1437" cy="62.5272" r="1.2" fill="none" stroke="blue" stroke-width="0.5"/>
    <circle cx="-6.4116" cy="63.0979" r="1.2" fill="none" stroke="blue" stroke-width="0.5"/>
    <circle cx="-6.6770" cy="63.6670" r="1.2" fill="none" stroke="blue" stroke-width="0.5"/>
    <circle cx="-6.9398" cy="64.2344" r="1.2" fill="none" stroke="blue" stroke-width="0.5"/>
    <circle cx="-7.2000" cy="64.8000" r="1.2" fill="none" stroke="blue" stroke-width="0.5"/>
    <circle cx="-7.4574" cy="65.3638" r="1.2" fill="none" stroke="blue" stroke-width="0.5"/>
    <circle cx="-7.7120" cy="65.9256" r="1.2" fill="none" stroke="blue" stroke-width="0.5"/>
    <circle cx="-7.9635" cy="66.4855" r="1.2" fill="none" stroke="blue" stroke-width="0.5"/>
    <circle cx="-8.2120" cy="67.0433" r="1.2" fill="none" stroke="blue" stroke-width="0.5"/>
    <circle cx="-8.4573" cy="67.5990" r="1.2" fill="none" stroke="blue" stroke-width="0.5"/>
    <circle cx="-8.6992" cy="68.1524" r="1.2" fill="none" stroke="blue" stroke-width="0.5"/>
    <circle cx="-8.9377" cy="68.7036" r="1.2" fill="none" stroke="blue" stroke-width="0.5"/>
    <circle cx="-9.1727" cy="69.2524" r="1.2" fill="none" stroke="blue" stroke-width="0.5"/>
    <circle cx="-9.4041" cy="69.7988" r="1.2" fill="none" stroke="blue" stroke-width="0.5"/>
    <circle cx="-9.6317" cy="70.3427" r="1.2" fill="none" stroke="blue" stroke-width="0.5"/>
    <circle cx="-9.8555" cy="70.8841" r="1.2" fill="none" stroke="blue" stroke-width="0.5"/>
    <circle cx="-10.0753" cy="71.4228" r="1.2" fill="none" stroke="blue" stroke-width="0.5"/>
    <circle cx="-10.2910" cy="71.9587" r="1.2" fill="none" stroke="blue" stroke-width="0.5"/>
    <circle cx="-10.5026" cy="72.4919" r="1.2" fill="none" stroke="blue" stroke-width="0.5"/>
    <circle cx="-10.7099" cy="73.0223" r="1.2" fill="none" stroke="blue" stroke-width="0.5"/>
    <circle cx="-10.9127" cy="73.5497" r="1.2" fill="none" stroke="blue" stroke-width="0.5"/>
    <circle cx="-11.1111" cy="74.0741" r="1.2" fill="none" stroke="blue" stroke-width="0.5"/>
    <circle cx="-11.3049" cy="74.5954" r="1.2" fill="none" stroke="blue" stroke-width="0.5"/>
    <circle cx="-11.4939" cy="75.1136" r="1.2" fill="none" stroke="blue" stroke-width="0.5"/>
    <circle cx="-11.6781" cy="75.6285" r="1.2" fill="none" stroke="blue" stroke-width="0.5"/>
    <circle cx="-11.8574" cy="76.1402" r="1.2" fill="none" stroke="blue" stroke-width="0.5"/>
    <circle cx="-12.0316" cy="76.6485" r="1.2" fill="none" stroke="blue" stroke-width="0.5"/>
    <circle cx="-12.2006" cy="77.1534" r="1.2" fill="none" stroke="blue" stroke-width="0.5"/>
    <circle cx="-12.3644" cy="77.6547" r="1.2" fill="none" stroke="blue" stroke-width="0.5"/>
    <circle cx="-12.5228" cy="78.1525" r="1.2" fill="none" stroke="blue" stroke-width="0.5"/>
    <circle cx="-12.6758" cy="78.6466" r="1.2" fill="none" stroke="blue" stroke-width="0.5"/>
    <circle cx="-12.8231" cy="79.1370" r="1.2" fill="none" stroke="blue" stroke-width="0.5"/>
    <circle cx="-12.9648" cy="79.6236" r="1.2" fill="none" stroke="blue" stroke-width="0.5"/>
    <circle cx="-13.1006" cy="80.1063" r="1.2" fill="none" stroke="blue" stroke-width="0.5"/>
    <circle cx="-13.2305" cy="80.5851" r="1.2" fill="none" stroke="blue" stroke-width="0.5"/>
    <circle cx="-13.3544" cy="81.0598" r="1.2" fill="none" stroke="blue" stroke-width="0.5"/>
    <circle cx="-13.4722" cy="81.5305" r="1.2" fill="none" stroke="blue" stroke-width="0.5"/>
    <circle cx="-13.5837" cy="81.9970" r="1.2" fill="none" stroke="blue" stroke-width="0.5"/>
    <circle cx="-13.6889" cy="82.4593" r="1.2" fill="none" stroke="blue" stroke-width="0.5"/>
    <circle cx="-13.7876" cy="82.9172" r="1.2" fill="none" stroke="blue" stroke-width="0.5"/>
    <circle cx="-13.8797" cy="83.3708" r="1.2" fill="none" stroke="blue" stroke-width="0.5"/>
    <circle cx="-13.9652" cy="83.8199" r="1.2" fill="none" stroke="blue" stroke-width="0.5"/>
    <circle cx="-14.0439" cy="84.2646" r="1.2" fill="none" stroke="blue" stroke-width="0.5"/>
    <circle cx="-14.1157" cy="84.7046" r="1.2" fill="none" stroke="blue" stroke-width="0.5"/>
    <circle cx="-14.1805" cy="85.1399" r="1.2" fill="none" stroke="blue" stroke-width="0.5"/>
    <circle cx="-14.2382" cy="85.5705" r="1.2" fill="none" stroke="blue" stroke-width="0.5"/>
    <circle cx="-14.2886" cy="85.9963" r="1.2" fill="none" stroke="blue" stroke-width="0.5"/>
    <circle cx="-14.3318" cy="86.4172" r="1.2" fill="none" stroke="blue" stroke-width="0.5"/>
    <circle cx="-14.3675" cy="86.8332" r="1.2" fill="none" stroke="blue" stroke-width="0.5"/>
    <circle cx="-14.3956" cy="87.2441" r="1.2" fill="none" stroke="blue" stroke-width="0.5"/>
    <circle cx="-14.4161" cy="87.6500" r="1.2" fill="none" stroke="blue" stroke-width="0.5"/>
    <circle cx="-14.4288" cy="88.0506" r="1.2" fill="none" stroke="blue" stroke-width="0.5"/>
    <circle cx="-14.4337" cy="88.4460" r="1.2" fill="none" stroke="blue" stroke-width="0.5"/>
    <circle cx="-14.4306" cy="88.8361" r="1.2" fill="none" stroke="blue" stroke-width="0.5"/>
    <circle cx="-14.4194" cy="89.2208" r="1.2" fill="none" stroke="blue" stroke-width="0.5"/>
    <circle cx="-14.4000" cy="89.6000" r="1.2" fill="none" stroke="blue" stroke-width="0.5"/>
    <circle cx="-14.3723" cy="89.9737" r="1.2" fill="none" stroke="blue" stroke-width="0.5"/>
    <circle cx="-14.3362" cy="90.3418" r="1.2" fill="none" stroke="blue" stroke-width="0.5"/>
    <circle cx="-14.2916" cy="90.7042" r="1.2" fill="none" stroke="blue" stroke-width="0.5"/>
    <circle cx="-14.2383" cy="91.0608" r="1.2" fill="none" stroke="blue" stroke-width="0.5"/>
    <circle cx="-14.1763" cy="91.4116" r="1.2" fill="none" stroke="blue" stroke-width="0.5"/>
    <circle cx="-14.1054" cy="91.7566" r="1.2" fill="none" stroke="blue" stroke-width="0.5"/>
    <circle cx="-14.0256" cy="92.0955" r="1.2" fill="none" stroke="blue" stroke-width="0.5"/>
    <circle cx="-13.9368" cy="92.4284" r="1.2" fill="none" stroke="blue" stroke-width="0.5"/>
    <circle cx="-13.8387" cy="92.7552" r="1.2" fill="none" stroke="blue" stroke-width="0.5"/>
    <circle cx="-13.7314" cy="93.0758" r="1.2" fill="none" stroke="blue" stroke-width="0.5"/>
    <circle cx="-13.6147" cy="93.3902" r="1.2" fill="none" stroke="blue" stroke-width="0.5"/>
    <circle cx="-13.4885" cy="93.6982" r="1.2" fill="none" stroke="blue" stroke-width="0.5"/>
    <circle cx="-13.3526" cy="93.9998" r="1.2" fill="none" stroke="blue" stroke-width="0.5"/>
    <circle cx="-13.2071" cy="94.2949" r="1.2" fill="none" stroke="blue" stroke-width="0.5"/>
    <circle cx="-13.0517" cy="94.5835" r="1.2" fill="none" stroke="blue" stroke-width="0.5"/>
    <circle cx="-12.8864" cy="94.8655" r="1.2" fill="none" stroke="blue" stroke-width="0.5"/>
    <circle cx="-12.7111" cy="95.1407" r="1.2" fill="none" stroke="blue" stroke-width="0.5"/>
    <circle cx="-12.5256" cy="95.4092" r="1.2" fill="none" stroke="blue" stroke-width="0.5"/>
    <circle cx="-12.3299" cy="95.6709" r="1.2" fill="none" stroke="blue" stroke-width="0.5"/>
    <circle cx="-12.1238" cy="95.9257" r="1.2" fill="none" stroke="blue" stroke-width="0.5"/>
    <circle cx="-11.9072" cy="96.1734" r="1.2" fill="none" stroke="blue" stroke-width="0.5"/>
    <circle cx="-11.6800" cy="96.4141" r="1.2" fill="none" stroke="blue" stroke-width="0.5"/>
    <circle cx="-11.4422" cy="96.6477" r="1.2" fill="none" stroke="blue" stroke-width="0.5"/>
    <circle cx="-11.1935" cy="96.8741" r="1.2" fill="none" stroke="blue" stroke-width="0.5"/>
    <circle cx="-10.9339" cy="97.0932" r="1.2" fill="none" stroke="blue" stroke-width="0.5"/>
    <circle cx="-10.6633" cy="97.3050" r="1.2" fill="none" stroke="blue" stroke-width="0.5"/>
    <circle cx="-10.3816" cy="97.5093" r="1.2" fill="none" stroke="blue" stroke-width="0.5"/>
    <circle cx="-10.0886" cy="97.7062" r="1.2" fill="none" stroke="blue" stroke-width="0.5"/>
    <circle cx="-9.7843" cy="97.8954" r="1.2" fill="none" stroke="blue" stroke-width="0.5"/>
    <circle cx="-9.4686" cy="98.0771" r="1.2" fill="none" stroke="blue" stroke-width="0.5"/>
    <circle cx="-9.1413" cy="98.2510" r="1.2" fill="none" stroke="blue" stroke-width="0.5"/>
    <circle cx="-8.8023" cy="98.4172" r="1.2" fill="none" stroke="blue" stroke-width="0.5"/>
    <circle cx="-8.4515" cy="98.5755" r="1.2" fill="none" stroke="blue" stroke-width="0.5"/>
    <circle cx="-8.0889" cy="98.7259" r="1.2" fill="none" stroke="blue" stroke-width="0.5"/>
    <circle cx="-7.7142" cy="98.8683" r="1.2" fill="none" stroke="blue" stroke-width="0.5"/>
    <circle cx="-7.3275" cy="99.0026" r="1.2" fill="none" stroke="blue" stroke-width="0.5"/>
    <circle cx="-6.9285" cy="99.1288" r="1.2" fill="none" stroke="blue" stroke-width="0.5"/>
    <circle cx="-6.5173" cy="99.2468" r="1.2" fill="none" stroke="blue" stroke-width="0.5"/>
    <circle cx="-6.0935" cy="99.3565" r="1.2" fill="none" stroke="blue" stroke-width="0.5"/>
    <circle cx="-5.6573" cy="99.4578" r="1.2" fill="none" stroke="blue" stroke-width="0.5"/>
    <circle cx="-5.2084" cy="99.5507" r="1.2" fill="none" stroke="blue" stroke-width="0.5"/>
    <circle cx="-4.7468" cy="99.6351" r="1.2" fill="none" stroke="blue" stroke-width="0.5"/>
    <circle cx="-4.2722" cy="99.7109" r="1.2" fill="none" stroke="blue" stroke-width="0.5"/>
    <circle cx="-3.7848" cy="99.7781" r="1.2" fill="none" stroke="blue" stroke-width="0.5"/>
    <circle cx="-3.2842" cy="99.8365" r="1.2" fill="none" stroke="blue" stroke-width="0.5"/>
    <circle cx="-2.7704" cy="99.8862" r="1.2" fill="none" stroke="blue" stroke-width="0.5"/>
    <circle cx="-2.2434" cy="99.9270" r="1.2" fill="none" stroke="blue" stroke-width="0.5"/>
    <circle cx="-1.7029" cy="99.9588" r="1.2" fill="none" stroke="blue" stroke-width="0.5"/>
    <circle cx="-1.1489" cy="99.9816" r="1.2" fill="none" stroke="blue" stroke-width="0.5"/>
    <circle cx="-0.5813" cy="99.9954" r="1.2" fill="none" stroke="blue" stroke-width="0.5"/>
    <circle cx="0.0000" cy="100.0000" r="1.2" fill="none" stroke="blue" stroke-width="0.5"/>
  </g>
</svg>