<svg xmlns="http://www.w3.org/2000/svg" viewBox="-34.9467 -20.2769 69.5337 140.4987">
  <path d="M -24.9467 89.0068 L -24.6708 92.9204 L -23.5996 97.0914 L -14.1129 107.6460 L -18.9252 104.1839 L -15.9899 106.4584 L -13.0656 107.9937 L -10.2530 108.9973 L 2.4131 110.2218 L -5.0000 110.0000 L -5.0000 90.0000 L -6.3852 89.6648 L -7.5812 89.1766 L -8.4993 88.5220 L 0.3595 91.2040 L -8.9778 86.8331 L -8.3412 86.0431 L -7.2995 85.5024 L -2.3564 94.3582 L -5.4115 84.7202 L -4.0462 94.0335 L -4.2565 83.1447 L -3.7547 82.0182 L -3.2366 80.7347 L -4.9760 89.0726 L -4.7791 87.4939 L -1.4625 76.3247 L -0.7946 74.7446 L -0.0932 73.1322 L 0.6386 71.4940 L 1.3965 69.8369 L -1.7693 77.3514 L 2.9799 66.4771 L 3.7994 64.7798 L 4.6341 63.0727 L 1.1902 70.3887 L 6.3408 59.6321 L 7.2086 57.8996 L 3.6617 65.1281 L 8.9646 54.4103 L 9.8493 52.6530 L 10.7364 50.8867 L 11.6243 49.1108 L 12.5114 47.3244 L 13.3960 45.5265 L 14.2765 43.7161 L 15.1511 41.8918 L 11.6724 49.0585 L 16.8742 38.1948 L 13.4914 45.3810 L 18.5470 34.4196 L 19.3571 32.4960 L 20.1452 30.5432 L 20.9064 28.5571 L 21.6349 26.5328 L 22.3240 24.4618 L 22.9640 22.3374 L 23.5431 20.1474 L 24.0443 17.8775 L 24.4440 15.5099 L 22.9113 22.8577 L 23.6188 20.3091 L 24.5870 7.5455 L 23.9919 4.4929 L 22.8034 1.2255 L 20.7830 -2.1337 L 17.8051 -5.2415 L 14.1129 -7.6460 L 10.2498 -9.1576 L 15.9899 -6.4584 L 3.3298 -10.2769 L 10.2530 -8.9973 L -2.4131 -10.2218 L -5.0000 -10.0000 L -5.0000 10.0000 L 6.3852 10.3352 L -2.3291 9.4876 L 8.4993 11.4780 L -0.3595 8.7960 L 0.3024 8.1932 L 8.3412 13.9569 L 7.2995 14.4976 L 2.3564 5.6418 L 3.2682 5.5121 L 4.0462 5.9665 L 4.5987 6.8611 L 4.9184 8.0497 L 5.0328 9.4279 L 4.9760 10.9274 L 4.7791 12.5061 L 4.4674 14.1375 L 0.7946 25.2554 L 0.0932 26.8678 L 3.0268 19.2020 L 2.4216 20.9207 L 1.7693 22.6486 L -2.9799 33.5229 L 0.3496 26.1215 L -0.4073 27.8646 L -1.1902 29.6113 L -1.9955 31.3613 L -7.2086 42.1004 L -3.6617 34.8719 L -8.9646 45.5897 L -5.3862 38.3982 L -10.7364 49.1133 L -11.6243 50.8892 L -8.0483 43.7268 L -8.9492 45.5166 L -9.8544 47.3148 L -10.7626 49.1226 L -11.6724 50.9415 L -12.5824 52.7730 L -17.7182 63.6818 L -14.3979 56.4818 L -19.3571 67.5040 L -16.1979 60.2688 L -17.0882 62.2005 L -21.6349 73.4672 L -18.8402 66.1646 L -19.6973 68.2112 L -23.5431 79.8526 L -21.3586 72.4899 L -22.1527 74.7561 L -22.9113 77.1423 L -24.7825 89.6229 L -24.2448 82.4603 L -23.9919 95.5071 L -24.9467 89.0068 Z" fill="none" stroke="black" stroke-width="1" />

</svg>