<svg xmlns="http://www.w3.org/2000/svg" viewBox="-34.9468 -20.3374 69.7327 140.6748">
  <path d="M -24.9468 89.0244 L -24.8248 86.4702 L -24.5210 84.0211 L -24.0804 81.6580 L -23.5328 79.3568 L -24.7040 86.9308 L -22.1859 74.8554 L -21.4069 72.6226 L -20.5661 70.3868 L -19.6686 68.1412 L -18.7188 65.8812 L -17.7212 63.6045 L -20.5607 70.5269 L -15.6017 58.9992 L -14.4899 56.6721 L -13.3504 54.3313 L -16.5053 61.0000 L -11.0116 49.6195 L -9.8244 47.2551 L -13.0871 53.8435 L -7.4460 42.5282 L -5.9759 39.5874 L -4.8201 37.2495 L -3.6898 34.9301 L -2.5925 32.6343 L -5.8520 39.3880 L -0.5273 28.1355 L 0.4250 25.9446 L 1.3128 23.8013 L 2.1276 21.7128 L -0.8504 28.9729 L 3.5034 17.7330 L 4.0461 15.8608 L 4.4795 14.0819 L 4.7943 12.4100 L 2.7091 20.5998 L 5.0332 9.4555 L 4.9436 8.2157 L 4.1158 17.1520 L 4.3402 6.3490 L 3.8476 5.7867 L 5.4149 15.2772 L 2.4812 5.5875 L 1.8844 5.9564 L 7.5078 14.4161 L 8.2049 14.0537 L 0.5572 7.8275 L 9.0476 12.9289 L 8.9972 12.2382 L -1.1457 9.1637 L 7.7475 10.9156 L -3.4242 9.7104 L -5.0000 10.0000 L -5.0000 -10.0000 L 7.9109 -9.5643 L 0.7970 -10.3374 L 13.3328 -7.8766 L 15.8296 -6.5586 L 9.2350 -9.4310 L 12.0068 -8.5709 L 14.6794 -7.3491 L 17.1519 -5.7579 L 19.3202 -3.8413 L 21.1126 -1.6836 L 22.7960 1.2096 L 23.7266 3.5903 L 24.5210 15.9789 L 24.0804 18.3420 L 24.7859 10.7220 L 24.7040 13.0692 L 24.4583 15.4062 L 24.0713 17.7389 L 23.5613 20.0723 L 22.9433 22.4102 L 22.2300 24.7555 L 21.4325 27.1096 L 20.5607 29.4731 L 15.6017 41.0008 L 14.4899 43.3279 L 17.5881 36.6110 L 16.5053 39.0000 L 15.3893 41.3896 L 9.8244 52.7449 L 13.0871 46.1565 L 11.9154 48.5262 L 10.4453 51.4670 L 9.2735 53.7969 L 8.1129 56.1013 L 6.9702 58.3748 L 5.8520 60.6120 L 4.7650 62.8068 L 3.7154 64.9528 L -1.3128 76.1987 L 1.7525 69.0707 L -2.8609 80.3129 L 0.0078 72.9037 L -4.0461 84.1392 L -1.4843 76.3772 L -2.1299 77.9515 L -4.9815 89.1386 L -3.2264 80.7090 L -4.9436 91.7843 L -4.1158 82.8480 L -4.3402 93.6510 L -4.9458 84.2738 L -5.4149 84.7228 L -6.1167 85.0967 L -6.7833 85.3257 L -7.5078 85.5839 L -8.2049 85.9463 L -0.5572 92.1725 L -0.1411 91.6181 L -8.9972 87.7618 L 1.1457 90.8363 L -7.7475 89.0844 L -6.5527 89.6105 L -5.0000 90.0000 L -5.0000 110.0000 L 2.0660 110.2434 L -0.7970 110.3374 L -13.3328 107.8766 L -15.8296 106.5586 L -18.1415 104.8840 L -20.2060 102.8461 L -21.9456 100.4788 L -17.1519 105.7579 L -24.2190 95.1234 L -24.7482 92.3679 L -24.9468 89.0244 Z" fill="none" stroke="black" stroke-width="1" />

</svg>