<svg xmlns="http://www.w3.org/2000/svg" viewBox="-15.0000 -20.0000 85.0000 125.0000">
  <path d="M -5.0000 -10.0000 L -5.0000 10.0000 L -2.6190 10.0000 L -0.2381 10.0000 L 2.1429 10.0000 L 4.5238 10.0000 L 6.9048 10.0000 L 9.2857 10.0000 L 11.6667 10.0000 L 14.0476 10.0000 L 16.4286 10.0000 L 18.8095 10.0000 L 21.1905 10.0000 L 23.5714 10.0000 L 25.9524 10.0000 L 28.3333 10.0000 L 30.7143 10.0000 L 33.0952 10.0000 L 35.4762 10.0000 L 37.8571 10.0000 L 40.2381 10.0000 L 42.6190 10.0000 L 45.0000 10.0000 L 40.0000 -2.6190 L 40.0000 -0.2381 L 40.0000 2.1429 L 40.0000 4.5238 L 40.0000 6.9048 L 40.0000 9.2857 L 40.0000 11.6667 L 40.0000 14.0476 L 40.0000 16.4286 L 40.0000 18.8095 L 40.0000 21.1905 L 40.0000 23.5714 L 40.0000 25.9524 L 40.0000 28.3333 L 40.0000 30.7143 L 40.0000 33.0952 L 40.0000 35.4762 L 40.0000 37.8571 L 40.0000 40.2381 L 40.0000 42.6190 L 40.0000 45.0000 L 40.0000 47.3810 L 40.0000 49.7619 L 40.0000 52.1429 L 40.0000 54.5238 L 40.0000 56.9048 L 40.0000 59.2857 L 40.0000 61.6667 L 40.0000 64.0476 L 40.0000 66.4286 L 40.0000 68.8095 L 40.0000 71.1905 L 40.0000 73.5714 L 40.0000 75.9524 L 40.0000 78.3333 L 40.0000 80.7143 L 40.0000 83.0952 L 40.0000 85.4762 L 40.0000 87.8571 L 40.0000 90.2381 L 40.0000 92.6190 L 40.0000 95.0000 L 60.0000 95.0000 L 60.0000 92.6190 L 60.0000 90.2381 L 60.0000 87.8571 L 60.0000 85.4762 L 60.0000 83.0952 L 60.0000 80.7143 L 60.0000 78.3333 L 60.0000 75.9524 L 60.0000 73.5714 L 60.0000 71.1905 L 60.0000 68.8095 L 60.0000 66.4286 L 60.0000 64.0476 L 60.0000 61.6667 L 60.0000 59.2857 L 60.0000 56.9048 L 60.0000 54.5238 L 60.0000 52.1429 L 60.0000 49.7619 L 60.0000 47.3810 L 60.0000 45.0000 L 60.0000 42.6190 L 60.0000 40.2381 L 60.0000 37.8571 L 60.0000 35.4762 L 60.0000 33.0952 L 60.0000 30.7143 L 60.0000 28.3333 L 60.0000 25.9524 L 60.0000 23.5714 L 60.0000 21.1905 L 60.0000 18.8095 L 60.0000 16.4286 L 60.0000 14.0476 L 60.0000 11.6667 L 60.0000 9.2857 L 60.0000 6.9048 L 60.0000 4.5238 L 60.0000 2.1429 L 60.0000 -0.2381 L 60.0000 -2.6190 L 45.0000 -10.0000 L 42.6190 -10.0000 L 40.2381 -10.0000 L 37.8571 -10.0000 L 35.4762 -10.0000 L 33.0952 -10.0000 L 30.7143 -10.0000 L 28.3333 -10.0000 L 25.9524 -10.0000 L 23.5714 -10.0000 L 21.1905 -10.0000 L 18.8095 -10.0000 L 16.4286 -10.0000 L 14.0476 -10.0000 L 11.6667 -10.0000 L 9.2857 -10.0000 L 6.9048 -10.0000 L 4.5238 -10.0000 L 2.1429 -10.0000 L -0.2381 -10.0000 L -2.6190 -10.0000 L -5.0000 -10.0000 Z" fill="none" stroke="black" stroke-width="1" />
  <g id="debug">
    <path d="M 0.0000 0.0000 L 2.3810 0.0000 L 4.7619 0.0000 L 7.1429 0.0000 L 9.5238 0.0000 L 11.9048 0.0000 L 14.2857 0.0000 L 16.6667 0.0000 L 19.0476 0.0000 L 21.4286 0.0000 L 23.8095 0.0000 L 26.1905 0.0000 L 28.5714 0.0000 L 30.9524 0.0000 L 33.3333 0.0000 L 35.7143 0.0000 L 38.0952 0.0000 L 40.4762 0.0000 L 42.8571 0.0000 L 45.2381 0.0000 L 47.6190 0.0000 L 50.0000 0.0000 L 50.0000 2.3810 L 50.0000 4.7619 L 50.0000 7.1429 L 50.0000 9.5238 L 50.0000 11.9048 L 50.0000 14.2857 L 50.0000 16.6667 L 50.0000 19.0476 L 50.0000 21.4286 L 50.0000 23.8095 L 50.0000 26.1905 L 50.0000 28.5714 L 50.0000 30.9524 L 50.0000 33.3333 L 50.0000 35.7143 L 50.0000 38.0952 L 50.0000 40.4762 L 50.0000 42.8571 L 50.0000 45.2381 L 50.0000 47.6190 L 50.0000 50.0000 L 50.0000 52.3810 L 50.0000 54.7619 L 50.0000 57.1429 L 50.0000 59.5238 L 50.0000 61.9048 L 50.0000 64.2857 L 50.0000 66.6667 L 50.0000 69.0476 L 50.0000 71.4286 L 50.0000 73.8095 L 50.0000 76.1905 L 50.0000 78.5714 L 50.0000 80.9524 L 50.0000 83.3333 L 50.0000 85.7143 L 50.0000 88.0952 L 50.0000 90.4762 L 50.0000 92.8571 L 50.0000 95.2381 L 50.0000 97.6190 L 50.0000 100.0000" fill="none" stroke="orange" stroke-width="0.6" />
    <path d="M -5.0000 -10.0000 L -2.6190 -10.0000 L -0.2381 -10.0000 L 2.1429 -10.0000 L 4.5238 -10.0000 L 6.9048 -10.0000 L 9.2857 -10.0000 L 11.6667 -10.0000 L 14.0476 -10.0000 L 16.4286 -10.0000 L 18.8095 -10.0000 L 21.1905 -10.0000 L 23.5714 -10.0000 L 25.9524 -10.0000 L 28.3333 -10.0000 L 30.7143 -10.0000 L 33.0952 -10.0000 L 35.4762 -10.0000 L 37.8571 -10.0000 L 40.2381 -10.0000 L 42.6190 -10.0000 L 45.0000 -10.0000 L 60.0000 -2.6190 L 60.0000 -0.2381 L 60.0000 2.1429 L 60.0000 4.5238 L 60.0000 6.9048 L 60.0000 9.2857 L 60.0000 11.6667 L 60.0000 14.0476 L 60.0000 16.4286 L 60.0000 18.8095 L 60.0000 21.1905 L 60.0000 23.5714 L 60.0000 25.9524 L 60.0000 28.3333 L 60.0000 30.7143 L 60.0000 33.0952 L 60.0000 35.4762 L 60.0000 37.8571 L 60.0000 40.2381 L 60.0000 42.6190 L 60.0000 45.0000 L 60.0000 47.3810 L 60.0000 49.7619 L 60.0000 52.1429 L 60.0000 54.5238 L 60.0000 56.9048 L 60.0000 59.2857 L 60.0000 61.6667 L 60.0000 64.0476 L 60.0000 66.4286 L 60.0000 68.8095 L 60.0000 71.1905 L 60.0000 73.5714 L 60.0000 75.9524 L 60.0000 78.3333 L 60.0000 80.7143 L 60.0000 83.0952 L 60.0000 85.4762 L 60.0000 87.8571 L 60.0000 90.2381 L 60.0000 92.6190 L 60.0000 95.0000" fill="none" stroke="green" stroke-width="0.6" />
    <path d="M -5.0000 10.0000 L -2.6190 10.0000 L -0.2381 10.0000 L 2.1429 10.0000 L 4.5238 10.0000 L 6.9048 10.0000 L 9.2857 10.0000 L 11.6667 10.0000 L 14.0476 10.0000 L 16.4286 10.0000 L 18.8095 10.0000 L 21.1905 10.0000 L 23.5714 10.0000 L 25.9524 10.0000 L 28.3333 10.0000 L 30.7143 10.0000 L 33.0952 10.0000 L 35.4762 10.0000 L 37.8571 10.0000 L 40.2381 10.0000 L 42.6190 10.0000 L 45.0000 10.0000 L 40.0000 -2.6190 L 40.0000 -0.2381 L 40.0000 2.1429 L 40.0000 4.5238 L 40.0000 6.9048 L 40.0000 9.2857 L 40.0000 11.6667 L 40.0000 14.0476 L 40.0000 16.4286 L 40.0000 18.8095 L 40.0000 21.1905 L 40.0000 23.5714 L 40.0000 25.9524 L 40.0000 28.3333 L 40.0000 30.7143 L 40.0000 33.0952 L 40.0000 35.4762 L 40.0000 37.8571 L 40.0000 40.2381 L 40.0000 42.6190 L 40.0000 45.0000 L 40.0000 47.3810 L 40.0000 49.7619 L 40.0000 52.1429 L 40.0000 54.5238 L 40.0000 56.9048 L 40.0000 59.2857 L 40.0000 61.6667 L 40.0000 64.0476 L 40.0000 66.4286 L 40.0000 68.8095 L 40.0000 71.1905 L 40.0000 73.5714 L 40.0000 75.9524 L 40.0000 78.3333 L 40.0000 80.7143 L 40.0000 83.0952 L 40.0000 85.4762 L 40.0000 87.8571 L 40.0000 90.2381 L 40.0000 92.6190 L 40.0000 95.0000" fill="none" stroke="green" stroke-width="0.6" />
    <line x1="0.0000" y1="0.0000" x2="0.0000" y2="10.0000" stroke="purple" stroke-width="0.5"/>
    <line x1="2.3810" y1="0.0000" x2="2.3810" y2="10.0000" stroke="purple" stroke-width="0.5"/>
    <line x1="4.7619" y1="0.0000" x2="4.7619" y2="10.0000" stroke="purple" stroke-width="0.5"/>
    <line x1="7.1429" y1="0.0000" x2="7.1429" y2="10.0000" stroke="purple" stroke-width="0.5"/>
    <line x1="9.5238" y1="0.0000" x2="9.5238" y2="10.0000" stroke="purple" stroke-width="0.5"/>
    <line x1="11.9048" y1="0.0000" x2="11.9048" y2="10.0000" stroke="purple" stroke-width="0.5"/>
    <line x1="14.2857" y1="0.0000" x2="14.2857" y2="10.0000" stroke="purple" stroke-width="0.5"/>
    <line x1="16.6667" y1="0.0000" x2="16.6667" y2="10.0000" stroke="purple" stroke-width="0.5"/>
    <line x1="19.0476" y1="0.0000" x2="19.0476" y2="10.0000" stroke="purple" stroke-width="0.5"/>
    <line x1="21.4286" y1="0.0000" x2="21.4286" y2="10.0000" stroke="purple" stroke-width="0.5"/>
    <line x1="23.8095" y1="0.0000" x2="23.8095" y2="10.0000" stroke="purple" stroke-width="0.5"/>
    <line x1="26.1905" y1="0.0000" x2="26.1905" y2="10.0000" stroke="purple" stroke-width="0.5"/>
    <line x1="28.5714" y1="0.0000" x2="28.5714" y2="10.0000" stroke="purple" stroke-width="0.5"/>
    <line x1="30.9524" y1="0.0000" x2="30.9524" y2="10.0000" stroke="purple" stroke-width="0.5"/>
    <line x1="33.3333" y1="0.0000" x2="33.3333" y2="10.0000" stroke="purple" stroke-width="0.5"/>
    <line x1="35.7143" y1="0.0000" x2="35.7143" y2="10.0000" stroke="purple" stroke-width="0.5"/>
    <line x1="38.0952" y1="0.0000" x2="38.0952" y2="10.0000" stroke="purple" stroke-width="0.5"/>
    <line x1="40.4762" y1="0.0000" x2="40.4762" y2="10.0000" stroke="purple" stroke-width="0.5"/>
    <line x1="42.8571" y1="0.0000" x2="42.8571" y2="10.0000" stroke="purple" stroke-width="0.5"/>
    <line x1="45.2381" y1="0.0000" x2="45.2381" y2="10.0000" stroke="purple" stroke-width="0.5"/>
    <line x1="47.6190" y1="0.0000" x2="47.6190" y2="10.0000" stroke="purple" stroke-width="0.5"/>
    <line x1="50.0000" y1="0.0000" x2="50.0000" y2="10.0000" stroke="purple" stroke-width="0.5"/>
    <line x1="50.0000" y1="2.3810" x2="40.0000" y2="2.3810" stroke="purple" stroke-width="0.5"/>
    <line x1="50.0000" y1="4.7619" x2="40.0000" y2="4.7619" stroke="purple" stroke-width="0.5"/>
    <line x1="50.0000" y1="7.1429" x2="40.0000" y2="7.1429" stroke="purple" stroke-width="0.5"/>
    <line x1="50.0000" y1="9.5238" x2="40.0000" y2="9.5238" stroke="purple" stroke-width="0.5"/>
    <line x1="50.0000" y1="11.9048" x2="40.0000" y2="11.9048" stroke="purple" stroke-width="0.5"/>
    <line x1="50.0000" y1="14.2857" x2="40.0000" y2="14.2857" stroke="purple" stroke-width="0.5"/>
    <line x1="50.0000" y1="16.6667" x2="40.0000" y2="16.6667" stroke="purple" stroke-width="0.5"/>
    <line x1="50.0000" y1="19.0476" x2="40.0000" y2="19.0476" stroke="purple" stroke-width="0.5"/>
    <line x1="50.0000" y1="21.4286" x2="40.0000" y2="21.4286" stroke="purple" stroke-width="0.5"/>
    <line x1="50.0000" y1="23.8095" x2="40.0000" y2="23.8095" stroke="purple" stroke-width="0.5"/>
    <line x1="50.0000" y1="26.1905" x2="40.0000" y2="26.1905" stroke="purple" stroke-width="0.5"/>
    <line x1="50.0000" y1="28.5714" x2="40.0000" y2="28.5714" stroke="purple" stroke-width="0.5"/>
    <line x1="50.0000" y1="30.9524" x2="40.0000" y2="30.9524" stroke="purple" stroke-width="0.5"/>
    <line x1="50.0000" y1="33.3333" x2="40.0000" y2="33.3333" stroke="purple" stroke-width="0.5"/>
    <line x1="50.0000" y1="35.7143" x2="40.0000" y2="35.7143" stroke="purple" stroke-width="0.5"/>
    <line x1="50.0000" y1="38.0952" x2="40.0000" y2="38.0952" stroke="purple" stroke-width="0.5"/>
    <line x1="50.0000" y1="40.4762" x2="40.0000" y2="40.4762" stroke="purple" stroke-width="0.5"/>
    <line x1="50.0000" y1="42.8571" x2="40.0000" y2="42.8571" stroke="purple" stroke-width="0.5"/>
    <line x1="50.0000" y1="45.2381" x2="40.0000" y2="45.2381" stroke="purple" stroke-width="0.5"/>
    <line x1="50.0000" y1="47.6190" x2="40.0000" y2="47.6190" stroke="purple" stroke-width="0.5"/>
    <line x1="50.0000" y1="50.0000" x2="40.0000" y2="50.0000" stroke="purple" stroke-width="0.5"/>
    <line x1="50.0000" y1="52.3810" x2="40.0000" y2="52.3810" stroke="purple" stroke-width="0.5"/>
    <line x1="50.0000" y1="54.7619" x2="40.0000" y2="54.7619" stroke="purple" stroke-width="0.5"/>
    <line x1="50.0000" y1="57.1429" x2="40.0000" y2="57.1429" stroke="purple" stroke-width="0.5"/>
    <line x1="50.0000" y1="59.5238" x2="40.0000" y2="59.5238" stroke="purple" stroke-width="0.5"/>
    <line x1="50.0000" y1="61.9048" x2="40.0000" y2="61.9048" stroke="purple" stroke-width="0.5"/>
    <line x1="50.0000" y1="64.2857" x2="40.0000" y2="64.2857" stroke="purple" stroke-width="0.5"/>
    <line x1="50.0000" y1="66.6667" x2="40.0000" y2="66.6667" stroke="purple" stroke-width="0.5"/>
    <line x1="50.0000" y1="69.0476" x2="40.0000" y2="69.0476" stroke="purple" stroke-width="0.5"/>
    <line x1="50.0000" y1="71.4286" x2="40.0000" y2="71.4286" stroke="purple" stroke-width="0.5"/>
    <line x1="50.0000" y1="73.8095" x2="40.0000" y2="73.8095" stroke="purple" stroke-width="0.5"/>
    <line x1="50.0000" y1="76.1905" x2="40.0000" y2="76.1905" stroke="purple" stroke-width="0.5"/>
    <line x1="50.0000" y1="78.5714" x2="40.0000" y2="78.5714" stroke="purple" stroke-width="0.5"/>
    <line x1="50.0000" y1="80.9524" x2="40.0000" y2="80.9524" stroke="purple" stroke-width="0.5"/>
    <line x1="50.0000" y1="83.3333" x2="40.0000" y2="83.3333" stroke="purple" stroke-width="0.5"/>
    <line x1="50.0000" y1="85.7143" x2="40.0000" y2="85.7143" stroke="purple" stroke-width="0.5"/>
    <line x1="50.0000" y1="88.0952" x2="40.0000" y2="88.0952" stroke="purple" stroke-width="0.5"/>
    <line x1="50.0000" y1="90.4762" x2="40.0000" y2="90.4762" stroke="purple" stroke-width="0.5"/>
    <line x1="50.0000" y1="92.8571" x2="40.0000" y2="92.8571" stroke="purple" stroke-width="0.5"/>
    <line x1="50.0000" y1="95.2381" x2="40.0000" y2="95.2381" stroke="purple" stroke-width="0.5"/>
    <line x1="50.0000" y1="97.6190" x2="40.0000" y2="97.6190" stroke="purple" stroke-width="0.5"/>
    <line x1="50.0000" y1="100.0000" x2="40.0000" y2="100.0000" stroke="purple" stroke-width="0.5"/>
    <circle cx="0.0000" cy="0.0000" r="1.2" fill="none" stroke="blue" stroke-width="0.5"/>
    <circle cx="2.3810" cy="0.0000" r="1.2" fill="none" stroke="blue" stroke-width="0.5"/>
    <circle cx="4.7619" cy="0.0000" r="1.2" fill="none" stroke="blue" stroke-width="0.5"/>
    <circle cx="7.1429" cy="0.0000" r="1.2" fill="none" stroke="blue" stroke-width="0.5"/>
    <circle cx="9.5238" cy="0.0000" r="1.2" fill="none" stroke="blue" stroke-width="0.5"/>
    <circle cx="11.9048" cy="0.0000" r="1.2" fill="none" stroke="blue" stroke-width="0.5"/>
    <circle cx="14.2857" cy="0.0000" r="1.2" fill="none" stroke="blue" stroke-width="0.5"/>
    <circle cx="16.6667" cy="0.0000" r="1.2" fill="none" stroke="blue" stroke-width="0.5"/>
    <circle cx="19.0476" cy="0.0000" r="1.2" fill="none" stroke="blue" stroke-width="0.5"/>
    <circle cx="21.4286" cy="0.0000" r="1.2" fill="none" stroke="blue" stroke-width="0.5"/>
    <circle cx="23.8095" cy="0.0000" r="1.2" fill="none" stroke="blue" stroke-width="0.5"/>
    <circle cx="26.1905" cy="0.0000" r="1.2" fill="none" stroke="blue" stroke-width="0.5"/>
    <circle cx="28.5714" cy="0.0000" r="1.2" fill="none" stroke="blue" stroke-width="0.5"/>
    <circle cx="30.9524" cy="0.0000" r="1.2" fill="none" stroke="blue" stroke-width="0.5"/>
    <circle cx="33.3333" cy="0.0000" r="1.2" fill="none" stroke="blue" stroke-width="0.5"/>
    <circle cx="35.7143" cy="0.0000" r="1.2" fill="none" stroke="blue" stroke-width="0.5"/>
    <circle cx="38.0952" cy="0.0000" r="1.2" fill="none" stroke="blue" stroke-width="0.5"/>
    <circle cx="40.4762" cy="0.0000" r="1.2" fill="none" stroke="blue" stroke-width="0.5"/>
    <circle cx="42.8571" cy="0.0000" r="1.2" fill="none" stroke="blue" stroke-width="0.5"/>
    <circle cx="45.2381" cy="0.0000" r="1.2" fill="none" stroke="blue" stroke-width="0.5"/>
    <circle cx="47.6190" cy="0.0000" r="1.2" fill="none" stroke="blue" stroke-width="0.5"/>
    <circle cx="50.0000" cy="0.0000" r="1.2" fill="none" stroke="blue" stroke-width="0.5"/>
    <circle cx="50.0000" cy="2.3810" r="1.2" fill="none" stroke="blue" stroke-width="0.5"/>
    <circle cx="50.0000" cy="4.7619" r="1.2" fill="none" stroke="blue" stroke-width="0.5"/>
    <circle cx="50.0000" cy="7.1429" r="1.2" fill="none" stroke="blue" stroke-width="0.5"/>
    <circle cx="50.0000" cy="9.5238" r="1.2" fill="none" stroke="blue" stroke-width="0.5"/>
    <circle cx="50.0000" cy="11.9048" r="1.2" fill="none" stroke="blue" stroke-width="0.5"/>
    <circle cx="50.0000" cy="14.2857" r="1.2" fill="none" stroke="blue" stroke-width="0.5"/>
    <circle cx="50.0000" cy="16.6667" r="1.2" fill="none" stroke="blue" stroke-width="0.5"/>
    <circle cx="50.0000" cy="19.0476" r="1.2" fill="none" stroke="blue" stroke-width="0.5"/>
    <circle cx="50.0000" cy="21.4286" r="1.2" fill="none" stroke="blue" stroke-width="0.5"/>
    <circle cx="50.0000" cy="23.8095" r="1.2" fill="none" stroke="blue" stroke-width="0.5"/>
    <circle cx="50.0000" cy="26.1905" r="1.2" fill="none" stroke="blue" stroke-width="0.5"/>
    <circle cx="50.0000" cy="28.5714" r="1.2" fill="none" stroke="blue" stroke-width="0.5"/>
    <circle cx="50.0000" cy="30.9524" r="1.2" fill="none" stroke="blue" stroke-width="0.5"/>
    <circle cx="50.0000" cy="33.3333" r="1.2" fill="none" stroke="blue" stroke-width="0.5"/>
    <circle cx="50.0000" cy="35.7143" r="1.2" fill="none" stroke="blue" stroke-width="0.5"/>
    <circle cx="50.0000" cy="38.0952" r="1.2" fill="none" stroke="blue" stroke-width="0.5"/>
    <circle cx="50.0000" cy="40.4762" r="1.2" fill="none" stroke="blue" stroke-width="0.5"/>
    <circle cx="50.0000" cy="42.8571" r="1.2" fill="none" stroke="blue" stroke-width="0.5"/>
    <circle cx="50.0000" cy="45.2381" r="1.2" fill="none" stroke="blue" stroke-width="0.5"/>
    <circle cx="50.0000" cy="47.6190" r="1.2" fill="none" stroke="blue" stroke-width="0.5"/>
    <circle cx="50.0000" cy="50.0000" r="1.2" fill="none" stroke="blue" stroke-width="0.5"/>
    <circle cx="50.0000" cy="52.3810" r="1.2" fill="none" stroke="blue" stroke-width="0.5"/>
    <circle cx="50.0000" cy="54.7619" r="1.2" fill="none" stroke="blue" stroke-width="0.5"/>
    <circle cx="50.0000" cy="57.1429" r="1.2" fill="none" stroke="blue" stroke-width="0.5"/>
    <circle cx="50.0000" cy="59.5238" r="1.2" fill="none" stroke="blue" stroke-width="0.5"/>
    <circle cx="50.0000" cy="61.9048" r="1.2" fill="none" stroke="blue" stroke-width="0.5"/>
    <circle cx="50.0000" cy="64.2857" r="1.2" fill="none" stroke="blue" stroke-width="0.5"/>
    <circle cx="50.0000" cy="66.6667" r="1.2" fill="none" stroke="blue" stroke-width="0.5"/>
    <circle cx="50.0000" cy="69.0476" r="1.2" fill="none" stroke="blue" stroke-width="0.5"/>
    <circle cx="50.0000" cy="71.4286" r="1.2" fill="none" stroke="blue" stroke-width="0.5"/>
    <circle cx="50.0000" cy="73.8095" r="1.2" fill="none" stroke="blue" stroke-width="0.5"/>
    <circle cx="50.0000" cy="76.1905" r="1.2" fill="none" stroke="blue" stroke-width="0.5"/>
    <circle cx="50.0000" cy="78.5714" r="1.2" fill="none" stroke="blue" stroke-width="0.5"/>
    <circle cx="50.0000" cy="80.9524" r="1.2" fill="none" stroke="blue" stroke-width="0.5"/>
    <circle cx="50.0000" cy="83.3333" r="1.2" fill="none" stroke="blue" stroke-width="0.5"/>
    <circle cx="50.0000" cy="85.7143" r="1.2" fill="none" stroke="blue" stroke-width="0.5"/>
    <circle cx="50.0000" cy="88.0952" r="1.2" fill="none" stroke="blue" stroke-width="0.5"/>
    <circle cx="50.0000" cy="90.4762" r="1.2" fill="none" stroke="blue" stroke-width="0.5"/>
    <circle cx="50.0000" cy="92.8571" r="1.2" fill="none" stroke="blue" stroke-width="0.5"/>
    <circle cx="50.0000" cy="95.2381" r="1.2" fill="none" stroke="blue" stroke-width="0.5"/>
    <circle cx="50.0000" cy="97.6190" r="1.2" fill="none" stroke="blue" stroke-width="0.5"/>
    <circle cx="50.0000" cy="100.0000" r="1.2" fill="none" stroke="blue" stroke-width="0.5"/>
  </g>
</svg>