<svg xmlns="http://www.w3.org/2000/svg" width="338.8354" height="54.9473" viewBox="-12.6454 -11.9478 338.8354 54.9473">
  <path fill="black" stroke="none" fill-rule="evenodd" d="M -2.6454 -1.2135 L -2.6012 -1.0378 L -2.5125 -0.8444 L -2.3808 -0.6365 L -2.2083 -0.4177 L -1.9981 -0.1917 L -1.7537 0.0375 L -1.4793 0.2661 L -1.1795 0.4901 L -0.8596 0.7058 L -0.5250 0.9093 L -0.1814 1.0973 L 0.1653 1.2666 L 0.5092 1.4141 L 0.8444 1.5375 L 1.1651 1.6346 L 1.4659 1.7037 L 1.7416 1.7436 L 1.9875 1.7537 L 2.1994 1.7338 L 2.2522 1.7188 L 2.3759 1.7562 L 2.6875 1.8278 L 2.9732 1.8692 L 3.2280 1.8797 L 3.4476 1.8591 L 3.4872 1.8478 L 3.5867 1.8779 L 3.9092 1.9520 L 4.2048 1.9948 L 4.4685 2.0057 L 4.6957 1.9843 L 4.7222 1.9768 L 4.7975 1.9996 L 5.1309 2.0762 L 5.4365 2.1205 L 5.7090 2.1317 L 5.9439 2.1096 L 5.9572 2.1058 L 6.0082 2.1213 L 6.3525 2.2004 L 6.6681 2.2461 L 6.9495 2.2577 L 7.1921 2.2349 L 7.1922 2.2349 L 7.2190 2.2430 L 7.5742 2.3246 L 7.8997 2.3717 L 8.1901 2.3837 L 8.4209 2.3620 L 8.4298 2.3647 L 8.7958 2.4487 L 9.1313 2.4973 L 9.4306 2.5096 L 9.6516 2.4889 L 10.0175 2.5729 L 10.3630 2.6230 L 10.6711 2.6356 L 10.8844 2.6156 L 11.2392 2.6971 L 11.5946 2.7486 L 11.9116 2.7616 L 12.1171 2.7423 L 12.4608 2.8213 L 12.8262 2.8742 L 13.1521 2.8876 L 13.3498 2.8691 L 13.6825 2.9455 L 14.0578 2.9998 L 14.3926 3.0136 L 14.5825 2.9958 L 14.9041 3.0697 L 15.2895 3.1255 L 15.6331 3.1396 L 15.8152 3.1225 L 16.1258 3.1938 L 16.5211 3.2511 L 16.8736 3.2656 L 17.0480 3.2492 L 17.3474 3.3180 L 17.7527 3.3767 L 18.1142 3.3916 L 18.2807 3.3759 L 18.5691 3.4422 L 18.9843 3.5024 L 19.3547 3.5176 L 19.5134 3.5027 L 19.7908 3.5664 L 20.2160 3.6280 L 20.5952 3.6436 L 20.7461 3.6294 L 21.0124 3.6906 L 21.4476 3.7536 L 21.8357 3.7696 L 21.9788 3.7561 L 22.2341 3.8147 L 22.6792 3.8792 L 23.0762 3.8955 L 23.2116 3.8828 L 23.4557 3.9389 L 23.9108 4.0049 L 24.3167 4.0215 L 24.4443 4.0096 L 24.6774 4.0631 L 25.1424 4.1305 L 25.5572 4.1475 L 25.6770 4.1363 L 25.8991 4.1873 L 26.3741 4.2561 L 26.7977 4.2735 L 26.9097 4.2630 L 27.1207 4.3115 L 27.6057 4.3817 L 28.0383 4.3995 L 28.1424 4.3897 L 28.3424 4.4357 L 28.8373 4.5074 L 29.2788 4.5255 L 29.3752 4.5165 L 29.5640 4.5598 L 30.0689 4.6330 L 30.5193 4.6515 L 30.6079 4.6432 L 30.7857 4.6840 L 31.3006 4.7586 L 31.7598 4.7775 L 31.8406 4.7699 L 32.0073 4.8082 L 32.5322 4.8842 L 33.0003 4.9035 L 33.0733 4.8966 L 33.2290 4.9324 L 33.7638 5.0099 L 34.2408 5.0295 L 34.3060 5.0233 L 34.4507 5.0566 L 34.9954 5.1355 L 35.4813 5.1555 L 35.5388 5.1501 L 35.6723 5.1807 L 36.2271 5.2611 L 36.7218 5.2815 L 36.7715 5.2768 L 36.8940 5.3049 L 37.4587 5.3867 L 37.9623 5.4074 L 38.0042 5.4035 L 38.1156 5.4291 L 38.6903 5.5124 L 39.2029 5.5334 L 39.2369 5.5302 L 39.3373 5.5533 L 39.9219 5.6380 L 40.4434 5.6594 L 40.4696 5.6570 L 40.5590 5.6775 L 41.1536 5.7636 L 41.6839 5.7854 L 41.7024 5.7837 L 41.7806 5.8017 L 42.3852 5.8892 L 42.9244 5.9114 L 42.9351 5.9104 L 43.0023 5.9258 L 43.6168 6.0149 L 44.1649 6.0374 L 44.1678 6.0371 L 44.2239 6.0500 L 44.8484 6.1405 L 45.3970 6.1630 L 45.4456 6.1742 L 46.0801 6.2661 L 46.6241 6.2885 L 46.6673 6.2984 L 47.3117 6.3917 L 47.8513 6.4139 L 47.8889 6.4226 L 48.5433 6.5174 L 49.0784 6.5394 L 49.1106 6.5467 L 49.7749 6.6430 L 50.3056 6.6648 L 50.3322 6.6709 L 51.0065 6.7686 L 51.5327 6.7902 L 51.5539 6.7951 L 52.2382 6.8942 L 52.7599 6.9157 L 52.7755 6.9193 L 53.4698 7.0199 L 53.9870 7.0411 L 53.9972 7.0435 L 54.7014 7.1455 L 55.2141 7.1666 L 55.2189 7.1677 L 55.9330 7.2711 L 56.4419 7.2920 L 57.1647 7.3967 L 57.6735 7.4177 L 58.3963 7.5224 L 58.9051 7.5433 L 59.6279 7.6480 L 60.1368 7.6689 L 60.8595 7.7736 L 61.3684 7.7945 L 62.0912 7.8993 L 62.6000 7.9202 L 63.3228 8.0249 L 63.8316 8.0458 L 64.5544 8.1505 L 65.0633 8.1714 L 65.7860 8.2761 L 66.2949 8.2970 L 67.0177 8.4018 L 67.5265 8.4227 L 68.2493 8.5274 L 68.7581 8.5483 L 69.4809 8.6530 L 69.9898 8.6739 L 70.7125 8.7786 L 71.2214 8.7995 L 71.9442 8.9043 L 72.4530 8.9252 L 73.1758 9.0299 L 73.6846 9.0508 L 74.4074 9.1555 L 74.9163 9.1764 L 75.6390 9.2811 L 76.1479 9.3021 L 76.8706 9.4068 L 77.3795 9.4277 L 78.1023 9.5324 L 78.6111 9.5533 L 79.3339 9.6580 L 79.8427 9.6789 L 80.5655 9.7836 L 81.0744 9.8046 L 81.7971 9.9093 L 82.3060 9.9302 L 83.0288 10.0349 L 83.5376 10.0558 L 84.2604 10.1605 L 84.7692 10.1814 L 85.4920 10.2861 L 86.0009 10.3071 L 86.7236 10.4118 L 87.2325 10.4327 L 87.9553 10.5374 L 88.4641 10.5583 L 89.1869 10.6630 L 89.6957 10.6839 L 90.4185 10.7886 L 90.9274 10.8096 L 91.6501 10.9143 L 92.1590 10.9352 L 92.8818 11.0399 L 93.3906 11.0608 L 94.1134 11.1655 L 94.6222 11.1864 L 95.3450 11.2911 L 95.8539 11.3121 L 96.5766 11.4168 L 97.0855 11.4377 L 97.8083 11.5424 L 98.3171 11.5633 L 99.0399 11.6680 L 99.5487 11.6889 L 100.2715 11.7936 L 100.7804 11.8146 L 101.5031 11.9193 L 102.0120 11.9402 L 102.7347 12.0449 L 103.2436 12.0658 L 103.9664 12.1705 L 104.4752 12.1914 L 105.1980 12.2962 L 105.7068 12.3171 L 106.4296 12.4218 L 106.9385 12.4427 L 107.6612 12.5474 L 108.1701 12.5683 L 108.8929 12.6730 L 109.4017 12.6939 L 110.1245 12.7987 L 110.6333 12.8196 L 111.3561 12.9243 L 111.8650 12.9452 L 112.5877 13.0499 L 113.0966 13.0708 L 113.8194 13.1755 L 114.3282 13.1964 L 115.0510 13.3012 L 115.5598 13.3221 L 116.2826 13.4268 L 116.7915 13.4477 L 117.5142 13.5524 L 118.0231 13.5733 L 118.7459 13.6780 L 119.2547 13.6989 L 119.9775 13.8037 L 120.4863 13.8246 L 121.2091 13.9293 L 121.7180 13.9502 L 122.4407 14.0549 L 122.9496 14.0758 L 123.6724 14.1805 L 124.1812 14.2015 L 124.9040 14.3062 L 125.4128 14.3271 L 126.1356 14.4318 L 126.6445 14.4527 L 127.3672 14.5574 L 127.8761 14.5783 L 128.5988 14.6830 L 129.1077 14.7040 L 129.8305 14.8087 L 130.3393 14.8296 L 131.0621 14.9343 L 131.5709 14.9552 L 132.2937 15.0599 L 132.8026 15.0808 L 133.5253 15.1855 L 134.0342 15.2065 L 134.7570 15.3112 L 135.2658 15.3321 L 135.9886 15.4368 L 136.4974 15.4577 L 137.2202 15.5624 L 137.7291 15.5833 L 138.4518 15.6880 L 138.9607 15.7090 L 139.6835 15.8137 L 140.1923 15.8346 L 140.9151 15.9393 L 141.4239 15.9602 L 142.1467 16.0649 L 142.6556 16.0858 L 143.3783 16.1905 L 143.8872 16.2115 L 144.6100 16.3162 L 145.1188 16.3371 L 145.8416 16.4418 L 146.3504 16.4627 L 147.0732 16.5674 L 147.5821 16.5883 L 148.3048 16.6930 L 148.8137 16.7140 L 149.5365 16.8187 L 150.0453 16.8396 L 150.7681 16.9443 L 151.2769 16.9652 L 151.9997 17.0699 L 152.5086 17.0908 L 153.2313 17.1956 L 153.7402 17.2165 L 154.4629 17.3212 L 154.9718 17.3421 L 155.6946 17.4468 L 156.2034 17.4677 L 156.9262 17.5724 L 157.4350 17.5933 L 158.1578 17.6981 L 158.6667 17.7190 L 159.3894 17.8237 L 159.8983 17.8446 L 160.6211 17.9493 L 161.1299 17.9702 L 161.8527 18.0749 L 162.3615 18.0958 L 163.0843 18.2006 L 163.5932 18.2215 L 164.3159 18.3262 L 164.8248 18.3471 L 165.5476 18.4518 L 166.0564 18.4727 L 166.7792 18.5774 L 167.2880 18.5984 L 168.0108 18.7031 L 168.5197 18.7240 L 169.2424 18.8287 L 169.7513 18.8496 L 170.4741 18.9543 L 170.9829 18.9752 L 171.7057 19.0799 L 172.2145 19.1009 L 172.9373 19.2056 L 173.4462 19.2265 L 174.1689 19.3312 L 174.6778 19.3521 L 175.4006 19.4568 L 175.9094 19.4777 L 176.6322 19.5824 L 177.1410 19.6034 L 177.8638 19.7081 L 178.3727 19.7290 L 179.0954 19.8337 L 179.6043 19.8546 L 180.3270 19.9593 L 180.8359 19.9802 L 181.5587 20.0849 L 182.0675 20.1059 L 182.7903 20.2106 L 183.2991 20.2315 L 184.0219 20.3362 L 184.5308 20.3571 L 185.2535 20.4618 L 185.7624 20.4827 L 186.4852 20.5874 L 186.9940 20.6084 L 187.7168 20.7131 L 188.2256 20.7340 L 188.9484 20.8387 L 189.4573 20.8596 L 190.1800 20.9643 L 190.6889 20.9852 L 191.4117 21.0899 L 191.9205 21.1109 L 192.6433 21.2156 L 193.1521 21.2365 L 193.8749 21.3412 L 194.3838 21.3621 L 195.1065 21.4668 L 195.6154 21.4877 L 196.3382 21.5925 L 196.8470 21.6134 L 197.5698 21.7181 L 198.0786 21.7390 L 198.8014 21.8437 L 199.3103 21.8646 L 200.0330 21.9693 L 200.5419 21.9902 L 201.2647 22.0950 L 201.7735 22.1159 L 202.4963 22.2206 L 203.0051 22.2415 L 203.7279 22.3462 L 204.2368 22.3671 L 204.9595 22.4718 L 205.4684 22.4927 L 206.1911 22.5975 L 206.7000 22.6184 L 207.4228 22.7231 L 207.9316 22.7440 L 208.6544 22.8487 L 209.1632 22.8696 L 209.8860 22.9743 L 210.3949 22.9953 L 211.1176 23.1000 L 211.6265 23.1209 L 212.3493 23.2256 L 212.8581 23.2465 L 213.5809 23.3512 L 214.0897 23.3721 L 214.8125 23.4768 L 215.3214 23.4978 L 216.0441 23.6025 L 216.5530 23.6234 L 217.2758 23.7281 L 217.7846 23.7490 L 218.5074 23.8537 L 219.0162 23.8746 L 219.7390 23.9793 L 220.2479 24.0003 L 220.9706 24.1050 L 221.4795 24.1259 L 222.2023 24.2306 L 222.7111 24.2515 L 223.4339 24.3562 L 223.9427 24.3771 L 224.6655 24.4818 L 225.1744 24.5028 L 225.8971 24.6075 L 226.4060 24.6284 L 227.1288 24.7331 L 227.6376 24.7540 L 228.3604 24.8587 L 228.8692 24.8796 L 229.5920 24.9843 L 230.1009 25.0053 L 230.8236 25.1100 L 231.3325 25.1309 L 232.0552 25.2356 L 232.5641 25.2565 L 233.2869 25.3612 L 233.7957 25.3821 L 234.5185 25.4868 L 235.0273 25.5078 L 235.7501 25.6125 L 236.2590 25.6334 L 236.9817 25.7381 L 237.4906 25.7590 L 238.2134 25.8637 L 238.7222 25.8846 L 239.4450 25.9893 L 239.9538 26.0103 L 240.6766 26.1150 L 241.1855 26.1359 L 241.9082 26.2406 L 242.4171 26.2615 L 243.1399 26.3662 L 243.6487 26.3871 L 244.3715 26.4919 L 244.8803 26.5128 L 245.6031 26.6175 L 246.1120 26.6384 L 246.8347 26.7431 L 247.3436 26.7640 L 248.0664 26.8687 L 248.5752 26.8896 L 249.2980 26.9944 L 249.8068 27.0153 L 250.5296 27.1200 L 251.0385 27.1409 L 251.7612 27.2456 L 252.2701 27.2665 L 252.9929 27.3712 L 253.5017 27.3921 L 254.2245 27.4969 L 254.7333 27.5178 L 255.4561 27.6225 L 255.9650 27.6434 L 256.6877 27.7481 L 257.1966 27.7690 L 257.9193 27.8737 L 258.4282 27.8947 L 259.1510 27.9994 L 259.6598 28.0203 L 260.3826 28.1250 L 260.8914 28.1459 L 261.6142 28.2506 L 262.1231 28.2715 L 262.8458 28.3762 L 263.3547 28.3972 L 264.0775 28.5019 L 264.5863 28.5228 L 265.3091 28.6275 L 265.8179 28.6484 L 266.5407 28.7531 L 267.0496 28.7740 L 267.7723 28.8787 L 268.2812 28.8997 L 269.0040 29.0044 L 269.5128 29.0253 L 270.2356 29.1300 L 270.7444 29.1509 L 271.4672 29.2556 L 271.9761 29.2765 L 272.6988 29.3812 L 273.2077 29.4022 L 273.9305 29.5069 L 274.4393 29.5278 L 275.1621 29.6325 L 275.6709 29.6534 L 276.3937 29.7581 L 276.9026 29.7790 L 277.6253 29.8837 L 278.1342 29.9047 L 278.8570 30.0094 L 279.3658 30.0303 L 280.0886 30.1350 L 280.5974 30.1559 L 281.3202 30.2606 L 281.8291 30.2815 L 282.5518 30.3862 L 283.0607 30.4072 L 283.7835 30.5119 L 284.2923 30.5328 L 285.0151 30.6375 L 285.5239 30.6584 L 286.2467 30.7631 L 286.7556 30.7840 L 287.4783 30.8888 L 287.9872 30.9097 L 288.7099 31.0144 L 289.2188 31.0353 L 289.9416 31.1400 L 290.4504 31.1609 L 291.1732 31.2656 L 291.6820 31.2865 L 292.4048 31.3913 L 292.9137 31.4122 L 293.6364 31.5169 L 294.1453 31.5378 L 294.8681 31.6425 L 295.3769 31.6634 L 296.0997 31.7681 L 296.6085 31.7890 L 297.3313 31.8938 L 297.8402 31.9147 L 298.5629 32.0194 L 299.0718 32.0403 L 299.7946 32.1450 L 300.3034 32.1659 L 301.0262 32.2706 L 301.5350 32.2916 L 302.2578 32.3963 L 302.7667 32.4172 L 303.4894 32.5219 L 303.9983 32.5428 L 304.7211 32.6475 L 305.2299 32.6684 L 305.9527 32.7731 L 306.4615 32.7941 L 307.1843 32.8988 L 309.6345 32.9995 L 311.7458 32.8012 L 313.4822 32.3074 L 314.8139 31.5264 L 315.7182 30.4716 L 316.1795 29.1612 L 316.1900 27.6174 L 315.7495 25.8667 L 314.8655 23.9391 L 313.5532 21.8675 L 311.8350 19.6874 L 309.7403 17.4362 L 307.3050 15.1522 L 304.5706 12.8746 L 301.5841 10.6424 L 298.3965 8.4938 L 295.0623 6.4655 L 291.6387 4.5922 L 288.1841 2.9059 L 284.7577 1.4356 L 281.4181 0.2064 L 278.2225 -0.7607 L 275.2254 -1.4491 L 272.4783 -1.8471 L 270.0282 -1.9478 L 269.6884 -1.9159 L 268.9313 -1.9470 L 268.5916 -1.9151 L 267.8345 -1.9462 L 267.4947 -1.9143 L 266.7377 -1.9454 L 266.3979 -1.9135 L 265.6408 -1.9446 L 265.3011 -1.9127 L 264.5440 -1.9439 L 264.2042 -1.9120 L 263.4471 -1.9431 L 263.1074 -1.9112 L 262.3503 -1.9423 L 262.0105 -1.9104 L 261.2535 -1.9415 L 260.9137 -1.9096 L 260.1566 -1.9407 L 259.8169 -1.9088 L 259.0598 -1.9399 L 258.7200 -1.9080 L 257.9630 -1.9392 L 257.6232 -1.9073 L 256.8661 -1.9384 L 256.5264 -1.9065 L 255.7693 -1.9376 L 255.4295 -1.9057 L 254.6724 -1.9368 L 254.3327 -1.9049 L 253.5756 -1.9360 L 253.2358 -1.9041 L 252.4788 -1.9353 L 252.1390 -1.9033 L 251.3819 -1.9345 L 251.0422 -1.9026 L 250.2851 -1.9337 L 249.9453 -1.9018 L 249.1883 -1.9329 L 248.8485 -1.9010 L 248.0914 -1.9321 L 247.7517 -1.9002 L 246.9946 -1.9313 L 246.6548 -1.8994 L 245.8977 -1.9306 L 245.5580 -1.8987 L 244.8009 -1.9298 L 244.4611 -1.8979 L 243.7041 -1.9290 L 243.3643 -1.8971 L 242.6072 -1.9282 L 242.2675 -1.8963 L 241.5104 -1.9274 L 241.1706 -1.8955 L 240.4136 -1.9266 L 240.0738 -1.8947 L 239.3167 -1.9259 L 238.9770 -1.8940 L 238.2199 -1.9251 L 237.8801 -1.8932 L 237.1230 -1.9243 L 236.7833 -1.8924 L 236.0262 -1.9235 L 235.6864 -1.8916 L 234.9294 -1.9227 L 234.5896 -1.8908 L 233.8325 -1.9220 L 233.4928 -1.8900 L 232.7357 -1.9212 L 232.3959 -1.8893 L 231.6389 -1.9204 L 231.2991 -1.8885 L 230.5420 -1.9196 L 230.2023 -1.8877 L 229.4452 -1.9188 L 229.1054 -1.8869 L 228.3483 -1.9180 L 228.0086 -1.8861 L 227.2515 -1.9173 L 226.9118 -1.8854 L 226.1547 -1.9165 L 225.8149 -1.8846 L 225.0578 -1.9157 L 224.7181 -1.8838 L 223.9610 -1.9149 L 223.6212 -1.8830 L 222.8642 -1.9141 L 222.5244 -1.8822 L 221.7673 -1.9133 L 221.4276 -1.8814 L 220.6705 -1.9126 L 220.3307 -1.8807 L 219.5736 -1.9118 L 219.2339 -1.8799 L 218.4768 -1.9110 L 218.1371 -1.8791 L 217.3800 -1.9102 L 217.0402 -1.8783 L 216.2831 -1.9094 L 215.9434 -1.8775 L 215.1863 -1.9086 L 214.8465 -1.8767 L 214.0895 -1.9079 L 213.7497 -1.8760 L 212.9926 -1.9071 L 212.6529 -1.8752 L 211.8958 -1.9063 L 211.5560 -1.8744 L 210.7989 -1.9055 L 210.4592 -1.8736 L 209.7021 -1.9047 L 209.3624 -1.8728 L 208.6053 -1.9040 L 208.2655 -1.8720 L 207.5084 -1.9032 L 207.1687 -1.8713 L 206.4116 -1.9024 L 206.0718 -1.8705 L 205.3148 -1.9016 L 204.9750 -1.8697 L 204.2179 -1.9008 L 203.8782 -1.8689 L 203.1211 -1.9000 L 202.7813 -1.8681 L 202.0242 -1.8993 L 201.6845 -1.8674 L 200.9274 -1.8985 L 200.5877 -1.8666 L 199.8306 -1.8977 L 199.4908 -1.8658 L 198.7337 -1.8969 L 198.3940 -1.8650 L 197.6369 -1.8961 L 197.2971 -1.8642 L 196.5401 -1.8953 L 196.2003 -1.8634 L 195.4432 -1.8946 L 195.1035 -1.8627 L 194.3464 -1.8938 L 194.0066 -1.8619 L 193.2495 -1.8930 L 192.9098 -1.8611 L 192.1527 -1.8922 L 191.8130 -1.8603 L 191.0559 -1.8914 L 190.7161 -1.8595 L 189.9590 -1.8906 L 189.6193 -1.8587 L 188.8622 -1.8899 L 188.5224 -1.8580 L 187.7654 -1.8891 L 187.4256 -1.8572 L 186.6685 -1.8883 L 186.3288 -1.8564 L 185.5717 -1.8875 L 185.2319 -1.8556 L 184.4748 -1.8867 L 184.1351 -1.8548 L 183.3780 -1.8860 L 183.0383 -1.8540 L 182.2812 -1.8852 L 181.9414 -1.8533 L 181.1843 -1.8844 L 180.8446 -1.8525 L 180.0875 -1.8836 L 179.7477 -1.8517 L 178.9907 -1.8828 L 178.6509 -1.8509 L 177.8938 -1.8820 L 177.5541 -1.8501 L 176.7970 -1.8813 L 176.4572 -1.8494 L 175.7002 -1.8805 L 175.3604 -1.8486 L 174.6033 -1.8797 L 174.2636 -1.8478 L 173.5065 -1.8789 L 173.1667 -1.8470 L 172.4096 -1.8781 L 172.0699 -1.8462 L 171.3128 -1.8773 L 170.9730 -1.8454 L 170.2160 -1.8766 L 169.8762 -1.8447 L 169.1191 -1.8758 L 168.7794 -1.8439 L 168.0223 -1.8750 L 167.6825 -1.8431 L 166.9255 -1.8742 L 166.5857 -1.8423 L 165.8286 -1.8734 L 165.4889 -1.8415 L 164.7318 -1.8726 L 164.3920 -1.8407 L 163.6349 -1.8719 L 163.2952 -1.8400 L 162.5381 -1.8711 L 162.1983 -1.8392 L 161.4413 -1.8703 L 161.1015 -1.8384 L 160.3444 -1.8695 L 160.0047 -1.8376 L 159.2476 -1.8687 L 158.9078 -1.8368 L 158.1508 -1.8680 L 157.8110 -1.8361 L 157.0539 -1.8672 L 156.7142 -1.8353 L 155.9571 -1.8664 L 155.6173 -1.8345 L 154.8602 -1.8656 L 154.5205 -1.8337 L 153.7634 -1.8648 L 153.4236 -1.8329 L 152.6666 -1.8640 L 152.3268 -1.8321 L 151.5697 -1.8633 L 151.2300 -1.8314 L 150.4729 -1.8625 L 150.1331 -1.8306 L 149.3761 -1.8617 L 149.0363 -1.8298 L 148.2792 -1.8609 L 147.9395 -1.8290 L 147.1824 -1.8601 L 146.8426 -1.8282 L 146.0855 -1.8593 L 145.7458 -1.8274 L 144.9887 -1.8586 L 144.6489 -1.8267 L 143.8919 -1.8578 L 143.5521 -1.8259 L 142.7950 -1.8570 L 142.4553 -1.8251 L 141.6982 -1.8562 L 141.3584 -1.8243 L 140.6014 -1.8554 L 140.2616 -1.8235 L 139.5045 -1.8547 L 139.1648 -1.8227 L 138.4077 -1.8539 L 138.0679 -1.8220 L 137.3108 -1.8531 L 136.9711 -1.8212 L 136.2140 -1.8523 L 135.8743 -1.8204 L 135.1172 -1.8515 L 134.7774 -1.8196 L 134.0203 -1.8507 L 133.6806 -1.8188 L 132.9235 -1.8500 L 132.5837 -1.8181 L 131.8267 -1.8492 L 131.4869 -1.8173 L 130.7298 -1.8484 L 130.3901 -1.8165 L 129.6330 -1.8476 L 129.2932 -1.8157 L 128.5361 -1.8468 L 128.1964 -1.8149 L 127.4393 -1.8460 L 127.0996 -1.8141 L 126.3425 -1.8453 L 126.0027 -1.8134 L 125.2456 -1.8445 L 124.9059 -1.8126 L 124.1488 -1.8437 L 123.8090 -1.8118 L 123.0520 -1.8429 L 122.7122 -1.8110 L 121.9551 -1.8421 L 121.6154 -1.8102 L 120.8583 -1.8413 L 120.5185 -1.8094 L 119.7614 -1.8406 L 119.4217 -1.8087 L 118.6646 -1.8398 L 118.3249 -1.8079 L 117.5678 -1.8390 L 117.2280 -1.8071 L 116.4709 -1.8382 L 116.1312 -1.8063 L 115.3741 -1.8374 L 115.0343 -1.8055 L 114.2773 -1.8367 L 113.9375 -1.8047 L 113.1804 -1.8359 L 112.8407 -1.8040 L 112.0836 -1.8351 L 111.7438 -1.8032 L 110.9867 -1.8343 L 110.6470 -1.8024 L 109.8899 -1.8335 L 109.5502 -1.8016 L 108.7931 -1.8327 L 108.4533 -1.8008 L 107.6962 -1.8320 L 107.3565 -1.8001 L 106.5994 -1.8312 L 106.2596 -1.7993 L 105.5026 -1.8304 L 105.1628 -1.7985 L 104.4057 -1.8296 L 104.0660 -1.7977 L 103.3089 -1.8288 L 102.9691 -1.7969 L 102.2120 -1.8280 L 101.8723 -1.7961 L 101.1152 -1.8273 L 100.7755 -1.7954 L 100.0184 -1.8265 L 99.6786 -1.7946 L 98.9215 -1.8257 L 98.5818 -1.7938 L 97.8247 -1.8249 L 97.4849 -1.7930 L 96.7279 -1.8241 L 96.3881 -1.7922 L 95.6310 -1.8233 L 95.2913 -1.7914 L 94.5342 -1.8226 L 94.1944 -1.7907 L 93.4373 -1.8218 L 93.0976 -1.7899 L 92.3405 -1.8210 L 92.0008 -1.7891 L 91.2437 -1.8202 L 90.9039 -1.7883 L 90.1468 -1.8194 L 89.8071 -1.7875 L 89.0500 -1.8187 L 88.7102 -1.7867 L 87.9532 -1.8179 L 87.6134 -1.7860 L 86.8563 -1.8171 L 86.5166 -1.7852 L 85.7595 -1.8163 L 85.4197 -1.7844 L 84.6627 -1.8155 L 84.3229 -1.7836 L 83.5658 -1.8147 L 83.2261 -1.7828 L 82.4690 -1.8140 L 82.1292 -1.7821 L 81.3721 -1.8132 L 81.0324 -1.7813 L 80.2753 -1.8124 L 79.9355 -1.7805 L 79.1785 -1.8116 L 78.8387 -1.7797 L 78.0816 -1.8108 L 77.7419 -1.7789 L 76.9848 -1.8100 L 76.6450 -1.7781 L 75.8880 -1.8093 L 75.5482 -1.7774 L 74.7911 -1.8085 L 74.4514 -1.7766 L 73.6943 -1.8077 L 73.3545 -1.7758 L 72.5974 -1.8069 L 72.2577 -1.7750 L 71.5006 -1.8061 L 71.1608 -1.7742 L 70.4038 -1.8053 L 70.0640 -1.7734 L 69.3069 -1.8046 L 68.9672 -1.7727 L 68.2101 -1.8038 L 67.8703 -1.7719 L 67.1133 -1.8030 L 66.7735 -1.7711 L 66.0164 -1.8022 L 65.6767 -1.7703 L 64.9196 -1.8014 L 64.5798 -1.7695 L 63.8227 -1.8007 L 63.4830 -1.7688 L 62.7259 -1.7999 L 62.3861 -1.7680 L 61.6291 -1.7991 L 61.2873 -1.7670 L 61.2848 -1.7674 L 60.5322 -1.7983 L 60.1866 -1.7659 L 60.1790 -1.7670 L 59.4354 -1.7975 L 59.0859 -1.7647 L 59.0733 -1.7665 L 58.3386 -1.7967 L 57.9852 -1.7636 L 57.9676 -1.7661 L 57.2417 -1.7960 L 56.8845 -1.7624 L 56.8619 -1.7657 L 56.1449 -1.7952 L 55.7838 -1.7613 L 55.7561 -1.7653 L 55.0480 -1.7944 L 54.6831 -1.7601 L 54.6504 -1.7649 L 53.9512 -1.7936 L 53.5824 -1.7590 L 53.5447 -1.7645 L 52.8544 -1.7928 L 52.4817 -1.7578 L 52.4390 -1.7640 L 51.7575 -1.7920 L 51.3810 -1.7567 L 51.3332 -1.7636 L 50.6607 -1.7913 L 50.2803 -1.7555 L 50.2275 -1.7632 L 49.5639 -1.7905 L 49.1796 -1.7544 L 49.1218 -1.7628 L 48.4670 -1.7897 L 48.0789 -1.7533 L 48.0161 -1.7624 L 47.3702 -1.7889 L 46.9782 -1.7521 L 46.9103 -1.7619 L 46.2733 -1.7881 L 45.8775 -1.7510 L 45.8046 -1.7615 L 45.1765 -1.7874 L 44.7768 -1.7498 L 44.6989 -1.7611 L 44.0797 -1.7866 L 43.6761 -1.7487 L 43.5932 -1.7607 L 42.9828 -1.7858 L 42.5754 -1.7475 L 42.4874 -1.7603 L 41.8860 -1.7850 L 41.4747 -1.7464 L 41.3817 -1.7599 L 40.7892 -1.7842 L 40.3740 -1.7452 L 40.2760 -1.7594 L 39.6923 -1.7834 L 39.2733 -1.7441 L 39.1703 -1.7590 L 38.5955 -1.7827 L 38.1726 -1.7429 L 38.0645 -1.7586 L 37.4986 -1.7819 L 37.0719 -1.7418 L 36.9588 -1.7582 L 36.4018 -1.7811 L 35.9712 -1.7407 L 35.8531 -1.7578 L 35.3050 -1.7803 L 34.8705 -1.7395 L 34.7474 -1.7574 L 34.2081 -1.7795 L 33.7698 -1.7384 L 33.6416 -1.7569 L 33.1113 -1.7787 L 32.6691 -1.7372 L 32.5359 -1.7565 L 32.0145 -1.7780 L 31.5684 -1.7361 L 31.4302 -1.7561 L 30.9176 -1.7772 L 30.4759 -1.7357 L 30.4714 -1.7344 L 30.3244 -1.7557 L 29.8208 -1.7764 L 29.3868 -1.7356 L 29.3758 -1.7325 L 29.2187 -1.7553 L 28.7239 -1.7756 L 28.2976 -1.7356 L 28.2802 -1.7306 L 28.1130 -1.7549 L 27.6271 -1.7748 L 27.2084 -1.7355 L 27.1846 -1.7287 L 27.0073 -1.7544 L 26.5303 -1.7740 L 26.1192 -1.7355 L 26.0890 -1.7269 L 25.9015 -1.7540 L 25.4334 -1.7733 L 25.0301 -1.7354 L 24.9934 -1.7250 L 24.7958 -1.7536 L 24.3366 -1.7725 L 23.9409 -1.7353 L 23.8979 -1.7231 L 23.6901 -1.7532 L 23.2398 -1.7717 L 22.8517 -1.7353 L 22.8023 -1.7212 L 22.5844 -1.7528 L 22.1429 -1.7709 L 21.7625 -1.7352 L 21.7067 -1.7193 L 21.4786 -1.7524 L 21.0461 -1.7701 L 20.6733 -1.7351 L 20.6111 -1.7174 L 20.3729 -1.7519 L 19.9492 -1.7694 L 19.5842 -1.7351 L 19.5155 -1.7155 L 19.2672 -1.7515 L 18.8524 -1.7686 L 18.4950 -1.7350 L 18.4199 -1.7137 L 18.1615 -1.7511 L 17.7556 -1.7678 L 17.4058 -1.7349 L 17.3243 -1.7118 L 17.0557 -1.7507 L 16.6587 -1.7670 L 16.3166 -1.7349 L 16.2288 -1.7099 L 15.9500 -1.7503 L 15.5619 -1.7662 L 15.2275 -1.7348 L 15.1332 -1.7080 L 14.8443 -1.7499 L 14.4651 -1.7654 L 14.1383 -1.7348 L 14.0376 -1.7061 L 13.7386 -1.7494 L 13.3682 -1.7647 L 13.0491 -1.7347 L 12.9420 -1.7042 L 12.6328 -1.7490 L 12.2714 -1.7639 L 11.9599 -1.7346 L 11.8464 -1.7023 L 11.5271 -1.7486 L 11.1745 -1.7631 L 10.8707 -1.7346 L 10.7508 -1.7005 L 10.4214 -1.7482 L 10.0777 -1.7623 L 9.7816 -1.7345 L 9.6552 -1.6986 L 9.3157 -1.7478 L 8.9809 -1.7615 L 8.6924 -1.7344 L 8.5596 -1.6967 L 8.2099 -1.7473 L 7.8840 -1.7607 L 7.6032 -1.7344 L 7.4633 -1.6946 L 7.4596 -1.6954 L 7.1042 -1.7469 L 6.7872 -1.7600 L 6.5140 -1.7343 L 6.3644 -1.6918 L 6.3439 -1.6965 L 5.9985 -1.7465 L 5.6904 -1.7592 L 5.4248 -1.7342 L 5.2655 -1.6889 L 5.2283 -1.6975 L 4.8928 -1.7461 L 4.5935 -1.7584 L 4.3357 -1.7342 L 4.1666 -1.6861 L 4.1126 -1.6985 L 3.7870 -1.7457 L 3.4967 -1.7576 L 3.2465 -1.7341 L 3.0677 -1.6833 L 2.9969 -1.6995 L 2.6813 -1.7453 L 2.3998 -1.7568 L 2.1573 -1.7341 L 1.9688 -1.6804 L 1.8812 -1.7006 L 1.5756 -1.7448 L 1.3030 -1.7560 L 1.0681 -1.7340 L 0.8750 -1.6791 L 0.8718 -1.6772 L 0.7655 -1.7016 L 0.4699 -1.7444 L 0.2062 -1.7553 L -0.0210 -1.7339 L -0.2079 -1.6808 L -0.2212 -1.6730 L -0.3502 -1.7026 L -0.6359 -1.7440 L -0.8907 -1.7545 L -1.1102 -1.7339 L -1.2908 -1.6825 L -1.3142 -1.6688 L -1.4659 -1.7037 L -1.7416 -1.7436 L -1.9875 -1.7537 L -2.1994 -1.7338 L -2.3737 -1.6842 L -2.5073 -1.6059 L -2.5981 -1.5000 L -2.6444 -1.3685 L -2.6454 -1.2135 Z"/>
  <g id="debug">
  <path fill="none" stroke="#ff3366" stroke-opacity="0.6" stroke-width="0.5" d="M 0 0 L 1.5075 0 L 3.0151 0 L 4.5226 0 L 6.0302 0 L 7.5377 0 L 9.0452 0 L 10.5528 0 L 12.0603 0 L 13.5678 0 L 15.0754 0 L 16.5829 0 L 18.0905 0 L 19.5980 0 L 21.1055 0 L 22.6131 0 L 24.1206 0 L 25.6281 0 L 27.1357 0 L 28.6432 0 L 30.1508 0 L 31.6583 0 L 33.1658 0 L 34.6734 0 L 36.1809 0 L 37.6884 0 L 39.1960 0 L 40.7035 0 L 42.2111 0 L 43.7186 0 L 45.2261 0 L 46.7337 0 L 48.2412 0 L 49.7487 0 L 51.2563 0 L 52.7638 0 L 54.2714 0 L 55.7789 0 L 57.2864 0 L 58.7940 0 L 60.3015 0 L 61.8090 0 L 63.3166 0 L 64.8241 0 L 66.3317 0 L 67.8392 0 L 69.3467 0 L 70.8543 0 L 72.3618 0 L 73.8693 0 L 75.3769 0 L 76.8844 0 L 78.3920 0 L 79.8995 0 L 81.4070 0 L 82.9146 0 L 84.4221 0 L 85.9296 0 L 87.4372 0 L 88.9447 0 L 90.4523 0 L 91.9598 0 L 93.4673 0 L 94.9749 0 L 96.4824 0 L 97.9899 0 L 99.4975 0 L 101.0050 0 L 102.5126 0 L 104.0201 0 L 105.5276 0 L 107.0352 0 L 108.5427 0 L 110.0503 0 L 111.5578 0 L 113.0653 0 L 114.5729 0 L 116.0804 0 L 117.5879 0 L 119.0955 0 L 120.6030 0 L 122.1106 0 L 123.6181 0 L 125.1256 0 L 126.6332 0 L 128.1407 0 L 129.6482 0 L 131.1558 0 L 132.6633 0 L 134.1709 0 L 135.6784 0 L 137.1859 0 L 138.6935 0 L 140.2010 0 L 141.7085 0 L 143.2161 0 L 144.7236 0 L 146.2312 0 L 147.7387 0 L 149.2462 0 L 150.7538 0 L 152.2613 0 L 153.7688 0 L 155.2764 0 L 156.7839 0 L 158.2915 0 L 159.7990 0 L 161.3065 0 L 162.8141 0 L 164.3216 0 L 165.8291 0 L 167.3367 0 L 168.8442 0 L 170.3518 0 L 171.8593 0 L 173.3668 0 L 174.8744 0 L 176.3819 0 L 177.8894 0 L 179.3970 0 L 180.9045 0 L 182.4121 0 L 183.9196 0 L 185.4271 0 L 186.9347 0 L 188.4422 0 L 189.9497 0 L 191.4573 0 L 192.9648 0 L 194.4724 0 L 195.9799 0 L 197.4874 0 L 198.9950 0 L 200.5025 0 L 202.0101 0 L 203.5176 0 L 205.0251 0 L 206.5327 0 L 208.0402 0 L 209.5477 0 L 211.0553 0 L 212.5628 0 L 214.0704 0 L 215.5779 0 L 217.0854 0 L 218.5930 0 L 220.1005 0 L 221.6080 0 L 223.1156 0 L 224.6231 0 L 226.1307 0 L 227.6382 0 L 229.1457 0 L 230.6533 0 L 232.1608 0 L 233.6683 0 L 235.1759 0 L 236.6834 0 L 238.1910 0 L 239.6985 0 L 241.2060 0 L 242.7136 0 L 244.2211 0 L 245.7286 0 L 247.2362 0 L 248.7437 0 L 250.2513 0 L 251.7588 0 L 253.2663 0 L 254.7739 0 L 256.2814 0 L 257.7889 0 L 259.2965 0 L 260.8040 0 L 262.3116 0 L 263.8191 0 L 265.3266 0 L 266.8342 0 L 268.3417 0 L 269.8492 0 L 271.3568 0 L 272.8643 0 L 274.3719 0 L 275.8794 0 L 277.3869 0 L 278.8945 0 L 280.4020 0 L 281.9095 0 L 283.4171 0 L 284.9246 0 L 286.4322 0 L 287.9397 0 L 289.4472 0 L 290.9548 0 L 292.4623 0 L 293.9698 0 L 295.4774 0 L 296.9849 0 L 298.4925 0 L 300.0000 0"/>
  <path fill="none" stroke="#ff9900" stroke-opacity="0.6" stroke-width="0.6" d=""/>
  <path fill="none" stroke="#222222" stroke-opacity="0.7" stroke-width="0.6" d=""/>
  <path fill="none" stroke="#00aaff" stroke-opacity="0.6" stroke-width="0.6" d=""/>
  <circle cx="0" cy="0" r="0.6000" fill="#222222" fill-opacity="0.5"/>
    <circle cx="1.1687" cy="0.0626" r="0.6000" fill="#222222" fill-opacity="0.5"/>
    <circle cx="2.3373" cy="0.1252" r="0.6000" fill="#222222" fill-opacity="0.5"/>
    <circle cx="3.5060" cy="0.1878" r="0.6000" fill="#222222" fill-opacity="0.5"/>
    <circle cx="4.6747" cy="0.2504" r="0.6000" fill="#222222" fill-opacity="0.5"/>
    <circle cx="5.8434" cy="0.3130" r="0.6000" fill="#222222" fill-opacity="0.5"/>
    <circle cx="7.0120" cy="0.3756" r="0.6000" fill="#222222" fill-opacity="0.5"/>
    <circle cx="8.1807" cy="0.4382" r="0.6000" fill="#222222" fill-opacity="0.5"/>
    <circle cx="9.3494" cy="0.5008" r="0.6000" fill="#222222" fill-opacity="0.5"/>
    <circle cx="10.5181" cy="0.5634" r="0.6000" fill="#222222" fill-opacity="0.5"/>
    <circle cx="11.6867" cy="0.6260" r="0.6000" fill="#222222" fill-opacity="0.5"/>
    <circle cx="12.8554" cy="0.6886" r="0.6000" fill="#222222" fill-opacity="0.5"/>
    <circle cx="14.0241" cy="0.7513" r="0.6000" fill="#222222" fill-opacity="0.5"/>
    <circle cx="15.1928" cy="0.8139" r="0.6000" fill="#222222" fill-opacity="0.5"/>
    <circle cx="16.3614" cy="0.8765" r="0.6000" fill="#222222" fill-opacity="0.5"/>
    <circle cx="17.5301" cy="0.9391" r="0.6000" fill="#222222" fill-opacity="0.5"/>
    <circle cx="18.6988" cy="1.0017" r="0.6000" fill="#222222" fill-opacity="0.5"/>
    <circle cx="19.8675" cy="1.0643" r="0.6000" fill="#222222" fill-opacity="0.5"/>
    <circle cx="21.0361" cy="1.1269" r="0.6000" fill="#222222" fill-opacity="0.5"/>
    <circle cx="22.2048" cy="1.1895" r="0.6000" fill="#222222" fill-opacity="0.5"/>
    <circle cx="23.3735" cy="1.2521" r="0.6000" fill="#222222" fill-opacity="0.5"/>
    <circle cx="24.5422" cy="1.3147" r="0.6000" fill="#222222" fill-opacity="0.5"/>
    <circle cx="25.7108" cy="1.3773" r="0.6000" fill="#222222" fill-opacity="0.5"/>
    <circle cx="26.8795" cy="1.4399" r="0.6000" fill="#222222" fill-opacity="0.5"/>
    <circle cx="28.0482" cy="1.5025" r="0.6000" fill="#222222" fill-opacity="0.5"/>
    <circle cx="29.2169" cy="1.5651" r="0.6000" fill="#222222" fill-opacity="0.5"/>
    <circle cx="30.3855" cy="1.6277" r="0.6000" fill="#222222" fill-opacity="0.5"/>
    <circle cx="31.5542" cy="1.6903" r="0.6000" fill="#222222" fill-opacity="0.5"/>
    <circle cx="32.7229" cy="1.7529" r="0.6000" fill="#222222" fill-opacity="0.5"/>
    <circle cx="33.8916" cy="1.8155" r="0.6000" fill="#222222" fill-opacity="0.5"/>
    <circle cx="35.0602" cy="1.8781" r="0.6000" fill="#222222" fill-opacity="0.5"/>
    <circle cx="36.2289" cy="1.9407" r="0.6000" fill="#222222" fill-opacity="0.5"/>
    <circle cx="37.3976" cy="2.0033" r="0.6000" fill="#222222" fill-opacity="0.5"/>
    <circle cx="38.5663" cy="2.0659" r="0.6000" fill="#222222" fill-opacity="0.5"/>
    <circle cx="39.7349" cy="2.1285" r="0.6000" fill="#222222" fill-opacity="0.5"/>
    <circle cx="40.9036" cy="2.1911" r="0.6000" fill="#222222" fill-opacity="0.5"/>
    <circle cx="42.0723" cy="2.2538" r="0.6000" fill="#222222" fill-opacity="0.5"/>
    <circle cx="43.2410" cy="2.3164" r="0.6000" fill="#222222" fill-opacity="0.5"/>
    <circle cx="44.4096" cy="2.3790" r="0.6000" fill="#222222" fill-opacity="0.5"/>
    <circle cx="45.5783" cy="2.4416" r="0.6000" fill="#222222" fill-opacity="0.5"/>
    <circle cx="46.7470" cy="2.5042" r="0.6000" fill="#222222" fill-opacity="0.5"/>
    <circle cx="47.9157" cy="2.5668" r="0.6000" fill="#222222" fill-opacity="0.5"/>
    <circle cx="49.0843" cy="2.6294" r="0.6000" fill="#222222" fill-opacity="0.5"/>
    <circle cx="50.2530" cy="2.6920" r="0.6000" fill="#222222" fill-opacity="0.5"/>
    <circle cx="51.4217" cy="2.7546" r="0.6000" fill="#222222" fill-opacity="0.5"/>
    <circle cx="52.5904" cy="2.8172" r="0.6000" fill="#222222" fill-opacity="0.5"/>
    <circle cx="53.7590" cy="2.8798" r="0.6000" fill="#222222" fill-opacity="0.5"/>
    <circle cx="54.9277" cy="2.9424" r="0.6000" fill="#222222" fill-opacity="0.5"/>
    <circle cx="56.0964" cy="3.0050" r="0.6000" fill="#222222" fill-opacity="0.5"/>
    <circle cx="57.2651" cy="3.0676" r="0.6000" fill="#222222" fill-opacity="0.5"/>
    <circle cx="58.4337" cy="3.1302" r="0.6000" fill="#222222" fill-opacity="0.5"/>
    <circle cx="59.6024" cy="3.1928" r="0.6000" fill="#222222" fill-opacity="0.5"/>
    <circle cx="60.7711" cy="3.2554" r="0.6000" fill="#222222" fill-opacity="0.5"/>
    <circle cx="61.9398" cy="3.3180" r="0.6000" fill="#222222" fill-opacity="0.5"/>
    <circle cx="63.1084" cy="3.3806" r="0.6000" fill="#222222" fill-opacity="0.5"/>
    <circle cx="64.2771" cy="3.4432" r="0.6000" fill="#222222" fill-opacity="0.5"/>
    <circle cx="65.4458" cy="3.5058" r="0.6000" fill="#222222" fill-opacity="0.5"/>
    <circle cx="66.6145" cy="3.5684" r="0.6000" fill="#222222" fill-opacity="0.5"/>
    <circle cx="67.7831" cy="3.6310" r="0.6000" fill="#222222" fill-opacity="0.5"/>
    <circle cx="68.9518" cy="3.6937" r="0.6000" fill="#222222" fill-opacity="0.5"/>
    <circle cx="70.1205" cy="3.7563" r="0.6000" fill="#222222" fill-opacity="0.5"/>
    <circle cx="71.2892" cy="3.8189" r="0.6000" fill="#222222" fill-opacity="0.5"/>
    <circle cx="72.4578" cy="3.8815" r="0.6000" fill="#222222" fill-opacity="0.5"/>
    <circle cx="73.6265" cy="3.9441" r="0.6000" fill="#222222" fill-opacity="0.5"/>
    <circle cx="74.7952" cy="4.0067" r="0.6000" fill="#222222" fill-opacity="0.5"/>
    <circle cx="75.9639" cy="4.0693" r="0.6000" fill="#222222" fill-opacity="0.5"/>
    <circle cx="77.1325" cy="4.1319" r="0.6000" fill="#222222" fill-opacity="0.5"/>
    <circle cx="78.3012" cy="4.1945" r="0.6000" fill="#222222" fill-opacity="0.5"/>
    <circle cx="79.4699" cy="4.2571" r="0.6000" fill="#222222" fill-opacity="0.5"/>
    <circle cx="80.6386" cy="4.3197" r="0.6000" fill="#222222" fill-opacity="0.5"/>
    <circle cx="81.8072" cy="4.3823" r="0.6000" fill="#222222" fill-opacity="0.5"/>
    <circle cx="82.9759" cy="4.4449" r="0.6000" fill="#222222" fill-opacity="0.5"/>
    <circle cx="84.1446" cy="4.5075" r="0.6000" fill="#222222" fill-opacity="0.5"/>
    <circle cx="85.3133" cy="4.5701" r="0.6000" fill="#222222" fill-opacity="0.5"/>
    <circle cx="86.4819" cy="4.6327" r="0.6000" fill="#222222" fill-opacity="0.5"/>
    <circle cx="87.6506" cy="4.6953" r="0.6000" fill="#222222" fill-opacity="0.5"/>
    <circle cx="88.8193" cy="4.7579" r="0.6000" fill="#222222" fill-opacity="0.5"/>
    <circle cx="89.9880" cy="4.8205" r="0.6000" fill="#222222" fill-opacity="0.5"/>
    <circle cx="91.1566" cy="4.8831" r="0.6000" fill="#222222" fill-opacity="0.5"/>
    <circle cx="92.3253" cy="4.9457" r="0.6000" fill="#222222" fill-opacity="0.5"/>
    <circle cx="93.4940" cy="5.0083" r="0.6000" fill="#222222" fill-opacity="0.5"/>
    <circle cx="94.6627" cy="5.0709" r="0.6000" fill="#222222" fill-opacity="0.5"/>
    <circle cx="95.8313" cy="5.1335" r="0.6000" fill="#222222" fill-opacity="0.5"/>
    <circle cx="97.0000" cy="5.1962" r="0.6000" fill="#222222" fill-opacity="0.5"/>
    <circle cx="98.1687" cy="5.2588" r="0.6000" fill="#222222" fill-opacity="0.5"/>
    <circle cx="99.3373" cy="5.3214" r="0.6000" fill="#222222" fill-opacity="0.5"/>
    <circle cx="100.5060" cy="5.3840" r="0.6000" fill="#222222" fill-opacity="0.5"/>
    <circle cx="101.6747" cy="5.4466" r="0.6000" fill="#222222" fill-opacity="0.5"/>
    <circle cx="102.8434" cy="5.5092" r="0.6000" fill="#222222" fill-opacity="0.5"/>
    <circle cx="104.0120" cy="5.5718" r="0.6000" fill="#222222" fill-opacity="0.5"/>
    <circle cx="105.1807" cy="5.6344" r="0.6000" fill="#222222" fill-opacity="0.5"/>
    <circle cx="106.3494" cy="5.6970" r="0.6000" fill="#222222" fill-opacity="0.5"/>
    <circle cx="107.5181" cy="5.7596" r="0.6000" fill="#222222" fill-opacity="0.5"/>
    <circle cx="108.6867" cy="5.8222" r="0.6000" fill="#222222" fill-opacity="0.5"/>
    <circle cx="109.8554" cy="5.8848" r="0.6000" fill="#222222" fill-opacity="0.5"/>
    <circle cx="111.0241" cy="5.9474" r="0.6000" fill="#222222" fill-opacity="0.5"/>
    <circle cx="112.1928" cy="6.0100" r="0.6000" fill="#222222" fill-opacity="0.5"/>
    <circle cx="113.3614" cy="6.0726" r="0.6000" fill="#222222" fill-opacity="0.5"/>
    <circle cx="114.5301" cy="6.1352" r="0.6000" fill="#222222" fill-opacity="0.5"/>
    <circle cx="115.6988" cy="6.1978" r="0.6000" fill="#222222" fill-opacity="0.5"/>
    <circle cx="116.8675" cy="6.2604" r="0.6000" fill="#222222" fill-opacity="0.5"/>
    <circle cx="118.0361" cy="6.3230" r="0.6000" fill="#222222" fill-opacity="0.5"/>
    <circle cx="119.2048" cy="6.3856" r="0.6000" fill="#222222" fill-opacity="0.5"/>
    <circle cx="120.3735" cy="6.4482" r="0.6000" fill="#222222" fill-opacity="0.5"/>
    <circle cx="121.5422" cy="6.5108" r="0.6000" fill="#222222" fill-opacity="0.5"/>
    <circle cx="122.7108" cy="6.5734" r="0.6000" fill="#222222" fill-opacity="0.5"/>
    <circle cx="123.8795" cy="6.6361" r="0.6000" fill="#222222" fill-opacity="0.5"/>
    <circle cx="125.0482" cy="6.6987" r="0.6000" fill="#222222" fill-opacity="0.5"/>
    <circle cx="126.2169" cy="6.7613" r="0.6000" fill="#222222" fill-opacity="0.5"/>
    <circle cx="127.3855" cy="6.8239" r="0.6000" fill="#222222" fill-opacity="0.5"/>
    <circle cx="128.5542" cy="6.8865" r="0.6000" fill="#222222" fill-opacity="0.5"/>
    <circle cx="129.7229" cy="6.9491" r="0.6000" fill="#222222" fill-opacity="0.5"/>
    <circle cx="130.8916" cy="7.0117" r="0.6000" fill="#222222" fill-opacity="0.5"/>
    <circle cx="132.0602" cy="7.0743" r="0.6000" fill="#222222" fill-opacity="0.5"/>
    <circle cx="133.2289" cy="7.1369" r="0.6000" fill="#222222" fill-opacity="0.5"/>
    <circle cx="134.3976" cy="7.1995" r="0.6000" fill="#222222" fill-opacity="0.5"/>
    <circle cx="135.5663" cy="7.2621" r="0.6000" fill="#222222" fill-opacity="0.5"/>
    <circle cx="136.7349" cy="7.3247" r="0.6000" fill="#222222" fill-opacity="0.5"/>
    <circle cx="137.9036" cy="7.3873" r="0.6000" fill="#222222" fill-opacity="0.5"/>
    <circle cx="139.0723" cy="7.4499" r="0.6000" fill="#222222" fill-opacity="0.5"/>
    <circle cx="140.2410" cy="7.5125" r="0.6000" fill="#222222" fill-opacity="0.5"/>
    <circle cx="141.4096" cy="7.5751" r="0.6000" fill="#222222" fill-opacity="0.5"/>
    <circle cx="142.5783" cy="7.6377" r="0.6000" fill="#222222" fill-opacity="0.5"/>
    <circle cx="143.7470" cy="7.7003" r="0.6000" fill="#222222" fill-opacity="0.5"/>
    <circle cx="144.9157" cy="7.7629" r="0.6000" fill="#222222" fill-opacity="0.5"/>
    <circle cx="146.0843" cy="7.8255" r="0.6000" fill="#222222" fill-opacity="0.5"/>
    <circle cx="147.2530" cy="7.8881" r="0.6000" fill="#222222" fill-opacity="0.5"/>
    <circle cx="148.4217" cy="7.9507" r="0.6000" fill="#222222" fill-opacity="0.5"/>
    <circle cx="149.5904" cy="8.0133" r="0.6000" fill="#222222" fill-opacity="0.5"/>
    <circle cx="150.7590" cy="8.0759" r="0.6000" fill="#222222" fill-opacity="0.5"/>
    <circle cx="151.9277" cy="8.1386" r="0.6000" fill="#222222" fill-opacity="0.5"/>
    <circle cx="153.0964" cy="8.2012" r="0.6000" fill="#222222" fill-opacity="0.5"/>
    <circle cx="154.2651" cy="8.2638" r="0.6000" fill="#222222" fill-opacity="0.5"/>
    <circle cx="155.4337" cy="8.3264" r="0.6000" fill="#222222" fill-opacity="0.5"/>
    <circle cx="156.6024" cy="8.3890" r="0.6000" fill="#222222" fill-opacity="0.5"/>
    <circle cx="157.7711" cy="8.4516" r="0.6000" fill="#222222" fill-opacity="0.5"/>
    <circle cx="158.9398" cy="8.5142" r="0.6000" fill="#222222" fill-opacity="0.5"/>
    <circle cx="160.1084" cy="8.5768" r="0.6000" fill="#222222" fill-opacity="0.5"/>
    <circle cx="161.2771" cy="8.6394" r="0.6000" fill="#222222" fill-opacity="0.5"/>
    <circle cx="162.4458" cy="8.7020" r="0.6000" fill="#222222" fill-opacity="0.5"/>
    <circle cx="163.6145" cy="8.7646" r="0.6000" fill="#222222" fill-opacity="0.5"/>
    <circle cx="164.7831" cy="8.8272" r="0.6000" fill="#222222" fill-opacity="0.5"/>
    <circle cx="165.9518" cy="8.8898" r="0.6000" fill="#222222" fill-opacity="0.5"/>
    <circle cx="167.1205" cy="8.9524" r="0.6000" fill="#222222" fill-opacity="0.5"/>
    <circle cx="168.2892" cy="9.0150" r="0.6000" fill="#222222" fill-opacity="0.5"/>
    <circle cx="169.4578" cy="9.0776" r="0.6000" fill="#222222" fill-opacity="0.5"/>
    <circle cx="170.6265" cy="9.1402" r="0.6000" fill="#222222" fill-opacity="0.5"/>
    <circle cx="171.7952" cy="9.2028" r="0.6000" fill="#222222" fill-opacity="0.5"/>
    <circle cx="172.9639" cy="9.2654" r="0.6000" fill="#222222" fill-opacity="0.5"/>
    <circle cx="174.1325" cy="9.3280" r="0.6000" fill="#222222" fill-opacity="0.5"/>
    <circle cx="175.3012" cy="9.3906" r="0.6000" fill="#222222" fill-opacity="0.5"/>
    <circle cx="176.4699" cy="9.4532" r="0.6000" fill="#222222" fill-opacity="0.5"/>
    <circle cx="177.6386" cy="9.5158" r="0.6000" fill="#222222" fill-opacity="0.5"/>
    <circle cx="178.8072" cy="9.5784" r="0.6000" fill="#222222" fill-opacity="0.5"/>
    <circle cx="179.9759" cy="9.6411" r="0.6000" fill="#222222" fill-opacity="0.5"/>
    <circle cx="181.1446" cy="9.7037" r="0.6000" fill="#222222" fill-opacity="0.5"/>
    <circle cx="182.3133" cy="9.7663" r="0.6000" fill="#222222" fill-opacity="0.5"/>
    <circle cx="183.4819" cy="9.8289" r="0.6000" fill="#222222" fill-opacity="0.5"/>
    <circle cx="184.6506" cy="9.8915" r="0.6000" fill="#222222" fill-opacity="0.5"/>
    <circle cx="185.8193" cy="9.9541" r="0.6000" fill="#222222" fill-opacity="0.5"/>
    <circle cx="186.9880" cy="10.0167" r="0.6000" fill="#222222" fill-opacity="0.5"/>
    <circle cx="188.1566" cy="10.0793" r="0.6000" fill="#222222" fill-opacity="0.5"/>
    <circle cx="189.3253" cy="10.1419" r="0.6000" fill="#222222" fill-opacity="0.5"/>
    <circle cx="190.4940" cy="10.2045" r="0.6000" fill="#222222" fill-opacity="0.5"/>
    <circle cx="191.6627" cy="10.2671" r="0.6000" fill="#222222" fill-opacity="0.5"/>
    <circle cx="192.8313" cy="10.3297" r="0.6000" fill="#222222" fill-opacity="0.5"/>
    <circle cx="194.0000" cy="10.3923" r="0.6000" fill="#222222" fill-opacity="0.5"/>
    <circle cx="195.1687" cy="10.4549" r="0.6000" fill="#222222" fill-opacity="0.5"/>
    <circle cx="196.3373" cy="10.5175" r="0.6000" fill="#222222" fill-opacity="0.5"/>
    <circle cx="197.5060" cy="10.5801" r="0.6000" fill="#222222" fill-opacity="0.5"/>
    <circle cx="198.6747" cy="10.6427" r="0.6000" fill="#222222" fill-opacity="0.5"/>
    <circle cx="199.8434" cy="10.7053" r="0.6000" fill="#222222" fill-opacity="0.5"/>
    <circle cx="201.0120" cy="10.7679" r="0.6000" fill="#222222" fill-opacity="0.5"/>
    <circle cx="202.1807" cy="10.8305" r="0.6000" fill="#222222" fill-opacity="0.5"/>
    <circle cx="203.3494" cy="10.8931" r="0.6000" fill="#222222" fill-opacity="0.5"/>
    <circle cx="204.5181" cy="10.9557" r="0.6000" fill="#222222" fill-opacity="0.5"/>
    <circle cx="205.6867" cy="11.0183" r="0.6000" fill="#222222" fill-opacity="0.5"/>
    <circle cx="206.8554" cy="11.0810" r="0.6000" fill="#222222" fill-opacity="0.5"/>
    <circle cx="208.0241" cy="11.1436" r="0.6000" fill="#222222" fill-opacity="0.5"/>
    <circle cx="209.1928" cy="11.2062" r="0.6000" fill="#222222" fill-opacity="0.5"/>
    <circle cx="210.3614" cy="11.2688" r="0.6000" fill="#222222" fill-opacity="0.5"/>
    <circle cx="211.5301" cy="11.3314" r="0.6000" fill="#222222" fill-opacity="0.5"/>
    <circle cx="212.6988" cy="11.3940" r="0.6000" fill="#222222" fill-opacity="0.5"/>
    <circle cx="213.8675" cy="11.4566" r="0.6000" fill="#222222" fill-opacity="0.5"/>
    <circle cx="215.0361" cy="11.5192" r="0.6000" fill="#222222" fill-opacity="0.5"/>
    <circle cx="216.2048" cy="11.5818" r="0.6000" fill="#222222" fill-opacity="0.5"/>
    <circle cx="217.3735" cy="11.6444" r="0.6000" fill="#222222" fill-opacity="0.5"/>
    <circle cx="218.5422" cy="11.7070" r="0.6000" fill="#222222" fill-opacity="0.5"/>
    <circle cx="219.7108" cy="11.7696" r="0.6000" fill="#222222" fill-opacity="0.5"/>
    <circle cx="220.8795" cy="11.8322" r="0.6000" fill="#222222" fill-opacity="0.5"/>
    <circle cx="222.0482" cy="11.8948" r="0.6000" fill="#222222" fill-opacity="0.5"/>
    <circle cx="223.2169" cy="11.9574" r="0.6000" fill="#222222" fill-opacity="0.5"/>
    <circle cx="224.3855" cy="12.0200" r="0.6000" fill="#222222" fill-opacity="0.5"/>
    <circle cx="225.5542" cy="12.0826" r="0.6000" fill="#222222" fill-opacity="0.5"/>
    <circle cx="226.7229" cy="12.1452" r="0.6000" fill="#222222" fill-opacity="0.5"/>
    <circle cx="227.8916" cy="12.2078" r="0.6000" fill="#222222" fill-opacity="0.5"/>
    <circle cx="229.0602" cy="12.2704" r="0.6000" fill="#222222" fill-opacity="0.5"/>
    <circle cx="230.2289" cy="12.3330" r="0.6000" fill="#222222" fill-opacity="0.5"/>
    <circle cx="231.3976" cy="12.3956" r="0.6000" fill="#222222" fill-opacity="0.5"/>
    <circle cx="232.5663" cy="12.4582" r="0.6000" fill="#222222" fill-opacity="0.5"/>
    <circle cx="233.7349" cy="12.5208" r="0.6000" fill="#222222" fill-opacity="0.5"/>
    <circle cx="234.9036" cy="12.5835" r="0.6000" fill="#222222" fill-opacity="0.5"/>
    <circle cx="236.0723" cy="12.6461" r="0.6000" fill="#222222" fill-opacity="0.5"/>
    <circle cx="237.2410" cy="12.7087" r="0.6000" fill="#222222" fill-opacity="0.5"/>
    <circle cx="238.4096" cy="12.7713" r="0.6000" fill="#222222" fill-opacity="0.5"/>
    <circle cx="239.5783" cy="12.8339" r="0.6000" fill="#222222" fill-opacity="0.5"/>
    <circle cx="240.7470" cy="12.8965" r="0.6000" fill="#222222" fill-opacity="0.5"/>
    <circle cx="241.9157" cy="12.9591" r="0.6000" fill="#222222" fill-opacity="0.5"/>
    <circle cx="243.0843" cy="13.0217" r="0.6000" fill="#222222" fill-opacity="0.5"/>
    <circle cx="244.2530" cy="13.0843" r="0.6000" fill="#222222" fill-opacity="0.5"/>
    <circle cx="245.4217" cy="13.1469" r="0.6000" fill="#222222" fill-opacity="0.5"/>
    <circle cx="246.5904" cy="13.2095" r="0.6000" fill="#222222" fill-opacity="0.5"/>
    <circle cx="247.7590" cy="13.2721" r="0.6000" fill="#222222" fill-opacity="0.5"/>
    <circle cx="248.9277" cy="13.3347" r="0.6000" fill="#222222" fill-opacity="0.5"/>
    <circle cx="250.0964" cy="13.3973" r="0.6000" fill="#222222" fill-opacity="0.5"/>
    <circle cx="251.2651" cy="13.4599" r="0.6000" fill="#222222" fill-opacity="0.5"/>
    <circle cx="252.4337" cy="13.5225" r="0.6000" fill="#222222" fill-opacity="0.5"/>
    <circle cx="253.6024" cy="13.5851" r="0.6000" fill="#222222" fill-opacity="0.5"/>
    <circle cx="254.7711" cy="13.6477" r="0.6000" fill="#222222" fill-opacity="0.5"/>
    <circle cx="255.9398" cy="13.7103" r="0.6000" fill="#222222" fill-opacity="0.5"/>
    <circle cx="257.1084" cy="13.7729" r="0.6000" fill="#222222" fill-opacity="0.5"/>
    <circle cx="258.2771" cy="13.8355" r="0.6000" fill="#222222" fill-opacity="0.5"/>
    <circle cx="259.4458" cy="13.8981" r="0.6000" fill="#222222" fill-opacity="0.5"/>
    <circle cx="260.6145" cy="13.9607" r="0.6000" fill="#222222" fill-opacity="0.5"/>
    <circle cx="261.7831" cy="14.0234" r="0.6000" fill="#222222" fill-opacity="0.5"/>
    <circle cx="262.9518" cy="14.0860" r="0.6000" fill="#222222" fill-opacity="0.5"/>
    <circle cx="264.1205" cy="14.1486" r="0.6000" fill="#222222" fill-opacity="0.5"/>
    <circle cx="265.2892" cy="14.2112" r="0.6000" fill="#222222" fill-opacity="0.5"/>
    <circle cx="266.4578" cy="14.2738" r="0.6000" fill="#222222" fill-opacity="0.5"/>
    <circle cx="267.6265" cy="14.3364" r="0.6000" fill="#222222" fill-opacity="0.5"/>
    <circle cx="268.7952" cy="14.3990" r="0.6000" fill="#222222" fill-opacity="0.5"/>
    <circle cx="269.9639" cy="14.4616" r="0.6000" fill="#222222" fill-opacity="0.5"/>
    <circle cx="271.1325" cy="14.5242" r="0.6000" fill="#222222" fill-opacity="0.5"/>
    <circle cx="272.3012" cy="14.5868" r="0.6000" fill="#222222" fill-opacity="0.5"/>
    <circle cx="273.4699" cy="14.6494" r="0.6000" fill="#222222" fill-opacity="0.5"/>
    <circle cx="274.6386" cy="14.7120" r="0.6000" fill="#222222" fill-opacity="0.5"/>
    <circle cx="275.8072" cy="14.7746" r="0.6000" fill="#222222" fill-opacity="0.5"/>
    <circle cx="276.9759" cy="14.8372" r="0.6000" fill="#222222" fill-opacity="0.5"/>
    <circle cx="278.1446" cy="14.8998" r="0.6000" fill="#222222" fill-opacity="0.5"/>
    <circle cx="279.3133" cy="14.9624" r="0.6000" fill="#222222" fill-opacity="0.5"/>
    <circle cx="280.4819" cy="15.0250" r="0.6000" fill="#222222" fill-opacity="0.5"/>
    <circle cx="281.6506" cy="15.0876" r="0.6000" fill="#222222" fill-opacity="0.5"/>
    <circle cx="282.8193" cy="15.1502" r="0.6000" fill="#222222" fill-opacity="0.5"/>
    <circle cx="283.9880" cy="15.2128" r="0.6000" fill="#222222" fill-opacity="0.5"/>
    <circle cx="285.1566" cy="15.2754" r="0.6000" fill="#222222" fill-opacity="0.5"/>
    <circle cx="286.3253" cy="15.3380" r="0.6000" fill="#222222" fill-opacity="0.5"/>
    <circle cx="287.4940" cy="15.4006" r="0.6000" fill="#222222" fill-opacity="0.5"/>
    <circle cx="288.6627" cy="15.4632" r="0.6000" fill="#222222" fill-opacity="0.5"/>
    <circle cx="289.8313" cy="15.5259" r="0.6000" fill="#222222" fill-opacity="0.5"/>
    <circle cx="291.0000" cy="15.5885" r="0.6000" fill="#222222" fill-opacity="0.5"/>
  <path fill="none" stroke="#8844ff" stroke-opacity="0.35" stroke-width="0.6" d="M -0.5250 0.9093 L 0.6247 1.0048 L 1.7744 1.1003 L 2.9241 1.1957 L 4.0738 1.2912 L 5.2235 1.3867 L 6.3732 1.4822 L 7.5229 1.5776 L 8.6726 1.6731 L 9.8223 1.7686 L 10.9720 1.8640 L 12.1217 1.9595 L 13.2714 2.0550 L 14.4211 2.1505 L 15.5708 2.2459 L 16.7205 2.3414 L 17.8702 2.4369 L 19.0199 2.5323 L 20.1696 2.6278 L 21.3193 2.7233 L 22.4690 2.8188 L 23.6187 2.9142 L 24.7684 3.0097 L 25.9181 3.1052 L 27.0678 3.2006 L 28.2175 3.2961 L 29.3672 3.3916 L 30.5169 3.4871 L 31.6666 3.5825 L 32.8163 3.6780 L 33.9660 3.7735 L 35.1157 3.8689 L 36.2654 3.9644 L 37.4151 4.0599 L 38.5648 4.1554 L 39.7145 4.2508 L 40.8642 4.3463 L 42.0139 4.4418 L 43.1636 4.5372 L 44.3133 4.6327 L 45.4630 4.7282 L 46.6127 4.8237 L 47.7623 4.9191 L 48.9120 5.0146 L 50.0617 5.1101 L 51.2114 5.2055 L 52.3611 5.3010 L 53.5108 5.3965 L 54.6605 5.4920 L 55.8102 5.5874 L 56.9599 5.6829 L 58.1096 5.7784 L 59.2593 5.8738 L 60.4090 5.9693 L 61.5587 6.0648 L 62.7084 6.1603 L 63.8581 6.2557 L 65.0078 6.3512 L 66.1575 6.4467 L 67.3072 6.5421 L 68.4569 6.6376 L 69.6066 6.7331 L 70.7563 6.8286 L 71.9060 6.9240 L 73.0557 7.0195 L 74.2054 7.1150 L 75.3551 7.2104 L 76.5048 7.3059 L 77.6545 7.4014 L 78.8042 7.4969 L 79.9539 7.5923 L 81.1036 7.6878 L 82.2533 7.7833 L 83.4030 7.8787 L 84.5527 7.9742 L 85.7024 8.0697 L 86.8521 8.1652 L 88.0018 8.2606 L 89.1515 8.3561 L 90.3012 8.4516 L 91.4509 8.5470 L 92.6006 8.6425 L 93.7503 8.7380 L 94.9000 8.8335 L 96.0497 8.9289 L 97.1994 9.0244 L 98.3491 9.1199 L 99.4988 9.2153 L 100.6485 9.3108 L 101.7982 9.4063 L 102.9479 9.5018 L 104.0976 9.5972 L 105.2473 9.6927 L 106.3970 9.7882 L 107.5467 9.8836 L 108.6964 9.9791 L 109.8461 10.0746 L 110.9958 10.1701 L 112.1455 10.2655 L 113.2952 10.3610 L 114.4449 10.4565 L 115.5946 10.5519 L 116.7443 10.6474 L 117.8940 10.7429 L 119.0437 10.8384 L 120.1934 10.9338 L 121.3431 11.0293 L 122.4928 11.1248 L 123.6425 11.2202 L 124.7922 11.3157 L 125.9419 11.4112 L 127.0916 11.5067 L 128.2413 11.6021 L 129.3910 11.6976 L 130.5407 11.7931 L 131.6904 11.8885 L 132.8401 11.9840 L 133.9898 12.0795 L 135.1395 12.1750 L 136.2892 12.2704 L 137.4389 12.3659 L 138.5886 12.4614 L 139.7383 12.5568 L 140.8880 12.6523 L 142.0377 12.7478 L 143.1873 12.8433 L 144.3370 12.9387 L 145.4867 13.0342 L 146.6364 13.1297 L 147.7861 13.2251 L 148.9358 13.3206 L 150.0855 13.4161 L 151.2352 13.5116 L 152.3849 13.6070 L 153.5346 13.7025 L 154.6843 13.7980 L 155.8340 13.8934 L 156.9837 13.9889 L 158.1334 14.0844 L 159.2831 14.1799 L 160.4328 14.2753 L 161.5825 14.3708 L 162.7322 14.4663 L 163.8819 14.5617 L 165.0316 14.6572 L 166.1813 14.7527 L 167.3310 14.8482 L 168.4807 14.9436 L 169.6304 15.0391 L 170.7801 15.1346 L 171.9298 15.2300 L 173.0795 15.3255 L 174.2292 15.4210 L 175.3789 15.5165 L 176.5286 15.6119 L 177.6783 15.7074 L 178.8280 15.8029 L 179.9777 15.8983 L 181.1274 15.9938 L 182.2771 16.0893 L 183.4268 16.1848 L 184.5765 16.2802 L 185.7262 16.3757 L 186.8759 16.4712 L 188.0256 16.5666 L 189.1753 16.6621 L 190.3250 16.7576 L 191.4747 16.8531 L 192.6244 16.9485 L 193.7741 17.0440 L 194.9238 17.1395 L 196.0735 17.2349 L 197.2232 17.3304 L 198.3729 17.4259 L 199.5226 17.5214 L 200.6723 17.6168 L 201.8220 17.7123 L 202.9717 17.8078 L 204.1214 17.9032 L 205.2711 17.9987 L 206.4208 18.0942 L 207.5705 18.1897 L 208.7202 18.2851 L 209.8699 18.3806 L 211.0196 18.4761 L 212.1693 18.5715 L 213.3190 18.6670 L 214.4687 18.7625 L 215.6184 18.8580 L 216.7681 18.9534 L 217.9178 19.0489 L 219.0675 19.1444 L 220.2172 19.2398 L 221.3669 19.3353 L 222.5166 19.4308 L 223.6663 19.5263 L 224.8160 19.6217 L 225.9657 19.7172 L 227.1154 19.8127 L 228.2651 19.9082 L 229.4148 20.0036 L 230.5645 20.0991 L 231.7142 20.1946 L 232.8639 20.2900 L 234.0136 20.3855 L 235.1633 20.4810 L 236.3130 20.5765 L 237.4627 20.6719 L 238.6123 20.7674 L 239.7620 20.8629 L 240.9117 20.9583 L 242.0614 21.0538 L 243.2111 21.1493 L 244.3608 21.2448 L 245.5105 21.3402 L 246.6602 21.4357 L 247.8099 21.5312 L 248.9596 21.6266 L 250.1093 21.7221 L 251.2590 21.8176 L 252.4087 21.9131 L 253.5584 22.0085 L 254.7081 22.1040 L 255.8578 22.1995 L 257.0075 22.2949 L 258.1572 22.3904 L 259.3069 22.4859 L 260.4566 22.5814 L 261.6063 22.6768 L 262.7560 22.7723 L 263.9057 22.8678 L 265.0554 22.9632 L 266.2051 23.0587 L 267.3548 23.1542 L 268.5045 23.2497 L 269.6542 23.3451 L 270.8039 23.4406 L 271.9536 23.5361 L 273.1033 23.6315 L 274.2530 23.7270 L 275.4027 23.8225 L 276.5524 23.9180 L 277.7021 24.0134 L 278.8518 24.1089 L 280.0015 24.2044 L 281.1512 24.2998 L 282.3009 24.3953 L 283.4506 24.4908 L 284.6003 24.5863 L 285.7500 24.6817 L 296.2500 6.4952 L 295.0623 6.4655 L 293.8747 6.4357 L 292.6870 6.4060 L 291.4994 6.3762 L 290.3117 6.3465 L 289.1241 6.3168 L 287.9364 6.2870 L 286.7488 6.2573 L 285.5611 6.2276 L 284.3735 6.1978 L 283.1858 6.1681 L 281.9982 6.1383 L 280.8105 6.1086 L 279.6229 6.0789 L 278.4352 6.0491 L 277.2476 6.0194 L 276.0599 5.9897 L 274.8723 5.9599 L 273.6846 5.9302 L 272.4970 5.9005 L 271.3093 5.8707 L 270.1217 5.8410 L 268.9340 5.8112 L 267.7464 5.7815 L 266.5587 5.7518 L 265.3711 5.7220 L 264.1834 5.6923 L 262.9958 5.6626 L 261.8081 5.6328 L 260.6205 5.6031 L 259.4328 5.5733 L 258.2452 5.5436 L 257.0575 5.5139 L 255.8699 5.4841 L 254.6822 5.4544 L 253.4946 5.4247 L 252.3069 5.3949 L 251.1193 5.3652 L 249.9316 5.3354 L 248.7440 5.3057 L 247.5563 5.2760 L 246.3687 5.2462 L 245.1810 5.2165 L 243.9934 5.1868 L 242.8057 5.1570 L 241.6181 5.1273 L 240.4304 5.0976 L 239.2428 5.0678 L 238.0551 5.0381 L 236.8675 5.0083 L 235.6798 4.9786 L 234.4922 4.9489 L 233.3045 4.9191 L 232.1169 4.8894 L 230.9292 4.8597 L 229.7416 4.8299 L 228.5539 4.8002 L 227.3663 4.7704 L 226.1786 4.7407 L 224.9910 4.7110 L 223.8033 4.6812 L 222.6157 4.6515 L 221.4280 4.6218 L 220.2404 4.5920 L 219.0527 4.5623 L 217.8651 4.5325 L 216.6774 4.5028 L 215.4898 4.4731 L 214.3021 4.4433 L 213.1145 4.4136 L 211.9268 4.3839 L 210.7392 4.3541 L 209.5515 4.3244 L 208.3639 4.2947 L 207.1762 4.2649 L 205.9886 4.2352 L 204.8009 4.2054 L 203.6133 4.1757 L 202.4256 4.1460 L 201.2380 4.1162 L 200.0503 4.0865 L 198.8627 4.0568 L 197.6750 4.0270 L 196.4873 3.9973 L 195.2997 3.9675 L 194.1120 3.9378 L 192.9244 3.9081 L 191.7367 3.8783 L 190.5491 3.8486 L 189.3614 3.8189 L 188.1738 3.7891 L 186.9861 3.7594 L 185.7985 3.7296 L 184.6108 3.6999 L 183.4232 3.6702 L 182.2355 3.6404 L 181.0479 3.6107 L 179.8602 3.5810 L 178.6726 3.5512 L 177.4849 3.5215 L 176.2973 3.4918 L 175.1096 3.4620 L 173.9220 3.4323 L 172.7343 3.4025 L 171.5467 3.3728 L 170.3590 3.3431 L 169.1714 3.3133 L 167.9837 3.2836 L 166.7961 3.2539 L 165.6084 3.2241 L 164.4208 3.1944 L 163.2331 3.1646 L 162.0455 3.1349 L 160.8578 3.1052 L 159.6702 3.0754 L 158.4825 3.0457 L 157.2949 3.0160 L 156.1072 2.9862 L 154.9196 2.9565 L 153.7319 2.9267 L 152.5443 2.8970 L 151.3566 2.8673 L 150.1690 2.8375 L 148.9813 2.8078 L 147.7937 2.7781 L 146.6060 2.7483 L 145.4184 2.7186 L 144.2307 2.6889 L 143.0431 2.6591 L 141.8554 2.6294 L 140.6678 2.5996 L 139.4801 2.5699 L 138.2925 2.5402 L 137.1048 2.5104 L 135.9172 2.4807 L 134.7295 2.4510 L 133.5419 2.4212 L 132.3542 2.3915 L 131.1666 2.3617 L 129.9789 2.3320 L 128.7913 2.3023 L 127.6036 2.2725 L 126.4160 2.2428 L 125.2283 2.2131 L 124.0407 2.1833 L 122.8530 2.1536 L 121.6654 2.1238 L 120.4777 2.0941 L 119.2901 2.0644 L 118.1024 2.0346 L 116.9148 2.0049 L 115.7271 1.9752 L 114.5395 1.9454 L 113.3518 1.9157 L 112.1642 1.8860 L 110.9765 1.8562 L 109.7889 1.8265 L 108.6012 1.7967 L 107.4136 1.7670 L 106.2259 1.7373 L 105.0383 1.7075 L 103.8506 1.6778 L 102.6630 1.6481 L 101.4753 1.6183 L 100.2877 1.5886 L 99.1000 1.5588 L 97.9123 1.5291 L 96.7247 1.4994 L 95.5370 1.4696 L 94.3494 1.4399 L 93.1617 1.4102 L 91.9741 1.3804 L 90.7864 1.3507 L 89.5988 1.3209 L 88.4111 1.2912 L 87.2235 1.2615 L 86.0358 1.2317 L 84.8482 1.2020 L 83.6605 1.1723 L 82.4729 1.1425 L 81.2852 1.1128 L 80.0976 1.0831 L 78.9099 1.0533 L 77.7223 1.0236 L 76.5346 0.9938 L 75.3470 0.9641 L 74.1593 0.9344 L 72.9717 0.9046 L 71.7840 0.8749 L 70.5964 0.8452 L 69.4087 0.8154 L 68.2211 0.7857 L 67.0334 0.7559 L 65.8458 0.7262 L 64.6581 0.6965 L 63.4705 0.6667 L 62.2828 0.6370 L 61.0952 0.6073 L 59.9075 0.5775 L 58.7199 0.5478 L 57.5322 0.5181 L 56.3446 0.4883 L 55.1569 0.4586 L 53.9693 0.4288 L 52.7816 0.3991 L 51.5940 0.3694 L 50.4063 0.3396 L 49.2187 0.3099 L 48.0310 0.2802 L 46.8434 0.2504 L 45.6557 0.2207 L 44.4681 0.1909 L 43.2804 0.1612 L 42.0928 0.1315 L 40.9051 0.1017 L 39.7175 0.0720 L 38.5298 0.0423 L 37.3422 0.0125 L 36.1545 -0.0172 L 34.9669 -0.0470 L 33.7792 -0.0767 L 32.5916 -0.1064 L 31.4039 -0.1362 L 30.2163 -0.1659 L 29.0286 -0.1956 L 27.8410 -0.2254 L 26.6533 -0.2551 L 25.4657 -0.2848 L 24.2780 -0.3146 L 23.0904 -0.3443 L 21.9027 -0.3741 L 20.7151 -0.4038 L 19.5274 -0.4335 L 18.3398 -0.4633 L 17.1521 -0.4930 L 15.9645 -0.5227 L 14.7768 -0.5525 L 13.5892 -0.5822 L 12.4015 -0.6120 L 11.2139 -0.6417 L 10.0262 -0.6714 L 8.8386 -0.7012 L 7.6509 -0.7309 L 6.4633 -0.7606 L 5.2756 -0.7904 L 4.0880 -0.8201 L 2.9003 -0.8499 L 1.7127 -0.8796 L 0.5250 -0.9093 L -0.5250 0.9093 Z"/>
  
  
  
</g>
</svg>