<svg xmlns="http://www.w3.org/2000/svg" width="360.5045" height="242.3114" viewBox="-14.2823 -117.1948 360.5045 242.3114">
  <path fill="black" stroke="none" fill-rule="evenodd" d="M -4.2823 1.4513 L -4.2654 1.9949 L -4.2074 2.5193 L -4.1089 3.0194 L -3.9708 3.4905 L -3.7945 3.9279 L -3.6114 4.2718 L -3.6061 4.3193 L -3.5076 4.8194 L -3.3695 5.2905 L -3.1932 5.7280 L -3.0118 6.0686 L -3.0082 6.1013 L -2.9097 6.6015 L -2.7716 7.0726 L -2.5953 7.5102 L -2.4156 7.8476 L -2.4136 7.8652 L -2.3151 8.3656 L -2.1770 8.8368 L -2.0007 9.2744 L -1.8226 9.6087 L -1.8224 9.6112 L -1.7239 10.1116 L -1.5858 10.5830 L -1.4094 11.0208 L -1.2312 11.3554 L -1.1359 11.8397 L -0.9978 12.3113 L -0.8214 12.7492 L -0.6426 13.0850 L -0.5512 13.5498 L -0.4130 14.0216 L -0.2366 14.4597 L -0.0572 14.7967 L 0.0303 15.2418 L 0.1685 15.7139 L 0.3450 16.1523 L 0.5251 16.4907 L 0.6087 16.9159 L 0.7469 17.3882 L 0.9234 17.8269 L 1.1044 18.1669 L 1.1839 18.5719 L 1.3221 19.0446 L 1.4987 19.4836 L 1.6805 19.8253 L 1.7560 20.2099 L 1.8942 20.6830 L 2.0709 21.1223 L 2.2536 21.4659 L 2.3250 21.8299 L 2.4633 22.3034 L 2.6401 22.7431 L 2.8238 23.0887 L 2.8910 23.4319 L 3.0294 23.9058 L 3.2062 24.3460 L 3.3910 24.6937 L 3.4540 25.0159 L 3.5924 25.4903 L 3.7694 25.9309 L 3.9552 26.2808 L 4.0141 26.5818 L 4.1525 27.0567 L 4.3296 27.4978 L 4.5166 27.8501 L 4.5712 28.1297 L 4.7097 28.6052 L 4.8869 29.0468 L 5.0751 29.4016 L 5.1255 29.6596 L 5.2641 30.1356 L 5.4413 30.5777 L 5.6309 30.9352 L 5.6769 31.1714 L 5.8155 31.6480 L 5.9929 32.0908 L 6.1838 32.4509 L 6.2255 32.6652 L 6.3642 33.1424 L 6.5417 33.5858 L 6.7340 33.9488 L 6.7713 34.1409 L 6.9101 34.6189 L 7.0877 35.0628 L 7.2815 35.4288 L 7.3145 35.5986 L 7.4533 36.0772 L 7.6311 36.5219 L 7.8263 36.8910 L 7.8549 37.0382 L 7.9938 37.5176 L 8.1717 37.9629 L 8.3685 38.3352 L 8.3926 38.4598 L 8.5316 38.9399 L 8.7097 39.3860 L 8.9081 39.7616 L 8.9278 39.8633 L 9.0669 40.3442 L 9.2450 40.7910 L 9.4452 41.1700 L 9.4604 41.2487 L 9.5995 41.7304 L 9.7778 42.1780 L 9.9797 42.5606 L 9.9904 42.6161 L 10.1296 43.0986 L 10.3081 43.5470 L 10.5117 43.9332 L 10.5179 43.9653 L 10.6572 44.4488 L 10.8359 44.8980 L 11.0413 45.2879 L 11.0430 45.2966 L 11.1824 45.7809 L 11.3612 46.2309 L 11.5717 46.6307 L 11.7051 47.0949 L 11.8841 47.5458 L 12.1009 47.9579 L 12.1013 47.9586 L 12.2254 48.3909 L 12.4046 48.8426 L 12.6216 49.2556 L 12.6274 49.2640 L 12.7434 49.6688 L 12.9228 50.1214 L 13.1401 50.5352 L 13.1511 50.5515 L 13.2591 50.9286 L 13.4386 51.3821 L 13.6562 51.7968 L 13.6726 51.8210 L 13.7725 52.1703 L 13.9522 52.6248 L 14.1700 53.0404 L 14.1919 53.0725 L 14.2837 53.3939 L 14.4636 53.8494 L 14.6817 54.2659 L 14.7090 54.3060 L 14.7927 54.5995 L 14.9728 55.0559 L 15.1911 55.4733 L 15.2240 55.5216 L 15.2995 55.7869 L 15.4798 56.2444 L 15.6984 56.6626 L 15.7369 56.7192 L 15.8043 56.9563 L 15.9847 57.4147 L 16.2036 57.8339 L 16.2476 57.8987 L 16.3069 58.1075 L 16.4875 58.5670 L 16.7068 58.9871 L 16.7564 59.0603 L 16.8075 59.2406 L 16.9883 59.7011 L 17.2078 60.1222 L 17.2632 60.2039 L 17.3061 60.3556 L 17.4871 60.8171 L 17.7069 61.2393 L 17.7680 61.3294 L 17.8028 61.4525 L 17.9840 61.9151 L 18.2041 62.3382 L 18.2709 62.4369 L 18.2975 62.5312 L 18.4789 62.9949 L 18.6993 63.4190 L 18.7719 63.5264 L 18.7903 63.5919 L 18.9720 64.0566 L 19.1926 64.4817 L 19.2711 64.5978 L 19.2813 64.6343 L 19.4632 65.1001 L 19.6841 65.5263 L 19.7684 65.6511 L 19.7705 65.6586 L 19.9525 66.1255 L 20.1738 66.5527 L 20.2696 66.6947 L 20.4402 67.1328 L 20.6618 67.5610 L 20.7710 67.7231 L 20.9261 68.1219 L 21.1480 68.5512 L 21.2707 68.7335 L 21.4103 69.0929 L 21.6325 69.5232 L 21.7688 69.7259 L 21.8929 70.0457 L 22.1154 70.4770 L 22.2653 70.7002 L 22.3738 70.9804 L 22.5966 71.4127 L 22.7602 71.6564 L 22.8532 71.8969 L 23.0763 72.3303 L 23.2535 72.5946 L 23.3310 72.7952 L 23.5544 73.2296 L 23.7454 73.5146 L 23.8074 73.6753 L 24.0311 74.1108 L 24.2358 74.4166 L 24.2822 74.5372 L 24.5063 74.9738 L 24.7247 75.3006 L 24.7557 75.3810 L 24.9800 75.8186 L 25.2123 76.1664 L 25.2278 76.2065 L 25.4524 76.6452 L 25.6987 77.0143 L 25.9234 77.4536 L 26.1867 77.8485 L 26.1976 77.8611 L 26.3931 78.2438 L 26.6569 78.6397 L 26.6881 78.6759 L 26.8616 79.0158 L 27.1257 79.4127 L 27.1774 79.4726 L 27.3288 79.7696 L 27.5933 80.1674 L 27.6654 80.2511 L 27.7948 80.5051 L 28.0597 80.9039 L 28.1523 81.0115 L 28.2596 81.2225 L 28.5249 81.6222 L 28.6380 81.7537 L 28.7233 81.9215 L 28.9890 82.3223 L 29.1227 82.4778 L 29.1860 82.6024 L 29.4520 83.0041 L 29.6063 83.1837 L 29.6475 83.2650 L 29.9140 83.6677 L 30.0888 83.8715 L 30.1081 83.9094 L 30.3749 84.3130 L 30.5741 84.5454 L 30.8348 84.9400 L 31.0840 85.2309 L 31.2938 85.5488 L 31.5930 85.8984 L 31.7519 86.1394 L 32.0569 86.4961 L 32.0816 86.5182 L 32.2091 86.7117 L 32.5145 87.0692 L 32.5670 87.1162 L 32.6654 87.2657 L 32.9713 87.6240 L 33.0516 87.6960 L 33.1209 87.8014 L 33.4273 88.1606 L 33.5354 88.2576 L 33.5757 88.3189 L 33.8825 88.6789 L 34.0184 88.8009 L 34.0297 88.8181 L 34.3369 89.1789 L 34.5231 89.3462 L 34.7906 89.6606 L 35.0414 89.8862 L 35.2436 90.1240 L 35.5590 90.4079 L 35.6960 90.5692 L 36.0393 90.8784 L 36.0594 90.8920 L 36.1477 90.9960 L 36.4915 91.3060 L 36.5469 91.3433 L 36.5989 91.4046 L 36.9432 91.7152 L 37.0338 91.7764 L 37.0495 91.7949 L 37.3942 92.1062 L 37.5451 92.2081 L 37.8448 92.4789 L 38.0749 92.6344 L 38.2948 92.8332 L 38.6042 93.0425 L 38.7443 93.1693 L 39.1225 93.4253 L 39.1281 93.4280 L 39.1934 93.4871 L 39.5721 93.7436 L 39.6204 93.7669 L 39.6421 93.7866 L 40.0213 94.0437 L 40.1376 94.0999 L 40.4701 94.3255 L 40.6800 94.4270 L 40.9185 94.5889 L 41.2219 94.7359 L 41.3666 94.8342 L 41.7635 95.0266 L 41.8144 95.0611 L 42.2243 95.2600 L 42.2734 95.2754 L 42.6723 95.4691 L 42.8283 95.5182 L 43.1200 95.6600 L 43.3829 95.7428 L 43.5675 95.8326 L 43.9372 95.9492 L 44.0148 95.9870 L 44.4519 96.1250 L 44.4845 96.1303 L 44.8996 96.2615 L 45.0509 96.2860 L 45.3471 96.3797 L 45.6171 96.4236 L 45.7944 96.4798 L 46.1830 96.5431 L 46.2416 96.5617 L 46.7021 96.6368 L 46.7672 96.6382 L 47.1498 96.7008 L 47.3436 96.7049 L 47.5975 96.7465 L 47.9197 96.7536 L 48.0451 96.7742 L 48.5242 96.7848 L 48.5275 96.7845 L 48.9724 96.7945 L 49.1120 96.7790 L 49.4206 96.7860 L 49.6965 96.7555 L 49.8688 96.7595 L 50.2808 96.7140 L 50.3171 96.7148 L 50.8112 96.6604 L 50.9148 96.6357 L 51.2603 96.5978 L 51.5052 96.5395 L 51.7095 96.5171 L 52.0956 96.4253 L 52.1588 96.4184 L 52.6628 96.2988 L 52.7421 96.2700 L 53.1130 96.1820 L 53.3360 96.1011 L 53.5635 96.0473 L 53.9301 95.9145 L 54.0141 95.8946 L 54.5235 95.7102 L 54.5826 95.6814 L 54.9752 95.5394 L 55.1776 95.4408 L 55.4272 95.3507 L 55.7729 95.1825 L 55.8796 95.1440 L 56.3897 94.8961 L 56.4249 94.8745 L 56.8433 94.6712 L 57.0186 94.5637 L 57.2974 94.4285 L 57.6127 94.2353 L 57.7518 94.1679 L 58.2580 93.8580 L 58.2582 93.8579 L 58.7140 93.5792 L 58.8484 93.4792 L 59.1704 93.2825 L 59.4390 93.0828 L 59.6274 92.9679 L 60.0301 92.6689 L 60.0849 92.6355 L 60.5839 92.2654 L 60.6580 92.2000 L 61.0432 91.9146 L 61.2433 91.7383 L 61.5031 91.5460 L 61.8293 91.2590 L 61.9637 91.1596 L 62.4158 90.7622 L 62.4250 90.7554 L 62.9125 90.3274 L 63.0195 90.2172 L 63.3759 89.9047 L 63.5987 89.6757 L 63.8400 89.4642 L 64.1786 89.1165 L 64.3051 89.0059 L 64.7595 88.5399 L 64.7710 88.5298 L 65.2426 88.0467 L 65.3360 87.9355 L 65.7109 87.5519 L 65.9082 87.3173 L 66.1802 87.0394 L 66.4815 86.6816 L 66.6504 86.5091 L 67.0558 86.0284 L 67.1217 85.9611 L 67.5735 85.4260 L 67.6064 85.3808 L 68.0475 84.8590 L 68.1714 84.6893 L 68.5227 84.2743 L 68.7376 83.9803 L 68.9990 83.6719 L 69.3051 83.2537 L 69.4766 83.0517 L 69.8740 82.5095 L 69.9554 82.4139 L 70.3851 81.8286 L 70.4126 81.7852 L 70.4355 81.7583 L 70.8670 81.1715 L 70.9526 81.0365 L 71.3503 80.4966 L 71.5136 80.2397 L 71.8350 79.8041 L 72.0762 79.4252 L 72.3212 79.0938 L 72.6405 78.5932 L 72.8088 78.3659 L 73.2065 77.7435 L 73.2979 77.6203 L 73.7041 76.9860 L 73.7361 76.9277 L 73.7886 76.8570 L 74.1968 76.2207 L 74.2640 76.0988 L 74.2809 76.0761 L 74.6913 75.4377 L 74.8091 75.2243 L 75.1874 74.6371 L 75.3700 74.3070 L 75.6852 73.8187 L 75.9330 73.3720 L 76.1848 72.9828 L 76.4980 72.4193 L 76.6861 72.1292 L 77.0652 71.4490 L 77.1893 71.2579 L 77.5712 70.5743 L 77.5996 70.5146 L 77.6944 70.3691 L 78.0787 69.6828 L 78.1359 69.5629 L 78.2013 69.4627 L 78.5882 68.7737 L 78.6743 68.5935 L 78.7102 68.5387 L 79.0996 67.8470 L 79.2149 67.6065 L 79.2211 67.5971 L 79.6132 66.9026 L 79.7766 66.5626 L 80.1288 65.9406 L 80.3456 65.4909 L 80.6465 64.9610 L 80.9173 64.4013 L 81.1664 63.9638 L 81.4915 63.2939 L 81.6885 62.9491 L 82.0467 62.2136 L 82.0563 62.1901 L 82.2129 61.9168 L 82.5739 61.1779 L 82.6065 61.0983 L 82.7395 60.8670 L 83.1035 60.1246 L 83.1594 59.9887 L 83.2685 59.7997 L 83.6355 59.0537 L 83.7150 58.8613 L 83.7998 58.7149 L 84.1700 57.9653 L 84.2733 57.7162 L 84.3335 57.6126 L 84.7069 56.8593 L 84.8344 56.5533 L 84.8696 56.4929 L 85.2464 55.7357 L 85.3983 55.3726 L 85.4082 55.3557 L 85.7885 54.5946 L 85.9770 54.1461 L 86.3332 53.4360 L 86.5664 52.8836 L 86.8805 52.2600 L 87.1591 51.6031 L 87.4305 51.0664 L 87.7552 50.3045 L 87.9833 49.8555 L 88.3266 49.0536 L 88.3387 49.0194 L 88.5389 48.6271 L 88.8859 47.8205 L 88.9167 47.7335 L 89.0972 47.3813 L 89.4481 46.5700 L 89.4981 46.4296 L 89.6585 46.1182 L 90.0132 45.3020 L 90.0828 45.1080 L 90.2226 44.8377 L 90.5814 44.0165 L 90.6709 43.7684 L 90.7897 43.5399 L 91.1527 42.7136 L 91.2625 42.4111 L 91.3598 42.2248 L 91.7270 41.3933 L 91.8576 41.0358 L 91.9329 40.8924 L 92.3046 40.0556 L 92.4563 39.6428 L 92.5090 39.5428 L 92.8853 38.7006 L 93.0587 38.2319 L 93.0883 38.1760 L 93.4693 37.3282 L 93.6648 36.8032 L 93.6707 36.7920 L 94.0565 35.9385 L 94.2877 35.3218 L 94.6471 34.5315 L 94.9193 33.8105 L 95.2411 33.1073 L 95.5553 32.2807 L 95.8385 31.6659 L 96.1796 30.7749 L 96.1864 30.7529 L 96.4393 30.2073 L 96.7855 29.3098 L 96.8087 29.2351 L 97.0437 28.7315 L 97.3950 27.8274 L 97.4352 27.6994 L 97.6515 27.2386 L 98.0082 26.3278 L 98.0658 26.1456 L 98.2630 25.7287 L 98.6252 24.8109 L 98.7009 24.5739 L 98.8781 24.2016 L 99.2460 23.2768 L 99.3402 22.9843 L 99.4969 22.6576 L 99.8706 21.7256 L 99.9841 21.3767 L 100.1194 21.0966 L 100.4991 20.1573 L 100.6324 19.7512 L 100.7456 19.5186 L 101.1316 18.5718 L 101.2854 18.1078 L 101.3757 17.9237 L 101.7680 16.9693 L 101.9431 16.4465 L 102.0095 16.3120 L 102.4085 15.3498 L 102.6055 14.7673 L 102.6472 14.6834 L 103.0530 13.7134 L 103.2727 13.0703 L 103.2889 13.0381 L 103.7016 12.0600 L 103.9519 11.3348 L 104.3544 10.3897 L 104.6479 9.5485 L 105.0114 8.7026 L 105.3496 7.7433 L 105.6726 6.9987 L 106.0358 5.9796 L 106.0446 5.9482 L 106.3381 5.2780 L 106.7086 4.2498 L 106.7342 4.1597 L 107.0079 3.5406 L 107.3858 2.5032 L 107.4291 2.3532 L 107.6820 1.7866 L 108.0677 0.7398 L 108.1216 0.5556 L 108.3568 0.0337 L 108.7504 -1.0226 L 108.8071 -1.2139 L 109.0286 -1.7004 L 109.4301 -2.7661 L 109.4894 -2.9636 L 109.6972 -3.4156 L 110.1068 -4.4907 L 110.1686 -4.6936 L 110.3628 -5.1120 L 110.7805 -6.1965 L 110.8445 -6.4040 L 111.0253 -6.7896 L 111.4513 -7.8834 L 111.5172 -8.0946 L 111.6847 -8.4484 L 112.1190 -9.5515 L 112.1867 -9.7655 L 112.3410 -10.0885 L 112.7837 -11.2008 L 112.8529 -11.4168 L 112.9942 -11.7098 L 113.4454 -12.8314 L 113.5159 -13.0483 L 113.6444 -13.3123 L 114.1042 -14.4431 L 114.1755 -14.6602 L 114.2915 -14.8962 L 114.7599 -16.0361 L 114.8318 -16.2524 L 114.9355 -16.4614 L 115.4126 -17.6103 L 115.4849 -17.8250 L 115.5764 -18.0079 L 116.0623 -19.1658 L 116.1345 -19.3779 L 116.2143 -19.5358 L 116.7089 -20.7026 L 116.7809 -20.9111 L 116.8492 -21.0450 L 117.3526 -22.2208 L 117.4238 -22.4247 L 117.4809 -22.5357 L 117.9933 -23.7202 L 118.0634 -23.9188 L 118.1097 -24.0078 L 118.6310 -25.2010 L 118.6997 -25.3932 L 118.7354 -25.4613 L 119.2657 -26.6632 L 119.3325 -26.8480 L 119.3580 -26.8963 L 119.8974 -28.1068 L 119.9619 -28.2833 L 119.9776 -28.3128 L 120.5261 -29.5318 L 120.5879 -29.6991 L 120.5943 -29.7109 L 121.1518 -30.9382 L 121.2123 -31.1001 L 121.7746 -32.3261 L 121.8373 -32.4923 L 122.3944 -33.6955 L 122.4587 -33.8639 L 123.0112 -35.0464 L 123.0763 -35.2151 L 123.6251 -36.3788 L 123.6902 -36.5457 L 124.2360 -37.6928 L 124.3003 -37.8560 L 124.8440 -38.9884 L 124.9067 -39.1459 L 125.4491 -40.2656 L 125.5094 -40.4153 L 126.0513 -41.5244 L 126.1082 -41.6644 L 126.6507 -42.7649 L 126.7033 -42.8932 L 127.2471 -43.9870 L 127.2946 -44.1016 L 127.8407 -45.1909 L 127.8820 -45.2898 L 128.4314 -46.3764 L 128.4657 -46.4577 L 129.0193 -47.5438 L 129.0456 -47.6054 L 129.6044 -48.6929 L 129.6217 -48.7330 L 130.1867 -49.8238 L 130.1939 -49.8404 L 130.6650 -50.7425 L 131.1811 -51.7233 L 131.1948 -51.7456 L 131.7265 -52.7482 L 131.7572 -52.7975 L 132.2679 -53.7532 L 132.3170 -53.8314 L 132.8053 -54.7386 L 132.8741 -54.8474 L 133.3387 -55.7042 L 133.4286 -55.8454 L 133.8682 -56.6501 L 133.9806 -56.8256 L 134.3936 -57.5764 L 134.5301 -57.7879 L 134.9152 -58.4830 L 135.0770 -58.7323 L 135.4328 -59.3701 L 135.6215 -59.6589 L 135.9466 -60.2377 L 136.1635 -60.5677 L 136.4565 -61.0858 L 136.7031 -61.4587 L 136.9625 -61.9144 L 137.2403 -62.3319 L 137.4648 -62.7237 L 137.7752 -63.1873 L 137.9632 -63.5135 L 138.3078 -64.0251 L 138.4580 -64.2840 L 138.8380 -64.8451 L 138.9490 -65.0351 L 139.3661 -65.6474 L 139.4363 -65.7670 L 139.8919 -66.4321 L 139.9200 -66.4796 L 139.9560 -66.5319 L 139.9564 -66.5324 L 140.4121 -67.1904 L 140.4677 -67.2600 L 140.8645 -67.8299 L 140.9770 -67.9701 L 141.3133 -68.4506 L 141.4843 -68.6626 L 141.7587 -69.0525 L 141.9898 -69.3376 L 142.2005 -69.6355 L 142.4934 -69.9951 L 142.6389 -70.1998 L 142.9952 -70.6352 L 143.0738 -70.7453 L 143.3122 -71.0352 L 143.3411 -71.0657 L 143.6968 -71.4944 L 143.8286 -71.6330 L 143.9016 -71.7206 L 143.9391 -71.6867 L 144.0011 -71.6111 L 144.2766 -71.3612 L 144.3945 -71.2170 L 144.6138 -71.0173 L 144.7871 -70.8045 L 144.9507 -70.6550 L 145.1789 -70.3738 L 145.2874 -70.2744 L 145.5699 -69.9249 L 145.6238 -69.8753 L 145.8256 -69.6247 L 145.8563 -69.5721 L 146.1750 -69.1733 L 146.2436 -69.0553 L 146.5254 -68.7012 L 146.6300 -68.5205 L 146.8757 -68.2105 L 147.0157 -67.9676 L 147.2258 -67.7014 L 147.4005 -67.3967 L 147.5757 -67.1737 L 147.7845 -66.8077 L 147.9254 -66.6276 L 148.1678 -66.2007 L 148.2751 -66.0629 L 148.5502 -65.5757 L 148.6247 -65.4797 L 148.9319 -64.9327 L 148.9742 -64.8779 L 149.3129 -64.2718 L 149.3237 -64.2577 L 149.3483 -64.2134 L 149.3562 -64.1926 L 149.7096 -63.5531 L 149.7356 -63.4843 L 150.0708 -62.8741 L 150.1143 -62.7583 L 150.4320 -62.1765 L 150.4924 -62.0145 L 150.7931 -61.4604 L 150.8699 -61.2529 L 151.1543 -60.7256 L 151.2467 -60.4737 L 151.5156 -59.9723 L 151.6230 -59.6769 L 151.8769 -59.2003 L 151.9988 -58.8623 L 152.2383 -58.4098 L 152.3740 -58.0302 L 152.5998 -57.6007 L 152.7488 -57.1805 L 152.9615 -56.7729 L 153.1230 -56.3132 L 153.3235 -55.9266 L 153.4969 -55.4284 L 153.6856 -55.0617 L 153.8703 -54.5260 L 154.0480 -54.1783 L 154.2433 -53.6062 L 154.4108 -53.2762 L 154.6160 -52.6689 L 154.7738 -52.3556 L 154.9884 -51.7142 L 155.1373 -51.4164 L 155.3605 -50.7421 L 155.5011 -50.4586 L 155.7324 -49.7526 L 155.8654 -49.4823 L 156.1041 -48.7458 L 156.2301 -48.4874 L 156.4756 -47.7217 L 156.5954 -47.4740 L 156.8469 -46.6802 L 156.9613 -46.4420 L 157.2182 -45.6216 L 157.3277 -45.3915 L 157.5895 -44.5457 L 157.6948 -44.3224 L 157.9608 -43.4525 L 158.0625 -43.2348 L 158.3321 -42.3423 L 158.4310 -42.1287 L 158.7035 -41.2148 L 158.8002 -41.0041 L 159.0750 -40.0703 L 159.1702 -39.8609 L 159.4468 -38.9087 L 159.5411 -38.6993 L 159.8188 -37.7300 L 159.9128 -37.5191 L 160.1911 -36.5343 L 160.2855 -36.3205 L 160.5637 -35.3216 L 160.6591 -35.1033 L 160.9368 -34.0919 L 161.0338 -33.8676 L 161.3103 -32.8452 L 161.4096 -32.6135 L 161.6844 -31.5816 L 161.7864 -31.3409 L 162.0591 -30.3012 L 162.1645 -30.0498 L 162.4344 -29.0038 L 162.5437 -28.7403 L 162.8105 -27.6896 L 162.9243 -27.4122 L 163.1874 -26.3586 L 163.3061 -26.0657 L 163.5651 -25.0108 L 163.6893 -24.7008 L 163.9437 -23.6461 L 164.0740 -23.3174 L 164.3234 -22.2648 L 164.4601 -21.9155 L 164.7041 -20.8666 L 164.8477 -20.4952 L 165.0860 -19.4517 L 165.2370 -19.0564 L 165.4691 -18.0202 L 165.6279 -17.5992 L 165.8535 -16.5719 L 166.0205 -16.1236 L 166.2393 -15.1069 L 166.4149 -14.6295 L 166.6266 -13.6253 L 166.8111 -13.1169 L 167.0154 -12.1270 L 167.2092 -11.5859 L 167.4058 -10.6120 L 167.6092 -10.0365 L 167.7980 -9.0804 L 168.0113 -8.4686 L 168.1921 -7.5321 L 168.4155 -6.8823 L 168.5880 -5.9672 L 168.8218 -5.2775 L 168.9859 -4.3857 L 169.2303 -3.6542 L 169.3859 -2.7875 L 169.6411 -2.0125 L 169.7881 -1.1727 L 170.0543 -0.3523 L 170.1925 0.4587 L 170.4698 1.3263 L 170.5994 2.1068 L 170.8879 3.0234 L 171.0087 3.7716 L 171.3086 4.7390 L 171.4206 5.4530 L 171.7319 6.4731 L 171.8352 7.1511 L 172.1579 8.2258 L 172.2525 8.8659 L 172.5867 9.9969 L 172.6728 10.5974 L 173.0204 11.7937 L 173.0947 12.3282 L 173.4572 13.5964 L 173.5169 14.0407 L 173.8933 15.3789 L 173.9396 15.7350 L 174.3287 17.1415 L 174.3627 17.4112 L 174.7636 18.8842 L 174.7862 19.0693 L 175.1980 20.6070 L 175.2100 20.7094 L 175.6318 22.3100 L 175.6343 22.3316 L 176.1432 24.2940 L 176.1613 24.3368 L 176.5624 25.9083 L 176.6090 26.0201 L 176.9819 27.5045 L 177.0560 27.6840 L 177.4019 29.0827 L 177.5023 29.3284 L 177.8223 30.6429 L 177.9479 30.9535 L 178.2431 32.1852 L 178.3928 32.5593 L 178.6643 33.7095 L 178.8372 34.1459 L 179.0859 35.2160 L 179.2809 35.7132 L 179.5079 36.7047 L 179.7241 37.2614 L 179.9302 38.1755 L 180.1667 38.7906 L 180.3529 39.6286 L 180.6089 40.3007 L 180.7759 41.0640 L 181.0505 41.7918 L 181.1992 42.4816 L 181.4917 43.2640 L 181.6229 43.8816 L 181.9324 44.7172 L 182.0469 45.2639 L 182.3728 46.1516 L 182.4712 46.6286 L 182.8127 47.5672 L 182.8958 47.9757 L 183.2522 48.9641 L 183.3206 49.3051 L 183.6914 50.3422 L 183.7457 50.6170 L 184.1302 51.7016 L 184.1711 51.9113 L 184.5687 53.0424 L 184.5967 53.1881 L 185.0068 54.3645 L 185.0225 54.4473 L 185.4446 55.6681 L 185.4486 55.6890 L 186.1466 57.7240 L 186.1586 57.7472 L 186.5696 58.9548 L 186.6090 59.0314 L 186.9928 60.1679 L 187.0589 60.2972 L 187.4162 61.3634 L 187.5084 61.5445 L 187.8399 62.5412 L 187.9574 62.7735 L 188.2638 63.7014 L 188.4059 63.9841 L 188.6878 64.8440 L 188.8541 65.1763 L 189.1121 65.9690 L 189.3018 66.3502 L 189.5365 67.0764 L 189.7491 67.5059 L 189.9611 68.1662 L 190.1961 68.6432 L 190.3858 69.2384 L 190.6426 69.7623 L 190.8107 70.2930 L 191.0888 70.8632 L 191.2358 71.3300 L 191.5347 71.9458 L 191.6609 72.3494 L 191.9803 73.0103 L 192.0862 73.3513 L 192.4255 74.0566 L 192.5116 74.3355 L 192.8704 75.0847 L 192.9372 75.3022 L 193.3150 76.0946 L 193.3628 76.2513 L 193.7594 77.0865 L 193.7886 77.1828 L 194.2034 78.0602 L 194.2144 78.0967 L 195.1653 80.1160 L 195.1714 80.1251 L 195.5895 81.0167 L 195.6299 81.0778 L 196.0139 81.8998 L 196.0881 82.0124 L 196.4384 82.7652 L 196.5459 82.9290 L 196.8630 83.6129 L 197.0035 83.8275 L 197.2878 84.4428 L 197.4608 84.7080 L 197.7126 85.2551 L 197.9178 85.5704 L 198.1376 86.0497 L 198.3745 86.4149 L 198.5627 86.8265 L 198.8310 87.2413 L 198.9879 87.5856 L 199.2873 88.0497 L 199.4132 88.3271 L 199.7433 88.8402 L 199.8387 89.0507 L 200.1992 89.6126 L 200.2642 89.7567 L 200.6549 90.3670 L 200.6899 90.4449 L 201.1103 91.1035 L 201.1157 91.1154 L 202.3503 93.0540 L 202.3824 93.0915 L 202.7754 93.7101 L 202.8557 93.8041 L 203.2006 94.3483 L 203.3288 94.4988 L 203.6260 94.9687 L 203.8017 95.1755 L 204.0515 95.5713 L 204.2745 95.8342 L 204.4772 96.1560 L 204.7472 96.4750 L 204.9030 96.7229 L 205.2197 97.0978 L 205.3289 97.2719 L 205.6922 97.7027 L 205.7550 97.8031 L 206.1645 98.2895 L 206.1813 98.3164 L 207.7057 100.1306 L 207.7405 100.1622 L 208.1318 100.6287 L 208.2340 100.7219 L 208.5581 101.1090 L 208.7274 101.2637 L 208.9846 101.5713 L 209.2207 101.7875 L 209.4112 102.0156 L 209.7140 102.2933 L 209.8380 102.4420 L 210.2073 102.7811 L 210.2650 102.8504 L 212.0716 104.5119 L 212.0742 104.5137 L 212.4988 104.9047 L 212.5912 104.9707 L 212.9262 105.2796 L 213.1083 105.4097 L 213.3537 105.6364 L 213.6253 105.8308 L 213.7815 105.9752 L 214.1423 106.2338 L 214.2094 106.2959 L 216.2843 107.7851 L 216.3027 107.7953 L 216.7127 108.0900 L 216.8453 108.1638 L 217.1412 108.3768 L 217.3880 108.5143 L 217.5700 108.6454 L 217.9307 108.8467 L 217.9989 108.8960 L 220.3242 110.1957 L 220.3691 110.2149 L 220.7537 110.4302 L 220.9383 110.5091 L 221.1835 110.6465 L 221.5075 110.7852 L 221.6134 110.8447 L 224.1677 111.9400 L 224.1949 111.9486 L 224.5984 112.1219 L 224.7906 112.1830 L 225.0293 112.2856 L 225.3862 112.3992 L 225.4603 112.4312 L 228.2203 113.3113 L 228.3105 113.3313 L 228.6523 113.4404 L 228.9314 113.5024 L 229.0844 113.5514 L 232.0235 114.2057 L 232.0484 114.2090 L 232.4568 114.3002 L 232.6926 114.3322 L 232.8901 114.3764 L 235.6440 114.7524 L 236.4154 114.8581 L 236.6432 114.8712 L 236.8501 114.8996 L 240.0633 115.0850 L 240.0698 115.0849 L 240.4994 115.1099 L 240.7510 115.1057 L 240.9356 115.1165 L 244.2409 115.0633 L 244.2849 115.0594 L 244.6786 115.0533 L 244.9785 115.0271 L 245.1164 115.0250 L 248.4827 114.7333 L 248.5833 114.7176 L 248.9221 114.6884 L 249.2846 114.6319 L 249.3617 114.6253 L 252.7569 114.0976 L 252.9217 114.0605 L 253.1983 114.0177 L 253.6259 113.9218 L 253.6398 113.9196 L 257.0317 113.1607 L 257.2559 113.0948 L 257.4752 113.0458 L 260.8298 112.0612 L 260.8467 112.0550 L 261.2754 111.9295 L 261.5421 111.8320 L 261.7212 111.7796 L 265.0083 110.5798 L 265.0543 110.5595 L 265.4564 110.4129 L 265.7385 110.2885 L 265.9047 110.2280 L 269.0929 108.8240 L 269.1376 108.8006 L 269.5437 108.6220 L 269.8069 108.4846 L 269.9949 108.4021 L 273.0538 106.8068 L 273.0625 106.8015 L 273.5075 106.5696 L 273.7137 106.4435 L 273.9617 106.3145 L 274.3654 106.0680 L 274.4163 106.0415 L 277.3191 104.2704 L 277.4309 104.1907 L 277.7765 103.9801 L 278.0624 103.7765 L 278.2344 103.6719 L 278.8829 103.2108 L 281.4119 101.4149 L 281.5467 101.3031 L 281.8734 101.0713 L 282.1573 100.8363 L 282.3356 100.7099 L 282.7686 100.3517 L 282.7985 100.3306 L 285.3076 98.2575 L 285.3925 98.1753 L 285.7737 97.8607 L 285.9821 97.6591 L 286.2406 97.4460 L 286.5726 97.1251 L 286.7084 97.0133 L 287.1640 96.5734 L 287.1769 96.5628 L 289.4546 94.3666 L 289.5308 94.2796 L 289.9266 93.8984 L 290.1012 93.6993 L 290.3996 93.4123 L 290.6726 93.1013 L 290.8735 92.9083 L 291.2452 92.4854 L 291.3484 92.3864 L 291.8189 91.8518 L 291.8243 91.8467 L 293.8513 89.5467 L 293.9120 89.4637 L 294.3309 88.9890 L 294.4663 88.8043 L 294.8117 88.4134 L 295.0218 88.1270 L 295.2935 87.8199 L 295.5787 87.4318 L 295.7765 87.2085 L 296.1369 86.7187 L 296.2607 86.5792 L 296.6965 85.9877 L 296.7461 85.9319 L 298.5054 83.5477 L 298.5154 83.5309 L 298.9947 82.8823 L 299.0579 82.7764 L 299.4853 82.1988 L 299.6019 82.0039 L 299.9773 81.4975 L 300.1474 81.2134 L 300.4705 80.7781 L 300.6944 80.4050 L 300.9651 80.0408 L 301.2430 79.5785 L 301.4611 79.2855 L 301.7931 78.7340 L 301.9584 78.5122 L 302.3448 77.8715 L 302.4572 77.7209 L 302.8981 76.9909 L 302.9574 76.9115 L 303.4531 76.0922 L 303.4591 76.0842 L 304.9439 73.6338 L 304.9694 73.5794 L 305.4498 72.7878 L 305.5105 72.6588 L 305.9573 71.9238 L 306.0532 71.7201 L 306.4663 71.0417 L 306.5976 70.7633 L 306.9768 70.1415 L 307.1438 69.7882 L 307.4890 69.2232 L 307.6917 68.7950 L 308.0027 68.2868 L 308.2413 67.7837 L 308.5180 67.3323 L 308.7928 66.7541 L 309.0350 66.3596 L 309.3461 65.7062 L 309.5537 65.3688 L 309.9012 64.6402 L 310.0740 64.3597 L 310.4582 63.5559 L 310.5960 63.3325 L 311.0170 62.4533 L 311.1197 62.2871 L 311.5777 61.3325 L 311.6452 61.2234 L 312.1403 60.1934 L 312.1725 60.1415 L 313.1073 58.2002 L 313.9085 56.5395 L 313.9277 56.4842 L 314.4419 55.4203 L 314.4817 55.3060 L 314.9771 54.2829 L 315.0376 54.1095 L 315.5142 53.1271 L 315.5955 52.8945 L 316.0531 51.9530 L 316.1553 51.6613 L 316.5938 50.7606 L 316.7171 50.4096 L 317.1365 49.5499 L 317.2809 49.1396 L 317.6810 48.3207 L 317.8467 47.8511 L 318.2274 47.0732 L 318.4145 46.5442 L 318.7758 45.8073 L 318.9843 45.2190 L 319.3262 44.5229 L 319.5562 43.8753 L 319.8785 43.2202 L 320.1301 42.5131 L 320.4328 41.8989 L 320.7061 41.1325 L 320.9891 40.5592 L 321.2842 39.7335 L 321.5474 39.2010 L 321.8644 38.3160 L 322.1078 37.8243 L 322.4467 36.8800 L 322.6703 36.4291 L 323.0311 35.4256 L 323.2348 35.0154 L 323.6177 33.9526 L 323.8015 33.5831 L 324.2064 32.4612 L 324.3703 32.1322 L 324.7973 30.9512 L 324.9412 30.6628 L 325.3903 29.4228 L 325.5143 29.1747 L 325.9856 27.8758 L 326.0896 27.6680 L 326.5831 26.3104 L 326.6670 26.1427 L 327.1827 24.7264 L 327.2468 24.5988 L 327.7847 23.1238 L 327.8287 23.0361 L 328.3888 21.5028 L 328.4129 21.4548 L 328.9952 19.8632 L 328.9995 19.8548 L 329.9317 17.3106 L 329.9381 17.2828 L 330.5221 15.6912 L 330.5378 15.6236 L 331.1148 14.0532 L 331.1397 13.9459 L 331.7098 12.3965 L 331.7439 12.2497 L 332.3072 10.7210 L 332.3504 10.5350 L 332.9068 9.0268 L 332.9593 8.8017 L 333.5089 7.3138 L 333.5705 7.0500 L 334.1133 5.5821 L 334.1840 5.2797 L 334.7201 3.8316 L 334.7999 3.4909 L 335.3294 2.0623 L 335.9281 -0.4893 L 336.1749 -3.0189 L 336.0676 -5.5020 L 335.6072 -7.9148 L 334.7980 -10.2341 L 333.6479 -12.4375 L 332.1680 -14.5037 L 330.3725 -16.4130 L 328.2787 -18.1468 L 325.9067 -19.6886 L 323.2795 -21.0234 L 320.4223 -22.1384 L 317.3626 -23.0228 L 314.1299 -23.6682 L 310.7554 -24.0684 L 307.2714 -24.2194 L 303.7117 -24.1198 L 300.1104 -23.7706 L 296.5022 -23.1751 L 292.9220 -22.3392 L 289.4041 -21.2707 L 285.9825 -19.9801 L 282.6900 -18.4797 L 279.5585 -16.7840 L 276.6181 -14.9093 L 273.8970 -12.8737 L 271.4215 -10.6968 L 269.2155 -8.3996 L 267.3002 -6.0041 L 265.6939 -3.5335 L 264.4123 -1.0115 L 263.4676 1.5376 L 263.3352 2.1018 L 262.8798 3.3319 L 262.7541 3.8688 L 262.2956 5.1085 L 262.1765 5.6177 L 261.7148 6.8676 L 261.6026 7.3485 L 261.1375 8.6091 L 261.0321 9.0613 L 260.5636 10.3330 L 260.4651 10.7560 L 259.9930 12.0393 L 259.9016 12.4327 L 259.4257 13.7279 L 259.3415 14.0913 L 258.8617 15.3989 L 258.7847 15.7318 L 258.3009 17.0522 L 258.2312 17.3542 L 257.7433 18.6879 L 257.6809 18.9586 L 257.1888 20.3058 L 257.1339 20.5449 L 256.6375 21.9061 L 256.5900 22.1130 L 256.0892 23.4886 L 256.0493 23.6631 L 255.5439 25.0535 L 255.5116 25.1951 L 255.0017 26.6005 L 254.9770 26.7089 L 254.4623 28.1298 L 254.4454 28.2046 L 253.9259 29.6413 L 253.9166 29.6822 L 253.3923 31.1351 L 253.3908 31.1416 L 253.2619 31.4995 L 253.2454 31.5328 L 252.7518 32.9057 L 252.7180 32.9739 L 252.2444 34.2938 L 252.1934 34.3971 L 251.7398 35.6637 L 251.6713 35.8025 L 251.2378 37.0154 L 251.1517 37.1900 L 250.7384 38.3488 L 250.6348 38.5596 L 250.2770 39.5648 L 249.8778 38.7628 L 249.8467 38.7180 L 249.6406 38.3060 L 249.6373 38.2960 L 249.3192 37.6636 L 249.2707 37.5667 L 249.2698 37.5653 L 249.0440 37.1164 L 249.0240 37.0563 L 248.4435 35.9085 L 248.4064 35.7978 L 247.8392 34.6824 L 247.7845 34.5206 L 247.2309 33.4382 L 247.1582 33.2247 L 246.6186 32.1758 L 246.5275 31.9101 L 246.0023 30.8953 L 245.8922 30.5768 L 245.3819 29.5968 L 245.2523 29.2248 L 244.7574 28.2802 L 244.6077 27.8542 L 244.1287 26.9456 L 243.9583 26.4649 L 243.4958 25.5931 L 243.3041 25.0569 L 242.8586 24.2226 L 242.6450 23.6304 L 242.2171 22.8343 L 241.9810 22.1852 L 241.5713 21.4281 L 241.3119 20.7215 L 240.9210 20.0041 L 240.6377 19.2392 L 240.2663 18.5624 L 239.9583 17.7385 L 239.6071 17.1030 L 239.2736 16.2192 L 238.9434 15.6260 L 238.5836 14.6814 L 238.2752 14.1314 L 237.8882 13.1252 L 237.6024 12.6192 L 237.1874 11.5506 L 236.9249 11.0895 L 236.4810 9.9576 L 236.2428 9.5425 L 235.7690 8.3463 L 235.5560 7.9780 L 235.0513 6.7167 L 234.8645 6.3963 L 234.3278 5.0688 L 234.1683 4.7973 L 233.5986 3.4027 L 233.4673 3.1812 L 232.8635 1.7184 L 232.7616 1.5479 L 232.1224 0.0160 L 232.0510 -0.1024 L 231.3754 -1.7045 L 231.3357 -1.7697 L 230.6222 -3.4429 L 230.6156 -3.4538 L 229.9023 -5.1083 L 229.8880 -5.1608 L 229.1526 -6.8475 L 229.1203 -6.9645 L 228.3977 -8.6033 L 228.3462 -8.7862 L 227.6375 -10.3754 L 227.5659 -10.6259 L 226.8720 -12.1639 L 226.7791 -12.4835 L 226.0992 -13.9730 L 225.9907 -14.3402 L 225.3230 -15.7858 L 225.2055 -16.1772 L 224.5500 -17.5800 L 224.4236 -17.9946 L 223.7803 -19.3557 L 223.6449 -19.7923 L 223.0137 -21.1128 L 222.8697 -21.5703 L 222.2503 -22.8513 L 222.0978 -23.3286 L 221.4902 -24.5713 L 221.3293 -25.0673 L 220.7334 -26.2727 L 220.5643 -26.7862 L 219.9798 -27.9557 L 219.8028 -28.4855 L 219.2295 -29.6201 L 219.0448 -30.1651 L 218.4825 -31.2660 L 218.2904 -31.8250 L 217.7389 -32.8934 L 217.5395 -33.4652 L 216.9985 -34.5024 L 216.7923 -35.0857 L 216.2614 -36.0929 L 216.0488 -36.6866 L 215.5277 -37.6649 L 215.3089 -38.2678 L 214.7973 -39.2186 L 214.5727 -39.8294 L 214.0703 -40.7538 L 213.8402 -41.3713 L 213.3466 -42.2707 L 213.1115 -42.8937 L 212.6262 -43.7691 L 212.3865 -44.3964 L 211.9091 -45.2493 L 211.6653 -45.8796 L 211.1954 -46.7111 L 210.9480 -47.3432 L 210.4850 -48.1545 L 210.2344 -48.7873 L 209.7780 -49.5797 L 209.5246 -50.2119 L 209.0743 -50.9866 L 208.8187 -51.6170 L 208.3738 -52.3752 L 208.1166 -53.0026 L 207.6767 -53.7456 L 207.4183 -54.3687 L 206.9829 -55.0977 L 206.7239 -55.7155 L 206.2924 -56.4317 L 206.0334 -57.0429 L 205.6051 -57.7474 L 205.3467 -58.3509 L 204.9211 -59.0450 L 204.6639 -59.6395 L 204.2404 -60.3244 L 203.9849 -60.9089 L 203.5629 -61.5857 L 203.3098 -62.1589 L 202.8886 -62.8289 L 202.6385 -63.3897 L 202.2175 -64.0540 L 201.9710 -64.6013 L 201.5496 -65.2610 L 201.3074 -65.7937 L 200.8848 -66.4499 L 200.6475 -66.9670 L 200.2232 -67.6208 L 199.9915 -68.1211 L 199.5647 -68.7737 L 199.3393 -69.2561 L 198.9094 -69.9085 L 198.6908 -70.3720 L 198.2571 -71.0254 L 198.0461 -71.4689 L 197.6078 -72.1243 L 197.4052 -72.5467 L 196.9616 -73.2052 L 196.7679 -73.6056 L 196.3184 -74.2682 L 196.1344 -74.6455 L 195.6782 -75.3133 L 195.5045 -75.6665 L 195.0410 -76.3404 L 194.8783 -76.6686 L 194.4066 -77.3497 L 194.2557 -77.6518 L 193.7752 -78.3411 L 193.6367 -78.6162 L 193.1467 -79.3146 L 193.0213 -79.5617 L 192.5210 -80.2702 L 192.4094 -80.4885 L 191.8981 -81.2080 L 191.8010 -81.3966 L 191.2780 -82.1280 L 191.1961 -82.2859 L 190.6606 -83.0301 L 190.5947 -83.1565 L 190.0460 -83.9145 L 189.9967 -84.0084 L 189.4341 -84.7811 L 189.4020 -84.8417 L 188.8248 -85.6299 L 188.8107 -85.6564 L 187.9230 -86.8617 L 187.9097 -86.8751 L 187.3352 -87.6507 L 187.2934 -87.6926 L 186.7507 -88.4214 L 186.6795 -88.4923 L 186.1694 -89.1736 L 186.0681 -89.2740 L 185.5914 -89.9074 L 185.4590 -90.0380 L 185.0165 -90.6228 L 184.8522 -90.7841 L 184.4447 -91.3199 L 184.2477 -91.5123 L 183.8761 -91.9987 L 183.6455 -92.2227 L 183.3104 -92.6591 L 183.0455 -92.9154 L 182.7477 -93.3012 L 182.4476 -93.5902 L 182.1880 -93.9251 L 181.8519 -94.2472 L 181.6311 -94.5307 L 181.2582 -94.8865 L 181.0771 -95.1180 L 180.6666 -95.5080 L 180.5258 -95.6871 L 180.0770 -96.1118 L 179.9773 -96.2380 L 179.4893 -96.6978 L 179.4315 -96.7708 L 178.9035 -97.2661 L 178.8882 -97.2853 L 177.8532 -98.2524 L 177.8082 -98.2836 L 177.3137 -98.7438 L 177.2103 -98.8152 L 176.7767 -99.2172 L 176.6141 -99.3289 L 176.2421 -99.6725 L 176.0196 -99.8249 L 175.7099 -100.1098 L 175.4266 -100.3030 L 175.1800 -100.5290 L 174.8351 -100.7633 L 174.6523 -100.9303 L 174.2451 -101.2058 L 174.1268 -101.3135 L 173.6565 -101.6305 L 173.6034 -101.6787 L 172.4401 -102.4600 L 172.4155 -102.4718 L 171.9204 -102.8032 L 171.8124 -102.8552 L 171.4027 -103.1284 L 171.2104 -103.2208 L 170.8868 -103.4358 L 170.6095 -103.5684 L 170.3726 -103.7252 L 170.0096 -103.8981 L 169.8602 -103.9967 L 169.4106 -104.2099 L 169.3494 -104.2502 L 168.0730 -104.8532 L 168.0307 -104.8667 L 167.5658 -105.0855 L 167.4161 -105.1329 L 167.0600 -105.2998 L 166.8021 -105.3811 L 166.5556 -105.4962 L 166.1888 -105.6112 L 166.0524 -105.6747 L 165.5760 -105.8233 L 165.5503 -105.8352 L 164.1758 -106.2619 L 164.0662 -106.2815 L 163.6772 -106.4017 L 163.4378 -106.4440 L 163.1795 -106.5234 L 162.8096 -106.5884 L 162.6827 -106.6272 L 161.2216 -106.8817 L 161.2045 -106.8827 L 160.7283 -106.9650 L 160.5619 -106.9743 L 160.2356 -107.0302 L 159.9193 -107.0475 L 159.7434 -107.0774 L 159.2767 -107.1023 L 159.2517 -107.1065 L 157.7234 -107.1860 L 157.5717 -107.1777 L 157.2350 -107.1948 L 156.9167 -107.1771 L 156.7470 -107.1855 L 156.2614 -107.1578 L 156.2590 -107.1579 L 156.0666 -107.1467 L 155.1620 -107.0952 L 155.1501 -107.0933 L 154.6775 -107.0658 L 154.4856 -107.0356 L 154.1930 -107.0181 L 153.8208 -106.9590 L 153.7085 -106.9522 L 152.0873 -106.6926 L 151.9994 -106.6702 L 151.6065 -106.6067 L 151.3288 -106.5356 L 151.1254 -106.5025 L 150.6577 -106.3821 L 150.6442 -106.3798 L 149.7402 -106.1458 L 149.4813 -106.0791 L 149.4773 -106.0777 L 149.0041 -105.9552 L 148.8047 -105.8852 L 148.5267 -105.8128 L 148.1319 -105.6736 L 148.0489 -105.6518 L 146.4033 -105.0691 L 146.2706 -105.0099 L 145.9295 -104.8886 L 145.6002 -104.7413 L 145.4554 -104.6895 L 143.8210 -103.9555 L 143.7493 -103.9167 L 143.3511 -103.7372 L 143.0858 -103.5929 L 142.8808 -103.5001 L 142.4222 -103.2498 L 142.4100 -103.2443 L 141.8059 -102.9135 L 141.2745 -102.6234 L 141.2641 -102.6167 L 140.8087 -102.3674 L 140.6118 -102.2405 L 140.3425 -102.0925 L 139.9596 -101.8451 L 139.8758 -101.7989 L 138.3191 -100.7896 L 138.2000 -100.7002 L 137.8573 -100.4772 L 137.5633 -100.2559 L 137.3950 -100.1460 L 135.8985 -99.0156 L 135.8702 -98.9911 L 135.4414 -98.6661 L 135.2525 -98.5020 L 134.9839 -98.2978 L 134.6352 -97.9938 L 134.5259 -97.9104 L 133.1105 -96.6726 L 133.0431 -96.6053 L 132.6580 -96.2674 L 132.4481 -96.0572 L 132.2052 -95.8433 L 131.8537 -95.4902 L 131.7519 -95.4003 L 130.4320 -94.0697 L 130.3762 -94.0056 L 129.9845 -93.6093 L 129.8064 -93.4037 L 129.5367 -93.1300 L 129.2373 -92.7833 L 129.0886 -92.6318 L 128.6691 -92.1443 L 128.6401 -92.1146 L 127.4353 -90.7092 L 127.3386 -90.5801 L 126.9929 -90.1754 L 126.7963 -89.9119 L 126.5503 -89.6227 L 126.2551 -89.2254 L 126.1074 -89.0510 L 125.7149 -88.5207 L 125.6641 -88.4605 L 124.5864 -86.9983 L 124.5317 -86.9125 L 124.1496 -86.3919 L 124.0176 -86.1842 L 123.7125 -85.7666 L 123.5046 -85.4380 L 123.2751 -85.1226 L 122.9927 -84.6741 L 122.8374 -84.4597 L 122.4818 -83.8924 L 122.3994 -83.7780 L 121.9721 -83.0929 L 121.9610 -83.0775 L 121.6697 -82.6081 L 121.4659 -82.2814 L 121.4599 -82.2701 L 121.0346 -81.5848 L 120.9740 -81.4703 L 120.6030 -80.8695 L 120.4892 -80.6533 L 120.1711 -80.1355 L 120.0054 -79.8189 L 119.7389 -79.3828 L 119.5227 -78.9673 L 119.3063 -78.6115 L 119.0410 -78.0986 L 118.8734 -77.8214 L 118.5603 -77.2128 L 118.4401 -77.0127 L 118.0807 -76.3099 L 118.0063 -76.1854 L 117.6022 -75.3900 L 117.5721 -75.3394 L 116.8198 -73.8493 L 116.8002 -73.8027 L 116.3925 -72.9900 L 116.3431 -72.8711 L 115.9648 -72.1122 L 115.8868 -71.9230 L 115.5367 -71.2159 L 115.4313 -70.9584 L 115.1081 -70.3012 L 114.9766 -69.9774 L 114.6790 -69.3680 L 114.5226 -68.9800 L 114.2493 -68.4164 L 114.0693 -67.9662 L 113.8190 -67.4464 L 113.6167 -66.9363 L 113.3881 -66.4581 L 113.1648 -65.8901 L 112.9566 -65.4514 L 112.7135 -64.8278 L 112.5244 -64.4264 L 112.2627 -63.7495 L 112.0914 -63.3830 L 111.8125 -62.6552 L 111.6577 -62.3214 L 111.3628 -61.5450 L 111.2231 -61.2415 L 110.9136 -60.4189 L 110.7878 -60.1433 L 110.4647 -59.2770 L 110.3515 -59.0269 L 110.0163 -58.1194 L 109.9143 -57.8924 L 109.5682 -56.9461 L 109.4762 -56.7396 L 109.1203 -55.7572 L 109.0371 -55.5687 L 108.6727 -54.5528 L 108.5969 -54.3797 L 108.2252 -53.3329 L 108.1556 -53.1725 L 107.7778 -52.0975 L 107.7132 -51.9473 L 107.3304 -50.8468 L 107.2696 -50.7040 L 106.8831 -49.5808 L 106.8248 -49.4427 L 106.4356 -48.2995 L 106.3787 -48.1633 L 105.9880 -47.0031 L 105.9313 -46.8660 L 105.5402 -45.6914 L 105.4825 -45.5507 L 105.0921 -44.3647 L 105.0323 -44.2174 L 104.6436 -43.0230 L 104.5806 -42.8663 L 104.1947 -41.6662 L 104.1274 -41.4972 L 103.7453 -40.2945 L 103.6727 -40.1103 L 103.2952 -38.9079 L 103.2163 -38.7055 L 102.8445 -37.5064 L 102.7582 -37.2829 L 102.3930 -36.0901 L 102.2984 -35.8425 L 101.9407 -34.6590 L 101.8368 -34.3842 L 101.4874 -33.2132 L 101.3734 -32.9083 L 101.0330 -31.7527 L 100.9081 -31.4146 L 100.5776 -30.2774 L 100.4408 -29.9031 L 100.1209 -28.7875 L 99.9714 -28.3740 L 99.6629 -27.2829 L 99.5000 -26.8271 L 99.2035 -25.7637 L 99.0265 -25.2626 L 98.7426 -24.2299 L 98.5508 -23.6805 L 98.2801 -22.6815 L 98.0728 -22.0807 L 97.8159 -21.1186 L 97.5925 -20.4633 L 97.3498 -19.5410 L 97.1098 -18.8283 L 96.8819 -17.9489 L 96.6247 -17.1758 L 96.4119 -16.3422 L 96.1370 -15.5056 L 95.9398 -14.7209 L 95.6468 -13.8179 L 95.4655 -13.0850 L 95.1539 -12.1127 L 94.9888 -11.4345 L 94.6583 -10.3900 L 94.5076 -9.7607 L 94.5044 -9.7525 L 94.1600 -8.6497 L 94.0153 -8.0358 L 93.9957 -7.9850 L 93.6588 -6.8919 L 93.5204 -6.2948 L 93.4843 -6.2000 L 93.1547 -5.1166 L 93.0228 -4.5377 L 92.9699 -4.3974 L 92.6476 -3.3239 L 92.5223 -2.7644 L 92.4526 -2.5774 L 92.1375 -1.5136 L 92.0190 -0.9751 L 91.9323 -0.7398 L 91.6243 0.3141 L 91.5192 0.8002 L 91.4112 1.0967 L 91.1101 2.1408 L 91.0242 2.5451 L 90.8914 2.9136 L 90.5971 3.9482 L 90.5294 4.2725 L 90.3731 4.7111 L 90.0853 5.7363 L 90.0348 5.9823 L 89.8562 6.4891 L 89.5747 7.5051 L 89.5404 7.6747 L 89.3406 8.2477 L 89.0652 9.2546 L 89.0463 9.3496 L 88.8263 9.9869 L 88.5568 10.9850 L 88.5525 11.0070 L 88.3134 11.7068 L 88.0765 12.5954 L 87.8019 13.4075 L 87.6077 14.1449 L 87.2916 15.0889 L 87.1232 15.7366 L 87.1010 15.7909 L 86.7826 16.7511 L 86.6357 17.3230 L 86.5877 17.4418 L 86.2750 18.3942 L 86.1487 18.8917 L 86.0758 19.0734 L 85.7686 20.0181 L 85.6621 20.4427 L 85.5654 20.6857 L 85.2635 21.6230 L 85.1759 21.9760 L 85.0564 22.2788 L 84.7596 23.2088 L 84.6903 23.4916 L 84.5489 23.8528 L 84.2570 24.7755 L 84.2051 24.9895 L 84.0427 25.4076 L 83.7556 26.3233 L 83.7205 26.4697 L 83.5378 26.9433 L 83.2554 27.8522 L 83.2365 27.9323 L 83.0344 28.4600 L 82.7565 29.3621 L 82.7530 29.3771 L 82.5323 29.9576 L 82.2890 30.7542 L 82.0315 31.4361 L 81.8306 32.0995 L 81.5321 32.8958 L 81.3657 33.4498 L 81.3566 33.4700 L 81.0340 34.3364 L 80.8894 34.8216 L 80.8555 34.8976 L 80.5372 35.7581 L 80.4138 36.1754 L 80.3558 36.3061 L 80.0416 37.1609 L 79.9389 37.5113 L 79.8575 37.6956 L 79.5474 38.5449 L 79.4646 38.8293 L 79.3605 39.0661 L 79.0544 39.9100 L 78.9910 40.1293 L 78.8650 40.4177 L 78.5626 41.2562 L 78.5181 41.4114 L 78.3708 41.7504 L 78.0721 42.5837 L 78.0459 42.6756 L 77.8779 43.0641 L 77.5828 43.8923 L 77.5744 43.9218 L 77.3863 44.3590 L 77.1174 45.1179 L 76.8960 45.6350 L 76.6732 46.2675 L 76.4071 46.8921 L 76.2291 47.4000 L 75.9193 48.1304 L 75.7769 48.5392 L 75.7658 48.5614 L 75.4329 49.3500 L 75.3141 49.6926 L 75.2773 49.7664 L 74.9476 50.5507 L 74.8520 50.8279 L 74.7900 50.9525 L 74.4636 51.7327 L 74.3907 51.9451 L 74.3041 52.1198 L 73.9808 52.8960 L 73.9302 53.0441 L 73.8195 53.2683 L 73.4991 54.0405 L 73.4704 54.1250 L 73.3361 54.3979 L 73.0186 55.1663 L 73.0114 55.1877 L 72.8540 55.5088 L 72.5727 56.1922 L 72.3730 56.6009 L 72.1446 57.1582 L 71.8933 57.6743 L 71.7168 58.1066 L 71.4147 58.7289 L 71.2893 59.0372 L 70.9373 59.7648 L 70.8397 60.0055 L 70.8110 60.0562 L 70.4610 60.7820 L 70.3907 60.9562 L 70.3333 61.0578 L 69.9859 61.7805 L 69.9424 61.8886 L 69.8567 62.0407 L 69.5118 62.7603 L 69.4948 62.8027 L 69.3813 63.0048 L 69.0603 63.6765 L 68.9071 63.9502 L 68.6488 64.4921 L 68.4339 64.8769 L 68.2377 65.2898 L 67.9618 65.7848 L 67.8270 66.0694 L 67.4908 66.6742 L 67.4073 66.8508 L 67.3958 66.8686 L 67.0208 67.5448 L 66.9699 67.6527 L 66.9246 67.7230 L 66.5518 68.3968 L 66.5333 68.4361 L 66.4545 68.5587 L 66.1147 69.1742 L 65.9855 69.3756 L 65.7200 69.8576 L 65.5174 70.1740 L 65.3257 70.5228 L 65.0504 70.9536 L 64.9318 71.1698 L 64.5842 71.7146 L 64.5296 71.8145 L 64.5193 71.8285 L 64.1191 72.4570 L 64.1032 72.4861 L 64.0531 72.5541 L 63.7050 73.1017 L 63.5879 73.2610 L 63.3267 73.6727 L 63.1236 73.9493 L 62.9488 74.2254 L 62.6602 74.6190 L 62.5713 74.7596 L 62.1977 75.2700 L 62.1785 75.3003 L 62.1605 75.3217 L 61.7927 75.8248 L 61.6979 75.9369 L 61.4299 76.3042 L 61.2362 76.5336 L 61.0675 76.7651 L 60.7753 77.1116 L 60.7055 77.2076 L 60.3354 77.6470 L 60.3030 77.6803 L 59.9868 78.0562 L 59.8429 78.2037 L 59.6385 78.4469 L 59.3835 78.7085 L 59.2906 78.8191 L 58.9546 79.1641 L 58.9342 79.1820 L 58.6187 79.5063 L 58.4756 79.6320 L 58.2831 79.8300 L 58.0176 80.0634 L 57.9480 80.1351 L 57.6444 80.4021 L 57.5870 80.4447 L 57.3193 80.6804 L 57.1296 80.8212 L 56.9946 80.9402 L 56.6728 81.1791 L 56.6702 81.1814 L 56.3937 81.3869 L 56.2562 81.4710 L 56.0771 81.6042 L 55.7999 81.7739 L 55.7608 81.8030 L 55.4975 81.9643 L 55.3927 82.0152 L 55.1864 82.1417 L 54.9367 82.2631 L 54.8756 82.3006 L 54.6197 82.4251 L 54.5340 82.4561 L 54.3114 82.5645 L 54.0782 82.6489 L 54.0032 82.6855 L 53.7477 82.7781 L 53.6752 82.7953 L 53.4391 82.8809 L 53.2194 82.9331 L 53.1305 82.9653 L 52.8681 83.0277 L 52.8110 83.0340 L 52.5561 83.0947 L 52.3550 83.1168 L 52.2442 83.1433 L 51.9680 83.1738 L 51.9362 83.1731 L 51.6497 83.2048 L 51.4799 83.2010 L 51.3313 83.2175 L 51.0236 83.2106 L 51.0129 83.2118 L 50.7083 83.2052 L 50.5887 83.1856 L 50.3808 83.1811 L 50.1316 83.1405 L 50.0531 83.1388 L 49.7230 83.0850 L 49.6763 83.0703 L 49.3839 83.0227 L 49.2182 82.9704 L 49.0445 82.9422 L 48.7599 82.8523 L 48.7047 82.8434 L 48.3353 82.7269 L 48.2783 82.6992 L 47.9821 82.6058 L 47.8185 82.5264 L 47.6285 82.4666 L 47.3583 82.3355 L 47.2744 82.3092 L 46.8977 82.1266 L 46.8802 82.1211 L 46.8455 82.0975 L 46.4957 81.9281 L 46.3834 81.8519 L 46.1261 81.7274 L 45.9208 81.5883 L 45.7560 81.5086 L 45.4577 81.3065 L 45.3781 81.2681 L 45.3721 81.2626 L 44.9940 81.0067 L 44.9563 80.9885 L 44.9073 80.9442 L 44.5372 80.6939 L 44.4418 80.6077 L 44.1497 80.4103 L 43.9756 80.2531 L 43.7615 80.1085 L 43.5087 79.8804 L 43.3726 79.7886 L 43.0411 79.4897 L 42.9462 79.4257 L 42.9160 79.3902 L 42.5727 79.0809 L 42.5122 79.0401 L 42.4463 78.9626 L 42.1035 78.6540 L 42.0774 78.6365 L 41.9757 78.5170 L 41.6487 78.2228 L 41.5043 78.0533 L 41.2407 77.8163 L 41.0320 77.5715 L 40.8318 77.3917 L 40.5588 77.0716 L 40.4044 76.9330 L 40.3905 76.9120 L 40.0847 76.5537 L 39.9574 76.4395 L 39.9149 76.3751 L 39.6095 76.0176 L 39.5094 75.9279 L 39.4383 75.8202 L 39.1334 75.4635 L 39.0604 75.3982 L 38.9607 75.2471 L 38.6562 74.8913 L 38.6104 74.8503 L 38.4820 74.6559 L 38.1780 74.3010 L 38.1593 74.2843 L 38.0022 74.0467 L 37.7140 73.7105 L 37.5213 73.4193 L 37.2823 73.1408 L 37.0393 72.7738 L 36.8336 72.5344 L 36.8217 72.5109 L 36.5560 72.1102 L 36.3706 71.8945 L 36.3369 71.8282 L 36.0716 71.4285 L 35.9065 71.2364 L 35.8509 71.1274 L 35.5860 70.7286 L 35.4411 70.5602 L 35.3637 70.4084 L 35.0992 70.0106 L 34.9744 69.8659 L 34.8752 69.6713 L 34.6111 69.2745 L 34.5066 69.1533 L 34.3854 68.9161 L 34.1216 68.5202 L 34.0374 68.4226 L 33.8942 68.1427 L 33.6309 67.7478 L 33.5670 67.6737 L 33.4018 67.3511 L 33.1389 66.9572 L 33.0952 66.9067 L 32.9080 66.5414 L 32.6455 66.1485 L 32.6220 66.1214 L 32.4128 65.7136 L 32.1506 65.3216 L 32.1441 65.3140 L 32.1399 65.3030 L 31.9161 64.8675 L 31.6593 64.4837 L 31.6415 64.4377 L 31.4181 64.0033 L 31.1751 63.6405 L 31.1417 63.5543 L 30.9186 63.1209 L 30.6894 62.7791 L 30.6404 62.6526 L 30.4176 62.2202 L 30.2023 61.8994 L 30.1376 61.7328 L 29.9151 61.3014 L 29.7136 61.0015 L 29.6333 60.7947 L 29.4111 60.3644 L 29.2235 60.0854 L 29.1275 59.8385 L 28.9056 59.4092 L 28.7318 59.1511 L 28.6200 58.8640 L 28.3984 58.4358 L 28.2385 58.1985 L 28.1110 57.8713 L 27.8897 57.4442 L 27.7437 57.2276 L 27.6004 56.8604 L 27.3794 56.4343 L 27.2472 56.2385 L 27.0881 55.8313 L 26.8674 55.4062 L 26.7491 55.2311 L 26.5742 54.7840 L 26.3538 54.3598 L 26.2448 54.1986 L 26.2398 54.1809 L 26.0586 53.7184 L 25.8385 53.2953 L 25.7356 53.1433 L 25.7223 53.0961 L 25.5412 52.6345 L 25.3214 52.2124 L 25.2248 52.0697 L 25.2030 51.9929 L 25.0222 51.5325 L 24.8027 51.1113 L 24.7122 50.9778 L 24.6820 50.8716 L 24.5014 50.4121 L 24.2822 49.9919 L 24.1979 49.8677 L 24.1593 49.7319 L 23.9788 49.2735 L 23.7599 48.8543 L 23.6817 48.7392 L 23.6347 48.5741 L 23.4545 48.1166 L 23.2358 47.6984 L 23.1638 47.5924 L 23.1084 47.3979 L 22.9283 46.9415 L 22.7099 46.5241 L 22.6441 46.4273 L 22.5802 46.2035 L 22.4003 45.7481 L 22.1822 45.3316 L 22.1225 45.2439 L 22.0501 44.9909 L 21.8704 44.5364 L 21.6526 44.1208 L 21.5990 44.0421 L 21.5182 43.7599 L 21.3387 43.3064 L 21.1211 42.8917 L 21.0736 42.8220 L 20.9844 42.5107 L 20.8050 42.0581 L 20.5877 41.6443 L 20.5463 41.5835 L 20.4486 41.2432 L 20.2694 40.7915 L 20.0524 40.3785 L 20.0171 40.3267 L 19.9109 39.9574 L 19.7319 39.5066 L 19.5151 39.0944 L 19.4858 39.0516 L 19.3712 38.6534 L 19.1924 38.2033 L 18.9759 37.7920 L 18.9526 37.7580 L 18.8296 37.3310 L 18.6509 36.8818 L 18.4346 36.4712 L 18.4174 36.4460 L 18.2859 35.9903 L 18.1074 35.5419 L 17.8913 35.1321 L 17.8797 35.1152 L 17.8793 35.1130 L 17.7401 34.6313 L 17.5618 34.1837 L 17.3460 33.7746 L 17.3364 33.7607 L 17.3314 33.7349 L 17.1924 33.2539 L 17.0142 32.8072 L 16.7986 32.3988 L 16.7911 32.3878 L 16.7815 32.3384 L 16.6425 31.8583 L 16.4645 31.4123 L 16.2491 31.0046 L 16.2436 30.9966 L 16.2294 30.9237 L 16.0905 30.4443 L 15.9126 29.9990 L 15.6974 29.5920 L 15.6940 29.5869 L 15.6753 29.4907 L 15.5364 29.0120 L 15.3587 28.5674 L 15.1437 28.1611 L 15.1422 28.1589 L 15.1190 28.0394 L 14.9802 27.5614 L 14.8025 27.1174 L 14.5883 26.7127 L 14.5605 26.5697 L 14.4217 26.0924 L 14.2442 25.6491 L 14.0324 25.2491 L 13.9998 25.0817 L 13.8611 24.6051 L 13.6837 24.1624 L 13.4742 23.7671 L 13.4369 23.5755 L 13.2983 23.0994 L 13.1210 22.6573 L 12.9138 22.2666 L 12.8717 22.0508 L 12.7332 21.5754 L 12.5560 21.1338 L 12.3512 20.7477 L 12.3043 20.5079 L 12.1658 20.0330 L 11.9888 19.5919 L 11.7862 19.2103 L 11.7346 18.9467 L 11.5962 18.4723 L 11.4192 18.0317 L 11.2188 17.6544 L 11.1626 17.3671 L 11.0242 16.8931 L 10.8473 16.4530 L 10.6491 16.0800 L 10.5882 15.7691 L 10.4499 15.2956 L 10.2731 14.8559 L 10.0770 14.4871 L 10.0115 14.1528 L 9.8732 13.6798 L 9.6965 13.2404 L 9.5025 12.8757 L 9.4324 12.5182 L 9.2941 12.0455 L 9.1175 11.6065 L 8.9256 11.2458 L 8.8508 10.8652 L 8.7126 10.3929 L 8.5361 9.9542 L 8.3462 9.5973 L 8.2669 9.1939 L 8.1287 8.7219 L 7.9522 8.2835 L 7.7643 7.9304 L 7.6805 7.5043 L 7.5423 7.0325 L 7.3659 6.5943 L 7.1798 6.2449 L 7.0916 5.7962 L 6.9534 5.3247 L 6.7770 4.8867 L 6.5929 4.5408 L 6.5002 4.0698 L 6.3621 3.5984 L 6.1857 3.1607 L 6.0033 2.8182 L 5.9062 2.3251 L 5.7681 1.8538 L 5.5918 1.4162 L 5.4095 1.0740 L 5.4082 1.0622 L 5.3097 0.5619 L 5.1716 0.0908 L 4.9953 -0.3467 L 4.8123 -0.6902 L 4.8091 -0.7194 L 4.7106 -1.2195 L 4.5725 -1.6906 L 4.3962 -2.1281 L 4.2125 -2.4729 L 4.2074 -2.5193 L 4.1089 -3.0194 L 3.9708 -3.4905 L 3.7945 -3.9279 L 3.5817 -4.3275 L 3.3343 -4.6854 L 3.0549 -4.9982 L 2.7460 -5.2629 L 2.4107 -5.4769 L 2.0521 -5.6382 L 1.6738 -5.7451 L 1.2794 -5.7967 L 0.8726 -5.7925 L 0.4575 -5.7325 L 0.0379 -5.6173 L -0.3820 -5.4480 L -0.7982 -5.2263 L -1.2068 -4.9542 L -1.6037 -4.6343 L -1.9852 -4.2699 L -2.3476 -3.8643 L -2.6873 -3.4216 L -3.0012 -2.9458 L -3.2862 -2.4417 L -3.5395 -1.9141 L -3.7588 -1.3681 L -3.9418 -0.8089 L -4.0869 -0.2418 L -4.1926 0.3275 L -4.2580 0.8937 L -4.2823 1.4513 Z"/>
  <g id="debug">
  <path fill="none" stroke="#ff3366" stroke-opacity="0.6" stroke-width="0.5" d=""/>
  <path fill="none" stroke="#ff9900" stroke-opacity="0.6" stroke-width="0.6" d=""/>
  <path fill="none" stroke="#222222" stroke-opacity="0.7" stroke-width="0.6" d=""/>
  
  <path fill="none" stroke="#8844ff" stroke-opacity="0.35" stroke-width="0.6" d="M -2.0521 5.6382 L -1.4507 7.4383 L -0.8526 9.2208 L -0.2577 10.9854 L 0.3340 12.7324 L 0.9225 14.4616 L 1.5080 16.1730 L 2.0903 17.8666 L 2.6696 19.5424 L 3.2458 21.2005 L 3.8191 22.8408 L 4.3895 24.4633 L 4.9569 26.0679 L 5.5214 27.6548 L 6.0831 29.2238 L 6.6419 30.7750 L 7.1980 32.3084 L 7.7514 33.8239 L 8.3020 35.3216 L 8.8500 36.8013 L 9.3953 38.2633 L 9.9380 39.7073 L 10.4782 41.1335 L 11.0158 42.5417 L 11.5509 43.9321 L 12.0835 45.3045 L 12.6137 46.6590 L 13.1416 47.9956 L 13.6670 49.3142 L 14.1902 50.6149 L 14.7110 51.8976 L 15.2297 53.1623 L 15.7461 54.4091 L 16.2603 55.6378 L 16.7723 56.8486 L 17.2823 58.0413 L 17.7902 59.2160 L 18.2960 60.3727 L 18.7999 61.5113 L 19.3018 62.6319 L 19.8017 63.7345 L 20.2998 64.8189 L 20.7960 65.8853 L 21.2904 66.9336 L 21.7830 67.9638 L 22.2739 68.9759 L 22.7630 69.9698 L 23.2505 70.9457 L 23.7363 71.9034 L 24.2205 72.8429 L 24.7032 73.7643 L 25.1843 74.6676 L 25.6639 75.5526 L 26.1420 76.4195 L 26.6188 77.2682 L 27.0941 78.0987 L 27.5681 78.9110 L 28.0408 79.7051 L 28.5121 80.4810 L 28.9823 81.2386 L 29.4512 81.9780 L 29.9189 82.6992 L 30.3855 83.4021 L 30.8510 84.0868 L 31.3154 84.7532 L 31.7787 85.4014 L 32.2411 86.0312 L 32.7025 86.6428 L 33.1629 87.2361 L 33.6224 87.8112 L 34.0811 88.3679 L 34.5389 88.9064 L 34.9959 89.4265 L 35.4522 89.9284 L 35.9077 90.4119 L 36.3625 90.8772 L 36.8166 91.3241 L 37.2701 91.7528 L 37.7229 92.1631 L 38.1752 92.5551 L 38.6269 92.9288 L 39.0781 93.2843 L 39.5288 93.6214 L 39.9791 93.9402 L 40.4289 94.2407 L 40.8783 94.5230 L 41.3273 94.7869 L 41.7759 95.0326 L 42.2243 95.2600 L 42.6723 95.4691 L 43.1200 95.6600 L 43.5675 95.8326 L 44.0148 95.9870 L 44.4619 96.1231 L 44.9088 96.2410 L 45.3555 96.3408 L 45.8021 96.4223 L 46.2486 96.4856 L 46.6950 96.5308 L 47.1413 96.5578 L 47.5875 96.5667 L 48.0338 96.5575 L 48.4800 96.5301 L 48.9262 96.4847 L 49.3724 96.4212 L 49.8187 96.3396 L 50.2651 96.2400 L 50.7116 96.1223 L 51.1581 95.9866 L 51.6048 95.8330 L 52.0516 95.6613 L 52.4986 95.4717 L 52.9458 95.2641 L 53.3931 95.0386 L 53.8407 94.7952 L 54.2886 94.5338 L 54.7367 94.2546 L 55.1850 93.9574 L 55.6337 93.6425 L 56.0827 93.3096 L 56.5320 92.9589 L 56.9817 92.5904 L 57.4318 92.2041 L 57.8823 91.7999 L 58.3332 91.3780 L 58.7845 90.9383 L 59.2363 90.4808 L 59.6886 90.0056 L 60.1413 89.5126 L 60.5946 89.0020 L 61.0484 88.4735 L 61.5028 87.9274 L 61.9578 87.3636 L 62.4133 86.7822 L 62.8695 86.1830 L 63.3262 85.5663 L 63.7837 84.9318 L 64.2417 84.2798 L 64.7005 83.6101 L 65.1600 82.9229 L 65.6201 82.2180 L 66.0810 81.4956 L 66.5427 80.7556 L 67.0051 79.9981 L 67.4682 79.2231 L 67.9322 78.4305 L 68.3969 77.6205 L 68.8625 76.7929 L 69.3289 75.9479 L 69.7961 75.0854 L 70.2642 74.2055 L 70.7332 73.3082 L 71.2030 72.3934 L 71.6737 71.4613 L 72.1453 70.5117 L 72.6178 69.5448 L 73.0912 68.5606 L 73.5655 67.5590 L 74.0407 66.5401 L 74.5169 65.5039 L 74.9940 64.4504 L 75.4720 63.3796 L 75.9509 62.2916 L 76.4308 61.1864 L 76.9117 60.0639 L 77.3935 58.9243 L 77.8762 57.7674 L 78.3599 56.5934 L 78.8445 55.4022 L 79.3301 54.1939 L 79.8166 52.9684 L 80.3040 51.7259 L 80.7923 50.4662 L 81.2816 49.1895 L 81.7718 47.8957 L 82.2628 46.5849 L 82.7548 45.2571 L 83.2476 43.9122 L 83.7413 42.5503 L 84.2359 41.1714 L 84.7312 39.7756 L 85.2274 38.3628 L 85.7244 36.9330 L 86.2222 35.4863 L 86.7208 34.0227 L 87.2200 32.5421 L 87.7200 31.0446 L 88.2207 29.5303 L 88.7221 27.9990 L 89.2241 26.4508 L 89.7267 24.8857 L 90.2298 23.3037 L 90.7336 21.7049 L 91.2378 20.0891 L 91.7425 18.4565 L 92.2477 16.8070 L 92.7533 15.1405 L 93.2592 13.4572 L 93.7655 11.7569 L 94.2720 10.0398 L 94.2720 10.0398 L 94.7768 8.3230 L 95.2776 6.6241 L 95.7746 4.9429 L 96.2678 3.2794 L 96.7572 1.6336 L 97.2431 0.0055 L 97.7254 -1.6051 L 98.2041 -3.1980 L 98.6795 -4.7734 L 99.1515 -6.3314 L 99.6202 -7.8718 L 100.0857 -9.3947 L 100.5480 -10.9003 L 101.0072 -12.3884 L 101.4635 -13.8592 L 101.9168 -15.3126 L 102.3673 -16.7487 L 102.8150 -18.1674 L 103.2600 -19.5689 L 103.7024 -20.9531 L 104.1422 -22.3201 L 104.5796 -23.6698 L 105.0145 -25.0023 L 105.4471 -26.3175 L 105.8774 -27.6156 L 106.3056 -28.8965 L 106.7316 -30.1602 L 107.1556 -31.4068 L 107.5777 -32.6361 L 107.9978 -33.8484 L 108.4161 -35.0434 L 108.8326 -36.2214 L 109.2475 -37.3822 L 109.6608 -38.5258 L 110.0725 -39.6523 L 110.4827 -40.7617 L 110.8916 -41.8539 L 111.2991 -42.9290 L 111.7053 -43.9869 L 112.1103 -45.0277 L 112.5142 -46.0514 L 112.9170 -47.0578 L 113.3188 -48.0472 L 113.7196 -49.0193 L 114.1196 -49.9743 L 114.5187 -50.9121 L 114.9170 -51.8327 L 115.3147 -52.7361 L 115.7117 -53.6223 L 116.1081 -54.4913 L 116.5039 -55.3430 L 116.8993 -56.1775 L 117.2942 -56.9947 L 117.6887 -57.7947 L 118.0830 -58.5774 L 118.4769 -59.3428 L 118.8706 -60.0909 L 119.2641 -60.8217 L 119.6575 -61.5351 L 120.0508 -62.2312 L 120.4441 -62.9100 L 120.8373 -63.5713 L 121.2306 -64.2153 L 121.6239 -64.8419 L 122.0173 -65.4510 L 122.4109 -66.0428 L 122.8047 -66.6170 L 123.1987 -67.1738 L 123.5929 -67.7131 L 123.9874 -68.2350 L 124.3822 -68.7393 L 124.7773 -69.2260 L 125.1728 -69.6953 L 125.5687 -70.1469 L 125.9649 -70.5810 L 126.3615 -70.9975 L 126.7586 -71.3963 L 127.1561 -71.7776 L 127.5540 -72.1411 L 127.9524 -72.4870 L 128.3513 -72.8152 L 128.7506 -73.1257 L 129.1503 -73.4185 L 129.5505 -73.6935 L 129.9512 -73.9508 L 130.3523 -74.1903 L 130.7538 -74.4120 L 131.1556 -74.6158 L 131.5579 -74.8018 L 131.9605 -74.9699 L 132.3635 -75.1202 L 132.7667 -75.2525 L 133.1702 -75.3669 L 133.5740 -75.4634 L 133.9779 -75.5418 L 134.3819 -75.6023 L 134.7860 -75.6448 L 135.1902 -75.6692 L 135.5944 -75.6756 L 135.9986 -75.6639 L 136.4026 -75.6341 L 136.8065 -75.5862 L 137.2102 -75.5201 L 137.6136 -75.4360 L 138.0168 -75.3336 L 138.4196 -75.2131 L 138.8220 -75.0743 L 139.2240 -74.9174 L 139.6255 -74.7422 L 140.0265 -74.5489 L 140.4269 -74.3372 L 140.8268 -74.1074 L 141.2260 -73.8592 L 141.6246 -73.5929 L 142.0225 -73.3082 L 142.4197 -73.0054 L 142.8161 -72.6842 L 143.2119 -72.3448 L 143.6068 -71.9871 L 144.0010 -71.6111 L 144.3945 -71.2170 L 144.7871 -70.8045 L 145.1789 -70.3738 L 145.5699 -69.9249 L 145.9601 -69.4577 L 146.3494 -68.9723 L 146.7380 -68.4687 L 147.1257 -67.9469 L 147.5126 -67.4069 L 147.8986 -66.8487 L 148.2839 -66.2724 L 148.6684 -65.6779 L 149.0520 -65.0653 L 149.4349 -64.4346 L 149.8170 -63.7857 L 150.1983 -63.1188 L 150.5789 -62.4338 L 150.9587 -61.7308 L 151.3378 -61.0097 L 151.7161 -60.2706 L 152.0938 -59.5136 L 152.4708 -58.7385 L 152.8471 -57.9456 L 153.2228 -57.1347 L 153.5979 -56.3059 L 153.9723 -55.4593 L 154.3462 -54.5948 L 154.7195 -53.7125 L 155.0923 -52.8124 L 155.4646 -51.8945 L 155.8365 -50.9590 L 156.2078 -50.0056 L 156.5788 -49.0347 L 156.9494 -48.0460 L 157.3196 -47.0398 L 157.6895 -46.0159 L 158.0591 -44.9745 L 158.4285 -43.9155 L 158.7977 -42.8391 L 159.1667 -41.7452 L 159.5355 -40.6338 L 159.9043 -39.5050 L 160.2731 -38.3588 L 160.6418 -37.1953 L 161.0106 -36.0145 L 161.3795 -34.8164 L 161.7485 -33.6010 L 162.1177 -32.3684 L 162.4872 -31.1186 L 162.8570 -29.8516 L 163.2271 -28.5675 L 163.5977 -27.2663 L 163.9687 -25.9480 L 164.3403 -24.6127 L 164.7126 -23.2603 L 165.0854 -21.8910 L 165.4591 -20.5046 L 165.8335 -19.1013 L 166.2088 -17.6812 L 166.5851 -16.2441 L 166.9624 -14.7901 L 167.3408 -13.3193 L 167.7204 -11.8316 L 168.1013 -10.3272 L 168.4835 -8.8059 L 168.8672 -7.2679 L 169.2524 -5.7130 L 169.6392 -4.1415 L 170.0277 -2.5532 L 170.4179 -0.9482 L 170.8101 0.6736 L 171.2043 2.3121 L 171.6005 3.9672 L 171.9989 5.6391 L 172.3995 7.3277 L 172.8026 9.0331 L 173.2081 10.7551 L 173.6162 12.4938 L 174.0270 14.2493 L 174.0270 14.2493 L 174.4393 16.0038 L 174.8520 17.7395 L 175.2652 19.4567 L 175.6787 21.1553 L 176.0927 22.8353 L 176.5071 24.4970 L 176.9219 26.1402 L 177.3371 27.7651 L 177.7528 29.3717 L 178.1688 30.9601 L 178.5854 32.5303 L 179.0023 34.0823 L 179.4196 35.6163 L 179.8374 37.1321 L 180.2555 38.6300 L 180.6741 40.1098 L 181.0930 41.5717 L 181.5123 43.0157 L 181.9320 44.4418 L 182.3520 45.8500 L 182.7724 47.2404 L 183.1931 48.6130 L 183.6142 49.9678 L 184.0355 51.3048 L 184.4572 52.6240 L 184.8791 53.9256 L 185.3013 55.2094 L 185.7238 56.4755 L 186.1466 57.7240 L 186.5696 58.9548 L 186.9928 60.1679 L 187.4162 61.3634 L 187.8399 62.5412 L 188.2638 63.7014 L 188.6878 64.8440 L 189.1121 65.9690 L 189.5365 67.0764 L 189.9611 68.1662 L 190.3858 69.2384 L 190.8107 70.2930 L 191.2358 71.3300 L 191.6609 72.3494 L 192.0862 73.3513 L 192.5116 74.3355 L 192.9372 75.3022 L 193.3628 76.2513 L 193.7886 77.1828 L 194.2144 78.0967 L 194.6404 78.9930 L 195.0665 79.8718 L 195.4926 80.7329 L 195.9188 81.5765 L 196.3452 82.4024 L 196.7716 83.2107 L 197.1981 84.0015 L 197.6247 84.7746 L 198.0513 85.5301 L 198.4781 86.2679 L 198.9049 86.9882 L 199.3319 87.6908 L 199.7589 88.3757 L 200.1860 89.0430 L 200.6132 89.6927 L 201.0405 90.3247 L 201.4679 90.9390 L 201.8954 91.5356 L 202.3230 92.1146 L 202.7507 92.6759 L 203.1785 93.2194 L 203.6064 93.7453 L 204.0345 94.2534 L 204.4626 94.7438 L 204.8909 95.2165 L 205.3193 95.6714 L 205.7479 96.1086 L 206.1766 96.5280 L 206.6054 96.9296 L 207.0344 97.3134 L 207.4635 97.6794 L 207.8928 98.0277 L 208.3222 98.3581 L 208.7517 98.6706 L 209.1814 98.9653 L 209.6113 99.2422 L 210.0413 99.5011 L 210.4715 99.7422 L 210.9018 99.9654 L 211.3323 100.1707 L 211.7630 100.3580 L 212.1937 100.5273 L 212.6247 100.6787 L 213.0557 100.8121 L 213.4869 100.9275 L 213.9182 101.0249 L 214.3497 101.1042 L 214.7812 101.1655 L 215.2129 101.2087 L 215.6447 101.2338 L 216.0766 101.2408 L 216.5086 101.2296 L 216.9407 101.2003 L 217.3729 101.1528 L 217.8052 101.0871 L 218.2375 101.0033 L 218.6700 100.9011 L 219.1026 100.7808 L 219.5352 100.6422 L 219.9680 100.4853 L 220.4008 100.3101 L 220.8338 100.1167 L 221.2669 99.9049 L 221.7001 99.6748 L 222.1334 99.4263 L 222.5670 99.1596 L 223.0007 98.8744 L 223.4346 98.5709 L 223.8687 98.2491 L 224.3030 97.9088 L 224.7376 97.5502 L 225.1725 97.1732 L 225.6077 96.7778 L 226.0433 96.3641 L 226.4791 95.9319 L 226.9154 95.4813 L 227.3521 95.0124 L 227.7893 94.5250 L 228.2269 94.0192 L 228.6651 93.4951 L 229.1038 92.9525 L 229.5431 92.3916 L 229.9830 91.8123 L 230.4236 91.2145 L 230.8649 90.5984 L 231.3069 89.9639 L 231.7497 89.3111 L 232.1933 88.6398 L 232.6378 87.9502 L 233.0832 87.2422 L 233.5295 86.5159 L 233.9768 85.7712 L 234.4251 85.0082 L 234.8745 84.2268 L 235.3250 83.4271 L 235.7766 82.6091 L 236.2295 81.7727 L 236.6836 80.9181 L 237.1390 80.0451 L 237.5957 79.1539 L 238.0539 78.2444 L 238.5134 77.3166 L 238.9744 76.3705 L 239.4370 75.4062 L 239.9011 74.4236 L 240.3668 73.4228 L 240.8342 72.4038 L 241.3033 71.3666 L 241.7742 70.3111 L 242.2469 69.2375 L 242.7214 68.1457 L 243.1979 67.0357 L 243.6763 65.9076 L 244.1567 64.7613 L 244.6391 63.5969 L 245.1237 62.4144 L 245.6104 61.2137 L 246.0992 59.9950 L 246.5904 58.7582 L 247.0838 57.5033 L 247.5796 56.2303 L 248.0777 54.9393 L 248.5783 53.6303 L 249.0814 52.3032 L 249.5870 50.9581 L 250.0952 49.5951 L 250.6061 48.2140 L 251.1196 46.8150 L 251.6358 45.3980 L 252.1549 43.9631 L 252.6767 42.5102 L 253.2014 41.0394 L 253.7290 39.5507 L 254.2596 38.0442 L 254.7933 36.5197 L 255.3299 34.9774 L 255.8697 33.4172 L 256.4126 31.8391 L 256.9587 30.2432 L 257.5081 28.6295 L 258.0607 26.9980 L 258.6167 25.3487 L 259.1761 23.6816 L 259.7389 21.9967 L 260.3051 20.2941 L 260.8749 18.5737 L 261.4482 16.8356 L 262.0251 15.0797 L 262.6056 13.3061 L 263.1898 11.5147 L 263.7778 9.7057 L 336.2222 -9.7057 L 335.6072 -7.9148 L 334.9944 -6.1426 L 334.3838 -4.3890 L 333.7755 -2.6541 L 333.1695 -0.9378 L 332.5656 0.7599 L 331.9639 2.4390 L 331.3644 4.0995 L 330.7671 5.7414 L 330.1718 7.3647 L 329.5787 8.9695 L 328.9877 10.5557 L 328.3988 12.1234 L 327.8120 13.6726 L 327.2272 15.2032 L 326.6444 16.7153 L 326.0637 18.2090 L 325.4850 19.6841 L 324.9083 21.1408 L 324.3336 22.5791 L 323.7608 23.9988 L 323.1900 25.4002 L 322.6212 26.7832 L 322.0543 28.1477 L 321.4893 29.4939 L 320.9262 30.8216 L 320.3650 32.1310 L 319.8057 33.4221 L 319.2482 34.6948 L 318.6926 35.9492 L 318.1389 37.1853 L 317.5870 38.4030 L 317.0369 39.6025 L 316.4886 40.7837 L 315.9421 41.9466 L 315.3973 43.0913 L 314.8544 44.2178 L 314.3132 45.3260 L 313.7737 46.4160 L 313.2360 47.4877 L 312.7000 48.5413 L 312.1657 49.5767 L 311.6331 50.5940 L 311.1022 51.5931 L 310.5730 52.5740 L 310.0454 53.5368 L 309.5194 54.4814 L 308.9951 55.4080 L 308.4724 56.3164 L 307.9513 57.2068 L 307.4317 58.0790 L 306.9138 58.9332 L 306.3974 59.7693 L 305.8825 60.5873 L 305.3692 61.3873 L 304.8573 62.1692 L 304.3470 62.9331 L 303.8382 63.6790 L 303.3308 64.4068 L 302.8248 65.1166 L 302.3203 65.8084 L 301.8171 66.4823 L 301.3154 67.1381 L 300.8150 67.7759 L 300.3160 68.3957 L 299.8183 68.9975 L 299.3219 69.5814 L 298.8268 70.1473 L 298.3329 70.6952 L 297.8402 71.2251 L 297.3488 71.7371 L 296.8586 72.2311 L 296.3695 72.7071 L 295.8815 73.1652 L 295.3947 73.6053 L 294.9089 74.0275 L 294.4241 74.4316 L 293.9404 74.8178 L 293.4576 75.1861 L 292.9758 75.5363 L 292.4949 75.8686 L 292.0149 76.1829 L 291.5357 76.4792 L 291.0572 76.7575 L 290.5796 77.0178 L 290.1026 77.2601 L 289.6263 77.4844 L 289.1506 77.6906 L 288.6755 77.8788 L 288.2009 78.0490 L 287.7267 78.2011 L 287.2530 78.3351 L 286.7796 78.4510 L 286.3066 78.5489 L 285.8337 78.6286 L 285.3611 78.6901 L 284.8886 78.7335 L 284.4161 78.7588 L 283.9437 78.7658 L 283.4711 78.7547 L 282.9985 78.7253 L 282.5256 78.6777 L 282.0525 78.6118 L 281.5791 78.5276 L 281.1052 78.4251 L 280.6309 78.3043 L 280.1561 78.1652 L 279.6807 78.0077 L 279.2046 77.8318 L 278.7278 77.6375 L 278.2502 77.4249 L 277.7718 77.1938 L 277.2924 76.9442 L 276.8121 76.6762 L 276.3308 76.3898 L 275.8483 76.0848 L 275.3647 75.7613 L 274.8799 75.4194 L 274.3938 75.0589 L 273.9063 74.6798 L 273.4175 74.2823 L 272.9272 73.8661 L 272.4354 73.4314 L 271.9420 72.9781 L 271.4470 72.5062 L 270.9503 72.0157 L 270.4519 71.5065 L 269.9517 70.9788 L 269.4496 70.4324 L 268.9456 69.8674 L 268.4396 69.2837 L 267.9316 68.6813 L 267.4215 68.0603 L 266.9092 67.4206 L 266.3948 66.7623 L 265.8781 66.0852 L 265.3591 65.3894 L 264.8377 64.6750 L 264.3139 63.9418 L 263.7875 63.1899 L 263.2587 62.4192 L 262.7272 61.6298 L 262.1930 60.8217 L 261.6561 59.9949 L 261.1164 59.1493 L 260.5739 58.2849 L 260.0284 57.4018 L 259.4799 56.5000 L 258.9284 55.5793 L 258.3738 54.6399 L 257.8160 53.6818 L 257.2550 52.7048 L 256.6907 51.7091 L 256.1230 50.6946 L 255.5519 49.6613 L 254.9773 48.6093 L 254.3991 47.5384 L 253.8173 46.4488 L 253.2318 45.3404 L 252.6426 44.2133 L 252.0495 43.0674 L 251.4524 41.9027 L 250.8515 40.7192 L 250.2464 39.5170 L 249.6373 38.2960 L 249.0240 37.0563 L 248.4064 35.7978 L 247.7845 34.5206 L 247.1582 33.2247 L 246.5275 31.9101 L 245.8922 30.5768 L 245.2523 29.2248 L 244.6077 27.8542 L 243.9583 26.4649 L 243.3041 25.0569 L 242.6450 23.6304 L 241.9810 22.1852 L 241.3119 20.7215 L 240.6377 19.2392 L 239.9583 17.7385 L 239.2736 16.2192 L 238.5836 14.6814 L 237.8882 13.1252 L 237.1874 11.5506 L 236.4810 9.9576 L 235.7690 8.3463 L 235.0513 6.7167 L 234.3278 5.0688 L 233.5986 3.4027 L 232.8635 1.7184 L 232.1224 0.0160 L 231.3754 -1.7045 L 230.6222 -3.4429 L 229.8630 -5.1994 L 229.0976 -6.9738 L 228.3259 -8.7660 L 227.5480 -10.5761 L 226.7637 -12.4039 L 225.9730 -14.2493 L 225.9730 -14.2493 L 225.1808 -16.0937 L 224.3919 -17.9185 L 223.6063 -19.7237 L 222.8242 -21.5092 L 222.0455 -23.2751 L 221.2702 -25.0213 L 220.4985 -26.7478 L 219.7304 -28.4547 L 218.9658 -30.1420 L 218.2049 -31.8096 L 217.4476 -33.4576 L 216.6941 -35.0859 L 215.9442 -36.6947 L 215.1981 -38.2838 L 214.4558 -39.8534 L 213.7172 -41.4034 L 212.9825 -42.9338 L 212.2516 -44.4448 L 211.5246 -45.9362 L 210.8015 -47.4081 L 210.0822 -48.8606 L 209.3668 -50.2936 L 208.6553 -51.7072 L 207.9478 -53.1014 L 207.2442 -54.4762 L 206.5445 -55.8317 L 205.8487 -57.1679 L 205.1569 -58.4848 L 204.4690 -59.7825 L 203.7850 -61.0609 L 203.1050 -62.3201 L 202.4289 -63.5602 L 201.7567 -64.7811 L 201.0883 -65.9829 L 200.4239 -67.1657 L 199.7634 -68.3294 L 199.1067 -69.4741 L 198.4539 -70.5998 L 197.8049 -71.7065 L 197.1598 -72.7944 L 196.5184 -73.8633 L 195.8808 -74.9134 L 195.2470 -75.9446 L 194.6168 -76.9571 L 193.9904 -77.9508 L 193.3677 -78.9257 L 192.7485 -79.8820 L 192.1330 -80.8195 L 191.5211 -81.7384 L 190.9128 -82.6387 L 190.3079 -83.5204 L 189.7066 -84.3835 L 189.1086 -85.2281 L 188.5141 -86.0541 L 187.9230 -86.8617 L 187.3352 -87.6507 L 186.7507 -88.4214 L 186.1694 -89.1736 L 185.5914 -89.9074 L 185.0165 -90.6228 L 184.4447 -91.3199 L 183.8761 -91.9987 L 183.3104 -92.6591 L 182.7477 -93.3012 L 182.1880 -93.9251 L 181.6311 -94.5307 L 181.0771 -95.1180 L 180.5258 -95.6871 L 179.9773 -96.2380 L 179.4315 -96.7708 L 178.8882 -97.2853 L 178.3475 -97.7816 L 177.8093 -98.2598 L 177.2736 -98.7199 L 176.7402 -99.1618 L 176.2091 -99.5855 L 175.6803 -99.9912 L 175.1537 -100.3787 L 174.6291 -100.7481 L 174.1066 -101.0994 L 173.5861 -101.4327 L 173.0674 -101.7478 L 172.5506 -102.0448 L 172.0354 -102.3237 L 171.5220 -102.5845 L 171.0100 -102.8272 L 170.4996 -103.0518 L 169.9905 -103.2583 L 169.4828 -103.4467 L 168.9762 -103.6169 L 168.4707 -103.7690 L 167.9662 -103.9030 L 167.4626 -104.0188 L 166.9598 -104.1164 L 166.4576 -104.1959 L 165.9561 -104.2571 L 165.4550 -104.3002 L 164.9542 -104.3250 L 164.4537 -104.3316 L 163.9533 -104.3199 L 163.4529 -104.2899 L 162.9525 -104.2416 L 162.4518 -104.1750 L 161.9509 -104.0900 L 161.4495 -103.9867 L 160.9476 -103.8649 L 160.4451 -103.7248 L 159.9418 -103.5662 L 159.4378 -103.3892 L 158.9328 -103.1937 L 158.4269 -102.9797 L 157.9199 -102.7472 L 157.4117 -102.4962 L 156.9023 -102.2266 L 156.3916 -101.9384 L 155.8795 -101.6316 L 155.3659 -101.3062 L 154.8508 -100.9622 L 154.3341 -100.5995 L 153.8158 -100.2181 L 153.2958 -99.8181 L 152.7740 -99.3993 L 152.2504 -98.9619 L 151.7250 -98.5056 L 151.1977 -98.0306 L 150.6684 -97.5369 L 150.1372 -97.0243 L 149.6039 -96.4929 L 149.0686 -95.9427 L 148.5311 -95.3736 L 147.9916 -94.7857 L 147.4498 -94.1789 L 146.9059 -93.5532 L 146.3598 -92.9086 L 145.8114 -92.2451 L 145.2607 -91.5626 L 144.7078 -90.8611 L 144.1525 -90.1407 L 143.5949 -89.4013 L 143.0349 -88.6429 L 142.4726 -87.8655 L 141.9079 -87.0690 L 141.3408 -86.2535 L 140.7712 -85.4190 L 140.1992 -84.5653 L 139.6248 -83.6926 L 139.0480 -82.8008 L 138.4686 -81.8899 L 137.8868 -80.9599 L 137.3026 -80.0107 L 136.7158 -79.0424 L 136.1266 -78.0549 L 135.5348 -77.0483 L 134.9406 -76.0225 L 134.3439 -74.9775 L 133.7447 -73.9134 L 133.1431 -72.8300 L 132.5389 -71.7275 L 131.9322 -70.6057 L 131.3231 -69.4648 L 130.7115 -68.3046 L 130.0974 -67.1252 L 129.4808 -65.9265 L 128.8618 -64.7087 L 128.2403 -63.4716 L 127.6164 -62.2153 L 126.9900 -60.9398 L 126.3612 -59.6451 L 125.7300 -58.3311 L 125.0964 -56.9980 L 124.4604 -55.6456 L 123.8220 -54.2740 L 123.1812 -52.8832 L 122.5380 -51.4733 L 121.8925 -50.0442 L 121.2447 -48.5959 L 120.5945 -47.1284 L 119.9421 -45.6418 L 119.2873 -44.1361 L 118.6302 -42.6113 L 117.9709 -41.0674 L 117.3093 -39.5044 L 116.6455 -37.9224 L 115.9794 -36.3214 L 115.3111 -34.7013 L 114.6406 -33.0622 L 113.9679 -31.4042 L 113.2930 -29.7273 L 112.6160 -28.0314 L 111.9367 -26.3167 L 111.2554 -24.5831 L 110.5718 -22.8307 L 109.8862 -21.0595 L 109.1984 -19.2696 L 108.5085 -17.4609 L 107.8165 -15.6335 L 107.1224 -13.7875 L 106.4262 -11.9229 L 105.7280 -10.0398 L 105.7280 -10.0398 L 105.0315 -8.1570 L 104.3408 -6.2937 L 103.6556 -4.4499 L 102.9760 -2.6255 L 102.3018 -0.8206 L 101.6329 0.9649 L 100.9692 2.7309 L 100.3107 4.4774 L 99.6571 6.2044 L 99.0085 7.9120 L 98.3647 9.6001 L 97.7257 11.2687 L 97.0914 12.9179 L 96.4616 14.5476 L 95.8363 16.1579 L 95.2154 17.7487 L 94.5989 19.3201 L 93.9866 20.8721 L 93.3785 22.4047 L 92.7744 23.9178 L 92.1744 25.4116 L 91.5782 26.8860 L 90.9860 28.3411 L 90.3975 29.7768 L 89.8128 31.1932 L 89.2316 32.5902 L 88.6541 33.9680 L 88.0800 35.3265 L 87.5094 36.6657 L 86.9421 37.9856 L 86.3782 39.2863 L 85.8174 40.5678 L 85.2599 41.8301 L 84.7054 43.0732 L 84.1540 44.2971 L 83.6056 45.5018 L 83.0601 46.6874 L 82.5175 47.8539 L 81.9777 49.0013 L 81.4406 50.1296 L 80.9062 51.2388 L 80.3745 52.3289 L 79.8453 53.4000 L 79.3187 54.4521 L 78.7945 55.4851 L 78.2728 56.4992 L 77.7534 57.4942 L 77.2363 58.4703 L 76.7216 59.4275 L 76.2090 60.3657 L 75.6986 61.2850 L 75.1903 62.1854 L 74.6840 63.0669 L 74.1798 63.9295 L 73.6776 64.7733 L 73.1773 65.5982 L 72.6788 66.4043 L 72.1822 67.1915 L 71.6874 67.9600 L 71.1943 68.7097 L 70.7029 69.4405 L 70.2132 70.1527 L 69.7251 70.8460 L 69.2385 71.5207 L 68.7534 72.1766 L 68.2699 72.8138 L 67.7877 73.4323 L 67.3069 74.0321 L 66.8275 74.6132 L 66.3494 75.1757 L 65.8726 75.7196 L 65.3969 76.2447 L 64.9225 76.7513 L 64.4491 77.2393 L 63.9769 77.7086 L 63.5057 78.1594 L 63.0356 78.5916 L 62.5664 79.0053 L 62.0981 79.4004 L 61.6308 79.7769 L 61.1642 80.1350 L 60.6985 80.4745 L 60.2336 80.7956 L 59.7693 81.0981 L 59.3058 81.3822 L 58.8429 81.6478 L 58.3806 81.8950 L 57.9188 82.1238 L 57.4576 82.3342 L 56.9969 82.5262 L 56.5366 82.6998 L 56.0766 82.8550 L 55.6171 82.9919 L 55.1578 83.1104 L 54.6988 83.2107 L 54.2401 83.2926 L 53.7815 83.3562 L 53.3231 83.4016 L 52.8647 83.4287 L 52.4065 83.4376 L 51.9482 83.4283 L 51.4900 83.4007 L 51.0316 83.3550 L 50.5732 83.2911 L 50.1147 83.2090 L 49.6559 83.1087 L 49.1970 82.9903 L 48.7378 82.8538 L 48.2783 82.6992 L 47.8185 82.5264 L 47.3583 82.3355 L 46.8977 82.1266 L 46.4367 81.8995 L 45.9752 81.6544 L 45.5132 81.3912 L 45.0507 81.1099 L 44.5876 80.8106 L 44.1239 80.4932 L 43.6596 80.1577 L 43.1946 79.8042 L 42.7289 79.4326 L 42.2625 79.0429 L 41.7954 78.6352 L 41.3274 78.2095 L 40.8587 77.7656 L 40.3890 77.3038 L 39.9186 76.8238 L 39.4472 76.3258 L 38.9749 75.8098 L 38.5016 75.2756 L 38.0273 74.7234 L 37.5521 74.1531 L 37.0758 73.5647 L 36.5984 72.9583 L 36.1199 72.3337 L 35.6403 71.6911 L 35.1596 71.0303 L 34.6777 70.3515 L 34.1946 69.6545 L 33.7102 68.9394 L 33.2246 68.2062 L 32.7377 67.4548 L 32.2496 66.6853 L 31.7601 65.8976 L 31.2692 65.0918 L 30.7770 64.2678 L 30.2833 63.4257 L 29.7882 62.5653 L 29.2917 61.6868 L 28.7937 60.7901 L 28.2942 59.8751 L 27.7931 58.9420 L 27.2905 57.9906 L 26.7863 57.0209 L 26.2805 56.0331 L 25.7731 55.0270 L 25.2640 54.0026 L 24.7533 52.9599 L 24.2408 51.8990 L 23.7266 50.8197 L 23.2106 49.7222 L 22.6929 48.6064 L 22.1734 47.4722 L 21.6520 46.3197 L 21.1287 45.1489 L 20.6036 43.9597 L 20.0766 42.7521 L 19.5477 41.5262 L 19.0167 40.2819 L 18.4838 39.0192 L 17.9489 37.7381 L 17.4120 36.4387 L 16.8730 35.1207 L 16.3320 33.7844 L 15.7888 32.4296 L 15.2434 31.0564 L 14.6960 29.6647 L 14.1463 28.2546 L 13.5944 26.8260 L 13.0403 25.3789 L 12.4839 23.9133 L 11.9253 22.4292 L 11.3643 20.9266 L 10.8010 19.4055 L 10.2353 17.8659 L 9.6672 16.3077 L 9.0967 14.7310 L 8.5237 13.1358 L 7.9483 11.5220 L 7.3704 9.8896 L 6.7899 8.2387 L 6.2069 6.5692 L 5.6213 4.8811 L 5.0331 3.1744 L 4.4423 1.4491 L 3.8488 -0.2948 L 3.2526 -2.0573 L 2.6538 -3.8384 L 2.0521 -5.6382 L -2.0521 5.6382 Z"/>
  
  
  
</g>
</svg>