<svg xmlns="http://www.w3.org/2000/svg" width="137.7865" height="39.2337" viewBox="-19.3950 -19.6169 137.7865 39.2337">
  
  
  <path fill="black" stroke="none" fill-rule="evenodd" d="M -9.3950 -3.4256 L -5.9192 8.0600 L -2.9614 7.1649 L 6.3095 9.0442 L 6.3869 8.6625 L 8.3279 9.0559 L 8.4053 8.6741 L 10.3464 9.0676 L 10.4237 8.6858 L 12.3648 9.0793 L 12.4422 8.6975 L 14.3832 9.0910 L 14.4606 8.7092 L 16.4017 9.1027 L 16.4790 8.7209 L 18.4201 9.1144 L 18.4975 8.7326 L 20.4385 9.1260 L 20.5159 8.7443 L 22.4570 9.1377 L 22.5344 8.7559 L 24.4754 9.1494 L 24.5528 8.7676 L 26.4938 9.1611 L 26.5712 8.7793 L 28.5123 9.1728 L 28.5897 8.7910 L 30.5307 9.1845 L 30.6081 8.8027 L 32.5491 9.1962 L 32.6265 8.8144 L 34.5676 9.2078 L 34.6450 8.8261 L 36.5860 9.2195 L 36.6634 8.8377 L 38.6044 9.2312 L 38.6818 8.8494 L 40.6229 9.2429 L 40.7003 8.8611 L 42.6413 9.2546 L 42.7187 8.8728 L 44.6598 9.2663 L 44.7371 8.8845 L 46.6782 9.2780 L 46.7556 8.8962 L 48.6966 9.2897 L 48.7740 8.9079 L 50.7151 9.3013 L 50.7924 8.9196 L 52.7335 9.3130 L 52.8109 8.9312 L 54.7519 9.3247 L 54.8293 8.9429 L 56.7704 9.3364 L 56.8478 8.9546 L 58.7888 9.3481 L 58.8662 8.9663 L 60.8072 9.3598 L 60.8846 8.9780 L 62.8257 9.3715 L 62.9031 8.9897 L 64.8441 9.3831 L 64.9215 9.0014 L 66.8625 9.3948 L 66.9399 9.0130 L 68.8810 9.4065 L 68.9584 9.0247 L 70.8994 9.4182 L 70.9768 9.0364 L 72.9178 9.4299 L 72.9952 9.0481 L 74.9363 9.4416 L 75.0137 9.0598 L 76.9547 9.4533 L 77.0321 9.0715 L 78.9732 9.4649 L 79.0505 9.0832 L 80.9916 9.4766 L 81.0690 9.0949 L 83.0100 9.4883 L 83.0874 9.1065 L 85.0285 9.5000 L 85.1058 9.1182 L 87.0469 9.5117 L 87.1243 9.1299 L 89.0653 9.5234 L 89.1427 9.1416 L 91.0838 9.5351 L 91.1612 9.1533 L 93.1022 9.5468 L 93.1796 9.1650 L 95.1206 9.5584 L 95.1980 9.1767 L 97.1391 9.5701 L 97.2165 9.1883 L 99.1575 9.5818 L 99.2349 9.2000 L 101.1759 9.5935 L 101.2533 9.2117 L 103.1944 9.6052 L 103.2718 9.2234 L 105.2128 9.6169 L 108.3915 -6.0642 L 90.8656 -9.6169 L 90.7882 -9.2351 L 88.9625 -9.6052 L 88.8851 -9.2234 L 87.0594 -9.5935 L 86.9820 -9.2117 L 85.1562 -9.5818 L 85.0788 -9.2000 L 83.2531 -9.5701 L 83.1757 -9.1883 L 81.3500 -9.5584 L 81.2726 -9.1767 L 79.4468 -9.5468 L 79.3694 -9.1650 L 77.5437 -9.5351 L 77.4663 -9.1533 L 75.6406 -9.5234 L 75.5632 -9.1416 L 73.7374 -9.5117 L 73.6600 -9.1299 L 71.8343 -9.5000 L 71.7569 -9.1182 L 69.9312 -9.4883 L 69.8538 -9.1065 L 68.0280 -9.4766 L 67.9506 -9.0949 L 66.1249 -9.4649 L 66.0475 -9.0832 L 64.2218 -9.4533 L 64.1444 -9.0715 L 62.3186 -9.4416 L 62.2412 -9.0598 L 60.4155 -9.4299 L 60.3381 -9.0481 L 58.5124 -9.4182 L 58.4350 -9.0364 L 56.6092 -9.4065 L 56.5318 -9.0247 L 54.7061 -9.3948 L 54.6287 -9.0130 L 52.8030 -9.3831 L 52.7256 -9.0014 L 50.8998 -9.3715 L 50.8224 -8.9897 L 48.9967 -9.3598 L 48.9193 -8.9780 L 47.0936 -9.3481 L 47.0162 -8.9663 L 45.1904 -9.3364 L 45.1130 -8.9546 L 43.2873 -9.3247 L 43.2099 -8.9429 L 41.3842 -9.3130 L 41.3068 -8.9312 L 39.4810 -9.3013 L 39.4036 -8.9196 L 37.5779 -9.2897 L 37.5005 -8.9079 L 35.6748 -9.2780 L 35.5974 -8.8962 L 33.7716 -9.2663 L 33.6942 -8.8845 L 31.8685 -9.2546 L 31.7911 -8.8728 L 29.9654 -9.2429 L 29.8880 -8.8611 L 28.0622 -9.2312 L 27.9848 -8.8494 L 26.1591 -9.2195 L 26.0817 -8.8377 L 24.2560 -9.2078 L 24.1786 -8.8261 L 22.3528 -9.1962 L 22.2754 -8.8144 L 20.4497 -9.1845 L 20.3723 -8.8027 L 18.5466 -9.1728 L 18.4692 -8.7910 L 16.6434 -9.1611 L 16.5660 -8.7793 L 14.7403 -9.1494 L 14.6629 -8.7676 L 12.8372 -9.1377 L 12.7598 -8.7559 L 10.9340 -9.1260 L 10.8566 -8.7443 L 9.0309 -9.1144 L 8.9535 -8.7326 L 7.1278 -9.1027 L 7.0504 -8.7209 L 5.2246 -9.0910 L 5.1472 -8.7092 L 3.3215 -9.0793 L 3.2441 -8.6975 L 1.4184 -9.0676 L 1.3410 -8.6858 L -0.4848 -9.0559 L -0.5622 -8.6741 L -2.3879 -9.0442 L -3.1434 -5.3175 L -9.3950 -3.4256 Z"/>
  
</svg>