<svg xmlns="http://www.w3.org/2000/svg" width="358.8980" height="241.0811" viewBox="-12.6758 -116.1149 358.8980 241.0811">
  <path fill="black" stroke="none" fill-rule="evenodd" d="M -2.6758 1.0214 L -2.6446 1.4668 L -2.5681 1.8871 L -2.4477 2.2751 L -2.2854 2.6242 L -2.0840 2.9284 L -1.8469 3.1825 L -1.5782 3.3821 L -1.2826 3.5238 L -0.9650 3.6053 L -0.6308 3.6251 L -0.2859 3.5828 L 0.0639 3.4793 L 0.4126 3.3162 L 0.7542 3.0963 L 1.0830 2.8235 L 1.3932 2.5024 L 1.6796 2.1385 L 1.9372 1.7380 L 2.1617 1.3077 L 2.3492 0.8551 L 2.4965 0.3878 L 2.6011 -0.0861 L 2.6612 -0.5586 L 2.6758 -1.0214 L 2.6446 -1.4668 L 2.5681 -1.8871 L 2.4477 -2.2751 L 2.2854 -2.6242 L 2.0840 -2.9284 L 1.8469 -3.1825 L 1.5782 -3.3821 L 1.2826 -3.5238 L 0.9650 -3.6053 L 0.6308 -3.6251 L 0.2859 -3.5828 L -0.0639 -3.4793 L -0.4126 -3.3162 L -0.7542 -3.0963 L -1.0830 -2.8235 L -1.3932 -2.5024 L -1.6796 -2.1385 L -1.9372 -1.7380 L -2.1617 -1.3077 L -2.3492 -0.8551 L -2.4965 -0.3878 L -2.6011 0.0861 L -2.6612 0.5586 L -2.6758 1.0214 Z"/>
<path fill="black" stroke="none" fill-rule="evenodd" d="M -0.6612 7.0203 L -0.6300 7.4661 L -0.5535 7.8867 L -0.4330 8.2750 L -0.2706 8.6244 L -0.0690 8.9289 L 0.1682 9.1832 L 0.4370 9.3830 L 0.7329 9.5249 L 1.0508 9.6064 L 1.3852 9.6262 L 1.7304 9.5840 L 2.0805 9.4804 L 2.4295 9.3172 L 2.7714 9.0972 L 2.8105 9.0648 L 2.6036 9.2788 L 2.3162 9.6438 L 2.0576 10.0455 L 1.8322 10.4771 L 1.6440 10.9311 L 1.4960 11.3998 L 1.3909 11.8752 L 1.3305 12.3491 L 1.3157 12.8135 L 1.3469 13.2603 L 1.4235 13.6820 L 1.5441 14.0713 L 1.7068 14.4215 L 1.9088 14.7268 L 2.1465 14.9817 L 2.4160 15.1821 L 2.7125 15.3244 L 3.0311 15.4062 L 3.3663 15.4262 L 3.7123 15.3839 L 4.0633 15.2801 L 4.3020 15.1686 L 4.2620 15.2194 L 4.0022 15.6226 L 3.7758 16.0557 L 3.5866 16.5114 L 3.4379 16.9819 L 3.3322 17.4591 L 3.2713 17.9348 L 3.2563 18.4009 L 3.2874 18.8495 L 3.3641 19.2729 L 3.4851 19.6637 L 3.6483 20.0154 L 3.8509 20.3219 L 4.0894 20.5779 L 4.3598 20.7792 L 4.6575 20.9222 L 4.9773 21.0044 L 5.3138 21.0246 L 5.6611 20.9823 L 5.9789 20.8885 L 5.9134 20.9900 L 5.6855 21.4253 L 5.4951 21.8833 L 5.3453 22.3562 L 5.2388 22.8358 L 5.1773 23.3140 L 5.1620 23.7826 L 5.1930 24.2335 L 5.2699 24.6591 L 5.3913 25.0521 L 5.5551 25.4057 L 5.7586 25.7140 L 5.9982 25.9715 L 6.2700 26.1739 L 6.5691 26.3179 L 6.8905 26.4007 L 7.2288 26.4212 L 7.5780 26.3789 L 7.6885 26.3463 L 7.5628 26.5860 L 7.3708 27.0469 L 7.2197 27.5227 L 7.1122 28.0054 L 7.0500 28.4867 L 7.0342 28.9583 L 7.0651 29.4122 L 7.1422 29.8407 L 7.2641 30.2363 L 7.4287 30.5924 L 7.6333 30.9027 L 7.8744 31.1621 L 8.1477 31.3661 L 8.4487 31.5112 L 8.7722 31.5948 L 9.1126 31.6157 L 9.3906 31.5822 L 9.2152 32.0022 L 9.0625 32.4816 L 8.9537 32.9679 L 8.8906 33.4528 L 8.8743 33.9281 L 8.9051 34.3855 L 8.9824 34.8173 L 9.1049 35.2161 L 9.2705 35.5750 L 9.4764 35.8880 L 9.7191 36.1496 L 9.9944 36.3553 L 10.2976 36.5018 L 10.6235 36.5863 L 10.9665 36.6076 L 11.0954 36.5922 L 11.0296 36.7494 L 10.8751 37.2328 L 10.7649 37.7233 L 10.7008 38.2124 L 10.6839 38.6918 L 10.7145 39.1532 L 10.7920 39.5889 L 10.9152 39.9912 L 11.0820 40.3535 L 11.2894 40.6693 L 11.5339 40.9334 L 11.8114 41.1413 L 12.1171 41.2893 L 12.4457 41.3749 L 12.7810 41.3960 L 12.6590 41.7765 L 12.5472 42.2716 L 12.4819 42.7653 L 12.4644 43.2493 L 12.4947 43.7152 L 12.5726 44.1551 L 12.6965 44.5615 L 12.8645 44.9274 L 13.0735 45.2465 L 13.3201 45.5134 L 13.6001 45.7236 L 13.9085 45.8733 L 14.2403 45.9601 L 14.4601 45.9742 L 14.4155 46.1127 L 14.3020 46.6128 L 14.2355 47.1115 L 14.2172 47.6005 L 14.2473 48.0713 L 14.3254 48.5159 L 14.4502 48.9266 L 14.6195 49.2965 L 14.8303 49.6192 L 15.0792 49.8892 L 15.3618 50.1018 L 15.6733 50.2535 L 16.0083 50.3416 L 16.1217 50.3490 L 16.0308 50.7469 L 15.9630 51.2511 L 15.9438 51.7454 L 15.9737 52.2214 L 16.0522 52.6710 L 16.1778 53.0864 L 16.3484 53.4606 L 16.5612 53.7871 L 16.8125 54.0603 L 17.0979 54.2756 L 17.4126 54.4294 L 17.7513 54.5189 L 17.7705 54.5201 L 17.7352 54.6739 L 17.6659 55.1838 L 17.6459 55.6838 L 17.6755 56.1653 L 17.7542 56.6202 L 17.8807 57.0406 L 18.0528 57.4192 L 18.2676 57.7498 L 18.5214 58.0265 L 18.8098 58.2447 L 19.1280 58.4006 L 19.4055 58.4743 L 19.3457 58.9098 L 19.3247 59.4157 L 19.3540 59.9030 L 19.4331 60.3633 L 19.5605 60.7888 L 19.7341 61.1722 L 19.9510 61.5070 L 20.2074 61.7874 L 20.4990 62.0085 L 20.8207 62.1667 L 21.0324 62.2233 L 21.0039 62.4289 L 20.9820 62.9409 L 21.0109 63.4341 L 21.0902 63.9001 L 21.2186 64.3310 L 21.3938 64.7193 L 21.6128 65.0584 L 21.8719 65.3425 L 22.1667 65.5668 L 22.4921 65.7274 L 22.6408 65.7673 L 22.6190 66.2593 L 22.6476 66.7586 L 22.7273 67.2305 L 22.8566 67.6668 L 23.0333 68.0601 L 23.2545 68.4037 L 23.5164 68.6917 L 23.8144 68.9191 L 24.1436 69.0821 L 24.2494 69.1107 L 24.2375 69.3710 L 24.2657 69.8764 L 24.3456 70.3542 L 24.4758 70.7960 L 24.6542 71.1944 L 24.8776 71.5425 L 25.1422 71.8344 L 25.4436 72.0651 L 25.7765 72.2306 L 25.8400 72.2478 L 25.8387 72.2757 L 25.8665 72.7873 L 25.9467 73.2710 L 26.0778 73.7184 L 26.2577 74.1219 L 26.4834 74.4746 L 26.7508 74.7704 L 27.0555 75.0044 L 27.3922 75.1724 L 27.4354 75.1842 L 27.4516 75.4913 L 27.5320 75.9809 L 27.6641 76.4338 L 27.8456 76.8424 L 28.0733 77.1997 L 28.3435 77.4995 L 28.6515 77.7366 L 28.9920 77.9072 L 29.0186 77.9145 L 29.0224 77.9881 L 29.1030 78.4836 L 29.2360 78.9421 L 29.4190 79.3557 L 29.6489 79.7175 L 29.9219 80.0212 L 30.2331 80.2616 L 30.5774 80.4346 L 30.6070 80.4428 L 30.6612 80.7790 L 30.7950 81.2429 L 30.9795 81.6616 L 31.2115 82.0278 L 31.4871 82.3353 L 31.8016 82.5789 L 32.1495 82.7544 L 32.1917 82.7662 L 32.2079 82.8671 L 32.3425 83.3363 L 32.5284 83.7598 L 32.7625 84.1304 L 33.0407 84.4417 L 33.3583 84.6885 L 33.7098 84.8664 L 33.7842 84.8872 L 33.8798 85.2220 L 34.0672 85.6503 L 34.3032 86.0251 L 34.5839 86.3401 L 34.9045 86.5899 L 35.2595 86.7702 L 35.3811 86.8044 L 35.4083 86.9000 L 35.5970 87.3329 L 35.8349 87.7118 L 36.1181 88.0304 L 36.4416 88.2832 L 36.8000 88.4658 L 36.9946 88.5207 L 37.1191 88.8076 L 37.3589 89.1905 L 37.6444 89.5125 L 37.9707 89.7682 L 38.3323 89.9530 L 38.6174 90.0339 L 38.6349 90.0743 L 38.8764 90.4611 L 39.1641 90.7864 L 39.4932 91.0448 L 39.8579 91.2318 L 40.2520 91.3441 L 40.2781 91.3464 L 40.3885 91.5236 L 40.6784 91.8522 L 41.0100 92.1132 L 41.3777 92.3022 L 41.7751 92.4161 L 41.9424 92.4306 L 42.1882 92.7099 L 42.5223 92.9735 L 42.8929 93.1645 L 43.2935 93.2797 L 43.6522 93.3114 L 43.6947 93.3598 L 44.0312 93.6259 L 44.4045 93.8189 L 44.8083 93.9355 L 45.2356 93.9737 L 45.3963 93.9589 L 45.5375 94.0707 L 45.9135 94.2657 L 46.3203 94.3836 L 46.7510 94.4226 L 47.1854 94.3830 L 47.4208 94.5054 L 47.8307 94.6246 L 48.2646 94.6644 L 48.7151 94.6238 L 48.9812 94.5543 L 49.3402 94.6592 L 49.7774 94.6997 L 50.2315 94.6594 L 50.6947 94.5388 L 50.8283 94.4817 L 50.8497 94.4879 L 51.2904 94.5292 L 51.7481 94.4891 L 52.2151 94.3681 L 52.6833 94.1684 L 52.7213 94.1458 L 52.8044 94.1537 L 53.2659 94.1137 L 53.7369 93.9923 L 54.2092 93.7916 L 54.6185 93.5483 L 54.7859 93.5340 L 55.2611 93.4122 L 55.7378 93.2102 L 56.2079 92.9317 L 56.5095 92.6995 L 56.7888 92.6283 L 57.2702 92.4251 L 57.7450 92.1446 L 58.2051 91.7916 L 58.3933 91.6111 L 58.8076 91.4370 L 59.2876 91.1543 L 59.7527 90.7984 L 60.1951 90.3753 L 60.2798 90.2760 L 60.3509 90.2463 L 60.8366 89.9613 L 61.3074 89.6023 L 61.7553 89.1753 L 62.1598 88.7027 L 62.3933 88.5663 L 62.8703 88.2038 L 63.3243 87.7726 L 63.7474 87.2799 L 63.9749 86.9574 L 64.4427 86.6035 L 64.9033 86.1676 L 65.3328 85.6694 L 65.7239 85.1175 L 65.8149 84.9607 L 66.0257 84.8018 L 66.4937 84.3608 L 66.9303 83.8566 L 67.3280 83.2978 L 67.6171 82.8021 L 67.6205 82.7995 L 68.0967 82.3529 L 68.5411 81.8420 L 68.9462 81.2757 L 69.3051 80.6635 L 69.4221 80.4162 L 69.7136 80.1443 L 70.1667 79.6262 L 70.5799 79.0516 L 70.9462 78.4303 L 71.2230 77.8492 L 71.3456 77.7355 L 71.8082 77.2095 L 72.2304 76.6259 L 72.6051 75.9946 L 72.9257 75.3265 L 73.0056 75.1141 L 73.4671 74.5927 L 73.8992 73.9992 L 74.2830 73.3570 L 74.6119 72.6771 L 74.8127 72.1488 L 75.1446 71.7764 L 75.5877 71.1721 L 75.9817 70.5179 L 76.3197 69.8251 L 76.5960 69.1054 L 76.6255 69.0022 L 76.8420 68.7611 L 77.2973 68.1451 L 77.7025 67.4779 L 78.0506 66.7710 L 78.3358 66.0364 L 78.4383 65.6828 L 78.5607 65.5476 L 79.0293 64.9189 L 79.4469 64.2376 L 79.8063 63.5153 L 80.1013 62.7645 L 80.2785 62.1623 L 80.3019 62.1367 L 80.7853 61.4942 L 81.2165 60.7975 L 81.5883 60.0586 L 81.8942 59.2901 L 82.1290 58.5051 L 82.1449 58.4264 L 82.5665 57.8718 L 83.0128 57.1585 L 83.3983 56.4015 L 83.7163 55.6138 L 83.9614 54.8088 L 84.0237 54.5088 L 84.3743 54.0525 L 84.8374 53.3212 L 85.2380 52.5446 L 85.5694 51.7360 L 85.8259 50.9093 L 85.9369 50.3885 L 86.2101 50.0373 L 86.6916 49.2865 L 87.1090 48.4888 L 87.4553 47.6576 L 87.7245 46.8073 L 87.8870 46.0659 L 88.0751 45.8272 L 88.5769 45.0554 L 89.0130 44.2348 L 89.3757 43.3792 L 89.6591 42.5034 L 89.8581 41.6222 L 89.8670 41.5530 L 89.9707 41.4232 L 90.4949 40.6289 L 90.9515 39.7836 L 91.3326 38.9017 L 91.6317 37.9982 L 91.8437 37.0887 L 91.8753 36.8546 L 91.8980 36.8266 L 92.4470 36.0082 L 92.9263 35.1363 L 93.3277 34.2260 L 93.6444 33.2928 L 93.8710 32.3526 L 93.9308 31.9322 L 94.4344 31.1943 L 94.9389 30.2940 L 95.3629 29.3532 L 95.6992 28.3879 L 95.9420 27.4146 L 96.0348 26.7981 L 96.4586 26.1887 L 96.9908 25.2580 L 97.4399 24.2844 L 97.7980 23.2846 L 98.0591 22.2757 L 98.1893 21.4599 L 98.5206 20.9929 L 99.0836 20.0297 L 99.5604 19.0211 L 99.9429 17.9843 L 100.2246 16.9371 L 100.3970 15.9181 L 100.6217 15.6082 L 101.2186 14.6105 L 101.7262 13.5646 L 102.1359 12.4882 L 102.4406 11.4000 L 102.6350 10.3183 L 102.6444 10.1959 L 102.7627 10.0365 L 103.3971 9.0022 L 103.9389 7.9165 L 104.3788 6.7980 L 104.7093 5.6658 L 104.9247 4.5393 L 104.9480 4.2736 L 105.6202 3.2065 L 106.1999 2.0787 L 106.6736 0.9153 L 107.0330 -0.2637 L 107.2721 -1.4383 L 107.3014 -1.7316 L 107.8475 -2.5752 L 108.4678 -3.7461 L 108.9778 -4.9555 L 109.3686 -6.1827 L 109.6336 -7.4068 L 109.6510 -7.5618 L 110.0379 -8.1434 L 110.7002 -9.3566 L 111.2478 -10.6115 L 111.6714 -11.8866 L 111.9638 -13.1600 L 111.9647 -13.1668 L 112.1916 -13.4989 L 112.8969 -14.7537 L 113.4835 -16.0534 L 113.9412 -17.3756 L 114.2171 -18.5122 L 114.3087 -18.6428 L 115.0582 -19.9382 L 115.6848 -21.2817 L 116.1776 -22.6503 L 116.4333 -23.6492 L 117.1842 -24.9109 L 117.8516 -26.2971 L 118.3806 -27.7111 L 118.6206 -28.6030 L 119.2752 -29.6729 L 119.9840 -31.1006 L 120.5499 -32.5588 L 120.7665 -33.3262 L 121.3315 -34.2252 L 122.0823 -35.6929 L 122.6857 -37.1940 L 122.8704 -37.8196 L 123.3537 -38.5688 L 124.1468 -40.0750 L 124.7879 -41.6175 L 124.9317 -42.0840 L 125.3423 -42.7048 L 126.1777 -44.2479 L 126.8570 -45.8302 L 126.9501 -46.1205 L 127.2983 -46.6342 L 128.1758 -48.2125 L 128.8931 -49.8329 L 128.9256 -49.9304 L 129.2223 -50.3581 L 130.1416 -51.9698 L 130.8236 -53.4662 L 131.1153 -53.8773 L 132.0758 -55.5208 L 132.6420 -56.7290 L 132.9783 -57.1930 L 133.9794 -58.8663 L 134.4105 -59.7625 L 134.8126 -60.3059 L 135.8532 -62.0074 L 136.1300 -62.5685 L 136.6192 -63.2168 L 137.6984 -64.9447 L 137.8013 -65.1484 L 138.3996 -65.9266 L 139.3114 -67.3579 L 140.1549 -68.4359 L 140.6224 -69.1560 L 141.8866 -70.7451 L 142.0093 -70.9308 L 142.2077 -71.1366 L 143.1474 -72.2995 L 143.8634 -73.0316 L 143.9849 -73.1798 L 144.0601 -73.1159 L 144.2075 -73.0331 L 145.0327 -72.3251 L 145.4060 -71.8441 L 145.8861 -71.4275 L 146.7204 -70.3390 L 146.8686 -70.2087 L 146.9439 -70.0551 L 147.9863 -68.6765 L 148.2355 -68.1586 L 149.0259 -67.0980 L 149.5175 -66.0564 L 150.0748 -65.2969 L 150.7902 -63.7494 L 151.2212 -63.1520 L 151.2606 -62.9936 L 152.0541 -61.2383 L 152.4243 -60.7160 L 152.5208 -60.3122 L 153.3099 -58.5241 L 153.6293 -58.0647 L 153.7745 -57.4305 L 154.5584 -55.6077 L 154.8375 -55.1980 L 155.0229 -54.3497 L 155.8006 -52.4901 L 156.0503 -52.1157 L 156.2671 -51.0708 L 157.0376 -49.1726 L 157.2688 -48.8179 L 157.5085 -47.5949 L 158.2708 -45.6562 L 158.4945 -45.3045 L 158.7488 -43.9233 L 159.5015 -41.9422 L 159.7289 -41.5756 L 159.9897 -40.0570 L 160.7316 -38.0318 L 160.9734 -37.6313 L 161.2333 -35.9973 L 161.9628 -33.9263 L 162.2297 -33.4716 L 162.4815 -31.7452 L 163.1974 -29.6268 L 163.4994 -29.0966 L 163.7370 -27.3017 L 164.4375 -25.1344 L 164.7844 -24.5063 L 165.0023 -22.6677 L 165.6858 -20.4503 L 166.0865 -19.7009 L 166.2804 -17.8441 L 166.9452 -15.5753 L 167.4077 -14.6803 L 167.5742 -12.8313 L 168.2185 -10.5102 L 168.7502 -9.4446 L 168.8871 -7.6299 L 169.5093 -5.2557 L 170.1162 -3.9937 L 170.2226 -2.2400 L 170.8208 0.1879 L 171.5081 1.6724 L 171.5844 3.3385 L 172.1570 5.8204 L 172.9285 7.5539 L 172.9764 9.1060 L 173.5217 11.6420 L 174.3672 13.6209 L 174.3875 14.8642 L 174.9049 17.4525 L 175.8021 19.6395 L 175.8042 20.4163 L 176.2942 23.0533 L 177.2297 25.4252 L 177.2263 25.7643 L 177.6894 28.4467 L 178.6362 30.9397 L 178.6658 30.9871 L 179.0905 33.6346 L 180.0201 36.1730 L 180.1691 36.4177 L 180.4972 38.6186 L 181.4099 41.1994 L 181.6632 41.6259 L 181.9089 43.4002 L 182.8052 46.0203 L 183.1493 46.6138 L 183.3252 47.9803 L 184.2055 50.6370 L 184.6288 51.3832 L 184.7456 52.3598 L 185.6106 55.0504 L 186.1025 55.9360 L 186.1696 56.5393 L 187.0198 59.2614 L 187.5712 60.2738 L 187.5966 60.5195 L 188.4328 63.2706 L 189.0793 64.4797 L 189.8490 67.0784 L 190.6857 68.6702 L 191.2682 70.6851 L 192.2806 72.6423 L 192.6899 74.0911 L 193.8654 76.3976 L 194.1139 77.2963 L 195.4401 79.9349 L 195.4411 79.9362 L 195.5399 80.3008 L 196.8596 82.9604 L 196.9667 83.1005 L 196.9678 83.1046 L 198.2813 85.7834 L 198.7071 86.3460 L 199.7051 88.4040 L 200.4416 89.3859 L 201.1311 90.8222 L 202.1690 92.2176 L 202.5591 93.0379 L 203.8906 94.8416 L 203.9893 95.0509 L 205.8182 97.5458 L 206.1461 97.8558 L 207.2485 99.3693 L 208.0839 100.1637 L 208.6812 100.9886 L 210.0177 102.2667 L 210.1164 102.4036 L 212.4515 104.6480 L 213.0446 105.0534 L 213.8894 105.8692 L 215.2374 106.7954 L 215.3297 106.8848 L 218.1407 108.8250 L 219.0297 109.2593 L 219.5851 109.6443 L 222.8267 111.2360 L 223.4122 111.4315 L 224.2761 111.8576 L 227.8956 113.0732 L 228.4163 113.1804 L 229.3509 113.4961 L 233.2887 114.3140 L 234.0125 114.3828 L 234.7503 114.5373 L 238.9411 114.9428 L 240.1128 114.9370 L 240.4097 114.9662 L 244.7837 114.9515 L 249.2600 114.5095 L 249.5364 114.4566 L 250.7443 114.3392 L 255.2548 113.4832 L 256.2015 113.2154 L 256.7489 113.1124 L 261.2179 111.8558 L 263.8302 110.8683 L 267.0756 109.6475 L 271.2271 107.6526 L 271.5310 107.4710 L 272.7563 106.8848 L 276.6468 104.5689 L 277.0279 104.2898 L 278.1918 103.5998 L 281.7551 101.0006 L 281.9610 100.8157 L 283.3181 99.8296 L 284.7075 98.5868 L 284.8893 98.4553 L 288.0763 95.6158 L 288.8088 94.8022 L 289.6691 94.0388 L 292.4134 91.0033 L 292.4165 90.9990 L 294.0295 89.2224 L 294.6596 88.3329 L 295.6580 87.2381 L 296.9200 85.4648 L 297.3001 85.0499 L 299.5786 81.8637 L 299.7218 81.5928 L 301.2478 79.4695 L 301.7850 78.4597 L 302.9328 76.8707 L 303.8691 75.1207 L 304.6343 74.0668 L 305.9754 71.5750 L 306.3531 71.0575 L 308.1369 67.7627 L 308.1441 67.7429 L 309.8864 64.5438 L 310.1008 63.9548 L 311.6547 61.1183 L 312.0805 59.9577 L 313.4427 57.4857 L 314.0838 55.7510 L 315.2509 53.6452 L 316.1113 51.3345 L 317.0801 49.5962 L 318.1634 46.7080 L 318.9310 45.3382 L 320.2031 41.9700 L 320.2130 41.9199 L 320.8042 40.8703 L 322.0865 37.4979 L 322.1549 37.1559 L 322.7005 36.1920 L 323.9924 32.8156 L 324.1206 32.1818 L 324.6205 31.3027 L 325.9217 27.9225 L 326.1107 26.9973 L 326.5651 26.2017 L 327.8748 22.8180 L 328.1255 21.6025 L 328.5350 20.8883 L 329.8526 17.5014 L 330.1655 15.9972 L 330.5310 15.3620 L 331.8558 11.9723 L 332.2312 10.1815 L 332.5539 9.6223 L 333.8850 6.2300 L 334.6018 2.8337 L 334.6920 -0.5084 L 334.1541 -3.7392 L 332.9973 -6.8034 L 331.2414 -9.6486 L 328.9165 -12.2260 L 326.0623 -14.4916 L 322.7276 -16.4067 L 318.9696 -17.9383 L 314.8524 -19.0604 L 310.4467 -19.7538 L 305.8277 -20.0065 L 301.0744 -19.8143 L 296.2683 -19.1804 L 291.4915 -18.1157 L 286.8258 -16.6384 L 282.3509 -14.7738 L 278.1436 -12.5537 L 274.2757 -10.0163 L 270.8135 -7.2048 L 267.8161 -4.1674 L 265.3349 -0.9561 L 263.4123 2.3742 L 262.0813 5.7665 L 261.6196 7.9542 L 261.4681 8.2174 L 260.1434 11.6072 L 259.7344 13.5585 L 259.5613 13.8603 L 258.2437 17.2472 L 257.8883 18.9558 L 257.6903 19.3025 L 256.3806 22.6862 L 256.0795 24.1460 L 255.8536 24.5433 L 254.5525 27.9235 L 254.3062 29.1289 L 254.0496 29.5822 L 252.7577 32.9586 L 252.5665 33.9041 L 252.2768 34.4184 L 250.9945 37.7908 L 250.8584 38.4716 L 250.5335 39.0514 L 250.1536 40.0572 L 249.8960 39.5671 L 249.4830 39.0522 L 249.1874 38.0796 L 247.8315 35.5440 L 247.4914 35.1260 L 247.0820 33.8153 L 245.7180 31.3109 L 245.4575 30.9958 L 244.9250 29.3391 L 243.5526 26.8684 L 243.3799 26.6629 L 242.7135 24.6517 L 241.3326 22.2172 L 241.2572 22.1292 L 240.4447 19.7539 L 239.0553 17.3584 L 239.0467 17.3485 L 239.0287 17.2274 L 238.1160 14.6466 L 236.7233 12.3018 L 236.6540 11.8696 L 235.7244 9.3311 L 234.3466 7.0689 L 234.2142 6.3019 L 233.2675 3.8089 L 231.9148 1.6462 L 231.7066 0.5261 L 230.7426 -1.9182 L 229.4273 -3.9627 L 229.1288 -5.4559 L 228.1474 -7.8482 L 226.8842 -9.7542 L 226.4783 -11.6420 L 225.4799 -13.9787 L 224.2951 -15.7113 L 223.8093 -17.8169 L 222.7947 -20.0966 L 221.7012 -21.6456 L 221.1783 -23.7673 L 220.1492 -25.9902 L 219.1430 -27.3716 L 218.5871 -29.4929 L 217.5450 -31.6598 L 216.6211 -32.8898 L 216.0369 -34.9939 L 214.9834 -37.1056 L 214.1355 -38.2010 L 213.5290 -40.2707 L 212.4656 -42.3283 L 211.6863 -43.3059 L 211.0643 -45.3239 L 209.9925 -47.3286 L 209.2734 -48.2053 L 208.6435 -50.1543 L 207.5648 -52.1075 L 206.8966 -52.8999 L 206.2671 -54.7628 L 205.1828 -56.6661 L 204.5553 -57.3905 L 203.9353 -59.1504 L 202.8466 -61.0056 L 202.2492 -61.6777 L 201.6482 -63.3183 L 200.5563 -65.1272 L 199.9775 -65.7623 L 199.4055 -67.2678 L 198.3114 -69.0322 L 197.7395 -69.6448 L 197.2067 -70.9999 L 196.1113 -72.7218 L 195.5343 -73.3258 L 195.0512 -74.5160 L 193.9554 -76.1974 L 193.3610 -76.8060 L 192.9381 -77.8173 L 191.8427 -79.4601 L 191.2186 -80.0859 L 190.8664 -80.9048 L 189.7719 -82.5113 L 189.1059 -83.1658 L 188.8349 -83.7798 L 187.7419 -85.3519 L 187.0218 -86.0462 L 186.8423 -86.4434 L 185.7511 -87.9830 L 184.9650 -88.7276 L 184.8870 -88.8964 L 183.7980 -90.4056 L 182.8760 -91.2642 L 181.8809 -92.6206 L 180.6612 -93.7383 L 179.9978 -94.6286 L 178.6516 -95.8440 L 178.5386 -95.9121 L 178.1466 -96.4304 L 176.8080 -97.6220 L 176.4912 -97.8100 L 176.3253 -98.0264 L 174.9940 -99.1960 L 174.3572 -99.5682 L 173.2072 -100.5663 L 171.9807 -101.2731 L 171.4448 -101.7328 L 169.9045 -102.6089 L 169.7376 -102.6672 L 169.7042 -102.6956 L 168.1737 -103.5554 L 167.1943 -103.8918 L 166.4610 -104.2989 L 164.7498 -104.8771 L 164.5520 -104.9091 L 163.0635 -105.4042 L 161.7441 -105.6106 L 161.3879 -105.7273 L 159.5443 -106.0073 L 158.6130 -106.0083 L 157.8893 -106.1149 L 155.9374 -106.1084 L 155.2132 -106.0081 L 154.3009 -106.0011 L 152.2781 -105.7121 L 151.5926 -105.5276 L 150.6590 -105.3900 L 148.6035 -104.8272 L 147.8349 -104.5227 L 147.0011 -104.2904 L 144.9515 -103.4677 L 144.0477 -102.9935 L 143.3663 -102.7163 L 141.3606 -101.6521 L 140.3483 -100.9846 L 139.7939 -100.6869 L 137.8692 -99.4043 L 136.8476 -98.5807 L 136.3226 -98.2268 L 134.5139 -96.7529 L 133.6346 -95.8970 L 132.9898 -95.3655 L 131.3294 -93.7311 L 130.7616 -93.0651 L 129.8298 -92.1369 L 128.3465 -90.3758 L 128.2336 -90.2150 L 126.8733 -88.5790 L 125.9312 -87.2180 L 125.3977 -86.5675 L 124.1459 -84.7327 L 123.9481 -84.3775 L 123.9189 -84.3413 L 122.6987 -82.5248 L 121.9750 -81.2026 L 121.2491 -80.1039 L 120.2486 -78.2424 L 120.1590 -78.0293 L 119.7962 -77.4704 L 118.8277 -75.6328 L 118.5484 -74.9532 L 118.3391 -74.6248 L 117.4038 -72.8129 L 116.9538 -71.6912 L 116.8768 -71.5678 L 115.9757 -69.7833 L 115.3507 -68.1837 L 114.5424 -66.5447 L 113.8664 -64.7656 L 113.8184 -64.5864 L 113.1023 -63.0980 L 112.4585 -61.3522 L 112.3490 -60.9268 L 111.6542 -59.4439 L 111.0430 -57.7333 L 110.8862 -57.0970 L 110.1963 -55.5834 L 109.6183 -53.9098 L 109.4277 -53.0999 L 108.7271 -51.5173 L 108.1824 -49.8825 L 107.9623 -48.8994 L 107.9241 -48.8288 L 107.2449 -47.2465 L 106.7334 -45.6522 L 106.4908 -44.5083 L 106.3888 -44.3145 L 105.7476 -42.7721 L 105.2693 -41.2197 L 105.0136 -39.9417 L 104.8367 -39.5958 L 104.2333 -38.0947 L 103.7879 -36.5860 L 103.5278 -35.2011 L 103.2658 -34.6736 L 102.7000 -33.2154 L 102.2868 -31.7516 L 102.0335 -30.3072 L 102.0326 -30.2931 L 101.6743 -29.5489 L 101.1453 -28.1349 L 100.7638 -26.7172 L 100.5362 -25.3202 L 100.5318 -25.2347 L 100.0598 -24.2225 L 99.5669 -22.8539 L 99.2162 -21.4835 L 99.0135 -20.1348 L 99.0082 -19.9975 L 99.0067 -19.9949 L 98.4201 -18.6953 L 97.9625 -17.3730 L 97.6415 -16.0507 L 97.4627 -14.7511 L 97.4562 -14.5077 L 97.3006 -14.2228 L 96.7530 -12.9679 L 96.3294 -11.6928 L 96.0370 -10.4194 L 95.8809 -9.1695 L 95.8761 -8.8361 L 95.5659 -8.2505 L 95.0559 -7.0411 L 94.6651 -5.8138 L 94.4001 -4.5897 L 94.2653 -3.3897 L 94.2646 -2.9824 L 93.8001 -2.0787 L 93.3264 -0.9153 L 92.9670 0.2637 L 92.7279 1.4383 L 92.6132 2.5882 L 92.6167 2.9169 L 92.5692 2.9943 L 92.0274 4.0800 L 91.5874 5.1986 L 91.2570 6.3308 L 91.0416 7.4573 L 90.9449 8.5588 L 90.9479 8.6893 L 90.7806 8.9689 L 90.2729 10.0149 L 89.8633 11.0912 L 89.5586 12.1795 L 89.3642 13.2611 L 89.2887 14.2469 L 89.0127 14.7189 L 88.5359 15.7275 L 88.1534 16.7643 L 87.8718 17.8115 L 87.6958 18.8513 L 87.6478 19.5761 L 87.2646 20.2461 L 86.8156 21.2197 L 86.4574 22.2195 L 86.1963 23.2284 L 86.0367 24.2292 L 86.0096 24.7054 L 85.5353 25.5520 L 85.1113 26.4928 L 84.7750 27.4582 L 84.5321 28.4314 L 84.3869 29.3960 L 84.3742 29.6600 L 84.3031 29.7660 L 83.8238 30.6379 L 83.4224 31.5482 L 83.1057 32.4814 L 82.8791 33.4216 L 82.7466 34.3526 L 82.7439 34.4206 L 82.5861 34.6598 L 82.1295 35.5051 L 81.7484 36.3870 L 81.4493 37.2905 L 81.2373 38.2000 L 81.1359 38.9521 L 80.8875 39.3341 L 80.4515 40.1548 L 80.0887 41.0103 L 79.8054 41.8862 L 79.6063 42.7673 L 79.5426 43.2663 L 79.2066 43.7902 L 78.7892 44.5879 L 78.4429 45.4191 L 78.1737 46.2694 L 77.9862 47.1243 L 77.9556 47.3765 L 77.5424 48.0290 L 77.1418 48.8056 L 76.8104 49.6142 L 76.5539 50.4409 L 76.3768 51.2716 L 76.3742 51.2939 L 76.3405 51.3382 L 75.8941 52.0515 L 75.5087 52.8085 L 75.1907 53.5962 L 74.9456 54.4012 L 74.8240 54.9867 L 74.6922 55.1620 L 74.2609 55.8586 L 73.8891 56.5975 L 73.5832 57.3660 L 73.3485 58.1510 L 73.2842 58.4682 L 73.0594 58.7697 L 72.6419 59.4510 L 72.2825 60.1732 L 71.9875 60.9241 L 71.7619 61.6907 L 71.7517 61.7425 L 71.4414 62.1623 L 71.0362 62.8294 L 70.6881 63.5364 L 70.4029 64.2710 L 70.2601 64.7636 L 69.8371 65.3404 L 69.4431 65.9946 L 69.1051 66.6874 L 68.8288 67.4071 L 68.7725 67.6042 L 68.6778 67.7112 L 68.2456 68.3047 L 67.8618 68.9469 L 67.5329 69.6269 L 67.3056 70.2249 L 67.0882 70.4722 L 66.6660 71.0558 L 66.2913 71.6871 L 65.9707 72.3552 L 65.8794 72.5978 L 65.5105 73.0196 L 65.0973 73.5942 L 64.7309 74.2155 L 64.4672 74.7692 L 64.3881 74.8433 L 63.9437 75.3542 L 63.5386 75.9205 L 63.1797 76.5327 L 63.0913 76.7196 L 62.8233 76.9721 L 62.3867 77.4764 L 61.9890 78.0352 L 61.7589 78.4297 L 61.7288 78.4525 L 61.2681 78.8885 L 60.8386 79.3866 L 60.4475 79.9386 L 60.4306 79.9677 L 60.1754 80.1616 L 59.7214 80.5928 L 59.2983 81.0855 L 59.1797 81.2535 L 59.1009 81.2998 L 58.6301 81.6588 L 58.1822 82.0858 L 57.9495 82.3577 L 57.5569 82.5888 L 57.0917 82.9448 L 56.7373 83.2838 L 56.4941 83.3864 L 56.0193 83.6669 L 55.5593 84.0199 L 55.5565 84.0225 L 55.4335 84.0541 L 54.9568 84.2560 L 54.4868 84.5346 L 54.4156 84.5894 L 54.3673 84.5935 L 53.8963 84.7149 L 53.4240 84.9157 L 53.2707 85.0068 L 52.8295 85.0455 L 52.3625 85.1665 L 52.0947 85.2807 L 51.7481 85.2486 L 51.2940 85.2889 L 50.8877 85.3946 L 50.6438 85.3236 L 50.2099 85.2839 L 49.7594 85.3244 L 49.6640 85.3494 L 49.5089 85.2690 L 49.1021 85.1510 L 48.6715 85.1121 L 48.4051 85.1363 L 48.3356 85.0814 L 47.9623 84.8884 L 47.5585 84.7718 L 47.1312 84.7336 L 47.0928 84.7371 L 46.7830 84.4928 L 46.4125 84.3017 L 46.0118 84.1865 L 45.7363 84.1622 L 45.5573 83.9594 L 45.2257 83.6983 L 44.8580 83.5093 L 44.4606 83.3955 L 44.3436 83.3853 L 44.2791 83.2821 L 43.9914 82.9567 L 43.6624 82.6984 L 43.2977 82.5114 L 42.9105 82.4010 L 42.7036 82.0706 L 42.4181 81.7486 L 42.0918 81.4930 L 41.7302 81.3082 L 41.4418 81.2263 L 41.3573 81.0325 L 41.1194 80.6536 L 40.8362 80.3350 L 40.5127 80.0822 L 40.1544 79.8996 L 39.9511 79.8422 L 39.9488 79.8340 L 39.7614 79.4058 L 39.5254 79.0309 L 39.2446 78.7159 L 38.9240 78.4661 L 38.5691 78.2858 L 38.4107 78.2413 L 38.3405 77.9967 L 38.1545 77.5732 L 37.9205 77.2026 L 37.6423 76.8912 L 37.3247 76.6445 L 36.9732 76.4666 L 36.8567 76.4340 L 36.8540 76.4172 L 36.7202 75.9533 L 36.5357 75.5346 L 36.3036 75.1684 L 36.0280 74.8609 L 35.7136 74.6173 L 35.3657 74.4418 L 35.2605 74.4125 L 35.2198 74.1622 L 35.0868 73.7037 L 34.9038 73.2901 L 34.6739 72.9283 L 34.4010 72.6246 L 34.0897 72.3842 L 33.7455 72.2112 L 33.6512 72.1851 L 33.5716 71.7008 L 33.4395 71.2479 L 33.2581 70.8393 L 33.0303 70.4820 L 32.7601 70.1822 L 32.4521 69.9451 L 32.1116 69.7745 L 32.0011 69.7442 L 31.9887 69.5166 L 31.9085 69.0329 L 31.7774 68.5855 L 31.5974 68.1820 L 31.3718 67.8293 L 31.1044 67.5335 L 30.7997 67.2996 L 30.4630 67.1316 L 30.3352 67.0966 L 30.3095 66.6361 L 30.2296 66.1583 L 30.0994 65.7165 L 29.9210 65.3181 L 29.6976 64.9700 L 29.4330 64.6781 L 29.1316 64.4474 L 28.7987 64.2819 L 28.6339 64.2371 L 28.6423 64.0481 L 28.6137 63.5488 L 28.5341 63.0769 L 28.4048 62.6406 L 28.2280 62.2473 L 28.0068 61.9037 L 27.7449 61.6157 L 27.4469 61.3883 L 27.1178 61.2253 L 26.9112 61.1695 L 26.9293 60.7477 L 26.9003 60.2545 L 26.8210 59.7885 L 26.6926 59.3576 L 26.5174 58.9693 L 26.2984 58.6302 L 26.0393 58.3461 L 25.7445 58.1218 L 25.4191 57.9612 L 25.1570 57.8908 L 25.1769 57.7464 L 25.1978 57.2405 L 25.1685 56.7532 L 25.0895 56.2928 L 24.9621 55.8673 L 24.7884 55.4839 L 24.5716 55.1491 L 24.3151 54.8688 L 24.0236 54.6476 L 23.7019 54.4894 L 23.3760 54.4024 L 23.4271 54.0262 L 23.4471 53.5262 L 23.4175 53.0446 L 23.3388 52.5898 L 23.2123 52.1694 L 23.0402 51.7908 L 22.8254 51.4602 L 22.5716 51.1835 L 22.2832 50.9653 L 21.9650 50.8094 L 21.6226 50.7184 L 21.5640 50.7145 L 21.5894 50.6033 L 21.6572 50.0991 L 21.6764 49.6048 L 21.6465 49.1288 L 21.5680 48.6792 L 21.4424 48.2638 L 21.2718 47.8896 L 21.0590 47.5631 L 20.8077 47.2899 L 20.5223 47.0745 L 20.2076 46.9208 L 19.8689 46.8313 L 19.7187 46.8213 L 19.7998 46.4640 L 19.8663 45.9652 L 19.8847 45.4762 L 19.8545 45.0054 L 19.7764 44.5608 L 19.6516 44.1501 L 19.4824 43.7802 L 19.2715 43.4575 L 19.0227 43.1875 L 18.7401 42.9749 L 18.4286 42.8232 L 18.0935 42.7351 L 17.8427 42.7188 L 17.8766 42.6130 L 17.9884 42.1180 L 18.0536 41.6242 L 18.0712 41.1403 L 18.0408 40.6743 L 17.9630 40.2344 L 17.8390 39.8280 L 17.6711 39.4622 L 17.4620 39.1430 L 17.2154 38.8761 L 16.9355 38.6660 L 16.6270 38.5162 L 16.2953 38.4294 L 15.9460 38.4071 L 15.9311 38.4088 L 16.0439 38.0559 L 16.1541 37.5654 L 16.2182 37.0763 L 16.2351 36.5969 L 16.2045 36.1355 L 16.1270 35.6998 L 16.0038 35.2975 L 15.8370 34.9352 L 15.6296 34.6194 L 15.3851 34.3553 L 15.1076 34.1474 L 14.8019 33.9994 L 14.4733 33.9138 L 14.1273 33.8920 L 13.9772 33.9098 L 14.0347 33.7720 L 14.1874 33.2926 L 14.2962 32.8063 L 14.3592 32.3214 L 14.3756 31.8461 L 14.3448 31.3887 L 14.2675 30.9569 L 14.1450 30.5581 L 13.9794 30.1992 L 13.7735 29.8862 L 13.5308 29.6246 L 13.2555 29.4189 L 12.9523 29.2724 L 12.6264 29.1879 L 12.2834 29.1666 L 11.9872 29.2020 L 12.1550 28.7992 L 12.3061 28.3233 L 12.4137 27.8406 L 12.4759 27.3593 L 12.4917 26.8877 L 12.4608 26.4338 L 12.3837 26.0053 L 12.2618 25.6097 L 12.0971 25.2536 L 11.8925 24.9433 L 11.6515 24.6839 L 11.3781 24.4799 L 11.0772 24.3349 L 10.7537 24.2512 L 10.4132 24.2303 L 10.0617 24.2727 L 9.9386 24.3089 L 10.0590 24.0789 L 10.2495 23.6209 L 10.3992 23.1480 L 10.5057 22.6684 L 10.5672 22.1902 L 10.5826 21.7216 L 10.5515 21.2706 L 10.4747 20.8450 L 10.3533 20.4520 L 10.1894 20.0984 L 9.9860 19.7902 L 9.7463 19.5327 L 9.4746 19.3302 L 9.1754 19.1863 L 8.8540 19.1034 L 8.5158 19.0830 L 8.1665 19.1253 L 7.8400 19.2215 L 7.9015 19.1261 L 8.1279 18.6929 L 8.3171 18.2372 L 8.4658 17.7667 L 8.5715 17.2896 L 8.6323 16.8138 L 8.6473 16.3477 L 8.6162 15.8991 L 8.5395 15.4758 L 8.4186 15.0849 L 8.2554 14.7332 L 8.0528 14.4268 L 7.8142 14.1707 L 7.5438 13.9695 L 7.2462 13.8265 L 6.9264 13.7442 L 6.5899 13.7240 L 6.2425 13.7663 L 5.8901 13.8704 L 5.6465 13.9841 L 5.6846 13.9356 L 5.9432 13.5339 L 6.1686 13.1023 L 6.3569 12.6483 L 6.5048 12.1796 L 6.6099 11.7042 L 6.6703 11.2303 L 6.6851 10.7659 L 6.6539 10.3191 L 6.5773 9.8974 L 6.4567 9.5081 L 6.2940 9.1579 L 6.0920 8.8527 L 5.8543 8.5977 L 5.5849 8.3973 L 5.2883 8.2550 L 4.9697 8.1732 L 4.6345 8.1533 L 4.2885 8.1955 L 3.9375 8.2993 L 3.5876 8.4628 L 3.2448 8.6832 L 3.2040 8.7170 L 3.4110 8.5028 L 3.6976 8.1386 L 3.9555 7.7378 L 4.1802 7.3072 L 4.3679 6.8542 L 4.5154 6.3866 L 4.6201 5.9123 L 4.6803 5.4395 L 4.6949 4.9763 L 4.6637 4.5305 L 4.5872 4.1098 L 4.4667 3.7215 L 4.3043 3.3721 L 4.1028 3.0677 L 3.8655 2.8134 L 3.5967 2.6136 L 3.3008 2.4717 L 2.9829 2.3901 L 2.6485 2.3703 L 2.3033 2.4126 L 1.9532 2.5162 L 1.6042 2.6794 L 1.2623 2.8993 L 0.9332 3.1724 L 0.6227 3.4937 L 0.3361 3.8579 L 0.0782 4.2587 L -0.1465 4.6893 L -0.3342 5.1423 L -0.4817 5.6100 L -0.5864 6.0842 L -0.6466 6.5571 L -0.6612 7.0203 Z"/>
  <g id="debug">
  <path fill="none" stroke="#ff3366" stroke-opacity="0.6" stroke-width="0.5" d=""/>
  <path fill="none" stroke="#ff9900" stroke-opacity="0.6" stroke-width="0.6" d=""/>
  <path fill="none" stroke="#222222" stroke-opacity="0.7" stroke-width="0.6" d=""/>
  
  <path fill="none" stroke="#8844ff" stroke-opacity="0.35" stroke-width="0.6" d="M -1.2826 3.5238 L 0.7329 9.5249 L 2.7125 15.3244 L 4.6575 20.9222 L 6.5691 26.3179 L 8.4487 31.5112 L 10.2976 36.5018 L 12.1171 41.2893 L 13.9085 45.8733 L 15.6733 50.2535 L 17.4126 54.4294 L 19.1280 58.4006 L 20.8207 62.1667 L 22.4921 65.7274 L 24.1436 69.0821 L 25.7765 72.2306 L 27.3922 75.1724 L 28.9920 77.9072 L 30.5774 80.4346 L 32.1495 82.7544 L 33.7098 84.8664 L 35.2595 86.7702 L 36.8000 88.4658 L 38.3323 89.9530 L 39.8579 91.2318 L 41.3777 92.3022 L 42.8929 93.1645 L 44.4045 93.8189 L 45.9135 94.2657 L 47.4208 94.5054 L 48.9273 94.5385 L 50.4337 94.3658 L 51.9408 93.9879 L 53.4494 93.4055 L 54.9602 92.6191 L 56.4740 91.6295 L 57.9917 90.4372 L 59.5139 89.0427 L 61.0414 87.4466 L 62.5751 85.6494 L 64.1156 83.6518 L 65.6636 81.4541 L 67.2198 79.0571 L 68.7848 76.4612 L 70.3591 73.6672 L 71.9433 70.6756 L 73.5378 67.4871 L 75.1429 64.1024 L 76.7588 60.5222 L 78.3856 56.7473 L 80.0235 52.7782 L 81.6722 48.6159 L 83.3316 44.2609 L 85.0012 39.7140 L 86.6805 34.9757 L 88.3688 30.0467 L 90.0651 24.9275 L 91.7684 19.6182 L 93.4772 14.1192 L 95.1903 8.4303 L 95.1903 8.4303 L 96.8823 2.7477 L 98.5309 -2.7335 L 100.1387 -8.0147 L 101.7084 -13.0974 L 103.2428 -17.9826 L 104.7447 -22.6715 L 106.2171 -27.1647 L 107.6627 -31.4631 L 109.0844 -35.5671 L 110.4851 -39.4770 L 111.8675 -43.1930 L 113.2343 -46.7151 L 114.5880 -50.0433 L 115.9311 -53.1774 L 117.2660 -56.1171 L 118.5949 -58.8619 L 119.9198 -61.4115 L 121.2427 -63.7654 L 122.5654 -65.9230 L 123.8892 -67.8837 L 125.2157 -69.6468 L 126.5458 -71.2117 L 127.8805 -72.5777 L 129.2203 -73.7440 L 130.5654 -74.7099 L 131.9155 -75.4744 L 133.2700 -76.0366 L 134.6279 -76.3956 L 135.9877 -76.5504 L 137.3475 -76.4999 L 138.7054 -76.2433 L 140.0594 -75.7796 L 141.4078 -75.1083 L 142.7491 -74.2287 L 144.0821 -73.1407 L 145.4060 -71.8441 L 146.7204 -70.3390 L 148.0248 -68.6256 L 149.3193 -66.7043 L 150.6039 -64.5756 L 151.8791 -62.2402 L 153.1452 -59.6987 L 154.4029 -56.9521 L 155.6529 -54.0012 L 156.8960 -50.8473 L 158.1333 -47.4912 L 159.3661 -43.9343 L 160.5956 -40.1778 L 161.8235 -36.2230 L 163.0515 -32.0711 L 164.2817 -27.7234 L 165.5162 -23.1812 L 166.7576 -18.4456 L 168.0085 -13.5178 L 169.2720 -8.3986 L 170.5513 -3.0889 L 171.8499 2.4108 L 173.1716 8.1000 L 174.5201 13.9787 L 174.5201 13.9787 L 175.8863 19.8448 L 177.2582 25.4976 L 178.6362 30.9397 L 180.0201 36.1730 L 181.4099 41.1994 L 182.8052 46.0203 L 184.2055 50.6370 L 185.6106 55.0504 L 187.0198 59.2614 L 188.4328 63.2706 L 189.8490 67.0784 L 191.2682 70.6851 L 192.6899 74.0911 L 194.1139 77.2963 L 195.5399 80.3008 L 196.9678 83.1046 L 198.3975 85.7076 L 199.8288 88.1096 L 201.2619 90.3104 L 202.6968 92.3099 L 204.1335 94.1077 L 205.5721 95.7035 L 207.0128 97.0971 L 208.4555 98.2880 L 209.9004 99.2758 L 211.3473 100.0600 L 212.7963 100.6401 L 214.2470 101.0154 L 215.6993 101.1853 L 217.1530 101.1491 L 218.6076 100.9060 L 220.0633 100.4556 L 221.5201 99.7971 L 222.9783 98.9302 L 224.4386 97.8545 L 225.9015 96.5698 L 227.3683 95.0759 L 228.8399 93.3728 L 230.3176 91.4604 L 231.8030 89.3389 L 233.2974 87.0085 L 234.8025 84.4692 L 236.3200 81.7213 L 237.8516 78.7652 L 239.3991 75.6012 L 240.9643 72.2295 L 242.5490 68.6506 L 244.1552 64.8650 L 245.7848 60.8730 L 247.4396 56.6750 L 249.1215 52.2717 L 250.8325 47.6634 L 252.5744 42.8506 L 254.3491 37.8338 L 256.1585 32.6134 L 258.0042 27.1900 L 259.8882 21.5640 L 261.8122 15.7358 L 263.7778 9.7057 L 336.2222 -9.7057 L 334.1541 -3.7392 L 332.1109 2.0154 L 330.0921 7.5586 L 328.0970 12.8907 L 326.1250 18.0123 L 324.1757 22.9237 L 322.2485 27.6254 L 320.3429 32.1179 L 318.4586 36.4017 L 316.5950 40.4772 L 314.7518 44.3450 L 312.9284 48.0055 L 311.1245 51.4591 L 309.3396 54.7062 L 307.5732 57.7473 L 305.8248 60.5826 L 304.0938 63.2125 L 302.3798 65.6373 L 300.6818 67.8573 L 298.9994 69.8725 L 297.3316 71.6832 L 295.6774 73.2895 L 294.0359 74.6913 L 292.4059 75.8886 L 290.7860 76.8813 L 289.1745 77.6691 L 287.5699 78.2517 L 285.9699 78.6286 L 284.3725 78.7992 L 282.7752 78.7630 L 281.1754 78.5192 L 279.5705 78.0672 L 277.9580 77.4062 L 276.3353 76.5357 L 274.7000 75.4552 L 273.0497 74.1640 L 271.3822 72.6619 L 269.6951 70.9483 L 267.9862 69.0231 L 266.2532 66.8858 L 264.4940 64.5362 L 262.7062 61.9741 L 260.8874 59.1993 L 259.0353 56.2117 L 257.1475 53.0111 L 255.2214 49.5975 L 253.2544 45.9710 L 251.2440 42.1316 L 249.1874 38.0796 L 247.0820 33.8153 L 244.9250 29.3391 L 242.7135 24.6517 L 240.4447 19.7539 L 238.1160 14.6466 L 235.7244 9.3311 L 233.2675 3.8089 L 230.7426 -1.9182 L 228.1474 -7.8482 L 225.4799 -13.9787 L 225.4799 -13.9787 L 222.7947 -20.0966 L 220.1492 -25.9902 L 217.5450 -31.6598 L 214.9834 -37.1056 L 212.4656 -42.3283 L 209.9925 -47.3286 L 207.5648 -52.1075 L 205.1828 -56.6661 L 202.8466 -61.0056 L 200.5563 -65.1272 L 198.3114 -69.0322 L 196.1113 -72.7218 L 193.9554 -76.1974 L 191.8427 -79.4601 L 189.7719 -82.5113 L 187.7419 -85.3519 L 185.7511 -87.9830 L 183.7980 -90.4056 L 181.8809 -92.6206 L 179.9978 -94.6286 L 178.1466 -96.4304 L 176.3253 -98.0264 L 174.5314 -99.4170 L 172.7624 -100.6025 L 171.0152 -101.5828 L 169.2869 -102.3580 L 167.5738 -102.9277 L 165.8722 -103.2913 L 164.1780 -103.4484 L 162.4868 -103.3979 L 160.7945 -103.1390 L 159.0968 -102.6707 L 157.3898 -101.9919 L 155.6703 -101.1017 L 153.9352 -99.9991 L 152.1820 -98.6834 L 150.4085 -97.1537 L 148.6129 -95.4092 L 146.7938 -93.4493 L 144.9498 -91.2732 L 143.0801 -88.8804 L 141.1838 -86.2702 L 139.2603 -83.4420 L 137.3092 -80.3954 L 135.3302 -77.1300 L 133.3232 -73.6453 L 131.2883 -69.9410 L 129.2255 -66.0170 L 127.1351 -61.8732 L 125.0174 -57.5096 L 122.8729 -52.9264 L 120.7019 -48.1240 L 118.5052 -43.1027 L 116.2831 -37.8634 L 114.0362 -32.4068 L 111.7650 -26.7339 L 109.4700 -20.8460 L 107.1514 -14.7443 L 104.8097 -8.4303 L 104.8097 -8.4303 L 102.4890 -2.1227 L 100.2308 3.9612 L 98.0312 9.8212 L 95.8866 15.4574 L 93.7936 20.8703 L 91.7489 26.0602 L 89.7494 31.0278 L 87.7922 35.7737 L 85.8747 40.2985 L 83.9942 44.6029 L 82.1482 48.6878 L 80.3346 52.5537 L 78.5510 56.2015 L 76.7953 59.6318 L 75.0657 62.8453 L 73.3600 65.8427 L 71.6766 68.6246 L 70.0136 71.1917 L 68.3693 73.5445 L 66.7419 75.6835 L 65.1300 77.6094 L 63.5318 79.3227 L 61.9458 80.8240 L 60.3704 82.1137 L 58.8041 83.1924 L 57.2453 84.0608 L 55.6924 84.7193 L 54.1439 85.1688 L 52.5982 85.4098 L 51.0537 85.4429 L 49.5089 85.2690 L 47.9623 84.8884 L 46.4125 84.3017 L 44.8580 83.5093 L 43.2977 82.5114 L 41.7302 81.3082 L 40.1544 79.8996 L 38.5691 78.2858 L 36.9732 76.4666 L 35.3657 74.4418 L 33.7455 72.2112 L 32.1116 69.7745 L 30.4630 67.1316 L 28.7987 64.2819 L 27.1178 61.2253 L 25.4191 57.9612 L 23.7019 54.4894 L 21.9650 50.8094 L 20.2076 46.9208 L 18.4286 42.8232 L 16.6270 38.5162 L 14.8019 33.9994 L 12.9523 29.2724 L 11.0772 24.3349 L 9.1754 19.1863 L 7.2462 13.8265 L 5.2883 8.2550 L 3.3008 2.4717 L 1.2826 -3.5238 L -1.2826 3.5238 Z"/>
  
  
  
</g>
</svg>