<svg xmlns="http://www.w3.org/2000/svg" width="97.3042" height="56.3823" viewBox="-23.9922 -26.6945 97.3042 56.3823">
  <path fill="black" stroke="none" fill-rule="evenodd" d="M -13.9922 -0.4676 L -13.8146 2.2711 L -13.1061 4.9225 L -11.8939 7.3848 L -10.2246 9.5633 L -8.1625 11.3743 L -5.9918 12.3448 L -4.0625 12.4415 L -3.3533 14.2383 L -1.7389 15.9840 L 0.4317 16.9545 L 1.6180 17.0140 L 2.3637 17.6923 L 4.5826 18.5469 L 4.8346 18.5378 L 5.0699 18.6284 L 5.5740 18.6101 L 6.0447 18.7914 L 7.0529 18.7547 L 7.9943 19.1173 L 9.0024 19.0807 L 9.9438 19.4433 L 10.4479 19.4250 L 10.9186 19.6063 L 11.1706 19.5971 L 11.4060 19.6878 L 13.7821 19.6014 L 14.3842 19.3421 L 14.9170 19.5362 L 17.2942 19.4863 L 19.4605 18.5060 L 21.2681 16.6620 L 22.5939 14.0801 L 23.3476 10.9361 L 23.3639 10.5003 L 23.5665 10.8865 L 25.6025 13.3979 L 27.9123 15.1555 L 30.3385 16.0395 L 32.7157 15.9896 L 34.8819 15.0093 L 36.6895 13.1653 L 38.0153 10.5834 L 38.7690 7.4394 L 38.8225 6.0044 L 39.3041 6.7925 L 41.4996 9.1657 L 41.5893 9.2252 L 42.0024 9.6950 L 44.2058 11.0414 L 45.8911 11.3448 L 46.3978 11.4928 L 46.9887 11.4417 L 47.0399 11.4509 L 47.1351 11.4290 L 48.5007 11.3109 L 49.0160 11.4037 L 50.5873 11.0426 L 50.9779 11.4118 L 52.3192 11.4525 L 52.6898 11.2592 L 52.9681 11.3093 L 53.2307 11.2489 L 53.4621 11.2975 L 55.4805 10.7721 L 56.7824 9.7608 L 57.4220 9.3267 L 59.2323 7.0580 L 60.5929 4.1252 L 61.2044 1.5863 L 61.4127 1.4157 L 61.6617 1.1129 L 61.8469 0.7673 L 61.9612 0.3923 L 62.0000 0.0021 L 61.9620 -0.3881 L 61.8486 -0.7634 L 61.6641 -1.1094 L 61.5323 -1.2703 L 61.5568 -1.6744 L 62.0623 -3.0669 L 62.9107 -6.3708 L 63.3120 -9.3439 L 63.2387 -11.7835 L 62.6960 -13.5236 L 61.7207 -14.4453 L 60.5766 -14.4800 L 59.8954 -15.2037 L 59.4503 -15.1912 L 58.9827 -15.5829 L 57.3930 -15.7268 L 56.2626 -15.2697 L 56.1834 -15.3181 L 54.8347 -16.2661 L 52.7935 -16.6945 L 52.5647 -16.6350 L 52.2995 -16.6827 L 50.3331 -16.2308 L 48.3474 -16.5883 L 47.3642 -16.3624 L 46.3713 -16.5411 L 46.1255 -16.4846 L 45.8773 -16.5293 L 43.5600 -15.9968 L 43.5551 -15.9935 L 41.7544 -15.8378 L 41.3094 -15.6003 L 40.8069 -15.5568 L 38.7092 -14.4373 L 37.0257 -12.4793 L 35.8712 -9.8164 L 35.3262 -6.6420 L 33.6372 -8.7255 L 31.3274 -10.4831 L 28.9012 -11.3671 L 26.5240 -11.3172 L 24.3578 -10.3369 L 22.5502 -8.4929 L 21.2243 -5.9110 L 20.8162 -4.2084 L 20.1525 -5.3368 L 18.2422 -7.0742 L 16.0234 -7.9289 L 15.7714 -7.9197 L 15.5360 -8.0104 L 15.0319 -7.9920 L 14.5612 -8.1733 L 13.5531 -8.1367 L 12.6117 -8.4993 L 11.6035 -8.4627 L 10.6621 -8.8253 L 10.1581 -8.8069 L 10.0910 -8.8328 L 9.7768 -9.6286 L 8.1625 -11.3743 L 5.7866 -12.7481 L 3.1884 -13.6321 L 0.4676 -13.9922 L -2.2711 -13.8146 L -4.9225 -13.1061 L -7.3848 -11.8939 L -9.5633 -10.2246 L -11.3743 -8.1625 L -12.7481 -5.7866 L -13.6321 -3.1884 L -13.9922 -0.4676 Z"/>
  
</svg>