<svg xmlns="http://www.w3.org/2000/svg" width="1400" height="600" viewBox="-80.0000 -140.0000 620.0000 280.0000">


  <g id="stroke-ink">
    <path id="ink-compound" d="M 0.0000 -10.0000 L 0.0000 50.0000 L 7.3016 46.5934 L 14.3750 42.9260 L 14.6032 42.8030 L 21.9048 38.7485 L 28.7500 34.8145 L 29.2063 34.5501 L 36.5079 30.3277 L 43.1250 26.5808 L 43.8095 26.2013 L 51.1111 22.2908 L 57.5000 19.1406 L 58.4127 18.7163 L 64.6875 16.0042 L 65.7143 15.5977 L 71.8750 13.4094 L 73.0159 13.0549 L 79.0625 11.4708 L 80.3175 11.2081 L 86.2500 10.3027 L 87.6190 10.1771 L 92.0000 10.0000 L 93.4375 10.0290 L 94.9206 10.1184 L 100.6250 10.9888 L 102.2222 11.3717 L 107.8125 13.1387 L 109.5238 13.8009 L 115.0000 16.2500 L 116.8254 17.1659 L 122.1875 20.0937 L 124.1270 21.2267 L 129.3750 24.4409 L 131.4286 25.7434 L 138.7302 30.4762 L 143.7500 33.7305 L 146.0317 35.1849 L 153.3333 39.6296 L 158.1250 42.2876 L 160.6349 43.5705 L 165.3125 45.7193 L 167.9365 46.7675 L 172.5000 48.2812 L 175.2381 48.9807 L 179.6875 49.7446 L 182.5397 49.9701 L 184.0000 50.0000 L 186.8750 49.8853 L 189.8413 49.5367 L 194.0625 48.6691 L 197.1429 47.7843 L 201.2500 46.3086 L 204.4444 44.9520 L 208.4375 43.0325 L 211.7460 41.2799 L 215.6250 39.0698 L 219.0476 37.0079 L 226.3492 32.3760 L 230.0000 30.0000 L 233.6508 27.6240 L 240.9524 22.9921 L 244.3750 20.9302 L 248.2540 18.7201 L 251.5625 16.9675 L 255.5556 15.0480 L 258.7500 13.6914 L 262.8571 12.2157 L 265.9375 11.3309 L 270.1587 10.4633 L 273.1250 10.1147 L 276.0000 10.0000 L 277.4603 10.0299 L 280.3125 10.2554 L 284.7619 11.0193 L 287.5000 11.7188 L 292.0635 13.2325 L 294.6875 14.2807 L 299.3651 16.4295 L 301.8750 17.7124 L 306.6667 20.3704 L 313.9683 24.8151 L 316.2500 26.2695 L 321.2698 29.5238 L 328.5714 34.2566 L 330.6250 35.5591 L 335.8730 38.7733 L 337.8125 39.9063 L 343.1746 42.8341 L 345.0000 43.7500 L 350.4762 46.1991 L 352.1875 46.8613 L 357.7778 48.6283 L 359.3750 49.0112 L 365.0794 49.8816 L 366.5625 49.9710 L 368.0000 50.0000 L 372.3810 49.8229 L 373.7500 49.6973 L 379.6825 48.7919 L 380.9375 48.5292 L 386.9841 46.9451 L 388.1250 46.5906 L 394.2857 44.4023 L 395.3125 43.9958 L 401.5873 41.2837 L 402.5000 40.8594 L 408.8889 37.7092 L 416.1905 33.7987 L 416.8750 33.4192 L 423.4921 29.6723 L 430.7937 25.4499 L 431.2500 25.1855 L 438.0952 21.2515 L 445.3968 17.1970 L 445.6250 17.0740 L 452.6984 13.4066 L 460.0000 10.0000 L 460.0000 -50.0000 L 452.6984 -46.5934 L 445.6250 -42.9260 L 445.3968 -42.8030 L 438.0952 -38.7485 L 431.2500 -34.8145 L 430.7937 -34.5501 L 423.4921 -30.3277 L 416.8750 -26.5808 L 416.1905 -26.2013 L 408.8889 -22.2908 L 402.5000 -19.1406 L 401.5873 -18.7163 L 395.3125 -16.0042 L 394.2857 -15.5977 L 388.1250 -13.4094 L 386.9841 -13.0549 L 380.9375 -11.4708 L 379.6825 -11.2081 L 373.7500 -10.3027 L 372.3810 -10.1771 L 368.0000 -10.0000 L 366.5625 -10.0290 L 365.0794 -10.1184 L 359.3750 -10.9888 L 357.7778 -11.3717 L 352.1875 -13.1387 L 350.4762 -13.8009 L 345.0000 -16.2500 L 343.1746 -17.1659 L 337.8125 -20.0937 L 335.8730 -21.2267 L 330.6250 -24.4409 L 328.5714 -25.7434 L 321.2698 -30.4762 L 316.2500 -33.7305 L 313.9683 -35.1849 L 306.6667 -39.6296 L 301.8750 -42.2876 L 299.3651 -43.5705 L 294.6875 -45.7193 L 292.0635 -46.7675 L 287.5000 -48.2812 L 284.7619 -48.9807 L 280.3125 -49.7446 L 277.4603 -49.9701 L 276.0000 -50.0000 L 273.1250 -49.8853 L 270.1587 -49.5367 L 265.9375 -48.6691 L 262.8571 -47.7843 L 258.7500 -46.3086 L 255.5556 -44.9520 L 251.5625 -43.0325 L 248.2540 -41.2799 L 244.3750 -39.0698 L 240.9524 -37.0079 L 233.6508 -32.3760 L 230.0000 -30.0000 L 226.3492 -27.6240 L 219.0476 -22.9921 L 215.6250 -20.9302 L 211.7460 -18.7201 L 208.4375 -16.9675 L 204.4444 -15.0480 L 201.2500 -13.6914 L 197.1429 -12.2157 L 194.0625 -11.3309 L 189.8413 -10.4633 L 186.8750 -10.1147 L 184.0000 -10.0000 L 182.5397 -10.0299 L 179.6875 -10.2554 L 175.2381 -11.0193 L 172.5000 -11.7188 L 167.9365 -13.2325 L 165.3125 -14.2807 L 160.6349 -16.4295 L 158.1250 -17.7124 L 153.3333 -20.3704 L 146.0317 -24.8151 L 143.7500 -26.2695 L 138.7302 -29.5238 L 131.4286 -34.2566 L 129.3750 -35.5591 L 124.1270 -38.7733 L 122.1875 -39.9063 L 116.8254 -42.8341 L 115.0000 -43.7500 L 109.5238 -46.1991 L 107.8125 -46.8613 L 102.2222 -48.6283 L 100.6250 -49.0112 L 94.9206 -49.8816 L 93.4375 -49.9710 L 92.0000 -50.0000 L 87.6190 -49.8229 L 86.2500 -49.6973 L 80.3175 -48.7919 L 79.0625 -48.5292 L 73.0159 -46.9451 L 71.8750 -46.5906 L 65.7143 -44.4023 L 64.6875 -43.9958 L 58.4127 -41.2837 L 57.5000 -40.8594 L 51.1111 -37.7092 L 43.8095 -33.7987 L 43.1250 -33.4192 L 36.5079 -29.6723 L 29.2063 -25.4499 L 28.7500 -25.1855 L 21.9048 -21.2515 L 14.6032 -17.1970 L 14.3750 -17.0740 L 7.3016 -13.4066 L 0.0000 -10.0000 Z" fill="black" stroke="none" fill-rule="nonzero" />
  </g>

  <g id="debug-overlays">

  </g>
  <text x="20" y="20" font-size="14" fill="#111">example=line_07_piecewise_alpha_middle view=none solo=false</text>

</svg>