<svg xmlns="http://www.w3.org/2000/svg" width="1400" height="600" viewBox="-80.0000 -140.0000 620.0000 280.0000">


  <g id="stroke-ink">
    <path id="ink-compound" d="M 0.0000 -2.0000 L 0.0000 2.0000 L 7.3016 2.9603 L 14.6032 3.9206 L 21.9048 4.8810 L 29.2063 5.8413 L 36.5079 6.8016 L 43.8095 7.7619 L 51.1111 8.7222 L 58.4127 9.6825 L 65.7143 10.6429 L 73.0159 11.6032 L 80.3175 12.5635 L 87.6190 13.5238 L 94.9206 14.4841 L 102.2222 15.4444 L 109.5238 16.4048 L 116.8254 17.3651 L 124.1270 18.3254 L 131.4286 19.2857 L 138.7302 20.2460 L 146.0317 21.2063 L 153.3333 22.1667 L 160.6349 23.1270 L 167.9365 24.0873 L 175.2381 25.0476 L 182.5397 26.0079 L 189.8413 26.9683 L 197.1429 27.9286 L 204.4444 28.8889 L 211.7460 29.8492 L 219.0476 30.8095 L 226.3492 31.7698 L 233.6508 32.7302 L 240.9524 33.6905 L 248.2540 34.6508 L 255.5556 35.6111 L 262.8571 36.5714 L 270.1587 37.5317 L 277.4603 38.4921 L 284.7619 39.4524 L 292.0635 40.4127 L 299.3651 41.3730 L 306.6667 42.3333 L 313.9683 43.2937 L 321.2698 44.2540 L 328.5714 45.2143 L 335.8730 46.1746 L 343.1746 47.1349 L 350.4762 48.0952 L 357.7778 49.0556 L 365.0794 50.0159 L 372.3810 50.9762 L 379.6825 51.9365 L 386.9841 52.8968 L 394.2857 53.8571 L 401.5873 54.8175 L 408.8889 55.7778 L 416.1905 56.7381 L 423.4921 57.6984 L 430.7937 58.6587 L 438.0952 59.6190 L 445.3968 60.5794 L 452.6984 61.5397 L 460.0000 62.5000 L 460.0000 -62.5000 L 452.6984 -61.5397 L 445.3968 -60.5794 L 438.0952 -59.6190 L 430.7937 -58.6587 L 423.4921 -57.6984 L 416.1905 -56.7381 L 408.8889 -55.7778 L 401.5873 -54.8175 L 394.2857 -53.8571 L 386.9841 -52.8968 L 379.6825 -51.9365 L 372.3810 -50.9762 L 365.0794 -50.0159 L 357.7778 -49.0556 L 350.4762 -48.0952 L 343.1746 -47.1349 L 335.8730 -46.1746 L 328.5714 -45.2143 L 321.2698 -44.2540 L 313.9683 -43.2937 L 306.6667 -42.3333 L 299.3651 -41.3730 L 292.0635 -40.4127 L 284.7619 -39.4524 L 277.4603 -38.4921 L 270.1587 -37.5317 L 262.8571 -36.5714 L 255.5556 -35.6111 L 248.2540 -34.6508 L 240.9524 -33.6905 L 233.6508 -32.7302 L 226.3492 -31.7698 L 219.0476 -30.8095 L 211.7460 -29.8492 L 204.4444 -28.8889 L 197.1429 -27.9286 L 189.8413 -26.9683 L 182.5397 -26.0079 L 175.2381 -25.0476 L 167.9365 -24.0873 L 160.6349 -23.1270 L 153.3333 -22.1667 L 146.0317 -21.2063 L 138.7302 -20.2460 L 131.4286 -19.2857 L 124.1270 -18.3254 L 116.8254 -17.3651 L 109.5238 -16.4048 L 102.2222 -15.4444 L 94.9206 -14.4841 L 87.6190 -13.5238 L 80.3175 -12.5635 L 73.0159 -11.6032 L 65.7143 -10.6429 L 58.4127 -9.6825 L 51.1111 -8.7222 L 43.8095 -7.7619 L 36.5079 -6.8016 L 29.2063 -5.8413 L 21.9048 -4.8810 L 14.6032 -3.9206 L 7.3016 -2.9603 L 0.0000 -2.0000 Z" fill="black" stroke="none" fill-rule="nonzero" />
  </g>

  <g id="debug-overlays">

  </g>
  <text x="20" y="20" font-size="14" fill="#111">example=line_03_ramp_symmetric view=none solo=false</text>

</svg>