<svg xmlns="http://www.w3.org/2000/svg" width="1400" height="600" viewBox="-80.0000 -140.0000 620.0000 280.0000">


  <g id="stroke-ink">
    <path id="ink-compound" d="M 0.0000 50.0000 L 7.1875 54.5555 L 7.3016 54.6333 L 14.3750 59.7078 L 14.6032 59.8781 L 21.9048 65.4499 L 28.7500 70.7176 L 29.2063 71.0644 L 36.5079 76.4371 L 43.1250 80.8594 L 43.8095 81.2837 L 50.3125 84.9266 L 51.1111 85.3198 L 57.5000 87.9630 L 58.4127 88.2610 L 64.6875 89.6973 L 65.7143 89.8229 L 69.0000 90.0000 L 71.8750 89.8466 L 73.0159 89.7449 L 79.0625 88.8427 L 80.3175 88.5829 L 86.2500 87.0471 L 87.6190 86.6251 L 93.4375 84.5780 L 94.9206 83.9954 L 100.6250 81.5533 L 102.2222 80.8176 L 109.5238 77.2155 L 115.0000 74.3100 L 116.8254 73.3130 L 124.1270 69.2337 L 131.4286 65.1017 L 138.7302 61.0406 L 143.7500 58.3541 L 146.0317 57.1743 L 153.3333 53.6267 L 158.1250 51.5312 L 160.6349 50.5214 L 165.3125 48.8219 L 167.9365 47.9824 L 172.5000 46.7381 L 175.2381 46.1335 L 179.6875 45.3980 L 182.5397 45.0984 L 184.0000 45.0000 L 186.8750 45.1668 L 189.8413 45.6690 L 194.0625 46.9024 L 197.1429 48.1422 L 201.2500 50.1758 L 204.4444 52.0111 L 208.4375 54.5545 L 211.7460 56.8225 L 215.6250 59.6064 L 219.0476 62.1232 L 226.3492 67.4598 L 230.0000 70.0000 L 233.6508 72.3792 L 237.1875 74.4771 L 240.9524 76.4281 L 244.3750 77.8979 L 248.2540 79.1532 L 251.5625 79.8302 L 253.0000 80.0000 L 255.5556 79.9970 L 258.7500 79.9848 L 262.8571 79.9557 L 270.1587 79.8683 L 277.4603 79.7372 L 284.7619 79.5653 L 287.5000 79.4907 L 292.0635 79.3550 L 299.3651 79.1090 L 306.6667 78.8300 L 313.9683 78.5205 L 321.2698 78.1833 L 328.5714 77.8209 L 335.8730 77.4360 L 343.1746 77.0313 L 345.0000 76.9273 L 350.4762 76.6093 L 357.7778 76.1727 L 365.0794 75.7240 L 372.3810 75.2661 L 379.6825 74.8014 L 386.9841 74.3327 L 394.2857 73.8625 L 401.5873 73.3935 L 408.8889 72.9283 L 416.1905 72.4695 L 423.4921 72.0199 L 430.7937 71.5819 L 438.0952 71.1583 L 445.3968 70.7517 L 452.6984 70.3647 L 460.0000 70.0000 L 460.0000 -70.0000 L 452.6984 -70.3647 L 445.3968 -70.7517 L 438.0952 -71.1583 L 430.7937 -71.5819 L 423.4921 -72.0199 L 416.1905 -72.4695 L 408.8889 -72.9283 L 401.5873 -73.3935 L 394.2857 -73.8625 L 386.9841 -74.3327 L 379.6825 -74.8014 L 372.3810 -75.2661 L 365.0794 -75.7240 L 357.7778 -76.1727 L 350.4762 -76.6093 L 345.0000 -76.9273 L 343.1746 -77.0313 L 335.8730 -77.4360 L 328.5714 -77.8209 L 321.2698 -78.1833 L 313.9683 -78.5205 L 306.6667 -78.8300 L 299.3651 -79.1090 L 292.0635 -79.3550 L 287.5000 -79.4907 L 284.7619 -79.5653 L 277.4603 -79.7372 L 270.1587 -79.8683 L 262.8571 -79.9557 L 258.7500 -79.9848 L 255.5556 -79.9970 L 253.0000 -80.0000 L 251.5625 -79.8302 L 248.2540 -79.1532 L 244.3750 -77.8979 L 240.9524 -76.4281 L 237.1875 -74.4771 L 233.6508 -72.3792 L 230.0000 -70.0000 L 226.3492 -67.4598 L 219.0476 -62.1232 L 215.6250 -59.6064 L 211.7460 -56.8225 L 208.4375 -54.5545 L 204.4444 -52.0111 L 201.2500 -50.1758 L 197.1429 -48.1422 L 194.0625 -46.9024 L 189.8413 -45.6690 L 186.8750 -45.1668 L 184.0000 -45.0000 L 182.5397 -45.0984 L 179.6875 -45.3980 L 175.2381 -46.1335 L 172.5000 -46.7381 L 167.9365 -47.9824 L 165.3125 -48.8219 L 160.6349 -50.5214 L 158.1250 -51.5312 L 153.3333 -53.6267 L 146.0317 -57.1743 L 143.7500 -58.3541 L 138.7302 -61.0406 L 131.4286 -65.1017 L 124.1270 -69.2337 L 116.8254 -73.3130 L 115.0000 -74.3100 L 109.5238 -77.2155 L 102.2222 -80.8176 L 100.6250 -81.5533 L 94.9206 -83.9954 L 93.4375 -84.5780 L 87.6190 -86.6251 L 86.2500 -87.0471 L 80.3175 -88.5829 L 79.0625 -88.8427 L 73.0159 -89.7449 L 71.8750 -89.8466 L 69.0000 -90.0000 L 65.7143 -89.8229 L 64.6875 -89.6973 L 58.4127 -88.2610 L 57.5000 -87.9630 L 51.1111 -85.3198 L 50.3125 -84.9266 L 43.8095 -81.2837 L 43.1250 -80.8594 L 36.5079 -76.4371 L 29.2063 -71.0644 L 28.7500 -70.7176 L 21.9048 -65.4499 L 14.6032 -59.8781 L 14.3750 -59.7078 L 7.3016 -54.6333 L 7.1875 -54.5555 L 0.0000 -50.0000 L 0.0000 50.0000 Z" fill="black" stroke="none" fill-rule="nonzero" />
  </g>

  <g id="debug-overlays">

  </g>
  <text x="20" y="20" font-size="14" fill="#111">example=line_05_piecewise_symmetric view=none solo=false</text>

</svg>