<svg xmlns="http://www.w3.org/2000/svg" width="1400" height="600" viewBox="-80.0000 -140.0000 620.0000 280.0000">


  <g id="stroke-ink">
    <path id="ink-compound" d="M -50.0000 0.0000 L 452.6984 50.0000 L 450.0000 50.0000 L 452.0153 49.7968 L 453.8925 49.2142 L 455.5911 48.2922 L 457.0711 47.0711 L 458.2922 45.5911 L 459.2142 43.8925 L 459.7968 42.0153 L 460.0000 40.0000 L 460.0000 -40.0000 L 459.7968 -42.0153 L 459.2142 -43.8925 L 458.2922 -45.5911 L 457.0711 -47.0711 L 455.5911 -48.2922 L 453.8925 -49.2142 L 452.0153 -49.7968 L 450.0000 -50.0000 L 452.6984 -50.0000 L 445.3968 -50.0000 L 438.0952 -50.0000 L 430.7937 -50.0000 L 423.4921 -50.0000 L 416.1905 -50.0000 L 408.8889 -50.0000 L 401.5873 -50.0000 L 394.2857 -50.0000 L 386.9841 -50.0000 L 379.6825 -50.0000 L 372.3810 -50.0000 L 365.0794 -50.0000 L 357.7778 -50.0000 L 350.4762 -50.0000 L 343.1746 -50.0000 L 335.8730 -50.0000 L 328.5714 -50.0000 L 321.2698 -50.0000 L 313.9683 -50.0000 L 306.6667 -50.0000 L 299.3651 -50.0000 L 292.0635 -50.0000 L 284.7619 -50.0000 L 277.4603 -50.0000 L 270.1587 -50.0000 L 262.8571 -50.0000 L 255.5556 -50.0000 L 248.2540 -50.0000 L 240.9524 -50.0000 L 233.6508 -50.0000 L 226.3492 -50.0000 L 219.0476 -50.0000 L 211.7460 -50.0000 L 204.4444 -50.0000 L 197.1429 -50.0000 L 189.8413 -50.0000 L 182.5397 -50.0000 L 175.2381 -50.0000 L 167.9365 -50.0000 L 160.6349 -50.0000 L 153.3333 -50.0000 L 146.0317 -50.0000 L 138.7302 -50.0000 L 131.4286 -50.0000 L 124.1270 -50.0000 L 116.8254 -50.0000 L 109.5238 -50.0000 L 102.2222 -50.0000 L 94.9206 -50.0000 L 87.6190 -50.0000 L 80.3175 -50.0000 L 73.0159 -50.0000 L 65.7143 -50.0000 L 58.4127 -50.0000 L 51.1111 -50.0000 L 43.8095 -50.0000 L 36.5079 -50.0000 L 29.2063 -50.0000 L 21.9048 -50.0000 L 14.6032 -50.0000 L 7.3016 -50.0000 L 0.0000 -50.0000 L -2.4534 -49.9398 L -4.9009 -49.7592 L -7.3365 -49.4588 L -9.7545 -49.0393 L -12.1490 -48.5016 L -14.5142 -47.8470 L -16.8445 -47.0772 L -19.1342 -46.1940 L -21.3778 -45.1995 L -23.5698 -44.0961 L -25.7051 -42.8864 L -27.7785 -41.5735 L -29.7850 -40.1604 L -31.7197 -38.6505 L -33.5779 -37.0476 L -35.3553 -35.3553 L -37.0476 -33.5779 L -38.6505 -31.7197 L -40.1604 -29.7850 L -41.5735 -27.7785 L -42.8864 -25.7051 L -44.0961 -23.5698 L -45.1995 -21.3778 L -46.1940 -19.1342 L -47.0772 -16.8445 L -47.8470 -14.5142 L -48.5016 -12.1490 L -49.0393 -9.7545 L -49.4588 -7.3365 L -49.7592 -4.9009 L -49.9398 -2.4534 L -50.0000 0.0000 Z" fill="black" stroke="none" fill-rule="nonzero" />
  </g>

  <g id="debug-overlays">

  </g>
  <text x="20" y="20" font-size="14" fill="#111">example=line_10_mixed_round_fillet view=none solo=false</text>

</svg>