<svg xmlns="http://www.w3.org/2000/svg" width="1400" height="600" viewBox="-80.0000 -140.0000 620.0000 280.0000">


  <g id="stroke-ink">
    <path id="ink-compound" d="M 0.0000 -50.0000 L 0.0000 15.0000 L 7.3016 16.3659 L 14.6032 17.7643 L 21.9048 19.1934 L 29.2063 20.6517 L 36.5079 22.1375 L 43.8095 23.6492 L 51.1111 25.1852 L 57.5000 26.5479 L 58.4127 26.7439 L 65.7143 28.3236 L 73.0159 29.9228 L 80.3175 31.5398 L 87.6190 33.1730 L 94.9206 34.8208 L 102.2222 36.4815 L 109.5238 38.1535 L 115.0000 39.4141 L 116.8254 39.8353 L 124.1270 41.5252 L 131.4286 43.2216 L 138.7302 44.9228 L 146.0317 46.6273 L 153.3333 48.3333 L 160.6349 50.0394 L 167.9365 51.7439 L 175.2381 53.4451 L 182.5397 55.1415 L 189.8413 56.8313 L 197.1429 58.5131 L 204.4444 60.1852 L 211.7460 61.8459 L 219.0476 63.4937 L 226.3492 65.1269 L 230.0000 65.9375 L 233.6508 66.7439 L 240.9524 68.3431 L 248.2540 69.9228 L 255.5556 71.4815 L 262.8571 73.0175 L 270.1587 74.5292 L 277.4603 76.0150 L 284.7619 77.4733 L 287.5000 78.0127 L 292.0635 78.9024 L 299.3651 80.3007 L 306.6667 81.6667 L 313.9683 82.9986 L 316.2500 83.4076 L 321.2698 84.2949 L 328.5714 85.5539 L 335.8730 86.7741 L 343.1746 87.9538 L 345.0000 88.2422 L 350.4762 89.0914 L 357.7778 90.1852 L 365.0794 91.2337 L 372.3810 92.2352 L 373.7500 92.4176 L 379.6825 93.1881 L 386.9841 94.0908 L 394.2857 94.9417 L 401.5873 95.7391 L 402.5000 95.8350 L 408.8889 96.4815 L 416.1905 97.1672 L 423.4921 97.7945 L 430.7937 98.3619 L 431.2500 98.3954 L 438.0952 98.8678 L 445.3968 99.3105 L 452.6984 99.6885 L 460.0000 100.0000 L 460.0000 -50.0000 L 452.6984 -50.0000 L 445.3968 -50.0000 L 438.0952 -50.0000 L 431.2500 -50.0000 L 430.7937 -50.0000 L 423.4921 -50.0000 L 416.1905 -50.0000 L 408.8889 -50.0000 L 402.5000 -50.0000 L 401.5873 -50.0000 L 394.2857 -50.0000 L 386.9841 -50.0000 L 379.6825 -50.0000 L 373.7500 -50.0000 L 372.3810 -50.0000 L 365.0794 -50.0000 L 357.7778 -50.0000 L 350.4762 -50.0000 L 345.0000 -50.0000 L 343.1746 -50.0000 L 335.8730 -50.0000 L 328.5714 -50.0000 L 321.2698 -50.0000 L 316.2500 -50.0000 L 313.9683 -50.0000 L 306.6667 -50.0000 L 299.3651 -50.0000 L 292.0635 -50.0000 L 287.5000 -50.0000 L 284.7619 -50.0000 L 277.4603 -50.0000 L 270.1587 -50.0000 L 262.8571 -50.0000 L 255.5556 -50.0000 L 248.2540 -50.0000 L 240.9524 -50.0000 L 233.6508 -50.0000 L 230.0000 -50.0000 L 226.3492 -50.0000 L 219.0476 -50.0000 L 211.7460 -50.0000 L 204.4444 -50.0000 L 197.1429 -50.0000 L 189.8413 -50.0000 L 182.5397 -50.0000 L 175.2381 -50.0000 L 167.9365 -50.0000 L 160.6349 -50.0000 L 153.3333 -50.0000 L 146.0317 -50.0000 L 138.7302 -50.0000 L 131.4286 -50.0000 L 124.1270 -50.0000 L 116.8254 -50.0000 L 115.0000 -50.0000 L 109.5238 -50.0000 L 102.2222 -50.0000 L 94.9206 -50.0000 L 87.6190 -50.0000 L 80.3175 -50.0000 L 73.0159 -50.0000 L 65.7143 -50.0000 L 58.4127 -50.0000 L 57.5000 -50.0000 L 51.1111 -50.0000 L 43.8095 -50.0000 L 36.5079 -50.0000 L 29.2063 -50.0000 L 21.9048 -50.0000 L 14.6032 -50.0000 L 7.3016 -50.0000 L 0.0000 -50.0000 Z" fill="black" stroke="none" fill-rule="nonzero" />
  </g>

  <g id="debug-overlays">

  </g>
  <text x="20" y="20" font-size="14" fill="#111">example=line_04_ramp_left_only view=none solo=false</text>

</svg>