<svg xmlns="http://www.w3.org/2000/svg" width="1400" height="600" viewBox="-80.0000 -140.0000 620.0000 280.0000">


  <g id="stroke-ink">
    <path id="ink-compound" d="M 0.0000 -20.0000 L 0.0000 20.0000 L 7.3016 21.8538 L 14.6032 23.8324 L 21.9048 25.9190 L 28.7500 27.9582 L 29.2063 28.0967 L 36.5079 30.3486 L 43.8095 32.6579 L 51.1111 35.0077 L 57.5000 37.0837 L 58.4127 37.3811 L 65.7143 39.7613 L 73.0159 42.1313 L 80.3175 44.4744 L 86.2500 46.3466 L 87.6190 46.7736 L 94.9206 49.0120 L 102.2222 51.1728 L 109.5238 53.2392 L 115.0000 54.7168 L 116.8254 55.1942 L 124.1270 57.0210 L 129.3750 58.2453 L 131.4286 58.7026 L 138.7302 60.2223 L 143.7500 61.1644 L 146.0317 61.5632 L 153.3333 62.7083 L 158.1250 63.3454 L 160.6349 63.6409 L 167.9365 64.3440 L 172.5000 64.6594 L 175.2381 64.8008 L 182.5397 64.9944 L 184.0000 65.0000 L 186.8750 64.9903 L 189.8413 64.9601 L 197.1429 64.8008 L 201.2500 64.6594 L 204.4444 64.5245 L 211.7460 64.1362 L 219.0476 63.6409 L 226.3492 63.0436 L 230.0000 62.7083 L 233.6508 62.3494 L 240.9524 61.5632 L 248.2540 60.6900 L 255.5556 59.7348 L 258.7500 59.2924 L 262.8571 58.7026 L 270.1587 57.5985 L 273.1250 57.1305 L 276.0000 56.6667 L 277.4603 56.4273 L 284.7619 55.1942 L 287.5000 54.7168 L 292.0635 53.9041 L 299.3651 52.5619 L 301.8750 52.0895 L 306.6667 51.1728 L 313.9683 49.7417 L 316.2500 49.2867 L 321.2698 48.2737 L 328.5714 46.7736 L 330.6250 46.3466 L 335.8730 45.2465 L 343.1746 43.6974 L 345.0000 43.3073 L 350.4762 42.1313 L 357.7778 40.5533 L 365.0794 38.9682 L 372.3810 37.3811 L 373.7500 37.0837 L 379.6825 35.7971 L 386.9841 34.2210 L 394.2857 32.6579 L 401.5873 31.1128 L 402.5000 30.9212 L 408.8889 29.5908 L 416.1905 28.0967 L 423.4921 26.6356 L 430.7937 25.2125 L 431.2500 25.1249 L 438.0952 23.8324 L 445.3968 22.5003 L 452.6984 21.2211 L 460.0000 20.0000 L 460.0000 -20.0000 L 452.6984 -21.8538 L 445.3968 -23.8324 L 438.0952 -25.9190 L 431.2500 -27.9582 L 430.7937 -28.0967 L 423.4921 -30.3486 L 416.1905 -32.6579 L 408.8889 -35.0077 L 402.5000 -37.0837 L 401.5873 -37.3811 L 394.2857 -39.7613 L 386.9841 -42.1313 L 379.6825 -44.4744 L 373.7500 -46.3466 L 372.3810 -46.7736 L 365.0794 -49.0120 L 357.7778 -51.1728 L 350.4762 -53.2392 L 345.0000 -54.7168 L 343.1746 -55.1942 L 335.8730 -57.0210 L 330.6250 -58.2453 L 328.5714 -58.7026 L 321.2698 -60.2223 L 316.2500 -61.1644 L 313.9683 -61.5632 L 306.6667 -62.7083 L 301.8750 -63.3454 L 299.3651 -63.6409 L 292.0635 -64.3440 L 287.5000 -64.6594 L 284.7619 -64.8008 L 277.4603 -64.9944 L 276.0000 -65.0000 L 273.1250 -64.9903 L 270.1587 -64.9601 L 262.8571 -64.8008 L 258.7500 -64.6594 L 255.5556 -64.5245 L 248.2540 -64.1362 L 240.9524 -63.6409 L 233.6508 -63.0436 L 230.0000 -62.7083 L 226.3492 -62.3494 L 219.0476 -61.5632 L 211.7460 -60.6900 L 204.4444 -59.7348 L 201.2500 -59.2924 L 197.1429 -58.7026 L 189.8413 -57.5985 L 186.8750 -57.1305 L 184.0000 -56.6667 L 182.5397 -56.4273 L 175.2381 -55.1942 L 172.5000 -54.7168 L 167.9365 -53.9041 L 160.6349 -52.5619 L 158.1250 -52.0895 L 153.3333 -51.1728 L 146.0317 -49.7417 L 143.7500 -49.2867 L 138.7302 -48.2737 L 131.4286 -46.7736 L 129.3750 -46.3466 L 124.1270 -45.2465 L 116.8254 -43.6974 L 115.0000 -43.3073 L 109.5238 -42.1313 L 102.2222 -40.5533 L 94.9206 -38.9682 L 87.6190 -37.3811 L 86.2500 -37.0837 L 80.3175 -35.7971 L 73.0159 -34.2210 L 65.7143 -32.6579 L 58.4127 -31.1128 L 57.5000 -30.9212 L 51.1111 -29.5908 L 43.8095 -28.0967 L 36.5079 -26.6356 L 29.2063 -25.2125 L 28.7500 -25.1249 L 21.9048 -23.8324 L 14.6032 -22.5003 L 7.3016 -21.2211 L 0.0000 -20.0000 Z" fill="black" stroke="none" fill-rule="nonzero" />
  </g>

  <g id="debug-overlays">

  </g>
  <text x="20" y="20" font-size="14" fill="#111">example=line_12_staggered_ramps view=none solo=false</text>

</svg>