<svg xmlns="http://www.w3.org/2000/svg" width="1400" height="600" viewBox="-80.0000 -140.0000 620.0000 280.0000">


  <g id="stroke-ink">
    <path id="ink-compound" d="M 0.0000 -50.0000 L 0.0000 5.0000 L 7.3016 6.0317 L 14.6032 7.0635 L 21.9048 8.0952 L 29.2063 9.1270 L 36.5079 10.1587 L 43.8095 11.1905 L 51.1111 12.2222 L 58.4127 13.2540 L 65.7143 14.2857 L 73.0159 15.3175 L 80.3175 16.3492 L 87.6190 17.3810 L 94.9206 18.4127 L 102.2222 19.4444 L 109.5238 20.4762 L 116.8254 21.5079 L 124.1270 22.5397 L 131.4286 23.5714 L 138.7302 24.6032 L 146.0317 25.6349 L 153.3333 26.6667 L 160.6349 27.6984 L 167.9365 28.7302 L 175.2381 29.7619 L 182.5397 30.7937 L 189.8413 31.8254 L 197.1429 32.8571 L 204.4444 33.8889 L 211.7460 34.9206 L 219.0476 35.9524 L 226.3492 36.9841 L 233.6508 38.0159 L 240.9524 39.0476 L 248.2540 40.0794 L 255.5556 41.1111 L 262.8571 42.1429 L 270.1587 43.1746 L 277.4603 44.2063 L 284.7619 45.2381 L 292.0635 46.2698 L 299.3651 47.3016 L 306.6667 48.3333 L 313.9683 49.3651 L 321.2698 50.3968 L 328.5714 51.4286 L 335.8730 52.4603 L 343.1746 53.4921 L 350.4762 54.5238 L 357.7778 55.5556 L 365.0794 56.5873 L 372.3810 57.6190 L 379.6825 58.6508 L 386.9841 59.6825 L 394.2857 60.7143 L 401.5873 61.7460 L 408.8889 62.7778 L 416.1905 63.8095 L 423.4921 64.8413 L 430.7937 65.8730 L 438.0952 66.9048 L 445.3968 67.9365 L 452.6984 68.9683 L 460.0000 70.0000 L 460.0000 -40.0000 L 459.7968 -42.0153 L 459.2142 -43.8925 L 458.2922 -45.5911 L 457.0711 -47.0711 L 455.5911 -48.2922 L 453.8925 -49.2142 L 452.0153 -49.7968 L 450.0000 -50.0000 L 452.6984 -50.0000 L 445.3968 -50.0000 L 438.0952 -50.0000 L 430.7937 -50.0000 L 423.4921 -50.0000 L 416.1905 -50.0000 L 408.8889 -50.0000 L 401.5873 -50.0000 L 394.2857 -50.0000 L 386.9841 -50.0000 L 379.6825 -50.0000 L 372.3810 -50.0000 L 365.0794 -50.0000 L 357.7778 -50.0000 L 350.4762 -50.0000 L 343.1746 -50.0000 L 335.8730 -50.0000 L 328.5714 -50.0000 L 321.2698 -50.0000 L 313.9683 -50.0000 L 306.6667 -50.0000 L 299.3651 -50.0000 L 292.0635 -50.0000 L 284.7619 -50.0000 L 277.4603 -50.0000 L 270.1587 -50.0000 L 262.8571 -50.0000 L 255.5556 -50.0000 L 248.2540 -50.0000 L 240.9524 -50.0000 L 233.6508 -50.0000 L 226.3492 -50.0000 L 219.0476 -50.0000 L 211.7460 -50.0000 L 204.4444 -50.0000 L 197.1429 -50.0000 L 189.8413 -50.0000 L 182.5397 -50.0000 L 175.2381 -50.0000 L 167.9365 -50.0000 L 160.6349 -50.0000 L 153.3333 -50.0000 L 146.0317 -50.0000 L 138.7302 -50.0000 L 131.4286 -50.0000 L 124.1270 -50.0000 L 116.8254 -50.0000 L 109.5238 -50.0000 L 102.2222 -50.0000 L 94.9206 -50.0000 L 87.6190 -50.0000 L 80.3175 -50.0000 L 73.0159 -50.0000 L 65.7143 -50.0000 L 58.4127 -50.0000 L 51.1111 -50.0000 L 43.8095 -50.0000 L 36.5079 -50.0000 L 29.2063 -50.0000 L 21.9048 -50.0000 L 14.6032 -50.0000 L 7.3016 -50.0000 L 0.0000 -50.0000 Z" fill="black" stroke="none" fill-rule="nonzero" />
  </g>

  <g id="debug-overlays">

  </g>
  <text x="20" y="20" font-size="14" fill="#111">example=line_11_asym_ramp_fillet_right view=none solo=false</text>

</svg>