<svg xmlns="http://www.w3.org/2000/svg" width="1400" height="600" viewBox="-80.0000 -140.0000 620.0000 280.0000">


  <g id="stroke-ink">
    <path id="ink-compound" d="M 0.0000 -50.0000 L 0.0000 50.0000 L 7.3016 50.1984 L 14.6032 50.3968 L 21.9048 50.5952 L 29.2063 50.7937 L 36.5079 50.9921 L 43.8095 51.1905 L 51.1111 51.3889 L 58.4127 51.5873 L 65.7143 51.7857 L 73.0159 51.9841 L 80.3175 52.1825 L 87.6190 52.3810 L 94.9206 52.5794 L 102.2222 52.7778 L 109.5238 52.9762 L 116.8254 53.1746 L 124.1270 53.3730 L 131.4286 53.5714 L 138.7302 53.7698 L 146.0317 53.9683 L 153.3333 54.1667 L 160.6349 54.3651 L 167.9365 54.5635 L 175.2381 54.7619 L 182.5397 54.9603 L 189.8413 55.1587 L 197.1429 55.3571 L 204.4444 55.5556 L 211.7460 55.7540 L 219.0476 55.9524 L 226.3492 56.1508 L 233.6508 56.3492 L 240.9524 56.5476 L 248.2540 56.7460 L 255.5556 56.9444 L 262.8571 57.1429 L 270.1587 57.3413 L 277.4603 57.5397 L 284.7619 57.7381 L 292.0635 57.9365 L 299.3651 58.1349 L 306.6667 58.3333 L 313.9683 58.5317 L 321.2698 58.7302 L 328.5714 58.9286 L 335.8730 59.1270 L 343.1746 59.3254 L 350.4762 59.5238 L 357.7778 59.7222 L 365.0794 59.9206 L 372.3810 60.1190 L 379.6825 60.3175 L 386.9841 60.5159 L 394.2857 60.7143 L 401.5873 60.9127 L 408.8889 61.1111 L 416.1905 61.3095 L 423.4921 61.5079 L 430.7937 61.7063 L 438.0952 61.9048 L 445.3968 62.1032 L 452.6984 62.3016 L 460.0000 62.5000 L 460.0000 -62.5000 L 452.6984 -62.3016 L 445.3968 -62.1032 L 438.0952 -61.9048 L 430.7937 -61.7063 L 423.4921 -61.5079 L 416.1905 -61.3095 L 408.8889 -61.1111 L 401.5873 -60.9127 L 394.2857 -60.7143 L 386.9841 -60.5159 L 379.6825 -60.3175 L 372.3810 -60.1190 L 365.0794 -59.9206 L 357.7778 -59.7222 L 350.4762 -59.5238 L 343.1746 -59.3254 L 335.8730 -59.1270 L 328.5714 -58.9286 L 321.2698 -58.7302 L 313.9683 -58.5317 L 306.6667 -58.3333 L 299.3651 -58.1349 L 292.0635 -57.9365 L 284.7619 -57.7381 L 277.4603 -57.5397 L 270.1587 -57.3413 L 262.8571 -57.1429 L 255.5556 -56.9444 L 248.2540 -56.7460 L 240.9524 -56.5476 L 233.6508 -56.3492 L 226.3492 -56.1508 L 219.0476 -55.9524 L 211.7460 -55.7540 L 204.4444 -55.5556 L 197.1429 -55.3571 L 189.8413 -55.1587 L 182.5397 -54.9603 L 175.2381 -54.7619 L 167.9365 -54.5635 L 160.6349 -54.3651 L 153.3333 -54.1667 L 146.0317 -53.9683 L 138.7302 -53.7698 L 131.4286 -53.5714 L 124.1270 -53.3730 L 116.8254 -53.1746 L 109.5238 -52.9762 L 102.2222 -52.7778 L 94.9206 -52.5794 L 87.6190 -52.3810 L 80.3175 -52.1825 L 73.0159 -51.9841 L 65.7143 -51.7857 L 58.4127 -51.5873 L 51.1111 -51.3889 L 43.8095 -51.1905 L 36.5079 -50.9921 L 29.2063 -50.7937 L 21.9048 -50.5952 L 14.6032 -50.3968 L 7.3016 -50.1984 L 0.0000 -50.0000 Z" fill="black" stroke="none" fill-rule="nonzero" />
  </g>

  <g id="debug-overlays">

  </g>
  <text x="20" y="20" font-size="14" fill="#111">example=line_13_negative_alpha view=none solo=false</text>

</svg>