<?xml version="1.0" encoding="UTF-8" standalone="no"?>
<!DOCTYPE svg PUBLIC "-//W3C//DTD SVG 1.1//EN" "http://www.w3.org/Graphics/SVG/1.1/DTD/svg11.dtd">
<svg width="100%" height="100%" viewBox="0 0 232 460" version="1.1" xmlns="http://www.w3.org/2000/svg" xmlns:xlink="http://www.w3.org/1999/xlink" xml:space="preserve" xmlns:serif="http://www.serif.com/" style="fill-rule:evenodd;clip-rule:evenodd;stroke-linejoin:round;stroke-miterlimit:2;">
    <g transform="matrix(1,0,0,1,-723.651,-447.875)">
        <path d="M955.526,454.125L955.526,447.875L763.026,447.875L763.026,454.125C773.859,455.375 784.38,457.25 794.589,459.75C804.797,462.25 812.818,467.042 818.651,474.125C821.151,477.042 822.922,481.208 823.964,486.625C825.005,492.042 825.839,498.188 826.464,505.063C827.089,511.938 827.401,519.125 827.401,526.625L827.401,744.125C827.401,755.792 827.297,766.625 827.089,776.625C826.88,786.625 826.776,794.542 826.776,800.375C826.359,812.042 825.63,823.708 824.589,835.375C823.547,847.042 821.776,857.458 819.276,866.625C816.359,876.208 811.672,884.333 805.214,891C798.755,897.667 790.318,901 779.901,901C776.568,901 773.026,900.271 769.276,898.813C765.526,897.354 762.609,895.167 760.526,892.25L760.526,890.375C769.276,889.125 776.568,886.313 782.401,881.938C788.234,877.563 791.151,870.583 791.151,861C791.151,852.667 788.13,845.479 782.089,839.438C776.047,833.396 768.859,830.375 760.526,830.375C750.943,830.375 742.401,833.5 734.901,839.75C727.401,846 723.651,854.125 723.651,864.125C723.651,872.042 725.214,878.813 728.339,884.438C731.464,890.063 735.63,894.438 740.839,897.563C746.047,900.688 751.88,903.083 758.339,904.75C764.797,906.417 771.359,907.25 778.026,907.25C790.109,907.25 803.339,904.958 817.714,900.375C832.089,895.792 845.943,888.292 859.276,877.875C870.109,869.542 878.859,860.479 885.526,850.688C892.193,840.896 895.526,829.125 895.526,815.375L895.526,600.375C895.526,589.958 895.63,579.646 895.839,569.438C896.047,559.229 896.151,548.917 896.151,538.5C896.568,528.917 896.984,518.604 897.401,507.563C897.818,496.521 899.693,487.667 903.026,481C908.443,471 916.359,464.333 926.776,461C937.193,457.667 946.776,455.375 955.526,454.125Z" style="fill-rule:nonzero;"/>
    </g>
</svg>
