<svg xmlns="http://www.w3.org/2000/svg" width="100.9500" height="60.2204" viewBox="-23.9990 -27.6638 100.9500 60.2204">
  
  
  <path fill="black" stroke="none" fill-rule="evenodd" d="M -13.9990 -0.1707 L -13.7633 2.5636 L -12.9987 5.1995 L -12.4627 6.2323 L -13.7872 9.3228 L 2.7574 16.4133 L 8.7519 18.9824 L 8.7519 18.9824 L 8.8197 19.0114 L 8.7519 18.9824 L 9.2748 21.5356 L 10.2297 21.3400 L 12.1395 20.9488 L 12.9520 20.7824 L 17.0920 22.5567 L 18.3239 19.6821 L 26.2959 18.0493 L 26.8602 17.9337 L 26.9088 17.9238 L 27.2763 17.8485 L 27.4552 17.8119 L 27.7084 17.7600 L 27.6787 17.7661 L 27.7274 17.7561 L 27.7480 17.7519 L 27.7607 17.7493 L 27.7660 17.7482 L 27.7676 17.7479 L 27.7689 17.7476 L 27.7756 17.7462 L 27.7762 17.7461 L 27.7756 17.7462 L 27.7766 17.7460 L 27.7772 17.7459 L 27.7772 17.7459 L 27.7772 17.7459 L 27.7772 17.7459 L 27.7825 17.7448 L 27.7922 17.7428 L 27.7980 17.7417 L 27.7999 17.7413 L 27.8064 17.7399 L 27.8288 17.7353 L 27.8288 17.7353 L 27.8288 17.7353 L 27.8288 17.7353 L 27.8289 17.7353 L 27.8290 17.7353 L 27.8290 17.7353 L 27.8290 17.7353 L 27.8292 17.7353 L 27.8292 17.7353 L 27.8293 17.7352 L 27.8292 17.7353 L 27.8292 17.7353 L 27.8293 17.7352 L 27.8293 17.7352 L 27.8293 17.7352 L 27.8293 17.7352 L 27.8293 17.7352 L 27.8293 17.7352 L 27.8293 17.7352 L 27.8294 17.7352 L 27.8294 17.7352 L 27.8294 17.7352 L 27.8294 17.7352 L 27.8294 17.7352 L 27.8294 17.7352 L 27.8294 17.7352 L 27.8294 17.7352 L 27.8294 17.7352 L 27.8294 17.7352 L 27.8294 17.7352 L 27.8294 17.7352 L 27.8294 17.7352 L 27.8294 17.7352 L 27.8294 17.7352 L 27.8294 17.7352 L 27.8294 17.7352 L 27.8294 17.7352 L 27.8294 17.7352 L 27.8294 17.7352 L 27.8294 17.7352 L 27.8294 17.7352 L 27.8294 17.7352 L 27.8294 17.7352 L 27.8294 17.7352 L 27.8294 17.7352 L 27.8294 17.7352 L 27.8294 17.7352 L 27.8294 17.7352 L 27.8294 17.7352 L 27.8294 17.7352 L 27.8294 17.7352 L 27.8294 17.7352 L 27.8294 17.7352 L 27.8294 17.7352 L 27.8294 17.7352 L 27.8294 17.7352 L 27.8294 17.7352 L 27.8294 17.7352 L 27.8294 17.7352 L 27.8294 17.7352 L 27.8294 17.7352 L 27.8294 17.7352 L 27.8294 17.7352 L 27.8294 17.7352 L 27.8294 17.7352 L 27.8294 17.7352 L 27.8294 17.7352 L 27.8294 17.7352 L 27.8294 17.7352 L 27.8294 17.7352 L 27.8294 17.7352 L 27.8294 17.7352 L 27.8294 17.7352 L 27.8294 17.7352 L 27.8294 17.7352 L 27.8294 17.7352 L 27.8294 17.7352 L 27.8294 17.7352 L 27.8294 17.7352 L 27.8294 17.7352 L 27.8294 17.7352 L 27.8294 17.7352 L 27.8294 17.7352 L 27.8294 17.7352 L 27.8294 17.7352 L 27.8294 17.7352 L 27.8294 17.7352 L 27.8294 17.7352 L 27.8294 17.7352 L 27.8294 17.7352 L 27.8294 17.7352 L 27.8295 17.7352 L 27.8295 17.7352 L 27.8295 17.7352 L 27.8295 17.7352 L 27.8295 17.7352 L 27.8295 17.7352 L 27.8295 17.7352 L 27.8295 17.7352 L 27.8295 17.7352 L 27.8295 17.7352 L 27.8295 17.7352 L 27.8295 17.7352 L 27.8295 17.7352 L 27.8295 17.7352 L 27.8295 17.7352 L 27.8296 17.7352 L 27.8296 17.7352 L 27.8296 17.7352 L 27.8296 17.7352 L 27.8296 17.7352 L 27.8296 17.7352 L 27.8296 17.7352 L 27.8296 17.7352 L 27.8296 17.7352 L 27.8296 17.7352 L 27.8296 17.7352 L 27.8296 17.7352 L 27.8296 17.7352 L 27.8296 17.7352 L 27.8296 17.7352 L 27.8296 17.7352 L 27.8296 17.7352 L 27.8296 17.7352 L 27.8296 17.7352 L 27.8296 17.7352 L 27.8296 17.7352 L 27.8296 17.7352 L 27.8296 17.7352 L 27.8296 17.7352 L 27.8296 17.7352 L 27.8296 17.7352 L 27.8296 17.7352 L 27.8296 17.7352 L 27.8296 17.7352 L 27.8296 17.7352 L 27.8296 17.7352 L 27.8296 17.7352 L 27.8296 17.7352 L 27.8296 17.7352 L 27.8296 17.7352 L 27.8296 17.7352 L 27.8296 17.7352 L 27.8296 17.7352 L 27.8296 17.7352 L 27.8296 17.7352 L 27.8296 17.7352 L 27.8296 17.7352 L 27.8296 17.7352 L 27.8296 17.7352 L 27.8297 17.7352 L 27.8297 17.7352 L 27.8297 17.7352 L 27.8296 17.7352 L 27.8297 17.7352 L 27.8297 17.7352 L 27.8297 17.7352 L 27.8297 17.7352 L 27.8297 17.7352 L 27.8297 17.7351 L 27.8298 17.7351 L 27.8298 17.7351 L 27.8298 17.7351 L 27.8298 17.7351 L 27.8298 17.7351 L 27.8298 17.7351 L 27.8298 17.7351 L 27.8299 17.7351 L 27.8299 17.7351 L 27.8299 17.7351 L 27.8299 17.7351 L 27.8299 17.7351 L 27.8299 17.7351 L 27.8299 17.7351 L 27.8299 17.7351 L 27.8299 17.7351 L 27.8299 17.7351 L 27.8299 17.7351 L 27.8299 17.7351 L 27.8299 17.7351 L 27.8299 17.7351 L 27.8299 17.7351 L 27.8299 17.7351 L 27.8299 17.7351 L 27.8299 17.7351 L 27.8299 17.7351 L 27.8299 17.7351 L 27.8299 17.7351 L 27.8300 17.7351 L 27.8300 17.7351 L 27.8300 17.7351 L 27.8300 17.7351 L 27.8300 17.7351 L 27.8300 17.7351 L 27.8300 17.7351 L 27.8300 17.7351 L 27.8300 17.7351 L 27.8300 17.7351 L 27.8300 17.7351 L 27.8300 17.7351 L 27.8301 17.7351 L 27.8301 17.7351 L 27.8301 17.7351 L 27.8301 17.7351 L 27.8301 17.7351 L 27.8301 17.7351 L 27.8302 17.7351 L 27.8301 17.7351 L 27.8302 17.7351 L 27.8303 17.7350 L 27.8303 17.7350 L 27.8303 17.7350 L 27.8304 17.7350 L 27.8304 17.7350 L 27.8304 17.7350 L 27.8305 17.7350 L 27.8305 17.7350 L 27.8305 17.7350 L 27.8328 17.7345 L 27.8329 17.7345 L 27.8328 17.7345 L 27.8329 17.7345 L 27.8329 17.7345 L 27.8329 17.7345 L 27.8329 17.7345 L 27.8329 17.7345 L 27.8329 17.7345 L 27.8329 17.7345 L 27.8329 17.7345 L 27.8329 17.7345 L 27.8329 17.7345 L 27.8329 17.7345 L 27.8329 17.7345 L 27.8329 17.7345 L 27.8329 17.7345 L 27.8329 17.7345 L 27.8329 17.7345 L 27.8329 17.7345 L 27.8330 17.7345 L 27.8330 17.7345 L 27.8330 17.7345 L 27.8330 17.7345 L 27.8330 17.7345 L 27.8330 17.7345 L 27.8330 17.7345 L 27.8330 17.7345 L 27.8330 17.7345 L 27.8330 17.7345 L 27.8330 17.7345 L 27.8330 17.7345 L 27.8330 17.7345 L 27.8330 17.7345 L 27.8330 17.7345 L 27.8330 17.7345 L 27.8330 17.7345 L 27.8330 17.7345 L 27.8330 17.7345 L 27.8330 17.7345 L 27.8330 17.7345 L 27.8330 17.7345 L 27.8330 17.7345 L 27.8330 17.7345 L 27.8330 17.7345 L 27.8330 17.7345 L 27.8330 17.7345 L 27.8330 17.7345 L 27.8330 17.7345 L 27.8330 17.7345 L 27.8330 17.7345 L 27.8330 17.7345 L 27.8330 17.7345 L 27.8330 17.7345 L 27.8330 17.7345 L 27.8330 17.7345 L 27.8330 17.7345 L 27.8330 17.7345 L 27.8330 17.7345 L 27.8330 17.7345 L 27.8330 17.7345 L 27.8330 17.7345 L 27.8330 17.7345 L 27.8330 17.7345 L 27.8330 17.7345 L 27.8330 17.7345 L 27.8330 17.7345 L 27.8330 17.7345 L 27.8330 17.7345 L 27.8330 17.7345 L 27.8330 17.7345 L 27.8330 17.7345 L 27.8330 17.7345 L 27.8330 17.7345 L 27.8330 17.7345 L 27.8330 17.7345 L 27.8330 17.7345 L 27.8330 17.7345 L 27.8330 17.7345 L 27.8330 17.7345 L 27.8330 17.7345 L 27.8330 17.7345 L 27.8330 17.7345 L 27.8330 17.7345 L 27.8330 17.7345 L 27.8330 17.7345 L 27.8330 17.7345 L 27.8331 17.7345 L 27.8331 17.7345 L 27.8331 17.7345 L 27.8331 17.7345 L 27.8331 17.7345 L 27.8331 17.7345 L 27.8331 17.7345 L 27.8331 17.7345 L 27.8331 17.7345 L 27.8331 17.7345 L 27.8331 17.7345 L 27.8331 17.7345 L 27.8331 17.7345 L 27.8331 17.7345 L 27.8331 17.7345 L 27.8331 17.7345 L 27.8331 17.7345 L 27.8331 17.7345 L 27.8331 17.7345 L 27.8331 17.7345 L 27.8331 17.7345 L 27.8331 17.7345 L 27.8331 17.7345 L 27.8331 17.7345 L 27.8331 17.7345 L 27.8331 17.7345 L 27.8331 17.7345 L 27.8331 17.7345 L 27.8331 17.7345 L 27.8331 17.7345 L 27.8331 17.7345 L 27.8331 17.7345 L 27.8331 17.7345 L 27.8331 17.7345 L 27.8331 17.7345 L 27.8331 17.7345 L 27.8331 17.7345 L 27.8331 17.7345 L 27.8331 17.7345 L 27.8331 17.7345 L 27.8331 17.7345 L 27.8331 17.7345 L 27.8331 17.7345 L 27.8331 17.7345 L 27.8331 17.7345 L 27.8331 17.7345 L 27.8331 17.7345 L 27.8331 17.7345 L 27.8331 17.7345 L 27.8331 17.7345 L 27.8331 17.7345 L 27.8331 17.7345 L 27.8331 17.7345 L 27.8331 17.7345 L 27.8331 17.7345 L 27.8331 17.7345 L 27.8331 17.7345 L 27.8331 17.7345 L 27.8331 17.7345 L 27.8331 17.7345 L 27.8331 17.7345 L 27.8331 17.7345 L 27.8331 17.7345 L 27.8331 17.7345 L 27.8331 17.7345 L 27.8331 17.7345 L 27.8331 17.7345 L 27.8332 17.7345 L 27.8332 17.7345 L 27.8332 17.7345 L 27.8332 17.7344 L 27.8332 17.7344 L 27.8332 17.7344 L 27.8332 17.7344 L 27.8332 17.7344 L 27.8332 17.7344 L 27.8332 17.7344 L 27.8332 17.7344 L 27.8332 17.7344 L 27.8332 17.7344 L 27.8332 17.7344 L 27.8332 17.7344 L 27.8332 17.7344 L 27.8332 17.7344 L 27.8332 17.7344 L 27.8332 17.7344 L 27.8332 17.7344 L 27.8332 17.7344 L 27.8332 17.7344 L 27.8332 17.7344 L 27.8332 17.7344 L 27.8332 17.7344 L 27.8332 17.7344 L 27.8332 17.7344 L 27.8332 17.7344 L 27.8332 17.7344 L 27.8332 17.7344 L 27.8332 17.7344 L 27.8332 17.7344 L 27.8332 17.7344 L 27.8332 17.7344 L 27.8332 17.7344 L 27.8332 17.7344 L 27.8332 17.7344 L 27.8333 17.7344 L 27.8333 17.7344 L 27.8333 17.7344 L 27.8333 17.7344 L 27.8333 17.7344 L 27.8333 17.7344 L 27.8333 17.7344 L 27.8333 17.7344 L 27.8333 17.7344 L 27.8333 17.7344 L 27.8333 17.7344 L 27.8333 17.7344 L 27.8333 17.7344 L 27.8333 17.7344 L 27.8333 17.7344 L 27.8333 17.7344 L 27.8333 17.7344 L 27.8333 17.7344 L 27.8333 17.7344 L 27.8333 17.7344 L 27.8333 17.7344 L 27.8335 17.7344 L 27.8337 17.7343 L 27.8338 17.7343 L 27.8338 17.7343 L 27.8338 17.7343 L 27.8338 17.7343 L 27.8339 17.7343 L 27.8340 17.7343 L 27.8339 17.7343 L 27.8339 17.7343 L 27.8340 17.7343 L 27.8340 17.7343 L 27.8340 17.7343 L 27.8340 17.7343 L 27.8340 17.7343 L 27.8340 17.7343 L 27.8340 17.7343 L 27.8340 17.7343 L 27.8340 17.7343 L 27.8340 17.7343 L 27.8340 17.7343 L 27.8340 17.7343 L 27.8340 17.7343 L 27.8340 17.7343 L 27.8340 17.7343 L 27.8340 17.7343 L 27.8340 17.7343 L 27.8340 17.7343 L 27.8340 17.7343 L 27.8340 17.7343 L 27.8340 17.7343 L 27.8340 17.7343 L 27.8340 17.7343 L 27.8340 17.7343 L 27.8340 17.7343 L 27.8340 17.7343 L 27.8340 17.7343 L 27.8340 17.7343 L 27.8340 17.7343 L 27.8340 17.7343 L 27.8340 17.7343 L 27.8340 17.7343 L 27.8340 17.7343 L 27.8340 17.7343 L 27.8340 17.7343 L 27.8340 17.7343 L 27.8340 17.7343 L 27.8340 17.7343 L 27.8340 17.7343 L 27.8340 17.7343 L 27.8340 17.7343 L 27.8340 17.7343 L 27.8340 17.7343 L 27.8340 17.7343 L 27.8340 17.7343 L 27.8340 17.7343 L 27.8340 17.7343 L 27.8340 17.7343 L 27.8340 17.7343 L 27.8340 17.7343 L 27.8340 17.7343 L 27.8340 17.7343 L 27.8340 17.7343 L 27.8340 17.7343 L 27.8340 17.7343 L 27.8340 17.7343 L 27.8340 17.7343 L 27.8340 17.7343 L 27.8340 17.7343 L 27.8340 17.7343 L 27.8340 17.7343 L 27.8340 17.7343 L 27.8340 17.7343 L 27.8340 17.7343 L 27.8340 17.7343 L 27.8340 17.7343 L 27.8340 17.7343 L 27.8340 17.7343 L 27.8340 17.7343 L 27.8340 17.7343 L 27.8340 17.7343 L 27.8340 17.7343 L 27.8340 17.7343 L 27.8340 17.7343 L 27.8340 17.7343 L 27.8340 17.7343 L 27.8340 17.7343 L 27.8340 17.7343 L 27.8340 17.7343 L 27.8341 17.7343 L 27.8341 17.7343 L 27.8341 17.7343 L 27.8341 17.7343 L 27.8341 17.7343 L 27.8341 17.7343 L 27.8341 17.7343 L 27.8341 17.7343 L 27.8341 17.7343 L 27.8341 17.7343 L 27.8341 17.7343 L 27.8341 17.7343 L 27.8341 17.7343 L 27.8341 17.7343 L 27.8341 17.7343 L 27.8341 17.7343 L 27.8341 17.7342 L 27.8342 17.7342 L 27.8342 17.7342 L 27.8342 17.7342 L 27.8342 17.7342 L 27.8342 17.7342 L 27.8342 17.7342 L 27.8342 17.7342 L 27.8342 17.7342 L 27.8342 17.7342 L 27.8342 17.7342 L 27.8342 17.7342 L 27.8342 17.7342 L 27.8342 17.7342 L 27.8342 17.7342 L 27.8342 17.7342 L 27.8342 17.7342 L 27.8342 17.7342 L 27.8342 17.7342 L 27.8342 17.7342 L 27.8342 17.7342 L 27.8342 17.7342 L 27.8342 17.7342 L 27.8343 17.7342 L 27.8343 17.7342 L 27.8343 17.7342 L 27.8343 17.7342 L 27.8343 17.7342 L 27.8343 17.7342 L 27.8343 17.7342 L 27.8343 17.7342 L 27.8343 17.7342 L 27.8343 17.7342 L 27.8343 17.7342 L 27.8343 17.7342 L 27.8343 17.7342 L 27.8343 17.7342 L 27.8344 17.7342 L 27.8344 17.7342 L 27.8345 17.7342 L 27.8345 17.7342 L 27.8345 17.7342 L 27.8345 17.7342 L 27.8345 17.7342 L 27.8345 17.7342 L 27.8345 17.7342 L 27.8345 17.7342 L 27.8345 17.7342 L 27.8345 17.7342 L 27.8345 17.7342 L 27.8346 17.7341 L 27.8347 17.7341 L 27.8347 17.7341 L 27.8347 17.7341 L 27.8347 17.7341 L 27.8347 17.7341 L 27.8347 17.7341 L 27.8347 17.7341 L 27.8347 17.7341 L 27.8347 17.7341 L 27.8347 17.7341 L 27.8348 17.7341 L 27.8349 17.7341 L 27.8349 17.7341 L 27.8349 17.7341 L 27.8349 17.7341 L 27.8349 17.7341 L 27.8349 17.7341 L 27.8349 17.7341 L 27.8349 17.7341 L 27.8349 17.7341 L 27.8349 17.7341 L 27.8349 17.7341 L 27.8349 17.7341 L 27.8349 17.7341 L 27.8349 17.7341 L 27.8349 17.7341 L 27.8349 17.7341 L 27.8349 17.7341 L 27.8349 17.7341 L 27.8349 17.7341 L 27.8349 17.7341 L 27.8349 17.7341 L 27.8349 17.7341 L 27.8349 17.7341 L 27.8349 17.7341 L 27.8349 17.7341 L 27.8349 17.7341 L 27.8349 17.7341 L 27.8349 17.7341 L 27.8349 17.7341 L 27.8349 17.7341 L 27.8349 17.7341 L 27.8349 17.7341 L 27.8349 17.7341 L 27.8349 17.7341 L 27.8349 17.7341 L 27.8349 17.7341 L 27.8349 17.7341 L 27.8349 17.7341 L 27.8349 17.7341 L 27.8349 17.7341 L 27.8349 17.7341 L 27.8349 17.7341 L 27.8349 17.7341 L 27.8349 17.7341 L 27.8349 17.7341 L 27.8349 17.7341 L 27.8349 17.7341 L 27.8349 17.7341 L 27.8349 17.7341 L 27.8349 17.7341 L 27.8350 17.7341 L 27.8349 17.7341 L 27.8349 17.7341 L 27.8349 17.7341 L 27.8350 17.7341 L 27.8350 17.7341 L 27.8350 17.7341 L 27.8350 17.7341 L 27.8350 17.7341 L 27.8350 17.7341 L 27.8350 17.7341 L 27.8350 17.7341 L 27.8350 17.7341 L 27.8350 17.7341 L 27.8351 17.7341 L 27.8351 17.7341 L 27.8351 17.7341 L 27.8351 17.7341 L 27.8351 17.7341 L 27.8351 17.7341 L 27.8351 17.7341 L 27.8351 17.7341 L 27.8351 17.7341 L 27.8351 17.7341 L 27.8351 17.7341 L 27.8351 17.7341 L 27.8351 17.7341 L 27.8351 17.7341 L 27.8351 17.7341 L 27.8351 17.7341 L 27.8351 17.7341 L 27.8351 17.7341 L 27.8351 17.7341 L 27.8351 17.7341 L 27.8351 17.7341 L 27.8351 17.7341 L 27.8351 17.7341 L 27.8351 17.7341 L 27.8351 17.7341 L 27.8351 17.7341 L 27.8351 17.7341 L 27.8351 17.7341 L 27.8351 17.7341 L 27.8351 17.7341 L 27.8351 17.7341 L 27.8351 17.7341 L 27.8351 17.7341 L 27.8351 17.7341 L 27.8351 17.7341 L 27.8351 17.7341 L 27.8351 17.7341 L 27.8351 17.7341 L 27.8351 17.7341 L 27.8351 17.7341 L 27.8351 17.7341 L 27.8351 17.7341 L 27.8351 17.7341 L 27.8351 17.7341 L 27.8351 17.7341 L 27.8351 17.7341 L 27.8351 17.7340 L 27.8351 17.7341 L 27.8352 17.7340 L 27.8352 17.7340 L 27.8353 17.7340 L 27.8353 17.7340 L 27.8354 17.7340 L 27.8354 17.7340 L 27.8355 17.7340 L 27.8355 17.7340 L 27.8355 17.7340 L 27.8355 17.7340 L 27.8355 17.7340 L 27.8355 17.7340 L 27.8355 17.7340 L 27.8355 17.7340 L 27.8355 17.7340 L 27.8355 17.7340 L 27.8355 17.7340 L 27.8355 17.7340 L 27.8355 17.7340 L 27.8355 17.7340 L 27.8355 17.7340 L 27.8355 17.7340 L 27.8356 17.7340 L 27.8356 17.7339 L 27.8357 17.7339 L 27.8357 17.7339 L 27.8357 17.7339 L 27.8357 17.7339 L 27.8357 17.7339 L 27.8357 17.7339 L 27.8357 17.7339 L 27.8357 17.7339 L 27.8360 17.7339 L 27.8361 17.7339 L 27.8361 17.7339 L 27.8361 17.7339 L 27.8361 17.7339 L 27.8361 17.7339 L 27.8361 17.7339 L 27.8361 17.7339 L 27.8361 17.7339 L 27.8361 17.7339 L 27.8361 17.7339 L 27.8361 17.7339 L 27.8361 17.7339 L 27.8361 17.7339 L 27.8361 17.7339 L 27.8361 17.7338 L 27.8361 17.7338 L 27.8361 17.7338 L 27.8361 17.7338 L 27.8361 17.7338 L 27.8361 17.7338 L 27.8361 17.7338 L 27.8361 17.7338 L 27.8361 17.7338 L 27.8361 17.7338 L 27.8361 17.7338 L 27.8361 17.7338 L 27.8361 17.7338 L 27.8361 17.7338 L 27.8361 17.7338 L 27.8361 17.7338 L 27.8361 17.7338 L 27.8361 17.7338 L 27.8361 17.7338 L 27.8361 17.7338 L 27.8361 17.7338 L 27.8361 17.7338 L 27.8361 17.7338 L 27.8361 17.7338 L 27.8361 17.7338 L 27.8361 17.7338 L 27.8361 17.7338 L 27.8361 17.7338 L 27.8361 17.7338 L 27.8361 17.7338 L 27.8361 17.7338 L 27.8361 17.7338 L 27.8361 17.7338 L 27.8361 17.7338 L 27.8361 17.7338 L 27.8361 17.7338 L 27.8361 17.7338 L 27.8361 17.7338 L 27.8361 17.7338 L 27.8361 17.7338 L 27.8361 17.7338 L 27.8361 17.7338 L 27.8361 17.7338 L 27.8361 17.7338 L 27.8361 17.7338 L 27.8361 17.7338 L 27.8361 17.7338 L 27.8361 17.7338 L 27.8361 17.7338 L 27.8361 17.7338 L 27.8361 17.7338 L 27.8361 17.7338 L 27.8361 17.7338 L 27.8361 17.7338 L 27.8381 17.7334 L 27.8382 17.7334 L 27.8383 17.7334 L 27.8383 17.7334 L 27.8383 17.7334 L 27.8383 17.7334 L 27.8383 17.7334 L 27.8383 17.7334 L 27.8383 17.7334 L 27.8383 17.7334 L 27.8383 17.7334 L 27.8383 17.7334 L 27.8383 17.7334 L 27.8383 17.7334 L 27.8383 17.7334 L 27.8383 17.7334 L 27.8383 17.7334 L 27.8383 17.7334 L 27.8383 17.7334 L 27.8383 17.7334 L 27.8383 17.7334 L 27.8383 17.7334 L 27.8383 17.7334 L 27.8383 17.7334 L 27.8383 17.7334 L 27.8383 17.7334 L 27.8383 17.7334 L 27.8383 17.7334 L 27.8383 17.7334 L 27.8383 17.7334 L 27.8383 17.7334 L 27.8383 17.7334 L 27.8383 17.7334 L 27.8383 17.7334 L 27.8383 17.7334 L 27.8383 17.7334 L 27.8383 17.7334 L 27.8383 17.7334 L 27.8383 17.7334 L 27.8383 17.7334 L 27.8383 17.7334 L 27.8383 17.7334 L 27.8383 17.7334 L 27.8383 17.7334 L 27.8383 17.7334 L 27.8383 17.7334 L 27.8383 17.7334 L 27.8383 17.7334 L 27.8383 17.7334 L 27.8383 17.7334 L 27.8384 17.7334 L 27.8383 17.7334 L 27.8384 17.7334 L 27.8384 17.7334 L 27.8384 17.7334 L 27.8384 17.7334 L 27.8384 17.7334 L 27.8384 17.7334 L 27.8384 17.7334 L 27.8384 17.7334 L 27.8384 17.7334 L 27.8384 17.7334 L 27.8384 17.7334 L 27.8384 17.7334 L 27.8384 17.7334 L 27.8384 17.7334 L 27.8384 17.7334 L 27.8384 17.7334 L 27.8384 17.7334 L 27.8384 17.7334 L 27.8384 17.7334 L 27.8384 17.7334 L 27.8384 17.7334 L 27.8384 17.7334 L 27.8384 17.7334 L 27.8384 17.7334 L 27.8384 17.7334 L 27.8384 17.7334 L 27.8385 17.7334 L 27.8385 17.7334 L 27.8385 17.7334 L 27.8385 17.7334 L 27.8385 17.7334 L 27.8385 17.7334 L 27.8385 17.7334 L 27.8385 17.7334 L 27.8385 17.7334 L 27.8385 17.7334 L 27.8385 17.7334 L 27.8385 17.7334 L 27.8385 17.7334 L 27.8385 17.7334 L 27.8385 17.7334 L 27.8385 17.7334 L 27.8385 17.7334 L 27.8385 17.7334 L 27.8385 17.7334 L 27.8385 17.7334 L 27.8385 17.7334 L 27.8385 17.7334 L 27.8385 17.7334 L 27.8385 17.7334 L 27.8385 17.7334 L 27.8385 17.7334 L 27.8385 17.7334 L 27.8385 17.7334 L 27.8385 17.7334 L 27.8385 17.7334 L 27.8385 17.7334 L 27.8385 17.7334 L 27.8385 17.7334 L 27.8385 17.7334 L 27.8385 17.7334 L 27.8385 17.7334 L 27.8385 17.7334 L 27.8385 17.7334 L 27.8385 17.7334 L 27.8385 17.7334 L 27.8385 17.7334 L 27.8385 17.7334 L 27.8385 17.7334 L 27.8385 17.7334 L 27.8385 17.7334 L 27.8385 17.7334 L 27.8385 17.7334 L 27.8385 17.7334 L 27.8385 17.7334 L 27.8385 17.7334 L 27.8385 17.7334 L 27.8385 17.7334 L 27.8385 17.7334 L 27.8385 17.7334 L 27.8385 17.7334 L 27.8385 17.7334 L 27.8385 17.7334 L 27.8385 17.7334 L 27.8385 17.7334 L 27.8385 17.7334 L 27.8385 17.7334 L 27.8385 17.7334 L 27.8385 17.7334 L 27.8385 17.7334 L 27.8385 17.7334 L 27.8385 17.7334 L 27.8385 17.7334 L 27.8385 17.7334 L 27.8385 17.7334 L 27.8385 17.7334 L 27.8385 17.7334 L 27.8385 17.7334 L 27.8385 17.7334 L 27.8385 17.7334 L 27.8385 17.7334 L 27.8385 17.7334 L 27.8385 17.7334 L 27.8385 17.7334 L 27.8385 17.7334 L 27.8385 17.7334 L 27.8385 17.7334 L 27.8385 17.7334 L 27.8385 17.7333 L 27.8385 17.7334 L 27.8385 17.7333 L 27.8385 17.7333 L 27.8385 17.7333 L 27.8385 17.7333 L 27.8385 17.7333 L 27.8385 17.7333 L 27.8385 17.7333 L 27.8385 17.7333 L 27.8386 17.7333 L 27.8385 17.7333 L 27.8385 17.7333 L 27.8386 17.7333 L 27.8386 17.7333 L 27.8386 17.7333 L 27.8386 17.7333 L 27.8386 17.7333 L 27.8386 17.7333 L 27.8386 17.7333 L 27.8386 17.7333 L 27.8386 17.7333 L 27.8386 17.7333 L 27.8386 17.7333 L 27.8386 17.7333 L 27.8386 17.7333 L 27.8386 17.7333 L 27.8386 17.7333 L 27.8386 17.7333 L 27.8386 17.7333 L 27.8386 17.7333 L 27.8386 17.7333 L 27.8386 17.7333 L 27.8386 17.7333 L 27.8386 17.7333 L 27.8386 17.7333 L 27.8386 17.7333 L 27.8386 17.7333 L 27.8386 17.7333 L 27.8386 17.7333 L 27.8386 17.7333 L 27.8386 17.7333 L 27.8386 17.7333 L 27.8386 17.7333 L 27.8386 17.7333 L 27.8386 17.7333 L 27.8386 17.7333 L 27.8386 17.7333 L 27.8386 17.7333 L 27.8386 17.7333 L 27.8386 17.7333 L 27.8386 17.7333 L 27.8386 17.7333 L 27.8386 17.7333 L 27.8386 17.7333 L 27.8386 17.7333 L 27.8386 17.7333 L 27.8386 17.7333 L 27.8386 17.7333 L 27.8386 17.7333 L 27.8386 17.7333 L 27.8386 17.7333 L 27.8386 17.7333 L 27.8386 17.7333 L 27.8386 17.7333 L 27.8386 17.7333 L 27.8386 17.7333 L 27.8386 17.7333 L 27.8386 17.7333 L 27.8386 17.7333 L 27.8386 17.7333 L 27.8386 17.7333 L 27.8386 17.7333 L 27.8386 17.7333 L 27.8386 17.7333 L 27.8386 17.7333 L 27.8386 17.7333 L 27.8386 17.7333 L 27.8386 17.7333 L 27.8386 17.7333 L 27.8386 17.7333 L 27.8386 17.7333 L 27.8386 17.7333 L 27.8386 17.7333 L 27.8386 17.7333 L 27.8386 17.7333 L 27.8386 17.7333 L 27.8386 17.7333 L 27.8386 17.7333 L 27.8386 17.7333 L 27.8386 17.7333 L 27.8386 17.7333 L 27.8386 17.7333 L 27.8386 17.7333 L 27.8386 17.7333 L 27.8386 17.7333 L 27.8386 17.7333 L 27.8386 17.7333 L 27.8386 17.7333 L 27.8386 17.7333 L 27.8386 17.7333 L 27.8386 17.7333 L 27.8386 17.7333 L 27.8386 17.7333 L 27.8386 17.7333 L 27.8386 17.7333 L 27.8386 17.7333 L 27.8386 17.7333 L 27.8387 17.7333 L 27.8387 17.7333 L 27.8387 17.7333 L 27.8387 17.7333 L 27.8387 17.7333 L 27.8387 17.7333 L 27.8387 17.7333 L 27.8387 17.7333 L 27.8387 17.7333 L 27.8387 17.7333 L 27.8387 17.7333 L 27.8387 17.7333 L 27.8387 17.7333 L 27.8387 17.7333 L 27.8387 17.7333 L 27.8387 17.7333 L 27.8387 17.7333 L 27.8387 17.7333 L 27.8387 17.7333 L 27.8387 17.7333 L 27.8387 17.7333 L 27.8387 17.7333 L 27.8387 17.7333 L 27.8387 17.7333 L 27.8387 17.7333 L 27.8387 17.7333 L 27.8387 17.7333 L 27.8387 17.7333 L 27.8387 17.7333 L 27.8387 17.7333 L 27.8387 17.7333 L 27.8388 17.7333 L 27.8388 17.7333 L 27.8388 17.7333 L 27.8388 17.7333 L 27.8389 17.7333 L 27.8389 17.7333 L 27.8389 17.7333 L 27.8389 17.7333 L 27.8389 17.7333 L 27.8389 17.7333 L 27.8389 17.7333 L 27.8389 17.7333 L 27.8389 17.7333 L 27.8389 17.7333 L 27.8389 17.7333 L 27.8389 17.7333 L 27.8389 17.7333 L 27.8389 17.7333 L 27.8389 17.7333 L 27.8389 17.7333 L 27.8389 17.7333 L 27.8389 17.7333 L 27.8389 17.7333 L 27.8389 17.7333 L 27.8389 17.7333 L 27.8389 17.7333 L 27.8389 17.7333 L 27.8389 17.7333 L 27.8389 17.7333 L 27.8389 17.7333 L 27.8389 17.7333 L 27.8389 17.7333 L 27.8389 17.7333 L 27.8389 17.7333 L 27.8389 17.7333 L 27.8389 17.7333 L 27.8389 17.7333 L 27.8389 17.7333 L 27.8389 17.7333 L 27.8389 17.7333 L 27.8389 17.7333 L 27.8389 17.7333 L 27.8389 17.7333 L 27.8389 17.7333 L 27.8389 17.7333 L 27.8389 17.7333 L 27.8389 17.7333 L 27.8389 17.7333 L 27.8389 17.7333 L 27.8389 17.7333 L 27.8389 17.7333 L 27.8390 17.7333 L 27.8390 17.7333 L 27.8390 17.7333 L 27.8390 17.7333 L 27.8390 17.7333 L 27.8390 17.7333 L 27.8390 17.7333 L 27.8390 17.7333 L 27.8390 17.7333 L 27.8390 17.7333 L 27.8390 17.7333 L 27.8390 17.7333 L 27.8390 17.7333 L 27.8390 17.7333 L 27.8390 17.7333 L 27.8390 17.7333 L 27.8390 17.7333 L 27.8390 17.7333 L 27.8390 17.7333 L 27.8390 17.7333 L 27.8390 17.7333 L 27.8390 17.7333 L 27.8390 17.7333 L 27.8390 17.7333 L 27.8390 17.7333 L 27.8390 17.7333 L 27.8390 17.7333 L 27.8390 17.7333 L 27.8390 17.7333 L 27.8390 17.7333 L 27.8390 17.7333 L 27.8390 17.7333 L 27.8391 17.7332 L 27.8392 17.7332 L 27.8392 17.7332 L 27.8392 17.7332 L 27.8392 17.7332 L 27.8392 17.7332 L 27.8392 17.7332 L 27.8392 17.7332 L 27.8392 17.7332 L 27.8392 17.7332 L 27.8392 17.7332 L 27.8392 17.7332 L 27.8394 17.7332 L 27.8396 17.7331 L 27.8395 17.7331 L 27.8396 17.7331 L 27.8396 17.7331 L 27.8396 17.7331 L 27.8396 17.7331 L 27.8396 17.7331 L 27.8396 17.7331 L 27.8396 17.7331 L 27.8396 17.7331 L 27.8396 17.7331 L 27.8396 17.7331 L 27.8396 17.7331 L 27.8396 17.7331 L 27.8396 17.7331 L 27.8396 17.7331 L 27.8396 17.7331 L 27.8396 17.7331 L 27.8396 17.7331 L 27.8396 17.7331 L 27.8396 17.7331 L 27.8396 17.7331 L 27.8396 17.7331 L 27.8396 17.7331 L 27.8396 17.7331 L 27.8396 17.7331 L 27.8396 17.7331 L 27.8396 17.7331 L 27.8396 17.7331 L 27.8397 17.7331 L 27.8397 17.7331 L 27.8397 17.7331 L 27.8397 17.7331 L 27.8397 17.7331 L 27.8397 17.7331 L 27.8397 17.7331 L 27.8397 17.7331 L 27.8397 17.7331 L 27.8397 17.7331 L 27.8397 17.7331 L 27.8397 17.7331 L 27.8397 17.7331 L 27.8397 17.7331 L 27.8397 17.7331 L 27.8397 17.7331 L 27.8397 17.7331 L 27.8397 17.7331 L 27.8397 17.7331 L 27.8397 17.7331 L 27.8397 17.7331 L 27.8397 17.7331 L 27.8397 17.7331 L 27.8397 17.7331 L 27.8397 17.7331 L 27.8397 17.7331 L 27.8397 17.7331 L 27.8397 17.7331 L 27.8397 17.7331 L 27.8397 17.7331 L 27.8397 17.7331 L 27.8397 17.7331 L 27.8397 17.7331 L 27.8397 17.7331 L 27.8397 17.7331 L 27.8397 17.7331 L 27.8397 17.7331 L 27.8397 17.7331 L 27.8397 17.7331 L 27.8397 17.7331 L 27.8397 17.7331 L 27.8397 17.7331 L 27.8397 17.7331 L 27.8397 17.7331 L 27.8397 17.7331 L 27.8397 17.7331 L 27.8397 17.7331 L 27.8397 17.7331 L 27.8397 17.7331 L 27.8397 17.7331 L 27.8397 17.7331 L 27.8397 17.7331 L 27.8397 17.7331 L 27.8397 17.7331 L 27.8397 17.7331 L 27.8397 17.7331 L 27.8397 17.7331 L 27.8397 17.7331 L 27.8397 17.7331 L 27.8397 17.7331 L 27.8397 17.7331 L 27.8397 17.7331 L 27.8397 17.7331 L 27.8397 17.7331 L 27.8397 17.7331 L 27.8397 17.7331 L 27.8397 17.7331 L 27.8397 17.7331 L 27.8397 17.7331 L 27.8397 17.7331 L 27.8397 17.7331 L 27.8397 17.7331 L 27.8397 17.7331 L 27.8397 17.7331 L 27.8397 17.7331 L 27.8397 17.7331 L 27.8397 17.7331 L 27.8397 17.7331 L 27.8397 17.7331 L 27.8397 17.7331 L 27.8397 17.7331 L 27.8398 17.7331 L 27.8397 17.7331 L 27.8397 17.7331 L 27.8398 17.7331 L 27.8398 17.7331 L 27.8398 17.7331 L 27.8398 17.7331 L 27.8398 17.7331 L 27.8398 17.7331 L 27.8398 17.7331 L 27.8398 17.7331 L 27.8398 17.7331 L 27.8398 17.7331 L 27.8398 17.7331 L 27.8398 17.7331 L 27.8398 17.7331 L 27.8398 17.7331 L 27.8398 17.7331 L 27.8398 17.7331 L 27.8398 17.7331 L 27.8399 17.7331 L 27.8404 17.7330 L 27.8405 17.7329 L 27.8407 17.7329 L 27.8407 17.7329 L 27.8407 17.7329 L 27.8407 17.7329 L 27.8407 17.7329 L 27.8409 17.7329 L 27.8407 17.7329 L 27.8408 17.7329 L 27.8408 17.7329 L 27.8408 17.7329 L 27.8408 17.7329 L 27.8408 17.7329 L 27.8409 17.7329 L 27.8409 17.7329 L 27.8409 17.7329 L 27.8409 17.7329 L 27.8410 17.7329 L 27.8409 17.7329 L 27.8409 17.7329 L 27.8410 17.7329 L 27.8410 17.7329 L 27.8410 17.7329 L 27.8410 17.7329 L 27.8410 17.7329 L 27.8410 17.7329 L 27.8410 17.7329 L 27.8410 17.7329 L 27.8410 17.7329 L 27.8410 17.7329 L 27.8410 17.7329 L 27.8410 17.7329 L 27.8410 17.7329 L 27.8410 17.7329 L 27.8410 17.7329 L 27.8410 17.7329 L 27.8410 17.7329 L 27.8410 17.7329 L 27.8410 17.7329 L 27.8410 17.7329 L 27.8410 17.7329 L 27.8410 17.7329 L 27.8410 17.7329 L 27.8410 17.7329 L 27.8410 17.7329 L 27.8410 17.7329 L 27.8410 17.7329 L 27.8410 17.7329 L 27.8410 17.7329 L 27.8410 17.7329 L 27.8410 17.7328 L 27.8410 17.7328 L 27.8410 17.7328 L 27.8410 17.7328 L 27.8411 17.7328 L 27.8419 17.7327 L 27.8418 17.7327 L 27.8420 17.7326 L 27.8420 17.7326 L 27.8421 17.7326 L 27.8420 17.7326 L 27.8421 17.7326 L 27.8421 17.7326 L 27.8421 17.7326 L 27.8426 17.7325 L 27.8422 17.7326 L 27.8422 17.7326 L 27.8422 17.7326 L 27.8422 17.7326 L 27.8423 17.7326 L 27.8431 17.7324 L 27.8438 17.7323 L 27.8440 17.7322 L 27.8440 17.7322 L 27.8431 17.7324 L 27.8426 17.7325 L 27.8441 17.7322 L 27.8441 17.7322 L 27.8441 17.7322 L 27.8441 17.7322 L 27.8441 17.7322 L 27.8441 17.7322 L 27.8441 17.7322 L 27.8441 17.7322 L 27.8441 17.7322 L 27.8441 17.7322 L 27.8441 17.7322 L 27.8441 17.7322 L 27.8441 17.7322 L 27.8441 17.7322 L 27.8441 17.7322 L 27.8441 17.7322 L 27.8441 17.7322 L 27.8441 17.7322 L 27.8441 17.7322 L 27.8441 17.7322 L 27.8441 17.7322 L 27.8441 17.7322 L 27.8441 17.7322 L 27.8441 17.7322 L 27.8441 17.7322 L 27.8441 17.7322 L 27.8441 17.7322 L 27.8441 17.7322 L 27.8441 17.7322 L 27.8441 17.7322 L 27.8441 17.7322 L 27.8441 17.7322 L 27.8441 17.7322 L 27.8441 17.7322 L 27.8441 17.7322 L 27.8441 17.7322 L 27.8441 17.7322 L 27.8441 17.7322 L 27.8441 17.7322 L 27.8441 17.7322 L 27.8441 17.7322 L 27.8441 17.7322 L 27.8444 17.7321 L 27.8445 17.7321 L 27.8445 17.7321 L 27.8445 17.7321 L 27.8445 17.7321 L 27.8445 17.7321 L 27.8445 17.7321 L 27.8445 17.7321 L 27.8445 17.7321 L 27.8445 17.7321 L 27.8445 17.7321 L 27.8445 17.7321 L 27.8445 17.7321 L 27.8445 17.7321 L 27.8458 17.7319 L 27.8456 17.7319 L 27.8454 17.7319 L 27.8454 17.7319 L 27.8454 17.7319 L 27.8454 17.7319 L 27.8454 17.7319 L 27.8454 17.7319 L 27.8456 17.7319 L 27.8456 17.7319 L 27.8466 17.7317 L 27.8470 17.7316 L 27.8467 17.7317 L 27.8518 17.7306 L 27.8556 17.7299 L 27.8608 17.7288 L 27.8637 17.7282 L 27.8716 17.7266 L 27.9135 17.7180 L 27.9240 17.7158 L 27.9237 17.7159 L 27.9248 17.7157 L 27.9240 17.7158 L 27.9249 17.7157 L 27.9250 17.7156 L 27.9250 17.7156 L 27.9254 17.7156 L 27.9262 17.7154 L 27.9539 17.7097 L 27.9559 17.7093 L 27.9669 17.7071 L 27.9667 17.7071 L 28.0510 17.6898 L 28.0331 17.6935 L 28.0158 17.6970 L 28.0261 17.6949 L 28.0331 17.6935 L 28.0515 17.6897 L 28.0541 17.6892 L 28.0749 17.6849 L 28.0547 17.6891 L 28.1023 17.6793 L 28.2529 17.6485 L 28.1940 17.6606 L 28.2890 17.6411 L 28.2981 17.6392 L 28.3021 17.6384 L 28.3030 17.6382 L 28.3044 17.6379 L 28.3063 17.6375 L 28.3114 17.6365 L 28.3570 17.6272 L 28.3774 17.6230 L 28.3912 17.6201 L 28.3570 17.6272 L 28.3501 17.6286 L 28.3914 17.6201 L 28.4001 17.6183 L 28.4004 17.6183 L 28.4004 17.6183 L 28.4004 17.6183 L 28.4004 17.6183 L 28.4004 17.6183 L 28.4004 17.6183 L 28.4004 17.6183 L 28.4004 17.6183 L 28.4005 17.6182 L 28.4005 17.6182 L 28.4006 17.6182 L 28.4006 17.6182 L 28.4006 17.6182 L 28.4006 17.6182 L 28.4007 17.6182 L 28.4006 17.6182 L 28.4006 17.6182 L 28.4007 17.6182 L 28.4007 17.6182 L 28.4008 17.6182 L 28.4008 17.6182 L 28.4008 17.6182 L 28.4008 17.6182 L 28.4012 17.6181 L 28.4009 17.6182 L 28.4011 17.6181 L 28.4012 17.6181 L 28.4012 17.6181 L 28.4012 17.6181 L 28.4012 17.6181 L 28.4012 17.6181 L 28.4013 17.6181 L 28.4014 17.6181 L 28.4015 17.6180 L 28.4016 17.6180 L 28.4020 17.6179 L 28.4020 17.6179 L 28.4021 17.6179 L 28.4021 17.6179 L 28.4021 17.6179 L 28.4022 17.6179 L 28.4022 17.6179 L 28.4022 17.6179 L 28.4022 17.6179 L 28.4022 17.6179 L 28.4022 17.6179 L 28.4022 17.6179 L 28.4022 17.6179 L 28.4022 17.6179 L 28.4022 17.6179 L 28.4023 17.6179 L 28.4023 17.6179 L 28.4022 17.6179 L 28.4023 17.6179 L 28.4023 17.6179 L 28.4023 17.6179 L 28.4023 17.6179 L 28.4023 17.6179 L 28.4023 17.6179 L 28.4023 17.6179 L 28.4024 17.6179 L 28.4024 17.6179 L 28.4026 17.6178 L 28.4026 17.6178 L 28.4026 17.6178 L 28.4026 17.6178 L 28.4026 17.6178 L 28.4026 17.6178 L 28.4026 17.6178 L 28.4026 17.6178 L 28.4026 17.6178 L 28.4026 17.6178 L 28.4026 17.6178 L 28.4026 17.6178 L 28.4026 17.6178 L 28.4026 17.6178 L 28.4026 17.6178 L 28.4026 17.6178 L 28.4026 17.6178 L 28.4026 17.6178 L 28.4026 17.6178 L 28.4026 17.6178 L 28.4026 17.6178 L 28.4026 17.6178 L 28.4026 17.6178 L 28.4026 17.6178 L 28.4026 17.6178 L 28.4026 17.6178 L 28.4026 17.6178 L 28.4026 17.6178 L 28.4026 17.6178 L 28.4026 17.6178 L 28.4027 17.6178 L 28.4028 17.6178 L 28.4028 17.6178 L 28.4028 17.6178 L 28.4028 17.6178 L 28.4028 17.6178 L 28.4028 17.6178 L 28.4028 17.6178 L 28.4028 17.6178 L 28.4029 17.6178 L 28.4029 17.6178 L 28.4029 17.6178 L 28.4029 17.6178 L 28.4029 17.6178 L 28.4029 17.6178 L 28.4029 17.6178 L 28.4029 17.6178 L 28.4029 17.6178 L 28.4029 17.6178 L 28.4029 17.6178 L 28.4029 17.6178 L 28.4029 17.6178 L 28.4029 17.6178 L 28.4029 17.6178 L 28.4029 17.6178 L 28.4029 17.6178 L 28.4029 17.6178 L 28.4029 17.6178 L 28.4029 17.6178 L 28.4029 17.6178 L 28.4029 17.6178 L 28.4029 17.6178 L 28.4029 17.6178 L 28.4029 17.6178 L 28.4029 17.6178 L 28.4029 17.6178 L 28.4029 17.6178 L 28.4029 17.6178 L 28.4029 17.6178 L 28.4029 17.6178 L 28.4029 17.6178 L 28.4029 17.6178 L 28.4029 17.6178 L 28.4029 17.6178 L 28.4029 17.6178 L 28.4029 17.6178 L 28.4029 17.6178 L 28.4029 17.6177 L 28.4029 17.6177 L 28.4029 17.6177 L 28.4029 17.6177 L 28.4030 17.6177 L 28.4029 17.6177 L 28.4029 17.6177 L 28.4029 17.6177 L 28.4029 17.6177 L 28.4030 17.6177 L 28.4031 17.6177 L 28.4031 17.6177 L 28.4031 17.6177 L 28.4031 17.6177 L 28.4031 17.6177 L 28.4032 17.6177 L 28.4033 17.6177 L 28.4033 17.6177 L 28.4033 17.6177 L 28.4033 17.6177 L 28.4033 17.6177 L 28.4033 17.6177 L 28.4033 17.6177 L 28.4033 17.6177 L 28.4033 17.6177 L 28.4033 17.6177 L 28.4033 17.6177 L 28.4033 17.6177 L 28.4033 17.6177 L 28.4033 17.6177 L 28.4033 17.6177 L 28.4033 17.6177 L 28.4033 17.6177 L 28.4033 17.6177 L 28.4033 17.6177 L 28.4033 17.6177 L 28.4033 17.6177 L 28.4033 17.6177 L 28.4033 17.6177 L 28.4033 17.6177 L 28.4033 17.6177 L 28.4033 17.6177 L 28.4033 17.6177 L 28.4033 17.6177 L 28.4033 17.6177 L 28.4033 17.6177 L 28.4033 17.6177 L 28.4033 17.6177 L 28.4034 17.6177 L 28.4034 17.6177 L 28.4034 17.6177 L 28.4034 17.6177 L 28.4034 17.6177 L 28.4034 17.6177 L 28.4034 17.6177 L 28.4034 17.6177 L 28.4034 17.6177 L 28.4034 17.6177 L 28.4034 17.6177 L 28.4034 17.6177 L 28.4034 17.6177 L 28.4034 17.6176 L 28.4034 17.6177 L 28.4035 17.6176 L 28.4035 17.6176 L 28.4035 17.6176 L 28.4035 17.6176 L 28.4035 17.6176 L 28.4035 17.6176 L 28.4035 17.6176 L 28.4035 17.6176 L 28.4035 17.6176 L 28.4035 17.6176 L 28.4035 17.6176 L 28.4035 17.6176 L 28.4035 17.6176 L 28.4035 17.6176 L 28.4035 17.6176 L 28.4035 17.6176 L 28.4035 17.6176 L 28.4035 17.6176 L 28.4035 17.6176 L 28.4035 17.6176 L 28.4035 17.6176 L 28.4035 17.6176 L 28.4035 17.6176 L 28.4035 17.6176 L 28.4035 17.6176 L 28.4035 17.6176 L 28.4036 17.6176 L 28.4036 17.6176 L 28.4037 17.6176 L 28.4037 17.6176 L 28.4037 17.6176 L 28.4040 17.6175 L 28.4040 17.6175 L 28.4037 17.6176 L 28.4040 17.6175 L 28.4040 17.6175 L 28.4040 17.6175 L 28.4040 17.6175 L 28.4040 17.6175 L 28.4040 17.6175 L 28.4040 17.6175 L 28.4040 17.6175 L 28.4040 17.6175 L 28.4040 17.6175 L 28.4040 17.6175 L 28.4041 17.6175 L 28.4040 17.6175 L 28.4041 17.6175 L 28.4041 17.6175 L 28.4041 17.6175 L 28.4041 17.6175 L 28.4041 17.6175 L 28.4041 17.6175 L 28.4041 17.6175 L 28.4041 17.6175 L 28.4041 17.6175 L 28.4046 17.6174 L 28.4062 17.6171 L 28.4061 17.6171 L 28.4065 17.6170 L 28.4068 17.6170 L 28.4068 17.6170 L 28.4066 17.6170 L 28.4068 17.6170 L 28.4068 17.6170 L 28.4068 17.6170 L 28.4068 17.6170 L 28.4068 17.6170 L 28.4068 17.6170 L 28.4068 17.6170 L 28.4068 17.6170 L 28.4068 17.6170 L 28.4068 17.6170 L 28.4069 17.6169 L 28.4069 17.6169 L 28.4070 17.6169 L 28.4070 17.6169 L 28.4070 17.6169 L 28.4070 17.6169 L 28.4070 17.6169 L 28.4070 17.6169 L 28.4070 17.6169 L 28.4070 17.6169 L 28.4070 17.6169 L 28.4070 17.6169 L 28.4070 17.6169 L 28.4070 17.6169 L 28.4070 17.6169 L 28.4070 17.6169 L 28.4070 17.6169 L 28.4070 17.6169 L 28.4070 17.6169 L 28.4070 17.6169 L 28.4070 17.6169 L 28.4070 17.6169 L 28.4070 17.6169 L 28.4071 17.6169 L 28.4074 17.6168 L 28.4074 17.6168 L 28.4075 17.6168 L 28.4075 17.6168 L 28.4075 17.6168 L 28.4075 17.6168 L 28.4075 17.6168 L 28.4075 17.6168 L 28.4075 17.6168 L 28.4075 17.6168 L 28.4075 17.6168 L 28.4075 17.6168 L 28.4075 17.6168 L 28.4075 17.6168 L 28.4075 17.6168 L 28.4075 17.6168 L 28.4075 17.6168 L 28.4075 17.6168 L 28.4075 17.6168 L 28.4075 17.6168 L 28.4075 17.6168 L 28.4075 17.6168 L 28.4075 17.6168 L 28.4075 17.6168 L 28.4075 17.6168 L 28.4075 17.6168 L 28.4075 17.6168 L 28.4075 17.6168 L 28.4076 17.6168 L 28.4076 17.6168 L 28.4076 17.6168 L 28.4076 17.6168 L 28.4076 17.6168 L 28.4076 17.6168 L 28.4076 17.6168 L 28.4076 17.6168 L 28.4076 17.6168 L 28.4076 17.6168 L 28.4076 17.6168 L 28.4076 17.6168 L 28.4076 17.6168 L 28.4076 17.6168 L 28.4077 17.6168 L 28.4077 17.6168 L 28.4077 17.6168 L 28.4077 17.6168 L 28.4077 17.6168 L 28.4078 17.6168 L 28.4078 17.6168 L 28.4078 17.6168 L 28.4078 17.6168 L 28.4078 17.6168 L 28.4078 17.6168 L 28.4078 17.6168 L 28.4078 17.6168 L 28.4078 17.6168 L 28.4078 17.6168 L 28.4078 17.6168 L 28.4078 17.6168 L 28.4078 17.6168 L 28.4078 17.6168 L 28.4078 17.6168 L 28.4078 17.6168 L 28.4078 17.6168 L 28.4078 17.6168 L 28.4078 17.6168 L 28.4078 17.6168 L 28.4078 17.6168 L 28.4078 17.6168 L 28.4078 17.6168 L 28.4078 17.6168 L 28.4078 17.6168 L 28.4078 17.6168 L 28.4078 17.6168 L 28.4078 17.6168 L 28.4078 17.6168 L 28.4078 17.6168 L 28.4078 17.6168 L 28.4078 17.6168 L 28.4078 17.6168 L 28.4078 17.6168 L 28.4078 17.6167 L 28.4078 17.6167 L 28.4078 17.6167 L 28.4079 17.6167 L 28.4079 17.6167 L 28.4079 17.6167 L 28.4079 17.6167 L 28.4079 17.6167 L 28.4079 17.6167 L 28.4079 17.6167 L 28.4079 17.6167 L 28.4079 17.6167 L 28.4079 17.6167 L 28.4079 17.6167 L 28.4079 17.6167 L 28.4079 17.6167 L 28.4079 17.6167 L 28.4079 17.6167 L 28.4079 17.6167 L 28.4079 17.6167 L 28.4079 17.6167 L 28.4079 17.6167 L 28.4079 17.6167 L 28.4079 17.6167 L 28.4079 17.6167 L 28.4079 17.6167 L 28.4079 17.6167 L 28.4079 17.6167 L 28.4079 17.6167 L 28.4079 17.6167 L 28.4079 17.6167 L 28.4079 17.6167 L 28.4079 17.6167 L 28.4079 17.6167 L 28.4079 17.6167 L 28.4080 17.6167 L 28.4079 17.6167 L 28.4080 17.6167 L 28.4080 17.6167 L 28.4080 17.6167 L 28.4080 17.6167 L 28.4080 17.6167 L 28.4080 17.6167 L 28.4080 17.6167 L 28.4080 17.6167 L 28.4080 17.6167 L 28.4080 17.6167 L 28.4080 17.6167 L 28.4080 17.6167 L 28.4080 17.6167 L 28.4080 17.6167 L 28.4080 17.6167 L 28.4080 17.6167 L 28.4080 17.6167 L 28.4080 17.6167 L 28.4080 17.6167 L 28.4080 17.6167 L 28.4080 17.6167 L 28.4080 17.6167 L 28.4080 17.6167 L 28.4080 17.6167 L 28.4080 17.6167 L 28.4080 17.6167 L 28.4080 17.6167 L 28.4080 17.6167 L 28.4080 17.6167 L 28.4080 17.6167 L 28.4080 17.6167 L 28.4081 17.6167 L 28.4081 17.6167 L 28.4081 17.6167 L 28.4081 17.6167 L 28.4081 17.6167 L 28.4081 17.6167 L 28.4081 17.6167 L 28.4081 17.6167 L 28.4081 17.6167 L 28.4081 17.6167 L 28.4081 17.6167 L 28.4081 17.6167 L 28.4081 17.6167 L 28.4081 17.6167 L 28.4081 17.6167 L 28.4081 17.6167 L 28.4081 17.6167 L 28.4081 17.6167 L 28.4081 17.6167 L 28.4081 17.6167 L 28.4081 17.6167 L 28.4081 17.6167 L 28.4081 17.6167 L 28.4081 17.6167 L 28.4081 17.6167 L 28.4081 17.6167 L 28.4081 17.6167 L 28.4081 17.6167 L 28.4081 17.6167 L 28.4081 17.6167 L 28.4081 17.6167 L 28.4081 17.6167 L 28.4081 17.6167 L 28.4081 17.6167 L 28.4081 17.6167 L 28.4081 17.6167 L 28.4081 17.6167 L 28.4081 17.6167 L 28.4081 17.6167 L 28.4081 17.6167 L 28.4081 17.6167 L 28.4082 17.6167 L 28.4081 17.6167 L 28.4082 17.6167 L 28.4082 17.6167 L 28.4082 17.6167 L 28.4082 17.6167 L 28.4082 17.6167 L 28.4082 17.6167 L 28.4082 17.6167 L 28.4082 17.6167 L 28.4082 17.6167 L 28.4082 17.6167 L 28.4082 17.6167 L 28.4082 17.6167 L 28.4082 17.6167 L 28.4082 17.6167 L 28.4082 17.6167 L 28.4082 17.6167 L 28.4082 17.6167 L 28.4082 17.6167 L 28.4082 17.6167 L 28.4082 17.6167 L 28.4082 17.6167 L 28.4082 17.6167 L 28.4082 17.6167 L 28.4082 17.6167 L 28.4082 17.6167 L 28.4082 17.6167 L 28.4082 17.6167 L 28.4082 17.6167 L 28.4082 17.6167 L 28.4082 17.6167 L 28.4082 17.6167 L 28.4082 17.6167 L 28.4082 17.6167 L 28.4082 17.6167 L 28.4082 17.6167 L 28.4082 17.6167 L 28.4082 17.6167 L 28.4082 17.6167 L 28.4082 17.6167 L 28.4082 17.6167 L 28.4082 17.6167 L 28.4082 17.6167 L 28.4082 17.6167 L 28.4082 17.6167 L 28.4082 17.6167 L 28.4082 17.6167 L 28.4082 17.6167 L 28.4082 17.6167 L 28.4082 17.6167 L 28.4082 17.6167 L 28.4082 17.6167 L 28.4082 17.6167 L 28.4083 17.6167 L 28.4083 17.6167 L 28.4083 17.6166 L 28.4084 17.6166 L 28.4084 17.6166 L 28.4084 17.6166 L 28.4085 17.6166 L 28.4089 17.6165 L 28.4088 17.6165 L 28.4089 17.6165 L 28.4089 17.6165 L 28.4090 17.6165 L 28.4091 17.6165 L 28.4090 17.6165 L 28.4091 17.6165 L 28.4098 17.6163 L 28.4103 17.6162 L 28.4107 17.6162 L 28.4100 17.6163 L 28.4108 17.6161 L 28.4123 17.6158 L 28.4128 17.6157 L 28.4128 17.6157 L 28.4128 17.6157 L 28.4128 17.6157 L 28.4128 17.6157 L 28.4128 17.6157 L 28.4128 17.6157 L 28.4128 17.6157 L 28.4129 17.6157 L 28.4128 17.6157 L 28.4128 17.6157 L 28.4129 17.6157 L 28.4129 17.6157 L 28.4129 17.6157 L 28.4129 17.6157 L 28.4129 17.6157 L 28.4129 17.6157 L 28.4129 17.6157 L 28.4129 17.6157 L 28.4129 17.6157 L 28.4129 17.6157 L 28.4129 17.6157 L 28.4129 17.6157 L 28.4129 17.6157 L 28.4129 17.6157 L 28.4129 17.6157 L 28.4129 17.6157 L 28.4129 17.6157 L 28.4129 17.6157 L 28.4129 17.6157 L 28.4129 17.6157 L 28.4129 17.6157 L 28.4129 17.6157 L 28.4129 17.6157 L 28.4129 17.6157 L 28.4129 17.6157 L 28.4129 17.6157 L 28.4129 17.6157 L 28.4130 17.6157 L 28.4130 17.6157 L 28.4130 17.6157 L 28.4130 17.6157 L 28.4130 17.6157 L 28.4130 17.6157 L 28.4130 17.6157 L 28.4130 17.6157 L 28.4130 17.6157 L 28.4130 17.6157 L 28.4130 17.6157 L 28.4130 17.6157 L 28.4130 17.6157 L 28.4130 17.6157 L 28.4130 17.6157 L 28.4130 17.6157 L 28.4130 17.6157 L 28.4130 17.6157 L 28.4130 17.6157 L 28.4130 17.6157 L 28.4130 17.6157 L 28.4131 17.6157 L 28.4131 17.6157 L 28.4131 17.6157 L 28.4131 17.6157 L 28.4131 17.6157 L 28.4131 17.6157 L 28.4131 17.6157 L 28.4131 17.6157 L 28.4131 17.6157 L 28.4131 17.6157 L 28.4131 17.6157 L 28.4131 17.6157 L 28.4131 17.6157 L 28.4131 17.6157 L 28.4132 17.6157 L 28.4132 17.6157 L 28.4132 17.6157 L 28.4132 17.6156 L 28.4132 17.6157 L 28.4133 17.6156 L 28.4133 17.6156 L 28.4133 17.6156 L 28.4133 17.6156 L 28.4133 17.6156 L 28.4133 17.6156 L 28.4133 17.6156 L 28.4133 17.6156 L 28.4133 17.6156 L 28.4133 17.6156 L 28.4133 17.6156 L 28.4133 17.6156 L 28.4133 17.6156 L 28.4133 17.6156 L 28.4133 17.6156 L 28.4133 17.6156 L 28.4133 17.6156 L 28.4133 17.6156 L 28.4133 17.6156 L 28.4133 17.6156 L 28.4133 17.6156 L 28.4133 17.6156 L 28.4133 17.6156 L 28.4133 17.6156 L 28.4133 17.6156 L 28.4133 17.6156 L 28.4133 17.6156 L 28.4134 17.6156 L 28.4134 17.6156 L 28.4134 17.6156 L 28.4135 17.6156 L 28.4134 17.6156 L 28.4135 17.6156 L 28.4136 17.6156 L 28.4141 17.6155 L 28.4147 17.6153 L 28.4173 17.6148 L 28.4249 17.6133 L 28.4223 17.6138 L 28.4282 17.6126 L 28.4297 17.6123 L 28.4307 17.6121 L 28.4310 17.6120 L 28.4313 17.6119 L 28.4315 17.6119 L 28.4310 17.6120 L 28.4297 17.6123 L 28.4249 17.6133 L 28.4331 17.6116 L 28.4331 17.6116 L 28.4332 17.6115 L 28.4333 17.6115 L 28.4333 17.6115 L 28.4333 17.6115 L 28.4333 17.6115 L 28.4333 17.6115 L 28.4333 17.6115 L 28.4333 17.6115 L 28.4333 17.6115 L 28.4333 17.6115 L 28.4333 17.6115 L 28.4333 17.6115 L 28.4333 17.6115 L 28.4333 17.6115 L 28.4333 17.6115 L 28.4333 17.6115 L 28.4333 17.6115 L 28.4333 17.6115 L 28.4333 17.6115 L 28.4333 17.6115 L 28.4333 17.6115 L 28.4333 17.6115 L 28.4333 17.6115 L 28.4333 17.6115 L 28.4333 17.6115 L 28.4333 17.6115 L 28.4333 17.6115 L 28.4333 17.6115 L 28.4333 17.6115 L 28.4333 17.6115 L 28.4333 17.6115 L 28.4333 17.6115 L 28.4333 17.6115 L 28.4333 17.6115 L 28.4333 17.6115 L 28.4333 17.6115 L 28.4333 17.6115 L 28.4333 17.6115 L 28.4333 17.6115 L 28.4333 17.6115 L 28.4333 17.6115 L 28.4333 17.6115 L 28.4333 17.6115 L 28.4333 17.6115 L 28.4333 17.6115 L 28.4333 17.6115 L 28.4333 17.6115 L 28.4334 17.6115 L 28.4334 17.6115 L 28.4334 17.6115 L 28.4334 17.6115 L 28.4334 17.6115 L 28.4334 17.6115 L 28.4334 17.6115 L 28.4334 17.6115 L 28.4334 17.6115 L 28.4334 17.6115 L 28.4334 17.6115 L 28.4334 17.6115 L 28.4334 17.6115 L 28.4334 17.6115 L 28.4334 17.6115 L 28.4334 17.6115 L 28.4334 17.6115 L 28.4334 17.6115 L 28.4334 17.6115 L 28.4334 17.6115 L 28.4334 17.6115 L 28.4334 17.6115 L 28.4334 17.6115 L 28.4334 17.6115 L 28.4334 17.6115 L 28.4334 17.6115 L 28.4334 17.6115 L 28.4334 17.6115 L 28.4334 17.6115 L 28.4334 17.6115 L 28.4334 17.6115 L 28.4334 17.6115 L 28.4334 17.6115 L 28.4336 17.6115 L 28.4338 17.6114 L 28.4334 17.6115 L 28.4362 17.6109 L 28.4381 17.6106 L 28.4385 17.6105 L 28.4385 17.6105 L 28.4385 17.6105 L 28.4385 17.6105 L 28.4385 17.6105 L 28.4385 17.6105 L 28.4385 17.6105 L 28.4385 17.6105 L 28.4386 17.6105 L 28.4386 17.6104 L 28.4387 17.6104 L 28.4387 17.6104 L 28.4387 17.6104 L 28.4387 17.6104 L 28.4387 17.6104 L 28.4388 17.6104 L 28.4392 17.6103 L 28.4489 17.6083 L 28.4690 17.6042 L 28.4637 17.6053 L 28.4749 17.6030 L 28.4754 17.6029 L 28.4756 17.6029 L 28.4756 17.6029 L 28.4757 17.6028 L 28.4759 17.6028 L 28.4758 17.6028 L 28.4758 17.6028 L 28.4758 17.6028 L 28.4758 17.6028 L 28.4758 17.6028 L 28.4758 17.6028 L 28.4758 17.6028 L 28.4758 17.6028 L 28.4758 17.6028 L 28.4758 17.6028 L 28.4758 17.6028 L 28.4758 17.6028 L 28.4758 17.6028 L 28.4758 17.6028 L 28.4759 17.6028 L 28.4759 17.6028 L 28.4759 17.6028 L 28.4759 17.6028 L 28.4759 17.6028 L 28.4759 17.6028 L 28.4760 17.6028 L 28.4760 17.6028 L 28.4760 17.6028 L 28.4760 17.6028 L 28.4760 17.6028 L 28.4760 17.6028 L 28.4760 17.6028 L 28.4760 17.6028 L 28.4760 17.6028 L 28.4760 17.6028 L 28.4760 17.6028 L 28.4760 17.6028 L 28.4760 17.6028 L 28.4760 17.6028 L 28.4760 17.6028 L 28.4760 17.6028 L 28.4760 17.6028 L 28.4760 17.6028 L 28.4760 17.6028 L 28.4760 17.6028 L 28.4760 17.6028 L 28.4760 17.6028 L 28.4760 17.6028 L 28.4760 17.6028 L 28.4760 17.6028 L 28.4760 17.6028 L 28.4760 17.6028 L 28.4760 17.6028 L 28.4760 17.6028 L 28.4762 17.6028 L 28.4762 17.6027 L 28.4762 17.6027 L 28.4762 17.6027 L 28.4762 17.6027 L 28.4762 17.6027 L 28.4762 17.6027 L 28.4762 17.6027 L 28.4762 17.6027 L 28.4762 17.6027 L 28.4762 17.6027 L 28.4763 17.6027 L 28.4763 17.6027 L 28.4763 17.6027 L 28.4763 17.6027 L 28.4763 17.6027 L 28.4763 17.6027 L 28.4763 17.6027 L 28.4763 17.6027 L 28.4763 17.6027 L 28.4763 17.6027 L 28.4763 17.6027 L 28.4763 17.6027 L 28.4763 17.6027 L 28.4763 17.6027 L 28.4763 17.6027 L 28.4763 17.6027 L 28.4763 17.6027 L 28.4763 17.6027 L 28.4764 17.6027 L 28.4764 17.6027 L 28.4764 17.6027 L 28.4764 17.6027 L 28.4764 17.6027 L 28.4764 17.6027 L 28.4764 17.6027 L 28.4764 17.6027 L 28.4764 17.6027 L 28.4764 17.6027 L 28.4764 17.6027 L 28.4764 17.6027 L 28.4764 17.6027 L 28.4765 17.6027 L 28.4765 17.6027 L 28.4765 17.6027 L 28.4765 17.6027 L 28.4765 17.6027 L 28.4765 17.6027 L 28.4769 17.6026 L 28.4770 17.6026 L 28.4770 17.6026 L 28.4773 17.6025 L 28.4776 17.6025 L 28.4778 17.6024 L 28.4781 17.6024 L 28.4781 17.6024 L 28.4781 17.6024 L 28.4781 17.6023 L 28.4782 17.6023 L 28.4783 17.6023 L 28.4783 17.6023 L 28.4784 17.6023 L 28.4784 17.6023 L 28.4784 17.6023 L 28.4784 17.6023 L 28.4784 17.6023 L 28.4784 17.6023 L 28.4784 17.6023 L 28.4784 17.6023 L 28.4784 17.6023 L 28.4784 17.6023 L 28.4784 17.6023 L 28.4784 17.6023 L 28.4784 17.6023 L 28.4785 17.6023 L 28.4786 17.6023 L 28.4855 17.6008 L 28.4855 17.6008 L 28.4855 17.6008 L 28.4855 17.6008 L 28.4855 17.6008 L 28.4855 17.6008 L 28.4855 17.6008 L 28.4855 17.6008 L 28.4855 17.6008 L 28.4855 17.6008 L 28.4855 17.6008 L 28.4856 17.6008 L 28.4856 17.6008 L 28.4856 17.6008 L 28.4856 17.6008 L 28.4856 17.6008 L 28.4856 17.6008 L 28.4856 17.6008 L 28.4856 17.6008 L 28.4856 17.6008 L 28.4856 17.6008 L 28.4856 17.6008 L 28.4856 17.6008 L 28.4856 17.6008 L 28.4856 17.6008 L 28.4856 17.6008 L 28.4856 17.6008 L 28.4856 17.6008 L 28.4856 17.6008 L 28.4856 17.6008 L 28.4856 17.6008 L 28.4856 17.6008 L 28.4856 17.6008 L 28.4856 17.6008 L 28.4856 17.6008 L 28.4856 17.6008 L 28.4856 17.6008 L 28.4856 17.6008 L 28.4856 17.6008 L 28.4856 17.6008 L 28.4856 17.6008 L 28.4856 17.6008 L 28.4856 17.6008 L 28.4856 17.6008 L 28.4856 17.6008 L 28.4856 17.6008 L 28.4856 17.6008 L 28.4857 17.6008 L 28.4856 17.6008 L 28.4857 17.6008 L 28.4857 17.6008 L 28.4857 17.6008 L 28.4857 17.6008 L 28.4857 17.6008 L 28.4857 17.6008 L 28.4857 17.6008 L 28.4858 17.6008 L 28.4858 17.6008 L 28.4858 17.6008 L 28.4858 17.6008 L 28.4858 17.6008 L 28.4858 17.6008 L 28.4858 17.6008 L 28.4858 17.6008 L 28.4858 17.6008 L 28.4858 17.6008 L 28.4858 17.6008 L 28.4858 17.6008 L 28.4858 17.6008 L 28.4858 17.6008 L 28.4858 17.6008 L 28.4859 17.6008 L 28.4859 17.6008 L 28.4859 17.6008 L 28.4859 17.6008 L 28.4859 17.6008 L 28.4859 17.6008 L 28.4859 17.6008 L 28.4859 17.6008 L 28.4859 17.6008 L 28.4859 17.6008 L 28.4859 17.6008 L 28.4859 17.6008 L 28.4859 17.6007 L 28.4859 17.6008 L 28.4859 17.6007 L 28.4860 17.6007 L 28.4859 17.6007 L 28.4860 17.6007 L 28.4862 17.6007 L 28.4862 17.6007 L 28.4863 17.6007 L 28.4863 17.6007 L 28.4863 17.6007 L 28.4863 17.6007 L 28.4863 17.6007 L 28.4863 17.6007 L 28.4863 17.6007 L 28.4863 17.6007 L 28.4863 17.6007 L 28.4863 17.6007 L 28.4863 17.6007 L 28.4863 17.6007 L 28.4863 17.6007 L 28.4863 17.6007 L 28.4863 17.6007 L 28.4863 17.6007 L 28.4863 17.6007 L 28.4863 17.6007 L 28.4863 17.6007 L 28.4863 17.6007 L 28.4863 17.6007 L 28.4863 17.6007 L 28.4863 17.6007 L 28.4863 17.6007 L 28.4863 17.6007 L 28.4863 17.6007 L 28.4863 17.6007 L 28.4863 17.6007 L 28.4863 17.6007 L 28.4863 17.6007 L 28.4863 17.6007 L 28.4863 17.6007 L 28.4863 17.6007 L 28.4863 17.6007 L 28.4863 17.6007 L 28.4863 17.6007 L 28.4863 17.6007 L 28.4864 17.6007 L 28.4865 17.6006 L 28.4865 17.6006 L 28.4865 17.6006 L 28.4865 17.6006 L 28.4865 17.6006 L 28.4865 17.6006 L 28.4865 17.6006 L 28.4865 17.6006 L 28.4865 17.6006 L 28.4865 17.6006 L 28.4865 17.6006 L 28.4865 17.6006 L 28.4865 17.6006 L 28.4865 17.6006 L 28.4865 17.6006 L 28.4865 17.6006 L 28.4865 17.6006 L 28.4865 17.6006 L 28.4865 17.6006 L 28.4865 17.6006 L 28.4865 17.6006 L 28.4865 17.6006 L 28.4865 17.6006 L 28.4865 17.6006 L 28.4866 17.6006 L 28.4866 17.6006 L 28.4866 17.6006 L 28.4866 17.6006 L 28.4867 17.6006 L 28.4869 17.6005 L 28.4869 17.6005 L 28.4869 17.6005 L 28.4869 17.6005 L 28.4869 17.6005 L 28.4869 17.6005 L 28.4869 17.6005 L 28.4869 17.6005 L 28.4869 17.6005 L 28.4869 17.6005 L 28.4869 17.6005 L 28.4869 17.6005 L 28.4869 17.6005 L 28.4869 17.6005 L 28.4869 17.6005 L 28.4869 17.6005 L 28.4869 17.6005 L 28.4870 17.6005 L 28.4870 17.6005 L 28.4870 17.6005 L 28.4870 17.6005 L 28.4870 17.6005 L 28.4870 17.6005 L 28.4870 17.6005 L 28.4870 17.6005 L 28.4870 17.6005 L 28.4870 17.6005 L 28.4870 17.6005 L 28.4870 17.6005 L 28.4870 17.6005 L 28.4870 17.6005 L 28.4870 17.6005 L 28.4871 17.6005 L 28.4872 17.6005 L 28.4872 17.6005 L 28.4872 17.6005 L 28.4872 17.6005 L 28.4872 17.6005 L 28.4872 17.6005 L 28.4873 17.6005 L 28.4873 17.6005 L 28.4872 17.6005 L 28.4873 17.6005 L 28.4873 17.6005 L 28.4873 17.6005 L 28.4874 17.6005 L 28.4874 17.6004 L 28.4874 17.6004 L 28.4874 17.6004 L 28.4874 17.6004 L 28.4874 17.6004 L 28.4874 17.6004 L 28.4874 17.6004 L 28.4875 17.6004 L 28.4875 17.6004 L 28.4875 17.6004 L 28.4875 17.6004 L 28.4875 17.6004 L 28.4875 17.6004 L 28.4875 17.6004 L 28.4875 17.6004 L 28.4875 17.6004 L 28.4875 17.6004 L 28.4875 17.6004 L 28.4875 17.6004 L 28.4875 17.6004 L 28.4875 17.6004 L 28.4875 17.6004 L 28.4875 17.6004 L 28.4875 17.6004 L 28.4875 17.6004 L 28.4875 17.6004 L 28.4876 17.6004 L 28.4875 17.6004 L 28.4877 17.6004 L 28.4877 17.6004 L 28.4877 17.6004 L 28.4877 17.6004 L 28.4877 17.6004 L 28.4877 17.6004 L 28.4877 17.6004 L 28.4877 17.6004 L 28.4877 17.6004 L 28.4877 17.6004 L 28.4877 17.6004 L 28.4877 17.6004 L 28.4877 17.6004 L 28.4877 17.6004 L 28.4877 17.6004 L 28.4877 17.6004 L 28.4877 17.6004 L 28.4877 17.6004 L 28.4877 17.6004 L 28.4877 17.6004 L 28.4877 17.6004 L 28.4877 17.6004 L 28.4877 17.6004 L 28.4877 17.6004 L 28.4877 17.6004 L 28.4877 17.6004 L 28.4877 17.6004 L 28.4877 17.6004 L 28.4877 17.6004 L 28.4877 17.6004 L 28.4877 17.6004 L 28.4877 17.6004 L 28.4877 17.6004 L 28.4877 17.6004 L 28.4877 17.6004 L 28.4877 17.6004 L 28.4878 17.6004 L 28.4878 17.6004 L 28.4878 17.6004 L 28.4878 17.6004 L 28.4878 17.6004 L 28.4878 17.6004 L 28.4878 17.6004 L 28.4878 17.6004 L 28.4878 17.6004 L 28.4878 17.6004 L 28.4878 17.6004 L 28.4878 17.6004 L 28.4878 17.6004 L 28.4878 17.6004 L 28.4878 17.6004 L 28.4878 17.6004 L 28.4878 17.6004 L 28.4878 17.6004 L 28.4878 17.6004 L 28.4878 17.6004 L 28.4878 17.6004 L 28.4878 17.6004 L 28.4878 17.6004 L 28.4878 17.6004 L 28.4878 17.6004 L 28.4878 17.6004 L 28.4878 17.6004 L 28.4878 17.6004 L 28.4878 17.6004 L 28.4878 17.6004 L 28.4878 17.6004 L 28.4878 17.6004 L 28.4878 17.6004 L 28.4878 17.6004 L 28.4878 17.6004 L 28.4878 17.6004 L 28.4878 17.6004 L 28.4878 17.6004 L 28.4878 17.6004 L 28.4878 17.6004 L 28.4879 17.6004 L 28.4879 17.6004 L 28.4879 17.6004 L 28.4879 17.6004 L 28.4879 17.6004 L 28.4879 17.6004 L 28.4879 17.6004 L 28.4879 17.6004 L 28.4879 17.6004 L 28.4879 17.6004 L 28.4879 17.6004 L 28.4879 17.6004 L 28.4879 17.6004 L 28.4879 17.6004 L 28.4879 17.6004 L 28.4879 17.6004 L 28.4879 17.6003 L 28.4879 17.6004 L 28.4879 17.6003 L 28.4882 17.6003 L 28.4906 17.5998 L 28.4899 17.5999 L 28.4922 17.5995 L 28.4906 17.5998 L 29.7734 17.3370 L 30.5194 17.1843 L 30.0467 17.2811 L 32.4152 16.7960 L 32.4152 16.7960 L 32.4152 16.7960 L 32.4152 16.7960 L 32.4152 16.7960 L 32.4152 16.7960 L 32.4152 16.7960 L 32.4152 16.7960 L 32.4152 16.7960 L 32.4152 16.7960 L 33.5930 16.5547 L 41.2322 14.9901 L 41.0871 14.2818 L 46.8206 12.5549 L 59.5688 14.0449 L 63.7004 14.5278 L 66.9510 -13.2828 L 62.8194 -13.7658 L 50.8124 -15.1692 L 50.0610 -17.6638 L 49.1277 -17.3826 L 44.3044 -15.9299 L 41.0686 -16.3081 L 39.1324 -16.5344 L 38.8704 -14.2931 L 32.8259 -12.4724 L 31.8926 -12.1913 L 32.0381 -11.7081 L 32.9969 -11.9045 L 32.9969 -11.9045 L 32.0381 -11.7081 L 32.0381 -11.7081 L 27.9747 -10.8758 L 26.7969 -10.6346 L 26.7969 -10.6346 L 26.7969 -10.6346 L 26.7969 -10.6346 L 26.7969 -10.6346 L 26.7969 -10.6346 L 26.7969 -10.6346 L 26.7969 -10.6346 L 26.7969 -10.6346 L 26.7969 -10.6346 L 26.7969 -10.6346 L 26.7969 -10.6346 L 26.7969 -10.6346 L 26.7969 -10.6346 L 26.7969 -10.6346 L 26.7969 -10.6346 L 26.7969 -10.6346 L 25.2467 -10.3171 L 24.3851 -10.1406 L 24.5888 -10.1823 L 24.2539 -10.1137 L 24.3851 -10.1406 L 24.2469 -10.1123 L 23.6440 -9.9888 L 23.6207 -9.9840 L 23.6197 -9.9838 L 23.6198 -9.9839 L 23.6194 -9.9838 L 23.6193 -9.9837 L 23.6191 -9.9837 L 23.6176 -9.9834 L 23.6170 -9.9833 L 23.6169 -9.9833 L 23.6158 -9.9830 L 23.6144 -9.9827 L 23.6143 -9.9827 L 23.6142 -9.9827 L 23.6143 -9.9827 L 23.6141 -9.9827 L 23.6140 -9.9827 L 23.6140 -9.9827 L 23.6140 -9.9827 L 23.6140 -9.9827 L 23.6140 -9.9827 L 23.6140 -9.9827 L 23.6140 -9.9827 L 23.6140 -9.9827 L 23.6140 -9.9827 L 23.6140 -9.9827 L 23.6140 -9.9827 L 23.6140 -9.9827 L 23.6140 -9.9827 L 23.6140 -9.9827 L 23.6140 -9.9827 L 23.6140 -9.9827 L 23.6140 -9.9827 L 23.6140 -9.9827 L 23.6140 -9.9827 L 23.6140 -9.9827 L 23.6140 -9.9827 L 23.6140 -9.9827 L 23.6140 -9.9827 L 23.6140 -9.9827 L 23.6139 -9.9827 L 23.6140 -9.9827 L 23.6139 -9.9827 L 23.6138 -9.9826 L 23.6138 -9.9826 L 23.6138 -9.9826 L 23.6138 -9.9826 L 23.6138 -9.9826 L 23.6138 -9.9826 L 23.6138 -9.9826 L 23.6138 -9.9826 L 23.6137 -9.9826 L 23.6137 -9.9826 L 23.6137 -9.9826 L 23.6137 -9.9826 L 23.6134 -9.9825 L 23.6130 -9.9825 L 23.6121 -9.9823 L 23.6123 -9.9823 L 23.6119 -9.9822 L 23.6121 -9.9823 L 23.6112 -9.9821 L 23.6103 -9.9819 L 23.6100 -9.9818 L 23.6098 -9.9818 L 23.6097 -9.9818 L 23.6097 -9.9818 L 23.6097 -9.9818 L 23.6096 -9.9818 L 23.6095 -9.9817 L 23.6092 -9.9817 L 23.6056 -9.9809 L 23.6043 -9.9807 L 23.6035 -9.9805 L 23.6033 -9.9805 L 23.6032 -9.9804 L 23.6029 -9.9804 L 23.6029 -9.9804 L 23.6028 -9.9804 L 23.6027 -9.9804 L 23.6027 -9.9803 L 23.6024 -9.9803 L 23.6024 -9.9803 L 23.6019 -9.9802 L 23.6024 -9.9803 L 23.6024 -9.9803 L 23.5999 -9.9798 L 23.5996 -9.9797 L 23.5997 -9.9797 L 23.5994 -9.9797 L 23.5993 -9.9797 L 23.5993 -9.9797 L 23.5993 -9.9797 L 23.5993 -9.9797 L 23.5993 -9.9797 L 23.5993 -9.9797 L 23.5993 -9.9797 L 23.5993 -9.9797 L 23.5993 -9.9797 L 23.5993 -9.9797 L 23.5993 -9.9797 L 23.5993 -9.9797 L 23.5993 -9.9797 L 23.5993 -9.9797 L 23.5993 -9.9797 L 23.5993 -9.9797 L 23.5993 -9.9797 L 23.5993 -9.9797 L 23.5991 -9.9796 L 23.5991 -9.9796 L 23.5992 -9.9796 L 23.5992 -9.9796 L 23.5991 -9.9796 L 23.5991 -9.9796 L 23.5990 -9.9796 L 23.5989 -9.9796 L 23.5989 -9.9796 L 23.5989 -9.9796 L 23.5988 -9.9796 L 23.5988 -9.9795 L 23.5988 -9.9796 L 23.5988 -9.9795 L 23.5988 -9.9795 L 23.5987 -9.9795 L 23.5979 -9.9794 L 23.5976 -9.9793 L 23.5746 -9.9746 L 23.5628 -9.9722 L 23.5086 -9.9611 L 23.3267 -9.9238 L 23.2332 -9.9047 L 23.2647 -9.9111 L 22.8073 -9.8174 L 22.5405 -9.7628 L 23.2332 -9.9047 L 22.2454 -9.7023 L 21.2905 -9.5068 L 17.6681 -8.7648 L 15.9230 -8.4074 L 13.7872 -9.3228 L -2.7574 -16.4133 L -4.0819 -13.3229 L -5.1995 -12.9987 L -7.6355 -11.7345 L -9.7781 -10.0195 L -11.5449 -7.9193 L -12.8680 -5.5149 L -13.6967 -2.8985 L -13.9990 -0.1707 Z M 9.8426 19.4498 L 8.8197 19.0114 L 8.8197 19.0114 L 9.8426 19.4498 Z M 23.5971 -9.9792 L 23.5964 -9.9791 L 23.5972 -9.9792 L 23.5971 -9.9792 Z M 23.5992 -9.9796 L 23.5992 -9.9796 L 23.5992 -9.9796 L 23.5992 -9.9796 L 23.5993 -9.9796 L 23.5993 -9.9797 L 23.5993 -9.9796 L 23.5993 -9.9796 L 23.5993 -9.9796 L 23.5992 -9.9796 L 23.5992 -9.9796 L 23.5992 -9.9796 L 23.5992 -9.9796 Z M 23.5996 -9.9797 L 23.5995 -9.9797 L 23.5996 -9.9797 L 23.5996 -9.9797 L 23.5996 -9.9797 L 23.5996 -9.9797 L 23.5996 -9.9797 L 23.5996 -9.9797 L 23.5996 -9.9797 L 23.5996 -9.9797 Z M 23.5996 -9.9797 L 23.5996 -9.9797 L 23.5996 -9.9797 L 23.5996 -9.9797 L 23.5996 -9.9797 L 23.5996 -9.9797 Z M 23.6025 -9.9803 L 23.6024 -9.9803 L 23.6026 -9.9803 L 23.6025 -9.9803 Z M 23.6027 -9.9803 L 23.6027 -9.9803 L 23.6027 -9.9803 L 23.6027 -9.9803 Z M 23.6040 -9.9806 L 23.6040 -9.9806 L 23.6040 -9.9806 L 23.6040 -9.9806 Z M 23.6052 -9.9809 L 23.6052 -9.9809 L 23.6052 -9.9809 L 23.6052 -9.9809 Z M 23.6062 -9.9811 L 23.6059 -9.9810 L 23.6085 -9.9815 L 23.6062 -9.9811 Z M 23.6223 -9.9844 L 23.6208 -9.9841 L 23.6243 -9.9848 L 23.6223 -9.9844 Z M 26.7969 -10.6346 L 25.9408 -10.4592 L 26.7969 -10.6346 L 26.7969 -10.6346 Z M 27.8296 17.7352 L 27.8296 17.7352 L 27.8296 17.7352 L 27.8296 17.7352 Z M 27.8297 17.7352 L 27.8297 17.7352 L 27.8297 17.7352 L 27.8297 17.7352 Z M 27.8297 17.7352 L 27.8297 17.7352 L 27.8297 17.7352 L 27.8297 17.7352 Z M 27.8299 17.7351 L 27.8299 17.7351 L 27.8299 17.7351 L 27.8299 17.7351 Z M 27.8299 17.7351 L 27.8299 17.7351 L 27.8299 17.7351 L 27.8299 17.7351 Z M 27.8303 17.7350 L 27.8303 17.7350 L 27.8303 17.7350 L 27.8303 17.7350 Z M 27.8329 17.7345 L 27.8329 17.7345 L 27.8329 17.7345 L 27.8329 17.7345 Z M 27.8329 17.7345 L 27.8329 17.7345 L 27.8329 17.7345 L 27.8329 17.7345 Z M 27.8329 17.7345 L 27.8329 17.7345 L 27.8329 17.7345 L 27.8329 17.7345 Z M 27.8331 17.7345 L 27.8330 17.7345 L 27.8331 17.7345 L 27.8331 17.7345 Z M 27.8331 17.7345 L 27.8331 17.7345 L 27.8331 17.7345 L 27.8331 17.7345 Z M 27.8331 17.7345 L 27.8331 17.7345 L 27.8331 17.7345 L 27.8331 17.7345 Z M 27.8333 17.7344 L 27.8333 17.7344 L 27.8333 17.7344 L 27.8333 17.7344 Z M 27.8338 17.7343 L 27.8338 17.7343 L 27.8338 17.7343 L 27.8338 17.7343 Z M 27.8338 17.7343 L 27.8338 17.7343 L 27.8338 17.7343 L 27.8338 17.7343 Z M 27.8338 17.7343 L 27.8338 17.7343 L 27.8338 17.7343 L 27.8338 17.7343 Z M 27.8338 17.7343 L 27.8338 17.7343 L 27.8338 17.7343 L 27.8338 17.7343 Z M 27.8342 17.7342 L 27.8342 17.7342 L 27.8342 17.7342 L 27.8342 17.7342 Z M 27.8343 17.7342 L 27.8343 17.7342 L 27.8343 17.7342 L 27.8343 17.7342 Z M 27.8343 17.7342 L 27.8343 17.7342 L 27.8343 17.7342 L 27.8343 17.7342 Z M 27.8348 17.7341 L 27.8348 17.7341 L 27.8348 17.7341 L 27.8348 17.7341 Z M 27.8348 17.7341 L 27.8348 17.7341 L 27.8348 17.7341 L 27.8348 17.7341 L 27.8348 17.7341 Z M 27.8348 17.7341 L 27.8348 17.7341 L 27.8348 17.7341 L 27.8348 17.7341 Z M 27.8348 17.7341 L 27.8348 17.7341 L 27.8348 17.7341 L 27.8348 17.7341 Z M 27.8348 17.7341 L 27.8348 17.7341 L 27.8348 17.7341 L 27.8348 17.7341 L 27.8348 17.7341 L 27.8348 17.7341 Z M 27.8348 17.7341 L 27.8348 17.7341 L 27.8348 17.7341 L 27.8348 17.7341 L 27.8348 17.7341 L 27.8348 17.7341 L 27.8348 17.7341 Z M 27.8348 17.7341 L 27.8348 17.7341 L 27.8348 17.7341 L 27.8348 17.7341 Z M 27.8349 17.7341 L 27.8348 17.7341 L 27.8348 17.7341 L 27.8349 17.7341 L 27.8349 17.7341 Z M 27.8349 17.7341 L 27.8349 17.7341 L 27.8349 17.7341 L 27.8349 17.7341 Z M 27.8349 17.7341 L 27.8349 17.7341 L 27.8349 17.7341 L 27.8349 17.7341 Z M 27.8355 17.7340 L 27.8355 17.7340 L 27.8355 17.7340 L 27.8355 17.7340 Z M 27.8383 17.7334 L 27.8383 17.7334 L 27.8383 17.7334 L 27.8383 17.7334 L 27.8383 17.7334 Z M 27.8384 17.7334 L 27.8384 17.7334 L 27.8384 17.7334 L 27.8384 17.7334 Z M 27.8384 17.7334 L 27.8384 17.7334 L 27.8384 17.7334 L 27.8384 17.7334 Z M 27.8384 17.7334 L 27.8384 17.7334 L 27.8384 17.7334 L 27.8384 17.7334 Z M 27.8385 17.7334 L 27.8385 17.7334 L 27.8385 17.7334 L 27.8385 17.7334 Z M 27.8385 17.7334 L 27.8385 17.7334 L 27.8385 17.7334 L 27.8385 17.7334 L 27.8385 17.7334 Z M 27.8386 17.7333 L 27.8386 17.7333 L 27.8386 17.7333 L 27.8386 17.7333 Z M 27.8386 17.7333 L 27.8386 17.7333 L 27.8386 17.7333 L 27.8386 17.7333 L 27.8386 17.7333 Z M 27.8386 17.7333 L 27.8386 17.7333 L 27.8386 17.7333 L 27.8386 17.7333 Z M 27.8387 17.7333 L 27.8387 17.7333 L 27.8387 17.7333 L 27.8387 17.7333 Z M 27.8387 17.7333 L 27.8387 17.7333 L 27.8387 17.7333 L 27.8387 17.7333 Z M 27.8388 17.7333 L 27.8388 17.7333 L 27.8388 17.7333 L 27.8388 17.7333 Z M 27.8388 17.7333 L 27.8388 17.7333 L 27.8388 17.7333 L 27.8388 17.7333 Z M 27.8388 17.7333 L 27.8388 17.7333 L 27.8388 17.7333 L 27.8388 17.7333 L 27.8388 17.7333 Z M 27.8388 17.7333 L 27.8388 17.7333 L 27.8388 17.7333 L 27.8388 17.7333 Z M 27.8388 17.7333 L 27.8388 17.7333 L 27.8388 17.7333 L 27.8388 17.7333 Z M 27.8388 17.7333 L 27.8388 17.7333 L 27.8388 17.7333 L 27.8388 17.7333 L 27.8388 17.7333 L 27.8388 17.7333 Z M 27.8396 17.7331 L 27.8396 17.7331 L 27.8396 17.7331 L 27.8396 17.7331 Z M 27.8396 17.7331 L 27.8396 17.7331 L 27.8396 17.7331 L 27.8396 17.7331 Z M 27.8396 17.7331 L 27.8396 17.7331 L 27.8396 17.7331 L 27.8396 17.7331 Z M 27.8396 17.7331 L 27.8396 17.7331 L 27.8396 17.7331 L 27.8396 17.7331 Z M 27.8397 17.7331 L 27.8397 17.7331 L 27.8397 17.7331 L 27.8397 17.7331 Z M 27.8404 17.7330 L 27.8403 17.7330 L 27.8403 17.7330 L 27.8404 17.7330 Z M 27.8440 17.7322 L 27.8440 17.7322 L 27.8440 17.7322 L 27.8440 17.7322 Z M 27.8441 17.7322 L 27.8440 17.7322 L 27.8441 17.7322 L 27.8441 17.7322 Z M 27.8441 17.7322 L 27.8441 17.7322 L 27.8441 17.7322 L 27.8441 17.7322 Z M 27.8441 17.7322 L 27.8441 17.7322 L 27.8441 17.7322 L 27.8441 17.7322 L 27.8441 17.7322 Z M 27.8441 17.7322 L 27.8441 17.7322 L 27.8441 17.7322 L 27.8441 17.7322 Z M 27.8441 17.7322 L 27.8441 17.7322 L 27.8441 17.7322 L 27.8441 17.7322 Z M 27.8441 17.7322 L 27.8441 17.7322 L 27.8441 17.7322 L 27.8441 17.7322 Z M 27.8441 17.7322 L 27.8441 17.7322 L 27.8441 17.7322 L 27.8441 17.7322 Z M 27.8444 17.7321 L 27.8442 17.7322 L 27.8442 17.7322 L 27.8443 17.7322 L 27.8444 17.7321 Z M 27.8445 17.7321 L 27.8445 17.7321 L 27.8445 17.7321 L 27.8445 17.7321 Z M 27.8446 17.7321 L 27.8445 17.7321 L 27.8445 17.7321 L 27.8446 17.7321 Z M 27.8446 17.7321 L 27.8446 17.7321 L 27.8446 17.7321 L 27.8446 17.7321 Z M 27.8447 17.7321 L 27.8446 17.7321 L 27.8446 17.7321 L 27.8447 17.7321 L 27.8447 17.7321 Z M 27.8447 17.7321 L 27.8447 17.7321 L 27.8447 17.7321 L 27.8447 17.7321 Z M 27.8447 17.7321 L 27.8447 17.7321 L 27.8447 17.7321 L 27.8447 17.7321 Z M 27.8447 17.7321 L 27.8447 17.7321 L 27.8447 17.7321 L 27.8447 17.7321 L 27.8447 17.7321 Z M 27.8447 17.7321 L 27.8447 17.7321 L 27.8447 17.7321 L 27.8447 17.7321 Z M 27.8447 17.7321 L 27.8447 17.7321 L 27.8447 17.7321 L 27.8447 17.7321 L 27.8447 17.7321 L 27.8447 17.7321 L 27.8447 17.7321 L 27.8447 17.7321 L 27.8447 17.7321 Z M 27.8448 17.7321 L 27.8447 17.7321 L 27.8448 17.7321 L 27.8448 17.7321 L 27.8448 17.7321 L 27.8448 17.7321 L 27.8448 17.7321 L 27.8448 17.7321 L 27.8448 17.7321 Z M 27.8448 17.7321 L 27.8448 17.7321 L 27.8448 17.7321 L 27.8448 17.7321 Z M 27.8448 17.7321 L 27.8448 17.7321 L 27.8448 17.7321 L 27.8448 17.7321 Z M 27.8448 17.7321 L 27.8448 17.7321 L 27.8448 17.7321 L 27.8448 17.7321 Z M 27.8448 17.7321 L 27.8448 17.7321 L 27.8448 17.7321 L 27.8448 17.7321 L 27.8448 17.7321 Z M 27.8448 17.7321 L 27.8448 17.7321 L 27.8448 17.7321 L 27.8448 17.7321 Z M 27.8448 17.7321 L 27.8448 17.7321 L 27.8448 17.7321 L 27.8448 17.7321 Z M 27.8448 17.7321 L 27.8448 17.7321 L 27.8448 17.7321 L 27.8448 17.7321 Z M 27.8448 17.7321 L 27.8448 17.7321 L 27.8448 17.7321 L 27.8448 17.7321 Z M 27.8448 17.7321 L 27.8448 17.7321 L 27.8448 17.7321 L 27.8448 17.7321 Z M 27.8448 17.7321 L 27.8448 17.7321 L 27.8448 17.7321 L 27.8448 17.7321 Z M 27.8448 17.7321 L 27.8448 17.7321 L 27.8448 17.7321 L 27.8448 17.7321 Z M 27.8449 17.7321 L 27.8449 17.7321 L 27.8449 17.7321 L 27.8449 17.7321 Z M 27.8449 17.7321 L 27.8449 17.7321 L 27.8449 17.7321 L 27.8449 17.7321 Z M 27.8449 17.7321 L 27.8449 17.7321 L 27.8449 17.7321 L 27.8449 17.7321 Z M 27.8449 17.7321 L 27.8449 17.7321 L 27.8449 17.7321 L 27.8449 17.7321 L 27.8449 17.7321 L 27.8449 17.7321 Z M 27.8449 17.7321 L 27.8449 17.7321 L 27.8449 17.7321 L 27.8449 17.7321 Z M 27.8449 17.7321 L 27.8449 17.7321 L 27.8449 17.7321 L 27.8449 17.7321 Z M 27.8449 17.7321 L 27.8449 17.7321 L 27.8449 17.7321 L 27.8449 17.7321 Z M 27.8449 17.7321 L 27.8449 17.7321 L 27.8449 17.7321 L 27.8449 17.7321 Z M 27.8449 17.7320 L 27.8449 17.7320 L 27.8449 17.7320 L 27.8449 17.7320 L 27.8449 17.7320 L 27.8449 17.7320 L 27.8449 17.7320 L 27.8449 17.7320 L 27.8449 17.7320 L 27.8449 17.7320 L 27.8449 17.7320 L 27.8449 17.7320 L 27.8449 17.7320 L 27.8449 17.7320 Z M 27.8449 17.7320 L 27.8449 17.7320 L 27.8449 17.7320 L 27.8449 17.7320 Z M 27.8450 17.7320 L 27.8450 17.7320 L 27.8450 17.7320 L 27.8450 17.7320 Z M 27.8450 17.7320 L 27.8450 17.7320 L 27.8450 17.7320 L 27.8450 17.7320 Z M 27.8451 17.7320 L 27.8450 17.7320 L 27.8450 17.7320 L 27.8451 17.7320 Z M 27.8451 17.7320 L 27.8451 17.7320 L 27.8451 17.7320 L 27.8451 17.7320 L 27.8451 17.7320 Z M 27.8451 17.7320 L 27.8451 17.7320 L 27.8451 17.7320 L 27.8451 17.7320 Z M 27.8451 17.7320 L 27.8451 17.7320 L 27.8451 17.7320 L 27.8451 17.7320 Z M 27.8451 17.7320 L 27.8451 17.7320 L 27.8451 17.7320 L 27.8451 17.7320 L 27.8451 17.7320 Z M 27.8451 17.7320 L 27.8451 17.7320 L 27.8451 17.7320 L 27.8451 17.7320 Z M 27.8451 17.7320 L 27.8451 17.7320 L 27.8451 17.7320 L 27.8451 17.7320 Z M 27.8451 17.7320 L 27.8451 17.7320 L 27.8451 17.7320 L 27.8451 17.7320 L 27.8451 17.7320 L 27.8451 17.7320 L 27.8451 17.7320 L 27.8451 17.7320 Z M 27.8451 17.7320 L 27.8451 17.7320 L 27.8451 17.7320 L 27.8451 17.7320 Z M 27.8451 17.7320 L 27.8451 17.7320 L 27.8451 17.7320 L 27.8451 17.7320 Z M 27.8451 17.7320 L 27.8451 17.7320 L 27.8451 17.7320 L 27.8451 17.7320 Z M 27.8451 17.7320 L 27.8451 17.7320 L 27.8451 17.7320 L 27.8451 17.7320 Z M 27.8451 17.7320 L 27.8451 17.7320 L 27.8451 17.7320 L 27.8451 17.7320 Z M 27.8452 17.7320 L 27.8452 17.7320 L 27.8452 17.7320 L 27.8452 17.7320 Z M 27.8452 17.7320 L 27.8452 17.7320 L 27.8452 17.7320 L 27.8452 17.7320 Z M 27.8452 17.7320 L 27.8452 17.7320 L 27.8452 17.7320 L 27.8452 17.7320 Z M 27.8452 17.7320 L 27.8452 17.7320 L 27.8452 17.7320 L 27.8452 17.7320 Z M 27.8452 17.7320 L 27.8452 17.7320 L 27.8452 17.7320 L 27.8452 17.7320 Z M 27.8452 17.7320 L 27.8452 17.7320 L 27.8452 17.7320 L 27.8452 17.7320 Z M 27.8452 17.7320 L 27.8452 17.7320 L 27.8452 17.7320 L 27.8452 17.7320 Z M 27.8452 17.7320 L 27.8452 17.7320 L 27.8452 17.7320 L 27.8452 17.7320 Z M 27.8452 17.7320 L 27.8452 17.7320 L 27.8452 17.7320 L 27.8452 17.7320 Z M 27.8452 17.7320 L 27.8452 17.7320 L 27.8452 17.7320 L 27.8452 17.7320 Z M 27.8452 17.7320 L 27.8452 17.7320 L 27.8452 17.7320 L 27.8452 17.7320 Z M 27.8452 17.7320 L 27.8452 17.7320 L 27.8452 17.7320 L 27.8452 17.7320 Z M 27.8453 17.7320 L 27.8453 17.7320 L 27.8453 17.7320 L 27.8453 17.7320 L 27.8453 17.7320 L 27.8453 17.7320 Z M 27.8454 17.7320 L 27.8453 17.7320 L 27.8454 17.7320 L 27.8454 17.7320 Z M 27.8798 17.7249 L 27.8751 17.7259 L 27.8753 17.7258 L 27.8798 17.7249 Z M 28.4004 17.6183 L 28.4004 17.6183 L 28.4004 17.6183 L 28.4004 17.6183 Z M 28.4012 17.6181 L 28.4012 17.6181 L 28.4012 17.6181 L 28.4012 17.6181 Z M 28.4012 17.6181 L 28.4012 17.6181 L 28.4012 17.6181 L 28.4012 17.6181 Z M 28.4019 17.6180 L 28.4018 17.6180 L 28.4018 17.6180 L 28.4019 17.6180 Z M 28.4022 17.6179 L 28.4022 17.6179 L 28.4022 17.6179 L 28.4022 17.6179 Z M 28.4026 17.6178 L 28.4026 17.6178 L 28.4026 17.6178 L 28.4026 17.6178 Z M 28.4026 17.6178 L 28.4026 17.6178 L 28.4026 17.6178 L 28.4026 17.6178 Z M 28.4027 17.6178 L 28.4027 17.6178 L 28.4027 17.6178 L 28.4027 17.6178 Z M 28.4027 17.6178 L 28.4027 17.6178 L 28.4027 17.6178 L 28.4027 17.6178 Z M 28.4027 17.6178 L 28.4027 17.6178 L 28.4027 17.6178 L 28.4027 17.6178 Z M 28.4027 17.6178 L 28.4027 17.6178 L 28.4027 17.6178 L 28.4027 17.6178 Z M 28.4033 17.6177 L 28.4033 17.6177 L 28.4033 17.6177 L 28.4033 17.6177 Z M 28.4034 17.6177 L 28.4034 17.6177 L 28.4034 17.6177 L 28.4034 17.6177 Z M 28.4034 17.6177 L 28.4034 17.6177 L 28.4034 17.6177 L 28.4034 17.6177 Z M 28.4034 17.6177 L 28.4034 17.6177 L 28.4034 17.6177 L 28.4034 17.6177 Z M 28.4035 17.6176 L 28.4035 17.6176 L 28.4035 17.6176 L 28.4035 17.6176 Z M 28.4076 17.6168 L 28.4076 17.6168 L 28.4076 17.6168 L 28.4076 17.6168 Z M 28.4076 17.6168 L 28.4076 17.6168 L 28.4076 17.6168 L 28.4076 17.6168 Z M 28.4077 17.6168 L 28.4076 17.6168 L 28.4076 17.6168 L 28.4077 17.6168 Z M 28.4077 17.6168 L 28.4077 17.6168 L 28.4077 17.6168 L 28.4077 17.6168 Z M 28.4079 17.6167 L 28.4079 17.6167 L 28.4079 17.6167 L 28.4079 17.6167 Z M 28.4082 17.6167 L 28.4082 17.6167 L 28.4082 17.6167 L 28.4082 17.6167 Z M 28.4082 17.6167 L 28.4082 17.6167 L 28.4082 17.6167 L 28.4082 17.6167 Z M 28.4127 17.6157 L 28.4124 17.6158 L 28.4124 17.6158 L 28.4127 17.6157 Z M 28.4128 17.6157 L 28.4127 17.6157 L 28.4128 17.6157 L 28.4128 17.6157 Z M 28.4217 17.6139 L 28.4197 17.6143 L 28.4214 17.6140 L 28.4217 17.6139 Z M 28.4326 17.6117 L 28.4321 17.6118 L 28.4321 17.6118 L 28.4326 17.6117 Z M 28.4334 17.6115 L 28.4334 17.6115 L 28.4334 17.6115 L 28.4334 17.6115 Z M 28.4386 17.6105 L 28.4385 17.6105 L 28.4385 17.6105 L 28.4386 17.6105 Z M 28.4454 17.6090 L 28.4454 17.6091 L 28.4454 17.6091 L 28.4454 17.6090 Z M 28.4765 17.6027 L 28.4765 17.6027 L 28.4765 17.6027 L 28.4765 17.6027 Z M 28.4784 17.6023 L 28.4784 17.6023 L 28.4784 17.6023 L 28.4784 17.6023 Z M 28.4857 17.6008 L 28.4857 17.6008 L 28.4857 17.6008 L 28.4857 17.6008 Z M 28.4859 17.6008 L 28.4859 17.6008 L 28.4859 17.6008 L 28.4859 17.6008 Z M 28.4861 17.6007 L 28.4861 17.6007 L 28.4861 17.6007 L 28.4861 17.6007 Z M 28.4862 17.6007 L 28.4861 17.6007 L 28.4861 17.6007 L 28.4862 17.6007 Z M 28.4862 17.6007 L 28.4862 17.6007 L 28.4862 17.6007 L 28.4862 17.6007 Z M 28.4863 17.6007 L 28.4863 17.6007 L 28.4863 17.6007 L 28.4863 17.6007 Z M 28.4865 17.6006 L 28.4865 17.6006 L 28.4865 17.6006 L 28.4865 17.6006 Z M 28.4865 17.6006 L 28.4865 17.6006 L 28.4865 17.6006 L 28.4865 17.6006 Z M 28.4869 17.6005 L 28.4869 17.6005 L 28.4869 17.6005 L 28.4869 17.6005 Z M 28.4871 17.6005 L 28.4871 17.6005 L 28.4871 17.6005 L 28.4871 17.6005 Z M 28.4871 17.6005 L 28.4871 17.6005 L 28.4871 17.6005 L 28.4871 17.6005 Z M 28.4871 17.6005 L 28.4871 17.6005 L 28.4871 17.6005 L 28.4871 17.6005 Z M 28.4874 17.6004 L 28.4874 17.6005 L 28.4874 17.6004 L 28.4874 17.6004 Z M 28.4874 17.6004 L 28.4874 17.6004 L 28.4874 17.6004 L 28.4874 17.6004 Z M 28.4874 17.6004 L 28.4874 17.6004 L 28.4874 17.6004 L 28.4874 17.6004 Z M 28.4877 17.6004 L 28.4877 17.6004 L 28.4877 17.6004 L 28.4877 17.6004 Z M 33.5826 16.5040 L 33.5117 16.1577 L 33.6125 16.4952 L 33.5826 16.5040 Z"/>
<path fill="black" stroke="none" fill-rule="evenodd" d="M 23.5989 -9.9796 L 23.5990 -9.9796 L 23.5991 -9.9796 L 23.5989 -9.9796 Z"/>
<path fill="black" stroke="none" fill-rule="evenodd" d="M 23.5997 -9.9797 L 23.5999 -9.9798 L 23.6019 -9.9802 L 23.5997 -9.9797 Z"/>
<path fill="black" stroke="none" fill-rule="evenodd" d="M 23.6140 -9.9827 L 23.6140 -9.9827 L 23.6140 -9.9827 L 23.6140 -9.9827 Z"/>
<path fill="black" stroke="none" fill-rule="evenodd" d="M 23.6143 -9.9827 L 23.6144 -9.9827 L 23.6169 -9.9833 L 23.6176 -9.9834 L 23.6188 -9.9837 L 23.6143 -9.9827 Z"/>
<path fill="black" stroke="none" fill-rule="evenodd" d="M 23.6188 -9.9837 L 23.6193 -9.9837 L 23.6193 -9.9838 L 23.6188 -9.9837 Z"/>
<path fill="black" stroke="none" fill-rule="evenodd" d="M 23.6193 -9.9838 L 23.6194 -9.9838 L 23.6197 -9.9838 L 23.6193 -9.9838 Z"/>
<path fill="black" stroke="none" fill-rule="evenodd" d="M 27.7084 17.7600 L 27.7429 17.7529 L 27.7274 17.7561 L 27.7084 17.7600 Z"/>
<path fill="black" stroke="none" fill-rule="evenodd" d="M 27.7429 17.7529 L 27.7599 17.7495 L 27.7480 17.7519 L 27.7429 17.7529 Z"/>
<path fill="black" stroke="none" fill-rule="evenodd" d="M 27.7599 17.7495 L 27.7644 17.7485 L 27.7607 17.7493 L 27.7599 17.7495 Z"/>
<path fill="black" stroke="none" fill-rule="evenodd" d="M 27.7644 17.7485 L 27.7756 17.7462 L 27.7689 17.7476 L 27.7660 17.7482 L 27.7644 17.7485 Z"/>
<path fill="black" stroke="none" fill-rule="evenodd" d="M 27.8288 17.7353 L 27.8290 17.7353 L 27.8288 17.7353 L 27.8288 17.7353 Z"/>
<path fill="black" stroke="none" fill-rule="evenodd" d="M 27.8294 17.7352 L 27.8294 17.7352 L 27.8294 17.7352 L 27.8294 17.7352 Z"/>
<path fill="black" stroke="none" fill-rule="evenodd" d="M 27.8294 17.7352 L 27.8294 17.7352 L 27.8294 17.7352 L 27.8294 17.7352 Z"/>
<path fill="black" stroke="none" fill-rule="evenodd" d="M 27.8295 17.7352 L 27.8295 17.7352 L 27.8295 17.7352 L 27.8295 17.7352 Z"/>
<path fill="black" stroke="none" fill-rule="evenodd" d="M 27.8295 17.7352 L 27.8296 17.7352 L 27.8295 17.7352 L 27.8295 17.7352 Z"/>
<path fill="black" stroke="none" fill-rule="evenodd" d="M 27.8296 17.7352 L 27.8296 17.7352 L 27.8296 17.7352 L 27.8296 17.7352 Z"/>
<path fill="black" stroke="none" fill-rule="evenodd" d="M 27.8299 17.7351 L 27.8299 17.7351 L 27.8299 17.7351 L 27.8299 17.7351 Z"/>
<path fill="black" stroke="none" fill-rule="evenodd" d="M 27.8304 17.7350 L 27.8322 17.7346 L 27.8305 17.7350 L 27.8304 17.7350 Z"/>
<path fill="black" stroke="none" fill-rule="evenodd" d="M 27.8322 17.7346 L 27.8328 17.7345 L 27.8328 17.7345 L 27.8322 17.7346 Z"/>
<path fill="black" stroke="none" fill-rule="evenodd" d="M 27.8330 17.7345 L 27.8330 17.7345 L 27.8330 17.7345 L 27.8330 17.7345 Z"/>
<path fill="black" stroke="none" fill-rule="evenodd" d="M 27.8330 17.7345 L 27.8330 17.7345 L 27.8330 17.7345 L 27.8330 17.7345 Z"/>
<path fill="black" stroke="none" fill-rule="evenodd" d="M 27.8331 17.7345 L 27.8331 17.7345 L 27.8331 17.7345 L 27.8331 17.7345 Z"/>
<path fill="black" stroke="none" fill-rule="evenodd" d="M 27.8331 17.7345 L 27.8331 17.7345 L 27.8331 17.7345 L 27.8331 17.7345 Z"/>
<path fill="black" stroke="none" fill-rule="evenodd" d="M 27.8331 17.7345 L 27.8331 17.7345 L 27.8331 17.7345 L 27.8331 17.7345 Z"/>
<path fill="black" stroke="none" fill-rule="evenodd" d="M 27.8331 17.7345 L 27.8331 17.7345 L 27.8331 17.7345 L 27.8331 17.7345 Z"/>
<path fill="black" stroke="none" fill-rule="evenodd" d="M 27.8331 17.7345 L 27.8331 17.7345 L 27.8331 17.7345 L 27.8331 17.7345 Z"/>
<path fill="black" stroke="none" fill-rule="evenodd" d="M 27.8331 17.7345 L 27.8331 17.7345 L 27.8331 17.7345 L 27.8331 17.7345 Z"/>
<path fill="black" stroke="none" fill-rule="evenodd" d="M 27.8332 17.7344 L 27.8332 17.7344 L 27.8332 17.7344 L 27.8332 17.7344 Z"/>
<path fill="black" stroke="none" fill-rule="evenodd" d="M 27.8340 17.7343 L 27.8340 17.7343 L 27.8340 17.7343 L 27.8340 17.7343 Z"/>
<path fill="black" stroke="none" fill-rule="evenodd" d="M 27.8341 17.7343 L 27.8341 17.7343 L 27.8341 17.7343 L 27.8341 17.7343 Z"/>
<path fill="black" stroke="none" fill-rule="evenodd" d="M 27.8341 17.7343 L 27.8341 17.7343 L 27.8341 17.7343 L 27.8341 17.7343 Z"/>
<path fill="black" stroke="none" fill-rule="evenodd" d="M 27.8341 17.7343 L 27.8341 17.7343 L 27.8341 17.7343 L 27.8341 17.7343 Z"/>
<path fill="black" stroke="none" fill-rule="evenodd" d="M 27.8351 17.7341 L 27.8351 17.7341 L 27.8351 17.7341 L 27.8351 17.7341 Z"/>
<path fill="black" stroke="none" fill-rule="evenodd" d="M 27.8356 17.7340 L 27.8357 17.7339 L 27.8356 17.7339 L 27.8356 17.7340 Z"/>
<path fill="black" stroke="none" fill-rule="evenodd" d="M 27.8361 17.7339 L 27.8361 17.7339 L 27.8361 17.7339 L 27.8361 17.7339 Z"/>
<path fill="black" stroke="none" fill-rule="evenodd" d="M 27.8361 17.7339 L 27.8361 17.7339 L 27.8361 17.7339 L 27.8361 17.7339 Z"/>
<path fill="black" stroke="none" fill-rule="evenodd" d="M 27.8361 17.7339 L 27.8361 17.7338 L 27.8361 17.7339 L 27.8361 17.7339 Z"/>
<path fill="black" stroke="none" fill-rule="evenodd" d="M 27.8361 17.7338 L 27.8361 17.7338 L 27.8361 17.7338 L 27.8361 17.7338 Z"/>
<path fill="black" stroke="none" fill-rule="evenodd" d="M 27.8361 17.7338 L 27.8361 17.7338 L 27.8361 17.7338 L 27.8361 17.7338 Z"/>
<path fill="black" stroke="none" fill-rule="evenodd" d="M 27.8361 17.7338 L 27.8361 17.7338 L 27.8361 17.7338 L 27.8361 17.7338 Z"/>
<path fill="black" stroke="none" fill-rule="evenodd" d="M 27.8383 17.7334 L 27.8383 17.7334 L 27.8383 17.7334 L 27.8383 17.7334 Z"/>
<path fill="black" stroke="none" fill-rule="evenodd" d="M 27.8386 17.7333 L 27.8386 17.7333 L 27.8386 17.7333 L 27.8386 17.7333 Z"/>
<path fill="black" stroke="none" fill-rule="evenodd" d="M 27.8386 17.7333 L 27.8386 17.7333 L 27.8386 17.7333 L 27.8386 17.7333 Z"/>
<path fill="black" stroke="none" fill-rule="evenodd" d="M 27.8387 17.7333 L 27.8387 17.7333 L 27.8387 17.7333 L 27.8387 17.7333 Z"/>
<path fill="black" stroke="none" fill-rule="evenodd" d="M 27.8387 17.7333 L 27.8388 17.7333 L 27.8387 17.7333 L 27.8387 17.7333 Z"/>
<path fill="black" stroke="none" fill-rule="evenodd" d="M 27.8389 17.7333 L 27.8389 17.7333 L 27.8389 17.7333 L 27.8389 17.7333 Z"/>
<path fill="black" stroke="none" fill-rule="evenodd" d="M 27.8389 17.7333 L 27.8389 17.7333 L 27.8389 17.7333 L 27.8389 17.7333 Z"/>
<path fill="black" stroke="none" fill-rule="evenodd" d="M 27.8390 17.7333 L 27.8390 17.7332 L 27.8390 17.7333 L 27.8390 17.7333 Z"/>
<path fill="black" stroke="none" fill-rule="evenodd" d="M 27.8390 17.7332 L 27.8392 17.7332 L 27.8392 17.7332 L 27.8391 17.7332 L 27.8390 17.7332 Z"/>
<path fill="black" stroke="none" fill-rule="evenodd" d="M 27.8392 17.7332 L 27.8392 17.7332 L 27.8392 17.7332 L 27.8392 17.7332 Z"/>
<path fill="black" stroke="none" fill-rule="evenodd" d="M 27.8396 17.7331 L 27.8396 17.7331 L 27.8396 17.7331 L 27.8396 17.7331 Z"/>
<path fill="black" stroke="none" fill-rule="evenodd" d="M 27.8396 17.7331 L 27.8396 17.7331 L 27.8396 17.7331 L 27.8396 17.7331 Z"/>
<path fill="black" stroke="none" fill-rule="evenodd" d="M 27.8398 17.7331 L 27.8398 17.7331 L 27.8398 17.7331 L 27.8398 17.7331 Z"/>
<path fill="black" stroke="none" fill-rule="evenodd" d="M 27.8409 17.7329 L 27.8409 17.7329 L 27.8409 17.7329 L 27.8409 17.7329 Z"/>
<path fill="black" stroke="none" fill-rule="evenodd" d="M 27.8409 17.7329 L 27.8409 17.7329 L 27.8409 17.7329 L 27.8409 17.7329 Z"/>
<path fill="black" stroke="none" fill-rule="evenodd" d="M 27.8410 17.7328 L 27.8418 17.7327 L 27.8410 17.7328 L 27.8410 17.7328 Z"/>
<path fill="black" stroke="none" fill-rule="evenodd" d="M 27.8445 17.7321 L 27.8445 17.7321 L 27.8445 17.7321 L 27.8445 17.7321 Z"/>
<path fill="black" stroke="none" fill-rule="evenodd" d="M 27.8445 17.7321 L 27.8445 17.7321 L 27.8445 17.7321 L 27.8445 17.7321 Z"/>
<path fill="black" stroke="none" fill-rule="evenodd" d="M 27.8445 17.7321 L 27.8445 17.7321 L 27.8445 17.7321 L 27.8445 17.7321 Z"/>
<path fill="black" stroke="none" fill-rule="evenodd" d="M 27.8458 17.7319 L 27.8467 17.7317 L 27.8466 17.7317 L 27.8458 17.7319 Z"/>
<path fill="black" stroke="none" fill-rule="evenodd" d="M 27.9250 17.7156 L 27.9258 17.7155 L 27.9254 17.7156 L 27.9250 17.7156 Z"/>
<path fill="black" stroke="none" fill-rule="evenodd" d="M 27.9258 17.7155 L 27.9285 17.7149 L 27.9262 17.7154 L 27.9258 17.7155 Z"/>
<path fill="black" stroke="none" fill-rule="evenodd" d="M 27.9285 17.7149 L 27.9667 17.7071 L 27.9539 17.7097 L 27.9285 17.7149 Z"/>
<path fill="black" stroke="none" fill-rule="evenodd" d="M 28.0510 17.6898 L 28.0547 17.6891 L 28.0541 17.6892 L 28.0510 17.6898 Z"/>
<path fill="black" stroke="none" fill-rule="evenodd" d="M 28.2529 17.6485 L 28.3013 17.6386 L 28.2981 17.6392 L 28.2529 17.6485 Z"/>
<path fill="black" stroke="none" fill-rule="evenodd" d="M 28.3013 17.6386 L 28.3026 17.6383 L 28.3021 17.6384 L 28.3013 17.6386 Z"/>
<path fill="black" stroke="none" fill-rule="evenodd" d="M 28.3026 17.6383 L 28.3031 17.6382 L 28.3030 17.6382 L 28.3026 17.6383 Z"/>
<path fill="black" stroke="none" fill-rule="evenodd" d="M 28.3031 17.6382 L 28.3057 17.6377 L 28.3044 17.6379 L 28.3031 17.6382 Z"/>
<path fill="black" stroke="none" fill-rule="evenodd" d="M 28.3057 17.6377 L 28.3095 17.6369 L 28.3063 17.6375 L 28.3057 17.6377 Z"/>
<path fill="black" stroke="none" fill-rule="evenodd" d="M 28.3095 17.6369 L 28.3501 17.6286 L 28.3114 17.6365 L 28.3095 17.6369 Z"/>
<path fill="black" stroke="none" fill-rule="evenodd" d="M 28.4005 17.6182 L 28.4006 17.6182 L 28.4006 17.6182 L 28.4005 17.6182 Z"/>
<path fill="black" stroke="none" fill-rule="evenodd" d="M 28.4022 17.6179 L 28.4022 17.6179 L 28.4022 17.6179 L 28.4022 17.6179 Z"/>
<path fill="black" stroke="none" fill-rule="evenodd" d="M 28.4023 17.6179 L 28.4023 17.6179 L 28.4023 17.6179 L 28.4023 17.6179 Z"/>
<path fill="black" stroke="none" fill-rule="evenodd" d="M 28.4024 17.6179 L 28.4026 17.6178 L 28.4026 17.6178 L 28.4024 17.6179 Z"/>
<path fill="black" stroke="none" fill-rule="evenodd" d="M 28.4028 17.6178 L 28.4028 17.6178 L 28.4028 17.6178 L 28.4028 17.6178 Z"/>
<path fill="black" stroke="none" fill-rule="evenodd" d="M 28.4028 17.6178 L 28.4028 17.6178 L 28.4028 17.6178 L 28.4028 17.6178 Z"/>
<path fill="black" stroke="none" fill-rule="evenodd" d="M 28.4029 17.6178 L 28.4029 17.6178 L 28.4029 17.6178 L 28.4029 17.6178 Z"/>
<path fill="black" stroke="none" fill-rule="evenodd" d="M 28.4029 17.6178 L 28.4029 17.6178 L 28.4029 17.6178 L 28.4029 17.6178 Z"/>
<path fill="black" stroke="none" fill-rule="evenodd" d="M 28.4029 17.6178 L 28.4029 17.6178 L 28.4029 17.6178 L 28.4029 17.6178 Z"/>
<path fill="black" stroke="none" fill-rule="evenodd" d="M 28.4030 17.6177 L 28.4031 17.6177 L 28.4031 17.6177 L 28.4030 17.6177 Z"/>
<path fill="black" stroke="none" fill-rule="evenodd" d="M 28.4031 17.6177 L 28.4031 17.6177 L 28.4031 17.6177 L 28.4031 17.6177 Z"/>
<path fill="black" stroke="none" fill-rule="evenodd" d="M 28.4031 17.6177 L 28.4031 17.6177 L 28.4031 17.6177 L 28.4031 17.6177 Z"/>
<path fill="black" stroke="none" fill-rule="evenodd" d="M 28.4033 17.6177 L 28.4033 17.6177 L 28.4033 17.6177 L 28.4033 17.6177 Z"/>
<path fill="black" stroke="none" fill-rule="evenodd" d="M 28.4041 17.6175 L 28.4041 17.6175 L 28.4041 17.6175 L 28.4041 17.6175 Z"/>
<path fill="black" stroke="none" fill-rule="evenodd" d="M 28.4062 17.6171 L 28.4066 17.6170 L 28.4065 17.6170 L 28.4062 17.6171 Z"/>
<path fill="black" stroke="none" fill-rule="evenodd" d="M 28.4070 17.6169 L 28.4074 17.6168 L 28.4070 17.6169 L 28.4070 17.6169 Z"/>
<path fill="black" stroke="none" fill-rule="evenodd" d="M 28.4074 17.6168 L 28.4074 17.6168 L 28.4074 17.6168 L 28.4074 17.6168 Z"/>
<path fill="black" stroke="none" fill-rule="evenodd" d="M 28.4074 17.6168 L 28.4074 17.6168 L 28.4074 17.6168 L 28.4074 17.6168 Z"/>
<path fill="black" stroke="none" fill-rule="evenodd" d="M 28.4074 17.6168 L 28.4075 17.6168 L 28.4075 17.6168 L 28.4074 17.6168 Z"/>
<path fill="black" stroke="none" fill-rule="evenodd" d="M 28.4075 17.6168 L 28.4075 17.6168 L 28.4075 17.6168 L 28.4075 17.6168 Z"/>
<path fill="black" stroke="none" fill-rule="evenodd" d="M 28.4075 17.6168 L 28.4076 17.6168 L 28.4076 17.6168 L 28.4075 17.6168 Z"/>
<path fill="black" stroke="none" fill-rule="evenodd" d="M 28.4080 17.6167 L 28.4080 17.6167 L 28.4080 17.6167 L 28.4080 17.6167 Z"/>
<path fill="black" stroke="none" fill-rule="evenodd" d="M 28.4081 17.6167 L 28.4081 17.6167 L 28.4081 17.6167 L 28.4081 17.6167 Z"/>
<path fill="black" stroke="none" fill-rule="evenodd" d="M 28.4081 17.6167 L 28.4081 17.6167 L 28.4081 17.6167 L 28.4081 17.6167 Z"/>
<path fill="black" stroke="none" fill-rule="evenodd" d="M 28.4082 17.6167 L 28.4082 17.6167 L 28.4082 17.6167 L 28.4082 17.6167 Z"/>
<path fill="black" stroke="none" fill-rule="evenodd" d="M 28.4082 17.6167 L 28.4082 17.6167 L 28.4082 17.6167 L 28.4082 17.6167 Z"/>
<path fill="black" stroke="none" fill-rule="evenodd" d="M 28.4082 17.6167 L 28.4082 17.6167 L 28.4082 17.6167 L 28.4082 17.6167 Z"/>
<path fill="black" stroke="none" fill-rule="evenodd" d="M 28.4091 17.6165 L 28.4094 17.6164 L 28.4091 17.6165 L 28.4091 17.6165 Z"/>
<path fill="black" stroke="none" fill-rule="evenodd" d="M 28.4094 17.6164 L 28.4100 17.6163 L 28.4098 17.6163 L 28.4094 17.6164 Z"/>
<path fill="black" stroke="none" fill-rule="evenodd" d="M 28.4129 17.6157 L 28.4129 17.6157 L 28.4129 17.6157 L 28.4129 17.6157 Z"/>
<path fill="black" stroke="none" fill-rule="evenodd" d="M 28.4130 17.6157 L 28.4131 17.6157 L 28.4131 17.6157 L 28.4130 17.6157 Z"/>
<path fill="black" stroke="none" fill-rule="evenodd" d="M 28.4131 17.6157 L 28.4131 17.6157 L 28.4131 17.6157 L 28.4131 17.6157 Z"/>
<path fill="black" stroke="none" fill-rule="evenodd" d="M 28.4134 17.6156 L 28.4134 17.6156 L 28.4134 17.6156 L 28.4134 17.6156 Z"/>
<path fill="black" stroke="none" fill-rule="evenodd" d="M 28.4333 17.6115 L 28.4333 17.6115 L 28.4333 17.6115 L 28.4333 17.6115 Z"/>
<path fill="black" stroke="none" fill-rule="evenodd" d="M 28.4333 17.6115 L 28.4333 17.6115 L 28.4333 17.6115 L 28.4333 17.6115 Z"/>
<path fill="black" stroke="none" fill-rule="evenodd" d="M 28.4690 17.6042 L 28.4756 17.6029 L 28.4754 17.6029 L 28.4690 17.6042 Z"/>
<path fill="black" stroke="none" fill-rule="evenodd" d="M 28.4760 17.6028 L 28.4760 17.6028 L 28.4760 17.6028 L 28.4760 17.6028 Z"/>
<path fill="black" stroke="none" fill-rule="evenodd" d="M 28.4762 17.6027 L 28.4762 17.6027 L 28.4762 17.6027 L 28.4762 17.6027 Z"/>
<path fill="black" stroke="none" fill-rule="evenodd" d="M 28.4770 17.6026 L 28.4775 17.6025 L 28.4773 17.6025 L 28.4770 17.6026 Z"/>
<path fill="black" stroke="none" fill-rule="evenodd" d="M 28.4775 17.6025 L 28.4777 17.6024 L 28.4776 17.6025 L 28.4775 17.6025 Z"/>
<path fill="black" stroke="none" fill-rule="evenodd" d="M 28.4777 17.6024 L 28.4780 17.6024 L 28.4778 17.6024 L 28.4777 17.6024 Z"/>
<path fill="black" stroke="none" fill-rule="evenodd" d="M 28.4780 17.6024 L 28.4781 17.6024 L 28.4781 17.6024 L 28.4780 17.6024 Z"/>
<path fill="black" stroke="none" fill-rule="evenodd" d="M 28.4781 17.6024 L 28.4781 17.6023 L 28.4781 17.6024 L 28.4781 17.6024 Z"/>
<path fill="black" stroke="none" fill-rule="evenodd" d="M 28.4781 17.6023 L 28.4782 17.6023 L 28.4781 17.6023 L 28.4781 17.6023 Z"/>
<path fill="black" stroke="none" fill-rule="evenodd" d="M 28.4782 17.6023 L 28.4784 17.6023 L 28.4783 17.6023 L 28.4782 17.6023 L 28.4782 17.6023 Z"/>
<path fill="black" stroke="none" fill-rule="evenodd" d="M 28.4856 17.6008 L 28.4856 17.6008 L 28.4856 17.6008 L 28.4856 17.6008 Z"/>
<path fill="black" stroke="none" fill-rule="evenodd" d="M 28.4856 17.6008 L 28.4856 17.6008 L 28.4856 17.6008 L 28.4856 17.6008 Z"/>
<path fill="black" stroke="none" fill-rule="evenodd" d="M 28.4863 17.6007 L 28.4863 17.6007 L 28.4863 17.6007 L 28.4863 17.6007 Z"/>
<path fill="black" stroke="none" fill-rule="evenodd" d="M 28.4863 17.6007 L 28.4863 17.6007 L 28.4863 17.6007 L 28.4863 17.6007 Z"/>
<path fill="black" stroke="none" fill-rule="evenodd" d="M 28.4872 17.6005 L 28.4872 17.6005 L 28.4872 17.6005 L 28.4872 17.6005 Z"/>
<path fill="black" stroke="none" fill-rule="evenodd" d="M 28.4879 17.6004 L 28.4879 17.6004 L 28.4879 17.6004 L 28.4879 17.6004 Z"/>
<path fill="black" stroke="none" fill-rule="evenodd" d="M 28.4879 17.6004 L 28.4879 17.6004 L 28.4879 17.6004 L 28.4879 17.6004 Z"/>
  
</svg>