<svg xmlns="http://www.w3.org/2000/svg" width="321.3760" height="217.1941" viewBox="-16.1120 -108.9981 321.3760 217.1941">
  
  
  <path fill="black" stroke="none" fill-rule="evenodd" d="M -6.1120 1.2876 L -5.8986 3.5293 L -5.2833 5.5306 L -4.3079 7.1549 L -3.0389 8.2916 L -1.5628 8.8633 L 0.0197 8.8309 L 1.6010 8.1968 L 3.0731 7.0040 L 4.3358 5.3339 L 5.3030 3.3004 L 5.9088 1.0419 L 6.1120 -1.2876 L 5.8986 -3.5293 L 5.2833 -5.5306 L 4.3079 -7.1549 L 3.0389 -8.2916 L 1.5628 -8.8633 L -0.0197 -8.8309 L -1.6010 -8.1968 L -3.0731 -7.0040 L -4.3358 -5.3339 L -5.3030 -3.3004 L -5.9088 -1.0419 L -6.1120 1.2876 Z"/>
<path fill="black" stroke="none" fill-rule="evenodd" d="M 4.9894 40.5211 L 5.0102 40.5784 L 5.0314 40.6356 L 5.0530 40.6926 L 5.0750 40.7495 L 5.0973 40.8063 L 5.1201 40.8629 L 5.1432 40.9193 L 5.1667 40.9756 L 5.1906 41.0317 L 5.2148 41.0876 L 5.2395 41.1434 L 5.2645 41.1990 L 5.2899 41.2545 L 5.3157 41.3098 L 5.3418 41.3649 L 5.3683 41.4198 L 7.3232 40.4677 L 7.3045 39.6897 L 4.9894 40.5211 Z"/>
<path fill="black" stroke="none" fill-rule="evenodd" d="M 7.2719 38.3305 L 7.3045 39.6897 L 13.4598 37.4791 L 19.5964 34.4906 L 19.5936 34.3766 L 19.1216 32.3368 L 18.2637 30.6474 L 17.0785 29.4237 L 15.6466 28.7489 L 14.0657 28.6690 L 12.4435 29.1896 L 10.8906 30.2750 L 9.5128 31.8514 L 8.4039 33.8114 L 7.6396 36.0213 L 7.2719 38.3305 Z"/>
<path fill="black" stroke="none" fill-rule="evenodd" d="M 7.3232 40.4677 L 7.3259 40.5817 L 7.7980 42.6215 L 8.6558 44.3109 L 9.8411 45.5346 L 11.2730 46.2094 L 12.8538 46.2893 L 14.4760 45.7687 L 16.0290 44.6833 L 17.4068 43.1069 L 18.5157 41.1469 L 19.2800 38.9370 L 19.6476 36.6278 L 19.6150 35.2686 L 13.4598 37.4791 L 7.3232 40.4677 Z"/>
<path fill="black" stroke="none" fill-rule="evenodd" d="M 19.5964 34.4906 L 19.6150 35.2686 L 21.9301 34.4372 L 21.9093 34.3799 L 21.8881 34.3227 L 21.8665 34.2657 L 21.8446 34.2088 L 21.8222 34.1520 L 21.7995 34.0954 L 21.7764 34.0390 L 21.7528 33.9827 L 21.7290 33.9266 L 21.7047 33.8707 L 21.6801 33.8149 L 21.6550 33.7593 L 21.6296 33.7038 L 21.6039 33.6485 L 21.5777 33.5934 L 21.5512 33.5385 L 19.5964 34.4906 Z"/>
<path fill="black" stroke="none" fill-rule="evenodd" d="M 22.7568 77.1243 L 22.8214 77.2542 L 22.8881 77.3831 L 22.9568 77.5108 L 23.0276 77.6375 L 23.1004 77.7630 L 23.1752 77.8873 L 23.2520 78.0104 L 23.3308 78.1322 L 23.4116 78.2527 L 23.4943 78.3719 L 23.5789 78.4898 L 23.6653 78.6063 L 23.7537 78.7214 L 23.8439 78.8350 L 23.9359 78.9472 L 24.0297 79.0579 L 24.9759 78.2428 L 24.8364 77.9120 L 24.5726 76.2400 L 22.7568 77.1243 Z"/>
<path fill="black" stroke="none" fill-rule="evenodd" d="M 24.5101 75.8439 L 24.5726 76.2400 L 30.8483 73.1836 L 36.7207 68.1245 L 36.1241 66.7094 L 35.0286 65.4048 L 33.6481 64.6302 L 32.0768 64.4386 L 30.4219 64.8429 L 28.7959 65.8156 L 27.3099 67.2905 L 26.0650 69.1669 L 25.1460 71.3171 L 24.6157 73.5945 L 24.5101 75.8439 Z"/>
<path fill="black" stroke="none" fill-rule="evenodd" d="M 24.9759 78.2428 L 25.5724 79.6578 L 26.6680 80.9625 L 28.0485 81.7371 L 29.6197 81.9287 L 31.2747 81.5244 L 32.9006 80.5517 L 34.3867 79.0768 L 35.6316 77.2004 L 36.5506 75.0502 L 37.0809 72.7728 L 37.1865 70.5234 L 37.1240 70.1273 L 30.8483 73.1836 L 24.9759 78.2428 Z"/>
<path fill="black" stroke="none" fill-rule="evenodd" d="M 36.7207 68.1245 L 36.8602 68.4553 L 37.1240 70.1273 L 38.9397 69.2430 L 38.8752 69.1131 L 38.8085 68.9842 L 38.7398 68.8564 L 38.6690 68.7298 L 38.5962 68.6043 L 38.5213 68.4800 L 38.4445 68.3569 L 38.3657 68.2351 L 38.2850 68.1146 L 38.2023 67.9953 L 38.1177 67.8775 L 38.0312 67.7610 L 37.9429 67.6459 L 37.8527 67.5322 L 37.7607 67.4201 L 37.6669 67.3094 L 36.7207 68.1245 Z"/>
<path fill="black" stroke="none" fill-rule="evenodd" d="M 36.8802 93.9741 L 37.1610 94.2851 L 37.4559 94.5827 L 37.7645 94.8663 L 38.0858 95.1352 L 38.4194 95.3888 L 38.7644 95.6266 L 39.1200 95.8481 L 39.4856 96.0529 L 39.8604 96.2403 L 40.2434 96.4102 L 40.5935 96.5463 L 39.2454 95.7257 L 38.1967 94.3830 L 37.7546 93.2208 L 36.8802 93.9741 Z"/>
<path fill="black" stroke="none" fill-rule="evenodd" d="M 37.2702 90.5338 L 37.5230 92.6122 L 37.7546 93.2208 L 43.6987 88.0999 L 44.6872 79.5176 L 43.5682 79.7493 L 41.9088 80.6637 L 40.3714 82.0850 L 39.0608 83.9161 L 38.0662 86.0324 L 37.4555 88.2896 L 37.2702 90.5338 Z"/>
<path fill="black" stroke="none" fill-rule="evenodd" d="M 40.5935 96.5463 L 40.5975 96.5487 L 40.6013 96.5493 L 40.5935 96.5463 Z"/>
<path fill="black" stroke="none" fill-rule="evenodd" d="M 40.6013 96.5493 L 40.6340 96.5620 L 41.0312 96.6955 L 41.4342 96.8103 L 41.8420 96.9063 L 42.2540 96.9832 L 42.6690 97.0408 L 42.7103 96.6822 L 42.1610 96.7959 L 40.6013 96.5493 Z"/>
<path fill="black" stroke="none" fill-rule="evenodd" d="M 42.7103 96.6822 L 43.8293 96.4505 L 45.4886 95.5360 L 47.0260 94.1148 L 47.1092 93.9986 L 47.6073 95.3811 L 48.6320 96.7421 L 49.9693 97.5890 L 51.5282 97.8638 L 52.2370 97.7302 L 53.2198 89.1964 L 49.9021 83.8151 L 49.8744 83.5876 L 49.8001 83.3921 L 49.7133 83.5089 L 49.4755 83.1232 L 43.6987 88.0999 L 42.7103 96.6822 Z"/>
<path fill="black" stroke="none" fill-rule="evenodd" d="M 44.6872 79.5176 L 45.2365 79.4039 L 46.7962 79.6505 L 46.7635 79.6378 L 46.3663 79.5043 L 45.9633 79.3894 L 45.5554 79.2935 L 45.1435 79.2166 L 44.7285 79.1590 L 44.6872 79.5176 Z"/>
<path fill="black" stroke="none" fill-rule="evenodd" d="M 46.7962 79.6505 L 46.8040 79.6535 L 46.8000 79.6511 L 46.7962 79.6505 Z"/>
<path fill="black" stroke="none" fill-rule="evenodd" d="M 46.8040 79.6535 L 48.1521 80.4741 L 48.8288 81.3405 L 48.8201 81.3452 L 48.4966 81.5354 L 49.4755 83.1232 L 49.6429 82.9789 L 49.8001 83.3921 L 49.9996 83.1235 L 51.5620 81.7297 L 53.2373 80.8448 L 54.2027 80.6627 L 54.2496 80.2555 L 53.8760 80.2204 L 53.5012 80.2008 L 53.1260 80.1969 L 52.7509 80.2087 L 52.3767 80.2360 L 52.0039 80.2790 L 51.6333 80.3374 L 51.2654 80.4112 L 50.9008 80.5003 L 50.5404 80.6046 L 50.1845 80.7237 L 49.8340 80.8576 L 49.4893 81.0060 L 49.3320 81.0816 L 49.3116 81.0646 L 48.9781 80.8110 L 48.6331 80.5731 L 48.2774 80.3516 L 47.9118 80.1469 L 47.5371 79.9594 L 47.1540 79.7896 L 46.8040 79.6535 Z"/>
<path fill="black" stroke="none" fill-rule="evenodd" d="M 52.1901 98.1373 L 52.5637 98.1725 L 52.9384 98.1920 L 53.3136 98.1960 L 53.6887 98.1842 L 54.0629 98.1569 L 54.4357 98.1139 L 54.8064 98.0555 L 55.1743 97.9817 L 55.5388 97.8926 L 55.8992 97.7883 L 56.2551 97.6692 L 56.6056 97.5353 L 56.9503 97.3869 L 57.2884 97.2243 L 57.6195 97.0477 L 57.9430 96.8575 L 56.7263 94.8840 L 56.4400 95.2694 L 54.8776 96.6631 L 53.2023 97.5481 L 52.2370 97.7302 L 52.1901 98.1373 Z"/>
<path fill="black" stroke="none" fill-rule="evenodd" d="M 53.2198 89.1964 L 56.7263 94.8840 L 57.7829 93.4617 L 58.2928 92.4249 L 59.7012 92.6991 L 61.3806 92.4131 L 63.0714 91.5580 L 64.6582 90.1921 L 65.0286 89.7116 L 61.5462 84.0631 L 58.1731 82.1361 L 57.8076 81.6508 L 56.4935 80.8186 L 56.3512 81.0954 L 55.5600 80.6434 L 54.9115 80.5290 L 54.2027 80.6627 L 53.2198 89.1964 Z"/>
<path fill="black" stroke="none" fill-rule="evenodd" d="M 53.7314 79.5988 L 55.5600 80.6434 L 56.4703 80.8039 L 56.4935 80.8186 L 57.0594 79.7175 L 58.0638 78.4146 L 56.8230 76.4020 L 56.5863 76.5531 L 56.3544 76.7115 L 56.1275 76.8771 L 55.9060 77.0497 L 55.6899 77.2291 L 55.4795 77.4151 L 55.2750 77.6076 L 55.0767 77.8065 L 54.8846 78.0114 L 54.6990 78.2221 L 54.5201 78.4386 L 54.3480 78.6606 L 54.1830 78.8878 L 54.0251 79.1201 L 53.8745 79.3571 L 53.7314 79.5988 Z"/>
<path fill="black" stroke="none" fill-rule="evenodd" d="M 58.0638 78.4146 L 61.5462 84.0631 L 66.7412 87.0307 L 67.1019 86.3289 L 67.7923 84.0948 L 68.0570 81.8585 L 67.8780 79.7725 L 67.2675 77.9789 L 66.2671 76.5999 L 64.9449 75.7295 L 63.3912 75.4270 L 61.7117 75.7131 L 60.0210 76.5681 L 58.4342 77.9340 L 58.0638 78.4146 Z"/>
<path fill="black" stroke="none" fill-rule="evenodd" d="M 65.0286 89.7116 L 66.2694 91.7241 L 66.5061 91.5730 L 66.7380 91.4146 L 66.9649 91.2490 L 67.1864 91.0765 L 67.4025 90.8971 L 67.6129 90.7110 L 67.8174 90.5185 L 68.0157 90.3197 L 68.2078 90.1148 L 68.3934 89.9040 L 68.5723 89.6875 L 68.7443 89.4655 L 68.9094 89.2383 L 69.0673 89.0060 L 69.2179 88.7690 L 69.3609 88.5273 L 66.7412 87.0307 L 66.0329 88.4086 L 65.0286 89.7116 Z"/>
<path fill="black" stroke="none" fill-rule="evenodd" d="M 72.8160 46.3988 L 75.6371 47.4849 L 75.8338 46.9787 L 76.0233 46.6666 L 73.4003 45.1682 L 73.3584 45.2424 L 73.3171 45.3170 L 73.2766 45.3919 L 73.2368 45.4673 L 73.1977 45.5430 L 73.1594 45.6191 L 73.1217 45.6956 L 73.0848 45.7724 L 73.0486 45.8496 L 73.0132 45.9271 L 72.9785 46.0049 L 72.9445 46.0831 L 72.9112 46.1616 L 72.8787 46.2404 L 72.8470 46.3195 L 72.8160 46.3988 Z"/>
<path fill="black" stroke="none" fill-rule="evenodd" d="M 74.5645 51.3701 L 74.5952 53.4636 L 75.0771 55.2960 L 75.9773 56.7424 L 77.2344 57.7043 L 78.7629 58.1161 L 80.4584 57.9497 L 82.2054 57.2165 L 83.8850 55.9665 L 85.3827 54.2849 L 86.4068 52.5982 L 81.2150 49.6324 L 75.6371 47.4849 L 74.9869 49.1583 L 74.5645 51.3701 Z"/>
<path fill="black" stroke="none" fill-rule="evenodd" d="M 76.0233 46.6666 L 81.2150 49.6324 L 86.7930 51.7799 L 87.4432 50.1066 L 87.8656 47.8947 L 87.8349 45.8012 L 87.3530 43.9688 L 86.4528 42.5224 L 85.1956 41.5606 L 83.6672 41.1488 L 81.9717 41.3151 L 80.2246 42.0483 L 78.5451 43.2983 L 77.0474 44.9800 L 76.0233 46.6666 Z"/>
<path fill="black" stroke="none" fill-rule="evenodd" d="M 86.4068 52.5982 L 89.0298 54.0967 L 89.0717 54.0225 L 89.1129 53.9479 L 89.1535 53.8729 L 89.1933 53.7975 L 89.2323 53.7218 L 89.2707 53.6457 L 89.3084 53.5692 L 89.3453 53.4924 L 89.3815 53.4152 L 89.4169 53.3377 L 89.4516 53.2599 L 89.4856 53.1817 L 89.5189 53.1033 L 89.5514 53.0245 L 89.5831 52.9454 L 89.6141 52.8660 L 86.7930 51.7799 L 86.5963 52.2861 L 86.4068 52.5982 Z"/>
<path fill="black" stroke="none" fill-rule="evenodd" d="M 87.0431 9.4511 L 89.8617 10.4634 L 89.9202 10.3397 L 87.1144 9.2595 L 87.1098 9.2714 L 87.1052 9.2833 L 87.1007 9.2953 L 87.0961 9.3072 L 87.0916 9.3192 L 87.0871 9.3312 L 87.0826 9.3431 L 87.0782 9.3551 L 87.0737 9.3671 L 87.0693 9.3791 L 87.0649 9.3911 L 87.0605 9.4031 L 87.0561 9.4151 L 87.0517 9.4271 L 87.0474 9.4391 L 87.0431 9.4511 Z"/>
<path fill="black" stroke="none" fill-rule="evenodd" d="M 88.6388 15.8456 L 88.9897 17.7075 L 89.7851 19.2141 L 90.9710 20.2626 L 92.4664 20.7817 L 94.1694 20.7358 L 95.9640 20.1283 L 97.7279 19.0004 L 99.3410 17.4291 L 100.6931 15.5213 L 101.1066 14.6464 L 95.5134 12.4930 L 89.8617 10.4634 L 89.3345 11.5789 L 88.7564 13.7553 L 88.6388 15.8456 Z"/>
<path fill="black" stroke="none" fill-rule="evenodd" d="M 89.9202 10.3397 L 95.5134 12.4930 L 101.1651 14.5227 L 101.6923 13.4072 L 102.2704 11.2308 L 102.3880 9.1405 L 102.0371 7.2786 L 101.2417 5.7720 L 100.0559 4.7235 L 98.5605 4.2044 L 96.8574 4.2503 L 95.0628 4.8578 L 93.2989 5.9857 L 91.6859 7.5570 L 90.3337 9.4648 L 89.9202 10.3397 Z"/>
<path fill="black" stroke="none" fill-rule="evenodd" d="M 100.5028 -28.0280 L 103.2679 -27.0350 L 102.8746 -26.3357 L 102.1438 -24.2058 L 101.8783 -22.1290 L 102.0964 -20.2469 L 102.7832 -18.6878 L 103.8917 -17.5579 L 105.3466 -16.9342 L 107.0486 -16.8592 L 108.8818 -17.3381 L 110.7211 -18.3382 L 112.4414 -19.7913 L 113.9253 -21.5985 L 114.5303 -22.6738 L 117.2825 -21.5286 L 117.2932 -21.5543 L 117.3038 -21.5801 L 117.3143 -21.6059 L 117.3247 -21.6317 L 117.3351 -21.6576 L 117.3453 -21.6835 L 117.3555 -21.7094 L 117.3656 -21.7354 L 117.3756 -21.7614 L 117.3856 -21.7874 L 117.3954 -21.8134 L 117.4052 -21.8395 L 117.4149 -21.8656 L 117.4245 -21.8918 L 117.4341 -21.9180 L 117.4435 -21.9442 L 114.6784 -22.9372 L 115.0718 -23.6365 L 115.8026 -25.7664 L 116.0680 -27.8432 L 115.8499 -29.7253 L 115.1632 -31.2844 L 114.0546 -32.4143 L 112.5998 -33.0380 L 110.8978 -33.1130 L 109.0646 -32.6341 L 107.2252 -31.6340 L 105.5049 -30.1809 L 104.0210 -28.3737 L 103.4161 -27.2984 L 100.6638 -28.4436 L 100.6532 -28.4179 L 100.6426 -28.3921 L 100.6321 -28.3663 L 100.6216 -28.3405 L 100.6113 -28.3146 L 100.6010 -28.2887 L 100.5909 -28.2628 L 100.5808 -28.2368 L 100.5707 -28.2108 L 100.5608 -28.1848 L 100.5509 -28.1587 L 100.5412 -28.1327 L 100.5315 -28.1066 L 100.5218 -28.0804 L 100.5123 -28.0542 L 100.5028 -28.0280 Z"/>
<path fill="black" stroke="none" fill-rule="evenodd" d="M 101.1066 14.6464 L 103.9125 15.7266 L 103.9170 15.7147 L 103.9216 15.7028 L 103.9262 15.6908 L 103.9307 15.6789 L 103.9352 15.6669 L 103.9397 15.6549 L 103.9442 15.6430 L 103.9486 15.6310 L 103.9531 15.6190 L 103.9575 15.6070 L 103.9619 15.5950 L 103.9663 15.5830 L 103.9707 15.5710 L 103.9751 15.5590 L 103.9794 15.5470 L 103.9837 15.5350 L 101.1651 14.5227 L 101.1066 14.6464 Z"/>
<path fill="black" stroke="none" fill-rule="evenodd" d="M 115.9508 -65.1824 L 118.6417 -64.0627 L 118.2725 -63.5032 L 117.3926 -61.4303 L 116.9807 -59.3776 L 117.0649 -57.4848 L 117.6395 -55.8809 L 118.6652 -54.6753 L 120.0722 -53.9501 L 121.7647 -53.7548 L 123.6271 -54.1026 L 125.5328 -54.9699 L 127.3517 -56.2975 L 128.6809 -57.7005 L 130.9155 -55.6663 L 131.0443 -55.8109 L 131.1699 -55.9582 L 131.2924 -56.1081 L 131.4116 -56.2607 L 131.5274 -56.4158 L 131.6400 -56.5733 L 131.7491 -56.7333 L 131.8547 -56.8955 L 131.9568 -57.0600 L 132.0554 -57.2266 L 132.1503 -57.3953 L 132.2416 -57.5660 L 132.3292 -57.7387 L 132.4131 -57.9132 L 132.4932 -58.0894 L 132.5695 -58.2674 L 129.8786 -59.3871 L 130.2478 -59.9466 L 131.1277 -62.0194 L 131.5396 -64.0722 L 131.4554 -65.9650 L 130.8808 -67.5689 L 129.8551 -68.7745 L 128.4481 -69.4996 L 126.7557 -69.6950 L 124.8932 -69.3472 L 122.9876 -68.4799 L 121.1687 -67.1523 L 119.8394 -65.7493 L 117.6048 -67.7835 L 117.4760 -67.6389 L 117.3504 -67.4916 L 117.2280 -67.3417 L 117.1088 -67.1891 L 116.9929 -67.0340 L 116.8804 -66.8765 L 116.7713 -66.7165 L 116.6656 -66.5543 L 116.5635 -66.3898 L 116.4649 -66.2232 L 116.3700 -66.0545 L 116.2787 -65.8837 L 116.1911 -65.7111 L 116.1072 -65.5366 L 116.0271 -65.3603 L 115.9508 -65.1824 Z"/>
<path fill="black" stroke="none" fill-rule="evenodd" d="M 142.5225 -86.2803 L 142.9819 -84.6397 L 143.9197 -83.3645 L 145.2718 -82.5415 L 146.6633 -82.2799 L 146.4294 -81.7386 L 147.0798 -81.4869 L 147.7479 -81.2863 L 148.4294 -81.1381 L 149.1204 -81.0431 L 149.8166 -81.0019 L 150.5140 -81.0147 L 151.2082 -81.0815 L 151.7793 -81.1815 L 151.8556 -80.8891 L 152.2161 -80.3803 L 152.1127 -80.2923 L 152.2824 -80.0985 L 152.4576 -79.9097 L 152.6380 -79.7260 L 152.7683 -79.6007 L 152.7706 -79.5975 L 152.7738 -79.5955 L 152.8237 -79.5475 L 153.0144 -79.3743 L 153.2100 -79.2068 L 153.4103 -79.0448 L 153.6152 -78.8887 L 153.8244 -78.7385 L 154.0378 -78.5944 L 154.2553 -78.4564 L 154.4767 -78.3247 L 154.7017 -78.1994 L 154.9302 -78.0805 L 155.1620 -77.9683 L 155.3970 -77.8627 L 155.6437 -78.4336 L 155.7764 -78.4062 L 157.6624 -78.5878 L 158.4251 -78.8563 L 157.8615 -77.0620 L 157.7443 -75.1710 L 158.0023 -74.1059 L 157.6824 -73.9092 L 157.7280 -73.8358 L 157.7743 -73.7628 L 157.8213 -73.6903 L 157.8690 -73.6183 L 157.9174 -73.5467 L 157.9665 -73.4755 L 158.0163 -73.4049 L 158.0667 -73.3347 L 158.1179 -73.2651 L 158.1696 -73.1959 L 158.2221 -73.1272 L 158.2752 -73.0590 L 158.3289 -72.9913 L 158.3833 -72.9242 L 158.4384 -72.8576 L 158.4941 -72.7915 L 158.5857 -72.8695 L 159.0373 -72.2075 L 160.3594 -71.3371 L 162.0215 -70.9632 L 163.9104 -71.1113 L 165.8973 -71.7714 L 167.8468 -72.8984 L 169.6262 -74.4156 L 171.1140 -76.2195 L 172.2090 -78.1872 L 172.8364 -80.1847 L 172.9536 -82.0757 L 172.6957 -83.1408 L 173.0155 -83.3375 L 172.9699 -83.4109 L 172.9236 -83.4839 L 172.8766 -83.5564 L 172.8289 -83.6284 L 172.7805 -83.7000 L 172.7314 -83.7712 L 172.6816 -83.8418 L 172.6312 -83.9120 L 172.5800 -83.9816 L 172.5283 -84.0508 L 172.4758 -84.1195 L 172.4227 -84.1877 L 172.3690 -84.2554 L 172.3146 -84.3225 L 172.2595 -84.3891 L 172.2038 -84.4552 L 172.1122 -84.3772 L 171.6606 -85.0392 L 170.3385 -85.9096 L 168.6764 -86.2835 L 166.7875 -86.1354 L 165.8372 -85.8197 L 166.4262 -87.8179 L 166.5099 -89.7108 L 166.0796 -91.3592 L 165.7191 -91.8680 L 165.8225 -91.9560 L 165.6528 -92.1498 L 165.4776 -92.3386 L 165.2971 -92.5223 L 165.1669 -92.6476 L 165.1646 -92.6508 L 165.1614 -92.6528 L 165.1115 -92.7008 L 164.9208 -92.8739 L 164.7252 -93.0415 L 164.5249 -93.2034 L 164.3200 -93.3596 L 164.1108 -93.5098 L 163.8973 -93.6539 L 163.6799 -93.7919 L 163.4585 -93.9236 L 163.2335 -94.0489 L 163.0050 -94.1677 L 162.7732 -94.2800 L 162.5382 -94.3855 L 162.2915 -93.8147 L 162.1588 -93.8421 L 160.2728 -93.6605 L 158.2979 -92.9653 L 157.4440 -92.4513 L 157.4775 -93.7197 L 157.0181 -95.3603 L 156.0803 -96.6355 L 154.7282 -97.4585 L 153.3367 -97.7201 L 153.5706 -98.2614 L 152.9202 -98.5131 L 152.2521 -98.7137 L 151.5706 -98.8619 L 150.8796 -98.9569 L 150.1834 -98.9981 L 149.4860 -98.9853 L 148.7918 -98.9185 L 148.1048 -98.7982 L 147.4291 -98.6250 L 146.7689 -98.4000 L 146.1282 -98.1246 L 145.5106 -97.8004 L 144.9201 -97.4293 L 144.3600 -97.0136 L 143.8338 -96.5558 L 143.3447 -96.0586 L 145.5644 -94.0379 L 144.1534 -92.1980 L 143.1288 -90.1927 L 142.5726 -88.1743 L 142.5225 -86.2803 Z"/>
<path fill="black" stroke="none" fill-rule="evenodd" d="M 167.4305 -58.2674 L 167.4648 -58.1860 L 167.4999 -58.1050 L 167.5358 -58.0243 L 167.5725 -57.9440 L 167.6100 -57.8640 L 167.6483 -57.7844 L 167.6874 -57.7052 L 167.7272 -57.6264 L 167.7678 -57.5480 L 167.8092 -57.4700 L 167.8513 -57.3924 L 167.8942 -57.3152 L 167.9378 -57.2384 L 167.9822 -57.1620 L 168.0274 -57.0862 L 168.0733 -57.0107 L 168.3030 -57.1519 L 168.3597 -56.8753 L 169.2047 -55.5368 L 170.4951 -54.6201 L 172.1429 -54.1875 L 174.0359 -54.2686 L 176.0450 -54.8578 L 178.0332 -55.9150 L 179.8652 -57.3681 L 181.4161 -59.1182 L 182.5801 -61.0459 L 183.2780 -63.0198 L 183.4621 -64.9055 L 183.4560 -64.9356 L 184.0492 -65.1824 L 184.0149 -65.2638 L 183.9798 -65.3448 L 183.9438 -65.4255 L 183.9071 -65.5058 L 183.8696 -65.5858 L 183.8314 -65.6653 L 183.7923 -65.7445 L 183.7525 -65.8234 L 183.7119 -65.9018 L 183.6705 -65.9798 L 183.6284 -66.0574 L 183.5855 -66.1346 L 183.5419 -66.2114 L 183.4975 -66.2877 L 183.4523 -66.3636 L 183.4064 -66.4391 L 183.1767 -66.2978 L 183.1200 -66.5745 L 182.2750 -67.9130 L 180.9846 -68.8297 L 179.3367 -69.2623 L 177.4438 -69.1812 L 175.4347 -68.5920 L 173.4464 -67.5348 L 171.6145 -66.0816 L 170.0636 -64.3316 L 168.8996 -62.4039 L 168.2017 -60.4300 L 168.0176 -58.5442 L 168.0237 -58.5142 L 167.4305 -58.2674 Z"/>
<path fill="black" stroke="none" fill-rule="evenodd" d="M 182.5565 -21.9442 L 182.5659 -21.9180 L 182.5755 -21.8918 L 182.5851 -21.8656 L 182.5948 -21.8395 L 182.6046 -21.8134 L 182.6144 -21.7874 L 182.6244 -21.7614 L 182.6344 -21.7354 L 182.6445 -21.7094 L 182.6547 -21.6835 L 182.6649 -21.6576 L 182.6753 -21.6317 L 182.6857 -21.6059 L 182.6962 -21.5801 L 182.7068 -21.5543 L 182.7175 -21.5286 L 183.1829 -21.7222 L 183.3216 -20.6715 L 184.0697 -19.2766 L 185.2919 -18.2707 L 186.9050 -17.7225 L 188.7989 -17.6692 L 190.8447 -18.1146 L 192.9029 -19.0283 L 194.8332 -20.3480 L 196.5041 -21.9838 L 197.8018 -23.8242 L 198.6377 -25.7437 L 198.9550 -27.6117 L 198.9271 -27.8233 L 199.4972 -28.0280 L 199.4877 -28.0542 L 199.4782 -28.0804 L 199.4685 -28.1066 L 199.4588 -28.1327 L 199.4491 -28.1587 L 199.4392 -28.1848 L 199.4293 -28.2108 L 199.4192 -28.2368 L 199.4091 -28.2628 L 199.3990 -28.2887 L 199.3887 -28.3146 L 199.3784 -28.3405 L 199.3679 -28.3663 L 199.3574 -28.3921 L 199.3468 -28.4179 L 199.3362 -28.4436 L 198.8707 -28.2499 L 198.7320 -29.3007 L 197.9839 -30.6956 L 196.7617 -31.7015 L 195.1487 -32.2497 L 193.2547 -32.3030 L 191.2090 -31.8575 L 189.1508 -30.9439 L 187.2205 -29.6242 L 185.5495 -27.9884 L 184.2519 -26.1480 L 183.4159 -24.2285 L 183.0986 -22.3605 L 183.1266 -22.1489 L 182.5565 -21.9442 Z"/>
<path fill="black" stroke="none" fill-rule="evenodd" d="M 196.0163 15.5350 L 196.0206 15.5470 L 196.0249 15.5590 L 196.0293 15.5710 L 196.0337 15.5830 L 196.0381 15.5950 L 196.0425 15.6070 L 196.0469 15.6190 L 196.0514 15.6310 L 196.0558 15.6430 L 196.0603 15.6549 L 196.0648 15.6669 L 196.0693 15.6789 L 196.0738 15.6908 L 196.0784 15.7028 L 196.0830 15.7147 L 196.0875 15.7266 L 196.4549 15.5852 L 196.4426 15.3819 L 196.0163 15.5350 Z"/>
<path fill="black" stroke="none" fill-rule="evenodd" d="M 196.3923 14.5504 L 196.4426 15.3819 L 204.4866 12.4930 L 212.5183 9.4009 L 212.4781 8.7352 L 211.8307 7.2907 L 210.6828 6.2008 L 209.1127 5.5397 L 207.2273 5.3524 L 205.1551 5.6518 L 203.0373 6.4174 L 201.0184 7.5970 L 199.2358 9.1103 L 197.8110 10.8541 L 196.8411 12.7096 L 196.3923 14.5504 Z"/>
<path fill="black" stroke="none" fill-rule="evenodd" d="M 196.4549 15.5852 L 196.4951 16.2509 L 197.1425 17.6954 L 198.2904 18.7853 L 199.8605 19.4464 L 201.7459 19.6337 L 203.8181 19.3343 L 205.9358 18.5687 L 207.9548 17.3891 L 209.7374 15.8758 L 211.1622 14.1320 L 212.1321 12.2765 L 212.5809 10.4357 L 212.5306 9.6042 L 204.4866 12.4930 L 196.4549 15.5852 Z"/>
<path fill="black" stroke="none" fill-rule="evenodd" d="M 210.3859 52.8660 L 210.4169 52.9454 L 210.4486 53.0245 L 210.4811 53.1033 L 210.5144 53.1817 L 210.5484 53.2599 L 210.5831 53.3377 L 210.6185 53.4152 L 210.6547 53.4924 L 210.6916 53.5692 L 210.7293 53.6457 L 210.7677 53.7218 L 210.8067 53.7975 L 210.8465 53.8729 L 210.8871 53.9479 L 210.9283 54.0225 L 210.9702 54.0967 L 211.0080 54.0751 L 210.5473 52.8147 L 210.5474 52.8038 L 210.3859 52.8660 Z"/>
<path fill="black" stroke="none" fill-rule="evenodd" d="M 210.5474 52.8038 L 218.7850 49.6324 L 226.5619 45.1898 L 226.4792 44.9635 L 225.4114 43.7949 L 223.8920 43.0242 L 222.0246 42.7039 L 219.9364 42.8557 L 217.7698 43.4693 L 215.6723 44.5029 L 213.7870 45.8861 L 212.2422 47.5246 L 211.1434 49.3068 L 210.5653 51.1111 L 210.5474 52.8038 Z"/>
<path fill="black" stroke="none" fill-rule="evenodd" d="M 211.0080 54.0751 L 211.0907 54.3014 L 212.1585 55.4699 L 213.6779 56.2406 L 215.5453 56.5609 L 217.6335 56.4091 L 219.8001 55.7955 L 221.8976 54.7619 L 223.7829 53.3787 L 225.3277 51.7402 L 226.4265 49.9580 L 227.0047 48.1537 L 227.0225 46.4610 L 218.7850 49.6324 L 211.0080 54.0751 Z"/>
<path fill="black" stroke="none" fill-rule="evenodd" d="M 212.5183 9.4009 L 212.5306 9.6042 L 212.9569 9.4511 L 212.9526 9.4391 L 212.9483 9.4271 L 212.9439 9.4151 L 212.9395 9.4031 L 212.9351 9.3911 L 212.9307 9.3791 L 212.9263 9.3671 L 212.9218 9.3551 L 212.9174 9.3431 L 212.9129 9.3312 L 212.9084 9.3192 L 212.9039 9.3072 L 212.8993 9.2953 L 212.8948 9.2833 L 212.8902 9.2714 L 212.8856 9.2595 L 212.5183 9.4009 Z"/>
<path fill="black" stroke="none" fill-rule="evenodd" d="M 226.5619 45.1898 L 227.0226 46.4501 L 227.0225 46.4610 L 227.1840 46.3988 L 227.1530 46.3195 L 227.1213 46.2404 L 227.0888 46.1616 L 227.0555 46.0831 L 227.0215 46.0049 L 226.9868 45.9271 L 226.9514 45.8496 L 226.9152 45.7724 L 226.8783 45.6956 L 226.8406 45.6191 L 226.8022 45.5430 L 226.7632 45.4673 L 226.7234 45.3919 L 226.6829 45.3170 L 226.6416 45.2424 L 226.5997 45.1682 L 226.5619 45.1898 Z"/>
<path fill="black" stroke="none" fill-rule="evenodd" d="M 230.0114 86.6537 L 230.4482 88.1752 L 230.6995 88.4928 L 238.4538 84.0631 L 242.5210 77.4661 L 242.1762 77.3814 L 240.0825 77.3849 L 237.8778 77.8435 L 235.7124 78.7260 L 233.7338 79.9721 L 232.0768 81.4971 L 230.8545 83.1969 L 230.1500 84.9557 L 230.0114 86.6537 Z"/>
<path fill="black" stroke="none" fill-rule="evenodd" d="M 230.6391 88.5273 L 230.7821 88.7690 L 230.9327 89.0060 L 231.0906 89.2383 L 231.2557 89.4655 L 231.4277 89.6875 L 231.6066 89.9040 L 231.7922 90.1148 L 231.9843 90.3197 L 232.1826 90.5185 L 232.3871 90.7110 L 232.5975 90.8971 L 232.8136 91.0765 L 233.0351 91.2490 L 233.2620 91.4146 L 233.4939 91.5730 L 233.7306 91.7241 L 234.3867 90.6600 L 232.8914 90.2928 L 231.4305 89.4164 L 230.6995 88.4928 L 230.6391 88.5273 Z"/>
<path fill="black" stroke="none" fill-rule="evenodd" d="M 234.3867 90.6600 L 234.7314 90.7447 L 236.8251 90.7412 L 238.4152 90.4104 L 238.2932 91.6371 L 238.7029 93.1660 L 239.6631 94.4245 L 241.1083 95.3266 L 242.7355 95.7570 L 246.7802 89.1964 L 246.2361 84.4724 L 246.7576 83.1704 L 246.7814 82.8792 L 246.3145 82.9677 L 246.0736 83.0609 L 245.7504 80.2555 L 246.1240 80.2204 L 246.4988 80.2008 L 246.5311 80.2005 L 246.4595 79.9509 L 246.2081 79.6333 L 238.4538 84.0631 L 234.3867 90.6600 Z"/>
<path fill="black" stroke="none" fill-rule="evenodd" d="M 242.0570 96.8575 L 242.3805 97.0477 L 242.7116 97.2243 L 243.0497 97.3869 L 243.3944 97.5353 L 243.7449 97.6692 L 244.1008 97.7883 L 244.4612 97.8926 L 244.8257 97.9817 L 245.1936 98.0555 L 245.5643 98.1139 L 245.9371 98.1569 L 246.3113 98.1842 L 246.6864 98.1960 L 247.0616 98.1920 L 247.4363 98.1725 L 247.8099 98.1373 L 247.4868 95.3320 L 247.2459 95.4252 L 245.0334 95.8447 L 242.9400 95.8110 L 242.7355 95.7570 L 242.0570 96.8575 Z"/>
<path fill="black" stroke="none" fill-rule="evenodd" d="M 242.5210 77.4661 L 244.0162 77.8333 L 245.4771 78.7097 L 246.2081 79.6333 L 246.2686 79.5988 L 246.1255 79.3571 L 245.9749 79.1201 L 245.8170 78.8878 L 245.6520 78.6606 L 245.4799 78.4386 L 245.3010 78.2221 L 245.1154 78.0114 L 244.9233 77.8065 L 244.7250 77.6076 L 244.5205 77.4151 L 244.3101 77.2291 L 244.0940 77.0497 L 243.8725 76.8771 L 243.6456 76.7115 L 243.4137 76.5531 L 243.1770 76.4020 L 242.5210 77.4661 Z"/>
<path fill="black" stroke="none" fill-rule="evenodd" d="M 246.5311 80.2005 L 246.8962 81.4724 L 246.7814 82.8792 L 248.5270 82.5482 L 249.8824 82.5700 L 250.5245 83.1232 L 250.8249 82.6359 L 252.4521 83.0663 L 252.7488 83.2515 L 253.7507 82.6690 L 255.5978 81.9916 L 255.2715 79.1590 L 254.8565 79.2166 L 254.4446 79.2935 L 254.0367 79.3894 L 253.6337 79.5043 L 253.2365 79.6378 L 252.8460 79.7896 L 252.4629 79.9594 L 252.0882 80.1469 L 251.7226 80.3516 L 251.3669 80.5731 L 251.0219 80.8110 L 250.6884 81.0646 L 250.6680 81.0816 L 250.5107 81.0060 L 250.1660 80.8576 L 249.8155 80.7237 L 249.4596 80.6046 L 249.0992 80.5003 L 248.7346 80.4112 L 248.3667 80.3374 L 247.9961 80.2790 L 247.6233 80.2360 L 247.2491 80.2087 L 246.8740 80.1969 L 246.5311 80.2005 Z"/>
<path fill="black" stroke="none" fill-rule="evenodd" d="M 246.7802 89.1964 L 247.4868 95.3320 L 249.4266 94.5813 L 250.3541 94.0198 L 250.5216 94.1286 L 252.3444 94.6454 L 254.4369 94.7161 L 256.6565 94.3359 L 257.0048 94.2082 L 256.3013 88.0999 L 255.2256 87.1732 L 255.2672 86.7558 L 254.8575 85.2269 L 253.8973 83.9684 L 252.7488 83.2515 L 251.7292 83.8442 L 251.5448 84.0022 L 250.5245 83.1232 L 246.7802 89.1964 Z"/>
<path fill="black" stroke="none" fill-rule="evenodd" d="M 255.5978 81.9916 L 256.3013 88.0999 L 261.0577 92.1976 L 262.5833 90.8903 L 263.8651 89.2349 L 264.6315 87.5021 L 264.8302 85.8101 L 264.4476 84.2741 L 263.5099 82.9988 L 262.0810 82.0712 L 260.2581 81.5544 L 258.1656 81.4837 L 255.9461 81.8638 L 255.5978 81.9916 Z"/>
<path fill="black" stroke="none" fill-rule="evenodd" d="M 257.0048 94.2082 L 257.3310 97.0408 L 257.7460 96.9832 L 258.1580 96.9063 L 258.5658 96.8103 L 258.9688 96.6955 L 259.3660 96.5620 L 259.7566 96.4102 L 260.1396 96.2403 L 260.5144 96.0529 L 260.8800 95.8481 L 261.2356 95.6266 L 261.5806 95.3888 L 261.9142 95.1352 L 262.2355 94.8663 L 262.5441 94.5827 L 262.8390 94.2851 L 263.1198 93.9741 L 261.0577 92.1976 L 260.8733 92.3555 L 258.8518 93.5308 L 257.0048 94.2082 Z"/>
<path fill="black" stroke="none" fill-rule="evenodd" d="M 260.5470 75.1697 L 260.8749 76.7183 L 261.7668 78.0260 L 263.1620 79.0037 L 264.9653 79.5848 L 267.0540 79.7296 L 269.2856 79.4284 L 271.5081 78.7015 L 273.5701 77.5987 L 273.9370 77.3062 L 269.1517 73.1836 L 262.9714 70.1737 L 261.6328 71.7813 L 260.8055 73.4858 L 260.5470 75.1697 Z"/>
<path fill="black" stroke="none" fill-rule="evenodd" d="M 261.0603 69.2430 L 262.9714 70.1737 L 262.9726 70.1723 L 264.3665 69.0611 L 262.3331 67.3094 L 262.2393 67.4201 L 262.1473 67.5322 L 262.0571 67.6459 L 261.9688 67.7610 L 261.8823 67.8775 L 261.7977 67.9953 L 261.7150 68.1146 L 261.6343 68.2351 L 261.5555 68.3569 L 261.4787 68.4800 L 261.4038 68.6043 L 261.3310 68.7298 L 261.2602 68.8564 L 261.1915 68.9842 L 261.1248 69.1131 L 261.0603 69.2430 Z"/>
<path fill="black" stroke="none" fill-rule="evenodd" d="M 264.3665 69.0611 L 269.1517 73.1836 L 275.3321 76.1935 L 276.6706 74.5860 L 277.4979 72.8815 L 277.7564 71.1976 L 277.4286 69.6490 L 276.5367 68.3413 L 275.1415 67.3636 L 273.3381 66.7825 L 271.2494 66.6377 L 269.0178 66.9389 L 266.7953 67.6657 L 264.7334 68.7686 L 264.3665 69.0611 Z"/>
<path fill="black" stroke="none" fill-rule="evenodd" d="M 273.9370 77.3062 L 275.9703 79.0579 L 276.0641 78.9472 L 276.1561 78.8350 L 276.2463 78.7214 L 276.3347 78.6063 L 276.4211 78.4898 L 276.5057 78.3719 L 276.5884 78.2527 L 276.6692 78.1322 L 276.7480 78.0104 L 276.8248 77.8873 L 276.8996 77.7630 L 276.9724 77.6375 L 277.0432 77.5108 L 277.1119 77.3831 L 277.1786 77.2542 L 277.2432 77.1243 L 275.3321 76.1935 L 275.3309 76.1950 L 273.9370 77.3062 Z"/>
<path fill="black" stroke="none" fill-rule="evenodd" d="M 277.8164 38.8506 L 278.0338 40.4185 L 278.8308 41.7861 L 280.1532 42.8602 L 281.9109 43.5676 L 283.9841 43.8601 L 286.2314 43.7177 L 288.4998 43.1501 L 290.6347 42.1961 L 292.4905 40.9207 L 292.8463 40.5503 L 286.5402 37.4791 L 279.6582 35.0076 L 279.1396 35.5476 L 278.1936 37.1893 L 277.8164 38.8506 Z"/>
<path fill="black" stroke="none" fill-rule="evenodd" d="M 278.0699 34.4372 L 279.6582 35.0076 L 280.2342 34.4080 L 278.4488 33.5385 L 278.4223 33.5934 L 278.3961 33.6485 L 278.3704 33.7038 L 278.3450 33.7593 L 278.3199 33.8149 L 278.2953 33.8707 L 278.2710 33.9266 L 278.2472 33.9827 L 278.2236 34.0390 L 278.2005 34.0954 L 278.1778 34.1520 L 278.1554 34.2088 L 278.1335 34.2657 L 278.1119 34.3227 L 278.0907 34.3799 L 278.0699 34.4372 Z"/>
<path fill="black" stroke="none" fill-rule="evenodd" d="M 280.2342 34.4080 L 286.5402 37.4791 L 293.4222 39.9507 L 293.9408 39.4107 L 294.8868 37.7690 L 295.2640 36.1077 L 295.0467 34.5398 L 294.2497 33.1722 L 292.9272 32.0981 L 291.1696 31.3907 L 289.0964 31.0982 L 286.8490 31.2406 L 284.5806 31.8082 L 282.4458 32.7622 L 280.5899 34.0376 L 280.2342 34.4080 Z"/>
<path fill="black" stroke="none" fill-rule="evenodd" d="M 292.8463 40.5503 L 294.6317 41.4198 L 294.6582 41.3649 L 294.6843 41.3098 L 294.7101 41.2545 L 294.7355 41.1990 L 294.7605 41.1434 L 294.7852 41.0876 L 294.8094 41.0317 L 294.8333 40.9756 L 294.8568 40.9193 L 294.8799 40.8629 L 294.9027 40.8063 L 294.9250 40.7495 L 294.9470 40.6926 L 294.9686 40.6356 L 294.9898 40.5784 L 295.0106 40.5211 L 293.4222 39.9507 L 292.8463 40.5503 Z"/>
  
</svg>