<svg xmlns="http://www.w3.org/2000/svg" width="321.3760" height="215.6371" viewBox="-16.1120 -107.7733 321.3760 215.6371">
  <path fill="black" stroke="none" fill-rule="evenodd" d="M -6.1120 1.2876 L -5.8986 3.5293 L -5.2833 5.5306 L -4.3079 7.1549 L -3.0389 8.2916 L -1.5628 8.8633 L 0.0197 8.8309 L 1.6010 8.1968 L 3.0731 7.0040 L 4.3358 5.3339 L 5.3030 3.3004 L 5.9088 1.0419 L 6.1120 -1.2876 L 5.8986 -3.5293 L 5.2833 -5.5306 L 4.3079 -7.1549 L 3.0389 -8.2916 L 1.5628 -8.8633 L -0.0197 -8.8309 L -1.6010 -8.1968 L -3.0731 -7.0040 L -4.3358 -5.3339 L -5.3030 -3.3004 L -5.9088 -1.0419 L -6.1120 1.2876 Z"/>
<path fill="black" stroke="none" fill-rule="evenodd" d="M 7.2719 38.3305 L 7.3259 40.5817 L 7.7980 42.6215 L 8.6558 44.3109 L 9.8411 45.5346 L 11.2730 46.2094 L 12.8538 46.2893 L 14.4760 45.7687 L 16.0290 44.6833 L 17.4068 43.1069 L 18.5157 41.1469 L 19.2800 38.9370 L 19.6476 36.6278 L 19.5936 34.3766 L 19.1216 32.3368 L 18.2637 30.6474 L 17.0785 29.4237 L 15.6466 28.7489 L 14.0657 28.6690 L 12.4435 29.1896 L 10.8906 30.2750 L 9.5128 31.8514 L 8.4039 33.8114 L 7.6396 36.0213 L 7.2719 38.3305 Z"/>
<path fill="black" stroke="none" fill-rule="evenodd" d="M 24.5101 75.8439 L 24.8364 77.9120 L 25.5724 79.6578 L 26.6680 80.9625 L 28.0485 81.7371 L 29.6197 81.9287 L 31.2747 81.5244 L 32.9006 80.5517 L 34.3867 79.0768 L 35.6316 77.2004 L 36.5506 75.0502 L 37.0809 72.7728 L 37.1865 70.5234 L 36.8602 68.4553 L 36.1241 66.7094 L 35.0286 65.4048 L 33.6481 64.6302 L 32.0768 64.4386 L 30.4219 64.8429 L 28.7959 65.8156 L 27.3099 67.2905 L 26.0650 69.1669 L 25.1460 71.3171 L 24.6157 73.5945 L 24.5101 75.8439 Z"/>
<path fill="black" stroke="none" fill-rule="evenodd" d="M 37.2702 90.5338 L 37.5230 92.6122 L 38.1967 94.3830 L 39.2454 95.7257 L 40.5975 96.5487 L 42.1610 96.7959 L 43.8293 96.4505 L 45.4886 95.5360 L 47.0260 94.1148 L 47.1092 93.9986 L 47.6073 95.3811 L 48.6320 96.7421 L 49.9693 97.5890 L 51.5282 97.8638 L 53.2023 97.5481 L 54.8776 96.6631 L 56.4400 95.2694 L 57.7829 93.4617 L 58.2928 92.4249 L 59.7012 92.6991 L 61.3806 92.4131 L 63.0714 91.5580 L 64.6582 90.1921 L 66.0329 88.4086 L 67.1019 86.3289 L 67.7923 84.0948 L 68.0570 81.8585 L 67.8780 79.7725 L 67.2675 77.9789 L 66.2671 76.5999 L 64.9449 75.7295 L 63.3912 75.4270 L 61.7117 75.7131 L 60.0210 76.5681 L 58.4342 77.9340 L 57.0594 79.7175 L 56.4935 80.8186 L 56.4703 80.8039 L 54.9115 80.5290 L 53.2373 80.8448 L 51.5620 81.7297 L 49.9996 83.1235 L 49.8001 83.3921 L 49.2008 81.8167 L 48.1521 80.4741 L 46.8000 79.6511 L 45.2365 79.4039 L 43.5682 79.7493 L 41.9088 80.6637 L 40.3714 82.0850 L 39.0608 83.9161 L 38.0662 86.0324 L 37.4555 88.2896 L 37.2702 90.5338 Z"/>
<path fill="black" stroke="none" fill-rule="evenodd" d="M 74.5645 51.3701 L 74.5952 53.4636 L 75.0771 55.2960 L 75.9773 56.7424 L 77.2344 57.7043 L 78.7629 58.1161 L 80.4584 57.9497 L 82.2054 57.2165 L 83.8850 55.9665 L 85.3827 54.2849 L 86.5963 52.2861 L 87.4432 50.1066 L 87.8656 47.8947 L 87.8349 45.8012 L 87.3530 43.9688 L 86.4528 42.5224 L 85.1956 41.5606 L 83.6672 41.1488 L 81.9717 41.3151 L 80.2246 42.0483 L 78.5451 43.2983 L 77.0474 44.9800 L 75.8338 46.9787 L 74.9869 49.1583 L 74.5645 51.3701 Z"/>
<path fill="black" stroke="none" fill-rule="evenodd" d="M 88.6388 15.8456 L 88.9897 17.7075 L 89.7851 19.2141 L 90.9710 20.2626 L 92.4664 20.7817 L 94.1694 20.7358 L 95.9640 20.1283 L 97.7279 19.0004 L 99.3410 17.4291 L 100.6931 15.5213 L 101.6923 13.4072 L 102.2704 11.2308 L 102.3880 9.1405 L 102.0371 7.2786 L 101.2417 5.7720 L 100.0559 4.7235 L 98.5605 4.2044 L 96.8574 4.2503 L 95.0628 4.8578 L 93.2989 5.9857 L 91.6859 7.5570 L 90.3337 9.4648 L 89.3345 11.5789 L 88.7564 13.7553 L 88.6388 15.8456 Z"/>
<path fill="black" stroke="none" fill-rule="evenodd" d="M 101.8783 -22.1290 L 102.0964 -20.2469 L 102.7832 -18.6878 L 103.8917 -17.5579 L 105.3466 -16.9342 L 107.0486 -16.8592 L 108.8818 -17.3381 L 110.7211 -18.3382 L 112.4414 -19.7913 L 113.9253 -21.5985 L 115.0718 -23.6365 L 115.8026 -25.7664 L 116.0680 -27.8432 L 115.8499 -29.7253 L 115.1632 -31.2844 L 114.0546 -32.4143 L 112.5998 -33.0380 L 110.8978 -33.1130 L 109.0646 -32.6341 L 107.2252 -31.6340 L 105.5049 -30.1809 L 104.0210 -28.3737 L 102.8746 -26.3357 L 102.1438 -24.2058 L 101.8783 -22.1290 Z"/>
<path fill="black" stroke="none" fill-rule="evenodd" d="M 116.9807 -59.3776 L 117.0649 -57.4848 L 117.6395 -55.8809 L 118.6652 -54.6753 L 120.0722 -53.9501 L 121.7647 -53.7548 L 123.6271 -54.1026 L 125.5328 -54.9699 L 127.3517 -56.2975 L 128.9599 -57.9949 L 130.2478 -59.9466 L 131.1277 -62.0194 L 131.5396 -64.0722 L 131.4554 -65.9650 L 130.8808 -67.5689 L 129.8551 -68.7745 L 128.4481 -69.4996 L 126.7557 -69.6950 L 124.8932 -69.3472 L 122.9876 -68.4799 L 121.1687 -67.1523 L 119.5604 -65.4549 L 118.2725 -63.5032 L 117.3926 -61.4303 L 116.9807 -59.3776 Z"/>
<path fill="black" stroke="none" fill-rule="evenodd" d="M 142.5225 -86.2803 L 142.9819 -84.6397 L 143.9197 -83.3645 L 145.2718 -82.5415 L 146.9461 -82.2267 L 148.8286 -82.4417 L 150.7908 -83.1718 L 151.4722 -83.5986 L 151.4253 -82.5375 L 151.8556 -80.8891 L 152.7706 -79.5975 L 154.1079 -78.7506 L 155.7764 -78.4062 L 157.6624 -78.5878 L 158.4251 -78.8563 L 157.8615 -77.0620 L 157.7443 -75.1710 L 158.1453 -73.5152 L 159.0373 -72.2075 L 160.3594 -71.3371 L 162.0215 -70.9632 L 163.9104 -71.1113 L 165.8973 -71.7714 L 167.8468 -72.8984 L 169.6262 -74.4156 L 171.1140 -76.2195 L 172.2090 -78.1872 L 172.8364 -80.1847 L 172.9536 -82.0757 L 172.5526 -83.7315 L 171.6606 -85.0392 L 170.3385 -85.9096 L 168.6764 -86.2835 L 166.7875 -86.1354 L 165.8372 -85.8197 L 166.4262 -87.8179 L 166.5099 -89.7108 L 166.0796 -91.3592 L 165.1646 -92.6508 L 163.8273 -93.4977 L 162.1588 -93.8421 L 160.2728 -93.6605 L 158.2979 -92.9653 L 157.4440 -92.4513 L 157.4775 -93.7197 L 157.0181 -95.3603 L 156.0803 -96.6355 L 154.7282 -97.4585 L 153.0539 -97.7733 L 151.1714 -97.5583 L 149.2092 -96.8282 L 147.3008 -95.6328 L 145.5763 -94.0535 L 144.1534 -92.1980 L 143.1288 -90.1927 L 142.5726 -88.1743 L 142.5225 -86.2803 Z"/>
<path fill="black" stroke="none" fill-rule="evenodd" d="M 168.0176 -58.5442 L 168.3597 -56.8753 L 169.2047 -55.5368 L 170.4951 -54.6201 L 172.1429 -54.1875 L 174.0359 -54.2686 L 176.0450 -54.8578 L 178.0332 -55.9150 L 179.8652 -57.3681 L 181.4161 -59.1182 L 182.5801 -61.0459 L 183.2780 -63.0198 L 183.4621 -64.9055 L 183.1200 -66.5745 L 182.2750 -67.9130 L 180.9846 -68.8297 L 179.3367 -69.2623 L 177.4438 -69.1812 L 175.4347 -68.5920 L 173.4464 -67.5348 L 171.6145 -66.0816 L 170.0636 -64.3316 L 168.8996 -62.4039 L 168.2017 -60.4300 L 168.0176 -58.5442 Z"/>
<path fill="black" stroke="none" fill-rule="evenodd" d="M 183.0986 -22.3605 L 183.3216 -20.6715 L 184.0697 -19.2766 L 185.2919 -18.2707 L 186.9050 -17.7225 L 188.7989 -17.6692 L 190.8447 -18.1146 L 192.9029 -19.0283 L 194.8332 -20.3480 L 196.5041 -21.9838 L 197.8018 -23.8242 L 198.6377 -25.7437 L 198.9550 -27.6117 L 198.7320 -29.3007 L 197.9839 -30.6956 L 196.7617 -31.7015 L 195.1487 -32.2497 L 193.2547 -32.3030 L 191.2090 -31.8575 L 189.1508 -30.9439 L 187.2205 -29.6242 L 185.5495 -27.9884 L 184.2519 -26.1480 L 183.4159 -24.2285 L 183.0986 -22.3605 Z"/>
<path fill="black" stroke="none" fill-rule="evenodd" d="M 196.3923 14.5504 L 196.4951 16.2509 L 197.1425 17.6954 L 198.2904 18.7853 L 199.8605 19.4464 L 201.7459 19.6337 L 203.8181 19.3343 L 205.9358 18.5687 L 207.9548 17.3891 L 209.7374 15.8758 L 211.1622 14.1320 L 212.1321 12.2765 L 212.5809 10.4357 L 212.4781 8.7352 L 211.8307 7.2907 L 210.6828 6.2008 L 209.1127 5.5397 L 207.2273 5.3524 L 205.1551 5.6518 L 203.0373 6.4174 L 201.0184 7.5970 L 199.2358 9.1103 L 197.8110 10.8541 L 196.8411 12.7096 L 196.3923 14.5504 Z"/>
<path fill="black" stroke="none" fill-rule="evenodd" d="M 210.5473 52.8147 L 211.0907 54.3014 L 212.1585 55.4699 L 213.6779 56.2406 L 215.5453 56.5609 L 217.6335 56.4091 L 219.8001 55.7955 L 221.8976 54.7619 L 223.7829 53.3787 L 225.3277 51.7402 L 226.4265 49.9580 L 227.0047 48.1537 L 227.0226 46.4501 L 226.4792 44.9635 L 225.4114 43.7949 L 223.8920 43.0242 L 222.0246 42.7039 L 219.9364 42.8557 L 217.7698 43.4693 L 215.6723 44.5029 L 213.7870 45.8861 L 212.2422 47.5246 L 211.1434 49.3068 L 210.5653 51.1111 L 210.5473 52.8147 Z"/>
<path fill="black" stroke="none" fill-rule="evenodd" d="M 230.0114 86.6537 L 230.4482 88.1752 L 231.4305 89.4164 L 232.8914 90.2928 L 234.7314 90.7447 L 236.8251 90.7412 L 238.4152 90.4104 L 238.2932 91.6371 L 238.7029 93.1660 L 239.6631 94.4245 L 241.1083 95.3266 L 242.9400 95.8110 L 245.0334 95.8447 L 247.2459 95.4252 L 249.4266 94.5813 L 250.3541 94.0198 L 250.5216 94.1286 L 252.3444 94.6454 L 254.4369 94.7161 L 256.6565 94.3359 L 258.8518 93.5308 L 260.8733 92.3555 L 262.5833 90.8903 L 263.8651 89.2349 L 264.6315 87.5021 L 264.8302 85.8101 L 264.4476 84.2741 L 263.5099 82.9988 L 262.0810 82.0712 L 260.2581 81.5544 L 258.1656 81.4837 L 255.9461 81.8638 L 253.7507 82.6690 L 252.7488 83.2515 L 252.4521 83.0663 L 250.6204 82.5819 L 248.5270 82.5482 L 246.7814 82.8792 L 246.8962 81.4724 L 246.4595 79.9509 L 245.4771 78.7097 L 244.0162 77.8333 L 242.1762 77.3814 L 240.0825 77.3849 L 237.8778 77.8435 L 235.7124 78.7260 L 233.7338 79.9721 L 232.0768 81.4971 L 230.8545 83.1969 L 230.1500 84.9557 L 230.0114 86.6537 Z"/>
<path fill="black" stroke="none" fill-rule="evenodd" d="M 260.5470 75.1697 L 260.8749 76.7183 L 261.7668 78.0260 L 263.1620 79.0037 L 264.9653 79.5848 L 267.0540 79.7296 L 269.2856 79.4284 L 271.5081 78.7015 L 273.5701 77.5987 L 275.3309 76.1950 L 276.6706 74.5860 L 277.4979 72.8815 L 277.7564 71.1976 L 277.4286 69.6490 L 276.5367 68.3413 L 275.1415 67.3636 L 273.3381 66.7825 L 271.2494 66.6377 L 269.0178 66.9389 L 266.7953 67.6657 L 264.7334 68.7686 L 262.9726 70.1723 L 261.6328 71.7813 L 260.8055 73.4858 L 260.5470 75.1697 Z"/>
<path fill="black" stroke="none" fill-rule="evenodd" d="M 277.8164 38.8506 L 278.0338 40.4185 L 278.8308 41.7861 L 280.1532 42.8602 L 281.9109 43.5676 L 283.9841 43.8601 L 286.2314 43.7177 L 288.4998 43.1501 L 290.6347 42.1961 L 292.4905 40.9207 L 293.9408 39.4107 L 294.8868 37.7690 L 295.2640 36.1077 L 295.0467 34.5398 L 294.2497 33.1722 L 292.9272 32.0981 L 291.1696 31.3907 L 289.0964 31.0982 L 286.8490 31.2406 L 284.5806 31.8082 L 282.4458 32.7622 L 280.5899 34.0376 L 279.1396 35.5476 L 278.1936 37.1893 L 277.8164 38.8506 Z"/>
  
</svg>