<svg xmlns="http://www.w3.org/2000/svg" width="333.9457" height="217.1941" viewBox="-16.1120 -108.9981 333.9457 217.1941">
  
  
  <path fill="black" stroke="none" fill-rule="evenodd" d="M -6.1120 1.2876 L -5.8986 3.5293 L -5.2833 5.5306 L -4.9656 6.0595 L -4.9551 6.1763 L -4.3500 8.1806 L -4.0186 8.7388 L -4.0115 8.8232 L -3.4166 10.8306 L -3.0718 11.4182 L -3.0677 11.4700 L -2.4830 13.4804 L -2.1251 14.0975 L -2.1237 14.1167 L -1.5493 16.1300 L -1.1731 16.7864 L -0.6155 18.7795 L -0.2136 19.4892 L 0.3185 21.4289 L 0.7456 22.1920 L 1.2527 24.0781 L 1.7044 24.8950 L 2.1869 26.7272 L 2.6627 27.5982 L 3.1213 29.3762 L 3.6207 30.3014 L 4.0559 32.0250 L 4.5782 33.0047 L 4.9906 34.6736 L 5.5353 35.7081 L 5.9254 37.3222 L 6.4920 38.4116 L 6.8340 39.8587 L 7.3036 39.6900 L 7.3219 40.4684 L 7.1573 40.5485 L 7.4483 41.1151 L 7.7956 42.6189 L 8.6527 44.3086 L 8.8760 44.5394 L 9.0115 45.1403 L 9.8600 46.8344 L 10.1009 47.0858 L 10.2277 47.6617 L 11.0675 49.3600 L 11.3256 49.6322 L 11.4439 50.1829 L 12.2752 51.8855 L 12.5503 52.1786 L 12.6604 52.7039 L 13.4829 54.4107 L 13.7748 54.7249 L 13.8769 55.2248 L 14.6908 56.9358 L 14.9993 57.2713 L 15.0937 57.7457 L 15.8988 59.4607 L 16.2236 59.8176 L 16.3105 60.2663 L 17.1070 61.9855 L 17.4478 62.3638 L 17.5276 62.7869 L 18.3152 64.5101 L 18.6720 64.9101 L 18.7447 65.3073 L 19.5236 67.0345 L 19.8960 67.4563 L 19.9621 67.8276 L 20.7322 69.5587 L 21.1199 70.0025 L 21.1795 70.3478 L 21.9408 72.0828 L 22.3437 72.5486 L 22.3972 72.8678 L 23.1496 74.6067 L 23.5674 75.0948 L 23.6150 75.3877 L 24.0808 76.4795 L 24.5711 76.2407 L 24.7910 77.6408 L 25.1638 78.0809 L 24.9745 78.2440 L 25.5677 79.6540 L 26.6623 80.9594 L 27.1543 81.2360 L 27.3709 81.7581 L 28.4589 83.0691 L 28.9685 83.3589 L 29.1743 83.8622 L 30.2557 85.1786 L 30.7826 85.4818 L 30.9778 85.9660 L 32.0525 87.2879 L 32.5967 87.6047 L 32.7814 88.0697 L 33.8495 89.3970 L 34.4107 89.7275 L 34.5852 90.1733 L 35.6465 91.5059 L 36.2247 91.8503 L 36.3891 92.2767 L 37.3846 93.5396 L 37.7534 93.2219 L 38.0387 93.9731 L 38.7995 94.4316 L 40.3641 94.6718 L 40.5484 94.6328 L 41.5886 95.9781 L 42.7118 96.6692 L 42.7105 96.6806 L 42.7252 96.6775 L 42.9367 96.8076 L 44.4990 97.0625 L 45.0820 96.9447 L 45.2808 97.0682 L 46.8419 97.3297 L 47.4388 97.2119 L 47.6249 97.3286 L 49.1849 97.5969 L 49.7956 97.4790 L 49.9691 97.5889 L 51.5280 97.8638 L 52.2370 97.7301 L 52.3833 96.4598 L 52.5257 96.3838 L 53.5716 96.5730 L 55.2471 96.2646 L 55.4335 96.1672 L 56.4398 95.2694 L 56.5560 95.1131 L 56.8365 95.0627 L 56.9976 95.3240 L 57.5173 94.8645 L 58.9751 94.1107 L 59.6013 93.5620 L 61.0239 92.8343 L 61.6855 92.2596 L 63.0727 91.5577 L 64.6593 90.1916 L 65.0288 89.7119 L 64.5810 88.9855 L 66.0331 87.7480 L 66.6376 86.9716 L 66.7412 87.0308 L 67.0316 86.4655 L 67.4165 85.9712 L 68.4596 83.9661 L 68.7992 83.5345 L 69.8881 81.4670 L 70.1818 81.0976 L 71.2819 79.0343 L 71.2941 78.9970 L 71.5642 78.6607 L 72.6749 76.6029 L 72.6998 76.5276 L 72.9466 76.2236 L 74.0676 74.1715 L 74.1057 74.0584 L 74.3288 73.7864 L 75.4603 71.7401 L 75.5119 71.5893 L 75.7109 71.3491 L 76.8528 69.3086 L 76.9183 69.1203 L 77.0930 68.9117 L 78.2451 66.8770 L 78.3249 66.6514 L 78.4749 66.4742 L 79.6373 64.4453 L 79.7318 64.1826 L 79.8567 64.0366 L 81.0294 62.0136 L 81.1389 61.7140 L 81.2383 61.5988 L 82.4213 59.5818 L 82.5462 59.2454 L 82.6199 59.1609 L 83.8131 57.1500 L 83.9537 56.7770 L 84.0014 56.7229 L 85.2048 54.7181 L 85.3615 54.3087 L 85.3827 54.2848 L 86.4068 52.5982 L 86.0650 52.4030 L 86.1584 51.8998 L 86.3803 51.6532 L 86.3963 51.6271 L 86.7930 51.7799 L 87.4432 50.1065 L 87.4942 49.8395 L 87.6040 49.6606 L 88.4620 47.4854 L 88.5221 47.1793 L 88.6116 47.0351 L 89.4807 44.8643 L 89.5502 44.5191 L 89.6191 44.4096 L 90.4991 42.2432 L 90.5786 41.8591 L 90.6264 41.7839 L 91.5175 39.6221 L 91.6072 39.1992 L 91.6335 39.1582 L 92.5356 37.0009 L 92.6360 36.5394 L 92.6406 36.5324 L 93.5537 34.3797 L 93.6716 33.8504 L 94.5715 31.7586 L 94.7095 31.1540 L 95.5892 29.1374 L 95.7479 28.4577 L 96.6067 26.5162 L 96.7870 25.7616 L 97.6241 23.8949 L 97.8267 23.0658 L 98.6413 21.2737 L 98.8669 20.3701 L 99.6583 18.6524 L 99.9078 17.6747 L 100.6752 16.0311 L 100.9493 14.9795 L 101.1068 14.6465 L 101.0425 14.6217 L 101.0766 14.4909 L 101.1653 14.5228 L 101.6919 13.4098 L 102.0805 11.9492 L 102.6486 10.7642 L 103.0650 9.2307 L 103.6051 8.1185 L 104.0500 6.5125 L 104.5614 5.4729 L 105.0356 3.7946 L 105.5176 2.8272 L 106.0217 1.0769 L 106.4736 0.1815 L 107.0084 -1.6405 L 107.4295 -2.4642 L 107.9957 -4.3575 L 108.3852 -5.1100 L 108.9836 -7.0743 L 109.3407 -7.7558 L 109.9720 -9.7908 L 110.2961 -10.4016 L 110.9610 -12.5070 L 111.2513 -13.0474 L 111.9404 -15.1913 L 111.9422 -15.2074 L 112.2064 -15.6933 L 112.9064 -17.8336 L 112.9125 -17.8871 L 113.1613 -18.3392 L 113.8722 -20.4759 L 113.8830 -20.5667 L 114.1160 -20.9852 L 114.6681 -22.6165 L 117.2825 -21.5286 L 117.2932 -21.5543 L 117.3038 -21.5801 L 117.3143 -21.6059 L 117.3247 -21.6317 L 117.3351 -21.6576 L 117.3453 -21.6835 L 117.3555 -21.7094 L 117.3656 -21.7354 L 117.3756 -21.7614 L 117.3856 -21.7874 L 117.3954 -21.8134 L 117.4052 -21.8395 L 117.4149 -21.8656 L 117.4245 -21.8918 L 117.4341 -21.9180 L 117.4435 -21.9442 L 114.7660 -22.9058 L 114.8378 -23.1182 L 114.8537 -23.2463 L 115.0706 -23.6311 L 115.6700 -25.3730 L 116.1555 -26.2243 L 116.7893 -28.0360 L 117.2403 -28.8175 L 117.9092 -30.6987 L 118.3250 -31.4107 L 119.0296 -33.3611 L 119.4094 -34.0040 L 120.1506 -36.0231 L 120.4937 -36.5973 L 121.2721 -38.6848 L 121.5779 -39.1906 L 122.3753 -41.2966 L 122.3794 -41.3222 L 122.6619 -41.7840 L 123.4700 -43.8859 L 123.4804 -43.9485 L 123.7458 -44.3774 L 124.5646 -46.4752 L 124.5815 -46.5748 L 124.8294 -46.9709 L 125.6589 -49.0644 L 125.6829 -49.2009 L 125.9130 -49.5644 L 126.7531 -51.6537 L 126.7845 -51.8269 L 126.9963 -52.1580 L 127.8471 -54.2429 L 127.8862 -54.4528 L 128.0796 -54.7516 L 128.9410 -56.8322 L 128.9881 -57.0786 L 129.1285 -57.2931 L 130.9155 -55.6663 L 131.0443 -55.8109 L 131.1699 -55.9582 L 131.2924 -56.1081 L 131.4116 -56.2607 L 131.5274 -56.4158 L 131.6400 -56.5733 L 131.7491 -56.7333 L 131.8547 -56.8955 L 131.9568 -57.0600 L 132.0554 -57.2266 L 132.1503 -57.3953 L 132.2416 -57.5660 L 132.3292 -57.7387 L 132.4131 -57.9132 L 132.4932 -58.0894 L 132.5695 -58.2674 L 130.1035 -59.2935 L 130.9153 -60.1392 L 131.2168 -60.5896 L 131.2472 -60.6113 L 132.8754 -62.2896 L 133.2066 -62.7788 L 134.8354 -64.4401 L 135.2180 -64.9989 L 136.7952 -66.5908 L 137.2299 -67.2184 L 138.7549 -68.7415 L 139.2424 -69.4376 L 140.7145 -70.8923 L 141.2556 -71.6563 L 142.6740 -73.0433 L 143.2693 -73.8745 L 144.6333 -75.1944 L 145.2836 -76.0923 L 146.5925 -77.3455 L 147.2984 -78.3095 L 148.5516 -79.4968 L 149.3138 -80.5263 L 149.5399 -80.7383 L 149.6986 -80.6400 L 150.7086 -80.4421 L 151.9080 -79.6920 L 152.8788 -79.4974 L 153.0144 -79.3743 L 153.2100 -79.2068 L 153.4103 -79.0448 L 153.4496 -79.0149 L 154.3457 -77.7415 L 154.9687 -77.3443 L 155.0072 -77.1923 L 155.9124 -75.8938 L 156.5456 -75.4862 L 156.5797 -75.3487 L 157.4792 -74.0462 L 157.6863 -73.9116 L 157.6824 -73.9092 L 157.7280 -73.8358 L 157.7743 -73.7628 L 157.8213 -73.6903 L 157.8690 -73.6183 L 157.9174 -73.5467 L 157.9665 -73.4755 L 158.0163 -73.4049 L 158.0667 -73.3347 L 158.1179 -73.2651 L 158.1696 -73.1959 L 158.2221 -73.1272 L 158.2752 -73.0590 L 158.3289 -72.9913 L 158.3833 -72.9242 L 158.4384 -72.8576 L 158.4941 -72.7915 L 158.5867 -72.8703 L 159.0462 -72.1988 L 159.4131 -71.9580 L 159.6109 -71.1278 L 160.4980 -69.8168 L 160.8803 -69.5631 L 161.0696 -68.7505 L 161.9501 -67.4350 L 162.3476 -67.1683 L 162.5285 -66.3733 L 163.4022 -65.0534 L 163.8148 -64.7735 L 163.9876 -63.9962 L 164.8546 -62.6719 L 165.2821 -62.3787 L 165.4468 -61.6193 L 166.3071 -60.2906 L 166.7494 -59.9840 L 166.9063 -59.2425 L 167.5096 -58.3003 L 167.4305 -58.2674 L 167.4648 -58.1860 L 167.4999 -58.1050 L 167.5358 -58.0243 L 167.5725 -57.9440 L 167.6100 -57.8640 L 167.6483 -57.7844 L 167.6874 -57.7052 L 167.7272 -57.6264 L 167.7678 -57.5480 L 167.8092 -57.4700 L 167.8513 -57.3924 L 167.8942 -57.3152 L 167.9378 -57.2384 L 167.9822 -57.1620 L 168.0274 -57.0862 L 168.0733 -57.0107 L 168.3064 -57.1541 L 168.3659 -56.8658 L 169.1678 -55.5992 L 169.4332 -54.2792 L 170.2497 -52.9750 L 170.5006 -51.6928 L 171.3313 -50.3507 L 171.5683 -49.1065 L 172.3945 -47.7563 L 172.4093 -47.7455 L 172.6361 -46.5203 L 173.4555 -45.1659 L 173.4868 -45.1428 L 173.7042 -43.9342 L 174.5166 -42.5757 L 174.5643 -42.5400 L 174.7724 -41.3482 L 175.5779 -39.9856 L 175.6418 -39.9373 L 175.8409 -38.7624 L 176.6394 -37.3957 L 176.7194 -37.3346 L 176.9095 -36.1767 L 177.7011 -34.8059 L 177.7970 -34.7319 L 177.9783 -33.5911 L 178.7629 -32.2163 L 178.8746 -32.1292 L 179.0473 -31.0056 L 179.8249 -29.6268 L 179.9523 -29.5265 L 180.1165 -28.4202 L 180.8871 -27.0375 L 181.0299 -26.9238 L 181.1860 -25.8350 L 181.9494 -24.4484 L 182.1076 -24.3211 L 182.2556 -23.2498 L 182.8989 -22.0672 L 182.5565 -21.9442 L 182.5659 -21.9180 L 182.5755 -21.8918 L 182.5851 -21.8656 L 182.5948 -21.8395 L 182.6046 -21.8134 L 182.6144 -21.7874 L 182.6244 -21.7614 L 182.6344 -21.7354 L 182.6445 -21.7094 L 182.6547 -21.6835 L 182.6649 -21.6576 L 182.6753 -21.6317 L 182.6857 -21.6059 L 182.6962 -21.5801 L 182.7068 -21.5543 L 182.7175 -21.5286 L 183.1814 -21.7216 L 183.1853 -21.7184 L 183.3254 -20.6648 L 184.0747 -19.2705 L 184.1097 -19.2417 L 184.2649 -18.0270 L 185.0071 -16.6289 L 185.0578 -16.5868 L 185.2046 -15.3894 L 185.9396 -13.9875 L 186.0059 -13.9319 L 186.1444 -12.7518 L 186.8724 -11.3462 L 186.9541 -11.2770 L 187.0845 -10.1144 L 187.8053 -8.7051 L 187.9022 -8.6221 L 188.0248 -7.4771 L 188.7384 -6.0641 L 188.8504 -5.9672 L 188.9653 -4.8399 L 189.6716 -3.4233 L 189.7986 -3.3123 L 189.9060 -2.2027 L 190.6051 -0.7826 L 190.7469 -0.6574 L 190.8469 0.4343 L 191.5388 1.8580 L 191.6952 1.9975 L 191.7880 3.0712 L 192.4726 4.4984 L 192.6435 4.6524 L 192.7293 5.7080 L 193.4066 7.1386 L 193.5918 7.3073 L 193.6708 8.3447 L 194.3408 9.7788 L 194.5401 9.9621 L 194.6126 10.9813 L 195.2752 12.4188 L 195.4885 12.6170 L 195.5545 13.6178 L 196.2098 15.0586 L 196.4368 15.2718 L 196.4435 15.3815 L 196.5232 15.3529 L 196.6788 15.4990 L 196.4559 15.5848 L 196.4966 16.2542 L 197.1446 17.6984 L 197.4499 17.9880 L 197.4989 18.8662 L 198.1395 20.3137 L 198.4578 20.6188 L 198.5013 21.4782 L 199.1346 22.9289 L 199.4657 23.2496 L 199.5040 24.0900 L 200.1298 25.5440 L 200.4737 25.8803 L 200.5069 26.7018 L 201.1253 28.1589 L 201.4816 28.5110 L 201.5100 29.3135 L 202.1210 30.7737 L 202.4896 31.1418 L 202.5133 31.9251 L 203.1168 33.3884 L 203.4976 33.7724 L 203.5168 34.5366 L 204.1129 36.0030 L 204.5056 36.4031 L 204.5205 37.1480 L 205.1091 38.6174 L 205.5136 39.0337 L 205.5244 39.7593 L 206.1055 41.2317 L 206.5216 41.6644 L 206.5286 42.3705 L 207.1022 43.8458 L 207.5297 44.2950 L 207.5329 44.9817 L 208.0990 46.4599 L 208.5377 46.9255 L 208.5375 47.5927 L 209.0960 49.0738 L 209.5458 49.5561 L 209.5423 50.2037 L 210.0933 51.6876 L 210.5539 52.1866 L 210.5474 52.8038 L 210.9726 52.6401 L 211.1670 52.8507 L 212.0410 53.2885 L 211.9628 53.5286 L 211.9627 53.5297 L 211.0080 54.0751 L 211.0907 54.3013 L 211.9362 55.2266 L 211.9361 55.2320 L 212.4720 56.7215 L 213.3342 57.6747 L 213.8535 59.1416 L 214.7353 60.1265 L 215.2352 61.5616 L 216.1364 62.5784 L 216.6172 63.9814 L 217.5373 65.0304 L 217.9993 66.4012 L 218.9381 67.4825 L 219.3816 68.8208 L 220.3388 69.9346 L 220.7641 71.2403 L 221.7393 72.3868 L 222.1468 73.6597 L 223.1398 74.8391 L 223.5298 76.0790 L 224.5400 77.2915 L 224.9129 78.4982 L 225.9200 79.7194 L 225.9354 79.7282 L 226.2962 80.9172 L 227.2971 82.1435 L 227.3302 82.1627 L 227.6798 83.3362 L 228.6744 84.5676 L 228.7250 84.5972 L 229.0635 85.7551 L 230.0519 86.9914 L 230.1198 87.0318 L 230.4474 88.1738 L 230.6997 88.4927 L 231.7204 87.9096 L 232.1109 88.0034 L 232.5111 89.4220 L 233.2653 90.3840 L 234.3869 90.6596 L 234.1387 91.0622 L 234.9447 91.5508 L 235.3351 91.6485 L 235.5461 91.9201 L 236.9991 92.8095 L 237.4048 92.9130 L 237.6046 93.1724 L 239.0537 94.0682 L 239.4747 94.1775 L 239.6632 94.4246 L 241.1084 95.3268 L 242.7355 95.7570 L 243.2625 94.9022 L 243.4624 95.0282 L 245.2920 95.5204 L 246.6032 95.5471 L 247.2460 95.4252 L 247.4868 95.3320 L 247.5108 95.5398 L 249.0048 95.2631 L 249.7370 95.2812 L 251.4064 94.9795 L 252.0888 94.9992 L 253.8081 94.6961 L 254.4407 94.7171 L 256.6600 94.3357 L 257.0049 94.2090 L 256.9278 93.5397 L 258.5137 92.6074 L 259.3449 91.8881 L 260.2982 91.5433 L 261.0573 92.1972 L 262.5849 90.8867 L 263.8295 89.2774 L 264.4065 88.7875 L 265.6957 87.1378 L 265.6974 87.1342 L 266.2280 86.6881 L 267.5255 85.0450 L 267.5404 85.0121 L 268.0493 84.5887 L 269.3551 82.9521 L 269.3836 82.8902 L 269.8705 82.4893 L 271.1845 80.8593 L 271.2269 80.7685 L 271.6915 80.3897 L 273.0138 78.7664 L 273.0702 78.6468 L 273.5124 78.2901 L 274.1623 77.5003 L 273.9363 77.3056 L 274.9136 76.5253 L 275.1214 76.0909 L 275.3303 76.1927 L 275.3331 76.1904 L 276.6716 74.5805 L 277.4977 72.8753 L 277.5575 72.4838 L 277.9065 72.0684 L 278.7412 70.3675 L 278.8072 69.9496 L 279.1411 69.5562 L 279.9844 67.8596 L 280.0569 67.4156 L 280.3755 67.0440 L 281.2275 65.3517 L 281.3067 64.8817 L 281.6098 64.5318 L 282.4704 62.8438 L 282.5565 62.3478 L 282.8439 62.0195 L 283.7130 60.3360 L 283.8064 59.8141 L 284.0777 59.5072 L 284.9554 57.8281 L 285.0563 57.2805 L 285.3114 56.9949 L 286.1976 55.3202 L 286.3062 54.7469 L 286.5449 54.4825 L 287.4396 52.8124 L 287.5562 52.2135 L 287.7782 51.9701 L 288.6814 50.3045 L 288.8062 49.6802 L 289.0113 49.4576 L 289.9229 47.7967 L 290.0563 47.1470 L 290.2442 46.9451 L 291.1643 45.2888 L 291.3064 44.6139 L 291.4769 44.4325 L 292.4054 42.7809 L 292.5565 42.0809 L 292.7094 41.9199 L 293.3492 40.7952 L 292.8453 40.5498 L 293.4208 39.9501 L 293.6959 40.0489 L 293.8067 39.5480 L 293.9417 39.4072 L 294.8870 37.7652 L 295.2527 36.1506 L 295.8468 35.1306 L 296.2315 33.4717 L 296.8064 32.4961 L 297.1998 30.8384 L 297.1969 30.8159 L 297.7659 29.8615 L 298.1676 28.2059 L 298.1620 28.1605 L 298.7251 27.2270 L 299.1353 25.5734 L 299.1272 25.5051 L 299.6840 24.5924 L 300.1027 22.9410 L 300.0923 22.8498 L 300.6428 21.9578 L 301.0698 20.3085 L 301.0575 20.1945 L 301.6013 19.3232 L 302.0368 17.6761 L 302.0227 17.5392 L 302.5597 16.6886 L 303.0035 15.0437 L 302.9879 14.8839 L 303.5178 14.0539 L 303.9700 12.4114 L 303.9531 12.2287 L 304.4757 11.4193 L 304.9363 9.7791 L 304.9183 9.5735 L 305.4334 8.7846 L 305.9023 7.1468 L 305.8835 6.9184 L 306.3908 6.1499 L 306.8681 4.5145 L 306.8487 4.2633 L 307.3481 3.5152 L 307.8337 1.8822 L 307.7199 0.3034 L 307.0146 -1.1136 L 305.7656 -2.2723 L 304.0583 -3.0938 L 302.0088 -3.5219 L 299.7570 -3.5276 L 297.4561 -3.1105 L 295.2632 -2.2989 L 293.3275 -1.1483 L 291.7810 0.2631 L 290.7291 1.8389 L 290.2435 3.4719 L 290.2668 3.7960 L 289.7635 4.5584 L 289.2862 6.1938 L 289.3095 6.4947 L 288.7982 7.2779 L 288.3292 8.9157 L 288.3521 9.1934 L 287.8330 9.9974 L 287.3724 11.6376 L 287.3947 11.8920 L 286.8681 12.7169 L 286.4159 14.3594 L 286.4373 14.5906 L 285.9034 15.4364 L 285.4595 17.0812 L 285.4799 17.2892 L 284.9389 18.1560 L 284.5034 19.8030 L 284.5224 19.9878 L 283.9746 20.8755 L 283.5476 22.5248 L 283.5650 22.6863 L 283.0105 23.5951 L 282.5919 25.2465 L 282.6076 25.3847 L 282.0467 26.3147 L 281.6365 27.9682 L 281.6501 28.0832 L 281.0831 29.0343 L 280.6813 30.6899 L 280.6926 30.7816 L 280.1197 31.7539 L 279.7263 33.4115 L 279.7351 33.4800 L 279.4243 34.0136 L 279.8292 34.2108 L 279.8996 34.7581 L 279.6597 35.0082 L 279.0807 34.8002 L 278.7716 36.1331 L 278.7776 36.1783 L 278.1935 37.1931 L 278.0081 38.0115 L 277.8870 38.1391 L 276.9501 39.7859 L 276.7747 40.5790 L 276.6354 40.7271 L 275.7069 42.3787 L 275.5412 43.1463 L 275.3840 43.3151 L 274.4640 44.9714 L 274.3077 45.7135 L 274.1329 45.9033 L 273.2212 47.5642 L 273.0742 48.2806 L 272.8819 48.4914 L 271.9787 50.1570 L 271.8406 50.8475 L 271.6311 51.0796 L 270.7364 52.7498 L 270.6070 53.4144 L 270.3805 53.6679 L 269.4943 55.3425 L 269.3734 55.9811 L 269.1301 56.2562 L 268.2525 57.9353 L 268.1397 58.5478 L 267.8799 58.8445 L 267.0108 60.5281 L 266.9059 61.1143 L 266.6299 61.4329 L 265.7694 63.1209 L 265.6721 63.6808 L 265.3801 64.0213 L 264.5281 65.7136 L 264.4383 66.2471 L 264.1305 66.6098 L 263.3481 68.1838 L 263.5716 68.3763 L 263.2044 68.8134 L 263.0127 69.9878 L 263.0397 70.1215 L 262.9732 70.1746 L 262.5121 69.9501 L 262.0463 70.8992 L 261.9705 71.3795 L 261.6318 71.7868 L 261.5214 72.0147 L 261.1195 72.3390 L 259.7891 73.9556 L 259.6939 74.1546 L 259.2688 74.5011 L 257.9466 76.1245 L 257.8664 76.2943 L 257.4182 76.6634 L 256.1042 78.2934 L 256.0387 78.4339 L 255.5679 78.8257 L 255.2754 79.1923 L 255.3264 79.6358 L 254.2110 80.5734 L 253.7366 81.6052 L 253.5841 81.6929 L 253.1668 82.0473 L 252.8337 82.1075 L 252.6684 82.3169 L 251.7755 82.2987 L 251.3443 82.3766 L 251.1992 82.2870 L 251.0420 82.2838 L 250.9099 82.4981 L 250.6600 82.5923 L 250.6599 82.5923 L 250.6591 82.5893 L 250.4848 82.3651 L 249.7932 82.4931 L 249.4827 82.2256 L 249.7635 81.9146 L 249.9717 81.7046 L 249.9296 81.6505 L 248.5670 81.2966 L 248.5597 81.2708 L 247.8365 80.3484 L 247.3048 80.2127 L 247.6233 80.2360 L 247.7608 80.2519 L 247.5831 80.0251 L 246.1261 79.1421 L 245.9619 79.1009 L 245.9749 79.1201 L 246.1255 79.3571 L 246.2686 79.5988 L 246.2079 79.6335 L 245.7433 79.0462 L 245.4779 78.9797 L 245.4785 78.9717 L 245.3861 78.6557 L 244.0173 77.8343 L 243.9634 77.8210 L 244.0226 76.9940 L 244.0940 77.0497 L 244.3101 77.2291 L 244.5205 77.4151 L 244.7250 77.6076 L 244.9233 77.8065 L 245.1154 78.0114 L 245.2386 78.1513 L 245.0343 77.4524 L 244.0459 76.2160 L 243.9714 76.1718 L 243.6082 74.9526 L 242.6135 73.7212 L 242.5566 73.6878 L 242.1819 72.4529 L 241.1810 71.2266 L 241.1418 71.2039 L 240.7554 69.9533 L 239.7483 68.7321 L 239.7269 68.7198 L 239.3287 67.4538 L 238.3154 66.2377 L 238.3120 66.2358 L 237.9018 64.9544 L 236.9019 63.7668 L 236.4747 62.4552 L 235.4931 61.3012 L 235.0473 59.9560 L 234.0844 58.8355 L 233.6198 57.4570 L 232.6758 56.3698 L 232.1921 54.9581 L 231.2674 53.9039 L 230.7642 52.4593 L 229.8592 51.4380 L 229.3361 49.9606 L 228.4434 48.9636 L 228.4436 48.9514 L 227.9077 47.4620 L 227.0223 46.4831 L 227.0225 46.4610 L 227.0076 46.4668 L 226.8459 46.2881 L 225.8722 45.7879 L 225.9506 45.5390 L 226.5619 45.1898 L 226.4792 44.9636 L 225.9814 44.4187 L 225.9850 43.7555 L 225.4340 42.2716 L 224.9469 41.7440 L 224.9472 41.0609 L 224.3886 39.5798 L 223.9124 39.0692 L 223.9091 38.3663 L 223.3430 36.8881 L 222.8779 36.3945 L 222.8708 35.6718 L 222.2972 34.1965 L 221.8434 33.7198 L 221.8324 32.9774 L 221.2513 31.5050 L 220.8089 31.0451 L 220.7937 30.2831 L 220.2051 28.8137 L 219.7744 28.3704 L 219.7548 27.5889 L 219.1587 26.1225 L 218.7399 25.6958 L 218.7156 24.8948 L 218.1121 23.4314 L 217.7053 23.0211 L 217.6763 22.2007 L 217.0653 20.7405 L 216.6707 20.3465 L 216.6368 19.5068 L 216.0184 18.0497 L 215.6362 17.6720 L 215.5970 16.8129 L 214.9712 15.3590 L 214.6016 14.9974 L 214.5571 14.1192 L 213.9239 12.6684 L 213.5669 12.3229 L 213.5169 11.4255 L 212.8763 9.9780 L 212.5323 9.6483 L 212.5297 9.6046 L 212.4984 9.6158 L 212.3441 9.4680 L 212.5173 9.4013 L 212.4766 8.7319 L 211.8286 7.2877 L 211.5633 7.0360 L 211.4959 6.0142 L 210.8405 4.5733 L 210.5889 4.3370 L 210.5150 3.2965 L 209.8523 1.8590 L 209.6146 1.6380 L 209.5339 0.5789 L 208.8639 -0.8552 L 208.6402 -1.0610 L 208.5526 -2.1385 L 207.8753 -3.5692 L 207.6658 -3.7600 L 207.5710 -4.8559 L 206.8865 -6.2831 L 206.6914 -6.4589 L 206.5893 -7.5731 L 205.8975 -8.9969 L 205.7170 -9.1579 L 205.6074 -10.2903 L 204.9083 -11.7105 L 204.7425 -11.8569 L 204.6253 -13.0074 L 203.9189 -14.4239 L 203.7680 -14.5558 L 203.6429 -15.7243 L 202.9294 -17.1373 L 202.7935 -17.2548 L 202.6604 -18.4411 L 201.9397 -19.8504 L 201.8190 -19.9538 L 201.6777 -21.1579 L 200.9498 -22.5635 L 200.8445 -22.6527 L 200.6947 -23.8745 L 199.9597 -25.2764 L 199.8699 -25.3517 L 199.7116 -26.5910 L 199.0365 -27.8626 L 199.4972 -28.0280 L 199.4877 -28.0542 L 199.4782 -28.0804 L 199.4685 -28.1066 L 199.4588 -28.1327 L 199.4491 -28.1587 L 199.4392 -28.1848 L 199.4293 -28.2108 L 199.4192 -28.2368 L 199.4091 -28.2628 L 199.3990 -28.2887 L 199.3887 -28.3146 L 199.3784 -28.3405 L 199.3679 -28.3663 L 199.3574 -28.3921 L 199.3468 -28.4179 L 199.3362 -28.4436 L 198.8689 -28.2492 L 198.7282 -29.3074 L 197.9789 -30.7017 L 197.7652 -30.8773 L 197.6142 -31.9708 L 196.8578 -33.3612 L 196.6592 -33.5227 L 196.5000 -34.6340 L 195.7365 -36.0206 L 195.5532 -36.1681 L 195.3855 -37.2972 L 194.6150 -38.6799 L 194.4472 -38.8135 L 194.2709 -39.9602 L 193.4933 -41.3390 L 193.3411 -41.4589 L 193.1561 -42.6231 L 192.3715 -43.9979 L 192.2350 -44.1043 L 192.0410 -45.2859 L 191.2495 -46.6567 L 191.1289 -46.7497 L 190.9258 -47.9486 L 190.1273 -49.3153 L 190.0228 -49.3951 L 189.8104 -50.6112 L 189.0049 -51.9738 L 188.9166 -52.0405 L 188.6948 -53.2736 L 187.8823 -54.6321 L 187.8104 -54.6859 L 187.5790 -55.9359 L 186.7596 -57.2903 L 186.7042 -57.3313 L 186.4629 -58.5981 L 185.6367 -59.9483 L 185.5980 -59.9766 L 185.3468 -61.2602 L 184.5137 -62.6061 L 184.4917 -62.6220 L 184.2304 -63.9221 L 183.5670 -64.9818 L 184.0492 -65.1824 L 184.0149 -65.2638 L 183.9798 -65.3448 L 183.9438 -65.4255 L 183.9071 -65.5058 L 183.8696 -65.5858 L 183.8314 -65.6653 L 183.7923 -65.7445 L 183.7525 -65.8234 L 183.7119 -65.9018 L 183.6705 -65.9798 L 183.6284 -66.0574 L 183.5855 -66.1346 L 183.5419 -66.2114 L 183.4975 -66.2877 L 183.4523 -66.3636 L 183.4064 -66.4391 L 183.1733 -66.2957 L 183.1138 -66.5840 L 182.2670 -67.9213 L 181.7651 -68.2770 L 181.6046 -69.0354 L 180.7510 -70.3685 L 180.2637 -70.7101 L 180.0952 -71.4868 L 179.2349 -72.8155 L 178.7623 -73.1431 L 178.5856 -73.9380 L 177.7186 -75.2623 L 177.2609 -75.5762 L 177.0759 -76.3890 L 176.2021 -77.7089 L 175.7595 -78.0092 L 175.5660 -78.8400 L 174.6855 -80.1554 L 174.2580 -80.4423 L 174.0558 -81.2908 L 173.1687 -82.6017 L 172.7566 -82.8753 L 172.6924 -83.1388 L 173.0155 -83.3375 L 172.9699 -83.4109 L 172.9236 -83.4839 L 172.8766 -83.5564 L 172.8289 -83.6284 L 172.7805 -83.7000 L 172.7314 -83.7712 L 172.6816 -83.8418 L 172.6312 -83.9120 L 172.5800 -83.9816 L 172.5283 -84.0508 L 172.4758 -84.1195 L 172.4227 -84.1877 L 172.3690 -84.2554 L 172.3146 -84.3225 L 172.2595 -84.3891 L 172.2038 -84.4552 L 172.1112 -84.3764 L 171.6517 -85.0479 L 170.9646 -85.4989 L 170.9275 -85.6484 L 170.0280 -86.9508 L 169.3509 -87.3910 L 169.3094 -87.5552 L 168.4041 -88.8537 L 167.7372 -89.2831 L 167.6911 -89.4619 L 166.7801 -90.7564 L 166.1235 -91.1751 L 166.0727 -91.3685 L 165.7183 -91.8674 L 165.8225 -91.9560 L 165.6528 -92.1498 L 165.4776 -92.3386 L 165.2971 -92.5223 L 165.1581 -92.6560 L 165.1560 -92.6589 L 165.1532 -92.6607 L 165.1115 -92.7008 L 164.9208 -92.8739 L 164.7252 -93.0415 L 164.5249 -93.2034 L 164.3200 -93.3596 L 164.1108 -93.5098 L 163.8973 -93.6539 L 163.6799 -93.7919 L 163.4585 -93.9236 L 163.2335 -94.0489 L 163.0050 -94.1677 L 162.7732 -94.2800 L 162.5382 -94.3855 L 162.3635 -93.9813 L 161.5434 -94.4942 L 160.5442 -94.6945 L 159.2690 -95.4842 L 158.2987 -95.6743 L 156.9946 -96.4740 L 156.0533 -96.6541 L 154.7201 -97.4637 L 153.3375 -97.7220 L 153.5706 -98.2614 L 152.9202 -98.5131 L 152.2521 -98.7137 L 151.5706 -98.8619 L 150.8796 -98.9569 L 150.1834 -98.9981 L 149.4860 -98.9853 L 148.7918 -98.9185 L 148.1048 -98.7982 L 147.4291 -98.6250 L 146.7689 -98.4000 L 146.1282 -98.1246 L 145.5106 -97.8004 L 144.9201 -97.4293 L 144.3600 -97.0136 L 143.8338 -96.5558 L 143.3447 -96.0586 L 145.5639 -94.0383 L 144.6702 -92.8702 L 143.5706 -91.8503 L 142.7303 -90.7400 L 141.5695 -89.6518 L 140.7899 -88.6103 L 139.5685 -87.4532 L 138.8488 -86.4811 L 137.5676 -85.2544 L 136.9071 -84.3525 L 135.5668 -83.0556 L 134.9648 -82.2243 L 133.5662 -80.8566 L 133.0219 -80.0967 L 131.5657 -78.6575 L 131.0784 -77.9695 L 129.5653 -76.4584 L 129.1342 -75.8428 L 127.5650 -74.2591 L 127.1894 -73.7167 L 125.5649 -72.0597 L 125.2222 -71.5593 L 125.1930 -71.5385 L 123.5649 -69.8602 L 123.2495 -69.3944 L 123.1843 -69.3475 L 121.5650 -67.6606 L 121.2766 -67.2298 L 121.1756 -67.1563 L 119.8393 -65.7494 L 117.6048 -67.7835 L 117.4760 -67.6389 L 117.3504 -67.4916 L 117.2280 -67.3417 L 117.1088 -67.1891 L 116.9929 -67.0340 L 116.8804 -66.8765 L 116.7713 -66.7165 L 116.6656 -66.5543 L 116.5635 -66.3898 L 116.4649 -66.2232 L 116.3700 -66.0545 L 116.2787 -65.8837 L 116.1911 -65.7111 L 116.1072 -65.5366 L 116.0271 -65.3603 L 115.9508 -65.1824 L 118.6403 -64.0633 L 118.2748 -63.5109 L 117.3922 -61.4392 L 117.3194 -61.0786 L 117.1738 -60.8562 L 116.3019 -58.7800 L 116.2383 -58.4567 L 116.0730 -58.2014 L 115.2116 -56.1208 L 115.1569 -55.8349 L 114.9724 -55.5466 L 114.1216 -53.4616 L 114.0754 -53.2133 L 113.8719 -52.8918 L 113.0318 -50.8025 L 112.9937 -50.5917 L 112.7716 -50.2369 L 111.9421 -48.1434 L 111.9117 -47.9703 L 111.6714 -47.5819 L 110.8526 -45.4842 L 110.8296 -45.3490 L 110.5714 -44.9270 L 109.7633 -42.8251 L 109.7472 -42.7278 L 109.4716 -42.2720 L 108.6742 -40.1660 L 108.6647 -40.1068 L 108.3719 -39.6169 L 107.5852 -37.5069 L 107.5819 -37.4858 L 107.2723 -36.9618 L 106.5090 -34.8821 L 106.1730 -34.3067 L 105.4479 -32.2998 L 105.0737 -31.6515 L 104.3863 -29.7179 L 103.9747 -28.9963 L 103.3852 -27.3112 L 100.6638 -28.4436 L 100.6532 -28.4179 L 100.6426 -28.3921 L 100.6321 -28.3663 L 100.6216 -28.3405 L 100.6113 -28.3146 L 100.6010 -28.2887 L 100.5909 -28.2628 L 100.5808 -28.2368 L 100.5707 -28.2108 L 100.5608 -28.1848 L 100.5509 -28.1587 L 100.5412 -28.1327 L 100.5315 -28.1066 L 100.5218 -28.0804 L 100.5123 -28.0542 L 100.5028 -28.0280 L 103.2671 -27.0353 L 102.8758 -26.3411 L 102.1431 -24.2117 L 102.1170 -24.0089 L 101.9075 -23.6329 L 101.1857 -21.4998 L 101.1654 -21.3352 L 100.9394 -20.9247 L 100.2285 -18.7880 L 100.2135 -18.6616 L 99.9715 -18.2164 L 99.2715 -16.0761 L 99.2615 -15.9880 L 99.0038 -15.5081 L 98.3146 -13.3643 L 98.3093 -13.3146 L 98.0362 -12.7998 L 97.3580 -10.6525 L 97.3568 -10.6412 L 97.0687 -10.0915 L 96.4186 -7.9959 L 96.1014 -7.3831 L 95.4858 -5.3625 L 95.1343 -4.6747 L 94.5525 -2.7293 L 94.1673 -1.9662 L 93.6185 -0.0965 L 93.2005 0.7422 L 92.6839 2.5360 L 92.2339 3.4507 L 91.7487 5.1682 L 91.2674 6.1592 L 90.8128 7.8002 L 90.3011 8.8678 L 89.9032 10.3332 L 89.9200 10.3396 L 89.8764 10.4318 L 89.8673 10.4654 L 89.8615 10.4633 L 89.3349 11.5763 L 89.0337 12.7086 L 88.3090 14.2606 L 88.0342 15.3149 L 87.2832 16.9450 L 87.0342 17.9210 L 86.2577 19.6293 L 86.0335 20.5268 L 85.2322 22.3137 L 85.0322 23.1324 L 84.2070 24.9981 L 84.0302 25.7378 L 83.1819 27.6825 L 83.0276 28.3430 L 82.1570 30.3669 L 82.0243 30.9480 L 81.1322 33.0513 L 81.0174 33.5665 L 81.0097 33.5785 L 80.1076 35.7358 L 80.0041 36.2113 L 79.9742 36.2584 L 79.0831 38.4203 L 78.9907 38.8560 L 78.9389 38.9384 L 78.0588 41.1048 L 77.9769 41.5006 L 77.9037 41.6184 L 77.0347 43.7893 L 76.9630 44.1450 L 76.8687 44.2986 L 76.0107 46.4738 L 75.9780 46.6407 L 76.0233 46.6666 L 75.9488 46.7893 L 75.8738 47.1714 L 75.6684 47.4044 L 75.6371 47.4849 L 75.6104 47.4747 L 74.4155 49.4654 L 74.2668 49.8537 L 74.1905 49.9412 L 72.9973 51.9522 L 72.8651 52.3029 L 72.7622 52.4220 L 71.5792 54.4390 L 71.4631 54.7520 L 71.3341 54.9029 L 70.1613 56.9259 L 70.0608 57.2010 L 69.9060 57.3839 L 68.7436 59.4128 L 68.6583 59.6498 L 68.4781 59.8651 L 67.3260 61.8998 L 67.2556 62.0986 L 67.0503 62.3463 L 65.9085 64.3869 L 65.8527 64.5472 L 65.6226 64.8277 L 64.4911 66.8741 L 64.4495 66.9957 L 64.1950 67.3092 L 63.0739 69.3613 L 63.0460 69.4441 L 62.7675 69.7908 L 61.6569 71.8485 L 61.6424 71.8923 L 61.3401 72.2725 L 60.2400 74.3359 L 60.2384 74.3405 L 59.9129 74.7543 L 58.8564 76.7602 L 58.4857 77.2363 L 58.2551 77.6796 L 57.9053 77.8585 L 57.7852 77.9628 L 57.9295 78.1968 L 57.4739 78.2786 L 57.3449 78.3453 L 56.3247 79.2316 L 56.1899 79.4081 L 55.3557 79.5616 L 55.2668 79.6081 L 54.6674 80.1335 L 54.4734 80.0227 L 54.0617 80.2379 L 54.2496 80.2555 L 54.2183 80.5270 L 54.2163 80.5288 L 54.1707 80.5891 L 54.0541 80.5160 L 53.6652 80.4491 L 53.1884 80.8708 L 52.9094 81.0181 L 51.8649 80.3692 L 50.8214 80.5707 L 50.5130 80.7352 L 50.3851 80.6565 L 50.5404 80.6046 L 50.9008 80.5003 L 51.2654 80.4112 L 51.6333 80.3374 L 51.7771 80.3147 L 51.6378 80.2281 L 50.0766 79.9666 L 49.4613 80.0881 L 49.2213 79.9404 L 47.6590 79.6856 L 47.3688 79.7442 L 47.3368 79.6613 L 46.2822 78.3233 L 45.6385 77.9355 L 45.4692 77.5029 L 44.4078 76.1703 L 43.7810 75.7969 L 43.6014 75.3447 L 42.5333 74.0174 L 41.9236 73.6583 L 41.7335 73.1866 L 40.6587 71.8647 L 40.0663 71.5198 L 39.8654 71.0287 L 38.7840 69.7122 L 38.4137 69.4992 L 38.2840 69.5623 L 38.2090 69.3813 L 37.4120 68.9228 L 36.9262 68.8582 L 36.8637 68.4597 L 36.7221 68.1233 L 37.1038 67.7944 L 36.9092 67.5599 L 36.3517 67.2429 L 36.1289 66.7133 L 35.6379 66.1277 L 35.5975 65.8789 L 34.8539 64.1362 L 34.3774 63.5738 L 34.3312 63.2982 L 33.5788 61.5593 L 33.1170 61.0198 L 33.0648 60.7176 L 32.3035 58.9826 L 31.8567 58.4659 L 31.7982 58.1371 L 31.0281 56.4060 L 30.5966 55.9121 L 30.5315 55.5568 L 29.7526 53.8296 L 29.3365 53.3583 L 29.2646 52.9765 L 28.4769 51.2534 L 28.0766 50.8045 L 27.9975 50.3965 L 27.2011 48.6773 L 26.8167 48.2507 L 26.7303 47.8165 L 25.9252 46.1014 L 25.5570 45.6969 L 25.4630 45.2367 L 24.6491 43.5257 L 24.2974 43.1432 L 24.1955 42.6569 L 23.3729 40.9501 L 23.0379 40.5895 L 22.9278 40.0774 L 22.0966 38.3748 L 21.7785 38.0358 L 21.6600 37.4979 L 20.8202 35.7996 L 20.5192 35.4821 L 20.4069 34.9843 L 20.1385 35.0806 L 19.6480 34.5633 L 19.5988 34.5394 L 19.5977 34.4899 L 20.0637 34.2630 L 19.5436 33.2245 L 19.2600 32.9285 L 19.1240 32.3394 L 18.4719 31.0539 L 18.1363 29.6335 L 17.5057 28.4059 L 17.1485 26.9278 L 16.5399 25.7577 L 16.1605 24.2222 L 15.5746 23.1095 L 15.1724 21.5167 L 14.6096 20.4612 L 14.1841 18.8113 L 13.6452 17.8128 L 13.1957 16.1061 L 12.6811 15.1643 L 12.2071 13.4010 L 11.7175 12.5156 L 11.2184 10.6961 L 10.7544 9.8669 L 10.2296 7.9913 L 9.7916 7.2180 L 9.2406 5.2867 L 8.8293 4.5689 L 8.2515 2.5821 L 7.8588 1.9050 L 7.8571 1.8852 L 7.2622 -0.1222 L 6.8827 -0.7690 L 6.8780 -0.8221 L 6.2728 -2.8265 L 5.9068 -3.4430 L 5.8986 -3.5293 L 5.2833 -5.5306 L 4.3079 -7.1549 L 3.0389 -8.2916 L 1.5628 -8.8633 L -0.0197 -8.8309 L -1.6010 -8.1968 L -3.0731 -7.0040 L -4.3358 -5.3339 L -5.3030 -3.3004 L -5.9088 -1.0419 L -6.1120 1.2876 Z M 46.1977 79.5565 L 46.1840 79.4523 L 46.3663 79.5043 L 46.7635 79.6378 L 46.8005 79.6522 L 46.1977 79.5565 Z M 47.0578 79.8070 L 46.8092 79.6556 L 47.1506 79.7883 L 47.0578 79.8070 Z M 47.4960 80.0741 L 47.4342 79.9138 L 47.5371 79.9594 L 47.9118 80.1469 L 48.2774 80.3516 L 48.2895 80.3591 L 48.1166 80.4523 L 47.4960 80.0741 Z M 49.0182 81.5812 L 48.8299 81.3399 L 49.1512 81.1686 L 49.3320 81.0816 L 49.5392 81.2550 L 49.1498 81.4628 L 49.0182 81.5812 Z"/>
<path fill="black" stroke="none" fill-rule="evenodd" d="M 4.9894 40.5211 L 5.0102 40.5784 L 5.0314 40.6356 L 5.0530 40.6926 L 5.0750 40.7495 L 5.0973 40.8063 L 5.1201 40.8629 L 5.1432 40.9193 L 5.1667 40.9756 L 5.1906 41.0317 L 5.2148 41.0876 L 5.2395 41.1434 L 5.2645 41.1990 L 5.2899 41.2545 L 5.3157 41.3098 L 5.3418 41.3649 L 5.3683 41.4198 L 7.1573 40.5485 L 6.8604 39.9706 L 6.8340 39.8587 L 4.9894 40.5211 Z"/>
<path fill="black" stroke="none" fill-rule="evenodd" d="M 20.0637 34.2630 L 20.3921 34.9186 L 20.4069 34.9843 L 21.9301 34.4372 L 21.9093 34.3799 L 21.8881 34.3227 L 21.8665 34.2657 L 21.8446 34.2088 L 21.8222 34.1520 L 21.7995 34.0954 L 21.7764 34.0390 L 21.7528 33.9827 L 21.7290 33.9266 L 21.7047 33.8707 L 21.6801 33.8149 L 21.6550 33.7593 L 21.6296 33.7038 L 21.6039 33.6485 L 21.5777 33.5934 L 21.5512 33.5385 L 20.0637 34.2630 Z"/>
<path fill="black" stroke="none" fill-rule="evenodd" d="M 22.7568 77.1243 L 22.8214 77.2542 L 22.8881 77.3831 L 22.9568 77.5108 L 23.0276 77.6375 L 23.1004 77.7630 L 23.1752 77.8873 L 23.2520 78.0104 L 23.3308 78.1322 L 23.4116 78.2527 L 23.4943 78.3719 L 23.5789 78.4898 L 23.6653 78.6063 L 23.7537 78.7214 L 23.8439 78.8350 L 23.9359 78.9472 L 24.0297 79.0579 L 24.9745 78.2440 L 24.8329 77.9075 L 24.7910 77.6408 L 24.3586 77.1304 L 24.0808 76.4795 L 22.7568 77.1243 Z"/>
<path fill="black" stroke="none" fill-rule="evenodd" d="M 36.8802 93.9741 L 37.1610 94.2851 L 37.4559 94.5827 L 37.7645 94.8663 L 38.0858 95.1352 L 38.4194 95.3888 L 38.7644 95.6266 L 39.1200 95.8481 L 39.4856 96.0529 L 39.8604 96.2403 L 40.2434 96.4102 L 40.5882 96.5442 L 39.2410 95.7232 L 38.1931 94.3799 L 38.0387 93.9731 L 37.4437 93.6146 L 37.3846 93.5396 L 36.8802 93.9741 Z"/>
<path fill="black" stroke="none" fill-rule="evenodd" d="M 37.1038 67.7944 L 37.9972 68.8709 L 38.2090 69.3813 L 38.4137 69.4992 L 38.9397 69.2430 L 38.8752 69.1131 L 38.8085 68.9842 L 38.7398 68.8564 L 38.6690 68.7298 L 38.5962 68.6043 L 38.5213 68.4800 L 38.4445 68.3569 L 38.3657 68.2351 L 38.2850 68.1146 L 38.2023 67.9953 L 38.1177 67.8775 L 38.0312 67.7610 L 37.9429 67.6459 L 37.8527 67.5322 L 37.7607 67.4201 L 37.6669 67.3094 L 37.1038 67.7944 Z"/>
<path fill="black" stroke="none" fill-rule="evenodd" d="M 40.5882 96.5442 L 40.5927 96.5469 L 40.5970 96.5476 L 40.5882 96.5442 Z"/>
<path fill="black" stroke="none" fill-rule="evenodd" d="M 40.5970 96.5476 L 40.6340 96.5620 L 41.0312 96.6955 L 41.4342 96.8103 L 41.8420 96.9063 L 42.2540 96.9832 L 42.6690 97.0408 L 42.7105 96.6806 L 42.1560 96.7950 L 40.5970 96.5476 Z"/>
<path fill="black" stroke="none" fill-rule="evenodd" d="M 51.7771 80.3147 L 51.8649 80.3692 L 52.4941 80.2477 L 53.6652 80.4491 L 53.6765 80.4392 L 54.0617 80.2379 L 53.8760 80.2204 L 53.5012 80.2008 L 53.1260 80.1969 L 52.7509 80.2087 L 52.3767 80.2360 L 52.0039 80.2790 L 51.7771 80.3147 Z"/>
<path fill="black" stroke="none" fill-rule="evenodd" d="M 52.1901 98.1373 L 52.5637 98.1725 L 52.9384 98.1920 L 53.3136 98.1960 L 53.6887 98.1842 L 54.0629 98.1569 L 54.4357 98.1139 L 54.8064 98.0555 L 55.1743 97.9817 L 55.5388 97.8926 L 55.8992 97.7883 L 56.2551 97.6692 L 56.6056 97.5353 L 56.9503 97.3869 L 57.2884 97.2243 L 57.6195 97.0477 L 57.9430 96.8575 L 56.9976 95.3240 L 56.9263 95.3870 L 55.4335 96.1672 L 54.8775 96.6632 L 53.2021 97.5481 L 52.2370 97.7301 L 52.1901 98.1373 Z"/>
<path fill="black" stroke="none" fill-rule="evenodd" d="M 53.7314 79.5988 L 54.4734 80.0227 L 55.2668 79.6081 L 55.7909 79.1488 L 57.3449 78.3453 L 57.7852 77.9628 L 56.8230 76.4020 L 56.5863 76.5531 L 56.3544 76.7115 L 56.1275 76.8771 L 55.9060 77.0497 L 55.6899 77.2291 L 55.4795 77.4151 L 55.2750 77.6076 L 55.0767 77.8065 L 54.8846 78.0114 L 54.6990 78.2221 L 54.5201 78.4386 L 54.3480 78.6606 L 54.1830 78.8878 L 54.0251 79.1201 L 53.8745 79.3571 L 53.7314 79.5988 Z"/>
<path fill="black" stroke="none" fill-rule="evenodd" d="M 65.0288 89.7119 L 66.2694 91.7241 L 66.5061 91.5730 L 66.7380 91.4146 L 66.9649 91.2490 L 67.1864 91.0765 L 67.4025 90.8971 L 67.6129 90.7110 L 67.8174 90.5185 L 68.0157 90.3197 L 68.2078 90.1148 L 68.3934 89.9040 L 68.5723 89.6875 L 68.7443 89.4655 L 68.9094 89.2383 L 69.0673 89.0060 L 69.2179 88.7690 L 69.3609 88.5273 L 66.7412 87.0308 L 66.0337 88.4078 L 65.0288 89.7119 Z"/>
<path fill="black" stroke="none" fill-rule="evenodd" d="M 72.8160 46.3988 L 75.6104 47.4747 L 75.6189 47.4606 L 75.6684 47.4044 L 75.8338 46.9788 L 75.9488 46.7893 L 75.9780 46.6407 L 73.4003 45.1682 L 73.3584 45.2424 L 73.3171 45.3170 L 73.2766 45.3919 L 73.2368 45.4673 L 73.1977 45.5430 L 73.1594 45.6191 L 73.1217 45.6956 L 73.0848 45.7724 L 73.0486 45.8496 L 73.0132 45.9271 L 72.9785 46.0049 L 72.9445 46.0831 L 72.9112 46.1616 L 72.8787 46.2404 L 72.8470 46.3195 L 72.8160 46.3988 Z"/>
<path fill="black" stroke="none" fill-rule="evenodd" d="M 86.4068 52.5982 L 89.0298 54.0967 L 89.0717 54.0225 L 89.1129 53.9479 L 89.1535 53.8729 L 89.1933 53.7975 L 89.2323 53.7218 L 89.2707 53.6457 L 89.3084 53.5692 L 89.3453 53.4924 L 89.3815 53.4152 L 89.4169 53.3377 L 89.4516 53.2599 L 89.4856 53.1817 L 89.5189 53.1033 L 89.5514 53.0245 L 89.5831 52.9454 L 89.6141 52.8660 L 86.7930 51.7799 L 86.5963 52.2861 L 86.4068 52.5982 Z"/>
<path fill="black" stroke="none" fill-rule="evenodd" d="M 87.0431 9.4511 L 89.8615 10.4633 L 89.8764 10.4318 L 89.9032 10.3332 L 87.1144 9.2595 L 87.1098 9.2714 L 87.1052 9.2833 L 87.1007 9.2953 L 87.0961 9.3072 L 87.0916 9.3192 L 87.0871 9.3312 L 87.0826 9.3431 L 87.0782 9.3551 L 87.0737 9.3671 L 87.0693 9.3791 L 87.0649 9.3911 L 87.0605 9.4031 L 87.0561 9.4151 L 87.0517 9.4271 L 87.0474 9.4391 L 87.0431 9.4511 Z"/>
<path fill="black" stroke="none" fill-rule="evenodd" d="M 101.1068 14.6465 L 103.9125 15.7266 L 103.9170 15.7147 L 103.9216 15.7028 L 103.9262 15.6908 L 103.9307 15.6789 L 103.9352 15.6669 L 103.9397 15.6549 L 103.9442 15.6430 L 103.9486 15.6310 L 103.9531 15.6190 L 103.9575 15.6070 L 103.9619 15.5950 L 103.9663 15.5830 L 103.9707 15.5710 L 103.9751 15.5590 L 103.9794 15.5470 L 103.9837 15.5350 L 101.1653 14.5228 L 101.1068 14.6465 Z"/>
<path fill="black" stroke="none" fill-rule="evenodd" d="M 196.0163 15.5350 L 196.0206 15.5470 L 196.0249 15.5590 L 196.0293 15.5710 L 196.0337 15.5830 L 196.0381 15.5950 L 196.0425 15.6070 L 196.0469 15.6190 L 196.0514 15.6310 L 196.0558 15.6430 L 196.0603 15.6549 L 196.0648 15.6669 L 196.0693 15.6789 L 196.0738 15.6908 L 196.0784 15.7028 L 196.0830 15.7147 L 196.0875 15.7266 L 196.4559 15.5848 L 196.4435 15.3815 L 196.0163 15.5350 Z"/>
<path fill="black" stroke="none" fill-rule="evenodd" d="M 210.3859 52.8660 L 210.4169 52.9454 L 210.4486 53.0245 L 210.4811 53.1033 L 210.5144 53.1817 L 210.5484 53.2599 L 210.5831 53.3377 L 210.6185 53.4152 L 210.6547 53.4924 L 210.6916 53.5692 L 210.7293 53.6457 L 210.7677 53.7218 L 210.8067 53.7975 L 210.8465 53.8729 L 210.8871 53.9479 L 210.9283 54.0225 L 210.9702 54.0967 L 211.0080 54.0751 L 210.5473 52.8146 L 210.5474 52.8038 L 210.3859 52.8660 Z"/>
<path fill="black" stroke="none" fill-rule="evenodd" d="M 212.5173 9.4013 L 212.5297 9.6046 L 212.9569 9.4511 L 212.9526 9.4391 L 212.9483 9.4271 L 212.9439 9.4151 L 212.9395 9.4031 L 212.9351 9.3911 L 212.9307 9.3791 L 212.9263 9.3671 L 212.9218 9.3551 L 212.9174 9.3431 L 212.9129 9.3312 L 212.9084 9.3192 L 212.9039 9.3072 L 212.8993 9.2953 L 212.8948 9.2833 L 212.8902 9.2714 L 212.8856 9.2595 L 212.5173 9.4013 Z"/>
<path fill="black" stroke="none" fill-rule="evenodd" d="M 226.5619 45.1898 L 227.0226 46.4503 L 227.0225 46.4610 L 227.1840 46.3988 L 227.1530 46.3195 L 227.1213 46.2404 L 227.0888 46.1616 L 227.0555 46.0831 L 227.0215 46.0049 L 226.9868 45.9271 L 226.9514 45.8496 L 226.9152 45.7724 L 226.8783 45.6956 L 226.8406 45.6191 L 226.8022 45.5430 L 226.7632 45.4673 L 226.7234 45.3919 L 226.6829 45.3170 L 226.6416 45.2424 L 226.5997 45.1682 L 226.5619 45.1898 Z"/>
<path fill="black" stroke="none" fill-rule="evenodd" d="M 230.6391 88.5273 L 230.7821 88.7690 L 230.9327 89.0060 L 231.0906 89.2383 L 231.2557 89.4655 L 231.4277 89.6875 L 231.6066 89.9040 L 231.7922 90.1148 L 231.9843 90.3197 L 232.1826 90.5185 L 232.3871 90.7110 L 232.5975 90.8971 L 232.8136 91.0765 L 233.0351 91.2490 L 233.2620 91.4146 L 233.4939 91.5730 L 233.7306 91.7241 L 234.1387 91.0622 L 233.4878 90.6677 L 233.2653 90.3840 L 232.8903 90.2919 L 231.4295 89.4152 L 230.6997 88.4927 L 230.6391 88.5273 Z"/>
<path fill="black" stroke="none" fill-rule="evenodd" d="M 242.0570 96.8575 L 242.3805 97.0477 L 242.7116 97.2243 L 243.0497 97.3869 L 243.3944 97.5353 L 243.7449 97.6692 L 244.1008 97.7883 L 244.4612 97.8926 L 244.8257 97.9817 L 245.1936 98.0555 L 245.5643 98.1139 L 245.9371 98.1569 L 246.3113 98.1842 L 246.6864 98.1960 L 247.0616 98.1920 L 247.4363 98.1725 L 247.8099 98.1373 L 247.5108 95.5398 L 247.3853 95.5630 L 246.6032 95.5471 L 245.0335 95.8447 L 242.9401 95.8111 L 242.7355 95.7570 L 242.0570 96.8575 Z"/>
<path fill="black" stroke="none" fill-rule="evenodd" d="M 245.2386 78.1513 L 245.3861 78.6557 L 245.4781 78.7109 L 245.7433 79.0462 L 245.9619 79.1009 L 245.8170 78.8878 L 245.6520 78.6606 L 245.4799 78.4386 L 245.3010 78.2221 L 245.2386 78.1513 Z"/>
<path fill="black" stroke="none" fill-rule="evenodd" d="M 247.7608 80.2519 L 247.8365 80.3484 L 248.2348 80.4500 L 249.6879 81.3394 L 249.9296 81.6505 L 250.0057 81.6703 L 249.9717 81.7046 L 250.4848 82.3651 L 250.9356 82.2816 L 251.0420 82.2838 L 251.0839 82.2157 L 251.1992 82.2870 L 251.7755 82.2987 L 252.8337 82.1075 L 253.7176 80.9881 L 254.2110 80.5734 L 254.2621 80.4623 L 255.2754 79.1923 L 255.2715 79.1590 L 254.8565 79.2166 L 254.4446 79.2935 L 254.0367 79.3894 L 253.6337 79.5043 L 253.2365 79.6378 L 252.8460 79.7896 L 252.4629 79.9594 L 252.0882 80.1469 L 251.7226 80.3516 L 251.3669 80.5731 L 251.0219 80.8110 L 250.6884 81.0646 L 250.6680 81.0816 L 250.5107 81.0060 L 250.1660 80.8576 L 249.8155 80.7237 L 249.4596 80.6046 L 249.0992 80.5003 L 248.7346 80.4112 L 248.3667 80.3374 L 247.9961 80.2790 L 247.7608 80.2519 Z"/>
<path fill="black" stroke="none" fill-rule="evenodd" d="M 257.0049 94.2090 L 257.3310 97.0408 L 257.7460 96.9832 L 258.1580 96.9063 L 258.5658 96.8103 L 258.9688 96.6955 L 259.3660 96.5620 L 259.7566 96.4102 L 260.1396 96.2403 L 260.5144 96.0529 L 260.8800 95.8481 L 261.2356 95.6266 L 261.5806 95.3888 L 261.9142 95.1352 L 262.2355 94.8663 L 262.5441 94.5827 L 262.8390 94.2851 L 263.1198 93.9741 L 261.0573 92.1972 L 260.8757 92.3529 L 258.8549 93.5293 L 257.0049 94.2090 Z"/>
<path fill="black" stroke="none" fill-rule="evenodd" d="M 261.0603 69.2430 L 262.5121 69.9501 L 262.8811 69.1983 L 263.2044 68.8134 L 263.2871 68.3064 L 263.3481 68.1838 L 262.3331 67.3094 L 262.2393 67.4201 L 262.1473 67.5322 L 262.0571 67.6459 L 261.9688 67.7610 L 261.8823 67.8775 L 261.7977 67.9953 L 261.7150 68.1146 L 261.6343 68.2351 L 261.5555 68.3569 L 261.4787 68.4800 L 261.4038 68.6043 L 261.3310 68.7298 L 261.2602 68.8564 L 261.1915 68.9842 L 261.1248 69.1131 L 261.0603 69.2430 Z"/>
<path fill="black" stroke="none" fill-rule="evenodd" d="M 274.1623 77.5003 L 275.9703 79.0579 L 276.0641 78.9472 L 276.1561 78.8350 L 276.2463 78.7214 L 276.3347 78.6063 L 276.4211 78.4898 L 276.5057 78.3719 L 276.5884 78.2527 L 276.6692 78.1322 L 276.7480 78.0104 L 276.8248 77.8873 L 276.8996 77.7630 L 276.9724 77.6375 L 277.0432 77.5108 L 277.1119 77.3831 L 277.1786 77.2542 L 277.2432 77.1243 L 275.3303 76.1927 L 274.9136 76.5253 L 274.8428 76.6734 L 274.1623 77.5003 Z"/>
<path fill="black" stroke="none" fill-rule="evenodd" d="M 278.0699 34.4372 L 279.0807 34.8002 L 279.1565 34.4735 L 279.4243 34.0136 L 278.4488 33.5385 L 278.4223 33.5934 L 278.3961 33.6485 L 278.3704 33.7038 L 278.3450 33.7593 L 278.3199 33.8149 L 278.2953 33.8707 L 278.2710 33.9266 L 278.2472 33.9827 L 278.2236 34.0390 L 278.2005 34.0954 L 278.1778 34.1520 L 278.1554 34.2088 L 278.1335 34.2657 L 278.1119 34.3227 L 278.0907 34.3799 L 278.0699 34.4372 Z"/>
<path fill="black" stroke="none" fill-rule="evenodd" d="M 293.3492 40.7952 L 294.6317 41.4198 L 294.6582 41.3649 L 294.6843 41.3098 L 294.7101 41.2545 L 294.7355 41.1990 L 294.7605 41.1434 L 294.7852 41.0876 L 294.8094 41.0317 L 294.8333 40.9756 L 294.8568 40.9193 L 294.8799 40.8629 L 294.9027 40.8063 L 294.9250 40.7495 L 294.9470 40.6926 L 294.9686 40.6356 L 294.9898 40.5784 L 295.0106 40.5211 L 293.6959 40.0489 L 293.6463 40.2730 L 293.3492 40.7952 Z"/>
  
</svg>