<svg xmlns="http://www.w3.org/2000/svg" width="135.0000" height="40.0000" viewBox="-15.0000 -20.0000 135.0000 40.0000">
  
  
  <path fill="black" stroke="none" fill-rule="evenodd" d="M -5.0000 -10.0000 L -5.0000 10.0000 L 5.0000 10.0000 L 5.0000 -10.0000 L -5.0000 -10.0000 Z"/>
<path fill="black" stroke="none" fill-rule="evenodd" d="M 90.0000 0 L 90.0482 0.9802 L 90.1921 1.9509 L 90.4306 2.9028 L 90.7612 3.8268 L 91.1808 4.7140 L 91.6853 5.5557 L 92.2699 6.3439 L 92.9289 7.0711 L 93.6561 7.7301 L 94.4443 8.3147 L 95.0000 8.6478 L 95.0000 10.0000 L 105.0000 10.0000 L 105.0000 0 L 110.0000 0 L 109.9518 -0.9802 L 109.8079 -1.9509 L 109.5694 -2.9028 L 109.2388 -3.8268 L 108.8192 -4.7140 L 108.3147 -5.5557 L 107.7301 -6.3439 L 107.0711 -7.0711 L 106.3439 -7.7301 L 105.5557 -8.3147 L 105.0000 -8.6478 L 105.0000 -10.0000 L 95.0000 -10.0000 L 95.0000 0 L 90.0000 0 Z"/>
  
</svg>