<svg xmlns="http://www.w3.org/2000/svg" width="160.0000" height="60.0000" viewBox="-30.0000 -30.0000 160.0000 60.0000">
  
  
  <path fill="black" stroke="none" fill-rule="evenodd" d="M -20.0000 -3.0000 L -20.0000 3.0000 L 80.2486 3.0000 L 80.6815 5.1764 L 81.5224 7.6537 L 82.6795 10.0000 L 84.1329 12.1752 L 85.8579 14.1421 L 87.8248 15.8671 L 90.0000 17.3205 L 92.3463 18.4776 L 94.8236 19.3185 L 97.3895 19.8289 L 100.0000 20.0000 L 102.6105 19.8289 L 105.1764 19.3185 L 107.6537 18.4776 L 110.0000 17.3205 L 112.1752 15.8671 L 114.1421 14.1421 L 115.8671 12.1752 L 117.3205 10.0000 L 118.4776 7.6537 L 119.3185 5.1764 L 119.7514 3.0000 L 119.8289 2.6105 L 120.0000 0 L 119.8289 -2.6105 L 119.7514 -3.0000 L 119.3185 -5.1764 L 118.4776 -7.6537 L 117.3205 -10.0000 L 115.8671 -12.1752 L 114.1421 -14.1421 L 112.1752 -15.8671 L 110.0000 -17.3205 L 107.6537 -18.4776 L 105.1764 -19.3185 L 102.6105 -19.8289 L 100.0000 -20.0000 L 97.3895 -19.8289 L 94.8236 -19.3185 L 92.3463 -18.4776 L 90.0000 -17.3205 L 87.8248 -15.8671 L 85.8579 -14.1421 L 84.1329 -12.1752 L 82.6795 -10.0000 L 81.5224 -7.6537 L 80.6815 -5.1764 L 80.2486 -3.0000 L -20.0000 -3.0000 Z"/>
  
</svg>