<svg xmlns="http://www.w3.org/2000/svg" width="139.6589" height="75.8831" viewBox="-19.3950 -38.4438 139.6589 75.8831">
  <path fill="black" stroke="none" fill-rule="evenodd" d="M -9.3950 -3.4256 L -5.9192 8.0600 L -5.5388 7.9449 L -4.9574 9.8664 L -4.5771 9.7513 L -3.9956 11.6728 L -3.6153 11.5577 L -3.0338 13.4791 L -2.6535 13.3640 L -2.0720 15.2855 L -1.6917 15.1704 L -1.1102 17.0919 L -1.0627 17.0775 L -0.9900 17.3177 L -0.9662 17.3105 L -0.9299 17.4306 L -0.9180 17.4270 L -0.8998 17.4870 L -0.8939 17.4852 L -0.8848 17.5153 L -0.8833 17.5148 L -0.8810 17.5223 L 0.5555 17.0876 L 0.8918 17.6006 L 0.6816 17.9206 L 1.4193 18.4052 L 1.7062 18.8427 L 1.7088 18.8410 L 1.7174 18.8542 L 1.8005 18.7997 L 2.0756 19.2194 L 2.2418 19.1105 L 2.7921 19.9499 L 3.1244 19.7321 L 4.2251 21.4110 L 4.5574 21.1931 L 5.6581 22.8720 L 5.9904 22.6542 L 7.0910 24.3330 L 7.1326 24.3058 L 7.2702 24.5157 L 7.2728 24.5140 L 7.2814 24.5271 L 8.6762 23.6126 L 8.6141 24.0021 L 10.3642 24.2811 L 11.4349 24.9845 L 11.4358 24.9832 L 11.4423 24.9875 L 11.4458 24.9823 L 11.4720 24.9996 L 11.4788 24.9892 L 11.5312 25.0236 L 11.5449 25.0029 L 11.6497 25.0718 L 11.7043 24.9887 L 12.1237 25.2643 L 12.2328 25.0982 L 13.0718 25.6494 L 13.2899 25.3173 L 14.9678 26.4195 L 15.1859 26.0874 L 16.8638 27.1896 L 16.9184 27.1066 L 17.3378 27.3821 L 17.3515 27.3614 L 17.4563 27.4303 L 17.4580 27.4277 L 17.4711 27.4363 L 17.4720 27.4350 L 17.4786 27.4393 L 18.6821 25.6071 L 21.6184 26.0752 L 21.6194 26.0691 L 21.6503 26.0740 L 21.6523 26.0617 L 21.7142 26.0716 L 21.7221 26.0226 L 21.9699 26.0621 L 22.0011 25.8659 L 22.9924 26.0239 L 23.0549 25.6315 L 25.0374 25.9475 L 25.1000 25.5552 L 27.0825 25.8712 L 27.0981 25.7731 L 27.5937 25.8521 L 27.6016 25.8031 L 27.8494 25.8426 L 27.8533 25.8180 L 27.9772 25.8378 L 27.9791 25.8255 L 28.0411 25.8354 L 28.3133 24.1279 L 30.4855 23.8082 L 30.4853 23.8066 L 30.4930 23.8055 L 30.4926 23.8024 L 30.5081 23.8001 L 30.5072 23.7940 L 30.5382 23.7894 L 30.5093 23.5929 L 31.5024 23.4467 L 31.4445 23.0536 L 33.4306 22.7613 L 33.3728 22.3682 L 35.3589 22.0758 L 35.3300 21.8793 L 36.3230 21.7331 L 36.3085 21.6348 L 36.8051 21.5617 L 36.7978 21.5126 L 37.0461 21.4760 L 37.0425 21.4515 L 37.1666 21.4332 L 37.1657 21.4270 L 37.1968 21.4225 L 37.1963 21.4194 L 37.2118 21.4171 L 37.2116 21.4156 L 37.2194 21.4144 L 37.0551 20.2983 L 38.3386 19.8631 L 38.3346 19.8514 L 38.3940 19.8312 L 38.2665 19.4549 L 40.1677 18.8104 L 40.0401 18.4341 L 41.9414 17.7896 L 41.8138 17.4133 L 43.7151 16.7687 L 43.6513 16.5806 L 44.6019 16.2583 L 44.5700 16.1642 L 45.0453 16.0031 L 45.0294 15.9561 L 45.2670 15.8755 L 45.2650 15.8696 L 45.2947 15.8596 L 45.2937 15.8566 L 45.3086 15.8516 L 45.0526 15.0965 L 45.8834 14.6985 L 45.8827 14.6971 L 45.8898 14.6937 L 45.8844 14.6825 L 45.9410 14.6554 L 45.9302 14.6330 L 46.0434 14.5788 L 45.8717 14.2204 L 47.6821 13.3529 L 47.5104 12.9946 L 49.3208 12.1271 L 49.1491 11.7688 L 50.9595 10.9013 L 50.7878 10.5429 L 52.5982 9.6754 L 52.4265 9.3171 L 54.2369 8.4496 L 54.0652 8.0913 L 55.8757 7.2238 L 55.7040 6.8655 L 57.5144 5.9979 L 57.3427 5.6396 L 59.1531 4.7721 L 58.9814 4.4138 L 60.7918 3.5463 L 60.6201 3.1880 L 62.4305 2.3205 L 62.2588 1.9621 L 64.0692 1.0946 L 63.8975 0.7363 L 65.7079 -0.1312 L 65.5362 -0.4895 L 67.3466 -1.3570 L 67.1749 -1.7154 L 68.9853 -2.5829 L 68.8136 -2.9412 L 70.6241 -3.8087 L 70.4524 -4.1670 L 71.3963 -4.6193 L 74.0305 -5.5123 L 74.0300 -5.5138 L 74.0374 -5.5163 L 74.0334 -5.5281 L 74.0928 -5.5482 L 74.0849 -5.5717 L 74.2037 -5.6120 L 74.1399 -5.8002 L 75.0905 -6.1224 L 74.9630 -6.4987 L 76.8642 -7.1433 L 76.8090 -7.3061 L 79.9467 -7.7680 L 79.9462 -7.7710 L 79.9618 -7.7733 L 79.9600 -7.7856 L 80.0220 -7.7947 L 80.0148 -7.8439 L 80.2631 -7.8804 L 80.2341 -8.0770 L 81.0051 -8.1905 L 83.2209 -7.8372 L 85.5160 -6.3295 L 87.5590 -3.2133 L 87.5603 -3.2141 L 87.5646 -3.2076 L 87.5698 -3.2110 L 87.5870 -3.1848 L 87.6078 -3.1984 L 87.6766 -3.0934 L 87.7596 -3.1479 L 88.0348 -2.7282 L 88.2009 -2.8371 L 88.7513 -1.9977 L 88.8434 -2.0581 L 89.9097 1.4653 L 89.9334 1.4581 L 89.9698 1.5782 L 90.0173 1.5638 L 90.0900 1.8040 L 90.1851 1.7752 L 90.3304 2.2556 L 90.5206 2.1980 L 90.8113 3.1588 L 91.1916 3.0437 L 91.7731 4.9651 L 92.1534 4.8500 L 92.7349 6.7715 L 93.1152 6.6564 L 93.6967 8.5779 L 94.0770 8.4628 L 94.6585 10.3843 L 94.7737 10.3494 L 94.9498 10.9314 L 110.2639 6.2970 L 106.4619 -6.2666 L 106.5149 -6.3014 L 106.3969 -6.4815 L 105.0502 -10.9314 L 104.9350 -10.8965 L 104.7672 -11.4511 L 104.3869 -11.3360 L 103.8329 -13.1667 L 103.4526 -13.0516 L 102.8985 -14.8824 L 102.5182 -14.7673 L 101.9642 -16.5980 L 101.5839 -16.4829 L 101.0299 -18.3137 L 100.8397 -18.2561 L 100.5627 -19.1715 L 100.4676 -19.1428 L 100.3291 -19.6004 L 100.2816 -19.5861 L 100.2123 -19.8149 L 100.1885 -19.8077 L 100.1539 -19.9221 L 98.0104 -19.2735 L 96.9185 -20.9390 L 96.9172 -20.9382 L 96.9131 -20.9444 L 96.9105 -20.9427 L 96.9023 -20.9552 L 96.8971 -20.9518 L 96.8807 -20.9768 L 96.8703 -20.9700 L 96.8376 -21.0200 L 96.5053 -20.8021 L 95.4565 -22.4018 L 95.1243 -22.1839 L 94.0755 -23.7835 L 93.7432 -23.5657 L 92.6945 -25.1653 L 92.5284 -25.0564 L 92.0040 -25.8562 L 91.9210 -25.8017 L 91.6588 -26.2016 L 91.6380 -26.1880 L 91.5725 -26.2880 L 91.5673 -26.2846 L 91.5509 -26.3096 L 91.5496 -26.3087 L 91.5455 -26.3150 L 89.0394 -24.6720 L 86.7776 -26.1577 L 86.7759 -26.1551 L 86.7634 -26.1633 L 86.7566 -26.1529 L 86.7067 -26.1857 L 86.6794 -26.1442 L 86.4796 -26.2755 L 86.2614 -25.9434 L 84.6627 -26.9936 L 84.4446 -26.6615 L 82.8459 -27.7117 L 82.6278 -27.3796 L 81.0291 -28.4298 L 81.0257 -28.4246 L 81.0007 -28.4410 L 80.9999 -28.4397 L 80.9936 -28.4438 L 79.3380 -25.9235 L 76.5764 -26.3637 L 76.5760 -26.3606 L 76.5612 -26.3630 L 76.5592 -26.3507 L 76.5002 -26.3601 L 76.4963 -26.3356 L 76.3782 -26.3544 L 76.3704 -26.3054 L 76.1343 -26.3430 L 76.1187 -26.2449 L 75.6465 -26.3202 L 75.6152 -26.1240 L 74.6707 -26.2746 L 74.6082 -25.8822 L 72.7193 -26.1833 L 72.6567 -25.7909 L 70.7679 -26.0920 L 70.7600 -26.0430 L 70.5239 -26.0806 L 70.5220 -26.0683 L 70.4629 -26.0777 L 70.4624 -26.0747 L 70.4477 -26.0770 L 70.4474 -26.0755 L 70.4401 -26.0767 L 70.0919 -23.8923 L 67.9935 -23.5834 L 67.9944 -23.5773 L 67.9648 -23.5729 L 67.9684 -23.5484 L 67.8502 -23.5310 L 67.8646 -23.4327 L 67.3916 -23.3631 L 67.4205 -23.1665 L 66.4743 -23.0272 L 66.5322 -22.6341 L 64.6398 -22.3556 L 64.6977 -21.9625 L 62.8053 -21.6839 L 62.8343 -21.4874 L 61.8881 -21.3481 L 61.8953 -21.2990 L 61.6588 -21.2642 L 61.6606 -21.2519 L 61.6015 -21.2432 L 61.6019 -21.2401 L 61.5871 -21.2379 L 61.7835 -19.9036 L 60.5194 -19.4751 L 60.5199 -19.4736 L 60.5128 -19.4712 L 60.5148 -19.4654 L 60.4865 -19.4558 L 60.4945 -19.4322 L 60.3813 -19.3939 L 60.4131 -19.2998 L 59.9603 -19.1463 L 60.0878 -18.7700 L 58.2764 -18.1559 L 58.4039 -17.7796 L 56.5925 -17.1655 L 56.7200 -16.7891 L 54.9085 -16.1750 L 54.9723 -15.9869 L 54.0666 -15.6798 L 54.0746 -15.6563 L 53.9613 -15.6179 L 53.9653 -15.6062 L 53.9087 -15.5870 L 53.9092 -15.5855 L 53.9021 -15.5831 L 54.1904 -14.7329 L 53.3655 -14.3376 L 53.3669 -14.3348 L 53.3534 -14.3284 L 53.3561 -14.3228 L 53.3291 -14.3098 L 53.3506 -14.2651 L 53.1350 -14.1617 L 53.1779 -14.0722 L 52.7467 -13.8655 L 52.9184 -13.5072 L 51.1934 -12.6806 L 51.3651 -12.3223 L 49.6402 -11.4958 L 49.8119 -11.1374 L 48.0870 -10.3109 L 48.2587 -9.9526 L 46.5337 -9.1260 L 46.7054 -8.7677 L 44.9805 -7.9412 L 45.1522 -7.5828 L 43.4272 -6.7563 L 43.5989 -6.3980 L 41.8740 -5.5714 L 42.0457 -5.2131 L 40.3208 -4.3865 L 40.4925 -4.0282 L 38.7675 -3.2017 L 38.9392 -2.8434 L 37.2143 -2.0168 L 37.3860 -1.6585 L 35.6611 -0.8319 L 35.8328 -0.4736 L 34.1078 0.3529 L 34.2795 0.7113 L 32.5546 1.5378 L 32.7263 1.8961 L 31.0014 2.7227 L 31.1731 3.0810 L 29.4481 3.9076 L 29.6198 4.2659 L 29.5494 4.2996 L 26.7515 5.2481 L 26.7525 5.2511 L 26.7383 5.2559 L 26.7403 5.2617 L 26.7120 5.2713 L 26.7280 5.3184 L 26.5015 5.3951 L 26.5334 5.4892 L 26.0806 5.6427 L 26.1443 5.8309 L 25.2386 6.1379 L 25.3662 6.5142 L 23.5547 7.1283 L 23.5951 7.2475 L 21.2389 7.5943 L 21.2391 7.5958 L 21.2317 7.5969 L 21.2322 7.6000 L 21.2174 7.6022 L 21.2183 7.6083 L 21.1887 7.6127 L 21.1923 7.6372 L 21.0741 7.6547 L 21.0813 7.7038 L 20.8447 7.7386 L 20.8592 7.8369 L 20.3861 7.9065 L 20.4151 8.1031 L 19.4689 8.2423 L 19.4726 8.2675 L 17.2616 7.9150 L 17.2597 7.9273 L 17.2007 7.9179 L 17.1968 7.9424 L 17.0787 7.9236 L 17.0709 7.9726 L 16.9595 7.9548 L 15.2574 6.8367 L 15.2565 6.8380 L 15.2503 6.8339 L 15.2486 6.8365 L 15.2361 6.8283 L 15.2224 6.8491 L 15.1225 6.7834 L 15.0680 6.8664 L 14.6683 6.6039 L 14.6656 6.6081 L 13.6082 4.9952 L 13.6056 4.9969 L 13.5974 4.9844 L 13.5559 5.0116 L 13.4248 4.8117 L 13.0925 5.0295 L 12.0438 3.4299 L 11.7115 3.6477 L 11.5728 3.4361 L 10.8135 0.9271 L 10.8120 0.9275 L 10.8098 0.9204 L 10.8039 0.9222 L 10.7952 0.8936 L 10.7833 0.8972 L 10.7660 0.8400 L 10.7422 0.8472 L 10.7076 0.7327 L 10.6601 0.7471 L 10.5908 0.5183 L 10.2105 0.6334 L 9.6565 -1.1974 L 9.2762 -1.0823 L 8.7222 -2.9130 L 8.3418 -2.7979 L 7.7878 -4.6287 L 7.4075 -4.5136 L 6.8535 -6.3443 L 6.4732 -6.2293 L 5.9192 -8.0600 L -9.3950 -3.4256 Z"/>
</svg>