<svg xmlns="http://www.w3.org/2000/svg" width="136.3643" height="42.3459" viewBox="-19.1822 -21.1730 136.3643 42.3459">
  <path fill="black" stroke="none" fill-rule="evenodd" d="M -9.1822 6.3787 L -0.4063 11.1730 L 0.0534 10.3315 L 1.5937 11.1730 L 2.0534 10.3315 L 3.5937 11.1730 L 4.0534 10.3315 L 5.5937 11.1730 L 6.0534 10.3315 L 7.5937 11.1730 L 8.0534 10.3315 L 9.5937 11.1730 L 10.0534 10.3315 L 11.5937 11.1730 L 12.0534 10.3315 L 13.5937 11.1730 L 14.0534 10.3315 L 15.5937 11.1730 L 16.0534 10.3315 L 17.5937 11.1730 L 18.0534 10.3315 L 19.5937 11.1730 L 20.0534 10.3315 L 21.5937 11.1730 L 22.0534 10.3315 L 23.5937 11.1730 L 24.0534 10.3315 L 25.5937 11.1730 L 26.0534 10.3315 L 27.5937 11.1730 L 28.0534 10.3315 L 29.5937 11.1730 L 30.0534 10.3315 L 31.5937 11.1730 L 32.0534 10.3315 L 33.5937 11.1730 L 34.0534 10.3315 L 35.5937 11.1730 L 36.0534 10.3315 L 37.5937 11.1730 L 38.0534 10.3315 L 39.5937 11.1730 L 40.0534 10.3315 L 41.5937 11.1730 L 42.0534 10.3315 L 43.5937 11.1730 L 44.0534 10.3315 L 45.5937 11.1730 L 46.0534 10.3315 L 47.5937 11.1730 L 48.0534 10.3315 L 49.5937 11.1730 L 50.0534 10.3315 L 51.5937 11.1730 L 52.0534 10.3315 L 53.5937 11.1730 L 54.0534 10.3315 L 55.5937 11.1730 L 56.0534 10.3315 L 57.5937 11.1730 L 58.0534 10.3315 L 59.5937 11.1730 L 60.0534 10.3315 L 61.5937 11.1730 L 62.0534 10.3315 L 63.5937 11.1730 L 64.0534 10.3315 L 65.5937 11.1730 L 66.0534 10.3315 L 67.5937 11.1730 L 68.0534 10.3315 L 69.5937 11.1730 L 70.0534 10.3315 L 71.5937 11.1730 L 72.0534 10.3315 L 73.5937 11.1730 L 74.0534 10.3315 L 75.5937 11.1730 L 76.0534 10.3315 L 77.5937 11.1730 L 78.0534 10.3315 L 79.5937 11.1730 L 80.0534 10.3315 L 81.5937 11.1730 L 82.0534 10.3315 L 83.5937 11.1730 L 84.0534 10.3315 L 85.5937 11.1730 L 86.0534 10.3315 L 87.5937 11.1730 L 88.0534 10.3315 L 89.5937 11.1730 L 90.0534 10.3315 L 91.5937 11.1730 L 92.0534 10.3315 L 93.5937 11.1730 L 94.0534 10.3315 L 95.5937 11.1730 L 96.0534 10.3315 L 97.5937 11.1730 L 107.1822 -6.3787 L 98.4063 -11.1730 L 97.9466 -10.3315 L 96.4063 -11.1730 L 95.9466 -10.3315 L 94.4063 -11.1730 L 93.9466 -10.3315 L 92.4063 -11.1730 L 91.9466 -10.3315 L 90.4063 -11.1730 L 89.9466 -10.3315 L 88.4063 -11.1730 L 87.9466 -10.3315 L 86.4063 -11.1730 L 85.9466 -10.3315 L 84.4063 -11.1730 L 83.9466 -10.3315 L 82.4063 -11.1730 L 81.9466 -10.3315 L 80.4063 -11.1730 L 79.9466 -10.3315 L 78.4063 -11.1730 L 77.9466 -10.3315 L 76.4063 -11.1730 L 75.9466 -10.3315 L 74.4063 -11.1730 L 73.9466 -10.3315 L 72.4063 -11.1730 L 71.9466 -10.3315 L 70.4063 -11.1730 L 69.9466 -10.3315 L 68.4063 -11.1730 L 67.9466 -10.3315 L 66.4063 -11.1730 L 65.9466 -10.3315 L 64.4063 -11.1730 L 63.9466 -10.3315 L 62.4063 -11.1730 L 61.9466 -10.3315 L 60.4063 -11.1730 L 59.9466 -10.3315 L 58.4063 -11.1730 L 57.9466 -10.3315 L 56.4063 -11.1730 L 55.9466 -10.3315 L 54.4063 -11.1730 L 53.9466 -10.3315 L 52.4063 -11.1730 L 51.9466 -10.3315 L 50.4063 -11.1730 L 49.9466 -10.3315 L 48.4063 -11.1730 L 47.9466 -10.3315 L 46.4063 -11.1730 L 45.9466 -10.3315 L 44.4063 -11.1730 L 43.9466 -10.3315 L 42.4063 -11.1730 L 41.9466 -10.3315 L 40.4063 -11.1730 L 39.9466 -10.3315 L 38.4063 -11.1730 L 37.9466 -10.3315 L 36.4063 -11.1730 L 35.9466 -10.3315 L 34.4063 -11.1730 L 33.9466 -10.3315 L 32.4063 -11.1730 L 31.9466 -10.3315 L 30.4063 -11.1730 L 29.9466 -10.3315 L 28.4063 -11.1730 L 27.9466 -10.3315 L 26.4063 -11.1730 L 25.9466 -10.3315 L 24.4063 -11.1730 L 23.9466 -10.3315 L 22.4063 -11.1730 L 21.9466 -10.3315 L 20.4063 -11.1730 L 19.9466 -10.3315 L 18.4063 -11.1730 L 17.9466 -10.3315 L 16.4063 -11.1730 L 15.9466 -10.3315 L 14.4063 -11.1730 L 13.9466 -10.3315 L 12.4063 -11.1730 L 11.9466 -10.3315 L 10.4063 -11.1730 L 9.9466 -10.3315 L 8.4063 -11.1730 L 7.9466 -10.3315 L 6.4063 -11.1730 L 5.9466 -10.3315 L 4.4063 -11.1730 L 3.9466 -10.3315 L 2.4063 -11.1730 L 1.9466 -10.3315 L 0.4063 -11.1730 L -9.1822 6.3787 Z"/>
</svg>