<svg xmlns="http://www.w3.org/2000/svg" width="136.4036" height="42.3459" viewBox="-19.1822 -21.1730 136.4036 42.3459">
  
  
  <path fill="black" stroke="none" fill-rule="evenodd" d="M -9.1822 6.3787 L -0.4063 11.1730 L 0.0443 10.3480 L 1.5544 11.1730 L 2.0051 10.3480 L 3.5152 11.1730 L 3.9659 10.3480 L 5.4760 11.1730 L 5.9267 10.3480 L 7.4368 11.1730 L 7.8875 10.3480 L 9.3976 11.1730 L 9.8483 10.3480 L 11.3584 11.1730 L 11.8090 10.3480 L 13.3191 11.1730 L 13.7698 10.3480 L 15.2799 11.1730 L 15.7306 10.3480 L 17.2407 11.1730 L 17.6914 10.3480 L 19.2015 11.1730 L 19.6522 10.3480 L 21.1623 11.1730 L 21.6130 10.3480 L 23.1231 11.1730 L 23.5738 10.3480 L 25.0839 11.1730 L 25.5345 10.3480 L 27.0446 11.1730 L 27.4953 10.3480 L 29.0054 11.1730 L 29.4561 10.3480 L 30.9662 11.1730 L 31.4169 10.3480 L 32.9270 11.1730 L 33.3777 10.3480 L 34.8878 11.1730 L 35.3385 10.3480 L 36.8486 11.1730 L 37.2992 10.3480 L 38.8093 11.1730 L 39.2600 10.3480 L 40.7701 11.1730 L 41.2208 10.3480 L 42.7309 11.1730 L 43.1816 10.3480 L 44.6917 11.1730 L 45.1424 10.3480 L 46.6525 11.1730 L 47.1032 10.3480 L 48.6133 11.1730 L 49.0639 10.3480 L 50.5740 11.1730 L 51.0247 10.3480 L 52.5348 11.1730 L 52.9855 10.3480 L 54.4956 11.1730 L 54.9463 10.3480 L 56.4564 11.1730 L 56.9071 10.3480 L 58.4172 11.1730 L 58.8679 10.3480 L 60.3780 11.1730 L 60.8287 10.3480 L 62.3388 11.1730 L 62.7894 10.3480 L 64.2995 11.1730 L 64.7502 10.3480 L 66.2603 11.1730 L 66.7110 10.3480 L 68.2211 11.1730 L 68.6718 10.3480 L 70.1819 11.1730 L 70.6326 10.3480 L 72.1427 11.1730 L 72.5934 10.3480 L 74.1035 11.1730 L 74.5541 10.3480 L 76.0642 11.1730 L 76.5149 10.3480 L 78.0250 11.1730 L 78.4757 10.3480 L 79.9858 11.1730 L 80.4365 10.3480 L 81.9466 11.1730 L 82.3973 10.3480 L 83.9074 11.1730 L 84.3581 10.3480 L 85.8682 11.1730 L 86.3189 10.3480 L 87.8290 11.1730 L 88.2796 10.3480 L 89.7897 11.1730 L 90.2404 10.3480 L 91.7505 11.1730 L 92.2012 10.3480 L 93.7113 11.1730 L 94.1620 10.3480 L 95.6721 11.1730 L 96.1228 10.3480 L 97.6329 11.1730 L 107.2214 -6.3787 L 98.4456 -11.1730 L 97.9949 -10.3480 L 96.4848 -11.1730 L 96.0341 -10.3480 L 94.5240 -11.1730 L 94.0733 -10.3480 L 92.5632 -11.1730 L 92.1125 -10.3480 L 90.6024 -11.1730 L 90.1517 -10.3480 L 88.6416 -11.1730 L 88.1910 -10.3480 L 86.6809 -11.1730 L 86.2302 -10.3480 L 84.7201 -11.1730 L 84.2694 -10.3480 L 82.7593 -11.1730 L 82.3086 -10.3480 L 80.7985 -11.1730 L 80.3478 -10.3480 L 78.8377 -11.1730 L 78.3870 -10.3480 L 76.8769 -11.1730 L 76.4262 -10.3480 L 74.9161 -11.1730 L 74.4655 -10.3480 L 72.9554 -11.1730 L 72.5047 -10.3480 L 70.9946 -11.1730 L 70.5439 -10.3480 L 69.0338 -11.1730 L 68.5831 -10.3480 L 67.0730 -11.1730 L 66.6223 -10.3480 L 65.1122 -11.1730 L 64.6615 -10.3480 L 63.1514 -11.1730 L 62.7008 -10.3480 L 61.1907 -11.1730 L 60.7400 -10.3480 L 59.2299 -11.1730 L 58.7792 -10.3480 L 57.2691 -11.1730 L 56.8184 -10.3480 L 55.3083 -11.1730 L 54.8576 -10.3480 L 53.3475 -11.1730 L 52.8968 -10.3480 L 51.3867 -11.1730 L 50.9361 -10.3480 L 49.4260 -11.1730 L 48.9753 -10.3480 L 47.4652 -11.1730 L 47.0145 -10.3480 L 45.5044 -11.1730 L 45.0537 -10.3480 L 43.5436 -11.1730 L 43.0929 -10.3480 L 41.5828 -11.1730 L 41.1321 -10.3480 L 39.6220 -11.1730 L 39.1713 -10.3480 L 37.6612 -11.1730 L 37.2106 -10.3480 L 35.7005 -11.1730 L 35.2498 -10.3480 L 33.7397 -11.1730 L 33.2890 -10.3480 L 31.7789 -11.1730 L 31.3282 -10.3480 L 29.8181 -11.1730 L 29.3674 -10.3480 L 27.8573 -11.1730 L 27.4066 -10.3480 L 25.8965 -11.1730 L 25.4459 -10.3480 L 23.9358 -11.1730 L 23.4851 -10.3480 L 21.9750 -11.1730 L 21.5243 -10.3480 L 20.0142 -11.1730 L 19.5635 -10.3480 L 18.0534 -11.1730 L 17.6027 -10.3480 L 16.0926 -11.1730 L 15.6419 -10.3480 L 14.1318 -11.1730 L 13.6811 -10.3480 L 12.1710 -11.1730 L 11.7204 -10.3480 L 10.2103 -11.1730 L 9.7596 -10.3480 L 8.2495 -11.1730 L 7.7988 -10.3480 L 6.2887 -11.1730 L 5.8380 -10.3480 L 4.3279 -11.1730 L 3.8772 -10.3480 L 2.3671 -11.1730 L 1.9164 -10.3480 L 0.4063 -11.1730 L -9.1822 6.3787 Z"/>
  
</svg>