<svg xmlns="http://www.w3.org/2000/svg" width="97.2992" height="56.5779" viewBox="-23.9922 -26.6985 97.2992 56.5779">
  
  
  <path fill="black" stroke="none" fill-rule="evenodd" d="M -13.9922 -0.4676 L -13.8146 2.2711 L -13.1061 4.9225 L -11.8939 7.3848 L -10.2246 9.5633 L -8.1625 11.3743 L -7.2415 11.7860 L -6.5566 12.5267 L -5.6356 12.9385 L -4.9507 13.6791 L -4.0297 14.0909 L -3.3448 14.8316 L -2.4238 15.2433 L -1.7389 15.9840 L -1.5029 15.6551 L -1.1742 15.8021 L 0.4103 15.8815 L 0.4535 15.9549 L 1.6180 17.0140 L 2.0390 17.0351 L 2.8074 17.7340 L 2.7753 17.8508 L 3.2302 18.0260 L 3.2567 17.9300 L 4.5992 18.4471 L 4.5826 18.5469 L 4.8346 18.5378 L 5.0699 18.6284 L 5.5740 18.6101 L 6.0447 18.7914 L 7.0529 18.7547 L 7.9943 19.1173 L 9.0024 19.0807 L 9.9438 19.4433 L 10.4479 19.4250 L 10.9186 19.6063 L 11.1706 19.5971 L 11.4060 19.6878 L 11.4227 19.5880 L 13.2947 19.5199 L 14.0177 19.2085 L 14.3842 19.3421 L 14.9848 19.0834 L 15.0281 19.5339 L 15.5153 19.5237 L 15.4535 18.8815 L 16.0221 18.6366 L 17.1201 19.0367 L 17.1919 19.0352 L 17.2942 19.4863 L 18.3446 19.0110 L 19.4973 18.9868 L 20.5477 18.5115 L 21.7004 18.4873 L 22.7507 18.0119 L 23.9034 17.9877 L 24.9538 17.5124 L 26.1065 17.4882 L 27.1569 17.0129 L 28.3096 16.9887 L 29.3599 16.5133 L 30.5126 16.4891 L 31.5630 16.0138 L 32.7157 15.9896 L 32.6134 15.5384 L 32.6788 15.5088 L 32.9728 15.2090 L 33.3756 15.3273 L 33.4474 15.3212 L 33.5351 15.6188 L 34.3645 15.2434 L 35.7448 15.1263 L 36.7628 14.5851 L 37.9116 14.4876 L 38.9295 13.9464 L 40.0783 13.8490 L 41.0962 13.3078 L 42.2450 13.2103 L 43.2629 12.6691 L 44.4117 12.5716 L 45.4296 12.0305 L 46.5784 11.9330 L 47.5826 11.3991 L 47.6893 11.3885 L 47.8791 11.3670 L 47.9369 11.3597 L 48.5007 11.3109 L 49.0160 11.4037 L 49.9992 11.1778 L 50.9024 11.3404 L 50.9779 11.4118 L 52.3174 11.4518 L 52.6225 11.2923 L 52.6567 11.2936 L 52.7573 11.2966 L 52.8580 11.2989 L 52.9152 11.2998 L 52.9681 11.3093 L 53.0048 11.3009 L 53.0593 11.3013 L 53.1600 11.3014 L 53.2607 11.3009 L 53.3614 11.2995 L 53.4621 11.2975 L 55.4731 10.7723 L 56.6905 9.8232 L 57.4220 9.3267 L 59.2323 7.0580 L 60.5929 4.1252 L 61.2044 1.5863 L 61.4127 1.4157 L 61.6617 1.1129 L 61.8469 0.7673 L 61.9612 0.3923 L 62.0000 0.0021 L 61.9620 -0.3881 L 61.8486 -0.7634 L 61.6641 -1.1094 L 61.5323 -1.2703 L 61.5584 -1.7006 L 62.0555 -3.0698 L 62.9046 -6.3733 L 63.3070 -9.3459 L 63.2352 -11.7850 L 62.6942 -13.5243 L 61.7207 -14.4453 L 60.5775 -14.4794 L 59.8954 -15.2037 L 59.4506 -15.1913 L 58.9827 -15.5829 L 58.7373 -15.6821 L 58.4900 -15.7767 L 58.2410 -15.8666 L 57.9903 -15.9518 L 57.7381 -16.0323 L 57.4844 -16.1079 L 57.2293 -16.1787 L 56.9729 -16.2447 L 56.7153 -16.3059 L 56.4566 -16.3621 L 56.1969 -16.4135 L 55.9362 -16.4599 L 55.6748 -16.5014 L 55.4125 -16.5379 L 55.1497 -16.5695 L 54.8863 -16.5961 L 54.8543 -16.2468 L 54.8273 -16.2659 L 54.3772 -16.3608 L 54.4027 -16.6403 L 54.3024 -16.6491 L 54.2021 -16.6572 L 54.1016 -16.6646 L 54.0012 -16.6712 L 53.9007 -16.6772 L 53.8001 -16.6824 L 53.6995 -16.6868 L 53.5989 -16.6906 L 53.4982 -16.6936 L 53.3976 -16.6959 L 53.2969 -16.6975 L 53.1962 -16.6983 L 53.0955 -16.6985 L 52.9948 -16.6979 L 52.8941 -16.6966 L 52.7935 -16.6945 L 52.5652 -16.6349 L 52.2995 -16.6827 L 51.3163 -16.4568 L 50.3234 -16.6355 L 49.3402 -16.4096 L 48.3474 -16.5883 L 47.3642 -16.3624 L 46.3713 -16.5411 L 46.1255 -16.4846 L 45.8773 -16.5293 L 45.6864 -16.5235 L 45.4955 -16.5150 L 45.3048 -16.5039 L 45.1143 -16.4902 L 44.9240 -16.4740 L 44.7339 -16.4551 L 44.5441 -16.4337 L 44.3546 -16.4096 L 44.1654 -16.3830 L 43.9766 -16.3538 L 43.7883 -16.3220 L 43.6003 -16.2876 L 43.4129 -16.2507 L 43.2260 -16.2113 L 43.0397 -16.1693 L 42.8539 -16.1247 L 42.9003 -15.9369 L 42.4045 -15.8940 L 42.3766 -16.0068 L 42.3375 -15.9971 L 42.2984 -15.9872 L 42.2594 -15.9773 L 42.2203 -15.9672 L 42.1813 -15.9571 L 42.1424 -15.9468 L 42.1034 -15.9364 L 42.0645 -15.9259 L 42.0256 -15.9153 L 41.9868 -15.9045 L 41.9480 -15.8937 L 41.9092 -15.8827 L 41.8705 -15.8717 L 41.8317 -15.8605 L 41.7931 -15.8492 L 41.7544 -15.8378 L 41.3094 -15.6003 L 40.8298 -15.5588 L 40.8844 -15.3735 L 40.8644 -15.3628 L 40.8069 -15.5568 L 39.8037 -15.0214 L 38.6618 -14.9246 L 37.6438 -14.3834 L 36.4951 -14.2859 L 35.4771 -13.7447 L 34.3283 -13.6472 L 33.3104 -13.1060 L 32.1616 -13.0086 L 31.1437 -12.4674 L 29.9949 -12.3699 L 28.9770 -11.8287 L 27.8282 -11.7312 L 27.0711 -11.3287 L 26.5240 -11.3172 L 26.5805 -11.0679 L 26.1834 -10.8568 L 25.7338 -10.8473 L 25.7046 -10.9464 L 25.4736 -10.8419 L 24.3209 -10.8177 L 23.2706 -10.3423 L 22.1179 -10.3182 L 21.0675 -9.8428 L 19.9148 -9.8186 L 18.8644 -9.3433 L 17.7118 -9.3191 L 16.6614 -8.8437 L 15.5087 -8.8196 L 14.4583 -8.3442 L 13.3056 -8.3200 L 13.2006 -8.2725 L 12.6117 -8.4993 L 11.9246 -8.4743 L 11.3743 -9.0694 L 10.4533 -9.4812 L 9.7684 -10.2218 L 8.8474 -10.6336 L 8.1625 -11.3743 L 5.7866 -12.7481 L 3.1884 -13.6321 L 0.4676 -13.9922 L -2.2711 -13.8146 L -4.9225 -13.1061 L -7.3848 -11.8939 L -9.5633 -10.2246 L -11.3743 -8.1625 L -12.7481 -5.7866 L -13.6321 -3.1884 L -13.9922 -0.4676 Z M 12.6959 -8.0441 L 12.6209 -8.0776 L 12.7980 -8.0903 L 12.6959 -8.0441 Z M 48.7451 11.2943 L 48.7438 11.2899 L 48.7667 11.2879 L 48.7653 11.2883 L 48.7640 11.2887 L 48.7626 11.2891 L 48.7613 11.2895 L 48.7599 11.2899 L 48.7586 11.2903 L 48.7572 11.2907 L 48.7559 11.2911 L 48.7545 11.2915 L 48.7532 11.2919 L 48.7518 11.2923 L 48.7505 11.2927 L 48.7491 11.2931 L 48.7478 11.2935 L 48.7464 11.2939 L 48.7451 11.2943 Z"/>
<path fill="black" stroke="none" fill-rule="evenodd" d="M -1.7389 15.9840 L -1.4856 16.1616 L -1.2283 16.3336 L -0.9674 16.4998 L -0.7028 16.6602 L -0.4348 16.8147 L -0.1634 16.9633 L 0.1112 17.1059 L 0.3889 17.2423 L 0.6695 17.3726 L 0.9529 17.4966 L 1.2390 17.6144 L 1.5277 17.7258 L 1.8187 17.8307 L 2.1120 17.9293 L 2.4074 18.0213 L 2.7047 18.1068 L 2.7753 17.8508 L 2.3637 17.6923 L 1.6180 17.0140 L 0.4317 16.9545 L -1.7389 15.9840 Z"/>
<path fill="black" stroke="none" fill-rule="evenodd" d="M 3.1724 18.2356 L 3.2596 18.2593 L 3.3468 18.2825 L 3.4343 18.3051 L 3.5218 18.3271 L 3.6095 18.3485 L 3.6974 18.3694 L 3.7854 18.3897 L 3.8735 18.4095 L 3.9617 18.4286 L 4.0501 18.4473 L 4.1385 18.4653 L 4.2271 18.4828 L 4.3158 18.4997 L 4.4046 18.5160 L 4.4935 18.5317 L 4.5826 18.5469 L 3.2302 18.0260 L 3.1724 18.2356 Z"/>
<path fill="black" stroke="none" fill-rule="evenodd" d="M 11.4060 19.6878 L 11.6320 19.7237 L 11.8586 19.7559 L 12.0857 19.7843 L 12.3132 19.8091 L 12.5411 19.8302 L 12.7693 19.8475 L 12.9977 19.8611 L 13.2264 19.8709 L 13.4552 19.8770 L 13.6840 19.8794 L 13.9129 19.8780 L 14.1417 19.8729 L 14.3704 19.8641 L 14.5989 19.8515 L 14.8272 19.8352 L 15.0551 19.8151 L 15.0281 19.5339 L 14.9170 19.5362 L 14.3842 19.3421 L 13.7821 19.6014 L 11.4060 19.6878 Z"/>
<path fill="black" stroke="none" fill-rule="evenodd" d="M 15.5153 19.5237 L 15.5389 19.7686 L 15.6495 19.7575 L 15.7601 19.7455 L 15.8705 19.7327 L 15.9809 19.7190 L 16.0911 19.7044 L 16.2012 19.6889 L 16.3112 19.6726 L 16.4210 19.6554 L 16.5308 19.6373 L 16.6403 19.6183 L 16.7497 19.5985 L 16.8590 19.5778 L 16.9681 19.5562 L 17.0770 19.5338 L 17.1857 19.5105 L 17.2942 19.4863 L 15.5153 19.5237 Z"/>
<path fill="black" stroke="none" fill-rule="evenodd" d="M 25.6615 -11.0926 L 25.7046 -10.9464 L 26.5240 -11.3172 L 26.4697 -11.3048 L 26.4154 -11.2921 L 26.3612 -11.2793 L 26.3071 -11.2662 L 26.2530 -11.2529 L 26.1989 -11.2394 L 26.1449 -11.2257 L 26.0910 -11.2118 L 26.0371 -11.1976 L 25.9833 -11.1832 L 25.9295 -11.1687 L 25.8758 -11.1539 L 25.8221 -11.1389 L 25.7685 -11.1236 L 25.7150 -11.1082 L 25.6615 -11.0926 Z"/>
<path fill="black" stroke="none" fill-rule="evenodd" d="M 32.7157 15.9896 L 32.7700 15.9772 L 32.8242 15.9645 L 32.8785 15.9517 L 32.9326 15.9386 L 32.9867 15.9253 L 33.0408 15.9118 L 33.0948 15.8981 L 33.1487 15.8842 L 33.2026 15.8700 L 33.2564 15.8556 L 33.3102 15.8411 L 33.3639 15.8263 L 33.4176 15.8113 L 33.4711 15.7960 L 33.5247 15.7806 L 33.5781 15.7650 L 33.5351 15.6188 L 32.7157 15.9896 Z"/>
<path fill="black" stroke="none" fill-rule="evenodd" d="M 40.8069 -15.5568 L 40.8298 -15.5588 L 40.8285 -15.5632 L 40.8271 -15.5628 L 40.8258 -15.5624 L 40.8244 -15.5620 L 40.8231 -15.5616 L 40.8217 -15.5612 L 40.8204 -15.5608 L 40.8190 -15.5604 L 40.8177 -15.5600 L 40.8163 -15.5596 L 40.8150 -15.5592 L 40.8136 -15.5588 L 40.8123 -15.5584 L 40.8109 -15.5580 L 40.8096 -15.5576 L 40.8082 -15.5572 L 40.8069 -15.5568 Z"/>
  
</svg>