<svg xmlns="http://www.w3.org/2000/svg" width="410.5000" height="26.0000" viewBox="-100.0000 -13.0000 410.5000 26.0000">
  
  
  <path fill="black" stroke="none" fill-rule="evenodd" d="M -90.0000 -3.0000 L -90.0000 3.0000 L 288.1557 3.0000 L 288.1557 -3.0000 L -90.0000 -3.0000 Z"/>
<path fill="black" stroke="none" fill-rule="evenodd" d="M 288.1826 -3.0000 L 288.1826 3.0000 L 292.1453 3.0000 L 292.1453 -3.0000 L 288.1826 -3.0000 Z"/>
<path fill="black" stroke="none" fill-rule="evenodd" d="M 293.9372 -3.0000 L 293.9372 3.0000 L 296.2268 3.0000 L 296.2268 -3.0000 L 293.9372 -3.0000 Z"/>
  <g id="debug">
  <path fill="none" stroke="#ff3366" stroke-opacity="0.6" stroke-width="0.5" d="M 0 0 L 300.0000 0"/>
  <path fill="none" stroke="#ff9900" stroke-opacity="0.6" stroke-width="0.6" d=""/>
  <path fill="none" stroke="#222222" stroke-opacity="0.7" stroke-width="0.6" d=""/>
  <path fill="none" stroke="#00aaff" stroke-opacity="0.6" stroke-width="0.6" d=""/>
  <circle cx="0" cy="0" r="0.6000" fill="#222222" fill-opacity="0.5"/>
    <circle cx="4.9180" cy="0" r="0.6000" fill="#222222" fill-opacity="0.5"/>
    <circle cx="9.8361" cy="0" r="0.6000" fill="#222222" fill-opacity="0.5"/>
    <circle cx="14.7541" cy="0" r="0.6000" fill="#222222" fill-opacity="0.5"/>
    <circle cx="19.6721" cy="0" r="0.6000" fill="#222222" fill-opacity="0.5"/>
    <circle cx="24.5902" cy="0" r="0.6000" fill="#222222" fill-opacity="0.5"/>
    <circle cx="29.5082" cy="0" r="0.6000" fill="#222222" fill-opacity="0.5"/>
    <circle cx="34.4262" cy="0" r="0.6000" fill="#222222" fill-opacity="0.5"/>
    <circle cx="39.3443" cy="0" r="0.6000" fill="#222222" fill-opacity="0.5"/>
    <circle cx="44.2623" cy="0" r="0.6000" fill="#222222" fill-opacity="0.5"/>
    <circle cx="49.1803" cy="0" r="0.6000" fill="#222222" fill-opacity="0.5"/>
    <circle cx="54.0984" cy="0" r="0.6000" fill="#222222" fill-opacity="0.5"/>
    <circle cx="59.0164" cy="0" r="0.6000" fill="#222222" fill-opacity="0.5"/>
    <circle cx="63.9344" cy="0" r="0.6000" fill="#222222" fill-opacity="0.5"/>
    <circle cx="68.8525" cy="0" r="0.6000" fill="#222222" fill-opacity="0.5"/>
    <circle cx="73.7705" cy="0" r="0.6000" fill="#222222" fill-opacity="0.5"/>
    <circle cx="78.6885" cy="0" r="0.6000" fill="#222222" fill-opacity="0.5"/>
    <circle cx="83.6066" cy="0" r="0.6000" fill="#222222" fill-opacity="0.5"/>
    <circle cx="88.5246" cy="0" r="0.6000" fill="#222222" fill-opacity="0.5"/>
    <circle cx="93.4426" cy="0" r="0.6000" fill="#222222" fill-opacity="0.5"/>
    <circle cx="98.3607" cy="0" r="0.6000" fill="#222222" fill-opacity="0.5"/>
    <circle cx="103.2787" cy="0" r="0.6000" fill="#222222" fill-opacity="0.5"/>
    <circle cx="108.1967" cy="0" r="0.6000" fill="#222222" fill-opacity="0.5"/>
    <circle cx="113.1148" cy="0" r="0.6000" fill="#222222" fill-opacity="0.5"/>
    <circle cx="118.0328" cy="0" r="0.6000" fill="#222222" fill-opacity="0.5"/>
    <circle cx="122.9508" cy="0" r="0.6000" fill="#222222" fill-opacity="0.5"/>
    <circle cx="127.8689" cy="0" r="0.6000" fill="#222222" fill-opacity="0.5"/>
    <circle cx="132.7869" cy="0" r="0.6000" fill="#222222" fill-opacity="0.5"/>
    <circle cx="137.7049" cy="0" r="0.6000" fill="#222222" fill-opacity="0.5"/>
    <circle cx="142.6230" cy="0" r="0.6000" fill="#222222" fill-opacity="0.5"/>
    <circle cx="147.5410" cy="0" r="0.6000" fill="#222222" fill-opacity="0.5"/>
    <circle cx="152.4590" cy="0" r="0.6000" fill="#222222" fill-opacity="0.5"/>
    <circle cx="157.3770" cy="0" r="0.6000" fill="#222222" fill-opacity="0.5"/>
    <circle cx="162.2951" cy="0" r="0.6000" fill="#222222" fill-opacity="0.5"/>
    <circle cx="167.2131" cy="0" r="0.6000" fill="#222222" fill-opacity="0.5"/>
    <circle cx="172.1311" cy="0" r="0.6000" fill="#222222" fill-opacity="0.5"/>
    <circle cx="177.0492" cy="0" r="0.6000" fill="#222222" fill-opacity="0.5"/>
    <circle cx="181.9672" cy="0" r="0.6000" fill="#222222" fill-opacity="0.5"/>
    <circle cx="186.8852" cy="0" r="0.6000" fill="#222222" fill-opacity="0.5"/>
    <circle cx="191.8033" cy="0" r="0.6000" fill="#222222" fill-opacity="0.5"/>
    <circle cx="196.7213" cy="0" r="0.6000" fill="#222222" fill-opacity="0.5"/>
    <circle cx="201.6393" cy="0" r="0.6000" fill="#222222" fill-opacity="0.5"/>
    <circle cx="206.5574" cy="0" r="0.6000" fill="#222222" fill-opacity="0.5"/>
    <circle cx="211.4754" cy="0" r="0.6000" fill="#222222" fill-opacity="0.5"/>
    <circle cx="216.3934" cy="0" r="0.6000" fill="#222222" fill-opacity="0.5"/>
    <circle cx="221.3115" cy="0" r="0.6000" fill="#222222" fill-opacity="0.5"/>
    <circle cx="226.2295" cy="0" r="0.6000" fill="#222222" fill-opacity="0.5"/>
    <circle cx="231.1475" cy="0" r="0.6000" fill="#222222" fill-opacity="0.5"/>
    <circle cx="236.0656" cy="0" r="0.6000" fill="#222222" fill-opacity="0.5"/>
    <circle cx="240.9836" cy="0" r="0.6000" fill="#222222" fill-opacity="0.5"/>
    <circle cx="245.9016" cy="0" r="0.6000" fill="#222222" fill-opacity="0.5"/>
    <circle cx="250.8197" cy="0" r="0.6000" fill="#222222" fill-opacity="0.5"/>
    <circle cx="255.7377" cy="0" r="0.6000" fill="#222222" fill-opacity="0.5"/>
    <circle cx="260.6557" cy="0" r="0.6000" fill="#222222" fill-opacity="0.5"/>
    <circle cx="265.5738" cy="0" r="0.6000" fill="#222222" fill-opacity="0.5"/>
    <circle cx="270.4918" cy="0" r="0.6000" fill="#222222" fill-opacity="0.5"/>
    <circle cx="275.4098" cy="0" r="0.6000" fill="#222222" fill-opacity="0.5"/>
    <circle cx="280.3279" cy="0" r="0.6000" fill="#222222" fill-opacity="0.5"/>
    <circle cx="285.2459" cy="0" r="0.6000" fill="#222222" fill-opacity="0.5"/>
    <circle cx="290.1639" cy="0" r="0.6000" fill="#222222" fill-opacity="0.5"/>
    <circle cx="295.0820" cy="0" r="0.6000" fill="#222222" fill-opacity="0.5"/>
    <circle cx="300.0000" cy="0" r="0.6000" fill="#222222" fill-opacity="0.5"/>
  
  <path fill="none" stroke="#0066ff" stroke-opacity="0.3" stroke-width="0.5" d="M -90.0000 -3.0000 L 90.0000 -3.0000 L 90.0000 3.0000 L -90.0000 3.0000 L -90.0000 -3.0000 Z"/>
    <path fill="none" stroke="#0066ff" stroke-opacity="0.3" stroke-width="0.5" d="M -83.3242 -3.0000 L 93.1603 -3.0000 L 93.1603 3.0000 L -83.3242 3.0000 L -83.3242 -3.0000 Z"/>
    <path fill="none" stroke="#0066ff" stroke-opacity="0.3" stroke-width="0.5" d="M -76.6543 -3.0000 L 96.3264 -3.0000 L 96.3264 3.0000 L -76.6543 3.0000 L -76.6543 -3.0000 Z"/>
    <path fill="none" stroke="#0066ff" stroke-opacity="0.3" stroke-width="0.5" d="M -69.9903 -3.0000 L 99.4985 -3.0000 L 99.4985 3.0000 L -69.9903 3.0000 L -69.9903 -3.0000 Z"/>
    <path fill="none" stroke="#0066ff" stroke-opacity="0.3" stroke-width="0.5" d="M -63.3323 -3.0000 L 102.6765 -3.0000 L 102.6765 3.0000 L -63.3323 3.0000 L -63.3323 -3.0000 Z"/>
    <path fill="none" stroke="#0066ff" stroke-opacity="0.3" stroke-width="0.5" d="M -56.6804 -3.0000 L 105.8607 -3.0000 L 105.8607 3.0000 L -56.6804 3.0000 L -56.6804 -3.0000 Z"/>
    <path fill="none" stroke="#0066ff" stroke-opacity="0.3" stroke-width="0.5" d="M -50.0346 -3.0000 L 109.0510 -3.0000 L 109.0510 3.0000 L -50.0346 3.0000 L -50.0346 -3.0000 Z"/>
    <path fill="none" stroke="#0066ff" stroke-opacity="0.3" stroke-width="0.5" d="M -43.3952 -3.0000 L 112.2476 -3.0000 L 112.2476 3.0000 L -43.3952 3.0000 L -43.3952 -3.0000 Z"/>
    <path fill="none" stroke="#0066ff" stroke-opacity="0.3" stroke-width="0.5" d="M -36.7621 -3.0000 L 115.4506 -3.0000 L 115.4506 3.0000 L -36.7621 3.0000 L -36.7621 -3.0000 Z"/>
    <path fill="none" stroke="#0066ff" stroke-opacity="0.3" stroke-width="0.5" d="M -30.1355 -3.0000 L 118.6601 -3.0000 L 118.6601 3.0000 L -30.1355 3.0000 L -30.1355 -3.0000 Z"/>
    <path fill="none" stroke="#0066ff" stroke-opacity="0.3" stroke-width="0.5" d="M -23.5154 -3.0000 L 121.8760 -3.0000 L 121.8760 3.0000 L -23.5154 3.0000 L -23.5154 -3.0000 Z"/>
    <path fill="none" stroke="#0066ff" stroke-opacity="0.3" stroke-width="0.5" d="M -16.9020 -3.0000 L 125.0987 -3.0000 L 125.0987 3.0000 L -16.9020 3.0000 L -16.9020 -3.0000 Z"/>
    <path fill="none" stroke="#0066ff" stroke-opacity="0.3" stroke-width="0.5" d="M -10.2953 -3.0000 L 128.3281 -3.0000 L 128.3281 3.0000 L -10.2953 3.0000 L -10.2953 -3.0000 Z"/>
    <path fill="none" stroke="#0066ff" stroke-opacity="0.3" stroke-width="0.5" d="M -3.6956 -3.0000 L 131.5644 -3.0000 L 131.5644 3.0000 L -3.6956 3.0000 L -3.6956 -3.0000 Z"/>
    <path fill="none" stroke="#0066ff" stroke-opacity="0.3" stroke-width="0.5" d="M 2.8972 -3.0000 L 134.8077 -3.0000 L 134.8077 3.0000 L 2.8972 3.0000 L 2.8972 -3.0000 Z"/>
    <path fill="none" stroke="#0066ff" stroke-opacity="0.3" stroke-width="0.5" d="M 9.4828 -3.0000 L 138.0581 -3.0000 L 138.0581 3.0000 L 9.4828 3.0000 L 9.4828 -3.0000 Z"/>
    <path fill="none" stroke="#0066ff" stroke-opacity="0.3" stroke-width="0.5" d="M 16.0613 -3.0000 L 141.3158 -3.0000 L 141.3158 3.0000 L 16.0613 3.0000 L 16.0613 -3.0000 Z"/>
    <path fill="none" stroke="#0066ff" stroke-opacity="0.3" stroke-width="0.5" d="M 22.6323 -3.0000 L 144.5808 -3.0000 L 144.5808 3.0000 L 22.6323 3.0000 L 22.6323 -3.0000 Z"/>
    <path fill="none" stroke="#0066ff" stroke-opacity="0.3" stroke-width="0.5" d="M 29.1959 -3.0000 L 147.8533 -3.0000 L 147.8533 3.0000 L 29.1959 3.0000 L 29.1959 -3.0000 Z"/>
    <path fill="none" stroke="#0066ff" stroke-opacity="0.3" stroke-width="0.5" d="M 35.7518 -3.0000 L 151.1335 -3.0000 L 151.1335 3.0000 L 35.7518 3.0000 L 35.7518 -3.0000 Z"/>
    <path fill="none" stroke="#0066ff" stroke-opacity="0.3" stroke-width="0.5" d="M 42.2999 -3.0000 L 154.4214 -3.0000 L 154.4214 3.0000 L 42.2999 3.0000 L 42.2999 -3.0000 Z"/>
    <path fill="none" stroke="#0066ff" stroke-opacity="0.3" stroke-width="0.5" d="M 48.8401 -3.0000 L 157.7172 -3.0000 L 157.7172 3.0000 L 48.8401 3.0000 L 48.8401 -3.0000 Z"/>
    <path fill="none" stroke="#0066ff" stroke-opacity="0.3" stroke-width="0.5" d="M 55.3723 -3.0000 L 161.0212 -3.0000 L 161.0212 3.0000 L 55.3723 3.0000 L 55.3723 -3.0000 Z"/>
    <path fill="none" stroke="#0066ff" stroke-opacity="0.3" stroke-width="0.5" d="M 61.8961 -3.0000 L 164.3334 -3.0000 L 164.3334 3.0000 L 61.8961 3.0000 L 61.8961 -3.0000 Z"/>
    <path fill="none" stroke="#0066ff" stroke-opacity="0.3" stroke-width="0.5" d="M 68.4115 -3.0000 L 167.6540 -3.0000 L 167.6540 3.0000 L 68.4115 3.0000 L 68.4115 -3.0000 Z"/>
    <path fill="none" stroke="#0066ff" stroke-opacity="0.3" stroke-width="0.5" d="M 74.9184 -3.0000 L 170.9833 -3.0000 L 170.9833 3.0000 L 74.9184 3.0000 L 74.9184 -3.0000 Z"/>
    <path fill="none" stroke="#0066ff" stroke-opacity="0.3" stroke-width="0.5" d="M 81.4164 -3.0000 L 174.3213 -3.0000 L 174.3213 3.0000 L 81.4164 3.0000 L 81.4164 -3.0000 Z"/>
    <path fill="none" stroke="#0066ff" stroke-opacity="0.3" stroke-width="0.5" d="M 87.9054 -3.0000 L 177.6684 -3.0000 L 177.6684 3.0000 L 87.9054 3.0000 L 87.9054 -3.0000 Z"/>
    <path fill="none" stroke="#0066ff" stroke-opacity="0.3" stroke-width="0.5" d="M 94.3852 -3.0000 L 181.0247 -3.0000 L 181.0247 3.0000 L 94.3852 3.0000 L 94.3852 -3.0000 Z"/>
    <path fill="none" stroke="#0066ff" stroke-opacity="0.3" stroke-width="0.5" d="M 100.8555 -3.0000 L 184.3904 -3.0000 L 184.3904 3.0000 L 100.8555 3.0000 L 100.8555 -3.0000 Z"/>
    <path fill="none" stroke="#0066ff" stroke-opacity="0.3" stroke-width="0.5" d="M 107.3162 -3.0000 L 187.7657 -3.0000 L 187.7657 3.0000 L 107.3162 3.0000 L 107.3162 -3.0000 Z"/>
    <path fill="none" stroke="#0066ff" stroke-opacity="0.3" stroke-width="0.5" d="M 113.7670 -3.0000 L 191.1510 -3.0000 L 191.1510 3.0000 L 113.7670 3.0000 L 113.7670 -3.0000 Z"/>
    <path fill="none" stroke="#0066ff" stroke-opacity="0.3" stroke-width="0.5" d="M 120.2076 -3.0000 L 194.5465 -3.0000 L 194.5465 3.0000 L 120.2076 3.0000 L 120.2076 -3.0000 Z"/>
    <path fill="none" stroke="#0066ff" stroke-opacity="0.3" stroke-width="0.5" d="M 126.6377 -3.0000 L 197.9525 -3.0000 L 197.9525 3.0000 L 126.6377 3.0000 L 126.6377 -3.0000 Z"/>
    <path fill="none" stroke="#0066ff" stroke-opacity="0.3" stroke-width="0.5" d="M 133.0570 -3.0000 L 201.3692 -3.0000 L 201.3692 3.0000 L 133.0570 3.0000 L 133.0570 -3.0000 Z"/>
    <path fill="none" stroke="#0066ff" stroke-opacity="0.3" stroke-width="0.5" d="M 139.4653 -3.0000 L 204.7970 -3.0000 L 204.7970 3.0000 L 139.4653 3.0000 L 139.4653 -3.0000 Z"/>
    <path fill="none" stroke="#0066ff" stroke-opacity="0.3" stroke-width="0.5" d="M 145.8621 -3.0000 L 208.2362 -3.0000 L 208.2362 3.0000 L 145.8621 3.0000 L 145.8621 -3.0000 Z"/>
    <path fill="none" stroke="#0066ff" stroke-opacity="0.3" stroke-width="0.5" d="M 152.2472 -3.0000 L 211.6872 -3.0000 L 211.6872 3.0000 L 152.2472 3.0000 L 152.2472 -3.0000 Z"/>
    <path fill="none" stroke="#0066ff" stroke-opacity="0.3" stroke-width="0.5" d="M 158.6201 -3.0000 L 215.1504 -3.0000 L 215.1504 3.0000 L 158.6201 3.0000 L 158.6201 -3.0000 Z"/>
    <path fill="none" stroke="#0066ff" stroke-opacity="0.3" stroke-width="0.5" d="M 164.9803 -3.0000 L 218.6262 -3.0000 L 218.6262 3.0000 L 164.9803 3.0000 L 164.9803 -3.0000 Z"/>
    <path fill="none" stroke="#0066ff" stroke-opacity="0.3" stroke-width="0.5" d="M 171.3276 -3.0000 L 222.1151 -3.0000 L 222.1151 3.0000 L 171.3276 3.0000 L 171.3276 -3.0000 Z"/>
    <path fill="none" stroke="#0066ff" stroke-opacity="0.3" stroke-width="0.5" d="M 177.6612 -3.0000 L 225.6175 -3.0000 L 225.6175 3.0000 L 177.6612 3.0000 L 177.6612 -3.0000 Z"/>
    <path fill="none" stroke="#0066ff" stroke-opacity="0.3" stroke-width="0.5" d="M 183.9808 -3.0000 L 229.1339 -3.0000 L 229.1339 3.0000 L 183.9808 3.0000 L 183.9808 -3.0000 Z"/>
    <path fill="none" stroke="#0066ff" stroke-opacity="0.3" stroke-width="0.5" d="M 190.2857 -3.0000 L 232.6651 -3.0000 L 232.6651 3.0000 L 190.2857 3.0000 L 190.2857 -3.0000 Z"/>
    <path fill="none" stroke="#0066ff" stroke-opacity="0.3" stroke-width="0.5" d="M 196.5753 -3.0000 L 236.2116 -3.0000 L 236.2116 3.0000 L 196.5753 3.0000 L 196.5753 -3.0000 Z"/>
    <path fill="none" stroke="#0066ff" stroke-opacity="0.3" stroke-width="0.5" d="M 202.8488 -3.0000 L 239.7742 -3.0000 L 239.7742 3.0000 L 202.8488 3.0000 L 202.8488 -3.0000 Z"/>
    <path fill="none" stroke="#0066ff" stroke-opacity="0.3" stroke-width="0.5" d="M 209.1055 -3.0000 L 243.3536 -3.0000 L 243.3536 3.0000 L 209.1055 3.0000 L 209.1055 -3.0000 Z"/>
    <path fill="none" stroke="#0066ff" stroke-opacity="0.3" stroke-width="0.5" d="M 215.3444 -3.0000 L 246.9507 -3.0000 L 246.9507 3.0000 L 215.3444 3.0000 L 215.3444 -3.0000 Z"/>
    <path fill="none" stroke="#0066ff" stroke-opacity="0.3" stroke-width="0.5" d="M 221.5646 -3.0000 L 250.5666 -3.0000 L 250.5666 3.0000 L 221.5646 3.0000 L 221.5646 -3.0000 Z"/>
    <path fill="none" stroke="#0066ff" stroke-opacity="0.3" stroke-width="0.5" d="M 227.7648 -3.0000 L 254.2024 -3.0000 L 254.2024 3.0000 L 227.7648 3.0000 L 227.7648 -3.0000 Z"/>
    <path fill="none" stroke="#0066ff" stroke-opacity="0.3" stroke-width="0.5" d="M 233.9439 -3.0000 L 257.8594 -3.0000 L 257.8594 3.0000 L 233.9439 3.0000 L 233.9439 -3.0000 Z"/>
    <path fill="none" stroke="#0066ff" stroke-opacity="0.3" stroke-width="0.5" d="M 240.1002 -3.0000 L 261.5391 -3.0000 L 261.5391 3.0000 L 240.1002 3.0000 L 240.1002 -3.0000 Z"/>
    <path fill="none" stroke="#0066ff" stroke-opacity="0.3" stroke-width="0.5" d="M 246.2320 -3.0000 L 265.2434 -3.0000 L 265.2434 3.0000 L 246.2320 3.0000 L 246.2320 -3.0000 Z"/>
    <path fill="none" stroke="#0066ff" stroke-opacity="0.3" stroke-width="0.5" d="M 252.3370 -3.0000 L 268.9744 -3.0000 L 268.9744 3.0000 L 252.3370 3.0000 L 252.3370 -3.0000 Z"/>
    <path fill="none" stroke="#0066ff" stroke-opacity="0.3" stroke-width="0.5" d="M 258.4127 -3.0000 L 272.7349 -3.0000 L 272.7349 3.0000 L 258.4127 3.0000 L 258.4127 -3.0000 Z"/>
    <path fill="none" stroke="#0066ff" stroke-opacity="0.3" stroke-width="0.5" d="M 264.4556 -3.0000 L 276.5280 -3.0000 L 276.5280 3.0000 L 264.4556 3.0000 L 264.4556 -3.0000 Z"/>
    <path fill="none" stroke="#0066ff" stroke-opacity="0.3" stroke-width="0.5" d="M 270.4616 -3.0000 L 280.3581 -3.0000 L 280.3581 3.0000 L 270.4616 3.0000 L 270.4616 -3.0000 Z"/>
    <path fill="none" stroke="#0066ff" stroke-opacity="0.3" stroke-width="0.5" d="M 276.4246 -3.0000 L 284.2312 -3.0000 L 284.2312 3.0000 L 276.4246 3.0000 L 276.4246 -3.0000 Z"/>
    <path fill="none" stroke="#0066ff" stroke-opacity="0.3" stroke-width="0.5" d="M 282.3361 -3.0000 L 288.1557 -3.0000 L 288.1557 3.0000 L 282.3361 3.0000 L 282.3361 -3.0000 Z"/>
    <path fill="none" stroke="#0066ff" stroke-opacity="0.3" stroke-width="0.5" d="M 288.1826 -3.0000 L 292.1453 -3.0000 L 292.1453 3.0000 L 288.1826 3.0000 L 288.1826 -3.0000 Z"/>
    <path fill="none" stroke="#0066ff" stroke-opacity="0.3" stroke-width="0.5" d="M 293.9372 -3.0000 L 296.2268 -3.0000 L 296.2268 3.0000 L 293.9372 3.0000 L 293.9372 -3.0000 Z"/>
    <path fill="none" stroke="#0066ff" stroke-opacity="0.3" stroke-width="0.5" d="M 299.5000 -3.0000 L 300.5000 -3.0000 L 300.5000 3.0000 L 299.5000 3.0000 L 299.5000 -3.0000 Z"/>
  <path fill="none" stroke="#00aa66" stroke-opacity="0.25" stroke-width="0.5" d="M 90.0000 -3.0000 L 90.0000 3.0000 L 93.1603 3.0000 L 93.1603 -3.0000 L 90.0000 -3.0000 Z"/>
    <path fill="none" stroke="#00aa66" stroke-opacity="0.25" stroke-width="0.5" d="M -90.0000 3.0000 L -90.0000 -3.0000 L -83.3242 -3.0000 L -83.3242 3.0000 L -90.0000 3.0000 Z"/>
    <path fill="none" stroke="#00aa66" stroke-opacity="0.25" stroke-width="0.5" d="M 93.1603 -3.0000 L 93.1603 3.0000 L 96.3264 3.0000 L 96.3264 -3.0000 L 93.1603 -3.0000 Z"/>
    <path fill="none" stroke="#00aa66" stroke-opacity="0.25" stroke-width="0.5" d="M -83.3242 3.0000 L -83.3242 -3.0000 L -76.6543 -3.0000 L -76.6543 3.0000 L -83.3242 3.0000 Z"/>
    <path fill="none" stroke="#00aa66" stroke-opacity="0.25" stroke-width="0.5" d="M 96.3264 -3.0000 L 96.3264 3.0000 L 99.4985 3.0000 L 99.4985 -3.0000 L 96.3264 -3.0000 Z"/>
    <path fill="none" stroke="#00aa66" stroke-opacity="0.25" stroke-width="0.5" d="M -76.6543 3.0000 L -76.6543 -3.0000 L -69.9903 -3.0000 L -69.9903 3.0000 L -76.6543 3.0000 Z"/>
    <path fill="none" stroke="#00aa66" stroke-opacity="0.25" stroke-width="0.5" d="M 99.4985 -3.0000 L 99.4985 3.0000 L 102.6765 3.0000 L 102.6765 -3.0000 L 99.4985 -3.0000 Z"/>
    <path fill="none" stroke="#00aa66" stroke-opacity="0.25" stroke-width="0.5" d="M -69.9903 3.0000 L -69.9903 -3.0000 L -63.3323 -3.0000 L -63.3323 3.0000 L -69.9903 3.0000 Z"/>
    <path fill="none" stroke="#00aa66" stroke-opacity="0.25" stroke-width="0.5" d="M 102.6765 -3.0000 L 102.6765 3.0000 L 105.8607 3.0000 L 105.8607 -3.0000 L 102.6765 -3.0000 Z"/>
    <path fill="none" stroke="#00aa66" stroke-opacity="0.25" stroke-width="0.5" d="M -63.3323 3.0000 L -63.3323 -3.0000 L -56.6804 -3.0000 L -56.6804 3.0000 L -63.3323 3.0000 Z"/>
    <path fill="none" stroke="#00aa66" stroke-opacity="0.25" stroke-width="0.5" d="M 105.8607 -3.0000 L 105.8607 3.0000 L 109.0510 3.0000 L 109.0510 -3.0000 L 105.8607 -3.0000 Z"/>
    <path fill="none" stroke="#00aa66" stroke-opacity="0.25" stroke-width="0.5" d="M -56.6804 3.0000 L -56.6804 -3.0000 L -50.0346 -3.0000 L -50.0346 3.0000 L -56.6804 3.0000 Z"/>
    <path fill="none" stroke="#00aa66" stroke-opacity="0.25" stroke-width="0.5" d="M 109.0510 -3.0000 L 109.0510 3.0000 L 112.2476 3.0000 L 112.2476 -3.0000 L 109.0510 -3.0000 Z"/>
    <path fill="none" stroke="#00aa66" stroke-opacity="0.25" stroke-width="0.5" d="M -50.0346 3.0000 L -50.0346 -3.0000 L -43.3952 -3.0000 L -43.3952 3.0000 L -50.0346 3.0000 Z"/>
    <path fill="none" stroke="#00aa66" stroke-opacity="0.25" stroke-width="0.5" d="M 112.2476 -3.0000 L 112.2476 3.0000 L 115.4506 3.0000 L 115.4506 -3.0000 L 112.2476 -3.0000 Z"/>
    <path fill="none" stroke="#00aa66" stroke-opacity="0.25" stroke-width="0.5" d="M -43.3952 3.0000 L -43.3952 -3.0000 L -36.7621 -3.0000 L -36.7621 3.0000 L -43.3952 3.0000 Z"/>
    <path fill="none" stroke="#00aa66" stroke-opacity="0.25" stroke-width="0.5" d="M 115.4506 -3.0000 L 115.4506 3.0000 L 118.6601 3.0000 L 118.6601 -3.0000 L 115.4506 -3.0000 Z"/>
    <path fill="none" stroke="#00aa66" stroke-opacity="0.25" stroke-width="0.5" d="M -36.7621 3.0000 L -36.7621 -3.0000 L -30.1355 -3.0000 L -30.1355 3.0000 L -36.7621 3.0000 Z"/>
    <path fill="none" stroke="#00aa66" stroke-opacity="0.25" stroke-width="0.5" d="M 118.6601 -3.0000 L 118.6601 3.0000 L 121.8760 3.0000 L 121.8760 -3.0000 L 118.6601 -3.0000 Z"/>
    <path fill="none" stroke="#00aa66" stroke-opacity="0.25" stroke-width="0.5" d="M -30.1355 3.0000 L -30.1355 -3.0000 L -23.5154 -3.0000 L -23.5154 3.0000 L -30.1355 3.0000 Z"/>
    <path fill="none" stroke="#00aa66" stroke-opacity="0.25" stroke-width="0.5" d="M 121.8760 -3.0000 L 121.8760 3.0000 L 125.0987 3.0000 L 125.0987 -3.0000 L 121.8760 -3.0000 Z"/>
    <path fill="none" stroke="#00aa66" stroke-opacity="0.25" stroke-width="0.5" d="M -23.5154 3.0000 L -23.5154 -3.0000 L -16.9020 -3.0000 L -16.9020 3.0000 L -23.5154 3.0000 Z"/>
    <path fill="none" stroke="#00aa66" stroke-opacity="0.25" stroke-width="0.5" d="M 125.0987 -3.0000 L 125.0987 3.0000 L 128.3281 3.0000 L 128.3281 -3.0000 L 125.0987 -3.0000 Z"/>
    <path fill="none" stroke="#00aa66" stroke-opacity="0.25" stroke-width="0.5" d="M -16.9020 3.0000 L -16.9020 -3.0000 L -10.2953 -3.0000 L -10.2953 3.0000 L -16.9020 3.0000 Z"/>
    <path fill="none" stroke="#00aa66" stroke-opacity="0.25" stroke-width="0.5" d="M 128.3281 -3.0000 L 128.3281 3.0000 L 131.5644 3.0000 L 131.5644 -3.0000 L 128.3281 -3.0000 Z"/>
    <path fill="none" stroke="#00aa66" stroke-opacity="0.25" stroke-width="0.5" d="M -10.2953 3.0000 L -10.2953 -3.0000 L -3.6956 -3.0000 L -3.6956 3.0000 L -10.2953 3.0000 Z"/>
    <path fill="none" stroke="#00aa66" stroke-opacity="0.25" stroke-width="0.5" d="M 131.5644 -3.0000 L 131.5644 3.0000 L 134.8077 3.0000 L 134.8077 -3.0000 L 131.5644 -3.0000 Z"/>
    <path fill="none" stroke="#00aa66" stroke-opacity="0.25" stroke-width="0.5" d="M -3.6956 3.0000 L -3.6956 -3.0000 L 2.8972 -3.0000 L 2.8972 3.0000 L -3.6956 3.0000 Z"/>
    <path fill="none" stroke="#00aa66" stroke-opacity="0.25" stroke-width="0.5" d="M 134.8077 -3.0000 L 134.8077 3.0000 L 138.0581 3.0000 L 138.0581 -3.0000 L 134.8077 -3.0000 Z"/>
    <path fill="none" stroke="#00aa66" stroke-opacity="0.25" stroke-width="0.5" d="M 2.8972 3.0000 L 2.8972 -3.0000 L 9.4828 -3.0000 L 9.4828 3.0000 L 2.8972 3.0000 Z"/>
    <path fill="none" stroke="#00aa66" stroke-opacity="0.25" stroke-width="0.5" d="M 138.0581 -3.0000 L 138.0581 3.0000 L 141.3158 3.0000 L 141.3158 -3.0000 L 138.0581 -3.0000 Z"/>
    <path fill="none" stroke="#00aa66" stroke-opacity="0.25" stroke-width="0.5" d="M 9.4828 3.0000 L 9.4828 -3.0000 L 16.0613 -3.0000 L 16.0613 3.0000 L 9.4828 3.0000 Z"/>
    <path fill="none" stroke="#00aa66" stroke-opacity="0.25" stroke-width="0.5" d="M 141.3158 -3.0000 L 141.3158 3.0000 L 144.5808 3.0000 L 144.5808 -3.0000 L 141.3158 -3.0000 Z"/>
    <path fill="none" stroke="#00aa66" stroke-opacity="0.25" stroke-width="0.5" d="M 16.0613 3.0000 L 16.0613 -3.0000 L 22.6323 -3.0000 L 22.6323 3.0000 L 16.0613 3.0000 Z"/>
    <path fill="none" stroke="#00aa66" stroke-opacity="0.25" stroke-width="0.5" d="M 144.5808 -3.0000 L 144.5808 3.0000 L 147.8533 3.0000 L 147.8533 -3.0000 L 144.5808 -3.0000 Z"/>
    <path fill="none" stroke="#00aa66" stroke-opacity="0.25" stroke-width="0.5" d="M 22.6323 3.0000 L 22.6323 -3.0000 L 29.1959 -3.0000 L 29.1959 3.0000 L 22.6323 3.0000 Z"/>
    <path fill="none" stroke="#00aa66" stroke-opacity="0.25" stroke-width="0.5" d="M 147.8533 -3.0000 L 147.8533 3.0000 L 151.1335 3.0000 L 151.1335 -3.0000 L 147.8533 -3.0000 Z"/>
    <path fill="none" stroke="#00aa66" stroke-opacity="0.25" stroke-width="0.5" d="M 29.1959 3.0000 L 29.1959 -3.0000 L 35.7518 -3.0000 L 35.7518 3.0000 L 29.1959 3.0000 Z"/>
    <path fill="none" stroke="#00aa66" stroke-opacity="0.25" stroke-width="0.5" d="M 151.1335 -3.0000 L 151.1335 3.0000 L 154.4214 3.0000 L 154.4214 -3.0000 L 151.1335 -3.0000 Z"/>
    <path fill="none" stroke="#00aa66" stroke-opacity="0.25" stroke-width="0.5" d="M 35.7518 3.0000 L 35.7518 -3.0000 L 42.2999 -3.0000 L 42.2999 3.0000 L 35.7518 3.0000 Z"/>
    <path fill="none" stroke="#00aa66" stroke-opacity="0.25" stroke-width="0.5" d="M 154.4214 -3.0000 L 154.4214 3.0000 L 157.7172 3.0000 L 157.7172 -3.0000 L 154.4214 -3.0000 Z"/>
    <path fill="none" stroke="#00aa66" stroke-opacity="0.25" stroke-width="0.5" d="M 42.2999 3.0000 L 42.2999 -3.0000 L 48.8401 -3.0000 L 48.8401 3.0000 L 42.2999 3.0000 Z"/>
    <path fill="none" stroke="#00aa66" stroke-opacity="0.25" stroke-width="0.5" d="M 157.7172 -3.0000 L 157.7172 3.0000 L 161.0212 3.0000 L 161.0212 -3.0000 L 157.7172 -3.0000 Z"/>
    <path fill="none" stroke="#00aa66" stroke-opacity="0.25" stroke-width="0.5" d="M 48.8401 3.0000 L 48.8401 -3.0000 L 55.3723 -3.0000 L 55.3723 3.0000 L 48.8401 3.0000 Z"/>
    <path fill="none" stroke="#00aa66" stroke-opacity="0.25" stroke-width="0.5" d="M 161.0212 -3.0000 L 161.0212 3.0000 L 164.3334 3.0000 L 164.3334 -3.0000 L 161.0212 -3.0000 Z"/>
    <path fill="none" stroke="#00aa66" stroke-opacity="0.25" stroke-width="0.5" d="M 55.3723 3.0000 L 55.3723 -3.0000 L 61.8961 -3.0000 L 61.8961 3.0000 L 55.3723 3.0000 Z"/>
    <path fill="none" stroke="#00aa66" stroke-opacity="0.25" stroke-width="0.5" d="M 164.3334 -3.0000 L 164.3334 3.0000 L 167.6540 3.0000 L 167.6540 -3.0000 L 164.3334 -3.0000 Z"/>
    <path fill="none" stroke="#00aa66" stroke-opacity="0.25" stroke-width="0.5" d="M 61.8961 3.0000 L 61.8961 -3.0000 L 68.4115 -3.0000 L 68.4115 3.0000 L 61.8961 3.0000 Z"/>
    <path fill="none" stroke="#00aa66" stroke-opacity="0.25" stroke-width="0.5" d="M 167.6540 -3.0000 L 167.6540 3.0000 L 170.9833 3.0000 L 170.9833 -3.0000 L 167.6540 -3.0000 Z"/>
    <path fill="none" stroke="#00aa66" stroke-opacity="0.25" stroke-width="0.5" d="M 68.4115 3.0000 L 68.4115 -3.0000 L 74.9184 -3.0000 L 74.9184 3.0000 L 68.4115 3.0000 Z"/>
    <path fill="none" stroke="#00aa66" stroke-opacity="0.25" stroke-width="0.5" d="M 170.9833 -3.0000 L 170.9833 3.0000 L 174.3213 3.0000 L 174.3213 -3.0000 L 170.9833 -3.0000 Z"/>
    <path fill="none" stroke="#00aa66" stroke-opacity="0.25" stroke-width="0.5" d="M 74.9184 3.0000 L 74.9184 -3.0000 L 81.4164 -3.0000 L 81.4164 3.0000 L 74.9184 3.0000 Z"/>
    <path fill="none" stroke="#00aa66" stroke-opacity="0.25" stroke-width="0.5" d="M 174.3213 -3.0000 L 174.3213 3.0000 L 177.6684 3.0000 L 177.6684 -3.0000 L 174.3213 -3.0000 Z"/>
    <path fill="none" stroke="#00aa66" stroke-opacity="0.25" stroke-width="0.5" d="M 81.4164 3.0000 L 81.4164 -3.0000 L 87.9054 -3.0000 L 87.9054 3.0000 L 81.4164 3.0000 Z"/>
    <path fill="none" stroke="#00aa66" stroke-opacity="0.25" stroke-width="0.5" d="M 177.6684 -3.0000 L 177.6684 3.0000 L 181.0247 3.0000 L 181.0247 -3.0000 L 177.6684 -3.0000 Z"/>
    <path fill="none" stroke="#00aa66" stroke-opacity="0.25" stroke-width="0.5" d="M 87.9054 3.0000 L 87.9054 -3.0000 L 94.3852 -3.0000 L 94.3852 3.0000 L 87.9054 3.0000 Z"/>
    <path fill="none" stroke="#00aa66" stroke-opacity="0.25" stroke-width="0.5" d="M 181.0247 -3.0000 L 181.0247 3.0000 L 184.3904 3.0000 L 184.3904 -3.0000 L 181.0247 -3.0000 Z"/>
    <path fill="none" stroke="#00aa66" stroke-opacity="0.25" stroke-width="0.5" d="M 94.3852 3.0000 L 94.3852 -3.0000 L 100.8555 -3.0000 L 100.8555 3.0000 L 94.3852 3.0000 Z"/>
    <path fill="none" stroke="#00aa66" stroke-opacity="0.25" stroke-width="0.5" d="M 184.3904 -3.0000 L 184.3904 3.0000 L 187.7657 3.0000 L 187.7657 -3.0000 L 184.3904 -3.0000 Z"/>
    <path fill="none" stroke="#00aa66" stroke-opacity="0.25" stroke-width="0.5" d="M 100.8555 3.0000 L 100.8555 -3.0000 L 107.3162 -3.0000 L 107.3162 3.0000 L 100.8555 3.0000 Z"/>
    <path fill="none" stroke="#00aa66" stroke-opacity="0.25" stroke-width="0.5" d="M 187.7657 -3.0000 L 187.7657 3.0000 L 191.1510 3.0000 L 191.1510 -3.0000 L 187.7657 -3.0000 Z"/>
    <path fill="none" stroke="#00aa66" stroke-opacity="0.25" stroke-width="0.5" d="M 107.3162 3.0000 L 107.3162 -3.0000 L 113.7670 -3.0000 L 113.7670 3.0000 L 107.3162 3.0000 Z"/>
    <path fill="none" stroke="#00aa66" stroke-opacity="0.25" stroke-width="0.5" d="M 191.1510 -3.0000 L 191.1510 3.0000 L 194.5465 3.0000 L 194.5465 -3.0000 L 191.1510 -3.0000 Z"/>
    <path fill="none" stroke="#00aa66" stroke-opacity="0.25" stroke-width="0.5" d="M 113.7670 3.0000 L 113.7670 -3.0000 L 120.2076 -3.0000 L 120.2076 3.0000 L 113.7670 3.0000 Z"/>
    <path fill="none" stroke="#00aa66" stroke-opacity="0.25" stroke-width="0.5" d="M 194.5465 -3.0000 L 194.5465 3.0000 L 197.9525 3.0000 L 197.9525 -3.0000 L 194.5465 -3.0000 Z"/>
    <path fill="none" stroke="#00aa66" stroke-opacity="0.25" stroke-width="0.5" d="M 120.2076 3.0000 L 120.2076 -3.0000 L 126.6377 -3.0000 L 126.6377 3.0000 L 120.2076 3.0000 Z"/>
    <path fill="none" stroke="#00aa66" stroke-opacity="0.25" stroke-width="0.5" d="M 197.9525 -3.0000 L 197.9525 3.0000 L 201.3692 3.0000 L 201.3692 -3.0000 L 197.9525 -3.0000 Z"/>
    <path fill="none" stroke="#00aa66" stroke-opacity="0.25" stroke-width="0.5" d="M 126.6377 3.0000 L 126.6377 -3.0000 L 133.0570 -3.0000 L 133.0570 3.0000 L 126.6377 3.0000 Z"/>
    <path fill="none" stroke="#00aa66" stroke-opacity="0.25" stroke-width="0.5" d="M 201.3692 -3.0000 L 201.3692 3.0000 L 204.7970 3.0000 L 204.7970 -3.0000 L 201.3692 -3.0000 Z"/>
    <path fill="none" stroke="#00aa66" stroke-opacity="0.25" stroke-width="0.5" d="M 133.0570 3.0000 L 133.0570 -3.0000 L 139.4653 -3.0000 L 139.4653 3.0000 L 133.0570 3.0000 Z"/>
    <path fill="none" stroke="#00aa66" stroke-opacity="0.25" stroke-width="0.5" d="M 204.7970 -3.0000 L 204.7970 3.0000 L 208.2362 3.0000 L 208.2362 -3.0000 L 204.7970 -3.0000 Z"/>
    <path fill="none" stroke="#00aa66" stroke-opacity="0.25" stroke-width="0.5" d="M 139.4653 3.0000 L 139.4653 -3.0000 L 145.8621 -3.0000 L 145.8621 3.0000 L 139.4653 3.0000 Z"/>
    <path fill="none" stroke="#00aa66" stroke-opacity="0.25" stroke-width="0.5" d="M 208.2362 -3.0000 L 208.2362 3.0000 L 211.6872 3.0000 L 211.6872 -3.0000 L 208.2362 -3.0000 Z"/>
    <path fill="none" stroke="#00aa66" stroke-opacity="0.25" stroke-width="0.5" d="M 145.8621 3.0000 L 145.8621 -3.0000 L 152.2472 -3.0000 L 152.2472 3.0000 L 145.8621 3.0000 Z"/>
    <path fill="none" stroke="#00aa66" stroke-opacity="0.25" stroke-width="0.5" d="M 211.6872 -3.0000 L 211.6872 3.0000 L 215.1504 3.0000 L 215.1504 -3.0000 L 211.6872 -3.0000 Z"/>
    <path fill="none" stroke="#00aa66" stroke-opacity="0.25" stroke-width="0.5" d="M 152.2472 3.0000 L 152.2472 -3.0000 L 158.6201 -3.0000 L 158.6201 3.0000 L 152.2472 3.0000 Z"/>
    <path fill="none" stroke="#00aa66" stroke-opacity="0.25" stroke-width="0.5" d="M 215.1504 -3.0000 L 215.1504 3.0000 L 218.6262 3.0000 L 218.6262 -3.0000 L 215.1504 -3.0000 Z"/>
    <path fill="none" stroke="#00aa66" stroke-opacity="0.25" stroke-width="0.5" d="M 158.6201 3.0000 L 158.6201 -3.0000 L 164.9803 -3.0000 L 164.9803 3.0000 L 158.6201 3.0000 Z"/>
    <path fill="none" stroke="#00aa66" stroke-opacity="0.25" stroke-width="0.5" d="M 218.6262 -3.0000 L 218.6262 3.0000 L 222.1151 3.0000 L 222.1151 -3.0000 L 218.6262 -3.0000 Z"/>
    <path fill="none" stroke="#00aa66" stroke-opacity="0.25" stroke-width="0.5" d="M 164.9803 3.0000 L 164.9803 -3.0000 L 171.3276 -3.0000 L 171.3276 3.0000 L 164.9803 3.0000 Z"/>
    <path fill="none" stroke="#00aa66" stroke-opacity="0.25" stroke-width="0.5" d="M 222.1151 -3.0000 L 222.1151 3.0000 L 225.6175 3.0000 L 225.6175 -3.0000 L 222.1151 -3.0000 Z"/>
    <path fill="none" stroke="#00aa66" stroke-opacity="0.25" stroke-width="0.5" d="M 171.3276 3.0000 L 171.3276 -3.0000 L 177.6612 -3.0000 L 177.6612 3.0000 L 171.3276 3.0000 Z"/>
    <path fill="none" stroke="#00aa66" stroke-opacity="0.25" stroke-width="0.5" d="M 225.6175 -3.0000 L 225.6175 3.0000 L 229.1339 3.0000 L 229.1339 -3.0000 L 225.6175 -3.0000 Z"/>
    <path fill="none" stroke="#00aa66" stroke-opacity="0.25" stroke-width="0.5" d="M 177.6612 3.0000 L 177.6612 -3.0000 L 183.9808 -3.0000 L 183.9808 3.0000 L 177.6612 3.0000 Z"/>
    <path fill="none" stroke="#00aa66" stroke-opacity="0.25" stroke-width="0.5" d="M 229.1339 -3.0000 L 229.1339 3.0000 L 232.6651 3.0000 L 232.6651 -3.0000 L 229.1339 -3.0000 Z"/>
    <path fill="none" stroke="#00aa66" stroke-opacity="0.25" stroke-width="0.5" d="M 183.9808 3.0000 L 183.9808 -3.0000 L 190.2857 -3.0000 L 190.2857 3.0000 L 183.9808 3.0000 Z"/>
    <path fill="none" stroke="#00aa66" stroke-opacity="0.25" stroke-width="0.5" d="M 232.6651 -3.0000 L 232.6651 3.0000 L 236.2116 3.0000 L 236.2116 -3.0000 L 232.6651 -3.0000 Z"/>
    <path fill="none" stroke="#00aa66" stroke-opacity="0.25" stroke-width="0.5" d="M 190.2857 3.0000 L 190.2857 -3.0000 L 196.5753 -3.0000 L 196.5753 3.0000 L 190.2857 3.0000 Z"/>
    <path fill="none" stroke="#00aa66" stroke-opacity="0.25" stroke-width="0.5" d="M 236.2116 -3.0000 L 236.2116 3.0000 L 239.7742 3.0000 L 239.7742 -3.0000 L 236.2116 -3.0000 Z"/>
    <path fill="none" stroke="#00aa66" stroke-opacity="0.25" stroke-width="0.5" d="M 196.5753 3.0000 L 196.5753 -3.0000 L 202.8488 -3.0000 L 202.8488 3.0000 L 196.5753 3.0000 Z"/>
    <path fill="none" stroke="#00aa66" stroke-opacity="0.25" stroke-width="0.5" d="M 239.7742 -3.0000 L 239.7742 3.0000 L 243.3536 3.0000 L 243.3536 -3.0000 L 239.7742 -3.0000 Z"/>
    <path fill="none" stroke="#00aa66" stroke-opacity="0.25" stroke-width="0.5" d="M 202.8488 3.0000 L 202.8488 -3.0000 L 209.1055 -3.0000 L 209.1055 3.0000 L 202.8488 3.0000 Z"/>
    <path fill="none" stroke="#00aa66" stroke-opacity="0.25" stroke-width="0.5" d="M 243.3536 -3.0000 L 243.3536 3.0000 L 246.9507 3.0000 L 246.9507 -3.0000 L 243.3536 -3.0000 Z"/>
    <path fill="none" stroke="#00aa66" stroke-opacity="0.25" stroke-width="0.5" d="M 209.1055 3.0000 L 209.1055 -3.0000 L 215.3444 -3.0000 L 215.3444 3.0000 L 209.1055 3.0000 Z"/>
    <path fill="none" stroke="#00aa66" stroke-opacity="0.25" stroke-width="0.5" d="M 246.9507 -3.0000 L 246.9507 3.0000 L 250.5666 3.0000 L 250.5666 -3.0000 L 246.9507 -3.0000 Z"/>
    <path fill="none" stroke="#00aa66" stroke-opacity="0.25" stroke-width="0.5" d="M 215.3444 3.0000 L 215.3444 -3.0000 L 221.5646 -3.0000 L 221.5646 3.0000 L 215.3444 3.0000 Z"/>
    <path fill="none" stroke="#00aa66" stroke-opacity="0.25" stroke-width="0.5" d="M 250.5666 -3.0000 L 250.5666 3.0000 L 254.2024 3.0000 L 254.2024 -3.0000 L 250.5666 -3.0000 Z"/>
    <path fill="none" stroke="#00aa66" stroke-opacity="0.25" stroke-width="0.5" d="M 221.5646 3.0000 L 221.5646 -3.0000 L 227.7648 -3.0000 L 227.7648 3.0000 L 221.5646 3.0000 Z"/>
    <path fill="none" stroke="#00aa66" stroke-opacity="0.25" stroke-width="0.5" d="M 254.2024 -3.0000 L 254.2024 3.0000 L 257.8594 3.0000 L 257.8594 -3.0000 L 254.2024 -3.0000 Z"/>
    <path fill="none" stroke="#00aa66" stroke-opacity="0.25" stroke-width="0.5" d="M 227.7648 3.0000 L 227.7648 -3.0000 L 233.9439 -3.0000 L 233.9439 3.0000 L 227.7648 3.0000 Z"/>
    <path fill="none" stroke="#00aa66" stroke-opacity="0.25" stroke-width="0.5" d="M 257.8594 -3.0000 L 257.8594 3.0000 L 261.5391 3.0000 L 261.5391 -3.0000 L 257.8594 -3.0000 Z"/>
    <path fill="none" stroke="#00aa66" stroke-opacity="0.25" stroke-width="0.5" d="M 233.9439 3.0000 L 233.9439 -3.0000 L 240.1002 -3.0000 L 240.1002 3.0000 L 233.9439 3.0000 Z"/>
    <path fill="none" stroke="#00aa66" stroke-opacity="0.25" stroke-width="0.5" d="M 261.5391 -3.0000 L 261.5391 3.0000 L 265.2434 3.0000 L 265.2434 -3.0000 L 261.5391 -3.0000 Z"/>
    <path fill="none" stroke="#00aa66" stroke-opacity="0.25" stroke-width="0.5" d="M 240.1002 3.0000 L 240.1002 -3.0000 L 246.2320 -3.0000 L 246.2320 3.0000 L 240.1002 3.0000 Z"/>
    <path fill="none" stroke="#00aa66" stroke-opacity="0.25" stroke-width="0.5" d="M 265.2434 -3.0000 L 265.2434 3.0000 L 268.9744 3.0000 L 268.9744 -3.0000 L 265.2434 -3.0000 Z"/>
    <path fill="none" stroke="#00aa66" stroke-opacity="0.25" stroke-width="0.5" d="M 246.2320 3.0000 L 246.2320 -3.0000 L 252.3370 -3.0000 L 252.3370 3.0000 L 246.2320 3.0000 Z"/>
    <path fill="none" stroke="#00aa66" stroke-opacity="0.25" stroke-width="0.5" d="M 268.9744 -3.0000 L 268.9744 3.0000 L 272.7349 3.0000 L 272.7349 -3.0000 L 268.9744 -3.0000 Z"/>
    <path fill="none" stroke="#00aa66" stroke-opacity="0.25" stroke-width="0.5" d="M 252.3370 3.0000 L 252.3370 -3.0000 L 258.4127 -3.0000 L 258.4127 3.0000 L 252.3370 3.0000 Z"/>
    <path fill="none" stroke="#00aa66" stroke-opacity="0.25" stroke-width="0.5" d="M 272.7349 -3.0000 L 272.7349 3.0000 L 276.5280 3.0000 L 276.5280 -3.0000 L 272.7349 -3.0000 Z"/>
    <path fill="none" stroke="#00aa66" stroke-opacity="0.25" stroke-width="0.5" d="M 258.4127 3.0000 L 258.4127 -3.0000 L 264.4556 -3.0000 L 264.4556 3.0000 L 258.4127 3.0000 Z"/>
    <path fill="none" stroke="#00aa66" stroke-opacity="0.25" stroke-width="0.5" d="M 276.5280 -3.0000 L 276.5280 3.0000 L 280.3581 3.0000 L 280.3581 -3.0000 L 276.5280 -3.0000 Z"/>
    <path fill="none" stroke="#00aa66" stroke-opacity="0.25" stroke-width="0.5" d="M 264.4556 3.0000 L 264.4556 -3.0000 L 270.4616 -3.0000 L 270.4616 3.0000 L 264.4556 3.0000 Z"/>
    <path fill="none" stroke="#00aa66" stroke-opacity="0.25" stroke-width="0.5" d="M 280.3581 -3.0000 L 280.3581 3.0000 L 284.2312 3.0000 L 284.2312 -3.0000 L 280.3581 -3.0000 Z"/>
    <path fill="none" stroke="#00aa66" stroke-opacity="0.25" stroke-width="0.5" d="M 270.4616 3.0000 L 270.4616 -3.0000 L 276.4246 -3.0000 L 276.4246 3.0000 L 270.4616 3.0000 Z"/>
    <path fill="none" stroke="#00aa66" stroke-opacity="0.25" stroke-width="0.5" d="M 284.2312 -3.0000 L 284.2312 3.0000 L 288.1557 3.0000 L 288.1557 -3.0000 L 284.2312 -3.0000 Z"/>
    <path fill="none" stroke="#00aa66" stroke-opacity="0.25" stroke-width="0.5" d="M 276.4246 3.0000 L 276.4246 -3.0000 L 282.3361 -3.0000 L 282.3361 3.0000 L 276.4246 3.0000 Z"/>
    <path fill="none" stroke="#00aa66" stroke-opacity="0.25" stroke-width="0.5" d="M 288.1557 -3.0000 L 288.1557 3.0000 L 292.1453 3.0000 L 292.1453 -3.0000 L 288.1557 -3.0000 Z"/>
    <path fill="none" stroke="#00aa66" stroke-opacity="0.25" stroke-width="0.5" d="M 282.3361 3.0000 L 282.3361 -3.0000 L 288.1826 -3.0000 L 288.1826 3.0000 L 282.3361 3.0000 Z"/>
    <path fill="none" stroke="#00aa66" stroke-opacity="0.25" stroke-width="0.5" d="M 292.1453 -3.0000 L 292.1453 3.0000 L 296.2268 3.0000 L 296.2268 -3.0000 L 292.1453 -3.0000 Z"/>
    <path fill="none" stroke="#00aa66" stroke-opacity="0.25" stroke-width="0.5" d="M 288.1826 3.0000 L 288.1826 -3.0000 L 293.9372 -3.0000 L 293.9372 3.0000 L 288.1826 3.0000 Z"/>
    <path fill="none" stroke="#00aa66" stroke-opacity="0.25" stroke-width="0.5" d="M 296.2268 -3.0000 L 296.2268 3.0000 L 300.5000 3.0000 L 300.5000 -3.0000 L 296.2268 -3.0000 Z"/>
    <path fill="none" stroke="#00aa66" stroke-opacity="0.25" stroke-width="0.5" d="M 293.9372 3.0000 L 293.9372 -3.0000 L 299.5000 -3.0000 L 299.5000 3.0000 L 293.9372 3.0000 Z"/>
  
  <g id="alpha-chart">
  <rect x="-92.0000" y="-5.0000" width="220.0000" height="140.0000" fill="none" stroke="#222222" stroke-width="0.6"/>
  <path fill="none" stroke="#999999" stroke-opacity="0.6" stroke-width="0.8" d="M -92.0000 135.0000 L 128.0000 -5.0000"/>
  <path fill="none" stroke="#1565c0" stroke-opacity="0.9" stroke-width="1.2" d="M -92.0000 135.0000 L -88.5079 132.3376 L -85.0159 129.6837 L -81.5238 127.0386 L -78.0317 124.4022 L -74.5397 121.7748 L -71.0476 119.1564 L -67.5556 116.5472 L -64.0635 113.9473 L -60.5714 111.3568 L -57.0794 108.7759 L -53.5873 106.2048 L -50.0952 103.6435 L -46.6032 101.0922 L -43.1111 98.5511 L -39.6190 96.0203 L -36.1270 93.5001 L -32.6349 90.9906 L -29.1429 88.4920 L -25.6508 86.0044 L -22.1587 83.5282 L -18.6667 81.0634 L -15.1746 78.6103 L -11.6825 76.1692 L -8.1905 73.7403 L -4.6984 71.3237 L -1.2063 68.9199 L 2.2857 66.5290 L 5.7778 64.1514 L 9.2698 61.7873 L 12.7619 59.4371 L 16.2540 57.1011 L 19.7460 54.7797 L 23.2381 52.4731 L 26.7302 50.1819 L 30.2222 47.9065 L 33.7143 45.6473 L 37.2063 43.4047 L 40.6984 41.1793 L 44.1905 38.9717 L 47.6825 36.7823 L 51.1746 34.6120 L 54.6667 32.4613 L 58.1587 30.3310 L 61.6508 28.2218 L 65.1429 26.1348 L 68.6349 24.0709 L 72.1270 22.0311 L 75.6190 20.0166 L 79.1111 18.0289 L 82.6032 16.0694 L 86.0952 14.1398 L 89.5873 12.2421 L 93.0794 10.3787 L 96.5714 8.5522 L 100.0635 6.7660 L 103.5556 5.0239 L 107.0476 3.3311 L 110.5397 1.6940 L 114.0317 0.1214 L 117.5238 -1.3737 L 121.0159 -2.7708 L 124.5079 -4.0297 L 128.0000 -5.0000"/>
  <path fill="none" stroke="#fb8c00" stroke-opacity="0.8" stroke-width="1.0" d="M -92.0000 -5.0000 L -88.5079 -2.3376 L -85.0159 0.3163 L -81.5238 2.9614 L -78.0317 5.5978 L -74.5397 8.2252 L -71.0476 10.8436 L -67.5556 13.4528 L -64.0635 16.0527 L -60.5714 18.6432 L -57.0794 21.2241 L -53.5873 23.7952 L -50.0952 26.3565 L -46.6032 28.9078 L -43.1111 31.4489 L -39.6190 33.9797 L -36.1270 36.4999 L -32.6349 39.0094 L -29.1429 41.5080 L -25.6508 43.9956 L -22.1587 46.4718 L -18.6667 48.9366 L -15.1746 51.3897 L -11.6825 53.8308 L -8.1905 56.2597 L -4.6984 58.6763 L -1.2063 61.0801 L 2.2857 63.4710 L 5.7778 65.8486 L 9.2698 68.2127 L 12.7619 70.5629 L 16.2540 72.8989 L 19.7460 75.2203 L 23.2381 77.5269 L 26.7302 79.8181 L 30.2222 82.0935 L 33.7143 84.3527 L 37.2063 86.5953 L 40.6984 88.8207 L 44.1905 91.0283 L 47.6825 93.2177 L 51.1746 95.3880 L 54.6667 97.5387 L 58.1587 99.6690 L 61.6508 101.7782 L 65.1429 103.8652 L 68.6349 105.9291 L 72.1270 107.9689 L 75.6190 109.9834 L 79.1111 111.9711 L 82.6032 113.9306 L 86.0952 115.8602 L 89.5873 117.7579 L 93.0794 119.6213 L 96.5714 121.4478 L 100.0635 123.2340 L 103.5556 124.9761 L 107.0476 126.6689 L 110.5397 128.3060 L 114.0317 129.8786 L 117.5238 131.3737 L 121.0159 132.7708 L 124.5079 134.0297 L 128.0000 135.0000"/>
  <text x="-86.0000" y="9.0000" font-size="8" fill="#222222">alpha=-0.800</text>
  <text x="-86.0000" y="21.0000" font-size="8" fill="#222222">segment [0.000..1.000]</text>
  <text x="-86.0000" y="33.0000" font-size="8" fill="#222222">width [1.000..180.000]</text>
  <text x="-86.0000" y="45.0000" font-size="8" fill="#222222">f(0.25)=0.292 f(0.5)=0.565 f(0.75)=0.811</text>
</g>
</g>
</svg>