<svg xmlns="http://www.w3.org/2000/svg" width="346.8750" height="482.3750" viewBox="-105.0000 -13.0000 346.8750 482.3750">
  <g id="background-glyph" fill="#e0e0e0" stroke="#4169e1" stroke-width="1.0000" opacity="0.5000" transform="matrix(1.0000 0 0 1.0000 0 0)">
  <path transform="matrix(1.0000 0 0 1.0000 -723.6510 -447.8750)" d="M955.526,454.125L955.526,447.875L763.026,447.875L763.026,454.125C773.859,455.375 784.38,457.25 794.589,459.75C804.797,462.25 812.818,467.042 818.651,474.125C821.151,477.042 822.922,481.208 823.964,486.625C825.005,492.042 825.839,498.188 826.464,505.063C827.089,511.938 827.401,519.125 827.401,526.625L827.401,744.125C827.401,755.792 827.297,766.625 827.089,776.625C826.88,786.625 826.776,794.542 826.776,800.375C826.359,812.042 825.63,823.708 824.589,835.375C823.547,847.042 821.776,857.458 819.276,866.625C816.359,876.208 811.672,884.333 805.214,891C798.755,897.667 790.318,901 779.901,901C776.568,901 773.026,900.271 769.276,898.813C765.526,897.354 762.609,895.167 760.526,892.25L760.526,890.375C769.276,889.125 776.568,886.313 782.401,881.938C788.234,877.563 791.151,870.583 791.151,861C791.151,852.667 788.13,845.479 782.089,839.438C776.047,833.396 768.859,830.375 760.526,830.375C750.943,830.375 742.401,833.5 734.901,839.75C727.401,846 723.651,854.125 723.651,864.125C723.651,872.042 725.214,878.813 728.339,884.438C731.464,890.063 735.63,894.438 740.839,897.563C746.047,900.688 751.88,903.083 758.339,904.75C764.797,906.417 771.359,907.25 778.026,907.25C790.109,907.25 803.339,904.958 817.714,900.375C832.089,895.792 845.943,888.292 859.276,877.875C870.109,869.542 878.859,860.479 885.526,850.688C892.193,840.896 895.526,829.125 895.526,815.375L895.526,600.375C895.526,589.958 895.63,579.646 895.839,569.438C896.047,559.229 896.151,548.917 896.151,538.5C896.568,528.917 896.984,518.604 897.401,507.563C897.818,496.521 899.693,487.667 903.026,481C908.443,471 916.359,464.333 926.776,461C937.193,457.667 946.776,455.375 955.526,454.125Z"/>
</g>
  
  <path fill="black" stroke="none" fill-rule="evenodd" d="M -95.0000 -3.0000 L -95.0000 3.0000 L -59.5182 3.0000 L -59.5182 7.8367 L -52.4218 7.8367 L -52.4218 8.8041 L -31.1324 8.8041 L -31.1324 11.7062 L -24.0359 11.7062 L -24.0359 12.6736 L 24.0359 12.6736 L 24.0359 11.7062 L 31.1324 11.7062 L 31.1324 8.8041 L 52.4218 8.8041 L 52.4218 7.8367 L 59.5182 7.8367 L 59.5182 3.0000 L 95.0000 3.0000 L 95.0000 -3.0000 L -95.0000 -3.0000 Z"/>
<path fill="black" stroke="none" fill-rule="evenodd" d="M -90.4011 412.0100 L -90.3003 412.5380 L -90.3003 413.6464 L -90.0887 413.6464 L -89.9456 414.3961 L -89.9965 413.6464 L -89.2448 413.6464 L -89.2448 419.1763 L -86.8797 419.1763 L -86.8797 424.2634 L -83.4322 424.2634 L -83.4322 428.7004 L -79.1848 428.7004 L -79.1848 432.4048 L -74.3845 432.4048 L -74.3845 435.3773 L -70.1140 435.3773 L -70.1140 437.3132 L -69.2132 437.3132 L -69.2132 437.6534 L -63.7982 437.6534 L -63.7982 439.2709 L -63.2593 439.2709 L -63.2593 439.3948 L -58.2321 439.3948 L -58.2321 440.2559 L -51.9971 440.2559 L -51.9971 440.6219 L -50.8059 440.6219 L -50.8714 440.2559 L -49.5934 440.2559 L -49.5613 440.6219 L -48.3891 440.6219 L -48.4891 440.2559 L -47.8402 440.2559 L -47.8402 440.4437 L -47.1953 440.4437 L -47.1634 440.6219 L -11.9971 440.6219 L -11.9971 440.4437 L -8.3597 440.4437 L -5.1251 450.4488 L -6.0264 440.1608 L -5.2692 440.1608 L -5.2692 438.9965 L -1.8155 438.9965 L 3.3779 447.6998 L 0.5642 438.9965 L 0.5780 438.9965 L 0.5780 436.4335 L 7.7804 436.4335 L 7.7804 434.9009 L 9.0930 434.9009 L 5.2747 439.9033 L 20.0000 435.8772 L 20.0000 412.3857 L -8.0389 412.3857 L -8.6158 410.6014 L -8.4595 412.3857 L -13.7214 412.3857 L -9.9726 407.4743 L 20.0000 407.4743 L 20.0000 372.1516 L 20.0000 372.1516 L 20.0000 368.3188 L 20.0000 360.6758 L 20.0000 366.3148 L -20.0000 366.3148 L -20.0000 372.1516 L -20.0000 372.3148 L -20.0000 372.3148 L -20.0000 377.9933 L -20.0000 377.9933 L -20.0000 414.9736 L -20.1004 415.0093 L -21.2149 415.5705 L -20.0000 415.0509 L -20.0000 423.6114 L -13.8015 423.6114 L -12.5362 427.5251 L -26.8705 427.5251 L -26.8705 428.9009 L -29.1761 428.9009 L -29.1761 430.4335 L -32.2196 430.4335 L -32.2196 431.3132 L -34.3845 431.3132 L -34.3845 429.3773 L -39.1848 429.3773 L -39.1848 426.4048 L -43.4322 426.4048 L -43.4322 422.7004 L -46.8797 422.7004 L -46.8797 418.2634 L -49.2448 418.2634 L -49.2448 413.1763 L -50.3003 413.1763 L -50.3003 411.1778 L -50.2718 410.6431 L -50.1240 410.7995 L -49.5994 412.4267 L -49.8558 411.0834 L -49.7285 411.2181 L -48.7439 412.8318 L -49.2671 411.7065 L -48.5481 412.4674 L -48.6556 412.4008 L -48.5083 412.5096 L -47.6391 413.4294 L -48.1462 412.7768 L -46.0391 414.3320 L -47.2686 413.2597 L -48.2368 412.6601 L -48.8271 411.9004 L -49.4155 411.3873 L -49.6980 410.7795 L -49.9841 410.4114 L -50.0641 409.9921 L -50.2194 409.6580 L -50.1995 409.2828 L -50.3003 408.7548 L -50.3003 407.6464 L -50.5118 407.6464 L -50.6549 406.8967 L -50.6041 407.6464 L -90.3003 407.6464 L -90.3003 410.1150 L -90.4011 412.0100 Z M -54.8083 418.2634 L -55.3886 415.0213 L -54.5022 418.2634 L -54.8083 418.2634 Z M -54.0140 422.7004 L -54.6448 419.1763 L -54.2526 419.1763 L -53.2891 422.7004 L -54.0140 422.7004 Z M -53.3509 426.4048 L -53.7342 424.2634 L -52.8617 424.2634 L -52.2762 426.4048 L -53.3509 426.4048 Z M -52.8188 429.3773 L -52.9399 428.7004 L -51.6486 428.7004 L -51.4635 429.3773 L -52.8188 429.3773 Z M -51.5199 418.2634 L -51.8593 414.3895 L -51.1658 418.2634 L -51.5199 418.2634 Z M -51.1312 422.7004 L -51.4400 419.1763 L -51.0024 419.1763 L -50.3715 422.7004 L -51.1312 422.7004 Z M -50.8067 426.4048 L -50.9943 424.2634 L -50.0918 424.2634 L -49.7084 426.4048 L -50.8067 426.4048 Z M -50.5464 429.3773 L -50.6056 428.7004 L -49.2975 428.7004 L -49.1763 429.3773 L -50.5464 429.3773 Z M -50.1376 410.7575 L -50.2717 410.6405 L -50.2581 410.3839 L -50.1376 410.7575 Z M -49.8742 410.9872 L -49.8763 410.9759 L -49.8640 410.9961 L -49.8742 410.9872 Z M -8.6606 427.5251 L -10.9959 423.6114 L -7.4761 423.6114 L -7.1333 427.5251 L -8.6606 427.5251 Z M -3.1445 427.5251 L -4.4097 423.6114 L 17.7101 423.6114 L 13.1295 429.6125 L 13.1295 427.5251 L -3.1445 427.5251 Z"/>
<path fill="black" stroke="none" fill-rule="evenodd" d="M -88.8901 419.9260 L -88.4255 422.3605 L -87.3806 424.6080 L -88.8901 419.9260 Z"/>
<path fill="black" stroke="none" fill-rule="evenodd" d="M -85.0155 429.6951 L -84.0614 431.7473 L -82.6728 433.5344 L -85.0155 429.6951 Z"/>
<path fill="black" stroke="none" fill-rule="evenodd" d="M -79.2253 437.9714 L -78.0373 439.5005 L -76.5780 440.7732 L -79.2253 437.9714 Z"/>
<path fill="black" stroke="none" fill-rule="evenodd" d="M -72.3306 444.4776 L -71.1011 445.5499 L -69.7140 446.4088 L -72.3306 444.4776 Z"/>
<path fill="black" stroke="none" fill-rule="evenodd" d="M -64.9137 449.3813 L -63.7231 450.1185 L -62.4414 450.6826 L -64.9137 449.3813 Z"/>
<path fill="black" stroke="none" fill-rule="evenodd" d="M -57.2701 452.9587 L -56.1305 453.4603 L -54.9375 453.8167 L -57.2701 452.9587 Z"/>
<path fill="black" stroke="none" fill-rule="evenodd" d="M -50.8059 440.6219 L -48.3686 454.2369 L -49.5613 440.6219 L -50.8059 440.6219 Z"/>
<path fill="black" stroke="none" fill-rule="evenodd" d="M -49.5226 455.4342 L -48.9068 455.6181 L -48.2805 455.7622 L -49.5226 455.4342 Z"/>
<path fill="black" stroke="none" fill-rule="evenodd" d="M -48.3891 440.6219 L -44.8393 453.6051 L -47.1634 440.6219 L -48.3891 440.6219 Z"/>
<path fill="black" stroke="none" fill-rule="evenodd" d="M -47.7415 455.8861 L -47.1918 456.0125 L -46.6360 456.1077 L -47.7415 455.8861 Z"/>
<path fill="black" stroke="none" fill-rule="evenodd" d="M -46.3276 414.0719 L -43.8553 415.3733 L -45.0459 414.6360 L -46.3276 414.0719 Z"/>
<path fill="black" stroke="none" fill-rule="evenodd" d="M -43.4888 415.4901 L -41.1562 416.3480 L -42.2958 415.8464 L -43.4888 415.4901 Z"/>
<path fill="black" stroke="none" fill-rule="evenodd" d="M -41.6088 456.9688 L -40.5134 457.1565 L -39.4039 457.2216 L -41.6088 456.9688 Z"/>
<path fill="black" stroke="none" fill-rule="evenodd" d="M -39.8826 416.6819 L -39.0660 416.8456 L -38.0739 417.1076 L -38.6897 416.9236 L -39.3160 416.7796 L -39.3160 416.7796 L -39.3267 416.7772 L -39.8826 416.6819 Z"/>
<path fill="black" stroke="none" fill-rule="evenodd" d="M -37.0604 417.2903 L -34.8555 417.5431 L -35.9509 417.3554 L -37.0604 417.2903 Z"/>
<path fill="black" stroke="none" fill-rule="evenodd" d="M -33.1689 457.5875 L -32.1552 457.6470 L -31.1406 457.6035 L -33.1689 457.5875 Z"/>
<path fill="black" stroke="none" fill-rule="evenodd" d="M -32.8537 417.6402 L -30.8254 417.6562 L -31.8391 417.5967 L -32.8537 417.6402 Z"/>
<path fill="black" stroke="none" fill-rule="evenodd" d="M -30.0272 417.5636 L -28.7890 417.4691 L -29.1751 417.5459 L -27.4562 417.2808 L -28.3214 417.3759 L -28.7692 417.4651 L -29.3636 417.4906 L -30.0272 417.5636 Z"/>
<path fill="black" stroke="none" fill-rule="evenodd" d="M -26.9837 457.4253 L -26.3168 457.3967 L -25.6532 457.3237 L -26.9837 457.4253 Z"/>
<path fill="black" stroke="none" fill-rule="evenodd" d="M -26.1272 417.1540 L -23.3278 416.3816 L -24.7556 416.6659 L -26.1272 417.1540 Z"/>
<path fill="black" stroke="none" fill-rule="evenodd" d="M -23.0823 457.0409 L -22.2171 456.9457 L -21.3634 456.7757 L -23.0823 457.0409 Z"/>
<path fill="black" stroke="none" fill-rule="evenodd" d="M -20.0000 50.7887 L -20.0000 56.7887 L 20.0000 56.7887 L 20.0000 61.8286 L 20.0000 53.7894 L 20.0000 45.7544 L 20.0000 50.7887 L -20.0000 50.7887 Z"/>
<path fill="black" stroke="none" fill-rule="evenodd" d="M -20.0000 50.7887 L -20.0000 45.7544 L 20.0000 45.7544 L 20.0000 39.7544 L -20.0000 39.7544 L -20.0000 50.7887 Z"/>
<path fill="black" stroke="none" fill-rule="evenodd" d="M -20.0000 56.7887 L -20.0000 67.8286 L 20.0000 67.8286 L 20.0000 61.8286 L -20.0000 61.8286 L -20.0000 56.7887 Z"/>
<path fill="black" stroke="none" fill-rule="evenodd" d="M -20.0000 83.9298 L -20.0000 89.9298 L 20.0000 89.9298 L 20.0000 94.9935 L 20.0000 86.9311 L 20.0000 78.8753 L 20.0000 83.9298 L -20.0000 83.9298 Z"/>
<path fill="black" stroke="none" fill-rule="evenodd" d="M -20.0000 83.9298 L -20.0000 78.8753 L 20.0000 78.8753 L 20.0000 72.8753 L -20.0000 72.8753 L -20.0000 83.9298 Z"/>
<path fill="black" stroke="none" fill-rule="evenodd" d="M -20.0000 94.9935 L -20.0000 100.9935 L 20.0000 100.9935 L 20.0000 94.9935 L -20.0000 94.9935 Z"/>
<path fill="black" stroke="none" fill-rule="evenodd" d="M -20.0000 106.0674 L -20.0000 112.0674 L 20.0000 112.0674 L 20.0000 106.0674 L -20.0000 106.0674 Z"/>
<path fill="black" stroke="none" fill-rule="evenodd" d="M -20.0000 112.0674 L -20.0000 120.1543 L -20.0000 128.2505 L -20.0000 123.1526 L 20.0000 123.1526 L 20.0000 117.1526 L -20.0000 117.1526 L -20.0000 112.0674 Z"/>
<path fill="black" stroke="none" fill-rule="evenodd" d="M -20.0000 128.2505 L -20.0000 134.2505 L 20.0000 134.2505 L 20.0000 128.2505 L -20.0000 128.2505 Z"/>
<path fill="black" stroke="none" fill-rule="evenodd" d="M -20.0000 139.3620 L -20.0000 145.3620 L 20.0000 145.3620 L 20.0000 139.3620 L -20.0000 139.3620 Z"/>
<path fill="black" stroke="none" fill-rule="evenodd" d="M -20.0000 150.4885 L -20.0000 156.4885 L 20.0000 156.4885 L 20.0000 145.3620 L 20.0000 150.4885 L -20.0000 150.4885 Z"/>
<path fill="black" stroke="none" fill-rule="evenodd" d="M -20.0000 161.6310 L -20.0000 167.6310 L 20.0000 167.6310 L 20.0000 172.7907 L 20.0000 161.6310 L -20.0000 161.6310 Z"/>
<path fill="black" stroke="none" fill-rule="evenodd" d="M -20.0000 172.7907 L -20.0000 178.7907 L 20.0000 178.7907 L 20.0000 172.7907 L -20.0000 172.7907 Z"/>
<path fill="black" stroke="none" fill-rule="evenodd" d="M -20.0000 178.7907 L -20.0000 186.9715 L -20.0000 195.1667 L -20.0000 189.9689 L 20.0000 189.9689 L 20.0000 183.9689 L -20.0000 183.9689 L -20.0000 178.7907 Z"/>
<path fill="black" stroke="none" fill-rule="evenodd" d="M -20.0000 195.1667 L -20.0000 201.1667 L 20.0000 201.1667 L 20.0000 195.1667 L -20.0000 195.1667 Z"/>
<path fill="black" stroke="none" fill-rule="evenodd" d="M -20.0000 201.1667 L -20.0000 209.3883 L -20.0000 217.6260 L -20.0000 212.3853 L 20.0000 212.3853 L 20.0000 206.3853 L -20.0000 206.3853 L -20.0000 201.1667 Z"/>
<path fill="black" stroke="none" fill-rule="evenodd" d="M -20.0000 217.6260 L -20.0000 223.6260 L 20.0000 223.6260 L 20.0000 217.6260 L -20.0000 217.6260 Z"/>
<path fill="black" stroke="none" fill-rule="evenodd" d="M -20.0000 228.8898 L -20.0000 234.8898 L 20.0000 234.8898 L 20.0000 228.8898 L -20.0000 228.8898 Z"/>
<path fill="black" stroke="none" fill-rule="evenodd" d="M -20.0000 240.1781 L -20.0000 246.1781 L 20.0000 246.1781 L 20.0000 240.1781 L -20.0000 240.1781 Z"/>
<path fill="black" stroke="none" fill-rule="evenodd" d="M -20.0000 251.4920 L -20.0000 257.4920 L 20.0000 257.4920 L 20.0000 262.8328 L 20.0000 254.4956 L 20.0000 246.1781 L 20.0000 251.4920 L -20.0000 251.4920 Z"/>
<path fill="black" stroke="none" fill-rule="evenodd" d="M -20.0000 262.8328 L -20.0000 268.8328 L 20.0000 268.8328 L 20.0000 262.8328 L -20.0000 262.8328 Z"/>
<path fill="black" stroke="none" fill-rule="evenodd" d="M -20.0000 274.2017 L -20.0000 280.2017 L 20.0000 280.2017 L 20.0000 274.2017 L -20.0000 274.2017 Z"/>
<path fill="black" stroke="none" fill-rule="evenodd" d="M -20.0000 285.5999 L -20.0000 291.5999 L 20.0000 291.5999 L 20.0000 285.5999 L -20.0000 285.5999 Z"/>
<path fill="black" stroke="none" fill-rule="evenodd" d="M -20.0000 297.0287 L -20.0000 303.0287 L 20.0000 303.0287 L 20.0000 297.0287 L -20.0000 297.0287 Z"/>
<path fill="black" stroke="none" fill-rule="evenodd" d="M -20.0000 308.4894 L -20.0000 314.4894 L 20.0000 314.4894 L 20.0000 308.4894 L -20.0000 308.4894 Z"/>
<path fill="black" stroke="none" fill-rule="evenodd" d="M -20.0000 319.9832 L -20.0000 325.9832 L 20.0000 325.9832 L 20.0000 319.9832 L -20.0000 319.9832 Z"/>
<path fill="black" stroke="none" fill-rule="evenodd" d="M -20.0000 331.5113 L -20.0000 337.5113 L 20.0000 337.5113 L 20.0000 331.5113 L -20.0000 331.5113 Z"/>
<path fill="black" stroke="none" fill-rule="evenodd" d="M -20.0000 343.0751 L -20.0000 349.0751 L 20.0000 349.0751 L 20.0000 343.0751 L -20.0000 343.0751 Z"/>
<path fill="black" stroke="none" fill-rule="evenodd" d="M -20.0000 354.6758 L -20.0000 360.6758 L 20.0000 360.6758 L 20.0000 354.6758 L -20.0000 354.6758 Z"/>
<path fill="black" stroke="none" fill-rule="evenodd" d="M -20.0000 17.6980 L -20.0000 23.6980 L 20.0000 23.6980 L 20.0000 17.6980 L -20.0000 17.6980 Z"/>
<path fill="black" stroke="none" fill-rule="evenodd" d="M -20.0000 28.7245 L -20.0000 34.7245 L 20.0000 34.7245 L 20.0000 28.7245 L -20.0000 28.7245 Z"/>
<path fill="black" stroke="none" fill-rule="evenodd" d="M -15.5162 455.6114 L -14.0884 455.3271 L -12.7169 454.8390 L -15.5162 455.6114 Z"/>
<path fill="black" stroke="none" fill-rule="evenodd" d="M -5.5145 452.2760 L -4.3389 451.8577 L -3.2244 451.2965 L -5.5145 452.2760 Z"/>
<path fill="black" stroke="none" fill-rule="evenodd" d="M -0.1809 449.7639 L 0.4580 449.4422 L 1.0723 449.0756 L -0.1809 449.7639 Z"/>
  <g id="debug">
  <path fill="none" stroke="#ff3366" stroke-opacity="0.6" stroke-width="0.5" d="M 0 0 L 0 425.0000 L -4.9609 429.2249 L -10.3906 432.5488 L -16.1719 435.0085 L -22.1875 436.6406 L -28.3203 437.4817 L -34.4531 437.5684 L -46.2500 435.6250 L -56.6406 431.1035 L -61.0156 427.9675 L -64.6875 424.2969 L -67.5391 420.1282 L -69.4531 415.4980 L -70.3125 410.4431 L -70.0000 405.0000"/>
  <path fill="none" stroke="#ff9900" stroke-opacity="0.6" stroke-width="0.6" d=""/>
  <path fill="none" stroke="#222222" stroke-opacity="0.7" stroke-width="0.6" d=""/>
  <path fill="none" stroke="#00aaff" stroke-opacity="0.6" stroke-width="0.6" d=""/>
  <circle cx="0" cy="0" r="0.6000" fill="#222222" fill-opacity="0.5"/>
    <circle cx="0" cy="4.8367" r="0.6000" fill="#222222" fill-opacity="0.5"/>
    <circle cx="0" cy="5.8041" r="0.6000" fill="#222222" fill-opacity="0.5"/>
    <circle cx="0" cy="8.7062" r="0.6000" fill="#222222" fill-opacity="0.5"/>
    <circle cx="0" cy="9.6736" r="0.6000" fill="#222222" fill-opacity="0.5"/>
    <circle cx="0" cy="20.6980" r="0.6000" fill="#222222" fill-opacity="0.5"/>
    <circle cx="0" cy="31.7245" r="0.6000" fill="#222222" fill-opacity="0.5"/>
    <circle cx="0" cy="42.7544" r="0.6000" fill="#222222" fill-opacity="0.5"/>
    <circle cx="0" cy="53.7887" r="0.6000" fill="#222222" fill-opacity="0.5"/>
    <circle cx="0" cy="64.8286" r="0.6000" fill="#222222" fill-opacity="0.5"/>
    <circle cx="0" cy="75.8753" r="0.6000" fill="#222222" fill-opacity="0.5"/>
    <circle cx="0" cy="86.9298" r="0.6000" fill="#222222" fill-opacity="0.5"/>
    <circle cx="0" cy="97.9935" r="0.6000" fill="#222222" fill-opacity="0.5"/>
    <circle cx="0" cy="109.0674" r="0.6000" fill="#222222" fill-opacity="0.5"/>
    <circle cx="0" cy="120.1526" r="0.6000" fill="#222222" fill-opacity="0.5"/>
    <circle cx="0" cy="131.2505" r="0.6000" fill="#222222" fill-opacity="0.5"/>
    <circle cx="0" cy="142.3620" r="0.6000" fill="#222222" fill-opacity="0.5"/>
    <circle cx="0" cy="153.4885" r="0.6000" fill="#222222" fill-opacity="0.5"/>
    <circle cx="0" cy="164.6310" r="0.6000" fill="#222222" fill-opacity="0.5"/>
    <circle cx="0" cy="175.7907" r="0.6000" fill="#222222" fill-opacity="0.5"/>
    <circle cx="0" cy="186.9689" r="0.6000" fill="#222222" fill-opacity="0.5"/>
    <circle cx="0" cy="198.1667" r="0.6000" fill="#222222" fill-opacity="0.5"/>
    <circle cx="0" cy="209.3853" r="0.6000" fill="#222222" fill-opacity="0.5"/>
    <circle cx="0" cy="220.6260" r="0.6000" fill="#222222" fill-opacity="0.5"/>
    <circle cx="0" cy="231.8898" r="0.6000" fill="#222222" fill-opacity="0.5"/>
    <circle cx="0" cy="243.1781" r="0.6000" fill="#222222" fill-opacity="0.5"/>
    <circle cx="0" cy="254.4920" r="0.6000" fill="#222222" fill-opacity="0.5"/>
    <circle cx="0" cy="265.8328" r="0.6000" fill="#222222" fill-opacity="0.5"/>
    <circle cx="0" cy="277.2017" r="0.6000" fill="#222222" fill-opacity="0.5"/>
    <circle cx="0" cy="288.5999" r="0.6000" fill="#222222" fill-opacity="0.5"/>
    <circle cx="0" cy="300.0287" r="0.6000" fill="#222222" fill-opacity="0.5"/>
    <circle cx="0" cy="311.4894" r="0.6000" fill="#222222" fill-opacity="0.5"/>
    <circle cx="0" cy="322.9832" r="0.6000" fill="#222222" fill-opacity="0.5"/>
    <circle cx="0" cy="334.5113" r="0.6000" fill="#222222" fill-opacity="0.5"/>
    <circle cx="0" cy="346.0751" r="0.6000" fill="#222222" fill-opacity="0.5"/>
    <circle cx="0" cy="357.6758" r="0.6000" fill="#222222" fill-opacity="0.5"/>
    <circle cx="0" cy="369.3148" r="0.6000" fill="#222222" fill-opacity="0.5"/>
    <circle cx="0" cy="375.1516" r="0.6000" fill="#222222" fill-opacity="0.5"/>
    <circle cx="0" cy="380.9933" r="0.6000" fill="#222222" fill-opacity="0.5"/>
    <circle cx="0" cy="386.8505" r="0.6000" fill="#222222" fill-opacity="0.5"/>
    <circle cx="0" cy="392.7127" r="0.6000" fill="#222222" fill-opacity="0.5"/>
    <circle cx="0" cy="398.5909" r="0.6000" fill="#222222" fill-opacity="0.5"/>
    <circle cx="0" cy="404.4743" r="0.6000" fill="#222222" fill-opacity="0.5"/>
    <circle cx="0" cy="415.3857" r="0.6000" fill="#222222" fill-opacity="0.5"/>
    <circle cx="0" cy="420.6114" r="0.6000" fill="#222222" fill-opacity="0.5"/>
    <circle cx="-50.1140" cy="434.3132" r="0.6000" fill="#222222" fill-opacity="0.5"/>
    <circle cx="-6.8705" cy="430.5251" r="0.6000" fill="#222222" fill-opacity="0.5"/>
    <circle cx="-9.1761" cy="431.9009" r="0.6000" fill="#222222" fill-opacity="0.5"/>
    <circle cx="-12.2196" cy="433.4335" r="0.6000" fill="#222222" fill-opacity="0.5"/>
    <circle cx="-19.4220" cy="435.9965" r="0.6000" fill="#222222" fill-opacity="0.5"/>
    <circle cx="-25.2692" cy="437.1608" r="0.6000" fill="#222222" fill-opacity="0.5"/>
    <circle cx="-27.8402" cy="437.4437" r="0.6000" fill="#222222" fill-opacity="0.5"/>
    <circle cx="-31.9971" cy="437.6219" r="0.6000" fill="#222222" fill-opacity="0.5"/>
    <circle cx="-38.2321" cy="437.2559" r="0.6000" fill="#222222" fill-opacity="0.5"/>
    <circle cx="-43.2593" cy="436.3948" r="0.6000" fill="#222222" fill-opacity="0.5"/>
    <circle cx="-43.7982" cy="436.2709" r="0.6000" fill="#222222" fill-opacity="0.5"/>
    <circle cx="-49.2132" cy="434.6534" r="0.6000" fill="#222222" fill-opacity="0.5"/>
    <circle cx="-54.3845" cy="432.3773" r="0.6000" fill="#222222" fill-opacity="0.5"/>
    <circle cx="-59.1848" cy="429.4048" r="0.6000" fill="#222222" fill-opacity="0.5"/>
    <circle cx="-63.4322" cy="425.7004" r="0.6000" fill="#222222" fill-opacity="0.5"/>
    <circle cx="-66.8797" cy="421.2634" r="0.6000" fill="#222222" fill-opacity="0.5"/>
    <circle cx="-69.2448" cy="416.1763" r="0.6000" fill="#222222" fill-opacity="0.5"/>
    <circle cx="-70.3003" cy="410.6464" r="0.6000" fill="#222222" fill-opacity="0.5"/>
    <circle cx="-70.0000" cy="405.0000" r="0.6000" fill="#222222" fill-opacity="0.5"/>
  
  <path fill="none" stroke="#0066ff" stroke-opacity="0.3" stroke-width="0.5" d="M -95.0000 -3.0000 L 95.0000 -3.0000 L 95.0000 3.0000 L -95.0000 3.0000 L -95.0000 -3.0000 Z"/>
    <path fill="none" stroke="#0066ff" stroke-opacity="0.3" stroke-width="0.5" d="M -59.5182 1.8367 L 59.5182 1.8367 L 59.5182 7.8367 L -59.5182 7.8367 L -59.5182 1.8367 Z"/>
    <path fill="none" stroke="#0066ff" stroke-opacity="0.3" stroke-width="0.5" d="M -52.4218 2.8041 L 52.4218 2.8041 L 52.4218 8.8041 L -52.4218 8.8041 L -52.4218 2.8041 Z"/>
    <path fill="none" stroke="#0066ff" stroke-opacity="0.3" stroke-width="0.5" d="M -31.1324 5.7062 L 31.1324 5.7062 L 31.1324 11.7062 L -31.1324 11.7062 L -31.1324 5.7062 Z"/>
    <path fill="none" stroke="#0066ff" stroke-opacity="0.3" stroke-width="0.5" d="M -24.0359 6.6736 L 24.0359 6.6736 L 24.0359 12.6736 L -24.0359 12.6736 L -24.0359 6.6736 Z"/>
    <path fill="none" stroke="#0066ff" stroke-opacity="0.3" stroke-width="0.5" d="M -20.0000 17.6980 L 20.0000 17.6980 L 20.0000 23.6980 L -20.0000 23.6980 L -20.0000 17.6980 Z"/>
    <path fill="none" stroke="#0066ff" stroke-opacity="0.3" stroke-width="0.5" d="M -20.0000 28.7245 L 20.0000 28.7245 L 20.0000 34.7245 L -20.0000 34.7245 L -20.0000 28.7245 Z"/>
    <path fill="none" stroke="#0066ff" stroke-opacity="0.3" stroke-width="0.5" d="M -20.0000 39.7544 L 20.0000 39.7544 L 20.0000 45.7544 L -20.0000 45.7544 L -20.0000 39.7544 Z"/>
    <path fill="none" stroke="#0066ff" stroke-opacity="0.3" stroke-width="0.5" d="M -20.0000 50.7887 L 20.0000 50.7887 L 20.0000 56.7887 L -20.0000 56.7887 L -20.0000 50.7887 Z"/>
    <path fill="none" stroke="#0066ff" stroke-opacity="0.3" stroke-width="0.5" d="M -20.0000 61.8286 L 20.0000 61.8286 L 20.0000 67.8286 L -20.0000 67.8286 L -20.0000 61.8286 Z"/>
    <path fill="none" stroke="#0066ff" stroke-opacity="0.3" stroke-width="0.5" d="M -20.0000 72.8753 L 20.0000 72.8753 L 20.0000 78.8753 L -20.0000 78.8753 L -20.0000 72.8753 Z"/>
    <path fill="none" stroke="#0066ff" stroke-opacity="0.3" stroke-width="0.5" d="M -20.0000 83.9298 L 20.0000 83.9298 L 20.0000 89.9298 L -20.0000 89.9298 L -20.0000 83.9298 Z"/>
    <path fill="none" stroke="#0066ff" stroke-opacity="0.3" stroke-width="0.5" d="M -20.0000 94.9935 L 20.0000 94.9935 L 20.0000 100.9935 L -20.0000 100.9935 L -20.0000 94.9935 Z"/>
    <path fill="none" stroke="#0066ff" stroke-opacity="0.3" stroke-width="0.5" d="M -20.0000 106.0674 L 20.0000 106.0674 L 20.0000 112.0674 L -20.0000 112.0674 L -20.0000 106.0674 Z"/>
    <path fill="none" stroke="#0066ff" stroke-opacity="0.3" stroke-width="0.5" d="M -20.0000 117.1526 L 20.0000 117.1526 L 20.0000 123.1526 L -20.0000 123.1526 L -20.0000 117.1526 Z"/>
    <path fill="none" stroke="#0066ff" stroke-opacity="0.3" stroke-width="0.5" d="M -20.0000 128.2505 L 20.0000 128.2505 L 20.0000 134.2505 L -20.0000 134.2505 L -20.0000 128.2505 Z"/>
    <path fill="none" stroke="#0066ff" stroke-opacity="0.3" stroke-width="0.5" d="M -20.0000 139.3620 L 20.0000 139.3620 L 20.0000 145.3620 L -20.0000 145.3620 L -20.0000 139.3620 Z"/>
    <path fill="none" stroke="#0066ff" stroke-opacity="0.3" stroke-width="0.5" d="M -20.0000 150.4885 L 20.0000 150.4885 L 20.0000 156.4885 L -20.0000 156.4885 L -20.0000 150.4885 Z"/>
    <path fill="none" stroke="#0066ff" stroke-opacity="0.3" stroke-width="0.5" d="M -20.0000 161.6310 L 20.0000 161.6310 L 20.0000 167.6310 L -20.0000 167.6310 L -20.0000 161.6310 Z"/>
    <path fill="none" stroke="#0066ff" stroke-opacity="0.3" stroke-width="0.5" d="M -20.0000 172.7907 L 20.0000 172.7907 L 20.0000 178.7907 L -20.0000 178.7907 L -20.0000 172.7907 Z"/>
    <path fill="none" stroke="#0066ff" stroke-opacity="0.3" stroke-width="0.5" d="M -20.0000 183.9689 L 20.0000 183.9689 L 20.0000 189.9689 L -20.0000 189.9689 L -20.0000 183.9689 Z"/>
    <path fill="none" stroke="#0066ff" stroke-opacity="0.3" stroke-width="0.5" d="M -20.0000 195.1667 L 20.0000 195.1667 L 20.0000 201.1667 L -20.0000 201.1667 L -20.0000 195.1667 Z"/>
    <path fill="none" stroke="#0066ff" stroke-opacity="0.3" stroke-width="0.5" d="M -20.0000 206.3853 L 20.0000 206.3853 L 20.0000 212.3853 L -20.0000 212.3853 L -20.0000 206.3853 Z"/>
    <path fill="none" stroke="#0066ff" stroke-opacity="0.3" stroke-width="0.5" d="M -20.0000 217.6260 L 20.0000 217.6260 L 20.0000 223.6260 L -20.0000 223.6260 L -20.0000 217.6260 Z"/>
    <path fill="none" stroke="#0066ff" stroke-opacity="0.3" stroke-width="0.5" d="M -20.0000 228.8898 L 20.0000 228.8898 L 20.0000 234.8898 L -20.0000 234.8898 L -20.0000 228.8898 Z"/>
    <path fill="none" stroke="#0066ff" stroke-opacity="0.3" stroke-width="0.5" d="M -20.0000 240.1781 L 20.0000 240.1781 L 20.0000 246.1781 L -20.0000 246.1781 L -20.0000 240.1781 Z"/>
    <path fill="none" stroke="#0066ff" stroke-opacity="0.3" stroke-width="0.5" d="M -20.0000 251.4920 L 20.0000 251.4920 L 20.0000 257.4920 L -20.0000 257.4920 L -20.0000 251.4920 Z"/>
    <path fill="none" stroke="#0066ff" stroke-opacity="0.3" stroke-width="0.5" d="M -20.0000 262.8328 L 20.0000 262.8328 L 20.0000 268.8328 L -20.0000 268.8328 L -20.0000 262.8328 Z"/>
    <path fill="none" stroke="#0066ff" stroke-opacity="0.3" stroke-width="0.5" d="M -20.0000 274.2017 L 20.0000 274.2017 L 20.0000 280.2017 L -20.0000 280.2017 L -20.0000 274.2017 Z"/>
    <path fill="none" stroke="#0066ff" stroke-opacity="0.3" stroke-width="0.5" d="M -20.0000 285.5999 L 20.0000 285.5999 L 20.0000 291.5999 L -20.0000 291.5999 L -20.0000 285.5999 Z"/>
    <path fill="none" stroke="#0066ff" stroke-opacity="0.3" stroke-width="0.5" d="M -20.0000 297.0287 L 20.0000 297.0287 L 20.0000 303.0287 L -20.0000 303.0287 L -20.0000 297.0287 Z"/>
    <path fill="none" stroke="#0066ff" stroke-opacity="0.3" stroke-width="0.5" d="M -20.0000 308.4894 L 20.0000 308.4894 L 20.0000 314.4894 L -20.0000 314.4894 L -20.0000 308.4894 Z"/>
    <path fill="none" stroke="#0066ff" stroke-opacity="0.3" stroke-width="0.5" d="M -20.0000 319.9832 L 20.0000 319.9832 L 20.0000 325.9832 L -20.0000 325.9832 L -20.0000 319.9832 Z"/>
    <path fill="none" stroke="#0066ff" stroke-opacity="0.3" stroke-width="0.5" d="M -20.0000 331.5113 L 20.0000 331.5113 L 20.0000 337.5113 L -20.0000 337.5113 L -20.0000 331.5113 Z"/>
    <path fill="none" stroke="#0066ff" stroke-opacity="0.3" stroke-width="0.5" d="M -20.0000 343.0751 L 20.0000 343.0751 L 20.0000 349.0751 L -20.0000 349.0751 L -20.0000 343.0751 Z"/>
    <path fill="none" stroke="#0066ff" stroke-opacity="0.3" stroke-width="0.5" d="M -20.0000 354.6758 L 20.0000 354.6758 L 20.0000 360.6758 L -20.0000 360.6758 L -20.0000 354.6758 Z"/>
    <path fill="none" stroke="#0066ff" stroke-opacity="0.3" stroke-width="0.5" d="M -20.0000 366.3148 L 20.0000 366.3148 L 20.0000 372.3148 L -20.0000 372.3148 L -20.0000 366.3148 Z"/>
    <path fill="none" stroke="#0066ff" stroke-opacity="0.3" stroke-width="0.5" d="M -20.0000 372.1516 L 20.0000 372.1516 L 20.0000 378.1516 L -20.0000 378.1516 L -20.0000 372.1516 Z"/>
    <path fill="none" stroke="#0066ff" stroke-opacity="0.3" stroke-width="0.5" d="M -20.0000 377.9933 L 20.0000 377.9933 L 20.0000 383.9933 L -20.0000 383.9933 L -20.0000 377.9933 Z"/>
    <path fill="none" stroke="#0066ff" stroke-opacity="0.3" stroke-width="0.5" d="M -20.0000 383.8505 L 20.0000 383.8505 L 20.0000 389.8505 L -20.0000 389.8505 L -20.0000 383.8505 Z"/>
    <path fill="none" stroke="#0066ff" stroke-opacity="0.3" stroke-width="0.5" d="M -20.0000 389.7127 L 20.0000 389.7127 L 20.0000 395.7127 L -20.0000 395.7127 L -20.0000 389.7127 Z"/>
    <path fill="none" stroke="#0066ff" stroke-opacity="0.3" stroke-width="0.5" d="M -20.0000 395.5909 L 20.0000 395.5909 L 20.0000 401.5909 L -20.0000 401.5909 L -20.0000 395.5909 Z"/>
    <path fill="none" stroke="#0066ff" stroke-opacity="0.3" stroke-width="0.5" d="M -20.0000 401.4743 L 20.0000 401.4743 L 20.0000 407.4743 L -20.0000 407.4743 L -20.0000 401.4743 Z"/>
    <path fill="none" stroke="#0066ff" stroke-opacity="0.3" stroke-width="0.5" d="M -20.0000 412.3857 L 20.0000 412.3857 L 20.0000 418.3857 L -20.0000 418.3857 L -20.0000 412.3857 Z"/>
    <path fill="none" stroke="#0066ff" stroke-opacity="0.3" stroke-width="0.5" d="M -20.0000 417.6114 L 20.0000 417.6114 L 20.0000 423.6114 L -20.0000 423.6114 L -20.0000 417.6114 Z"/>
    <path fill="none" stroke="#0066ff" stroke-opacity="0.3" stroke-width="0.5" d="M -70.1140 431.3132 L -30.1140 431.3132 L -30.1140 437.3132 L -70.1140 437.3132 L -70.1140 431.3132 Z"/>
    <path fill="none" stroke="#0066ff" stroke-opacity="0.3" stroke-width="0.5" d="M -26.8705 427.5251 L 13.1295 427.5251 L 13.1295 433.5251 L -26.8705 433.5251 L -26.8705 427.5251 Z"/>
    <path fill="none" stroke="#0066ff" stroke-opacity="0.3" stroke-width="0.5" d="M -29.1761 428.9009 L 10.8239 428.9009 L 10.8239 434.9009 L -29.1761 434.9009 L -29.1761 428.9009 Z"/>
    <path fill="none" stroke="#0066ff" stroke-opacity="0.3" stroke-width="0.5" d="M -32.2196 430.4335 L 7.7804 430.4335 L 7.7804 436.4335 L -32.2196 436.4335 L -32.2196 430.4335 Z"/>
    <path fill="none" stroke="#0066ff" stroke-opacity="0.3" stroke-width="0.5" d="M -39.4220 432.9965 L 0.5780 432.9965 L 0.5780 438.9965 L -39.4220 438.9965 L -39.4220 432.9965 Z"/>
    <path fill="none" stroke="#0066ff" stroke-opacity="0.3" stroke-width="0.5" d="M -45.2692 434.1608 L -5.2692 434.1608 L -5.2692 440.1608 L -45.2692 440.1608 L -45.2692 434.1608 Z"/>
    <path fill="none" stroke="#0066ff" stroke-opacity="0.3" stroke-width="0.5" d="M -47.8402 434.4437 L -7.8402 434.4437 L -7.8402 440.4437 L -47.8402 440.4437 L -47.8402 434.4437 Z"/>
    <path fill="none" stroke="#0066ff" stroke-opacity="0.3" stroke-width="0.5" d="M -51.9971 434.6219 L -11.9971 434.6219 L -11.9971 440.6219 L -51.9971 440.6219 L -51.9971 434.6219 Z"/>
    <path fill="none" stroke="#0066ff" stroke-opacity="0.3" stroke-width="0.5" d="M -58.2321 434.2559 L -18.2321 434.2559 L -18.2321 440.2559 L -58.2321 440.2559 L -58.2321 434.2559 Z"/>
    <path fill="none" stroke="#0066ff" stroke-opacity="0.3" stroke-width="0.5" d="M -63.2593 433.3948 L -23.2593 433.3948 L -23.2593 439.3948 L -63.2593 439.3948 L -63.2593 433.3948 Z"/>
    <path fill="none" stroke="#0066ff" stroke-opacity="0.3" stroke-width="0.5" d="M -63.7982 433.2709 L -23.7982 433.2709 L -23.7982 439.2709 L -63.7982 439.2709 L -63.7982 433.2709 Z"/>
    <path fill="none" stroke="#0066ff" stroke-opacity="0.3" stroke-width="0.5" d="M -69.2132 431.6534 L -29.2132 431.6534 L -29.2132 437.6534 L -69.2132 437.6534 L -69.2132 431.6534 Z"/>
    <path fill="none" stroke="#0066ff" stroke-opacity="0.3" stroke-width="0.5" d="M -74.3845 429.3773 L -34.3845 429.3773 L -34.3845 435.3773 L -74.3845 435.3773 L -74.3845 429.3773 Z"/>
    <path fill="none" stroke="#0066ff" stroke-opacity="0.3" stroke-width="0.5" d="M -79.1848 426.4048 L -39.1848 426.4048 L -39.1848 432.4048 L -79.1848 432.4048 L -79.1848 426.4048 Z"/>
    <path fill="none" stroke="#0066ff" stroke-opacity="0.3" stroke-width="0.5" d="M -83.4322 422.7004 L -43.4322 422.7004 L -43.4322 428.7004 L -83.4322 428.7004 L -83.4322 422.7004 Z"/>
    <path fill="none" stroke="#0066ff" stroke-opacity="0.3" stroke-width="0.5" d="M -86.8797 418.2634 L -46.8797 418.2634 L -46.8797 424.2634 L -86.8797 424.2634 L -86.8797 418.2634 Z"/>
    <path fill="none" stroke="#0066ff" stroke-opacity="0.3" stroke-width="0.5" d="M -89.2448 413.1763 L -49.2448 413.1763 L -49.2448 419.1763 L -89.2448 419.1763 L -89.2448 413.1763 Z"/>
    <path fill="none" stroke="#0066ff" stroke-opacity="0.3" stroke-width="0.5" d="M -90.3003 407.6464 L -50.3003 407.6464 L -50.3003 413.6464 L -90.3003 413.6464 L -90.3003 407.6464 Z"/>
    <path fill="none" stroke="#0066ff" stroke-opacity="0.3" stroke-width="0.5" d="M -90.0000 402.0000 L -50.0000 402.0000 L -50.0000 408.0000 L -90.0000 408.0000 L -90.0000 402.0000 Z"/>
  <path fill="none" stroke="#00aa66" stroke-opacity="0.25" stroke-width="0.5" d="M -95.0000 -3.0000 L 95.0000 -3.0000 L 59.5182 1.8367 L -59.5182 1.8367 L -95.0000 -3.0000 Z"/>
    <path fill="none" stroke="#00aa66" stroke-opacity="0.25" stroke-width="0.5" d="M 95.0000 -3.0000 L 95.0000 3.0000 L 59.5182 7.8367 L 59.5182 1.8367 L 95.0000 -3.0000 Z"/>
    <path fill="none" stroke="#00aa66" stroke-opacity="0.25" stroke-width="0.5" d="M 95.0000 3.0000 L -95.0000 3.0000 L -59.5182 7.8367 L 59.5182 7.8367 L 95.0000 3.0000 Z"/>
    <path fill="none" stroke="#00aa66" stroke-opacity="0.25" stroke-width="0.5" d="M -95.0000 3.0000 L -95.0000 -3.0000 L -59.5182 1.8367 L -59.5182 7.8367 L -95.0000 3.0000 Z"/>
    <path fill="none" stroke="#00aa66" stroke-opacity="0.25" stroke-width="0.5" d="M -59.5182 1.8367 L 59.5182 1.8367 L 52.4218 2.8041 L -52.4218 2.8041 L -59.5182 1.8367 Z"/>
    <path fill="none" stroke="#00aa66" stroke-opacity="0.25" stroke-width="0.5" d="M 59.5182 1.8367 L 59.5182 7.8367 L 52.4218 8.8041 L 52.4218 2.8041 L 59.5182 1.8367 Z"/>
    <path fill="none" stroke="#00aa66" stroke-opacity="0.25" stroke-width="0.5" d="M 59.5182 7.8367 L -59.5182 7.8367 L -52.4218 8.8041 L 52.4218 8.8041 L 59.5182 7.8367 Z"/>
    <path fill="none" stroke="#00aa66" stroke-opacity="0.25" stroke-width="0.5" d="M -59.5182 7.8367 L -59.5182 1.8367 L -52.4218 2.8041 L -52.4218 8.8041 L -59.5182 7.8367 Z"/>
    <path fill="none" stroke="#00aa66" stroke-opacity="0.25" stroke-width="0.5" d="M -52.4218 2.8041 L 52.4218 2.8041 L 31.1324 5.7062 L -31.1324 5.7062 L -52.4218 2.8041 Z"/>
    <path fill="none" stroke="#00aa66" stroke-opacity="0.25" stroke-width="0.5" d="M 52.4218 2.8041 L 52.4218 8.8041 L 31.1324 11.7062 L 31.1324 5.7062 L 52.4218 2.8041 Z"/>
    <path fill="none" stroke="#00aa66" stroke-opacity="0.25" stroke-width="0.5" d="M 52.4218 8.8041 L -52.4218 8.8041 L -31.1324 11.7062 L 31.1324 11.7062 L 52.4218 8.8041 Z"/>
    <path fill="none" stroke="#00aa66" stroke-opacity="0.25" stroke-width="0.5" d="M -52.4218 8.8041 L -52.4218 2.8041 L -31.1324 5.7062 L -31.1324 11.7062 L -52.4218 8.8041 Z"/>
    <path fill="none" stroke="#00aa66" stroke-opacity="0.25" stroke-width="0.5" d="M -31.1324 5.7062 L 31.1324 5.7062 L 24.0359 6.6736 L -24.0359 6.6736 L -31.1324 5.7062 Z"/>
    <path fill="none" stroke="#00aa66" stroke-opacity="0.25" stroke-width="0.5" d="M 31.1324 5.7062 L 31.1324 11.7062 L 24.0359 12.6736 L 24.0359 6.6736 L 31.1324 5.7062 Z"/>
    <path fill="none" stroke="#00aa66" stroke-opacity="0.25" stroke-width="0.5" d="M 31.1324 11.7062 L -31.1324 11.7062 L -24.0359 12.6736 L 24.0359 12.6736 L 31.1324 11.7062 Z"/>
    <path fill="none" stroke="#00aa66" stroke-opacity="0.25" stroke-width="0.5" d="M -31.1324 11.7062 L -31.1324 5.7062 L -24.0359 6.6736 L -24.0359 12.6736 L -31.1324 11.7062 Z"/>
    <path fill="none" stroke="#00aa66" stroke-opacity="0.25" stroke-width="0.5" d="M -24.0359 6.6736 L 24.0359 6.6736 L 20.0000 17.6980 L -20.0000 17.6980 L -24.0359 6.6736 Z"/>
    <path fill="none" stroke="#00aa66" stroke-opacity="0.25" stroke-width="0.5" d="M 24.0359 6.6736 L 24.0359 12.6736 L 20.0000 23.6980 L 20.0000 17.6980 L 24.0359 6.6736 Z"/>
    <path fill="none" stroke="#00aa66" stroke-opacity="0.25" stroke-width="0.5" d="M 24.0359 12.6736 L -24.0359 12.6736 L -20.0000 23.6980 L 20.0000 23.6980 L 24.0359 12.6736 Z"/>
    <path fill="none" stroke="#00aa66" stroke-opacity="0.25" stroke-width="0.5" d="M -24.0359 12.6736 L -24.0359 6.6736 L -20.0000 17.6980 L -20.0000 23.6980 L -24.0359 12.6736 Z"/>
    <path fill="none" stroke="#00aa66" stroke-opacity="0.25" stroke-width="0.5" d="M -20.0000 17.6980 L 20.0000 17.6980 L 20.0000 28.7245 L -20.0000 28.7245 L -20.0000 17.6980 Z"/>
    <path fill="none" stroke="#00aa66" stroke-opacity="0.25" stroke-width="0.5" d="M 20.0000 23.6980 L -20.0000 23.6980 L -20.0000 34.7245 L 20.0000 34.7245 L 20.0000 23.6980 Z"/>
    <path fill="none" stroke="#00aa66" stroke-opacity="0.25" stroke-width="0.5" d="M -20.0000 28.7245 L 20.0000 28.7245 L 20.0000 39.7544 L -20.0000 39.7544 L -20.0000 28.7245 Z"/>
    <path fill="none" stroke="#00aa66" stroke-opacity="0.25" stroke-width="0.5" d="M 20.0000 34.7245 L -20.0000 34.7245 L -20.0000 45.7544 L 20.0000 45.7544 L 20.0000 34.7245 Z"/>
    <path fill="none" stroke="#00aa66" stroke-opacity="0.25" stroke-width="0.5" d="M -20.0000 39.7544 L 20.0000 39.7544 L 20.0000 50.7887 L -20.0000 50.7887 L -20.0000 39.7544 Z"/>
    <path fill="none" stroke="#00aa66" stroke-opacity="0.25" stroke-width="0.5" d="M 20.0000 45.7544 L -20.0000 45.7544 L -20.0000 56.7887 L 20.0000 56.7887 L 20.0000 45.7544 Z"/>
    <path fill="none" stroke="#00aa66" stroke-opacity="0.25" stroke-width="0.5" d="M -20.0000 50.7887 L 20.0000 50.7887 L 20.0000 61.8286 L -20.0000 61.8286 L -20.0000 50.7887 Z"/>
    <path fill="none" stroke="#00aa66" stroke-opacity="0.25" stroke-width="0.5" d="M 20.0000 56.7887 L -20.0000 56.7887 L -20.0000 67.8286 L 20.0000 67.8286 L 20.0000 56.7887 Z"/>
    <path fill="none" stroke="#00aa66" stroke-opacity="0.25" stroke-width="0.5" d="M -20.0000 61.8286 L 20.0000 61.8286 L 20.0000 72.8753 L -20.0000 72.8753 L -20.0000 61.8286 Z"/>
    <path fill="none" stroke="#00aa66" stroke-opacity="0.25" stroke-width="0.5" d="M 20.0000 67.8286 L -20.0000 67.8286 L -20.0000 78.8753 L 20.0000 78.8753 L 20.0000 67.8286 Z"/>
    <path fill="none" stroke="#00aa66" stroke-opacity="0.25" stroke-width="0.5" d="M -20.0000 72.8753 L 20.0000 72.8753 L 20.0000 83.9298 L -20.0000 83.9298 L -20.0000 72.8753 Z"/>
    <path fill="none" stroke="#00aa66" stroke-opacity="0.25" stroke-width="0.5" d="M 20.0000 78.8753 L -20.0000 78.8753 L -20.0000 89.9298 L 20.0000 89.9298 L 20.0000 78.8753 Z"/>
    <path fill="none" stroke="#00aa66" stroke-opacity="0.25" stroke-width="0.5" d="M -20.0000 83.9298 L 20.0000 83.9298 L 20.0000 94.9935 L -20.0000 94.9935 L -20.0000 83.9298 Z"/>
    <path fill="none" stroke="#00aa66" stroke-opacity="0.25" stroke-width="0.5" d="M 20.0000 89.9298 L -20.0000 89.9298 L -20.0000 100.9935 L 20.0000 100.9935 L 20.0000 89.9298 Z"/>
    <path fill="none" stroke="#00aa66" stroke-opacity="0.25" stroke-width="0.5" d="M -20.0000 94.9935 L 20.0000 94.9935 L 20.0000 106.0674 L -20.0000 106.0674 L -20.0000 94.9935 Z"/>
    <path fill="none" stroke="#00aa66" stroke-opacity="0.25" stroke-width="0.5" d="M 20.0000 100.9935 L -20.0000 100.9935 L -20.0000 112.0674 L 20.0000 112.0674 L 20.0000 100.9935 Z"/>
    <path fill="none" stroke="#00aa66" stroke-opacity="0.25" stroke-width="0.5" d="M -20.0000 106.0674 L 20.0000 106.0674 L 20.0000 117.1526 L -20.0000 117.1526 L -20.0000 106.0674 Z"/>
    <path fill="none" stroke="#00aa66" stroke-opacity="0.25" stroke-width="0.5" d="M 20.0000 112.0674 L -20.0000 112.0674 L -20.0000 123.1526 L 20.0000 123.1526 L 20.0000 112.0674 Z"/>
    <path fill="none" stroke="#00aa66" stroke-opacity="0.25" stroke-width="0.5" d="M -20.0000 117.1526 L 20.0000 117.1526 L 20.0000 128.2505 L -20.0000 128.2505 L -20.0000 117.1526 Z"/>
    <path fill="none" stroke="#00aa66" stroke-opacity="0.25" stroke-width="0.5" d="M 20.0000 123.1526 L -20.0000 123.1526 L -20.0000 134.2505 L 20.0000 134.2505 L 20.0000 123.1526 Z"/>
    <path fill="none" stroke="#00aa66" stroke-opacity="0.25" stroke-width="0.5" d="M -20.0000 128.2505 L 20.0000 128.2505 L 20.0000 139.3620 L -20.0000 139.3620 L -20.0000 128.2505 Z"/>
    <path fill="none" stroke="#00aa66" stroke-opacity="0.25" stroke-width="0.5" d="M 20.0000 134.2505 L -20.0000 134.2505 L -20.0000 145.3620 L 20.0000 145.3620 L 20.0000 134.2505 Z"/>
    <path fill="none" stroke="#00aa66" stroke-opacity="0.25" stroke-width="0.5" d="M -20.0000 139.3620 L 20.0000 139.3620 L 20.0000 150.4885 L -20.0000 150.4885 L -20.0000 139.3620 Z"/>
    <path fill="none" stroke="#00aa66" stroke-opacity="0.25" stroke-width="0.5" d="M 20.0000 145.3620 L -20.0000 145.3620 L -20.0000 156.4885 L 20.0000 156.4885 L 20.0000 145.3620 Z"/>
    <path fill="none" stroke="#00aa66" stroke-opacity="0.25" stroke-width="0.5" d="M -20.0000 150.4885 L 20.0000 150.4885 L 20.0000 161.6310 L -20.0000 161.6310 L -20.0000 150.4885 Z"/>
    <path fill="none" stroke="#00aa66" stroke-opacity="0.25" stroke-width="0.5" d="M 20.0000 156.4885 L -20.0000 156.4885 L -20.0000 167.6310 L 20.0000 167.6310 L 20.0000 156.4885 Z"/>
    <path fill="none" stroke="#00aa66" stroke-opacity="0.25" stroke-width="0.5" d="M -20.0000 161.6310 L 20.0000 161.6310 L 20.0000 172.7907 L -20.0000 172.7907 L -20.0000 161.6310 Z"/>
    <path fill="none" stroke="#00aa66" stroke-opacity="0.25" stroke-width="0.5" d="M 20.0000 167.6310 L -20.0000 167.6310 L -20.0000 178.7907 L 20.0000 178.7907 L 20.0000 167.6310 Z"/>
    <path fill="none" stroke="#00aa66" stroke-opacity="0.25" stroke-width="0.5" d="M -20.0000 172.7907 L 20.0000 172.7907 L 20.0000 183.9689 L -20.0000 183.9689 L -20.0000 172.7907 Z"/>
    <path fill="none" stroke="#00aa66" stroke-opacity="0.25" stroke-width="0.5" d="M 20.0000 178.7907 L -20.0000 178.7907 L -20.0000 189.9689 L 20.0000 189.9689 L 20.0000 178.7907 Z"/>
    <path fill="none" stroke="#00aa66" stroke-opacity="0.25" stroke-width="0.5" d="M -20.0000 183.9689 L 20.0000 183.9689 L 20.0000 195.1667 L -20.0000 195.1667 L -20.0000 183.9689 Z"/>
    <path fill="none" stroke="#00aa66" stroke-opacity="0.25" stroke-width="0.5" d="M 20.0000 189.9689 L -20.0000 189.9689 L -20.0000 201.1667 L 20.0000 201.1667 L 20.0000 189.9689 Z"/>
    <path fill="none" stroke="#00aa66" stroke-opacity="0.25" stroke-width="0.5" d="M -20.0000 195.1667 L 20.0000 195.1667 L 20.0000 206.3853 L -20.0000 206.3853 L -20.0000 195.1667 Z"/>
    <path fill="none" stroke="#00aa66" stroke-opacity="0.25" stroke-width="0.5" d="M 20.0000 201.1667 L -20.0000 201.1667 L -20.0000 212.3853 L 20.0000 212.3853 L 20.0000 201.1667 Z"/>
    <path fill="none" stroke="#00aa66" stroke-opacity="0.25" stroke-width="0.5" d="M -20.0000 206.3853 L 20.0000 206.3853 L 20.0000 217.6260 L -20.0000 217.6260 L -20.0000 206.3853 Z"/>
    <path fill="none" stroke="#00aa66" stroke-opacity="0.25" stroke-width="0.5" d="M 20.0000 212.3853 L -20.0000 212.3853 L -20.0000 223.6260 L 20.0000 223.6260 L 20.0000 212.3853 Z"/>
    <path fill="none" stroke="#00aa66" stroke-opacity="0.25" stroke-width="0.5" d="M -20.0000 217.6260 L 20.0000 217.6260 L 20.0000 228.8898 L -20.0000 228.8898 L -20.0000 217.6260 Z"/>
    <path fill="none" stroke="#00aa66" stroke-opacity="0.25" stroke-width="0.5" d="M 20.0000 223.6260 L -20.0000 223.6260 L -20.0000 234.8898 L 20.0000 234.8898 L 20.0000 223.6260 Z"/>
    <path fill="none" stroke="#00aa66" stroke-opacity="0.25" stroke-width="0.5" d="M -20.0000 228.8898 L 20.0000 228.8898 L 20.0000 240.1781 L -20.0000 240.1781 L -20.0000 228.8898 Z"/>
    <path fill="none" stroke="#00aa66" stroke-opacity="0.25" stroke-width="0.5" d="M 20.0000 234.8898 L -20.0000 234.8898 L -20.0000 246.1781 L 20.0000 246.1781 L 20.0000 234.8898 Z"/>
    <path fill="none" stroke="#00aa66" stroke-opacity="0.25" stroke-width="0.5" d="M -20.0000 240.1781 L 20.0000 240.1781 L 20.0000 251.4920 L -20.0000 251.4920 L -20.0000 240.1781 Z"/>
    <path fill="none" stroke="#00aa66" stroke-opacity="0.25" stroke-width="0.5" d="M 20.0000 246.1781 L -20.0000 246.1781 L -20.0000 257.4920 L 20.0000 257.4920 L 20.0000 246.1781 Z"/>
    <path fill="none" stroke="#00aa66" stroke-opacity="0.25" stroke-width="0.5" d="M -20.0000 251.4920 L 20.0000 251.4920 L 20.0000 262.8328 L -20.0000 262.8328 L -20.0000 251.4920 Z"/>
    <path fill="none" stroke="#00aa66" stroke-opacity="0.25" stroke-width="0.5" d="M 20.0000 257.4920 L -20.0000 257.4920 L -20.0000 268.8328 L 20.0000 268.8328 L 20.0000 257.4920 Z"/>
    <path fill="none" stroke="#00aa66" stroke-opacity="0.25" stroke-width="0.5" d="M -20.0000 262.8328 L 20.0000 262.8328 L 20.0000 274.2017 L -20.0000 274.2017 L -20.0000 262.8328 Z"/>
    <path fill="none" stroke="#00aa66" stroke-opacity="0.25" stroke-width="0.5" d="M 20.0000 268.8328 L -20.0000 268.8328 L -20.0000 280.2017 L 20.0000 280.2017 L 20.0000 268.8328 Z"/>
    <path fill="none" stroke="#00aa66" stroke-opacity="0.25" stroke-width="0.5" d="M -20.0000 274.2017 L 20.0000 274.2017 L 20.0000 285.5999 L -20.0000 285.5999 L -20.0000 274.2017 Z"/>
    <path fill="none" stroke="#00aa66" stroke-opacity="0.25" stroke-width="0.5" d="M 20.0000 280.2017 L -20.0000 280.2017 L -20.0000 291.5999 L 20.0000 291.5999 L 20.0000 280.2017 Z"/>
    <path fill="none" stroke="#00aa66" stroke-opacity="0.25" stroke-width="0.5" d="M -20.0000 285.5999 L 20.0000 285.5999 L 20.0000 297.0287 L -20.0000 297.0287 L -20.0000 285.5999 Z"/>
    <path fill="none" stroke="#00aa66" stroke-opacity="0.25" stroke-width="0.5" d="M 20.0000 291.5999 L -20.0000 291.5999 L -20.0000 303.0287 L 20.0000 303.0287 L 20.0000 291.5999 Z"/>
    <path fill="none" stroke="#00aa66" stroke-opacity="0.25" stroke-width="0.5" d="M -20.0000 297.0287 L 20.0000 297.0287 L 20.0000 308.4894 L -20.0000 308.4894 L -20.0000 297.0287 Z"/>
    <path fill="none" stroke="#00aa66" stroke-opacity="0.25" stroke-width="0.5" d="M 20.0000 303.0287 L -20.0000 303.0287 L -20.0000 314.4894 L 20.0000 314.4894 L 20.0000 303.0287 Z"/>
    <path fill="none" stroke="#00aa66" stroke-opacity="0.25" stroke-width="0.5" d="M -20.0000 308.4894 L 20.0000 308.4894 L 20.0000 319.9832 L -20.0000 319.9832 L -20.0000 308.4894 Z"/>
    <path fill="none" stroke="#00aa66" stroke-opacity="0.25" stroke-width="0.5" d="M 20.0000 314.4894 L -20.0000 314.4894 L -20.0000 325.9832 L 20.0000 325.9832 L 20.0000 314.4894 Z"/>
    <path fill="none" stroke="#00aa66" stroke-opacity="0.25" stroke-width="0.5" d="M -20.0000 319.9832 L 20.0000 319.9832 L 20.0000 331.5113 L -20.0000 331.5113 L -20.0000 319.9832 Z"/>
    <path fill="none" stroke="#00aa66" stroke-opacity="0.25" stroke-width="0.5" d="M 20.0000 325.9832 L -20.0000 325.9832 L -20.0000 337.5113 L 20.0000 337.5113 L 20.0000 325.9832 Z"/>
    <path fill="none" stroke="#00aa66" stroke-opacity="0.25" stroke-width="0.5" d="M -20.0000 331.5113 L 20.0000 331.5113 L 20.0000 343.0751 L -20.0000 343.0751 L -20.0000 331.5113 Z"/>
    <path fill="none" stroke="#00aa66" stroke-opacity="0.25" stroke-width="0.5" d="M 20.0000 337.5113 L -20.0000 337.5113 L -20.0000 349.0751 L 20.0000 349.0751 L 20.0000 337.5113 Z"/>
    <path fill="none" stroke="#00aa66" stroke-opacity="0.25" stroke-width="0.5" d="M -20.0000 343.0751 L 20.0000 343.0751 L 20.0000 354.6758 L -20.0000 354.6758 L -20.0000 343.0751 Z"/>
    <path fill="none" stroke="#00aa66" stroke-opacity="0.25" stroke-width="0.5" d="M 20.0000 349.0751 L -20.0000 349.0751 L -20.0000 360.6758 L 20.0000 360.6758 L 20.0000 349.0751 Z"/>
    <path fill="none" stroke="#00aa66" stroke-opacity="0.25" stroke-width="0.5" d="M -20.0000 354.6758 L 20.0000 354.6758 L 20.0000 366.3148 L -20.0000 366.3148 L -20.0000 354.6758 Z"/>
    <path fill="none" stroke="#00aa66" stroke-opacity="0.25" stroke-width="0.5" d="M 20.0000 360.6758 L -20.0000 360.6758 L -20.0000 372.3148 L 20.0000 372.3148 L 20.0000 360.6758 Z"/>
    <path fill="none" stroke="#00aa66" stroke-opacity="0.25" stroke-width="0.5" d="M -20.0000 366.3148 L 20.0000 366.3148 L 20.0000 372.1516 L -20.0000 372.1516 L -20.0000 366.3148 Z"/>
    <path fill="none" stroke="#00aa66" stroke-opacity="0.25" stroke-width="0.5" d="M 20.0000 372.3148 L -20.0000 372.3148 L -20.0000 378.1516 L 20.0000 378.1516 L 20.0000 372.3148 Z"/>
    <path fill="none" stroke="#00aa66" stroke-opacity="0.25" stroke-width="0.5" d="M -20.0000 372.1516 L 20.0000 372.1516 L 20.0000 377.9933 L -20.0000 377.9933 L -20.0000 372.1516 Z"/>
    <path fill="none" stroke="#00aa66" stroke-opacity="0.25" stroke-width="0.5" d="M 20.0000 378.1516 L -20.0000 378.1516 L -20.0000 383.9933 L 20.0000 383.9933 L 20.0000 378.1516 Z"/>
    <path fill="none" stroke="#00aa66" stroke-opacity="0.25" stroke-width="0.5" d="M -20.0000 377.9933 L 20.0000 377.9933 L 20.0000 383.8505 L -20.0000 383.8505 L -20.0000 377.9933 Z"/>
    <path fill="none" stroke="#00aa66" stroke-opacity="0.25" stroke-width="0.5" d="M 20.0000 383.9933 L -20.0000 383.9933 L -20.0000 389.8505 L 20.0000 389.8505 L 20.0000 383.9933 Z"/>
    <path fill="none" stroke="#00aa66" stroke-opacity="0.25" stroke-width="0.5" d="M -20.0000 383.8505 L 20.0000 383.8505 L 20.0000 389.7127 L -20.0000 389.7127 L -20.0000 383.8505 Z"/>
    <path fill="none" stroke="#00aa66" stroke-opacity="0.25" stroke-width="0.5" d="M 20.0000 389.8505 L -20.0000 389.8505 L -20.0000 395.7127 L 20.0000 395.7127 L 20.0000 389.8505 Z"/>
    <path fill="none" stroke="#00aa66" stroke-opacity="0.25" stroke-width="0.5" d="M -20.0000 389.7127 L 20.0000 389.7127 L 20.0000 395.5909 L -20.0000 395.5909 L -20.0000 389.7127 Z"/>
    <path fill="none" stroke="#00aa66" stroke-opacity="0.25" stroke-width="0.5" d="M 20.0000 395.7127 L -20.0000 395.7127 L -20.0000 401.5909 L 20.0000 401.5909 L 20.0000 395.7127 Z"/>
    <path fill="none" stroke="#00aa66" stroke-opacity="0.25" stroke-width="0.5" d="M -20.0000 395.5909 L 20.0000 395.5909 L 20.0000 401.4743 L -20.0000 401.4743 L -20.0000 395.5909 Z"/>
    <path fill="none" stroke="#00aa66" stroke-opacity="0.25" stroke-width="0.5" d="M 20.0000 401.5909 L -20.0000 401.5909 L -20.0000 407.4743 L 20.0000 407.4743 L 20.0000 401.5909 Z"/>
    <path fill="none" stroke="#00aa66" stroke-opacity="0.25" stroke-width="0.5" d="M -20.0000 401.4743 L 20.0000 401.4743 L 20.0000 412.3857 L -20.0000 412.3857 L -20.0000 401.4743 Z"/>
    <path fill="none" stroke="#00aa66" stroke-opacity="0.25" stroke-width="0.5" d="M 20.0000 407.4743 L -20.0000 407.4743 L -20.0000 418.3857 L 20.0000 418.3857 L 20.0000 407.4743 Z"/>
    <path fill="none" stroke="#00aa66" stroke-opacity="0.25" stroke-width="0.5" d="M -20.0000 412.3857 L 20.0000 412.3857 L 20.0000 417.6114 L -20.0000 417.6114 L -20.0000 412.3857 Z"/>
    <path fill="none" stroke="#00aa66" stroke-opacity="0.25" stroke-width="0.5" d="M 20.0000 418.3857 L -20.0000 418.3857 L -20.0000 423.6114 L 20.0000 423.6114 L 20.0000 418.3857 Z"/>
    <path fill="none" stroke="#00aa66" stroke-opacity="0.25" stroke-width="0.5" d="M -20.0000 417.6114 L 20.0000 417.6114 L -30.1140 431.3132 L -70.1140 431.3132 L -20.0000 417.6114 Z"/>
    <path fill="none" stroke="#00aa66" stroke-opacity="0.25" stroke-width="0.5" d="M 20.0000 417.6114 L 20.0000 423.6114 L -30.1140 437.3132 L -30.1140 431.3132 L 20.0000 417.6114 Z"/>
    <path fill="none" stroke="#00aa66" stroke-opacity="0.25" stroke-width="0.5" d="M 20.0000 423.6114 L -20.0000 423.6114 L -70.1140 437.3132 L -30.1140 437.3132 L 20.0000 423.6114 Z"/>
    <path fill="none" stroke="#00aa66" stroke-opacity="0.25" stroke-width="0.5" d="M -20.0000 423.6114 L -20.0000 417.6114 L -70.1140 431.3132 L -70.1140 437.3132 L -20.0000 423.6114 Z"/>
    <path fill="none" stroke="#00aa66" stroke-opacity="0.25" stroke-width="0.5" d="M -70.1140 431.3132 L -30.1140 431.3132 L 13.1295 427.5251 L -26.8705 427.5251 L -70.1140 431.3132 Z"/>
    <path fill="none" stroke="#00aa66" stroke-opacity="0.25" stroke-width="0.5" d="M -30.1140 431.3132 L -30.1140 437.3132 L 13.1295 433.5251 L 13.1295 427.5251 L -30.1140 431.3132 Z"/>
    <path fill="none" stroke="#00aa66" stroke-opacity="0.25" stroke-width="0.5" d="M -30.1140 437.3132 L -70.1140 437.3132 L -26.8705 433.5251 L 13.1295 433.5251 L -30.1140 437.3132 Z"/>
    <path fill="none" stroke="#00aa66" stroke-opacity="0.25" stroke-width="0.5" d="M -70.1140 437.3132 L -70.1140 431.3132 L -26.8705 427.5251 L -26.8705 433.5251 L -70.1140 437.3132 Z"/>
    <path fill="none" stroke="#00aa66" stroke-opacity="0.25" stroke-width="0.5" d="M -26.8705 427.5251 L 13.1295 427.5251 L 10.8239 428.9009 L -29.1761 428.9009 L -26.8705 427.5251 Z"/>
    <path fill="none" stroke="#00aa66" stroke-opacity="0.25" stroke-width="0.5" d="M 13.1295 427.5251 L 13.1295 433.5251 L 10.8239 434.9009 L 10.8239 428.9009 L 13.1295 427.5251 Z"/>
    <path fill="none" stroke="#00aa66" stroke-opacity="0.25" stroke-width="0.5" d="M 13.1295 433.5251 L -26.8705 433.5251 L -29.1761 434.9009 L 10.8239 434.9009 L 13.1295 433.5251 Z"/>
    <path fill="none" stroke="#00aa66" stroke-opacity="0.25" stroke-width="0.5" d="M -26.8705 433.5251 L -26.8705 427.5251 L -29.1761 428.9009 L -29.1761 434.9009 L -26.8705 433.5251 Z"/>
    <path fill="none" stroke="#00aa66" stroke-opacity="0.25" stroke-width="0.5" d="M -29.1761 428.9009 L 10.8239 428.9009 L 7.7804 430.4335 L -32.2196 430.4335 L -29.1761 428.9009 Z"/>
    <path fill="none" stroke="#00aa66" stroke-opacity="0.25" stroke-width="0.5" d="M 10.8239 428.9009 L 10.8239 434.9009 L 7.7804 436.4335 L 7.7804 430.4335 L 10.8239 428.9009 Z"/>
    <path fill="none" stroke="#00aa66" stroke-opacity="0.25" stroke-width="0.5" d="M 10.8239 434.9009 L -29.1761 434.9009 L -32.2196 436.4335 L 7.7804 436.4335 L 10.8239 434.9009 Z"/>
    <path fill="none" stroke="#00aa66" stroke-opacity="0.25" stroke-width="0.5" d="M -29.1761 434.9009 L -29.1761 428.9009 L -32.2196 430.4335 L -32.2196 436.4335 L -29.1761 434.9009 Z"/>
    <path fill="none" stroke="#00aa66" stroke-opacity="0.25" stroke-width="0.5" d="M -32.2196 430.4335 L 7.7804 430.4335 L 0.5780 432.9965 L -39.4220 432.9965 L -32.2196 430.4335 Z"/>
    <path fill="none" stroke="#00aa66" stroke-opacity="0.25" stroke-width="0.5" d="M 7.7804 430.4335 L 7.7804 436.4335 L 0.5780 438.9965 L 0.5780 432.9965 L 7.7804 430.4335 Z"/>
    <path fill="none" stroke="#00aa66" stroke-opacity="0.25" stroke-width="0.5" d="M 7.7804 436.4335 L -32.2196 436.4335 L -39.4220 438.9965 L 0.5780 438.9965 L 7.7804 436.4335 Z"/>
    <path fill="none" stroke="#00aa66" stroke-opacity="0.25" stroke-width="0.5" d="M -32.2196 436.4335 L -32.2196 430.4335 L -39.4220 432.9965 L -39.4220 438.9965 L -32.2196 436.4335 Z"/>
    <path fill="none" stroke="#00aa66" stroke-opacity="0.25" stroke-width="0.5" d="M -39.4220 432.9965 L 0.5780 432.9965 L -5.2692 434.1608 L -45.2692 434.1608 L -39.4220 432.9965 Z"/>
    <path fill="none" stroke="#00aa66" stroke-opacity="0.25" stroke-width="0.5" d="M 0.5780 432.9965 L 0.5780 438.9965 L -5.2692 440.1608 L -5.2692 434.1608 L 0.5780 432.9965 Z"/>
    <path fill="none" stroke="#00aa66" stroke-opacity="0.25" stroke-width="0.5" d="M 0.5780 438.9965 L -39.4220 438.9965 L -45.2692 440.1608 L -5.2692 440.1608 L 0.5780 438.9965 Z"/>
    <path fill="none" stroke="#00aa66" stroke-opacity="0.25" stroke-width="0.5" d="M -39.4220 438.9965 L -39.4220 432.9965 L -45.2692 434.1608 L -45.2692 440.1608 L -39.4220 438.9965 Z"/>
    <path fill="none" stroke="#00aa66" stroke-opacity="0.25" stroke-width="0.5" d="M -45.2692 434.1608 L -5.2692 434.1608 L -7.8402 434.4437 L -47.8402 434.4437 L -45.2692 434.1608 Z"/>
    <path fill="none" stroke="#00aa66" stroke-opacity="0.25" stroke-width="0.5" d="M -5.2692 434.1608 L -5.2692 440.1608 L -7.8402 440.4437 L -7.8402 434.4437 L -5.2692 434.1608 Z"/>
    <path fill="none" stroke="#00aa66" stroke-opacity="0.25" stroke-width="0.5" d="M -5.2692 440.1608 L -45.2692 440.1608 L -47.8402 440.4437 L -7.8402 440.4437 L -5.2692 440.1608 Z"/>
    <path fill="none" stroke="#00aa66" stroke-opacity="0.25" stroke-width="0.5" d="M -45.2692 440.1608 L -45.2692 434.1608 L -47.8402 434.4437 L -47.8402 440.4437 L -45.2692 440.1608 Z"/>
    <path fill="none" stroke="#00aa66" stroke-opacity="0.25" stroke-width="0.5" d="M -47.8402 434.4437 L -7.8402 434.4437 L -11.9971 434.6219 L -51.9971 434.6219 L -47.8402 434.4437 Z"/>
    <path fill="none" stroke="#00aa66" stroke-opacity="0.25" stroke-width="0.5" d="M -7.8402 434.4437 L -7.8402 440.4437 L -11.9971 440.6219 L -11.9971 434.6219 L -7.8402 434.4437 Z"/>
    <path fill="none" stroke="#00aa66" stroke-opacity="0.25" stroke-width="0.5" d="M -7.8402 440.4437 L -47.8402 440.4437 L -51.9971 440.6219 L -11.9971 440.6219 L -7.8402 440.4437 Z"/>
    <path fill="none" stroke="#00aa66" stroke-opacity="0.25" stroke-width="0.5" d="M -47.8402 440.4437 L -47.8402 434.4437 L -51.9971 434.6219 L -51.9971 440.6219 L -47.8402 440.4437 Z"/>
    <path fill="none" stroke="#00aa66" stroke-opacity="0.25" stroke-width="0.5" d="M -51.9971 434.6219 L -11.9971 434.6219 L -18.2321 434.2559 L -58.2321 434.2559 L -51.9971 434.6219 Z"/>
    <path fill="none" stroke="#00aa66" stroke-opacity="0.25" stroke-width="0.5" d="M -11.9971 434.6219 L -11.9971 440.6219 L -18.2321 440.2559 L -18.2321 434.2559 L -11.9971 434.6219 Z"/>
    <path fill="none" stroke="#00aa66" stroke-opacity="0.25" stroke-width="0.5" d="M -11.9971 440.6219 L -51.9971 440.6219 L -58.2321 440.2559 L -18.2321 440.2559 L -11.9971 440.6219 Z"/>
    <path fill="none" stroke="#00aa66" stroke-opacity="0.25" stroke-width="0.5" d="M -51.9971 440.6219 L -51.9971 434.6219 L -58.2321 434.2559 L -58.2321 440.2559 L -51.9971 440.6219 Z"/>
    <path fill="none" stroke="#00aa66" stroke-opacity="0.25" stroke-width="0.5" d="M -58.2321 434.2559 L -18.2321 434.2559 L -23.2593 433.3948 L -63.2593 433.3948 L -58.2321 434.2559 Z"/>
    <path fill="none" stroke="#00aa66" stroke-opacity="0.25" stroke-width="0.5" d="M -18.2321 434.2559 L -18.2321 440.2559 L -23.2593 439.3948 L -23.2593 433.3948 L -18.2321 434.2559 Z"/>
    <path fill="none" stroke="#00aa66" stroke-opacity="0.25" stroke-width="0.5" d="M -18.2321 440.2559 L -58.2321 440.2559 L -63.2593 439.3948 L -23.2593 439.3948 L -18.2321 440.2559 Z"/>
    <path fill="none" stroke="#00aa66" stroke-opacity="0.25" stroke-width="0.5" d="M -58.2321 440.2559 L -58.2321 434.2559 L -63.2593 433.3948 L -63.2593 439.3948 L -58.2321 440.2559 Z"/>
    <path fill="none" stroke="#00aa66" stroke-opacity="0.25" stroke-width="0.5" d="M -63.2593 433.3948 L -23.2593 433.3948 L -23.7982 433.2709 L -63.7982 433.2709 L -63.2593 433.3948 Z"/>
    <path fill="none" stroke="#00aa66" stroke-opacity="0.25" stroke-width="0.5" d="M -23.2593 433.3948 L -23.2593 439.3948 L -23.7982 439.2709 L -23.7982 433.2709 L -23.2593 433.3948 Z"/>
    <path fill="none" stroke="#00aa66" stroke-opacity="0.25" stroke-width="0.5" d="M -23.2593 439.3948 L -63.2593 439.3948 L -63.7982 439.2709 L -23.7982 439.2709 L -23.2593 439.3948 Z"/>
    <path fill="none" stroke="#00aa66" stroke-opacity="0.25" stroke-width="0.5" d="M -63.2593 439.3948 L -63.2593 433.3948 L -63.7982 433.2709 L -63.7982 439.2709 L -63.2593 439.3948 Z"/>
    <path fill="none" stroke="#00aa66" stroke-opacity="0.25" stroke-width="0.5" d="M -63.7982 433.2709 L -23.7982 433.2709 L -29.2132 431.6534 L -69.2132 431.6534 L -63.7982 433.2709 Z"/>
    <path fill="none" stroke="#00aa66" stroke-opacity="0.25" stroke-width="0.5" d="M -23.7982 433.2709 L -23.7982 439.2709 L -29.2132 437.6534 L -29.2132 431.6534 L -23.7982 433.2709 Z"/>
    <path fill="none" stroke="#00aa66" stroke-opacity="0.25" stroke-width="0.5" d="M -23.7982 439.2709 L -63.7982 439.2709 L -69.2132 437.6534 L -29.2132 437.6534 L -23.7982 439.2709 Z"/>
    <path fill="none" stroke="#00aa66" stroke-opacity="0.25" stroke-width="0.5" d="M -63.7982 439.2709 L -63.7982 433.2709 L -69.2132 431.6534 L -69.2132 437.6534 L -63.7982 439.2709 Z"/>
    <path fill="none" stroke="#00aa66" stroke-opacity="0.25" stroke-width="0.5" d="M -69.2132 431.6534 L -29.2132 431.6534 L -34.3845 429.3773 L -74.3845 429.3773 L -69.2132 431.6534 Z"/>
    <path fill="none" stroke="#00aa66" stroke-opacity="0.25" stroke-width="0.5" d="M -29.2132 431.6534 L -29.2132 437.6534 L -34.3845 435.3773 L -34.3845 429.3773 L -29.2132 431.6534 Z"/>
    <path fill="none" stroke="#00aa66" stroke-opacity="0.25" stroke-width="0.5" d="M -29.2132 437.6534 L -69.2132 437.6534 L -74.3845 435.3773 L -34.3845 435.3773 L -29.2132 437.6534 Z"/>
    <path fill="none" stroke="#00aa66" stroke-opacity="0.25" stroke-width="0.5" d="M -69.2132 437.6534 L -69.2132 431.6534 L -74.3845 429.3773 L -74.3845 435.3773 L -69.2132 437.6534 Z"/>
    <path fill="none" stroke="#00aa66" stroke-opacity="0.25" stroke-width="0.5" d="M -74.3845 429.3773 L -34.3845 429.3773 L -39.1848 426.4048 L -79.1848 426.4048 L -74.3845 429.3773 Z"/>
    <path fill="none" stroke="#00aa66" stroke-opacity="0.25" stroke-width="0.5" d="M -34.3845 429.3773 L -34.3845 435.3773 L -39.1848 432.4048 L -39.1848 426.4048 L -34.3845 429.3773 Z"/>
    <path fill="none" stroke="#00aa66" stroke-opacity="0.25" stroke-width="0.5" d="M -34.3845 435.3773 L -74.3845 435.3773 L -79.1848 432.4048 L -39.1848 432.4048 L -34.3845 435.3773 Z"/>
    <path fill="none" stroke="#00aa66" stroke-opacity="0.25" stroke-width="0.5" d="M -74.3845 435.3773 L -74.3845 429.3773 L -79.1848 426.4048 L -79.1848 432.4048 L -74.3845 435.3773 Z"/>
    <path fill="none" stroke="#00aa66" stroke-opacity="0.25" stroke-width="0.5" d="M -79.1848 426.4048 L -39.1848 426.4048 L -43.4322 422.7004 L -83.4322 422.7004 L -79.1848 426.4048 Z"/>
    <path fill="none" stroke="#00aa66" stroke-opacity="0.25" stroke-width="0.5" d="M -39.1848 426.4048 L -39.1848 432.4048 L -43.4322 428.7004 L -43.4322 422.7004 L -39.1848 426.4048 Z"/>
    <path fill="none" stroke="#00aa66" stroke-opacity="0.25" stroke-width="0.5" d="M -39.1848 432.4048 L -79.1848 432.4048 L -83.4322 428.7004 L -43.4322 428.7004 L -39.1848 432.4048 Z"/>
    <path fill="none" stroke="#00aa66" stroke-opacity="0.25" stroke-width="0.5" d="M -79.1848 432.4048 L -79.1848 426.4048 L -83.4322 422.7004 L -83.4322 428.7004 L -79.1848 432.4048 Z"/>
    <path fill="none" stroke="#00aa66" stroke-opacity="0.25" stroke-width="0.5" d="M -83.4322 422.7004 L -43.4322 422.7004 L -46.8797 418.2634 L -86.8797 418.2634 L -83.4322 422.7004 Z"/>
    <path fill="none" stroke="#00aa66" stroke-opacity="0.25" stroke-width="0.5" d="M -43.4322 422.7004 L -43.4322 428.7004 L -46.8797 424.2634 L -46.8797 418.2634 L -43.4322 422.7004 Z"/>
    <path fill="none" stroke="#00aa66" stroke-opacity="0.25" stroke-width="0.5" d="M -43.4322 428.7004 L -83.4322 428.7004 L -86.8797 424.2634 L -46.8797 424.2634 L -43.4322 428.7004 Z"/>
    <path fill="none" stroke="#00aa66" stroke-opacity="0.25" stroke-width="0.5" d="M -83.4322 428.7004 L -83.4322 422.7004 L -86.8797 418.2634 L -86.8797 424.2634 L -83.4322 428.7004 Z"/>
    <path fill="none" stroke="#00aa66" stroke-opacity="0.25" stroke-width="0.5" d="M -86.8797 418.2634 L -46.8797 418.2634 L -49.2448 413.1763 L -89.2448 413.1763 L -86.8797 418.2634 Z"/>
    <path fill="none" stroke="#00aa66" stroke-opacity="0.25" stroke-width="0.5" d="M -46.8797 418.2634 L -46.8797 424.2634 L -49.2448 419.1763 L -49.2448 413.1763 L -46.8797 418.2634 Z"/>
    <path fill="none" stroke="#00aa66" stroke-opacity="0.25" stroke-width="0.5" d="M -46.8797 424.2634 L -86.8797 424.2634 L -89.2448 419.1763 L -49.2448 419.1763 L -46.8797 424.2634 Z"/>
    <path fill="none" stroke="#00aa66" stroke-opacity="0.25" stroke-width="0.5" d="M -86.8797 424.2634 L -86.8797 418.2634 L -89.2448 413.1763 L -89.2448 419.1763 L -86.8797 424.2634 Z"/>
    <path fill="none" stroke="#00aa66" stroke-opacity="0.25" stroke-width="0.5" d="M -89.2448 413.1763 L -49.2448 413.1763 L -50.3003 407.6464 L -90.3003 407.6464 L -89.2448 413.1763 Z"/>
    <path fill="none" stroke="#00aa66" stroke-opacity="0.25" stroke-width="0.5" d="M -49.2448 413.1763 L -49.2448 419.1763 L -50.3003 413.6464 L -50.3003 407.6464 L -49.2448 413.1763 Z"/>
    <path fill="none" stroke="#00aa66" stroke-opacity="0.25" stroke-width="0.5" d="M -49.2448 419.1763 L -89.2448 419.1763 L -90.3003 413.6464 L -50.3003 413.6464 L -49.2448 419.1763 Z"/>
    <path fill="none" stroke="#00aa66" stroke-opacity="0.25" stroke-width="0.5" d="M -89.2448 419.1763 L -89.2448 413.1763 L -90.3003 407.6464 L -90.3003 413.6464 L -89.2448 419.1763 Z"/>
    <path fill="none" stroke="#00aa66" stroke-opacity="0.25" stroke-width="0.5" d="M -90.3003 407.6464 L -50.3003 407.6464 L -50.0000 402.0000 L -90.0000 402.0000 L -90.3003 407.6464 Z"/>
    <path fill="none" stroke="#00aa66" stroke-opacity="0.25" stroke-width="0.5" d="M -50.3003 407.6464 L -50.3003 413.6464 L -50.0000 408.0000 L -50.0000 402.0000 L -50.3003 407.6464 Z"/>
    <path fill="none" stroke="#00aa66" stroke-opacity="0.25" stroke-width="0.5" d="M -50.3003 413.6464 L -90.3003 413.6464 L -90.0000 408.0000 L -50.0000 408.0000 L -50.3003 413.6464 Z"/>
    <path fill="none" stroke="#00aa66" stroke-opacity="0.25" stroke-width="0.5" d="M -90.3003 413.6464 L -90.3003 407.6464 L -90.0000 402.0000 L -90.0000 408.0000 L -90.3003 413.6464 Z"/>
  
</g>
</svg>