<svg xmlns="http://www.w3.org/2000/svg" width="451.5516" height="482.4250" viewBox="-209.6766 -13.0500 451.5516 482.4250">
  <g id="background-glyph" fill="#e0e0e0" stroke="#4169e1" stroke-width="1.0000" opacity="0.5000" transform="matrix(1.0000 0 0 1.0000 0 0)">
  <path transform="matrix(1.0000 0 0 1.0000 -723.6510 -447.8750)" d="M955.526,454.125L955.526,447.875L763.026,447.875L763.026,454.125C773.859,455.375 784.38,457.25 794.589,459.75C804.797,462.25 812.818,467.042 818.651,474.125C821.151,477.042 822.922,481.208 823.964,486.625C825.005,492.042 825.839,498.188 826.464,505.063C827.089,511.938 827.401,519.125 827.401,526.625L827.401,744.125C827.401,755.792 827.297,766.625 827.089,776.625C826.88,786.625 826.776,794.542 826.776,800.375C826.359,812.042 825.63,823.708 824.589,835.375C823.547,847.042 821.776,857.458 819.276,866.625C816.359,876.208 811.672,884.333 805.214,891C798.755,897.667 790.318,901 779.901,901C776.568,901 773.026,900.271 769.276,898.813C765.526,897.354 762.609,895.167 760.526,892.25L760.526,890.375C769.276,889.125 776.568,886.313 782.401,881.938C788.234,877.563 791.151,870.583 791.151,861C791.151,852.667 788.13,845.479 782.089,839.438C776.047,833.396 768.859,830.375 760.526,830.375C750.943,830.375 742.401,833.5 734.901,839.75C727.401,846 723.651,854.125 723.651,864.125C723.651,872.042 725.214,878.813 728.339,884.438C731.464,890.063 735.63,894.438 740.839,897.563C746.047,900.688 751.88,903.083 758.339,904.75C764.797,906.417 771.359,907.25 778.026,907.25C790.109,907.25 803.339,904.958 817.714,900.375C832.089,895.792 845.943,888.292 859.276,877.875C870.109,869.542 878.859,860.479 885.526,850.688C892.193,840.896 895.526,829.125 895.526,815.375L895.526,600.375C895.526,589.958 895.63,579.646 895.839,569.438C896.047,559.229 896.151,548.917 896.151,538.5C896.568,528.917 896.984,518.604 897.401,507.563C897.818,496.521 899.693,487.667 903.026,481C908.443,471 916.359,464.333 926.776,461C937.193,457.667 946.776,455.375 955.526,454.125Z"/>
</g>
  
  <path fill="black" stroke="none" fill-rule="evenodd" d="M -199.6766 387.2539 L -168.2076 421.7839 L -164.5749 413.8053 L -170.4766 413.8053 L -170.4766 412.8053 L -164.1196 412.8053 L -162.3015 408.8121 L -173.4254 408.8121 L -173.4254 407.8121 L -161.8462 407.8121 L -161.6269 407.3305 L -174.0211 407.3305 L -174.0211 406.5616 L -174.2814 406.5616 L -174.2814 405.5616 L -160.8215 405.5616 L -159.4722 402.5980 L -175.1602 402.5980 L -175.1602 401.5980 L -159.0169 401.5980 L -157.7092 398.7259 L -175.3089 398.7259 L -175.3121 399.1108 L -175.3291 398.7259 L -175.3317 398.7259 L -175.3317 398.6686 L -175.3587 398.0589 L -175.2945 397.0080 L -175.3005 397.7259 L -157.2539 397.7259 L -157.1903 397.5861 L -175.2621 397.5861 L -175.2621 396.5861 L -175.2007 396.5861 L -175.2007 395.9524 L -156.4465 395.9524 L -152.9702 388.3173 L -199.6766 387.2539 Z M -175.1690 395.1582 L -175.2250 395.8682 L -175.2033 395.5127 L -175.1690 395.1582 Z M -175.0634 404.7249 L -175.1406 402.9829 L -174.6860 406.4272 L -175.0634 404.7249 Z M -175.0124 393.7142 L -175.1076 394.5245 L -175.0683 394.1184 L -175.0124 393.7142 Z M -173.5728 411.4481 L -173.8072 410.3908 L -173.2255 412.4740 L -173.5728 411.4481 Z M -172.4044 414.8999 L -172.9653 413.2429 L -171.5644 416.4343 L -172.4044 414.8999 Z"/>
<path fill="black" stroke="none" fill-rule="evenodd" d="M -175.3317 397.7259 L -175.3317 398.6686 L -175.3291 398.7259 L -175.3089 398.7259 L -175.3005 397.7259 L -175.3317 397.7259 Z"/>
<path fill="black" stroke="none" fill-rule="evenodd" d="M -175.2007 396.5861 L -175.2007 396.9524 L -156.9018 396.9524 L -157.1903 397.5861 L -139.8934 397.5861 L -139.6049 396.9524 L -136.7184 396.9524 L -136.1409 397.5861 L -135.3533 397.5861 L -135.3545 397.7259 L -136.0135 397.7259 L -135.5768 398.2051 L -135.5080 398.7259 L -135.4221 398.7259 L -135.5250 398.2619 L -135.3604 398.4425 L -135.3628 398.7259 L -135.3345 398.7259 L -135.3648 398.9843 L -135.3649 398.9839 L -135.3650 398.9853 L -135.3891 399.1907 L -135.3652 399.0181 L -135.3688 399.4438 L -135.3459 399.0696 L -135.3622 398.9962 L -135.3427 398.8554 L -135.3553 399.0141 L -135.3332 398.7865 L -135.3309 398.7629 L -135.3209 398.6596 L -135.3209 398.6596 L -135.3209 398.6596 L -135.3209 398.6596 L -135.3459 399.0696 L -135.2569 399.4711 L -135.2357 399.9489 L -135.2357 399.9489 L -135.2249 399.9809 L -135.0769 400.4181 L -135.0769 400.4181 L -135.0662 400.4497 L -134.2721 401.2559 L -133.7686 402.1756 L -133.7681 402.1759 L -132.9695 402.8044 L -132.9695 402.8044 L -132.1670 403.4361 L -132.4788 403.2435 L -132.7768 402.9769 L -133.6526 402.3876 L -133.4283 402.7973 L -133.6749 402.7042 L -134.1684 402.0405 L -134.7782 401.6301 L -134.7556 401.7323 L -134.7854 401.6253 L -135.0652 401.4371 L -134.7950 401.5909 L -134.9708 400.9613 L -135.2048 400.6466 L -135.1798 401.2131 L -135.2652 400.5654 L -136.2287 399.2697 L -135.3137 400.1986 L -135.3740 399.7413 L -135.8197 398.7259 L -140.4124 398.7259 L -141.7200 401.5980 L -135.1602 401.5980 L -135.1602 402.5980 L -142.1753 402.5980 L -143.5247 405.5616 L -134.2814 405.5616 L -134.2814 406.3305 L -134.0211 406.3305 L -134.0211 407.3305 L -144.3301 407.3305 L -144.5493 407.8121 L -133.4254 407.8121 L -133.4254 408.8121 L -145.0046 408.8121 L -146.8228 412.8053 L -130.4766 412.8053 L -130.4766 413.8053 L -147.2781 413.8053 L -149.1973 418.0206 L -125.3389 418.0206 L -125.3389 418.3153 L -124.9645 418.3153 L -124.9645 419.3153 L -149.7867 419.3153 L -150.2796 420.3976 L -121.9555 420.3976 L -121.9555 420.5474 L -121.7131 420.5474 L -121.7131 421.5474 L -150.8031 421.5474 L -151.7088 423.5367 L -115.7985 423.5367 L -115.7985 424.1726 L -111.9112 424.1726 L -113.7485 422.1565 L -113.7548 422.1565 L -113.7548 422.1497 L -127.1734 407.4259 L -127.1734 407.4259 L -127.7452 406.7984 L -129.0607 405.3550 L -129.0607 405.3550 L -129.1028 405.3088 L -129.2054 405.2656 L -129.6409 404.9966 L -129.2975 405.0952 L -135.3057 398.5025 L -135.3209 398.6596 L -135.3209 398.6596 L -135.3209 398.6596 L -135.3209 398.6596 L -135.3147 398.5576 L -135.3147 398.5576 L -135.3080 398.5001 L -135.3110 398.4967 L -135.3047 398.3929 L -135.2992 398.3040 L -135.3052 398.3800 L -135.3317 397.7833 L -135.3317 397.7259 L -135.3342 397.7259 L -135.3404 397.5861 L -135.2621 397.5861 L -135.2621 396.9524 L -135.2007 396.9524 L -135.2007 395.9524 L -137.6298 395.9524 L -137.0522 396.5861 L -139.4381 396.5861 L -139.1496 395.9524 L -156.4465 395.9524 L -156.7350 396.5861 L -175.2007 396.5861 Z M -135.3317 398.7019 L -135.3317 398.4741 L -135.3142 398.4933 L -135.3285 398.6752 L -135.3317 398.7019 Z M -132.9333 403.7015 L -133.5440 402.8802 L -133.3235 402.9886 L -132.9333 403.7015 Z M -131.0911 404.4850 L -132.0798 403.6004 L -131.8522 403.7124 L -131.0911 404.4850 Z"/>
<path fill="black" stroke="none" fill-rule="evenodd" d="M -174.0211 406.3305 L -174.0211 406.5616 L -161.2768 406.5616 L -161.6269 407.3305 L -144.3301 407.3305 L -143.9800 406.5616 L -134.2814 406.5616 L -134.2814 406.3305 L -143.8748 406.3305 L -143.5247 405.5616 L -160.8215 405.5616 L -161.1716 406.3305 L -174.0211 406.3305 Z"/>
<path fill="black" stroke="none" fill-rule="evenodd" d="M -168.0198 422.9091 L -166.6810 425.3547 L -164.7244 427.3410 L -168.0198 422.9091 Z"/>
<path fill="black" stroke="none" fill-rule="evenodd" d="M -165.3389 418.0206 L -165.3389 419.0206 L -164.9645 419.0206 L -164.9645 419.3153 L -149.7867 419.3153 L -149.6526 419.0206 L -125.3389 419.0206 L -125.3389 418.3153 L -149.3314 418.3153 L -149.1973 418.0206 L -165.3389 418.0206 Z"/>
<path fill="black" stroke="none" fill-rule="evenodd" d="M -164.5749 413.8053 L -147.2781 413.8053 L -146.8228 412.8053 L -164.1196 412.8053 L -164.5749 413.8053 Z"/>
<path fill="black" stroke="none" fill-rule="evenodd" d="M -162.3015 408.8121 L -145.0046 408.8121 L -144.5493 407.8121 L -161.8462 407.8121 L -162.3015 408.8121 Z"/>
<path fill="black" stroke="none" fill-rule="evenodd" d="M -161.9555 420.3976 L -161.9555 421.3976 L -161.7131 421.3976 L -161.7131 421.5474 L -150.8031 421.5474 L -150.7349 421.3976 L -121.9555 421.3976 L -121.9555 420.5474 L -150.3478 420.5474 L -150.2796 420.3976 L -161.9555 420.3976 Z"/>
<path fill="black" stroke="none" fill-rule="evenodd" d="M -159.5867 432.5563 L -158.7006 433.4558 L -157.7083 434.2368 L -159.5867 432.5563 Z"/>
<path fill="black" stroke="none" fill-rule="evenodd" d="M -159.4722 402.5980 L -142.1753 402.5980 L -141.7200 401.5980 L -159.0169 401.5980 L -159.4722 402.5980 Z"/>
<path fill="black" stroke="none" fill-rule="evenodd" d="M -157.7092 398.7259 L -140.4124 398.7259 L -139.9571 397.7259 L -157.2539 397.7259 L -157.7092 398.7259 Z"/>
<path fill="black" stroke="none" fill-rule="evenodd" d="M -157.3339 434.5314 L -156.1610 435.4546 L -155.3035 435.9431 L -155.4104 435.8258 L -157.3339 434.5314 Z"/>
<path fill="black" stroke="none" fill-rule="evenodd" d="M -156.7377 434.3694 L -155.4104 435.8258 L -154.8639 436.1935 L -155.3035 435.9431 L -154.8503 436.4403 L -152.4666 437.9128 L -156.7377 434.3694 Z"/>
<path fill="black" stroke="none" fill-rule="evenodd" d="M -155.7985 423.5367 L -155.7985 424.5367 L -152.1641 424.5367 L -151.7088 423.5367 L -155.7985 423.5367 Z"/>
<path fill="black" stroke="none" fill-rule="evenodd" d="M -153.8807 428.3069 L -107.1742 429.3703 L -108.5042 427.9110 L -132.5252 427.9110 L -132.5252 427.3634 L -145.8804 427.3634 L -145.8804 427.3301 L -146.0699 427.3301 L -146.0699 427.2011 L -146.7347 427.2011 L -146.7347 426.2011 L -110.0625 426.2011 L -110.9864 425.1874 L -120.2880 425.1874 L -120.2880 424.5367 L -152.1641 424.5367 L -153.8807 428.3069 Z"/>
<path fill="black" stroke="none" fill-rule="evenodd" d="M -152.2241 438.0626 L -150.5818 439.0772 L -148.7758 439.7589 L -152.2241 438.0626 Z"/>
<path fill="black" stroke="none" fill-rule="evenodd" d="M -146.0699 426.3301 L -146.0699 427.2011 L -145.8804 427.2011 L -145.8804 427.3301 L -132.5252 427.3301 L -132.5252 427.3634 L -128.4492 427.3634 L -128.4492 427.3692 L -108.9980 427.3692 L -108.5042 427.9110 L -92.5252 427.9110 L -92.5252 427.3692 L -92.4029 427.3692 L -87.0243 440.4901 L -91.7133 427.3692 L -91.1012 427.3692 L -85.3293 439.7952 L -90.4231 427.3692 L -88.4492 427.3692 L -88.4492 427.3314 L -88.2353 427.3314 L -88.2353 426.3314 L -90.8485 426.3314 L -91.3175 425.1874 L -80.2880 425.1874 L -80.2880 425.1726 L -80.2479 425.1726 L -80.2479 424.1726 L -91.7335 424.1726 L -92.5599 422.1565 L -73.7548 422.1565 L -73.7548 421.1565 L -92.9698 421.1565 L -100.4852 402.8230 L -93.9334 421.1565 L -93.9870 421.1565 L -102.1802 403.5179 L -94.9496 421.1565 L -113.7548 421.1565 L -113.7548 422.1497 L -113.7485 422.1565 L -94.5397 422.1565 L -93.7133 424.1726 L -111.9112 424.1726 L -111.8977 424.1874 L -115.7985 424.1874 L -115.7985 424.1726 L -120.2479 424.1726 L -120.2479 424.1874 L -120.2880 424.1874 L -120.2880 424.5367 L -120.2479 424.5367 L -120.2479 425.1726 L -110.9998 425.1726 L -110.9864 425.1874 L -93.2973 425.1874 L -92.8283 426.3314 L -106.0699 426.3314 L -106.0699 426.3301 L -106.7347 426.3301 L -106.7347 426.2011 L -110.0625 426.2011 L -109.9449 426.3301 L -146.0699 426.3301 Z M -92.8556 424.1726 L -93.5761 422.1565 L -93.5225 422.1565 L -92.5861 424.1726 L -92.8556 424.1726 Z M -92.0841 426.3314 L -92.4930 425.1874 L -92.1147 425.1874 L -91.5833 426.3314 L -92.0841 426.3314 Z"/>
<path fill="black" stroke="none" fill-rule="evenodd" d="M -145.6979 441.4149 L -143.6184 442.5994 L -141.3183 443.2599 L -145.6979 441.4149 Z"/>
<path fill="black" stroke="none" fill-rule="evenodd" d="M -139.9571 397.7259 L -136.2587 397.7259 L -136.3200 397.5861 L -139.8934 397.5861 L -139.9571 397.7259 Z"/>
<path fill="black" stroke="none" fill-rule="evenodd" d="M -139.1496 395.9524 L -137.6298 395.9524 L -138.6433 394.8403 L -139.1496 395.9524 Z"/>
<path fill="black" stroke="none" fill-rule="evenodd" d="M -136.4778 397.2267 L -136.3200 397.5861 L -136.2810 397.5861 L -136.4778 397.2267 Z"/>
<path fill="black" stroke="none" fill-rule="evenodd" d="M -136.2810 397.5861 L -136.2045 397.7259 L -136.0135 397.7259 L -136.1409 397.5861 L -136.2810 397.5861 Z"/>
<path fill="black" stroke="none" fill-rule="evenodd" d="M -136.2587 397.7259 L -135.8197 398.7259 L -135.6571 398.7259 L -136.2045 397.7259 L -136.2587 397.7259 Z"/>
<path fill="black" stroke="none" fill-rule="evenodd" d="M -135.6571 398.7259 L -135.6378 398.7612 L -135.4175 399.4121 L -135.5080 398.7259 L -135.6571 398.7259 Z"/>
<path fill="black" stroke="none" fill-rule="evenodd" d="M -135.4221 398.7259 L -135.3649 398.9839 L -135.3628 398.7259 L -135.4221 398.7259 Z"/>
<path fill="black" stroke="none" fill-rule="evenodd" d="M -135.4175 399.4121 L -135.3740 399.7413 L -135.2305 400.0684 L -135.2324 400.0246 L -135.2022 400.1328 L -135.0769 400.4181 L -135.2249 399.9809 L -135.2357 399.9489 L -135.2357 399.9489 L -135.2357 399.9489 L -135.2357 399.9489 L -135.3372 399.6492 L -135.3372 399.6492 L -135.4175 399.4121 Z"/>
<path fill="black" stroke="none" fill-rule="evenodd" d="M -135.3137 400.1986 L -135.2652 400.5654 L -135.2048 400.6466 L -135.2205 400.2931 L -135.3137 400.1986 Z"/>
<path fill="black" stroke="none" fill-rule="evenodd" d="M -135.3080 398.5001 L -135.3057 398.5025 L -135.2939 398.3804 L -135.3080 398.5001 Z"/>
<path fill="black" stroke="none" fill-rule="evenodd" d="M -135.2305 400.0684 L -135.2205 400.2931 L -135.1324 400.3825 L -135.2022 400.1328 L -135.2305 400.0684 Z"/>
<path fill="black" stroke="none" fill-rule="evenodd" d="M -135.1324 400.3825 L -134.9708 400.9613 L -134.9077 401.0463 L -134.9900 400.6750 L -135.0662 400.4497 L -135.1324 400.3825 Z"/>
<path fill="black" stroke="none" fill-rule="evenodd" d="M -134.9077 401.0463 L -134.7857 401.5962 L -134.2878 401.8799 L -134.9077 401.0463 Z"/>
<path fill="black" stroke="none" fill-rule="evenodd" d="M -134.7950 401.5909 L -134.7854 401.6253 L -134.7782 401.6301 L -134.7857 401.5962 L -134.7950 401.5909 Z"/>
<path fill="black" stroke="none" fill-rule="evenodd" d="M -134.2878 401.8799 L -134.1684 402.0405 L -133.6526 402.3876 L -133.7686 402.1756 L -134.2878 401.8799 Z"/>
<path fill="black" stroke="none" fill-rule="evenodd" d="M -133.7975 445.4125 L -130.4724 446.6676 L -128.6426 446.6844 L -129.3393 446.5621 L -128.1638 446.6888 L -126.9186 446.7002 L -133.7975 445.4125 Z M -130.5719 446.3456 L -131.5897 446.0534 L -129.5288 446.5288 L -130.5719 446.3456 Z"/>
<path fill="black" stroke="none" fill-rule="evenodd" d="M -132.9695 402.8044 L -132.7768 402.9769 L -132.5952 403.0991 L -132.9695 402.8044 Z"/>
<path fill="black" stroke="none" fill-rule="evenodd" d="M -129.2975 405.0952 L -129.1028 405.3088 L -125.8991 406.6585 L -127.9785 405.4739 L -129.2975 405.0952 Z"/>
<path fill="black" stroke="none" fill-rule="evenodd" d="M -128.6426 446.6844 L -128.0290 446.7921 L -126.6997 446.8466 L -128.1638 446.6888 L -128.6426 446.6844 Z"/>
<path fill="black" stroke="none" fill-rule="evenodd" d="M -126.5509 406.7019 L -119.6720 407.9896 L -120.8993 407.5264 L -122.5065 407.1556 L -125.0611 406.8802 L -123.7318 406.9347 L -122.6110 407.1315 L -122.6110 407.1315 L -121.5680 407.3147 L -121.1177 407.4440 L -122.9970 406.7346 L -126.5509 406.7019 Z"/>
<path fill="black" stroke="none" fill-rule="evenodd" d="M -122.6110 407.1315 L -122.5065 407.1556 L -122.4215 407.1648 L -122.6110 407.1315 Z"/>
<path fill="black" stroke="none" fill-rule="evenodd" d="M -121.1177 407.4440 L -120.8993 407.5264 L -120.5501 407.6069 L -121.1177 407.4440 Z"/>
<path fill="black" stroke="none" fill-rule="evenodd" d="M -116.8703 407.8887 L -113.9247 407.6258 L -113.3779 407.4304 L -113.0511 407.3726 L -114.3182 407.3207 L -116.8703 407.8887 Z"/>
<path fill="black" stroke="none" fill-rule="evenodd" d="M -114.9658 407.9979 L -113.3782 407.5770 L -113.9247 407.6258 L -114.9658 407.9979 Z"/>
<path fill="black" stroke="none" fill-rule="evenodd" d="M -113.3782 407.5770 L -111.7059 407.4278 L -112.6665 407.3884 L -113.3782 407.5770 Z"/>
<path fill="black" stroke="none" fill-rule="evenodd" d="M -113.3446 447.3942 L -110.7323 447.5013 L -108.1802 446.9333 L -113.3446 447.3942 Z"/>
<path fill="black" stroke="none" fill-rule="evenodd" d="M -113.0511 407.3726 L -112.6665 407.3884 L -111.8276 407.1660 L -108.2654 406.8700 L -110.1124 406.8531 L -111.7701 407.1462 L -113.0511 407.3726 Z"/>
<path fill="black" stroke="none" fill-rule="evenodd" d="M -108.6733 406.5339 L -107.1894 405.9170 L -104.6331 405.1651 L -105.9444 405.4570 L -107.1807 405.9126 L -107.2050 405.9216 L -107.2050 405.9216 L -107.2050 405.9216 L -107.2050 405.9216 L -107.9319 406.1895 L -108.6733 406.5339 Z"/>
<path fill="black" stroke="none" fill-rule="evenodd" d="M -108.6331 446.8684 L -106.7860 446.8853 L -104.9671 446.5637 L -108.6331 446.8684 Z"/>
<path fill="black" stroke="none" fill-rule="evenodd" d="M -104.7532 446.5259 L -103.0927 446.2323 L -101.5049 445.6649 L -104.7532 446.5259 Z"/>
<path fill="black" stroke="none" fill-rule="evenodd" d="M -95.9430 444.2097 L -94.6317 443.9179 L -93.3711 443.4532 L -95.9430 444.2097 Z"/>
<path fill="black" stroke="none" fill-rule="evenodd" d="M -95.0000 -3.0500 L -95.0000 2.9500 L -91.7506 2.9500 L -91.7506 4.7347 L -86.4552 4.7347 L -86.4552 7.6457 L -81.1414 7.6457 L -81.1414 10.5703 L -75.8094 10.5703 L -75.8094 13.5084 L -70.4594 13.5084 L -70.4594 16.4598 L -64.1425 16.4598 L -64.1425 19.9489 L -57.8014 19.9489 L -57.8014 23.4563 L -51.4365 23.4563 L -51.4365 26.9816 L -45.0480 26.9816 L -45.0480 30.5247 L -38.6363 30.5247 L -38.6363 34.0856 L -32.2017 34.0856 L -32.2017 37.6639 L -25.7447 37.6639 L -25.7447 41.2596 L -20.0000 41.2596 L -20.0000 139.0189 L 20.0000 139.0189 L 20.0000 41.2596 L 25.7447 41.2596 L 25.7447 37.6639 L 32.2017 37.6639 L 32.2017 34.0856 L 38.6363 34.0856 L 38.6363 30.5247 L 45.0480 30.5247 L 45.0480 26.9816 L 51.4365 26.9816 L 51.4365 23.4563 L 57.8014 23.4563 L 57.8014 19.9489 L 64.1425 19.9489 L 64.1425 16.4598 L 70.4594 16.4598 L 70.4594 13.5084 L 75.8094 13.5084 L 75.8094 10.5703 L 81.1414 10.5703 L 81.1414 7.6457 L 86.4552 7.6457 L 86.4552 4.7347 L 91.7506 4.7347 L 91.7506 2.9500 L 95.0000 2.9500 L 95.0000 -3.0500 L -95.0000 -3.0500 Z"/>
<path fill="black" stroke="none" fill-rule="evenodd" d="M -93.3310 443.4384 L -92.5639 443.1557 L -91.8225 442.8113 L -93.3310 443.4384 Z"/>
<path fill="black" stroke="none" fill-rule="evenodd" d="M -20.0000 139.8760 L -20.0000 142.7729 L 20.0000 142.7729 L 20.0000 139.8760 L -20.0000 139.8760 Z"/>
<path fill="black" stroke="none" fill-rule="evenodd" d="M -20.0000 168.1729 L -20.0000 170.4717 L 20.0000 170.4717 L 20.0000 168.1729 L -20.0000 168.1729 Z"/>
<path fill="black" stroke="none" fill-rule="evenodd" d="M -20.0000 192.8801 L -20.0000 194.6604 L 20.0000 194.6604 L 20.0000 192.8801 L -20.0000 192.8801 Z"/>
<path fill="black" stroke="none" fill-rule="evenodd" d="M -20.0000 219.7064 L -20.0000 221.0375 L 20.0000 221.0375 L 20.0000 219.7064 L -20.0000 219.7064 Z"/>
<path fill="black" stroke="none" fill-rule="evenodd" d="M -20.0000 243.0040 L -20.0000 244.0040 L 20.0000 244.0040 L 20.0000 243.0040 L -20.0000 243.0040 Z"/>
<path fill="black" stroke="none" fill-rule="evenodd" d="M -20.0000 268.1559 L -20.0000 269.3572 L 20.0000 269.3572 L 20.0000 268.1559 L -20.0000 268.1559 Z"/>
<path fill="black" stroke="none" fill-rule="evenodd" d="M -20.0000 270.2372 L -20.0000 271.2372 L 20.0000 271.2372 L 20.0000 270.2372 L -20.0000 270.2372 Z"/>
<path fill="black" stroke="none" fill-rule="evenodd" d="M -20.0000 293.9050 L -20.0000 294.9050 L 20.0000 294.9050 L 20.0000 293.9050 L -20.0000 293.9050 Z"/>
<path fill="black" stroke="none" fill-rule="evenodd" d="M -20.0000 317.9678 L -20.0000 318.9678 L 20.0000 318.9678 L 20.0000 317.9678 L -20.0000 317.9678 Z"/>
<path fill="black" stroke="none" fill-rule="evenodd" d="M -20.0000 319.7943 L -20.0000 320.7943 L 20.0000 320.7943 L 20.0000 319.7943 L -20.0000 319.7943 Z"/>
<path fill="black" stroke="none" fill-rule="evenodd" d="M -20.0000 342.0830 L -20.0000 343.0830 L 20.0000 343.0830 L 20.0000 342.0830 L -20.0000 342.0830 Z"/>
<path fill="black" stroke="none" fill-rule="evenodd" d="M -20.0000 364.7911 L -20.0000 365.7911 L 20.0000 365.7911 L 20.0000 364.7911 L -20.0000 364.7911 Z"/>
<path fill="black" stroke="none" fill-rule="evenodd" d="M -20.0000 366.5765 L -20.0000 367.9483 L 20.0000 367.9483 L 20.0000 366.5765 L -20.0000 366.5765 Z"/>
<path fill="black" stroke="none" fill-rule="evenodd" d="M -20.0000 388.1149 L -20.0000 389.1149 L 20.0000 389.1149 L 20.0000 388.1149 L -20.0000 388.1149 Z"/>
<path fill="black" stroke="none" fill-rule="evenodd" d="M -20.0000 391.3447 L -20.0000 412.3053 L 19.4885 412.3053 L -0.4552 431.8001 L 20.0000 432.2658 L 20.0000 410.9307 L -19.1053 410.9307 L 0.4552 391.8104 L -20.0000 391.3447 Z"/>
  
</svg>