<svg xmlns="http://www.w3.org/2000/svg" width="252.0000" height="483.0000" viewBox="-10.0000 -13.0000 252.0000 483.0000">
  <g id="background-glyph" fill="#e0e0e0" stroke="#4169e1" stroke-width="1.0000" opacity="1.0000" transform="matrix(1.0000 0 0 1.0000 0 0)">
  <path transform="matrix(1.0000 0 0 1.0000 -723.6510 -447.8750)" d="M955.526,454.125L955.526,447.875L763.026,447.875L763.026,454.125C773.859,455.375 784.38,457.25 794.589,459.75C804.797,462.25 812.818,467.042 818.651,474.125C821.151,477.042 822.922,481.208 823.964,486.625C825.005,492.042 825.839,498.188 826.464,505.063C827.089,511.938 827.401,519.125 827.401,526.625L827.401,744.125C827.401,755.792 827.297,766.625 827.089,776.625C826.88,786.625 826.776,794.542 826.776,800.375C826.359,812.042 825.63,823.708 824.589,835.375C823.547,847.042 821.776,857.458 819.276,866.625C816.359,876.208 811.672,884.333 805.214,891C798.755,897.667 790.318,901 779.901,901C776.568,901 773.026,900.271 769.276,898.813C765.526,897.354 762.609,895.167 760.526,892.25L760.526,890.375C769.276,889.125 776.568,886.313 782.401,881.938C788.234,877.563 791.151,870.583 791.151,861C791.151,852.667 788.13,845.479 782.089,839.438C776.047,833.396 768.859,830.375 760.526,830.375C750.943,830.375 742.401,833.5 734.901,839.75C727.401,846 723.651,854.125 723.651,864.125C723.651,872.042 725.214,878.813 728.339,884.438C731.464,890.063 735.63,894.438 740.839,897.563C746.047,900.688 751.88,903.083 758.339,904.75C764.797,906.417 771.359,907.25 778.026,907.25C790.109,907.25 803.339,904.958 817.714,900.375C832.089,895.792 845.943,888.292 859.276,877.875C870.109,869.542 878.859,860.479 885.526,850.688C892.193,840.896 895.526,829.125 895.526,815.375L895.526,600.375C895.526,589.958 895.63,579.646 895.839,569.438C896.047,559.229 896.151,548.917 896.151,538.5C896.568,528.917 896.984,518.604 897.401,507.563C897.818,496.521 899.693,487.667 903.026,481C908.443,471 916.359,464.333 926.776,461C937.193,457.667 946.776,455.375 955.526,454.125Z"/>
</g>
  <path fill="black" stroke="none" fill-rule="evenodd" d="M 48.0000 0 L 48.0000 1.9947 L 48.0000 3.9894 L 48.0000 5.9840 L 48.0000 7.9787 L 48.0000 9.9734 L 48.0000 11.9681 L 48.0000 13.9628 L 48.0000 15.9574 L 48.0000 17.9521 L 48.0000 19.9468 L 48.0000 21.9415 L 48.0000 23.9362 L 48.0000 25.9309 L 48.3965 27.9255 L 49.4963 29.9202 L 50.5960 31.9149 L 51.6958 33.9096 L 52.7955 35.9043 L 53.8953 37.8989 L 54.9950 39.8936 L 56.0948 41.8883 L 57.1945 43.8830 L 58.2943 45.8777 L 59.3940 47.8723 L 60.4938 49.8670 L 61.5935 51.8617 L 62.6933 53.8564 L 63.7930 55.8511 L 64.8928 57.8457 L 65.9925 59.8404 L 67.0923 61.8351 L 68.1920 63.8298 L 69.2918 65.8245 L 70.3915 67.8191 L 71.4913 69.8138 L 72.5910 71.8085 L 73.6908 73.8032 L 74.7905 75.7979 L 75.8903 77.7926 L 76.9900 79.7872 L 78.0898 81.7819 L 79.1895 83.7766 L 80.2893 85.7713 L 81.3890 87.7660 L 82.4888 89.7606 L 83.5885 91.7553 L 84.6883 93.7500 L 85.7880 95.7447 L 86.8878 97.7394 L 87.9875 99.7340 L 89.0873 101.7287 L 90.1870 103.7234 L 91.2868 105.7181 L 92.3865 107.7128 L 93.0902 109.7074 L 93.2941 111.7021 L 93.4980 113.6968 L 93.7019 115.6915 L 93.9058 117.6862 L 94.1097 119.6809 L 94.3136 121.6755 L 94.5175 123.6702 L 94.7215 125.6649 L 94.9254 127.6596 L 95.1293 129.6543 L 95.3332 131.6489 L 95.5371 133.6436 L 95.7410 135.6383 L 95.9449 137.6330 L 96.1488 139.6277 L 96.3528 141.6223 L 96.5567 143.6170 L 96.7606 145.6117 L 96.9645 147.6064 L 97.1684 149.6011 L 97.3723 151.5957 L 97.5762 153.5904 L 97.7801 155.5851 L 97.9841 157.5798 L 98.1880 159.5745 L 98.3919 161.5691 L 98.5958 163.5638 L 98.7997 165.5585 L 99.0036 167.5532 L 99.2075 169.5479 L 99.4114 171.5426 L 99.6153 173.5372 L 99.8193 175.5319 L 100.0232 177.5266 L 100.2271 179.5213 L 100.4310 181.5160 L 100.6349 183.5106 L 100.8388 185.5053 L 101.0427 187.5000 L 101.2466 189.4947 L 101.4506 191.4894 L 101.6545 193.4840 L 101.8584 195.4787 L 102.0623 197.4734 L 102.2662 199.4681 L 102.4701 201.4628 L 102.6740 203.4574 L 102.8779 205.4521 L 103.0819 207.4468 L 103.2858 209.4415 L 103.4897 211.4362 L 103.6936 213.4309 L 103.8975 215.4255 L 104.1014 217.4202 L 104.3053 219.4149 L 104.5092 221.4096 L 104.7131 223.4043 L 104.9171 225.3989 L 105.1210 227.3936 L 105.3249 229.3883 L 105.5288 231.3830 L 105.7327 233.3777 L 105.9366 235.3723 L 106.1405 237.3670 L 106.3444 239.3617 L 106.5484 241.3564 L 106.7523 243.3511 L 106.9562 245.3457 L 107.1601 247.3404 L 107.3640 249.3351 L 107.5679 251.3298 L 107.7718 253.3245 L 107.9757 255.3191 L 108.1797 257.3138 L 108.3836 259.3085 L 108.5875 261.3032 L 108.7914 263.2979 L 108.9953 265.2926 L 109.1992 267.2872 L 109.4031 269.2819 L 109.6070 271.2766 L 109.8109 273.2713 L 110.0149 275.2660 L 110.2188 277.2606 L 110.4227 279.2553 L 110.6266 281.2500 L 110.8305 283.2447 L 111.0344 285.2394 L 111.2383 287.2340 L 111.4422 289.2287 L 111.6462 291.2234 L 111.8501 293.2181 L 112.0540 295.2128 L 112.2579 297.2074 L 112.4618 299.2021 L 112.6657 301.1968 L 112.8696 303.1915 L 113.0735 305.1862 L 113.2775 307.1809 L 113.4814 309.1755 L 113.6853 311.1702 L 113.8892 313.1649 L 114.0931 315.1596 L 114.2970 317.1543 L 114.5009 319.1489 L 114.7048 321.1436 L 114.9087 323.1383 L 115.1127 325.1330 L 115.3166 327.1277 L 115.5205 329.1223 L 115.7244 331.1170 L 115.9283 333.1117 L 116.1322 335.1064 L 116.3361 337.1011 L 116.5400 339.0957 L 116.7440 341.0904 L 116.9479 343.0851 L 117.1518 345.0798 L 117.3557 347.0745 L 117.5596 349.0691 L 117.7635 351.0638 L 117.9674 353.0585 L 118.1713 355.0532 L 118.3753 357.0479 L 118.5792 359.0426 L 118.7831 361.0372 L 118.9870 363.0319 L 119.1909 365.0266 L 119.3948 367.0213 L 119.5987 369.0160 L 119.8026 371.0106 L 120.0066 373.0053 L 120.0097 370.0365 L 120.0129 370.0677 L 120.0193 370.1300 L 120.0320 370.2547 L 120.0575 370.5040 L 120.1085 371.0027 L 120.2105 372.0000 L 120.2121 373.7820 L 120.2138 375.5639 L 120.2155 377.3459 L 120.2171 379.1279 L 120.2188 380.9098 L 120.2205 382.6918 L 120.2222 384.4738 L 120.2238 386.2557 L 120.2243 388.0377 L 120.2248 389.8196 L 120.2253 391.6016 L 120.2258 393.3836 L 119.8665 395.0872 L 119.4728 396.7833 L 119.0790 398.4795 L 118.6852 400.1756 L 118.2651 401.9848 L 117.8449 403.7940 L 117.4248 405.6032 L 117.0046 407.4124 L 116.5845 409.2216 L 116.1644 411.0309 L 115.4223 412.6858 L 114.5910 414.2980 L 113.7597 415.9102 L 112.9283 417.5224 L 112.0970 419.1345 L 111.2656 420.7467 L 110.4343 422.3589 L 109.6030 423.9711 L 108.7716 425.5832 L 107.6561 426.9641 L 106.4802 428.2957 L 105.3042 429.6273 L 104.1283 430.9590 L 102.9523 432.2906 L 101.7764 433.6222 L 100.6004 434.9538 L 99.4245 436.2855 L 98.1471 437.4877 L 96.7206 438.4996 L 95.2941 439.5115 L 93.8676 440.5235 L 92.4412 441.5354 L 91.0147 442.5473 L 89.5882 443.5592 L 88.1607 444.5711 L 86.6837 445.4839 L 85.0947 446.1725 L 83.5057 446.8611 L 81.9166 447.5497 L 80.3276 448.2383 L 78.7386 448.9269 L 77.1495 449.6155 L 75.5605 450.3041 L 73.9161 450.7692 L 72.2118 450.9924 L 70.5074 451.2156 L 68.8030 451.4387 L 67.0987 451.6619 L 65.3943 451.8851 L 61.5300 452.3633 L 57.6657 452.8415 L 53.8015 453.3197 L 49.9372 453.7979 L 48.9917 453.6055 L 48.7553 453.5574 L 59.2505 453.5454 L 59.1851 453.5334 L 59.0543 453.5093 L 58.5311 453.4131 L 56.4384 453.0284 L 52.2688 452.0190 L 48.0993 451.0096 L 43.9297 450.0003 L 39.7602 448.9909 L 35.9377 447.2963 L 32.5744 444.6950 L 29.7489 441.6965 L 27.9905 437.9098 L 27.6897 435.9602 L 27.6146 435.4728 L 27.5958 435.3509 L 27.5864 441.2900 L 27.5770 441.2291 L 27.5394 440.9854 L 27.3890 440.0106 L 27.9844 435.9948 L 29.2726 432.2847 L 31.4990 428.9883 L 33.7254 425.6920 L 36.3965 422.8246 L 39.4012 420.2790 L 42.4058 417.7333 L 45.4105 415.1876 L 48.6113 412.9356 L 51.9890 410.9485 L 55.3668 408.9614 L 58.7445 406.9742 L 62.1223 404.9871 L 65.5000 403.0000 L 65.5000 397.0000 L 64.5000 397.0000 L 60.7186 398.9871 L 56.9373 400.9742 L 53.1559 402.9614 L 49.3746 404.9485 L 45.5932 406.9356 L 41.9888 409.1876 L 38.5806 411.7333 L 35.1723 414.2790 L 31.7640 416.8246 L 28.6893 419.6920 L 26.0593 422.9883 L 23.4293 426.2847 L 21.7375 429.9948 L 20.7385 434.0106 L 20.7879 434.9854 L 20.8003 435.2291 L 20.8034 435.2900 L 20.8065 441.3509 L 20.8127 441.4728 L 20.8374 441.9602 L 20.9363 443.9098 L 22.2912 447.6965 L 24.7130 450.6950 L 27.6727 453.2963 L 31.0916 454.9909 L 34.8575 456.0003 L 38.6235 457.0096 L 42.3894 458.0190 L 46.1554 459.0284 L 48.0463 459.4131 L 48.5190 459.5093 L 48.6372 459.5334 L 48.6963 459.5454 L 59.3159 459.5574 L 59.5774 459.6055 L 60.6238 459.7979 L 64.8917 459.3197 L 69.1596 458.8415 L 73.4275 458.3633 L 77.6954 457.8851 L 79.7861 457.6619 L 81.8767 457.4387 L 83.9674 457.2156 L 86.0581 456.9924 L 88.1487 456.7692 L 90.1794 456.3041 L 92.1548 455.6155 L 94.1301 454.9269 L 96.1054 454.2383 L 98.0808 453.5497 L 100.0561 452.8611 L 102.0315 452.1725 L 104.0068 451.4839 L 105.8701 450.5711 L 107.6839 449.5592 L 109.4986 448.5473 L 111.3133 447.5354 L 113.1281 446.5235 L 114.9428 445.5115 L 116.7575 444.4996 L 118.5723 443.4877 L 120.2379 442.2855 L 121.8021 440.9538 L 123.3663 439.6222 L 124.9305 438.2906 L 126.4947 436.9590 L 128.0589 435.6273 L 129.6231 434.2957 L 131.1873 432.9641 L 132.6910 431.5832 L 133.9103 429.9711 L 135.1296 428.3589 L 136.3488 426.7467 L 137.5681 425.1345 L 138.7873 423.5224 L 140.0066 421.9102 L 141.2259 420.2980 L 142.4451 418.6858 L 143.5751 417.0309 L 144.3831 415.2216 L 145.1912 413.4124 L 145.9993 411.6032 L 146.8073 409.7940 L 147.6154 407.9848 L 148.4234 406.1756 L 149.1811 404.4795 L 149.9388 402.7833 L 150.6964 401.0872 L 151.4196 399.3836 L 151.7830 397.6016 L 152.1464 395.8196 L 152.5098 394.0377 L 152.8732 392.2557 L 153.2377 390.4738 L 153.6023 388.6918 L 153.9668 386.9098 L 154.3314 385.1279 L 154.6959 383.3459 L 155.0604 381.5639 L 155.4250 379.7820 L 155.7895 378.0000 L 155.8915 377.0027 L 155.9425 376.5040 L 155.9680 376.2547 L 155.9807 376.1300 L 155.9871 376.0677 L 155.9903 376.0365 L 155.9934 373.0053 L 156.1974 371.0106 L 156.4013 369.0160 L 156.6052 367.0213 L 156.8091 365.0266 L 157.0130 363.0319 L 157.2169 361.0372 L 157.4208 359.0426 L 157.6247 357.0479 L 157.8287 355.0532 L 158.0326 353.0585 L 158.2365 351.0638 L 158.4404 349.0691 L 158.6443 347.0745 L 158.8482 345.0798 L 159.0521 343.0851 L 159.2560 341.0904 L 159.4600 339.0957 L 159.6639 337.1011 L 159.8678 335.1064 L 160.0717 333.1117 L 160.2756 331.1170 L 160.4795 329.1223 L 160.6834 327.1277 L 160.8873 325.1330 L 161.0913 323.1383 L 161.2952 321.1436 L 161.4991 319.1489 L 161.7030 317.1543 L 161.9069 315.1596 L 162.1108 313.1649 L 162.3147 311.1702 L 162.5186 309.1755 L 162.7225 307.1809 L 162.9265 305.1862 L 163.1304 303.1915 L 163.3343 301.1968 L 163.5382 299.2021 L 163.7421 297.2074 L 163.9460 295.2128 L 164.1499 293.2181 L 164.3538 291.2234 L 164.5578 289.2287 L 164.7617 287.2340 L 164.9656 285.2394 L 165.1695 283.2447 L 165.3734 281.2500 L 165.5773 279.2553 L 165.7812 277.2606 L 165.9851 275.2660 L 166.1891 273.2713 L 166.3930 271.2766 L 166.5969 269.2819 L 166.8008 267.2872 L 167.0047 265.2926 L 167.2086 263.2979 L 167.4125 261.3032 L 167.6164 259.3085 L 167.8203 257.3138 L 168.0243 255.3191 L 168.2282 253.3245 L 168.4321 251.3298 L 168.6360 249.3351 L 168.8399 247.3404 L 169.0438 245.3457 L 169.2477 243.3511 L 169.4516 241.3564 L 169.6556 239.3617 L 169.8595 237.3670 L 170.0634 235.3723 L 170.2673 233.3777 L 170.4712 231.3830 L 170.6751 229.3883 L 170.8790 227.3936 L 171.0829 225.3989 L 171.2869 223.4043 L 171.4908 221.4096 L 171.6947 219.4149 L 171.8986 217.4202 L 172.1025 215.4255 L 172.3064 213.4309 L 172.5103 211.4362 L 172.7142 209.4415 L 172.9181 207.4468 L 173.1221 205.4521 L 173.3260 203.4574 L 173.5299 201.4628 L 173.7338 199.4681 L 173.9377 197.4734 L 174.1416 195.4787 L 174.3455 193.4840 L 174.5494 191.4894 L 174.7534 189.4947 L 174.9573 187.5000 L 175.1612 185.5053 L 175.3651 183.5106 L 175.5690 181.5160 L 175.7729 179.5213 L 175.9768 177.5266 L 176.1807 175.5319 L 176.3847 173.5372 L 176.5886 171.5426 L 176.7925 169.5479 L 176.9964 167.5532 L 177.2003 165.5585 L 177.4042 163.5638 L 177.6081 161.5691 L 177.8120 159.5745 L 178.0159 157.5798 L 178.2199 155.5851 L 178.4238 153.5904 L 178.6277 151.5957 L 178.8316 149.6011 L 179.0355 147.6064 L 179.2394 145.6117 L 179.4433 143.6170 L 179.6472 141.6223 L 179.8512 139.6277 L 180.0551 137.6330 L 180.2590 135.6383 L 180.4629 133.6436 L 180.6668 131.6489 L 180.8707 129.6543 L 181.0746 127.6596 L 181.2785 125.6649 L 181.4825 123.6702 L 181.6864 121.6755 L 181.8903 119.6809 L 182.0942 117.6862 L 182.2981 115.6915 L 182.5020 113.6968 L 182.7059 111.7021 L 182.9098 109.7074 L 183.6135 107.7128 L 184.7132 105.7181 L 185.8130 103.7234 L 186.9127 101.7287 L 188.0125 99.7340 L 189.1122 97.7394 L 190.2120 95.7447 L 191.3117 93.7500 L 192.4115 91.7553 L 193.5112 89.7606 L 194.6110 87.7660 L 195.7107 85.7713 L 196.8105 83.7766 L 197.9102 81.7819 L 199.0100 79.7872 L 200.1097 77.7926 L 201.2095 75.7979 L 202.3092 73.8032 L 203.4090 71.8085 L 204.5087 69.8138 L 205.6085 67.8191 L 206.7082 65.8245 L 207.8080 63.8298 L 208.9077 61.8351 L 210.0075 59.8404 L 211.1072 57.8457 L 212.2070 55.8511 L 213.3067 53.8564 L 214.4065 51.8617 L 215.5062 49.8670 L 216.6060 47.8723 L 217.7057 45.8777 L 218.8055 43.8830 L 219.9052 41.8883 L 221.0050 39.8936 L 222.1047 37.8989 L 223.2045 35.9043 L 224.3042 33.9096 L 225.4040 31.9149 L 226.5037 29.9202 L 227.6035 27.9255 L 228.0000 25.9309 L 228.0000 23.9362 L 228.0000 21.9415 L 228.0000 19.9468 L 228.0000 17.9521 L 228.0000 15.9574 L 228.0000 13.9628 L 228.0000 11.9681 L 228.0000 9.9734 L 228.0000 7.9787 L 228.0000 5.9840 L 228.0000 3.9894 L 228.0000 1.9947 L 228.0000 0 L 228.0000 -3.0000 L 48.0000 -3.0000 L 48.0000 0 Z"/>
<path fill="black" stroke="none" fill-rule="evenodd" d="M 120.0066 370.0053 L 155.9934 370.0053 L 155.9934 376.0053 L 155.7895 378.0000 L 120.2105 378.0000 L 120.0066 376.0053 L 120.0066 370.0053 Z"/>
</svg>