<svg xmlns="http://www.w3.org/2000/svg" width="252.0000" height="483.0000" viewBox="-10.0000 -13.0000 252.0000 483.0000">
  <g id="background-glyph" fill="#e0e0e0" stroke="#4169e1" stroke-width="1.0000" opacity="1.0000" transform="matrix(1.0000 0 0 1.0000 0 0)">
  <path transform="matrix(1.0000 0 0 1.0000 -723.6510 -447.8750)" d="M955.526,454.125L955.526,447.875L763.026,447.875L763.026,454.125C773.859,455.375 784.38,457.25 794.589,459.75C804.797,462.25 812.818,467.042 818.651,474.125C821.151,477.042 822.922,481.208 823.964,486.625C825.005,492.042 825.839,498.188 826.464,505.063C827.089,511.938 827.401,519.125 827.401,526.625L827.401,744.125C827.401,755.792 827.297,766.625 827.089,776.625C826.88,786.625 826.776,794.542 826.776,800.375C826.359,812.042 825.63,823.708 824.589,835.375C823.547,847.042 821.776,857.458 819.276,866.625C816.359,876.208 811.672,884.333 805.214,891C798.755,897.667 790.318,901 779.901,901C776.568,901 773.026,900.271 769.276,898.813C765.526,897.354 762.609,895.167 760.526,892.25L760.526,890.375C769.276,889.125 776.568,886.313 782.401,881.938C788.234,877.563 791.151,870.583 791.151,861C791.151,852.667 788.13,845.479 782.089,839.438C776.047,833.396 768.859,830.375 760.526,830.375C750.943,830.375 742.401,833.5 734.901,839.75C727.401,846 723.651,854.125 723.651,864.125C723.651,872.042 725.214,878.813 728.339,884.438C731.464,890.063 735.63,894.438 740.839,897.563C746.047,900.688 751.88,903.083 758.339,904.75C764.797,906.417 771.359,907.25 778.026,907.25C790.109,907.25 803.339,904.958 817.714,900.375C832.089,895.792 845.943,888.292 859.276,877.875C870.109,869.542 878.859,860.479 885.526,850.688C892.193,840.896 895.526,829.125 895.526,815.375L895.526,600.375C895.526,589.958 895.63,579.646 895.839,569.438C896.047,559.229 896.151,548.917 896.151,538.5C896.568,528.917 896.984,518.604 897.401,507.563C897.818,496.521 899.693,487.667 903.026,481C908.443,471 916.359,464.333 926.776,461C937.193,457.667 946.776,455.375 955.526,454.125Z"/>
</g>
  <path fill="black" stroke="none" fill-rule="evenodd" d="M 48.0000 0 L 48.0000 1.9947 L 48.0000 3.9894 L 48.0000 5.9840 L 48.0000 7.9787 L 48.0000 9.9734 L 48.0000 11.9681 L 48.0000 13.9628 L 48.0000 15.9574 L 48.0000 17.9521 L 48.0000 19.9468 L 48.0000 21.9415 L 48.0000 23.9362 L 48.0000 25.9309 L 48.3499 27.9255 L 49.3202 29.9202 L 50.2906 31.9149 L 51.2610 33.9096 L 52.2313 35.9043 L 53.2017 37.8989 L 54.1721 39.8936 L 55.1424 41.8883 L 56.1128 43.8830 L 57.0832 45.8777 L 58.0535 47.8723 L 59.0239 49.8670 L 59.9943 51.8617 L 60.9646 53.8564 L 61.9350 55.8511 L 62.9054 57.8457 L 63.8757 59.8404 L 64.8461 61.8351 L 65.8165 63.8298 L 66.7868 65.8245 L 67.7572 67.8191 L 68.7276 69.8138 L 69.6980 71.8085 L 70.6683 73.8032 L 71.6387 75.7979 L 72.6091 77.7926 L 73.5794 79.7872 L 74.5498 81.7819 L 75.5202 83.7766 L 76.4905 85.7713 L 77.4609 87.7660 L 78.4313 89.7606 L 79.4016 91.7553 L 80.3720 93.7500 L 81.3424 95.7447 L 82.3127 97.7394 L 83.2831 99.7340 L 84.2535 101.7287 L 85.2238 103.7234 L 86.1942 105.7181 L 87.1646 107.7128 L 88.1349 109.7074 L 89.1053 111.7021 L 90.0757 113.6968 L 91.0460 115.6915 L 92.0164 117.6862 L 92.9868 119.6809 L 93.2063 121.6755 L 93.4154 123.6702 L 93.6246 125.6649 L 93.8337 127.6596 L 94.0429 129.6543 L 94.2520 131.6489 L 94.4611 133.6436 L 94.6703 135.6383 L 94.8794 137.6330 L 95.0886 139.6277 L 95.2977 141.6223 L 95.5068 143.6170 L 95.7160 145.6117 L 95.9251 147.6064 L 96.1343 149.6011 L 96.3434 151.5957 L 96.5525 153.5904 L 96.7617 155.5851 L 96.9708 157.5798 L 97.1800 159.5745 L 97.3891 161.5691 L 97.5982 163.5638 L 97.8074 165.5585 L 98.0165 167.5532 L 98.2257 169.5479 L 98.4348 171.5426 L 98.6439 173.5372 L 98.8531 175.5319 L 99.0622 177.5266 L 99.2714 179.5213 L 99.4805 181.5160 L 99.6896 183.5106 L 99.8988 185.5053 L 100.1079 187.5000 L 100.3171 189.4947 L 100.5262 191.4894 L 100.7354 193.4840 L 100.9445 195.4787 L 101.1536 197.4734 L 101.3628 199.4681 L 101.5719 201.4628 L 101.7811 203.4574 L 101.9902 205.4521 L 102.1993 207.4468 L 102.4085 209.4415 L 102.6176 211.4362 L 102.8268 213.4309 L 103.0359 215.4255 L 103.2450 217.4202 L 103.4542 219.4149 L 103.6633 221.4096 L 103.8725 223.4043 L 104.0816 225.3989 L 104.2907 227.3936 L 104.4999 229.3883 L 104.7090 231.3830 L 104.9182 233.3777 L 105.1273 235.3723 L 105.3364 237.3670 L 105.5456 239.3617 L 105.7547 241.3564 L 105.9639 243.3511 L 106.1730 245.3457 L 106.3821 247.3404 L 106.5913 249.3351 L 106.8004 251.3298 L 107.0096 253.3245 L 107.2187 255.3191 L 107.4278 257.3138 L 107.6370 259.3085 L 107.8461 261.3032 L 108.0553 263.2979 L 108.2644 265.2926 L 108.4736 267.2872 L 108.6827 269.2819 L 108.8918 271.2766 L 109.1010 273.2713 L 109.3101 275.2660 L 109.5193 277.2606 L 109.7284 279.2553 L 109.9375 281.2500 L 110.1467 283.2447 L 110.3558 285.2394 L 110.5650 287.2340 L 110.7741 289.2287 L 110.9832 291.2234 L 111.1924 293.2181 L 111.4015 295.2128 L 111.6107 297.2074 L 111.8198 299.2021 L 112.0289 301.1968 L 112.2381 303.1915 L 112.4472 305.1862 L 112.6564 307.1809 L 112.8655 309.1755 L 113.0746 311.1702 L 113.2838 313.1649 L 113.4929 315.1596 L 113.7021 317.1543 L 113.9112 319.1489 L 114.1203 321.1436 L 114.3295 323.1383 L 114.5386 325.1330 L 114.7478 327.1277 L 114.9569 329.1223 L 115.1660 331.1170 L 115.3752 333.1117 L 115.5843 335.1064 L 115.7935 337.1011 L 116.0026 339.0957 L 116.2118 341.0904 L 116.4209 343.0851 L 116.6300 345.0798 L 116.8392 347.0745 L 117.0483 349.0691 L 117.2575 351.0638 L 117.4666 353.0585 L 117.6757 355.0532 L 117.8849 357.0479 L 118.0940 359.0426 L 118.3032 361.0372 L 118.5123 363.0319 L 118.7214 365.0266 L 118.9306 367.0213 L 119.1397 369.0160 L 119.3489 371.0106 L 119.5580 373.0053 L 119.5613 370.0365 L 119.5645 370.0677 L 119.5711 370.1300 L 119.5841 370.2547 L 119.6103 370.5040 L 119.6626 371.0027 L 119.7671 372.0000 L 119.7735 373.7820 L 119.7799 375.5639 L 119.7862 377.3459 L 119.7926 379.1279 L 119.7990 380.9098 L 119.8053 382.6918 L 119.8117 384.4738 L 119.8181 386.2557 L 119.8232 388.0377 L 119.8284 389.8196 L 119.8336 391.6016 L 119.8387 393.3836 L 119.4841 395.0872 L 119.0950 396.7833 L 118.7059 398.4795 L 118.3168 400.1756 L 117.9016 401.9848 L 117.4864 403.7940 L 117.0713 405.6032 L 116.6561 407.4124 L 116.2409 409.2216 L 115.8258 411.0309 L 115.0887 412.6858 L 114.2623 414.2980 L 113.4360 415.9102 L 112.6096 417.5224 L 111.7832 419.1345 L 110.9569 420.7467 L 110.1305 422.3589 L 109.3041 423.9711 L 108.4778 425.5832 L 107.3673 426.9641 L 106.1963 428.2957 L 105.0253 429.6273 L 103.8543 430.9590 L 102.6834 432.2906 L 101.5124 433.6222 L 100.3414 434.9538 L 99.1704 436.2855 L 97.8981 437.4877 L 96.4765 438.4996 L 95.0550 439.5115 L 93.6335 440.5235 L 92.2120 441.5354 L 90.7905 442.5473 L 89.3690 443.5592 L 87.9465 444.5711 L 86.4745 445.4839 L 84.8904 446.1725 L 83.3063 446.8611 L 81.7222 447.5497 L 80.1381 448.2383 L 78.5541 448.9269 L 76.9700 449.6155 L 75.3859 450.3041 L 73.7465 450.7692 L 72.0471 450.9924 L 70.3477 451.2156 L 68.6482 451.4387 L 66.9488 451.6619 L 65.2494 451.8851 L 61.3903 452.3633 L 57.5312 452.8415 L 53.6721 453.3197 L 49.8130 453.7979 L 48.8688 453.6055 L 48.6328 453.5574 L 59.3729 453.5454 L 59.3075 453.5334 L 59.1765 453.5093 L 58.6527 453.4131 L 56.5574 453.0284 L 52.3827 452.0190 L 48.2079 451.0096 L 44.0332 450.0003 L 39.8585 448.9909 L 36.0308 447.2963 L 32.6623 444.6950 L 29.8317 441.6965 L 28.0681 437.9098 L 27.7648 435.9602 L 27.6889 435.4728 L 27.6700 435.3509 L 27.6605 441.2900 L 27.6510 441.2291 L 27.6131 440.9854 L 27.4614 440.0106 L 28.0517 435.9948 L 29.3347 432.2847 L 31.5560 428.9883 L 33.7772 425.6920 L 36.4431 422.8246 L 39.4426 420.2790 L 42.4420 417.7333 L 45.4415 415.1876 L 48.6371 412.9356 L 52.0097 410.9485 L 55.3823 408.9614 L 58.7549 406.9742 L 62.1274 404.9871 L 65.5000 403.0000 L 65.5000 397.0000 L 64.5000 397.0000 L 60.7135 398.9871 L 56.9269 400.9742 L 53.1404 402.9614 L 49.3539 404.9485 L 45.5673 406.9356 L 41.9578 409.1876 L 38.5443 411.7333 L 35.1309 414.2790 L 31.7175 416.8246 L 28.6376 419.6920 L 26.0024 422.9883 L 23.3672 426.2847 L 21.6702 429.9948 L 20.6660 434.0106 L 20.7142 434.9854 L 20.7262 435.2291 L 20.7292 435.2900 L 20.7323 441.3509 L 20.7383 441.4728 L 20.7624 441.9602 L 20.8587 443.9098 L 22.2084 447.6965 L 24.6250 450.6950 L 27.5796 453.2963 L 30.9933 454.9909 L 34.7540 456.0003 L 38.5148 457.0096 L 42.2756 458.0190 L 46.0364 459.0284 L 47.9247 459.4131 L 48.3967 459.5093 L 48.5148 459.5334 L 48.5738 459.5454 L 59.4384 459.5574 L 59.7003 459.6055 L 60.7480 459.7979 L 65.0211 459.3197 L 69.2941 458.8415 L 73.5672 458.3633 L 77.8403 457.8851 L 79.9359 457.6619 L 82.0315 457.4387 L 84.1271 457.2156 L 86.2228 456.9924 L 88.3184 456.7692 L 90.3540 456.3041 L 92.3343 455.6155 L 94.3146 454.9269 L 96.2949 454.2383 L 98.2752 453.5497 L 100.2555 452.8611 L 102.2358 452.1725 L 104.2161 451.4839 L 106.0843 450.5711 L 107.9031 449.5592 L 109.7228 448.5473 L 111.5425 447.5354 L 113.3622 446.5235 L 115.1819 445.5115 L 117.0016 444.4996 L 118.8213 443.4877 L 120.4919 442.2855 L 122.0611 440.9538 L 123.6303 439.6222 L 125.1994 438.2906 L 126.7686 436.9590 L 128.3378 435.6273 L 129.9070 434.2957 L 131.4762 432.9641 L 132.9849 431.5832 L 134.2091 429.9711 L 135.4333 428.3589 L 136.6576 426.7467 L 137.8818 425.1345 L 139.1060 423.5224 L 140.3303 421.9102 L 141.5545 420.2980 L 142.7788 418.6858 L 143.9137 417.0309 L 144.7267 415.2216 L 145.5397 413.4124 L 146.3528 411.6032 L 147.1658 409.7940 L 147.9788 407.9848 L 148.7919 406.1756 L 149.5542 404.4795 L 150.3165 402.7833 L 151.0789 401.0872 L 151.8067 399.3836 L 152.1748 397.6016 L 152.5428 395.8196 L 152.9109 394.0377 L 153.2789 392.2557 L 153.6482 390.4738 L 154.0174 388.6918 L 154.3867 386.9098 L 154.7559 385.1279 L 155.1251 383.3459 L 155.4944 381.5639 L 155.8636 379.7820 L 156.2329 378.0000 L 156.3374 377.0027 L 156.3897 376.5040 L 156.4159 376.2547 L 156.4289 376.1300 L 156.4355 376.0677 L 156.4387 376.0365 L 156.4420 373.0053 L 156.6511 371.0106 L 156.8603 369.0160 L 157.0694 367.0213 L 157.2786 365.0266 L 157.4877 363.0319 L 157.6968 361.0372 L 157.9060 359.0426 L 158.1151 357.0479 L 158.3243 355.0532 L 158.5334 353.0585 L 158.7425 351.0638 L 158.9517 349.0691 L 159.1608 347.0745 L 159.3700 345.0798 L 159.5791 343.0851 L 159.7882 341.0904 L 159.9974 339.0957 L 160.2065 337.1011 L 160.4157 335.1064 L 160.6248 333.1117 L 160.8340 331.1170 L 161.0431 329.1223 L 161.2522 327.1277 L 161.4614 325.1330 L 161.6705 323.1383 L 161.8797 321.1436 L 162.0888 319.1489 L 162.2979 317.1543 L 162.5071 315.1596 L 162.7162 313.1649 L 162.9254 311.1702 L 163.1345 309.1755 L 163.3436 307.1809 L 163.5528 305.1862 L 163.7619 303.1915 L 163.9711 301.1968 L 164.1802 299.2021 L 164.3893 297.2074 L 164.5985 295.2128 L 164.8076 293.2181 L 165.0168 291.2234 L 165.2259 289.2287 L 165.4350 287.2340 L 165.6442 285.2394 L 165.8533 283.2447 L 166.0625 281.2500 L 166.2716 279.2553 L 166.4807 277.2606 L 166.6899 275.2660 L 166.8990 273.2713 L 167.1082 271.2766 L 167.3173 269.2819 L 167.5264 267.2872 L 167.7356 265.2926 L 167.9447 263.2979 L 168.1539 261.3032 L 168.3630 259.3085 L 168.5722 257.3138 L 168.7813 255.3191 L 168.9904 253.3245 L 169.1996 251.3298 L 169.4087 249.3351 L 169.6179 247.3404 L 169.8270 245.3457 L 170.0361 243.3511 L 170.2453 241.3564 L 170.4544 239.3617 L 170.6636 237.3670 L 170.8727 235.3723 L 171.0818 233.3777 L 171.2910 231.3830 L 171.5001 229.3883 L 171.7093 227.3936 L 171.9184 225.3989 L 172.1275 223.4043 L 172.3367 221.4096 L 172.5458 219.4149 L 172.7550 217.4202 L 172.9641 215.4255 L 173.1732 213.4309 L 173.3824 211.4362 L 173.5915 209.4415 L 173.8007 207.4468 L 174.0098 205.4521 L 174.2189 203.4574 L 174.4281 201.4628 L 174.6372 199.4681 L 174.8464 197.4734 L 175.0555 195.4787 L 175.2646 193.4840 L 175.4738 191.4894 L 175.6829 189.4947 L 175.8921 187.5000 L 176.1012 185.5053 L 176.3104 183.5106 L 176.5195 181.5160 L 176.7286 179.5213 L 176.9378 177.5266 L 177.1469 175.5319 L 177.3561 173.5372 L 177.5652 171.5426 L 177.7743 169.5479 L 177.9835 167.5532 L 178.1926 165.5585 L 178.4018 163.5638 L 178.6109 161.5691 L 178.8200 159.5745 L 179.0292 157.5798 L 179.2383 155.5851 L 179.4475 153.5904 L 179.6566 151.5957 L 179.8657 149.6011 L 180.0749 147.6064 L 180.2840 145.6117 L 180.4932 143.6170 L 180.7023 141.6223 L 180.9114 139.6277 L 181.1206 137.6330 L 181.3297 135.6383 L 181.5389 133.6436 L 181.7480 131.6489 L 181.9571 129.6543 L 182.1663 127.6596 L 182.3754 125.6649 L 182.5846 123.6702 L 182.7937 121.6755 L 183.0132 119.6809 L 183.9836 117.6862 L 184.9540 115.6915 L 185.9243 113.6968 L 186.8947 111.7021 L 187.8651 109.7074 L 188.8354 107.7128 L 189.8058 105.7181 L 190.7762 103.7234 L 191.7465 101.7287 L 192.7169 99.7340 L 193.6873 97.7394 L 194.6576 95.7447 L 195.6280 93.7500 L 196.5984 91.7553 L 197.5687 89.7606 L 198.5391 87.7660 L 199.5095 85.7713 L 200.4798 83.7766 L 201.4502 81.7819 L 202.4206 79.7872 L 203.3909 77.7926 L 204.3613 75.7979 L 205.3317 73.8032 L 206.3020 71.8085 L 207.2724 69.8138 L 208.2428 67.8191 L 209.2132 65.8245 L 210.1835 63.8298 L 211.1539 61.8351 L 212.1243 59.8404 L 213.0946 57.8457 L 214.0650 55.8511 L 215.0354 53.8564 L 216.0057 51.8617 L 216.9761 49.8670 L 217.9465 47.8723 L 218.9168 45.8777 L 219.8872 43.8830 L 220.8576 41.8883 L 221.8279 39.8936 L 222.7983 37.8989 L 223.7687 35.9043 L 224.7390 33.9096 L 225.7094 31.9149 L 226.6798 29.9202 L 227.6501 27.9255 L 228.0000 25.9309 L 228.0000 23.9362 L 228.0000 21.9415 L 228.0000 19.9468 L 228.0000 17.9521 L 228.0000 15.9574 L 228.0000 13.9628 L 228.0000 11.9681 L 228.0000 9.9734 L 228.0000 7.9787 L 228.0000 5.9840 L 228.0000 3.9894 L 228.0000 1.9947 L 228.0000 0 L 228.0000 -3.0000 L 48.0000 -3.0000 L 48.0000 0 Z"/>
<path fill="black" stroke="none" fill-rule="evenodd" d="M 119.5580 370.0053 L 156.4420 370.0053 L 156.4420 376.0053 L 156.2329 378.0000 L 119.7671 378.0000 L 119.5580 376.0053 L 119.5580 370.0053 Z"/>
</svg>