<svg xmlns="http://www.w3.org/2000/svg" width="252.0000" height="483.0000" viewBox="-10.0000 -13.0000 252.0000 483.0000">
  <g id="background-glyph" fill="#e0e0e0" stroke="#4169e1" stroke-width="1.0000" opacity="1.0000" transform="matrix(1.0000 0 0 1.0000 0 0)">
  <path transform="matrix(1.0000 0 0 1.0000 -723.6510 -447.8750)" d="M955.526,454.125L955.526,447.875L763.026,447.875L763.026,454.125C773.859,455.375 784.38,457.25 794.589,459.75C804.797,462.25 812.818,467.042 818.651,474.125C821.151,477.042 822.922,481.208 823.964,486.625C825.005,492.042 825.839,498.188 826.464,505.063C827.089,511.938 827.401,519.125 827.401,526.625L827.401,744.125C827.401,755.792 827.297,766.625 827.089,776.625C826.88,786.625 826.776,794.542 826.776,800.375C826.359,812.042 825.63,823.708 824.589,835.375C823.547,847.042 821.776,857.458 819.276,866.625C816.359,876.208 811.672,884.333 805.214,891C798.755,897.667 790.318,901 779.901,901C776.568,901 773.026,900.271 769.276,898.813C765.526,897.354 762.609,895.167 760.526,892.25L760.526,890.375C769.276,889.125 776.568,886.313 782.401,881.938C788.234,877.563 791.151,870.583 791.151,861C791.151,852.667 788.13,845.479 782.089,839.438C776.047,833.396 768.859,830.375 760.526,830.375C750.943,830.375 742.401,833.5 734.901,839.75C727.401,846 723.651,854.125 723.651,864.125C723.651,872.042 725.214,878.813 728.339,884.438C731.464,890.063 735.63,894.438 740.839,897.563C746.047,900.688 751.88,903.083 758.339,904.75C764.797,906.417 771.359,907.25 778.026,907.25C790.109,907.25 803.339,904.958 817.714,900.375C832.089,895.792 845.943,888.292 859.276,877.875C870.109,869.542 878.859,860.479 885.526,850.688C892.193,840.896 895.526,829.125 895.526,815.375L895.526,600.375C895.526,589.958 895.63,579.646 895.839,569.438C896.047,559.229 896.151,548.917 896.151,538.5C896.568,528.917 896.984,518.604 897.401,507.563C897.818,496.521 899.693,487.667 903.026,481C908.443,471 916.359,464.333 926.776,461C937.193,457.667 946.776,455.375 955.526,454.125Z"/>
</g>
  <path fill="black" stroke="none" fill-rule="evenodd" d="M 48.0000 0 L 48.0000 1.9947 L 48.0000 3.9894 L 48.0000 5.9840 L 48.0000 7.9787 L 48.0000 9.9734 L 48.0000 11.9681 L 48.0000 13.9628 L 48.0000 15.9574 L 48.0000 17.9521 L 48.0000 19.9468 L 48.0000 21.9415 L 48.0000 23.9362 L 48.0000 25.9309 L 48.5689 27.9255 L 50.0706 29.9202 L 51.5723 31.9149 L 53.0739 33.9096 L 54.5756 35.9043 L 56.0773 37.8989 L 57.5790 39.8936 L 59.0806 41.8883 L 60.5823 43.8830 L 62.0840 45.8777 L 63.5857 47.8723 L 65.0874 49.8670 L 66.5890 51.8617 L 68.0907 53.8564 L 69.5924 55.8511 L 71.0941 57.8457 L 72.5957 59.8404 L 74.0974 61.8351 L 75.5991 63.8298 L 77.1008 65.8245 L 78.6024 67.8191 L 80.1041 69.8138 L 81.6058 71.8085 L 83.1075 73.8032 L 84.6091 75.7979 L 86.1108 77.7926 L 87.6125 79.7872 L 89.1142 81.7819 L 90.6158 83.7766 L 92.1175 85.7713 L 93.0802 87.7660 L 93.2746 89.7606 L 93.4691 91.7553 L 93.6636 93.7500 L 93.8580 95.7447 L 94.0525 97.7394 L 94.2470 99.7340 L 94.4414 101.7287 L 94.6359 103.7234 L 94.8304 105.7181 L 95.0248 107.7128 L 95.2193 109.7074 L 95.4137 111.7021 L 95.6082 113.6968 L 95.8027 115.6915 L 95.9971 117.6862 L 96.1916 119.6809 L 96.3861 121.6755 L 96.5805 123.6702 L 96.7750 125.6649 L 96.9694 127.6596 L 97.1639 129.6543 L 97.3584 131.6489 L 97.5528 133.6436 L 97.7473 135.6383 L 97.9418 137.6330 L 98.1362 139.6277 L 98.3307 141.6223 L 98.5251 143.6170 L 98.7196 145.6117 L 98.9141 147.6064 L 99.1085 149.6011 L 99.3030 151.5957 L 99.4975 153.5904 L 99.6919 155.5851 L 99.8864 157.5798 L 100.0809 159.5745 L 100.2753 161.5691 L 100.4698 163.5638 L 100.6642 165.5585 L 100.8587 167.5532 L 101.0532 169.5479 L 101.2476 171.5426 L 101.4421 173.5372 L 101.6366 175.5319 L 101.8310 177.5266 L 102.0255 179.5213 L 102.2199 181.5160 L 102.4144 183.5106 L 102.6089 185.5053 L 102.8033 187.5000 L 102.9978 189.4947 L 103.1923 191.4894 L 103.3867 193.4840 L 103.5812 195.4787 L 103.7757 197.4734 L 103.9701 199.4681 L 104.1646 201.4628 L 104.3590 203.4574 L 104.5535 205.4521 L 104.7480 207.4468 L 104.9424 209.4415 L 105.1369 211.4362 L 105.3314 213.4309 L 105.5258 215.4255 L 105.7203 217.4202 L 105.9147 219.4149 L 106.1092 221.4096 L 106.3037 223.4043 L 106.4981 225.3989 L 106.6926 227.3936 L 106.8871 229.3883 L 107.0815 231.3830 L 107.2760 233.3777 L 107.4704 235.3723 L 107.6649 237.3670 L 107.8594 239.3617 L 108.0538 241.3564 L 108.2483 243.3511 L 108.4428 245.3457 L 108.6372 247.3404 L 108.8317 249.3351 L 109.0262 251.3298 L 109.2206 253.3245 L 109.4151 255.3191 L 109.6095 257.3138 L 109.8040 259.3085 L 109.9985 261.3032 L 110.1929 263.2979 L 110.3874 265.2926 L 110.5819 267.2872 L 110.7763 269.2819 L 110.9708 271.2766 L 111.1652 273.2713 L 111.3597 275.2660 L 111.5542 277.2606 L 111.7486 279.2553 L 111.9431 281.2500 L 112.1376 283.2447 L 112.3320 285.2394 L 112.5265 287.2340 L 112.7210 289.2287 L 112.9154 291.2234 L 113.1099 293.2181 L 113.3043 295.2128 L 113.4988 297.2074 L 113.6933 299.2021 L 113.8877 301.1968 L 114.0822 303.1915 L 114.2767 305.1862 L 114.4711 307.1809 L 114.6656 309.1755 L 114.8600 311.1702 L 115.0545 313.1649 L 115.2490 315.1596 L 115.4434 317.1543 L 115.6379 319.1489 L 115.8324 321.1436 L 116.0268 323.1383 L 116.2213 325.1330 L 116.4158 327.1277 L 116.6102 329.1223 L 116.8047 331.1170 L 116.9991 333.1117 L 117.1936 335.1064 L 117.3881 337.1011 L 117.5825 339.0957 L 117.7770 341.0904 L 117.9715 343.0851 L 118.1659 345.0798 L 118.3604 347.0745 L 118.5548 349.0691 L 118.7493 351.0638 L 118.9438 353.0585 L 119.1382 355.0532 L 119.3327 357.0479 L 119.5272 359.0426 L 119.7216 361.0372 L 119.9161 363.0319 L 120.1105 365.0266 L 120.3050 367.0213 L 120.4995 369.0160 L 120.6939 371.0106 L 120.8884 373.0053 L 120.8914 370.0365 L 120.8945 370.0677 L 120.9006 370.1300 L 120.9127 370.2547 L 120.9370 370.5040 L 120.9856 371.0027 L 121.0829 372.0000 L 121.0719 373.9663 L 121.0610 375.9326 L 121.0500 377.8989 L 121.0391 379.8652 L 121.0281 381.8315 L 121.0172 383.7978 L 121.0062 385.7641 L 120.9953 387.7304 L 120.9843 389.6968 L 120.9734 391.6631 L 120.9425 393.6250 L 120.4965 395.4966 L 120.0504 397.3682 L 119.6044 399.2398 L 119.1584 401.1114 L 118.7124 402.9830 L 118.2664 404.8546 L 117.8203 406.7262 L 117.3743 408.5978 L 116.9283 410.4694 L 116.2738 412.2411 L 115.4024 413.9089 L 114.5310 415.5766 L 113.6596 417.2444 L 112.7882 418.9122 L 111.9168 420.5799 L 111.0454 422.2477 L 110.1740 423.9155 L 109.3026 425.5832 L 108.1782 426.9641 L 106.9932 428.2957 L 105.8083 429.6273 L 104.6233 430.9590 L 103.4384 432.2906 L 102.2534 433.6222 L 101.0685 434.9538 L 99.8835 436.2855 L 98.5972 437.4877 L 97.1617 438.4996 L 95.7262 439.5115 L 94.2907 440.5235 L 92.8552 441.5354 L 91.4198 442.5473 L 89.9843 443.5592 L 88.5479 444.5711 L 87.0619 445.4839 L 85.4639 446.1725 L 83.8660 446.8611 L 82.2680 447.5497 L 80.6700 448.2383 L 79.0720 448.9269 L 77.4740 449.6155 L 75.8760 450.3041 L 74.2227 450.7692 L 72.5094 450.9924 L 70.7961 451.2156 L 69.0828 451.4387 L 67.3695 451.6619 L 65.6562 451.8851 L 61.7825 452.3633 L 57.9089 452.8415 L 54.0352 453.3197 L 50.1616 453.7979 L 49.2138 453.6055 L 48.9769 453.5574 L 59.0291 453.5454 L 58.9638 453.5334 L 58.8333 453.5093 L 58.3113 453.4131 L 56.2233 453.0284 L 52.0631 452.0190 L 47.9029 451.0096 L 43.7427 450.0003 L 39.5825 448.9909 L 35.7693 447.2963 L 32.4154 444.6950 L 29.5993 441.6965 L 27.8502 437.9098 L 27.5541 435.9602 L 27.4801 435.4728 L 27.4616 435.3509 L 27.4524 441.2900 L 27.4431 441.2291 L 27.4061 440.9854 L 27.2581 440.0106 L 27.8629 435.9948 L 29.1604 432.2847 L 31.3962 428.9883 L 33.6319 425.6920 L 36.3124 422.8246 L 39.3264 420.2790 L 42.3404 417.7333 L 45.3544 415.1876 L 48.5645 412.9356 L 51.9516 410.9485 L 55.3387 408.9614 L 58.7258 406.9742 L 62.1129 404.9871 L 65.5000 403.0000 L 65.5000 397.0000 L 64.5000 397.0000 L 60.7280 398.9871 L 56.9560 400.9742 L 53.1840 402.9614 L 49.4120 404.9485 L 45.6400 406.9356 L 42.0449 409.1876 L 38.6460 411.7333 L 35.2471 414.2790 L 31.8482 416.8246 L 28.7828 419.6920 L 26.1622 422.9883 L 23.5415 426.2847 L 21.8591 429.9948 L 20.8694 434.0106 L 20.9212 434.9854 L 20.9341 435.2291 L 20.9374 435.2900 L 20.9406 441.3509 L 20.9471 441.4728 L 20.9730 441.9602 L 21.0766 443.9098 L 22.4408 447.6965 L 24.8720 450.6950 L 27.8410 453.2963 L 31.2693 454.9909 L 35.0446 456.0003 L 38.8199 457.0096 L 42.5952 458.0190 L 46.3704 459.0284 L 48.2660 459.4131 L 48.7399 459.5093 L 48.8584 459.5334 L 48.9176 459.5454 L 59.0943 459.5574 L 59.3553 459.6055 L 60.3994 459.7979 L 64.6579 459.3197 L 68.9165 458.8415 L 73.1750 458.3633 L 77.4336 457.8851 L 79.5153 457.6619 L 81.5970 457.4387 L 83.6787 457.2156 L 85.7604 456.9924 L 87.8421 456.7692 L 89.8639 456.3041 L 91.8303 455.6155 L 93.7967 454.9269 L 95.7631 454.2383 L 97.7294 453.5497 L 99.6958 452.8611 L 101.6622 452.1725 L 103.6286 451.4839 L 105.4830 450.5711 L 107.2878 449.5592 L 109.0935 448.5473 L 110.8993 447.5354 L 112.7050 446.5235 L 114.5107 445.5115 L 116.3165 444.4996 L 118.1222 443.4877 L 119.7788 442.2855 L 121.3340 440.9538 L 122.8892 439.6222 L 124.4444 438.2906 L 125.9996 436.9590 L 127.5549 435.6273 L 129.1101 434.2957 L 130.6653 432.9641 L 132.1600 431.5832 L 133.4099 429.9155 L 134.6598 428.2477 L 135.9097 426.5799 L 137.1597 424.9122 L 138.4096 423.2444 L 139.6595 421.5766 L 140.9094 419.9089 L 142.1593 418.2411 L 143.1923 416.4694 L 144.0168 414.5978 L 144.8414 412.7262 L 145.6659 410.8546 L 146.4904 408.9830 L 147.3150 407.1114 L 148.1395 405.2398 L 148.9640 403.3682 L 149.7886 401.4966 L 150.6131 399.6250 L 151.0225 397.6631 L 151.4120 395.6968 L 151.8014 393.7304 L 152.1909 391.7641 L 152.5803 389.7978 L 152.9698 387.8315 L 153.3593 385.8652 L 153.7487 383.8989 L 154.1382 381.9326 L 154.5277 379.9663 L 154.9171 378.0000 L 155.0144 377.0027 L 155.0630 376.5040 L 155.0873 376.2547 L 155.0994 376.1300 L 155.1055 376.0677 L 155.1086 376.0365 L 155.1116 373.0053 L 155.3061 371.0106 L 155.5005 369.0160 L 155.6950 367.0213 L 155.8895 365.0266 L 156.0839 363.0319 L 156.2784 361.0372 L 156.4728 359.0426 L 156.6673 357.0479 L 156.8618 355.0532 L 157.0562 353.0585 L 157.2507 351.0638 L 157.4452 349.0691 L 157.6396 347.0745 L 157.8341 345.0798 L 158.0285 343.0851 L 158.2230 341.0904 L 158.4175 339.0957 L 158.6119 337.1011 L 158.8064 335.1064 L 159.0009 333.1117 L 159.1953 331.1170 L 159.3898 329.1223 L 159.5842 327.1277 L 159.7787 325.1330 L 159.9732 323.1383 L 160.1676 321.1436 L 160.3621 319.1489 L 160.5566 317.1543 L 160.7510 315.1596 L 160.9455 313.1649 L 161.1400 311.1702 L 161.3344 309.1755 L 161.5289 307.1809 L 161.7233 305.1862 L 161.9178 303.1915 L 162.1123 301.1968 L 162.3067 299.2021 L 162.5012 297.2074 L 162.6957 295.2128 L 162.8901 293.2181 L 163.0846 291.2234 L 163.2790 289.2287 L 163.4735 287.2340 L 163.6680 285.2394 L 163.8624 283.2447 L 164.0569 281.2500 L 164.2514 279.2553 L 164.4458 277.2606 L 164.6403 275.2660 L 164.8348 273.2713 L 165.0292 271.2766 L 165.2237 269.2819 L 165.4181 267.2872 L 165.6126 265.2926 L 165.8071 263.2979 L 166.0015 261.3032 L 166.1960 259.3085 L 166.3905 257.3138 L 166.5849 255.3191 L 166.7794 253.3245 L 166.9738 251.3298 L 167.1683 249.3351 L 167.3628 247.3404 L 167.5572 245.3457 L 167.7517 243.3511 L 167.9462 241.3564 L 168.1406 239.3617 L 168.3351 237.3670 L 168.5296 235.3723 L 168.7240 233.3777 L 168.9185 231.3830 L 169.1129 229.3883 L 169.3074 227.3936 L 169.5019 225.3989 L 169.6963 223.4043 L 169.8908 221.4096 L 170.0853 219.4149 L 170.2797 217.4202 L 170.4742 215.4255 L 170.6686 213.4309 L 170.8631 211.4362 L 171.0576 209.4415 L 171.2520 207.4468 L 171.4465 205.4521 L 171.6410 203.4574 L 171.8354 201.4628 L 172.0299 199.4681 L 172.2243 197.4734 L 172.4188 195.4787 L 172.6133 193.4840 L 172.8077 191.4894 L 173.0022 189.4947 L 173.1967 187.5000 L 173.3911 185.5053 L 173.5856 183.5106 L 173.7801 181.5160 L 173.9745 179.5213 L 174.1690 177.5266 L 174.3634 175.5319 L 174.5579 173.5372 L 174.7524 171.5426 L 174.9468 169.5479 L 175.1413 167.5532 L 175.3358 165.5585 L 175.5302 163.5638 L 175.7247 161.5691 L 175.9191 159.5745 L 176.1136 157.5798 L 176.3081 155.5851 L 176.5025 153.5904 L 176.6970 151.5957 L 176.8915 149.6011 L 177.0859 147.6064 L 177.2804 145.6117 L 177.4749 143.6170 L 177.6693 141.6223 L 177.8638 139.6277 L 178.0582 137.6330 L 178.2527 135.6383 L 178.4472 133.6436 L 178.6416 131.6489 L 178.8361 129.6543 L 179.0306 127.6596 L 179.2250 125.6649 L 179.4195 123.6702 L 179.6139 121.6755 L 179.8084 119.6809 L 180.0029 117.6862 L 180.1973 115.6915 L 180.3918 113.6968 L 180.5863 111.7021 L 180.7807 109.7074 L 180.9752 107.7128 L 181.1696 105.7181 L 181.3641 103.7234 L 181.5586 101.7287 L 181.7530 99.7340 L 181.9475 97.7394 L 182.1420 95.7447 L 182.3364 93.7500 L 182.5309 91.7553 L 182.7254 89.7606 L 182.9198 87.7660 L 183.8825 85.7713 L 185.3842 83.7766 L 186.8858 81.7819 L 188.3875 79.7872 L 189.8892 77.7926 L 191.3909 75.7979 L 192.8925 73.8032 L 194.3942 71.8085 L 195.8959 69.8138 L 197.3976 67.8191 L 198.8992 65.8245 L 200.4009 63.8298 L 201.9026 61.8351 L 203.4043 59.8404 L 204.9059 57.8457 L 206.4076 55.8511 L 207.9093 53.8564 L 209.4110 51.8617 L 210.9126 49.8670 L 212.4143 47.8723 L 213.9160 45.8777 L 215.4177 43.8830 L 216.9194 41.8883 L 218.4210 39.8936 L 219.9227 37.8989 L 221.4244 35.9043 L 222.9261 33.9096 L 224.4277 31.9149 L 225.9294 29.9202 L 227.4311 27.9255 L 228.0000 25.9309 L 228.0000 23.9362 L 228.0000 21.9415 L 228.0000 19.9468 L 228.0000 17.9521 L 228.0000 15.9574 L 228.0000 13.9628 L 228.0000 11.9681 L 228.0000 9.9734 L 228.0000 7.9787 L 228.0000 5.9840 L 228.0000 3.9894 L 228.0000 1.9947 L 228.0000 0 L 228.0000 -3.0000 L 48.0000 -3.0000 L 48.0000 0 Z"/>
<path fill="black" stroke="none" fill-rule="evenodd" d="M 120.8884 370.0053 L 155.1116 370.0053 L 155.1116 376.0053 L 154.9171 378.0000 L 121.0829 378.0000 L 120.8884 376.0053 L 120.8884 370.0053 Z"/>
</svg>