<svg xmlns="http://www.w3.org/2000/svg" width="252.0000" height="483.0000" viewBox="-10.0000 -13.0000 252.0000 483.0000">
  <g id="background-glyph" fill="#e0e0e0" stroke="#4169e1" stroke-width="1.0000" opacity="1.0000" transform="matrix(1.0000 0 0 1.0000 0 0)">
  <path transform="matrix(1.0000 0 0 1.0000 -723.6510 -447.8750)" d="M955.526,454.125L955.526,447.875L763.026,447.875L763.026,454.125C773.859,455.375 784.38,457.25 794.589,459.75C804.797,462.25 812.818,467.042 818.651,474.125C821.151,477.042 822.922,481.208 823.964,486.625C825.005,492.042 825.839,498.188 826.464,505.063C827.089,511.938 827.401,519.125 827.401,526.625L827.401,744.125C827.401,755.792 827.297,766.625 827.089,776.625C826.88,786.625 826.776,794.542 826.776,800.375C826.359,812.042 825.63,823.708 824.589,835.375C823.547,847.042 821.776,857.458 819.276,866.625C816.359,876.208 811.672,884.333 805.214,891C798.755,897.667 790.318,901 779.901,901C776.568,901 773.026,900.271 769.276,898.813C765.526,897.354 762.609,895.167 760.526,892.25L760.526,890.375C769.276,889.125 776.568,886.313 782.401,881.938C788.234,877.563 791.151,870.583 791.151,861C791.151,852.667 788.13,845.479 782.089,839.438C776.047,833.396 768.859,830.375 760.526,830.375C750.943,830.375 742.401,833.5 734.901,839.75C727.401,846 723.651,854.125 723.651,864.125C723.651,872.042 725.214,878.813 728.339,884.438C731.464,890.063 735.63,894.438 740.839,897.563C746.047,900.688 751.88,903.083 758.339,904.75C764.797,906.417 771.359,907.25 778.026,907.25C790.109,907.25 803.339,904.958 817.714,900.375C832.089,895.792 845.943,888.292 859.276,877.875C870.109,869.542 878.859,860.479 885.526,850.688C892.193,840.896 895.526,829.125 895.526,815.375L895.526,600.375C895.526,589.958 895.63,579.646 895.839,569.438C896.047,559.229 896.151,548.917 896.151,538.5C896.568,528.917 896.984,518.604 897.401,507.563C897.818,496.521 899.693,487.667 903.026,481C908.443,471 916.359,464.333 926.776,461C937.193,457.667 946.776,455.375 955.526,454.125Z"/>
</g>
  <path fill="black" stroke="none" fill-rule="evenodd" d="M 48.0000 0 L 48.0000 1.9947 L 48.0000 3.9894 L 48.0000 5.9840 L 48.0000 7.9787 L 48.0000 9.9734 L 48.0000 11.9681 L 48.0000 13.9628 L 48.0000 15.9574 L 48.0000 17.9521 L 48.0000 19.9468 L 48.0000 21.9415 L 48.0000 23.9362 L 48.0000 25.9309 L 48.5129 27.9255 L 50.0106 29.9202 L 51.5083 31.9149 L 53.0060 33.9096 L 54.5036 35.9043 L 56.0013 37.8989 L 57.4990 39.8936 L 58.9967 41.8883 L 60.4943 43.8830 L 61.9920 45.8777 L 63.4897 47.8723 L 64.9874 49.8670 L 66.4850 51.8617 L 67.9827 53.8564 L 69.4804 55.8511 L 70.9781 57.8457 L 72.4757 59.8404 L 73.9734 61.8351 L 75.4711 63.8298 L 76.9688 65.8245 L 78.4665 67.8191 L 79.9641 69.8138 L 81.4618 71.8085 L 82.9595 73.8032 L 84.4572 75.7979 L 85.9548 77.7926 L 87.4525 79.7872 L 88.9502 81.7819 L 90.4479 83.7766 L 91.9455 85.7713 L 93.0574 87.7660 L 93.2513 89.7606 L 93.4453 91.7553 L 93.6392 93.7500 L 93.8332 95.7447 L 94.0271 97.7394 L 94.2211 99.7340 L 94.4150 101.7287 L 94.6090 103.7234 L 94.8029 105.7181 L 94.9968 107.7128 L 95.1908 109.7074 L 95.3847 111.7021 L 95.5787 113.6968 L 95.7726 115.6915 L 95.9666 117.6862 L 96.1605 119.6809 L 96.3545 121.6755 L 96.5484 123.6702 L 96.7424 125.6649 L 96.9363 127.6596 L 97.1302 129.6543 L 97.3242 131.6489 L 97.5181 133.6436 L 97.7121 135.6383 L 97.9060 137.6330 L 98.1000 139.6277 L 98.2939 141.6223 L 98.4879 143.6170 L 98.6818 145.6117 L 98.8758 147.6064 L 99.0697 149.6011 L 99.2636 151.5957 L 99.4576 153.5904 L 99.6515 155.5851 L 99.8455 157.5798 L 100.0394 159.5745 L 100.2334 161.5691 L 100.4273 163.5638 L 100.6213 165.5585 L 100.8152 167.5532 L 101.0091 169.5479 L 101.2031 171.5426 L 101.3970 173.5372 L 101.5910 175.5319 L 101.7849 177.5266 L 101.9789 179.5213 L 102.1728 181.5160 L 102.3668 183.5106 L 102.5607 185.5053 L 102.7547 187.5000 L 102.9486 189.4947 L 103.1425 191.4894 L 103.3365 193.4840 L 103.5304 195.4787 L 103.7244 197.4734 L 103.9183 199.4681 L 104.1123 201.4628 L 104.3062 203.4574 L 104.5002 205.4521 L 104.6941 207.4468 L 104.8880 209.4415 L 105.0820 211.4362 L 105.2759 213.4309 L 105.4699 215.4255 L 105.6638 217.4202 L 105.8578 219.4149 L 106.0517 221.4096 L 106.2457 223.4043 L 106.4396 225.3989 L 106.6336 227.3936 L 106.8275 229.3883 L 107.0214 231.3830 L 107.2154 233.3777 L 107.4093 235.3723 L 107.6033 237.3670 L 107.7972 239.3617 L 107.9912 241.3564 L 108.1851 243.3511 L 108.3791 245.3457 L 108.5730 247.3404 L 108.7670 249.3351 L 108.9609 251.3298 L 109.1548 253.3245 L 109.3488 255.3191 L 109.5427 257.3138 L 109.7367 259.3085 L 109.9306 261.3032 L 110.1246 263.2979 L 110.3185 265.2926 L 110.5125 267.2872 L 110.7064 269.2819 L 110.9003 271.2766 L 111.0943 273.2713 L 111.2882 275.2660 L 111.4822 277.2606 L 111.6761 279.2553 L 111.8701 281.2500 L 112.0640 283.2447 L 112.2580 285.2394 L 112.4519 287.2340 L 112.6459 289.2287 L 112.8398 291.2234 L 113.0337 293.2181 L 113.2277 295.2128 L 113.4216 297.2074 L 113.6156 299.2021 L 113.8095 301.1968 L 114.0035 303.1915 L 114.1974 305.1862 L 114.3914 307.1809 L 114.5853 309.1755 L 114.7793 311.1702 L 114.9732 313.1649 L 115.1671 315.1596 L 115.3611 317.1543 L 115.5550 319.1489 L 115.7490 321.1436 L 115.9429 323.1383 L 116.1369 325.1330 L 116.3308 327.1277 L 116.5248 329.1223 L 116.7187 331.1170 L 116.9126 333.1117 L 117.1066 335.1064 L 117.3005 337.1011 L 117.4945 339.0957 L 117.6884 341.0904 L 117.8824 343.0851 L 118.0763 345.0798 L 118.2703 347.0745 L 118.4642 349.0691 L 118.6582 351.0638 L 118.8521 353.0585 L 119.0460 355.0532 L 119.2400 357.0479 L 119.4339 359.0426 L 119.6279 361.0372 L 119.8218 363.0319 L 120.0158 365.0266 L 120.2097 367.0213 L 120.4037 369.0160 L 120.5976 371.0106 L 120.7916 373.0053 L 120.7946 370.0365 L 120.7976 370.0677 L 120.8037 370.1300 L 120.8158 370.2547 L 120.8400 370.5040 L 120.8885 371.0027 L 120.9855 372.0000 L 121.0751 373.9795 L 121.1647 375.9590 L 121.2544 377.9386 L 121.3440 379.9181 L 121.4336 381.8976 L 121.4555 383.8701 L 121.3349 385.8278 L 121.2143 387.7855 L 121.0936 389.7432 L 120.9730 391.7009 L 120.8390 393.6556 L 120.4992 395.5658 L 120.1594 397.4760 L 119.8196 399.3862 L 119.4798 401.2963 L 119.1074 403.1954 L 118.5468 405.0302 L 117.9861 406.8650 L 117.4255 408.6998 L 116.8648 410.5346 L 116.1938 412.3163 L 115.4189 414.0482 L 114.6441 415.7801 L 113.8692 417.5120 L 113.0734 419.2305 L 112.0988 420.8350 L 111.1243 422.4395 L 110.1497 424.0441 L 109.1752 425.6486 L 108.1570 426.9898 L 107.1147 428.3112 L 106.0723 429.6325 L 105.0299 430.9538 L 103.9437 432.2300 L 102.7611 433.4069 L 101.5784 434.5837 L 100.3958 435.7605 L 99.2130 436.9373 L 97.9269 437.9813 L 96.6268 439.0073 L 95.3267 440.0332 L 94.0266 441.0592 L 92.6757 442.0038 L 91.2802 442.8768 L 89.8847 443.7499 L 88.4893 444.6229 L 87.0669 445.4383 L 85.5658 446.0856 L 84.0646 446.7330 L 82.5635 447.3804 L 81.0624 448.0278 L 79.5613 448.6751 L 78.0601 449.3225 L 76.5588 449.9699 L 75.0575 450.6172 L 73.4761 450.9894 L 71.8888 451.3410 L 70.3015 451.6926 L 68.7142 452.0442 L 67.1269 452.3958 L 65.5396 452.7474 L 61.8343 453.4691 L 58.0603 453.5930 L 54.2864 453.7169 L 50.5125 453.8408 L 50.0444 453.7926 L 49.9274 453.7805 L 49.8689 453.7745 L 60.1486 453.7685 L 59.8910 453.7443 L 58.8608 453.6478 L 56.8005 453.4548 L 52.6909 452.8749 L 48.5814 452.2949 L 44.6286 451.1191 L 40.7418 449.6931 L 36.8982 448.1843 L 33.4245 445.9664 L 30.4363 443.1638 L 28.1815 439.7903 L 27.5886 437.8759 L 27.2922 436.9187 L 27.1439 436.4401 L 27.1069 436.3204 L 27.0883 442.2606 L 27.0698 442.2008 L 26.9957 441.9615 L 27.0169 438.0030 L 28.0798 434.2421 L 29.8194 430.7923 L 31.9516 427.5961 L 34.3553 424.5969 L 37.0908 421.9247 L 39.8655 419.2913 L 42.8882 416.9676 L 45.9171 414.6515 L 49.0725 412.5272 L 52.2795 410.4812 L 55.4945 408.4494 L 58.8297 406.6330 L 62.1648 404.8165 L 65.5000 403.0000 L 65.5000 397.0000 L 64.5000 397.0000 L 60.7885 398.8165 L 57.0770 400.6330 L 53.3654 402.4494 L 49.7741 404.4812 L 46.1907 406.5272 L 42.6590 408.6515 L 39.2538 410.9676 L 35.8547 413.2913 L 32.7036 415.9247 L 29.5918 418.5969 L 26.8118 421.5961 L 24.3032 424.7923 L 22.1872 428.2421 L 20.7480 432.0030 L 20.3505 435.9615 L 20.4011 436.2008 L 20.4137 436.2606 L 20.4263 442.3204 L 20.4516 442.4401 L 20.5528 442.9187 L 20.7552 443.8759 L 21.1599 445.7903 L 23.0384 449.1638 L 25.6502 451.9664 L 28.7475 454.1843 L 32.2148 455.6931 L 35.7253 457.1191 L 39.3017 458.2949 L 43.0349 458.8749 L 46.7681 459.4548 L 48.6403 459.6478 L 49.5764 459.7443 L 49.8104 459.7685 L 60.2130 459.7745 L 60.2774 459.7805 L 60.4061 459.7926 L 60.9212 459.8408 L 65.0715 459.7169 L 69.2218 459.5930 L 73.3720 459.4691 L 77.4538 458.7474 L 79.3894 458.3958 L 81.3250 458.0442 L 83.2606 457.6926 L 85.1962 457.3410 L 87.1318 456.9894 L 89.0615 456.6172 L 90.9111 455.9699 L 92.7607 455.3225 L 94.6106 454.6751 L 96.4604 454.0278 L 98.3103 453.3804 L 100.1601 452.7330 L 102.0100 452.0856 L 103.8598 451.4383 L 105.6310 450.6229 L 107.3751 449.7499 L 109.1191 448.8768 L 110.8631 448.0038 L 112.5625 447.0592 L 114.2111 446.0332 L 115.8597 445.0073 L 117.5084 443.9813 L 119.1429 442.9373 L 120.6742 441.7605 L 122.2055 440.5837 L 123.7369 439.4069 L 125.2682 438.2300 L 126.7031 436.9538 L 128.0941 435.6325 L 129.4852 434.3112 L 130.8763 432.9898 L 132.2431 431.6486 L 133.5956 430.0441 L 134.9481 428.4395 L 136.3007 426.8350 L 137.6532 425.2305 L 138.8270 423.5120 L 139.9798 421.7801 L 141.1326 420.0482 L 142.2855 418.3163 L 143.3345 416.5346 L 144.2731 414.6998 L 145.2117 412.8650 L 146.1503 411.0302 L 147.0889 409.1954 L 147.8392 407.2963 L 148.5570 405.3862 L 149.2748 403.4760 L 149.9926 401.5658 L 150.7104 399.6556 L 151.2223 397.7009 L 151.7209 395.7432 L 152.2195 393.7855 L 152.7181 391.8278 L 153.2167 389.8701 L 153.5728 387.8976 L 153.8611 385.9181 L 154.1495 383.9386 L 154.4378 381.9590 L 154.7262 379.9795 L 155.0145 378.0000 L 155.1115 377.0027 L 155.1600 376.5040 L 155.1842 376.2547 L 155.1963 376.1300 L 155.2024 376.0677 L 155.2054 376.0365 L 155.2084 373.0053 L 155.4024 371.0106 L 155.5963 369.0160 L 155.7903 367.0213 L 155.9842 365.0266 L 156.1782 363.0319 L 156.3721 361.0372 L 156.5661 359.0426 L 156.7600 357.0479 L 156.9540 355.0532 L 157.1479 353.0585 L 157.3418 351.0638 L 157.5358 349.0691 L 157.7297 347.0745 L 157.9237 345.0798 L 158.1176 343.0851 L 158.3116 341.0904 L 158.5055 339.0957 L 158.6995 337.1011 L 158.8934 335.1064 L 159.0874 333.1117 L 159.2813 331.1170 L 159.4752 329.1223 L 159.6692 327.1277 L 159.8631 325.1330 L 160.0571 323.1383 L 160.2510 321.1436 L 160.4450 319.1489 L 160.6389 317.1543 L 160.8329 315.1596 L 161.0268 313.1649 L 161.2207 311.1702 L 161.4147 309.1755 L 161.6086 307.1809 L 161.8026 305.1862 L 161.9965 303.1915 L 162.1905 301.1968 L 162.3844 299.2021 L 162.5784 297.2074 L 162.7723 295.2128 L 162.9663 293.2181 L 163.1602 291.2234 L 163.3541 289.2287 L 163.5481 287.2340 L 163.7420 285.2394 L 163.9360 283.2447 L 164.1299 281.2500 L 164.3239 279.2553 L 164.5178 277.2606 L 164.7118 275.2660 L 164.9057 273.2713 L 165.0997 271.2766 L 165.2936 269.2819 L 165.4875 267.2872 L 165.6815 265.2926 L 165.8754 263.2979 L 166.0694 261.3032 L 166.2633 259.3085 L 166.4573 257.3138 L 166.6512 255.3191 L 166.8452 253.3245 L 167.0391 251.3298 L 167.2330 249.3351 L 167.4270 247.3404 L 167.6209 245.3457 L 167.8149 243.3511 L 168.0088 241.3564 L 168.2028 239.3617 L 168.3967 237.3670 L 168.5907 235.3723 L 168.7846 233.3777 L 168.9786 231.3830 L 169.1725 229.3883 L 169.3664 227.3936 L 169.5604 225.3989 L 169.7543 223.4043 L 169.9483 221.4096 L 170.1422 219.4149 L 170.3362 217.4202 L 170.5301 215.4255 L 170.7241 213.4309 L 170.9180 211.4362 L 171.1120 209.4415 L 171.3059 207.4468 L 171.4998 205.4521 L 171.6938 203.4574 L 171.8877 201.4628 L 172.0817 199.4681 L 172.2756 197.4734 L 172.4696 195.4787 L 172.6635 193.4840 L 172.8575 191.4894 L 173.0514 189.4947 L 173.2453 187.5000 L 173.4393 185.5053 L 173.6332 183.5106 L 173.8272 181.5160 L 174.0211 179.5213 L 174.2151 177.5266 L 174.4090 175.5319 L 174.6030 173.5372 L 174.7969 171.5426 L 174.9909 169.5479 L 175.1848 167.5532 L 175.3787 165.5585 L 175.5727 163.5638 L 175.7666 161.5691 L 175.9606 159.5745 L 176.1545 157.5798 L 176.3485 155.5851 L 176.5424 153.5904 L 176.7364 151.5957 L 176.9303 149.6011 L 177.1242 147.6064 L 177.3182 145.6117 L 177.5121 143.6170 L 177.7061 141.6223 L 177.9000 139.6277 L 178.0940 137.6330 L 178.2879 135.6383 L 178.4819 133.6436 L 178.6758 131.6489 L 178.8698 129.6543 L 179.0637 127.6596 L 179.2576 125.6649 L 179.4516 123.6702 L 179.6455 121.6755 L 179.8395 119.6809 L 180.0334 117.6862 L 180.2274 115.6915 L 180.4213 113.6968 L 180.6153 111.7021 L 180.8092 109.7074 L 181.0032 107.7128 L 181.1971 105.7181 L 181.3910 103.7234 L 181.5850 101.7287 L 181.7789 99.7340 L 181.9729 97.7394 L 182.1668 95.7447 L 182.3608 93.7500 L 182.5547 91.7553 L 182.7487 89.7606 L 182.9426 87.7660 L 184.0545 85.7713 L 185.5521 83.7766 L 187.0498 81.7819 L 188.5475 79.7872 L 190.0452 77.7926 L 191.5428 75.7979 L 193.0405 73.8032 L 194.5382 71.8085 L 196.0359 69.8138 L 197.5335 67.8191 L 199.0312 65.8245 L 200.5289 63.8298 L 202.0266 61.8351 L 203.5243 59.8404 L 205.0219 57.8457 L 206.5196 55.8511 L 208.0173 53.8564 L 209.5150 51.8617 L 211.0126 49.8670 L 212.5103 47.8723 L 214.0080 45.8777 L 215.5057 43.8830 L 217.0033 41.8883 L 218.5010 39.8936 L 219.9987 37.8989 L 221.4964 35.9043 L 222.9940 33.9096 L 224.4917 31.9149 L 225.9894 29.9202 L 227.4871 27.9255 L 228.0000 25.9309 L 228.0000 23.9362 L 228.0000 21.9415 L 228.0000 19.9468 L 228.0000 17.9521 L 228.0000 15.9574 L 228.0000 13.9628 L 228.0000 11.9681 L 228.0000 9.9734 L 228.0000 7.9787 L 228.0000 5.9840 L 228.0000 3.9894 L 228.0000 1.9947 L 228.0000 0 L 228.0000 -3.0000 L 48.0000 -3.0000 L 48.0000 0 Z"/>
<path fill="black" stroke="none" fill-rule="evenodd" d="M 120.7916 370.0053 L 155.2084 370.0053 L 155.2084 376.0053 L 155.0145 378.0000 L 120.9855 378.0000 L 120.7916 376.0053 L 120.7916 370.0053 Z"/>
</svg>