<svg xmlns="http://www.w3.org/2000/svg" width="278.0000" height="483.5000" viewBox="-10.0000 -13.5000 278.0000 483.5000">
  <g id="background-glyph" fill="#e0e0e0" stroke="#4169e1" stroke-width="1.0000" opacity="1.0000" transform="matrix(1.0000 0 0 1.0000 0 0)">
  <path transform="matrix(1.0000 0 0 1.0000 -723.6510 -447.8750)" d="M955.526,454.125L955.526,447.875L763.026,447.875L763.026,454.125C773.859,455.375 784.38,457.25 794.589,459.75C804.797,462.25 812.818,467.042 818.651,474.125C821.151,477.042 822.922,481.208 823.964,486.625C825.005,492.042 825.839,498.188 826.464,505.063C827.089,511.938 827.401,519.125 827.401,526.625L827.401,744.125C827.401,755.792 827.297,766.625 827.089,776.625C826.88,786.625 826.776,794.542 826.776,800.375C826.359,812.042 825.63,823.708 824.589,835.375C823.547,847.042 821.776,857.458 819.276,866.625C816.359,876.208 811.672,884.333 805.214,891C798.755,897.667 790.318,901 779.901,901C776.568,901 773.026,900.271 769.276,898.813C765.526,897.354 762.609,895.167 760.526,892.25L760.526,890.375C769.276,889.125 776.568,886.313 782.401,881.938C788.234,877.563 791.151,870.583 791.151,861C791.151,852.667 788.13,845.479 782.089,839.438C776.047,833.396 768.859,830.375 760.526,830.375C750.943,830.375 742.401,833.5 734.901,839.75C727.401,846 723.651,854.125 723.651,864.125C723.651,872.042 725.214,878.813 728.339,884.438C731.464,890.063 735.63,894.438 740.839,897.563C746.047,900.688 751.88,903.083 758.339,904.75C764.797,906.417 771.359,907.25 778.026,907.25C790.109,907.25 803.339,904.958 817.714,900.375C832.089,895.792 845.943,888.292 859.276,877.875C870.109,869.542 878.859,860.479 885.526,850.688C892.193,840.896 895.526,829.125 895.526,815.375L895.526,600.375C895.526,589.958 895.63,579.646 895.839,569.438C896.047,559.229 896.151,548.917 896.151,538.5C896.568,528.917 896.984,518.604 897.401,507.563C897.818,496.521 899.693,487.667 903.026,481C908.443,471 916.359,464.333 926.776,461C937.193,457.667 946.776,455.375 955.526,454.125Z"/>
</g>
  <path fill="black" stroke="none" fill-rule="nonzero" d="M 48.0000 0 C 48.0000 0.8324 48.0000 1.3298 48.0000 1.9947 C 48.0000 2.6596 48.0000 3.3245 48.0000 3.9894 C 48.0000 4.6543 48.0000 5.3191 48.0000 5.9840 C 48.0000 6.6489 48.0000 7.3138 48.0000 7.9787 C 48.0000 8.6436 48.0000 9.3085 48.0000 9.9734 C 48.0000 10.6383 48.0000 11.3032 48.0000 11.9681 C 48.0000 12.6330 48.0000 13.2979 48.0000 13.9628 C 48.0000 14.6277 48.0000 15.2926 48.0000 15.9574 C 48.0000 16.6223 48.0000 17.2872 48.0000 17.9521 C 48.0000 18.6170 48.0000 19.2819 48.0000 19.9468 C 48.0000 20.6117 48.0000 21.2766 48.0000 21.9415 C 48.0000 22.6064 48.0000 23.2713 48.0000 23.9362 C 48.0000 24.6011 47.9145 25.2660 48.0000 25.9309 C 48.0855 26.5957 48.1778 27.2606 48.5129 27.9255 C 48.8480 28.5904 49.5114 29.2553 50.0106 29.9202 C 50.5098 30.5851 51.0091 31.2500 51.5083 31.9149 C 52.0075 32.5798 52.5067 33.2447 53.0060 33.9096 C 53.5052 34.5745 54.0044 35.2394 54.5036 35.9043 C 55.0029 36.5691 55.5021 37.2340 56.0013 37.8989 C 56.5005 38.5638 56.9998 39.2287 57.4990 39.8936 C 57.9982 40.5585 58.4974 41.2234 58.9967 41.8883 C 59.4959 42.5532 59.9951 43.2181 60.4943 43.8830 C 60.9936 44.5479 61.4928 45.2128 61.9920 45.8777 C 62.4912 46.5426 62.9905 47.2074 63.4897 47.8723 C 63.9889 48.5372 64.4881 49.2021 64.9874 49.8670 C 65.4866 50.5319 65.9858 51.1968 66.4850 51.8617 C 66.9843 52.5266 67.4835 53.1915 67.9827 53.8564 C 68.4819 54.5213 68.9812 55.1862 69.4804 55.8511 C 69.9796 56.5160 70.4788 57.1809 70.9781 57.8457 C 71.4773 58.5106 71.9765 59.1755 72.4757 59.8404 C 72.9750 60.5053 73.4742 61.1702 73.9734 61.8351 C 74.4727 62.5000 74.9719 63.1649 75.4711 63.8298 C 75.9703 64.4947 76.4696 65.1596 76.9688 65.8245 C 77.4680 66.4894 77.9672 67.1543 78.4665 67.8191 C 78.9657 68.4840 79.4649 69.1489 79.9641 69.8138 C 80.4634 70.4787 80.9626 71.1436 81.4618 71.8085 C 81.9610 72.4734 82.4603 73.1383 82.9595 73.8032 C 83.4587 74.4681 83.9579 75.1330 84.4572 75.7979 C 84.9564 76.4628 85.4556 77.1277 85.9548 77.7926 C 86.4541 78.4574 86.9533 79.1223 87.4525 79.7872 C 87.9517 80.4521 88.4510 81.1170 88.9502 81.7819 C 89.4494 82.4468 89.9486 83.1117 90.4479 83.7766 C 90.9471 84.4415 91.5106 85.1064 91.9455 85.7713 C 92.3805 86.4362 92.8398 87.1011 93.0574 87.7660 C 93.2750 88.4309 93.1867 89.0957 93.2513 89.7606 C 93.3160 90.4255 93.3806 91.0904 93.4453 91.7553 C 93.5099 92.4202 93.5746 93.0851 93.6392 93.7500 C 93.7039 94.4149 93.7685 95.0798 93.8332 95.7447 C 93.8978 96.4096 93.9625 97.0745 94.0271 97.7394 C 94.0918 98.4043 94.1564 99.0691 94.2211 99.7340 C 94.2857 100.3989 94.3504 101.0638 94.4150 101.7287 C 94.4797 102.3936 94.5443 103.0585 94.6090 103.7234 C 94.6736 104.3883 94.7383 105.0532 94.8029 105.7181 C 94.8676 106.3830 94.9322 107.0479 94.9968 107.7128 C 95.0615 108.3777 95.1261 109.0426 95.1908 109.7074 C 95.2554 110.3723 95.3201 111.0372 95.3847 111.7021 C 95.4494 112.3670 95.5140 113.0319 95.5787 113.6968 C 95.6433 114.3617 95.7080 115.0266 95.7726 115.6915 C 95.8373 116.3564 95.9019 117.0213 95.9666 117.6862 C 96.0312 118.3511 96.0959 119.0160 96.1605 119.6809 C 96.2252 120.3457 96.2898 121.0106 96.3545 121.6755 C 96.4191 122.3404 96.4838 123.0053 96.5484 123.6702 C 96.6131 124.3351 96.6777 125.0000 96.7424 125.6649 C 96.8070 126.3298 96.8717 126.9947 96.9363 127.6596 C 97.0009 128.3245 97.0656 128.9894 97.1302 129.6543 C 97.1949 130.3191 97.2595 130.9840 97.3242 131.6489 C 97.3888 132.3138 97.4535 132.9787 97.5181 133.6436 C 97.5828 134.3085 97.6474 134.9734 97.7121 135.6383 C 97.7767 136.3032 97.8414 136.9681 97.9060 137.6330 C 97.9707 138.2979 98.0353 138.9628 98.1000 139.6277 C 98.1646 140.2926 98.2293 140.9574 98.2939 141.6223 C 98.3586 142.2872 98.4232 142.9521 98.4879 143.6170 C 98.5525 144.2819 98.6172 144.9468 98.6818 145.6117 C 98.7465 146.2766 98.8111 146.9415 98.8758 147.6064 C 98.9404 148.2713 99.0050 148.9362 99.0697 149.6011 C 99.1343 150.2660 99.1990 150.9309 99.2636 151.5957 C 99.3283 152.2606 99.3929 152.9255 99.4576 153.5904 C 99.5222 154.2553 99.5869 154.9202 99.6515 155.5851 C 99.7162 156.2500 99.7808 156.9149 99.8455 157.5798 C 99.9101 158.2447 99.9748 158.9096 100.0394 159.5745 C 100.1041 160.2394 100.1687 160.9043 100.2334 161.5691 C 100.2980 162.2340 100.3627 162.8989 100.4273 163.5638 C 100.4920 164.2287 100.5566 164.8936 100.6213 165.5585 C 100.6859 166.2234 100.7506 166.8883 100.8152 167.5532 C 100.8798 168.2181 100.9445 168.8830 101.0091 169.5479 C 101.0738 170.2128 101.1384 170.8777 101.2031 171.5426 C 101.2677 172.2074 101.3324 172.8723 101.3970 173.5372 C 101.4617 174.2021 101.5263 174.8670 101.5910 175.5319 C 101.6556 176.1968 101.7203 176.8617 101.7849 177.5266 C 101.8496 178.1915 101.9142 178.8564 101.9789 179.5213 C 102.0435 180.1862 102.1082 180.8511 102.1728 181.5160 C 102.2375 182.1809 102.3021 182.8457 102.3668 183.5106 C 102.4314 184.1755 102.4961 184.8404 102.5607 185.5053 C 102.6254 186.1702 102.6900 186.8351 102.7547 187.5000 C 102.8193 188.1649 102.8839 188.8298 102.9486 189.4947 C 103.0132 190.1596 103.0779 190.8245 103.1425 191.4894 C 103.2072 192.1543 103.2718 192.8191 103.3365 193.4840 C 103.4011 194.1489 103.4658 194.8138 103.5304 195.4787 C 103.5951 196.1436 103.6597 196.8085 103.7244 197.4734 C 103.7890 198.1383 103.8537 198.8032 103.9183 199.4681 C 103.9830 200.1330 104.0476 200.7979 104.1123 201.4628 C 104.1769 202.1277 104.2416 202.7926 104.3062 203.4574 C 104.3709 204.1223 104.4355 204.7872 104.5002 205.4521 C 104.5648 206.1170 104.6295 206.7819 104.6941 207.4468 C 104.7588 208.1117 104.8234 208.7766 104.8880 209.4415 C 104.9527 210.1064 105.0173 210.7713 105.0820 211.4362 C 105.1466 212.1011 105.2113 212.7660 105.2759 213.4309 C 105.3406 214.0957 105.4052 214.7606 105.4699 215.4255 C 105.5345 216.0904 105.5992 216.7553 105.6638 217.4202 C 105.7285 218.0851 105.7931 218.7500 105.8578 219.4149 C 105.9224 220.0798 105.9871 220.7447 106.0517 221.4096 C 106.1164 222.0745 106.1810 222.7394 106.2457 223.4043 C 106.3103 224.0691 106.3750 224.7340 106.4396 225.3989 C 106.5043 226.0638 106.5689 226.7287 106.6336 227.3936 C 106.6982 228.0585 106.7629 228.7234 106.8275 229.3883 C 106.8921 230.0532 106.9568 230.7181 107.0214 231.3830 C 107.0861 232.0479 107.1507 232.7128 107.2154 233.3777 C 107.2800 234.0426 107.3447 234.7074 107.4093 235.3723 C 107.4740 236.0372 107.5386 236.7021 107.6033 237.3670 C 107.6679 238.0319 107.7326 238.6968 107.7972 239.3617 C 107.8619 240.0266 107.9265 240.6915 107.9912 241.3564 C 108.0558 242.0213 108.1205 242.6862 108.1851 243.3511 C 108.2498 244.0160 108.3144 244.6809 108.3791 245.3457 C 108.4437 246.0106 108.5084 246.6755 108.5730 247.3404 C 108.6377 248.0053 108.7023 248.6702 108.7670 249.3351 C 108.8316 250.0000 108.8962 250.6649 108.9609 251.3298 C 109.0255 251.9947 109.0902 252.6596 109.1548 253.3245 C 109.2195 253.9894 109.2841 254.6543 109.3488 255.3191 C 109.4134 255.9840 109.4781 256.6489 109.5427 257.3138 C 109.6074 257.9787 109.6720 258.6436 109.7367 259.3085 C 109.8013 259.9734 109.8660 260.6383 109.9306 261.3032 C 109.9953 261.9681 110.0599 262.6330 110.1246 263.2979 C 110.1892 263.9628 110.2539 264.6277 110.3185 265.2926 C 110.3832 265.9574 110.4478 266.6223 110.5125 267.2872 C 110.5771 267.9521 110.6418 268.6170 110.7064 269.2819 C 110.7711 269.9468 110.8357 270.6117 110.9003 271.2766 C 110.9650 271.9415 111.0296 272.6064 111.0943 273.2713 C 111.1589 273.9362 111.2236 274.6011 111.2882 275.2660 C 111.3529 275.9309 111.4175 276.5957 111.4822 277.2606 C 111.5468 277.9255 111.6115 278.5904 111.6761 279.2553 C 111.7408 279.9202 111.8054 280.5851 111.8701 281.2500 C 111.9347 281.9149 111.9994 282.5798 112.0640 283.2447 C 112.1287 283.9096 112.1933 284.5745 112.2580 285.2394 C 112.3226 285.9043 112.3873 286.5691 112.4519 287.2340 C 112.5166 287.8989 112.5812 288.5638 112.6459 289.2287 C 112.7105 289.8936 112.7752 290.5585 112.8398 291.2234 C 112.9044 291.8883 112.9691 292.5532 113.0337 293.2181 C 113.0984 293.8830 113.1630 294.5479 113.2277 295.2128 C 113.2923 295.8777 113.3570 296.5426 113.4216 297.2074 C 113.4863 297.8723 113.5509 298.5372 113.6156 299.2021 C 113.6802 299.8670 113.7449 300.5319 113.8095 301.1968 C 113.8742 301.8617 113.9388 302.5266 114.0035 303.1915 C 114.0681 303.8564 114.1328 304.5213 114.1974 305.1862 C 114.2621 305.8511 114.3267 306.5160 114.3914 307.1809 C 114.4560 307.8457 114.5207 308.5106 114.5853 309.1755 C 114.6500 309.8404 114.7146 310.5053 114.7793 311.1702 C 114.8439 311.8351 114.9085 312.5000 114.9732 313.1649 C 115.0378 313.8298 115.1025 314.4947 115.1671 315.1596 C 115.2318 315.8245 115.2964 316.4894 115.3611 317.1543 C 115.4257 317.8191 115.4904 318.4840 115.5550 319.1489 C 115.6197 319.8138 115.6843 320.4787 115.7490 321.1436 C 115.8136 321.8085 115.8783 322.4734 115.9429 323.1383 C 116.0076 323.8032 116.0722 324.4681 116.1369 325.1330 C 116.2015 325.7979 116.2662 326.4628 116.3308 327.1277 C 116.3955 327.7926 116.4601 328.4574 116.5248 329.1223 C 116.5894 329.7872 116.6541 330.4521 116.7187 331.1170 C 116.7834 331.7819 116.8480 332.4468 116.9126 333.1117 C 116.9773 333.7766 117.0419 334.4415 117.1066 335.1064 C 117.1712 335.7713 117.2359 336.4362 117.3005 337.1011 C 117.3652 337.7660 117.4298 338.4309 117.4945 339.0957 C 117.5591 339.7606 117.6238 340.4255 117.6884 341.0904 C 117.7531 341.7553 117.8177 342.4202 117.8824 343.0851 C 117.9470 343.7500 118.0117 344.4149 118.0763 345.0798 C 118.1410 345.7447 118.2056 346.4096 118.2703 347.0745 C 118.3349 347.7394 118.3996 348.4043 118.4642 349.0691 C 118.5289 349.7340 118.5935 350.3989 118.6582 351.0638 C 118.7228 351.7287 118.7875 352.3936 118.8521 353.0585 C 118.9167 353.7234 118.9814 354.3883 119.0460 355.0532 C 119.1107 355.7181 119.1753 356.3830 119.2400 357.0479 C 119.3046 357.7128 119.3693 358.3777 119.4339 359.0426 C 119.4986 359.7074 119.5632 360.3723 119.6279 361.0372 C 119.6925 361.7021 119.7572 362.3670 119.8218 363.0319 C 119.8865 363.6968 119.9511 364.3617 120.0158 365.0266 C 120.0804 365.6915 120.1451 366.3564 120.2097 367.0213 C 120.2744 367.6862 120.3390 368.3511 120.4037 369.0160 C 120.4683 369.6809 120.5330 370.3457 120.5976 371.0106 C 120.6623 371.6755 120.7587 373.1677 120.7916 373.0053 C 120.8244 372.8430 120.7936 370.5261 120.7946 370.0365 C 120.7956 369.5469 120.7961 370.0521 120.7976 370.0677 C 120.7991 370.0832 120.8006 370.0988 120.8037 370.1300 C 120.8067 370.1612 120.8097 370.1923 120.8158 370.2547 C 120.8219 370.3170 120.8279 370.3793 120.8400 370.5040 C 120.8522 370.6287 120.8643 370.7533 120.8885 371.0027 C 120.9128 371.2520 120.9544 371.5039 120.9855 372.0000 C 121.0166 372.4961 121.0452 373.3197 121.0751 373.9795 C 121.1050 374.6394 121.1349 375.2992 121.1647 375.9590 C 121.1946 376.6189 121.2245 377.2787 121.2544 377.9386 C 121.2842 378.5984 121.3141 379.2583 121.3440 379.9181 C 121.3739 380.5779 121.4150 381.2390 121.4336 381.8976 C 121.4522 382.5563 121.4720 383.2151 121.4555 383.8701 C 121.4391 384.5251 121.3751 385.1752 121.3349 385.8278 C 121.2947 386.4804 121.2545 387.1329 121.2143 387.7855 C 121.1740 388.4380 121.1338 389.0906 121.0936 389.7432 C 121.0534 390.3957 121.0154 391.0488 120.9730 391.7009 C 120.9306 392.3529 120.9180 393.0115 120.8390 393.6556 C 120.7600 394.2998 120.6125 394.9291 120.4992 395.5658 C 120.3859 396.2025 120.2727 396.8393 120.1594 397.4760 C 120.0461 398.1127 119.9328 398.7494 119.8196 399.3862 C 119.7063 400.0229 119.5984 400.6615 119.4798 401.2963 C 119.3611 401.9312 119.2629 402.5731 119.1074 403.1954 C 118.9519 403.8177 118.7337 404.4186 118.5468 405.0302 C 118.3599 405.6418 118.1730 406.2534 117.9861 406.8650 C 117.7992 407.4766 117.6124 408.0882 117.4255 408.6998 C 117.2386 409.3114 117.0701 409.9318 116.8648 410.5346 C 116.6596 411.1373 116.4348 411.7307 116.1938 412.3163 C 115.9528 412.9019 115.6772 413.4709 115.4189 414.0482 C 115.1607 414.6255 114.9024 415.2028 114.6441 415.7801 C 114.3858 416.3574 114.1310 416.9369 113.8692 417.5120 C 113.6075 418.0870 113.3685 418.6766 113.0734 419.2305 C 112.7783 419.7843 112.4237 420.3002 112.0988 420.8350 C 111.7740 421.3698 111.4491 421.9047 111.1243 422.4395 C 110.7994 422.9744 110.4746 423.5092 110.1497 424.0441 C 109.8249 424.5789 109.5073 425.1577 109.1752 425.6486 C 108.8431 426.1396 108.5005 426.5461 108.1570 426.9898 C 107.8136 427.4336 107.4621 427.8707 107.1147 428.3112 C 106.7672 428.7516 106.4197 429.1920 106.0723 429.6325 C 105.7248 430.0729 105.3847 430.5209 105.0299 430.9538 C 104.6751 431.3868 104.3219 431.8212 103.9437 432.2300 C 103.5656 432.6389 103.1553 433.0146 102.7611 433.4069 C 102.3668 433.7991 101.9726 434.1914 101.5784 434.5837 C 101.1842 434.9760 100.7900 435.3682 100.3958 435.7605 C 100.0015 436.1528 99.6245 436.5672 99.2130 436.9373 C 98.8015 437.3075 98.3580 437.6363 97.9269 437.9813 C 97.4959 438.3263 97.0602 438.6653 96.6268 439.0073 C 96.1935 439.3493 95.7601 439.6912 95.3267 440.0332 C 94.8933 440.3752 94.4684 440.7308 94.0266 441.0592 C 93.5848 441.3876 93.1335 441.7008 92.6757 442.0038 C 92.2180 442.3067 91.7454 442.5858 91.2802 442.8768 C 90.8151 443.1679 90.3499 443.4589 89.8847 443.7499 C 89.4196 444.0409 88.9590 444.3415 88.4893 444.6229 C 88.0197 444.9043 87.5542 445.1945 87.0669 445.4383 C 86.5796 445.6820 86.0661 445.8698 85.5658 446.0856 C 85.0654 446.3014 84.5650 446.5172 84.0646 446.7330 C 83.5643 446.9488 83.0639 447.1646 82.5635 447.3804 C 82.0631 447.5962 81.5628 447.8120 81.0624 448.0278 C 80.5620 448.2435 80.0616 448.4593 79.5613 448.6751 C 79.0609 448.8909 78.5606 449.1067 78.0601 449.3225 C 77.5597 449.5383 77.0593 449.7541 76.5588 449.9699 C 76.0584 450.1857 75.5713 450.4473 75.0575 450.6172 C 74.5437 450.7872 74.0042 450.8687 73.4761 450.9894 C 72.9480 451.1100 72.4179 451.2238 71.8888 451.3410 C 71.3597 451.4582 70.8306 451.5754 70.3015 451.6926 C 69.7724 451.8098 69.2433 451.9270 68.7142 452.0442 C 68.1851 452.1614 67.6560 452.2786 67.1269 452.3958 C 66.5978 452.5130 66.4218 452.5686 65.5396 452.7474 C 64.6575 452.9263 63.0808 453.3281 61.8343 453.4691 C 60.5877 453.6100 59.3183 453.5517 58.0603 453.5930 C 56.8024 453.6343 55.5444 453.6756 54.2864 453.7169 C 53.0284 453.7582 51.2195 453.8282 50.5125 453.8408 C 49.8055 453.8535 50.1419 453.8027 50.0444 453.7926 C 49.9469 453.7825 49.9567 453.7836 49.9274 453.7805 C 49.8982 453.7775 48.1654 453.7765 49.8689 453.7745 C 51.5724 453.7725 58.4782 453.7735 60.1486 453.7685 C 61.8189 453.7634 60.1057 453.7645 59.8910 453.7443 C 59.6764 453.7242 59.3759 453.6961 58.8608 453.6478 C 58.3457 453.5996 57.8288 453.5837 56.8005 453.4548 C 55.7721 453.3260 54.0608 453.0682 52.6909 452.8749 C 51.3211 452.6815 49.9251 452.5875 48.5814 452.2949 C 47.2377 452.0022 45.9352 451.5527 44.6286 451.1191 C 43.3221 450.6855 42.0302 450.1822 40.7418 449.6931 C 39.4534 449.2040 38.1177 448.8055 36.8982 448.1843 C 35.6786 447.5632 34.5015 446.8031 33.4245 445.9664 C 32.3476 445.1296 31.3102 444.1932 30.4363 443.1638 C 29.5625 442.1345 28.6561 440.6716 28.1815 439.7903 C 27.7069 438.9090 27.7368 438.3545 27.5886 437.8759 C 27.4404 437.3973 27.3663 437.1580 27.2922 436.9187 C 27.2180 436.6794 27.1748 436.5398 27.1439 436.4401 C 27.1131 436.3404 27.1161 435.3503 27.1069 436.3204 C 27.0976 437.2905 27.0945 441.2805 27.0883 442.2606 C 27.0822 443.2406 27.0853 442.2506 27.0698 442.2008 C 27.0544 442.1509 27.0045 442.6611 26.9957 441.9615 C 26.9869 441.2618 26.8362 439.2895 27.0169 438.0030 C 27.1976 436.7164 27.6127 435.4439 28.0798 434.2421 C 28.5468 433.0404 29.1741 431.8999 29.8194 430.7923 C 30.4647 429.6846 31.1956 428.6287 31.9516 427.5961 C 32.7076 426.5636 33.4988 425.5421 34.3553 424.5969 C 35.2119 423.6516 36.1724 422.8090 37.0908 421.9247 C 38.0091 421.0404 38.8992 420.1175 39.8655 419.2913 C 40.8317 418.4651 41.8796 417.7409 42.8882 416.9676 C 43.8968 416.1943 44.8864 415.3916 45.9171 414.6515 C 46.9478 413.9114 48.0121 413.2223 49.0725 412.5272 C 50.1329 411.8322 51.2092 411.1608 52.2795 410.4812 C 53.3498 409.8016 54.4028 409.0908 55.4945 408.4494 C 56.5862 407.8081 57.7179 407.2384 58.8297 406.6330 C 59.9414 406.0275 61.0531 405.4220 62.1648 404.8165 C 63.2766 404.2110 64.9441 404.3027 65.5000 403.0000 C 66.0559 401.6973 65.6667 398.0000 65.5000 397.0000 C 65.3333 396.0000 65.2853 396.6973 64.5000 397.0000 C 63.7147 397.3027 62.0257 398.2110 60.7885 398.8165 C 59.5513 399.4220 58.3141 400.0275 57.0770 400.6330 C 55.8398 401.2384 54.5826 401.8081 53.3654 402.4494 C 52.1483 403.0908 50.9699 403.8016 49.7741 404.4812 C 48.5783 405.1608 47.3766 405.8322 46.1907 406.5272 C 45.0049 407.2223 43.8152 407.9114 42.6590 408.6515 C 41.5028 409.3916 40.3878 410.1943 39.2538 410.9676 C 38.1197 411.7409 36.9464 412.4651 35.8547 413.2913 C 34.7630 414.1175 33.7474 415.0404 32.7036 415.9247 C 31.6598 416.8090 30.5738 417.6516 29.5918 418.5969 C 28.6099 419.5421 27.6932 420.5636 26.8118 421.5961 C 25.9303 422.6287 25.0739 423.6846 24.3032 424.7923 C 23.5324 425.8999 22.7797 427.0404 22.1872 428.2421 C 21.5947 429.4439 21.0541 430.7164 20.7480 432.0030 C 20.4419 433.2895 20.4083 435.2618 20.3505 435.9615 C 20.2926 436.6611 20.3905 436.1509 20.4011 436.2008 C 20.4116 436.2506 20.4095 435.2406 20.4137 436.2606 C 20.4179 437.2805 20.4200 441.2905 20.4263 442.3204 C 20.4327 443.3503 20.4306 442.3404 20.4516 442.4401 C 20.4727 442.5398 20.5022 442.6794 20.5528 442.9187 C 20.6034 443.1580 20.6540 443.3973 20.7552 443.8759 C 20.8564 444.3545 20.7794 444.9090 21.1599 445.7903 C 21.5404 446.6716 22.2900 448.1345 23.0384 449.1638 C 23.7868 450.1932 24.6987 451.1296 25.6502 451.9664 C 26.6018 452.8031 27.6534 453.5632 28.7475 454.1843 C 29.8416 454.8055 31.0519 455.2040 32.2148 455.6931 C 33.3778 456.1822 34.5442 456.6855 35.7253 457.1191 C 36.9064 457.5527 38.0834 458.0022 39.3017 458.2949 C 40.5199 458.5875 41.7905 458.6815 43.0349 458.8749 C 44.2793 459.0682 45.8338 459.3260 46.7681 459.4548 C 47.7023 459.5837 48.1722 459.5996 48.6403 459.6478 C 49.1083 459.6961 49.3814 459.7242 49.5764 459.7443 C 49.7714 459.7645 48.0376 459.7634 49.8104 459.7685 C 51.5832 459.7735 58.4685 459.7725 60.2130 459.7745 C 61.9575 459.7765 60.2452 459.7775 60.2774 459.7805 C 60.3096 459.7836 60.2988 459.7825 60.4061 459.7926 C 60.5134 459.8027 60.1437 459.8535 60.9212 459.8408 C 61.6988 459.8282 63.6881 459.7582 65.0715 459.7169 C 66.4549 459.6756 67.8384 459.6343 69.2218 459.5930 C 70.6052 459.5517 72.0000 459.6100 73.3720 459.4691 C 74.7440 459.3281 76.4509 458.9263 77.4538 458.7474 C 78.4567 458.5686 78.7442 458.5130 79.3894 458.3958 C 80.0346 458.2786 80.6798 458.1614 81.3250 458.0442 C 81.9702 457.9270 82.6154 457.8098 83.2606 457.6926 C 83.9058 457.5754 84.5510 457.4582 85.1962 457.3410 C 85.8414 457.2238 86.4876 457.1100 87.1318 456.9894 C 87.7760 456.8687 88.4316 456.7872 89.0615 456.6172 C 89.6913 456.4473 90.2946 456.1857 90.9111 455.9699 C 91.5277 455.7541 92.1442 455.5383 92.7607 455.3225 C 93.3773 455.1067 93.9940 454.8909 94.6106 454.6751 C 95.2272 454.4593 95.8438 454.2435 96.4604 454.0278 C 97.0771 453.8120 97.6937 453.5962 98.3103 453.3804 C 98.9269 453.1646 99.5435 452.9488 100.1601 452.7330 C 100.7767 452.5172 101.3934 452.3014 102.0100 452.0856 C 102.6266 451.8698 103.2563 451.6820 103.8598 451.4383 C 104.4633 451.1945 105.0451 450.9043 105.6310 450.6229 C 106.2169 450.3415 106.7937 450.0409 107.3751 449.7499 C 107.9565 449.4589 108.5378 449.1679 109.1191 448.8768 C 109.7004 448.5858 110.2892 448.3067 110.8631 448.0038 C 111.4370 447.7008 112.0045 447.3876 112.5625 447.0592 C 113.1205 446.7308 113.6616 446.3752 114.2111 446.0332 C 114.7607 445.6912 115.3102 445.3493 115.8597 445.0073 C 116.4093 444.6653 116.9612 444.3263 117.5084 443.9813 C 118.0556 443.6363 118.6153 443.3075 119.1429 442.9373 C 119.6706 442.5672 120.1638 442.1528 120.6742 441.7605 C 121.1846 441.3682 121.6951 440.9760 122.2055 440.5837 C 122.7160 440.1914 123.2264 439.7991 123.7369 439.4069 C 124.2473 439.0146 124.7738 438.6389 125.2682 438.2300 C 125.7626 437.8212 126.2321 437.3868 126.7031 436.9538 C 127.1741 436.5209 127.6305 436.0729 128.0941 435.6325 C 128.5578 435.1920 129.0215 434.7516 129.4852 434.3112 C 129.9489 433.8707 130.4166 433.4336 130.8763 432.9898 C 131.3359 432.5461 131.7898 432.1396 132.2431 431.6486 C 132.6963 431.1577 133.1448 430.5789 133.5956 430.0441 C 134.0464 429.5092 134.4973 428.9744 134.9481 428.4395 C 135.3990 427.9047 135.8498 427.3698 136.3007 426.8350 C 136.7515 426.3002 137.2321 425.7843 137.6532 425.2305 C 138.0742 424.6766 138.4392 424.0870 138.8270 423.5120 C 139.2148 422.9369 139.5955 422.3574 139.9798 421.7801 C 140.3641 421.2028 140.7484 420.6255 141.1326 420.0482 C 141.5169 419.4709 141.9185 418.9019 142.2855 418.3163 C 142.6524 417.7307 143.0032 417.1373 143.3345 416.5346 C 143.6657 415.9318 143.9602 415.3114 144.2731 414.6998 C 144.5859 414.0882 144.8988 413.4766 145.2117 412.8650 C 145.5246 412.2534 145.8374 411.6418 146.1503 411.0302 C 146.4632 410.4186 146.8074 409.8177 147.0889 409.1954 C 147.3704 408.5731 147.5945 407.9312 147.8392 407.2963 C 148.0839 406.6615 148.3177 406.0229 148.5570 405.3862 C 148.7963 404.7494 149.0355 404.1127 149.2748 403.4760 C 149.5140 402.8393 149.7533 402.2025 149.9926 401.5658 C 150.2318 400.9291 150.5054 400.2998 150.7104 399.6556 C 150.9153 399.0115 151.0539 398.3529 151.2223 397.7009 C 151.3907 397.0488 151.5547 396.3957 151.7209 395.7432 C 151.8871 395.0906 152.0533 394.4380 152.2195 393.7855 C 152.3857 393.1329 152.5519 392.4804 152.7181 391.8278 C 152.8843 391.1752 153.0743 390.5251 153.2167 389.8701 C 153.3592 389.2151 153.4654 388.5563 153.5728 387.8976 C 153.6802 387.2390 153.7650 386.5779 153.8611 385.9181 C 153.9572 385.2583 154.0533 384.5984 154.1495 383.9386 C 154.2456 383.2787 154.3417 382.6189 154.4378 381.9590 C 154.5339 381.2992 154.6300 380.6394 154.7262 379.9795 C 154.8223 379.3197 154.9503 378.4961 155.0145 378.0000 C 155.0787 377.5039 155.0872 377.2520 155.1115 377.0027 C 155.1357 376.7533 155.1478 376.6287 155.1600 376.5040 C 155.1721 376.3793 155.1781 376.3170 155.1842 376.2547 C 155.1903 376.1923 155.1933 376.1612 155.1963 376.1300 C 155.1994 376.0988 155.2009 376.0832 155.2024 376.0677 C 155.2039 376.0521 155.2044 376.5469 155.2054 376.0365 C 155.2064 375.5261 155.1756 373.8430 155.2084 373.0053 C 155.2413 372.1677 155.3377 371.6755 155.4024 371.0106 C 155.4670 370.3457 155.5317 369.6809 155.5963 369.0160 C 155.6610 368.3511 155.7256 367.6862 155.7903 367.0213 C 155.8549 366.3564 155.9196 365.6915 155.9842 365.0266 C 156.0489 364.3617 156.1135 363.6968 156.1782 363.0319 C 156.2428 362.3670 156.3075 361.7021 156.3721 361.0372 C 156.4368 360.3723 156.5014 359.7074 156.5661 359.0426 C 156.6307 358.3777 156.6954 357.7128 156.7600 357.0479 C 156.8247 356.3830 156.8893 355.7181 156.9540 355.0532 C 157.0186 354.3883 157.0833 353.7234 157.1479 353.0585 C 157.2125 352.3936 157.2772 351.7287 157.3418 351.0638 C 157.4065 350.3989 157.4711 349.7340 157.5358 349.0691 C 157.6004 348.4043 157.6651 347.7394 157.7297 347.0745 C 157.7944 346.4096 157.8590 345.7447 157.9237 345.0798 C 157.9883 344.4149 158.0530 343.7500 158.1176 343.0851 C 158.1823 342.4202 158.2469 341.7553 158.3116 341.0904 C 158.3762 340.4255 158.4409 339.7606 158.5055 339.0957 C 158.5702 338.4309 158.6348 337.7660 158.6995 337.1011 C 158.7641 336.4362 158.8288 335.7713 158.8934 335.1064 C 158.9581 334.4415 159.0227 333.7766 159.0874 333.1117 C 159.1520 332.4468 159.2166 331.7819 159.2813 331.1170 C 159.3459 330.4521 159.4106 329.7872 159.4752 329.1223 C 159.5399 328.4574 159.6045 327.7926 159.6692 327.1277 C 159.7338 326.4628 159.7985 325.7979 159.8631 325.1330 C 159.9278 324.4681 159.9924 323.8032 160.0571 323.1383 C 160.1217 322.4734 160.1864 321.8085 160.2510 321.1436 C 160.3157 320.4787 160.3803 319.8138 160.4450 319.1489 C 160.5096 318.4840 160.5743 317.8191 160.6389 317.1543 C 160.7036 316.4894 160.7682 315.8245 160.8329 315.1596 C 160.8975 314.4947 160.9622 313.8298 161.0268 313.1649 C 161.0915 312.5000 161.1561 311.8351 161.2207 311.1702 C 161.2854 310.5053 161.3500 309.8404 161.4147 309.1755 C 161.4793 308.5106 161.5440 307.8457 161.6086 307.1809 C 161.6733 306.5160 161.7379 305.8511 161.8026 305.1862 C 161.8672 304.5213 161.9319 303.8564 161.9965 303.1915 C 162.0612 302.5266 162.1258 301.8617 162.1905 301.1968 C 162.2551 300.5319 162.3198 299.8670 162.3844 299.2021 C 162.4491 298.5372 162.5137 297.8723 162.5784 297.2074 C 162.6430 296.5426 162.7077 295.8777 162.7723 295.2128 C 162.8370 294.5479 162.9016 293.8830 162.9663 293.2181 C 163.0309 292.5532 163.0956 291.8883 163.1602 291.2234 C 163.2248 290.5585 163.2895 289.8936 163.3541 289.2287 C 163.4188 288.5638 163.4834 287.8989 163.5481 287.2340 C 163.6127 286.5691 163.6774 285.9043 163.7420 285.2394 C 163.8067 284.5745 163.8713 283.9096 163.9360 283.2447 C 164.0006 282.5798 164.0653 281.9149 164.1299 281.2500 C 164.1946 280.5851 164.2592 279.9202 164.3239 279.2553 C 164.3885 278.5904 164.4532 277.9255 164.5178 277.2606 C 164.5825 276.5957 164.6471 275.9309 164.7118 275.2660 C 164.7764 274.6011 164.8411 273.9362 164.9057 273.2713 C 164.9704 272.6064 165.0350 271.9415 165.0997 271.2766 C 165.1643 270.6117 165.2289 269.9468 165.2936 269.2819 C 165.3582 268.6170 165.4229 267.9521 165.4875 267.2872 C 165.5522 266.6223 165.6168 265.9574 165.6815 265.2926 C 165.7461 264.6277 165.8108 263.9628 165.8754 263.2979 C 165.9401 262.6330 166.0047 261.9681 166.0694 261.3032 C 166.1340 260.6383 166.1987 259.9734 166.2633 259.3085 C 166.3280 258.6436 166.3926 257.9787 166.4573 257.3138 C 166.5219 256.6489 166.5866 255.9840 166.6512 255.3191 C 166.7159 254.6543 166.7805 253.9894 166.8452 253.3245 C 166.9098 252.6596 166.9745 251.9947 167.0391 251.3298 C 167.1038 250.6649 167.1684 250.0000 167.2330 249.3351 C 167.2977 248.6702 167.3623 248.0053 167.4270 247.3404 C 167.4916 246.6755 167.5563 246.0106 167.6209 245.3457 C 167.6856 244.6809 167.7502 244.0160 167.8149 243.3511 C 167.8795 242.6862 167.9442 242.0213 168.0088 241.3564 C 168.0735 240.6915 168.1381 240.0266 168.2028 239.3617 C 168.2674 238.6968 168.3321 238.0319 168.3967 237.3670 C 168.4614 236.7021 168.5260 236.0372 168.5907 235.3723 C 168.6553 234.7074 168.7200 234.0426 168.7846 233.3777 C 168.8493 232.7128 168.9139 232.0479 168.9786 231.3830 C 169.0432 230.7181 169.1079 230.0532 169.1725 229.3883 C 169.2371 228.7234 169.3018 228.0585 169.3664 227.3936 C 169.4311 226.7287 169.4957 226.0638 169.5604 225.3989 C 169.6250 224.7340 169.6897 224.0691 169.7543 223.4043 C 169.8190 222.7394 169.8836 222.0745 169.9483 221.4096 C 170.0129 220.7447 170.0776 220.0798 170.1422 219.4149 C 170.2069 218.7500 170.2715 218.0851 170.3362 217.4202 C 170.4008 216.7553 170.4655 216.0904 170.5301 215.4255 C 170.5948 214.7606 170.6594 214.0957 170.7241 213.4309 C 170.7887 212.7660 170.8534 212.1011 170.9180 211.4362 C 170.9827 210.7713 171.0473 210.1064 171.1120 209.4415 C 171.1766 208.7766 171.2412 208.1117 171.3059 207.4468 C 171.3705 206.7819 171.4352 206.1170 171.4998 205.4521 C 171.5645 204.7872 171.6291 204.1223 171.6938 203.4574 C 171.7584 202.7926 171.8231 202.1277 171.8877 201.4628 C 171.9524 200.7979 172.0170 200.1330 172.0817 199.4681 C 172.1463 198.8032 172.2110 198.1383 172.2756 197.4734 C 172.3403 196.8085 172.4049 196.1436 172.4696 195.4787 C 172.5342 194.8138 172.5989 194.1489 172.6635 193.4840 C 172.7282 192.8191 172.7928 192.1543 172.8575 191.4894 C 172.9221 190.8245 172.9868 190.1596 173.0514 189.4947 C 173.1161 188.8298 173.1807 188.1649 173.2453 187.5000 C 173.3100 186.8351 173.3746 186.1702 173.4393 185.5053 C 173.5039 184.8404 173.5686 184.1755 173.6332 183.5106 C 173.6979 182.8457 173.7625 182.1809 173.8272 181.5160 C 173.8918 180.8511 173.9565 180.1862 174.0211 179.5213 C 174.0858 178.8564 174.1504 178.1915 174.2151 177.5266 C 174.2797 176.8617 174.3444 176.1968 174.4090 175.5319 C 174.4737 174.8670 174.5383 174.2021 174.6030 173.5372 C 174.6676 172.8723 174.7323 172.2074 174.7969 171.5426 C 174.8616 170.8777 174.9262 170.2128 174.9909 169.5479 C 175.0555 168.8830 175.1202 168.2181 175.1848 167.5532 C 175.2494 166.8883 175.3141 166.2234 175.3787 165.5585 C 175.4434 164.8936 175.5080 164.2287 175.5727 163.5638 C 175.6373 162.8989 175.7020 162.2340 175.7666 161.5691 C 175.8313 160.9043 175.8959 160.2394 175.9606 159.5745 C 176.0252 158.9096 176.0899 158.2447 176.1545 157.5798 C 176.2192 156.9149 176.2838 156.2500 176.3485 155.5851 C 176.4131 154.9202 176.4778 154.2553 176.5424 153.5904 C 176.6071 152.9255 176.6717 152.2606 176.7364 151.5957 C 176.8010 150.9309 176.8657 150.2660 176.9303 149.6011 C 176.9950 148.9362 177.0596 148.2713 177.1242 147.6064 C 177.1889 146.9415 177.2535 146.2766 177.3182 145.6117 C 177.3828 144.9468 177.4475 144.2819 177.5121 143.6170 C 177.5768 142.9521 177.6414 142.2872 177.7061 141.6223 C 177.7707 140.9574 177.8354 140.2926 177.9000 139.6277 C 177.9647 138.9628 178.0293 138.2979 178.0940 137.6330 C 178.1586 136.9681 178.2233 136.3032 178.2879 135.6383 C 178.3526 134.9734 178.4172 134.3085 178.4819 133.6436 C 178.5465 132.9787 178.6112 132.3138 178.6758 131.6489 C 178.7405 130.9840 178.8051 130.3191 178.8698 129.6543 C 178.9344 128.9894 178.9991 128.3245 179.0637 127.6596 C 179.1283 126.9947 179.1930 126.3298 179.2576 125.6649 C 179.3223 125.0000 179.3869 124.3351 179.4516 123.6702 C 179.5162 123.0053 179.5809 122.3404 179.6455 121.6755 C 179.7102 121.0106 179.7748 120.3457 179.8395 119.6809 C 179.9041 119.0160 179.9688 118.3511 180.0334 117.6862 C 180.0981 117.0213 180.1627 116.3564 180.2274 115.6915 C 180.2920 115.0266 180.3567 114.3617 180.4213 113.6968 C 180.4860 113.0319 180.5506 112.3670 180.6153 111.7021 C 180.6799 111.0372 180.7446 110.3723 180.8092 109.7074 C 180.8739 109.0426 180.9385 108.3777 181.0032 107.7128 C 181.0678 107.0479 181.1324 106.3830 181.1971 105.7181 C 181.2617 105.0532 181.3264 104.3883 181.3910 103.7234 C 181.4557 103.0585 181.5203 102.3936 181.5850 101.7287 C 181.6496 101.0638 181.7143 100.3989 181.7789 99.7340 C 181.8436 99.0691 181.9082 98.4043 181.9729 97.7394 C 182.0375 97.0745 182.1022 96.4096 182.1668 95.7447 C 182.2315 95.0798 182.2961 94.4149 182.3608 93.7500 C 182.4254 93.0851 182.4901 92.4202 182.5547 91.7553 C 182.6194 91.0904 182.6840 90.4255 182.7487 89.7606 C 182.8133 89.0957 182.7250 88.4309 182.9426 87.7660 C 183.1602 87.1011 183.6195 86.4362 184.0545 85.7713 C 184.4894 85.1064 185.0529 84.4415 185.5521 83.7766 C 186.0514 83.1117 186.5506 82.4468 187.0498 81.7819 C 187.5490 81.1170 188.0483 80.4521 188.5475 79.7872 C 189.0467 79.1223 189.5459 78.4574 190.0452 77.7926 C 190.5444 77.1277 191.0436 76.4628 191.5428 75.7979 C 192.0421 75.1330 192.5413 74.4681 193.0405 73.8032 C 193.5397 73.1383 194.0390 72.4734 194.5382 71.8085 C 195.0374 71.1436 195.5366 70.4787 196.0359 69.8138 C 196.5351 69.1489 197.0343 68.4840 197.5335 67.8191 C 198.0328 67.1543 198.5320 66.4894 199.0312 65.8245 C 199.5304 65.1596 200.0297 64.4947 200.5289 63.8298 C 201.0281 63.1649 201.5273 62.5000 202.0266 61.8351 C 202.5258 61.1702 203.0250 60.5053 203.5243 59.8404 C 204.0235 59.1755 204.5227 58.5106 205.0219 57.8457 C 205.5212 57.1809 206.0204 56.5160 206.5196 55.8511 C 207.0188 55.1862 207.5181 54.5213 208.0173 53.8564 C 208.5165 53.1915 209.0157 52.5266 209.5150 51.8617 C 210.0142 51.1968 210.5134 50.5319 211.0126 49.8670 C 211.5119 49.2021 212.0111 48.5372 212.5103 47.8723 C 213.0095 47.2074 213.5088 46.5426 214.0080 45.8777 C 214.5072 45.2128 215.0064 44.5479 215.5057 43.8830 C 216.0049 43.2181 216.5041 42.5532 217.0033 41.8883 C 217.5026 41.2234 218.0018 40.5585 218.5010 39.8936 C 219.0002 39.2287 219.4995 38.5638 219.9987 37.8989 C 220.4979 37.2340 220.9971 36.5691 221.4964 35.9043 C 221.9956 35.2394 222.4948 34.5745 222.9940 33.9096 C 223.4933 33.2447 223.9925 32.5798 224.4917 31.9149 C 224.9909 31.2500 225.4902 30.5851 225.9894 29.9202 C 226.4886 29.2553 227.1520 28.5904 227.4871 27.9255 C 227.8222 27.2606 227.9145 26.5957 228.0000 25.9309 C 228.0855 25.2660 228.0000 24.6011 228.0000 23.9362 C 228.0000 23.2713 228.0000 22.6064 228.0000 21.9415 C 228.0000 21.2766 228.0000 20.6117 228.0000 19.9468 C 228.0000 19.2819 228.0000 18.6170 228.0000 17.9521 C 228.0000 17.2872 228.0000 16.6223 228.0000 15.9574 C 228.0000 15.2926 228.0000 14.6277 228.0000 13.9628 C 228.0000 13.2979 228.0000 12.6330 228.0000 11.9681 C 228.0000 11.3032 228.0000 10.6383 228.0000 9.9734 C 228.0000 9.3085 228.0000 8.6436 228.0000 7.9787 C 228.0000 7.3138 228.0000 6.6489 228.0000 5.9840 C 228.0000 5.3191 228.0000 4.6543 228.0000 3.9894 C 228.0000 3.3245 228.0000 2.6596 228.0000 1.9947 C 228.0000 1.3298 228.0000 0.8324 228.0000 0 C 228.0000 -0.8324 258.0000 -2.5000 228.0000 -3.0000 C 198.0000 -3.5000 78.0000 -3.5000 48.0000 -3.0000 C 18.0000 -2.5000 48.0000 -0.8324 48.0000 0 Z"/>
<path fill="black" stroke="none" fill-rule="nonzero" d="M 120.7916 370.0053 C 126.5277 369.0053 149.4723 369.0053 155.2084 370.0053 C 160.9446 371.0053 155.2408 374.6729 155.2084 376.0053 C 155.1761 377.3378 160.7183 377.6676 155.0145 378.0000 C 149.3107 378.3324 126.6893 378.3324 120.9855 378.0000 C 115.2817 377.6676 120.8239 377.3378 120.7916 376.0053 C 120.7592 374.6729 115.0554 371.0053 120.7916 370.0053 Z"/>
</svg>