<svg xmlns="http://www.w3.org/2000/svg" width="252.0000" height="483.0000" viewBox="-10.0000 -13.0000 252.0000 483.0000">
  <g id="background-glyph" fill="#e0e0e0" stroke="#4169e1" stroke-width="1.0000" opacity="1.0000" transform="matrix(1.0000 0 0 1.0000 0 0)">
  <path transform="matrix(1.0000 0 0 1.0000 -723.6510 -447.8750)" d="M955.526,454.125L955.526,447.875L763.026,447.875L763.026,454.125C773.859,455.375 784.38,457.25 794.589,459.75C804.797,462.25 812.818,467.042 818.651,474.125C821.151,477.042 822.922,481.208 823.964,486.625C825.005,492.042 825.839,498.188 826.464,505.063C827.089,511.938 827.401,519.125 827.401,526.625L827.401,744.125C827.401,755.792 827.297,766.625 827.089,776.625C826.88,786.625 826.776,794.542 826.776,800.375C826.359,812.042 825.63,823.708 824.589,835.375C823.547,847.042 821.776,857.458 819.276,866.625C816.359,876.208 811.672,884.333 805.214,891C798.755,897.667 790.318,901 779.901,901C776.568,901 773.026,900.271 769.276,898.813C765.526,897.354 762.609,895.167 760.526,892.25L760.526,890.375C769.276,889.125 776.568,886.313 782.401,881.938C788.234,877.563 791.151,870.583 791.151,861C791.151,852.667 788.13,845.479 782.089,839.438C776.047,833.396 768.859,830.375 760.526,830.375C750.943,830.375 742.401,833.5 734.901,839.75C727.401,846 723.651,854.125 723.651,864.125C723.651,872.042 725.214,878.813 728.339,884.438C731.464,890.063 735.63,894.438 740.839,897.563C746.047,900.688 751.88,903.083 758.339,904.75C764.797,906.417 771.359,907.25 778.026,907.25C790.109,907.25 803.339,904.958 817.714,900.375C832.089,895.792 845.943,888.292 859.276,877.875C870.109,869.542 878.859,860.479 885.526,850.688C892.193,840.896 895.526,829.125 895.526,815.375L895.526,600.375C895.526,589.958 895.63,579.646 895.839,569.438C896.047,559.229 896.151,548.917 896.151,538.5C896.568,528.917 896.984,518.604 897.401,507.563C897.818,496.521 899.693,487.667 903.026,481C908.443,471 916.359,464.333 926.776,461C937.193,457.667 946.776,455.375 955.526,454.125Z"/>
</g>
  <path fill="black" stroke="none" fill-rule="evenodd" d="M 48.0000 0 L 48.3281 1.9947 L 48.6562 3.9894 L 48.9844 5.9840 L 49.3125 7.9787 L 49.6406 9.9734 L 49.9687 11.9681 L 50.2968 13.9628 L 50.6249 15.9574 L 50.9531 17.9521 L 51.2812 19.9468 L 51.6093 21.9415 L 51.9374 23.9362 L 52.2655 25.9309 L 52.5937 27.9255 L 52.9218 29.9202 L 53.2499 31.9149 L 53.5780 33.9096 L 53.9061 35.9043 L 54.2342 37.8989 L 54.5624 39.8936 L 54.8905 41.8883 L 55.2186 43.8830 L 55.5467 45.8777 L 55.8748 47.8723 L 56.2030 49.8670 L 56.5311 51.8617 L 56.8592 53.8564 L 57.1873 55.8511 L 57.5154 57.8457 L 57.8436 59.8404 L 58.1717 61.8351 L 58.4998 63.8298 L 58.8279 65.8245 L 59.1560 67.8191 L 59.4841 69.8138 L 59.8123 71.8085 L 60.1404 73.8032 L 60.4685 75.7979 L 60.7966 77.7926 L 61.1247 79.7872 L 61.4529 81.7819 L 61.7810 83.7766 L 62.1091 85.7713 L 62.4372 87.7660 L 62.7653 89.7606 L 63.0934 91.7553 L 63.4216 93.7500 L 63.7497 95.7447 L 64.0778 97.7394 L 64.4059 99.7340 L 64.7340 101.7287 L 65.0622 103.7234 L 65.3903 105.7181 L 65.7184 107.7128 L 66.0465 109.7074 L 66.3746 111.7021 L 66.7027 113.6968 L 67.0309 115.6915 L 67.3590 117.6862 L 67.6871 119.6809 L 68.0152 121.6755 L 68.3433 123.6702 L 68.6715 125.6649 L 68.9996 127.6596 L 69.3277 129.6543 L 69.6558 131.6489 L 69.9839 133.6436 L 70.3121 135.6383 L 70.6402 137.6330 L 70.9683 139.6277 L 71.2964 141.6223 L 71.6245 143.6170 L 71.9526 145.6117 L 72.2808 147.6064 L 72.6089 149.6011 L 72.9370 151.5957 L 73.2651 153.5904 L 73.5932 155.5851 L 73.9214 157.5798 L 74.2495 159.5745 L 74.5776 161.5691 L 74.9057 163.5638 L 75.2338 165.5585 L 75.5619 167.5532 L 75.8901 169.5479 L 76.2182 171.5426 L 76.5463 173.5372 L 76.8744 175.5319 L 77.2025 177.5266 L 77.5307 179.5213 L 77.8588 181.5160 L 78.1869 183.5106 L 78.5150 185.5053 L 78.8431 187.5000 L 79.1712 189.4947 L 79.4994 191.4894 L 79.8275 193.4840 L 80.1556 195.4787 L 80.4837 197.4734 L 80.8118 199.4681 L 81.1400 201.4628 L 81.4681 203.4574 L 81.7962 205.4521 L 82.1243 207.4468 L 82.4524 209.4415 L 82.7806 211.4362 L 83.1087 213.4309 L 83.4368 215.4255 L 83.7649 217.4202 L 84.0930 219.4149 L 84.4211 221.4096 L 84.7493 223.4043 L 85.0774 225.3989 L 85.4055 227.3936 L 85.7336 229.3883 L 86.0617 231.3830 L 86.3899 233.3777 L 86.7180 235.3723 L 87.0461 237.3670 L 87.3742 239.3617 L 87.7023 241.3564 L 88.0304 243.3511 L 88.3586 245.3457 L 88.6867 247.3404 L 89.0148 249.3351 L 89.3429 251.3298 L 89.6710 253.3245 L 89.9992 255.3191 L 90.3273 257.3138 L 90.6554 259.3085 L 90.9835 261.3032 L 91.3116 263.2979 L 91.6397 265.2926 L 91.9679 267.2872 L 92.2960 269.2819 L 92.6241 271.2766 L 92.9522 273.2713 L 93.2803 275.2660 L 93.6085 277.2606 L 93.9366 279.2553 L 94.2647 281.2500 L 94.5928 283.2447 L 94.9209 285.2394 L 95.2491 287.2340 L 95.5772 289.2287 L 95.9053 291.2234 L 96.2334 293.2181 L 96.5615 295.2128 L 96.8896 297.2074 L 97.2178 299.2021 L 97.5459 301.1968 L 97.8740 303.1915 L 98.2021 305.1862 L 98.5302 307.1809 L 98.8584 309.1755 L 99.1865 311.1702 L 99.5146 313.1649 L 99.8427 315.1596 L 100.1708 317.1543 L 100.4989 319.1489 L 100.8271 321.1436 L 101.1552 323.1383 L 101.4833 325.1330 L 101.8114 327.1277 L 102.1395 329.1223 L 102.4677 331.1170 L 102.7958 333.1117 L 103.1239 335.1064 L 103.4520 337.1011 L 103.7801 339.0957 L 104.1082 341.0904 L 104.4364 343.0851 L 104.7645 345.0798 L 105.0926 347.0745 L 105.4207 349.0691 L 105.7488 351.0638 L 106.0770 353.0585 L 106.4051 355.0532 L 106.7332 357.0479 L 107.0613 359.0426 L 107.3894 361.0372 L 107.7176 363.0319 L 108.0457 365.0266 L 108.3738 367.0213 L 108.7019 369.0160 L 109.0300 371.0106 L 109.3581 373.0053 L 109.3633 370.0365 L 109.3684 370.0677 L 109.3787 370.1300 L 109.3992 370.2547 L 109.4402 370.5040 L 109.5222 371.0027 L 109.6863 372.0000 L 109.8055 373.9008 L 109.9248 375.8015 L 110.0441 377.7023 L 110.1634 379.6030 L 110.2826 381.5038 L 110.4019 383.4046 L 110.5212 385.3053 L 110.6405 387.2061 L 110.7597 389.1069 L 110.8790 391.0076 L 110.9983 392.9084 L 110.8366 394.7480 L 110.5353 396.5572 L 110.2340 398.3664 L 109.9327 400.1756 L 109.6307 401.9848 L 109.3287 403.7940 L 109.0267 405.6032 L 108.7247 407.4124 L 108.4227 409.2216 L 108.1207 411.0309 L 107.4969 412.6858 L 106.7837 414.2980 L 106.0705 415.9102 L 105.3573 417.5224 L 104.6441 419.1345 L 103.9309 420.7467 L 103.2177 422.3589 L 102.5045 423.9711 L 101.7913 425.5832 L 100.7941 426.9641 L 99.7364 428.2957 L 98.6786 429.6273 L 97.6209 430.9590 L 96.5632 432.2906 L 95.5055 433.6222 L 94.4478 434.9538 L 93.3901 436.2855 L 92.2310 437.4877 L 90.9227 438.4996 L 89.6145 439.5115 L 88.3063 440.5235 L 86.9980 441.5354 L 85.6898 442.5473 L 84.3815 443.5592 L 83.0717 444.5711 L 81.7124 445.4839 L 80.2410 446.1725 L 78.7696 446.8611 L 77.2983 447.5497 L 75.8269 448.2383 L 74.3555 448.9269 L 72.8841 449.6155 L 71.4127 450.3041 L 69.8860 450.7692 L 68.2993 450.9924 L 66.7126 451.2156 L 65.1259 451.4387 L 63.5392 451.6619 L 61.9525 451.8851 L 58.2111 452.3633 L 54.4697 452.8415 L 50.7284 453.3197 L 46.9870 453.7979 L 46.0723 453.6055 L 45.8436 453.5574 L 62.1603 453.5454 L 62.0930 453.5334 L 61.9583 453.5093 L 61.4198 453.4131 L 59.2656 453.0284 L 54.9731 452.0190 L 50.6807 451.0096 L 46.3882 450.0003 L 42.0957 448.9909 L 38.1503 447.2963 L 34.6640 444.6950 L 31.7157 441.6965 L 29.8343 437.9098 L 29.4721 435.9602 L 29.3816 435.4728 L 29.3589 435.3509 L 29.3476 441.2900 L 29.3363 441.2291 L 29.2910 440.9854 L 29.1099 440.0106 L 29.5824 435.9948 L 30.7477 432.2847 L 32.8512 428.9883 L 34.9546 425.6920 L 37.5028 422.8246 L 40.3846 420.2790 L 43.2663 417.7333 L 46.1480 415.1876 L 49.2259 412.9356 L 52.4807 410.9485 L 55.7355 408.9614 L 58.9904 406.9742 L 62.2452 404.9871 L 65.5000 403.0000 L 65.5000 397.0000 L 64.5000 397.0000 L 60.5957 398.9871 L 56.6914 400.9742 L 52.7872 402.9614 L 48.8829 404.9485 L 44.9786 406.9356 L 41.2513 409.1876 L 37.7201 411.7333 L 34.1889 414.2790 L 30.6577 416.8246 L 27.4601 419.6920 L 24.7072 422.9883 L 21.9543 426.2847 L 20.1395 429.9948 L 19.0175 434.0106 L 19.0363 434.9854 L 19.0410 435.2291 L 19.0421 435.2900 L 19.0433 441.3509 L 19.0456 441.4728 L 19.0550 441.9602 L 19.0925 443.9098 L 20.3244 447.6965 L 22.6233 450.6950 L 25.4601 453.2963 L 28.7561 454.9909 L 32.3991 456.0003 L 36.0421 457.0096 L 39.6851 458.0190 L 43.3281 459.0284 L 45.1576 459.4131 L 45.6149 459.5093 L 45.7293 459.5334 L 45.7864 459.5454 L 62.2276 459.5574 L 62.4969 459.6055 L 63.5739 459.7979 L 67.9648 459.3197 L 72.3556 458.8415 L 76.7464 458.3633 L 81.1372 457.8851 L 83.3456 457.6619 L 85.5539 457.4387 L 87.7622 457.2156 L 89.9705 456.9924 L 92.1788 456.7692 L 94.3272 456.3041 L 96.4202 455.6155 L 98.5132 454.9269 L 100.6062 454.2383 L 102.6992 453.5497 L 104.7922 452.8611 L 106.8851 452.1725 L 108.9781 451.4839 L 110.9591 450.5711 L 112.8905 449.5592 L 114.8235 448.5473 L 116.7565 447.5354 L 118.6895 446.5235 L 120.6224 445.5115 L 122.5554 444.4996 L 124.4884 443.4877 L 126.2722 442.2855 L 127.9547 440.9538 L 129.6371 439.6222 L 131.3196 438.2906 L 133.0020 436.9590 L 134.6845 435.6273 L 136.3669 434.2957 L 138.0494 432.9641 L 139.6713 431.5832 L 141.0087 429.9711 L 142.3462 428.3589 L 143.6836 426.7467 L 145.0210 425.1345 L 146.3584 423.5224 L 147.6958 421.9102 L 149.0332 420.2980 L 150.3706 418.6858 L 151.6187 417.0309 L 152.5449 415.2216 L 153.4711 413.4124 L 154.3973 411.6032 L 155.3235 409.7940 L 156.2497 407.9848 L 157.1759 406.1756 L 158.1028 404.3664 L 159.0297 402.5572 L 159.9567 400.7480 L 160.7440 398.9084 L 161.2503 397.0076 L 161.7567 395.1069 L 162.2630 393.2061 L 162.7693 391.3053 L 163.2757 389.4046 L 163.7820 387.5038 L 164.2884 385.6030 L 164.7947 383.7023 L 165.3011 381.8015 L 165.8074 379.9008 L 166.3137 378.0000 L 166.4778 377.0027 L 166.5598 376.5040 L 166.6008 376.2547 L 166.6213 376.1300 L 166.6316 376.0677 L 166.6367 376.0365 L 166.6419 373.0053 L 166.9700 371.0106 L 167.2981 369.0160 L 167.6262 367.0213 L 167.9543 365.0266 L 168.2824 363.0319 L 168.6106 361.0372 L 168.9387 359.0426 L 169.2668 357.0479 L 169.5949 355.0532 L 169.9230 353.0585 L 170.2512 351.0638 L 170.5793 349.0691 L 170.9074 347.0745 L 171.2355 345.0798 L 171.5636 343.0851 L 171.8918 341.0904 L 172.2199 339.0957 L 172.5480 337.1011 L 172.8761 335.1064 L 173.2042 333.1117 L 173.5323 331.1170 L 173.8605 329.1223 L 174.1886 327.1277 L 174.5167 325.1330 L 174.8448 323.1383 L 175.1729 321.1436 L 175.5011 319.1489 L 175.8292 317.1543 L 176.1573 315.1596 L 176.4854 313.1649 L 176.8135 311.1702 L 177.1416 309.1755 L 177.4698 307.1809 L 177.7979 305.1862 L 178.1260 303.1915 L 178.4541 301.1968 L 178.7822 299.2021 L 179.1104 297.2074 L 179.4385 295.2128 L 179.7666 293.2181 L 180.0947 291.2234 L 180.4228 289.2287 L 180.7509 287.2340 L 181.0791 285.2394 L 181.4072 283.2447 L 181.7353 281.2500 L 182.0634 279.2553 L 182.3915 277.2606 L 182.7197 275.2660 L 183.0478 273.2713 L 183.3759 271.2766 L 183.7040 269.2819 L 184.0321 267.2872 L 184.3603 265.2926 L 184.6884 263.2979 L 185.0165 261.3032 L 185.3446 259.3085 L 185.6727 257.3138 L 186.0008 255.3191 L 186.3290 253.3245 L 186.6571 251.3298 L 186.9852 249.3351 L 187.3133 247.3404 L 187.6414 245.3457 L 187.9696 243.3511 L 188.2977 241.3564 L 188.6258 239.3617 L 188.9539 237.3670 L 189.2820 235.3723 L 189.6101 233.3777 L 189.9383 231.3830 L 190.2664 229.3883 L 190.5945 227.3936 L 190.9226 225.3989 L 191.2507 223.4043 L 191.5789 221.4096 L 191.9070 219.4149 L 192.2351 217.4202 L 192.5632 215.4255 L 192.8913 213.4309 L 193.2194 211.4362 L 193.5476 209.4415 L 193.8757 207.4468 L 194.2038 205.4521 L 194.5319 203.4574 L 194.8600 201.4628 L 195.1882 199.4681 L 195.5163 197.4734 L 195.8444 195.4787 L 196.1725 193.4840 L 196.5006 191.4894 L 196.8288 189.4947 L 197.1569 187.5000 L 197.4850 185.5053 L 197.8131 183.5106 L 198.1412 181.5160 L 198.4693 179.5213 L 198.7975 177.5266 L 199.1256 175.5319 L 199.4537 173.5372 L 199.7818 171.5426 L 200.1099 169.5479 L 200.4381 167.5532 L 200.7662 165.5585 L 201.0943 163.5638 L 201.4224 161.5691 L 201.7505 159.5745 L 202.0786 157.5798 L 202.4068 155.5851 L 202.7349 153.5904 L 203.0630 151.5957 L 203.3911 149.6011 L 203.7192 147.6064 L 204.0474 145.6117 L 204.3755 143.6170 L 204.7036 141.6223 L 205.0317 139.6277 L 205.3598 137.6330 L 205.6879 135.6383 L 206.0161 133.6436 L 206.3442 131.6489 L 206.6723 129.6543 L 207.0004 127.6596 L 207.3285 125.6649 L 207.6567 123.6702 L 207.9848 121.6755 L 208.3129 119.6809 L 208.6410 117.6862 L 208.9691 115.6915 L 209.2973 113.6968 L 209.6254 111.7021 L 209.9535 109.7074 L 210.2816 107.7128 L 210.6097 105.7181 L 210.9378 103.7234 L 211.2660 101.7287 L 211.5941 99.7340 L 211.9222 97.7394 L 212.2503 95.7447 L 212.5784 93.7500 L 212.9066 91.7553 L 213.2347 89.7606 L 213.5628 87.7660 L 213.8909 85.7713 L 214.2190 83.7766 L 214.5471 81.7819 L 214.8753 79.7872 L 215.2034 77.7926 L 215.5315 75.7979 L 215.8596 73.8032 L 216.1877 71.8085 L 216.5159 69.8138 L 216.8440 67.8191 L 217.1721 65.8245 L 217.5002 63.8298 L 217.8283 61.8351 L 218.1564 59.8404 L 218.4846 57.8457 L 218.8127 55.8511 L 219.1408 53.8564 L 219.4689 51.8617 L 219.7970 49.8670 L 220.1252 47.8723 L 220.4533 45.8777 L 220.7814 43.8830 L 221.1095 41.8883 L 221.4376 39.8936 L 221.7658 37.8989 L 222.0939 35.9043 L 222.4220 33.9096 L 222.7501 31.9149 L 223.0782 29.9202 L 223.4063 27.9255 L 223.7345 25.9309 L 224.0626 23.9362 L 224.3907 21.9415 L 224.7188 19.9468 L 225.0469 17.9521 L 225.3751 15.9574 L 225.7032 13.9628 L 226.0313 11.9681 L 226.3594 9.9734 L 226.6875 7.9787 L 227.0156 5.9840 L 227.3438 3.9894 L 227.6719 1.9947 L 228.0000 0 L 228.0000 -3.0000 L 48.0000 -3.0000 L 48.0000 0 Z"/>
<path fill="black" stroke="none" fill-rule="evenodd" d="M 109.3581 370.0053 L 166.6419 370.0053 L 166.6419 376.0053 L 166.3137 378.0000 L 109.6863 378.0000 L 109.3581 376.0053 L 109.3581 370.0053 Z"/>
</svg>