<svg xmlns="http://www.w3.org/2000/svg" width="252.0000" height="543.1993" viewBox="-10.0000 -56.3692 252.0000 543.1993">
  <g id="background-glyph" fill="#e0e0e0" stroke="#4169e1" stroke-width="1.0000" opacity="1.0000" transform="matrix(1.0000 0 0 1.0000 0 0)">
  <path transform="matrix(1.0000 0 0 1.0000 -723.6510 -447.8750)" d="M955.526,454.125L955.526,447.875L763.026,447.875L763.026,454.125C773.859,455.375 784.38,457.25 794.589,459.75C804.797,462.25 812.818,467.042 818.651,474.125C821.151,477.042 822.922,481.208 823.964,486.625C825.005,492.042 825.839,498.188 826.464,505.063C827.089,511.938 827.401,519.125 827.401,526.625L827.401,744.125C827.401,755.792 827.297,766.625 827.089,776.625C826.88,786.625 826.776,794.542 826.776,800.375C826.359,812.042 825.63,823.708 824.589,835.375C823.547,847.042 821.776,857.458 819.276,866.625C816.359,876.208 811.672,884.333 805.214,891C798.755,897.667 790.318,901 779.901,901C776.568,901 773.026,900.271 769.276,898.813C765.526,897.354 762.609,895.167 760.526,892.25L760.526,890.375C769.276,889.125 776.568,886.313 782.401,881.938C788.234,877.563 791.151,870.583 791.151,861C791.151,852.667 788.13,845.479 782.089,839.438C776.047,833.396 768.859,830.375 760.526,830.375C750.943,830.375 742.401,833.5 734.901,839.75C727.401,846 723.651,854.125 723.651,864.125C723.651,872.042 725.214,878.813 728.339,884.438C731.464,890.063 735.63,894.438 740.839,897.563C746.047,900.688 751.88,903.083 758.339,904.75C764.797,906.417 771.359,907.25 778.026,907.25C790.109,907.25 803.339,904.958 817.714,900.375C832.089,895.792 845.943,888.292 859.276,877.875C870.109,869.542 878.859,860.479 885.526,850.688C892.193,840.896 895.526,829.125 895.526,815.375L895.526,600.375C895.526,589.958 895.63,579.646 895.839,569.438C896.047,559.229 896.151,548.917 896.151,538.5C896.568,528.917 896.984,518.604 897.401,507.563C897.818,496.521 899.693,487.667 903.026,481C908.443,471 916.359,464.333 926.776,461C937.193,457.667 946.776,455.375 955.526,454.125Z"/>
</g>
  <path fill="black" stroke="none" fill-rule="nonzero" d="M 46.7911 -41.0052 C 46.8487 -40.3403 46.9063 -39.6754 46.9639 -39.0105 C 47.0216 -38.3456 47.0792 -37.6807 47.1368 -37.0158 C 47.1944 -36.3509 46.1122 -36.2573 47.3096 -35.0211 C 48.5071 -33.7849 52.0792 -31.3586 54.3217 -29.5986 C 56.5642 -27.8387 58.7161 -26.1241 60.7646 -24.4614 C 62.8132 -22.7986 64.7567 -21.1885 66.6129 -19.6221 C 68.4691 -18.0558 70.2262 -16.5391 71.9016 -15.0634 C 73.5770 -13.5876 75.1593 -12.1586 76.6653 -10.7677 C 78.1713 -9.3769 79.5900 -8.0299 80.9377 -6.7184 C 82.2854 -5.4068 83.5514 -4.1363 84.7518 -2.8987 C 85.9521 -1.6611 87.0762 -0.4616 88.1397 0.7074 C 89.2033 1.8765 90.1959 3.0100 91.1330 4.1157 C 92.0701 5.2214 92.9415 6.2942 93.7622 7.3415 C 94.5828 8.3889 95.3430 9.4059 96.0570 10.3998 C 96.7711 11.3937 97.4296 12.3597 98.0465 13.3049 C 98.6634 14.2501 99.2296 15.1699 99.7585 16.0711 C 100.2875 16.9722 100.7704 17.8502 101.2203 18.7118 C 101.6702 19.5733 102.0792 20.4142 102.4580 21.2401 C 102.8368 22.0661 103.1778 22.8731 103.4932 23.6674 C 103.8086 24.4617 104.0895 25.2388 104.3504 26.0059 C 104.6113 26.7729 104.8437 27.5257 105.0584 28.2696 C 105.2732 29.0135 105.4632 29.7451 105.6387 30.4693 C 105.8143 31.1936 105.9687 31.9072 106.1115 32.6151 C 106.2544 33.3230 106.3795 34.0220 106.4958 34.7166 C 106.6122 35.4112 106.7140 36.0985 106.8095 36.7827 C 106.9049 37.4668 106.9889 38.1452 107.0687 38.8215 C 107.1486 39.4978 107.2197 40.1697 107.2885 40.8405 C 107.3574 41.5113 107.4201 42.1790 107.4821 42.8464 C 107.5440 43.5137 107.6021 44.1791 107.6605 44.8447 C 107.7189 45.5102 107.8007 46.1749 107.8327 46.8398 C 107.8647 47.5048 107.8520 48.1696 107.8526 48.8345 C 107.8532 49.4994 107.8417 50.1643 107.8362 50.8292 C 107.8307 51.4941 107.8252 52.1590 107.8197 52.8239 C 107.8142 53.4888 107.8087 54.1537 107.8032 54.8186 C 107.7977 55.4835 107.7923 56.1483 107.7868 56.8132 C 107.7813 57.4781 107.7758 58.1430 107.7703 58.8079 C 107.7648 59.4728 107.7593 60.1377 107.7538 60.8026 C 107.7484 61.4675 107.7429 62.1324 107.7374 62.7973 C 107.7319 63.4622 107.7264 64.1271 107.7209 64.7920 C 107.7154 65.4569 107.7099 66.1218 107.7045 66.7866 C 107.6990 67.4515 107.6935 68.1164 107.6880 68.7813 C 107.6825 69.4462 107.6770 70.1111 107.6715 70.7760 C 107.6660 71.4409 107.6606 72.1058 107.6551 72.7707 C 107.6496 73.4356 107.6441 74.1005 107.6386 74.7654 C 107.6331 75.4303 107.6276 76.0952 107.6221 76.7601 C 107.6167 77.4249 107.6112 78.0898 107.6057 78.7547 C 107.6002 79.4196 107.5947 80.0845 107.5892 80.7494 C 107.5837 81.4143 107.5782 82.0792 107.5727 82.7441 C 107.5673 83.4090 107.5618 84.0739 107.5563 84.7388 C 107.5508 85.4037 107.5453 86.0686 107.5398 86.7335 C 107.5343 87.3983 107.5288 88.0632 107.5234 88.7281 C 107.5179 89.3930 107.5124 90.0579 107.5069 90.7228 C 107.5014 91.3877 107.4959 92.0526 107.4904 92.7175 C 107.4849 93.3824 107.4795 94.0473 107.4740 94.7122 C 107.4685 95.3771 107.4630 96.0420 107.4575 96.7069 C 107.4520 97.3718 107.4465 98.0366 107.4410 98.7015 C 107.4356 99.3664 107.4301 100.0313 107.4246 100.6962 C 107.4191 101.3611 107.4136 102.0260 107.4081 102.6909 C 107.4026 103.3558 107.3971 104.0207 107.3916 104.6856 C 107.3862 105.3505 107.3807 106.0154 107.3752 106.6803 C 107.3697 107.3452 107.3642 108.0101 107.3587 108.6749 C 107.3532 109.3398 107.3477 110.0047 107.3423 110.6696 C 107.3368 111.3345 107.3313 111.9994 107.3258 112.6643 C 107.3203 113.3292 107.3148 113.9941 107.3093 114.6590 C 107.3038 115.3239 107.2984 115.9888 107.2929 116.6537 C 107.2874 117.3186 107.2819 117.9835 107.2764 118.6483 C 107.2709 119.3132 107.2654 119.9781 107.2599 120.6430 C 107.2545 121.3079 107.2490 121.9728 107.2435 122.6377 C 107.2380 123.3026 107.2325 123.9675 107.2270 124.6324 C 107.2215 125.2973 107.2160 125.9622 107.2106 126.6271 C 107.2051 127.2920 107.1996 127.9569 107.1941 128.6218 C 107.1886 129.2866 107.1831 129.9515 107.1776 130.6164 C 107.1721 131.2813 107.1666 131.9462 107.1612 132.6111 C 107.1557 133.2760 107.1502 133.9409 107.1447 134.6058 C 107.1392 135.2707 107.1337 135.9356 107.1282 136.6005 C 107.1227 137.2654 107.1173 137.9303 107.1118 138.5952 C 107.1063 139.2601 107.1008 139.9249 107.0953 140.5898 C 107.0898 141.2547 107.0843 141.9196 107.0788 142.5845 C 107.0734 143.2494 107.0679 143.9143 107.0624 144.5792 C 107.0569 145.2441 107.0514 145.9090 107.0459 146.5739 C 107.0404 147.2388 107.0349 147.9037 107.0295 148.5686 C 107.0240 149.2335 107.0185 149.8983 107.0130 150.5632 C 107.0075 151.2281 107.0020 151.8930 106.9965 152.5579 C 106.9910 153.2228 106.9856 153.8877 106.9801 154.5526 C 106.9746 155.2175 106.9691 155.8824 106.9636 156.5473 C 106.9581 157.2122 106.9526 157.8771 106.9471 158.5420 C 106.9416 159.2069 106.9362 159.8718 106.9307 160.5366 C 106.9252 161.2015 106.9197 161.8664 106.9142 162.5313 C 106.9087 163.1962 106.9032 163.8611 106.8977 164.5260 C 106.8923 165.1909 106.8868 165.8558 106.8813 166.5207 C 106.8758 167.1856 106.8703 167.8505 106.8648 168.5154 C 106.8593 169.1803 106.8538 169.8452 106.8484 170.5101 C 106.8429 171.1749 106.8374 171.8398 106.8319 172.5047 C 106.8264 173.1696 106.8209 173.8345 106.8154 174.4994 C 106.8099 175.1643 106.8045 175.8292 106.7990 176.4941 C 106.7935 177.1590 106.7880 177.8239 106.7825 178.4888 C 106.7770 179.1537 106.7715 179.8186 106.7660 180.4835 C 106.7606 181.1483 106.7551 181.8132 106.7496 182.4781 C 106.7441 183.1430 106.7386 183.8079 106.7331 184.4728 C 106.7276 185.1377 106.7221 185.8026 106.7166 186.4675 C 106.7112 187.1324 106.7057 187.7973 106.7002 188.4622 C 106.6947 189.1271 106.6892 189.7920 106.6837 190.4569 C 106.6782 191.1218 106.6727 191.7866 106.6673 192.4515 C 106.6618 193.1164 106.6563 193.7813 106.6508 194.4462 C 106.6453 195.1111 106.6398 195.7760 106.6343 196.4409 C 106.6288 197.1058 106.6234 197.7707 106.6179 198.4356 C 106.6124 199.1005 106.6069 199.7654 106.6014 200.4303 C 106.5959 201.0952 106.5904 201.7601 106.5849 202.4249 C 106.5795 203.0898 106.5740 203.7547 106.5685 204.4196 C 106.5630 205.0845 106.5575 205.7494 106.5520 206.4143 C 106.5465 207.0792 106.5410 207.7441 106.5356 208.4090 C 106.5301 209.0739 106.5246 209.7388 106.5191 210.4037 C 106.5136 211.0686 106.5081 211.7335 106.5026 212.3983 C 106.4971 213.0632 106.4916 213.7281 106.4862 214.3930 C 106.4807 215.0579 106.4752 215.7228 106.4697 216.3877 C 106.4642 217.0526 106.4587 217.7175 106.4532 218.3824 C 106.4477 219.0473 106.4422 219.7122 106.4367 220.3771 C 106.4312 221.0420 106.4258 221.7069 106.4203 222.3718 C 106.4148 223.0366 106.4093 223.7015 106.4038 224.3664 C 106.3983 225.0313 106.3928 225.6962 106.3873 226.3611 C 106.3818 227.0260 106.3763 227.6909 106.3708 228.3558 C 106.3654 229.0207 106.3599 229.6856 106.3544 230.3505 C 106.3489 231.0154 106.3434 231.6803 106.3379 232.3452 C 106.3324 233.0101 106.3269 233.6749 106.3214 234.3398 C 106.3159 235.0047 106.3104 235.6696 106.3050 236.3345 C 106.2995 236.9994 106.2940 237.6643 106.2885 238.3292 C 106.2830 238.9941 106.2775 239.6590 106.2720 240.3239 C 106.2665 240.9888 106.2610 241.6537 106.2555 242.3186 C 106.2500 242.9835 106.2446 243.6483 106.2391 244.3132 C 106.2336 244.9781 106.2281 245.6430 106.2226 246.3079 C 106.2171 246.9728 106.2116 247.6377 106.2061 248.3026 C 106.2006 248.9675 106.1951 249.6324 106.1896 250.2973 C 106.1842 250.9622 106.1787 251.6271 106.1732 252.2920 C 106.1677 252.9569 106.1622 253.6218 106.1567 254.2866 C 106.1512 254.9515 106.1457 255.6164 106.1402 256.2813 C 106.1347 256.9462 106.1293 257.6111 106.1238 258.2760 C 106.1183 258.9409 106.1128 259.6058 106.1073 260.2707 C 106.1018 260.9356 106.0963 261.6005 106.0908 262.2654 C 106.0853 262.9303 106.0798 263.5952 106.0743 264.2601 C 106.0689 264.9249 106.0634 265.5898 106.0579 266.2547 C 106.0524 266.9196 106.0469 267.5845 106.0414 268.2494 C 106.0359 268.9143 106.0304 269.5792 106.0249 270.2441 C 106.0194 270.9090 106.0139 271.5739 106.0085 272.2388 C 106.0030 272.9037 105.9975 273.5686 105.9920 274.2335 C 105.9865 274.8983 105.9810 275.5632 105.9755 276.2281 C 105.9700 276.8930 105.9645 277.5579 105.9590 278.2228 C 105.9535 278.8877 105.9481 279.5526 105.9426 280.2175 C 105.9371 280.8824 105.9316 281.5473 105.9261 282.2122 C 105.9206 282.8771 105.9151 283.5420 105.9096 284.2069 C 105.9041 284.8718 105.8986 285.5366 105.8931 286.2015 C 105.8877 286.8664 105.8822 287.5313 105.8767 288.1962 C 105.8712 288.8611 105.8657 289.5260 105.8602 290.1909 C 105.8547 290.8558 105.8492 291.5207 105.8437 292.1856 C 105.8382 292.8505 105.8327 293.5154 105.8273 294.1803 C 105.8218 294.8452 105.8163 295.5101 105.8108 296.1749 C 105.8053 296.8398 105.7998 297.5047 105.7943 298.1696 C 105.7888 298.8345 105.7833 299.4994 105.7778 300.1643 C 105.7723 300.8292 105.7669 301.4941 105.7614 302.1590 C 105.7559 302.8239 105.7504 303.4888 105.7449 304.1537 C 105.7394 304.8186 105.7339 305.4835 105.7284 306.1483 C 105.7229 306.8132 105.7174 307.4781 105.7120 308.1430 C 105.7065 308.8079 105.7010 309.4728 105.6955 310.1377 C 105.6900 310.8026 105.6845 311.4675 105.6790 312.1324 C 105.6735 312.7973 105.6680 313.4622 105.6625 314.1271 C 105.6570 314.7920 105.6516 315.4569 105.6461 316.1218 C 105.6406 316.7866 105.6351 317.4515 105.6296 318.1164 C 105.6241 318.7813 105.6186 319.4462 105.6131 320.1111 C 105.6076 320.7760 105.6021 321.4409 105.5966 322.1058 C 105.5912 322.7707 105.5857 323.4356 105.5802 324.1005 C 105.5747 324.7654 105.5692 325.4303 105.5637 326.0952 C 105.5581 326.7601 105.5526 327.4249 105.5471 328.0898 C 105.5416 328.7547 105.5361 329.4196 105.5305 330.0845 C 105.5250 330.7494 105.5195 331.4143 105.5140 332.0792 C 105.5085 332.7441 105.5030 333.4090 105.4974 334.0739 C 105.4919 334.7388 105.4864 335.4037 105.4809 336.0686 C 105.4754 336.7335 105.4698 337.3983 105.4643 338.0632 C 105.4588 338.7281 105.4533 339.3930 105.4478 340.0579 C 105.4423 340.7228 105.4367 341.3877 105.4312 342.0526 C 105.4257 342.7175 105.4202 343.3824 105.4147 344.0473 C 105.4091 344.7122 105.4036 345.3771 105.3981 346.0420 C 105.3926 346.7069 105.3873 347.3718 105.3816 348.0366 C 105.3758 348.7015 105.3738 349.3664 105.3635 350.0313 C 105.3531 350.6962 105.3341 351.3611 105.3195 352.0261 C 105.3049 352.6910 105.2903 353.3560 105.2760 354.0211 C 105.2617 354.6862 105.2474 355.3513 105.2334 356.0166 C 105.2195 356.6818 105.2056 357.3472 105.1921 358.0127 C 105.1786 358.6782 105.0532 359.6156 105.1523 360.0095 C 105.2515 360.4034 105.7016 360.0156 105.7871 360.3761 C 105.8725 360.7367 105.7053 361.5737 105.6649 362.1728 C 105.6245 362.7719 105.5844 363.3711 105.5447 363.9706 C 105.5050 364.5700 105.4657 365.1697 105.4267 365.7696 C 105.3878 366.3695 105.3492 366.9696 105.3111 367.5699 C 105.2730 368.1702 105.2352 368.7708 105.1980 369.3717 C 105.1607 369.9725 105.1105 370.7992 105.0876 371.1749 C 105.0646 371.5507 104.7873 372.0374 105.0604 371.6260 C 105.3335 371.2146 106.4735 369.0446 106.7262 368.7067 C 106.9790 368.3688 106.6512 369.1524 106.5769 369.5985 C 106.5027 370.0447 106.3788 370.7883 106.2805 371.3837 C 106.1822 371.9791 106.0844 372.5749 105.9871 373.1710 C 105.8898 373.7671 105.7930 374.3636 105.6968 374.9605 C 105.6005 375.5574 105.5048 376.1547 105.4097 376.7523 C 105.3145 377.3500 104.8219 378.7325 105.1260 378.5466 C 105.4300 378.3607 106.9027 376.0487 107.2340 375.6368 C 107.5653 375.2250 107.1737 375.8560 107.1137 376.0753 C 107.0536 376.2945 106.9932 376.5135 106.8736 376.9524 C 106.7540 377.3914 106.5546 378.1229 106.3959 378.7088 C 106.2373 379.2948 106.0791 379.8812 105.9216 380.4682 C 105.7640 381.0551 105.6070 381.6426 105.4506 382.2306 C 105.2942 382.8186 105.0805 383.6284 104.9832 383.9963 C 104.8860 384.3642 104.4603 384.8230 104.8670 384.4382 C 105.2736 384.0534 107.0527 382.0041 107.4231 381.6877 C 107.7936 381.3712 107.2559 382.1131 107.0896 382.5395 C 106.9232 382.9659 106.6460 383.6766 106.4250 384.2461 C 106.2040 384.8156 105.9836 385.3858 105.7639 385.9566 C 105.5441 386.5275 105.3249 387.0990 105.1063 387.6712 C 104.8877 388.2434 104.6155 388.9600 104.4523 389.3899 C 104.2890 389.8199 103.7030 390.5197 104.1267 390.2509 C 104.5504 389.9821 106.5518 388.1212 106.9943 387.7770 C 107.4369 387.4328 106.9586 387.8446 106.7818 388.1858 C 106.6050 388.5270 106.2159 389.2772 105.9338 389.8241 C 105.6516 390.3710 105.3701 390.9187 105.0891 391.4673 C 104.8081 392.0158 104.5276 392.5652 104.2478 393.1155 C 103.9680 393.6658 103.5845 394.4243 103.4101 394.7689 C 103.2356 395.1135 102.7173 395.4587 103.2012 395.1831 C 103.6851 394.9075 105.8802 393.3310 106.3135 393.1155 C 106.7469 392.9000 106.0569 393.5021 105.8011 393.8902 C 105.5452 394.2783 105.1188 394.9252 104.7784 395.4441 C 104.4381 395.9630 104.0982 396.4829 103.7589 397.0039 C 103.4195 397.5248 103.0807 398.0467 102.7424 398.5697 C 102.4041 399.0926 101.3678 400.1499 101.7292 400.1416 C 102.0906 400.1334 104.4300 398.7300 104.9108 398.5202 C 105.3916 398.3104 104.7623 398.7012 104.6140 398.8826 C 104.4657 399.0641 104.3172 399.2449 104.0210 399.6088 C 103.7248 399.9727 103.2311 400.5791 102.8368 401.0660 C 102.4425 401.5530 102.0486 402.0410 101.6552 402.5302 C 101.2618 403.0194 100.7709 403.6331 100.4763 404.0013 C 100.1817 404.3696 99.4632 404.8091 99.8878 404.7396 C 100.3124 404.6701 102.5569 403.7209 103.0240 403.5842 C 103.4912 403.4475 102.9683 403.6393 102.6907 403.9194 C 102.4131 404.1995 101.8022 404.8151 101.3584 405.2649 C 100.9147 405.7147 100.4712 406.1657 100.0281 406.6180 C 99.5850 407.0704 99.1422 407.5240 98.6998 407.9789 C 98.2574 408.4338 97.1001 409.2429 97.3735 409.3476 C 97.6469 409.4524 99.9066 408.6795 100.3401 408.6072 C 100.7736 408.5350 100.1572 408.7604 99.9743 408.9142 C 99.7915 409.0679 99.6085 409.2209 99.2430 409.5297 C 98.8775 409.8384 98.2683 410.3530 97.7812 410.7668 C 97.2941 411.1806 96.8073 411.5958 96.3206 412.0124 C 95.8340 412.4291 95.1653 413.0051 94.8613 413.2666 C 94.5573 413.5281 94.0994 413.5895 94.4967 413.5815 C 94.8939 413.5734 96.9182 413.1861 97.2448 413.2183 C 97.5714 413.2506 96.8504 413.4955 96.4562 413.7749 C 96.0620 414.0543 95.4049 414.5199 94.8793 414.8947 C 94.3538 415.2695 93.8283 415.6457 93.3028 416.0235 C 92.7774 416.4013 92.1207 416.8764 91.7267 417.1614 C 91.3327 417.4465 90.4299 417.6617 90.9388 417.7339 C 91.4477 417.8060 94.2114 417.5791 94.7799 417.5943 C 95.3485 417.6095 94.7084 417.6318 94.3500 417.8249 C 93.9916 418.0180 93.2033 418.4421 92.6297 418.7530 C 92.0561 419.0639 91.4824 419.3764 90.9085 419.6906 C 90.3346 420.0047 89.7606 420.3204 89.1864 420.6377 C 88.6122 420.9550 88.0378 421.2740 87.4633 421.5945 C 86.8888 421.9151 86.3142 422.2373 85.7393 422.5612 C 85.1645 422.8850 84.5895 423.2105 84.0144 423.5377 C 83.4392 423.8649 82.8639 424.1938 82.2885 424.5243 C 81.7130 424.8549 80.1241 425.2925 80.5616 425.5211 C 80.9991 425.7496 84.2662 425.8042 84.9134 425.8957 C 85.5606 425.9872 84.6792 425.9824 84.4448 426.0698 C 84.2104 426.1572 83.9763 426.2436 83.5071 426.4199 C 83.0379 426.5962 82.2559 426.8901 81.6296 427.1277 C 81.0033 427.3653 80.3766 427.6047 79.7494 427.8457 C 79.1221 428.0867 78.4945 428.3295 77.8663 428.5740 C 77.2381 428.8184 76.6095 429.0647 75.9803 429.3126 C 75.3512 429.5606 74.7216 429.8103 74.0915 430.0618 C 73.4614 430.3133 72.8309 430.5666 72.1998 430.8216 C 71.5687 431.0767 70.0271 431.3203 70.3051 431.5922 C 70.5832 431.8641 73.3576 432.2906 73.8681 432.4531 C 74.3786 432.6156 73.6182 432.5098 73.3681 432.5672 C 73.1179 432.6246 72.8682 432.6811 72.3671 432.7975 C 71.8660 432.9139 71.0309 433.1079 70.3616 433.2658 C 69.6923 433.4236 69.0222 433.5831 68.3512 433.7444 C 67.6803 433.9058 67.0086 434.0688 66.3360 434.2336 C 65.6635 434.3985 64.9901 434.5650 64.3159 434.7334 C 63.6417 434.9018 62.9667 435.0720 62.2909 435.2440 C 61.6150 435.4159 60.6839 435.6564 60.2608 435.7653 C 59.8377 435.8742 59.3193 435.6610 59.7525 435.8973 C 60.1857 436.1337 62.5170 436.9552 62.8599 437.1833 C 63.2029 437.4115 62.3361 437.2235 61.8104 437.2662 C 61.2848 437.3089 60.4087 437.3801 59.7061 437.4396 C 59.0035 437.4990 58.2998 437.5601 57.5948 437.6229 C 56.8899 437.6858 56.1838 437.7502 55.4764 437.8165 C 54.7689 437.8828 54.0602 437.9510 53.3503 438.0209 C 52.6404 438.0907 51.9293 438.1623 51.2170 438.2356 C 50.5047 438.3089 48.9354 438.1385 49.0764 438.4607 C 49.2173 438.7829 51.6543 439.8940 52.0626 440.1686 C 52.4709 440.4431 51.7946 440.1380 51.5261 440.1079 C 51.2576 440.0778 50.9900 440.0469 50.4515 439.9881 C 49.9129 439.9294 49.0154 439.8314 48.2950 439.7552 C 47.5745 439.6790 46.8525 439.6043 46.1288 439.5310 C 45.4051 439.4578 44.6799 439.3860 43.9529 439.3157 C 43.2260 439.2454 42.3143 439.1603 41.7673 439.1093 C 41.2202 439.0582 40.9450 439.0343 40.6707 439.0094 C 40.3964 438.9846 39.8531 438.6911 40.1215 438.9604 C 40.3900 439.2297 42.2724 440.4607 42.2814 440.6252 C 42.2904 440.7896 40.8794 440.1720 40.1754 439.9470 C 39.4715 439.7220 38.4992 439.4152 38.0576 439.2755 C 37.6161 439.1357 37.3860 438.8879 37.5263 439.1086 C 37.6666 439.3294 38.8338 440.4406 38.8995 440.5999 C 38.9651 440.7592 38.4115 440.3316 37.9202 440.0644 C 37.4290 439.7972 36.4448 439.2634 35.9519 438.9967 C 35.4590 438.7300 34.9099 438.2376 34.9628 438.4644 C 35.0158 438.6912 36.1213 440.1051 36.2697 440.3575 C 36.4181 440.6099 36.2018 440.2943 35.8534 439.9790 C 35.5051 439.6636 34.5989 438.8438 34.1796 438.4654 C 33.7603 438.0871 33.5482 437.8981 33.3375 437.7090 C 33.1267 437.5200 32.8150 437.0385 32.9151 437.3309 C 33.0151 437.6234 33.7876 439.3786 33.9379 439.4639 C 34.0882 439.5493 33.8305 438.2445 33.8169 437.8432 C 33.8033 437.4420 33.8446 437.2529 33.8563 437.0567 C 33.8680 436.8604 33.8343 436.2851 33.8872 436.6659 C 33.9401 437.0467 34.0204 439.1332 34.1737 439.3415 C 34.3270 439.5497 34.5852 438.3847 34.8068 437.9154 C 35.0284 437.4460 35.4956 436.3149 35.5031 436.5253 C 35.5106 436.7356 34.9156 438.7823 34.8516 439.1775 C 34.7876 439.5726 34.9843 439.0356 35.1193 438.8962 C 35.2542 438.7567 35.3862 438.6141 35.6615 438.3406 C 35.9369 438.0670 36.4920 437.5243 36.7714 437.2548 C 37.0508 436.9853 37.4694 436.4583 37.3379 436.7235 C 37.2064 436.9887 36.1523 438.5245 35.9825 438.8459 C 35.8127 439.1673 36.0365 438.8103 36.3190 438.6519 C 36.6016 438.4935 37.2218 438.1428 37.6777 437.8955 C 38.1337 437.6483 38.7095 437.3484 39.0549 437.1683 C 39.4002 436.9882 39.9155 436.6231 39.7498 436.8148 C 39.5841 437.0064 38.2799 438.0864 38.0606 438.3182 C 37.8414 438.5501 38.1218 438.2967 38.4342 438.2058 C 38.7467 438.1148 39.4333 437.9128 39.9354 437.7725 C 40.4375 437.6323 40.9415 437.4965 41.4470 437.3643 C 41.9525 437.2322 43.0164 436.8769 42.9683 436.9795 C 42.9202 437.0820 41.3948 437.8199 41.1583 437.9796 C 40.9217 438.1393 41.3534 437.9580 41.5489 437.9379 C 41.7444 437.9177 41.9394 437.8956 42.3314 437.8586 C 42.7233 437.8217 43.3766 437.7603 43.9007 437.7164 C 44.4247 437.6724 44.9497 437.6320 45.4755 437.5947 C 46.0013 437.5575 46.7262 437.5135 47.0555 437.4927 C 47.3848 437.4719 47.6945 437.3641 47.4513 437.4702 C 47.2081 437.5762 45.7734 438.0124 45.5963 438.1289 C 45.4193 438.2454 45.9923 438.1468 46.3891 438.1692 C 46.7858 438.1915 47.4492 438.2477 47.9767 438.2633 C 48.5042 438.2789 49.0259 438.2417 49.5543 438.2626 C 50.0827 438.2835 50.6157 438.3439 51.1471 438.3887 C 51.6784 438.4334 52.5919 438.3711 52.7425 438.5310 C 52.8931 438.6910 51.9023 439.1590 52.0506 439.3485 C 52.1989 439.5381 53.1047 439.5592 53.6321 439.6683 C 54.1595 439.7774 54.6870 439.8891 55.2148 440.0032 C 55.7426 440.1173 56.2709 440.2440 56.7986 440.3528 C 57.3264 440.4616 57.8539 440.5591 58.3814 440.6560 C 58.9089 440.7529 59.8333 440.7547 59.9637 440.9341 C 60.0942 441.1134 59.0379 441.5144 59.1642 441.7320 C 59.2906 441.9495 60.2027 442.0682 60.7220 442.2395 C 61.2413 442.4109 61.7606 442.5844 62.2799 442.7599 C 62.7993 442.9354 63.3186 443.1131 63.8380 443.2927 C 64.3574 443.4723 64.8768 443.6540 65.3962 443.8377 C 65.9156 444.0213 66.4350 444.2069 66.9545 444.3945 C 67.4740 444.5820 68.2532 444.8681 68.5130 444.9629 C 65.4868 354.9915 63.4869 355.0143 61.4870 355.0371 C 60.9789 355.8466 60.4709 356.6581 59.9628 357.4656 C 59.4546 358.2732 58.9465 359.0789 58.4383 359.8825 C 57.9302 360.6862 57.4220 361.4879 56.9138 362.2876 C 56.4056 363.0873 55.8973 363.8850 55.3891 364.6805 C 54.8808 365.4761 54.3726 366.2696 53.8643 367.0610 C 53.3560 367.8523 53.2195 368.5917 52.3393 369.4287 C 51.4590 370.2656 49.4388 371.2532 48.5828 372.0827 C 47.7267 372.9121 47.6623 373.6260 47.2030 374.4054 C 46.7437 375.1848 46.2846 375.9653 45.8272 376.7592 C 45.3697 377.5532 44.9148 378.3682 44.4583 379.1691 C 44.0018 379.9699 43.5451 380.7683 43.0882 381.5642 C 42.6314 382.3600 42.5072 383.0751 41.7170 383.9442 C 40.9268 384.8133 39.1054 385.9007 38.3468 386.7788 C 37.5883 387.6569 37.5597 388.4041 37.1655 389.2128 C 36.7713 390.0214 36.3810 390.8487 35.9816 391.6304 C 35.5822 392.4121 35.1694 393.1266 34.7692 393.9030 C 34.3690 394.6794 33.8776 395.6935 33.5802 396.2888 C 33.2828 396.8842 33.4522 397.1157 32.9846 397.4749 C 32.5170 397.8342 31.1822 398.1798 30.7745 398.4444 C 30.3669 398.7091 30.7357 398.5495 30.5385 399.0629 C 30.3413 399.5763 29.9079 400.7076 29.5913 401.5250 C 29.2747 402.3424 28.9573 403.1568 28.6389 403.9675 C 28.3204 404.7782 27.9207 405.7852 27.6809 406.3893 C 27.4410 406.9935 27.3201 407.2918 27.1997 407.5922 C 27.0793 407.8925 27.3237 407.8953 26.9585 408.1915 C 26.5934 408.4877 25.4417 408.7582 25.0087 409.3693 C 24.5758 409.9804 24.5784 411.0322 24.3608 411.8579 C 24.1433 412.6835 23.9242 413.5055 23.7033 414.3231 C 23.4824 415.1407 23.1748 416.2556 23.0353 416.7633 C 22.8959 417.2710 23.1661 417.0326 22.8666 417.3692 C 22.5671 417.7058 21.5314 418.3393 21.2383 418.7827 C 20.9453 419.2260 21.1755 419.4093 21.1085 420.0292 C 21.0414 420.6491 20.9299 421.6826 20.8361 422.5021 C 20.7422 423.3215 20.6063 424.4375 20.5452 424.9458 C 20.4841 425.4541 20.6670 425.1779 20.4694 425.5519 C 20.2717 425.9258 19.5261 426.7151 19.3595 427.1897 C 19.1929 427.6643 19.4185 427.7986 19.4698 428.3997 C 19.5210 429.0009 19.6200 430.1996 19.6672 430.7967 C 19.7145 431.3938 19.7323 431.6866 19.7533 431.9825 C 19.7742 432.2783 19.8624 432.1978 19.7928 432.5718 C 19.7232 432.9459 19.2878 433.5828 19.3356 434.2269 C 19.3834 434.8711 19.8421 435.7061 20.0795 436.4367 C 20.3169 437.1673 20.6166 438.0291 20.7601 438.6106 C 20.9035 439.1921 20.8590 439.6289 20.9401 439.9258 C 21.0212 440.2227 21.0971 440.1596 21.2466 440.3918 C 21.3962 440.6240 21.5774 440.8628 21.8373 441.3189 C 22.0972 441.7751 22.5785 442.6810 22.8061 443.1287 C 23.0336 443.5764 23.1338 443.7913 23.2027 444.0050 C 23.2716 444.2187 23.2105 444.2079 23.2192 444.4107 C 23.2279 444.6135 23.2352 444.8165 23.2548 445.2219 C 23.2744 445.6274 23.3192 446.5058 23.3365 446.8437 C 23.3539 447.1815 23.2415 447.0030 23.3592 447.2490 C 23.4769 447.4950 23.8880 448.0121 24.0427 448.3196 C 24.1973 448.6271 24.1631 448.7073 24.2869 449.0938 C 24.4106 449.4804 24.6598 450.2530 24.7852 450.6390 C 24.9106 451.0250 24.8513 451.0957 25.0393 451.4100 C 25.2272 451.7243 25.7337 452.2805 25.9130 452.5250 C 26.0923 452.7695 25.9454 452.5844 26.1150 452.8771 C 26.2845 453.1698 26.6566 453.8143 26.9303 454.2812 C 27.2041 454.7481 27.3799 455.2235 27.7575 455.6787 C 28.1350 456.1338 28.9091 456.7411 29.1958 457.0121 C 29.4824 457.2830 29.3363 457.1586 29.4774 457.3045 C 29.6186 457.4505 29.7588 457.5973 30.0426 457.8878 C 30.3264 458.1783 30.7995 458.6625 31.1803 459.0476 C 31.5612 459.4328 31.9437 459.8164 32.3279 460.1985 C 32.7120 460.5807 33.0978 460.9614 33.4851 461.3406 C 33.8725 461.7198 34.3597 462.1911 34.6520 462.4739 C 34.9444 462.7566 35.0922 462.8965 35.2391 463.0372 C 35.3860 463.1779 35.0945 463.0089 35.5335 463.3181 C 35.9726 463.6273 37.2499 464.4917 37.8734 464.8922 C 38.4970 465.2928 38.8066 465.4467 39.2750 465.7213 C 39.7434 465.9959 40.2130 466.2688 40.6838 466.5400 C 41.1546 466.8111 41.6266 467.0807 42.0999 467.3483 C 42.5732 467.6159 43.0479 467.8816 43.5236 468.1457 C 43.9994 468.4098 44.4764 468.6722 44.9545 468.9329 C 45.4326 469.1937 46.0325 469.5164 46.3924 469.7101 C 46.7523 469.9038 46.5191 469.8220 47.1139 470.0950 C 47.7088 470.3679 49.4221 471.1183 49.9617 471.3477 C 50.5013 471.5771 50.0261 471.3695 50.3517 471.4714 C 50.6772 471.5734 51.3929 471.7986 51.9147 471.9595 C 52.4366 472.1204 52.9592 472.2795 53.4828 472.4367 C 54.0063 472.5940 54.5306 472.7495 55.0558 472.9033 C 55.5809 473.0570 56.1069 473.2090 56.6337 473.3592 C 57.1605 473.5094 57.6881 473.6579 58.2165 473.8046 C 58.7449 473.9513 59.4069 474.1315 59.8041 474.2396 C 60.2013 474.3477 60.4007 474.4000 60.5997 474.4532 C 60.7987 474.5065 60.3503 474.3825 60.9979 474.5591 C 61.6455 474.7356 63.6302 475.3295 64.4854 475.5126 C 65.3406 475.6957 65.5807 475.6110 66.1291 475.6575 C 66.6775 475.7040 67.2264 475.7487 67.7758 475.7916 C 68.3252 475.8345 68.8750 475.8757 69.4253 475.9151 C 69.9757 475.9545 70.5265 475.9922 71.0778 476.0281 C 71.6291 476.0640 72.1809 476.0982 72.7331 476.1307 C 73.2853 476.1632 73.8380 476.1939 74.3912 476.2230 C 74.9444 476.2520 75.6367 476.2852 76.0521 476.3051 C 76.4675 476.3250 76.6757 476.3332 76.8836 476.3423 C 77.0915 476.3515 76.5041 476.2846 77.2996 476.3600 C 78.0952 476.4355 80.6553 476.7599 81.6570 476.7950 C 82.6586 476.8301 82.7585 476.6472 83.3096 476.5707 C 83.8606 476.4943 84.4118 476.4162 84.9631 476.3364 C 85.5145 476.2566 86.0660 476.1751 86.6176 476.0919 C 87.1693 476.0088 87.7211 475.9240 88.2731 475.8376 C 88.8251 475.7512 89.3772 475.6631 89.9295 475.5734 C 90.4818 475.4838 91.0343 475.3925 91.5869 475.2996 C 92.1395 475.2067 92.6923 475.1122 93.2452 475.0162 C 93.7981 474.9201 94.5587 474.7846 94.9043 474.7233 C 95.2500 474.6620 94.5736 474.7075 95.3193 474.6486 C 96.0650 474.5897 98.5686 474.4608 99.3787 474.3700 C 100.1888 474.2792 99.7793 474.2381 100.1798 474.1040 C 100.5803 473.9698 101.2478 473.7461 101.7816 473.5649 C 102.3155 473.3837 102.8493 473.2009 103.3831 473.0167 C 103.9168 472.8325 104.5839 472.5994 104.9842 472.4595 C 105.3844 472.3197 105.1275 472.3277 105.7845 472.1776 C 106.4416 472.0276 108.3386 471.6925 108.9262 471.5591 C 109.5138 471.4257 108.9903 471.5297 109.3100 471.3773 C 109.6298 471.2248 110.3333 470.8901 110.8446 470.6444 C 111.3559 470.3987 111.8670 470.1516 112.3779 469.9030 C 112.8888 469.6545 113.5271 469.3412 113.9101 469.1532 C 114.2930 468.9652 114.4843 468.8698 114.6757 468.7752 C 114.8670 468.6806 114.4342 468.7858 115.0584 468.5854 C 115.6825 468.3850 117.6204 467.8959 118.4207 467.5730 C 119.2210 467.2500 119.3807 466.9575 119.8602 466.6478 C 120.3396 466.3381 120.8188 466.0271 121.2976 465.7148 C 121.7765 465.4025 122.2550 465.0889 122.7331 464.7740 C 123.2113 464.4592 123.8681 464.0234 124.1667 463.8256 C 124.4653 463.6279 123.8827 463.8771 124.5248 463.5874 C 125.1669 463.2976 127.3275 462.4298 128.0195 462.0870 C 128.7115 461.7443 128.3485 461.8098 128.6768 461.5307 C 129.0052 461.2517 129.5524 460.7866 129.9895 460.4127 C 130.4266 460.0389 130.8633 459.6639 131.2995 459.2878 C 131.7358 458.9117 132.2803 458.4394 132.6070 458.1560 C 132.9337 457.8726 133.0966 457.7297 133.2597 457.5875 C 133.4229 457.4453 132.9436 457.6860 133.5859 457.3027 C 134.2281 456.9194 136.3321 455.8385 137.1133 455.2878 C 137.8944 454.7370 137.8869 454.4289 138.2730 453.9979 C 138.6590 453.5669 139.0445 453.1349 139.4294 452.7019 C 139.8144 452.2689 140.1989 451.8349 140.5828 451.3999 C 140.9667 450.9649 141.4457 450.4193 141.7331 450.0919 C 142.0205 449.7646 141.6440 449.9695 142.3071 449.4358 C 142.9702 448.9020 145.1033 447.3741 145.7115 446.8895 C 146.3198 446.4050 145.7527 446.8299 145.9566 446.5285 C 146.1606 446.2272 146.6094 445.5646 146.9350 445.0814 C 147.2605 444.5981 147.5854 444.1140 147.9098 443.6290 C 148.2341 443.1441 148.5579 442.6583 148.8812 442.1717 C 149.2044 441.6851 149.6476 441.0141 149.8492 440.7094 C 150.0507 440.4046 149.5227 440.9045 150.0906 440.3430 C 150.6586 439.7815 152.6639 437.9720 153.2566 437.3404 C 153.8494 436.7088 153.4523 436.9475 153.6470 436.5536 C 153.8417 436.1596 154.1662 435.5030 154.4249 434.9767 C 154.6837 434.4503 154.9417 433.9233 155.1993 433.3956 C 155.4568 432.8679 155.7137 432.3395 155.9700 431.8105 C 156.2264 431.2814 156.5457 430.6189 156.7373 430.2214 C 156.9290 429.8239 156.5972 430.1218 157.1197 429.4254 C 157.6423 428.7291 159.3900 426.6766 159.8725 426.0432 C 160.3550 425.4098 159.8966 425.9738 160.0149 425.6249 C 160.1332 425.2759 160.3937 424.5084 160.5821 423.9494 C 160.7706 423.3904 160.9585 422.8309 161.1459 422.2708 C 161.3332 421.7107 161.5200 421.1501 161.7062 420.5891 C 161.8924 420.0280 162.1241 419.3257 162.2632 418.9043 C 162.4022 418.4830 162.4713 418.2719 162.5407 418.0611 C 162.6101 417.8502 162.2710 418.3098 162.6795 417.6393 C 163.0880 416.9688 164.5468 414.9286 164.9917 414.0382 C 165.4367 413.1477 165.2307 412.8776 165.3493 412.2968 C 165.4679 411.7159 165.5859 411.1346 165.7035 410.5530 C 165.8210 409.9713 165.9379 409.3893 166.0544 408.8068 C 166.1708 408.2244 166.2867 407.6416 166.4022 407.0585 C 166.5176 406.4754 166.6610 405.7458 166.7470 405.3080 C 166.8331 404.8703 166.5886 405.1927 166.9184 404.4320 C 167.2482 403.6713 168.4183 401.4326 168.7259 400.7437 C 169.0335 400.0548 168.7326 400.6697 168.7640 400.2988 C 168.7955 399.9279 168.8649 399.1120 168.9146 398.5182 C 168.9644 397.9245 169.0137 397.3304 169.0626 396.7362 C 169.1115 396.1419 169.1599 395.5474 169.2080 394.9527 C 169.2561 394.3580 169.3037 393.7630 169.3511 393.1679 C 169.3984 392.5727 169.4453 391.9774 169.4919 391.3818 C 169.5386 390.7863 169.4793 390.4914 169.6308 389.5946 C 169.7824 388.6979 170.2649 386.9321 170.4014 386.0011 C 170.5379 385.0701 170.4340 384.6729 170.4499 384.0086 C 170.4658 383.3443 170.4814 382.6799 170.4969 382.0153 C 170.5123 381.3508 170.5275 380.6862 170.5426 380.0215 C 170.5577 379.3568 170.5726 378.6919 170.5874 378.0271 C 170.6023 377.3623 170.6213 376.6974 170.6317 376.0325 C 170.6421 375.3676 170.6440 374.7027 170.6498 374.0378 C 170.6555 373.3729 170.6608 372.7080 170.6663 372.0431 C 170.6718 371.3782 170.6774 370.7134 170.6829 370.0485 C 170.6884 369.3836 170.6939 368.7187 170.6994 368.0538 C 170.7049 367.3889 170.7105 366.7240 170.7160 366.0591 C 170.7215 365.3942 170.7270 364.7293 170.7325 364.0644 C 170.7381 363.3995 170.7436 362.7346 170.7491 362.0697 C 170.7546 361.4048 170.7601 360.7399 170.7656 360.0751 C 170.7712 359.4102 170.7767 358.7453 170.7822 358.0804 C 170.7877 357.4155 170.7932 356.7506 170.7988 356.0857 C 170.8043 355.4208 170.8098 354.7559 170.8153 354.0910 C 170.8208 353.4261 170.8264 352.7612 170.8319 352.0963 C 170.8374 351.4314 170.8429 350.7665 170.8484 350.1017 C 170.8539 349.4368 170.8594 348.7719 170.8649 348.1070 C 170.8703 347.4421 170.8758 346.7772 170.8813 346.1123 C 170.8868 345.4474 170.8923 344.7825 170.8978 344.1176 C 170.9033 343.4527 170.9088 342.7878 170.9143 342.1229 C 170.9198 341.4580 170.9253 340.7931 170.9307 340.1282 C 170.9362 339.4634 170.9417 338.7985 170.9472 338.1336 C 170.9527 337.4687 170.9582 336.8038 170.9637 336.1389 C 170.9692 335.4740 170.9747 334.8091 170.9802 334.1442 C 170.9856 333.4793 170.9911 332.8144 170.9966 332.1495 C 171.0021 331.4846 171.0076 330.8197 171.0131 330.1548 C 171.0186 329.4899 171.0241 328.8251 171.0296 328.1602 C 171.0351 327.4953 171.0406 326.8304 171.0460 326.1655 C 171.0515 325.5006 171.0570 324.8357 171.0625 324.1708 C 171.0680 323.5059 171.0735 322.8410 171.0790 322.1761 C 171.0845 321.5112 171.0900 320.8463 171.0955 320.1814 C 171.1010 319.5165 171.1064 318.8517 171.1119 318.1868 C 171.1174 317.5219 171.1229 316.8570 171.1284 316.1921 C 171.1339 315.5272 171.1394 314.8623 171.1449 314.1974 C 171.1504 313.5325 171.1559 312.8676 171.1614 312.2027 C 171.1668 311.5378 171.1723 310.8729 171.1778 310.2080 C 171.1833 309.5431 171.1888 308.8782 171.1943 308.2134 C 171.1998 307.5485 171.2053 306.8836 171.2108 306.2187 C 171.2163 305.5538 171.2218 304.8889 171.2272 304.2240 C 171.2327 303.5591 171.2382 302.8942 171.2437 302.2293 C 171.2492 301.5644 171.2547 300.8995 171.2602 300.2346 C 171.2657 299.5697 171.2712 298.9048 171.2767 298.2399 C 171.2822 297.5751 171.2876 296.9102 171.2931 296.2453 C 171.2986 295.5804 171.3041 294.9155 171.3096 294.2506 C 171.3151 293.5857 171.3206 292.9208 171.3261 292.2559 C 171.3316 291.5910 171.3371 290.9261 171.3426 290.2612 C 171.3480 289.5963 171.3535 288.9314 171.3590 288.2665 C 171.3645 287.6017 171.3700 286.9368 171.3755 286.2719 C 171.3810 285.6070 171.3865 284.9421 171.3920 284.2772 C 171.3975 283.6123 171.4029 282.9474 171.4084 282.2825 C 171.4139 281.6176 171.4194 280.9527 171.4249 280.2878 C 171.4304 279.6229 171.4359 278.9580 171.4414 278.2931 C 171.4469 277.6282 171.4524 276.9634 171.4579 276.2985 C 171.4633 275.6336 171.4688 274.9687 171.4743 274.3038 C 171.4798 273.6389 171.4853 272.9740 171.4908 272.3091 C 171.4963 271.6442 171.5018 270.9793 171.5073 270.3144 C 171.5128 269.6495 171.5183 268.9846 171.5237 268.3197 C 171.5292 267.6548 171.5347 266.9899 171.5402 266.3251 C 171.5457 265.6602 171.5512 264.9953 171.5567 264.3304 C 171.5622 263.6655 171.5677 263.0006 171.5732 262.3357 C 171.5787 261.6708 171.5841 261.0059 171.5896 260.3410 C 171.5951 259.6761 171.6006 259.0112 171.6061 258.3463 C 171.6116 257.6814 171.6171 257.0165 171.6226 256.3517 C 171.6281 255.6868 171.6336 255.0219 171.6391 254.3570 C 171.6445 253.6921 171.6500 253.0272 171.6555 252.3623 C 171.6610 251.6974 171.6665 251.0325 171.6720 250.3676 C 171.6775 249.7027 171.6830 249.0378 171.6885 248.3729 C 171.6940 247.7080 171.6995 247.0431 171.7049 246.3782 C 171.7104 245.7134 171.7159 245.0485 171.7214 244.3836 C 171.7269 243.7187 171.7324 243.0538 171.7379 242.3889 C 171.7434 241.7240 171.7489 241.0591 171.7544 240.3942 C 171.7599 239.7293 171.7653 239.0644 171.7708 238.3995 C 171.7763 237.7346 171.7818 237.0697 171.7873 236.4048 C 171.7928 235.7399 171.7983 235.0751 171.8038 234.4102 C 171.8092 233.7453 171.8147 233.0804 171.8202 232.4155 C 171.8257 231.7506 171.8312 231.0857 171.8367 230.4208 C 171.8422 229.7559 171.8477 229.0910 171.8532 228.4261 C 171.8586 227.7612 171.8641 227.0963 171.8696 226.4314 C 171.8751 225.7665 171.8806 225.1017 171.8861 224.4368 C 171.8916 223.7719 171.8971 223.1070 171.9025 222.4421 C 171.9080 221.7772 171.9135 221.1123 171.9190 220.4474 C 171.9245 219.7825 171.9300 219.1176 171.9355 218.4527 C 171.9410 217.7878 171.9464 217.1229 171.9519 216.4580 C 171.9574 215.7931 171.9629 215.1282 171.9684 214.4634 C 171.9739 213.7985 171.9794 213.1336 171.9849 212.4687 C 171.9903 211.8038 171.9958 211.1389 172.0013 210.4740 C 172.0068 209.8091 172.0123 209.1442 172.0178 208.4793 C 172.0233 207.8144 172.0288 207.1495 172.0342 206.4846 C 172.0397 205.8197 172.0452 205.1548 172.0507 204.4899 C 172.0562 203.8251 172.0617 203.1602 172.0672 202.4953 C 172.0727 201.8304 172.0782 201.1655 172.0836 200.5006 C 172.0891 199.8357 172.0946 199.1708 172.1001 198.5059 C 172.1056 197.8410 172.1111 197.1761 172.1166 196.5112 C 172.1221 195.8463 172.1275 195.1814 172.1330 194.5165 C 172.1385 193.8517 172.1440 193.1868 172.1495 192.5219 C 172.1550 191.8570 172.1605 191.1921 172.1660 190.5272 C 172.1714 189.8623 172.1769 189.1974 172.1824 188.5325 C 172.1879 187.8676 172.1934 187.2027 172.1989 186.5378 C 172.2044 185.8729 172.2099 185.2080 172.2153 184.5431 C 172.2208 183.8782 172.2263 183.2134 172.2318 182.5485 C 172.2373 181.8836 172.2428 181.2187 172.2483 180.5538 C 172.2538 179.8889 172.2592 179.2240 172.2647 178.5591 C 172.2702 177.8942 172.2757 177.2293 172.2812 176.5644 C 172.2867 175.8995 172.2922 175.2346 172.2977 174.5697 C 172.3032 173.9048 172.3086 173.2399 172.3141 172.5751 C 172.3196 171.9102 172.3251 171.2453 172.3306 170.5804 C 172.3361 169.9155 172.3416 169.2506 172.3471 168.5857 C 172.3525 167.9208 172.3580 167.2559 172.3635 166.5910 C 172.3690 165.9261 172.3745 165.2612 172.3800 164.5963 C 172.3855 163.9314 172.3910 163.2665 172.3964 162.6017 C 172.4019 161.9368 172.4074 161.2719 172.4129 160.6070 C 172.4184 159.9421 172.4239 159.2772 172.4294 158.6123 C 172.4349 157.9474 172.4403 157.2825 172.4458 156.6176 C 172.4513 155.9527 172.4568 155.2878 172.4623 154.6229 C 172.4678 153.9580 172.4733 153.2931 172.4788 152.6282 C 172.4842 151.9634 172.4897 151.2985 172.4952 150.6336 C 172.5007 149.9687 172.5062 149.3038 172.5117 148.6389 C 172.5172 147.9740 172.5227 147.3091 172.5282 146.6442 C 172.5336 145.9793 172.5391 145.3144 172.5446 144.6495 C 172.5501 143.9846 172.5556 143.3197 172.5611 142.6548 C 172.5666 141.9899 172.5721 141.3251 172.5775 140.6602 C 172.5830 139.9953 172.5885 139.3304 172.5940 138.6655 C 172.5995 138.0006 172.6050 137.3357 172.6105 136.6708 C 172.6160 136.0059 172.6214 135.3410 172.6269 134.6761 C 172.6324 134.0112 172.6379 133.3463 172.6434 132.6814 C 172.6489 132.0165 172.6544 131.3517 172.6599 130.6868 C 172.6653 130.0219 172.6708 129.3570 172.6763 128.6921 C 172.6818 128.0272 172.6873 127.3623 172.6928 126.6974 C 172.6983 126.0325 172.7038 125.3676 172.7092 124.7027 C 172.7147 124.0378 172.7202 123.3729 172.7257 122.7080 C 172.7312 122.0431 172.7367 121.3782 172.7422 120.7134 C 172.7477 120.0485 172.7532 119.3836 172.7586 118.7187 C 172.7641 118.0538 172.7696 117.3889 172.7751 116.7240 C 172.7806 116.0591 172.7861 115.3942 172.7916 114.7293 C 172.7971 114.0644 172.8025 113.3995 172.8080 112.7346 C 172.8135 112.0697 172.8190 111.4048 172.8245 110.7399 C 172.8300 110.0751 172.8355 109.4102 172.8410 108.7453 C 172.8464 108.0804 172.8519 107.4155 172.8574 106.7506 C 172.8629 106.0857 172.8684 105.4208 172.8739 104.7559 C 172.8794 104.0910 172.8849 103.4261 172.8903 102.7612 C 172.8958 102.0963 172.9013 101.4314 172.9068 100.7665 C 172.9123 100.1017 172.9178 99.4368 172.9233 98.7719 C 172.9288 98.1070 172.9342 97.4421 172.9397 96.7772 C 172.9452 96.1123 172.9507 95.4474 172.9562 94.7825 C 172.9617 94.1176 172.9672 93.4527 172.9727 92.7878 C 172.9782 92.1229 172.9836 91.4580 172.9891 90.7931 C 172.9946 90.1282 173.0001 89.4634 173.0056 88.7985 C 173.0111 88.1336 173.0166 87.4687 173.0221 86.8038 C 173.0275 86.1389 173.0330 85.4740 173.0385 84.8091 C 173.0440 84.1442 173.0495 83.4793 173.0550 82.8144 C 173.0605 82.1495 173.0660 81.4846 173.0714 80.8197 C 173.0769 80.1548 173.0824 79.4899 173.0879 78.8251 C 173.0934 78.1602 173.0989 77.4953 173.1044 76.8304 C 173.1099 76.1655 173.1214 75.5006 173.1208 74.8357 C 173.1203 74.1708 173.1326 73.5058 173.1009 72.8410 C 173.0692 72.1762 172.9864 71.5110 172.9306 70.8468 C 172.8749 70.1826 172.8188 69.5182 172.7666 68.8558 C 172.7145 68.1933 172.6630 67.5312 172.6177 66.8722 C 172.5724 66.2133 172.5294 65.5554 172.4951 64.9019 C 172.4608 64.2484 172.4306 63.5970 172.4119 62.9514 C 172.3933 62.3057 172.3809 61.6633 172.3831 61.0281 C 172.3853 60.3929 172.3963 59.7621 172.4250 59.1402 C 172.4537 58.5183 172.4940 57.9022 172.5553 57.2966 C 172.6167 56.6911 172.6926 56.0929 172.7932 55.5070 C 172.8938 54.9211 173.0121 54.3441 173.1588 53.7814 C 173.3055 53.2186 173.4726 52.6660 173.6735 52.1305 C 173.8745 51.5950 174.1006 51.0722 174.3644 50.5684 C 174.6282 50.0645 174.9217 49.5757 175.2563 49.1074 C 175.5910 48.6391 175.9587 48.1874 176.3724 47.7587 C 176.7862 47.3301 177.2371 46.9201 177.7388 46.5355 C 178.2405 46.1509 178.7837 45.7872 179.3826 45.4513 C 179.9814 45.1154 180.6263 44.8026 181.3317 44.5202 C 182.0372 44.2377 182.7934 43.9807 183.6152 43.7566 C 184.4371 43.5325 185.3145 43.3363 186.2628 43.1756 C 187.2111 43.0148 188.2200 42.8845 189.3051 42.7923 C 190.3902 42.7001 191.5410 42.6409 192.7735 42.6226 C 194.0060 42.6043 195.3094 42.6216 196.7002 42.6826 C 198.0910 42.7437 199.5580 42.8430 201.1182 42.9889 C 202.6784 43.1348 204.3203 43.3218 206.0612 43.5583 C 207.8022 43.7949 209.6305 44.0752 211.5638 44.4082 C 213.4971 44.7411 215.5338 45.1259 217.6611 45.5561 C 219.7883 45.9863 223.2452 47.0828 224.3274 46.9892 C 225.4097 46.8956 224.2122 45.6594 224.1546 44.9945 C 224.0970 44.3297 224.0394 43.6648 223.9817 42.9999 C 223.9241 42.3350 223.8377 41.3376 223.8089 41.0052 C 48.5834 -44.5812 47.6873 -42.7932 46.7911 -41.0052 Z"/>
<path fill="black" stroke="none" fill-rule="nonzero" d="M 153.1795 381.7877 C 153.0222 381.9450 153.0222 382.5740 153.1795 382.7313 C 153.3367 382.8885 153.8085 382.7313 154.1230 382.7313 C 154.4375 382.7313 154.7520 382.7313 155.0665 382.7313 C 155.3810 382.7313 155.6955 382.7313 156.0100 382.7313 C 156.3245 382.7313 156.6390 382.7313 156.9535 382.7313 C 157.2680 382.7313 157.5825 382.7313 157.8970 382.7313 C 158.2115 382.7313 158.5260 382.7313 158.8406 382.7313 C 159.1551 382.7313 159.4696 382.7313 159.7841 382.7313 C 160.0986 382.7313 160.5703 382.8885 160.7276 382.7313 C 160.8848 382.5740 160.8848 381.9450 160.7276 381.7877 C 160.5703 381.6305 160.0986 381.7877 159.7841 381.7877 C 159.4696 381.7877 159.1551 381.7877 158.8406 381.7877 C 158.5260 381.7877 158.2115 381.7877 157.8970 381.7877 C 157.5825 381.7877 157.2680 381.7877 156.9535 381.7877 C 156.6390 381.7877 156.3245 381.7877 156.0100 381.7877 C 155.6955 381.7877 155.3810 381.7877 155.0665 381.7877 C 154.7520 381.7877 154.4375 381.7877 154.1230 381.7877 C 153.8085 381.7877 153.3367 381.6305 153.1795 381.7877 Z"/>
  <g id="debug">
  
  <path fill="none" stroke="#ff3366" stroke-opacity="0.6" stroke-width="0.5" d=""/>
  <path fill="none" stroke="#ff9900" stroke-opacity="0.6" stroke-width="0.6" d=""/>
  <path fill="none" stroke="#222222" stroke-opacity="0.7" stroke-width="0.6" d=""/>
  
  
  
  <path fill="none" stroke="#d32f2f" stroke-opacity="0.8" stroke-width="0.8" d="M 153.1795 381.7877 L 153.1795 382.7313 L 154.1230 382.7313 L 155.0665 382.7313 L 156.0100 382.7313 L 156.9535 382.7313 L 157.8970 382.7313 L 158.8406 382.7313 L 159.7841 382.7313 L 160.7276 382.7313 L 160.7276 381.7877 L 159.7841 381.7877 L 158.8406 381.7877 L 157.8970 381.7877 L 156.9535 381.7877 L 156.0100 381.7877 L 155.0665 381.7877 L 154.1230 381.7877 L 153.1795 381.7877 Z"/>
  <path fill="none" stroke="#00897b" stroke-opacity="0.7" stroke-width="0.7" stroke-dasharray="3 2" d="M 105.4147 344.0473 L 105.3981 346.0420 L 105.3816 348.0366 L 105.3635 350.0313 L 105.3195 352.0261 L 105.2760 354.0211 L 105.2334 356.0166 L 105.1921 358.0127 L 105.1523 360.0095 L 105.7871 360.3761 L 105.6649 362.1728 L 105.5447 363.9706 L 105.4267 365.7696 L 105.3111 367.5699 L 105.1980 369.3717 L 105.0876 371.1749 L 105.0604 371.6260 L 106.7262 368.7067 L 166.9184 404.4320 L 168.7259 400.7437 L 168.7640 400.2988 L 168.9146 398.5182 L 169.0626 396.7362 L 169.2080 394.9527 L 169.3511 393.1679 L 169.4919 391.3818 L 169.6308 389.5946 L 170.4014 386.0011 L 170.4499 384.0086 L 170.4969 382.0153 L 170.5426 380.0215 L 170.5874 378.0271 L 170.6317 376.0325 L 170.6498 374.0378 L 170.6663 372.0431 L 170.6829 370.0485 L 105.4147 344.0473 Z"/>
  <circle cx="105.1384" cy="360.7091" r="1.8000" fill="#d32f2f" fill-opacity="0.9" stroke="#ffffff" stroke-width="0.6"/>
    <circle cx="105.1812" cy="360.0262" r="1.8000" fill="#d32f2f" fill-opacity="0.9" stroke="#ffffff" stroke-width="0.6"/>
    <circle cx="169.7775" cy="388.9105" r="1.8000" fill="#d32f2f" fill-opacity="0.9" stroke="#ffffff" stroke-width="0.6"/>
    <circle cx="170.3844" cy="386.7006" r="1.8000" fill="#d32f2f" fill-opacity="0.9" stroke="#ffffff" stroke-width="0.6"/>
  
  
  
  
  
</g>
</svg>