<svg xmlns="http://www.w3.org/2000/svg" width="256.3798" height="483.0000" viewBox="-14.3798 -13.0000 256.3798 483.0000">
  <g id="background-glyph" fill="#e0e0e0" stroke="#4169e1" stroke-width="1.0000" opacity="1.0000" transform="matrix(1.0000 0 0 1.0000 0 0)">
  <path transform="matrix(1.0000 0 0 1.0000 -723.6510 -447.8750)" d="M955.526,454.125L955.526,447.875L763.026,447.875L763.026,454.125C773.859,455.375 784.38,457.25 794.589,459.75C804.797,462.25 812.818,467.042 818.651,474.125C821.151,477.042 822.922,481.208 823.964,486.625C825.005,492.042 825.839,498.188 826.464,505.063C827.089,511.938 827.401,519.125 827.401,526.625L827.401,744.125C827.401,755.792 827.297,766.625 827.089,776.625C826.88,786.625 826.776,794.542 826.776,800.375C826.359,812.042 825.63,823.708 824.589,835.375C823.547,847.042 821.776,857.458 819.276,866.625C816.359,876.208 811.672,884.333 805.214,891C798.755,897.667 790.318,901 779.901,901C776.568,901 773.026,900.271 769.276,898.813C765.526,897.354 762.609,895.167 760.526,892.25L760.526,890.375C769.276,889.125 776.568,886.313 782.401,881.938C788.234,877.563 791.151,870.583 791.151,861C791.151,852.667 788.13,845.479 782.089,839.438C776.047,833.396 768.859,830.375 760.526,830.375C750.943,830.375 742.401,833.5 734.901,839.75C727.401,846 723.651,854.125 723.651,864.125C723.651,872.042 725.214,878.813 728.339,884.438C731.464,890.063 735.63,894.438 740.839,897.563C746.047,900.688 751.88,903.083 758.339,904.75C764.797,906.417 771.359,907.25 778.026,907.25C790.109,907.25 803.339,904.958 817.714,900.375C832.089,895.792 845.943,888.292 859.276,877.875C870.109,869.542 878.859,860.479 885.526,850.688C892.193,840.896 895.526,829.125 895.526,815.375L895.526,600.375C895.526,589.958 895.63,579.646 895.839,569.438C896.047,559.229 896.151,548.917 896.151,538.5C896.568,528.917 896.984,518.604 897.401,507.563C897.818,496.521 899.693,487.667 903.026,481C908.443,471 916.359,464.333 926.776,461C937.193,457.667 946.776,455.375 955.526,454.125Z"/>
</g>
  <path fill="black" stroke="none" fill-rule="nonzero" d="M 48.0000 0 C 48.0000 0.6649 48.0000 1.3298 48.0000 1.9947 C 48.0000 2.6596 48.0000 3.4907 48.0000 3.9894 C 48.0000 4.4880 47.9723 4.7374 48.0000 4.9867 C 48.0277 5.2360 47.7700 5.3191 48.1664 5.4854 C 48.5627 5.6516 48.6456 5.5685 50.3782 5.9840 C 52.1108 6.3996 56.0000 7.3138 58.5620 7.9787 C 61.1240 8.6436 63.5059 9.3085 65.7501 9.9734 C 67.9943 10.6383 70.0732 11.3032 72.0272 11.9681 C 73.9811 12.6330 75.7839 13.2979 77.4738 13.9628 C 79.1638 14.6277 80.7161 15.2926 82.1671 15.9574 C 83.6182 16.6223 84.9443 17.2872 86.1802 17.9521 C 87.4161 18.6170 88.5392 19.2819 89.5824 19.9468 C 90.6256 20.6117 91.5677 21.2766 92.4395 21.9415 C 93.3112 22.6064 94.0928 23.2713 94.8131 23.9362 C 95.5334 24.6011 96.1738 25.2660 96.7614 25.9309 C 97.3491 26.5957 97.8664 27.2606 98.3388 27.9255 C 98.8112 28.5904 99.2224 29.2553 99.5957 29.9202 C 99.9691 30.5851 100.2897 31.2500 100.5791 31.9149 C 100.8684 32.5798 101.1128 33.2447 101.3318 33.9096 C 101.5509 34.5745 101.7321 35.2394 101.8934 35.9043 C 102.0547 36.5691 102.1847 37.2340 102.2994 37.8989 C 102.4141 38.5638 102.5035 39.2287 102.5817 39.8936 C 102.6599 40.5585 102.7181 41.2234 102.7685 41.8883 C 102.8190 42.5532 102.8541 43.2181 102.8843 43.8830 C 102.9146 44.5479 102.9336 45.2128 102.9500 45.8777 C 102.9664 46.5426 102.9751 47.2074 102.9827 47.8723 C 102.9904 48.5372 102.9931 49.2021 102.9959 49.8670 C 102.9987 50.5319 102.9989 51.1968 102.9996 51.8617 C 103.0003 52.5266 102.9999 53.1915 103.0000 53.8564 C 103.0001 54.5213 103.0000 55.1862 103.0000 55.8511 C 103.0000 56.5160 103.0000 57.1809 103.0000 57.8457 C 103.0000 58.5106 103.0000 59.1755 103.0000 59.8404 C 103.0000 60.5053 103.0000 61.1702 103.0000 61.8351 C 103.0000 62.5000 103.0000 63.1649 103.0000 63.8298 C 103.0000 64.4947 103.0000 65.1596 103.0000 65.8245 C 103.0000 66.4894 103.0000 67.1543 103.0000 67.8191 C 103.0000 68.4840 103.0000 69.1489 103.0000 69.8138 C 103.0000 70.4787 103.0000 71.1436 103.0000 71.8085 C 103.0000 72.4734 103.0000 73.1383 103.0000 73.8032 C 103.0000 74.4681 103.0000 75.1330 103.0000 75.7979 C 103.0000 76.4628 103.0000 77.1277 103.0000 77.7926 C 103.0000 78.4574 103.0000 79.1223 103.0000 79.7872 C 103.0000 80.4521 103.0000 81.1170 103.0000 81.7819 C 103.0000 82.4468 103.0000 83.1117 103.0000 83.7766 C 103.0000 84.4415 103.0000 85.1064 103.0000 85.7713 C 103.0000 86.4362 103.0000 87.1011 103.0000 87.7660 C 103.0000 88.4309 103.0000 89.0957 103.0000 89.7606 C 103.0000 90.4255 103.0000 91.0904 103.0000 91.7553 C 103.0000 92.4202 103.0000 93.0851 103.0000 93.7500 C 103.0000 94.4149 103.0000 95.0798 103.0000 95.7447 C 103.0000 96.4096 103.0000 97.0745 103.0000 97.7394 C 103.0000 98.4043 103.0000 99.0691 103.0000 99.7340 C 103.0000 100.3989 103.0000 101.0638 103.0000 101.7287 C 103.0000 102.3936 103.0000 103.0585 103.0000 103.7234 C 103.0000 104.3883 103.0000 105.0532 103.0000 105.7181 C 103.0000 106.3830 103.0000 107.0479 103.0000 107.7128 C 103.0000 108.3777 103.0000 109.0426 103.0000 109.7074 C 103.0000 110.3723 103.0000 111.0372 103.0000 111.7021 C 103.0000 112.3670 103.0000 113.0319 103.0000 113.6968 C 103.0000 114.3617 103.0000 115.0266 103.0000 115.6915 C 103.0000 116.3564 103.0000 117.0213 103.0000 117.6862 C 103.0000 118.3511 103.0000 119.0160 103.0000 119.6809 C 103.0000 120.3457 103.0000 121.0106 103.0000 121.6755 C 103.0000 122.3404 103.0000 123.0053 103.0000 123.6702 C 103.0000 124.3351 103.0000 125.0000 103.0000 125.6649 C 103.0000 126.3298 103.0000 126.9947 103.0000 127.6596 C 103.0000 128.3245 103.0000 128.9894 103.0000 129.6543 C 103.0000 130.3191 103.0000 130.9840 103.0000 131.6489 C 103.0000 132.3138 103.0000 132.9787 103.0000 133.6436 C 103.0000 134.3085 103.0000 134.9734 103.0000 135.6383 C 103.0000 136.3032 103.0000 136.9681 103.0000 137.6330 C 103.0000 138.2979 103.0000 138.9628 103.0000 139.6277 C 103.0000 140.2926 103.0000 140.9574 103.0000 141.6223 C 103.0000 142.2872 103.0000 142.9521 103.0000 143.6170 C 103.0000 144.2819 103.0000 144.9468 103.0000 145.6117 C 103.0000 146.2766 103.0000 146.9415 103.0000 147.6064 C 103.0000 148.2713 103.0000 148.9362 103.0000 149.6011 C 103.0000 150.2660 103.0000 150.9309 103.0000 151.5957 C 103.0000 152.2606 103.0000 152.9255 103.0000 153.5904 C 103.0000 154.2553 103.0000 154.9202 103.0000 155.5851 C 103.0000 156.2500 103.0000 156.9149 103.0000 157.5798 C 103.0000 158.2447 103.0000 158.9096 103.0000 159.5745 C 103.0000 160.2394 103.0000 160.9043 103.0000 161.5691 C 103.0000 162.2340 103.0000 162.8989 103.0000 163.5638 C 103.0000 164.2287 103.0000 164.8936 103.0000 165.5585 C 103.0000 166.2234 103.0000 166.8883 103.0000 167.5532 C 103.0000 168.2181 103.0000 168.8830 103.0000 169.5479 C 103.0000 170.2128 103.0000 170.8777 103.0000 171.5426 C 103.0000 172.2074 103.0000 172.8723 103.0000 173.5372 C 103.0000 174.2021 103.0000 174.8670 103.0000 175.5319 C 103.0000 176.1968 103.0000 176.8617 103.0000 177.5266 C 103.0000 178.1915 103.0000 178.8564 103.0000 179.5213 C 103.0000 180.1862 103.0000 180.8511 103.0000 181.5160 C 103.0000 182.1809 103.0000 182.8457 103.0000 183.5106 C 103.0000 184.1755 103.0000 184.8404 103.0000 185.5053 C 103.0000 186.1702 103.0000 186.8351 103.0000 187.5000 C 103.0000 188.1649 103.0000 188.8298 103.0000 189.4947 C 103.0000 190.1596 103.0000 190.8245 103.0000 191.4894 C 103.0000 192.1543 103.0000 192.8191 103.0000 193.4840 C 103.0000 194.1489 103.0000 194.8138 103.0000 195.4787 C 103.0000 196.1436 103.0000 196.8085 103.0000 197.4734 C 103.0000 198.1383 103.0000 198.8032 103.0000 199.4681 C 103.0000 200.1330 103.0000 200.7979 103.0000 201.4628 C 103.0000 202.1277 103.0000 202.7926 103.0000 203.4574 C 103.0000 204.1223 103.0000 204.7872 103.0000 205.4521 C 103.0000 206.1170 103.0000 206.7819 103.0000 207.4468 C 103.0000 208.1117 103.0000 208.7766 103.0000 209.4415 C 103.0000 210.1064 103.0000 210.7713 103.0000 211.4362 C 103.0000 212.1011 103.0000 212.7660 103.0000 213.4309 C 103.0000 214.0957 103.0000 214.7606 103.0000 215.4255 C 103.0000 216.0904 103.0000 216.7553 103.0000 217.4202 C 103.0000 218.0851 103.0000 218.7500 103.0000 219.4149 C 103.0000 220.0798 103.0000 220.7447 103.0000 221.4096 C 103.0000 222.0745 103.0000 222.7394 103.0000 223.4043 C 103.0000 224.0691 103.0000 224.7340 103.0000 225.3989 C 103.0000 226.0638 103.0000 226.7287 103.0000 227.3936 C 103.0000 228.0585 103.0000 228.7234 103.0000 229.3883 C 103.0000 230.0532 103.0000 230.7181 103.0000 231.3830 C 103.0000 232.0479 103.0000 232.7128 103.0000 233.3777 C 103.0000 234.0426 103.0000 234.7074 103.0000 235.3723 C 103.0000 236.0372 103.0000 236.7021 103.0000 237.3670 C 103.0000 238.0319 103.0000 238.6968 103.0000 239.3617 C 103.0000 240.0266 103.0000 240.6915 103.0000 241.3564 C 103.0000 242.0213 103.0000 242.6862 103.0000 243.3511 C 103.0000 244.0160 103.0000 244.6809 103.0000 245.3457 C 103.0000 246.0106 103.0000 246.6755 103.0000 247.3404 C 103.0000 248.0053 103.0000 248.6702 103.0000 249.3351 C 103.0000 250.0000 103.0000 250.6649 103.0000 251.3298 C 103.0000 251.9947 103.0000 252.6596 103.0000 253.3245 C 103.0000 253.9894 103.0000 254.6543 103.0000 255.3191 C 103.0000 255.9840 103.0000 256.6489 103.0000 257.3138 C 103.0000 257.9787 103.0000 258.6436 103.0000 259.3085 C 103.0000 259.9734 103.0000 260.6383 103.0000 261.3032 C 103.0000 261.9681 103.0000 262.6330 103.0000 263.2979 C 103.0000 263.9628 103.0000 264.6277 103.0000 265.2926 C 103.0000 265.9574 103.0000 266.6223 103.0000 267.2872 C 103.0000 267.9521 103.0000 268.6170 103.0000 269.2819 C 103.0000 269.9468 103.0000 270.6117 103.0000 271.2766 C 103.0000 271.9415 103.0000 272.6064 103.0000 273.2713 C 103.0000 273.9362 103.0000 274.6011 103.0000 275.2660 C 103.0000 275.9309 103.0000 276.5957 103.0000 277.2606 C 103.0000 277.9255 103.0000 278.5904 103.0000 279.2553 C 103.0000 279.9202 103.0000 280.5851 103.0000 281.2500 C 103.0000 281.9149 103.0000 282.5798 103.0000 283.2447 C 103.0000 283.9096 103.0000 284.5745 103.0000 285.2394 C 103.0000 285.9043 103.0000 286.5691 103.0000 287.2340 C 103.0000 287.8989 103.0000 288.5638 103.0000 289.2287 C 103.0000 289.8936 103.0000 290.5585 103.0000 291.2234 C 103.0000 291.8883 103.0000 292.5532 103.0000 293.2181 C 103.0000 293.8830 103.0000 294.5479 103.0000 295.2128 C 103.0000 295.8777 103.0000 296.5426 103.0000 297.2074 C 103.0000 297.8723 103.0000 298.5372 103.0000 299.2021 C 103.0000 299.8670 103.0000 300.5319 103.0000 301.1968 C 103.0000 301.8617 103.0000 302.5266 103.0000 303.1915 C 103.0000 303.8564 103.0000 304.5213 103.0000 305.1862 C 103.0000 305.8511 103.0000 306.5160 103.0000 307.1809 C 103.0000 307.8457 103.0000 308.5106 103.0000 309.1755 C 103.0000 309.8404 103.0000 310.5053 103.0000 311.1702 C 103.0000 311.8351 103.0000 312.5000 103.0000 313.1649 C 103.0000 313.8298 103.0000 314.4947 103.0000 315.1596 C 103.0000 315.8245 103.0000 316.4894 103.0000 317.1543 C 103.0000 317.8191 103.0000 318.4840 103.0000 319.1489 C 103.0000 319.8138 103.0000 320.4787 103.0000 321.1436 C 103.0000 321.8085 103.0000 322.4734 103.0000 323.1383 C 103.0000 323.8032 103.0000 324.4681 103.0000 325.1330 C 103.0000 325.7979 103.0000 326.4628 103.0000 327.1277 C 103.0000 327.7926 103.0000 328.4574 103.0000 329.1223 C 103.0000 329.7872 103.0000 330.4521 103.0000 331.1170 C 103.0000 331.7819 103.0000 332.4468 103.0000 333.1117 C 103.0000 333.7766 103.0000 334.4415 103.0000 335.1064 C 103.0000 335.7713 103.0000 336.4362 103.0000 337.1011 C 103.0000 337.7660 103.0000 338.4309 103.0000 339.0957 C 103.0000 339.7606 103.0000 340.4255 103.0000 341.0904 C 103.0000 341.7553 103.0000 342.4202 103.0000 343.0851 C 103.0000 343.7500 103.0000 344.4149 103.0000 345.0798 C 103.0000 345.7447 103.0000 346.4096 103.0000 347.0745 C 103.0000 347.7394 103.0000 348.4043 103.0000 349.0691 C 103.0000 349.7340 103.0000 350.3989 103.0000 351.0638 C 103.0000 351.7287 103.0000 352.3936 103.0000 353.0585 C 103.0000 353.7234 103.0000 354.3883 103.0000 355.0532 C 103.0000 355.7181 103.0000 356.3830 103.0000 357.0479 C 103.0000 357.7128 103.0000 358.3777 103.0000 359.0426 C 103.0000 359.7074 103.0000 360.3723 103.0000 361.0372 C 103.0000 361.7021 103.0000 362.3670 103.0000 363.0319 C 103.0000 363.6968 103.0000 364.3617 103.0000 365.0266 C 103.0000 365.6915 103.0000 366.3564 103.0000 367.0213 C 103.0000 367.6862 103.0000 368.3511 103.0000 369.0160 C 103.0000 369.6809 103.0000 370.3457 103.0000 371.0106 C 103.0000 371.6755 103.0000 373.1677 103.0000 373.0053 C 103.0000 372.8430 103.0000 370.5261 103.0000 370.0365 C 103.0000 369.5469 103.0000 370.0521 103.0000 370.0677 C 103.0000 370.0832 103.0000 370.0988 103.0000 370.1300 C 103.0000 370.1612 103.0000 370.1923 103.0000 370.2547 C 103.0000 370.3170 103.0000 370.3793 103.0000 370.5040 C 103.0000 370.6287 103.0000 370.7533 103.0000 371.0027 C 103.0000 371.2520 103.0166 371.5039 103.0000 372.0000 C 102.9834 372.4961 102.9338 373.3197 102.9006 373.9795 C 102.8675 374.6394 102.8344 375.2992 102.8013 375.9590 C 102.7682 376.6189 102.7350 377.2787 102.7019 377.9386 C 102.6688 378.5984 102.6357 379.2583 102.6026 379.9181 C 102.5694 380.5779 102.5476 381.2390 102.5032 381.8976 C 102.4588 382.5563 102.4156 383.2151 102.3361 383.8701 C 102.2567 384.5251 102.1297 385.1752 102.0265 385.8278 C 101.9233 386.4804 101.8201 387.1329 101.7169 387.7855 C 101.6137 388.4380 101.5105 389.0906 101.4073 389.7432 C 101.3041 390.3957 101.2031 391.0488 101.0976 391.7009 C 100.9922 392.3529 100.9166 393.0115 100.7747 393.6556 C 100.6327 394.2998 100.4221 394.9291 100.2459 395.5658 C 100.0696 396.2025 99.8934 396.8393 99.7171 397.4760 C 99.5408 398.1127 99.3646 398.7494 99.1883 399.3862 C 99.0120 400.0229 98.8412 400.6615 98.6595 401.2963 C 98.4778 401.9312 98.3167 402.5731 98.0982 403.1954 C 97.8797 403.8177 97.5984 404.4186 97.3485 405.0302 C 97.0987 405.6418 96.8488 406.2534 96.5989 406.8650 C 96.3490 407.4766 96.0992 408.0882 95.8493 408.6998 C 95.5994 409.3114 95.3679 409.9318 95.0996 410.5346 C 94.8314 411.1373 94.5436 411.7307 94.2396 412.3163 C 93.9357 412.9019 93.5971 413.4709 93.2758 414.0482 C 92.9545 414.6255 92.6332 415.2028 92.3119 415.7801 C 91.9907 416.3574 91.6729 416.9369 91.3481 417.5120 C 91.0233 418.0870 90.7213 418.6766 90.3633 419.2305 C 90.0052 419.7843 89.5876 420.3002 89.1997 420.8350 C 88.8119 421.3698 88.4241 421.9047 88.0362 422.4395 C 87.6484 422.9744 87.2605 423.5092 86.8727 424.0441 C 86.4848 424.5789 86.1018 425.1577 85.7091 425.6486 C 85.3164 426.1396 84.9182 426.5461 84.5166 426.9898 C 84.1151 427.4336 83.7054 427.8707 83.2999 428.3112 C 82.8944 428.7516 82.4879 429.1920 82.0836 429.6325 C 81.6792 430.0729 81.2817 430.5209 80.8739 430.9538 C 80.4661 431.3868 80.0611 431.8212 79.6366 432.2300 C 79.2121 432.6389 78.7582 433.0146 78.3266 433.4069 C 77.8951 433.7991 77.4677 434.1914 77.0475 434.5837 C 76.6273 434.9760 76.2123 435.3682 75.8055 435.7605 C 75.3987 436.1528 75.0153 436.5672 74.6067 436.9373 C 74.1980 437.3075 73.7645 437.6363 73.3536 437.9813 C 72.9426 438.3263 72.5352 438.6653 72.1410 439.0073 C 71.7468 439.3493 71.3617 439.6912 70.9884 440.0332 C 70.6151 440.3752 70.2602 440.7308 69.9010 441.0592 C 69.5418 441.3876 69.1840 441.7008 68.8332 442.0038 C 68.4823 442.3067 68.1283 442.5858 67.7959 442.8768 C 67.4636 443.1679 67.1437 443.4589 66.8389 443.7499 C 66.5341 444.0409 66.2473 444.3415 65.9671 444.6229 C 65.6870 444.9043 65.4252 445.1945 65.1581 445.4383 C 64.8910 445.6820 64.6126 445.8698 64.3646 446.0856 C 64.1166 446.3014 63.8843 446.5172 63.6700 446.7330 C 63.4556 446.9488 63.2578 447.1646 63.0786 447.3804 C 62.8995 447.5962 62.7375 447.8120 62.5950 448.0278 C 62.4524 448.2435 62.3279 448.4593 62.2234 448.6751 C 62.1189 448.8909 62.0334 449.1067 61.9681 449.3225 C 61.9028 449.5383 61.8563 449.7541 61.8316 449.9699 C 61.8068 450.1857 61.8154 450.4473 61.8194 450.6172 C 61.8235 450.7872 61.8226 450.8687 61.8559 450.9894 C 61.8891 451.1100 61.9419 451.2238 62.0190 451.3410 C 62.0962 451.4582 62.1955 451.5754 62.3189 451.6926 C 62.4423 451.8098 62.5885 451.9270 62.7594 452.0442 C 62.9304 452.1614 63.1248 452.2786 63.3447 452.3958 C 63.5645 452.5130 64.2150 452.5686 64.0785 452.7474 C 63.9419 452.9263 63.5939 453.3281 62.5254 453.4691 C 61.4569 453.6100 59.3294 453.5517 57.6674 453.5930 C 56.0053 453.6343 54.2824 453.6756 52.5532 453.7169 C 50.8240 453.7582 48.2792 453.8282 47.2920 453.8408 C 46.3048 453.8535 46.7679 453.8027 46.6299 453.7926 C 46.4919 453.7825 46.5055 453.7836 46.4641 453.7805 C 46.4226 453.7775 43.5150 453.7765 46.3811 453.7745 C 49.2473 453.7725 60.8075 453.7735 63.6608 453.7685 C 66.5142 453.7634 63.6336 453.7645 63.5013 453.7443 C 63.3691 453.7242 63.1814 453.6961 62.8673 453.6478 C 62.5533 453.5996 62.2297 453.5837 61.6171 453.4548 C 61.0045 453.3260 59.9878 453.0682 59.1919 452.8749 C 58.3960 452.6815 57.5879 452.5875 56.8415 452.2949 C 56.0950 452.0022 55.4020 451.5527 54.7133 451.1191 C 54.0246 450.6855 53.3614 450.1822 52.7094 449.6931 C 52.0574 449.2040 51.3677 448.8055 50.8015 448.1843 C 50.2353 447.5632 49.7203 446.8031 49.3122 445.9664 C 48.9041 445.1296 48.5436 444.1932 48.3531 443.1638 C 48.1626 442.1345 48.1236 440.6716 48.1692 439.7903 C 48.2148 438.9090 48.5117 438.3545 48.6266 437.8759 C 48.7416 437.3973 48.8007 437.1580 48.8589 436.9187 C 48.9171 436.6794 48.9515 436.5398 48.9759 436.4401 C 49.0003 436.3404 48.9979 435.3503 49.0053 436.3204 C 49.0126 437.2905 49.0150 441.2805 49.0199 442.2606 C 49.0248 443.2406 49.0224 442.2506 49.0346 442.2008 C 49.0469 442.1509 48.7223 442.6611 49.0935 441.9615 C 49.4647 441.2618 50.3595 439.2895 51.2617 438.0030 C 52.1638 436.7164 53.3066 435.4439 54.5065 434.2421 C 55.7064 433.0404 57.0723 431.8999 58.4612 430.7923 C 59.8502 429.6846 61.3303 428.6287 62.8402 427.5961 C 64.3502 426.5636 65.9006 425.5421 67.5209 424.5969 C 69.1413 423.6516 70.8707 422.8090 72.5623 421.9247 C 74.2540 421.0404 75.9222 420.1175 77.6708 419.2913 C 79.4195 418.4651 81.2544 417.7409 83.0542 416.9676 C 84.8540 416.1943 86.8915 415.3916 88.4695 414.6515 C 90.0475 413.9114 91.5111 413.2223 92.5224 412.5272 C 93.5336 411.8322 94.3109 411.1608 94.5371 410.4812 C 94.7633 409.8016 94.2633 408.9394 93.8796 408.4494 C 93.4959 407.9594 92.9664 407.8439 92.2349 407.5412 C 91.5035 407.2384 90.6104 406.9357 89.4911 406.6330 C 88.3717 406.3302 87.0684 406.0275 85.5188 405.7247 C 83.9691 405.4220 82.2141 405.1192 80.1931 404.8165 C 78.1721 404.5137 75.9251 404.2110 73.3929 403.9082 C 70.8608 403.6055 66.3990 403.1514 65.0002 403.0000 C 65.0001 397.0000 64.9999 397.0000 64.9998 397.0000 C 61.0277 397.3027 56.7903 397.6055 53.0837 397.9082 C 49.3772 398.2110 45.9556 398.5137 42.7602 398.8165 C 39.5648 399.1192 36.6353 399.4220 33.9112 399.7247 C 31.1871 400.0275 28.7093 400.3302 26.4155 400.6330 C 24.1217 400.9357 22.0542 401.2384 20.1483 401.5412 C 18.2425 401.8439 17.0856 401.9594 14.9803 402.4494 C 12.8750 402.9394 9.5564 403.8016 7.5165 404.4812 C 5.4766 405.1608 3.9758 405.8322 2.7408 406.5272 C 1.5059 407.2223 0.7154 407.9114 0.1066 408.6515 C -0.5022 409.3916 -0.5693 410.1943 -0.9122 410.9676 C -1.2551 411.7409 -1.6414 412.4651 -1.9507 413.2913 C -2.2600 414.1175 -2.4974 415.0404 -2.7679 415.9247 C -3.0384 416.8090 -3.3556 417.6516 -3.5737 418.5969 C -3.7919 419.5421 -3.9493 420.5636 -4.0768 421.5961 C -4.2043 422.6287 -4.3115 423.6846 -4.3387 424.7923 C -4.3658 425.8999 -4.3798 427.0404 -4.2395 428.2421 C -4.0992 429.4439 -3.9122 430.7164 -3.4968 432.0030 C -3.0814 433.2895 -2.0695 435.2618 -1.7473 435.9615 C -1.4252 436.6611 -1.6020 436.1509 -1.5638 436.2008 C -1.5255 436.2506 -1.5332 435.2406 -1.5179 436.2606 C -1.5026 437.2805 -1.4950 441.2905 -1.4720 442.3204 C -1.4491 443.3503 -1.4567 442.3404 -1.3803 442.4401 C -1.3040 442.5398 -1.1968 442.6794 -1.0139 442.9187 C -0.8310 443.1580 -0.6472 443.3973 -0.2828 443.8759 C 0.0815 444.3545 0.2714 444.9090 1.1722 445.7903 C 2.0729 446.6716 3.6898 448.1345 5.1216 449.1638 C 6.5533 450.1932 8.1421 451.1296 9.7626 451.9664 C 11.3830 452.8031 13.0967 453.5632 14.8441 454.1843 C 16.5916 454.8055 18.4478 455.2040 20.2473 455.6931 C 22.0467 456.1822 23.8416 456.6855 25.6406 457.1191 C 27.4397 457.5527 29.2260 458.0022 31.0415 458.2949 C 32.8571 458.5875 34.7156 458.6815 36.5339 458.8749 C 38.3522 459.0682 40.6014 459.3260 41.9514 459.4548 C 43.3014 459.5837 43.9647 459.5996 44.6338 459.6478 C 45.3029 459.6961 45.6887 459.7242 45.9661 459.7443 C 46.2435 459.7645 43.3424 459.7634 46.2982 459.7685 C 49.2540 459.7735 60.7937 459.7725 63.7008 459.7745 C 66.6078 459.7765 63.7207 459.7775 63.7407 459.7805 C 63.7607 459.7836 63.7539 459.7825 63.8207 459.7926 C 63.8875 459.8027 63.6444 459.8535 64.1417 459.8408 C 64.6390 459.8282 65.8925 459.7582 66.8047 459.7169 C 67.7169 459.6756 68.6354 459.6343 69.6147 459.5930 C 70.5941 459.5517 71.1309 459.6100 72.6809 459.4691 C 74.2310 459.3281 77.1665 458.9263 78.9150 458.7474 C 80.6634 458.5686 81.7776 458.5130 83.1717 458.3958 C 84.5658 458.2786 85.9346 458.1614 87.2798 458.0442 C 88.6251 457.9270 89.9456 457.8098 91.2433 457.6926 C 92.5410 457.5754 93.8146 457.4582 95.0660 457.3410 C 96.3175 457.2238 97.5465 457.1100 98.7521 456.9894 C 99.9577 456.8687 101.1518 456.7872 102.2995 456.6172 C 103.4472 456.4473 104.5462 456.1857 105.6384 455.9699 C 106.7306 455.7541 107.8011 455.5383 108.8527 455.3225 C 109.9044 455.1067 110.9359 454.8909 111.9485 454.6751 C 112.9610 454.4593 113.9534 454.2435 114.9278 454.0278 C 115.9023 453.8120 116.8574 453.5962 117.7952 453.3804 C 118.7330 453.1646 119.6522 452.9488 120.5548 452.7330 C 121.4575 452.5172 122.3422 452.3014 123.2112 452.0856 C 124.0801 451.8698 124.9450 451.6820 125.7687 451.4383 C 126.5923 451.1945 127.3778 450.9043 128.1532 450.6229 C 128.9286 450.3415 129.6793 450.0409 130.4210 449.7499 C 131.1627 449.4589 131.8893 449.1679 132.6034 448.8768 C 133.3175 448.5858 134.0249 448.3067 134.7057 448.0038 C 135.3865 447.7008 136.0475 447.3876 136.6881 447.0592 C 137.3287 446.7308 137.9398 446.3752 138.5494 446.0332 C 139.1590 445.6912 139.7569 445.3493 140.3456 445.0073 C 140.9343 444.6653 141.5145 444.3263 142.0817 443.9813 C 142.6490 443.6363 143.2188 443.3075 143.7493 442.9373 C 144.2797 442.5672 144.7666 442.1528 145.2645 441.7605 C 145.7623 441.3682 146.2520 440.9760 146.7365 440.5837 C 147.2209 440.1914 147.6981 439.7991 148.1713 439.4069 C 148.6444 439.0146 149.1274 438.6389 149.5753 438.2300 C 150.0233 437.8212 150.4411 437.3868 150.8591 436.9538 C 151.2770 436.5209 151.6761 436.0729 152.0829 435.6325 C 152.4897 435.1920 152.8943 434.7516 153.2999 434.3112 C 153.7056 433.8707 154.1151 433.4336 154.5166 432.9898 C 154.9182 432.5461 155.3164 432.1396 155.7091 431.6486 C 156.1018 431.1577 156.4848 430.5789 156.8727 430.0441 C 157.2605 429.5092 157.6484 428.9744 158.0362 428.4395 C 158.4241 427.9047 158.8119 427.3698 159.1997 426.8350 C 159.5876 426.3002 160.0052 425.7843 160.3633 425.2305 C 160.7213 424.6766 161.0233 424.0870 161.3481 423.5120 C 161.6729 422.9369 161.9907 422.3574 162.3119 421.7801 C 162.6332 421.2028 162.9545 420.6255 163.2758 420.0482 C 163.5971 419.4709 163.9357 418.9019 164.2396 418.3163 C 164.5436 417.7307 164.8314 417.1373 165.0996 416.5346 C 165.3679 415.9318 165.5994 415.3114 165.8493 414.6998 C 166.0992 414.0882 166.3490 413.4766 166.5989 412.8650 C 166.8488 412.2534 167.0987 411.6418 167.3485 411.0302 C 167.5984 410.4186 167.8797 409.8177 168.0982 409.1954 C 168.3167 408.5731 168.4778 407.9312 168.6595 407.2963 C 168.8412 406.6615 169.0120 406.0229 169.1883 405.3862 C 169.3646 404.7494 169.5408 404.1127 169.7171 403.4760 C 169.8934 402.8393 170.0696 402.2025 170.2459 401.5658 C 170.4221 400.9291 170.6327 400.2998 170.7747 399.6556 C 170.9166 399.0115 170.9922 398.3529 171.0976 397.7009 C 171.2031 397.0488 171.3041 396.3957 171.4073 395.7432 C 171.5105 395.0906 171.6137 394.4380 171.7169 393.7855 C 171.8201 393.1329 171.9233 392.4804 172.0265 391.8278 C 172.1297 391.1752 172.2567 390.5251 172.3361 389.8701 C 172.4156 389.2151 172.4588 388.5563 172.5032 387.8976 C 172.5476 387.2390 172.5694 386.5779 172.6026 385.9181 C 172.6357 385.2583 172.6688 384.5984 172.7019 383.9386 C 172.7350 383.2787 172.7682 382.6189 172.8013 381.9590 C 172.8344 381.2992 172.8675 380.6394 172.9006 379.9795 C 172.9338 379.3197 172.9834 378.4961 173.0000 378.0000 C 173.0166 377.5039 173.0000 377.2520 173.0000 377.0027 C 173.0000 376.7533 173.0000 376.6287 173.0000 376.5040 C 173.0000 376.3793 173.0000 376.3170 173.0000 376.2547 C 173.0000 376.1923 173.0000 376.1612 173.0000 376.1300 C 173.0000 376.0988 173.0000 376.0832 173.0000 376.0677 C 173.0000 376.0521 173.0000 376.5469 173.0000 376.0365 C 173.0000 375.5261 173.0000 373.8430 173.0000 373.0053 C 173.0000 372.1677 173.0000 371.6755 173.0000 371.0106 C 173.0000 370.3457 173.0000 369.6809 173.0000 369.0160 C 173.0000 368.3511 173.0000 367.6862 173.0000 367.0213 C 173.0000 366.3564 173.0000 365.6915 173.0000 365.0266 C 173.0000 364.3617 173.0000 363.6968 173.0000 363.0319 C 173.0000 362.3670 173.0000 361.7021 173.0000 361.0372 C 173.0000 360.3723 173.0000 359.7074 173.0000 359.0426 C 173.0000 358.3777 173.0000 357.7128 173.0000 357.0479 C 173.0000 356.3830 173.0000 355.7181 173.0000 355.0532 C 173.0000 354.3883 173.0000 353.7234 173.0000 353.0585 C 173.0000 352.3936 173.0000 351.7287 173.0000 351.0638 C 173.0000 350.3989 173.0000 349.7340 173.0000 349.0691 C 173.0000 348.4043 173.0000 347.7394 173.0000 347.0745 C 173.0000 346.4096 173.0000 345.7447 173.0000 345.0798 C 173.0000 344.4149 173.0000 343.7500 173.0000 343.0851 C 173.0000 342.4202 173.0000 341.7553 173.0000 341.0904 C 173.0000 340.4255 173.0000 339.7606 173.0000 339.0957 C 173.0000 338.4309 173.0000 337.7660 173.0000 337.1011 C 173.0000 336.4362 173.0000 335.7713 173.0000 335.1064 C 173.0000 334.4415 173.0000 333.7766 173.0000 333.1117 C 173.0000 332.4468 173.0000 331.7819 173.0000 331.1170 C 173.0000 330.4521 173.0000 329.7872 173.0000 329.1223 C 173.0000 328.4574 173.0000 327.7926 173.0000 327.1277 C 173.0000 326.4628 173.0000 325.7979 173.0000 325.1330 C 173.0000 324.4681 173.0000 323.8032 173.0000 323.1383 C 173.0000 322.4734 173.0000 321.8085 173.0000 321.1436 C 173.0000 320.4787 173.0000 319.8138 173.0000 319.1489 C 173.0000 318.4840 173.0000 317.8191 173.0000 317.1543 C 173.0000 316.4894 173.0000 315.8245 173.0000 315.1596 C 173.0000 314.4947 173.0000 313.8298 173.0000 313.1649 C 173.0000 312.5000 173.0000 311.8351 173.0000 311.1702 C 173.0000 310.5053 173.0000 309.8404 173.0000 309.1755 C 173.0000 308.5106 173.0000 307.8457 173.0000 307.1809 C 173.0000 306.5160 173.0000 305.8511 173.0000 305.1862 C 173.0000 304.5213 173.0000 303.8564 173.0000 303.1915 C 173.0000 302.5266 173.0000 301.8617 173.0000 301.1968 C 173.0000 300.5319 173.0000 299.8670 173.0000 299.2021 C 173.0000 298.5372 173.0000 297.8723 173.0000 297.2074 C 173.0000 296.5426 173.0000 295.8777 173.0000 295.2128 C 173.0000 294.5479 173.0000 293.8830 173.0000 293.2181 C 173.0000 292.5532 173.0000 291.8883 173.0000 291.2234 C 173.0000 290.5585 173.0000 289.8936 173.0000 289.2287 C 173.0000 288.5638 173.0000 287.8989 173.0000 287.2340 C 173.0000 286.5691 173.0000 285.9043 173.0000 285.2394 C 173.0000 284.5745 173.0000 283.9096 173.0000 283.2447 C 173.0000 282.5798 173.0000 281.9149 173.0000 281.2500 C 173.0000 280.5851 173.0000 279.9202 173.0000 279.2553 C 173.0000 278.5904 173.0000 277.9255 173.0000 277.2606 C 173.0000 276.5957 173.0000 275.9309 173.0000 275.2660 C 173.0000 274.6011 173.0000 273.9362 173.0000 273.2713 C 173.0000 272.6064 173.0000 271.9415 173.0000 271.2766 C 173.0000 270.6117 173.0000 269.9468 173.0000 269.2819 C 173.0000 268.6170 173.0000 267.9521 173.0000 267.2872 C 173.0000 266.6223 173.0000 265.9574 173.0000 265.2926 C 173.0000 264.6277 173.0000 263.9628 173.0000 263.2979 C 173.0000 262.6330 173.0000 261.9681 173.0000 261.3032 C 173.0000 260.6383 173.0000 259.9734 173.0000 259.3085 C 173.0000 258.6436 173.0000 257.9787 173.0000 257.3138 C 173.0000 256.6489 173.0000 255.9840 173.0000 255.3191 C 173.0000 254.6543 173.0000 253.9894 173.0000 253.3245 C 173.0000 252.6596 173.0000 251.9947 173.0000 251.3298 C 173.0000 250.6649 173.0000 250.0000 173.0000 249.3351 C 173.0000 248.6702 173.0000 248.0053 173.0000 247.3404 C 173.0000 246.6755 173.0000 246.0106 173.0000 245.3457 C 173.0000 244.6809 173.0000 244.0160 173.0000 243.3511 C 173.0000 242.6862 173.0000 242.0213 173.0000 241.3564 C 173.0000 240.6915 173.0000 240.0266 173.0000 239.3617 C 173.0000 238.6968 173.0000 238.0319 173.0000 237.3670 C 173.0000 236.7021 173.0000 236.0372 173.0000 235.3723 C 173.0000 234.7074 173.0000 234.0426 173.0000 233.3777 C 173.0000 232.7128 173.0000 232.0479 173.0000 231.3830 C 173.0000 230.7181 173.0000 230.0532 173.0000 229.3883 C 173.0000 228.7234 173.0000 228.0585 173.0000 227.3936 C 173.0000 226.7287 173.0000 226.0638 173.0000 225.3989 C 173.0000 224.7340 173.0000 224.0691 173.0000 223.4043 C 173.0000 222.7394 173.0000 222.0745 173.0000 221.4096 C 173.0000 220.7447 173.0000 220.0798 173.0000 219.4149 C 173.0000 218.7500 173.0000 218.0851 173.0000 217.4202 C 173.0000 216.7553 173.0000 216.0904 173.0000 215.4255 C 173.0000 214.7606 173.0000 214.0957 173.0000 213.4309 C 173.0000 212.7660 173.0000 212.1011 173.0000 211.4362 C 173.0000 210.7713 173.0000 210.1064 173.0000 209.4415 C 173.0000 208.7766 173.0000 208.1117 173.0000 207.4468 C 173.0000 206.7819 173.0000 206.1170 173.0000 205.4521 C 173.0000 204.7872 173.0000 204.1223 173.0000 203.4574 C 173.0000 202.7926 173.0000 202.1277 173.0000 201.4628 C 173.0000 200.7979 173.0000 200.1330 173.0000 199.4681 C 173.0000 198.8032 173.0000 198.1383 173.0000 197.4734 C 173.0000 196.8085 173.0000 196.1436 173.0000 195.4787 C 173.0000 194.8138 173.0000 194.1489 173.0000 193.4840 C 173.0000 192.8191 173.0000 192.1543 173.0000 191.4894 C 173.0000 190.8245 173.0000 190.1596 173.0000 189.4947 C 173.0000 188.8298 173.0000 188.1649 173.0000 187.5000 C 173.0000 186.8351 173.0000 186.1702 173.0000 185.5053 C 173.0000 184.8404 173.0000 184.1755 173.0000 183.5106 C 173.0000 182.8457 173.0000 182.1809 173.0000 181.5160 C 173.0000 180.8511 173.0000 180.1862 173.0000 179.5213 C 173.0000 178.8564 173.0000 178.1915 173.0000 177.5266 C 173.0000 176.8617 173.0000 176.1968 173.0000 175.5319 C 173.0000 174.8670 173.0000 174.2021 173.0000 173.5372 C 173.0000 172.8723 173.0000 172.2074 173.0000 171.5426 C 173.0000 170.8777 173.0000 170.2128 173.0000 169.5479 C 173.0000 168.8830 173.0000 168.2181 173.0000 167.5532 C 173.0000 166.8883 173.0000 166.2234 173.0000 165.5585 C 173.0000 164.8936 173.0000 164.2287 173.0000 163.5638 C 173.0000 162.8989 173.0000 162.2340 173.0000 161.5691 C 173.0000 160.9043 173.0000 160.2394 173.0000 159.5745 C 173.0000 158.9096 173.0000 158.2447 173.0000 157.5798 C 173.0000 156.9149 173.0000 156.2500 173.0000 155.5851 C 173.0000 154.9202 173.0000 154.2553 173.0000 153.5904 C 173.0000 152.9255 173.0000 152.2606 173.0000 151.5957 C 173.0000 150.9309 173.0000 150.2660 173.0000 149.6011 C 173.0000 148.9362 173.0000 148.2713 173.0000 147.6064 C 173.0000 146.9415 173.0000 146.2766 173.0000 145.6117 C 173.0000 144.9468 173.0000 144.2819 173.0000 143.6170 C 173.0000 142.9521 173.0000 142.2872 173.0000 141.6223 C 173.0000 140.9574 173.0000 140.2926 173.0000 139.6277 C 173.0000 138.9628 173.0000 138.2979 173.0000 137.6330 C 173.0000 136.9681 173.0000 136.3032 173.0000 135.6383 C 173.0000 134.9734 173.0000 134.3085 173.0000 133.6436 C 173.0000 132.9787 173.0000 132.3138 173.0000 131.6489 C 173.0000 130.9840 173.0000 130.3191 173.0000 129.6543 C 173.0000 128.9894 173.0000 128.3245 173.0000 127.6596 C 173.0000 126.9947 173.0000 126.3298 173.0000 125.6649 C 173.0000 125.0000 173.0000 124.3351 173.0000 123.6702 C 173.0000 123.0053 173.0000 122.3404 173.0000 121.6755 C 173.0000 121.0106 173.0000 120.3457 173.0000 119.6809 C 173.0000 119.0160 173.0000 118.3511 173.0000 117.6862 C 173.0000 117.0213 173.0000 116.3564 173.0000 115.6915 C 173.0000 115.0266 173.0000 114.3617 173.0000 113.6968 C 173.0000 113.0319 173.0000 112.3670 173.0000 111.7021 C 173.0000 111.0372 173.0000 110.3723 173.0000 109.7074 C 173.0000 109.0426 173.0000 108.3777 173.0000 107.7128 C 173.0000 107.0479 173.0000 106.3830 173.0000 105.7181 C 173.0000 105.0532 173.0000 104.3883 173.0000 103.7234 C 173.0000 103.0585 173.0000 102.3936 173.0000 101.7287 C 173.0000 101.0638 173.0000 100.3989 173.0000 99.7340 C 173.0000 99.0691 173.0000 98.4043 173.0000 97.7394 C 173.0000 97.0745 173.0000 96.4096 173.0000 95.7447 C 173.0000 95.0798 173.0000 94.4149 173.0000 93.7500 C 173.0000 93.0851 173.0000 92.4202 173.0000 91.7553 C 173.0000 91.0904 173.0000 90.4255 173.0000 89.7606 C 173.0000 89.0957 173.0000 88.4309 173.0000 87.7660 C 173.0000 87.1011 173.0000 86.4362 173.0000 85.7713 C 173.0000 85.1064 173.0000 84.4415 173.0000 83.7766 C 173.0000 83.1117 173.0000 82.4468 173.0000 81.7819 C 173.0000 81.1170 173.0000 80.4521 173.0000 79.7872 C 173.0000 79.1223 173.0000 78.4574 173.0000 77.7926 C 173.0000 77.1277 173.0000 76.4628 173.0000 75.7979 C 173.0000 75.1330 173.0000 74.4681 173.0000 73.8032 C 173.0000 73.1383 173.0000 72.4734 173.0000 71.8085 C 173.0000 71.1436 173.0000 70.4787 173.0000 69.8138 C 173.0000 69.1489 173.0000 68.4840 173.0000 67.8191 C 173.0000 67.1543 173.0000 66.4894 173.0000 65.8245 C 173.0000 65.1596 173.0000 64.4947 173.0000 63.8298 C 173.0000 63.1649 173.0000 62.5000 173.0000 61.8351 C 173.0000 61.1702 173.0000 60.5053 173.0000 59.8404 C 173.0000 59.1755 173.0000 58.5106 173.0000 57.8457 C 173.0000 57.1809 173.0000 56.5160 173.0000 55.8511 C 173.0000 55.1862 172.9999 54.5213 173.0000 53.8564 C 173.0001 53.1915 172.9997 52.5266 173.0004 51.8617 C 173.0011 51.1968 173.0013 50.5319 173.0041 49.8670 C 173.0069 49.2021 173.0096 48.5372 173.0173 47.8723 C 173.0249 47.2074 173.0336 46.5426 173.0500 45.8777 C 173.0664 45.2128 173.0854 44.5479 173.1157 43.8830 C 173.1459 43.2181 173.1810 42.5532 173.2315 41.8883 C 173.2819 41.2234 173.3401 40.5585 173.4183 39.8936 C 173.4965 39.2287 173.5859 38.5638 173.7006 37.8989 C 173.8153 37.2340 173.9453 36.5691 174.1066 35.9043 C 174.2679 35.2394 174.4491 34.5745 174.6682 33.9096 C 174.8872 33.2447 175.1316 32.5798 175.4209 31.9149 C 175.7103 31.2500 176.0309 30.5851 176.4043 29.9202 C 176.7776 29.2553 177.1888 28.5904 177.6612 27.9255 C 178.1336 27.2606 178.6509 26.5957 179.2386 25.9309 C 179.8262 25.2660 180.4666 24.6011 181.1869 23.9362 C 181.9072 23.2713 182.6888 22.6064 183.5605 21.9415 C 184.4323 21.2766 185.3744 20.6117 186.4176 19.9468 C 187.4608 19.2819 188.5839 18.6170 189.8198 17.9521 C 191.0557 17.2872 192.3818 16.6223 193.8329 15.9574 C 195.2839 15.2926 196.8362 14.6277 198.5262 13.9628 C 200.2161 13.2979 202.0189 12.6330 203.9728 11.9681 C 205.9268 11.3032 208.0057 10.6383 210.2499 9.9734 C 212.4941 9.3085 214.8760 8.6436 217.4380 7.9787 C 220.0000 7.3138 223.8892 6.3996 225.6218 5.9840 C 227.3544 5.5685 227.4373 5.6516 227.8336 5.4854 C 228.2300 5.3191 227.9723 5.2360 228.0000 4.9867 C 228.0277 4.7374 228.0000 4.4880 228.0000 3.9894 C 228.0000 3.4907 228.0000 2.6596 228.0000 1.9947 C 228.0000 1.3298 228.0000 0.3324 228.0000 0 C 168.0000 -3.0000 108.0000 -3.0000 48.0000 -3.0000 Z"/>
<path fill="black" stroke="none" fill-rule="nonzero" d="M 102.8649 373.6946 C 102.7693 373.7903 102.8649 374.0773 102.8649 374.2686 C 102.8649 374.4600 102.8649 374.6513 102.8649 374.8427 C 102.8649 375.0340 102.7693 375.3210 102.8649 375.4167 C 102.9606 375.5123 103.2476 375.4167 103.4390 375.4167 C 103.6303 375.4167 103.8216 375.4167 104.0130 375.4167 C 104.2043 375.4167 104.3957 375.4167 104.5870 375.4167 C 104.7784 375.4167 104.9697 375.4167 105.1610 375.4167 C 105.3524 375.4167 105.5437 375.4167 105.7351 375.4167 C 105.9264 375.4167 106.1177 375.4167 106.3091 375.4167 C 106.5004 375.4167 106.6918 375.4167 106.8831 375.4167 C 107.0745 375.4167 107.2658 375.4167 107.4571 375.4167 C 107.6485 375.4167 107.8398 375.4167 108.0312 375.4167 C 108.2225 375.4167 108.4138 375.4167 108.6052 375.4167 C 108.7965 375.4167 108.9879 375.4167 109.1792 375.4167 C 109.3706 375.4167 109.5619 375.4167 109.7532 375.4167 C 109.9446 375.4167 110.1359 375.4167 110.3273 375.4167 C 110.5186 375.4167 110.7100 375.4167 110.9013 375.4167 C 111.0926 375.4167 111.2840 375.4167 111.4753 375.4167 C 111.6667 375.4167 111.8580 375.4167 112.0493 375.4167 C 112.2407 375.4167 112.4320 375.4167 112.6234 375.4167 C 112.8147 375.4167 113.0061 375.4167 113.1974 375.4167 C 113.3887 375.4167 113.5801 375.4167 113.7714 375.4167 C 113.9628 375.4167 114.1541 375.4167 114.3454 375.4167 C 114.5368 375.4167 114.7281 375.4167 114.9195 375.4167 C 115.1108 375.4167 115.3022 375.4167 115.4935 375.4167 C 115.6848 375.4167 115.8762 375.4167 116.0675 375.4167 C 116.2589 375.4167 116.4502 375.4167 116.6415 375.4167 C 116.8329 375.4167 117.0242 375.4167 117.2156 375.4167 C 117.4069 375.4167 117.5983 375.4167 117.7896 375.4167 C 117.9809 375.4167 118.1723 375.4167 118.3636 375.4167 C 118.5550 375.4167 118.7463 375.4167 118.9376 375.4167 C 119.1290 375.4167 119.3203 375.4167 119.5117 375.4167 C 119.7030 375.4167 119.8944 375.4167 120.0857 375.4167 C 120.2770 375.4167 120.4684 375.4167 120.6597 375.4167 C 120.8511 375.4167 121.0424 375.4167 121.2337 375.4167 C 121.4251 375.4167 121.6164 375.4167 121.8078 375.4167 C 121.9991 375.4167 122.1905 375.4167 122.3818 375.4167 C 122.5731 375.4167 122.7645 375.4167 122.9558 375.4167 C 123.1472 375.4167 123.3385 375.4167 123.5298 375.4167 C 123.7212 375.4167 123.9125 375.4167 124.1039 375.4167 C 124.2952 375.4167 124.4866 375.4167 124.6779 375.4167 C 124.8692 375.4167 125.0606 375.4167 125.2519 375.4167 C 125.4433 375.4167 125.6346 375.4167 125.8259 375.4167 C 126.0173 375.4167 126.2086 375.4167 126.4000 375.4167 C 126.5913 375.4167 126.7827 375.4167 126.9740 375.4167 C 127.1653 375.4167 127.3567 375.4167 127.5480 375.4167 C 127.7394 375.4167 127.9307 375.4167 128.1220 375.4167 C 128.3134 375.4167 128.5047 375.4167 128.6961 375.4167 C 128.8874 375.4167 129.0788 375.4167 129.2701 375.4167 C 129.4614 375.4167 129.6528 375.4167 129.8441 375.4167 C 130.0355 375.4167 130.2268 375.4167 130.4181 375.4167 C 130.6095 375.4167 130.8008 375.4167 130.9922 375.4167 C 131.1835 375.4167 131.3749 375.4167 131.5662 375.4167 C 131.7575 375.4167 131.9489 375.4167 132.1402 375.4167 C 132.3316 375.4167 132.5229 375.4167 132.7142 375.4167 C 132.9056 375.4167 133.0969 375.4167 133.2883 375.4167 C 133.4796 375.4167 133.6710 375.4167 133.8623 375.4167 C 134.0536 375.4167 134.2450 375.4167 134.4363 375.4167 C 134.6277 375.4167 134.8190 375.4167 135.0104 375.4167 C 135.2017 375.4167 135.3930 375.4167 135.5844 375.4167 C 135.7757 375.4167 135.9671 375.4167 136.1584 375.4167 C 136.3497 375.4167 136.5411 375.4167 136.7324 375.4167 C 136.9238 375.4167 137.1151 375.4167 137.3065 375.4167 C 137.4978 375.4167 137.6891 375.4167 137.8805 375.4167 C 138.0718 375.4167 138.2632 375.4167 138.4545 375.4167 C 138.6458 375.4167 138.8372 375.4167 139.0285 375.4167 C 139.2199 375.4167 139.4112 375.4167 139.6026 375.4167 C 139.7939 375.4167 139.9852 375.4167 140.1766 375.4167 C 140.3679 375.4167 140.5593 375.4167 140.7506 375.4167 C 140.9419 375.4167 141.1333 375.4167 141.3246 375.4167 C 141.5160 375.4167 141.7073 375.4167 141.8987 375.4167 C 142.0900 375.4167 142.2813 375.4167 142.4727 375.4167 C 142.6640 375.4167 142.8554 375.4167 143.0467 375.4167 C 143.2380 375.4167 143.4294 375.4167 143.6207 375.4167 C 143.8121 375.4167 144.0034 375.4167 144.1948 375.4167 C 144.3861 375.4167 144.5774 375.4167 144.7688 375.4167 C 144.9601 375.4167 145.1515 375.4167 145.3428 375.4167 C 145.5341 375.4167 145.7255 375.4167 145.9168 375.4167 C 146.1082 375.4167 146.2995 375.4167 146.4909 375.4167 C 146.6822 375.4167 146.8735 375.4167 147.0649 375.4167 C 147.2562 375.4167 147.4476 375.4167 147.6389 375.4167 C 147.8302 375.4167 148.0216 375.4167 148.2129 375.4167 C 148.4043 375.4167 148.5956 375.4167 148.7870 375.4167 C 148.9783 375.4167 149.1696 375.4167 149.3610 375.4167 C 149.5523 375.4167 149.7437 375.4167 149.9350 375.4167 C 150.1263 375.4167 150.3177 375.4167 150.5090 375.4167 C 150.7004 375.4167 150.8917 375.4167 151.0831 375.4167 C 151.2744 375.4167 151.4657 375.4167 151.6571 375.4167 C 151.8484 375.4167 152.0398 375.4167 152.2311 375.4167 C 152.4224 375.4167 152.6138 375.4167 152.8051 375.4167 C 152.9965 375.4167 153.1878 375.4167 153.3792 375.4167 C 153.5705 375.4167 153.7618 375.4167 153.9532 375.4167 C 154.1445 375.4167 154.3359 375.4167 154.5272 375.4167 C 154.7185 375.4167 154.9099 375.4167 155.1012 375.4167 C 155.2926 375.4167 155.4839 375.4167 155.6753 375.4167 C 155.8666 375.4167 156.0579 375.4167 156.2493 375.4167 C 156.4406 375.4167 156.6320 375.4167 156.8233 375.4167 C 157.0146 375.4167 157.2060 375.4167 157.3973 375.4167 C 157.5887 375.4167 157.7800 375.4167 157.9714 375.4167 C 158.1627 375.4167 158.3540 375.4167 158.5454 375.4167 C 158.7367 375.4167 158.9281 375.4167 159.1194 375.4167 C 159.3108 375.4167 159.5021 375.4167 159.6934 375.4167 C 159.8848 375.4167 160.0761 375.4167 160.2675 375.4167 C 160.4588 375.4167 160.6501 375.4167 160.8415 375.4167 C 161.0328 375.4167 161.2242 375.4167 161.4155 375.4167 C 161.6069 375.4167 161.7982 375.4167 161.9895 375.4167 C 162.1809 375.4167 162.3722 375.4167 162.5636 375.4167 C 162.7549 375.4167 162.9462 375.4167 163.1376 375.4167 C 163.3289 375.4167 163.5203 375.4167 163.7116 375.4167 C 163.9030 375.4167 164.0943 375.4167 164.2856 375.4167 C 164.4770 375.4167 164.6683 375.4167 164.8597 375.4167 C 165.0510 375.4167 165.2423 375.4167 165.4337 375.4167 C 165.6250 375.4167 165.8164 375.4167 166.0077 375.4167 C 166.1991 375.4167 166.3904 375.4167 166.5817 375.4167 C 166.7731 375.4167 166.9644 375.4167 167.1558 375.4167 C 167.3471 375.4167 167.5384 375.4167 167.7298 375.4167 C 167.9211 375.4167 168.1125 375.4167 168.3038 375.4167 C 168.4952 375.4167 168.6865 375.4167 168.8778 375.4167 C 169.0692 375.4167 169.2605 375.4167 169.4519 375.4167 C 169.6432 375.4167 169.8345 375.4167 170.0259 375.4167 C 170.2172 375.4167 170.4086 375.4167 170.5999 375.4167 C 170.7913 375.4167 170.9826 375.4167 171.1739 375.4167 C 171.3653 375.4167 171.5566 375.4167 171.7480 375.4167 C 171.9393 375.4167 172.1306 375.4167 172.3220 375.4167 C 172.5133 375.4167 172.8003 375.5123 172.8960 375.4167 C 172.9917 375.3210 172.8960 375.0340 172.8960 374.8427 C 172.8960 374.6513 172.8960 374.4600 172.8960 374.2686 C 172.8960 374.0773 172.9917 373.7903 172.8960 373.6946 C 172.8003 373.5989 172.5133 373.6946 172.3220 373.6946 C 172.1306 373.6946 171.9393 373.6946 171.7480 373.6946 C 171.5566 373.6946 171.3653 373.6946 171.1739 373.6946 C 170.9826 373.6946 170.7913 373.6946 170.5999 373.6946 C 170.4086 373.6946 170.2172 373.6946 170.0259 373.6946 C 169.8345 373.6946 169.6432 373.6946 169.4519 373.6946 C 169.2605 373.6946 169.0692 373.6946 168.8778 373.6946 C 168.6865 373.6946 168.4952 373.6946 168.3038 373.6946 C 168.1125 373.6946 167.9211 373.6946 167.7298 373.6946 C 167.5384 373.6946 167.3471 373.6946 167.1558 373.6946 C 166.9644 373.6946 166.7731 373.6946 166.5817 373.6946 C 166.3904 373.6946 166.1991 373.6946 166.0077 373.6946 C 165.8164 373.6946 165.6250 373.6946 165.4337 373.6946 C 165.2423 373.6946 165.0510 373.6946 164.8597 373.6946 C 164.6683 373.6946 164.4770 373.6946 164.2856 373.6946 C 164.0943 373.6946 163.9030 373.6946 163.7116 373.6946 C 163.5203 373.6946 163.3289 373.6946 163.1376 373.6946 C 162.9462 373.6946 162.7549 373.6946 162.5636 373.6946 C 162.3722 373.6946 162.1809 373.6946 161.9895 373.6946 C 161.7982 373.6946 161.6069 373.6946 161.4155 373.6946 C 161.2242 373.6946 161.0328 373.6946 160.8415 373.6946 C 160.6501 373.6946 160.4588 373.6946 160.2675 373.6946 C 160.0761 373.6946 159.8848 373.6946 159.6934 373.6946 C 159.5021 373.6946 159.3108 373.6946 159.1194 373.6946 C 158.9281 373.6946 158.7367 373.6946 158.5454 373.6946 C 158.3540 373.6946 158.1627 373.6946 157.9714 373.6946 C 157.7800 373.6946 157.5887 373.6946 157.3973 373.6946 C 157.2060 373.6946 157.0146 373.6946 156.8233 373.6946 C 156.6320 373.6946 156.4406 373.6946 156.2493 373.6946 C 156.0579 373.6946 155.8666 373.6946 155.6753 373.6946 C 155.4839 373.6946 155.2926 373.6946 155.1012 373.6946 C 154.9099 373.6946 154.7185 373.6946 154.5272 373.6946 C 154.3359 373.6946 154.1445 373.6946 153.9532 373.6946 C 153.7618 373.6946 153.5705 373.6946 153.3792 373.6946 C 153.1878 373.6946 152.9965 373.6946 152.8051 373.6946 C 152.6138 373.6946 152.4224 373.6946 152.2311 373.6946 C 152.0398 373.6946 151.8484 373.6946 151.6571 373.6946 C 151.4657 373.6946 151.2744 373.6946 151.0831 373.6946 C 150.8917 373.6946 150.7004 373.6946 150.5090 373.6946 C 150.3177 373.6946 150.1263 373.6946 149.9350 373.6946 C 149.7437 373.6946 149.5523 373.6946 149.3610 373.6946 C 149.1696 373.6946 148.9783 373.6946 148.7870 373.6946 C 148.5956 373.6946 148.4043 373.6946 148.2129 373.6946 C 148.0216 373.6946 147.8302 373.6946 147.6389 373.6946 C 147.4476 373.6946 147.2562 373.6946 147.0649 373.6946 C 146.8735 373.6946 146.6822 373.6946 146.4909 373.6946 C 146.2995 373.6946 146.1082 373.6946 145.9168 373.6946 C 145.7255 373.6946 145.5341 373.6946 145.3428 373.6946 C 145.1515 373.6946 144.9601 373.6946 144.7688 373.6946 C 144.5774 373.6946 144.3861 373.6946 144.1948 373.6946 C 144.0034 373.6946 143.8121 373.6946 143.6207 373.6946 C 143.4294 373.6946 143.2380 373.6946 143.0467 373.6946 C 142.8554 373.6946 142.6640 373.6946 142.4727 373.6946 C 142.2813 373.6946 142.0900 373.6946 141.8987 373.6946 C 141.7073 373.6946 141.5160 373.6946 141.3246 373.6946 C 141.1333 373.6946 140.9419 373.6946 140.7506 373.6946 C 140.5593 373.6946 140.3679 373.6946 140.1766 373.6946 C 139.9852 373.6946 139.7939 373.6946 139.6026 373.6946 C 139.4112 373.6946 139.2199 373.6946 139.0285 373.6946 C 138.8372 373.6946 138.6458 373.6946 138.4545 373.6946 C 138.2632 373.6946 138.0718 373.6946 137.8805 373.6946 C 137.6891 373.6946 137.4978 373.6946 137.3065 373.6946 C 137.1151 373.6946 136.9238 373.6946 136.7324 373.6946 C 136.5411 373.6946 136.3497 373.6946 136.1584 373.6946 C 135.9671 373.6946 135.7757 373.6946 135.5844 373.6946 C 135.3930 373.6946 135.2017 373.6946 135.0104 373.6946 C 134.8190 373.6946 134.6277 373.6946 134.4363 373.6946 C 134.2450 373.6946 134.0536 373.6946 133.8623 373.6946 C 133.6710 373.6946 133.4796 373.6946 133.2883 373.6946 C 133.0969 373.6946 132.9056 373.6946 132.7142 373.6946 C 132.5229 373.6946 132.3316 373.6946 132.1402 373.6946 C 131.9489 373.6946 131.7575 373.6946 131.5662 373.6946 C 131.3749 373.6946 131.1835 373.6946 130.9922 373.6946 C 130.8008 373.6946 130.6095 373.6946 130.4181 373.6946 C 130.2268 373.6946 130.0355 373.6946 129.8441 373.6946 C 129.6528 373.6946 129.4614 373.6946 129.2701 373.6946 C 129.0788 373.6946 128.8874 373.6946 128.6961 373.6946 C 128.5047 373.6946 128.3134 373.6946 128.1220 373.6946 C 127.9307 373.6946 127.7394 373.6946 127.5480 373.6946 C 127.3567 373.6946 127.1653 373.6946 126.9740 373.6946 C 126.7827 373.6946 126.5913 373.6946 126.4000 373.6946 C 126.2086 373.6946 126.0173 373.6946 125.8259 373.6946 C 125.6346 373.6946 125.4433 373.6946 125.2519 373.6946 C 125.0606 373.6946 124.8692 373.6946 124.6779 373.6946 C 124.4866 373.6946 124.2952 373.6946 124.1039 373.6946 C 123.9125 373.6946 123.7212 373.6946 123.5298 373.6946 C 123.3385 373.6946 123.1472 373.6946 122.9558 373.6946 C 122.7645 373.6946 122.5731 373.6946 122.3818 373.6946 C 122.1905 373.6946 121.9991 373.6946 121.8078 373.6946 C 121.6164 373.6946 121.4251 373.6946 121.2337 373.6946 C 121.0424 373.6946 120.8511 373.6946 120.6597 373.6946 C 120.4684 373.6946 120.2770 373.6946 120.0857 373.6946 C 119.8944 373.6946 119.7030 373.6946 119.5117 373.6946 C 119.3203 373.6946 119.1290 373.6946 118.9376 373.6946 C 118.7463 373.6946 118.5550 373.6946 118.3636 373.6946 C 118.1723 373.6946 117.9809 373.6946 117.7896 373.6946 C 117.5983 373.6946 117.4069 373.6946 117.2156 373.6946 C 117.0242 373.6946 116.8329 373.6946 116.6415 373.6946 C 116.4502 373.6946 116.2589 373.6946 116.0675 373.6946 C 115.8762 373.6946 115.6848 373.6946 115.4935 373.6946 C 115.3022 373.6946 115.1108 373.6946 114.9195 373.6946 C 114.7281 373.6946 114.5368 373.6946 114.3454 373.6946 C 114.1541 373.6946 113.9628 373.6946 113.7714 373.6946 C 113.5801 373.6946 113.3887 373.6946 113.1974 373.6946 C 113.0061 373.6946 112.8147 373.6946 112.6234 373.6946 C 112.4320 373.6946 112.2407 373.6946 112.0493 373.6946 C 111.8580 373.6946 111.6667 373.6946 111.4753 373.6946 C 111.2840 373.6946 111.0926 373.6946 110.9013 373.6946 C 110.7100 373.6946 110.5186 373.6946 110.3273 373.6946 C 110.1359 373.6946 109.9446 373.6946 109.7532 373.6946 C 109.5619 373.6946 109.3706 373.6946 109.1792 373.6946 C 108.9879 373.6946 108.7965 373.6946 108.6052 373.6946 C 108.4138 373.6946 108.2225 373.6946 108.0312 373.6946 C 107.8398 373.6946 107.6485 373.6946 107.4571 373.6946 C 107.2658 373.6946 107.0745 373.6946 106.8831 373.6946 C 106.6918 373.6946 106.5004 373.6946 106.3091 373.6946 C 106.1177 373.6946 105.9264 373.6946 105.7351 373.6946 C 105.5437 373.6946 105.3524 373.6946 105.1610 373.6946 C 104.9697 373.6946 104.7784 373.6946 104.5870 373.6946 C 104.3957 373.6946 104.2043 373.6946 104.0130 373.6946 C 103.8216 373.6946 103.6303 373.6946 103.4390 373.6946 C 103.2476 373.6946 102.9606 373.5989 102.8649 373.6946 Z"/>
  <g id="debug">
  
  <path fill="none" stroke="#ff3366" stroke-opacity="0.6" stroke-width="0.5" d=""/>
  <path fill="none" stroke="#ff9900" stroke-opacity="0.6" stroke-width="0.6" d=""/>
  <path fill="none" stroke="#222222" stroke-opacity="0.7" stroke-width="0.6" d=""/>
  <path fill="none" stroke="#00aaff" stroke-opacity="0.6" stroke-width="0.6" d=""/>
  
  
  <path fill="none" stroke="#d32f2f" stroke-opacity="0.8" stroke-width="0.8" d="M 102.8649 373.6946 L 102.8649 374.2686 L 102.8649 374.8427 L 102.8649 375.4167 L 103.4390 375.4167 L 104.0130 375.4167 L 104.5870 375.4167 L 105.1610 375.4167 L 105.7351 375.4167 L 106.3091 375.4167 L 106.8831 375.4167 L 107.4571 375.4167 L 108.0312 375.4167 L 108.6052 375.4167 L 109.1792 375.4167 L 109.7532 375.4167 L 110.3273 375.4167 L 110.9013 375.4167 L 111.4753 375.4167 L 112.0493 375.4167 L 112.6234 375.4167 L 113.1974 375.4167 L 113.7714 375.4167 L 114.3454 375.4167 L 114.9195 375.4167 L 115.4935 375.4167 L 116.0675 375.4167 L 116.6415 375.4167 L 117.2156 375.4167 L 117.7896 375.4167 L 118.3636 375.4167 L 118.9376 375.4167 L 119.5117 375.4167 L 120.0857 375.4167 L 120.6597 375.4167 L 121.2337 375.4167 L 121.8078 375.4167 L 122.3818 375.4167 L 122.9558 375.4167 L 123.5298 375.4167 L 124.1039 375.4167 L 124.6779 375.4167 L 125.2519 375.4167 L 125.8259 375.4167 L 126.4000 375.4167 L 126.9740 375.4167 L 127.5480 375.4167 L 128.1220 375.4167 L 128.6961 375.4167 L 129.2701 375.4167 L 129.8441 375.4167 L 130.4181 375.4167 L 130.9922 375.4167 L 131.5662 375.4167 L 132.1402 375.4167 L 132.7142 375.4167 L 133.2883 375.4167 L 133.8623 375.4167 L 134.4363 375.4167 L 135.0104 375.4167 L 135.5844 375.4167 L 136.1584 375.4167 L 136.7324 375.4167 L 137.3065 375.4167 L 137.8805 375.4167 L 138.4545 375.4167 L 139.0285 375.4167 L 139.6026 375.4167 L 140.1766 375.4167 L 140.7506 375.4167 L 141.3246 375.4167 L 141.8987 375.4167 L 142.4727 375.4167 L 143.0467 375.4167 L 143.6207 375.4167 L 144.1948 375.4167 L 144.7688 375.4167 L 145.3428 375.4167 L 145.9168 375.4167 L 146.4909 375.4167 L 147.0649 375.4167 L 147.6389 375.4167 L 148.2129 375.4167 L 148.7870 375.4167 L 149.3610 375.4167 L 149.9350 375.4167 L 150.5090 375.4167 L 151.0831 375.4167 L 151.6571 375.4167 L 152.2311 375.4167 L 152.8051 375.4167 L 153.3792 375.4167 L 153.9532 375.4167 L 154.5272 375.4167 L 155.1012 375.4167 L 155.6753 375.4167 L 156.2493 375.4167 L 156.8233 375.4167 L 157.3973 375.4167 L 157.9714 375.4167 L 158.5454 375.4167 L 159.1194 375.4167 L 159.6934 375.4167 L 160.2675 375.4167 L 160.8415 375.4167 L 161.4155 375.4167 L 161.9895 375.4167 L 162.5636 375.4167 L 163.1376 375.4167 L 163.7116 375.4167 L 164.2856 375.4167 L 164.8597 375.4167 L 165.4337 375.4167 L 166.0077 375.4167 L 166.5817 375.4167 L 167.1558 375.4167 L 167.7298 375.4167 L 168.3038 375.4167 L 168.8778 375.4167 L 169.4519 375.4167 L 170.0259 375.4167 L 170.5999 375.4167 L 171.1739 375.4167 L 171.7480 375.4167 L 172.3220 375.4167 L 172.8960 375.4167 L 172.8960 374.8427 L 172.8960 374.2686 L 172.8960 373.6946 L 172.3220 373.6946 L 171.7480 373.6946 L 171.1739 373.6946 L 170.5999 373.6946 L 170.0259 373.6946 L 169.4519 373.6946 L 168.8778 373.6946 L 168.3038 373.6946 L 167.7298 373.6946 L 167.1558 373.6946 L 166.5817 373.6946 L 166.0077 373.6946 L 165.4337 373.6946 L 164.8597 373.6946 L 164.2856 373.6946 L 163.7116 373.6946 L 163.1376 373.6946 L 162.5636 373.6946 L 161.9895 373.6946 L 161.4155 373.6946 L 160.8415 373.6946 L 160.2675 373.6946 L 159.6934 373.6946 L 159.1194 373.6946 L 158.5454 373.6946 L 157.9714 373.6946 L 157.3973 373.6946 L 156.8233 373.6946 L 156.2493 373.6946 L 155.6753 373.6946 L 155.1012 373.6946 L 154.5272 373.6946 L 153.9532 373.6946 L 153.3792 373.6946 L 152.8051 373.6946 L 152.2311 373.6946 L 151.6571 373.6946 L 151.0831 373.6946 L 150.5090 373.6946 L 149.9350 373.6946 L 149.3610 373.6946 L 148.7870 373.6946 L 148.2129 373.6946 L 147.6389 373.6946 L 147.0649 373.6946 L 146.4909 373.6946 L 145.9168 373.6946 L 145.3428 373.6946 L 144.7688 373.6946 L 144.1948 373.6946 L 143.6207 373.6946 L 143.0467 373.6946 L 142.4727 373.6946 L 141.8987 373.6946 L 141.3246 373.6946 L 140.7506 373.6946 L 140.1766 373.6946 L 139.6026 373.6946 L 139.0285 373.6946 L 138.4545 373.6946 L 137.8805 373.6946 L 137.3065 373.6946 L 136.7324 373.6946 L 136.1584 373.6946 L 135.5844 373.6946 L 135.0104 373.6946 L 134.4363 373.6946 L 133.8623 373.6946 L 133.2883 373.6946 L 132.7142 373.6946 L 132.1402 373.6946 L 131.5662 373.6946 L 130.9922 373.6946 L 130.4181 373.6946 L 129.8441 373.6946 L 129.2701 373.6946 L 128.6961 373.6946 L 128.1220 373.6946 L 127.5480 373.6946 L 126.9740 373.6946 L 126.4000 373.6946 L 125.8259 373.6946 L 125.2519 373.6946 L 124.6779 373.6946 L 124.1039 373.6946 L 123.5298 373.6946 L 122.9558 373.6946 L 122.3818 373.6946 L 121.8078 373.6946 L 121.2337 373.6946 L 120.6597 373.6946 L 120.0857 373.6946 L 119.5117 373.6946 L 118.9376 373.6946 L 118.3636 373.6946 L 117.7896 373.6946 L 117.2156 373.6946 L 116.6415 373.6946 L 116.0675 373.6946 L 115.4935 373.6946 L 114.9195 373.6946 L 114.3454 373.6946 L 113.7714 373.6946 L 113.1974 373.6946 L 112.6234 373.6946 L 112.0493 373.6946 L 111.4753 373.6946 L 110.9013 373.6946 L 110.3273 373.6946 L 109.7532 373.6946 L 109.1792 373.6946 L 108.6052 373.6946 L 108.0312 373.6946 L 107.4571 373.6946 L 106.8831 373.6946 L 106.3091 373.6946 L 105.7351 373.6946 L 105.1610 373.6946 L 104.5870 373.6946 L 104.0130 373.6946 L 103.4390 373.6946 L 102.8649 373.6946 Z"/>
  <path fill="none" stroke="#00897b" stroke-opacity="0.7" stroke-width="0.7" stroke-dasharray="3 2" d="M 103.0000 357.0479 L 103.0000 359.0426 L 103.0000 361.0372 L 103.0000 363.0319 L 103.0000 365.0266 L 103.0000 367.0213 L 103.0000 369.0160 L 103.0000 371.0106 L 103.0000 373.0053 L 103.0000 370.0365 L 103.0000 370.0677 L 103.0000 370.1300 L 103.0000 370.2547 L 103.0000 370.5040 L 103.0000 371.0027 L 103.0000 372.0000 L 102.9006 373.9795 L 102.8013 375.9590 L 102.7019 377.9386 L 102.6026 379.9181 L 102.5032 381.8976 L 102.3361 383.8701 L 102.0265 385.8278 L 101.7169 387.7855 L 171.7169 393.7855 L 172.0265 391.8278 L 172.3361 389.8701 L 172.5032 387.8976 L 172.6026 385.9181 L 172.7019 383.9386 L 172.8013 381.9590 L 172.9006 379.9795 L 173.0000 378.0000 L 173.0000 377.0027 L 173.0000 376.5040 L 173.0000 376.2547 L 173.0000 376.1300 L 173.0000 376.0677 L 173.0000 376.0365 L 173.0000 373.0053 L 173.0000 371.0106 L 173.0000 369.0160 L 173.0000 367.0213 L 173.0000 365.0266 L 173.0000 363.0319 L 173.0000 361.0372 L 173.0000 359.0426 L 173.0000 357.0479 L 103.0000 357.0479 Z"/>
  
  
  
  
  
  
</g>
</svg>