<svg xmlns="http://www.w3.org/2000/svg" width="252.0000" height="497.0000" viewBox="-10.0000 -24.0000 252.0000 497.0000">
  <g id="background-glyph" fill="#e0e0e0" stroke="#4169e1" stroke-width="1.0000" opacity="1.0000" transform="matrix(1.0000 0 0 1.0000 0 0)">
  <path transform="matrix(1.0000 0 0 1.0000 -723.6510 -447.8750)" d="M955.526,454.125L955.526,447.875L763.026,447.875L763.026,454.125C773.859,455.375 784.38,457.25 794.589,459.75C804.797,462.25 812.818,467.042 818.651,474.125C821.151,477.042 822.922,481.208 823.964,486.625C825.005,492.042 825.839,498.188 826.464,505.063C827.089,511.938 827.401,519.125 827.401,526.625L827.401,744.125C827.401,755.792 827.297,766.625 827.089,776.625C826.88,786.625 826.776,794.542 826.776,800.375C826.359,812.042 825.63,823.708 824.589,835.375C823.547,847.042 821.776,857.458 819.276,866.625C816.359,876.208 811.672,884.333 805.214,891C798.755,897.667 790.318,901 779.901,901C776.568,901 773.026,900.271 769.276,898.813C765.526,897.354 762.609,895.167 760.526,892.25L760.526,890.375C769.276,889.125 776.568,886.313 782.401,881.938C788.234,877.563 791.151,870.583 791.151,861C791.151,852.667 788.13,845.479 782.089,839.438C776.047,833.396 768.859,830.375 760.526,830.375C750.943,830.375 742.401,833.5 734.901,839.75C727.401,846 723.651,854.125 723.651,864.125C723.651,872.042 725.214,878.813 728.339,884.438C731.464,890.063 735.63,894.438 740.839,897.563C746.047,900.688 751.88,903.083 758.339,904.75C764.797,906.417 771.359,907.25 778.026,907.25C790.109,907.25 803.339,904.958 817.714,900.375C832.089,895.792 845.943,888.292 859.276,877.875C870.109,869.542 878.859,860.479 885.526,850.688C892.193,840.896 895.526,829.125 895.526,815.375L895.526,600.375C895.526,589.958 895.63,579.646 895.839,569.438C896.047,559.229 896.151,548.917 896.151,538.5C896.568,528.917 896.984,518.604 897.401,507.563C897.818,496.521 899.693,487.667 903.026,481C908.443,471 916.359,464.333 926.776,461C937.193,457.667 946.776,455.375 955.526,454.125Z"/>
</g>
  
  <path fill="black" stroke="none" fill-rule="evenodd" d="M 131.4236 407.0000 L 131.4236 408.0000 L 131.4236 409.0000 L 131.4236 410.0000 L 130.4236 410.0000 L 130.4236 409.0000 L 129.4236 409.0000 L 129.4236 410.0000 L 128.4236 410.0000 L 128.4236 411.0000 L 127.4236 411.0000 L 127.4236 412.0000 L 128.4236 412.0000 L 128.4236 413.0000 L 127.4236 413.0000 L 126.4236 413.0000 L 126.4236 414.0000 L 126.4236 415.0000 L 125.4236 415.0000 L 125.4236 416.0000 L 124.4236 416.0000 L 124.4236 417.0000 L 124.4236 418.0000 L 123.4236 418.0000 L 123.4236 419.0000 L 122.4236 419.0000 L 122.4236 420.0000 L 122.4236 421.0000 L 121.4236 421.0000 L 121.4236 422.0000 L 120.4236 422.0000 L 120.4236 423.0000 L 120.4236 424.0000 L 119.4236 424.0000 L 119.4236 425.0000 L 118.4236 425.0000 L 118.4236 426.0000 L 118.4236 427.0000 L 118.4236 428.0000 L 117.4236 428.0000 L 116.4236 428.0000 L 116.4236 429.0000 L 115.4236 429.0000 L 115.4236 430.0000 L 115.4236 431.0000 L 114.4236 431.0000 L 114.4236 432.0000 L 114.4236 433.0000 L 113.4236 433.0000 L 113.4236 434.0000 L 114.4236 434.0000 L 114.4236 435.0000 L 113.4236 435.0000 L 113.4236 436.0000 L 112.4236 436.0000 L 112.4236 435.0000 L 111.4236 435.0000 L 110.4236 435.0000 L 109.4236 435.0000 L 108.4236 435.0000 L 108.4236 436.0000 L 107.4236 436.0000 L 107.4236 437.0000 L 106.4236 437.0000 L 106.4236 438.0000 L 106.4236 439.0000 L 105.4236 439.0000 L 104.4236 439.0000 L 104.4236 440.0000 L 103.4236 440.0000 L 103.4236 441.0000 L 102.4236 441.0000 L 101.4236 441.0000 L 100.4236 441.0000 L 100.4236 442.0000 L 100.4236 443.0000 L 99.4236 443.0000 L 98.4236 443.0000 L 98.4236 442.0000 L 99.4236 442.0000 L 99.4236 443.0000 L 99.4236 444.0000 L 98.4236 444.0000 L 97.4236 444.0000 L 96.4236 444.0000 L 95.4236 444.0000 L 94.4236 444.0000 L 94.4236 445.0000 L 93.4236 445.0000 L 92.4236 445.0000 L 92.4236 446.0000 L 91.4236 446.0000 L 90.4236 446.0000 L 90.4236 447.0000 L 89.4236 447.0000 L 89.4236 448.0000 L 88.4236 448.0000 L 87.4236 448.0000 L 87.4236 449.0000 L 87.4236 450.0000 L 86.4236 450.0000 L 86.4236 449.0000 L 85.4236 449.0000 L 85.4236 450.0000 L 84.4236 450.0000 L 84.4236 449.0000 L 83.4236 449.0000 L 82.4236 449.0000 L 81.4236 449.0000 L 81.4236 450.0000 L 80.4236 450.0000 L 79.4236 450.0000 L 78.4236 450.0000 L 77.4236 450.0000 L 77.4236 451.0000 L 78.4236 451.0000 L 79.4236 451.0000 L 79.4236 452.0000 L 78.4236 452.0000 L 78.4236 453.0000 L 77.4236 453.0000 L 77.4236 454.0000 L 76.4236 454.0000 L 76.4236 453.0000 L 75.4236 453.0000 L 74.4236 453.0000 L 74.4236 452.0000 L 74.4236 451.0000 L 73.4236 451.0000 L 72.4236 451.0000 L 72.4236 452.0000 L 71.4236 452.0000 L 71.4236 453.0000 L 71.4236 454.0000 L 70.4236 454.0000 L 70.4236 453.0000 L 70.4236 452.0000 L 69.4236 452.0000 L 69.4236 453.0000 L 68.4236 453.0000 L 68.4236 452.0000 L 67.4236 452.0000 L 67.4236 453.0000 L 66.4236 453.0000 L 66.4236 452.0000 L 65.4236 452.0000 L 64.4236 452.0000 L 63.4236 452.0000 L 62.4236 452.0000 L 62.4236 453.0000 L 63.4236 453.0000 L 64.4236 453.0000 L 65.4236 453.0000 L 65.4236 454.0000 L 65.4236 455.0000 L 65.4236 456.0000 L 64.4236 456.0000 L 64.4236 457.0000 L 64.4236 458.0000 L 63.4236 458.0000 L 62.4236 458.0000 L 62.4236 457.0000 L 61.4236 457.0000 L 61.4236 458.0000 L 61.4236 459.0000 L 61.4236 460.0000 L 61.4236 461.0000 L 60.4236 461.0000 L 59.4236 461.0000 L 59.4236 460.0000 L 58.4236 460.0000 L 57.4236 460.0000 L 56.4236 460.0000 L 55.4236 460.0000 L 55.4236 459.0000 L 54.4236 459.0000 L 54.4236 458.0000 L 53.4236 458.0000 L 53.4236 459.0000 L 53.4236 460.0000 L 52.4236 460.0000 L 52.4236 459.0000 L 52.4236 458.0000 L 51.4236 458.0000 L 51.4236 459.0000 L 50.4236 459.0000 L 50.4236 458.0000 L 49.4236 458.0000 L 49.4236 459.0000 L 48.4236 459.0000 L 47.4236 459.0000 L 47.4236 458.0000 L 47.4236 457.0000 L 46.4236 457.0000 L 46.4236 458.0000 L 45.4236 458.0000 L 44.4236 458.0000 L 44.4236 457.0000 L 43.4236 457.0000 L 42.4236 457.0000 L 41.4236 457.0000 L 41.4236 458.0000 L 41.4236 459.0000 L 40.4236 459.0000 L 39.4236 459.0000 L 39.4236 458.0000 L 38.4236 458.0000 L 37.4236 458.0000 L 37.4236 459.0000 L 36.4236 459.0000 L 35.4236 459.0000 L 35.4236 460.0000 L 34.4236 460.0000 L 34.4236 459.0000 L 34.4236 458.0000 L 35.4236 458.0000 L 35.4236 457.0000 L 36.4236 457.0000 L 36.4236 456.0000 L 37.4236 456.0000 L 37.4236 455.0000 L 37.4236 454.0000 L 36.4236 454.0000 L 36.4236 455.0000 L 35.4236 455.0000 L 35.4236 454.0000 L 35.4236 453.0000 L 34.4236 453.0000 L 33.4236 453.0000 L 33.4236 454.0000 L 32.4236 454.0000 L 32.4236 455.0000 L 32.4236 456.0000 L 32.4236 457.0000 L 33.4236 457.0000 L 33.4236 456.0000 L 34.4236 456.0000 L 34.4236 455.0000 L 33.4236 455.0000 L 33.4236 454.0000 L 34.4236 454.0000 L 34.4236 453.0000 L 34.4236 452.0000 L 34.4236 451.0000 L 33.4236 451.0000 L 33.4236 452.0000 L 32.4236 452.0000 L 32.4236 451.0000 L 32.4236 450.0000 L 31.4236 450.0000 L 30.4236 450.0000 L 30.4236 451.0000 L 31.4236 451.0000 L 31.4236 450.0000 L 31.4236 449.0000 L 31.4236 448.0000 L 32.4236 448.0000 L 33.4236 448.0000 L 33.4236 449.0000 L 34.4236 449.0000 L 34.4236 450.0000 L 34.4236 451.0000 L 35.4236 451.0000 L 35.4236 450.0000 L 35.4236 449.0000 L 36.4236 449.0000 L 36.4236 450.0000 L 36.4236 451.0000 L 36.4236 452.0000 L 35.4236 452.0000 L 35.4236 453.0000 L 36.4236 453.0000 L 36.4236 452.0000 L 37.4236 452.0000 L 37.4236 453.0000 L 37.4236 454.0000 L 38.4236 454.0000 L 38.4236 453.0000 L 38.4236 452.0000 L 38.4236 451.0000 L 38.4236 450.0000 L 39.4236 450.0000 L 40.4236 450.0000 L 41.4236 450.0000 L 41.4236 451.0000 L 42.4236 451.0000 L 43.4236 451.0000 L 44.4236 451.0000 L 45.4236 451.0000 L 45.4236 452.0000 L 46.4236 452.0000 L 47.4236 452.0000 L 47.4236 453.0000 L 46.4236 453.0000 L 46.4236 454.0000 L 47.4236 454.0000 L 47.4236 453.0000 L 48.4236 453.0000 L 48.4236 454.0000 L 49.4236 454.0000 L 49.4236 453.0000 L 50.4236 453.0000 L 50.4236 454.0000 L 51.4236 454.0000 L 51.4236 453.0000 L 52.4236 453.0000 L 52.4236 454.0000 L 53.4236 454.0000 L 54.4236 454.0000 L 54.4236 453.0000 L 55.4236 453.0000 L 56.4236 453.0000 L 57.4236 453.0000 L 57.4236 454.0000 L 57.4236 455.0000 L 57.4236 456.0000 L 58.4236 456.0000 L 58.4236 455.0000 L 58.4236 454.0000 L 59.4236 454.0000 L 59.4236 455.0000 L 59.4236 456.0000 L 60.4236 456.0000 L 60.4236 455.0000 L 61.4236 455.0000 L 61.4236 454.0000 L 62.4236 454.0000 L 63.4236 454.0000 L 63.4236 455.0000 L 63.4236 456.0000 L 63.4236 457.0000 L 63.4236 458.0000 L 63.4236 459.0000 L 62.4236 459.0000 L 62.4236 460.0000 L 62.4236 461.0000 L 62.4236 462.0000 L 63.4236 462.0000 L 64.4236 462.0000 L 64.4236 461.0000 L 64.4236 460.0000 L 65.4236 460.0000 L 65.4236 459.0000 L 64.4236 459.0000 L 64.4236 458.0000 L 65.4236 458.0000 L 65.4236 457.0000 L 66.4236 457.0000 L 66.4236 458.0000 L 65.4236 458.0000 L 65.4236 459.0000 L 66.4236 459.0000 L 67.4236 459.0000 L 68.4236 459.0000 L 68.4236 458.0000 L 67.4236 458.0000 L 67.4236 457.0000 L 68.4236 457.0000 L 68.4236 458.0000 L 69.4236 458.0000 L 70.4236 458.0000 L 71.4236 458.0000 L 72.4236 458.0000 L 73.4236 458.0000 L 73.4236 457.0000 L 74.4236 457.0000 L 75.4236 457.0000 L 76.4236 457.0000 L 76.4236 456.0000 L 76.4236 455.0000 L 77.4236 455.0000 L 77.4236 456.0000 L 78.4236 456.0000 L 78.4236 455.0000 L 79.4236 455.0000 L 79.4236 456.0000 L 78.4236 456.0000 L 78.4236 457.0000 L 79.4236 457.0000 L 79.4236 456.0000 L 80.4236 456.0000 L 80.4236 455.0000 L 81.4236 455.0000 L 81.4236 456.0000 L 80.4236 456.0000 L 80.4236 457.0000 L 81.4236 457.0000 L 82.4236 457.0000 L 82.4236 456.0000 L 83.4236 456.0000 L 83.4236 455.0000 L 82.4236 455.0000 L 82.4236 454.0000 L 83.4236 454.0000 L 83.4236 455.0000 L 84.4236 455.0000 L 84.4236 454.0000 L 85.4236 454.0000 L 85.4236 455.0000 L 84.4236 455.0000 L 84.4236 456.0000 L 83.4236 456.0000 L 83.4236 457.0000 L 84.4236 457.0000 L 84.4236 456.0000 L 85.4236 456.0000 L 86.4236 456.0000 L 86.4236 455.0000 L 86.4236 454.0000 L 87.4236 454.0000 L 87.4236 455.0000 L 88.4236 455.0000 L 88.4236 454.0000 L 89.4236 454.0000 L 90.4236 454.0000 L 90.4236 453.0000 L 89.4236 453.0000 L 89.4236 452.0000 L 90.4236 452.0000 L 90.4236 453.0000 L 91.4236 453.0000 L 91.4236 452.0000 L 91.4236 451.0000 L 92.4236 451.0000 L 92.4236 452.0000 L 93.4236 452.0000 L 93.4236 451.0000 L 94.4236 451.0000 L 95.4236 451.0000 L 95.4236 450.0000 L 94.4236 450.0000 L 94.4236 449.0000 L 95.4236 449.0000 L 95.4236 450.0000 L 96.4236 450.0000 L 96.4236 449.0000 L 97.4236 449.0000 L 97.4236 450.0000 L 97.4236 451.0000 L 96.4236 451.0000 L 96.4236 452.0000 L 95.4236 452.0000 L 95.4236 453.0000 L 96.4236 453.0000 L 96.4236 452.0000 L 97.4236 452.0000 L 98.4236 452.0000 L 99.4236 452.0000 L 100.4236 452.0000 L 101.4236 452.0000 L 101.4236 451.0000 L 100.4236 451.0000 L 100.4236 450.0000 L 99.4236 450.0000 L 99.4236 449.0000 L 98.4236 449.0000 L 98.4236 448.0000 L 99.4236 448.0000 L 99.4236 449.0000 L 100.4236 449.0000 L 101.4236 449.0000 L 101.4236 448.0000 L 100.4236 448.0000 L 100.4236 447.0000 L 101.4236 447.0000 L 101.4236 446.0000 L 102.4236 446.0000 L 102.4236 447.0000 L 101.4236 447.0000 L 101.4236 448.0000 L 102.4236 448.0000 L 102.4236 447.0000 L 103.4236 447.0000 L 103.4236 448.0000 L 104.4236 448.0000 L 104.4236 447.0000 L 105.4236 447.0000 L 105.4236 446.0000 L 106.4236 446.0000 L 106.4236 445.0000 L 105.4236 445.0000 L 105.4236 444.0000 L 104.4236 444.0000 L 104.4236 443.0000 L 105.4236 443.0000 L 105.4236 444.0000 L 106.4236 444.0000 L 106.4236 443.0000 L 107.4236 443.0000 L 107.4236 444.0000 L 106.4236 444.0000 L 106.4236 445.0000 L 107.4236 445.0000 L 107.4236 444.0000 L 108.4236 444.0000 L 108.4236 443.0000 L 108.4236 442.0000 L 107.4236 442.0000 L 107.4236 441.0000 L 108.4236 441.0000 L 108.4236 442.0000 L 109.4236 442.0000 L 109.4236 441.0000 L 109.4236 440.0000 L 108.4236 440.0000 L 108.4236 439.0000 L 109.4236 439.0000 L 109.4236 440.0000 L 110.4236 440.0000 L 110.4236 441.0000 L 110.4236 442.0000 L 111.4236 442.0000 L 112.4236 442.0000 L 113.4236 442.0000 L 113.4236 441.0000 L 112.4236 441.0000 L 111.4236 441.0000 L 111.4236 440.0000 L 112.4236 440.0000 L 113.4236 440.0000 L 113.4236 439.0000 L 112.4236 439.0000 L 112.4236 438.0000 L 113.4236 438.0000 L 113.4236 439.0000 L 114.4236 439.0000 L 115.4236 439.0000 L 115.4236 438.0000 L 114.4236 438.0000 L 114.4236 437.0000 L 113.4236 437.0000 L 113.4236 436.0000 L 114.4236 436.0000 L 114.4236 437.0000 L 115.4236 437.0000 L 115.4236 436.0000 L 116.4236 436.0000 L 116.4236 437.0000 L 117.4236 437.0000 L 118.4236 437.0000 L 118.4236 436.0000 L 118.4236 435.0000 L 118.4236 434.0000 L 118.4236 433.0000 L 117.4236 433.0000 L 117.4236 432.0000 L 118.4236 432.0000 L 118.4236 433.0000 L 119.4236 433.0000 L 119.4236 434.0000 L 119.4236 435.0000 L 120.4236 435.0000 L 120.4236 434.0000 L 120.4236 433.0000 L 120.4236 432.0000 L 119.4236 432.0000 L 119.4236 431.0000 L 120.4236 431.0000 L 120.4236 430.0000 L 121.4236 430.0000 L 122.4236 430.0000 L 122.4236 429.0000 L 121.4236 429.0000 L 121.4236 428.0000 L 122.4236 428.0000 L 122.4236 429.0000 L 123.4236 429.0000 L 124.4236 429.0000 L 125.4236 429.0000 L 125.4236 428.0000 L 126.4236 428.0000 L 127.4236 428.0000 L 128.4236 428.0000 L 128.4236 427.0000 L 128.4236 426.0000 L 128.4236 425.0000 L 129.4236 425.0000 L 130.4236 425.0000 L 130.4236 424.0000 L 130.4236 423.0000 L 131.4236 423.0000 L 131.4236 422.0000 L 130.4236 422.0000 L 130.4236 421.0000 L 130.4236 420.0000 L 129.4236 420.0000 L 128.4236 420.0000 L 128.4236 419.0000 L 129.4236 419.0000 L 130.4236 419.0000 L 130.4236 418.0000 L 129.4236 418.0000 L 129.4236 417.0000 L 130.4236 417.0000 L 130.4236 418.0000 L 131.4236 418.0000 L 131.4236 417.0000 L 131.4236 416.0000 L 132.4236 416.0000 L 132.4236 415.0000 L 131.4236 415.0000 L 131.4236 414.0000 L 132.4236 414.0000 L 133.4236 414.0000 L 133.4236 413.0000 L 132.4236 413.0000 L 131.4236 413.0000 L 131.4236 412.0000 L 132.4236 412.0000 L 133.4236 412.0000 L 133.4236 411.0000 L 132.4236 411.0000 L 132.4236 410.0000 L 133.4236 410.0000 L 134.4236 410.0000 L 134.4236 409.0000 L 133.4236 409.0000 L 132.4236 409.0000 L 132.4236 408.0000 L 133.4236 408.0000 L 134.4236 408.0000 L 134.4236 407.0000 L 135.4236 407.0000 L 136.4236 407.0000 L 136.4236 406.0000 L 136.4236 405.0000 L 136.4236 404.0000 L 135.4236 404.0000 L 135.4236 403.0000 L 136.4236 403.0000 L 137.4236 403.0000 L 138.4236 403.0000 L 138.4236 402.0000 L 138.4236 401.0000 L 137.4236 401.0000 L 136.4236 401.0000 L 135.4236 401.0000 L 135.4236 402.0000 L 136.4236 402.0000 L 137.4236 402.0000 L 137.4236 401.0000 L 137.4236 400.0000 L 136.4236 400.0000 L 135.4236 400.0000 L 135.4236 399.0000 L 136.4236 399.0000 L 137.4236 399.0000 L 138.4236 399.0000 L 138.4236 398.0000 L 137.4236 398.0000 L 136.4236 398.0000 L 135.4236 398.0000 L 135.4236 397.0000 L 136.4236 397.0000 L 137.4236 397.0000 L 138.4236 397.0000 L 138.4236 396.0000 L 139.4236 396.0000 L 139.4236 395.0000 L 138.4236 395.0000 L 138.4236 394.0000 L 139.4236 394.0000 L 140.4236 394.0000 L 140.4236 393.0000 L 139.4236 393.0000 L 138.4236 393.0000 L 138.4236 392.0000 L 139.4236 392.0000 L 139.4236 391.0000 L 138.4236 391.0000 L 138.4236 390.0000 L 139.4236 390.0000 L 139.4236 389.0000 L 138.4236 389.0000 L 138.4236 388.0000 L 139.4236 388.0000 L 139.4236 387.0000 L 138.4236 387.0000 L 138.4236 386.0000 L 139.4236 386.0000 L 139.4236 387.0000 L 140.4236 387.0000 L 141.4236 387.0000 L 141.4236 388.0000 L 142.4236 388.0000 L 142.4236 387.0000 L 142.4236 386.0000 L 141.4236 386.0000 L 141.4236 385.0000 L 140.4236 385.0000 L 139.4236 385.0000 L 138.4236 385.0000 L 138.4236 384.0000 L 139.4236 384.0000 L 140.4236 384.0000 L 140.4236 383.0000 L 139.4236 383.0000 L 138.4236 383.0000 L 137.4236 383.0000 L 137.4236 382.0000 L 138.4236 382.0000 L 139.4236 382.0000 L 140.4236 382.0000 L 140.4236 381.0000 L 139.4236 381.0000 L 138.4236 381.0000 L 137.4236 381.0000 L 136.4236 381.0000 L 136.4236 380.0000 L 137.4236 380.0000 L 138.4236 380.0000 L 139.4236 380.0000 L 140.4236 380.0000 L 140.4236 379.0000 L 139.4236 379.0000 L 138.4236 379.0000 L 137.4236 379.0000 L 136.4236 379.0000 L 135.4236 379.0000 L 135.4236 378.0000 L 136.4236 378.0000 L 137.4236 378.0000 L 138.4236 378.0000 L 139.4236 378.0000 L 140.4236 378.0000 L 140.4236 377.0000 L 140.4236 376.0000 L 141.4236 376.0000 L 141.4236 375.0000 L 140.4236 375.0000 L 140.4236 374.0000 L 140.4236 373.0000 L 140.4236 372.0000 L 141.4236 372.0000 L 141.4236 371.0000 L 140.4236 371.0000 L 140.4236 370.0000 L 139.4236 370.0000 L 139.4236 369.0000 L 140.4236 369.0000 L 140.4236 368.0000 L 139.4236 368.0000 L 138.4236 368.0000 L 138.4236 367.0000 L 139.4236 367.0000 L 140.4236 367.0000 L 140.4236 366.0000 L 139.4236 366.0000 L 138.4236 366.0000 L 137.4236 366.0000 L 137.4236 365.0000 L 138.4236 365.0000 L 139.4236 365.0000 L 140.4236 365.0000 L 140.4236 364.0000 L 139.4236 364.0000 L 138.4236 364.0000 L 137.4236 364.0000 L 136.4236 364.0000 L 136.4236 365.0000 L 135.4236 365.0000 L 135.4236 364.0000 L 134.4236 364.0000 L 134.4236 365.0000 L 134.4236 366.0000 L 134.4236 367.0000 L 134.4236 368.0000 L 134.4236 369.0000 L 134.4236 370.0000 L 134.4236 371.0000 L 134.4236 372.0000 L 134.4236 373.0000 L 134.4236 374.0000 L 134.4236 375.0000 L 135.4236 375.0000 L 135.4236 376.0000 L 134.4236 376.0000 L 134.4236 377.0000 L 134.4236 378.0000 L 134.4236 379.0000 L 134.4236 380.0000 L 134.4236 381.0000 L 134.4236 382.0000 L 134.4236 383.0000 L 134.4236 384.0000 L 135.4236 384.0000 L 136.4236 384.0000 L 136.4236 385.0000 L 136.4236 386.0000 L 135.4236 386.0000 L 134.4236 386.0000 L 134.4236 385.0000 L 133.4236 385.0000 L 133.4236 386.0000 L 133.4236 387.0000 L 133.4236 388.0000 L 133.4236 389.0000 L 133.4236 390.0000 L 133.4236 391.0000 L 134.4236 391.0000 L 134.4236 392.0000 L 134.4236 393.0000 L 133.4236 393.0000 L 133.4236 394.0000 L 133.4236 395.0000 L 133.4236 396.0000 L 132.4236 396.0000 L 132.4236 397.0000 L 132.4236 398.0000 L 132.4236 399.0000 L 131.4236 399.0000 L 131.4236 400.0000 L 132.4236 400.0000 L 132.4236 401.0000 L 132.4236 402.0000 L 132.4236 403.0000 L 133.4236 403.0000 L 133.4236 404.0000 L 133.4236 405.0000 L 132.4236 405.0000 L 131.4236 405.0000 L 131.4236 406.0000 L 131.4236 407.0000 Z"/>
<path fill="black" stroke="none" fill-rule="evenodd" d="M 150.4236 -7.0000 L 150.4236 -6.0000 L 150.4236 -5.0000 L 151.4236 -5.0000 L 151.4236 -4.0000 L 151.4236 -3.0000 L 151.4236 -2.0000 L 151.4236 -1.0000 L 152.4236 -1.0000 L 152.4236 0 L 151.4236 0 L 150.4236 0 L 149.4236 0 L 148.4236 0 L 147.4236 0 L 146.4236 0 L 145.4236 0 L 144.4236 0 L 143.4236 0 L 142.4236 0 L 141.4236 0 L 141.4236 1.0000 L 141.4236 2.0000 L 140.4236 2.0000 L 139.4236 2.0000 L 138.4236 2.0000 L 137.4236 2.0000 L 136.4236 2.0000 L 135.4236 2.0000 L 135.4236 1.0000 L 135.4236 0 L 134.4236 0 L 133.4236 0 L 132.4236 0 L 131.4236 0 L 130.4236 0 L 129.4236 0 L 128.4236 0 L 127.4236 0 L 126.4236 0 L 125.4236 0 L 124.4236 0 L 124.4236 -1.0000 L 124.4236 -2.0000 L 124.4236 -3.0000 L 124.4236 -4.0000 L 124.4236 -5.0000 L 125.4236 -5.0000 L 125.4236 -6.0000 L 125.4236 -7.0000 L 126.4236 -7.0000 L 126.4236 -8.0000 L 127.4236 -8.0000 L 127.4236 -9.0000 L 127.4236 -10.0000 L 128.4236 -10.0000 L 128.4236 -11.0000 L 129.4236 -11.0000 L 130.4236 -11.0000 L 130.4236 -12.0000 L 131.4236 -12.0000 L 131.4236 -13.0000 L 132.4236 -13.0000 L 133.4236 -13.0000 L 134.4236 -13.0000 L 134.4236 -14.0000 L 135.4236 -14.0000 L 136.4236 -14.0000 L 137.4236 -14.0000 L 138.4236 -14.0000 L 139.4236 -14.0000 L 140.4236 -14.0000 L 141.4236 -14.0000 L 141.4236 -13.0000 L 142.4236 -13.0000 L 143.4236 -13.0000 L 144.4236 -13.0000 L 144.4236 -12.0000 L 145.4236 -12.0000 L 146.4236 -12.0000 L 146.4236 -11.0000 L 147.4236 -11.0000 L 147.4236 -10.0000 L 148.4236 -10.0000 L 148.4236 -9.0000 L 149.4236 -9.0000 L 149.4236 -8.0000 L 149.4236 -7.0000 L 150.4236 -7.0000 Z"/>
<path fill="black" stroke="none" fill-rule="evenodd" d="M 61.4236 394.0000 L 62.4236 394.0000 L 62.4236 395.0000 L 62.4236 396.0000 L 63.4236 396.0000 L 63.4236 397.0000 L 64.4236 397.0000 L 64.4236 398.0000 L 63.4236 398.0000 L 62.4236 398.0000 L 62.4236 399.0000 L 63.4236 399.0000 L 63.4236 400.0000 L 64.4236 400.0000 L 64.4236 399.0000 L 64.4236 398.0000 L 65.4236 398.0000 L 65.4236 399.0000 L 65.4236 400.0000 L 64.4236 400.0000 L 64.4236 401.0000 L 64.4236 402.0000 L 65.4236 402.0000 L 65.4236 401.0000 L 65.4236 400.0000 L 66.4236 400.0000 L 66.4236 401.0000 L 66.4236 402.0000 L 65.4236 402.0000 L 65.4236 403.0000 L 66.4236 403.0000 L 67.4236 403.0000 L 67.4236 404.0000 L 67.4236 405.0000 L 68.4236 405.0000 L 68.4236 406.0000 L 68.4236 407.0000 L 69.4236 407.0000 L 69.4236 408.0000 L 69.4236 409.0000 L 70.4236 409.0000 L 70.4236 410.0000 L 70.4236 411.0000 L 71.4236 411.0000 L 71.4236 412.0000 L 72.4236 412.0000 L 72.4236 411.0000 L 73.4236 411.0000 L 74.4236 411.0000 L 74.4236 410.0000 L 75.4236 410.0000 L 75.4236 409.0000 L 76.4236 409.0000 L 76.4236 408.0000 L 76.4236 407.0000 L 77.4236 407.0000 L 77.4236 406.0000 L 77.4236 405.0000 L 78.4236 405.0000 L 78.4236 404.0000 L 78.4236 403.0000 L 78.4236 402.0000 L 78.4236 401.0000 L 79.4236 401.0000 L 79.4236 400.0000 L 79.4236 399.0000 L 78.4236 399.0000 L 78.4236 398.0000 L 78.4236 397.0000 L 78.4236 396.0000 L 78.4236 395.0000 L 77.4236 395.0000 L 77.4236 394.0000 L 77.4236 393.0000 L 76.4236 393.0000 L 76.4236 392.0000 L 76.4236 391.0000 L 75.4236 391.0000 L 75.4236 390.0000 L 74.4236 390.0000 L 74.4236 389.0000 L 73.4236 389.0000 L 72.4236 389.0000 L 72.4236 388.0000 L 71.4236 388.0000 L 71.4236 387.0000 L 70.4236 387.0000 L 69.4236 387.0000 L 68.4236 387.0000 L 68.4236 386.0000 L 67.4236 386.0000 L 66.4236 386.0000 L 65.4236 386.0000 L 64.4236 386.0000 L 63.4236 386.0000 L 62.4236 386.0000 L 61.4236 386.0000 L 61.4236 387.0000 L 60.4236 387.0000 L 59.4236 387.0000 L 58.4236 387.0000 L 58.4236 388.0000 L 58.4236 389.0000 L 59.4236 389.0000 L 59.4236 390.0000 L 59.4236 391.0000 L 60.4236 391.0000 L 60.4236 392.0000 L 60.4236 393.0000 L 61.4236 393.0000 L 61.4236 394.0000 Z"/>
<path fill="black" stroke="none" fill-rule="evenodd" d="M 33.4236 416.0000 L 34.4236 416.0000 L 34.4236 415.0000 L 33.4236 415.0000 L 32.4236 415.0000 L 32.4236 416.0000 L 32.4236 417.0000 L 32.4236 418.0000 L 31.4236 418.0000 L 31.4236 419.0000 L 31.4236 420.0000 L 30.4236 420.0000 L 29.4236 420.0000 L 29.4236 419.0000 L 30.4236 419.0000 L 30.4236 420.0000 L 30.4236 421.0000 L 29.4236 421.0000 L 29.4236 422.0000 L 29.4236 423.0000 L 28.4236 423.0000 L 27.4236 423.0000 L 27.4236 424.0000 L 27.4236 425.0000 L 27.4236 426.0000 L 27.4236 427.0000 L 28.4236 427.0000 L 29.4236 427.0000 L 30.4236 427.0000 L 30.4236 426.0000 L 31.4236 426.0000 L 31.4236 425.0000 L 30.4236 425.0000 L 30.4236 424.0000 L 30.4236 423.0000 L 29.4236 423.0000 L 29.4236 424.0000 L 29.4236 425.0000 L 28.4236 425.0000 L 28.4236 424.0000 L 28.4236 423.0000 L 28.4236 422.0000 L 28.4236 421.0000 L 27.4236 421.0000 L 27.4236 422.0000 L 26.4236 422.0000 L 25.4236 422.0000 L 24.4236 422.0000 L 23.4236 422.0000 L 23.4236 423.0000 L 23.4236 424.0000 L 22.4236 424.0000 L 22.4236 425.0000 L 23.4236 425.0000 L 23.4236 424.0000 L 24.4236 424.0000 L 24.4236 423.0000 L 25.4236 423.0000 L 25.4236 424.0000 L 26.4236 424.0000 L 26.4236 425.0000 L 26.4236 426.0000 L 26.4236 427.0000 L 25.4236 427.0000 L 25.4236 426.0000 L 24.4236 426.0000 L 24.4236 425.0000 L 23.4236 425.0000 L 23.4236 426.0000 L 23.4236 427.0000 L 23.4236 428.0000 L 22.4236 428.0000 L 21.4236 428.0000 L 21.4236 427.0000 L 21.4236 426.0000 L 20.4236 426.0000 L 20.4236 427.0000 L 19.4236 427.0000 L 19.4236 428.0000 L 18.4236 428.0000 L 17.4236 428.0000 L 17.4236 429.0000 L 16.4236 429.0000 L 16.4236 428.0000 L 15.4236 428.0000 L 15.4236 427.0000 L 16.4236 427.0000 L 17.4236 427.0000 L 17.4236 426.0000 L 18.4236 426.0000 L 18.4236 425.0000 L 19.4236 425.0000 L 20.4236 425.0000 L 21.4236 425.0000 L 21.4236 426.0000 L 22.4236 426.0000 L 22.4236 427.0000 L 22.4236 428.0000 L 22.4236 429.0000 L 21.4236 429.0000 L 20.4236 429.0000 L 19.4236 429.0000 L 19.4236 430.0000 L 18.4236 430.0000 L 18.4236 431.0000 L 17.4236 431.0000 L 17.4236 432.0000 L 18.4236 432.0000 L 19.4236 432.0000 L 20.4236 432.0000 L 20.4236 431.0000 L 21.4236 431.0000 L 22.4236 431.0000 L 22.4236 432.0000 L 21.4236 432.0000 L 21.4236 433.0000 L 20.4236 433.0000 L 20.4236 434.0000 L 19.4236 434.0000 L 19.4236 435.0000 L 20.4236 435.0000 L 20.4236 436.0000 L 21.4236 436.0000 L 21.4236 435.0000 L 22.4236 435.0000 L 23.4236 435.0000 L 24.4236 435.0000 L 24.4236 436.0000 L 23.4236 436.0000 L 23.4236 437.0000 L 24.4236 437.0000 L 24.4236 438.0000 L 23.4236 438.0000 L 23.4236 439.0000 L 23.4236 440.0000 L 24.4236 440.0000 L 25.4236 440.0000 L 25.4236 441.0000 L 24.4236 441.0000 L 24.4236 442.0000 L 23.4236 442.0000 L 23.4236 441.0000 L 22.4236 441.0000 L 21.4236 441.0000 L 21.4236 440.0000 L 20.4236 440.0000 L 20.4236 441.0000 L 20.4236 442.0000 L 21.4236 442.0000 L 21.4236 443.0000 L 22.4236 443.0000 L 23.4236 443.0000 L 23.4236 444.0000 L 23.4236 445.0000 L 22.4236 445.0000 L 22.4236 446.0000 L 22.4236 447.0000 L 21.4236 447.0000 L 21.4236 446.0000 L 20.4236 446.0000 L 19.4236 446.0000 L 19.4236 447.0000 L 20.4236 447.0000 L 20.4236 446.0000 L 20.4236 445.0000 L 21.4236 445.0000 L 21.4236 444.0000 L 20.4236 444.0000 L 19.4236 444.0000 L 19.4236 445.0000 L 18.4236 445.0000 L 17.4236 445.0000 L 17.4236 444.0000 L 16.4236 444.0000 L 16.4236 445.0000 L 15.4236 445.0000 L 15.4236 446.0000 L 16.4236 446.0000 L 17.4236 446.0000 L 17.4236 447.0000 L 18.4236 447.0000 L 18.4236 448.0000 L 18.4236 449.0000 L 18.4236 450.0000 L 19.4236 450.0000 L 19.4236 449.0000 L 19.4236 448.0000 L 20.4236 448.0000 L 21.4236 448.0000 L 21.4236 449.0000 L 21.4236 450.0000 L 20.4236 450.0000 L 19.4236 450.0000 L 19.4236 451.0000 L 20.4236 451.0000 L 21.4236 451.0000 L 21.4236 450.0000 L 22.4236 450.0000 L 23.4236 450.0000 L 23.4236 449.0000 L 23.4236 448.0000 L 23.4236 447.0000 L 24.4236 447.0000 L 24.4236 446.0000 L 25.4236 446.0000 L 25.4236 445.0000 L 25.4236 444.0000 L 25.4236 443.0000 L 26.4236 443.0000 L 26.4236 442.0000 L 26.4236 441.0000 L 26.4236 440.0000 L 26.4236 439.0000 L 25.4236 439.0000 L 25.4236 438.0000 L 25.4236 437.0000 L 25.4236 436.0000 L 25.4236 435.0000 L 26.4236 435.0000 L 26.4236 434.0000 L 25.4236 434.0000 L 24.4236 434.0000 L 23.4236 434.0000 L 22.4236 434.0000 L 21.4236 434.0000 L 21.4236 433.0000 L 22.4236 433.0000 L 22.4236 432.0000 L 23.4236 432.0000 L 23.4236 431.0000 L 23.4236 430.0000 L 23.4236 429.0000 L 23.4236 428.0000 L 24.4236 428.0000 L 24.4236 429.0000 L 24.4236 430.0000 L 24.4236 431.0000 L 25.4236 431.0000 L 25.4236 430.0000 L 25.4236 429.0000 L 25.4236 428.0000 L 26.4236 428.0000 L 26.4236 429.0000 L 27.4236 429.0000 L 28.4236 429.0000 L 28.4236 430.0000 L 28.4236 431.0000 L 28.4236 432.0000 L 28.4236 433.0000 L 27.4236 433.0000 L 27.4236 434.0000 L 27.4236 435.0000 L 27.4236 436.0000 L 28.4236 436.0000 L 28.4236 435.0000 L 28.4236 434.0000 L 29.4236 434.0000 L 29.4236 433.0000 L 29.4236 432.0000 L 30.4236 432.0000 L 30.4236 431.0000 L 31.4236 431.0000 L 31.4236 430.0000 L 31.4236 429.0000 L 32.4236 429.0000 L 32.4236 428.0000 L 32.4236 427.0000 L 33.4236 427.0000 L 33.4236 426.0000 L 33.4236 425.0000 L 32.4236 425.0000 L 32.4236 424.0000 L 32.4236 423.0000 L 33.4236 423.0000 L 33.4236 422.0000 L 34.4236 422.0000 L 35.4236 422.0000 L 35.4236 421.0000 L 34.4236 421.0000 L 34.4236 420.0000 L 35.4236 420.0000 L 35.4236 421.0000 L 36.4236 421.0000 L 37.4236 421.0000 L 37.4236 420.0000 L 36.4236 420.0000 L 36.4236 419.0000 L 35.4236 419.0000 L 35.4236 418.0000 L 36.4236 418.0000 L 36.4236 419.0000 L 37.4236 419.0000 L 37.4236 418.0000 L 37.4236 417.0000 L 38.4236 417.0000 L 38.4236 416.0000 L 39.4236 416.0000 L 39.4236 415.0000 L 39.4236 414.0000 L 38.4236 414.0000 L 38.4236 413.0000 L 37.4236 413.0000 L 37.4236 414.0000 L 37.4236 415.0000 L 36.4236 415.0000 L 35.4236 415.0000 L 35.4236 414.0000 L 36.4236 414.0000 L 36.4236 415.0000 L 36.4236 416.0000 L 35.4236 416.0000 L 34.4236 416.0000 L 34.4236 417.0000 L 33.4236 417.0000 L 33.4236 416.0000 Z"/>
<path fill="black" stroke="none" fill-rule="evenodd" d="M 50.4236 404.0000 L 50.4236 405.0000 L 51.4236 405.0000 L 51.4236 406.0000 L 52.4236 406.0000 L 52.4236 407.0000 L 53.4236 407.0000 L 53.4236 408.0000 L 53.4236 409.0000 L 53.4236 410.0000 L 52.4236 410.0000 L 52.4236 411.0000 L 51.4236 411.0000 L 50.4236 411.0000 L 50.4236 412.0000 L 49.4236 412.0000 L 48.4236 412.0000 L 48.4236 413.0000 L 47.4236 413.0000 L 47.4236 414.0000 L 46.4236 414.0000 L 46.4236 415.0000 L 45.4236 415.0000 L 45.4236 416.0000 L 44.4236 416.0000 L 44.4236 415.0000 L 44.4236 414.0000 L 43.4236 414.0000 L 43.4236 413.0000 L 43.4236 412.0000 L 42.4236 412.0000 L 41.4236 412.0000 L 41.4236 413.0000 L 41.4236 414.0000 L 41.4236 415.0000 L 42.4236 415.0000 L 42.4236 416.0000 L 41.4236 416.0000 L 41.4236 417.0000 L 40.4236 417.0000 L 40.4236 416.0000 L 40.4236 415.0000 L 40.4236 414.0000 L 39.4236 414.0000 L 39.4236 413.0000 L 39.4236 412.0000 L 39.4236 411.0000 L 38.4236 411.0000 L 37.4236 411.0000 L 36.4236 411.0000 L 36.4236 410.0000 L 36.4236 409.0000 L 36.4236 408.0000 L 37.4236 408.0000 L 37.4236 409.0000 L 38.4236 409.0000 L 38.4236 410.0000 L 39.4236 410.0000 L 40.4236 410.0000 L 40.4236 411.0000 L 41.4236 411.0000 L 41.4236 410.0000 L 41.4236 409.0000 L 42.4236 409.0000 L 43.4236 409.0000 L 44.4236 409.0000 L 45.4236 409.0000 L 45.4236 408.0000 L 46.4236 408.0000 L 46.4236 407.0000 L 47.4236 407.0000 L 48.4236 407.0000 L 48.4236 406.0000 L 48.4236 405.0000 L 49.4236 405.0000 L 49.4236 404.0000 L 50.4236 404.0000 Z"/>
<path fill="black" stroke="none" fill-rule="evenodd" d="M 135.4236 359.0000 L 135.4236 360.0000 L 135.4236 361.0000 L 136.4236 361.0000 L 137.4236 361.0000 L 138.4236 361.0000 L 139.4236 361.0000 L 140.4236 361.0000 L 141.4236 361.0000 L 141.4236 360.0000 L 141.4236 359.0000 L 141.4236 358.0000 L 141.4236 357.0000 L 141.4236 356.0000 L 141.4236 355.0000 L 141.4236 354.0000 L 141.4236 353.0000 L 141.4236 352.0000 L 141.4236 351.0000 L 141.4236 350.0000 L 141.4236 349.0000 L 140.4236 349.0000 L 139.4236 349.0000 L 138.4236 349.0000 L 137.4236 349.0000 L 136.4236 349.0000 L 135.4236 349.0000 L 135.4236 350.0000 L 135.4236 351.0000 L 135.4236 352.0000 L 135.4236 353.0000 L 135.4236 354.0000 L 135.4236 355.0000 L 135.4236 356.0000 L 135.4236 357.0000 L 135.4236 358.0000 L 135.4236 359.0000 Z"/>
<path fill="black" stroke="none" fill-rule="evenodd" d="M 59.4236 399.0000 L 59.4236 400.0000 L 59.4236 401.0000 L 60.4236 401.0000 L 60.4236 402.0000 L 60.4236 403.0000 L 61.4236 403.0000 L 61.4236 404.0000 L 61.4236 405.0000 L 62.4236 405.0000 L 63.4236 405.0000 L 63.4236 404.0000 L 63.4236 403.0000 L 63.4236 402.0000 L 62.4236 402.0000 L 62.4236 401.0000 L 61.4236 401.0000 L 61.4236 400.0000 L 61.4236 399.0000 L 60.4236 399.0000 L 59.4236 399.0000 Z"/>
<path fill="black" stroke="none" fill-rule="evenodd" d="M 26.4236 450.0000 L 26.4236 451.0000 L 26.4236 452.0000 L 26.4236 453.0000 L 27.4236 453.0000 L 28.4236 453.0000 L 28.4236 452.0000 L 28.4236 451.0000 L 28.4236 450.0000 L 29.4236 450.0000 L 29.4236 449.0000 L 29.4236 448.0000 L 29.4236 447.0000 L 28.4236 447.0000 L 27.4236 447.0000 L 27.4236 448.0000 L 27.4236 449.0000 L 27.4236 450.0000 L 26.4236 450.0000 Z"/>
<path fill="black" stroke="none" fill-rule="evenodd" d="M 70.4236 393.0000 L 70.4236 394.0000 L 69.4236 394.0000 L 69.4236 395.0000 L 69.4236 396.0000 L 70.4236 396.0000 L 70.4236 397.0000 L 71.4236 397.0000 L 71.4236 398.0000 L 71.4236 399.0000 L 72.4236 399.0000 L 73.4236 399.0000 L 73.4236 398.0000 L 73.4236 397.0000 L 72.4236 397.0000 L 72.4236 396.0000 L 72.4236 395.0000 L 71.4236 395.0000 L 71.4236 394.0000 L 71.4236 393.0000 L 70.4236 393.0000 Z"/>
<path fill="black" stroke="none" fill-rule="evenodd" d="M 140.4236 -10.0000 L 141.4236 -10.0000 L 141.4236 -11.0000 L 141.4236 -12.0000 L 140.4236 -12.0000 L 139.4236 -12.0000 L 138.4236 -12.0000 L 137.4236 -12.0000 L 136.4236 -12.0000 L 135.4236 -12.0000 L 135.4236 -11.0000 L 135.4236 -10.0000 L 136.4236 -10.0000 L 137.4236 -10.0000 L 138.4236 -10.0000 L 139.4236 -10.0000 L 140.4236 -10.0000 Z"/>
<path fill="black" stroke="none" fill-rule="evenodd" d="M 139.4236 -6.0000 L 140.4236 -6.0000 L 141.4236 -6.0000 L 141.4236 -7.0000 L 141.4236 -8.0000 L 140.4236 -8.0000 L 139.4236 -8.0000 L 138.4236 -8.0000 L 137.4236 -8.0000 L 136.4236 -8.0000 L 135.4236 -8.0000 L 135.4236 -7.0000 L 135.4236 -6.0000 L 136.4236 -6.0000 L 137.4236 -6.0000 L 138.4236 -6.0000 L 139.4236 -6.0000 Z"/>
<path fill="black" stroke="none" fill-rule="evenodd" d="M 136.4236 -2.0000 L 137.4236 -2.0000 L 138.4236 -2.0000 L 139.4236 -2.0000 L 140.4236 -2.0000 L 141.4236 -2.0000 L 141.4236 -3.0000 L 141.4236 -4.0000 L 140.4236 -4.0000 L 139.4236 -4.0000 L 138.4236 -4.0000 L 137.4236 -4.0000 L 136.4236 -4.0000 L 135.4236 -4.0000 L 135.4236 -3.0000 L 135.4236 -2.0000 L 136.4236 -2.0000 Z"/>
<path fill="black" stroke="none" fill-rule="evenodd" d="M 135.4236 4.0000 L 135.4236 5.0000 L 135.4236 6.0000 L 136.4236 6.0000 L 137.4236 6.0000 L 138.4236 6.0000 L 139.4236 6.0000 L 140.4236 6.0000 L 141.4236 6.0000 L 141.4236 5.0000 L 141.4236 4.0000 L 140.4236 4.0000 L 139.4236 4.0000 L 138.4236 4.0000 L 137.4236 4.0000 L 136.4236 4.0000 L 135.4236 4.0000 Z"/>
<path fill="black" stroke="none" fill-rule="evenodd" d="M 140.4236 8.0000 L 141.4236 8.0000 L 141.4236 9.0000 L 141.4236 10.0000 L 140.4236 10.0000 L 139.4236 10.0000 L 138.4236 10.0000 L 137.4236 10.0000 L 136.4236 10.0000 L 135.4236 10.0000 L 135.4236 9.0000 L 135.4236 8.0000 L 136.4236 8.0000 L 137.4236 8.0000 L 138.4236 8.0000 L 139.4236 8.0000 L 140.4236 8.0000 Z"/>
<path fill="black" stroke="none" fill-rule="evenodd" d="M 135.4236 12.0000 L 136.4236 12.0000 L 137.4236 12.0000 L 138.4236 12.0000 L 139.4236 12.0000 L 140.4236 12.0000 L 141.4236 12.0000 L 141.4236 13.0000 L 141.4236 14.0000 L 140.4236 14.0000 L 139.4236 14.0000 L 138.4236 14.0000 L 137.4236 14.0000 L 136.4236 14.0000 L 135.4236 14.0000 L 135.4236 13.0000 L 135.4236 12.0000 Z"/>
<path fill="black" stroke="none" fill-rule="evenodd" d="M 45.4236 458.0000 L 45.4236 459.0000 L 44.4236 459.0000 L 44.4236 460.0000 L 43.4236 460.0000 L 43.4236 459.0000 L 43.4236 458.0000 L 43.4236 457.0000 L 43.4236 456.0000 L 43.4236 455.0000 L 43.4236 454.0000 L 44.4236 454.0000 L 45.4236 454.0000 L 45.4236 455.0000 L 45.4236 456.0000 L 45.4236 457.0000 L 45.4236 458.0000 Z"/>
<path fill="black" stroke="none" fill-rule="evenodd" d="M 56.4236 406.0000 L 56.4236 407.0000 L 55.4236 407.0000 L 54.4236 407.0000 L 54.4236 406.0000 L 53.4236 406.0000 L 53.4236 405.0000 L 53.4236 404.0000 L 52.4236 404.0000 L 52.4236 403.0000 L 52.4236 402.0000 L 53.4236 402.0000 L 54.4236 402.0000 L 54.4236 403.0000 L 54.4236 404.0000 L 55.4236 404.0000 L 55.4236 405.0000 L 56.4236 405.0000 L 56.4236 406.0000 Z"/>
<path fill="black" stroke="none" fill-rule="evenodd" d="M 68.4236 401.0000 L 69.4236 401.0000 L 70.4236 401.0000 L 70.4236 400.0000 L 70.4236 399.0000 L 69.4236 399.0000 L 69.4236 398.0000 L 68.4236 398.0000 L 68.4236 397.0000 L 68.4236 396.0000 L 67.4236 396.0000 L 66.4236 396.0000 L 66.4236 397.0000 L 66.4236 398.0000 L 67.4236 398.0000 L 67.4236 399.0000 L 67.4236 400.0000 L 68.4236 400.0000 L 68.4236 401.0000 Z"/>
<path fill="black" stroke="none" fill-rule="evenodd" d="M 58.4236 402.0000 L 58.4236 403.0000 L 59.4236 403.0000 L 59.4236 404.0000 L 59.4236 405.0000 L 58.4236 405.0000 L 57.4236 405.0000 L 57.4236 404.0000 L 57.4236 403.0000 L 56.4236 403.0000 L 56.4236 402.0000 L 55.4236 402.0000 L 55.4236 401.0000 L 55.4236 400.0000 L 56.4236 400.0000 L 57.4236 400.0000 L 57.4236 401.0000 L 57.4236 402.0000 L 58.4236 402.0000 Z"/>
<path fill="black" stroke="none" fill-rule="evenodd" d="M 72.4236 393.0000 L 73.4236 393.0000 L 73.4236 394.0000 L 73.4236 395.0000 L 74.4236 395.0000 L 74.4236 396.0000 L 74.4236 397.0000 L 75.4236 397.0000 L 76.4236 397.0000 L 76.4236 396.0000 L 76.4236 395.0000 L 75.4236 395.0000 L 75.4236 394.0000 L 75.4236 393.0000 L 74.4236 393.0000 L 74.4236 392.0000 L 73.4236 392.0000 L 72.4236 392.0000 L 72.4236 393.0000 Z"/>
<path fill="black" stroke="none" fill-rule="evenodd" d="M 39.4236 460.0000 L 40.4236 460.0000 L 41.4236 460.0000 L 41.4236 461.0000 L 40.4236 461.0000 L 39.4236 461.0000 L 39.4236 462.0000 L 38.4236 462.0000 L 38.4236 463.0000 L 37.4236 463.0000 L 36.4236 463.0000 L 36.4236 462.0000 L 36.4236 461.0000 L 37.4236 461.0000 L 37.4236 460.0000 L 38.4236 460.0000 L 39.4236 460.0000 Z"/>
<path fill="black" stroke="none" fill-rule="evenodd" d="M 124.4236 420.0000 L 124.4236 421.0000 L 123.4236 421.0000 L 123.4236 422.0000 L 122.4236 422.0000 L 122.4236 423.0000 L 121.4236 423.0000 L 121.4236 424.0000 L 120.4236 424.0000 L 120.4236 425.0000 L 119.4236 425.0000 L 119.4236 426.0000 L 120.4236 426.0000 L 120.4236 425.0000 L 121.4236 425.0000 L 121.4236 426.0000 L 122.4236 426.0000 L 122.4236 425.0000 L 123.4236 425.0000 L 123.4236 424.0000 L 122.4236 424.0000 L 122.4236 423.0000 L 123.4236 423.0000 L 123.4236 422.0000 L 124.4236 422.0000 L 124.4236 421.0000 L 125.4236 421.0000 L 125.4236 420.0000 L 124.4236 420.0000 Z"/>
<path fill="black" stroke="none" fill-rule="evenodd" d="M 114.4236 442.0000 L 115.4236 442.0000 L 115.4236 441.0000 L 116.4236 441.0000 L 116.4236 440.0000 L 117.4236 440.0000 L 117.4236 439.0000 L 117.4236 438.0000 L 116.4236 438.0000 L 116.4236 439.0000 L 115.4236 439.0000 L 115.4236 440.0000 L 114.4236 440.0000 L 114.4236 441.0000 L 114.4236 442.0000 Z"/>
<path fill="black" stroke="none" fill-rule="evenodd" d="M 136.4236 68.0000 L 137.4236 68.0000 L 138.4236 68.0000 L 139.4236 68.0000 L 140.4236 68.0000 L 141.4236 68.0000 L 141.4236 67.0000 L 140.4236 67.0000 L 139.4236 67.0000 L 138.4236 67.0000 L 137.4236 67.0000 L 136.4236 67.0000 L 135.4236 67.0000 L 135.4236 68.0000 L 136.4236 68.0000 Z"/>
<path fill="black" stroke="none" fill-rule="evenodd" d="M 135.4236 70.0000 L 136.4236 70.0000 L 137.4236 70.0000 L 138.4236 70.0000 L 139.4236 70.0000 L 140.4236 70.0000 L 141.4236 70.0000 L 141.4236 69.0000 L 140.4236 69.0000 L 139.4236 69.0000 L 138.4236 69.0000 L 137.4236 69.0000 L 136.4236 69.0000 L 135.4236 69.0000 L 135.4236 70.0000 Z"/>
<path fill="black" stroke="none" fill-rule="evenodd" d="M 139.4236 71.0000 L 140.4236 71.0000 L 141.4236 71.0000 L 141.4236 72.0000 L 140.4236 72.0000 L 139.4236 72.0000 L 138.4236 72.0000 L 137.4236 72.0000 L 136.4236 72.0000 L 135.4236 72.0000 L 135.4236 71.0000 L 136.4236 71.0000 L 137.4236 71.0000 L 138.4236 71.0000 L 139.4236 71.0000 Z"/>
<path fill="black" stroke="none" fill-rule="evenodd" d="M 137.4236 73.0000 L 138.4236 73.0000 L 139.4236 73.0000 L 140.4236 73.0000 L 141.4236 73.0000 L 141.4236 74.0000 L 140.4236 74.0000 L 139.4236 74.0000 L 138.4236 74.0000 L 137.4236 74.0000 L 136.4236 74.0000 L 135.4236 74.0000 L 135.4236 73.0000 L 136.4236 73.0000 L 137.4236 73.0000 Z"/>
<path fill="black" stroke="none" fill-rule="evenodd" d="M 138.4236 75.0000 L 139.4236 75.0000 L 140.4236 75.0000 L 141.4236 75.0000 L 141.4236 76.0000 L 140.4236 76.0000 L 139.4236 76.0000 L 138.4236 76.0000 L 137.4236 76.0000 L 136.4236 76.0000 L 135.4236 76.0000 L 135.4236 75.0000 L 136.4236 75.0000 L 137.4236 75.0000 L 138.4236 75.0000 Z"/>
<path fill="black" stroke="none" fill-rule="evenodd" d="M 141.4236 77.0000 L 141.4236 78.0000 L 140.4236 78.0000 L 139.4236 78.0000 L 138.4236 78.0000 L 137.4236 78.0000 L 136.4236 78.0000 L 135.4236 78.0000 L 135.4236 77.0000 L 136.4236 77.0000 L 137.4236 77.0000 L 138.4236 77.0000 L 139.4236 77.0000 L 140.4236 77.0000 L 141.4236 77.0000 Z"/>
<path fill="black" stroke="none" fill-rule="evenodd" d="M 139.4236 79.0000 L 140.4236 79.0000 L 141.4236 79.0000 L 141.4236 80.0000 L 140.4236 80.0000 L 139.4236 80.0000 L 138.4236 80.0000 L 137.4236 80.0000 L 136.4236 80.0000 L 135.4236 80.0000 L 135.4236 79.0000 L 136.4236 79.0000 L 137.4236 79.0000 L 138.4236 79.0000 L 139.4236 79.0000 Z"/>
<path fill="black" stroke="none" fill-rule="evenodd" d="M 135.4236 81.0000 L 136.4236 81.0000 L 137.4236 81.0000 L 138.4236 81.0000 L 139.4236 81.0000 L 140.4236 81.0000 L 141.4236 81.0000 L 141.4236 82.0000 L 140.4236 82.0000 L 139.4236 82.0000 L 138.4236 82.0000 L 137.4236 82.0000 L 136.4236 82.0000 L 135.4236 82.0000 L 135.4236 81.0000 Z"/>
<path fill="black" stroke="none" fill-rule="evenodd" d="M 137.4236 83.0000 L 138.4236 83.0000 L 139.4236 83.0000 L 140.4236 83.0000 L 141.4236 83.0000 L 141.4236 84.0000 L 140.4236 84.0000 L 139.4236 84.0000 L 138.4236 84.0000 L 137.4236 84.0000 L 136.4236 84.0000 L 135.4236 84.0000 L 135.4236 83.0000 L 136.4236 83.0000 L 137.4236 83.0000 Z"/>
<path fill="black" stroke="none" fill-rule="evenodd" d="M 137.4236 85.0000 L 138.4236 85.0000 L 139.4236 85.0000 L 140.4236 85.0000 L 141.4236 85.0000 L 141.4236 86.0000 L 140.4236 86.0000 L 139.4236 86.0000 L 138.4236 86.0000 L 137.4236 86.0000 L 136.4236 86.0000 L 135.4236 86.0000 L 135.4236 85.0000 L 136.4236 85.0000 L 137.4236 85.0000 Z"/>
<path fill="black" stroke="none" fill-rule="evenodd" d="M 136.4236 87.0000 L 137.4236 87.0000 L 138.4236 87.0000 L 139.4236 87.0000 L 140.4236 87.0000 L 141.4236 87.0000 L 141.4236 88.0000 L 140.4236 88.0000 L 139.4236 88.0000 L 138.4236 88.0000 L 137.4236 88.0000 L 136.4236 88.0000 L 135.4236 88.0000 L 135.4236 87.0000 L 136.4236 87.0000 Z"/>
<path fill="black" stroke="none" fill-rule="evenodd" d="M 135.4236 89.0000 L 136.4236 89.0000 L 137.4236 89.0000 L 138.4236 89.0000 L 139.4236 89.0000 L 140.4236 89.0000 L 141.4236 89.0000 L 141.4236 90.0000 L 140.4236 90.0000 L 139.4236 90.0000 L 138.4236 90.0000 L 137.4236 90.0000 L 136.4236 90.0000 L 135.4236 90.0000 L 135.4236 89.0000 Z"/>
<path fill="black" stroke="none" fill-rule="evenodd" d="M 141.4236 91.0000 L 141.4236 92.0000 L 140.4236 92.0000 L 139.4236 92.0000 L 138.4236 92.0000 L 137.4236 92.0000 L 136.4236 92.0000 L 135.4236 92.0000 L 135.4236 91.0000 L 136.4236 91.0000 L 137.4236 91.0000 L 138.4236 91.0000 L 139.4236 91.0000 L 140.4236 91.0000 L 141.4236 91.0000 Z"/>
<path fill="black" stroke="none" fill-rule="evenodd" d="M 136.4236 93.0000 L 137.4236 93.0000 L 138.4236 93.0000 L 139.4236 93.0000 L 140.4236 93.0000 L 141.4236 93.0000 L 141.4236 94.0000 L 140.4236 94.0000 L 139.4236 94.0000 L 138.4236 94.0000 L 137.4236 94.0000 L 136.4236 94.0000 L 135.4236 94.0000 L 135.4236 93.0000 L 136.4236 93.0000 Z"/>
<path fill="black" stroke="none" fill-rule="evenodd" d="M 140.4236 231.0000 L 141.4236 231.0000 L 141.4236 230.0000 L 140.4236 230.0000 L 139.4236 230.0000 L 138.4236 230.0000 L 137.4236 230.0000 L 136.4236 230.0000 L 135.4236 230.0000 L 135.4236 231.0000 L 136.4236 231.0000 L 137.4236 231.0000 L 138.4236 231.0000 L 139.4236 231.0000 L 140.4236 231.0000 Z"/>
<path fill="black" stroke="none" fill-rule="evenodd" d="M 135.4236 233.0000 L 136.4236 233.0000 L 137.4236 233.0000 L 138.4236 233.0000 L 139.4236 233.0000 L 140.4236 233.0000 L 141.4236 233.0000 L 141.4236 232.0000 L 140.4236 232.0000 L 139.4236 232.0000 L 138.4236 232.0000 L 137.4236 232.0000 L 136.4236 232.0000 L 135.4236 232.0000 L 135.4236 233.0000 Z"/>
<path fill="black" stroke="none" fill-rule="evenodd" d="M 135.4236 235.0000 L 136.4236 235.0000 L 137.4236 235.0000 L 138.4236 235.0000 L 139.4236 235.0000 L 140.4236 235.0000 L 141.4236 235.0000 L 141.4236 234.0000 L 140.4236 234.0000 L 139.4236 234.0000 L 138.4236 234.0000 L 137.4236 234.0000 L 136.4236 234.0000 L 135.4236 234.0000 L 135.4236 235.0000 Z"/>
<path fill="black" stroke="none" fill-rule="evenodd" d="M 136.4236 236.0000 L 137.4236 236.0000 L 138.4236 236.0000 L 139.4236 236.0000 L 140.4236 236.0000 L 141.4236 236.0000 L 141.4236 237.0000 L 140.4236 237.0000 L 139.4236 237.0000 L 138.4236 237.0000 L 137.4236 237.0000 L 136.4236 237.0000 L 135.4236 237.0000 L 135.4236 236.0000 L 136.4236 236.0000 Z"/>
<path fill="black" stroke="none" fill-rule="evenodd" d="M 138.4236 238.0000 L 139.4236 238.0000 L 140.4236 238.0000 L 141.4236 238.0000 L 141.4236 239.0000 L 140.4236 239.0000 L 139.4236 239.0000 L 138.4236 239.0000 L 137.4236 239.0000 L 136.4236 239.0000 L 135.4236 239.0000 L 135.4236 238.0000 L 136.4236 238.0000 L 137.4236 238.0000 L 138.4236 238.0000 Z"/>
<path fill="black" stroke="none" fill-rule="evenodd" d="M 135.4236 240.0000 L 136.4236 240.0000 L 137.4236 240.0000 L 138.4236 240.0000 L 139.4236 240.0000 L 140.4236 240.0000 L 141.4236 240.0000 L 141.4236 241.0000 L 140.4236 241.0000 L 139.4236 241.0000 L 138.4236 241.0000 L 137.4236 241.0000 L 136.4236 241.0000 L 135.4236 241.0000 L 135.4236 240.0000 Z"/>
<path fill="black" stroke="none" fill-rule="evenodd" d="M 137.4236 242.0000 L 138.4236 242.0000 L 139.4236 242.0000 L 140.4236 242.0000 L 141.4236 242.0000 L 141.4236 243.0000 L 140.4236 243.0000 L 139.4236 243.0000 L 138.4236 243.0000 L 137.4236 243.0000 L 136.4236 243.0000 L 135.4236 243.0000 L 135.4236 242.0000 L 136.4236 242.0000 L 137.4236 242.0000 Z"/>
<path fill="black" stroke="none" fill-rule="evenodd" d="M 139.4236 244.0000 L 140.4236 244.0000 L 141.4236 244.0000 L 141.4236 245.0000 L 140.4236 245.0000 L 139.4236 245.0000 L 138.4236 245.0000 L 137.4236 245.0000 L 136.4236 245.0000 L 135.4236 245.0000 L 135.4236 244.0000 L 136.4236 244.0000 L 137.4236 244.0000 L 138.4236 244.0000 L 139.4236 244.0000 Z"/>
<path fill="black" stroke="none" fill-rule="evenodd" d="M 136.4236 246.0000 L 137.4236 246.0000 L 138.4236 246.0000 L 139.4236 246.0000 L 140.4236 246.0000 L 141.4236 246.0000 L 141.4236 247.0000 L 140.4236 247.0000 L 139.4236 247.0000 L 138.4236 247.0000 L 137.4236 247.0000 L 136.4236 247.0000 L 135.4236 247.0000 L 135.4236 246.0000 L 136.4236 246.0000 Z"/>
<path fill="black" stroke="none" fill-rule="evenodd" d="M 135.4236 249.0000 L 136.4236 249.0000 L 137.4236 249.0000 L 138.4236 249.0000 L 139.4236 249.0000 L 140.4236 249.0000 L 141.4236 249.0000 L 141.4236 248.0000 L 140.4236 248.0000 L 139.4236 248.0000 L 138.4236 248.0000 L 137.4236 248.0000 L 136.4236 248.0000 L 135.4236 248.0000 L 135.4236 249.0000 Z"/>
<path fill="black" stroke="none" fill-rule="evenodd" d="M 139.4236 250.0000 L 140.4236 250.0000 L 141.4236 250.0000 L 141.4236 251.0000 L 140.4236 251.0000 L 139.4236 251.0000 L 138.4236 251.0000 L 137.4236 251.0000 L 136.4236 251.0000 L 135.4236 251.0000 L 135.4236 250.0000 L 136.4236 250.0000 L 137.4236 250.0000 L 138.4236 250.0000 L 139.4236 250.0000 Z"/>
<path fill="black" stroke="none" fill-rule="evenodd" d="M 135.4236 252.0000 L 136.4236 252.0000 L 137.4236 252.0000 L 138.4236 252.0000 L 139.4236 252.0000 L 140.4236 252.0000 L 141.4236 252.0000 L 141.4236 253.0000 L 140.4236 253.0000 L 139.4236 253.0000 L 138.4236 253.0000 L 137.4236 253.0000 L 136.4236 253.0000 L 135.4236 253.0000 L 135.4236 252.0000 Z"/>
<path fill="black" stroke="none" fill-rule="evenodd" d="M 141.4236 254.0000 L 141.4236 255.0000 L 140.4236 255.0000 L 139.4236 255.0000 L 138.4236 255.0000 L 137.4236 255.0000 L 136.4236 255.0000 L 135.4236 255.0000 L 135.4236 254.0000 L 136.4236 254.0000 L 137.4236 254.0000 L 138.4236 254.0000 L 139.4236 254.0000 L 140.4236 254.0000 L 141.4236 254.0000 Z"/>
<path fill="black" stroke="none" fill-rule="evenodd" d="M 135.4236 256.0000 L 136.4236 256.0000 L 137.4236 256.0000 L 138.4236 256.0000 L 139.4236 256.0000 L 140.4236 256.0000 L 141.4236 256.0000 L 141.4236 257.0000 L 140.4236 257.0000 L 139.4236 257.0000 L 138.4236 257.0000 L 137.4236 257.0000 L 136.4236 257.0000 L 135.4236 257.0000 L 135.4236 256.0000 Z"/>
<path fill="black" stroke="none" fill-rule="evenodd" d="M 141.4236 333.0000 L 141.4236 334.0000 L 140.4236 334.0000 L 139.4236 334.0000 L 138.4236 334.0000 L 137.4236 334.0000 L 136.4236 334.0000 L 135.4236 334.0000 L 135.4236 333.0000 L 136.4236 333.0000 L 137.4236 333.0000 L 138.4236 333.0000 L 139.4236 333.0000 L 140.4236 333.0000 L 141.4236 333.0000 Z"/>
<path fill="black" stroke="none" fill-rule="evenodd" d="M 137.4236 335.0000 L 138.4236 335.0000 L 139.4236 335.0000 L 140.4236 335.0000 L 141.4236 335.0000 L 141.4236 336.0000 L 140.4236 336.0000 L 139.4236 336.0000 L 138.4236 336.0000 L 137.4236 336.0000 L 136.4236 336.0000 L 135.4236 336.0000 L 135.4236 335.0000 L 136.4236 335.0000 L 137.4236 335.0000 Z"/>
<path fill="black" stroke="none" fill-rule="evenodd" d="M 136.4236 338.0000 L 137.4236 338.0000 L 138.4236 338.0000 L 139.4236 338.0000 L 140.4236 338.0000 L 141.4236 338.0000 L 141.4236 337.0000 L 140.4236 337.0000 L 139.4236 337.0000 L 138.4236 337.0000 L 137.4236 337.0000 L 136.4236 337.0000 L 135.4236 337.0000 L 135.4236 338.0000 L 136.4236 338.0000 Z"/>
<path fill="black" stroke="none" fill-rule="evenodd" d="M 140.4236 339.0000 L 141.4236 339.0000 L 141.4236 340.0000 L 140.4236 340.0000 L 139.4236 340.0000 L 138.4236 340.0000 L 137.4236 340.0000 L 136.4236 340.0000 L 135.4236 340.0000 L 135.4236 339.0000 L 136.4236 339.0000 L 137.4236 339.0000 L 138.4236 339.0000 L 139.4236 339.0000 L 140.4236 339.0000 Z"/>
<path fill="black" stroke="none" fill-rule="evenodd" d="M 138.4236 341.0000 L 139.4236 341.0000 L 140.4236 341.0000 L 141.4236 341.0000 L 141.4236 342.0000 L 140.4236 342.0000 L 139.4236 342.0000 L 138.4236 342.0000 L 137.4236 342.0000 L 136.4236 342.0000 L 135.4236 342.0000 L 135.4236 341.0000 L 136.4236 341.0000 L 137.4236 341.0000 L 138.4236 341.0000 Z"/>
<path fill="black" stroke="none" fill-rule="evenodd" d="M 139.4236 343.0000 L 140.4236 343.0000 L 141.4236 343.0000 L 141.4236 344.0000 L 140.4236 344.0000 L 139.4236 344.0000 L 138.4236 344.0000 L 137.4236 344.0000 L 136.4236 344.0000 L 135.4236 344.0000 L 135.4236 343.0000 L 136.4236 343.0000 L 137.4236 343.0000 L 138.4236 343.0000 L 139.4236 343.0000 Z"/>
<path fill="black" stroke="none" fill-rule="evenodd" d="M 136.4236 346.0000 L 137.4236 346.0000 L 138.4236 346.0000 L 139.4236 346.0000 L 140.4236 346.0000 L 141.4236 346.0000 L 141.4236 345.0000 L 140.4236 345.0000 L 139.4236 345.0000 L 138.4236 345.0000 L 137.4236 345.0000 L 136.4236 345.0000 L 135.4236 345.0000 L 135.4236 346.0000 L 136.4236 346.0000 Z"/>
<path fill="black" stroke="none" fill-rule="evenodd" d="M 141.4236 347.0000 L 141.4236 348.0000 L 140.4236 348.0000 L 139.4236 348.0000 L 138.4236 348.0000 L 137.4236 348.0000 L 136.4236 348.0000 L 135.4236 348.0000 L 135.4236 347.0000 L 136.4236 347.0000 L 137.4236 347.0000 L 138.4236 347.0000 L 139.4236 347.0000 L 140.4236 347.0000 L 141.4236 347.0000 Z"/>
<path fill="black" stroke="none" fill-rule="evenodd" d="M 135.4236 362.0000 L 135.4236 363.0000 L 136.4236 363.0000 L 137.4236 363.0000 L 138.4236 363.0000 L 139.4236 363.0000 L 140.4236 363.0000 L 141.4236 363.0000 L 141.4236 362.0000 L 140.4236 362.0000 L 139.4236 362.0000 L 138.4236 362.0000 L 137.4236 362.0000 L 136.4236 362.0000 L 135.4236 362.0000 Z"/>
<path fill="black" stroke="none" fill-rule="evenodd" d="M 39.4236 456.0000 L 40.4236 456.0000 L 41.4236 456.0000 L 41.4236 455.0000 L 41.4236 454.0000 L 40.4236 454.0000 L 39.4236 454.0000 L 39.4236 455.0000 L 38.4236 455.0000 L 38.4236 456.0000 L 39.4236 456.0000 Z"/>
<path fill="black" stroke="none" fill-rule="evenodd" d="M 80.4236 451.0000 L 80.4236 452.0000 L 79.4236 452.0000 L 79.4236 453.0000 L 80.4236 453.0000 L 80.4236 452.0000 L 81.4236 452.0000 L 82.4236 452.0000 L 82.4236 451.0000 L 83.4236 451.0000 L 83.4236 450.0000 L 82.4236 450.0000 L 81.4236 450.0000 L 81.4236 451.0000 L 80.4236 451.0000 Z"/>
<path fill="black" stroke="none" fill-rule="evenodd" d="M 99.4236 445.0000 L 99.4236 446.0000 L 98.4236 446.0000 L 98.4236 447.0000 L 97.4236 447.0000 L 97.4236 446.0000 L 97.4236 445.0000 L 96.4236 445.0000 L 96.4236 444.0000 L 96.4236 443.0000 L 97.4236 443.0000 L 97.4236 444.0000 L 97.4236 445.0000 L 98.4236 445.0000 L 99.4236 445.0000 Z"/>
<path fill="black" stroke="none" fill-rule="evenodd" d="M 137.4236 410.0000 L 137.4236 411.0000 L 136.4236 411.0000 L 135.4236 411.0000 L 135.4236 410.0000 L 136.4236 410.0000 L 136.4236 409.0000 L 135.4236 409.0000 L 134.4236 409.0000 L 134.4236 408.0000 L 135.4236 408.0000 L 136.4236 408.0000 L 136.4236 409.0000 L 137.4236 409.0000 L 137.4236 410.0000 Z"/>
<path fill="black" stroke="none" fill-rule="evenodd" d="M 19.4236 441.0000 L 19.4236 442.0000 L 19.4236 443.0000 L 18.4236 443.0000 L 17.4236 443.0000 L 17.4236 442.0000 L 17.4236 441.0000 L 18.4236 441.0000 L 19.4236 441.0000 Z"/>
<path fill="black" stroke="none" fill-rule="evenodd" d="M 21.4236 436.0000 L 21.4236 437.0000 L 20.4236 437.0000 L 20.4236 438.0000 L 19.4236 438.0000 L 19.4236 439.0000 L 20.4236 439.0000 L 20.4236 438.0000 L 21.4236 438.0000 L 21.4236 437.0000 L 22.4236 437.0000 L 22.4236 436.0000 L 21.4236 436.0000 Z"/>
<path fill="black" stroke="none" fill-rule="evenodd" d="M 59.4236 458.0000 L 59.4236 459.0000 L 59.4236 460.0000 L 60.4236 460.0000 L 60.4236 459.0000 L 60.4236 458.0000 L 60.4236 457.0000 L 59.4236 457.0000 L 59.4236 458.0000 Z"/>
<path fill="black" stroke="none" fill-rule="evenodd" d="M 139.4236 391.0000 L 140.4236 391.0000 L 141.4236 391.0000 L 141.4236 390.0000 L 141.4236 389.0000 L 140.4236 389.0000 L 140.4236 390.0000 L 139.4236 390.0000 L 139.4236 391.0000 Z"/>
<path fill="black" stroke="none" fill-rule="evenodd" d="M 142.4236 365.0000 L 142.4236 366.0000 L 141.4236 366.0000 L 140.4236 366.0000 L 140.4236 365.0000 L 141.4236 365.0000 L 141.4236 364.0000 L 142.4236 364.0000 L 142.4236 365.0000 Z"/>
<path fill="black" stroke="none" fill-rule="evenodd" d="M 23.4236 451.0000 L 24.4236 451.0000 L 24.4236 452.0000 L 23.4236 452.0000 L 22.4236 452.0000 L 22.4236 451.0000 L 23.4236 451.0000 Z"/>
<path fill="black" stroke="none" fill-rule="evenodd" d="M 24.4236 432.0000 L 25.4236 432.0000 L 25.4236 433.0000 L 24.4236 433.0000 L 23.4236 433.0000 L 23.4236 432.0000 L 24.4236 432.0000 Z"/>
<path fill="black" stroke="none" fill-rule="evenodd" d="M 24.4236 448.0000 L 25.4236 448.0000 L 25.4236 449.0000 L 25.4236 450.0000 L 24.4236 450.0000 L 24.4236 449.0000 L 24.4236 448.0000 Z"/>
<path fill="black" stroke="none" fill-rule="evenodd" d="M 33.4236 425.0000 L 34.4236 425.0000 L 34.4236 424.0000 L 34.4236 423.0000 L 33.4236 423.0000 L 33.4236 424.0000 L 33.4236 425.0000 Z"/>
<path fill="black" stroke="none" fill-rule="evenodd" d="M 34.4236 412.0000 L 34.4236 413.0000 L 35.4236 413.0000 L 36.4236 413.0000 L 36.4236 412.0000 L 35.4236 412.0000 L 34.4236 412.0000 Z"/>
<path fill="black" stroke="none" fill-rule="evenodd" d="M 58.4236 458.0000 L 58.4236 459.0000 L 57.4236 459.0000 L 56.4236 459.0000 L 55.4236 459.0000 L 55.4236 458.0000 L 55.4236 457.0000 L 56.4236 457.0000 L 56.4236 458.0000 L 56.4236 459.0000 L 56.4236 460.0000 L 56.4236 461.0000 L 57.4236 461.0000 L 57.4236 460.0000 L 57.4236 459.0000 L 57.4236 458.0000 L 57.4236 457.0000 L 58.4236 457.0000 L 58.4236 458.0000 Z"/>
<path fill="black" stroke="none" fill-rule="evenodd" d="M 78.4236 458.0000 L 79.4236 458.0000 L 80.4236 458.0000 L 80.4236 459.0000 L 79.4236 459.0000 L 78.4236 459.0000 L 78.4236 458.0000 Z"/>
<path fill="black" stroke="none" fill-rule="evenodd" d="M 90.4236 448.0000 L 91.4236 448.0000 L 92.4236 448.0000 L 92.4236 447.0000 L 91.4236 447.0000 L 90.4236 447.0000 L 90.4236 448.0000 Z"/>
<path fill="black" stroke="none" fill-rule="evenodd" d="M 110.4236 435.0000 L 110.4236 436.0000 L 109.4236 436.0000 L 108.4236 436.0000 L 108.4236 437.0000 L 109.4236 437.0000 L 109.4236 436.0000 L 109.4236 435.0000 L 109.4236 434.0000 L 110.4236 434.0000 L 110.4236 433.0000 L 111.4236 433.0000 L 111.4236 434.0000 L 110.4236 434.0000 L 110.4236 435.0000 Z"/>
<path fill="black" stroke="none" fill-rule="evenodd" d="M 125.4236 425.0000 L 125.4236 426.0000 L 125.4236 427.0000 L 124.4236 427.0000 L 124.4236 426.0000 L 124.4236 425.0000 L 125.4236 425.0000 Z"/>
<path fill="black" stroke="none" fill-rule="evenodd" d="M 134.4236 389.0000 L 134.4236 390.0000 L 135.4236 390.0000 L 135.4236 389.0000 L 135.4236 388.0000 L 134.4236 388.0000 L 134.4236 389.0000 Z"/>
<path fill="black" stroke="none" fill-rule="evenodd" d="M 135.4236 396.0000 L 136.4236 396.0000 L 137.4236 396.0000 L 137.4236 395.0000 L 136.4236 395.0000 L 135.4236 395.0000 L 135.4236 396.0000 Z"/>
<path fill="black" stroke="none" fill-rule="evenodd" d="M 137.4236 405.0000 L 137.4236 406.0000 L 137.4236 407.0000 L 138.4236 407.0000 L 138.4236 406.0000 L 138.4236 405.0000 L 137.4236 405.0000 Z"/>
<path fill="black" stroke="none" fill-rule="evenodd" d="M 30.4236 453.0000 L 31.4236 453.0000 L 31.4236 454.0000 L 30.4236 454.0000 L 30.4236 453.0000 Z"/>
<path fill="black" stroke="none" fill-rule="evenodd" d="M 32.4236 418.0000 L 33.4236 418.0000 L 33.4236 419.0000 L 32.4236 419.0000 L 32.4236 418.0000 Z"/>
<path fill="black" stroke="none" fill-rule="evenodd" d="M 38.4236 417.0000 L 39.4236 417.0000 L 39.4236 418.0000 L 38.4236 418.0000 L 38.4236 417.0000 Z"/>
<path fill="black" stroke="none" fill-rule="evenodd" d="M 43.4236 411.0000 L 44.4236 411.0000 L 44.4236 410.0000 L 43.4236 410.0000 L 43.4236 411.0000 Z"/>
<path fill="black" stroke="none" fill-rule="evenodd" d="M 45.4236 410.0000 L 45.4236 411.0000 L 46.4236 411.0000 L 46.4236 410.0000 L 45.4236 410.0000 Z"/>
<path fill="black" stroke="none" fill-rule="evenodd" d="M 46.4236 408.0000 L 46.4236 409.0000 L 47.4236 409.0000 L 47.4236 408.0000 L 46.4236 408.0000 Z"/>
<path fill="black" stroke="none" fill-rule="evenodd" d="M 49.4236 410.0000 L 50.4236 410.0000 L 50.4236 409.0000 L 49.4236 409.0000 L 49.4236 410.0000 Z"/>
<path fill="black" stroke="none" fill-rule="evenodd" d="M 74.4236 456.0000 L 75.4236 456.0000 L 75.4236 455.0000 L 74.4236 455.0000 L 74.4236 456.0000 Z"/>
<path fill="black" stroke="none" fill-rule="evenodd" d="M 76.4236 458.0000 L 77.4236 458.0000 L 77.4236 459.0000 L 76.4236 459.0000 L 76.4236 458.0000 Z"/>
<path fill="black" stroke="none" fill-rule="evenodd" d="M 85.4236 453.0000 L 86.4236 453.0000 L 86.4236 452.0000 L 85.4236 452.0000 L 85.4236 453.0000 Z"/>
<path fill="black" stroke="none" fill-rule="evenodd" d="M 87.4236 452.0000 L 87.4236 453.0000 L 88.4236 453.0000 L 88.4236 452.0000 L 87.4236 452.0000 Z"/>
<path fill="black" stroke="none" fill-rule="evenodd" d="M 89.4236 449.0000 L 89.4236 450.0000 L 88.4236 450.0000 L 88.4236 449.0000 L 89.4236 449.0000 Z"/>
<path fill="black" stroke="none" fill-rule="evenodd" d="M 93.4236 446.0000 L 93.4236 447.0000 L 92.4236 447.0000 L 92.4236 446.0000 L 93.4236 446.0000 Z"/>
<path fill="black" stroke="none" fill-rule="evenodd" d="M 94.4236 448.0000 L 95.4236 448.0000 L 95.4236 447.0000 L 94.4236 447.0000 L 94.4236 448.0000 Z"/>
<path fill="black" stroke="none" fill-rule="evenodd" d="M 95.4236 446.0000 L 96.4236 446.0000 L 96.4236 447.0000 L 95.4236 447.0000 L 95.4236 446.0000 Z"/>
<path fill="black" stroke="none" fill-rule="evenodd" d="M 100.4236 445.0000 L 101.4236 445.0000 L 101.4236 444.0000 L 100.4236 444.0000 L 100.4236 445.0000 Z"/>
<path fill="black" stroke="none" fill-rule="evenodd" d="M 101.4236 442.0000 L 101.4236 443.0000 L 102.4236 443.0000 L 102.4236 442.0000 L 101.4236 442.0000 Z"/>
<path fill="black" stroke="none" fill-rule="evenodd" d="M 103.4236 445.0000 L 103.4236 446.0000 L 104.4236 446.0000 L 104.4236 445.0000 L 103.4236 445.0000 Z"/>
<path fill="black" stroke="none" fill-rule="evenodd" d="M 105.4236 440.0000 L 105.4236 441.0000 L 104.4236 441.0000 L 104.4236 440.0000 L 105.4236 440.0000 Z"/>
<path fill="black" stroke="none" fill-rule="evenodd" d="M 110.4236 436.0000 L 110.4236 437.0000 L 111.4236 437.0000 L 111.4236 436.0000 L 110.4236 436.0000 Z"/>
<path fill="black" stroke="none" fill-rule="evenodd" d="M 116.4236 434.0000 L 116.4236 435.0000 L 117.4236 435.0000 L 117.4236 434.0000 L 116.4236 434.0000 Z"/>
<path fill="black" stroke="none" fill-rule="evenodd" d="M 121.4236 431.0000 L 121.4236 432.0000 L 120.4236 432.0000 L 120.4236 431.0000 L 121.4236 431.0000 Z"/>
<path fill="black" stroke="none" fill-rule="evenodd" d="M 123.4236 430.0000 L 123.4236 431.0000 L 122.4236 431.0000 L 122.4236 430.0000 L 123.4236 430.0000 Z"/>
<path fill="black" stroke="none" fill-rule="evenodd" d="M 123.4236 428.0000 L 124.4236 428.0000 L 124.4236 427.0000 L 123.4236 427.0000 L 123.4236 428.0000 Z"/>
<path fill="black" stroke="none" fill-rule="evenodd" d="M 124.4236 423.0000 L 125.4236 423.0000 L 125.4236 424.0000 L 124.4236 424.0000 L 124.4236 423.0000 Z"/>
<path fill="black" stroke="none" fill-rule="evenodd" d="M 125.4236 418.0000 L 125.4236 419.0000 L 126.4236 419.0000 L 126.4236 418.0000 L 125.4236 418.0000 Z"/>
<path fill="black" stroke="none" fill-rule="evenodd" d="M 125.4236 424.0000 L 126.4236 424.0000 L 126.4236 425.0000 L 125.4236 425.0000 L 125.4236 424.0000 Z"/>
<path fill="black" stroke="none" fill-rule="evenodd" d="M 126.4236 422.0000 L 126.4236 423.0000 L 127.4236 423.0000 L 127.4236 422.0000 L 126.4236 422.0000 Z"/>
<path fill="black" stroke="none" fill-rule="evenodd" d="M 128.4236 414.0000 L 128.4236 415.0000 L 127.4236 415.0000 L 127.4236 414.0000 L 128.4236 414.0000 Z"/>
<path fill="black" stroke="none" fill-rule="evenodd" d="M 129.4236 416.0000 L 130.4236 416.0000 L 130.4236 415.0000 L 129.4236 415.0000 L 129.4236 416.0000 Z"/>
<path fill="black" stroke="none" fill-rule="evenodd" d="M 133.4236 412.0000 L 134.4236 412.0000 L 134.4236 413.0000 L 133.4236 413.0000 L 133.4236 412.0000 Z"/>
<path fill="black" stroke="none" fill-rule="evenodd" d="M 135.4236 393.0000 L 136.4236 393.0000 L 136.4236 394.0000 L 135.4236 394.0000 L 135.4236 393.0000 Z"/>
<path fill="black" stroke="none" fill-rule="evenodd" d="M 139.4236 389.0000 L 140.4236 389.0000 L 140.4236 388.0000 L 139.4236 388.0000 L 139.4236 389.0000 Z"/>
<path fill="black" stroke="none" fill-rule="evenodd" d="M 141.4236 367.0000 L 141.4236 368.0000 L 140.4236 368.0000 L 140.4236 367.0000 L 141.4236 367.0000 Z"/>
<path fill="black" stroke="none" fill-rule="evenodd" d="M 140.4236 369.0000 L 140.4236 370.0000 L 141.4236 370.0000 L 141.4236 369.0000 L 140.4236 369.0000 Z"/>
<path fill="black" stroke="none" fill-rule="evenodd" d="M 42.4236 417.0000 L 42.4236 418.0000 L 41.4236 418.0000 L 40.4236 418.0000 L 40.4236 419.0000 L 41.4236 419.0000 L 41.4236 418.0000 L 41.4236 417.0000 L 42.4236 417.0000 Z"/>
<path fill="black" stroke="none" fill-rule="evenodd" d="M 50.4236 408.0000 L 51.4236 408.0000 L 51.4236 407.0000 L 50.4236 407.0000 L 49.4236 407.0000 L 49.4236 406.0000 L 50.4236 406.0000 L 50.4236 407.0000 L 50.4236 408.0000 Z"/>
</svg>