<svg xmlns="http://www.w3.org/2000/svg" width="337.7179" height="41.6318" viewBox="-17.4717 -20.8159 337.7179 41.6318">
  
  
  <path fill="black" stroke="none" fill-rule="evenodd" d="M 4.3460 9.9052 L 22.3834 10.1882 L 40.4025 10.4200 L 58.4070 10.5994 L 76.4006 10.7256 L 94.3873 10.7979 L 112.3707 10.8159 L 130.3548 10.7795 L 148.3434 10.6890 L 166.3403 10.5448 L 184.3493 10.3476 L 202.3741 10.0984 L 220.4184 9.7984 L 238.4858 9.4492 L 256.5796 9.0525 L 274.7031 8.6104 L 292.8596 8.1249 L 310.2462 3.4662 L 307.1404 -8.1249 L 287.7969 -8.6104 L 268.4204 -9.0525 L 249.0142 -9.4492 L 229.5816 -9.7984 L 210.1259 -10.0984 L 190.6507 -10.3476 L 171.1597 -10.5448 L 151.6566 -10.6890 L 132.1452 -10.7795 L 112.6293 -10.8159 L 93.1127 -10.7979 L 73.5994 -10.7256 L 54.0930 -10.5994 L 34.5975 -10.4200 L 15.1166 -10.1882 L -4.3460 -9.9052 L -7.4717 7.8214 L 4.3460 9.9052 Z"/>
  <g id="debug">
  <path fill="none" stroke="#ff3366" stroke-opacity="0.6" stroke-width="0.5" d="M 0 0 L 3.7975 0 L 7.5949 0 L 11.3924 0 L 15.1899 0 L 18.9873 0 L 22.7848 0 L 26.5823 0 L 30.3797 0 L 34.1772 0 L 37.9747 0 L 41.7722 0 L 45.5696 0 L 49.3671 0 L 53.1646 0 L 56.9620 0 L 60.7595 0 L 64.5570 0 L 68.3544 0 L 72.1519 0 L 75.9494 0 L 79.7468 0 L 83.5443 0 L 87.3418 0 L 91.1392 0 L 94.9367 0 L 98.7342 0 L 102.5316 0 L 106.3291 0 L 110.1266 0 L 113.9241 0 L 117.7215 0 L 121.5190 0 L 125.3165 0 L 129.1139 0 L 132.9114 0 L 136.7089 0 L 140.5063 0 L 144.3038 0 L 148.1013 0 L 151.8987 0 L 155.6962 0 L 159.4937 0 L 163.2911 0 L 167.0886 0 L 170.8861 0 L 174.6835 0 L 178.4810 0 L 182.2785 0 L 186.0759 0 L 189.8734 0 L 193.6709 0 L 197.4684 0 L 201.2658 0 L 205.0633 0 L 208.8608 0 L 212.6582 0 L 216.4557 0 L 220.2532 0 L 224.0506 0 L 227.8481 0 L 231.6456 0 L 235.4430 0 L 239.2405 0 L 243.0380 0 L 246.8354 0 L 250.6329 0 L 254.4304 0 L 258.2278 0 L 262.0253 0 L 265.8228 0 L 269.6203 0 L 273.4177 0 L 277.2152 0 L 281.0127 0 L 284.8101 0 L 288.6076 0 L 292.4051 0 L 296.2025 0 L 300.0000 0"/>
  <path fill="none" stroke="#ff9900" stroke-opacity="0.6" stroke-width="0.6" d=""/>
  <path fill="none" stroke="#222222" stroke-opacity="0.7" stroke-width="0.6" d=""/>
  <path fill="none" stroke="#00aaff" stroke-opacity="0.6" stroke-width="0.6" d=""/>
  <circle cx="0" cy="0" r="0.6000" fill="#222222" fill-opacity="0.5"/>
    <circle cx="18.7500" cy="0" r="0.6000" fill="#222222" fill-opacity="0.5"/>
    <circle cx="37.5000" cy="0" r="0.6000" fill="#222222" fill-opacity="0.5"/>
    <circle cx="56.2500" cy="0" r="0.6000" fill="#222222" fill-opacity="0.5"/>
    <circle cx="75.0000" cy="0" r="0.6000" fill="#222222" fill-opacity="0.5"/>
    <circle cx="93.7500" cy="0" r="0.6000" fill="#222222" fill-opacity="0.5"/>
    <circle cx="112.5000" cy="0" r="0.6000" fill="#222222" fill-opacity="0.5"/>
    <circle cx="131.2500" cy="0" r="0.6000" fill="#222222" fill-opacity="0.5"/>
    <circle cx="150.0000" cy="0" r="0.6000" fill="#222222" fill-opacity="0.5"/>
    <circle cx="168.7500" cy="0" r="0.6000" fill="#222222" fill-opacity="0.5"/>
    <circle cx="187.5000" cy="0" r="0.6000" fill="#222222" fill-opacity="0.5"/>
    <circle cx="206.2500" cy="0" r="0.6000" fill="#222222" fill-opacity="0.5"/>
    <circle cx="225.0000" cy="0" r="0.6000" fill="#222222" fill-opacity="0.5"/>
    <circle cx="243.7500" cy="0" r="0.6000" fill="#222222" fill-opacity="0.5"/>
    <circle cx="262.5000" cy="0" r="0.6000" fill="#222222" fill-opacity="0.5"/>
    <circle cx="281.2500" cy="0" r="0.6000" fill="#222222" fill-opacity="0.5"/>
    <circle cx="300.0000" cy="0" r="0.6000" fill="#222222" fill-opacity="0.5"/>
  <path fill="none" stroke="#8844ff" stroke-opacity="0.6" stroke-width="0.6" d="M 4.3460 9.9052 L 22.3834 10.1882 L 40.4025 10.4200 L 58.4070 10.5994 L 76.4006 10.7256 L 94.3873 10.7979 L 112.3707 10.8159 L 130.3548 10.7795 L 148.3434 10.6890 L 166.3403 10.5448 L 184.3493 10.3476 L 202.3741 10.0984 L 220.4184 9.7984 L 238.4858 9.4492 L 256.5796 9.0525 L 274.7031 8.6104 L 292.8596 8.1249"/>
    <path fill="none" stroke="#8844ff" stroke-opacity="0.6" stroke-width="0.6" d="M -4.3460 -9.9052 L 15.1166 -10.1882 L 34.5975 -10.4200 L 54.0930 -10.5994 L 73.5994 -10.7256 L 93.1127 -10.7979 L 112.6293 -10.8159 L 132.1452 -10.7795 L 151.6566 -10.6890 L 171.1597 -10.5448 L 190.6507 -10.3476 L 210.1259 -10.0984 L 229.5816 -9.7984 L 249.0142 -9.4492 L 268.4204 -9.0525 L 287.7969 -8.6104 L 307.1404 -8.1249"/>
    <path fill="none" stroke="#8844ff" stroke-opacity="0.35" stroke-width="0.6" d="M 4.3460 9.9052 L 22.3834 10.1882 L 40.4025 10.4200 L 58.4070 10.5994 L 76.4006 10.7256 L 94.3873 10.7979 L 112.3707 10.8159 L 130.3548 10.7795 L 148.3434 10.6890 L 166.3403 10.5448 L 184.3493 10.3476 L 202.3741 10.0984 L 220.4184 9.7984 L 238.4858 9.4492 L 256.5796 9.0525 L 274.7031 8.6104 L 292.8596 8.1249 L 310.2462 3.4662 L 307.1404 -8.1249 L 287.7969 -8.6104 L 268.4204 -9.0525 L 249.0142 -9.4492 L 229.5816 -9.7984 L 210.1259 -10.0984 L 190.6507 -10.3476 L 171.1597 -10.5448 L 151.6566 -10.6890 L 132.1452 -10.7795 L 112.6293 -10.8159 L 93.1127 -10.7979 L 73.5994 -10.7256 L 54.0930 -10.5994 L 34.5975 -10.4200 L 15.1166 -10.1882 L -4.3460 -9.9052 L -7.4717 7.8214 L 4.3460 9.9052 Z"/>
  
  
  
</g>
</svg>