<svg xmlns="http://www.w3.org/2000/svg" width="337.7179" height="221.1055" viewBox="-17.4717 -110.6890 337.7179 221.1055">
  
  
  <path fill="black" stroke="none" fill-rule="evenodd" d="M -7.4717 7.8214 L 5.4225 44.8401 L 21.9028 80.2920 L 34.9342 94.6071 L 36.0311 95.1540 L 36.5988 95.3951 L 36.8842 95.5053 L 37.0269 95.5577 L 48.3101 99.7530 L 48.3454 99.7665 L 48.4162 99.7931 L 50.7816 100.4164 L 55.6202 100.0832 L 63.7080 94.7540 L 74.7149 78.5188 L 79.0295 69.6611 L 79.1583 69.3778 L 79.1905 69.3068 L 79.2066 69.2712 L 86.9100 52.9597 L 86.9789 52.8194 L 87.2496 52.2665 L 87.7839 51.1640 L 88.8429 48.9355 L 90.9007 44.4484 L 105.4428 7.8538 L 118.7653 -29.1589 L 134.3051 -65.2750 L 144.5378 -82.0569 L 146.0820 -83.9695 L 146.8952 -84.9052 L 135.1462 -71.3187 L 135.1706 -71.3478 L 135.2195 -71.4059 L 135.3171 -71.5214 L 135.5173 -71.7557 L 135.9281 -72.2253 L 139.4560 -75.6540 L 148.3434 -79.3110 L 157.2312 -75.7127 L 159.0683 -74.0791 L 159.1221 -74.0268 L 159.1489 -74.0005 L 150.5126 -82.2777 L 150.6224 -82.1742 L 150.8423 -81.9641 L 151.2825 -81.5312 L 152.1311 -80.6528 L 155.2791 -76.8962 L 165.3290 -60.1241 L 180.5048 -24.0468 L 193.4670 12.9014 L 207.6543 49.4060 L 216.2813 67.0064 L 216.5828 67.5427 L 216.7358 67.8128 L 216.8123 67.9472 L 216.8505 68.0142 L 222.7049 78.5334 L 222.7232 78.5672 L 223.3102 79.6356 L 224.5241 81.7651 L 227.1114 85.9319 L 233.1848 93.6039 L 241.2935 98.8781 L 246.1428 99.1840 L 248.5138 98.5471 L 249.6457 98.0612 L 249.7139 98.0281 L 249.7481 98.0114 L 266.0600 90.3115 L 266.1987 90.2477 L 266.4761 90.1152 L 267.0289 89.8309 L 280.2284 75.5883 L 297.0366 40.2993 L 310.2462 3.4662 L 307.1404 -8.1249 L 289.7538 -3.4662 L 276.1044 34.8361 L 258.9619 71.6218 L 245.6351 86.6207 L 245.0788 86.9286 L 244.7996 87.0731 L 244.6601 87.1427 L 260.9025 79.4756 L 260.8671 79.4915 L 260.7963 79.5230 L 259.6233 79.9842 L 257.1700 80.5722 L 252.1552 80.1692 L 243.7132 74.7054 L 237.3032 66.8498 L 234.5464 62.5934 L 233.2474 60.4197 L 232.6179 59.3293 L 232.5982 59.2948 L 238.4144 69.7456 L 238.3764 69.6755 L 238.3005 69.5352 L 238.1484 69.2532 L 237.8488 68.6929 L 229.2679 50.3271 L 215.0917 12.2889 L 202.0318 -26.1898 L 186.6500 -63.7867 L 176.4569 -81.3122 L 173.2689 -85.2564 L 172.4101 -86.1816 L 171.9647 -86.6379 L 171.7422 -86.8597 L 171.6311 -86.9691 L 162.9395 -95.2991 L 162.9111 -95.3256 L 162.8544 -95.3785 L 160.9229 -97.0287 L 151.6566 -100.6890 L 142.3899 -97.0874 L 138.6718 -93.6839 L 138.2373 -93.2173 L 138.0252 -92.9846 L 137.9216 -92.8698 L 137.8698 -92.8120 L 137.8439 -92.7831 L 126.0447 -79.1384 L 125.2443 -78.1565 L 123.7261 -76.1516 L 113.7158 -58.6358 L 98.6981 -21.0777 L 85.9985 17.3364 L 72.1771 55.2847 L 70.2160 59.9372 L 69.2059 62.2482 L 68.6962 63.3918 L 68.4379 63.9653 L 68.3721 64.1108 L 76.0418 47.8706 L 76.0242 47.9064 L 75.9891 47.9779 L 75.8485 48.2630 L 71.1551 57.1804 L 59.3940 73.5552 L 50.9312 78.9642 L 45.9056 79.3398 L 43.4468 78.7382 L 43.3732 78.7123 L 43.3363 78.6992 L 54.5473 82.8677 L 54.4011 82.8105 L 54.1087 82.6906 L 53.5269 82.4301 L 52.4017 81.8445 L 38.9070 66.9182 L 21.4365 30.2953 L 7.4717 -7.8214 L -4.3460 -9.9052 L -7.4717 7.8214 Z"/>
  <g id="debug">
  <path fill="none" stroke="#ff3366" stroke-opacity="0.6" stroke-width="0.5" d="M 0 0 L 1.5095 4.4993 L 3.0002 8.8832 L 4.4726 13.1517 L 5.9273 17.3049 L 7.3647 21.3427 L 8.7853 25.2652 L 10.1897 29.0723 L 11.5782 32.7640 L 12.9513 36.3403 L 14.3096 39.8013 L 15.6536 43.1469 L 16.9836 46.3772 L 18.3003 49.4921 L 19.6041 52.4916 L 20.8955 55.3757 L 22.1750 58.1445 L 23.4430 60.7979 L 24.7000 63.3360 L 25.9466 65.7587 L 27.1832 68.0660 L 28.4104 70.2580 L 29.6285 72.3346 L 30.8381 74.2958 L 32.0397 76.1416 L 33.2337 77.8721 L 34.4206 79.4873 L 35.6010 80.9870 L 36.7753 82.3714 L 37.9441 83.6404 L 39.1077 84.7941 L 40.2666 85.8324 L 41.4215 86.7553 L 42.5727 87.5629 L 43.7207 88.2551 L 44.8660 88.8319 L 46.0092 89.2934 L 47.1506 89.6395 L 48.2909 89.8702 L 49.4304 89.9856 L 50.5696 89.9856 L 51.7091 89.8702 L 52.8494 89.6395 L 53.9908 89.2934 L 55.1340 88.8319 L 56.2793 88.2551 L 57.4273 87.5629 L 58.5785 86.7553 L 59.7334 85.8324 L 60.8923 84.7941 L 62.0559 83.6404 L 63.2247 82.3714 L 64.3990 80.9870 L 65.5794 79.4873 L 66.7663 77.8721 L 67.9603 76.1416 L 69.1619 74.2958 L 70.3715 72.3346 L 71.5896 70.2580 L 72.8168 68.0660 L 74.0534 65.7587 L 75.3000 63.3360 L 76.5570 60.7979 L 77.8250 58.1445 L 79.1045 55.3757 L 80.3959 52.4916 L 81.6997 49.4921 L 83.0164 46.3772 L 84.3464 43.1469 L 85.6904 39.8013 L 87.0487 36.3403 L 88.4218 32.7640 L 89.8103 29.0723 L 91.2147 25.2652 L 92.6353 21.3427 L 94.0727 17.3049 L 95.5274 13.1517 L 96.9998 8.8832 L 98.4905 4.4993 L 100.0000 0 L 100.0000 0 L 101.5095 -4.4993 L 103.0002 -8.8832 L 104.4726 -13.1517 L 105.9273 -17.3049 L 107.3647 -21.3427 L 108.7853 -25.2652 L 110.1897 -29.0723 L 111.5782 -32.7640 L 112.9513 -36.3403 L 114.3096 -39.8013 L 115.6536 -43.1469 L 116.9836 -46.3772 L 118.3003 -49.4921 L 119.6041 -52.4916 L 120.8955 -55.3757 L 122.1750 -58.1445 L 123.4430 -60.7979 L 124.7000 -63.3360 L 125.9466 -65.7587 L 127.1832 -68.0660 L 128.4104 -70.2580 L 129.6285 -72.3346 L 130.8381 -74.2958 L 132.0397 -76.1416 L 133.2337 -77.8721 L 134.4206 -79.4873 L 135.6010 -80.9870 L 136.7753 -82.3714 L 137.9441 -83.6404 L 139.1077 -84.7941 L 140.2666 -85.8324 L 141.4215 -86.7553 L 142.5727 -87.5629 L 143.7207 -88.2551 L 144.8660 -88.8319 L 146.0092 -89.2934 L 147.1506 -89.6395 L 148.2909 -89.8702 L 149.4304 -89.9856 L 150.5696 -89.9856 L 151.7091 -89.8702 L 152.8494 -89.6395 L 153.9908 -89.2934 L 155.1340 -88.8319 L 156.2793 -88.2551 L 157.4273 -87.5629 L 158.5785 -86.7553 L 159.7334 -85.8324 L 160.8923 -84.7941 L 162.0559 -83.6404 L 163.2247 -82.3714 L 164.3990 -80.9870 L 165.5794 -79.4873 L 166.7663 -77.8721 L 167.9603 -76.1416 L 169.1619 -74.2958 L 170.3715 -72.3346 L 171.5896 -70.2580 L 172.8168 -68.0660 L 174.0534 -65.7587 L 175.3000 -63.3360 L 176.5570 -60.7979 L 177.8250 -58.1445 L 179.1045 -55.3757 L 180.3959 -52.4916 L 181.6997 -49.4921 L 183.0164 -46.3772 L 184.3464 -43.1469 L 185.6904 -39.8013 L 187.0487 -36.3403 L 188.4218 -32.7640 L 189.8103 -29.0723 L 191.2147 -25.2652 L 192.6353 -21.3427 L 194.0727 -17.3049 L 195.5274 -13.1517 L 196.9998 -8.8832 L 198.4905 -4.4993 L 200.0000 0 L 200.0000 0 L 201.5095 4.4993 L 203.0002 8.8832 L 204.4726 13.1517 L 205.9273 17.3049 L 207.3647 21.3427 L 208.7853 25.2652 L 210.1897 29.0723 L 211.5782 32.7640 L 212.9513 36.3403 L 214.3096 39.8013 L 215.6536 43.1469 L 216.9836 46.3772 L 218.3003 49.4921 L 219.6041 52.4916 L 220.8955 55.3757 L 222.1750 58.1445 L 223.4430 60.7979 L 224.7000 63.3360 L 225.9466 65.7587 L 227.1832 68.0660 L 228.4104 70.2580 L 229.6285 72.3346 L 230.8381 74.2958 L 232.0397 76.1416 L 233.2337 77.8721 L 234.4206 79.4873 L 235.6010 80.9870 L 236.7753 82.3714 L 237.9441 83.6404 L 239.1077 84.7941 L 240.2666 85.8324 L 241.4215 86.7553 L 242.5727 87.5629 L 243.7207 88.2551 L 244.8660 88.8319 L 246.0092 89.2934 L 247.1506 89.6395 L 248.2909 89.8702 L 249.4304 89.9856 L 250.5696 89.9856 L 251.7091 89.8702 L 252.8494 89.6395 L 253.9908 89.2934 L 255.1340 88.8319 L 256.2793 88.2551 L 257.4273 87.5629 L 258.5785 86.7553 L 259.7334 85.8324 L 260.8923 84.7941 L 262.0559 83.6404 L 263.2247 82.3714 L 264.3990 80.9870 L 265.5794 79.4873 L 266.7663 77.8721 L 267.9603 76.1416 L 269.1619 74.2958 L 270.3715 72.3346 L 271.5896 70.2580 L 272.8168 68.0660 L 274.0534 65.7587 L 275.3000 63.3360 L 276.5570 60.7979 L 277.8250 58.1445 L 279.1045 55.3757 L 280.3959 52.4916 L 281.6997 49.4921 L 283.0164 46.3772 L 284.3464 43.1469 L 285.6904 39.8013 L 287.0487 36.3403 L 288.4218 32.7640 L 289.8103 29.0723 L 291.2147 25.2652 L 292.6353 21.3427 L 294.0727 17.3049 L 295.5274 13.1517 L 296.9998 8.8832 L 298.4905 4.4993 L 300.0000 0"/>
  <path fill="none" stroke="#ff9900" stroke-opacity="0.6" stroke-width="0.6" d=""/>
  <path fill="none" stroke="#222222" stroke-opacity="0.7" stroke-width="0.6" d=""/>
  <path fill="none" stroke="#00aaff" stroke-opacity="0.6" stroke-width="0.6" d=""/>
  <circle cx="0" cy="0" r="0.6000" fill="#222222" fill-opacity="0.5"/>
    <circle cx="13.4295" cy="37.5677" r="0.6000" fill="#222222" fill-opacity="0.5"/>
    <circle cx="30.4049" cy="73.6051" r="0.6000" fill="#222222" fill-opacity="0.5"/>
    <circle cx="43.6680" cy="88.2258" r="0.6000" fill="#222222" fill-opacity="0.5"/>
    <circle cx="44.7790" cy="88.7921" r="0.6000" fill="#222222" fill-opacity="0.5"/>
    <circle cx="45.3537" cy="89.0428" r="0.6000" fill="#222222" fill-opacity="0.5"/>
    <circle cx="45.6427" cy="89.1579" r="0.6000" fill="#222222" fill-opacity="0.5"/>
    <circle cx="45.7871" cy="89.2127" r="0.6000" fill="#222222" fill-opacity="0.5"/>
    <circle cx="45.8232" cy="89.2261" r="0.6000" fill="#222222" fill-opacity="0.5"/>
    <circle cx="45.8593" cy="89.2394" r="0.6000" fill="#222222" fill-opacity="0.5"/>
    <circle cx="45.9315" cy="89.2657" r="0.6000" fill="#222222" fill-opacity="0.5"/>
    <circle cx="48.3436" cy="89.8781" r="0.6000" fill="#222222" fill-opacity="0.5"/>
    <circle cx="53.2757" cy="89.5237" r="0.6000" fill="#222222" fill-opacity="0.5"/>
    <circle cx="61.5510" cy="84.1546" r="0.6000" fill="#222222" fill-opacity="0.5"/>
    <circle cx="72.9350" cy="67.8496" r="0.6000" fill="#222222" fill-opacity="0.5"/>
    <circle cx="77.4390" cy="58.9621" r="0.6000" fill="#222222" fill-opacity="0.5"/>
    <circle cx="77.5737" cy="58.6778" r="0.6000" fill="#222222" fill-opacity="0.5"/>
    <circle cx="77.6073" cy="58.6066" r="0.6000" fill="#222222" fill-opacity="0.5"/>
    <circle cx="77.6242" cy="58.5709" r="0.6000" fill="#222222" fill-opacity="0.5"/>
    <circle cx="77.6410" cy="58.5353" r="0.6000" fill="#222222" fill-opacity="0.5"/>
    <circle cx="77.7084" cy="58.3923" r="0.6000" fill="#222222" fill-opacity="0.5"/>
    <circle cx="77.9729" cy="57.8292" r="0.6000" fill="#222222" fill-opacity="0.5"/>
    <circle cx="78.4949" cy="56.7061" r="0.6000" fill="#222222" fill-opacity="0.5"/>
    <circle cx="79.5295" cy="54.4364" r="0.6000" fill="#222222" fill-opacity="0.5"/>
    <circle cx="81.5389" cy="49.8666" r="0.6000" fill="#222222" fill-opacity="0.5"/>
    <circle cx="95.7206" cy="12.5951" r="0.6000" fill="#222222" fill-opacity="0.5"/>
    <circle cx="108.7317" cy="-25.1183" r="0.6000" fill="#222222" fill-opacity="0.5"/>
    <circle cx="124.0105" cy="-61.9554" r="0.6000" fill="#222222" fill-opacity="0.5"/>
    <circle cx="134.1320" cy="-79.1042" r="0.6000" fill="#222222" fill-opacity="0.5"/>
    <circle cx="135.6632" cy="-81.0630" r="0.6000" fill="#222222" fill-opacity="0.5"/>
    <circle cx="136.4699" cy="-82.0218" r="0.6000" fill="#222222" fill-opacity="0.5"/>
    <circle cx="136.4951" cy="-82.0509" r="0.6000" fill="#222222" fill-opacity="0.5"/>
    <circle cx="136.5202" cy="-82.0799" r="0.6000" fill="#222222" fill-opacity="0.5"/>
    <circle cx="136.5706" cy="-82.1378" r="0.6000" fill="#222222" fill-opacity="0.5"/>
    <circle cx="136.6712" cy="-82.2530" r="0.6000" fill="#222222" fill-opacity="0.5"/>
    <circle cx="136.8773" cy="-82.4865" r="0.6000" fill="#222222" fill-opacity="0.5"/>
    <circle cx="137.3000" cy="-82.9546" r="0.6000" fill="#222222" fill-opacity="0.5"/>
    <circle cx="140.9229" cy="-86.3707" r="0.6000" fill="#222222" fill-opacity="0.5"/>
    <circle cx="150.0000" cy="-90.0000" r="0.6000" fill="#222222" fill-opacity="0.5"/>
    <circle cx="159.0771" cy="-86.3707" r="0.6000" fill="#222222" fill-opacity="0.5"/>
    <circle cx="160.9614" cy="-84.7288" r="0.6000" fill="#222222" fill-opacity="0.5"/>
    <circle cx="161.0166" cy="-84.6762" r="0.6000" fill="#222222" fill-opacity="0.5"/>
    <circle cx="161.0442" cy="-84.6498" r="0.6000" fill="#222222" fill-opacity="0.5"/>
    <circle cx="161.0718" cy="-84.6234" r="0.6000" fill="#222222" fill-opacity="0.5"/>
    <circle cx="161.1823" cy="-84.5169" r="0.6000" fill="#222222" fill-opacity="0.5"/>
    <circle cx="161.4035" cy="-84.3010" r="0.6000" fill="#222222" fill-opacity="0.5"/>
    <circle cx="161.8463" cy="-83.8564" r="0.6000" fill="#222222" fill-opacity="0.5"/>
    <circle cx="162.7000" cy="-82.9546" r="0.6000" fill="#222222" fill-opacity="0.5"/>
    <circle cx="165.8680" cy="-79.1042" r="0.6000" fill="#222222" fill-opacity="0.5"/>
    <circle cx="175.9895" cy="-61.9554" r="0.6000" fill="#222222" fill-opacity="0.5"/>
    <circle cx="191.2683" cy="-25.1183" r="0.6000" fill="#222222" fill-opacity="0.5"/>
    <circle cx="204.2794" cy="12.5951" r="0.6000" fill="#222222" fill-opacity="0.5"/>
    <circle cx="218.4611" cy="49.8666" r="0.6000" fill="#222222" fill-opacity="0.5"/>
    <circle cx="227.0650" cy="67.8496" r="0.6000" fill="#222222" fill-opacity="0.5"/>
    <circle cx="227.3656" cy="68.3980" r="0.6000" fill="#222222" fill-opacity="0.5"/>
    <circle cx="227.5181" cy="68.6740" r="0.6000" fill="#222222" fill-opacity="0.5"/>
    <circle cx="227.5944" cy="68.8114" r="0.6000" fill="#222222" fill-opacity="0.5"/>
    <circle cx="227.6325" cy="68.8799" r="0.6000" fill="#222222" fill-opacity="0.5"/>
    <circle cx="227.6515" cy="68.9141" r="0.6000" fill="#222222" fill-opacity="0.5"/>
    <circle cx="227.6706" cy="68.9483" r="0.6000" fill="#222222" fill-opacity="0.5"/>
    <circle cx="228.2788" cy="70.0277" r="0.6000" fill="#222222" fill-opacity="0.5"/>
    <circle cx="229.5353" cy="72.1792" r="0.6000" fill="#222222" fill-opacity="0.5"/>
    <circle cx="232.2073" cy="76.3909" r="0.6000" fill="#222222" fill-opacity="0.5"/>
    <circle cx="238.4490" cy="84.1546" r="0.6000" fill="#222222" fill-opacity="0.5"/>
    <circle cx="246.7243" cy="89.5237" r="0.6000" fill="#222222" fill-opacity="0.5"/>
    <circle cx="251.6564" cy="89.8781" r="0.6000" fill="#222222" fill-opacity="0.5"/>
    <circle cx="254.0685" cy="89.2657" r="0.6000" fill="#222222" fill-opacity="0.5"/>
    <circle cx="255.2210" cy="88.7921" r="0.6000" fill="#222222" fill-opacity="0.5"/>
    <circle cx="255.2905" cy="88.7598" r="0.6000" fill="#222222" fill-opacity="0.5"/>
    <circle cx="255.3253" cy="88.7435" r="0.6000" fill="#222222" fill-opacity="0.5"/>
    <circle cx="255.3601" cy="88.7271" r="0.6000" fill="#222222" fill-opacity="0.5"/>
    <circle cx="255.4991" cy="88.6604" r="0.6000" fill="#222222" fill-opacity="0.5"/>
    <circle cx="255.7774" cy="88.5219" r="0.6000" fill="#222222" fill-opacity="0.5"/>
    <circle cx="256.3320" cy="88.2258" r="0.6000" fill="#222222" fill-opacity="0.5"/>
    <circle cx="269.5951" cy="73.6051" r="0.6000" fill="#222222" fill-opacity="0.5"/>
    <circle cx="286.5705" cy="37.5677" r="0.6000" fill="#222222" fill-opacity="0.5"/>
    <circle cx="300.0000" cy="0" r="0.6000" fill="#222222" fill-opacity="0.5"/>
  <path fill="none" stroke="#8844ff" stroke-opacity="0.6" stroke-width="0.6" d="M -7.4717 7.8214 L 5.4225 44.8401 L 21.9028 80.2920 L 34.9342 94.6071 L 36.0311 95.1540 L 36.5988 95.3951 L 36.8842 95.5053 L 37.0269 95.5577 L 48.3101 99.7530 L 48.3454 99.7665 L 48.4162 99.7931 L 50.7816 100.4164 L 55.6202 100.0832 L 63.7080 94.7540 L 74.7149 78.5188 L 79.0295 69.6611 L 79.1583 69.3778 L 79.1905 69.3068 L 79.2066 69.2712 L 86.9100 52.9597 L 86.9789 52.8194 L 87.2496 52.2665 L 87.7839 51.1640 L 88.8429 48.9355 L 90.9007 44.4484 L 105.4428 7.8538 L 118.7653 -29.1589 L 134.3051 -65.2750 L 144.5378 -82.0569 L 146.0820 -83.9695 L 146.8952 -84.9052 L 135.1462 -71.3187 L 135.1706 -71.3478 L 135.2195 -71.4059 L 135.3171 -71.5214 L 135.5173 -71.7557 L 135.9281 -72.2253 L 139.4560 -75.6540 L 148.3434 -79.3110 L 157.2312 -75.7127 L 159.0683 -74.0791 L 159.1221 -74.0268 L 159.1489 -74.0005 L 150.5126 -82.2777 L 150.6224 -82.1742 L 150.8423 -81.9641 L 151.2825 -81.5312 L 152.1311 -80.6528 L 155.2791 -76.8962 L 165.3290 -60.1241 L 180.5048 -24.0468 L 193.4670 12.9014 L 207.6543 49.4060 L 216.2813 67.0064 L 216.5828 67.5427 L 216.7358 67.8128 L 216.8123 67.9472 L 216.8505 68.0142 L 222.7049 78.5334 L 222.7232 78.5672 L 223.3102 79.6356 L 224.5241 81.7651 L 227.1114 85.9319 L 233.1848 93.6039 L 241.2935 98.8781 L 246.1428 99.1840 L 248.5138 98.5471 L 249.6457 98.0612 L 249.7139 98.0281 L 249.7481 98.0114 L 266.0600 90.3115 L 266.1987 90.2477 L 266.4761 90.1152 L 267.0289 89.8309 L 280.2284 75.5883 L 297.0366 40.2993 L 310.2462 3.4662"/>
    <path fill="none" stroke="#8844ff" stroke-opacity="0.6" stroke-width="0.6" d="M 7.4717 -7.8214 L 21.4365 30.2953 L 38.9070 66.9182 L 52.4017 81.8445 L 53.5269 82.4301 L 54.1087 82.6906 L 54.4011 82.8105 L 54.5473 82.8677 L 43.3363 78.6992 L 43.3732 78.7123 L 43.4468 78.7382 L 45.9056 79.3398 L 50.9312 78.9642 L 59.3940 73.5552 L 71.1551 57.1804 L 75.8485 48.2630 L 75.9891 47.9779 L 76.0242 47.9064 L 76.0418 47.8706 L 68.3721 64.1108 L 68.4379 63.9653 L 68.6962 63.3918 L 69.2059 62.2482 L 70.2160 59.9372 L 72.1771 55.2847 L 85.9985 17.3364 L 98.6981 -21.0777 L 113.7158 -58.6358 L 123.7261 -76.1516 L 125.2443 -78.1565 L 126.0447 -79.1384 L 137.8439 -92.7831 L 137.8698 -92.8120 L 137.9216 -92.8698 L 138.0252 -92.9846 L 138.2373 -93.2173 L 138.6718 -93.6839 L 142.3899 -97.0874 L 151.6566 -100.6890 L 160.9229 -97.0287 L 162.8544 -95.3785 L 162.9111 -95.3256 L 162.9395 -95.2991 L 171.6311 -86.9691 L 171.7422 -86.8597 L 171.9647 -86.6379 L 172.4101 -86.1816 L 173.2689 -85.2564 L 176.4569 -81.3122 L 186.6500 -63.7867 L 202.0318 -26.1898 L 215.0917 12.2889 L 229.2679 50.3271 L 237.8488 68.6929 L 238.1484 69.2532 L 238.3005 69.5352 L 238.3764 69.6755 L 238.4144 69.7456 L 232.5982 59.2948 L 232.6179 59.3293 L 233.2474 60.4197 L 234.5464 62.5934 L 237.3032 66.8498 L 243.7132 74.7054 L 252.1552 80.1692 L 257.1700 80.5722 L 259.6233 79.9842 L 260.7963 79.5230 L 260.8671 79.4915 L 260.9025 79.4756 L 244.6601 87.1427 L 244.7996 87.0731 L 245.0788 86.9286 L 245.6351 86.6207 L 258.9619 71.6218 L 276.1044 34.8361 L 289.7538 -3.4662"/>
    <path fill="none" stroke="#8844ff" stroke-opacity="0.35" stroke-width="0.6" d="M -7.4717 7.8214 L 5.4225 44.8401 L 21.9028 80.2920 L 34.9342 94.6071 L 36.0311 95.1540 L 36.5988 95.3951 L 36.8842 95.5053 L 37.0269 95.5577 L 48.3101 99.7530 L 48.3454 99.7665 L 48.4162 99.7931 L 50.7816 100.4164 L 55.6202 100.0832 L 63.7080 94.7540 L 74.7149 78.5188 L 79.0295 69.6611 L 79.1583 69.3778 L 79.1905 69.3068 L 79.2066 69.2712 L 86.9100 52.9597 L 86.9789 52.8194 L 87.2496 52.2665 L 87.7839 51.1640 L 88.8429 48.9355 L 90.9007 44.4484 L 105.4428 7.8538 L 118.7653 -29.1589 L 134.3051 -65.2750 L 144.5378 -82.0569 L 146.0820 -83.9695 L 146.8952 -84.9052 L 135.1462 -71.3187 L 135.1706 -71.3478 L 135.2195 -71.4059 L 135.3171 -71.5214 L 135.5173 -71.7557 L 135.9281 -72.2253 L 139.4560 -75.6540 L 148.3434 -79.3110 L 157.2312 -75.7127 L 159.0683 -74.0791 L 159.1221 -74.0268 L 159.1489 -74.0005 L 150.5126 -82.2777 L 150.6224 -82.1742 L 150.8423 -81.9641 L 151.2825 -81.5312 L 152.1311 -80.6528 L 155.2791 -76.8962 L 165.3290 -60.1241 L 180.5048 -24.0468 L 193.4670 12.9014 L 207.6543 49.4060 L 216.2813 67.0064 L 216.5828 67.5427 L 216.7358 67.8128 L 216.8123 67.9472 L 216.8505 68.0142 L 222.7049 78.5334 L 222.7232 78.5672 L 223.3102 79.6356 L 224.5241 81.7651 L 227.1114 85.9319 L 233.1848 93.6039 L 241.2935 98.8781 L 246.1428 99.1840 L 248.5138 98.5471 L 249.6457 98.0612 L 249.7139 98.0281 L 249.7481 98.0114 L 266.0600 90.3115 L 266.1987 90.2477 L 266.4761 90.1152 L 267.0289 89.8309 L 280.2284 75.5883 L 297.0366 40.2993 L 310.2462 3.4662 L 307.1404 -8.1249 L 289.7538 -3.4662 L 276.1044 34.8361 L 258.9619 71.6218 L 245.6351 86.6207 L 245.0788 86.9286 L 244.7996 87.0731 L 244.6601 87.1427 L 260.9025 79.4756 L 260.8671 79.4915 L 260.7963 79.5230 L 259.6233 79.9842 L 257.1700 80.5722 L 252.1552 80.1692 L 243.7132 74.7054 L 237.3032 66.8498 L 234.5464 62.5934 L 233.2474 60.4197 L 232.6179 59.3293 L 232.5982 59.2948 L 238.4144 69.7456 L 238.3764 69.6755 L 238.3005 69.5352 L 238.1484 69.2532 L 237.8488 68.6929 L 229.2679 50.3271 L 215.0917 12.2889 L 202.0318 -26.1898 L 186.6500 -63.7867 L 176.4569 -81.3122 L 173.2689 -85.2564 L 172.4101 -86.1816 L 171.9647 -86.6379 L 171.7422 -86.8597 L 171.6311 -86.9691 L 162.9395 -95.2991 L 162.9111 -95.3256 L 162.8544 -95.3785 L 160.9229 -97.0287 L 151.6566 -100.6890 L 142.3899 -97.0874 L 138.6718 -93.6839 L 138.2373 -93.2173 L 138.0252 -92.9846 L 137.9216 -92.8698 L 137.8698 -92.8120 L 137.8439 -92.7831 L 126.0447 -79.1384 L 125.2443 -78.1565 L 123.7261 -76.1516 L 113.7158 -58.6358 L 98.6981 -21.0777 L 85.9985 17.3364 L 72.1771 55.2847 L 70.2160 59.9372 L 69.2059 62.2482 L 68.6962 63.3918 L 68.4379 63.9653 L 68.3721 64.1108 L 76.0418 47.8706 L 76.0242 47.9064 L 75.9891 47.9779 L 75.8485 48.2630 L 71.1551 57.1804 L 59.3940 73.5552 L 50.9312 78.9642 L 45.9056 79.3398 L 43.4468 78.7382 L 43.3732 78.7123 L 43.3363 78.6992 L 54.5473 82.8677 L 54.4011 82.8105 L 54.1087 82.6906 L 53.5269 82.4301 L 52.4017 81.8445 L 38.9070 66.9182 L 21.4365 30.2953 L 7.4717 -7.8214 L -4.3460 -9.9052 L -7.4717 7.8214 Z"/>
  
  
  
</g>
</svg>